<svg width="128" height="128" viewBox="0 0 128 128" fill="none" xmlns="http://www.w3.org/2000/svg">
<path fill-rule="evenodd" clip-rule="evenodd" d="M87.6215 60.8951C84.2537 64.2628 79.6825 65.6382 75.3236 65.0618L62.7223 52.4605C62.1155 48.1117 63.5112 43.5203 66.8789 40.1525C72.6031 34.4283 81.8872 34.4283 87.6113 40.1525C93.3456 45.8868 93.3456 55.1709 87.6215 60.8951ZM70.459 68.6297L44.5042 91.3352C44.108 91.6818 43.5109 91.6619 43.1386 91.2897L36.5021 84.6531C36.13 84.281 36.1099 83.6841 36.4563 83.2879L59.1522 57.3229L70.459 68.6297ZM62.8738 111.046L68.8508 105.069C72.2287 101.651 72.2287 96.109 68.8306 92.7109C65.4325 89.3128 59.9005 89.3229 56.5024 92.721L45.2462 103.977C42.7381 106.485 38.632 106.485 36.1239 103.977L35.1935 103.047C32.6854 100.539 32.6854 96.4326 35.1935 93.9245L38.3792 90.7388L36.8116 89.1712L33.6259 92.3569C30.2278 95.755 30.2379 101.287 33.636 104.685L34.5665 105.616C37.9646 109.014 43.4865 109.014 46.9048 105.595L58.161 94.3391C60.6691 91.831 64.7751 91.831 67.2833 94.3391C69.7914 96.8472 69.7914 100.953 67.2833 103.461L61.286 109.459C60.8511 109.894 60.841 110.612 61.2759 111.046C61.7108 111.481 62.439 111.481 62.8738 111.046Z" fill="url(#paint0_linear_338_31397)"/>
<path d="M86.6215 98.7083L92.6086 99.7023L96.1743 93.4759L107.867 95.4173L109.208 102.458L115.13 103.442L108.032 70.8807L103.926 70.1988L86.6215 98.7083ZM98.6821 89.0728L104.662 78.6054L106.917 90.44L98.6821 89.0728Z" fill="url(#paint1_linear_338_31397)"/>
<path d="M45.6299 35.0051C43.8424 35.2082 42.2097 36.1144 41.0888 37.5208C39.9681 38.929 39.4533 40.725 39.6564 42.5124C39.8595 44.2999 40.764 45.9328 42.1721 47.0534C43.5803 48.174 45.3745 48.6892 47.1619 48.486C48.9494 48.2829 50.584 47.3783 51.7047 45.9701C52.8237 44.5621 53.3405 42.7677 53.1374 40.9804L50.6958 19.4951C50.4913 17.7113 49.5888 16.08 48.1861 14.9602C46.7816 13.8408 44.9908 13.3236 43.2061 13.5211C42.7592 13.5755 42.3186 13.6701 41.8895 13.8027L28.7169 18.0325C27.225 18.5142 25.9452 19.4963 25.0942 20.8132C24.2413 22.1302 23.8722 23.7009 24.044 25.2601L25.9693 42.2018C24.0908 41.7767 22.1201 42.1737 20.5507 43.2921C18.9813 44.4105 17.9635 46.1442 17.7532 48.0607C17.5427 49.9755 18.158 51.8892 19.4463 53.3213C20.7348 54.7554 22.5721 55.5705 24.4981 55.5657C26.4257 55.5589 28.2582 54.7317 29.5379 53.2912C30.8171 51.849 31.4199 49.9324 31.197 48.0186L28.5525 24.7475C28.4324 23.6748 29.083 22.6661 30.1084 22.3338L43.2783 18.1079C43.4136 18.0586 43.5527 18.0267 43.6954 18.0105C44.2166 17.9513 44.7425 18.0735 45.1834 18.3587C45.7549 18.7255 46.1304 19.3303 46.2036 20.0052L47.9259 35.1612C47.1756 34.9789 46.399 34.9262 45.6301 35.0047L45.6299 35.0051Z" fill="url(#paint2_linear_338_31397)"/>
<defs>
<linearGradient id="paint0_linear_338_31397" x1="91.9133" y1="74.3025" x2="31.0824" y2="74.3025" gradientUnits="userSpaceOnUse">
<stop stop-color="#FF9675"/>
<stop offset="1" stop-color="#F888B5"/>
</linearGradient>
<linearGradient id="paint1_linear_338_31397" x1="117.62" y1="88.449" x2="89.1107" y2="83.7157" gradientUnits="userSpaceOnUse">
<stop stop-color="#B318C2"/>
<stop offset="1" stop-color="#744AE6"/>
</linearGradient>
<linearGradient id="paint2_linear_338_31397" x1="52.2124" y1="32.8407" x2="16.3189" y2="36.9197" gradientUnits="userSpaceOnUse">
<stop stop-color="#B318C2"/>
<stop offset="1" stop-color="#744AE6"/>
</linearGradient>
</defs>
</svg>
