<svg width="128" height="128" viewBox="0 0 128 128" fill="none" xmlns="http://www.w3.org/2000/svg">
<path fill-rule="evenodd" clip-rule="evenodd" d="M85.9244 103.352H93.6718C101.932 103.352 108.615 96.6491 108.615 88.4089V75.4141H70.9421V88.3892C70.9816 96.6491 77.6644 103.352 85.9244 103.352ZM76.2845 81.509V85.4123C76.2845 88.5862 78.8669 91.1686 82.0408 91.1686C85.2147 91.1686 87.7971 88.5862 87.7971 85.4123C87.7971 84.7223 88.3491 84.1704 89.0391 84.1704H90.3796C91.0696 84.1704 91.6216 84.7223 91.6216 85.4123C91.6216 88.5862 94.1843 91.1686 97.3779 91.1686C100.571 91.1686 103.134 88.5862 103.134 85.4123V81.509H76.2845Z" fill="url(#paint0_linear_338_31399)"/>
<path fill-rule="evenodd" clip-rule="evenodd" d="M25.9414 80.4464C25.8083 79.7585 25.6926 79.0632 25.5959 78.3611L27.5773 78.0884C27.6688 78.7535 27.7785 79.413 27.905 80.0664L25.9414 80.4464ZM54.3278 78.3226C54.2618 78.9929 54.1883 79.6512 54.1077 80.2975L52.1231 80.05C52.2015 79.4209 52.2731 78.7799 52.3374 78.1268L54.3278 78.3226ZM53.5091 84.2201C53.2627 85.5774 52.985 86.8736 52.6817 88.1096L50.7393 87.633C51.0328 86.4368 51.3021 85.1804 51.5413 83.8628L53.5091 84.2201ZM28.3515 88.5078C27.8344 87.2258 27.3637 85.901 26.954 84.539L28.8692 83.9628C29.2603 85.2629 29.7105 86.5303 30.2063 87.7596L28.3515 88.5078ZM51.6055 91.9417C51.1798 93.2792 50.7261 94.5299 50.2547 95.6954L48.4006 94.9456C48.8528 93.8275 49.2893 92.6246 49.6998 91.3351L51.6055 91.9417ZM32.1098 96.0037C31.4096 94.8403 30.7282 93.6143 30.0838 92.3326L31.8706 91.4342C32.4909 92.6678 33.1475 93.8495 33.8233 94.9722L32.1098 96.0037ZM36.9369 102.847C36.1099 101.84 35.254 100.725 34.3987 99.5116L36.0333 98.3592C36.8594 99.531 37.6855 100.608 38.4823 101.578L36.9369 102.847ZM48.5974 99.3358C47.9278 100.646 47.2471 101.805 46.5805 102.818L44.9098 101.719C45.535 100.769 46.1791 99.6725 46.8166 98.4254L48.5974 99.3358ZM41.2721 107.449C40.8052 107.034 40.2898 106.543 39.7392 105.982L41.1665 104.581C41.4429 104.862 41.7079 105.123 41.9597 105.363C42.1677 105.167 42.3904 104.943 42.6254 104.689L44.0943 106.046C43.5411 106.645 43.0192 107.128 42.5484 107.492L41.8922 108L41.2721 107.449Z" fill="url(#paint1_linear_338_31399)"/>
<path fill-rule="evenodd" clip-rule="evenodd" d="M43.7509 74.3517H36.0035C27.7436 74.3517 21.0607 67.6491 21.0607 59.4089V46.4141H58.7332V59.3892C58.6937 67.6491 52.0109 74.3517 43.7509 74.3517ZM53.3908 52.509V56.4123C53.3908 59.5862 50.8083 62.1686 47.6345 62.1686C44.4606 62.1686 41.8782 59.5862 41.8782 56.4123C41.8782 55.7223 41.3262 55.1704 40.6362 55.1704H39.2957C38.6057 55.1704 38.0537 55.7223 38.0537 56.4123C38.0537 59.5862 35.491 62.1686 32.2974 62.1686C29.1038 62.1686 26.5411 59.5862 26.5411 56.4123V52.509H53.3908Z" fill="url(#paint2_linear_338_31399)"/>
<path fill-rule="evenodd" clip-rule="evenodd" d="M108.634 72.5863H70.9816H70.9619V68.8784C70.9619 61.4464 76.9942 55.4141 84.4262 55.4141H95.17C102.602 55.4141 108.634 61.4464 108.634 68.8784V70.3108H119.516C120.144 70.3108 120.654 70.8202 120.654 71.4485C120.654 72.0769 120.144 72.5863 119.516 72.5863H108.634Z" fill="url(#paint3_linear_338_31399)"/>
<path fill-rule="evenodd" clip-rule="evenodd" d="M21.041 43.5863H58.6937H58.7134V39.8784C58.7134 32.4464 52.6811 26.4141 45.2491 26.4141H34.5053C27.0733 26.4141 21.041 32.4464 21.041 39.8784V41.3108H10.1592C9.53087 41.3108 9.02148 41.8202 9.02148 42.4485C9.02148 43.0769 9.53087 43.5863 10.1592 43.5863H21.041Z" fill="url(#paint4_linear_338_31399)"/>
<defs>
<linearGradient id="paint0_linear_338_31399" x1="120.654" y1="79.8187" x2="70.9421" y2="79.8187" gradientUnits="userSpaceOnUse">
<stop stop-color="#FF9675"/>
<stop offset="1" stop-color="#F888B5"/>
</linearGradient>
<linearGradient id="paint1_linear_338_31399" x1="54.3278" y1="93.3162" x2="25.5959" y2="93.3162" gradientUnits="userSpaceOnUse">
<stop stop-color="#B318C2"/>
<stop offset="1" stop-color="#744AE6"/>
</linearGradient>
<linearGradient id="paint2_linear_338_31399" x1="9.02148" y1="50.8187" x2="58.7332" y2="50.8187" gradientUnits="userSpaceOnUse">
<stop stop-color="#FF9675"/>
<stop offset="1" stop-color="#F888B5"/>
</linearGradient>
<linearGradient id="paint3_linear_338_31399" x1="70.9619" y1="64.1563" x2="120.654" y2="64.1563" gradientUnits="userSpaceOnUse">
<stop stop-color="#B318C2"/>
<stop offset="1" stop-color="#744AE6"/>
</linearGradient>
<linearGradient id="paint4_linear_338_31399" x1="58.7134" y1="35.1563" x2="9.02148" y2="35.1563" gradientUnits="userSpaceOnUse">
<stop stop-color="#B318C2"/>
<stop offset="1" stop-color="#744AE6"/>
</linearGradient>
</defs>
</svg>
