<svg width="128" height="128" viewBox="0 0 128 128" fill="none" xmlns="http://www.w3.org/2000/svg">
<path d="M13.679 73.5115H23.4436V96.1893H13.679V73.5115Z" fill="url(#paint0_linear_338_31476)"/>
<path d="M51.5058 72.4136H38.8436L39.6422 59.5233C39.6422 58.5194 38.8437 57.6981 37.8398 57.6753C37.1782 57.6753 36.5622 58.0175 36.2428 58.6107L28.2576 71.8432C28.0523 72.2082 27.9382 72.6417 27.9382 73.0524V93.7453C27.9382 95.0914 29.0333 96.1637 30.3566 96.1637H45.0036C47.4448 96.1637 49.635 94.5895 50.3651 92.2395L54.2208 81.2429C54.6086 80.1021 54.8367 78.9158 54.8367 77.7294C54.8367 76.8624 54.8367 75.9955 54.8367 75.9499C54.9736 74.1247 53.5819 72.5277 51.7568 72.4136C51.6427 72.4136 51.5742 72.4136 51.5058 72.4136Z" fill="url(#paint1_linear_338_31476)"/>
<path d="M73.1501 18.0745C66.615 18.0745 64.4142 23.8685 64.4142 23.8685C64.4142 23.8685 62.2133 18.0745 55.6783 18.0745C49.1432 18.0745 45.2131 24.2951 45.2131 29.4379C45.2131 38.039 64.4142 51.1541 64.4142 51.1541C64.4142 51.1541 83.6152 38.039 83.6152 29.4379C83.6152 24.2951 79.6851 18.0745 73.1501 18.0745Z" fill="url(#paint2_linear_338_31476)"/>
<path fill-rule="evenodd" clip-rule="evenodd" d="M74.4315 84.2411C74.7717 92.085 81.2358 98.3223 89.1553 98.3223C97.0936 98.3223 103.577 92.0661 103.917 84.2411C103.917 83.882 103.614 83.5796 103.274 83.5796H75.0741C74.6961 83.5796 74.4126 83.8631 74.4315 84.2411ZM64.4141 81.028C64.4141 67.4572 75.4333 56.438 89.0041 56.438C102.594 56.438 113.594 67.4572 113.594 81.028C113.594 94.5988 102.575 105.618 89.0041 105.618C75.4333 105.618 64.4141 94.5988 64.4141 81.028ZM78.1357 65.3198L80.3282 69.7426L85.1857 70.442L81.6702 73.8819L82.5018 78.7394L78.1357 76.4524L73.7885 78.7394L74.6202 73.8819L71.0857 70.442L75.9621 69.7426L78.1357 65.3198ZM99.04 65.3198L101.214 69.7426L106.09 70.442L102.574 73.8819L103.406 78.7394L99.04 76.4524L94.6928 78.7394L95.5244 73.8819L91.99 70.442L96.8664 69.7426L99.04 65.3198Z" fill="url(#paint3_linear_338_31476)"/>
<defs>
<linearGradient id="paint0_linear_338_31476" x1="23.4436" y1="85.0566" x2="13.679" y2="85.0566" gradientUnits="userSpaceOnUse">
<stop stop-color="#B318C2"/>
<stop offset="1" stop-color="#744AE6"/>
</linearGradient>
<linearGradient id="paint1_linear_338_31476" x1="54.846" y1="77.2694" x2="27.9382" y2="77.2694" gradientUnits="userSpaceOnUse">
<stop stop-color="#B318C2"/>
<stop offset="1" stop-color="#744AE6"/>
</linearGradient>
<linearGradient id="paint2_linear_338_31476" x1="83.6152" y1="34.915" x2="45.2131" y2="34.915" gradientUnits="userSpaceOnUse">
<stop stop-color="#FF9675"/>
<stop offset="1" stop-color="#F888B5"/>
</linearGradient>
<linearGradient id="paint3_linear_338_31476" x1="113.594" y1="81.4751" x2="64.4141" y2="81.4751" gradientUnits="userSpaceOnUse">
<stop stop-color="#FF9675"/>
<stop offset="1" stop-color="#F888B5"/>
</linearGradient>
</defs>
</svg>
