<svg width="128" height="128" viewBox="0 0 128 128" fill="none" xmlns="http://www.w3.org/2000/svg">
<path d="M30.1503 101.261L16.1707 112.887V39.0403C16.1707 26.3377 26.4681 16.0403 39.1707 16.0403H87.8357C100.538 16.0403 110.836 26.3377 110.836 39.0403V78.0293C110.836 90.7319 100.538 101.029 87.8357 101.029H30.7897H30.4282L30.1503 101.261Z" stroke="url(#paint0_linear_338_31463)" stroke-width="2"/>
<path d="M28.6567 37.4548C28.6567 31.932 33.1339 27.4548 38.6567 27.4548H88.3495C93.8724 27.4548 98.3495 31.932 98.3495 37.4548V42.5165C98.3495 48.0393 93.8724 52.5165 88.3495 52.5165H37.9176L28.6567 60.052V37.4548Z" fill="url(#paint1_linear_338_31463)"/>
<path d="M28.6567 72.052C28.6567 66.5292 33.1339 62.052 38.6567 62.052H88.3495C93.8724 62.052 98.3495 66.5292 98.3495 72.052V77.1136C98.3495 82.6365 93.8724 87.1136 88.3495 87.1136H35.9176L28.6567 92.6492V72.052Z" fill="url(#paint2_linear_338_31463)"/>
<defs>
<linearGradient id="paint0_linear_338_31463" x1="111.836" y1="65.9389" x2="15.1707" y2="65.9389" gradientUnits="userSpaceOnUse">
<stop stop-color="#B318C2"/>
<stop offset="1" stop-color="#744AE6"/>
</linearGradient>
<linearGradient id="paint1_linear_338_31463" x1="98.3495" y1="44.0498" x2="28.6567" y2="44.0498" gradientUnits="userSpaceOnUse">
<stop stop-color="#FF9675"/>
<stop offset="1" stop-color="#F888B5"/>
</linearGradient>
<linearGradient id="paint2_linear_338_31463" x1="98.3495" y1="77.6288" x2="28.6567" y2="77.6288" gradientUnits="userSpaceOnUse">
<stop stop-color="#FF9675"/>
<stop offset="1" stop-color="#F888B5"/>
</linearGradient>
</defs>
</svg>
