<svg width="760" height="759" viewBox="0 0 760 759" fill="none" xmlns="http://www.w3.org/2000/svg">
<path fill-rule="evenodd" clip-rule="evenodd" d="M64.8561 709.292C62.5548 699.995 54.1558 693.102 44.1468 693.102C32.3647 693.102 22.8135 702.653 22.8135 714.435C22.8135 726.217 32.3647 735.768 44.1468 735.768C54.9588 735.768 63.8921 727.725 65.29 717.296C131.495 710.019 179.562 668.468 215.036 609.75C254.106 545.08 278.239 459.111 294.987 373.593C306.926 312.636 315.164 251.599 322.337 198.444C325.228 177.028 327.946 156.89 330.663 138.554C335.411 106.518 340.139 80.1014 345.742 61.7385C348.552 52.5317 351.495 45.652 354.584 41.1503C357.692 36.6233 360.422 35.2139 362.754 35.2139C365.08 35.2139 367.791 36.6158 370.873 41.1391C373.939 45.6395 376.852 52.5184 379.635 61.7283C385.188 80.0976 389.88 106.517 394.702 138.562C396.981 153.713 399.285 170.089 401.72 187.399C409.553 243.07 418.743 308.396 432.858 373.67C451.356 459.222 478.414 545.231 522.332 609.928C562.684 669.372 617.421 710.995 692.728 717.535C694.229 727.848 703.109 735.768 713.838 735.768C725.62 735.768 735.171 726.217 735.171 714.435C735.171 702.653 725.62 693.102 713.838 693.102C703.743 693.102 695.286 700.114 693.071 709.533C620.843 703.141 568.214 663.273 528.951 605.435C485.908 542.028 459.111 457.232 440.677 371.979C426.631 307.023 417.499 242.118 409.672 186.486C407.228 169.117 404.912 152.652 402.613 137.372C397.796 105.365 393.034 78.4081 387.293 59.4137C384.43 49.9419 381.237 42.1422 377.484 36.6344C373.747 31.1496 368.926 27.2139 362.754 27.2139C356.589 27.2139 351.75 31.1421 347.989 36.6232C344.209 42.1297 340.982 49.9286 338.091 59.4035C332.293 78.4043 327.494 105.364 322.75 137.381C320.005 155.898 317.273 176.148 314.373 197.635C307.209 250.714 299.027 311.345 287.137 372.056C270.433 457.343 246.511 542.18 208.188 605.613C173.633 662.811 127.646 702.217 64.8561 709.292Z" fill="url(#paint0_linear_577_27137)"/>
<defs>
<linearGradient id="paint0_linear_577_27137" x1="44.1468" y1="714.436" x2="713.838" y2="714.435" gradientUnits="userSpaceOnUse">
<stop stop-color="#58FF7D"/>
<stop offset="0.751021" stop-color="#FF3232"/>
</linearGradient>
</defs>
</svg>
