<svg width="759" height="759" viewBox="0 0 759 759" fill="none" xmlns="http://www.w3.org/2000/svg">
<path fill-rule="evenodd" clip-rule="evenodd" d="M723.252 54.3113C719.512 195.494 677.644 270.863 615.195 312.237C552.459 353.8 469.709 360.38 387.667 366.903C384.75 367.135 381.833 367.366 378.919 367.6C293.457 374.443 209.445 382.562 146.599 429.268C86.8252 473.691 45.4002 553.748 41.9122 703.949C51.6637 705.915 59.0068 714.53 59.0068 724.861C59.0068 736.643 49.4556 746.194 37.6735 746.194C25.8914 746.194 16.3402 736.643 16.3402 724.861C16.3402 714.362 23.9241 705.635 33.9124 703.858C37.4207 552.252 79.2983 469.317 141.827 422.847C206.827 374.54 293.279 366.431 378.28 359.625C380.878 359.417 383.474 359.21 386.068 359.004C468.945 352.403 549.805 345.962 610.777 305.567C670.246 266.168 711.541 193.805 715.252 54.2078C705.518 52.2289 698.192 43.6212 698.192 33.3024C698.192 21.5203 707.743 11.9691 719.525 11.9691C731.307 11.9691 740.858 21.5203 740.858 33.3024C740.858 43.8132 733.257 52.5485 723.252 54.3113Z" fill="url(#paint0_linear_577_27143)"/>
<defs>
<linearGradient id="paint0_linear_577_27143" x1="37.6732" y1="724.861" x2="37.6735" y2="33.3027" gradientUnits="userSpaceOnUse">
<stop stop-color="#58FF7D"/>
<stop offset="0.751021" stop-color="#FF3232"/>
</linearGradient>
</defs>
</svg>
