<svg width="759" height="759" viewBox="0 0 759 759" fill="none" xmlns="http://www.w3.org/2000/svg">
<path fill-rule="evenodd" clip-rule="evenodd" d="M730.48 703.146C740.372 705.001 747.858 713.683 747.858 724.114C747.858 735.896 738.307 745.447 726.525 745.447C714.743 745.447 705.192 735.896 705.192 724.114C705.192 713.715 712.632 705.054 722.48 703.164C721.854 561.794 714.704 454.765 696.25 372.527C676.918 286.375 645.247 227.728 595.922 185.335C546.493 142.852 478.916 116.322 387 95.2879C304.278 76.3575 202.296 61.9673 76.7113 44.2466C69.4447 43.2213 62.0991 42.1848 54.6735 41.1356C51.806 49.5328 43.8481 55.5714 34.4799 55.5714C22.6978 55.5714 13.1466 46.0201 13.1466 34.238C13.1466 22.4559 22.6978 12.9047 34.4799 12.9047C45.9186 12.9047 55.2546 21.9073 55.7891 33.2137C63.2366 34.266 70.6052 35.3057 77.8958 36.3344C203.365 54.0377 305.709 68.4782 388.784 87.4895C481.133 108.623 550.23 135.516 601.136 179.267C652.147 223.109 684.474 283.508 704.056 370.775C722.705 453.883 729.854 561.629 730.48 703.146Z" fill="url(#paint0_linear_577_27135)"/>
<defs>
<linearGradient id="paint0_linear_577_27135" x1="726.525" y1="724.114" x2="34.4802" y2="34.238" gradientUnits="userSpaceOnUse">
<stop stop-color="#FF3232"/>
<stop offset="1" stop-color="#58FF7D"/>
</linearGradient>
</defs>
</svg>
