<svg width="759" height="759" viewBox="0 0 759 759" fill="none" xmlns="http://www.w3.org/2000/svg">
<path fill-rule="evenodd" clip-rule="evenodd" d="M30.5263 55.2052C20.6336 53.3509 13.1475 44.6685 13.1475 34.2376C13.1475 22.4556 22.6987 12.9043 34.4808 12.9043C46.2629 12.9043 55.8141 22.4556 55.8141 34.2376C55.8141 44.6365 48.3738 53.2976 38.5263 55.1879C39.1519 196.558 46.302 303.587 64.7558 385.825C84.0877 471.977 115.759 530.624 165.084 573.017C214.513 615.5 282.09 642.029 374.006 663.064C456.728 681.994 558.71 696.384 684.295 714.105C691.561 715.13 698.907 716.167 706.332 717.216C709.2 708.819 717.158 702.78 726.526 702.78C738.308 702.78 747.859 712.331 747.859 724.114C747.859 735.896 738.308 745.447 726.526 745.447C715.087 745.447 705.751 736.444 705.217 725.138C697.769 724.086 690.401 723.046 683.11 722.017C557.641 704.314 455.297 689.873 372.222 670.862C279.873 649.728 210.776 622.836 159.869 579.084C108.859 535.243 76.532 474.843 56.9499 387.577C38.3009 304.468 31.1514 196.723 30.5263 55.2052Z" fill="url(#paint0_linear_576_27133)"/>
<defs>
<linearGradient id="paint0_linear_576_27133" x1="34.4808" y1="34.2376" x2="726.526" y2="724.114" gradientUnits="userSpaceOnUse">
<stop stop-color="#58FF7D"/>
<stop offset="0.885417" stop-color="#FF3232"/>
</linearGradient>
</defs>
</svg>
