<svg width="760" height="759" viewBox="0 0 760 759" fill="none" xmlns="http://www.w3.org/2000/svg">
<path fill-rule="evenodd" clip-rule="evenodd" d="M65.1501 684.898C55.2818 686.771 47.8203 695.442 47.8203 705.856C47.8203 717.638 57.3716 727.189 69.1536 727.189C80.9357 727.189 90.487 717.638 90.487 705.856C90.487 695.44 83.022 686.767 73.1501 684.896C73.1473 675.576 73.143 666.387 73.1388 657.327C73.0816 534.723 73.0355 435.834 76.6199 356.145C80.6687 266.13 89.3401 201.108 107.609 154.336C125.765 107.853 153.371 79.4523 195.692 62.485C238.348 45.3828 296.155 39.8096 374.856 39.8096C453.54 39.8096 512.005 45.5736 555.638 62.9256C598.965 80.1556 627.856 108.89 647.279 155.581C666.814 202.541 676.763 267.653 681.774 357.497C686.537 442.892 686.828 550.212 686.844 684.897C676.975 686.77 669.512 695.441 669.512 705.856C669.512 717.638 679.063 727.189 690.846 727.189C702.628 727.189 712.179 717.638 712.179 705.856C712.179 695.44 704.715 686.769 694.844 684.897C694.828 550.266 694.539 442.704 689.762 357.052C684.742 267.066 674.754 200.797 654.666 152.508C634.465 103.95 604.046 73.5671 558.594 55.4919C513.449 37.5386 453.667 31.8096 374.856 31.8096C296.062 31.8096 236.908 37.3414 192.715 55.0595C148.185 72.9125 119.053 103.048 100.157 151.425C81.3743 199.514 72.681 265.678 68.628 355.785C65.0348 435.67 65.0812 534.762 65.1387 657.314C65.1429 666.379 65.1472 675.573 65.1501 684.898Z" fill="url(#paint0_linear_578_27150)"/>
<defs>
<linearGradient id="paint0_linear_578_27150" x1="49.283" y1="705.856" x2="692.855" y2="705.855" gradientUnits="userSpaceOnUse">
<stop stop-color="#58FF7D"/>
<stop offset="0.751021" stop-color="#FF3232"/>
</linearGradient>
</defs>
</svg>
