<svg width="759" height="759" viewBox="0 0 759 759" fill="none" xmlns="http://www.w3.org/2000/svg">
<path fill-rule="evenodd" clip-rule="evenodd" d="M53.8289 34.4286C195.012 38.1682 270.381 80.0367 311.754 142.486C353.318 205.222 359.897 287.972 366.42 370.014C366.652 372.931 366.884 375.847 367.117 378.762C373.96 464.224 382.079 548.235 428.786 611.082C473.208 670.855 553.265 712.28 703.466 715.768C705.432 706.017 714.048 698.674 724.379 698.674C736.161 698.674 745.712 708.225 745.712 720.007C745.712 731.789 736.161 741.34 724.379 741.34C713.88 741.34 705.152 733.757 703.376 723.768C551.77 720.26 468.835 678.382 422.365 615.854C374.057 550.853 365.949 464.402 359.143 379.401C358.935 376.803 358.728 374.207 358.521 371.612C351.92 288.736 345.479 207.875 305.085 146.904C265.685 87.4345 193.322 46.1397 53.7253 42.4282C51.7465 52.1628 43.1388 59.4889 32.82 59.4889C21.0379 59.4889 11.4867 49.9377 11.4867 38.1556C11.4867 26.3735 21.0379 16.8223 32.82 16.8223C43.3307 16.8223 52.066 24.4235 53.8289 34.4286Z" fill="url(#paint0_linear_577_27143)"/>
<defs>
<linearGradient id="paint0_linear_577_27143" x1="724.379" y1="720.008" x2="32.8202" y2="720.007" gradientUnits="userSpaceOnUse">
<stop stop-color="#58FF7D"/>
<stop offset="0.751021" stop-color="#FF3232"/>
</linearGradient>
</defs>
</svg>
