<svg width="759" height="759" viewBox="0 0 759 759" fill="none" xmlns="http://www.w3.org/2000/svg">
<path fill-rule="evenodd" clip-rule="evenodd" d="M703.37 34.4286C562.187 38.1682 486.818 80.0367 445.445 142.486C403.881 205.222 397.302 287.972 390.779 370.014C390.547 372.931 390.315 375.847 390.082 378.762C383.239 464.224 375.12 548.235 328.414 611.082C283.991 670.855 203.934 712.28 53.7329 715.768C51.7671 706.017 43.1514 698.674 32.8206 698.674C21.0386 698.674 11.4873 708.225 11.4873 720.007C11.4873 731.789 21.0386 741.34 32.8206 741.34C43.3194 741.34 52.0469 733.757 53.8235 723.768C205.429 720.26 288.365 678.382 334.835 615.854C383.142 550.853 391.25 464.402 398.056 379.401C398.264 376.803 398.471 374.207 398.678 371.612C405.279 288.736 411.72 207.875 452.114 146.904C491.514 87.4345 563.877 46.1397 703.474 42.4282C705.453 52.1628 714.06 59.4889 724.379 59.4889C736.161 59.4889 745.713 49.9377 745.713 38.1556C745.713 26.3735 736.161 16.8223 724.379 16.8223C713.868 16.8223 705.133 24.4235 703.37 34.4286Z" fill="url(#paint0_linear_577_27140)"/>
<defs>
<linearGradient id="paint0_linear_577_27140" x1="32.8206" y1="720.008" x2="724.379" y2="720.007" gradientUnits="userSpaceOnUse">
<stop stop-color="#58FF7D"/>
<stop offset="0.751021" stop-color="#FF3232"/>
</linearGradient>
</defs>
</svg>
