<svg width="569" height="104" viewBox="0 0 569 104" fill="none" xmlns="http://www.w3.org/2000/svg">
<path d="M11.1438 72.7931L8.62382 79.6671L6.11782 72.7931H3.61182V82.5511H5.36182V75.2571L7.78382 81.6971H9.47782L11.8998 75.2571V82.5511H13.6498V72.7931H11.1438Z" fill="white"/>
<path d="M18.5026 75.5091C17.2426 75.5091 16.2206 75.9991 15.3946 76.9931L16.6126 78.0151C17.1166 77.3431 17.7746 76.9791 18.4746 76.9791C19.2726 76.9791 19.7766 77.4411 19.7766 78.1971V78.3931H18.0546C17.2706 78.3931 16.6826 78.4911 16.2206 78.7011C15.5486 79.0091 15.1846 79.6251 15.1846 80.4371C15.1846 81.7531 16.2206 82.6911 17.6766 82.6911C18.5866 82.6911 19.3706 82.2991 19.7766 81.6551L19.9166 82.5511H21.4566V78.1971C21.4566 76.5311 20.3226 75.5091 18.5026 75.5091ZM17.9426 81.2631C17.2706 81.2631 16.8646 80.9551 16.8646 80.4651C16.8646 80.2131 16.9626 80.0171 17.1446 79.8911C17.3686 79.7231 17.7046 79.6531 18.2786 79.6531H19.7766C19.7766 80.5491 18.9506 81.2631 17.9426 81.2631Z" fill="white"/>
<path d="M26.866 76.9791V75.6491H25.144V73.0731L23.464 74.3191V75.6491H22.344V76.9791H23.464V80.6191C23.464 82.0891 24.444 82.6911 25.606 82.6911C26.026 82.6911 26.446 82.6211 26.866 82.4811V81.1371C26.558 81.2351 26.264 81.2911 26.026 81.2911C25.48 81.2911 25.144 81.0391 25.144 80.4931V76.9791H26.866Z" fill="white"/>
<path d="M31.014 82.6911C32.386 82.6911 33.45 81.9351 33.912 80.6471L32.386 80.0591C32.204 80.7731 31.672 81.2211 31 81.2211C29.824 81.2211 29.39 80.2131 29.39 79.1211C29.39 78.0291 29.838 76.9791 31 76.9791C31.686 76.9791 32.204 77.4411 32.386 78.1691L33.982 77.5391C33.45 76.1671 32.372 75.5091 31 75.5091C28.746 75.5091 27.668 77.3011 27.668 79.1211C27.668 80.9411 28.76 82.6911 31.014 82.6911Z" fill="white"/>
<path d="M38.9679 75.5091C38.0579 75.5091 37.3439 75.8311 36.8819 76.4331V72.7931H35.2019V82.5511H36.8819V79.7931C36.8819 77.8051 37.3439 76.9791 38.4499 76.9791C39.3179 76.9791 39.7239 77.4691 39.7239 78.5191V82.5511H41.4039V78.0991C41.4039 76.4471 40.5219 75.5091 38.9679 75.5091Z" fill="white"/>
<path d="M47.8216 82.5511H49.3336L50.6916 78.0291L52.0496 82.5511H53.5616L55.6896 75.6491H53.8976L52.7076 79.9611L51.4056 75.6491H49.9636L48.6616 79.9751L47.4856 75.6491H45.6936L47.8216 82.5511Z" fill="white"/>
<path d="M56.6791 74.3471H58.4431V72.7931H56.6791V74.3471ZM56.7211 82.5511H58.4011V75.6491H56.7211V82.5511Z" fill="white"/>
<path d="M64.0399 76.9791V75.6491H62.3179V73.0731L60.6379 74.3191V75.6491H59.5179V76.9791H60.6379V80.6191C60.6379 82.0891 61.6179 82.6911 62.7799 82.6911C63.1999 82.6911 63.6199 82.6211 64.0399 82.4811V81.1371C63.7319 81.2351 63.4379 81.2911 63.1999 81.2911C62.6539 81.2911 62.3179 81.0391 62.3179 80.4931V76.9791H64.0399Z" fill="white"/>
<path d="M68.9504 75.5091C68.0404 75.5091 67.3264 75.8311 66.8644 76.4331V72.7931H65.1844V82.5511H66.8644V79.7931C66.8644 77.8051 67.3264 76.9791 68.4324 76.9791C69.3004 76.9791 69.7064 77.4691 69.7064 78.5191V82.5511H71.3864V78.0991C71.3864 76.4471 70.5044 75.5091 68.9504 75.5091Z" fill="white"/>
<path d="M3.38148 93.5091C2.12148 93.5091 1.09948 93.9991 0.273477 94.9931L1.49148 96.0151C1.99548 95.3431 2.65348 94.9791 3.35348 94.9791C4.15148 94.9791 4.65548 95.4411 4.65548 96.1971V96.3931H2.93348C2.14948 96.3931 1.56148 96.4911 1.09948 96.7011C0.427477 97.0091 0.0634766 97.6251 0.0634766 98.4371C0.0634766 99.7531 1.09948 100.691 2.55548 100.691C3.46548 100.691 4.24948 100.299 4.65548 99.6551L4.79548 100.551H6.33548V96.1971C6.33548 94.5311 5.20148 93.5091 3.38148 93.5091ZM2.82148 99.2631C2.14948 99.2631 1.74348 98.9551 1.74348 98.4651C1.74348 98.2131 1.84148 98.0171 2.02348 97.8911C2.24748 97.7231 2.58348 97.6531 3.15748 97.6531H4.65548C4.65548 98.5491 3.82948 99.2631 2.82148 99.2631Z" fill="white"/>
<path d="M11.87 93.5091C11.03 93.5091 10.274 93.7891 9.78396 94.4471V93.6491H8.10396V100.551H9.78396V97.7931C9.78396 96.5611 9.78396 94.9791 11.352 94.9791C12.626 94.9791 12.626 96.0431 12.626 96.5191V100.551H14.306V96.0991C14.306 94.4611 13.424 93.5091 11.87 93.5091Z" fill="white"/>
<path d="M22.362 100.691C24.49 100.691 25.82 99.0391 25.82 97.0931C25.82 95.1331 24.49 93.5091 22.362 93.5091C20.22 93.5091 18.904 95.1331 18.904 97.0931C18.904 99.0391 20.22 100.691 22.362 100.691ZM22.362 99.2211C21.088 99.2211 20.584 98.2131 20.584 97.0931C20.584 95.9591 21.088 94.9791 22.362 94.9791C23.636 94.9791 24.14 95.9591 24.14 97.0931C24.14 98.2131 23.636 99.2211 22.362 99.2211Z" fill="white"/>
<path d="M30.8446 93.5091C30.1026 93.5091 29.3326 93.7471 28.8566 94.3351V93.6491H27.1766V103.407H28.8566V99.8511C29.2906 100.369 30.0606 100.691 30.8446 100.691C32.5386 100.691 33.7566 99.3611 33.7566 97.1071C33.7566 95.0351 32.7206 93.5091 30.8446 93.5091ZM30.4246 99.2211C29.2206 99.2211 28.7026 98.2971 28.7026 97.0931C28.7026 95.8611 29.2206 94.9791 30.4386 94.9791C31.5586 94.9791 32.0766 95.7351 32.0766 97.0931C32.0766 98.4371 31.5446 99.2211 30.4246 99.2211Z" fill="white"/>
<path d="M38.8699 93.5091C38.1279 93.5091 37.3579 93.7471 36.8819 94.3351V93.6491H35.2019V103.407H36.8819V99.8511C37.3159 100.369 38.0859 100.691 38.8699 100.691C40.5639 100.691 41.7819 99.3611 41.7819 97.1071C41.7819 95.0351 40.7459 93.5091 38.8699 93.5091ZM38.4499 99.2211C37.2459 99.2211 36.7279 98.2971 36.7279 97.0931C36.7279 95.8611 37.2459 94.9791 38.4639 94.9791C39.5839 94.9791 40.1019 95.7351 40.1019 97.0931C40.1019 98.4371 39.5699 99.2211 38.4499 99.2211Z" fill="white"/>
<path d="M46.0553 100.691C48.1833 100.691 49.5133 99.0391 49.5133 97.0931C49.5133 95.1331 48.1833 93.5091 46.0553 93.5091C43.9133 93.5091 42.5973 95.1331 42.5973 97.0931C42.5973 99.0391 43.9133 100.691 46.0553 100.691ZM46.0553 99.2211C44.7813 99.2211 44.2773 98.2131 44.2773 97.0931C44.2773 95.9591 44.7813 94.9791 46.0553 94.9791C47.3293 94.9791 47.8333 95.9591 47.8333 97.0931C47.8333 98.2131 47.3293 99.2211 46.0553 99.2211Z" fill="white"/>
<path d="M54.6219 93.5091C53.7819 93.5091 53.0259 93.7891 52.5359 94.4471V93.6491H50.8559V100.551H52.5359V97.7931C52.5359 96.5611 52.5359 94.9791 54.1039 94.9791C55.3779 94.9791 55.3779 96.0431 55.3779 96.5191V100.551H57.0579V96.0991C57.0579 94.4611 56.1759 93.5091 54.6219 93.5091Z" fill="white"/>
<path d="M64.7476 97.0091C64.7476 95.0911 63.7116 93.5091 61.5696 93.5091C59.2736 93.5091 58.2936 95.3291 58.2936 97.1351C58.2936 98.9831 59.3016 100.691 61.6816 100.691C62.8436 100.691 63.7536 100.285 64.5096 99.4451L63.3476 98.4231C62.8716 98.9691 62.3116 99.1651 61.6956 99.1651C60.6036 99.1651 60.0436 98.5631 59.9736 97.6531H64.7056C64.7336 97.4291 64.7476 97.2191 64.7476 97.0091ZM59.9596 96.3231C60.0576 95.6371 60.5336 94.9091 61.5556 94.9091C62.4376 94.9091 63.1096 95.4411 63.1376 96.3231H59.9596Z" fill="white"/>
<path d="M69.8934 93.5091C69.0534 93.5091 68.2974 93.7891 67.8074 94.4471V93.6491H66.1274V100.551H67.8074V97.7931C67.8074 96.5611 67.8074 94.9791 69.3754 94.9791C70.6494 94.9791 70.6494 96.0431 70.6494 96.5191V100.551H72.3294V96.0991C72.3294 94.4611 71.4474 93.5091 69.8934 93.5091Z" fill="white"/>
<path d="M77.8211 94.9791V93.6491H76.0991V91.0731L74.4191 92.3191V93.6491H73.2991V94.9791H74.4191V98.6191C74.4191 100.089 75.3991 100.691 76.5611 100.691C76.9811 100.691 77.4011 100.621 77.8211 100.481V99.1371C77.5131 99.2351 77.2191 99.2911 76.9811 99.2911C76.4351 99.2911 76.0991 99.0391 76.0991 98.4931V94.9791H77.8211Z" fill="white"/>
<path fill-rule="evenodd" clip-rule="evenodd" d="M59.9341 39.6223H63.9106C68.1502 39.6223 71.5804 36.182 71.5804 31.9525V25.2827H52.2441V31.9424C52.2644 36.182 55.6945 39.6223 59.9341 39.6223ZM54.986 28.4109V30.4143C54.986 32.0434 56.3116 33.3689 57.9406 33.3689C59.5697 33.3689 60.8952 32.0434 60.8952 30.4143C60.8952 30.0602 61.1785 29.7769 61.5326 29.7769H62.2207C62.5748 29.7769 62.8581 30.0602 62.8581 30.4143C62.8581 32.0434 64.1735 33.3689 65.8127 33.3689C67.4519 33.3689 68.7673 32.0434 68.7673 30.4143V28.4109H54.986Z" fill="url(#paint0_linear_410_28957)"/>
<path fill-rule="evenodd" clip-rule="evenodd" d="M71.5895 23.8311H52.2634H52.2533V21.9279C52.2533 18.1133 55.3495 15.0171 59.1641 15.0171H64.6786C68.4933 15.0171 71.5895 18.1133 71.5895 21.9279V22.6632H77.1748C77.4973 22.6632 77.7588 22.9246 77.7588 23.2471C77.7588 23.5697 77.4973 23.8311 77.1748 23.8311H71.5895Z" fill="url(#paint1_linear_410_28957)"/>
<path fill-rule="evenodd" clip-rule="evenodd" d="M8.92635 28.4933C8.85801 28.1345 8.79862 27.7717 8.74902 27.4054L9.76598 27.2632C9.81297 27.6102 9.86929 27.9542 9.93419 28.2951L8.92635 28.4933ZM23.4963 27.3854C23.4624 27.7351 23.4247 28.0785 23.3833 28.4157L22.3647 28.2865C22.4049 27.9584 22.4417 27.624 22.4747 27.2832L23.4963 27.3854ZM23.0761 30.462C22.9496 31.1701 22.807 31.8463 22.6514 32.4911L21.6544 32.2425C21.8051 31.6185 21.9433 30.963 22.0661 30.2756L23.0761 30.462ZM10.1634 32.6988C9.89797 32.03 9.65636 31.3389 9.44606 30.6284L10.4291 30.3278C10.6298 31.006 10.8609 31.6672 11.1154 32.3086L10.1634 32.6988ZM22.099 34.4903C21.8805 35.188 21.6476 35.8405 21.4057 36.4485L20.454 36.0574C20.6861 35.4741 20.9102 34.8465 21.1208 34.1738L22.099 34.4903ZM12.0924 36.6093C11.733 36.0024 11.3833 35.3628 11.0525 34.6942L11.9696 34.2255C12.288 34.8691 12.625 35.4856 12.9719 36.0713L12.0924 36.6093ZM14.57 40.1796C14.1455 39.6543 13.7062 39.0722 13.2672 38.4394L14.1062 37.8382C14.5303 38.4495 14.9543 39.0112 15.3633 39.5173L14.57 40.1796ZM20.555 38.3477C20.2113 39.031 19.862 39.636 19.5198 40.1644L18.6623 39.5908C18.9832 39.0953 19.3138 38.5233 19.641 37.8728L20.555 38.3477ZM16.7951 42.5802C16.5555 42.3636 16.291 42.1075 16.0084 41.8149L16.741 41.084C16.8828 41.2308 17.0189 41.367 17.1481 41.4921C17.2549 41.3899 17.3691 41.2728 17.4898 41.1401L18.2437 41.8483C17.9598 42.1605 17.6919 42.4129 17.4502 42.6029L17.1134 42.8678L16.7951 42.5802Z" fill="url(#paint2_linear_410_28957)"/>
<path fill-rule="evenodd" clip-rule="evenodd" d="M18.0678 24.7373H14.0913C9.85173 24.7373 6.4216 21.297 6.4216 17.0675V10.3976H25.7578V17.0574C25.7376 21.297 22.3074 24.7373 18.0678 24.7373ZM23.0156 13.5259V15.5293C23.0156 17.1584 21.6901 18.4839 20.061 18.4839C18.432 18.4839 17.1064 17.1584 17.1064 15.5293C17.1064 15.1752 16.8231 14.8919 16.469 14.8919H15.7809C15.4268 14.8919 15.1435 15.1752 15.1435 15.5293C15.1435 17.1584 13.8281 18.4839 12.1889 18.4839C10.5497 18.4839 9.23435 17.1584 9.23435 15.5293V13.5259H23.0156Z" fill="url(#paint3_linear_410_28957)"/>
<path fill-rule="evenodd" clip-rule="evenodd" d="M6.41148 8.94623H25.7376H25.7477V7.04305C25.7477 3.22842 22.6515 0.132202 18.8368 0.132202H13.3223C9.5077 0.132202 6.41148 3.22842 6.41148 7.04305V7.77828H0.826163C0.503642 7.77828 0.242188 8.03973 0.242188 8.36226C0.242188 8.68478 0.503642 8.94623 0.826163 8.94623H6.41148Z" fill="url(#paint4_linear_410_28957)"/>
<path fill-rule="evenodd" clip-rule="evenodd" d="M43.6904 14.7266L47.1071 19.5122H33.3496V18.5122H45.1644L42.8765 15.3076L43.6904 14.7266Z" fill="white"/>
<path fill-rule="evenodd" clip-rule="evenodd" d="M35.795 29.3028L32.3783 24.5171H46.1357V25.5171H34.3209L36.6089 28.7217L35.795 29.3028Z" fill="white"/>
<path d="M150.397 82.5511H153.211C156.515 82.5511 158.307 80.8571 158.307 77.7491C158.307 74.5851 156.459 72.7931 153.225 72.7931H150.397V82.5511ZM152.147 80.9411V74.4031H153.197C155.507 74.4031 156.543 75.4251 156.543 77.6791C156.543 79.9751 155.507 80.9411 153.043 80.9411H152.147Z" fill="white"/>
<path d="M159.783 74.3471H161.547V72.7931H159.783V74.3471ZM159.825 82.5511H161.505V75.6491H159.825V82.5511Z" fill="white"/>
<path d="M165.632 82.6911C166.934 82.6911 168.32 81.9911 168.32 80.3811C168.32 77.8611 164.708 78.4771 164.708 77.4271C164.708 77.1051 165.044 76.8391 165.59 76.8391C166.346 76.8391 166.724 77.2871 166.962 77.7211L168.264 77.0071C167.746 76.0691 166.836 75.5091 165.646 75.5091C164.316 75.5091 163.112 76.1951 163.112 77.5251C163.112 80.0871 166.668 79.3171 166.668 80.4791C166.668 80.8431 166.332 81.2911 165.548 81.2911C164.624 81.2911 164.26 80.6611 164.078 80.1571L162.734 80.7591C163.07 81.8091 164.176 82.6911 165.632 82.6911Z" fill="white"/>
<path d="M171.907 82.6911C173.209 82.6911 174.595 81.9911 174.595 80.3811C174.595 77.8611 170.983 78.4771 170.983 77.4271C170.983 77.1051 171.319 76.8391 171.865 76.8391C172.621 76.8391 172.999 77.2871 173.237 77.7211L174.539 77.0071C174.021 76.0691 173.111 75.5091 171.921 75.5091C170.591 75.5091 169.387 76.1951 169.387 77.5251C169.387 80.0871 172.943 79.3171 172.943 80.4791C172.943 80.8431 172.607 81.2911 171.823 81.2911C170.899 81.2911 170.535 80.6611 170.353 80.1571L169.009 80.7591C169.345 81.8091 170.451 82.6911 171.907 82.6911Z" fill="white"/>
<path d="M185.297 79.0091C185.297 77.0911 184.261 75.5091 182.119 75.5091C179.823 75.5091 178.843 77.3291 178.843 79.1351C178.843 80.9831 179.851 82.6911 182.231 82.6911C183.393 82.6911 184.303 82.2851 185.059 81.4451L183.897 80.4231C183.421 80.9691 182.861 81.1651 182.245 81.1651C181.153 81.1651 180.593 80.5631 180.523 79.6531H185.255C185.283 79.4291 185.297 79.2191 185.297 79.0091ZM180.509 78.3231C180.607 77.6371 181.083 76.9091 182.105 76.9091C182.987 76.9091 183.659 77.4411 183.687 78.3231H180.509Z" fill="white"/>
<path d="M189.351 75.5091C188.091 75.5091 187.069 75.9991 186.243 76.9931L187.461 78.0151C187.965 77.3431 188.623 76.9791 189.323 76.9791C190.121 76.9791 190.625 77.4411 190.625 78.1971V78.3931H188.903C188.119 78.3931 187.531 78.4911 187.069 78.7011C186.397 79.0091 186.033 79.6251 186.033 80.4371C186.033 81.7531 187.069 82.6911 188.525 82.6911C189.435 82.6911 190.219 82.2991 190.625 81.6551L190.765 82.5511H192.305V78.1971C192.305 76.5311 191.171 75.5091 189.351 75.5091ZM188.791 81.2631C188.119 81.2631 187.713 80.9551 187.713 80.4651C187.713 80.2131 187.811 80.0171 187.993 79.8911C188.217 79.7231 188.553 79.6531 189.127 79.6531H190.625C190.625 80.5491 189.799 81.2631 188.791 81.2631Z" fill="white"/>
<path d="M196.79 82.6911C198.162 82.6911 199.226 81.9351 199.688 80.6471L198.162 80.0591C197.98 80.7731 197.448 81.2211 196.776 81.2211C195.6 81.2211 195.166 80.2131 195.166 79.1211C195.166 78.0291 195.614 76.9791 196.776 76.9791C197.462 76.9791 197.98 77.4411 198.162 78.1691L199.758 77.5391C199.226 76.1671 198.148 75.5091 196.776 75.5091C194.522 75.5091 193.444 77.3011 193.444 79.1211C193.444 80.9411 194.536 82.6911 196.79 82.6911Z" fill="white"/>
<path d="M204.744 75.5091C203.834 75.5091 203.12 75.8311 202.658 76.4331V72.7931H200.978V82.5511H202.658V79.7931C202.658 77.8051 203.12 76.9791 204.226 76.9791C205.094 76.9791 205.5 77.4691 205.5 78.5191V82.5511H207.18V78.0991C207.18 76.4471 206.298 75.5091 204.744 75.5091Z" fill="white"/>
<path d="M215.236 82.6911C217.364 82.6911 218.694 81.0391 218.694 79.0931C218.694 77.1331 217.364 75.5091 215.236 75.5091C213.094 75.5091 211.778 77.1331 211.778 79.0931C211.778 81.0391 213.094 82.6911 215.236 82.6911ZM215.236 81.2211C213.962 81.2211 213.458 80.2131 213.458 79.0931C213.458 77.9591 213.962 76.9791 215.236 76.9791C216.51 76.9791 217.014 77.9591 217.014 79.0931C217.014 80.2131 216.51 81.2211 215.236 81.2211Z" fill="white"/>
<path d="M223.691 76.9791V75.6491H221.969V73.0731L220.289 74.3191V75.6491H219.169V76.9791H220.289V80.6191C220.289 82.0891 221.269 82.6911 222.431 82.6911C222.851 82.6911 223.271 82.6211 223.691 82.4811V81.1371C223.383 81.2351 223.089 81.2911 222.851 81.2911C222.305 81.2911 221.969 81.0391 221.969 80.4931V76.9791H223.691Z" fill="white"/>
<path d="M228.601 75.5091C227.691 75.5091 226.977 75.8311 226.515 76.4331V72.7931H224.835V82.5511H226.515V79.7931C226.515 77.8051 226.977 76.9791 228.083 76.9791C228.951 76.9791 229.357 77.4691 229.357 78.5191V82.5511H231.037V78.0991C231.037 76.4471 230.155 75.5091 228.601 75.5091Z" fill="white"/>
<path d="M238.727 79.0091C238.727 77.0911 237.691 75.5091 235.549 75.5091C233.253 75.5091 232.273 77.3291 232.273 79.1351C232.273 80.9831 233.281 82.6911 235.661 82.6911C236.823 82.6911 237.733 82.2851 238.489 81.4451L237.327 80.4231C236.851 80.9691 236.291 81.1651 235.675 81.1651C234.583 81.1651 234.023 80.5631 233.953 79.6531H238.685C238.713 79.4291 238.727 79.2191 238.727 79.0091ZM233.939 78.3231C234.037 77.6371 234.513 76.9091 235.535 76.9091C236.417 76.9091 237.089 77.4411 237.117 78.3231H233.939Z" fill="white"/>
<path d="M243.648 75.5091C242.864 75.5091 242.094 75.9711 241.8 76.8251V75.6491H240.106V82.5511H241.786V79.0791C241.786 77.7771 242.29 77.1471 243.312 77.1471C243.648 77.1471 243.914 77.2311 244.152 77.3851L244.964 75.9011C244.516 75.6211 244.11 75.5091 243.648 75.5091Z" fill="white"/>
<path d="M160.163 100.551H161.843V94.9791H163.453V93.6491H161.843V92.8511C161.843 92.5991 161.843 92.0531 162.445 92.0531C162.669 92.0531 162.865 92.1231 163.019 92.2211L163.565 90.9331C163.201 90.7651 162.795 90.6531 162.263 90.6531C161.171 90.6531 160.177 91.1151 160.177 92.8651V93.6491H158.847V94.9791H160.163V100.551Z" fill="white"/>
<path d="M167.083 100.691C169.211 100.691 170.541 99.0391 170.541 97.0931C170.541 95.1331 169.211 93.5091 167.083 93.5091C164.941 93.5091 163.625 95.1331 163.625 97.0931C163.625 99.0391 164.941 100.691 167.083 100.691ZM167.083 99.2211C165.809 99.2211 165.305 98.2131 165.305 97.0931C165.305 95.9591 165.809 94.9791 167.083 94.9791C168.357 94.9791 168.861 95.9591 168.861 97.0931C168.861 98.2131 168.357 99.2211 167.083 99.2211Z" fill="white"/>
<path d="M175.426 93.5091C174.642 93.5091 173.872 93.9711 173.578 94.8251V93.6491H171.884V100.551H173.564V97.0791C173.564 95.7771 174.068 95.1471 175.09 95.1471C175.426 95.1471 175.692 95.2311 175.93 95.3851L176.742 93.9011C176.294 93.6211 175.888 93.5091 175.426 93.5091Z" fill="white"/>
<path d="M183.552 98.9691C185.232 97.9331 187.108 95.8891 187.108 93.6911C187.108 91.8711 185.834 90.6671 184.042 90.6671C181.872 90.6671 180.696 92.4311 180.696 94.2231L182.348 94.3491C182.39 93.3411 182.782 92.2911 184.014 92.2911C184.98 92.2911 185.428 92.9351 185.428 93.8171C185.428 96.0991 182.404 98.1151 180.682 99.1651V100.551H187.514V98.9691H183.552Z" fill="white"/>
<path d="M194.611 96.6451V90.7931H193.141L188.367 97.2471V98.2551H192.931V100.551H194.611V98.2551H196.165V96.6451H194.611ZM190.495 96.6451L192.931 93.2151V96.6451H190.495Z" fill="white"/>
<path d="M204.552 93.5091C203.642 93.5091 202.928 93.8311 202.466 94.4331V90.7931H200.786V100.551H202.466V97.7931C202.466 95.8051 202.928 94.9791 204.034 94.9791C204.902 94.9791 205.308 95.4691 205.308 96.5191V100.551H206.988V96.0991C206.988 94.4471 206.106 93.5091 204.552 93.5091Z" fill="white"/>
<path d="M211.64 100.691C213.768 100.691 215.098 99.0391 215.098 97.0931C215.098 95.1331 213.768 93.5091 211.64 93.5091C209.498 93.5091 208.182 95.1331 208.182 97.0931C208.182 99.0391 209.498 100.691 211.64 100.691ZM211.64 99.2211C210.366 99.2211 209.862 98.2131 209.862 97.0931C209.862 95.9591 210.366 94.9791 211.64 94.9791C212.914 94.9791 213.418 95.9591 213.418 97.0931C213.418 98.2131 212.914 99.2211 211.64 99.2211Z" fill="white"/>
<path d="M220.767 93.6491V96.2671C220.767 97.4991 220.767 99.2211 219.199 99.2211C217.925 99.2211 217.925 98.0171 217.925 97.5411V93.6491H216.245V97.9611C216.245 99.4311 216.973 100.691 218.709 100.691C219.521 100.691 220.277 100.411 220.767 99.7531V100.551H222.447V93.6491H220.767Z" fill="white"/>
<path d="M227.953 93.5091C227.169 93.5091 226.399 93.9711 226.105 94.8251V93.6491H224.411V100.551H226.091V97.0791C226.091 95.7771 226.595 95.1471 227.617 95.1471C227.953 95.1471 228.219 95.2311 228.457 95.3851L229.269 93.9011C228.821 93.6211 228.415 93.5091 227.953 93.5091Z" fill="white"/>
<path d="M232.064 100.691C233.366 100.691 234.752 99.9911 234.752 98.3811C234.752 95.8611 231.14 96.4771 231.14 95.4271C231.14 95.1051 231.476 94.8391 232.022 94.8391C232.778 94.8391 233.156 95.2871 233.394 95.7211L234.696 95.0071C234.178 94.0691 233.268 93.5091 232.078 93.5091C230.748 93.5091 229.544 94.1951 229.544 95.5251C229.544 98.0871 233.1 97.3171 233.1 98.4791C233.1 98.8431 232.764 99.2911 231.98 99.2911C231.056 99.2911 230.692 98.6611 230.51 98.1571L229.166 98.7591C229.502 99.8091 230.608 100.691 232.064 100.691Z" fill="white"/>
<path fill-rule="evenodd" clip-rule="evenodd" d="M199.725 13.52L203.141 18.3057H189.384V17.3057H201.199L198.911 14.1011L199.725 13.52Z" fill="white"/>
<path fill-rule="evenodd" clip-rule="evenodd" d="M191.829 28.0963L188.412 23.3106H202.17V24.3106H190.355L192.643 27.5152L191.829 28.0963Z" fill="white"/>
<path fill-rule="evenodd" clip-rule="evenodd" d="M165.02 7.06232C163.915 7.06232 163.02 7.95775 163.02 9.06232V33.9377C163.02 35.0423 163.915 35.9377 165.02 35.9377H183.02C184.124 35.9377 185.02 35.0423 185.02 33.9377V9.06232C185.02 7.95775 184.124 7.06232 183.02 7.06232H165.02ZM170.844 25.3499L178.75 20.7855L170.844 16.2211L170.844 25.3499Z" fill="url(#paint5_linear_410_28957)"/>
<path fill-rule="evenodd" clip-rule="evenodd" d="M210.278 7.06232C209.174 7.06232 208.278 7.95775 208.278 9.06232V33.9377C208.278 35.0423 209.174 35.9377 210.278 35.9377H228.278C229.383 35.9377 230.278 35.0423 230.278 33.9377V9.06232C230.278 7.95775 229.383 7.06232 228.278 7.06232H210.278ZM216.103 25.3499L224.009 20.7855L216.103 16.2211L216.103 25.3499Z" fill="url(#paint6_linear_410_28957)"/>
<path d="M309.536 82.5511H311.272V78.5051H312.728C314.884 78.5051 316.046 77.4971 316.046 75.6071C316.046 73.7451 314.912 72.7931 312.728 72.7931H309.536V82.5511ZM311.272 76.8951V74.4031H312.546C313.792 74.4031 314.296 74.7531 314.296 75.6351C314.296 76.5171 313.778 76.8951 312.546 76.8951H311.272Z" fill="white"/>
<path d="M321.417 75.6491V78.2671C321.417 79.4991 321.417 81.2211 319.849 81.2211C318.575 81.2211 318.575 80.0171 318.575 79.5411V75.6491H316.895V79.9611C316.895 81.4311 317.623 82.6911 319.359 82.6911C320.171 82.6911 320.927 82.4111 321.417 81.7531V82.5511H323.097V75.6491H321.417Z" fill="white"/>
<path d="M328.743 75.5091C327.959 75.5091 327.189 75.8311 326.755 76.3491V72.7931H325.075V82.5511H326.755V81.8651C327.231 82.4531 328.001 82.6911 328.743 82.6911C330.619 82.6911 331.655 81.1651 331.655 79.0931C331.655 76.8391 330.437 75.5091 328.743 75.5091ZM328.337 81.1371C327.119 81.1371 326.601 80.2551 326.601 79.1071C326.601 77.9591 327.119 77.0351 328.323 77.0351C329.443 77.0351 329.975 77.8191 329.975 79.1071C329.975 80.3811 329.457 81.1371 328.337 81.1371Z" fill="white"/>
<path d="M334.641 82.6911C334.963 82.6911 335.341 82.6211 335.719 82.4811V81.1371C335.523 81.1931 335.341 81.2211 335.187 81.2211C334.879 81.2211 334.697 81.0951 334.697 80.7871V72.7931H333.017V80.8991C333.017 82.1311 333.703 82.6911 334.641 82.6911Z" fill="white"/>
<path d="M336.941 74.3471H338.705V72.7931H336.941V74.3471ZM336.983 82.5511H338.663V75.6491H336.983V82.5511Z" fill="white"/>
<path d="M342.79 82.6911C344.092 82.6911 345.478 81.9911 345.478 80.3811C345.478 77.8611 341.866 78.4771 341.866 77.4271C341.866 77.1051 342.202 76.8391 342.748 76.8391C343.504 76.8391 343.882 77.2871 344.12 77.7211L345.422 77.0071C344.904 76.0691 343.994 75.5091 342.804 75.5091C341.474 75.5091 340.27 76.1951 340.27 77.5251C340.27 80.0871 343.826 79.3171 343.826 80.4791C343.826 80.8431 343.49 81.2911 342.706 81.2911C341.782 81.2911 341.418 80.6611 341.236 80.1571L339.892 80.7591C340.228 81.8091 341.334 82.6911 342.79 82.6911Z" fill="white"/>
<path d="M350.675 75.5091C349.765 75.5091 349.051 75.8311 348.589 76.4331V72.7931H346.909V82.5511H348.589V79.7931C348.589 77.8051 349.051 76.9791 350.157 76.9791C351.025 76.9791 351.431 77.4691 351.431 78.5191V82.5511H353.111V78.0991C353.111 76.4471 352.229 75.5091 350.675 75.5091Z" fill="white"/>
<path d="M360.495 82.6911C361.797 82.6911 363.183 81.9911 363.183 80.3811C363.183 77.8611 359.571 78.4771 359.571 77.4271C359.571 77.1051 359.907 76.8391 360.453 76.8391C361.209 76.8391 361.587 77.2871 361.825 77.7211L363.127 77.0071C362.609 76.0691 361.699 75.5091 360.509 75.5091C359.179 75.5091 357.975 76.1951 357.975 77.5251C357.975 80.0871 361.531 79.3171 361.531 80.4791C361.531 80.8431 361.195 81.2911 360.411 81.2911C359.487 81.2911 359.123 80.6611 358.941 80.1571L357.597 80.7591C357.933 81.8091 359.039 82.6911 360.495 82.6911Z" fill="white"/>
<path d="M368.283 76.9791V75.6491H366.561V73.0731L364.881 74.3191V75.6491H363.761V76.9791H364.881V80.6191C364.881 82.0891 365.861 82.6911 367.023 82.6911C367.443 82.6911 367.863 82.6211 368.283 82.4811V81.1371C367.975 81.2351 367.681 81.2911 367.443 81.2911C366.897 81.2911 366.561 81.0391 366.561 80.4931V76.9791H368.283Z" fill="white"/>
<path d="M373.201 75.5091C372.417 75.5091 371.647 75.9711 371.353 76.8251V75.6491H369.659V82.5511H371.339V79.0791C371.339 77.7771 371.843 77.1471 372.865 77.1471C373.201 77.1471 373.467 77.2311 373.705 77.3851L374.517 75.9011C374.069 75.6211 373.663 75.5091 373.201 75.5091Z" fill="white"/>
<path d="M380.899 79.0091C380.899 77.0911 379.863 75.5091 377.721 75.5091C375.425 75.5091 374.445 77.3291 374.445 79.1351C374.445 80.9831 375.453 82.6911 377.833 82.6911C378.995 82.6911 379.905 82.2851 380.661 81.4451L379.499 80.4231C379.023 80.9691 378.463 81.1651 377.847 81.1651C376.755 81.1651 376.195 80.5631 376.125 79.6531H380.857C380.885 79.4291 380.899 79.2191 380.899 79.0091ZM376.111 78.3231C376.209 77.6371 376.685 76.9091 377.707 76.9091C378.589 76.9091 379.261 77.4411 379.289 78.3231H376.111Z" fill="white"/>
<path d="M384.952 75.5091C383.692 75.5091 382.67 75.9991 381.844 76.9931L383.062 78.0151C383.566 77.3431 384.224 76.9791 384.924 76.9791C385.722 76.9791 386.226 77.4411 386.226 78.1971V78.3931H384.504C383.72 78.3931 383.132 78.4911 382.67 78.7011C381.998 79.0091 381.634 79.6251 381.634 80.4371C381.634 81.7531 382.67 82.6911 384.126 82.6911C385.036 82.6911 385.82 82.2991 386.226 81.6551L386.366 82.5511H387.906V78.1971C387.906 76.5311 386.772 75.5091 384.952 75.5091ZM384.392 81.2631C383.72 81.2631 383.314 80.9551 383.314 80.4651C383.314 80.2131 383.412 80.0171 383.594 79.8911C383.818 79.7231 384.154 79.6531 384.728 79.6531H386.226C386.226 80.5491 385.4 81.2631 384.392 81.2631Z" fill="white"/>
<path d="M389.689 82.5511H391.369V80.5351L392.433 79.3591L394.449 82.5511H396.451L393.581 78.3231L396.157 75.6491H393.903L391.369 78.4491V72.7931H389.689V82.5511Z" fill="white"/>
<path d="M323.977 100.551H325.657V94.9791H327.267V93.6491H325.657V92.8511C325.657 92.5991 325.657 92.0531 326.259 92.0531C326.483 92.0531 326.679 92.1231 326.833 92.2211L327.379 90.9331C327.015 90.7651 326.609 90.6531 326.077 90.6531C324.985 90.6531 323.991 91.1151 323.991 92.8651V93.6491H322.661V94.9791H323.977V100.551Z" fill="white"/>
<path d="M330.898 100.691C333.026 100.691 334.356 99.0391 334.356 97.0931C334.356 95.1331 333.026 93.5091 330.898 93.5091C328.756 93.5091 327.44 95.1331 327.44 97.0931C327.44 99.0391 328.756 100.691 330.898 100.691ZM330.898 99.2211C329.624 99.2211 329.12 98.2131 329.12 97.0931C329.12 95.9591 329.624 94.9791 330.898 94.9791C332.172 94.9791 332.676 95.9591 332.676 97.0931C332.676 98.2131 332.172 99.2211 330.898 99.2211Z" fill="white"/>
<path d="M339.24 93.5091C338.456 93.5091 337.686 93.9711 337.392 94.8251V93.6491H335.698V100.551H337.378V97.0791C337.378 95.7771 337.882 95.1471 338.904 95.1471C339.24 95.1471 339.506 95.2311 339.744 95.3851L340.556 93.9011C340.108 93.6211 339.702 93.5091 339.24 93.5091Z" fill="white"/>
<path d="M346.54 100.551H347.926L350.74 93.6491H348.92L347.226 98.3671L345.56 93.6491H343.726L346.54 100.551Z" fill="white"/>
<path d="M354.29 100.691C356.418 100.691 357.748 99.0391 357.748 97.0931C357.748 95.1331 356.418 93.5091 354.29 93.5091C352.148 93.5091 350.832 95.1331 350.832 97.0931C350.832 99.0391 352.148 100.691 354.29 100.691ZM354.29 99.2211C353.016 99.2211 352.512 98.2131 352.512 97.0931C352.512 95.9591 353.016 94.9791 354.29 94.9791C355.564 94.9791 356.068 95.9591 356.068 97.0931C356.068 98.2131 355.564 99.2211 354.29 99.2211Z" fill="white"/>
<path d="M362.745 94.9791V93.6491H361.023V91.0731L359.343 92.3191V93.6491H358.223V94.9791H359.343V98.6191C359.343 100.089 360.323 100.691 361.485 100.691C361.905 100.691 362.325 100.621 362.745 100.481V99.1371C362.437 99.2351 362.143 99.2911 361.905 99.2911C361.359 99.2911 361.023 99.0391 361.023 98.4931V94.9791H362.745Z" fill="white"/>
<path d="M364.176 92.3471H365.94V90.7931H364.176V92.3471ZM364.218 100.551H365.898V93.6491H364.218V100.551Z" fill="white"/>
<path d="M371.62 93.5091C370.78 93.5091 370.024 93.7891 369.534 94.4471V93.6491H367.854V100.551H369.534V97.7931C369.534 96.5611 369.534 94.9791 371.102 94.9791C372.376 94.9791 372.376 96.0431 372.376 96.5191V100.551H374.056V96.0991C374.056 94.4611 373.174 93.5091 371.62 93.5091Z" fill="white"/>
<path d="M378.512 99.5011C377.644 99.3891 376.944 99.2491 376.944 98.7451C376.944 98.5771 377.014 98.4651 377.14 98.3811C377.546 98.5491 377.994 98.6471 378.47 98.6471C379.982 98.6471 381.27 97.6671 381.27 96.1271C381.27 95.6791 381.158 95.2731 380.976 94.9231L381.97 94.1111L381.088 93.0471L380.038 93.9431C379.576 93.6631 379.016 93.5091 378.414 93.5091C376.874 93.5091 375.586 94.5451 375.586 96.0431C375.586 96.6451 375.796 97.1911 376.146 97.6251C375.74 97.9751 375.502 98.4091 375.502 99.0111C375.502 99.7251 375.838 100.159 376.328 100.425L375.334 101.055C375.32 101.125 375.306 101.195 375.306 101.363C375.306 102.791 376.482 103.547 378.54 103.547C380.402 103.547 381.718 102.931 381.718 101.489C381.718 99.8371 379.912 99.6831 378.512 99.5011ZM378.442 94.9091C379.156 94.9091 379.59 95.3711 379.59 96.0851C379.59 96.7571 379.212 97.2751 378.442 97.2751C377.658 97.2751 377.266 96.7431 377.266 96.0851C377.266 95.3851 377.728 94.9091 378.442 94.9091ZM378.61 102.287C377.826 102.287 376.972 102.105 376.972 101.517C376.972 101.489 376.972 101.447 376.986 101.405L377.588 100.831L378.162 100.915C379.156 101.055 380.038 101.111 380.038 101.643C380.038 102.119 379.324 102.287 378.61 102.287Z" fill="white"/>
<path fill-rule="evenodd" clip-rule="evenodd" d="M312.023 7.06232C310.919 7.06232 310.023 7.95775 310.023 9.06232V33.9377C310.023 35.0423 310.919 35.9377 312.023 35.9377H327.504C328.609 35.9377 329.504 35.0423 329.504 33.9377V9.06232C329.504 7.95775 328.609 7.06232 327.504 7.06232H312.023ZM316.952 25.3499L323.953 20.7855L316.952 16.2211L316.952 25.3499Z" fill="url(#paint7_linear_410_28957)"/>
<path fill-rule="evenodd" clip-rule="evenodd" d="M355.895 7.06232C354.79 7.06232 353.895 7.95775 353.895 9.06232V33.9377C353.895 35.0423 354.79 35.9377 355.895 35.9377H371.375C372.48 35.9377 373.375 35.0423 373.375 33.9377V9.06232C373.375 7.95775 372.48 7.06232 371.375 7.06232H355.895ZM360.823 25.3499L367.824 20.7855L360.823 16.2211L360.823 25.3499Z" fill="url(#paint8_linear_410_28957)"/>
<path fill-rule="evenodd" clip-rule="evenodd" d="M333.959 7.06232C332.854 7.06232 331.959 7.95775 331.959 9.06232V33.9377C331.959 35.0423 332.854 35.9377 333.959 35.9377H349.44C350.544 35.9377 351.44 35.0423 351.44 33.9377V9.06232C351.44 7.95775 350.544 7.06232 349.44 7.06232H333.959ZM338.888 25.3499L345.888 20.7855L338.888 16.2211L338.888 25.3499Z" fill="url(#paint9_linear_410_28957)"/>
<path fill-rule="evenodd" clip-rule="evenodd" d="M377.831 7.06232C376.726 7.06232 375.831 7.95775 375.831 9.06232V33.9377C375.831 35.0423 376.726 35.9377 377.831 35.9377H393.312C394.416 35.9377 395.312 35.0423 395.312 33.9377V9.06232C395.312 7.95775 394.416 7.06232 393.312 7.06232H377.831ZM382.76 25.3499L389.76 20.7855L382.76 16.2211L382.76 25.3499Z" fill="url(#paint10_linear_410_28957)"/>
<path d="M469.388 82.5511L466.756 78.2951C467.918 77.9031 468.562 77.0071 468.562 75.6071C468.562 73.8571 467.568 72.7931 465.244 72.7931H462.052V82.5511H463.788V78.5051H464.432H465.02L467.358 82.5511H469.388ZM463.788 76.8951V74.4031H465.062C466.196 74.4031 466.812 74.6831 466.812 75.6351C466.812 76.5871 466.196 76.8951 465.062 76.8951H463.788Z" fill="white"/>
<path d="M476.198 79.0091C476.198 77.0911 475.162 75.5091 473.02 75.5091C470.724 75.5091 469.744 77.3291 469.744 79.1351C469.744 80.9831 470.752 82.6911 473.132 82.6911C474.294 82.6911 475.204 82.2851 475.96 81.4451L474.798 80.4231C474.322 80.9691 473.762 81.1651 473.146 81.1651C472.054 81.1651 471.494 80.5631 471.424 79.6531H476.156C476.184 79.4291 476.198 79.2191 476.198 79.0091ZM471.41 78.3231C471.508 77.6371 471.984 76.9091 473.006 76.9091C473.888 76.9091 474.56 77.4411 474.588 78.3231H471.41Z" fill="white"/>
<path d="M479.747 82.6911C481.049 82.6911 482.435 81.9911 482.435 80.3811C482.435 77.8611 478.823 78.4771 478.823 77.4271C478.823 77.1051 479.159 76.8391 479.705 76.8391C480.461 76.8391 480.839 77.2871 481.077 77.7211L482.379 77.0071C481.861 76.0691 480.951 75.5091 479.761 75.5091C478.431 75.5091 477.227 76.1951 477.227 77.5251C477.227 80.0871 480.783 79.3171 480.783 80.4791C480.783 80.8431 480.447 81.2911 479.663 81.2911C478.739 81.2911 478.375 80.6611 478.193 80.1571L476.849 80.7591C477.185 81.8091 478.291 82.6911 479.747 82.6911Z" fill="white"/>
<path d="M488.152 75.6491V78.2671C488.152 79.4991 488.152 81.2211 486.584 81.2211C485.31 81.2211 485.31 80.0171 485.31 79.5411V75.6491H483.63V79.9611C483.63 81.4311 484.358 82.6911 486.094 82.6911C486.906 82.6911 487.662 82.4111 488.152 81.7531V82.5511H489.832V75.6491H488.152Z" fill="white"/>
<path d="M493.35 82.6911C493.672 82.6911 494.05 82.6211 494.428 82.4811V81.1371C494.232 81.1931 494.05 81.2211 493.896 81.2211C493.588 81.2211 493.406 81.0951 493.406 80.7871V72.7931H491.726V80.8991C491.726 82.1311 492.412 82.6911 493.35 82.6911Z" fill="white"/>
<path d="M499.375 76.9791V75.6491H497.653V73.0731L495.973 74.3191V75.6491H494.853V76.9791H495.973V80.6191C495.973 82.0891 496.953 82.6911 498.115 82.6911C498.535 82.6911 498.955 82.6211 499.375 82.4811V81.1371C499.067 81.2351 498.773 81.2911 498.535 81.2911C497.989 81.2911 497.653 81.0391 497.653 80.4931V76.9791H499.375Z" fill="white"/>
<path d="M503.167 82.6911C504.469 82.6911 505.855 81.9911 505.855 80.3811C505.855 77.8611 502.243 78.4771 502.243 77.4271C502.243 77.1051 502.579 76.8391 503.125 76.8391C503.881 76.8391 504.259 77.2871 504.497 77.7211L505.799 77.0071C505.281 76.0691 504.371 75.5091 503.181 75.5091C501.851 75.5091 500.647 76.1951 500.647 77.5251C500.647 80.0871 504.203 79.3171 504.203 80.4791C504.203 80.8431 503.867 81.2911 503.083 81.2911C502.159 81.2911 501.795 80.6611 501.613 80.1571L500.269 80.7591C500.605 81.8091 501.711 82.6911 503.167 82.6911Z" fill="white"/>
<path d="M513.519 82.6911C515.647 82.6911 516.977 81.0391 516.977 79.0931C516.977 77.1331 515.647 75.5091 513.519 75.5091C511.377 75.5091 510.061 77.1331 510.061 79.0931C510.061 81.0391 511.377 82.6911 513.519 82.6911ZM513.519 81.2211C512.245 81.2211 511.741 80.2131 511.741 79.0931C511.741 77.9591 512.245 76.9791 513.519 76.9791C514.793 76.9791 515.297 77.9591 515.297 79.0931C515.297 80.2131 514.793 81.2211 513.519 81.2211Z" fill="white"/>
<path d="M522.646 75.6491V78.2671C522.646 79.4991 522.646 81.2211 521.078 81.2211C519.804 81.2211 519.804 80.0171 519.804 79.5411V75.6491H518.124V79.9611C518.124 81.4311 518.852 82.6911 520.588 82.6911C521.4 82.6911 522.156 82.4111 522.646 81.7531V82.5511H524.326V75.6491H522.646Z" fill="white"/>
<path d="M529.972 76.9791V75.6491H528.25V73.0731L526.57 74.3191V75.6491H525.45V76.9791H526.57V80.6191C526.57 82.0891 527.55 82.6911 528.712 82.6911C529.132 82.6911 529.552 82.6211 529.972 82.4811V81.1371C529.664 81.2351 529.37 81.2911 529.132 81.2911C528.586 81.2911 528.25 81.0391 528.25 80.4931V76.9791H529.972Z" fill="white"/>
<path d="M537.482 75.5091C536.222 75.5091 535.2 75.9991 534.374 76.9931L535.592 78.0151C536.096 77.3431 536.754 76.9791 537.454 76.9791C538.252 76.9791 538.756 77.4411 538.756 78.1971V78.3931H537.034C536.25 78.3931 535.662 78.4911 535.2 78.7011C534.528 79.0091 534.164 79.6251 534.164 80.4371C534.164 81.7531 535.2 82.6911 536.656 82.6911C537.566 82.6911 538.35 82.2991 538.756 81.6551L538.896 82.5511H540.436V78.1971C540.436 76.5311 539.302 75.5091 537.482 75.5091ZM536.922 81.2631C536.25 81.2631 535.844 80.9551 535.844 80.4651C535.844 80.2131 535.942 80.0171 536.124 79.8911C536.348 79.7231 536.684 79.6531 537.258 79.6531H538.756C538.756 80.5491 537.93 81.2631 536.922 81.2631Z" fill="white"/>
<path d="M542.61 82.5511H544.29V76.9791H545.9V75.6491H544.29V74.8511C544.29 74.5991 544.29 74.0531 544.892 74.0531C545.116 74.0531 545.312 74.1231 545.466 74.2211L546.012 72.9331C545.648 72.7651 545.242 72.6531 544.71 72.6531C543.618 72.6531 542.624 73.1151 542.624 74.8651V75.6491H541.294V76.9791H542.61V82.5511Z" fill="white"/>
<path d="M550.822 76.9791V75.6491H549.1V73.0731L547.42 74.3191V75.6491H546.3V76.9791H547.42V80.6191C547.42 82.0891 548.4 82.6911 549.562 82.6911C549.982 82.6911 550.402 82.6211 550.822 82.4811V81.1371C550.514 81.2351 550.22 81.2911 549.982 81.2911C549.436 81.2911 549.1 81.0391 549.1 80.4931V76.9791H550.822Z" fill="white"/>
<path d="M558.106 79.0091C558.106 77.0911 557.07 75.5091 554.928 75.5091C552.632 75.5091 551.652 77.3291 551.652 79.1351C551.652 80.9831 552.66 82.6911 555.04 82.6911C556.202 82.6911 557.112 82.2851 557.868 81.4451L556.706 80.4231C556.23 80.9691 555.67 81.1651 555.054 81.1651C553.962 81.1651 553.402 80.5631 553.332 79.6531H558.064C558.092 79.4291 558.106 79.2191 558.106 79.0091ZM553.318 78.3231C553.416 77.6371 553.892 76.9091 554.914 76.9091C555.796 76.9091 556.468 77.4411 556.496 78.3231H553.318Z" fill="white"/>
<path d="M563.028 75.5091C562.244 75.5091 561.474 75.9711 561.18 76.8251V75.6491H559.486V82.5511H561.166V79.0791C561.166 77.7771 561.669 77.1471 562.691 77.1471C563.027 77.1471 563.294 77.2311 563.532 77.3851L564.343 75.9011C563.895 75.6211 563.49 75.5091 563.028 75.5091Z" fill="white"/>
<path d="M462.639 96.6451V90.7931H461.169L456.395 97.2471V98.2551H460.959V100.551H462.639V98.2551H464.193V96.6451H462.639ZM458.523 96.6451L460.959 93.2151V96.6451H458.523Z" fill="white"/>
<path d="M468.518 100.691C470.408 100.691 472.13 99.6831 472.13 97.6671C472.13 96.6031 471.654 95.7491 470.716 95.2451C471.29 94.8391 471.654 94.2371 471.654 93.3971C471.654 91.6751 470.142 90.6531 468.518 90.6531C466.894 90.6531 465.382 91.6751 465.382 93.3971C465.382 94.2371 465.746 94.8391 466.32 95.2451C465.382 95.7491 464.906 96.6031 464.906 97.6671C464.906 99.6971 466.642 100.691 468.518 100.691ZM468.518 94.7691C467.65 94.7691 467.062 94.2931 467.062 93.5091C467.062 92.7391 467.664 92.2631 468.518 92.2631C469.372 92.2631 469.974 92.7391 469.974 93.5091C469.974 94.2931 469.386 94.7691 468.518 94.7691ZM468.518 99.0951C467.426 99.0951 466.586 98.5631 466.586 97.5131C466.586 96.4911 467.384 95.9171 468.518 95.9171C469.652 95.9171 470.45 96.4911 470.45 97.5131C470.45 98.5631 469.61 99.0951 468.518 99.0951Z" fill="white"/>
<path d="M480.783 93.5091C479.873 93.5091 479.159 93.8311 478.697 94.4331V90.7931H477.017V100.551H478.697V97.7931C478.697 95.8051 479.159 94.9791 480.265 94.9791C481.133 94.9791 481.539 95.4691 481.539 96.5191V100.551H483.219V96.0991C483.219 94.4471 482.337 93.5091 480.783 93.5091Z" fill="white"/>
<path d="M487.87 100.691C489.998 100.691 491.328 99.0391 491.328 97.0931C491.328 95.1331 489.998 93.5091 487.87 93.5091C485.728 93.5091 484.412 95.1331 484.412 97.0931C484.412 99.0391 485.728 100.691 487.87 100.691ZM487.87 99.2211C486.596 99.2211 486.092 98.2131 486.092 97.0931C486.092 95.9591 486.596 94.9791 487.87 94.9791C489.144 94.9791 489.648 95.9591 489.648 97.0931C489.648 98.2131 489.144 99.2211 487.87 99.2211Z" fill="white"/>
<path d="M496.998 93.6491V96.2671C496.998 97.4991 496.998 99.2211 495.43 99.2211C494.156 99.2211 494.156 98.0171 494.156 97.5411V93.6491H492.476V97.9611C492.476 99.4311 493.204 100.691 494.94 100.691C495.752 100.691 496.508 100.411 496.998 99.7531V100.551H498.678V93.6491H496.998Z" fill="white"/>
<path d="M504.184 93.5091C503.4 93.5091 502.63 93.9711 502.336 94.8251V93.6491H500.642V100.551H502.322V97.0791C502.322 95.7771 502.826 95.1471 503.848 95.1471C504.184 95.1471 504.45 95.2311 504.688 95.3851L505.5 93.9011C505.052 93.6211 504.646 93.5091 504.184 93.5091Z" fill="white"/>
<path d="M508.294 100.691C509.596 100.691 510.982 99.9911 510.982 98.3811C510.982 95.8611 507.37 96.4771 507.37 95.4271C507.37 95.1051 507.706 94.8391 508.252 94.8391C509.008 94.8391 509.386 95.2871 509.624 95.7211L510.926 95.0071C510.408 94.0691 509.498 93.5091 508.308 93.5091C506.978 93.5091 505.774 94.1951 505.774 95.5251C505.774 98.0871 509.33 97.3171 509.33 98.4791C509.33 98.8431 508.994 99.2911 508.21 99.2911C507.286 99.2911 506.922 98.6611 506.74 98.1571L505.396 98.7591C505.732 99.8091 506.838 100.691 508.294 100.691Z" fill="white"/>
<path d="M518.646 100.691C520.774 100.691 522.104 99.0391 522.104 97.0931C522.104 95.1331 520.774 93.5091 518.646 93.5091C516.504 93.5091 515.188 95.1331 515.188 97.0931C515.188 99.0391 516.504 100.691 518.646 100.691ZM518.646 99.2211C517.372 99.2211 516.868 98.2131 516.868 97.0931C516.868 95.9591 517.372 94.9791 518.646 94.9791C519.92 94.9791 520.424 95.9591 520.424 97.0931C520.424 98.2131 519.92 99.2211 518.646 99.2211Z" fill="white"/>
<path d="M523.852 100.551H525.532V94.9791H527.142V93.6491H525.532V92.8511C525.532 92.5991 525.532 92.0531 526.134 92.0531C526.358 92.0531 526.554 92.1231 526.708 92.2211L527.254 90.9331C526.89 90.7651 526.484 90.6531 525.952 90.6531C524.86 90.6531 523.866 91.1151 523.866 92.8651V93.6491H522.536V94.9791H523.852V100.551Z" fill="white"/>
<path d="M533.25 100.551H534.635L537.45 93.6491H535.63L533.936 98.3671L532.27 93.6491H530.436L533.25 100.551Z" fill="white"/>
<path d="M540.999 100.691C543.127 100.691 544.457 99.0391 544.457 97.0931C544.457 95.1331 543.127 93.5091 540.999 93.5091C538.857 93.5091 537.541 95.1331 537.541 97.0931C537.541 99.0391 538.857 100.691 540.999 100.691ZM540.999 99.2211C539.725 99.2211 539.221 98.2131 539.221 97.0931C539.221 95.9591 539.725 94.9791 540.999 94.9791C542.273 94.9791 542.777 95.9591 542.777 97.0931C542.777 98.2131 542.273 99.2211 540.999 99.2211Z" fill="white"/>
<path d="M549.455 94.9791V93.6491H547.733V91.0731L546.053 92.3191V93.6491H544.933V94.9791H546.053V98.6191C546.053 100.089 547.033 100.691 548.195 100.691C548.615 100.691 549.035 100.621 549.455 100.481V99.1371C549.147 99.2351 548.853 99.2911 548.615 99.2911C548.069 99.2911 547.733 99.0391 547.733 98.4931V94.9791H549.455Z" fill="white"/>
<path d="M550.885 92.3471H552.649V90.7931H550.885V92.3471ZM550.927 100.551H552.607V93.6491H550.927V100.551Z" fill="white"/>
<path d="M558.33 93.5091C557.49 93.5091 556.734 93.7891 556.244 94.4471V93.6491H554.564V100.551H556.244V97.7931C556.244 96.5611 556.244 94.9791 557.812 94.9791C559.086 94.9791 559.086 96.0431 559.086 96.5191V100.551H560.766V96.0991C560.766 94.4611 559.884 93.5091 558.33 93.5091Z" fill="white"/>
<path d="M565.221 99.5011C564.353 99.3891 563.653 99.2491 563.653 98.7451C563.653 98.5771 563.723 98.4651 563.849 98.3811C564.255 98.5491 564.703 98.6471 565.179 98.6471C566.691 98.6471 567.979 97.6671 567.979 96.1271C567.979 95.6791 567.867 95.2731 567.685 94.9231L568.679 94.1111L567.797 93.0471L566.747 93.9431C566.285 93.6631 565.725 93.5091 565.123 93.5091C563.583 93.5091 562.295 94.5451 562.295 96.0431C562.295 96.6451 562.505 97.1911 562.855 97.6251C562.449 97.9751 562.211 98.4091 562.211 99.0111C562.211 99.7251 562.547 100.159 563.037 100.425L562.043 101.055C562.029 101.125 562.015 101.195 562.015 101.363C562.015 102.791 563.191 103.547 565.249 103.547C567.111 103.547 568.427 102.931 568.427 101.489C568.427 99.8371 566.621 99.6831 565.221 99.5011ZM565.151 94.9091C565.865 94.9091 566.299 95.3711 566.299 96.0851C566.299 96.7571 565.921 97.2751 565.151 97.2751C564.367 97.2751 563.975 96.7431 563.975 96.0851C563.975 95.3851 564.437 94.9091 565.151 94.9091ZM565.319 102.287C564.535 102.287 563.681 102.105 563.681 101.517C563.681 101.489 563.681 101.447 563.695 101.405L564.297 100.831L564.871 100.915C565.865 101.055 566.747 101.111 566.747 101.643C566.747 102.119 566.033 102.287 565.319 102.287Z" fill="white"/>
<path d="M540.319 29.731C540.111 27.6487 539.41 26.0074 538.185 24.706C538.14 24.6626 538.071 24.6481 538.02 24.6915C537.97 24.7277 537.945 24.8 537.957 24.865C538.279 26.1592 537.982 26.7738 537.25 27.3956C536.833 24.6554 536.29 23.8817 535.027 22.0814L534.806 21.7705C534.768 21.7127 534.705 21.6982 534.648 21.7199C534.591 21.7488 534.559 21.8139 534.566 21.8862C534.812 24.1203 534.256 25.053 533.675 26.0363C533.334 26.6147 532.974 27.2148 532.785 28.0897C532.368 27.6704 532.052 26.8678 531.913 25.8194C531.907 25.7543 531.863 25.7037 531.806 25.6893C531.749 25.6748 531.692 25.7037 531.66 25.7616C530.492 27.9812 529.513 31.2131 531.452 33.9895C531.452 33.9968 531.458 33.9968 531.458 34.004C532.431 35.1175 533.719 35.7103 535.178 35.7103C535.886 35.7103 536.599 35.573 537.313 35.2982C539.006 34.6547 540.224 32.8182 540.344 30.7432C540.357 30.4106 540.351 30.0708 540.319 29.731ZM536.947 34.5101C536.517 35.0741 535.905 35.3922 535.267 35.3922C534.06 35.3922 533.189 34.0474 533.189 32.1965C533.189 30.7793 534.332 29.0585 534.768 28.6175C534.705 29.6153 534.831 30.3383 535.153 30.7649C535.412 31.1047 535.702 31.1192 535.715 31.1192C535.74 31.1192 535.766 31.1119 535.791 31.0975C535.816 31.083 536.29 30.7721 536.486 30.0925C536.782 30.5335 537.376 31.5024 537.483 32.3772C537.578 33.1725 537.389 33.9317 536.947 34.5101Z" fill="url(#paint11_linear_410_28957)"/>
<path d="M494.62 31.1356C494.412 29.0533 493.711 27.412 492.485 26.1106C492.441 26.0672 492.372 26.0527 492.321 26.0961C492.271 26.1323 492.245 26.2046 492.258 26.2696C492.58 27.5638 492.283 28.1784 491.551 28.8002C491.134 26.06 490.591 25.2863 489.327 23.486L489.106 23.1751C489.069 23.1173 489.005 23.1028 488.949 23.1245C488.892 23.1534 488.86 23.2185 488.866 23.2908C489.113 25.5249 488.557 26.4576 487.976 27.4409C487.635 28.0193 487.275 28.6195 487.085 29.4943C486.669 29.075 486.353 28.2724 486.214 27.224C486.208 27.159 486.163 27.1083 486.106 27.0939C486.05 27.0794 485.993 27.1083 485.961 27.1662C484.793 29.3859 483.814 32.6177 485.753 35.3941C485.753 35.4014 485.759 35.4014 485.759 35.4086C486.732 36.5221 488.02 37.1149 489.479 37.1149C490.186 37.1149 490.9 36.9776 491.614 36.7028C493.306 36.0593 494.525 34.2229 494.645 32.1478C494.658 31.8152 494.652 31.4754 494.62 31.1356ZM491.247 35.9147C490.818 36.4787 490.205 36.7968 489.567 36.7968C488.361 36.7968 487.49 35.452 487.49 33.6011C487.49 32.1839 488.633 30.4631 489.069 30.0221C489.005 31.0199 489.132 31.7429 489.454 32.1695C489.713 32.5093 490.003 32.5238 490.016 32.5238C490.041 32.5238 490.066 32.5165 490.092 32.5021C490.117 32.4876 490.591 32.1767 490.786 31.4971C491.083 31.9381 491.677 32.907 491.784 33.7818C491.879 34.5771 491.69 35.3363 491.247 35.9147Z" fill="url(#paint12_linear_410_28957)"/>
<path d="M522.026 8.77151C522.121 7.81 522.121 6.94408 522.121 5.88513H502.88C502.88 6.94408 502.88 7.81 502.976 8.77151H497.107V9.73301C497.107 18.2965 507.98 24.3579 510.578 25.7037L510.576 28.9761C510.576 30.6123 509.326 31.8624 507.69 31.8624H505.765V35.7103H519.235V31.8624H517.31C515.674 31.8624 514.424 30.6123 514.424 28.9761V25.7055C517.022 24.3579 527.894 18.2965 527.894 9.73481V8.77331L522.026 8.77151ZM499.128 10.6964H503.169C503.553 15.0259 504.612 18.1053 505.767 20.317C502.687 17.9123 499.512 14.5443 499.128 10.6964ZM519.332 20.317C520.487 18.1035 521.546 15.0259 521.93 10.6964H525.971C525.489 14.5443 522.314 17.9123 519.332 20.317Z" fill="url(#paint13_linear_410_28957)"/>
<path fill-rule="evenodd" clip-rule="evenodd" d="M119.825 38.9289L126.189 45.2929C126.579 45.6834 126.579 46.3166 126.189 46.7071L119.825 53.0711C119.434 53.4616 118.801 53.4616 118.41 53.0711C118.02 52.6806 118.02 52.0474 118.41 51.6569L123.067 47H109.186V45H123.067L118.41 40.3432C118.02 39.9526 118.02 39.3195 118.41 38.9289C118.801 38.5384 119.434 38.5384 119.825 38.9289Z" fill="white" fill-opacity="0.3"/>
<path fill-rule="evenodd" clip-rule="evenodd" d="M276.492 38.9289L282.856 45.2929C283.246 45.6834 283.246 46.3166 282.856 46.7071L276.492 53.0711C276.101 53.4616 275.468 53.4616 275.077 53.0711C274.687 52.6806 274.687 52.0474 275.077 51.6569L279.734 47H265.853V45H279.734L275.077 40.3432C274.687 39.9526 274.687 39.3195 275.077 38.9289C275.468 38.5384 276.101 38.5384 276.492 38.9289Z" fill="white" fill-opacity="0.3"/>
<path fill-rule="evenodd" clip-rule="evenodd" d="M433.159 38.9289L439.523 45.2929C439.913 45.6834 439.913 46.3166 439.523 46.7071L433.159 53.0711C432.768 53.4616 432.135 53.4616 431.744 53.0711C431.354 52.6806 431.354 52.0474 431.744 51.6569L436.401 47H422.52V45H436.401L431.744 40.3432C431.354 39.9526 431.354 39.3195 431.744 38.9289C432.135 38.5384 432.768 38.5384 433.159 38.9289Z" fill="white" fill-opacity="0.3"/>
<defs>
<linearGradient id="paint0_linear_410_28957" x1="71.5804" y1="32.5828" x2="52.2441" y2="32.5828" gradientUnits="userSpaceOnUse">
<stop stop-color="#B318C2"/>
<stop offset="1" stop-color="#744AE6"/>
</linearGradient>
<linearGradient id="paint1_linear_410_28957" x1="52.2533" y1="19.5042" x2="77.7588" y2="19.5042" gradientUnits="userSpaceOnUse">
<stop stop-color="#B318C2"/>
<stop offset="1" stop-color="#744AE6"/>
</linearGradient>
<linearGradient id="paint2_linear_410_28957" x1="23.4963" y1="35.2073" x2="8.74902" y2="35.2073" gradientUnits="userSpaceOnUse">
<stop stop-color="#FF9675"/>
<stop offset="1" stop-color="#F888B5"/>
</linearGradient>
<linearGradient id="paint3_linear_410_28957" x1="6.4216" y1="17.6978" x2="25.7578" y2="17.6978" gradientUnits="userSpaceOnUse">
<stop stop-color="#FF9675"/>
<stop offset="1" stop-color="#F888B5"/>
</linearGradient>
<linearGradient id="paint4_linear_410_28957" x1="25.7477" y1="4.61935" x2="0.242187" y2="4.61935" gradientUnits="userSpaceOnUse">
<stop stop-color="#FF9675"/>
<stop offset="1" stop-color="#F888B5"/>
</linearGradient>
<linearGradient id="paint5_linear_410_28957" x1="185.02" y1="21.7625" x2="163.02" y2="21.7625" gradientUnits="userSpaceOnUse">
<stop stop-color="#FF9675"/>
<stop offset="1" stop-color="#F888B5"/>
</linearGradient>
<linearGradient id="paint6_linear_410_28957" x1="230.278" y1="21.7625" x2="208.278" y2="21.7625" gradientUnits="userSpaceOnUse">
<stop stop-color="#B318C2"/>
<stop offset="1" stop-color="#744AE6"/>
</linearGradient>
<linearGradient id="paint7_linear_410_28957" x1="329.504" y1="21.7625" x2="310.023" y2="21.7625" gradientUnits="userSpaceOnUse">
<stop stop-color="#FF9675"/>
<stop offset="1" stop-color="#F888B5"/>
</linearGradient>
<linearGradient id="paint8_linear_410_28957" x1="373.375" y1="21.7625" x2="353.895" y2="21.7625" gradientUnits="userSpaceOnUse">
<stop stop-color="#FF9675"/>
<stop offset="1" stop-color="#F888B5"/>
</linearGradient>
<linearGradient id="paint9_linear_410_28957" x1="351.44" y1="21.7625" x2="331.959" y2="21.7625" gradientUnits="userSpaceOnUse">
<stop stop-color="#B318C2"/>
<stop offset="1" stop-color="#744AE6"/>
</linearGradient>
<linearGradient id="paint10_linear_410_28957" x1="395.312" y1="21.7625" x2="375.831" y2="21.7625" gradientUnits="userSpaceOnUse">
<stop stop-color="#B318C2"/>
<stop offset="1" stop-color="#744AE6"/>
</linearGradient>
<linearGradient id="paint11_linear_410_28957" x1="540.351" y1="28.8376" x2="530.351" y2="28.8376" gradientUnits="userSpaceOnUse">
<stop stop-color="#B318C2"/>
<stop offset="1" stop-color="#744AE6"/>
</linearGradient>
<linearGradient id="paint12_linear_410_28957" x1="494.651" y1="30.2422" x2="484.651" y2="30.2422" gradientUnits="userSpaceOnUse">
<stop stop-color="#B318C2"/>
<stop offset="1" stop-color="#744AE6"/>
</linearGradient>
<linearGradient id="paint13_linear_410_28957" x1="527.894" y1="21.0689" x2="497.107" y2="21.0689" gradientUnits="userSpaceOnUse">
<stop stop-color="#FF9675"/>
<stop offset="1" stop-color="#F888B5"/>
</linearGradient>
</defs>
</svg>
