<svg width="94" height="49" viewBox="0 0 94 49" fill="none" xmlns="http://www.w3.org/2000/svg">
<path fill-rule="evenodd" clip-rule="evenodd" d="M67.9341 42.6223H71.9106C76.1502 42.6223 79.5804 39.182 79.5804 34.9525V28.2827H60.2441V34.9424C60.2644 39.182 63.6945 42.6223 67.9341 42.6223ZM62.986 31.4109V33.4143C62.986 35.0434 64.3116 36.3689 65.9406 36.3689C67.5697 36.3689 68.8952 35.0434 68.8952 33.4143C68.8952 33.0602 69.1785 32.7769 69.5326 32.7769H70.2207C70.5748 32.7769 70.8581 33.0602 70.8581 33.4143C70.8581 35.0434 72.1735 36.3689 73.8127 36.3689C75.4519 36.3689 76.7673 35.0434 76.7673 33.4143V31.4109H62.986Z" fill="url(#paint0_linear_410_28884)"/>
<path fill-rule="evenodd" clip-rule="evenodd" d="M79.5895 26.8311H60.2634H60.2533V24.9279C60.2533 21.1133 63.3495 18.0171 67.1641 18.0171H72.6786C76.4933 18.0171 79.5895 21.1133 79.5895 24.9279V25.6632H85.1748C85.4973 25.6632 85.7588 25.9246 85.7588 26.2471C85.7588 26.5697 85.4973 26.8311 85.1748 26.8311H79.5895Z" fill="url(#paint1_linear_410_28884)"/>
<path fill-rule="evenodd" clip-rule="evenodd" d="M16.9263 31.4933C16.858 31.1345 16.7986 30.7717 16.749 30.4054L17.766 30.2632C17.813 30.6102 17.8693 30.9542 17.9342 31.2951L16.9263 31.4933ZM31.4963 30.3854C31.4624 30.7351 31.4247 31.0785 31.3833 31.4157L30.3647 31.2865C30.4049 30.9584 30.4417 30.624 30.4747 30.2832L31.4963 30.3854ZM31.0761 33.462C30.9496 34.1701 30.807 34.8463 30.6514 35.4911L29.6544 35.2425C29.8051 34.6185 29.9433 33.963 30.0661 33.2756L31.0761 33.462ZM18.1634 35.6988C17.898 35.03 17.6564 34.3389 17.4461 33.6284L18.4291 33.3278C18.6298 34.006 18.8609 34.6672 19.1154 35.3086L18.1634 35.6988ZM30.099 37.4903C29.8805 38.188 29.6476 38.8405 29.4057 39.4485L28.454 39.0574C28.6861 38.4741 28.9102 37.8465 29.1208 37.1738L30.099 37.4903ZM20.0924 39.6093C19.733 39.0024 19.3833 38.3628 19.0525 37.6942L19.9696 37.2255C20.288 37.8691 20.625 38.4856 20.9719 39.0713L20.0924 39.6093ZM22.57 43.1796C22.1455 42.6543 21.7062 42.0722 21.2672 41.4394L22.1062 40.8382C22.5303 41.4495 22.9543 42.0112 23.3633 42.5173L22.57 43.1796ZM28.555 41.3477C28.2113 42.031 27.862 42.636 27.5198 43.1644L26.6623 42.5908C26.9832 42.0953 27.3138 41.5233 27.641 40.8728L28.555 41.3477ZM24.7951 45.5802C24.5555 45.3636 24.291 45.1075 24.0084 44.8149L24.741 44.084C24.8828 44.2308 25.0189 44.367 25.1481 44.4921C25.2549 44.3899 25.3691 44.2728 25.4898 44.1401L26.2437 44.8483C25.9598 45.1605 25.6919 45.4129 25.4502 45.6029L25.1134 45.8678L24.7951 45.5802Z" fill="url(#paint2_linear_410_28884)"/>
<path fill-rule="evenodd" clip-rule="evenodd" d="M26.0678 27.7373H22.0913C17.8517 27.7373 14.4216 24.297 14.4216 20.0675V13.3976H33.7578V20.0574C33.7376 24.297 30.3074 27.7373 26.0678 27.7373ZM31.0156 16.5259V18.5293C31.0156 20.1584 29.6901 21.4839 28.061 21.4839C26.432 21.4839 25.1064 20.1584 25.1064 18.5293C25.1064 18.1752 24.8231 17.8919 24.469 17.8919H23.7809C23.4268 17.8919 23.1435 18.1752 23.1435 18.5293C23.1435 20.1584 21.8281 21.4839 20.1889 21.4839C18.5497 21.4839 17.2344 20.1584 17.2344 18.5293V16.5259H31.0156Z" fill="url(#paint3_linear_410_28884)"/>
<path fill-rule="evenodd" clip-rule="evenodd" d="M14.4115 11.9462H33.7376H33.7477V10.0431C33.7477 6.22842 30.6515 3.1322 26.8368 3.1322H21.3223C17.5077 3.1322 14.4115 6.22842 14.4115 10.0431V10.7783H8.82616C8.50364 10.7783 8.24219 11.0397 8.24219 11.3623C8.24219 11.6848 8.50364 11.9462 8.82616 11.9462H14.4115Z" fill="url(#paint4_linear_410_28884)"/>
<path fill-rule="evenodd" clip-rule="evenodd" d="M51.6904 17.7266L55.1071 22.5122H41.3496V21.5122H53.1644L50.8765 18.3076L51.6904 17.7266Z" fill="white"/>
<path fill-rule="evenodd" clip-rule="evenodd" d="M43.795 32.3028L40.3783 27.5171H54.1357V28.5171H42.3209L44.6089 31.7217L43.795 32.3028Z" fill="white"/>
<defs>
<linearGradient id="paint0_linear_410_28884" x1="79.5804" y1="35.5828" x2="60.2441" y2="35.5828" gradientUnits="userSpaceOnUse">
<stop stop-color="#B318C2"/>
<stop offset="1" stop-color="#744AE6"/>
</linearGradient>
<linearGradient id="paint1_linear_410_28884" x1="60.2533" y1="22.5042" x2="85.7588" y2="22.5042" gradientUnits="userSpaceOnUse">
<stop stop-color="#B318C2"/>
<stop offset="1" stop-color="#744AE6"/>
</linearGradient>
<linearGradient id="paint2_linear_410_28884" x1="31.4963" y1="38.2073" x2="16.749" y2="38.2073" gradientUnits="userSpaceOnUse">
<stop stop-color="#FF9675"/>
<stop offset="1" stop-color="#F888B5"/>
</linearGradient>
<linearGradient id="paint3_linear_410_28884" x1="14.4216" y1="20.6978" x2="33.7578" y2="20.6978" gradientUnits="userSpaceOnUse">
<stop stop-color="#FF9675"/>
<stop offset="1" stop-color="#F888B5"/>
</linearGradient>
<linearGradient id="paint4_linear_410_28884" x1="33.7477" y1="7.61935" x2="8.24219" y2="7.61935" gradientUnits="userSpaceOnUse">
<stop stop-color="#FF9675"/>
<stop offset="1" stop-color="#F888B5"/>
</linearGradient>
</defs>
</svg>
