<svg width="94" height="49" viewBox="0 0 94 49" fill="none" xmlns="http://www.w3.org/2000/svg">
<path fill-rule="evenodd" clip-rule="evenodd" d="M6.68945 10.0623C5.58488 10.0623 4.68945 10.9577 4.68945 12.0623V36.9377C4.68945 38.0423 5.58488 38.9377 6.68945 38.9377H22.1702C23.2748 38.9377 24.1702 38.0423 24.1702 36.9377V12.0623C24.1702 10.9577 23.2748 10.0623 22.1702 10.0623H6.68945ZM11.6182 28.3499L18.6186 23.7855L11.6182 19.2211L11.6182 28.3499Z" fill="url(#paint0_linear_410_28903)"/>
<path fill-rule="evenodd" clip-rule="evenodd" d="M50.5605 10.0623C49.456 10.0623 48.5605 10.9577 48.5605 12.0623V36.9377C48.5605 38.0423 49.456 38.9377 50.5605 38.9377H66.0413C67.1459 38.9377 68.0413 38.0423 68.0413 36.9377V12.0623C68.0413 10.9577 67.1459 10.0623 66.0413 10.0623H50.5605ZM55.4892 28.3499L62.4897 23.7855L55.4892 19.2211L55.4892 28.3499Z" fill="url(#paint1_linear_410_28903)"/>
<path fill-rule="evenodd" clip-rule="evenodd" d="M28.625 10.0623C27.5204 10.0623 26.625 10.9577 26.625 12.0623V36.9377C26.625 38.0423 27.5204 38.9377 28.625 38.9377H44.1058C45.2104 38.9377 46.1058 38.0423 46.1058 36.9377V12.0623C46.1058 10.9577 45.2104 10.0623 44.1058 10.0623H28.625ZM33.5539 28.3499L40.5544 23.7855L33.5539 19.2211L33.5539 28.3499Z" fill="url(#paint2_linear_410_28903)"/>
<path fill-rule="evenodd" clip-rule="evenodd" d="M72.4971 10.0623C71.3925 10.0623 70.4971 10.9577 70.4971 12.0623V36.9377C70.4971 38.0423 71.3925 38.9377 72.4971 38.9377H87.9779C89.0824 38.9377 89.9779 38.0423 89.9779 36.9377V12.0623C89.9779 10.9577 89.0824 10.0623 87.9779 10.0623H72.4971ZM77.4258 28.3499L84.4262 23.7855L77.4258 19.2211L77.4258 28.3499Z" fill="url(#paint3_linear_410_28903)"/>
<defs>
<linearGradient id="paint0_linear_410_28903" x1="24.1702" y1="24.7625" x2="4.68945" y2="24.7625" gradientUnits="userSpaceOnUse">
<stop stop-color="#FF9675"/>
<stop offset="1" stop-color="#F888B5"/>
</linearGradient>
<linearGradient id="paint1_linear_410_28903" x1="68.0413" y1="24.7625" x2="48.5605" y2="24.7625" gradientUnits="userSpaceOnUse">
<stop stop-color="#FF9675"/>
<stop offset="1" stop-color="#F888B5"/>
</linearGradient>
<linearGradient id="paint2_linear_410_28903" x1="46.1058" y1="24.7625" x2="26.625" y2="24.7625" gradientUnits="userSpaceOnUse">
<stop stop-color="#B318C2"/>
<stop offset="1" stop-color="#744AE6"/>
</linearGradient>
<linearGradient id="paint3_linear_410_28903" x1="89.9779" y1="24.7625" x2="70.4971" y2="24.7625" gradientUnits="userSpaceOnUse">
<stop stop-color="#B318C2"/>
<stop offset="1" stop-color="#744AE6"/>
</linearGradient>
</defs>
</svg>
