<svg width="94" height="49" viewBox="0 0 94 49" fill="none" xmlns="http://www.w3.org/2000/svg">
<path d="M74.8192 32.731C74.6108 30.6487 73.9098 29.0074 72.6845 27.706C72.6403 27.6626 72.5708 27.6481 72.5203 27.6915C72.4698 27.7277 72.4445 27.8 72.4572 27.865C72.7793 29.1592 72.4824 29.7738 71.7498 30.3956C71.333 27.6554 70.7898 26.8817 69.5267 25.0814L69.3056 24.7705C69.2678 24.7127 69.2046 24.6982 69.1478 24.7199C69.0909 24.7488 69.0593 24.8139 69.0657 24.8862C69.312 27.1203 68.7562 28.053 68.1751 29.0363C67.8341 29.6147 67.4741 30.2148 67.2846 31.0897C66.8678 30.6704 66.552 29.8678 66.4131 28.8194C66.4068 28.7543 66.3625 28.7037 66.3057 28.6893C66.2489 28.6748 66.192 28.7037 66.1604 28.7616C64.992 30.9812 64.0131 34.2131 65.952 36.9895C65.952 36.9968 65.9583 36.9968 65.9583 37.004C66.931 38.1175 68.2194 38.7103 69.6783 38.7103C70.3856 38.7103 71.0993 38.573 71.813 38.2982C73.5056 37.6547 74.7245 35.8182 74.8445 33.7432C74.8571 33.4106 74.8508 33.0708 74.8192 32.731ZM71.4467 37.5101C71.0172 38.0741 70.4046 38.3922 69.7667 38.3922C68.5604 38.3922 67.6888 37.0474 67.6888 35.1965C67.6888 33.7793 68.832 32.0585 69.2678 31.6175C69.2046 32.6153 69.3309 33.3383 69.653 33.7649C69.912 34.1047 70.2025 34.1192 70.2151 34.1192C70.2404 34.1192 70.2656 34.1119 70.2909 34.0975C70.3162 34.083 70.7898 33.7721 70.9856 33.0925C71.2825 33.5335 71.8761 34.5024 71.9835 35.3772C72.0782 36.1725 71.8888 36.9317 71.4467 37.5101Z" fill="url(#paint0_linear_410_28915)"/>
<path d="M29.12 34.1356C28.9116 32.0533 28.2105 30.412 26.9853 29.1106C26.9411 29.0672 26.8716 29.0527 26.8211 29.0961C26.7706 29.1323 26.7453 29.2046 26.7579 29.2696C27.08 30.5638 26.7832 31.1784 26.0506 31.8002C25.6338 29.06 25.0906 28.2863 23.8275 26.486L23.6064 26.1751C23.5685 26.1173 23.5054 26.1028 23.4485 26.1245C23.3917 26.1534 23.3601 26.2185 23.3664 26.2908C23.6127 28.5249 23.057 29.4576 22.4759 30.4409C22.1349 31.0193 21.7749 31.6195 21.5854 32.4943C21.1686 32.075 20.8528 31.2724 20.7139 30.224C20.7075 30.159 20.6633 30.1083 20.6065 30.0939C20.5496 30.0794 20.4928 30.1083 20.4612 30.1662C19.2928 32.3859 18.3139 35.6177 20.2528 38.3941C20.2528 38.4014 20.2591 38.4014 20.2591 38.4086C21.2317 39.5221 22.5201 40.1149 23.9791 40.1149C24.6864 40.1149 25.4001 39.9776 26.1137 39.7028C27.8063 39.0593 29.0253 37.2229 29.1453 35.1478C29.1579 34.8152 29.1516 34.4754 29.12 34.1356ZM25.7474 38.9147C25.318 39.4787 24.7054 39.7968 24.0675 39.7968C22.8612 39.7968 21.9896 38.452 21.9896 36.6011C21.9896 35.1839 23.1328 33.4631 23.5685 33.0221C23.5054 34.0199 23.6317 34.7429 23.9538 35.1695C24.2127 35.5093 24.5033 35.5238 24.5159 35.5238C24.5411 35.5238 24.5664 35.5165 24.5917 35.5021C24.6169 35.4876 25.0906 35.1767 25.2864 34.4971C25.5832 34.9381 26.1769 35.907 26.2843 36.7818C26.379 37.5771 26.1895 38.3363 25.7474 38.9147Z" fill="url(#paint1_linear_410_28915)"/>
<path d="M56.5258 11.7715C56.6214 10.81 56.6214 9.94408 56.6214 8.88513H37.3802C37.3802 9.94408 37.3802 10.81 37.4758 11.7715H31.6074V12.733C31.6074 21.2965 42.48 27.3579 45.0778 28.7037L45.076 31.9761C45.076 33.6123 43.8258 34.8624 42.1896 34.8624H40.2647V38.7103H53.7351V34.8624H51.8102C50.174 34.8624 48.9239 33.6123 48.9239 31.9761V28.7055C51.5216 27.3579 62.3942 21.2965 62.3942 12.7348V11.7733L56.5258 11.7715ZM33.6279 13.6964H37.6688C38.053 18.0259 39.112 21.1053 40.2665 23.317C37.1871 20.9123 34.0121 17.5443 33.6279 13.6964ZM53.8325 23.317C54.987 21.1035 56.046 18.0259 56.4302 13.6964H60.4711C59.9894 17.5443 56.8144 20.9123 53.8325 23.317Z" fill="url(#paint2_linear_410_28915)"/>
<defs>
<linearGradient id="paint0_linear_410_28915" x1="74.8506" y1="31.8376" x2="64.8506" y2="31.8376" gradientUnits="userSpaceOnUse">
<stop stop-color="#B318C2"/>
<stop offset="1" stop-color="#744AE6"/>
</linearGradient>
<linearGradient id="paint1_linear_410_28915" x1="29.1514" y1="33.2422" x2="19.1514" y2="33.2422" gradientUnits="userSpaceOnUse">
<stop stop-color="#B318C2"/>
<stop offset="1" stop-color="#744AE6"/>
</linearGradient>
<linearGradient id="paint2_linear_410_28915" x1="62.3942" y1="24.0689" x2="31.6074" y2="24.0689" gradientUnits="userSpaceOnUse">
<stop stop-color="#FF9675"/>
<stop offset="1" stop-color="#F888B5"/>
</linearGradient>
</defs>
</svg>
