<?xml version="1.0" encoding="UTF-8"?>
<svg xmlns="http://www.w3.org/2000/svg" xmlns:xlink="http://www.w3.org/1999/xlink" viewBox="0 0 512 726">
  <defs>
    <style>
      .cls-1, .cls-2 {
        fill: none;
      }

      .cls-3 {
        clip-path: url(#clippath);
      }

      .cls-4 {
        opacity: .1;
      }

      .cls-5 {
        fill: #f6e463;
      }

      .cls-6 {
        fill: #f7e657;
      }

      .cls-7 {
        fill: #f9ea35;
      }

      .cls-8 {
        fill: #fb8fb0;
      }

      .cls-9 {
        fill: #00efb0;
      }

      .cls-10 {
        fill: #eaf7ff;
      }

      .cls-11 {
        fill: #fff;
      }

      .cls-12 {
        fill: #fff8bd;
      }

      .cls-13 {
        fill: #ffabc1;
      }

      .cls-14 {
        fill: #feca36;
      }

      .cls-15 {
        fill: #ff8db0;
      }

      .cls-16 {
        fill: #98d7fd;
      }

      .cls-17 {
        fill: #97d7ff;
      }

      .cls-18 {
        fill: #83d6ff;
      }

      .cls-19 {
        fill: #a8e381;
      }

      .cls-20 {
        fill: #dde7ed;
      }

      .cls-21 {
        fill: #225467;
      }

      .cls-22 {
        fill: #41d94d;
      }

      .cls-23 {
        fill: #4286b8;
      }

      .cls-24 {
        fill: #6fd899;
      }

      .cls-25 {
        fill: #27eeb1;
      }

      .cls-26 {
        fill: #36aff3;
      }

      .cls-27 {
        fill: #3a7491;
      }

      .cls-28 {
        fill: #346173;
      }

      .cls-29 {
        fill: #3c7490;
      }

      .cls-30 {
        fill: #5dbae8;
      }

      .cls-2 {
        clip-rule: evenodd;
      }

      .cls-31 {
        clip-path: url(#clippath-1);
      }

      .cls-32 {
        clip-path: url(#clippath-4);
      }

      .cls-33 {
        clip-path: url(#clippath-3);
      }

      .cls-34 {
        clip-path: url(#clippath-2);
      }

      .cls-35 {
        clip-path: url(#clippath-7);
      }

      .cls-36 {
        clip-path: url(#clippath-8);
      }

      .cls-37 {
        clip-path: url(#clippath-6);
      }

      .cls-38 {
        clip-path: url(#clippath-5);
      }

      .cls-39 {
        clip-path: url(#clippath-9);
      }

      .cls-40 {
        clip-path: url(#clippath-20);
      }

      .cls-41 {
        clip-path: url(#clippath-21);
      }

      .cls-42 {
        clip-path: url(#clippath-24);
      }

      .cls-43 {
        clip-path: url(#clippath-23);
      }

      .cls-44 {
        clip-path: url(#clippath-22);
      }

      .cls-45 {
        clip-path: url(#clippath-25);
      }

      .cls-46 {
        clip-path: url(#clippath-27);
      }

      .cls-47 {
        clip-path: url(#clippath-28);
      }

      .cls-48 {
        clip-path: url(#clippath-26);
      }

      .cls-49 {
        clip-path: url(#clippath-29);
      }

      .cls-50 {
        clip-path: url(#clippath-33);
      }

      .cls-51 {
        clip-path: url(#clippath-32);
      }

      .cls-52 {
        clip-path: url(#clippath-30);
      }

      .cls-53 {
        clip-path: url(#clippath-31);
      }

      .cls-54 {
        clip-path: url(#clippath-14);
      }

      .cls-55 {
        clip-path: url(#clippath-13);
      }

      .cls-56 {
        clip-path: url(#clippath-12);
      }

      .cls-57 {
        clip-path: url(#clippath-10);
      }

      .cls-58 {
        clip-path: url(#clippath-15);
      }

      .cls-59 {
        clip-path: url(#clippath-17);
      }

      .cls-60 {
        clip-path: url(#clippath-16);
      }

      .cls-61 {
        clip-path: url(#clippath-19);
      }

      .cls-62 {
        clip-path: url(#clippath-11);
      }

      .cls-63 {
        clip-path: url(#clippath-18);
      }

      .cls-64 {
        opacity: .2;
      }

      .cls-65 {
        opacity: .6;
      }
    </style>
    <clipPath id="clippath">
      <rect class="cls-1" x="151.36" y="190.2" width="209.55" height="140.25" rx="5.58" ry="5.58"/>
    </clipPath>
    <clipPath id="clippath-1">
      <rect class="cls-1" x="151.36" y="190.2" width="209.55" height="140.25" rx="5.58" ry="5.58"/>
    </clipPath>
    <clipPath id="clippath-2">
      <path class="cls-2" d="M413.01,581.16c0,1.89-1.58,3.43-3.54,3.44-1.96,0-3.55-1.52-3.56-3.42,0-1.89,1.58-3.43,3.54-3.44,1.96,0,3.55,1.52,3.56,3.42"/>
    </clipPath>
    <clipPath id="clippath-3">
      <rect class="cls-1" x="546.91" y="317.66" width="180.37" height="669.93" transform="translate(-179.19 1059.43) rotate(-72.18)"/>
    </clipPath>
    <clipPath id="clippath-4">
      <path class="cls-2" d="M412.82,584.46c.6-.82,1.28-1.67,1.5-2.68,.2-.92-.27-3.02,1.11-3.34,1.22-.28,1.82,1.31,1.97,2.2,.27,1.61-.35,3.21-1.32,4.5-1.18,1.58-2.94,2.61-4.27,4.06-1.04,1.15-2.34,3.89-2.34,3.89-.02-5.16,3.34-8.64,3.34-8.64"/>
    </clipPath>
    <clipPath id="clippath-5">
      <rect class="cls-1" x="546.91" y="317.66" width="180.37" height="669.93" transform="translate(-179.19 1059.43) rotate(-72.18)"/>
    </clipPath>
    <clipPath id="clippath-6">
      <path class="cls-2" d="M415.66,588.04c1.01-.63,2.13-1.25,2.66-2.17,.48-.84,.32-3.02,2.28-2.93,1.74,.08,2.19,1.81,2.19,2.73,0,1.65-1.21,3.02-2.83,4-1.98,1.19-4.62,1.68-6.76,2.71-1.69,.82-4.09,3.11-4.09,3.11,1.15-5.03,6.54-7.44,6.54-7.44"/>
    </clipPath>
    <clipPath id="clippath-7">
      <rect class="cls-1" x="546.91" y="317.66" width="180.37" height="669.93" transform="translate(-179.19 1059.43) rotate(-72.18)"/>
    </clipPath>
    <clipPath id="clippath-8">
      <path class="cls-2" d="M405.47,584.48c-.6-.82-1.29-1.66-1.52-2.67-.21-.92,.25-3.02-1.13-3.33-1.23-.27-1.81,1.32-1.96,2.21-.26,1.61,.37,3.21,1.35,4.49,1.19,1.57,2.96,2.59,4.29,4.04,1.05,1.15,2.36,3.88,2.36,3.88-.02-5.16-3.4-8.62-3.4-8.62"/>
    </clipPath>
    <clipPath id="clippath-9">
      <rect class="cls-1" x="546.91" y="317.66" width="180.37" height="669.93" transform="translate(-179.19 1059.43) rotate(-72.18)"/>
    </clipPath>
    <clipPath id="clippath-10">
      <path class="cls-2" d="M402.65,588.08c-1.01-.62-2.14-1.24-2.68-2.15-.49-.83-.34-3.02-2.3-2.91-1.74,.1-2.18,1.83-2.18,2.74,0,1.65,1.23,3.02,2.85,3.98,1.99,1.18,4.63,1.65,6.78,2.67,1.7,.81,4.11,3.08,4.11,3.08-1.18-5.03-6.58-7.4-6.58-7.4"/>
    </clipPath>
    <clipPath id="clippath-11">
      <rect class="cls-1" x="546.91" y="317.66" width="180.37" height="669.93" transform="translate(-179.19 1059.43) rotate(-72.18)"/>
    </clipPath>
    <clipPath id="clippath-12">
      <path class="cls-2" d="M394.14,606.53c0-.38,.3-.67,.69-.67h4.55c.34-.02,.62,.25,.62,.59,0,.33-.28,.6-.62,.61h-3.87s0,2.07,0,2.07h3.36c.35-.01,.63,.26,.63,.59,0,.33-.28,.6-.62,.61h-3.36s0,2.47,0,2.47c0,.36-.3,.66-.68,.66-.39,0-.69-.29-.69-.65l-.02-6.26Z"/>
    </clipPath>
    <clipPath id="clippath-13">
      <rect class="cls-1" x="578.71" y="272.76" width="210.41" height="781.53" transform="translate(-157.07 1111.57) rotate(-72.18)"/>
    </clipPath>
    <clipPath id="clippath-14">
      <path class="cls-2" d="M401.05,609.63v-.02c0-2.12,1.68-3.9,4.08-3.91,2.4,0,4.07,1.74,4.08,3.86v.02c0,2.12-1.68,3.9-4.08,3.91-2.4,0-4.07-1.74-4.08-3.86m6.72-.02v-.02c0-1.46-1.11-2.67-2.66-2.67-1.55,0-2.63,1.2-2.62,2.67v.02c0,1.46,1.11,2.67,2.66,2.66,1.55,0,2.63-1.19,2.62-2.65"/>
    </clipPath>
    <clipPath id="clippath-15">
      <rect class="cls-1" x="578.71" y="272.76" width="210.41" height="781.53" transform="translate(-157.07 1111.57) rotate(-72.18)"/>
    </clipPath>
    <clipPath id="clippath-16">
      <path class="cls-2" d="M410.86,606.47c0-.38,.3-.67,.69-.67h2.78c.98-.01,1.75,.27,2.25,.74,.41,.41,.65,.97,.65,1.62v.02c0,1.2-.72,1.94-1.77,2.25l1.5,1.81c.13,.16,.22,.3,.23,.51,0,.36-.32,.61-.66,.61-.31,0-.51-.14-.67-.34l-1.9-2.33h-1.73s0,2.03,0,2.03c0,.37-.3,.66-.68,.66-.39,0-.69-.29-.69-.65l-.02-6.26Zm3.38,3.06c.98,0,1.6-.5,1.6-1.26v-.02c0-.81-.61-1.25-1.62-1.24h-1.99s0,2.53,0,2.53h2Z"/>
    </clipPath>
    <clipPath id="clippath-17">
      <rect class="cls-1" x="578.71" y="272.76" width="210.41" height="781.53" transform="translate(-157.07 1111.57) rotate(-72.18)"/>
    </clipPath>
    <clipPath id="clippath-18">
      <path class="cls-2" d="M418.92,606.41c0-.37,.3-.67,.69-.67h.15c.3,0,.5,.15,.64,.35l2.37,3.56,2.36-3.59c.14-.23,.34-.35,.62-.35h.15c.39,0,.69,.3,.69,.66l.02,6.3c0,.37-.3,.66-.69,.66-.37,0-.68-.3-.68-.65v-4.52s-1.91,2.77-1.91,2.77c-.14,.22-.32,.35-.58,.35-.25,0-.42-.13-.57-.34l-1.9-2.74v4.51c.02,.37-.28,.65-.66,.65-.38,0-.67-.28-.67-.64l-.02-6.31Z"/>
    </clipPath>
    <clipPath id="clippath-19">
      <rect class="cls-1" x="578.71" y="272.76" width="210.41" height="781.53" transform="translate(-157.07 1111.57) rotate(-72.18)"/>
    </clipPath>
    <clipPath id="clippath-20">
      <path class="cls-2" d="M428.17,609.99c0-.36,.3-.65,.66-.65h2.09c.36,0,.66,.28,.66,.64,0,.34-.3,.64-.66,.64h-2.09c-.36,0-.66-.28-.66-.63"/>
    </clipPath>
    <clipPath id="clippath-21">
      <rect class="cls-1" x="578.71" y="272.76" width="210.41" height="781.53" transform="translate(-157.07 1111.57) rotate(-72.18)"/>
    </clipPath>
    <clipPath id="clippath-22">
      <path class="cls-2" d="M433.78,606.98l-.8,.24-.25,.03c-.32,0-.6-.26-.6-.56,0-.28,.18-.49,.45-.57l1.18-.37c.27-.08,.47-.12,.67-.12h.02c.39,0,.68,.29,.68,.65l.02,6.37c0,.37-.3,.66-.68,.66-.37,0-.68-.29-.68-.65l-.02-5.68Z"/>
    </clipPath>
    <clipPath id="clippath-23">
      <rect class="cls-1" x="578.71" y="272.76" width="210.41" height="781.53" transform="translate(-157.07 1111.57) rotate(-72.18)"/>
    </clipPath>
    <clipPath id="clippath-24">
      <path class="cls-2" d="M437.81,612.59c-.59-.57-.95-1.35-.96-2.87v-.02c0-2.3,1.12-4.1,3.33-4.11,.8,0,1.44,.2,1.95,.53,.21,.13,.35,.3,.35,.57,0,.34-.3,.61-.66,.61l-.35-.1c-.42-.27-.81-.42-1.34-.42-1.16,0-1.8,1.02-1.86,2.39,.41-.39,.94-.75,1.87-.76,1.5,0,2.72,.85,2.72,2.36v.02c0,1.5-1.25,2.56-2.89,2.57-.96,0-1.65-.29-2.18-.79m3.69-1.72v-.02c0-.75-.63-1.31-1.6-1.31-.97,0-1.58,.61-1.58,1.33v.02c0,.76,.65,1.34,1.62,1.34,.97,0,1.56-.59,1.56-1.36"/>
    </clipPath>
    <clipPath id="clippath-25">
      <rect class="cls-1" x="578.71" y="272.76" width="210.41" height="781.53" transform="translate(-157.07 1111.57) rotate(-72.18)"/>
    </clipPath>
    <clipPath id="clippath-26">
      <path class="cls-2" d="M396.03,623.27l42.01,.46-42.01,.72c-.34,0-.61-.25-.62-.58,0-.32,.26-.59,.6-.6h.02Z"/>
    </clipPath>
    <clipPath id="clippath-27">
      <rect class="cls-1" x="554.1" y="318.75" width="179.6" height="667.09" transform="translate(-174.15 1065.67) rotate(-72.18)"/>
    </clipPath>
    <clipPath id="clippath-28">
      <path class="cls-2" d="M396.05,629.15l29.84,.49-29.83,.68c-.34,0-.62-.25-.62-.57,0-.32,.26-.59,.59-.6h.03Z"/>
    </clipPath>
    <clipPath id="clippath-29">
      <rect class="cls-1" x="554.1" y="318.75" width="179.6" height="667.09" transform="translate(-174.15 1065.67) rotate(-72.18)"/>
    </clipPath>
    <clipPath id="clippath-30">
      <path class="cls-2" d="M102.97,607.94l33.58,.43-33.57,.68c-.32,0-.58-.24-.59-.55,0-.31,.25-.56,.57-.57h.02Z"/>
    </clipPath>
    <clipPath id="clippath-31">
      <rect class="cls-1" x="253.23" y="318.45" width="170.73" height="634.14" transform="translate(-370.06 763.38) rotate(-72.18)"/>
    </clipPath>
    <clipPath id="clippath-32">
      <path class="cls-2" d="M102.99,613.53l26.24,.47-26.24,.65c-.32,0-.58-.24-.59-.55,0-.31,.24-.56,.56-.57h.02Z"/>
    </clipPath>
    <clipPath id="clippath-33">
      <rect class="cls-1" x="253.23" y="318.45" width="170.73" height="634.14" transform="translate(-370.06 763.38) rotate(-72.18)"/>
    </clipPath>
  </defs>
  <g id="artboard_1" data-name="artboard 1">
    <g>
      <g>
        <g>
          <g>
            <g>
              <path class="cls-27" d="M382.53,301.03c1.9-.05,3.34-1.75,3.24-3.8-.23-4.39-5.63-9.16-5.63-9.16,.81,6.81-1.42,6.09-1.23,9.33,.12,2.05,1.75,3.68,3.63,3.63Z"/>
              <path class="cls-27" d="M382.52,300.53c1.16,0,2.35-.76,2.8-1.98,.95-3.85-2.87-7.72-5.41-10.22,0,0,.58-.3,.58-.3,.18,1.91,.33,3.94-.32,5.8-.45,1.2-1.12,2.21-.94,3.52,.07,1.69,1.63,3.27,3.29,3.19h0Zm.03,1c-3.09,.08-4.7-3.56-3.67-6.15,1.22-2.28,1.28-4.75,.92-7.27,0,0-.11-.92-.11-.92l.69,.62c2.78,2.77,6.32,6.7,5.49,10.92-.38,1.48-1.71,2.78-3.31,2.8h0Z"/>
            </g>
            <g>
              <polygon class="cls-19" points="386.8 318.05 387 313.27 384.82 302.31 381.01 302.46 380.03 313.55 380.57 318.29 386.8 318.05"/>
              <path class="cls-27" d="M386.45,317.69l.26-4.43v.07c-.65-3.67-1.44-7.31-2.2-10.96l.31,.25-3.81,.19s.33-.31,.33-.31c-.14,1.85-.34,3.69-.51,5.54l-.51,5.54c.15,1.25,.36,3.2,.57,4.68,0,0-.34-.3-.34-.3,2-.1,3.95-.21,5.89-.27h0Zm.71,.71c-2.33,.11-4.62,.17-6.88,.23-.16-1.71-.36-3.41-.55-5.12,0,0,.47-5.55,.47-5.55,.17-1.95,.3-3.9,.5-5.85,.31,0,4.06-.12,4.37-.13,.71,3.77,1.42,7.54,2.22,11.29,0,0-.14,5.12-.14,5.12h0Z"/>
            </g>
          </g>
          <g>
            <polygon class="cls-15" points="398.16 302.03 396.02 292.99 392.18 301.44 390.53 318.33 396.51 318.91 398.16 302.03"/>
            <path class="cls-27" d="M398.11,302.03c-.93-2.97-1.74-5.94-2.49-8.95,0,0,.78,.08,.78,.08-1.15,2.72-2.7,6-3.95,8.31-.85,5.6-1.01,11.26-1.46,16.9,0,0-.41-.5-.41-.5l5.98,.51-.58,.48c.25-2.8,.59-5.59,.94-8.39,.34-2.8,.74-5.61,1.2-8.43h0Zm.1,0c-.21,5.81-.63,11.67-1.23,17.47-.59-.07-6.34-.7-6.95-.77,.65-5.78,1.64-11.52,1.89-17.34,1.16-2.89,2.35-5.77,3.72-8.57,0,0,.52-1.09,.52-1.09,.78,3.41,1.5,6.86,2.05,10.3h0Z"/>
          </g>
          <g>
            <path class="cls-6" d="M401.35,358.03h-25.81l-6.08-38.83c-.18-1.48,.98-2.78,2.47-2.78h33.04c1.49,0,2.64,1.3,2.47,2.78l-6.08,38.83Z"/>
            <path class="cls-27" d="M401.39,358.07l-25.84,.16s-.17,0-.17,0c0,0-.03-.17-.03-.17-.9-5.53-5.18-32.12-5.98-37.04-.1-.62-.2-1.22-.29-1.87-.16-1.47,.97-2.9,2.43-3.08,.6-.09,1.34-.01,1.93-.04,7.48-.03,22.53-.09,30.01-.1,.58,.02,1.32-.04,1.95,.03,1.52,.19,2.7,1.68,2.54,3.21-.09,.66-.19,1.26-.29,1.89-1.94,12.27-4.13,24.99-6.26,37.02h0Zm-.07-.08c1.71-12.49,3.44-24.81,5.35-37.11,.1-.93,.62-2.4-.14-3.21-.7-.97-2.01-.73-3.07-.76-7.48,0-22.53-.07-30.01-.1-1.09,.02-2.44-.22-3.16,.79-.79,.84-.29,2.34-.18,3.32,.74,4.79,4.82,31.71,5.64,37.08,0,0-.19-.16-.19-.16,0,0,25.78,.16,25.78,.16h0Z"/>
          </g>
          <polygon class="cls-11" points="397.8 302.21 395.9 294.15 392.48 301.69 397.8 302.21"/>
          <polygon class="cls-27" points="396.44 296.24 395.87 293.85 394.86 296.09 396.44 296.24"/>
          <g>
            <line class="cls-21" x1="402.69" y1="320.57" x2="397.16" y2="357.9"/>
            <path class="cls-11" d="M397.16,358.91s-.1,0-.15-.01c-.55-.08-.92-.59-.84-1.14l5.53-37.33c.08-.55,.59-.91,1.14-.84,.55,.08,.92,.59,.84,1.14l-5.53,37.33c-.07,.5-.5,.85-.99,.85Z"/>
          </g>
        </g>
        <g class="cls-4">
          <path class="cls-21" d="M382.41,317.66s-2.59,28.84,7.4,40.84h-14.19l-6.18-41.52,12.97,.67Z"/>
          <path class="cls-14" d="M390.88,359h-15.68l-6.33-42.55,14.1,.73-.05,.52c-.03,.29-2.45,28.78,7.28,40.48l.68,.82Zm-14.82-1h12.73c-3.83-5.13-6.15-13.33-6.91-24.39-.51-7.33-.13-13.67,0-15.48l-11.85-.62,6.03,40.49Z"/>
        </g>
      </g>
      <path class="cls-27" d="M251.45,133.99l-1,34.83-1-34.83c-.01-1.35,2.01-1.36,2,0h0Z"/>
      <path class="cls-27" d="M266.84,133.99l-1,34.83-1-34.83c-.01-1.35,2.01-1.36,2,0h0Z"/>
      <g>
        <path class="cls-18" d="M373.24,341.54H139.03V194.87c0-9.22,7.47-16.69,16.69-16.69h200.82c9.22,0,16.69,7.47,16.69,16.69v146.67Z"/>
        <path class="cls-27" d="M373.27,341.58c-67.84-.01-167.23,.68-234.24,.27,0,0-.31,0-.31,0,0,0,0-.31,0-.31,.2-38.34,.1-106.9,.05-145.19-.62-11.1,8.12-19.31,19.15-18.49,47.58-.15,118.74-.14,166.54-.17,7.62,.01,22.33-.02,29.89,0,7.53-.54,14.73,3.07,17.86,10.14,1.26,2.65,1.58,5.7,1.5,8.54,0,0-.02,8.56-.02,8.56l-.42,136.66h0Zm-.07-.07s-.42-136.63-.42-136.63c-.01-2.26,.04-9.51-.11-11.67-.75-8.06-8.07-14.67-16.19-14.53-1.25,.02-5.08-.01-6.41,0-56.44-.02-131.45-.03-187.89-.17,0,0-4.27,0-4.27,0h-2.14c-9.58-.12-17.22,8.32-16.5,17.86-.41,37.61,.52,108.74-.26,144.88,66.58-.1,166.75-.03,234.17,.27h0Z"/>
      </g>
      <rect class="cls-26" x="138.04" y="338.15" width="235.2" height="3.39"/>
      <g>
        <rect class="cls-11" x="150.86" y="189.7" width="210.55" height="141.25" rx="6.08" ry="6.08"/>
        <path class="cls-27" d="M355.33,190.2c3.08,0,5.58,2.5,5.58,5.58v129.08c0,3.08-2.5,5.58-5.58,5.58H156.94c-3.08,0-5.58-2.5-5.58-5.58V195.79c0-3.08,2.5-5.58,5.58-5.58h198.39m0-1H156.94c-3.63,0-6.58,2.95-6.58,6.58v129.08c0,3.63,2.95,6.58,6.58,6.58h198.39c3.63,0,6.58-2.95,6.58-6.58V195.79c0-3.63-2.95-6.58-6.58-6.58h0Z"/>
      </g>
      <g>
        <rect class="cls-18" x="113.73" y="341.54" width="284.8" height="17.06" rx="8.14" ry="8.14"/>
        <path class="cls-27" d="M390.39,358.65c-68.17,.08-191.03,.27-258,.31,0,0-9.21,0-9.21,0-.76,0-1.54,.02-2.35-.07-4.05-.43-7.41-4.09-7.47-8.17-.54-4.94,3.44-9.68,8.52-9.59,72.58-.11,195.79-.09,267.22,.27,11.79-1.04,13.15,16.67,1.29,17.24h0Zm0-.1c10.08-.15,11.04-15.41,.99-16.82-.75-.08-1.52-.06-2.29-.06l-9.21,.03c-66.5,.32-190.34,.37-258,.24-6.51-.06-9.9,7.64-6.41,12.88,1.71,2.55,4.71,3.64,7.71,3.4,0,0,9.21,0,9.21,0,66.5,.07,190.34,.2,258,.31h0Z"/>
      </g>
      <path class="cls-26" d="M390.39,358.6H121.88c-2.48,0-4.7-1.11-6.19-2.85-1.22-1.42,281.84-.81,280.24,.68-1.45,1.35-3.4,2.17-5.54,2.17Z"/>
      <g>
        <path class="cls-6" d="M287.91,62.25c0,6.09-1.27,26.91-1.78,32.16-.85,8.71-1.65,17.43,.76,26.14-8.52,0-13.64,1.56-28.46,2.18s-19.05-2.18-30.03-2.18c-1.74-6.3,.45-37.84,1.47-48.13,.86-8.76,.95-15.34-1.47-24.09,9.75,0,16.35,5.05,29.24-.73,7.57-3.39,12.97-3.3,18.12-2.65,0,0,12.15,11.21,12.15,17.31Z"/>
        <path class="cls-27" d="M287.96,62.25c-.19,14.62-1.48,29.24-2.24,43.81-.07,5.03,.36,10.08,1.73,14.92-5.06-.07-10.08,.57-15.15,1.06-9.74,.87-19.62,1.58-29.33,.12-4.84-.7-9.67-1.47-14.57-1.4,0,0-.17,0-.17,0,0,0-.04-.16-.04-.16-1.13-5.98-.62-12.11-.59-18.16,.28-9.07,.78-18.13,1.53-27.18,.98-8.96,1.37-18.08-1.24-26.8,0,0-.18-.66-.18-.66h.69c8.07,.12,15.87,3.61,23.85,1.24,3.91-.95,7.46-3.08,11.42-3.92,3.98-.96,8.22-1.02,12.22-.32,2.59,2.5,5.02,5.15,7.26,7.95,2.1,2.82,4.55,5.84,4.81,9.49h0Zm-.1,0c-.28-3.6-2.75-6.59-4.86-9.37-2.24-2.79-4.75-5.37-7.37-7.79-3.39-.32-8.08-.44-11.8,.69-3.94,.96-7.42,3.13-11.36,4.14-7.96,2.57-16.13-.95-24.08-1.07,0,0,.5-.66,.5-.66,2.68,8.81,2.22,18.14,1.17,27.16-1.08,13.53-2.32,27.11-1.98,40.69,.08,1.5,.17,3.02,.51,4.45,0,0-.21-.16-.21-.16,2.45,.01,4.91,.17,7.34,.47,7.25,1.09,14.52,2.18,21.88,1.73,7.07-.24,14.85-1.2,21.9-2.02,2.44-.25,4.9-.39,7.36-.4,0,0-.41,.54-.41,.54-1.34-4.75-1.73-9.72-1.59-14.61,.1-4.89,.76-9.74,1.2-14.6,.81-9.71,1.56-19.45,1.77-29.19h0Z"/>
      </g>
      <g class="cls-3">
        <g>
          <path class="cls-10" d="M372.81,338.74s.2-28.53,.21-28.46c-1.36-1.17-3.22-1.86-5.26-1.8-1.99,.06-3.76,.83-5.04,2.03,.35-.67,.55-1.42,.52-2.22-.08-2.65-2.51-4.72-5.42-4.62-2.91,.09-5.21,2.31-5.12,4.96,0,.22,.04,.44,.07,.65l-.48-.02c-.17-1.67-1.73-2.94-3.6-2.88-1.21,.04-2.25,.62-2.86,1.49-.38-2.99-2.85-5.25-5.76-5.16-.93,.03-1.8,.3-2.56,.75-1.15-1.77-3.24-2.97-5.57-2.96-.53,0-1.03,.07-1.52,.19,.07-.3,.1-.62,.08-.94-.13-2.27-2.41-4.11-5.08-4.1-1.23,0-2.33,.4-3.14,1.05l-.19,.06c-.47-1.08-1.6-1.86-2.88-1.85-1.42,0-2.55,.97-2.75,2.25-.36-.1-.72-.18-1.09-.23-5.79-.78-10.19,5.29-6.45,7.91,4.51,3.16,4.49-2.8,7.29-3.47,.01,0,.03,0,.04,0-.74,.88-.95,2.05-.45,3.01,.7,1.34,2.52,1.77,4.06,.96,.69-.36,1.2-.9,1.5-1.51,.13,2.64-.62,6.09-3.52,10.27-9.02,13.01-19.04-3.31-27.23-5.72-10.34-3.05-18.7-14.5-23.31-33.39-5.74-29.6-4.23-87.29-4.23-87.29l-10.85,.47s-.76,80.31-2.94,91.27c-3.11,15.63-16.4,29.64-26.4,34.84-10,5.2-28.95,3.5-24.64-6.93,1.61-1.32,2.53-1.31,4.3-.86,2.83,.73,3.66,6.79,7.63,3.66,3.3-2.59-1.86-8.84-7.43-8.16-.35,.04-.7,.12-1.04,.21-.38-1.31-1.62-2.31-3.01-2.34-1.28-.03-2.29,.77-2.58,1.9-.91-.75-2.11-1.23-3.4-1.26-2.62-.06-4.58,1.77-4.4,4.07,.03,.33,.1,.65,.21,.96-.49-.13-1-.21-1.51-.22-3.33-.07-5.82,2.48-5.56,5.71,.24,3,2.79,5.53,5.82,5.92-1.32,.59-2.39,1.85-2.82,3.54-.37,1.44-.22,2.92,.33,4.19l-.07,.2c-.82-.5-1.74-.8-2.7-.82-2.4-.05-4.3,1.65-4.88,4.06-.15-.02-.31-.04-.47-.04-1.51-.03-2.71,.89-3.08,2.2-.88-1.99-2.91-3.45-5.17-3.5-1.7-.04-3.14,.73-3.98,1.95-1.08-2.94-4.02-5.14-7.3-5.21-3.96-.09-6.91,2.95-6.6,6.78,.06,.79,.27,1.55,.58,2.26-1.25-.91-2.76-1.47-4.36-1.51-2.02-.04-3.76,.75-4.92,2.05-.61-1.95-2.48-3.43-4.59-3.48-2.12-.05-3.77,1.38-4.05,3.32l-.13,.07c-.85-3.51-4.13-6.24-7.84-6.32-.84-.02,.37,14.11-.37,14.35"/>
          <path class="cls-27" d="M372.31,338.74c.09-8.04,.22-20.09,.31-28.01,0,0,0-.22,0-.22v-.11s0-.06,0-.06c0,0,0-.03,0-.03,0,0,0-.02,0-.02,0,0,0,0,0,0,0,.47-.2-.78,.78-.03,0,0-.64,.32-.64,.32-2.7-2.37-7.18-2.26-9.79,.21,0,0-1.71,1.6-1.71,1.6,0,0,1.13-2.05,1.13-2.05,1.53-2.74-.79-6.09-3.79-6.28-3.11-.47-6.34,2.39-5.42,5.58-.37-.01-.84-.03-1.2-.05-.09-3-4.28-3.87-5.89-1.53,0,0-.48,.69-.48,.69,0,0-.1-.83-.1-.83-.33-3.66-4.62-6.2-7.85-4.19,0,0-.25,.15-.25,.15,0,0-.16-.25-.16-.25-1.4-2.18-4.24-3.3-6.76-2.66,0,0-.46,.12-.46,.12,0,0,.11-.46,.11-.46,.72-3.96-4.91-6.06-7.69-3.72-.02,.02-.06,.04-.08,.05,0,0-.19,.06-.19,.06,0,0-.24,.08-.24,.08l-.1-.23c-1.05-2.44-4.95-2.2-5.17,.62-2.86-.97-6.31,.01-8.06,2.51-1.21,1.56-1.09,3.86,.78,4.82,.8,.51,1.78,.9,2.58,.48,1.68-.94,2.12-3.72,4.23-4.21,0,0,.78-.17,.78-.17,0,0-.51,.61-.51,.61-2.57,3.61,2.94,5.54,4.66,2.17,0,0,.47-.98,.47-.98l.05,1.08c.14,5.36-3,11.06-7.23,14.22-5.08,3.47-10.86-.63-14.97-3.75-2.86-2.08-5.63-4.6-9.04-5.67-3.51-1.06-6.69-3.07-9.33-5.57-5.3-5.04-8.71-11.69-11.21-18.46-3.89-10.19-4.71-21.19-5.67-31.95-.59-7.2-.95-14.42-1.2-21.63-.5-14.43-.55-28.88-.27-43.32l.36,.35s-10.85,.48-10.85,.48c0,0,.34-.35,.34-.35-.15,14.02-.37,28.04-.67,42.06-.34,14.02-.64,28.04-1.53,42.05-.22,7.08-2.13,14.03-5.67,20.18-5.23,9.13-12.67,17.29-22.03,22.28-6.41,2.91-14.04,3.75-20.73,1.29-3.76-1.41-5.77-4.97-3.99-8.81,.3-.39,1.2-.93,1.73-1.12,1.25-.41,2.69-.14,3.8,.48,1.52,1.01,2.28,3.04,3.76,3.92,.95,.58,2.13-.04,2.95-.79,.85-.79,.84-2.04,.39-3.06-1.45-3.16-5.44-5.14-8.8-4.17,0,0-.29,.08-.29,.08l-.08-.29c-.72-2.6-4.71-3.01-5.12,.02-1.98-1.98-5.98-2.15-7.35,.58-.5,.98-.34,2.14,.1,3.13-1.65-.57-3.57-.51-5.04,.44-4.51,2.96-1.53,9.68,3.32,10.14,0,0,1.23,.16,1.23,.16l-1.13,.51c-2.62,1.19-3.45,4.75-2.3,7.26,0,0,.06,.13,.06,.13,0,0-.04,.13-.04,.13l-.07,.2-.15,.44c-3-2.21-6.88-.56-7.48,3.11-1.42-.33-3.09,.34-3.47,1.84,0,0-.29,1.02-.29,1.02l-.43-.97c-1.55-3.64-6.89-4.62-8.91-.86-1.04-3.71-5.05-6.39-8.87-5.47-3.65,.71-5.56,4.98-3.96,8.28,0,0,.66,1.47,.66,1.47,0,0-1.31-.95-1.31-.95-2.53-1.92-6.53-1.99-8.7,.49,0,0-.53,.6-.53,.6l-.23-.76c-1.03-3.71-7.01-4.52-7.75-.22,0,0-.03,.23-.03,.23l-.21,.11s-.13,.07-.13,.07c0,0-.52,.27-.52,.27-.63-3.52-3.81-6.41-7.41-6.52,0,0-.09,0-.09,0,0,0-.08,0,0,0,.09,0,.18-.06,.2-.07,.13-.13,.07-.1,.08-.07-.42,4.02,.19,8.42,.06,12.49,0,.5-.03,1.01-.16,1.51-.01,.04-.04,.11-.07,.18-.05,.07-.1,.2-.35,.31l-.31-.95c-.19,.07-.2,.15-.22,.17,.2-.88,.09-1.87,.12-2.8-.05-3.1-.21-6.4-.16-9.49,.03-.55,0-1.04,.18-1.7,.04-.09,.03-.19,.26-.41,.05-.04,.17-.1,.29-.11,3.87,.04,7.43,2.93,8.34,6.69,0,0-.67-.3-.67-.3,0,0,.13-.07,.13-.07s-.24,.35-.24,.35c.92-5.28,8.2-4.54,9.52,.09,0,0-.76-.17-.76-.17,1.22-1.37,3.03-2.14,4.83-2.19,1.81-.06,3.6,.54,5.04,1.59l-.65,.52c-.8-1.81-.86-4,0-5.83,2.95-6.12,12.11-4.22,14.1,1.68,0,0-.7-.09-.7-.09,2.52-3.64,8.31-2.18,9.83,1.63,0,0-.72,.05-.72,.05,.46-1.7,2.28-2.73,3.98-2.42,0,0-.43,.29-.43,.29,.76-3.69,4.95-5.56,8.13-3.47,0,0-.54,.2-.54,.2,0,0,.07-.2,.07-.2,0,0,.01,.26,.01,.26-1.28-2.88-.34-6.82,2.68-8.2,0,0,.1,.67,.1,.67-8.62-1.36-8.01-13.93,1.38-12.07,0,0-.39,.42-.39,.42-.77-1.98,.4-4.36,2.39-5.07,1.91-.77,4.15-.33,5.7,.95l-.49,.16c.91-3.22,5.4-2.48,6.18,.44,0,0-.37-.21-.37-.21,4.15-1.2,9.79,1.86,9.87,6.44-.2,1.95-2.7,3.66-4.54,2.69-1.72-1.03-2.27-2.89-3.81-3.94-1.51-.86-3.44-.76-4.72,.48-3.04,7.91,7.86,9.74,13.95,9.14,15.89-.58,31.7-19.8,35.79-34.18,1.03-3.33,1.27-6.81,1.53-10.31,1.59-27.98,1.76-56.05,2.16-84.07,0,0,0-.33,0-.33,0,0,.33-.01,.33-.01,0,0,10.85-.46,10.85-.46l.37-.02c-.4,21.75-.26,43.55,1.41,65.25,.95,10.74,1.75,21.64,5.61,31.79,2.47,6.69,5.83,13.28,11.05,18.24,2.58,2.46,5.68,4.41,9.09,5.44,1.79,.52,3.37,1.51,4.86,2.53,5.39,3.43,11.85,11.14,18.67,6.97,1.47-.96,2.64-2.34,3.64-3.81,1.99-2.93,3.53-6.35,3.35-9.91l.52,.11c-2.17,4.13-8.6,1.45-5.56-2.75,0,0,.27,.44,.27,.44-2.01,.56-2.25,3.19-4.12,4.16-1.04,.53-2.21,.05-3.1-.51-2.13-1.11-2.29-3.8-.92-5.58,1.82-2.59,5.35-3.68,8.35-2.79,0,0-.33,.21-.33,.21,.49-3.13,5-3.24,6.13-.47,0,0-.33-.15-.33-.15l.19-.06s-.08,.05-.08,.05c1.61-1.28,3.9-1.42,5.73-.61,1.86,.78,3.35,2.8,2.87,4.88,0,0-.35-.35-.35-.35,2.75-.71,5.86,.5,7.41,2.89,0,0-.41-.1-.41-.1,3.56-2.26,8.46,.56,8.8,4.64,0,0-.59-.15-.59-.15,.9-1.28,2.56-1.86,4.05-1.55,1.52,.27,2.86,1.52,3.01,3.1,0,0-.32-.3-.32-.3l.48,.02-.35,.4c-.73-3.53,2.91-6.47,6.24-5.99,3.43,.2,6.19,4.15,4.37,7.33,0,0-.58-.44-.58-.44,2.89-2.75,7.78-2.87,10.8-.26,0,0-.64,.32-.64,.32,.98,.76,.78-.49,.78-.01h0s0,.02,0,.02c0,0,0,.03,0,.03,0,0,0,.06,0,.06,0,0,0,.11,0,.11,0,0,0,.22,0,.22,0,0,0,.44,0,.44,0,0,0,.89,0,.89-.02,7.29-.07,19.29-.09,26.68,0,0-1,0-1,0h0Z"/>
        </g>
      </g>
      <g>
        <path class="cls-12" d="M287.91,61.52s-3.95-6.61-11.41-5.12c0,0,1.47-5.25-.77-11.25"/>
        <path class="cls-27" d="M287.86,61.55c-2.97-3.12-7.23-6.44-11.73-4.71,.31-2,.39-4.05,.26-6.07-.08-1.88-.35-3.72-.71-5.59,0,0,.09-.03,.09-.03,.94,1.69,1.49,3.61,1.67,5.55,.15,1.95-.02,3.92-.64,5.8,0,0-.36-.39-.36-.39,3.34-.28,7.13,.06,9.56,2.62,.81,.8,1.5,1.73,1.95,2.77l-.09,.05h0Z"/>
      </g>
      <g class="cls-31">
        <path class="cls-9" d="M248.43,192.52c.79,9.67,.2,19.36-.06,29.03-.36,9.67-.85,19.34-1.45,29-1.44,14.61-.52,38.49-13.45,47.87-2,1.46-4.3,2.47-6.67,3.01,9.83-4.64,13.98-11.82,16.01-22.19,2.09-9.43,2.14-19.16,2.98-28.75,1.47-19.3,1.99-38.62,2.65-57.96h0Z"/>
        <path class="cls-7" d="M267.89,192.98c.15,9.54-.27,19.04,.11,28.57,.53,14.25,1.17,28.56,3.15,42.69,2.02,14.54,3.81,30.04,21.67,31.56-2.38,0-4.79-.3-7.1-1.04-12.67-3.96-13.9-19.24-15.59-30.37-.72-4.73-1.22-9.48-1.64-14.23-.85-9.51-1.32-19.04-1.5-28.58-.04-9.53-.41-19.12,.89-28.6h0Z"/>
      </g>
      <path class="cls-9" d="M242.47,131.58c-.02,2.31-1.64,4.27-3.92,4.2-2.9-.42-3.7-1.75-4.11-4.3,.02-2.31,1.64-4.27,3.92-4.2,2.9,.42,3.7,1.75,4.11,4.31Zm-6.53,.02c.27,1.71,1.44,2.96,2.91,2.98,1.39-.03,2.32-1.44,2.1-3.11-.27-1.71-1.44-2.96-2.91-2.98-1.39,.03-2.32,1.44-2.1,3.12Z"/>
      <path class="cls-15" d="M272.85,149.91c-1.54,.09-2.76-1-2.72-2.85,.04-1.16,1.31-2.7,2.85-2.73,1.54-.09,2.76,1,2.73,2.85-.03,1.17-1.31,2.7-2.85,2.73Zm.11-4.67c-1.03,.21-1.89,1.25-1.91,2.24-.02,1.08,.8,1.73,1.83,1.52,1.03-.21,1.89-1.25,1.91-2.24,.02-1.08-.8-1.73-1.83-1.52Z"/>
      <path class="cls-17" d="M274.89,122.71c-.85,.12-1.29,.63-1.41,1.48-.28,2.1-.35,2.18-2.48,2.4-.87,.09-1.51,.47-1.51,1.35,0,.9,.6,1.39,1.54,1.47,1.95,.16,2.01,.24,2.29,2.17,.12,.82,.57,1.33,1.41,1.32,.83,0,1.27-.5,1.37-1.35,.18-1.47,.63-1.89,2.04-1.99,.9-.06,1.53-.49,1.59-1.42,.05-.94-.64-1.26-1.45-1.42-1.64-.31-1.98-.7-2.01-2.42-.02-.94-.4-1.49-1.38-1.61Z"/>
      <path class="cls-7" d="M240.22,147.68c-.46,.52-.54,1.08-.28,1.76,.65,1.5,.64,1.74-.56,2.39-.49,.14-.73,.46-.38,1.17,.35,.64,.91,.7,1.51,.44,1.25-.62,1.31-.92,2.23,.15,.39,.48,.87,.69,1.37,.25,.5-.42,.57-.95,.31-1.63-.47-1.1-.36-1.65,.46-2,.52-.13,.74-.45,.41-1.23-.34-.72-.88-.71-1.43-.51-1.11,.45-1.48,.7-2.17-.32-.38-.57-.83-.86-1.47-.45Z"/>
      <path class="cls-11" d="M115.69,345.15c1.46-2.16,3.93-3.58,6.73-3.58H390.12c3,0,5.63,1.63,7.03,4.06l-122.03-.21-.69,1.63c-.75,1.77-2.48,2.92-4.4,2.92l-32.63-.06c-1.92,0-3.65-1.15-4.39-2.92l-.69-1.65-116.64-.2Z"/>
      <g>
        <path class="cls-27" d="M455.42,357.68c1.55,.01,3.09,.06,4.64,.16,1.43,.1,2.95,.19,4.3-.39,2.71-1.04,4.52-3.93,4.5-6.82l-.05-4.64c.4-4.55-2.79-8.61-7.48-8.61,0,0-4.63-.02-4.63-.02-1.43-.04-2.95-.01-4.27,.6-2.63,1.1-4.5,3.87-4.45,6.76,0,1.55,0,3.09,.04,4.64-.35,4.54,2.88,8.27,7.41,8.32h0Zm0,2c-5.58-.03-9.28-4.95-8.68-10.32,.15-3.15-.46-6.58,1.43-9.35,1.77-2.88,5.21-4.28,8.52-4.02,0,0,4.63-.02,4.63-.02,5.45,.06,9.16,4.74,8.61,10.02-.11,2.81,.39,6.9-1.43,9.3-1.36,2.07-3.6,3.55-6.04,4.01-2.32,.31-4.7,.33-7.04,.38h0Z"/>
        <path class="cls-27" d="M425.48,357.68c1.55,.01,3.09,.06,4.64,.16,1.43,.1,2.95,.19,4.3-.39,2.71-1.04,4.52-3.93,4.5-6.82l-.05-4.64c.4-4.55-2.79-8.61-7.48-8.61,0,0-4.64-.02-4.64-.02-1.43-.04-2.95-.01-4.27,.6-2.63,1.1-4.5,3.87-4.45,6.76,0,1.55,0,3.09,.04,4.64-.35,4.54,2.88,8.27,7.41,8.32h0Zm0,2c-5.58-.03-9.28-4.95-8.68-10.32,.15-3.15-.46-6.58,1.43-9.35,1.77-2.88,5.21-4.28,8.52-4.02,0,0,4.64-.02,4.64-.02,5.45,.06,9.16,4.74,8.61,10.02-.11,2.81,.39,6.9-1.43,9.3-1.36,2.07-3.6,3.55-6.04,4.01-2.32,.31-4.7,.33-7.04,.38h0Z"/>
        <path class="cls-27" d="M446.32,345.79h-5.85c-.64,0-1.17-.52-1.17-1.17s.52-1.17,1.17-1.17h5.85c.64,0,1.17,.52,1.17,1.17s-.52,1.17-1.17,1.17Z"/>
        <path class="cls-27" d="M417.8,343.34c-5.37,1.5-10.75,3.04-16.06,4.75-3.65,1.32-8.79,2.17-9.44,6.76-.23,1.36-.11,2.78,.23,4.13-.42-1.33-.63-2.75-.47-4.17,.38-4.78,5.66-6.11,9.35-7.66,5.23-2.04,10.5-3.9,15.81-5.72,1.28-.41,1.9,1.52,.59,1.91h0Z"/>
      </g>
      <g>
        <g>
          <path class="cls-27" d="M62.83,343.61c-9.67,1.33-15.35-11.02-7.97-17.49,2.2-1.88,5.24-2.74,7.97-2.12v.1c-2.76-.03-5.42,.95-7.31,2.77-1.9,1.77-3.18,4.27-3.22,6.94-.1,5.9,4.97,10,10.53,9.81h0Z"/>
          <g>
            <path class="cls-19" d="M79.98,358.81h6.22c11.11,0,20.11-9,20.11-20.11v-13.25c0-.81-.66-1.47-1.47-1.47H61.34c-.81,0-1.47,.66-1.47,1.47v13.25c0,11.11,9,20.11,20.11,20.11Z"/>
            <path class="cls-27" d="M79.98,358.76c2.64-.12,6.4,.13,8.97-.29,8.89-1.21,16.18-9.14,16.77-18.02,.21-4.09,.04-9.32,.09-13.45-.05-.46,.11-1.65-.11-2-.28-.59-.94-.54-1.51-.53-11.12-.06-29.41-.15-40.5-.19,0,0-2.25,0-2.25,0-.65-.06-1.22,.42-1.28,1.03,0,0-.05,8.97-.05,8.97,.02,3-.26,6.02,.46,8.92,1.85,8.9,10.31,15.68,19.4,15.56h0Zm0,.1c-9.96,.13-19.09-7.89-20.16-17.81-.21-1.51-.17-5.2-.2-6.77,0,0-.03-9.03-.03-9.03,.07-.91,.99-1.64,1.86-1.56,4.54-.02,19.95-.08,24.75-.1,0,0,18-.09,18-.09,.38,.03,.89-.05,1.28,.11,.72,.24,1.26,.92,1.32,1.68,.01,.43,.01,1.3,0,1.73,0,0,0,4.5,0,4.5-.07,2.7,.11,6.36-.09,9.04-.27,3.07-1.31,6.04-2.9,8.65-3.96,6.65-11.73,10.22-19.34,9.7,0,0-4.5-.04-4.5-.04h0Z"/>
          </g>
          <path class="cls-6" d="M82.76,297.22c-1.14,1.92-3.08,2.84-2.76,5.11,.35,3.31,4.26,4.87,5.74,7.79,1.31,2.37,.88,5.66-1.11,7.53-.97,.97-2.13,1.83-3.58,1.12,.47-1.39,1.26-1.66,2.08-2.54,.62-.7,1.03-1.55,1.1-2.44,.34-3.46-3.28-5.04-4.85-7.66-.68-1.04-1.22-2.28-1.28-3.66-.16-2.62,1.93-5.42,4.66-5.26h0Z"/>
          <path class="cls-22" d="M79.02,357.14c-15.38-7.9-9.46-31.49-9.46-31.49h-7.39c-.73,0-1.32,.59-1.32,1.32v11.99c0,10.04,8.36,18.11,18.18,18.18Z"/>
        </g>
        <path class="cls-11" d="M91.73,350.64c-.42,0-.81-.27-.95-.69-.17-.52,.11-1.09,.64-1.26,4.15-1.37,6.12-4.03,6.58-8.89,.28-2.99,0-9.94,0-10.01-.02-.55,.41-1.02,.96-1.04,.55-.04,1.02,.41,1.04,.96,.01,.29,.29,7.16,0,10.28-.53,5.63-3.06,9-7.94,10.61-.1,.03-.21,.05-.31,.05Z"/>
      </g>
      <path class="cls-27" d="M478.04,358.89c-61.72,1.66-155.34,.67-217.95,1.14-62.77-.64-156,1.21-217.95-1.13,61.61-2.35,155.4-.5,217.95-1.14,62.88,.47,155.89-.53,217.95,1.14h0Z"/>
      <g class="cls-4">
        <path class="cls-29" d="M287.91,61.52s-6.65-2.27-13.29,1.48c0,0,3.35-11.85,1.12-17.84"/>
      </g>
      <path class="cls-23" d="M242.71,83.73c2.55,.49,4.58,2.89,6.38,4.48,1.87,1.74,3.76,3.47,5.62,5.24h-2.28c4.93-5.24,10.11-10.3,15.36-15.21,.77-.68,1.71-1.21,3.24-1.12,.08,1.54-.44,2.47-1.12,3.24l-2.12,2.25c-4.6,4.9-9.38,9.64-14.29,14.25-2.13-2.22-4.23-4.5-6.32-6.75-1.57-1.81-4-3.8-4.48-6.38h0Z"/>
      <g>
        <path class="cls-11" d="M334.73,330.58c-1.98-5.48-7-8.43-12.88-8.43-1.67,0-3.28,.22-4.76,.73,0-.06,0-.15,0-.2,0-8.71-7.55-15.78-16.87-15.78-5.02,0-9.52,2.04-12.61,5.29-.78,.81-2.12,.88-2.97,.13-2.57-2.27-6.03-3.67-9.85-3.67-.44,0-.88,.02-1.32,.06-.84,.07-1.65-.32-2.04-1.01-3.26-5.9-9.85-9.94-17.45-9.94-9.77,0-17.87,6.67-19.38,15.4-.17,.97-1.05,1.67-2.1,1.67,0,0-.01,0-.02,0-5.12,0-9.69,2.18-12.7,5.61-.69,.79-1.95,.91-2.82,.3-2.89-2.03-6.49-3.17-10.41-3.17-8.33,0-15.27,5.73-16.83,13.04"/>
        <path class="cls-27" d="M334.68,330.59c-2.46-6.89-10.9-9.63-17.47-7.36,0,0-.49,.17-.49,.17v-.53c.16-10.38-10.87-17.52-20.52-15.17-3.19,.7-6.19,2.31-8.49,4.69-.67,.64-1.71,.81-2.55,.46-.81-.4-1.3-1.05-2.04-1.5-2.71-1.87-6.08-2.78-9.37-2.5-.83,.12-1.85-.15-2.37-.93-.44-.74-.86-1.42-1.35-2.09-6.49-8.85-20.17-10.18-28.52-3.3-3.31,2.69-5.67,6.52-6.38,10.73-.14,.78-.7,1.47-1.41,1.8-.84,.42-1.77,.22-2.65,.33-4.03,.3-7.94,2.12-10.68,5.1-.23,.25-.67,.73-1.14,.89-.83,.35-1.82,.24-2.55-.28-9.43-6.88-24.18-2.15-26.92,9.48,.28-3.1,2.41-6.41,4.77-8.67,4.98-4.7,12.66-5.96,19.02-3.52,1.2,.46,2.35,1.04,3.42,1.75,.53,.42,1.25,.61,1.88,.32,.95-.58,1.7-1.76,2.68-2.41,2.68-2.15,6.03-3.44,9.45-3.71,.75-.12,1.59,.07,2.28-.24,.68-.27,.85-1.02,.96-1.66,2.52-12.35,17.32-18.45,28.34-13.16,3.07,1.4,5.78,3.59,7.75,6.32,.97,1.21,1.44,3.26,3.4,2.91,3.36-.23,6.8,.65,9.6,2.53,.69,.4,1.3,1.11,1.98,1.44,.7,.29,1.57,.12,2.1-.41,10.07-11,30.09-4.73,30.07,10.81,0,0-.5-.36-.5-.36,6.74-2.25,15.92,.9,17.72,8.07h0Z"/>
      </g>
      <g>
        <g>
          <g>
            <path class="cls-11" d="M151.51,268.56s8.7-16.69,3.91-30.65c-1.23-3.59-2.7-5.95-4.2-7.47-2.07-2.11-5.55,.58-4.17,3.23,.83,1.61,2.35,7.03,2.35,9.51,.03,7.93-7.23,16.11-7.23,16.11"/>
            <path class="cls-27" d="M151.51,268.56c4.81-11.11,7.76-25.1,.85-35.94-.42-.64-.89-1.24-1.41-1.78-.93-1.11-2.59-.78-3.35,.34-1.01,1.32,.18,2.72,.54,4.04,.74,2.29,1.34,4.58,1.6,6.99,.28,6.53-3.48,12.35-7.56,17.07,3.65-4.85,7.21-10.76,6.78-16.99-.37-2.66-1.07-5.35-2.05-7.87-.66-1.15-.91-2.64-.06-3.76,1-1.6,3.54-1.99,4.79-.48,.57,.59,1.08,1.23,1.54,1.9,7.09,11.14,3.99,25.48-1.67,36.48h0Z"/>
          </g>
          <g class="cls-4">
            <path class="cls-21" d="M146.68,262.35s9.84-10.3,9.27-22.72c0,0,1.09,18.11-4.32,27.23l-4.95-4.51Z"/>
          </g>
        </g>
        <g>
          <g>
            <path class="cls-13" d="M165.71,296.31s-5.1,31.94-21.41,45.07c-1.32,1.06-2.91-.41-2.36-2.12,3.04-9.43,1.56-20.38-.89-29.92-2.45-9.54,2.63-17.16,2.63-17.16l22.02,4.13Z"/>
            <path class="cls-27" d="M165.75,296.28c-2.29,12.73-6.17,25.33-13.21,36.27-1.79,2.67-3.86,5.28-6.21,7.5-.38,.39-.81,.72-1.21,1.09-.42,.33-.93,.89-1.51,.94-.69,.1-1.38-.26-1.73-.8-1.04-1.55,.29-3.36,.45-4.95,.46-2.08,.71-4.2,.82-6.33,.19-4.26-.21-8.54-.91-12.75-.57-4.29-2.25-8.39-2.34-12.75-.05-4.41,1.14-8.77,3.44-12.55l.14-.23s.28,.05,.28,.05c6.44,1.2,15.49,3.2,21.99,4.52h0Zm-.08,.06c-6.49-1.03-15.7-2.64-22.06-3.75,0,0,.43-.18,.43-.18-2.13,3.59-3.26,7.88-3.15,12.07,.14,4.28,1.77,8.36,2.33,12.6,.73,4.27,1.03,8.62,.79,12.96-.14,2.17-.44,4.33-.93,6.45-.13,1.45-1.37,3.05-.61,4.37,.37,.57,1.09,.68,1.6,.26,0,0,.61-.51,.61-.51,.4-.35,.83-.67,1.2-1.05,2.33-2.17,4.39-4.7,6.19-7.33,7.09-10.74,11.12-23.37,13.6-35.89h0Z"/>
          </g>
          <g class="cls-4">
            <path class="cls-21" d="M145.35,299.33c15.03,22.04,1.14,39.97,1.02,40.19,0,0,15.4-16.39,13.96-30.8-1.44-14.41-14.98-9.39-14.98-9.39Z"/>
          </g>
        </g>
        <g>
          <g>
            <path class="cls-13" d="M147.29,292.64c-2.22-11.31-12.2-5.63-19.36,.3-4.13,3.42-4.73,9.55-1.38,13.73,5.49,6.85,12.02,18.62,7.77,32.65-.45,1.48,1.43,2.57,2.45,1.41,12.06-13.75,13.39-33.44,10.52-48.08Z"/>
            <path class="cls-27" d="M147.29,292.64c-2.2-11.68-13.18-4.78-18.83,.07-4.42,3.26-5.06,10.03-1.38,14.07,6.91,8.4,10.99,19.83,8.21,30.65,0,0-.52,1.99-.52,1.99-.37,1.02,1.08,1.88,1.75,.92,11.29-12.87,13.87-31.29,10.77-47.71h0Zm0,0c1.57,7.98,1.76,16.23,.51,24.28-.48,2.67-1.03,5.34-1.88,7.93-1.8,5.86-4.77,11.4-8.75,16.08-.22,.29-.63,.61-1.06,.69-1.38,.33-2.68-1.12-2.21-2.44,.89-3.2,1.39-6.56,1.28-9.88-.23-8.06-3.77-15.74-8.64-22.08-3.76-4.29-2.97-11.47,1.72-14.74,5.8-4.69,16.92-11.61,19.03,.17h0Z"/>
          </g>
          <g class="cls-4">
            <path class="cls-21" d="M128.6,306.2c9.6,10.58,10.22,24.53,6.88,33.76,0,0,9.86-15.51,6.94-27.56-2.92-12.06-13.82-6.2-13.82-6.2Z"/>
          </g>
        </g>
        <g>
          <path class="cls-11" d="M124.79,305.69c-5.51-12.63-1.75-18.57-1.45-29.7,.1-3.51,.32-3.14,.04-6.91,9.08,7.78,24.49,4.63,20.6-9.56,1.73,5.85,17,7.95,22.28,31.5,2.29,15.06-6.7,23.98-15.07,26.29-6.02,1.66-20.89,1.01-26.41-11.62Z"/>
          <path class="cls-27" d="M124.33,305.89c-2.57-5.72-3.5-12.17-2.53-18.36,.68-4.63,1.3-9.16,1.37-13.83,.13-1.54,.05-3.05-.07-4.6-.02-.23,.27-.39,.45-.23,3.94,3.34,9.63,5.05,14.65,3.46,5.6-1.66,7.05-7.61,5.45-12.72-.05-.18,.06-.36,.24-.41,.17-.05,.35,.06,.41,.23,.46,1.46,1.74,2.58,2.99,3.6,3.93,3.01,8,5.98,11.08,9.93,7.16,9.35,11.68,22.8,5.95,33.91-3.7,7.38-11.88,12.21-20.17,11.48-8.19-.25-16.57-4.63-19.82-12.45h0Zm.92-.4c3.07,7.53,11.07,11.72,18.94,12.04,8.03,.77,15.96-3.76,19.59-10.94,5.59-10.88,1.12-24.07-5.93-33.21-2.05-2.55-4.47-4.78-7.07-6.79-2.51-2.16-5.84-3.66-7.12-6.97,0,0,.65-.18,.65-.18,1.67,5.43,.03,11.71-5.91,13.46-5.25,1.63-11.09-.12-15.19-3.61,0,0,.45-.23,.45-.23,.39,6.18-.46,12.43-1.18,18.55-.83,6.13,.16,12.29,2.77,17.88h0Z"/>
        </g>
        <g class="cls-4">
          <path class="cls-21" d="M162.85,290.5c.16,7.13-3.75,20.5-21.74,25.81-.83,.25-.68,1.47,.18,1.5,6.55,.19,17.86-.68,21.6-8.37,3.75-7.71,3.37-15.62,1.39-19.31-.38-.71-1.46-.43-1.44,.37Z"/>
        </g>
        <g class="cls-4">
          <path class="cls-21" d="M130.15,283.21c-4.05,3.59-6.78,19.68-2.46,27.26,0,0-7.57-11.81-5.16-23.05,2.41-11.24,11.67-7.8,7.62-4.21Z"/>
        </g>
        <g>
          <path class="cls-11" d="M134.28,283.29s-25.68,12.15-41.16-7.03c-.94-1.2,.51-3.15,1.93-2.65,15.35,8.95,28.91,1.75,28.91,1.75"/>
          <path class="cls-27" d="M134.3,283.33c-13.68,6.14-31.18,5.96-41.26-6.51-.45-.43-.75-1.08-.64-1.7,.16-1.32,1.56-2.46,2.89-1.92,8.59,4.97,19.44,5.99,28.65,2.12-8.67,4.92-20.59,3.93-29.13-1.29,0,0,.08,.04,.08,.04-.63-.28-1.52,.4-1.61,1.17-.09,.41,.15,.77,.42,1.05,0,0,.98,1.15,.98,1.15,10.05,11.56,26.56,11.05,39.61,5.89h0Z"/>
        </g>
        <g class="cls-4">
          <ellipse class="cls-21" cx="134.58" cy="268.87" rx="12.77" ry="11.81"/>
        </g>
        <g>
          <path class="cls-27" d="M133.85,251.18c-1.1-2.02,.33-4.72,2.37-5.51-.41,2.22-1.33,3.61-2.37,5.51h0Z"/>
          <g>
            <path class="cls-11" d="M132.34,247.42c4.28,1.54,8.37,4.76,10.89,8.28,4.73,6.62,5.23,13.81-1.42,18.54-6.65,4.73-15.91,5.77-22.88-6.07-6.96-11.84-4.03-15.21,2.63-19.94,1.52-1.08,3.22-1.62,5-1.74"/>
            <path class="cls-27" d="M132.36,247.37c10.38,2.91,21.19,18.15,10.18,26.54-4.48,3.48-10.94,5.37-16.23,2.49-5.8-2.9-11.66-12.66-11.86-19.11-.03-4.17,3.55-7.01,6.7-9.07,1.57-1.14,3.52-1.73,5.42-1.77,0,0,0,.1,0,.1-1.89,.18-3.67,.92-5.12,2.09-2.84,2.17-6.13,4.77-6.02,8.66,.1,3.7,2.03,7.13,3.79,10.33,1.82,3.22,4.21,6.26,7.46,8.08,4.98,2.96,11.33,1.46,15.65-2.08,6.82-5.15,3.98-14.18-.95-19.61-2.48-2.78-5.56-5.08-9.05-6.56,0,0,.03-.09,.03-.09h0Z"/>
          </g>
          <path class="cls-27" d="M131.85,255.51c-1.05-1.41-.81-3.49,.31-4.78,.37-.43,.84-.81,1.43-.95-.28,1.14-.54,1.98-.8,2.88-.29,.91-.53,1.94-.94,2.86h0Z"/>
          <g>
            <path class="cls-27" d="M119.64,262.37c1.79,.27,3.02,1.94,2.74,3.74-.28,1.8-1.96,3.03-3.75,2.77-1.79-.27-3.02-1.94-2.74-3.74s1.96-3.03,3.75-2.77Z"/>
            <ellipse class="cls-27" cx="115.08" cy="259.33" rx="6.57" ry="6.53" transform="translate(-151.79 163.02) rotate(-46.23)"/>
            <path class="cls-27" d="M120.25,256.2c3.36,.5,6.5-1.82,7.02-5.18,.52-3.36-1.78-6.49-5.13-6.99-3.36-.5-6.5,1.82-7.02,5.18-.52,3.36,1.78,6.49,5.13,6.99Z"/>
            <path class="cls-27" d="M126.25,246.81c1.88,.28,3.64-1.02,3.94-2.9,.29-1.88-1-3.64-2.88-3.92-1.88-.28-3.64,1.02-3.94,2.9-.29,1.88,1,3.64,2.88,3.92Z"/>
            <ellipse class="cls-27" cx="115.78" cy="250.07" rx="6.67" ry="6.63" transform="translate(-144.93 160.78) rotate(-46.25)"/>
            <path class="cls-27" d="M119.72,247.91c2.54,.38,4.92-1.38,5.32-3.92,.4-2.54-1.34-4.91-3.88-5.29-2.54-.38-4.92,1.38-5.32,3.92-.4,2.54,1.34,4.91,3.88,5.29Z"/>
            <path class="cls-27" d="M112.1,253.48c.41,1.25-.17,2.57-1.3,2.93s-2.38-.36-2.8-1.61c-.41-1.25,.17-2.57,1.3-2.93,1.13-.37,2.38,.36,2.8,1.61Z"/>
          </g>
        </g>
      </g>
      <path class="cls-10" d="M320.97,330.58c-1.7-4.08-6-6.28-11.05-6.28-1.44,0-2.81,.16-4.08,.54,0-.04,0-.11,0-.15,0-6.49-6.48-11.77-14.48-11.77-4.3,0-8.17,1.52-10.82,3.94-.67,.61-1.82,.65-2.55,.1-2.2-1.69-5.18-2.74-8.45-2.74-.38,0-.76,.01-1.13,.04-.72,.05-1.42-.24-1.75-.76-2.8-4.4-8.46-7.41-14.98-7.41-8.38,0-15.33,4.97-16.63,11.48-.14,.72-.9,1.24-1.81,1.24,0,0-.01,0-.02,0-4.39,0-8.31,1.63-10.9,4.18-.6,.59-1.67,.68-2.42,.22-2.48-1.52-5.57-2.37-8.93-2.37-7.15,0-13.11,4.28-14.44,9.72"/>
    </g>
  </g>
  <g id="artboard_2" data-name="artboard 2">
    <g>
      <g>
        <g>
          <g>
            <path class="cls-27" d="M228.25,576.93c2.16-.06,3.81-1.99,3.69-4.33-.26-5.01-6.42-10.45-6.42-10.45,.92,7.76-1.62,6.94-1.41,10.64,.14,2.34,1.99,4.2,4.13,4.14Z"/>
            <path class="cls-27" d="M228.15,577.36c-2.33,0-4.31-2.01-4.46-4.55-.09-1.56,.29-2.39,.69-3.27,.59-1.29,1.26-2.76,.72-7.34l-.13-1.12,.84,.74c.26,.23,6.3,5.62,6.57,10.75,.06,1.3-.38,2.56-1.21,3.46-.76,.83-1.79,1.3-2.9,1.33h0s-.08,0-.11,0Zm-2.08-14.1c.33,3.93-.35,5.42-.91,6.63-.39,.85-.69,1.52-.62,2.87,.12,2.11,1.79,3.81,3.69,3.73,.87-.03,1.69-.4,2.29-1.05,.68-.73,1.04-1.76,.99-2.83-.19-3.68-3.79-7.68-5.45-9.35Z"/>
          </g>
          <g>
            <polyline class="cls-7" points="233.11 596.32 233.34 590.88 230.85 578.38 226.51 578.55 225.39 591.19 226.01 596.61"/>
            <path class="cls-27" d="M233.07,596.32c-.04-.91-.08-1.82-.08-2.73,0-.91-.02-1.82,0-2.73v.08c-.23-1.04-.45-2.08-.66-3.12-.21-1.04-.37-2.09-.52-3.14-.16-1.05-.3-2.11-.49-3.15-.18-1.05-.41-2.08-.64-3.12l.16,.13c-1.45,.1-2.89,.23-4.33,.35l.32-.3c-.06,1.06-.12,2.11-.2,3.17l-.23,3.16c-.16,2.11-.41,4.21-.67,6.31v-.07c.08,.9,.13,1.81,.19,2.72,.06,.91,.1,1.82,.13,2.73h-.09c-.18-.88-.35-1.78-.49-2.68-.14-.9-.31-1.79-.43-2.69v-.03s0-.04,0-.04c.12-2.11,.24-4.23,.45-6.33l.33-3.16c.11-1.05,.23-2.1,.36-3.15l.04-.3h.28c1.45,0,2.9,.02,4.35,0h.14s.02,.13,.02,.13c.19,1.04,.38,2.09,.61,3.13,.23,1.04,.51,2.07,.76,3.1,.26,1.03,.52,2.06,.72,3.1,.21,1.04,.41,2.09,.58,3.13v.05s0,.03,0,.03c-.05,.91-.15,1.81-.22,2.72-.08,.91-.19,1.81-.31,2.71h-.09Z"/>
          </g>
        </g>
        <g>
          <polyline class="cls-15" points="244.18 599.92 246.06 580.67 243.62 570.36 239.25 580 237.37 599.25"/>
          <path class="cls-27" d="M244.18,599.92l.33-4.83c.11-1.61,.23-3.22,.37-4.82,.27-3.21,.5-6.43,.81-9.64v.12s-2.48-10.3-2.48-10.3l.81,.08-4.42,9.62,.03-.12c-.32,3.21-.72,6.41-1.07,9.61-.18,1.6-.37,3.2-.58,4.8l-.61,4.8,.33-4.83c.11-1.61,.23-3.22,.37-4.82,.27-3.21,.5-6.43,.81-9.64v-.06s.03-.06,.03-.06l4.32-9.67,.52-1.16,.29,1.24,2.38,10.32v.06s0,.06,0,.06c-.32,3.21-.72,6.41-1.07,9.61-.18,1.6-.38,3.2-.57,4.8l-.61,4.8Z"/>
        </g>
        <g>
          <path class="cls-11" d="M249.71,644.52h-29.43l-6.93-44.27c-.2-1.69,1.11-3.17,2.81-3.17h37.67c1.7,0,3.02,1.48,2.81,3.17l-6.93,44.27Z"/>
          <path class="cls-27" d="M249.74,644.56l-29.47,.12h-.14s-.02-.14-.02-.14l-5.41-33.79-1.35-8.45c-.11-.72-.23-1.38-.33-2.14-.08-.78,.17-1.6,.67-2.22,.49-.62,1.22-1.06,2.02-1.17,.41-.06,.76-.03,1.11-.04h1.07s17.11-.06,17.11-.06l17.11-.03h1.07c.34,0,.72-.02,1.11,.03,.85,.11,1.58,.56,2.1,1.2,.51,.64,.78,1.48,.69,2.3-.1,.77-.22,1.43-.33,2.14-.44,2.82-.87,5.64-1.35,8.45l-2.79,16.88c-.91,5.63-1.88,11.25-2.86,16.87v.04Zm-.08-.09c.78-5.64,1.57-11.27,2.43-16.9l2.51-16.92c.41-2.82,.86-5.64,1.3-8.46,.1-.69,.23-1.44,.32-2.08,.06-.61-.14-1.22-.51-1.69-.37-.47-.95-.81-1.52-.88-.31-.05-.66-.03-1.02-.03h-1.07s-17.11-.03-17.11-.03l-17.11-.06h-1.07c-.36,0-.72-.02-1.02,.02-.63,.08-1.21,.42-1.6,.92-.39,.5-.6,1.13-.54,1.77,.08,.65,.21,1.39,.31,2.09l1.3,8.46,5.18,33.82-.16-.14,29.39,.12Z"/>
        </g>
        <polygon class="cls-11" points="245.66 580.87 243.49 571.69 239.59 580.28 245.66 580.87"/>
        <polygon class="cls-27" points="244.1 574.07 243.46 571.34 242.3 573.9 244.1 574.07"/>
        <g class="cls-4">
          <path class="cls-21" d="M249.71,644.52h-29.43c21.44-8.73,33.55-47.44,33.55-47.44,1.7,0,3.02,1.48,2.81,3.17l-6.93,44.27Z"/>
        </g>
      </g>
      <path class="cls-27" d="M209.95,644.51s1.72-.13,4.74-.22c1.51-.06,3.34-.08,5.43-.11,2.1-.04,4.47-.02,7.05-.04,10.33-.03,24.11-.08,37.88-.12,13.78,.02,27.55,.03,37.88,.05,5.17,.02,9.47-.03,12.48,.09,3.01,.13,4.74,.35,4.74,.35,0,0-1.72,.23-4.74,.35-3.01,.12-7.32,.07-12.48,.09-10.33,.01-24.11,.03-37.88,.05-13.78-.04-27.55-.09-37.88-.12-2.58-.02-4.95,0-7.05-.04-2.1-.03-3.93-.05-5.43-.11-3.01-.08-4.74-.22-4.74-.22Z"/>
      <g>
        <polyline class="cls-17" points="298.76 644.13 298.76 566.99 310.58 566.99 310.58 644.13"/>
        <path class="cls-27" d="M298.72,644.13l-.17-9.64-.11-9.64c-.02-6.43-.09-12.86-.04-19.29,.02-6.43,.14-12.86,.2-19.29l.04-9.64-.05-9.64v-.18s.18,0,.18,0l11.82-.11h.29s0,.29,0,.29c.06,6.43,.12,12.86,.13,19.29l.03,9.64-.02,9.64c.01,6.43-.09,12.86-.14,19.29l-.09,9.64-.16,9.64s-.02,.04-.04,.04c-.02,0-.04-.02-.04-.04l-.16-9.64-.09-9.64c-.05-6.43-.16-12.86-.14-19.29l-.02-9.64,.03-9.64c.02-6.43,.07-12.86,.13-19.29l.29,.29-11.82-.11,.18-.18-.05,9.64,.04,9.64c.06,6.43,.18,12.86,.2,19.29,.05,6.43-.03,12.86-.04,19.29l-.11,9.64-.17,9.64s-.02,.04-.04,.04c-.02,0-.04-.02-.04-.04Z"/>
      </g>
      <g>
        <polyline class="cls-17" points="279.91 644.13 279.91 587.49 292.33 587.49 292.33 644.13"/>
        <path class="cls-27" d="M279.86,644.13c-.15-4.72-.21-9.44-.28-14.16-.02-4.72-.09-9.44-.05-14.16,0-4.72,.12-9.44,.18-14.16l.05-7.08-.03-7.08v-.16s.16,0,.16,0l12.43-.17h.32s0,.32,0,.32l.11,14.16,.02,7.08-.02,7.08c0,4.72-.08,9.44-.12,14.16-.07,4.72-.15,9.44-.28,14.16,0,.02-.02,.04-.04,.04-.02,0-.04-.02-.04-.04-.12-4.72-.21-9.44-.28-14.16-.04-4.72-.12-9.44-.12-14.16l-.02-7.08,.02-7.08,.11-14.16,.32,.32-12.43-.17,.16-.16-.03,7.08,.05,7.08c.06,4.72,.18,9.44,.18,14.16,.04,4.72-.04,9.44-.05,14.16-.07,4.72-.13,9.44-.28,14.16,0,.02-.02,.04-.04,.04-.02,0-.04-.02-.04-.04Z"/>
      </g>
      <g>
        <polyline class="cls-17" points="261.67 644.13 261.67 625.13 274.09 625.13 274.09 644.13"/>
        <path class="cls-27" d="M261.63,644.13c-.12-1.58-.19-3.17-.24-4.75-.07-1.58-.06-3.17-.09-4.75-.06-3.17,.19-6.33,.24-9.5v-.14s.14,0,.14,0c1.03,.02,2.07,0,3.1-.01,1.03,0,2.07-.06,3.1-.08,2.07-.08,4.14-.14,6.21-.17h.4s0,.4,0,.4c.02,1.58,.05,3.17,.06,4.75,0,1.58-.01,3.17-.04,4.75-.05,1.58-.06,3.17-.13,4.75-.06,1.58-.13,3.17-.24,4.75,0,.02-.02,.04-.05,.04-.02,0-.04-.02-.04-.04-.11-1.58-.18-3.17-.24-4.75-.07-1.58-.09-3.17-.13-4.75-.03-1.58-.05-3.17-.04-4.75,0-1.58,.04-3.17,.06-4.75l.4,.4c-2.07-.03-4.14-.09-6.21-.17-1.03-.03-2.07-.08-3.1-.08-1.03-.01-2.07-.03-3.1-.01l.14-.14c.05,3.17,.3,6.33,.24,9.5-.03,1.58-.03,3.17-.09,4.75-.05,1.58-.12,3.17-.24,4.75,0,.02-.02,.04-.05,.04-.02,0-.04-.02-.04-.04Z"/>
      </g>
      <g>
        <path class="cls-27" d="M244.91,637.64s-.01,.22-.04,.63c-.07,.5-.18,1.19-.55,1.97-.37,.78-1,1.64-1.92,2.36-.92,.72-2.15,1.27-3.54,1.43-.72,.08-1.39,.05-2.09,.06-.7,0-1.43,0-2.18,0-.38,0-.77,0-1.16,0-.37,0-.8-.05-1.23-.13-.83-.17-1.64-.51-2.37-1.01-1.46-.99-2.55-2.65-2.8-4.52-.11-.97-.05-1.77-.08-2.66,0-.88-.01-1.76-.02-2.64,0-1.86,.89-3.8,2.33-4.99,.72-.61,1.56-1.05,2.44-1.3,.87-.27,1.84-.27,2.62-.25,.82,0,1.62,0,2.4,.01,.78,.01,1.54-.05,2.37,.09,1.62,.28,3.01,1.09,3.96,2.16,.98,1.06,1.52,2.34,1.69,3.51,.04,.29,.06,.59,.08,.85,0,.25,.02,.49,.03,.72,.01,.46,.03,.88,.04,1.26,.03,1.52,.02,2.39,.02,2.39v.04Zm-1.72-.04s0-.87,.02-2.39c.01-.38,.02-.8,.04-1.26,0-.23,.02-.47,.03-.72,0-.23,0-.45,0-.68-.07-.93-.39-1.99-1.12-2.92-.72-.93-1.89-1.69-3.22-1.91-.65-.12-1.44-.08-2.22-.09-.79,0-1.59,0-2.4,.01-.85,0-1.56,.02-2.31,.26-.73,.22-1.42,.61-2,1.13-1.16,1.04-1.89,2.53-1.88,4.17,0,.86-.01,1.72-.02,2.58,0,.85-.05,1.78,.03,2.52,.16,1.55,1.02,2.98,2.24,3.86,.61,.44,1.3,.75,2,.91,.34,.07,.68,.13,1.08,.14,.34,.02,.75,0,1.11,0,.75,0,1.48,0,2.18,0,.71,0,1.4,.02,1.98-.06,1.2-.17,2.2-.77,2.85-1.46,.67-.69,1.06-1.42,1.27-2.05,.23-.63,.27-1.15,.32-1.45,.01-.41,.02-.62,.02-.62v.04Z"/>
        <path class="cls-27" d="M267.41,637.64s-.01,.22-.04,.63c-.07,.5-.18,1.19-.55,1.97-.37,.78-1,1.64-1.92,2.36-.92,.72-2.15,1.27-3.54,1.43-.72,.08-1.39,.05-2.09,.06-.7,0-1.43,0-2.18,0-.38,0-.77,0-1.16,0-.37,0-.8-.05-1.23-.13-.83-.17-1.64-.51-2.37-1.01-1.46-.99-2.55-2.65-2.8-4.52-.11-.97-.05-1.77-.08-2.66,0-.88-.01-1.76-.02-2.64,0-1.86,.89-3.8,2.33-4.99,.72-.61,1.56-1.05,2.44-1.3,.87-.27,1.84-.27,2.62-.25,.82,0,1.62,0,2.4,.01,.78,.01,1.54-.05,2.37,.09,1.62,.28,3.01,1.09,3.96,2.16,.98,1.06,1.52,2.34,1.69,3.51,.04,.29,.06,.59,.08,.85,0,.25,.02,.49,.03,.72,.01,.46,.03,.88,.04,1.26,.03,1.52,.02,2.39,.02,2.39v.04Zm-1.72-.04s0-.87,.02-2.39c.01-.38,.02-.8,.04-1.26,0-.23,.02-.47,.03-.72,0-.23,0-.45,0-.68-.07-.93-.39-1.99-1.12-2.92-.72-.93-1.89-1.69-3.22-1.91-.65-.12-1.44-.08-2.22-.09-.79,0-1.59,0-2.4,.01-.85,0-1.56,.02-2.31,.26-.73,.22-1.42,.61-2,1.13-1.16,1.04-1.89,2.53-1.88,4.17,0,.86-.01,1.72-.02,2.58,0,.85-.05,1.78,.03,2.52,.16,1.55,1.02,2.98,2.24,3.86,.61,.44,1.3,.75,2,.91,.34,.07,.68,.13,1.08,.14,.34,.02,.75,0,1.11,0,.75,0,1.48,0,2.18,0,.71,0,1.4,.02,1.98-.06,1.2-.17,2.2-.77,2.85-1.46,.67-.69,1.06-1.42,1.27-2.05,.23-.63,.27-1.15,.32-1.45,.01-.41,.02-.62,.02-.62v.04Z"/>
        <path class="cls-27" d="M249.23,634.08h-4.39c-.55,0-1-.45-1-1s.45-1,1-1h4.39c.55,0,1,.45,1,1s-.45,1-1,1Z"/>
        <path class="cls-27" d="M266.75,630.57s1.49,.52,3.73,1.31c2.23,.8,5.2,1.87,8.14,3.04,.74,.29,1.47,.59,2.19,.9,.72,.31,1.42,.62,2.09,.98,.34,.18,.65,.39,.94,.61,.3,.24,.56,.5,.78,.77,.45,.55,.73,1.17,.88,1.75,.3,1.18,.16,2.2,.04,2.87-.13,.68-.27,1.05-.27,1.05,0,0,.11-.38,.19-1.06,.08-.67,.14-1.68-.23-2.78-.18-.54-.49-1.1-.93-1.57-.22-.24-.47-.46-.74-.64-.12-.1-.3-.18-.45-.28-.16-.1-.3-.15-.47-.23-1.32-.59-2.83-1.07-4.32-1.56-2.99-.96-6.02-1.83-8.29-2.47-2.27-.63-3.79-1.05-3.79-1.05h-.01c-.46-.13-.73-.6-.6-1.06s.6-.73,1.06-.6c.02,0,.04,.01,.06,.02Z"/>
      </g>
    </g>
    <g>
      <g>
        <polygon class="cls-7" points="153.49 439.96 162.33 513.6 138.88 513.6 153.49 439.96"/>
        <path class="cls-27" d="M162.33,514.03h-23.45c-.13,0-.25-.06-.33-.16-.08-.1-.11-.23-.09-.36l14.61-73.63c.04-.21,.24-.33,.44-.35,.21,0,.39,.17,.41,.38l8.84,73.63c.01,.12-.02,.24-.11,.34-.08,.09-.2,.14-.32,.14Zm-22.93-.86h22.44l-8.46-70.47-13.98,70.47Z"/>
      </g>
      <path class="cls-27" d="M55.22,514.38c16.17-.72,40.76-.29,57.18-.49,9.41,.01,33.77,.04,42.88,.05,4.76,.03,9.53-.1,14.29,.44-4.76,.53-9.53,.41-14.29,.44-9,.01-33.55,.04-42.88,.05-16.48-.2-40.91,.23-57.18-.49h0Z"/>
      <g>
        <path class="cls-11" d="M141.26,513.79h-61.92c-4.53,0-8.12-4.69-7.84-10.24l5.88-63.44c.11-1.17,.99-2.06,2.05-2.06l71.52-.22c1.39,0,2.49,1.29,2.42,2.83l-3.11,62.73c-.28,5.72-4.33,10.4-9,10.4Z"/>
        <path class="cls-27" d="M141.26,513.84c-16.53,.02-39.12,.27-55.64,.33-1.56-.05-5.44,.09-6.99-.04-4.18-.45-6.94-4.51-7.39-8.44-.27-1.33,.07-3.34,.18-4.69,.29-2.87,1.07-10.86,1.38-13.85,1.14-10.88,2.53-26.19,3.5-36.93,0,0,.82-9.24,.82-9.24,0-1.2,.38-2.63,1.68-3.03,2.79-.3,39.11-.31,42.95-.43,6.07-.03,21.94-.13,27.82-.13,.63,.05,1.84-.13,2.47,.22,1.28,.54,1.93,2.02,1.78,3.31,0,0-.06,1.16-.06,1.16,0,0-.12,2.32-.12,2.32-.84,17.84-2.04,37.63-3.08,55.56-.11,1.31-.13,3.33-.32,4.63-.62,4.52-4.09,9.2-8.97,9.25h0Zm0-.09c4.82-.08,8.21-4.73,8.79-9.19,.19-1.52,.17-3.08,.26-4.62,.69-17.98,1.55-37.73,2.43-55.59,0,0,.11-2.32,.11-2.32-.02-.44,.17-1.72-.02-2.17-.17-.63-.6-1.19-1.18-1.43-.44-.22-1.58-.13-2.11-.14-16.71,.07-47.91,.01-64.92-.02-.65,.05-5.12-.11-5.72,.08-1.13,.38-1.39,1.59-1.41,2.66,0,0-.89,9.23-.89,9.23-1.13,10.67-2.37,26.1-3.35,36.94-.25,2.99-.95,10.95-1.19,13.86-.39,2.93-.34,6.2,1.34,8.75,1.65,2.74,4.44,3.92,7.57,3.61,0,0,4.64,.01,4.64,.01,16.52,.06,39.12,.31,55.64,.33h0Z"/>
      </g>
      <path class="cls-26" d="M101.73,494.2c-4.84,0-9.24-1.9-12.42-5.34-3.23-3.5-4.78-8.14-4.39-13.07,.77-9.61,9.27-17.43,18.93-17.43h6.85c1.19,0,2.15,.96,2.15,2.15s-.96,2.15-2.15,2.15h-6.85c-7.48,0-14.05,6.05-14.65,13.48-.3,3.72,.86,7.21,3.26,9.81,2.36,2.55,5.64,3.96,9.23,3.96,1.5,0,2.92-.89,3.64-2.27l13.02-27.03c.72-1.51,2.26-2.44,3.89-2.36,1.58,.07,2.9,1.03,3.46,2.51l11.43,30.47c.42,1.11-.15,2.35-1.26,2.76-1.11,.42-2.35-.15-2.77-1.26l-11.15-29.73-12.79,26.55c-1.49,2.84-4.4,4.64-7.45,4.64Z"/>
      <polygon class="cls-27" points="121.47 464.34 131.61 492.05 120.66 464.64 121.47 464.34 121.47 464.34"/>
      <g>
        <path class="cls-22" d="M118.77,492.29l-4.45-7.79s21.36-6.34,29.15-11.23c0,0-17.76,11.14-23.01,11.95l1.28,5.25-2.96,1.81Z"/>
        <path class="cls-27" d="M118.76,492.33c-1.5-2.42-3.51-5.58-4.94-8.02,4.47-1.41,10.74-3.48,15.27-4.93,4.9-1.68,9.83-3.59,14.21-6.36,0,0,.32,.51,.32,.51-5.48,3.54-11.06,6.9-16.93,9.75-2.01,.92-3.99,1.84-6.19,2.27,0,0,.27-.4,.27-.4l1.14,5.29s.03,.13,.03,.13c0,0-.11,.06-.11,.06l-3.07,1.7h0Zm.02-.08l2.86-1.92-.08,.2-1.43-5.22-.09-.32,.36-.08c4.08-1.1,7.89-3.44,11.64-5.42,3.79-2.08,7.54-4.26,11.26-6.46,0,0,.32,.51,.32,.51-2.28,1.34-4.7,2.33-7.11,3.34-4.84,1.95-9.67,3.95-14.62,5.62-2.47,.85-4.98,1.58-7.48,2.32l.19-.47c1.21,2.24,2.99,5.6,4.18,7.91h0Z"/>
      </g>
      <g>
        <g>
          <path class="cls-27" d="M55.78,502.92c-7.27,1.03-11.55-8.28-6.01-13.14,1.66-1.41,3.96-2.05,6.01-1.55v.09c-2.07,.01-4.03,.75-5.43,2.11-5.18,4.91-1.36,12.7,5.43,12.5h0Z"/>
          <path class="cls-17" d="M70.73,468.27c-3.66,2.08-2.75,5.28,.25,7.51,.69,.52,1.43,1.22,1.93,2.07,1.73,2.75-.33,6.35-3.46,6.55,0,0-.06-.16-.06-.16,.69-.54,1.29-1.09,1.71-1.7,1.26-1.89,.71-4.09-1.01-5.72-.65-.62-1.24-1.3-1.72-2.08-1.02-1.5-1.28-3.83,.11-5.19,.62-.67,1.4-1.09,2.18-1.43l.08,.15h0Z"/>
          <g class="cls-4">
            <path class="cls-21" d="M79.68,514.29h-4.66c15.33-4.45,10.42-25.39,10.42-25.39,.4,0,4.28,.18,6.89,.3,1.34,.06,2.39,1.17,2.39,2.51v7.53c0,8.31-6.74,15.05-15.05,15.05Z"/>
          </g>
          <g>
            <path class="cls-17" d="M70.19,514.29h1.52c9.18,0,16.62-7.44,16.62-16.62v-8.24c0-.67-.54-1.21-1.21-1.21H54.78c-.67,0-1.21,.54-1.21,1.21v8.24c0,9.18,7.44,16.62,16.62,16.62Z"/>
            <path class="cls-27" d="M70.19,514.25c10.92,.54,18.57-8.2,17.71-18.87,0-1.52,0-4.31,0-5.82,.05-.54-.32-.92-.82-.92,0,0-.42,0-.42,0-8.94-.03-22.64-.13-31.57-.16-.81-.1-1.36,.41-1.27,1.23,0,0,0,.83,0,.83,.11,3.86-.55,9.48,1.04,13.09,2.29,6.27,8.65,10.71,15.34,10.61h0Zm0,.09c-6.73,.07-13.19-4.31-15.62-10.59-1.68-3.62-1.13-9.31-1.25-13.2,.04-.54-.12-1.22,.14-1.75,.15-.3,.4-.55,.7-.69,.31-.15,.67-.14,.92-.14l3.32-.02,13.29-.06c.79-.01,14.77-.09,14.95-.08,0,0,.42,0,.42,0,.93-.06,1.78,.88,1.68,1.77,0,1.49,0,4.3,0,5.82,.9,10.97-7.55,19.71-18.57,18.95h0Z"/>
          </g>
        </g>
        <path class="cls-11" d="M55.27,489.68s-1.33,12.9,3.16,18.14c1.42,1.66,2.97,2.32,3.91,2.96,.48,.33,1.05-.26,.72-.73-2.35-3.32-6.15-10.44-4.74-20.37"/>
      </g>
    </g>
  </g>
  <g id="Layer_4" data-name="Layer 4">
    <g>
      <g>
        <g>
          <path class="cls-11" d="M451.55,588.01v49.48c0,3.98-3.22,7.2-7.2,7.2h-50.93c-3.98,0-7.2-3.22-7.2-7.2v-63.75c0-3.98,3.22-7.2,7.2-7.2h35.13"/>
          <path class="cls-23" d="M451.59,588.01c.25,14.03,.29,29.61,.34,43.73-.02,1.14,.02,4.35,0,5.47,.18,3.89-2.97,7.54-6.88,7.8-7.43,.03-19.81-.15-27.36-.16-4.86-.03-9.72-.01-14.58,.02,0,0-7.29,.03-7.29,.03-2.42,.09-5.11,.08-7.06-1.62-2.01-1.56-2.97-4.16-2.81-6.65,0,0-.05-7.29-.05-7.29l-.08-14.58c0-5.31-.06-31.69-.04-36.44,0,0,0-3.64,0-3.64-.02-1.24,.05-2.58,.54-3.74,.94-2.4,3.19-4.22,5.72-4.65,2.18-.26,5.16-.03,7.35-.08,9.66,.15,19.66-.03,29.15,.37-9.72,.16-19.43,.21-29.15,.29,0,0-3.64,.03-3.64,.03-2.38-.05-4.79-.05-6.65,1.59-1.83,1.5-2.62,3.87-2.45,6.18,0,0,0,3.64,0,3.64,0,0,0,7.29,0,7.29-.01,9.69-.05,34.37-.13,43.73,0,0-.05,7.29-.05,7.29-.04,1.21,.03,2.36,.49,3.48,1.53,3.79,5.08,4.66,8.84,4.39,0,0,7.29,.03,7.29,.03,4.86,.03,9.72,.05,14.58,.02,7.54-.07,19.87-.07,27.3-.22,3.54-.3,6.39-3.57,6.19-7.12-.02-1.11,0-4.3,0-5.47,.09-14.08-.03-29.89,.42-43.73h0Z"/>
        </g>
        <g class="cls-34">
          <g class="cls-33">
            <rect class="cls-15" x="400.31" y="572.14" width="18.3" height="18.06" transform="translate(-1.82 1.29) rotate(-.18)"/>
          </g>
        </g>
        <g class="cls-32">
          <g class="cls-38">
            <rect class="cls-30" x="403.85" y="572.82" width="19.23" height="25.87" transform="translate(-1.83 1.3) rotate(-.18)"/>
          </g>
        </g>
        <g class="cls-37">
          <g class="cls-35">
            <rect class="cls-24" x="403.5" y="577.36" width="24.91" height="23.71" transform="translate(-1.85 1.31) rotate(-.18)"/>
          </g>
        </g>
        <g class="cls-36">
          <g class="cls-39">
            <rect class="cls-30" x="395.21" y="572.84" width="19.23" height="25.87" transform="translate(-1.83 1.27) rotate(-.18)"/>
          </g>
        </g>
        <g class="cls-57">
          <g class="cls-62">
            <rect class="cls-24" x="389.9" y="577.4" width="24.91" height="23.71" transform="translate(-1.85 1.26) rotate(-.18)"/>
          </g>
        </g>
        <g class="cls-56">
          <g class="cls-55">
            <rect class="cls-27" x="387.62" y="599.32" width="18.93" height="20.65" transform="translate(-1.91 1.25) rotate(-.18)"/>
          </g>
        </g>
        <g class="cls-54">
          <g class="cls-58">
            <rect class="cls-27" x="394.52" y="599.16" width="21.22" height="20.86" transform="translate(-1.91 1.27) rotate(-.18)"/>
          </g>
        </g>
        <g class="cls-60">
          <g class="cls-59">
            <rect class="cls-27" x="404.34" y="599.26" width="19.44" height="20.65" transform="translate(-1.91 1.3) rotate(-.18)"/>
          </g>
        </g>
        <g class="cls-63">
          <g class="cls-61">
            <rect class="cls-27" x="412.39" y="599.19" width="20.73" height="20.7" transform="translate(-1.91 1.33) rotate(-.18)"/>
          </g>
        </g>
        <g class="cls-40">
          <g class="cls-41">
            <rect class="cls-27" x="421.63" y="602.81" width="16.48" height="14.35" transform="translate(-1.91 1.35) rotate(-.18)"/>
          </g>
        </g>
        <g class="cls-44">
          <g class="cls-43">
            <rect class="cls-27" x="425.61" y="599.1" width="16.08" height="20.75" transform="translate(-1.91 1.36) rotate(-.18)"/>
          </g>
        </g>
        <g class="cls-42">
          <g class="cls-45">
            <rect class="cls-27" x="430.32" y="599.05" width="19.08" height="20.86" transform="translate(-1.91 1.39) rotate(-.18)"/>
          </g>
        </g>
        <g class="cls-48">
          <g class="cls-46">
            <rect class="cls-27" x="389.83" y="617.63" width="53.78" height="12.33" transform="translate(-1.95 1.31) rotate(-.18)"/>
          </g>
        </g>
        <g class="cls-47">
          <g class="cls-49">
            <rect class="cls-27" x="389.85" y="623.53" width="41.61" height="12.33" transform="translate(-1.97 1.29) rotate(-.18)"/>
          </g>
        </g>
      </g>
      <g>
        <polygon class="cls-6" points="451.25 550.58 431.27 574.9 442.83 574.9 436.81 592.33 456.79 568.01 445.22 568.01 451.25 550.58"/>
        <path class="cls-23" d="M451.23,550.62c-4.42,5.48-10.36,13.03-14.76,18.52-1.62,2.01-3.28,3.99-4.94,5.98,0,0-.27-.57-.27-.57l11.57,.18c.09,0,.17,.07,.17,.17-2.05,5.82-4.06,11.65-5.97,17.51,0,0-.4-.23-.4-.23,6.53-8.21,13.14-16.37,19.82-24.45,0,0,.34,.72,.34,.72-3.86,0-7.72-.03-11.57-.07-.25,0-.43-.26-.34-.49,2.04-5.79,4.3-11.42,6.35-17.28h0Zm.04-.07c-1.96,5.77-3.71,11.76-5.7,17.59,0,0-.35-.49-.35-.49,3.86-.05,7.71-.08,11.57-.07,.24,0,.44,.2,.44,.44-6.43,8.34-13.48,16.35-20.25,24.47-.16,.19-.49,0-.4-.23,1.04-2.89,2.09-5.78,3.1-8.69,1.03-2.9,2-5.81,2.99-8.72l.16,.22-11.57,.18c-.19,0-.35-.15-.35-.34,1.51-2.22,3.45-4.26,5.14-6.41,4.5-5.35,10.73-12.61,15.22-17.96h0Z"/>
      </g>
    </g>
    <g>
      <g>
        <rect class="cls-6" x="75.18" y="575.47" width="47.99" height="63.19" rx="4.79" ry="4.79" transform="translate(-283.63 125.58) rotate(-29.21)"/>
        <path class="cls-23" d="M131.38,625.31c-5.82,3.26-17.47,9.93-23.25,13.26-2.66,1.52-7.55,4.33-10.18,5.8-2.78,1.58-6.25,.06-7.4-2.81,0,0-3.25-5.85-3.25-5.85-7.23-13.2-14.43-26.43-21.88-39.51-1.78-2.38-1.24-6.08,1.47-7.54,0,0,23.28-13.21,23.28-13.21,1.9-1.06,6.9-3.89,8.74-4.93,0,0,1.46-.82,1.46-.82,2.15-1.22,5.1-.63,6.6,1.35,5.85,10.09,11.49,20.55,17.09,30.77,0,0,6.39,11.76,6.39,11.76,.47,.9,1.94,3.51,2.42,4.4,1.71,2.34,1.17,5.94-1.48,7.33h0Zm-.04-.07c2.57-1.4,3.09-4.89,1.38-7.18-.51-.88-1.94-3.44-2.48-4.36,0,0-6.67-11.6-6.67-11.6-5.85-10.02-11.48-20.44-17.31-30.49-1.24-1.63-3.67-2.14-5.46-1.14,0,0-1.46,.81-1.46,.81-1.83,1.02-6.88,3.81-8.78,4.87,0,0-23.44,12.91-23.44,12.91-2.52,1.34-3.04,4.72-1.4,6.96,7.24,13.19,14.74,26.26,22.2,39.33,0,0,3.28,5.83,3.28,5.83,1.01,2.49,3.97,3.88,6.4,2.53,2.61-1.45,7.59-4.17,10.26-5.63,5.86-3.18,17.65-9.61,23.47-12.86h0Z"/>
      </g>
      <g>
        <rect class="cls-16" x="83.06" y="567.65" width="54.78" height="72.14" rx="5.47" ry="5.47" transform="translate(-125.35 37.09) rotate(-12.23)"/>
        <path class="cls-23" d="M139.53,634.38c-7.45,1.61-22.39,5-29.82,6.69-3.41,.77-9.69,2.19-13.05,2.92-3.57,.77-6.75-1.98-7.08-5.49,0,0-1.6-7.47-1.6-7.47-3.51-16.82-6.98-33.67-10.76-50.43-1.12-3.22,.66-7,4.12-7.71,0,0,29.83-6.64,29.83-6.64,2.43-.53,8.83-1.95,11.19-2.46,0,0,1.87-.41,1.87-.41,2.73-.6,5.72,1.01,6.68,3.64,3.03,12.96,5.69,26.26,8.42,39.28,0,0,3.08,14.97,3.08,14.97,.22,1.15,.95,4.48,1.18,5.61,1.07,3.15-.67,6.83-4.05,7.5h0Zm-.02-.08c3.28-.67,5.02-4.32,3.91-7.38-.26-1.13-.97-4.41-1.25-5.59,0,0-3.4-14.9-3.4-14.9-3.03-12.9-5.7-26.16-8.71-39.07-.83-2.22-3.34-3.6-5.66-3.1,0,0-1.86,.39-1.86,.39-2.33,.5-8.78,1.87-11.21,2.39,0,0-29.9,6.31-29.9,6.31-3.21,.63-4.9,4.17-3.84,7.17,3.5,16.82,7.31,33.6,11.08,50.36,0,0,1.64,7.46,1.64,7.46,.27,3.08,3.08,5.62,6.21,4.94,3.34-.71,9.67-2.03,13.08-2.73,7.46-1.53,22.47-4.64,29.91-6.25h0Z"/>
      </g>
      <g>
        <rect class="cls-11" x="81.61" y="578.42" width="75.29" height="57.17" rx="5.71" ry="5.71" transform="translate(-488.45 722.65) rotate(-89.66)"/>
        <path class="cls-23" d="M141.9,644.83c-7.95-.05-23.94,0-31.89,.04-3.64,0-10.36,.03-13.96,0-3.8-.02-6.41-3.54-5.95-7.19,0,0,.07-7.97,.07-7.97,.24-17.93,.52-35.88,.48-53.81-.41-3.53,2.26-6.97,5.94-6.91,0,0,31.89,.02,31.89,.02,2.6,.02,9.44,.02,11.96,.04,0,0,2,.01,2,.01,2.91,0,5.57,2.32,5.96,5.21,.14,13.89-.16,28.04-.34,41.92-.05,2.86-.28,17.37-.31,19.93,0,0-.02,1.99-.02,1.99,.38,3.46-2.23,6.8-5.83,6.72h0Zm0-.09c3.53,.04,6.07-3.22,5.66-6.63-.01-1.21,.01-4.71,0-5.98,0,0-.07-15.95-.07-15.95-.15-13.83,.14-27.94,0-41.78-.34-2.46-2.6-4.44-5.08-4.46,0,0-1.99-.02-1.99-.02-2.49-.02-9.37-.08-11.96-.1,0,0-31.89-.36-31.89-.36-3.45-.06-5.92,3.1-5.55,6.44-.25,17.93-.18,35.88-.16,53.81,0,0-.03,7.97-.03,7.97-.4,3.23,1.83,6.42,5.22,6.46,3.56,.04,10.31,.13,13.95,.18,7.94,.13,23.94,.37,31.89,.42h0Z"/>
      </g>
      <g>
        <path class="cls-29" d="M104.79,583.85v8.44h-1.53v-8.44h1.53Z"/>
        <path class="cls-29" d="M112.74,583.85v1.25h-6.77v-1.25h6.77Zm-2.62,0v8.44h-1.53v-8.44h1.53Z"/>
        <path class="cls-29" d="M117.03,583.74c.7,0,1.27,.07,1.71,.22s.75,.4,.95,.75c.2,.35,.3,.85,.3,1.5,0,.42-.05,.79-.15,1.08-.1,.3-.27,.53-.5,.71-.23,.18-.54,.29-.94,.34v.06c.14,.03,.28,.1,.43,.19,.15,.09,.29,.23,.42,.4,.13,.17,.22,.39,.29,.66l.77,2.64h-1.62l-.7-2.61c-.09-.29-.21-.5-.37-.62-.15-.12-.37-.18-.64-.18-.53,0-.98,0-1.36,0-.38,0-.69-.01-.94-.02-.25,0-.47-.01-.65-.01l.04-1.16h2.91c.37,0,.66-.05,.87-.13,.21-.08,.36-.22,.45-.42s.13-.48,.13-.85-.04-.64-.13-.83c-.09-.2-.24-.33-.45-.41-.21-.08-.5-.12-.87-.12-.72,0-1.33,0-1.85,.01-.51,0-.86,.02-1.05,.02l-.17-1.13c.33-.03,.63-.06,.92-.07,.29-.02,.61-.03,.95-.03s.75,0,1.24,0Zm-1.6,.11v8.44h-1.5v-8.44h1.5Z"/>
        <path class="cls-29" d="M125.22,588.68v1h-3.68v-1h3.68Z"/>
        <path class="cls-29" d="M133.26,583.85l-2.41,8.01c-.04,.12-.11,.22-.21,.31s-.22,.12-.35,.12h-1.44c-.14,0-.26-.04-.35-.12-.1-.08-.16-.18-.2-.31l-2.41-8.01h1.58l1.73,6.35c.04,.16,.08,.31,.12,.46,.04,.16,.07,.31,.1,.46h.32c.04-.15,.08-.31,.12-.47,.04-.16,.08-.32,.12-.47l1.72-6.34h1.58Z"/>
      </g>
      <g class="cls-52">
        <g class="cls-53">
          <rect class="cls-27" x="97.08" y="602.57" width="51.13" height="11.72" transform="translate(-1.91 .39) rotate(-.18)"/>
        </g>
      </g>
      <g class="cls-51">
        <g class="cls-50">
          <rect class="cls-27" x="97.09" y="608.18" width="39.56" height="11.72" transform="translate(-1.93 .37) rotate(-.18)"/>
        </g>
      </g>
    </g>
    <g>
      <path class="cls-16" d="M298.48,442.99c-.02-1.17,.75-1.85,1.72-1.8,.97,.02,1.77,.98,1.8,1.72,.02,1.17-.75,1.85-1.72,1.8-.97-.02-1.77-.98-1.8-1.72Zm.58-.27c.02,.62,.55,1.28,1.2,1.41,.65,.14,1.16-.28,1.15-.96-.01-.62-.55-1.28-1.2-1.41-.65-.14-1.16,.28-1.15,.96Z"/>
      <path class="cls-25" d="M304.81,453.52c.44,.05,.67,.37,.73,.88,.15,1.17,.18,1.41,1.29,1.49,.45-.02,.79-.1,.78,.36,0,.47-.31,.99-.8,1.1-1.01,.13-1.05,0-1.19,.91-.06,.35-.3,.57-.73,.58-.43,0-.66-.3-.71-.83-.09-.86-.33-1.23-1.06-1.24-.47,.02-.8,.05-.82-.41-.03-.47,.33-.93,.75-1.08,.85-.24,1.03-.27,1.04-1.07,0-.41,.21-.61,.72-.68Z"/>
      <path class="cls-8" d="M224.41,456.44c1.06-.03,1.82,.88,1.83,1.96-.19,1.19-.57,1.81-1.92,2.01-1.06,.03-1.82-.88-1.83-1.96,.19-1.19,.57-1.81,1.92-2.01Zm.14,.56c-.69,0-1.23,.59-1.36,1.39-.1,.78,.33,1.44,.98,1.45,.69,0,1.23-.59,1.36-1.39,.1-.78-.33-1.44-.98-1.45Z"/>
      <path class="cls-6" d="M229.71,441.23c.26,.29,.3,.6,.15,.97-.36,.83-.35,.97,.31,1.32,.27,.08,.41,.26,.21,.65-.2,.36-.5,.39-.83,.24-.69-.34-.73-.51-1.24,.08-.22,.26-.48,.38-.76,.14-.28-.24-.32-.53-.17-.9,.26-.61,.2-.91-.26-1.11-.29-.07-.41-.25-.23-.68,.19-.4,.49-.39,.79-.28,.62,.25,.82,.39,1.2-.18,.21-.31,.46-.48,.81-.25Z"/>
      <g>
        <path class="cls-29" d="M297.8,463.43c-21.75,6.32-44.84,6.32-66.59,0,0-4.53,0-9.06,0-13.59,21.75,6.32,44.84,6.32,66.59,0v13.59Z"/>
        <path class="cls-23" d="M264.51,468.61c-11.24,0-22.48-1.59-33.41-4.76l-.31-.09v-14.49l.55,.16c21.7,6.3,44.64,6.3,66.35,0l.55-.16v14.49l-.31,.09c-10.93,3.18-22.17,4.76-33.41,4.76Zm-32.86-5.5c21.51,6.19,44.22,6.19,65.73,0v-12.7c-21.51,6.14-44.21,6.14-65.73,0v12.7Z"/>
      </g>
      <g>
        <path class="cls-20" d="M259.03,432.83c-11.61,7.51-24.01,5.94-24.01,5.94v46.28c0,3.3,1.48,6.86,4.4,10.59,2.59,3.3,6.26,6.68,10.9,10.05,5.8,4.19,11.7,7.31,14.57,8.73,2.87-1.42,8.78-4.54,14.58-8.73,4.65-3.37,8.31-6.75,10.9-10.05,2.93-3.74,4.41-7.29,4.41-10.59v-46.28s-12.36,1.64-24.03-5.94c-3.55-2.3-8.16-2.3-11.71,0Z"/>
        <path class="cls-23" d="M259.08,432.9c-7.11,4.53-15.68,6.78-24.11,6.29,0,0,.47-.42,.47-.42,.4,15.44,.44,30.88,.15,46.32,.43,12.84,19.07,23.88,29.47,28.99,0,0-.34,0-.34,0,6.62-3.42,12.95-7.47,18.59-12.27,4.09-3.61,8.08-7.68,9.93-12.86,.62-1.67,.73-3.5,.67-5.26-.07-7.49-.04-14.97-.02-22.46-.03-5.59,.09-16.87,.18-22.46,0,0,.8,.7,.8,.7-3.25,.28-6.4-.01-9.53-.56-4.67-.87-9.19-2.51-13.23-5,0,0-1.99-1.25-1.99-1.25-3.34-2-7.76-1.89-11.03,.24h0Zm-.09-.14c4.19-2.8,9.37-2.03,13.33,.79,4.07,2.27,8.58,3.72,13.18,4.36,3.33,.46,6.71,.51,9.97,.08,0,0,.01,.79,.01,.79,0,0,.15,11.23,.15,11.23,0,10.9,.12,22.86,0,33.69,.04,1.94-.13,3.99-.82,5.8-4.55,11.64-19.03,19.93-29.75,25.28,0,0-.18,.09-.18,.09l-.16-.09c-10.37-5.54-29.57-16.72-30.27-29.67-.29-15.44-.25-30.89,.15-46.33,0,0,0-.47,0-.47,0,0,.46,.06,.46,.06,8.26,.84,16.9-1.1,23.91-5.6h0Z"/>
      </g>
      <path class="cls-11" d="M264.89,431.2v83.23c2.87-1.42,8.78-4.54,14.58-8.73,4.65-3.37,8.31-6.75,10.9-10.05,2.93-3.74,4.41-7.29,4.41-10.59v-46.28s-12.9,1.76-24.78-6.4c-1.34-.81-5.1-1.18-5.1-1.18Z"/>
      <g>
        <g>
          <polygon class="cls-26" points="264.93 473.75 268.14 480.25 275.31 481.29 270.12 486.35 271.35 493.5 264.93 490.13 258.51 493.5 259.74 486.35 254.55 481.29 261.72 480.25 264.93 473.75"/>
          <path class="cls-23" d="M264.93,473.67c1.08,2.04,2.36,4.15,3.59,6.4,0,0-.32-.23-.32-.23,1.22,.12,7.85,.76,8.92,.87,0,0-1.27,1.15-1.27,1.15l-5.37,4.88,.15-.46,.97,7.19,.07,.48-.44-.21-6.54-3.15h.48s-6.3,3.6-6.3,3.6l-1.39,.79c.17-.96,1.26-7.63,1.45-8.76,0,0,.23,.72,.23,.72l-5.22-5.03s-1.35-1.3-1.35-1.3c1.14-.1,7.76-.71,9.05-.83,0,0-.36,.26-.36,.26,1.25-2.26,2.55-4.35,3.63-6.38h0Zm0,.17c-1.1,2.39-1.94,4.66-2.87,6.83,0,0-.27,.05-.27,.05l-7.12,1.42,.48-1.47,5.16,5.09,.31,.3-.07,.42-1.27,7.14-1.12-.81,6.54-3.15,.26-.13,.22,.13,6.3,3.6-.37,.27-1.48-7.1-.05-.25,.2-.21,5.01-5.24s.43,1.32,.43,1.32l-7.12-1.38-.24-.05c-.95-2.16-1.81-4.42-2.91-6.79h0Z"/>
        </g>
        <polygon class="cls-16" points="264.93 476.37 267.58 481.73 273.5 482.59 269.22 486.77 270.23 492.67 264.93 489.88 259.63 492.67 260.65 486.77 256.36 482.59 262.28 481.73 264.93 476.37"/>
      </g>
      <g class="cls-64">
        <path class="cls-29" d="M231.21,463.43c22.69-2.73,43-3.37,66.59,0l-1.72-6.66-64.11-2.43-.75,9.09Z"/>
      </g>
      <g>
        <path class="cls-6" d="M297.8,463.43c-21.75-6.32-44.84-6.32-66.59,0,0-4.53,0-9.06,0-13.59,21.75-6.32,44.84-6.32,66.59,0v13.59Z"/>
        <path class="cls-23" d="M297.83,463.47c-10.8-2.81-22.16-4.45-33.32-4.39-11.27,0-22.6,1.32-33.43,4.54,0-4.59-.05-9.18-.1-13.78,0,0,0-.17,0-.17l.17-.05c21.6-6.58,45.13-6.62,66.72-.01,0,0,.18,.05,.18,.05v.18c.02,3.98-.19,9.6-.22,13.63h0Zm-.05-.07c-.13-3.98-.15-9.65-.22-13.56,0,0,.18,.24,.18,.24-16.2-4.5-33.32-5.67-49.98-3.4-5.56,.74-11.06,1.87-16.47,3.39,0,0,.17-.23,.17-.23-.05,4.53-.09,9.06-.1,13.59l-.18-.13c16.23-4.74,33.44-6.34,50.19-3.71,2.08,.32,6.25,1.12,8.3,1.58,2.03,.48,6.12,1.6,8.11,2.23h0Z"/>
      </g>
      <g>
        <path class="cls-29" d="M244.16,451.33c.23-.03,.47-.05,.73-.07,.26-.02,.51-.01,.75,.02l-.05,.59c-.19,.03-.42,.05-.68,.09-.26,.03-.5,.07-.74,.1-.15,.02-.27,.05-.37,.07-.1,.02-.18,.06-.25,.11-.06,.05-.11,.11-.14,.19-.03,.08-.04,.19-.04,.32,0,.21,.04,.35,.13,.42,.08,.07,.22,.12,.41,.14l.92,.13c.37,.06,.63,.18,.77,.38,.14,.2,.21,.47,.21,.84,0,.27-.03,.5-.1,.68-.06,.18-.16,.33-.29,.45s-.3,.21-.52,.29c-.21,.07-.47,.13-.77,.18-.15,.02-.37,.05-.64,.07-.27,.02-.58,.02-.92,0l.05-.63c.27-.03,.49-.06,.67-.08s.34-.04,.47-.06c.13-.02,.25-.04,.37-.06,.21-.03,.37-.07,.49-.12,.12-.05,.2-.12,.25-.21,.05-.09,.07-.22,.07-.39,0-.14-.02-.25-.05-.33-.03-.07-.09-.13-.17-.16-.08-.03-.18-.06-.3-.07l-.96-.15c-.35-.06-.6-.18-.74-.37-.14-.19-.21-.47-.21-.83,0-.27,.03-.5,.09-.68,.06-.18,.16-.33,.29-.44,.13-.11,.3-.2,.51-.26,.21-.07,.45-.12,.74-.17Z"/>
        <path class="cls-29" d="M249.16,453.43v.52s-1.54,.18-1.54,.18c-.14,.02-.23,.07-.29,.14-.06,.08-.09,.17-.09,.29v.19c0,.14,.04,.24,.11,.3,.07,.06,.19,.08,.34,.07,.12-.02,.26-.06,.41-.12,.15-.07,.3-.16,.45-.27,.15-.11,.28-.24,.4-.39v.43c-.05,.07-.11,.16-.2,.27s-.19,.21-.32,.32c-.12,.11-.27,.2-.43,.28-.16,.08-.34,.13-.54,.15-.2,.02-.38,.01-.54-.04s-.28-.14-.38-.27c-.09-.13-.14-.3-.14-.5v-.36c0-.27,.09-.48,.26-.65,.18-.17,.42-.27,.72-.31l1.77-.21Zm-.89-1.28c.27-.03,.49-.02,.68,.03,.18,.05,.32,.15,.42,.31,.1,.16,.14,.39,.14,.68v2.29l-.66,.08-.12-.71-.06-.09v-1.47c0-.18-.04-.3-.12-.37s-.24-.09-.47-.06c-.17,.02-.39,.05-.65,.1-.26,.05-.52,.09-.79,.15l-.07-.56c.16-.05,.34-.1,.54-.15,.2-.05,.4-.09,.61-.13,.2-.04,.39-.07,.55-.09Z"/>
        <path class="cls-29" d="M252.51,451.81v.58l-2.42,.22v-.54l.62-.09,1.8-.17Zm-.77-1.5c.08,0,.18-.01,.3-.02,.13,0,.26-.01,.39-.02,.13,0,.24,0,.34,0l-.07,.56-.66,.06c-.19,.02-.33,.07-.4,.15-.08,.08-.12,.22-.12,.4v3.81l-.83,.08v-3.92c0-.22,.03-.4,.1-.56,.07-.16,.18-.28,.33-.38,.16-.1,.36-.16,.62-.18Z"/>
        <path class="cls-29" d="M254.56,451.58c.54-.04,.93,.03,1.17,.21,.24,.17,.36,.45,.36,.82,0,.31-.07,.54-.22,.71s-.39,.26-.74,.29l-1.92,.13v-.52l1.69-.11c.16-.01,.25-.06,.3-.14s.07-.19,.07-.31c0-.19-.06-.31-.16-.38s-.28-.09-.52-.07c-.22,.01-.38,.06-.5,.12-.12,.07-.2,.18-.25,.34-.05,.16-.07,.39-.07,.68,0,.31,.03,.55,.09,.72,.06,.17,.16,.27,.3,.33,.14,.05,.32,.07,.55,.06,.17-.01,.36-.03,.59-.06s.44-.06,.64-.1l.08,.52c-.12,.06-.27,.11-.43,.15-.16,.04-.33,.08-.5,.11-.17,.03-.33,.05-.48,.06-.41,.03-.74-.01-.99-.11-.25-.1-.43-.28-.54-.54-.11-.25-.17-.59-.17-1,0-.44,.06-.8,.17-1.07,.11-.27,.29-.46,.54-.59,.24-.13,.56-.2,.95-.23Z"/>
        <path class="cls-29" d="M260.25,449.95c.15,0,.32,0,.51,0,.19,0,.39,.02,.6,.05l-.1,.6c-.05,0-.12,0-.2,0h-.26c-.1,0-.19,0-.29,0-.1,0-.19,0-.29,0-.23,0-.42,.03-.55,.06s-.23,.11-.29,.21-.09,.26-.09,.46c0,.19,.02,.33,.07,.43,.05,.1,.12,.17,.24,.21s.26,.05,.45,.05l2.71-.07v.58s-2.75,.07-2.75,.07c-.21,0-.37,.03-.49,.08s-.21,.13-.26,.25c-.05,.11-.08,.28-.08,.49,0,.19,.02,.34,.07,.45,.04,.11,.12,.18,.23,.22,.11,.04,.26,.06,.45,.05,.28-.01,.54-.06,.76-.15,.22-.09,.42-.21,.58-.38l.1,.48c-.14,.18-.29,.32-.45,.43-.16,.11-.33,.18-.53,.23-.2,.05-.43,.08-.69,.08-.33,0-.61-.03-.81-.1-.21-.08-.36-.2-.46-.39-.1-.18-.14-.44-.14-.76,0-.36,.07-.65,.2-.87,.14-.22,.38-.35,.72-.39v-.03c-.28-.02-.49-.12-.61-.3-.12-.18-.18-.44-.18-.79,0-.27,.03-.49,.1-.66s.18-.29,.33-.38c.15-.09,.34-.15,.57-.18,.23-.03,.51-.05,.83-.06Zm1.72,1.23v2.54c0,.14,.03,.24,.09,.3s.16,.09,.29,.08h.46s.1,.56,.1,.56c-.07,.02-.16,.05-.26,.07s-.2,.04-.3,.05c-.1,0-.18,.02-.25,.02-.29,0-.51-.06-.67-.2-.16-.14-.23-.34-.23-.61v-1.72l.08-1.07,.7-.02Z"/>
        <path class="cls-29" d="M266.64,449.91c.23,0,.48,.03,.74,.05,.26,.03,.51,.07,.76,.14l-.06,.58c-.2,0-.42-.02-.68-.03-.26-.01-.51-.02-.74-.02-.15,0-.27,0-.37,0s-.19,.03-.25,.06c-.06,.04-.11,.09-.14,.17-.03,.08-.04,.18-.04,.31,0,.21,.04,.35,.13,.44,.08,.09,.22,.16,.42,.21l.93,.29c.38,.12,.63,.29,.78,.51,.14,.22,.21,.51,.21,.87,0,.27-.03,.49-.1,.67-.06,.17-.16,.31-.3,.4-.13,.09-.31,.16-.52,.2s-.47,.05-.78,.05c-.16,0-.37-.02-.64-.04s-.58-.07-.93-.15l.05-.62c.27,.01,.5,.03,.68,.03,.18,.01,.34,.02,.47,.02,.13,0,.26,0,.37,0,.21,0,.38,0,.49-.03,.12-.03,.2-.08,.25-.17,.05-.09,.07-.21,.07-.38,0-.14-.02-.25-.05-.33-.03-.08-.09-.15-.17-.19-.08-.05-.18-.09-.3-.12l-.97-.31c-.36-.12-.61-.28-.75-.5-.14-.22-.22-.51-.22-.87,0-.27,.03-.49,.1-.66,.06-.17,.16-.3,.3-.39s.3-.15,.51-.18c.21-.03,.46-.04,.75-.04Z"/>
        <path class="cls-29" d="M270.6,451.39c.55,.02,.94,.13,1.17,.33s.36,.49,.36,.86c0,.31-.07,.54-.22,.69-.15,.15-.4,.22-.74,.21l-1.92-.08v-.52l1.7,.07c.16,0,.26-.03,.3-.11,.04-.08,.07-.18,.07-.3,0-.19-.06-.32-.16-.4-.1-.08-.28-.12-.53-.13-.21,0-.38,.02-.5,.07-.12,.05-.2,.16-.25,.31s-.07,.38-.07,.67c0,.31,.03,.55,.09,.73s.16,.29,.3,.36c.14,.07,.32,.1,.55,.11,.17,0,.36,0,.59,0s.44-.02,.64-.03l.08,.53c-.12,.05-.27,.08-.43,.11-.16,.03-.33,.04-.5,.05-.17,0-.33,.01-.48,0-.41-.02-.74-.09-.99-.22-.25-.13-.43-.33-.54-.6-.11-.27-.17-.6-.17-1.02,0-.44,.06-.79,.17-1.05,.11-.26,.29-.43,.54-.53,.24-.1,.56-.14,.95-.13Z"/>
        <path class="cls-29" d="M274.39,451.59c.11,0,.24,.02,.38,.04,.14,.02,.28,.05,.42,.08s.27,.08,.38,.14l-.1,.52c-.17-.02-.34-.04-.5-.05s-.31-.03-.44-.03c-.23-.02-.42,0-.55,.06-.14,.05-.23,.16-.29,.31s-.09,.37-.09,.66,.03,.51,.09,.67,.16,.28,.29,.35c.14,.07,.32,.12,.55,.13,.07,0,.16,0,.27,.01,.11,0,.23,0,.36,0,.13,0,.26,0,.38-.01l.08,.54c-.18,.06-.38,.1-.6,.12-.22,.02-.44,.02-.65,0-.4-.02-.72-.1-.97-.23-.24-.13-.42-.33-.53-.59-.11-.27-.16-.62-.16-1.05s.06-.78,.16-1.03c.11-.25,.29-.43,.53-.52s.56-.13,.97-.11Z"/>
        <path class="cls-29" d="M277.11,451.87v2.28c0,.17,.03,.29,.1,.37,.07,.08,.19,.13,.35,.14,.16,.01,.32,0,.48-.06,.16-.06,.35-.14,.58-.26l.08,.5c-.26,.18-.5,.32-.74,.4-.24,.09-.48,.12-.74,.09-.63-.05-.94-.39-.94-1.01v-2.54l.83,.07Zm2.25,.19v3.37l-.66-.06-.09-.66-.08-.1v-2.62l.83,.07Z"/>
        <path class="cls-29" d="M280.94,452.22l.11,.67,.07,.1v2.62l-.83-.09v-3.37l.64,.07Zm1.64,.09l-.08,.76-.24-.03c-.18-.02-.36,0-.54,.03-.18,.04-.41,.1-.68,.19l-.05-.49c.24-.18,.48-.31,.72-.39,.25-.09,.48-.12,.71-.09l.16,.02Z"/>
        <path class="cls-29" d="M284.56,452.57c.54,.07,.93,.22,1.16,.44,.24,.22,.36,.52,.36,.89,0,.31-.07,.53-.21,.67s-.39,.19-.73,.14l-1.91-.25v-.52l1.68,.22c.15,.02,.25,0,.3-.08,.04-.08,.06-.17,.06-.29,0-.19-.06-.33-.16-.41-.1-.09-.28-.15-.52-.18-.21-.03-.38-.02-.5,.02-.12,.04-.2,.14-.25,.29-.05,.15-.07,.37-.07,.66,0,.31,.03,.56,.09,.73,.06,.18,.16,.31,.29,.39,.14,.08,.32,.14,.54,.17,.17,.02,.36,.04,.58,.06,.22,.02,.43,.03,.64,.03l.08,.54c-.12,.03-.26,.06-.42,.07-.16,.01-.32,.01-.49,0-.17,0-.33-.02-.48-.04-.41-.05-.74-.16-.98-.31s-.43-.37-.54-.65c-.11-.28-.17-.62-.17-1.03,0-.44,.06-.79,.17-1.03,.11-.24,.29-.41,.53-.48,.24-.08,.56-.09,.94-.04Z"/>
      </g>
    </g>
    <g>
      <g>
        <rect class="cls-11" x="380.55" y="495.5" width="71.67" height="18.37" rx="7.74" ry="7.74"/>
        <g>
          <path class="cls-16" d="M443.04,495.5c5.05,0,9.19,4.13,9.19,9.19,0,2.53-1.04,4.82-2.7,6.49s-3.96,2.7-6.49,2.7h-9.55c6.28-8.43,0-18.37,0-18.37h9.55Z"/>
          <path class="cls-16" d="M393.31,495.5h16.41s-2.74,10.16,0,18.37h-16.41c-7.84-9.63,0-18.37,0-18.37Z"/>
        </g>
        <path class="cls-28" d="M433.49,495.46c3.43,0,6.84-.06,10.27-.03,3.48,.19,6.74,2.53,8.07,5.81,2.23,5.02-.95,11.36-6.27,12.67-1.44,.48-3.69,.3-5.2,.32-17.13-.31-34.22-.19-51.36-.06-10.67-.93-12.09-15.78-1.8-18.77,1.46-.48,3.7-.31,5.22-.34,13.69-.05,27.38,.36,41.07,.4h0Zm0,.09c-13.69,.04-27.38,.45-41.07,.4-1.4,.05-3.64-.14-4.98,.32-9.41,2.82-8.14,16.16,1.61,17.24,17.94,.36,35.93,.2,53.88,0,11.38-.37,12.16-16.37,.83-17.86-3.4-.12-6.84-.06-10.26-.11h0Z"/>
        <path class="cls-28" d="M393.63,495.79c-3.83,4.32-4.8,11.01-1.71,16.01,.41,.72,.93,1.38,1.39,2.08-.49-.67-1.04-1.31-1.48-2.02-3.42-5.06-2.64-11.97,1.16-16.64,.38-.46,1.06,.14,.64,.57h0Z"/>
        <path class="cls-28" d="M410.14,495.61c-1.52,5.91-2.12,12.32-.41,18.26-.49-1.47-.87-2.98-1.09-4.52-.44-3.09-.4-6.23-.08-9.33,.17-1.55,.4-3.09,.75-4.64,.05-.23,.28-.38,.51-.32,.24,.05,.39,.31,.32,.55h0Z"/>
        <path class="cls-28" d="M433.85,495.27c3.19,5.69,3.86,13.28-.36,18.6,3.9-5.36,2.97-12.76-.36-18.14-.33-.48,.43-.97,.73-.46h0Z"/>
      </g>
      <g>
        <path class="cls-11" d="M389.44,505.99c15.04,12.86,37.66,11.09,50.52-3.95,9.96-11.65,11.15-27.86,4.18-40.55-2.03-3.69-4.74-7.08-8.13-9.98-15.04-12.86-37.66-11.09-50.52,3.95-8.04,9.4-10.36,21.76-7.3,32.85,1.84,6.65,5.61,12.85,11.25,17.67Zm35.17-41.14c7.8,6.66,8.12,17.97,2.02,25.79-6.08,7.8-18.52,8.23-25.79,2.02-7.8-6.66-8.12-17.97-2.02-25.79,6.08-7.8,18.52-8.23,25.79-2.02Z"/>
        <path class="cls-5" d="M398.74,466.32c-4.34-3.71-8.67-7.41-13.01-11.13,6.41-7.35,15.17-11.46,24.2-12.17,.45,5.74,.9,11.46,1.34,17.19l.04,.49c-4.5,.35-8.89,2.39-12.11,6.02l-.46-.41Z"/>
        <path class="cls-5" d="M377,481.54h.03c5.66-.45,11.32-.89,16.97-1.33l.67-.05c.35,4.5,2.39,8.89,6.02,12.11l-.43,.49c-3.55,4.15-7.09,8.29-10.64,12.44l-.48,.54c-7.34-6.4-11.45-15.16-12.15-24.19Z"/>
        <path class="cls-5" d="M424.43,464.51c3.76-4.4,7.54-8.81,11.3-13.22,.1,.07,.19,.15,.28,.23,7.38,6.31,11.57,14.97,12.39,23.93-5.81,.45-11.6,.91-17.41,1.36l-.27,.03c-.47-4.44-2.58-8.72-6.23-11.84-.09-.08-.18-.16-.27-.23l.22-.26Z"/>
        <path class="cls-5" d="M414.68,497.25l-.05-.5c4.44-.47,8.72-2.58,11.85-6.23,.08-.09,.16-.18,.23-.27l.25,.21c4.41,3.77,8.82,7.54,13.23,11.31-.07,.1-.15,.19-.23,.28-6.31,7.38-14.97,11.57-23.93,12.39-.45-5.73-.9-11.45-1.34-17.18Z"/>
        <g class="cls-65">
          <path class="cls-11" d="M444.14,461.49c-2.03-3.69-4.74-7.08-8.13-9.98-15.04-12.86-37.66-11.09-50.52,3.95-8.04,9.4-10.36,21.76-7.3,32.85,5.58-49.71,49.62-43.93,65.95-26.82Z"/>
        </g>
        <path class="cls-28" d="M376.58,481.58c-1.21-14.3,6.98-28.59,19.8-34.96,22.76-11.66,50.45,3.8,52.36,29.32,1.99,25.63-22.75,45.02-47.19,37.15-13.69-4.23-23.97-17.21-24.97-31.51h0Zm.86-.07c.9,14.01,10.91,26.78,24.29,31.05,24,7.87,48.45-11.4,46.41-36.57-.89-14.06-10.96-26.83-24.39-31.07-23.98-7.9-48.49,11.42-46.31,36.6h0Z"/>
        <path class="cls-28" d="M394.25,480.2c-1.1-16.16,18.03-25.93,30.4-15.4,7.67,6.27,8.62,18.51,2.03,25.9-10.6,12.34-31.1,5.75-32.44-10.5h0Zm.86-.07c1.29,15.8,20.78,22.24,31.16,10.2,6.33-7.15,5.41-19.06-1.96-25.14-12.14-10.28-30.5-.98-29.2,14.93h0Z"/>
        <polygon class="cls-28" points="398.46 466.65 385.73 455.19 399.02 466 398.46 466.65 398.46 466.65"/>
        <polygon class="cls-28" points="394.04 480.64 377.03 481.54 393.97 479.79 394.04 480.64 394.04 480.64"/>
        <polygon class="cls-28" points="427.24 490.12 440.2 501.76 426.68 490.77 427.24 490.12 427.24 490.12"/>
        <polygon class="cls-28" points="430.95 476.38 449.3 475.38 431.02 477.24 430.95 476.38 430.95 476.38"/>
        <polygon class="cls-28" points="424.1 464.23 436.21 450.73 424.75 464.79 424.1 464.23 424.1 464.23"/>
        <polygon class="cls-28" points="410.85 460.25 409.88 442.35 411.7 460.18 410.85 460.25 410.85 460.25"/>
        <polygon class="cls-28" points="400.6 493.04 389.64 505.2 399.94 492.48 400.6 493.04 400.6 493.04"/>
        <polygon class="cls-28" points="415.11 497.21 416.04 514.61 414.26 497.28 415.11 497.21 415.11 497.21"/>
        <path class="cls-28" d="M409.12,442.73c-1.16-11.62,10.78-11.65,18.79-8.56,3.13,1.33,5.74,3.57,8.39,5.62,2.48,1.99,5.67,4.02,8.88,2.6,1.49-.57,2.85-1.66,3.02-3.34,.57-6.84-8.3-16.61-14.85-17.86-1.58-.28-3.23,.05-4.38,1.11-.17,.16-.45,.15-.61-.03-.17-.18-.15-.47,.05-.62,.7-.58,1.53-1.01,2.42-1.18,7.55-1.41,18.71,11.45,17.9,18.66-.53,3.67-5.35,5.11-8.45,3.81-3.19-1.29-5.57-3.8-8.31-5.76-2.67-2.03-5.71-3.39-9.05-3.86-7.07-1.47-14.41,.64-12.95,9.28,.12,.56-.78,.71-.85,.13h0Z"/>
        <path class="cls-28" d="M406.13,442.77c-.65,0-1.19-.51-1.23-1.16-.04-.68,.48-1.26,1.16-1.3l7.01-.41c.67-.04,1.26,.48,1.3,1.16s-.48,1.26-1.16,1.3l-7.01,.41s-.05,0-.07,0Z"/>
      </g>
    </g>
  </g>
</svg>