<svg width="32" height="32" viewBox="0 0 32 32" fill="none" xmlns="http://www.w3.org/2000/svg">
<path d="M26.1816 17.4473L16.9395 26.7148C16.7363 26.918 16.4993 27.0195 16.2285 27.0195C15.9577 27.0195 15.7461 26.918 15.5938 26.7148C15.3737 26.5117 15.2637 26.2747 15.2637 26.0039C15.2637 25.7331 15.3737 25.5215 15.5938 25.3691L23.998 16.9395H5.38672C5.13281 16.9395 4.91276 16.8464 4.72656 16.6602C4.54036 16.474 4.44727 16.2539 4.44727 16C4.44727 15.7461 4.54036 15.526 4.72656 15.3398C4.91276 15.1536 5.13281 15.0605 5.38672 15.0605H23.8965L15.4922 6.63086C15.2721 6.42773 15.1621 6.19076 15.1621 5.91992C15.1621 5.64909 15.2721 5.4375 15.4922 5.28516C15.6953 5.08203 15.9323 4.98047 16.2031 4.98047C16.474 4.98047 16.6855 5.08203 16.8379 5.28516L26.0801 14.5527C26.554 14.959 26.791 15.4414 26.791 16C26.8079 16.5586 26.6048 17.041 26.1816 17.4473Z" fill="white"/>
</svg>
