<svg width="128" height="128" viewBox="0 0 128 128" fill="none" xmlns="http://www.w3.org/2000/svg">
<path fill-rule="evenodd" clip-rule="evenodd" d="M17.5441 117.57L17.5441 27.5156L18.5441 27.5156L18.5441 117.57L17.5441 117.57Z" fill="url(#paint0_linear_272_16308)"/>
<path d="M9.901 15.3613C9.901 13.1522 11.6919 11.3613 13.901 11.3613H21.7534C23.9626 11.3613 25.7534 13.1522 25.7534 15.3613V23.2137C25.7534 25.4229 23.9626 27.2137 21.7534 27.2137H13.901C11.6919 27.2137 9.901 25.4229 9.901 23.2137V15.3613Z" fill="url(#paint1_linear_272_16308)"/>
<path d="M9.901 45.4805C9.901 43.2713 11.6919 41.4805 13.901 41.4805H21.7534C23.9626 41.4805 25.7534 43.2713 25.7534 45.4805V53.3329C25.7534 55.542 23.9626 57.3329 21.7534 57.3329H13.901C11.6919 57.3329 9.901 55.542 9.901 53.3329V45.4805Z" fill="white"/>
<path fill-rule="evenodd" clip-rule="evenodd" d="M21.7534 42.4805H13.901C12.2441 42.4805 10.901 43.8236 10.901 45.4805V53.3329C10.901 54.9897 12.2441 56.3329 13.901 56.3329H21.7534C23.4103 56.3329 24.7534 54.9897 24.7534 53.3329V45.4805C24.7534 43.8236 23.4103 42.4805 21.7534 42.4805ZM13.901 41.4805C11.6919 41.4805 9.901 43.2713 9.901 45.4805V53.3329C9.901 55.542 11.6919 57.3329 13.901 57.3329H21.7534C23.9626 57.3329 25.7534 55.542 25.7534 53.3329V45.4805C25.7534 43.2713 23.9626 41.4805 21.7534 41.4805H13.901Z" fill="url(#paint2_linear_272_16308)"/>
<path d="M9.901 75.5996C9.901 73.3905 11.6919 71.5996 13.901 71.5996H21.7534C23.9626 71.5996 25.7534 73.3905 25.7534 75.5996V83.452C25.7534 85.6612 23.9626 87.452 21.7534 87.452H13.901C11.6919 87.452 9.901 85.6612 9.901 83.452V75.5996Z" fill="white"/>
<path fill-rule="evenodd" clip-rule="evenodd" d="M21.7534 72.5996H13.901C12.2441 72.5996 10.901 73.9428 10.901 75.5996V83.452C10.901 85.1089 12.2441 86.452 13.901 86.452H21.7534C23.4103 86.452 24.7534 85.1089 24.7534 83.452V75.5996C24.7534 73.9428 23.4103 72.5996 21.7534 72.5996ZM13.901 71.5996C11.6919 71.5996 9.901 73.3905 9.901 75.5996V83.452C9.901 85.6612 11.6919 87.452 13.901 87.452H21.7534C23.9626 87.452 25.7534 85.6612 25.7534 83.452V75.5996C25.7534 73.3905 23.9626 71.5996 21.7534 71.5996H13.901Z" fill="url(#paint3_linear_272_16308)"/>
<path d="M9.901 105.719C9.901 103.51 11.6919 101.719 13.901 101.719H21.7534C23.9626 101.719 25.7534 103.51 25.7534 105.719V113.571C25.7534 115.78 23.9626 117.571 21.7534 117.571H13.901C11.6919 117.571 9.901 115.78 9.901 113.571V105.719Z" fill="white"/>
<path fill-rule="evenodd" clip-rule="evenodd" d="M21.7534 102.719H13.901C12.2441 102.719 10.901 104.062 10.901 105.719V113.571C10.901 115.228 12.2441 116.571 13.901 116.571H21.7534C23.4103 116.571 24.7534 115.228 24.7534 113.571V105.719C24.7534 104.062 23.4103 102.719 21.7534 102.719ZM13.901 101.719C11.6919 101.719 9.901 103.51 9.901 105.719V113.571C9.901 115.78 11.6919 117.571 13.901 117.571H21.7534C23.9626 117.571 25.7534 115.78 25.7534 113.571V105.719C25.7534 103.51 23.9626 101.719 21.7534 101.719H13.901Z" fill="url(#paint4_linear_272_16308)"/>
<path fill-rule="evenodd" clip-rule="evenodd" d="M22.4976 16.8809L16.6244 22.7541L13.1569 19.2873L13.864 18.5801L16.6244 21.3399L21.7904 16.1738L22.4976 16.8809Z" fill="white"/>
<path fill-rule="evenodd" clip-rule="evenodd" d="M86.0992 20.6973H34.5129V15.6973H86.0992V20.6973Z" fill="url(#paint5_linear_272_16308)"/>
<path fill-rule="evenodd" clip-rule="evenodd" d="M86.0992 51.4062H34.5129V46.4062H86.0992V51.4062Z" fill="url(#paint6_linear_272_16308)"/>
<path fill-rule="evenodd" clip-rule="evenodd" d="M86.0992 81.5254H34.5129V76.5254H86.0992V81.5254Z" fill="url(#paint7_linear_272_16308)"/>
<path fill-rule="evenodd" clip-rule="evenodd" d="M86.0992 111.645H34.5129V106.645H86.0992V111.645Z" fill="url(#paint8_linear_272_16308)"/>
<path d="M94.6494 45.7832C94.6494 44.6786 95.5448 43.7832 96.6494 43.7832H118.585C119.69 43.7832 120.585 44.6786 120.585 45.7832V52.8984C120.585 54.003 119.69 54.8984 118.585 54.8984H96.6494C95.5448 54.8984 94.6494 54.003 94.6494 52.8984V45.7832Z" fill="url(#paint9_linear_272_16308)"/>
<path opacity="0.3" d="M94.6494 75.5996C94.6494 74.495 95.5448 73.5996 96.6494 73.5996H118.585C119.69 73.5996 120.585 74.495 120.585 75.5996V82.7148C120.585 83.8194 119.69 84.7148 118.585 84.7148H96.6494C95.5448 84.7148 94.6494 83.8194 94.6494 82.7148V75.5996Z" fill="url(#paint10_linear_272_16308)"/>
<path opacity="0.3" d="M94.6494 105.416C94.6494 104.311 95.5448 103.416 96.6494 103.416H118.585C119.69 103.416 120.585 104.311 120.585 105.416V112.531C120.585 113.636 119.69 114.531 118.585 114.531H96.6494C95.5448 114.531 94.6494 113.636 94.6494 112.531V105.416Z" fill="url(#paint11_linear_272_16308)"/>
<defs>
<linearGradient id="paint0_linear_272_16308" x1="18.035" y1="117.57" x2="18.0351" y2="27.5156" gradientUnits="userSpaceOnUse">
<stop stop-color="#FF9675"/>
<stop offset="1" stop-color="#F888B5"/>
</linearGradient>
<linearGradient id="paint1_linear_272_16308" x1="25.7534" y1="19.4317" x2="9.901" y2="19.4317" gradientUnits="userSpaceOnUse">
<stop stop-color="#B318C2"/>
<stop offset="1" stop-color="#744AE6"/>
</linearGradient>
<linearGradient id="paint2_linear_272_16308" x1="25.7534" y1="49.5508" x2="9.901" y2="49.5508" gradientUnits="userSpaceOnUse">
<stop stop-color="#FF9675"/>
<stop offset="1" stop-color="#F888B5"/>
</linearGradient>
<linearGradient id="paint3_linear_272_16308" x1="25.7534" y1="79.6699" x2="9.901" y2="79.6699" gradientUnits="userSpaceOnUse">
<stop stop-color="#FF9675"/>
<stop offset="1" stop-color="#F888B5"/>
</linearGradient>
<linearGradient id="paint4_linear_272_16308" x1="25.7534" y1="109.789" x2="9.901" y2="109.789" gradientUnits="userSpaceOnUse">
<stop stop-color="#FF9675"/>
<stop offset="1" stop-color="#F888B5"/>
</linearGradient>
<linearGradient id="paint5_linear_272_16308" x1="86.0992" y1="18.2427" x2="34.5129" y2="18.2427" gradientUnits="userSpaceOnUse">
<stop stop-color="#FF9675"/>
<stop offset="1" stop-color="#F888B5"/>
</linearGradient>
<linearGradient id="paint6_linear_272_16308" x1="86.0992" y1="48.9517" x2="34.5129" y2="48.9517" gradientUnits="userSpaceOnUse">
<stop stop-color="#FF9675"/>
<stop offset="1" stop-color="#F888B5"/>
</linearGradient>
<linearGradient id="paint7_linear_272_16308" x1="86.0992" y1="79.0708" x2="34.5129" y2="79.0708" gradientUnits="userSpaceOnUse">
<stop stop-color="#FF9675"/>
<stop offset="1" stop-color="#F888B5"/>
</linearGradient>
<linearGradient id="paint8_linear_272_16308" x1="86.0992" y1="109.19" x2="34.5129" y2="109.19" gradientUnits="userSpaceOnUse">
<stop stop-color="#FF9675"/>
<stop offset="1" stop-color="#F888B5"/>
</linearGradient>
<linearGradient id="paint9_linear_272_16308" x1="120.585" y1="49.4419" x2="94.6494" y2="49.4419" gradientUnits="userSpaceOnUse">
<stop stop-color="#B318C2"/>
<stop offset="1" stop-color="#744AE6"/>
</linearGradient>
<linearGradient id="paint10_linear_272_16308" x1="120.585" y1="79.2583" x2="94.6494" y2="79.2583" gradientUnits="userSpaceOnUse">
<stop stop-color="#B318C2"/>
<stop offset="1" stop-color="#744AE6"/>
</linearGradient>
<linearGradient id="paint11_linear_272_16308" x1="120.585" y1="109.075" x2="94.6494" y2="109.075" gradientUnits="userSpaceOnUse">
<stop stop-color="#B318C2"/>
<stop offset="1" stop-color="#744AE6"/>
</linearGradient>
</defs>
</svg>
