<svg width="128" height="128" viewBox="0 0 128 128" fill="none" xmlns="http://www.w3.org/2000/svg">
<g clip-path="url(#clip0_272_16350)">
<path d="M72.6177 86.2483C75.2724 83.0647 75.7391 78.6159 73.8129 74.4342C73.2166 73.0394 72.8173 71.5825 72.8848 70.0528C72.8848 64.2145 77.9298 59.1695 85.0305 57.3782L85.0305 31.6299L84.8983 31.4977L84.1699 30.37C83.838 29.9033 83.6384 29.3097 83.4388 28.7108L81.1833 28.7108L80.4522 29.307C80.3848 29.3744 80.32 29.4393 80.2526 29.3718L78.7904 29.3719C78.6555 29.3719 78.5233 29.2396 78.4585 29.04L78.4585 26.5201C78.4585 26.3853 78.5907 26.2531 78.7904 26.1883L80.2526 26.1883C80.3874 26.1883 80.3874 26.1883 80.4522 26.2531L81.1833 26.8494L83.1743 26.8494L83.1743 24.0598L81.1833 24.0598L80.4522 24.6561C80.3848 24.7235 80.32 24.7883 80.2526 24.7209L78.7904 24.7209C78.6555 24.7209 78.5233 24.5887 78.4585 24.3891L78.4585 21.8692C78.4585 21.7344 78.5907 21.6021 78.7904 21.5373L80.2526 21.5373C80.3874 21.5373 80.3874 21.5373 80.4522 21.6022L81.1833 22.1984L83.1743 22.1984L83.1743 19.4088L81.1833 19.4088L80.4522 20.0051C80.3848 20.0725 80.32 20.1373 80.2526 20.0699L78.7904 20.0699C78.6555 20.0699 78.5233 19.9377 78.4585 19.7381L78.4585 17.2182C78.4585 17.0834 78.5907 16.9512 78.7904 16.8864L80.2526 16.8864C80.3874 16.8864 80.3874 16.8864 80.4522 16.9512L81.1833 17.5475L83.304 17.957C83.5009 16.2978 84.8957 15.0379 86.6224 15.0379L95.2502 15.0379C96.9769 15.0379 98.369 16.3005 98.5686 17.957L100.627 18.0245L101.358 17.4282C101.426 17.3608 101.49 17.296 101.558 17.3634L103.02 17.3634C103.155 17.3634 103.287 17.4956 103.352 17.6952L103.352 20.2151C103.352 20.3499 103.22 20.4821 103.02 20.5469L101.558 20.5469C101.423 20.5469 101.423 20.5469 101.358 20.4821L100.627 19.8858L98.6361 19.8858L98.6361 22.6754L100.692 22.4706L101.423 21.8743C101.49 21.8069 101.555 21.7421 101.623 21.8095L103.015 21.7395C103.15 21.7395 103.282 21.8717 103.347 22.0713L103.347 24.5912C103.347 24.726 103.214 24.8582 103.015 24.923L101.553 24.923C101.418 24.923 101.418 24.923 101.353 24.8582L100.622 24.2619L98.6308 24.2619L98.6308 27.0515L100.622 27.0515L101.353 26.4553C101.42 26.3879 101.485 26.323 101.553 26.3904L103.015 26.3904C103.15 26.3904 103.282 26.5227 103.347 26.7223L103.414 29.04C103.414 29.1748 103.282 29.307 103.082 29.3718L101.62 29.3718C101.485 29.3718 101.485 29.3718 101.42 29.307L100.689 28.7107L98.4338 28.7107C98.3016 29.2422 98.102 29.8411 97.7027 30.37L97.0416 31.4303L96.842 31.6299L96.9097 57.4459C103.943 59.3047 109.056 64.2825 109.055 70.1205C109.055 71.5828 108.724 73.1071 108.127 74.5019C106.269 78.6162 106.665 83.1298 109.323 86.316C113.172 90.8296 115.363 96.2038 115.36 100.717C115.36 110.807 104.477 118.901 90.9359 118.904C77.5268 118.904 66.5794 110.74 66.5115 100.717C66.579 96.1388 68.8344 90.8293 72.6169 86.2483L72.6177 86.2483ZM95.1152 18.6203L86.8866 18.6203L86.8866 27.2482C86.8866 27.6474 87.0188 28.0441 87.2185 28.3785L87.947 29.5062C88.144 29.8381 88.5432 30.1025 89.0073 30.0377L92.9946 30.1674C93.3938 30.1674 93.8579 29.9678 94.0549 29.6359L94.7834 28.5082C94.9804 28.1764 95.1152 27.7771 95.1152 27.3778L95.1152 18.6203ZM93.324 33.6852C93.1891 33.6852 93.1243 33.75 92.9921 33.7526L88.8752 33.7526C88.7403 33.7526 88.6107 33.7526 88.5433 33.6852L88.546 56.7814C89.3419 56.6492 90.1404 56.6492 90.9336 56.6492C91.7321 56.6492 92.5254 56.6492 93.3213 56.7814L93.324 33.6852ZM90.936 115.321C102.418 115.386 111.775 108.814 111.777 100.717C111.777 96.9997 109.854 92.4213 106.532 88.5712C102.949 84.3247 102.286 78.3518 104.805 73.0423C105.205 72.1142 105.469 71.1861 105.469 70.1232C105.469 64.6788 98.9673 60.1682 90.9356 60.2356C82.904 60.303 76.3992 64.6819 76.4023 70.1232C76.4023 71.0513 76.6019 72.0494 77.066 73.0423C79.5211 78.4166 78.8574 84.3897 75.3391 88.5712C72.0881 92.4858 70.0942 96.9996 70.0941 100.717C70.0967 108.814 79.4534 115.386 90.9352 115.321L90.936 115.321Z" fill="url(#paint0_linear_272_16350)"/>
<path d="M90.9145 72.8864C87.1319 72.8838 84.0624 75.9534 84.0626 79.7383C84.0652 83.5208 87.1321 86.5878 90.9145 86.5901C94.6996 86.5901 97.7691 83.5206 97.7663 79.7383C97.7663 75.9532 94.6994 72.8862 90.9145 72.8864Z" fill="url(#paint1_linear_272_16350)"/>
<path d="M82.5763 99.7906L99.2985 99.7906C100.227 99.7906 101.023 100.586 101.09 101.582C101.09 102.51 100.294 103.306 99.2985 103.373L82.571 103.373C81.6429 103.373 80.847 102.578 80.7796 101.582C80.7822 100.651 81.5781 99.8554 82.5762 99.7906L82.5763 99.7906Z" fill="url(#paint2_linear_272_16350)"/>
<path fill-rule="evenodd" clip-rule="evenodd" d="M67.1603 69.2415H76.146C83.4168 69.2415 89.2943 75.1038 89.2943 82.3112V110.143C89.2943 116.22 84.3886 121.125 78.3117 121.125H20.0008C13.9241 121.125 9.01819 116.22 9.01819 110.143V63.54C9.01819 56.2512 14.973 50.3926 22.1656 50.3926H41.4157C49.1836 50.3926 55.9685 55.3687 58.3191 62.772C59.5767 66.677 63.1362 69.2415 67.1603 69.2415Z" fill="url(#paint3_linear_272_16350)"/>
<path d="M47.7526 108.378C46.7092 108.378 45.9071 107.495 45.9071 106.533V91.375H41.2544L41.2575 106.533C41.2575 107.576 40.3739 108.378 39.4121 108.378H36.044C35.0006 108.378 34.1985 107.495 34.1985 106.533V91.375H29.5458V106.533C29.5458 107.576 28.6622 108.378 27.7003 108.378H24.3322C23.2888 108.378 22.4868 107.495 22.4868 106.533V91.375H15.5875V110.142C15.5875 112.548 17.5927 114.554 19.999 114.554H78.3099C80.7162 114.554 82.7214 112.548 82.7214 110.142L82.7249 91.375H75.8257V106.533C75.8257 107.576 74.9421 108.378 73.9802 108.378H71.1729C70.1296 108.378 69.3275 107.495 69.3275 106.533V91.375H64.6748L64.6779 106.533C64.6779 107.576 63.7943 108.378 62.8324 108.378H59.4643C58.421 108.378 57.6189 107.495 57.6189 106.533V91.375H52.9661V106.533C52.9661 107.576 52.0826 108.378 51.1207 108.378H47.7526Z" fill="white"/>
</g>
<defs>
<linearGradient id="paint0_linear_272_16350" x1="58.6115" y1="36.9641" x2="121.894" y2="100.247" gradientUnits="userSpaceOnUse">
<stop stop-color="#B318C2"/>
<stop offset="1" stop-color="#744AE6"/>
</linearGradient>
<linearGradient id="paint1_linear_272_16350" x1="85.982" y1="74.98" x2="95.6727" y2="84.6708" gradientUnits="userSpaceOnUse">
<stop stop-color="#B318C2"/>
<stop offset="1" stop-color="#744AE6"/>
</linearGradient>
<linearGradient id="paint2_linear_272_16350" x1="85.4108" y1="96.2554" x2="96.2617" y2="107.106" gradientUnits="userSpaceOnUse">
<stop stop-color="#B318C2"/>
<stop offset="1" stop-color="#744AE6"/>
</linearGradient>
<linearGradient id="paint3_linear_272_16350" x1="89.2943" y1="86.4021" x2="9.01819" y2="86.4021" gradientUnits="userSpaceOnUse">
<stop stop-color="#FF9675"/>
<stop offset="1" stop-color="#F888B5"/>
</linearGradient>
<clipPath id="clip0_272_16350">
<rect width="128" height="128" fill="white"/>
</clipPath>
</defs>
</svg>
