<svg width="128" height="128" viewBox="0 0 128 128" fill="none" xmlns="http://www.w3.org/2000/svg">
<path d="M47.6799 30.8105H39.2131C38.0895 30.8105 37.1731 31.5891 37.1731 32.5437V62.2676C37.1731 63.2222 38.0895 64.0008 39.2131 64.0008H47.6799C48.8035 64.0008 49.7199 63.2222 49.7199 62.2676V32.5437C49.7199 31.5924 48.8035 30.8105 47.6799 30.8105Z" fill="url(#paint0_linear_272_16376)"/>
<path d="M68.2829 20.6719H59.8161C58.6924 20.6719 57.7761 21.4504 57.7761 22.405V62.2669C57.7761 63.2215 58.6925 64 59.8161 64H68.2829C69.4065 64 70.3229 63.2215 70.3229 62.2669V22.405C70.2233 21.4504 69.3029 20.6719 68.2829 20.6719Z" fill="url(#paint1_linear_272_16376)"/>
<path d="M88.7869 40.0801H80.3201C79.1965 40.0801 78.2801 40.8586 78.2801 41.8132V62.2658C78.2801 63.2204 79.1965 63.9989 80.3201 63.9989H88.7869C89.9105 63.9989 90.8269 63.2204 90.8269 62.2658V41.8132C90.8269 40.862 89.9065 40.0801 88.7869 40.0801V40.0801Z" fill="url(#paint2_linear_272_16376)"/>
<path d="M34.346 85.7051C34.346 89.0188 31.6597 91.7051 28.346 91.7051C25.0323 91.7051 22.346 89.0188 22.346 85.7051C22.346 82.3914 25.0323 79.7051 28.346 79.7051C31.6597 79.7051 34.346 82.3914 34.346 85.7051Z" fill="url(#paint3_linear_272_16376)"/>
<path d="M34.346 105.953C34.346 109.267 31.6597 111.953 28.346 111.953C25.0323 111.953 22.346 109.267 22.346 105.953C22.346 102.639 25.0323 99.9531 28.346 99.9531C31.6597 99.9531 34.346 102.639 34.346 105.953Z" fill="url(#paint4_linear_272_16376)"/>
<path fill-rule="evenodd" clip-rule="evenodd" d="M105.2 88.1797H41.2388V82.1797H105.2V88.1797Z" fill="url(#paint5_linear_272_16376)"/>
<path fill-rule="evenodd" clip-rule="evenodd" d="M105.2 108.631H41.2388V102.631H105.2V108.631Z" fill="url(#paint6_linear_272_16376)"/>
<defs>
<linearGradient id="paint0_linear_272_16376" x1="49.7199" y1="47.7074" x2="37.1731" y2="47.7074" gradientUnits="userSpaceOnUse">
<stop stop-color="#B318C2"/>
<stop offset="1" stop-color="#744AE6"/>
</linearGradient>
<linearGradient id="paint1_linear_272_16376" x1="70.3229" y1="42.7299" x2="57.7761" y2="42.7299" gradientUnits="userSpaceOnUse">
<stop stop-color="#B318C2"/>
<stop offset="1" stop-color="#744AE6"/>
</linearGradient>
<linearGradient id="paint2_linear_272_16376" x1="90.8269" y1="52.257" x2="78.2801" y2="52.257" gradientUnits="userSpaceOnUse">
<stop stop-color="#B318C2"/>
<stop offset="1" stop-color="#744AE6"/>
</linearGradient>
<linearGradient id="paint3_linear_272_16376" x1="34.346" y1="85.8142" x2="22.346" y2="85.8142" gradientUnits="userSpaceOnUse">
<stop stop-color="#FF9675"/>
<stop offset="1" stop-color="#F888B5"/>
</linearGradient>
<linearGradient id="paint4_linear_272_16376" x1="34.346" y1="106.062" x2="22.346" y2="106.062" gradientUnits="userSpaceOnUse">
<stop stop-color="#FF9675"/>
<stop offset="1" stop-color="#F888B5"/>
</linearGradient>
<linearGradient id="paint5_linear_272_16376" x1="105.2" y1="85.2342" x2="41.2388" y2="85.2342" gradientUnits="userSpaceOnUse">
<stop stop-color="#FF9675"/>
<stop offset="1" stop-color="#F888B5"/>
</linearGradient>
<linearGradient id="paint6_linear_272_16376" x1="105.2" y1="105.685" x2="41.2388" y2="105.685" gradientUnits="userSpaceOnUse">
<stop stop-color="#FF9675"/>
<stop offset="1" stop-color="#F888B5"/>
</linearGradient>
</defs>
</svg>
