<svg width="128" height="128" viewBox="0 0 128 128" fill="none" xmlns="http://www.w3.org/2000/svg">
<path d="M115.418 57.7206C114.991 56.9144 115.403 55.8687 115.414 54.6625C115.508 52.7035 114.892 50.7233 113.447 49.0287L108.526 43.2566C108.526 43.2566 107.557 42.1184 106.418 43.0886C105.28 44.0581 106.25 45.1964 106.25 45.1964L108.329 47.6358L110.131 49.7495C110.131 49.7495 109.562 50.2345 107.567 47.8948L100.831 39.9911C100.831 39.9911 99.8601 38.8535 98.7219 39.8237C97.5844 40.7932 98.5539 41.9314 98.5539 41.9314L104.924 49.4053C104.91 49.3887 104.324 49.8539 104.315 49.8439L97.5 41.8478C97.5 41.8478 96.5298 40.7096 95.3915 41.6798C94.2532 42.65 95.2235 43.7875 95.2235 43.7875L102.039 51.7852C102.047 51.7951 101.49 52.2936 101.504 52.3094L95.6243 45.4101C95.6243 45.4101 94.6541 44.2719 93.5159 45.2421C92.3776 46.2123 93.3478 47.3506 93.3478 47.3506L99.5989 54.6841C99.6563 54.7514 99.1514 55.3121 99.2232 55.3962L94.7188 50.1114C94.7188 50.1114 93.7486 48.9732 92.6103 49.9441C91.472 50.9143 92.4422 52.0526 92.4422 52.0526L99.7898 60.6694C101.016 62.1086 102.353 62.9203 104.029 63.3555C104.37 63.4438 104.813 63.4954 104.992 63.5395C105.558 63.6787 106.038 63.9413 106.665 64.4336C107.471 65.0667 108.749 65.4399 109.59 64.7266L112.461 62.2927L115.111 60.0451C115.952 59.3324 115.898 58.6266 115.418 57.7206V57.7206Z" fill="#A06204"/>
<path d="M90.6556 64.1709C90.4467 64.1466 90.2471 64.0423 90.1064 63.8646C89.8244 63.5084 89.8844 62.9926 90.2406 62.7106L93.4755 60.1512C93.8318 59.8692 94.3476 59.9291 94.6296 60.2854C94.9116 60.6416 94.8516 61.1574 94.4954 61.4394L91.2603 63.9996C91.0827 64.1403 90.8645 64.1951 90.6556 64.1709V64.1709ZM96.0738 65.5636C95.9848 65.5532 95.8951 65.5279 95.8089 65.4865C95.401 65.2885 95.2307 64.7972 95.4296 64.3885L96.4852 62.2175C96.6832 61.8096 97.1752 61.6402 97.5832 61.8373C97.9911 62.0361 98.1614 62.5274 97.9626 62.9353L96.907 65.1063C96.7503 65.4288 96.4108 65.6028 96.0738 65.5636V65.5636ZM90.5441 58.5786C90.2079 58.5395 89.9172 58.2931 89.8378 57.9447C89.7371 57.5021 90.0141 57.062 90.4567 56.9613L92.5766 56.479C93.0205 56.3818 93.4592 56.6569 93.5601 57.098C93.6608 57.5406 93.3838 57.9807 92.9412 58.0815L90.8213 58.5637C90.727 58.585 90.6339 58.589 90.5441 58.5786V58.5786ZM116.653 43.6098C116.444 43.5855 116.245 43.4812 116.104 43.3035C115.822 42.9473 115.882 42.4307 116.238 42.1487L119.474 39.5885C119.83 39.3073 120.346 39.3673 120.628 39.7227C120.91 40.0781 120.85 40.5956 120.494 40.8776L117.258 43.4377C117.08 43.5792 116.862 43.634 116.653 43.6098V43.6098ZM113.416 41.8296C113.327 41.8192 113.237 41.7931 113.152 41.7517C112.744 41.5538 112.574 41.0625 112.772 40.6537L113.827 38.4826C114.025 38.0748 114.516 37.9044 114.925 38.1024C115.333 38.3004 115.503 38.7917 115.305 39.2005L114.25 41.3715C114.093 41.6949 113.753 41.8688 113.416 41.8296V41.8296ZM117.882 47.125C117.545 47.0859 117.255 46.8395 117.175 46.4911C117.074 46.0484 117.352 45.6084 117.794 45.5076L119.913 45.0253C120.357 44.9238 120.796 45.2024 120.897 45.6442C120.997 46.0869 120.72 46.5269 120.278 46.6277L118.159 47.11C118.064 47.1313 117.971 47.1354 117.882 47.125V47.125Z" fill="url(#paint0_linear_271_16277)"/>
<path d="M117.382 58.2308C117.031 57.3893 117.538 56.3854 117.661 55.1854C117.935 53.2437 117.504 51.2149 116.222 49.3942L111.853 43.1935C111.853 43.1935 110.993 41.9714 109.769 42.8324C108.547 43.6929 109.408 44.9159 109.408 44.9159L111.254 47.5369L112.853 49.807C112.853 49.807 112.241 50.2371 110.47 47.7238C108.699 45.2096 104.491 39.2329 104.491 39.2329C104.491 39.2329 103.63 38.0106 102.407 38.8718C101.184 39.7322 102.046 40.9544 102.046 40.9544L107.699 48.9839C107.687 48.9667 107.061 49.3753 107.053 49.3641L101.004 40.7739C101.004 40.7739 100.143 39.551 98.9197 40.4121C97.6975 41.2734 98.558 42.4955 98.558 42.4955L104.608 51.0873C104.615 51.0976 104.014 51.5425 104.026 51.5597L98.8077 44.1486C98.8077 44.1486 97.9465 42.9264 96.7235 43.7875C95.5005 44.6487 96.3617 45.8716 96.3617 45.8716L101.91 53.7503C101.961 53.822 101.407 54.3348 101.47 54.4253L97.4718 48.7476C97.4718 48.7476 96.6105 47.5254 95.3876 48.3865C94.1646 49.2477 95.0257 50.4707 95.0257 50.4707L101.547 59.7272C102.636 61.2736 103.892 62.2043 105.52 62.7925C105.852 62.9122 106.289 63.0043 106.463 63.0643C107.013 63.255 107.467 63.5608 108.046 64.1094C108.791 64.814 110.029 65.3032 110.933 64.6707L114.015 62.512L116.861 60.5187C117.765 59.8847 117.777 59.1767 117.382 58.2308V58.2308Z" fill="url(#paint1_linear_271_16277)"/>
<path fill-rule="evenodd" clip-rule="evenodd" d="M20.5109 46.1733C20.5957 46.3628 20.6807 46.5528 20.7147 46.7557C20.8627 46.702 20.9248 46.7412 21.0155 46.8447C21.2373 47.0825 21.4764 47.3077 21.7316 47.5189C22.1092 47.8512 22.4571 48.208 22.7723 48.5861C23.0107 48.8937 23.226 49.2142 23.4168 49.5458C23.6769 49.9553 23.9156 50.3793 24.1543 50.8095C24.4967 51.3983 24.8011 52.0032 25.0662 52.6212C25.1388 52.7645 25.2733 52.8774 25.4409 52.9356C25.7594 53.0751 26.0225 53.2826 26.286 53.4903C26.3898 53.5722 26.4937 53.6541 26.601 53.7318C26.6833 53.7916 26.7637 53.8529 26.8441 53.9144C26.9644 54.0061 27.0848 54.0981 27.212 54.1848C27.5098 54.3998 27.7688 54.6522 27.9806 54.9335C28.053 55.0201 28.1327 55.0996 28.212 55.1788C28.2974 55.264 28.3825 55.349 28.458 55.4423C28.5977 55.6475 28.7113 55.8653 28.797 56.0917C28.8614 56.2427 28.5607 56.7928 28.384 56.8507C28.315 56.8686 28.2406 56.8635 28.1757 56.8363C28.1108 56.8091 28.0599 56.7619 28.0332 56.7039C27.6351 56.092 27.1543 55.5234 26.601 55.01C26.0797 54.5089 25.4804 54.0731 24.8203 53.7153C24.3234 53.4499 23.7963 53.2295 23.2473 53.0576C23.108 53.0171 22.9737 52.9669 22.8399 52.9169C22.6527 52.8468 22.4663 52.7772 22.2686 52.735C21.963 52.6681 21.6638 52.5814 21.3649 52.4947C20.9611 52.3777 20.5578 52.2608 20.1395 52.1931C20.0082 52.1704 20.0082 52.1042 20.0082 52.0235C19.6747 52.0656 19.3352 52.0558 19.0057 51.9946C18.7899 51.9648 18.624 51.9337 18.4809 51.907C18.0992 51.8355 17.8797 51.7945 17.3066 51.888C16.7056 52.0339 15.4316 52.3583 14.8667 52.5881C13.5992 53.0473 12.3341 53.5085 11.2432 54.2551C10.7181 54.615 10.3457 55.0535 10.4293 55.6739C10.481 55.9181 10.561 56.1572 10.668 56.3875C10.8149 56.7551 11.0798 57.0788 11.4316 57.3205C11.7833 57.5623 12.2074 57.7121 12.6539 57.7525C13.4679 57.8435 14.2365 57.6367 14.9812 57.3574C15.2003 57.2776 15.4093 57.1814 15.6187 57.085C15.8976 56.9567 16.1773 56.8279 16.4826 56.737C17.4734 56.4411 18.5351 56.3699 19.5666 56.5302C20.3971 56.6481 21.1669 56.9812 21.7745 57.4857C22.2885 57.8638 22.6136 58.3997 22.6816 58.981C22.7481 59.7337 22.2686 60.8858 22.2686 60.8858L20.2553 62.4555C20.2553 62.4555 19.0799 63.1551 18.4447 63.0699C17.899 63.0245 17.3696 62.8838 16.8884 62.6563C16.5839 62.5101 16.2794 62.4225 15.9905 62.3393C15.4618 62.1872 14.9854 62.0501 14.6566 61.5967C14.4475 61.3057 14.3011 60.859 14.1525 60.4055C13.9821 59.8856 13.8088 59.3567 13.5347 59.043C13.16 58.6252 12.759 58.2158 12.1026 58.1289C11.1072 57.9945 10.3648 58.073 9.72991 58.7969C9.1284 59.4836 9.11169 60.2674 9.2931 61.0575C9.47189 61.7414 9.75189 62.4025 10.1261 63.0244C10.6803 64.0645 11.3101 65.0731 12.0118 66.044C12.7576 67.0342 13.6464 67.9377 14.6566 68.7327C15.0575 69.0712 15.5086 69.3619 15.9981 69.5972C16.9529 70.0191 17.9888 70.1204 19.0295 70.1804C19.989 70.2273 20.9514 70.2017 21.9058 70.1039C23.0299 70.0212 24.138 69.8184 25.2046 69.5C26.4168 69.1214 27.4629 68.4253 28.1979 67.5083C28.9736 66.5569 29.4439 65.4793 29.8544 64.379C30.0685 63.8029 30.2619 63.2212 30.4555 62.6388C30.5253 62.4288 30.5951 62.2188 30.666 62.0089C30.9649 61.1042 31.1639 60.1769 31.2603 59.2395C31.3164 58.7205 31.3176 58.2005 31.3189 57.6802C31.3195 57.4251 31.3201 57.17 31.3272 56.9149C31.3137 56.3529 31.2337 55.7936 31.0885 55.2458C30.9458 54.6235 30.7536 54.0105 30.5132 53.4113C30.1422 52.4191 29.6891 51.4514 29.1574 50.5158C28.6466 49.6306 28.1119 48.7537 27.5223 47.9057C26.7736 46.8149 25.9107 45.7861 24.9444 44.8323C24.5357 44.4099 24.0523 44.0462 23.5122 43.7547C22.7794 43.3825 22.0108 43.2998 21.2231 43.7258C20.3042 44.2243 20.118 44.855 20.3304 45.6989C20.3714 45.8614 20.4411 46.0172 20.5109 46.1733ZM18.8819 50.2228C19.2904 50.6778 19.699 51.1329 20.0564 51.621C20.062 51.6084 20.0702 51.5944 20.0779 51.5814C20.0865 51.5667 20.0944 51.5532 20.097 51.5444C20.0951 51.5183 20.0723 51.4964 20.0495 51.4745C20.0128 51.4394 19.9762 51.4044 20.0278 51.3521C20.0878 51.2912 20.1601 51.3167 20.2297 51.3413C20.257 51.351 20.2839 51.3604 20.3094 51.3645C20.9802 51.494 21.6431 51.6527 22.2954 51.8402C22.4935 51.895 22.6928 51.9467 22.8921 51.9984C23.0914 52.0501 23.2907 52.1018 23.4889 52.1566C23.6655 52.2042 23.7299 52.2083 23.6655 52.0222C23.576 51.765 23.4596 51.5167 23.3435 51.2692C23.2832 51.1405 23.2229 51.0121 23.1666 50.8826C23.0835 50.691 22.9937 50.5015 22.9042 50.3125C22.842 50.1813 22.7799 50.0502 22.7203 49.9188C22.5371 49.5704 22.3241 49.2344 22.0829 48.9137C21.6918 48.3064 21.2312 47.7348 20.708 47.2074C20.6253 47.1265 20.6373 47.0457 20.6494 46.9649C20.6536 46.9361 20.6579 46.9073 20.6579 46.8786C20.5966 46.9109 20.5241 46.9236 20.453 46.9146C20.382 46.9055 20.3168 46.8752 20.2688 46.8289C19.9443 46.6078 19.5901 46.4217 19.2138 46.2746C19.0012 46.1755 18.761 46.1294 18.52 46.1415C18.279 46.1535 18.0465 46.2232 17.8485 46.3429C17.5783 46.4811 17.3662 46.6905 17.2429 46.9405C17.1197 47.1905 17.0918 47.468 17.1634 47.7327C17.3226 48.2018 17.5641 48.6468 17.8795 49.0523C18.1929 49.4554 18.5374 49.839 18.8819 50.2228Z" fill="url(#paint2_linear_271_16277)"/>
<path d="M20.0626 51.6191C20.0626 51.5922 20.0984 51.5673 20.0984 51.5425C20.0984 51.4743 19.9575 51.4246 20.0292 51.3502C20.1008 51.2757 20.2201 51.3502 20.3108 51.3626C20.9816 51.492 21.6445 51.6508 22.2968 51.8383C22.693 51.9479 23.094 52.0451 23.4903 52.1547C23.6597 52.2023 23.7289 52.2064 23.6669 52.0203C23.5308 51.6294 23.3327 51.2592 23.168 50.8807C23.0272 50.556 22.8673 50.2375 22.7216 49.9169C22.5385 49.5685 22.3255 49.2325 22.0843 48.9117C21.6932 48.3045 21.2326 47.7329 20.7094 47.2055C20.5973 47.0958 20.6641 46.9863 20.6593 46.8766C20.6784 46.8332 20.6975 46.7918 20.7142 46.7484C20.8574 46.6946 20.9243 46.7339 21.0269 46.8477C21.2487 47.0855 21.4879 47.3107 21.743 47.5219C22.1207 47.8542 22.4686 48.211 22.7837 48.5891C23.0221 48.8966 23.2374 49.2172 23.4282 49.5488C23.6979 49.9624 23.939 50.376 24.1658 50.8124C24.5081 51.4013 24.8125 52.0061 25.0776 52.6242C25.1502 52.7674 25.2848 52.8803 25.4523 52.9386C25.9035 53.133 26.2329 53.4598 26.6124 53.7348C26.8177 53.8838 27.011 54.043 27.2235 54.1878C27.5212 54.4028 27.7803 54.6552 27.9921 54.9365C28.1353 55.1164 28.3167 55.2653 28.4695 55.4453C28.6091 55.6505 28.7227 55.8682 28.8084 56.0947C28.8824 56.2456 28.5697 56.7958 28.3955 56.8537C28.3264 56.8716 28.2521 56.8665 28.1871 56.8393C28.1222 56.8121 28.0714 56.7649 28.0446 56.7068C27.6465 56.095 27.1657 55.5264 26.6124 55.013C26.0911 54.5119 25.4918 54.0761 24.8317 53.7183C24.3348 53.4529 23.8077 53.2325 23.2587 53.0606C22.9245 52.9634 22.619 52.8103 22.2801 52.7379C21.564 52.5808 20.8789 52.3243 20.1509 52.1961C20.0101 52.1733 20.0196 52.1071 20.0196 52.0265C20.1771 51.9065 20.0268 51.7535 20.0626 51.6191Z" fill="#E38F15"/>
<path d="M47.9063 92.0898C43.4459 92.0898 41.9355 96.0301 41.9355 96.0301C41.9355 96.0301 40.4317 92.0898 35.9646 92.0898C31.4976 92.0898 28.8195 96.3207 28.8195 99.8097C28.8195 105.656 41.931 114.558 41.931 114.558C41.931 114.558 55.0403 105.652 55.0403 99.8097C55.0514 96.3273 52.3667 92.0898 47.9063 92.0898Z" fill="url(#paint3_linear_271_16277)"/>
<path d="M82.962 52.85C82.962 53.7166 82.2529 54.4257 81.3863 54.4257H79.8107V56.0013C79.8107 56.8679 79.1016 57.577 78.235 57.577C77.3684 57.577 76.6594 56.8679 76.6594 56.0013V54.4257H75.0837C74.2171 54.4257 73.5081 53.7166 73.5081 52.85C73.5081 51.9834 74.2171 51.2743 75.0837 51.2743H76.6594V49.6987C76.6594 48.8321 77.3684 48.123 78.235 48.123C79.1016 48.123 79.8107 48.8321 79.8107 49.6987V51.2743H81.3863C82.2529 51.2743 82.962 51.9834 82.962 52.85ZM79.0543 60.6495C79.5428 62.1621 79.8107 63.785 79.8107 65.4552C79.8107 74.1528 72.7517 81.2117 64.0541 81.2117C55.3566 81.2117 48.2976 74.1528 48.2976 65.4552C48.2976 56.7576 55.3566 49.6987 64.0541 49.6987C66.4176 49.6987 68.6551 50.2344 70.6719 51.1798C70.4828 51.6998 70.3568 52.2513 70.3568 52.85C70.3568 54.9771 71.7748 56.7891 73.7129 57.3721C74.0076 58.3422 74.6062 59.1919 75.4203 59.7962C76.2345 60.4004 77.2211 60.7271 78.235 60.7283C78.5186 60.7283 78.7865 60.6967 79.0543 60.6495ZM56.1759 61.5161C56.1759 62.8239 57.2316 63.8796 58.5394 63.8796C59.8472 63.8796 60.9028 62.8239 60.9028 61.5161C60.9028 60.2083 59.8472 59.1526 58.5394 59.1526C57.2316 59.1526 56.1759 60.2083 56.1759 61.5161ZM70.8452 68.6065H57.2631C56.6643 68.6065 56.2704 69.2683 56.5698 69.7882C58.0667 72.3723 60.8556 74.1213 64.0541 74.1213C67.2527 74.1213 70.0416 72.3723 71.5385 69.7882C71.6066 69.6674 71.6418 69.5309 71.6406 69.3922C71.6394 69.2536 71.6018 69.1176 71.5317 68.998C71.4615 68.8784 71.3612 68.7793 71.2407 68.7106C71.1203 68.6419 70.9839 68.606 70.8452 68.6065V68.6065ZM71.9324 61.5161C71.9324 60.2083 70.8767 59.1526 69.5689 59.1526C68.2611 59.1526 67.2055 60.2083 67.2055 61.5161C67.2055 62.8239 68.2611 63.8796 69.5689 63.8796C70.8767 63.8796 71.9324 62.8239 71.9324 61.5161Z" fill="url(#paint4_linear_271_16277)"/>
<path d="M69.9345 18.337C69.9345 20.6131 69.9345 22.8893 69.9345 25.1663C69.9345 25.1974 69.9335 25.2285 69.9345 25.2595C69.9377 25.3896 69.9878 25.4944 70.135 25.5245C70.2884 25.5565 70.3908 25.4867 70.4544 25.3595C70.658 24.9538 74.8568 21.2683 75.5573 21.1761C76.8675 21.0033 77.9678 22.205 77.5335 23.3717C77.0167 24.7626 72.9119 29.5672 71.5454 31.4075C70.0776 33.3846 68.1076 34.6795 65.5875 35.2405C60.3489 36.4062 54.9527 33.239 53.8555 28.3306C53.7104 27.6842 53.6332 27.0125 53.6311 26.3515C53.6238 22.6951 53.6499 19.0378 53.6655 15.3805C53.6676 14.902 53.6728 14.4225 53.6791 13.944C53.6906 13.0423 54.4109 12.3085 55.3526 12.2415C56.3224 12.1716 57.167 12.7715 57.3277 13.6625C57.3716 13.9061 57.3653 14.1585 57.3737 14.407C57.4593 16.918 57.5417 19.429 57.6263 21.941C57.6284 21.9973 57.6221 22.0555 57.6367 22.1079C57.6722 22.236 57.7641 22.3166 57.9113 22.3069C58.0554 22.2972 58.142 22.2147 58.1535 22.0768C58.1587 22.0215 58.1545 21.9652 58.1525 21.9089C58.0867 19.33 58.0209 16.751 57.9541 14.1721C57.9228 12.9782 57.8842 11.7853 57.8602 10.5914C57.8424 9.70719 58.5523 8.95883 59.4658 8.87536C60.4617 8.78509 61.324 9.35388 61.49 10.2488C61.5558 10.6011 61.5401 10.9671 61.5495 11.3262C61.6341 14.6399 61.7155 17.9536 61.7969 21.2673C61.8021 21.476 61.9023 21.5964 62.0662 21.5944C62.2312 21.5925 62.3293 21.4712 62.3241 21.2615C62.2594 18.669 62.1915 16.0764 62.1299 13.4839C62.0955 12.0542 62.0642 10.6235 62.0464 9.19372C62.036 8.33375 62.7302 7.59801 63.6144 7.49707C64.5832 7.38642 65.433 7.91153 65.6648 8.77247C65.7065 8.92777 65.7222 9.09181 65.7222 9.25196C65.7253 13.2325 65.7243 17.213 65.7243 21.1936C65.7243 21.2683 65.7201 21.344 65.7305 21.4168C65.7493 21.5537 65.8527 21.6478 65.9873 21.6245C66.0834 21.608 66.1763 21.511 66.241 21.4304C66.2776 21.3848 66.2546 21.2984 66.2546 21.2295C66.2546 17.9827 66.2546 14.736 66.2556 11.4893C66.2556 10.6099 66.9467 9.88675 67.8821 9.78095C68.806 9.67613 69.6736 10.243 69.8834 11.1C69.9231 11.2621 69.9325 11.433 69.9335 11.5999C69.9356 13.8459 69.9345 16.092 69.9345 18.337Z" fill="url(#paint5_linear_271_16277)"/>
<path fill-rule="evenodd" clip-rule="evenodd" d="M97.8433 95.7931C97.8406 95.7478 97.8337 95.703 97.8227 95.659C97.8106 95.5943 97.7889 95.5318 97.7583 95.4735L97.6346 95.2905C97.594 95.2336 97.5569 95.1742 97.5238 95.1127C97.4914 95.0562 97.4746 94.9922 97.4748 94.9271C97.4749 94.8446 97.4888 94.7627 97.516 94.6848C97.5385 94.6111 97.5627 94.5456 97.5871 94.4791L97.6062 94.4271L97.6063 94.4269C97.6372 94.3419 97.6681 94.2569 97.6964 94.1694C97.7227 94.0857 97.7382 93.9991 97.7428 93.9116C97.7539 93.8243 97.7423 93.7355 97.7093 93.6539C97.6751 93.5661 97.6585 93.4724 97.6603 93.3781C97.6617 93.2695 97.6755 93.1614 97.7016 93.056C97.7277 92.9593 97.7415 92.8597 97.7428 92.7596C97.7439 92.7025 97.7316 92.646 97.7067 92.5946L97.6268 92.4529C97.5967 92.3988 97.57 92.3428 97.547 92.2853C97.5201 92.2075 97.5078 92.1254 97.5109 92.0431C97.5104 91.9174 97.5173 91.7917 97.5315 91.6668C97.5521 91.5353 97.5521 91.4065 97.5521 91.2776C97.5537 91.1907 97.5433 91.104 97.5212 91.0199C97.5031 90.9535 97.4771 90.8894 97.4439 90.8292L97.3511 90.6745C97.3185 90.6231 97.2909 90.5688 97.2686 90.5122C97.2012 90.3544 97.157 90.1877 97.1372 90.0173C97.114 89.8317 97.0959 89.6488 97.0805 89.4658C97.0633 89.2836 97.0401 89.1118 97.0109 88.9503C96.9871 88.8062 96.9288 88.67 96.8408 88.5534C96.7924 88.489 96.7361 88.431 96.6732 88.3807C96.6087 88.3269 96.5397 88.2786 96.4671 88.2364C96.4001 88.1977 96.3303 88.1641 96.2583 88.1359C96.2078 88.1134 96.1537 88.1003 96.0985 88.0972C96.0172 88.0974 95.9361 88.1052 95.8562 88.1204L95.5985 88.1771L95.3537 88.2312C95.2782 88.247 95.2014 88.2556 95.1243 88.257C95.01 88.2538 94.8966 88.2365 94.7867 88.2055C94.6887 88.1745 94.6011 88.1436 94.516 88.1101L94.2738 88.0251C94.1852 87.9984 94.0931 87.9853 94.0006 87.9864C93.8262 87.9863 93.6527 88.0106 93.4851 88.0586C93.334 88.102 93.1892 88.1652 93.0547 88.2467C92.9416 88.3136 92.842 88.401 92.7609 88.5044C92.6997 88.5772 92.6627 88.6673 92.6552 88.7622V88.9013C92.6527 89.0009 92.6281 89.0986 92.5831 89.1874C92.5341 89.2905 92.48 89.3988 92.4207 89.5044C92.3614 89.6101 92.3073 89.7209 92.2583 89.8317C92.2127 89.9331 92.1881 90.0427 92.1861 90.1539C92.1834 90.1968 92.1834 90.2399 92.1861 90.2828C92.19 90.3205 92.19 90.3585 92.1861 90.3962C92.1875 90.4426 92.1729 90.488 92.1449 90.525C92.1188 90.5627 92.0876 90.5965 92.0521 90.6256L91.9516 90.7158C91.9215 90.7445 91.9 90.7811 91.8898 90.8214C91.854 90.9193 91.8323 91.0216 91.8253 91.1256V91.4451V91.7699C91.8207 91.8747 91.7998 91.9782 91.7635 92.0766C91.7471 92.1282 91.7228 92.1769 91.6913 92.2209C91.6715 92.2497 91.6505 92.2772 91.6291 92.3052L91.6291 92.3052L91.6291 92.3052L91.6011 92.342C91.5723 92.3808 91.5472 92.4222 91.5264 92.4658C91.5045 92.5161 91.494 92.5707 91.4954 92.6255C91.4916 92.6813 91.4916 92.7373 91.4954 92.7931C91.5056 92.8449 91.5107 92.8975 91.5109 92.9503C91.5121 93.0389 91.4945 93.1267 91.4593 93.208C91.4287 93.2781 91.3879 93.3432 91.3382 93.4013C91.2992 93.4481 91.2561 93.4912 91.2093 93.5302C91.1835 93.5479 91.1616 93.5707 91.1449 93.5972C91.1107 93.6799 91.0864 93.7664 91.0728 93.8549C91.0562 93.9504 91.045 94.0468 91.0393 94.1436C91.0238 94.2415 91.0238 94.3523 91.0238 94.4374V94.6951C91.0155 94.8578 90.9869 95.0189 90.9387 95.1745C90.8898 95.3188 90.8331 95.458 90.7712 95.5946C90.7094 95.7312 90.6449 95.8601 90.5805 95.9889C90.5138 96.1176 90.4569 96.2511 90.4104 96.3884C90.4118 96.3917 90.4125 96.3952 90.4125 96.3987C90.4125 96.4023 90.4118 96.4058 90.4104 96.409C90.4089 96.4158 90.4089 96.4229 90.4104 96.4297C90.4103 96.4663 90.421 96.5022 90.4413 96.5327C90.4612 96.5635 90.4719 96.5992 90.4722 96.6358C90.4718 96.6653 90.4608 96.6936 90.4413 96.7157L90.3717 96.7956L90.297 96.8755C90.2741 96.8949 90.2563 96.9197 90.2454 96.9477C90.2416 96.9613 90.2399 96.9764 90.238 96.9927V96.9928C90.235 97.0198 90.2315 97.0506 90.2171 97.0843C90.2042 97.1144 90.2032 97.1461 90.2023 97.1786C90.2015 97.2044 90.2008 97.2307 90.1939 97.257C90.1784 97.3162 90.1784 97.3755 90.1784 97.4296V97.5585C90.176 97.6337 90.1901 97.7084 90.2197 97.7776C90.2485 97.836 90.2859 97.8899 90.3305 97.9374L90.4774 98.1075C90.5392 98.181 90.5936 98.2604 90.6398 98.3446C90.6556 98.3808 90.6765 98.4146 90.7016 98.4451C90.7438 98.5003 90.7913 98.5512 90.8434 98.5972C90.9039 98.6511 90.9705 98.6978 91.0418 98.7363C91.117 98.7769 91.2012 98.7982 91.2867 98.7982C91.3472 98.8013 91.4076 98.7897 91.4627 98.7646C91.5179 98.7395 91.5662 98.7015 91.6037 98.6539C91.6877 98.5476 91.7539 98.4283 91.7996 98.3008C91.8555 98.1544 91.902 98.0046 91.9387 97.8523C91.9731 97.7077 92.0196 97.5663 92.0779 97.4296C92.1039 97.3692 92.134 97.3107 92.1681 97.2544C92.2021 97.195 92.2391 97.1374 92.2789 97.0817L92.3743 96.9425L92.431 96.8652C92.4624 96.7561 92.4806 96.6436 92.4851 96.5302C92.488 96.4909 92.4907 96.4507 92.4934 96.4101C92.5004 96.3065 92.5075 96.2004 92.5186 96.1023C92.5341 95.9657 92.5521 95.8266 92.5753 95.708C92.5837 95.617 92.6227 95.5316 92.6861 95.4657C92.7356 95.4353 92.793 95.42 92.8511 95.4219H93.1269C93.2992 95.4216 93.4713 95.4319 93.6423 95.4529C93.8047 95.4735 93.9516 95.4967 94.0882 95.5199L94.4568 95.5894C94.5561 95.609 94.657 95.6194 94.7583 95.6204C94.8325 95.6274 94.907 95.6092 94.9696 95.5688C95.0131 95.5353 95.0536 95.4983 95.0908 95.458C95.1304 95.4161 95.1755 95.3797 95.2248 95.3498C95.3041 95.3085 95.3935 95.2906 95.4825 95.2982C95.5135 95.2982 95.5444 95.3291 95.5753 95.3936C95.6121 95.4765 95.6406 95.5628 95.6604 95.6513C95.6902 95.7617 95.7143 95.8735 95.7325 95.9864C95.7531 96.1075 95.7738 96.2286 95.7918 96.3446L95.8013 96.4053C95.816 96.4984 95.8297 96.5857 95.8382 96.6642C95.8417 96.6969 95.8456 96.7272 95.8491 96.7549V96.7549C95.8558 96.8081 95.8614 96.852 95.8614 96.8858C95.8617 96.9573 95.8522 97.0284 95.833 97.0972C95.8183 97.1423 95.8087 97.189 95.8047 97.2364C95.8411 97.3749 95.911 97.5023 96.0083 97.6075C96.1044 97.7067 96.2126 97.7933 96.3305 97.8652C96.4352 97.932 96.5477 97.9857 96.6655 98.025C96.751 98.0496 96.8394 98.0626 96.9284 98.0637H97.1449C97.1691 98.0612 97.1925 98.0534 97.2134 98.0409C97.2343 98.0285 97.2523 98.0116 97.266 97.9915C97.308 97.9261 97.3402 97.8549 97.3614 97.7802C97.387 97.7012 97.425 97.5903 97.4739 97.4476L97.5057 97.3549C97.5206 97.3114 97.536 97.2669 97.5519 97.2209L97.552 97.2204C97.5719 97.163 97.5925 97.1033 97.614 97.0405C97.6526 96.9271 97.6887 96.8111 97.7222 96.6848C97.7578 96.5618 97.787 96.4371 97.8098 96.3111C97.8321 96.1895 97.8434 96.0662 97.8433 95.9425C97.846 95.8928 97.846 95.8428 97.8433 95.7931ZM95.199 93.7106C95.2026 93.7661 95.1881 93.8212 95.1578 93.8678C95.1095 93.894 95.0572 93.9122 95.0031 93.9219L94.6861 93.9761L94.3537 94.025L94.1526 94.0508C93.9725 94.0784 93.7909 94.0956 93.6088 94.1023C93.4387 94.1092 93.2738 94.1247 93.114 94.1487C93.166 93.8451 93.2357 93.5448 93.3227 93.2493C93.4078 92.9632 93.5006 92.6822 93.5985 92.4091C93.6965 92.1359 93.7995 91.8652 93.9026 91.5998C94.0057 91.3343 94.1037 91.0637 94.1939 90.7879C94.2528 90.8085 94.3022 90.8497 94.333 90.9039C94.3619 90.9611 94.3836 91.0217 94.3975 91.0843C94.4013 91.1009 94.4058 91.1179 94.4103 91.1351C94.4241 91.1874 94.4387 91.2427 94.4387 91.3008C94.4506 91.378 94.4722 91.4533 94.5031 91.525L94.509 91.5348C94.5267 91.5649 94.5606 91.6223 94.6088 91.6797C94.6629 91.7441 94.7222 91.8343 94.7841 91.9374C94.8481 92.0466 94.9041 92.1603 94.9516 92.2776C95.0013 92.3933 95.0276 92.5177 95.0289 92.6436C95.029 92.6926 95.0212 92.7414 95.0057 92.7879C94.9928 92.8323 94.9858 92.8783 94.9851 92.9245C94.9909 92.9673 95.003 93.009 95.0212 93.0482C95.0444 93.1101 95.0676 93.1745 95.0934 93.2518C95.1191 93.3292 95.1423 93.4065 95.1655 93.4889C95.1865 93.561 95.1978 93.6356 95.199 93.7106ZM89.7744 90.4838C89.8028 90.3858 89.8176 90.2843 89.8182 90.1823L89.8079 89.9219C89.8079 89.6874 89.7976 89.4683 89.777 89.2622C89.7615 89.0776 89.7199 88.8963 89.6533 88.7235C89.6 88.583 89.5112 88.4586 89.3955 88.3627C89.2602 88.2674 89.0969 88.2202 88.9316 88.2287C88.8358 88.2056 88.7385 88.1892 88.6404 88.1797C88.545 88.19 88.4522 88.2029 88.362 88.2209L88.1172 88.2673C88.0564 88.2831 87.9943 88.2935 87.9316 88.2982C87.8309 88.3204 87.728 88.3308 87.6249 88.3292C87.538 88.3245 87.451 88.3341 87.3672 88.3575C87.29 88.3817 87.2235 88.4317 87.179 88.4993C87.1136 88.6103 87.0731 88.7344 87.0605 88.8627C87.0514 88.8812 87.0462 88.9014 87.045 88.922V88.9812C87.0489 89.1256 87.0688 89.2691 87.1043 89.4091C87.1449 89.5874 87.1648 89.7699 87.1636 89.9529C87.1637 90.1139 87.1542 90.2749 87.1352 90.4348C87.1191 90.5554 87.1096 90.6767 87.1069 90.7982C87.1063 90.9069 87.13 91.0144 87.1765 91.1127C87.2229 91.2106 87.2744 91.3137 87.3259 91.4168C87.3775 91.5199 87.4265 91.6281 87.4729 91.7467C87.5206 91.8708 87.5442 92.0029 87.5424 92.1359V92.3343V92.5353C87.543 92.6604 87.5525 92.7853 87.5708 92.909C87.5834 93.0011 87.5973 93.0893 87.6116 93.18L87.6301 93.2982C87.6412 93.3704 87.6515 93.4426 87.6619 93.5152L87.662 93.5153C87.6709 93.5775 87.6798 93.6399 87.6893 93.7029C87.7071 93.8387 87.7157 93.9756 87.7151 94.1126C87.7191 94.1736 87.7191 94.2347 87.7151 94.2956C87.7131 94.3181 87.709 94.3409 87.7049 94.3644L87.7049 94.3644V94.3644C87.6985 94.4001 87.6919 94.4371 87.6919 94.476C87.6223 94.2931 87.5502 94.1075 87.4703 93.9168C87.3904 93.7261 87.3053 93.5353 87.2125 93.3472C87.122 93.1632 87.0187 92.9858 86.9033 92.8163C86.7944 92.6569 86.7077 92.4835 86.6455 92.3008C86.5992 92.1696 86.5664 92.034 86.5476 91.8962C86.5337 91.7824 86.5033 91.6713 86.4574 91.5663C86.4103 91.4694 86.3311 91.392 86.2332 91.3472C86.0736 91.2839 85.902 91.2566 85.7306 91.2673C85.6102 91.2587 85.4896 91.2809 85.3801 91.3317C85.3098 91.372 85.2539 91.4333 85.2203 91.507C85.1871 91.5899 85.1638 91.6764 85.1507 91.7647C85.1359 91.8693 85.1136 91.9727 85.0837 92.074C85.0374 92.2169 84.9832 92.3572 84.9213 92.4941C84.8543 92.6462 84.7821 92.8034 84.7074 92.9606L84.7022 92.9715L84.7022 92.9716C84.6291 93.1254 84.5537 93.284 84.4832 93.4426C84.411 93.6049 84.3543 93.7338 84.2899 93.9065C84.2254 94.0791 84.1662 94.2415 84.1146 94.4219C84.0631 94.6023 84.0115 94.7724 83.9574 94.9374C83.9033 95.1023 83.8492 95.2647 83.7925 95.4193C83.7385 95.5661 83.6748 95.709 83.6017 95.8472C83.5774 95.6765 83.5671 95.5041 83.5708 95.3317C83.5734 95.1517 83.5631 94.9716 83.5399 94.7931C83.5315 94.7117 83.5151 94.6315 83.4909 94.5534C83.4714 94.4898 83.4601 94.424 83.4574 94.3575C83.4672 94.2837 83.4955 94.2136 83.5399 94.1539C83.5835 94.0967 83.6183 94.0333 83.643 93.9657C83.6686 93.8452 83.6849 93.7228 83.6919 93.5998L83.6942 93.5686C83.7041 93.4324 83.7159 93.2702 83.7254 93.1745C83.7358 93.0714 83.7512 92.9606 83.7744 92.8395C83.7963 92.7274 83.8075 92.6135 83.8079 92.4993C83.8079 92.3889 83.794 92.2789 83.7667 92.1719C83.7408 92.0647 83.7269 91.9549 83.7254 91.8446C83.7254 91.778 83.7287 91.7047 83.7323 91.6259L83.7323 91.6258V91.6258C83.7364 91.534 83.7409 91.4346 83.7409 91.3292V90.739V90.3524C83.7332 90.2408 83.7142 90.1302 83.6842 90.0225C83.664 89.9367 83.6233 89.8571 83.5657 89.7905C83.5401 89.7621 83.5086 89.7398 83.4734 89.7251C83.4382 89.7104 83.4002 89.7037 83.3621 89.7055C83.2486 89.7076 83.1362 89.7285 83.0296 89.7673C82.9077 89.8091 82.7796 89.83 82.6507 89.8292H82.4342H82.2177C82.0704 89.8374 81.9248 89.8651 81.7847 89.9116L81.3286 90.056C81.2604 90.0772 81.1905 90.0927 81.1198 90.1024L80.8621 90.1436L80.8527 90.1454C80.7743 90.16 80.7076 90.1725 80.6481 90.1874C80.6054 90.1927 80.5641 90.2067 80.527 90.2287C80.5012 90.2698 80.4828 90.3151 80.4729 90.3627C80.4594 90.4128 80.4473 90.4673 80.4345 90.5251L80.4213 90.5843L80.4137 90.6174C80.3974 90.6876 80.3801 90.7619 80.3801 90.8421C80.3681 90.9274 80.3621 91.0136 80.3621 91.0998C80.362 91.2374 80.3758 91.3747 80.4033 91.5096C80.4316 91.659 80.4626 91.7878 80.4935 91.9167L80.4935 91.9168L80.5159 92.0095L80.5159 92.0095L80.5159 92.0095C80.5391 92.1053 80.5616 92.1981 80.5811 92.2879C80.6075 92.3924 80.6214 92.4997 80.6224 92.6075V92.8137V93.0276C80.6226 93.1262 80.6321 93.2246 80.6507 93.3214C80.6688 93.4142 80.6894 93.5121 80.7126 93.5972C80.7358 93.6822 80.7564 93.7699 80.7744 93.8549C80.792 93.9399 80.8032 94.026 80.8079 94.1126C80.8084 94.1674 80.8014 94.2221 80.7873 94.275C80.7744 94.3282 80.7675 94.3827 80.7667 94.4374C80.7669 94.5313 80.7791 94.6249 80.8028 94.7157C80.8168 94.777 80.8343 94.8358 80.8514 94.8931L80.8514 94.8931L80.8514 94.8932C80.8595 94.9203 80.8675 94.947 80.8749 94.9735C80.8881 95.0202 80.902 95.066 80.9159 95.1115C80.9265 95.1464 80.937 95.1811 80.9471 95.2157C80.969 95.2867 80.9803 95.3605 80.9806 95.4348C80.9793 95.4819 80.9724 95.5286 80.96 95.574C80.9471 95.623 80.9342 95.6719 80.9162 95.7183C80.906 95.7446 80.8974 95.7692 80.8891 95.7931L80.8891 95.7931C80.8827 95.8114 80.8765 95.8293 80.8698 95.8472C80.8585 95.8787 80.8516 95.9117 80.8492 95.9451C80.8539 96.0212 80.8677 96.0965 80.8904 96.1693L80.9832 96.4812C81.0202 96.6007 81.0511 96.722 81.076 96.8446C81.1036 96.9603 81.1183 97.0787 81.1198 97.1977V97.4554C81.1117 97.6086 81.1372 97.7616 81.1945 97.9039C81.2389 98.0036 81.3138 98.0866 81.4084 98.141C81.5104 98.1985 81.6223 98.2361 81.7383 98.2518C81.8672 98.2724 82.009 98.2982 82.1662 98.3317C82.2485 98.3448 82.3284 98.37 82.4033 98.4064C82.477 98.443 82.5581 98.4624 82.6404 98.4631C82.7275 98.4604 82.814 98.4474 82.8981 98.4245C82.9962 98.3992 83.0962 98.382 83.1971 98.3729C83.3491 98.3549 83.4676 98.3549 83.5553 98.3549H83.5553C83.6288 98.3551 83.7019 98.3438 83.7718 98.3214C83.8352 98.2976 83.8905 98.2566 83.9316 98.2028C83.9987 98.1214 84.0599 98.0353 84.1146 97.9451C84.22 97.7837 84.3065 97.6108 84.3724 97.4296C84.434 97.2512 84.5117 97.0787 84.6043 96.9142C84.6274 96.8754 84.6603 96.8434 84.6997 96.8214C84.7457 96.791 84.7858 96.7526 84.8182 96.708C84.8627 96.6248 84.9015 96.5387 84.9342 96.4503L84.9408 96.433C84.9852 96.3169 85.0322 96.1942 85.0863 96.0714C85.1349 95.9546 85.1908 95.8409 85.2538 95.7312C85.3131 95.6307 85.3672 95.5766 85.4239 95.5766C85.4316 95.5766 85.4574 95.6023 85.5012 95.6487C85.545 95.6951 85.5914 95.7492 85.6404 95.8085L85.777 95.9864C85.8059 96.0225 85.8325 96.0604 85.8569 96.0998C85.8849 96.1402 85.9018 96.1873 85.9059 96.2364C85.909 96.2828 85.9231 96.3279 85.9471 96.3678C85.9567 96.3806 85.9691 96.391 85.9835 96.3982C85.9978 96.4053 86.0136 96.409 86.0296 96.409C86.0651 96.4114 86.0988 96.4259 86.1249 96.4503C86.2083 96.5307 86.2772 96.6248 86.3285 96.7286C86.3699 96.8178 86.4044 96.91 86.4316 97.0044C86.4574 97.1049 86.4806 97.1874 86.5038 97.2621C86.5249 97.3335 86.56 97.4001 86.6069 97.458C86.6491 97.5129 86.7005 97.56 86.7589 97.5972L86.7909 97.6181L86.7909 97.6182L86.791 97.6182C86.8634 97.6659 86.9381 97.715 87.0167 97.7621C87.0998 97.8157 87.1859 97.8648 87.2744 97.909C87.3332 97.9442 87.3978 97.9686 87.4651 97.9812C87.5189 97.9778 87.5714 97.9638 87.6198 97.9399C87.6828 97.9142 87.7501 97.9003 87.8182 97.8987H88.1198H88.4935C88.628 97.8988 88.7623 97.8893 88.8955 97.8704C88.9983 97.8625 89.0959 97.8218 89.1739 97.7544C89.2203 97.695 89.2513 97.6251 89.2641 97.5508C89.2879 97.4428 89.3051 97.3335 89.3156 97.2235C89.3362 97.1049 89.3362 96.9838 89.3362 96.8652V96.5688C89.3368 96.4497 89.3595 96.3317 89.4033 96.2209C89.443 96.1261 89.4648 96.0247 89.4677 95.9219V95.6642V95.4193V94.9039V94.3884C89.4678 94.3021 89.4747 94.2159 89.4883 94.1307C89.5012 94.0508 89.5192 93.9735 89.5373 93.8987C89.5562 93.8266 89.5716 93.7544 89.5837 93.6822C89.5988 93.6059 89.6057 93.5281 89.6043 93.4503C89.6048 93.3691 89.5979 93.288 89.5837 93.208C89.5702 93.1228 89.5634 93.0366 89.5631 92.9503C89.5636 92.83 89.5756 92.71 89.5991 92.592L89.6089 92.542L89.6089 92.5419C89.6289 92.4395 89.6491 92.3357 89.6713 92.2338C89.6971 92.1153 89.7203 91.9942 89.7434 91.873L89.7435 91.873C89.7665 91.7489 89.7777 91.6229 89.777 91.4967C89.7768 91.3795 89.769 91.2624 89.7538 91.1462C89.738 91.0231 89.7303 90.8991 89.7306 90.775C89.7307 90.6763 89.7455 90.5782 89.7744 90.4838ZM106.543 95.8284V95.898C106.542 95.9663 106.535 96.0345 106.522 96.1016C106.507 96.1676 106.499 96.235 106.499 96.3026C106.51 96.4844 106.533 96.6652 106.568 96.8439C106.604 97.0195 106.623 97.1981 106.625 97.3774C106.625 97.485 106.609 97.5919 106.576 97.6944C106.542 97.7917 106.485 97.8799 106.411 97.9521C106.338 98.0139 106.249 98.0525 106.153 98.0629C106.029 98.085 105.909 98.124 105.795 98.1789C105.71 98.2156 105.629 98.2605 105.553 98.3129C105.494 98.3582 105.421 98.3834 105.347 98.3851C105.238 98.3821 105.13 98.3621 105.027 98.3258C104.892 98.2852 104.76 98.237 104.63 98.1815C104.494 98.1248 104.357 98.0629 104.223 98.0011C104.089 97.9392 103.965 97.8748 103.88 97.8207C103.771 97.7679 103.674 97.6933 103.594 97.6016C103.526 97.5126 103.477 97.4097 103.452 97.3001C103.422 97.1621 103.405 97.0213 103.403 96.88V96.2846V95.6583V94.9908V94.4753C103.408 94.306 103.375 94.1377 103.306 93.9831C103.244 93.9359 103.169 93.9113 103.092 93.9135H102.739H102.419H102.12C102.004 93.9162 101.89 93.8924 101.785 93.8439C101.696 93.7985 101.598 93.7746 101.499 93.7743C101.444 93.7784 101.391 93.7952 101.344 93.8233C101.313 93.8469 101.288 93.8785 101.273 93.9147C101.259 93.951 101.254 93.9906 101.259 94.0295C101.26 94.0864 101.264 94.1432 101.272 94.1996C101.272 94.2453 101.282 94.2895 101.291 94.3314L101.291 94.3315C101.294 94.3463 101.298 94.3607 101.3 94.3748C101.304 94.3921 101.307 94.4089 101.31 94.4251L101.31 94.4252C101.316 94.4598 101.322 94.4919 101.329 94.5217C101.335 94.5506 101.339 94.5799 101.342 94.6093C101.342 94.7794 101.342 94.9444 101.321 95.1042C101.3 95.264 101.3 95.4057 101.3 95.5243C101.302 95.6416 101.312 95.7587 101.329 95.8748L101.345 95.9992C101.358 96.0946 101.371 96.1929 101.385 96.2949C101.406 96.4418 101.427 96.5939 101.445 96.7511C101.463 96.899 101.472 97.0479 101.473 97.197C101.48 97.3949 101.45 97.5924 101.385 97.7794C101.333 97.9232 101.236 98.0468 101.11 98.1325C100.96 98.2255 100.792 98.2853 100.617 98.3078C100.376 98.3414 100.132 98.357 99.888 98.3542C99.7564 98.3549 99.6275 98.3173 99.5169 98.2459C99.4048 98.1735 99.3026 98.0869 99.2128 97.9882C99.1347 97.9055 99.0655 97.8148 99.0066 97.7176C98.9686 97.6637 98.943 97.6021 98.9319 97.5372C98.9312 97.4807 98.9382 97.4243 98.9525 97.3696C98.9654 97.3104 98.9808 97.2511 98.9989 97.1892L98.9989 97.1892C99.0169 97.1273 99.0349 97.0655 99.0478 97.0037C99.0606 96.9461 99.0675 96.8874 99.0684 96.8284C99.0691 96.7485 99.0595 96.6688 99.0401 96.5913L99.0401 96.5912L99.0401 96.5912C99.022 96.5113 99.004 96.4315 98.9834 96.3542C98.9661 96.2892 98.9505 96.2223 98.9353 96.1567L98.9267 96.1196C98.9119 96.0467 98.9041 95.9725 98.9035 95.898C98.904 95.7698 98.9178 95.6419 98.9447 95.5166C98.9715 95.3912 98.9853 95.2633 98.986 95.1351V94.5887C98.986 94.4959 98.9822 94.4025 98.9784 94.3078V94.3078C98.9745 94.2105 98.9705 94.112 98.9705 94.0114V93.715V93.715C98.9705 93.6196 98.9705 93.5166 98.9937 93.4109C99.0002 93.3688 99.017 93.3289 99.0427 93.2949C99.067 93.2613 99.0789 93.2203 99.0762 93.1789C99.0779 93.0913 99.0639 93.004 99.0349 92.9212C99.0054 92.8386 98.9914 92.7512 98.9937 92.6635V92.6634C98.9937 92.5088 98.9937 92.331 99.0221 92.1326C99.0377 92.0227 99.0479 91.9121 99.0582 91.7999L99.0582 91.7998C99.0666 91.7092 99.075 91.6175 99.0865 91.5243C99.1123 91.3155 99.1329 91.1068 99.1535 90.898C99.1741 90.6893 99.1793 90.4934 99.1793 90.3078C99.1784 90.1897 99.1637 90.072 99.1355 89.9573C99.1057 89.8472 99.0901 89.7337 99.0891 89.6197C99.0951 89.5489 99.1143 89.4798 99.1458 89.4161C99.1855 89.3219 99.2404 89.2349 99.3081 89.1583C99.3816 89.0725 99.4687 88.9994 99.5659 88.9418C99.6729 88.8768 99.7963 88.8437 99.9215 88.8465C100.048 88.844 100.174 88.8614 100.295 88.898C100.389 88.9268 100.477 88.9732 100.553 89.0346C100.615 89.0815 100.664 89.1425 100.697 89.2125C100.727 89.27 100.742 89.3335 100.744 89.398C100.743 89.504 100.736 89.6099 100.723 89.715C100.711 89.7926 100.704 89.871 100.702 89.9496C100.712 90.0172 100.731 90.0831 100.759 90.1454C100.793 90.2209 100.815 90.3007 100.826 90.3826C100.856 90.5644 100.875 90.7476 100.885 90.9315C100.885 91.0495 100.893 91.1629 100.9 91.2718C100.904 91.346 100.909 91.4182 100.911 91.4882C100.915 91.614 100.92 91.7261 100.925 91.8246L100.929 91.9289C100.924 91.9981 100.934 92.0675 100.958 92.1326C101.02 92.1774 101.095 92.2025 101.172 92.2047C101.28 92.2202 101.403 92.2331 101.543 92.2408H101.968H102.355L102.612 92.2743C102.705 92.2887 102.799 92.2956 102.893 92.2949C103.035 92.2949 103.128 92.2588 103.172 92.1841C103.22 92.0958 103.243 91.996 103.239 91.8954C103.238 91.7737 103.228 91.6521 103.208 91.532C103.19 91.4342 103.179 91.3351 103.177 91.2357C103.176 91.1711 103.191 91.1074 103.22 91.0501C103.25 90.9992 103.266 90.9415 103.267 90.8826C103.267 90.6447 103.251 90.4071 103.22 90.1712C103.193 89.948 103.178 89.7234 103.177 89.4985C103.18 89.3954 103.192 89.2928 103.213 89.1918C103.24 89.0678 103.286 88.9487 103.349 88.8388C103.413 88.7226 103.501 88.6215 103.607 88.5424C103.732 88.4554 103.883 88.4119 104.035 88.4187C104.175 88.4207 104.315 88.4406 104.45 88.4779C104.606 88.5156 104.76 88.5647 104.909 88.6248C105.048 88.6796 105.182 88.7478 105.308 88.8284C105.41 88.882 105.499 88.9588 105.566 89.0527C105.61 89.1224 105.64 89.2004 105.653 89.282C105.67 89.3775 105.682 89.4739 105.687 89.5707V89.8877V90.1944C105.687 90.2966 105.698 90.4057 105.71 90.5238C105.714 90.5666 105.719 90.6105 105.723 90.6558L105.729 90.7231L105.729 90.7232C105.743 90.8727 105.757 91.0277 105.775 91.1867C105.795 91.3697 105.821 91.5552 105.854 91.7434C105.884 91.9259 105.927 92.1059 105.983 92.282C106.001 92.3477 106.027 92.4109 106.061 92.4702C106.092 92.5295 106.123 92.5836 106.153 92.6377C106.184 92.6918 106.208 92.7408 106.228 92.7872C106.248 92.8318 106.256 92.8803 106.254 92.9289C106.254 92.9914 106.247 93.0536 106.233 93.1145C106.218 93.1821 106.211 93.2514 106.213 93.3207C106.214 93.5156 106.235 93.7098 106.275 93.9006C106.316 94.1042 106.336 94.3114 106.336 94.5191V94.7331V94.9341C106.337 95.0046 106.347 95.0747 106.365 95.1428C106.383 95.215 106.403 95.2846 106.427 95.3542C106.45 95.4238 106.47 95.4908 106.489 95.5604C106.517 95.6473 106.535 95.7372 106.543 95.8284ZM110.58 89.5488V89.5205C110.564 89.4416 110.537 89.3653 110.5 89.2937C110.467 89.2214 110.427 89.1523 110.381 89.0875C110.339 89.0266 110.289 88.9705 110.235 88.92C110.19 88.8774 110.14 88.841 110.085 88.8117C110.045 88.7999 110.003 88.7913 109.961 88.7859L109.768 88.755L109.539 88.7086C109.46 88.6906 109.383 88.6682 109.307 88.6416C109.245 88.6209 109.186 88.595 109.129 88.5643L108.985 88.4844C108.936 88.4602 108.886 88.4396 108.835 88.4225C108.774 88.4059 108.71 88.3981 108.647 88.3994C108.527 88.395 108.408 88.4063 108.291 88.4329C108.22 88.4522 108.152 88.4836 108.09 88.5256C108.033 88.5673 107.98 88.6148 107.933 88.6674C107.872 88.7366 107.804 88.7988 107.729 88.853C107.661 88.9107 107.582 88.9552 107.497 88.9844C107.438 88.9997 107.384 89.0341 107.345 89.0823C107.286 89.1576 107.245 89.246 107.227 89.3401C107.205 89.4573 107.193 89.5764 107.193 89.6957C107.194 89.8641 107.207 90.0322 107.235 90.1983C107.263 90.3787 107.294 90.5488 107.325 90.7138C107.356 90.8787 107.387 91.0308 107.418 91.1725C107.444 91.2874 107.463 91.4035 107.477 91.5205V92.1803C107.472 92.3082 107.488 92.4361 107.523 92.5591C107.55 92.6366 107.59 92.7089 107.642 92.773C107.685 92.8249 107.733 92.8732 107.784 92.9174C107.835 92.9641 107.878 93.0201 107.91 93.0823C107.957 93.1779 107.989 93.2807 108.003 93.3864C108.021 93.4998 108.032 93.6144 108.034 93.7292C108.034 93.7639 108.035 93.8012 108.036 93.84C108.039 93.9223 108.042 94.0111 108.034 94.0952C108.021 94.2189 108.021 94.3374 108.021 94.4533V94.4535C108.019 94.5304 108.026 94.6073 108.041 94.6828C108.054 94.75 108.061 94.8181 108.062 94.8864C108.061 94.9735 108.049 95.0601 108.026 95.1442C108.005 95.2285 107.993 95.315 107.992 95.4019C107.993 95.4572 108.003 95.512 108.021 95.5643C108.042 95.6205 108.079 95.6695 108.126 95.706C108.193 95.7536 108.268 95.787 108.348 95.804C108.466 95.8326 108.587 95.8456 108.709 95.8426C108.925 95.8524 109.141 95.8254 109.348 95.7627C109.474 95.7252 109.582 95.645 109.655 95.5359C109.72 95.4264 109.757 95.3025 109.763 95.1751C109.771 95.0333 109.789 94.8735 109.809 94.6983C109.82 94.5977 109.843 94.499 109.879 94.4045C109.915 94.3186 109.934 94.2268 109.936 94.1339C109.934 94.0868 109.927 94.0401 109.915 93.9947C109.902 93.9486 109.895 93.9009 109.894 93.8529C109.893 93.8074 109.9 93.7619 109.915 93.7189C109.928 93.6786 109.944 93.639 109.961 93.6004C109.981 93.5604 109.997 93.5191 110.01 93.4767C110.024 93.4289 110.031 93.3794 110.031 93.3297V93.139V92.9638C110.031 92.9463 110.03 92.9282 110.03 92.9096C110.029 92.8708 110.027 92.8295 110.031 92.7859C110.036 92.7215 110.041 92.6571 110.049 92.5926C110.057 92.5282 110.064 92.4663 110.077 92.4071C110.086 92.3556 110.098 92.3048 110.113 92.255C110.133 92.2049 110.157 92.1566 110.186 92.1107L110.281 91.9715C110.313 91.9253 110.342 91.8771 110.369 91.8272C110.398 91.7718 110.417 91.7116 110.425 91.6493C110.449 91.5052 110.463 91.3597 110.469 91.2138V90.7473C110.467 90.5073 110.485 90.2676 110.523 90.0308C110.556 89.8721 110.575 89.7108 110.58 89.5488ZM110.083 98.5076C110.139 98.4674 110.188 98.4187 110.229 98.3632L110.219 98.3529C110.262 98.2548 110.282 98.1482 110.278 98.0411C110.282 97.8253 110.236 97.6117 110.142 97.4174C110.06 97.2509 109.952 97.0986 109.822 96.9663C109.716 96.8595 109.595 96.7676 109.464 96.6931C109.385 96.6445 109.298 96.6129 109.206 96.6003C109.145 96.5999 109.083 96.6068 109.023 96.621L108.876 96.6674L108.732 96.7215C108.676 96.7439 108.618 96.7612 108.559 96.773C108.454 96.7962 108.341 96.8168 108.256 96.8322L108.255 96.8323C108.239 96.8352 108.223 96.8382 108.206 96.8411C108.136 96.8537 108.064 96.8666 107.997 96.8813C107.923 96.8943 107.851 96.9151 107.781 96.9431C107.727 96.9601 107.68 96.9945 107.647 97.0411C107.625 97.0953 107.612 97.1528 107.608 97.2112C107.606 97.2337 107.603 97.2568 107.6 97.2804C107.59 97.3513 107.58 97.4277 107.58 97.5127V97.8452V98.1029C107.586 98.1543 107.606 98.2031 107.637 98.2447C107.679 98.3096 107.725 98.3715 107.776 98.4302C107.826 98.4906 107.88 98.5475 107.938 98.6003C107.975 98.6373 108.017 98.6693 108.062 98.6957C108.134 98.752 108.209 98.8028 108.289 98.8478C108.372 98.8937 108.458 98.9342 108.546 98.9689C108.639 99.0026 108.734 99.0302 108.83 99.0514C108.923 99.0717 109.018 99.0821 109.113 99.0823H109.242C109.284 99.0796 109.326 99.0719 109.366 99.0591C109.376 99.0539 109.425 99.0204 109.513 98.956L109.796 98.7395C109.903 98.6605 109.998 98.5832 110.083 98.5076Z" fill="#754BE7"/>
<path fill-rule="evenodd" clip-rule="evenodd" d="M97.8794 107.585C97.8771 107.547 97.8719 107.509 97.8639 107.472C97.8554 107.43 97.8424 107.39 97.8252 107.351C97.7892 107.299 97.7531 107.248 97.7196 107.199C97.6861 107.15 97.6551 107.098 97.6268 107.049C97.6016 107.001 97.5884 106.947 97.5881 106.892C97.5883 106.824 97.5997 106.756 97.6216 106.691L97.6217 106.691C97.6448 106.621 97.668 106.552 97.6964 106.482C97.7247 106.413 97.7479 106.343 97.7711 106.268C97.7947 106.198 97.8086 106.124 97.8124 106.049C97.8195 105.979 97.8098 105.907 97.784 105.841C97.7551 105.768 97.7411 105.69 97.7428 105.611C97.7444 105.524 97.7565 105.438 97.7788 105.353C97.8008 105.269 97.8121 105.183 97.8124 105.096C97.8137 105.048 97.8031 105 97.7814 104.957C97.7657 104.932 97.7512 104.905 97.7363 104.878C97.7292 104.865 97.7219 104.851 97.7144 104.838C97.688 104.794 97.6656 104.747 97.6474 104.699C97.6249 104.633 97.6145 104.564 97.6165 104.495C97.6164 104.39 97.6224 104.285 97.6345 104.181C97.65 104.073 97.65 103.962 97.65 103.853C97.6522 103.779 97.6435 103.704 97.6242 103.632C97.6081 103.578 97.5874 103.525 97.5624 103.475C97.5366 103.428 97.5108 103.384 97.4825 103.343C97.4552 103.301 97.4319 103.256 97.4129 103.209C97.3575 103.076 97.321 102.935 97.3046 102.792C97.3004 102.76 97.2958 102.729 97.2912 102.697L97.2912 102.697L97.2912 102.697C97.2735 102.576 97.2557 102.453 97.2557 102.33C97.2436 102.185 97.2238 102.04 97.1964 101.897C97.1772 101.776 97.1295 101.661 97.0572 101.562C97.0146 101.51 96.9672 101.461 96.9155 101.418C96.861 101.372 96.8023 101.332 96.7402 101.297C96.6845 101.265 96.6268 101.236 96.5675 101.212C96.5249 101.194 96.4796 101.183 96.4335 101.181C96.3651 101.181 96.297 101.188 96.2299 101.201C96.1603 101.214 96.0907 101.23 96.0237 101.248L95.8175 101.294C95.7539 101.307 95.6892 101.314 95.6242 101.315C95.5282 101.313 95.4329 101.298 95.3407 101.271L95.1165 101.194C95.0469 101.165 94.9773 101.142 94.9103 101.122C94.8371 101.098 94.7604 101.086 94.6835 101.088C94.5378 101.087 94.3927 101.108 94.2531 101.15C94.1269 101.186 94.0057 101.238 93.8923 101.305C93.7982 101.359 93.7152 101.431 93.6474 101.516C93.5919 101.579 93.56 101.659 93.5572 101.743V101.856C93.555 101.94 93.5339 102.022 93.4954 102.096C93.4567 102.176 93.4103 102.263 93.3613 102.353C93.3112 102.443 93.2656 102.535 93.2247 102.629C93.1878 102.71 93.1676 102.798 93.1655 102.887C93.1627 102.923 93.1627 102.959 93.1655 102.995C93.1679 103.026 93.1679 103.057 93.1655 103.088C93.167 103.128 93.1552 103.167 93.132 103.199C93.1089 103.23 93.0831 103.258 93.0546 103.284C93.0246 103.307 92.9962 103.332 92.9696 103.359C92.9439 103.382 92.9259 103.412 92.918 103.446C92.887 103.529 92.8688 103.616 92.8639 103.704V103.962V104.219C92.8605 104.308 92.8431 104.395 92.8124 104.477C92.7986 104.521 92.7777 104.562 92.7505 104.598C92.7277 104.633 92.7027 104.667 92.6758 104.699C92.6508 104.731 92.6301 104.767 92.6139 104.805C92.5941 104.846 92.5843 104.892 92.5856 104.939C92.5818 104.985 92.5818 105.031 92.5856 105.078C92.5893 105.122 92.5893 105.167 92.5856 105.212C92.5871 105.286 92.5731 105.36 92.5443 105.428C92.517 105.486 92.4823 105.539 92.4412 105.588C92.4093 105.627 92.3739 105.663 92.3356 105.696C92.3131 105.71 92.2945 105.73 92.2815 105.753C92.2446 105.814 92.216 105.88 92.1964 105.949C92.1899 105.989 92.186 106.03 92.1821 106.07C92.1783 106.11 92.1744 106.15 92.1681 106.191C92.1552 106.274 92.1552 106.353 92.1552 106.436V106.436V106.663C92.1495 106.799 92.1252 106.933 92.083 107.062C92.0444 107.183 91.9988 107.3 91.9464 107.415L91.784 107.748C91.7278 107.855 91.6804 107.968 91.6423 108.083C91.6438 108.089 91.6438 108.095 91.6423 108.101C91.6409 108.103 91.6402 108.106 91.6402 108.109C91.6402 108.111 91.6409 108.114 91.6423 108.116C91.6426 108.148 91.6525 108.178 91.6706 108.204C91.6869 108.23 91.6958 108.261 91.6964 108.292C91.6948 108.315 91.6857 108.338 91.6706 108.356C91.6584 108.372 91.6451 108.386 91.6313 108.401C91.6247 108.408 91.618 108.416 91.6114 108.423L91.5495 108.49C91.5306 108.506 91.5156 108.527 91.5057 108.549C91.4979 108.58 91.4902 108.619 91.4825 108.665C91.4795 108.683 91.4777 108.701 91.4758 108.719L91.4758 108.719L91.4758 108.719C91.4728 108.748 91.4698 108.778 91.4619 108.81C91.449 108.861 91.449 108.908 91.449 108.954V109.065C91.4471 109.127 91.4594 109.189 91.4851 109.245C91.5087 109.295 91.54 109.341 91.5778 109.382C91.6131 109.419 91.6504 109.463 91.6899 109.51L91.7016 109.524C91.7519 109.586 91.7967 109.652 91.8356 109.722C91.85 109.753 91.8681 109.781 91.8897 109.807C91.9249 109.853 91.9646 109.895 92.0083 109.933C92.0586 109.979 92.1139 110.019 92.1732 110.052C92.2367 110.086 92.3075 110.103 92.3794 110.103C92.4287 110.104 92.4776 110.094 92.5222 110.073C92.5669 110.052 92.6062 110.021 92.6371 109.982C92.7073 109.893 92.763 109.793 92.8021 109.686C92.8472 109.563 92.8859 109.437 92.918 109.31C92.9458 109.187 92.9855 109.068 93.0366 108.954C93.0574 108.903 93.0824 108.854 93.1113 108.807C93.1423 108.756 93.1732 108.707 93.2041 108.663L93.284 108.547C93.2909 108.538 93.2978 108.529 93.3041 108.521C93.3189 108.503 93.3304 108.489 93.3304 108.48C93.3575 108.389 93.3731 108.296 93.3768 108.201L93.3768 108.201C93.3846 108.083 93.3923 107.964 93.4052 107.843C93.418 107.722 93.4309 107.611 93.4516 107.511C93.4575 107.435 93.4904 107.363 93.5443 107.31C93.5861 107.284 93.6344 107.27 93.6835 107.271H93.9129C94.0619 107.27 94.2109 107.278 94.3588 107.297C94.4928 107.315 94.6165 107.333 94.7299 107.353L95.0392 107.413C95.1242 107.428 95.2104 107.437 95.2969 107.439C95.3585 107.443 95.42 107.428 95.4722 107.395C95.5081 107.367 95.5417 107.335 95.5727 107.302C95.6065 107.266 95.6446 107.235 95.6861 107.209C95.7529 107.175 95.8278 107.16 95.9026 107.165C95.9283 107.165 95.9541 107.194 95.9799 107.248C96.0095 107.314 96.0337 107.383 96.0521 107.454C96.0753 107.539 96.0984 107.632 96.1139 107.735C96.1294 107.838 96.1474 107.949 96.1629 108.036C96.1694 108.073 96.1732 108.111 96.1769 108.147V108.147C96.182 108.198 96.187 108.248 96.199 108.294C96.2196 108.374 96.2196 108.436 96.2196 108.477V108.477C96.2203 108.538 96.2125 108.599 96.1964 108.658C96.184 108.695 96.1762 108.734 96.1732 108.774C96.2032 108.89 96.2617 108.997 96.3433 109.085C96.4195 109.17 96.5061 109.244 96.601 109.307C96.6897 109.362 96.7849 109.407 96.8845 109.439C96.9573 109.465 97.0339 109.48 97.1113 109.482C97.1714 109.486 97.2316 109.486 97.2917 109.482C97.3119 109.481 97.3315 109.475 97.3489 109.464C97.3664 109.454 97.3812 109.44 97.3923 109.423C97.4282 109.368 97.4559 109.308 97.4747 109.245C97.4916 109.193 97.5152 109.124 97.5447 109.037L97.5448 109.037L97.5959 108.887C97.6059 108.858 97.6171 108.827 97.6288 108.794L97.6288 108.794C97.6473 108.742 97.6672 108.686 97.6861 108.629C97.717 108.536 97.7479 108.436 97.7763 108.333C97.8067 108.23 97.8308 108.125 97.8484 108.018C97.8687 107.917 97.879 107.813 97.8794 107.709C97.8819 107.668 97.8819 107.627 97.8794 107.585ZM95.6655 105.838C95.6677 105.885 95.656 105.932 95.632 105.972C95.5824 105.991 95.5303 106.002 95.4773 106.006L95.2196 106.052L94.9387 106.093L94.7737 106.116C94.6225 106.138 94.4702 106.152 94.3175 106.158C94.1732 106.164 94.034 106.177 93.9 106.196C93.9444 105.942 94.0038 105.691 94.0778 105.444C94.1474 105.201 94.2222 104.967 94.3072 104.738C94.3299 104.676 94.3519 104.615 94.3738 104.555L94.3738 104.555C94.4338 104.388 94.4932 104.224 94.5649 104.06C94.6629 103.835 94.7454 103.609 94.8227 103.379C94.8717 103.397 94.9127 103.432 94.9387 103.477C94.9637 103.524 94.9819 103.575 94.9928 103.627C94.9963 103.642 95.0005 103.658 95.0049 103.674L95.0049 103.674L95.0049 103.674C95.0166 103.717 95.0289 103.763 95.0289 103.81C95.0369 103.874 95.0552 103.937 95.083 103.995C95.1077 104.041 95.1362 104.085 95.168 104.127C95.213 104.187 95.2603 104.261 95.3124 104.343L95.3175 104.351C95.3711 104.443 95.4176 104.538 95.4567 104.637C95.4989 104.734 95.5208 104.838 95.5211 104.944C95.5216 104.985 95.5155 105.026 95.5031 105.065C95.4929 105.103 95.4877 105.142 95.4876 105.181C95.491 105.217 95.5006 105.251 95.516 105.284C95.534 105.333 95.5546 105.39 95.5753 105.454L95.6371 105.652C95.6542 105.713 95.6637 105.775 95.6655 105.838ZM91.115 103.138C91.1385 103.054 91.1506 102.967 91.151 102.88L91.1098 102.669C91.1108 102.484 91.1021 102.299 91.084 102.115C91.0708 101.96 91.0361 101.809 90.9809 101.664C90.9342 101.544 90.8569 101.44 90.7567 101.36C90.6418 101.281 90.5041 101.242 90.365 101.249C90.3269 101.249 90.2889 101.252 90.2502 101.255C90.2103 101.258 90.1697 101.262 90.1278 101.262L89.8959 101.298L89.6897 101.336C89.6388 101.349 89.5871 101.359 89.5351 101.365C89.4502 101.382 89.3639 101.39 89.2773 101.391C89.2069 101.387 89.1364 101.395 89.0686 101.414C89.0045 101.434 88.9497 101.476 88.9139 101.532C88.8586 101.625 88.8243 101.729 88.8134 101.836C88.8108 101.853 88.8108 101.869 88.8134 101.885V101.95C88.8157 102.071 88.8321 102.191 88.8624 102.308C88.8966 102.458 88.913 102.611 88.9113 102.764C88.9119 102.9 88.9041 103.035 88.8882 103.169C88.8745 103.271 88.8667 103.373 88.865 103.476C88.8657 103.565 88.886 103.653 88.9242 103.733C88.9629 103.821 89.0041 103.906 89.0479 103.991C89.0909 104.079 89.1321 104.172 89.1717 104.269C89.2109 104.373 89.2302 104.483 89.2284 104.594V104.762V104.929C89.2285 105.035 89.2362 105.141 89.2516 105.246L89.2583 105.292C89.2716 105.383 89.2851 105.476 89.3005 105.571C89.3186 105.682 89.334 105.795 89.3495 105.909C89.3649 106.022 89.3727 106.137 89.3727 106.251C89.3754 106.303 89.3754 106.355 89.3727 106.406C89.3706 106.419 89.3681 106.433 89.3656 106.446L89.3656 106.446C89.3589 106.482 89.3521 106.519 89.3521 106.558C89.2928 106.403 89.2309 106.249 89.1665 106.089C89.1021 105.929 89.0299 105.769 88.9526 105.612C88.8767 105.458 88.7906 105.309 88.6949 105.166C88.6038 105.035 88.5318 104.89 88.4809 104.739C88.4416 104.629 88.414 104.516 88.3985 104.401C88.3881 104.306 88.3629 104.213 88.3237 104.125C88.2848 104.043 88.2181 103.977 88.1356 103.94C88.0012 103.887 87.857 103.864 87.7129 103.873C87.6118 103.866 87.5107 103.886 87.4191 103.929C87.3601 103.962 87.3138 104.014 87.2876 104.076C87.2581 104.144 87.2382 104.216 87.2284 104.29C87.2154 104.377 87.1965 104.463 87.1717 104.548C87.1356 104.653 87.0892 104.767 87.0351 104.898C86.9809 105.03 86.9217 105.153 86.8572 105.287C86.8082 105.389 86.7608 105.493 86.7136 105.595L86.7136 105.595L86.7136 105.595L86.6691 105.692C86.6156 105.808 86.5737 105.914 86.5284 106.029L86.5067 106.084C86.4526 106.22 86.4036 106.362 86.3598 106.507C86.316 106.651 86.2748 106.785 86.2284 106.932C86.1912 107.049 86.1541 107.154 86.117 107.258L86.117 107.258L86.0892 107.336C86.0441 107.459 85.9907 107.579 85.9294 107.695C85.9099 107.554 85.9013 107.412 85.9036 107.269C85.9054 107.118 85.8968 106.966 85.8779 106.816C85.8711 106.748 85.8573 106.682 85.8366 106.617C85.8199 106.564 85.8104 106.508 85.8083 106.452C85.816 106.391 85.8401 106.332 85.8779 106.282C85.9144 106.233 85.9439 106.18 85.9655 106.123C85.9857 106.021 85.9986 105.919 86.0041 105.816C86.0119 105.697 86.0248 105.545 86.0325 105.46C86.0402 105.375 86.0557 105.28 86.0737 105.179C86.0926 105.085 86.1021 104.989 86.1021 104.893C86.1021 104.801 86.0908 104.709 86.0686 104.62C86.0455 104.53 86.0334 104.437 86.0325 104.344V103.911V103.414V103.092C86.0263 102.998 86.0107 102.904 85.9861 102.813C85.9675 102.742 85.9332 102.676 85.8856 102.62C85.864 102.597 85.8377 102.578 85.8083 102.566C85.779 102.553 85.7473 102.547 85.7155 102.548C85.6203 102.55 85.5261 102.568 85.4371 102.602C85.3349 102.636 85.2279 102.654 85.1201 102.653H84.9371H84.7567C84.6331 102.661 84.511 102.685 84.3933 102.723L84.0119 102.844C83.9536 102.862 83.8942 102.876 83.8341 102.885L83.6279 102.919L83.4475 102.955C83.4123 102.96 83.3783 102.972 83.3469 102.989C83.325 103.023 83.3093 103.062 83.3006 103.102C83.2851 103.159 83.2696 103.22 83.2567 103.29C83.2535 103.307 83.2498 103.325 83.2461 103.343C83.2349 103.396 83.2232 103.451 83.2232 103.509C83.2133 103.58 83.2081 103.651 83.2078 103.723C83.2087 103.838 83.2208 103.953 83.2438 104.066C83.267 104.184 83.2928 104.295 83.3186 104.406L83.3186 104.406L83.3186 104.406C83.3337 104.471 83.3488 104.533 83.3634 104.593C83.3737 104.636 83.3837 104.677 83.3933 104.718C83.4148 104.802 83.4269 104.889 83.4294 104.976V105.151V105.329C83.4282 105.415 83.436 105.502 83.4526 105.586C83.4681 105.666 83.4835 105.744 83.5042 105.818C83.5248 105.893 83.5402 105.965 83.5557 106.037L83.5557 106.037C83.5706 106.105 83.581 106.174 83.5866 106.244C83.5852 106.289 83.5791 106.334 83.5686 106.378C83.5565 106.422 83.5504 106.468 83.5506 106.514C83.551 106.593 83.5605 106.672 83.5789 106.749L83.6408 106.965C83.6614 107.032 83.682 107.102 83.7 107.166C83.7199 107.226 83.7303 107.289 83.731 107.352C83.7294 107.39 83.7234 107.428 83.7129 107.465C83.7 107.509 83.6871 107.553 83.6743 107.589C83.6703 107.6 83.6654 107.611 83.6605 107.623C83.6494 107.648 83.6382 107.674 83.6382 107.697C83.6279 107.723 83.6219 107.75 83.6201 107.777C83.6238 107.841 83.6351 107.904 83.6536 107.965C83.6609 107.989 83.6687 108.013 83.6768 108.039C83.6946 108.095 83.7141 108.156 83.7335 108.223C83.7619 108.321 83.7877 108.421 83.8109 108.527C83.8328 108.624 83.844 108.724 83.8444 108.824V109.05C83.8391 109.178 83.8611 109.305 83.9088 109.424C83.9466 109.508 84.0096 109.578 84.0892 109.625C84.1744 109.673 84.2681 109.703 84.365 109.715L84.7232 109.782C84.7921 109.794 84.8589 109.816 84.9217 109.847C84.9843 109.877 85.053 109.893 85.1227 109.893C85.1977 109.891 85.2722 109.88 85.3444 109.86C85.4292 109.84 85.5153 109.826 85.6021 109.818L85.9036 109.803C85.9648 109.802 86.0255 109.792 86.084 109.775C86.1361 109.753 86.1822 109.72 86.2181 109.677C86.3716 109.474 86.494 109.25 86.5815 109.012C86.6326 108.861 86.6973 108.715 86.7748 108.576C86.7937 108.543 86.8214 108.517 86.8547 108.499C86.8933 108.474 86.9266 108.441 86.9526 108.403C86.9929 108.331 87.0266 108.255 87.0531 108.177C87.0918 108.074 87.133 107.968 87.1794 107.86C87.2204 107.761 87.2678 107.666 87.3212 107.574C87.3675 107.491 87.4165 107.445 87.4629 107.445C87.4706 107.445 87.4887 107.463 87.5273 107.504C87.566 107.545 87.6047 107.592 87.6433 107.641C87.6846 107.69 87.7232 107.739 87.7593 107.787C87.7834 107.818 87.8057 107.85 87.8263 107.883C87.8492 107.918 87.8634 107.957 87.8675 107.999C87.8688 108.037 87.8804 108.075 87.901 108.107C87.9114 108.128 87.9345 108.143 87.9706 108.143C88.0004 108.145 88.0287 108.156 88.0505 108.177C88.1209 108.244 88.1785 108.323 88.2206 108.411C88.2557 108.486 88.285 108.564 88.3083 108.643C88.3253 108.705 88.3423 108.763 88.3579 108.816L88.3675 108.849C88.3857 108.909 88.4155 108.966 88.4552 109.014C88.4899 109.06 88.5327 109.1 88.5815 109.13C88.6485 109.177 88.7181 109.223 88.7928 109.269C88.8675 109.316 88.9423 109.357 89.0144 109.393C89.0651 109.421 89.1199 109.441 89.1768 109.452C89.2215 109.45 89.2653 109.438 89.3057 109.419C89.3579 109.397 89.414 109.386 89.4706 109.385H89.7284H90.0402C90.1532 109.386 90.266 109.378 90.3778 109.362C90.4643 109.355 90.5462 109.32 90.6124 109.264C90.6511 109.215 90.6768 109.156 90.6871 109.094C90.7069 109.003 90.7215 108.911 90.7309 108.818C90.7464 108.72 90.7464 108.63 90.7464 108.519V108.519V108.262C90.7473 108.161 90.7665 108.062 90.8031 107.968C90.8371 107.886 90.8555 107.799 90.8572 107.71V107.488V107.282V106.842V106.411C90.8563 106.337 90.8623 106.263 90.8753 106.19C90.8856 106.123 90.8985 106.058 90.9139 105.996C90.9184 105.978 90.9238 105.96 90.9292 105.942C90.9422 105.898 90.9552 105.855 90.9552 105.813C90.968 105.75 90.9741 105.685 90.9732 105.62C90.9733 105.551 90.9672 105.482 90.9552 105.414C90.944 105.345 90.938 105.275 90.9371 105.205C90.9372 105.104 90.9476 105.003 90.968 104.903C90.9834 104.818 91.0007 104.734 91.0183 104.649L91.0183 104.649L91.0183 104.648L91.0273 104.604L91.0892 104.3C91.1078 104.197 91.1173 104.091 91.1175 103.986C91.1169 103.888 91.11 103.79 91.0969 103.692C91.0834 103.589 91.0765 103.485 91.0763 103.38C91.0769 103.298 91.0899 103.216 91.115 103.138ZM105.168 107.616V107.676C105.169 107.733 105.163 107.79 105.15 107.846C105.14 107.902 105.135 107.959 105.135 108.016C105.143 108.168 105.162 108.32 105.192 108.469C105.222 108.616 105.237 108.765 105.238 108.915C105.239 109.003 105.225 109.09 105.197 109.173C105.17 109.257 105.122 109.332 105.058 109.392C105.001 109.444 104.928 109.477 104.851 109.485C104.747 109.504 104.646 109.537 104.55 109.583C104.479 109.614 104.412 109.652 104.349 109.696C104.299 109.734 104.239 109.756 104.176 109.758C104.089 109.753 104.002 109.736 103.918 109.709C103.813 109.676 103.705 109.634 103.589 109.588C103.473 109.541 103.359 109.487 103.246 109.433C103.132 109.379 103.04 109.33 102.957 109.284C102.866 109.239 102.784 109.176 102.717 109.098C102.66 109.022 102.62 108.934 102.601 108.84C102.575 108.725 102.561 108.606 102.56 108.487V107.987V107.472V106.913V106.482C102.564 106.34 102.536 106.199 102.478 106.07C102.425 106.032 102.362 106.012 102.297 106.013H102.004H101.746H101.488C101.392 106.015 101.297 105.995 101.21 105.954C101.135 105.917 101.053 105.898 100.97 105.897C100.924 105.899 100.879 105.913 100.839 105.936C100.812 105.956 100.791 105.983 100.779 106.014C100.766 106.045 100.762 106.078 100.766 106.111C100.767 106.159 100.772 106.206 100.779 106.253C100.779 106.304 100.787 106.353 100.802 106.4C100.818 106.446 100.826 106.487 100.826 106.523C100.828 106.547 100.828 106.572 100.826 106.596C100.826 106.737 100.826 106.877 100.81 107.011C100.795 107.145 100.792 107.268 100.792 107.364C100.793 107.462 100.801 107.56 100.815 107.657L100.832 107.78C100.842 107.854 100.853 107.931 100.864 108.011C100.878 108.104 100.89 108.203 100.902 108.299V108.299L100.913 108.392C100.928 108.516 100.936 108.641 100.937 108.766C100.941 108.932 100.917 109.098 100.864 109.255C100.819 109.375 100.738 109.477 100.632 109.549C100.507 109.626 100.366 109.676 100.22 109.696C100.017 109.725 99.8118 109.739 99.6066 109.737C99.4966 109.738 99.389 109.705 99.2973 109.645C99.2021 109.586 99.1154 109.515 99.0396 109.433C98.9743 109.364 98.9164 109.288 98.8669 109.206C98.8347 109.161 98.8127 109.109 98.8025 109.054C98.8023 109.007 98.8084 108.959 98.8205 108.913C98.8205 108.882 98.8315 108.85 98.8426 108.817C98.8486 108.799 98.8547 108.781 98.8592 108.763C98.8643 108.743 98.8703 108.722 98.8763 108.701L98.8763 108.701C98.8853 108.67 98.8942 108.639 98.9004 108.609C98.9123 108.56 98.9184 108.509 98.9185 108.459C98.9182 108.392 98.9105 108.326 98.8953 108.261C98.8798 108.194 98.8644 108.127 98.8463 108.062C98.8283 107.998 98.8128 107.931 98.7999 107.866C98.7872 107.805 98.7803 107.743 98.7793 107.681C98.7805 107.573 98.7926 107.466 98.8154 107.361C98.8373 107.255 98.8486 107.147 98.8489 107.039V106.583C98.8489 106.503 98.8457 106.424 98.8425 106.344V106.344L98.8425 106.344C98.8393 106.263 98.836 106.181 98.836 106.098V105.84C98.836 105.75 98.836 105.676 98.8566 105.583C98.8613 105.547 98.8756 105.513 98.8979 105.485C98.9183 105.456 98.9283 105.422 98.9262 105.387C98.926 105.316 98.9138 105.245 98.8901 105.178C98.8672 105.112 98.8558 105.042 98.8566 104.972V104.972C98.8566 104.84 98.8566 104.694 98.8798 104.526C98.8934 104.428 98.9026 104.33 98.912 104.229L98.912 104.229C98.9186 104.158 98.9254 104.085 98.9339 104.011L98.9467 103.9V103.9C98.9629 103.76 98.9784 103.626 98.9906 103.495C99.0061 103.33 99.0113 103.155 99.0113 103.003C99.0118 102.903 98.9997 102.803 98.9752 102.706C98.9505 102.615 98.9375 102.52 98.9365 102.426C98.9407 102.366 98.9565 102.307 98.9829 102.253C99.0182 102.177 99.0642 102.107 99.1195 102.044C99.1817 101.971 99.2558 101.909 99.3386 101.861C99.4285 101.809 99.531 101.782 99.635 101.784C99.7423 101.781 99.8495 101.795 99.952 101.828C100.029 101.851 100.101 101.888 100.163 101.938C100.215 101.979 100.258 102.031 100.287 102.091C100.31 102.139 100.322 102.192 100.323 102.245C100.323 102.331 100.317 102.417 100.305 102.503C100.297 102.568 100.291 102.633 100.29 102.699C100.298 102.756 100.314 102.811 100.339 102.864C100.364 102.928 100.382 102.994 100.393 103.062C100.417 103.215 100.433 103.369 100.442 103.523C100.442 103.625 100.448 103.723 100.455 103.816C100.459 103.875 100.463 103.933 100.465 103.99C100.467 104.037 100.467 104.08 100.468 104.121C100.469 104.207 100.47 104.284 100.48 104.359C100.487 104.405 100.488 104.441 100.489 104.468C100.49 104.504 100.49 104.523 100.504 104.529C100.555 104.567 100.617 104.589 100.681 104.59C100.774 104.603 100.877 104.614 100.993 104.619L101.351 104.632H101.674L101.893 104.66C101.971 104.672 102.05 104.678 102.13 104.678C102.251 104.678 102.328 104.647 102.364 104.585C102.404 104.511 102.422 104.427 102.418 104.343C102.419 104.24 102.41 104.138 102.393 104.036C102.378 103.951 102.369 103.865 102.367 103.779C102.366 103.724 102.38 103.67 102.406 103.621C102.43 103.58 102.443 103.533 102.442 103.485C102.442 103.285 102.43 103.085 102.406 102.887C102.381 102.7 102.368 102.511 102.367 102.322C102.369 102.236 102.379 102.149 102.398 102.065C102.421 101.96 102.459 101.859 102.511 101.766C102.565 101.665 102.64 101.577 102.73 101.508C102.835 101.435 102.961 101.399 103.089 101.405C103.207 101.407 103.325 101.423 103.439 101.454C103.57 101.485 103.699 101.526 103.823 101.578C103.94 101.623 104.052 101.68 104.158 101.748C104.239 101.796 104.309 101.86 104.364 101.936C104.402 101.995 104.426 102.06 104.436 102.129C104.451 102.209 104.462 102.29 104.467 102.371V102.629V102.887C104.467 102.95 104.478 103.06 104.489 103.172L104.489 103.172C104.492 103.206 104.495 103.24 104.498 103.273L104.507 103.372C104.517 103.484 104.528 103.6 104.54 103.717C104.555 103.869 104.581 104.029 104.607 104.186C104.633 104.338 104.671 104.489 104.717 104.637C104.732 104.691 104.753 104.744 104.779 104.794L104.859 104.933C104.882 104.977 104.903 105.018 104.921 105.06C104.939 105.096 104.946 105.137 104.942 105.178C104.942 105.231 104.936 105.284 104.924 105.335C104.913 105.392 104.907 105.45 104.908 105.508C104.909 105.671 104.926 105.833 104.96 105.993C104.993 106.162 105.01 106.335 105.011 106.508V106.686V106.853C105.012 106.912 105.019 106.971 105.032 107.029C105.047 107.09 105.065 107.147 105.086 107.206C105.107 107.266 105.122 107.322 105.138 107.379C105.16 107.456 105.17 107.536 105.168 107.616ZM108.553 102.338V102.315C108.541 102.254 108.52 102.195 108.491 102.14C108.466 102.078 108.433 102.02 108.393 101.967C108.357 101.915 108.316 101.868 108.269 101.825C108.233 101.789 108.191 101.758 108.146 101.735C108.112 101.725 108.078 101.717 108.043 101.712L107.88 101.686L107.687 101.647C107.621 101.633 107.557 101.614 107.494 101.591C107.442 101.574 107.392 101.552 107.344 101.526L107.223 101.462C107.183 101.439 107.141 101.421 107.097 101.408C107.046 101.394 106.993 101.388 106.94 101.39C106.839 101.386 106.739 101.395 106.641 101.418C106.58 101.433 106.522 101.459 106.471 101.495C106.423 101.53 106.38 101.57 106.342 101.614C106.29 101.67 106.233 101.722 106.172 101.768C106.113 101.817 106.047 101.854 105.976 101.879C105.926 101.892 105.881 101.92 105.847 101.959C105.798 102.026 105.765 102.102 105.749 102.183C105.73 102.281 105.72 102.38 105.721 102.48C105.721 102.62 105.732 102.761 105.754 102.9C105.771 103.009 105.792 103.116 105.811 103.221C105.818 103.257 105.825 103.292 105.831 103.328C105.857 103.467 105.883 103.596 105.909 103.712C105.93 103.808 105.947 103.905 105.958 104.003V104.557C105.953 104.665 105.967 104.773 105.999 104.877C106.021 104.941 106.054 105.001 106.097 105.054C106.132 105.099 106.172 105.139 106.215 105.176C106.258 105.216 106.293 105.263 106.321 105.315C106.361 105.396 106.387 105.483 106.398 105.573C106.413 105.664 106.42 105.756 106.419 105.848C106.419 105.882 106.42 105.915 106.422 105.949C106.425 106.017 106.428 106.086 106.419 106.155C106.406 106.258 106.406 106.359 106.406 106.454V106.454C106.405 106.519 106.411 106.584 106.424 106.647C106.435 106.704 106.441 106.762 106.442 106.82C106.442 106.896 106.432 106.971 106.411 107.044C106.393 107.114 106.384 107.186 106.383 107.258C106.383 107.304 106.391 107.349 106.406 107.392C106.424 107.44 106.455 107.481 106.496 107.511C106.551 107.552 106.615 107.581 106.682 107.596C106.781 107.619 106.882 107.629 106.983 107.627C107.165 107.635 107.348 107.613 107.522 107.56C107.628 107.528 107.719 107.46 107.78 107.369C107.835 107.277 107.866 107.174 107.87 107.067C107.878 106.949 107.891 106.815 107.911 106.668C107.917 106.58 107.937 106.493 107.968 106.41C107.997 106.339 108.013 106.263 108.014 106.186C108.014 106.146 108.008 106.106 107.996 106.067C107.987 106.029 107.982 105.989 107.981 105.949C107.98 105.91 107.985 105.872 107.996 105.835C108.009 105.802 108.022 105.771 108.038 105.737C108.042 105.728 108.047 105.719 108.052 105.71C108.065 105.685 108.079 105.661 108.079 105.634C108.089 105.593 108.095 105.551 108.094 105.508V105.351V105.204V105.052L108.11 104.892C108.115 104.839 108.122 104.787 108.133 104.735C108.14 104.692 108.15 104.65 108.164 104.609C108.18 104.566 108.201 104.525 108.226 104.487C108.241 104.462 108.259 104.436 108.277 104.41C108.286 104.397 108.294 104.384 108.303 104.372C108.329 104.333 108.355 104.292 108.378 104.25C108.402 104.204 108.418 104.153 108.424 104.101C108.443 103.981 108.455 103.859 108.46 103.737V103.343C108.458 103.142 108.474 102.941 108.507 102.743C108.533 102.609 108.549 102.474 108.553 102.338ZM108.141 109.851C108.188 109.818 108.229 109.777 108.262 109.73C108.296 109.644 108.31 109.551 108.3 109.459C108.303 109.281 108.263 109.104 108.184 108.944C108.119 108.805 108.032 108.677 107.927 108.565C107.837 108.475 107.736 108.398 107.625 108.335C107.574 108.297 107.514 108.272 107.451 108.262C107.387 108.252 107.323 108.257 107.262 108.276L107.138 108.312L107.017 108.359C106.971 108.379 106.922 108.393 106.873 108.402C106.782 108.423 106.697 108.438 106.615 108.451L106.391 108.493C106.328 108.504 106.267 108.521 106.208 108.544C106.163 108.56 106.125 108.589 106.097 108.627C106.078 108.672 106.067 108.72 106.063 108.768C106.061 108.793 106.058 108.817 106.055 108.842C106.048 108.899 106.04 108.96 106.04 109.026V109.302V109.513C106.045 109.556 106.062 109.597 106.089 109.632C106.124 109.687 106.162 109.74 106.205 109.789C106.247 109.839 106.292 109.886 106.339 109.931C106.371 109.961 106.407 109.988 106.445 110.011C106.504 110.058 106.568 110.101 106.635 110.137C106.706 110.177 106.779 110.21 106.855 110.237C106.931 110.268 107.011 110.292 107.092 110.307C107.169 110.324 107.247 110.333 107.326 110.333H107.437C107.472 110.332 107.507 110.325 107.54 110.312C107.582 110.286 107.623 110.258 107.661 110.227C107.736 110.173 107.816 110.111 107.901 110.044C107.989 109.977 108.068 109.913 108.141 109.851Z" fill="#754BE7"/>
<defs>
<linearGradient id="paint0_linear_271_16277" x1="99.1967" y1="38.6498" x2="123.387" y2="46.0658" gradientUnits="userSpaceOnUse">
<stop stop-color="#B9E2FF"/>
<stop offset="1" stop-color="#118AE1"/>
</linearGradient>
<linearGradient id="paint1_linear_271_16277" x1="96.9175" y1="42.725" x2="118.073" y2="59.7667" gradientUnits="userSpaceOnUse">
<stop stop-color="#FFD84C"/>
<stop offset="1" stop-color="#FD9C60"/>
</linearGradient>
<linearGradient id="paint2_linear_271_16277" x1="10.0965" y1="49.0531" x2="33.3088" y2="59.8997" gradientUnits="userSpaceOnUse">
<stop stop-color="#FFD84C"/>
<stop offset="1" stop-color="#FD9C60"/>
</linearGradient>
<linearGradient id="paint3_linear_271_16277" x1="50.6799" y1="94.5919" x2="32.0394" y2="106.803" gradientUnits="userSpaceOnUse">
<stop stop-color="#FF7448"/>
<stop offset="1" stop-color="#FF68C3"/>
</linearGradient>
<linearGradient id="paint4_linear_271_16277" x1="49.7141" y1="55.0634" x2="82.5122" y2="74.4762" gradientUnits="userSpaceOnUse">
<stop stop-color="#FFD84C"/>
<stop offset="1" stop-color="#FD9C60"/>
</linearGradient>
<linearGradient id="paint5_linear_271_16277" x1="77.6298" y1="21.737" x2="53.6298" y2="21.737" gradientUnits="userSpaceOnUse">
<stop stop-color="#FF9675"/>
<stop offset="1" stop-color="#F888B5"/>
</linearGradient>
</defs>
</svg>
