<svg width="128" height="128" viewBox="0 0 128 128" fill="none" xmlns="http://www.w3.org/2000/svg">
<path d="M103.713 9.95031L91.3468 11.8007C90.5389 11.9181 89.9612 12.6086 89.9612 13.4164V25.0879C89.2662 24.8578 88.4583 24.7404 87.6505 24.9706C85.4572 25.4309 83.9543 27.2813 84.3018 29.1318C84.6493 30.9822 86.7299 32.1376 88.9233 31.6727C90.8865 31.3251 92.272 29.8222 92.272 28.0892V16.4223L103.248 14.8066V23.0116C102.553 22.7814 101.745 22.664 100.937 22.8942C98.7439 23.3546 97.241 25.205 97.5885 27.0554C97.936 28.9058 100.017 30.0612 102.21 29.5963C104.173 29.2488 105.559 27.7458 105.559 26.0128V11.5661C105.559 10.528 104.634 9.83302 103.713 9.9504L103.713 9.95031Z" fill="url(#paint0_linear_272_16400)"/>
<path d="M68.0314 16.7618C74.0294 18.5264 77.464 24.8224 75.6993 30.8204C73.9347 36.8183 67.6432 40.2529 61.6407 38.4882C55.6428 36.7236 52.2082 30.4322 53.9729 24.4297C55.7375 18.4317 62.0289 14.9971 68.0314 16.7618Z" fill="url(#paint1_linear_272_16400)"/>
<path d="M93.892 46.5732C94.2395 44.4926 93.3144 42.412 91.3512 41.374C89.9656 40.679 88.3453 40.679 87.0772 41.374L84.1888 39.1807C84.5363 36.8699 83.2636 34.6766 80.9528 34.0989C78.5247 33.4039 75.9838 34.7939 75.176 37.2175C74.481 39.6456 75.871 42.1865 78.2946 42.9943C79.4499 43.3418 80.6053 43.2245 81.5305 42.7641L84.1888 44.7273C82.4557 47.9633 80.4925 51.1992 79.107 53.045C78.8769 52.8149 78.7595 52.5847 78.6467 52.35C76.6835 49.4616 73.5649 45.0703 66.9752 43.1071L60.738 41.2566L54.4919 39.4107C46.0568 36.8698 38.7766 44.6099 35.3104 48.3061L35.0803 48.5363C31.6142 52.1198 27.6878 60.8976 26.8753 62.6306C25.8373 65.0587 26.8753 67.9472 29.3034 68.9851C29.8811 69.2153 30.5762 69.4455 31.2666 69.4455C33.1171 69.4455 34.8501 68.4075 35.658 66.5571C37.2736 62.8608 40.2794 56.9666 42.0125 55.1208L42.2427 54.8906C43.0505 54.0827 44.436 52.5799 46.0563 51.3071L40.0493 71.5261C39.589 73.029 39.3543 74.6446 39.3543 76.2649C39.1241 87.5884 38.7766 92.0923 38.5464 92.8999C37.8559 94.7503 32.5394 103.763 27.918 111.043C26.3023 113.701 26.9928 117.167 29.651 118.783C30.5762 119.36 31.6142 119.708 32.6568 119.708C34.5073 119.708 36.3531 118.783 37.3957 117.05C41.4395 110.578 48.4891 99.2593 49.4092 95.6753C49.6394 94.8674 50.2171 92.6695 50.4472 80.0778L50.6774 80.308C55.0687 85.0469 59.3427 91.0538 59.6902 92.6693C59.6902 96.3655 58.6522 109.074 58.3047 113.696C58.0745 116.814 60.3853 119.473 63.3864 119.703C66.505 119.933 69.1633 117.622 69.3934 114.621C69.3934 113.926 70.7789 97.7504 70.7789 92.7869C70.7789 87.8179 65.8099 81.0033 61.6534 75.9162L68.3554 54.8897C69.1633 55.8149 69.8584 56.7401 70.6662 57.8955C72.2819 60.2062 74.3624 63.212 78.1761 63.9025C78.5236 64.0198 78.9839 64.0198 79.4488 64.0198C81.7596 64.0198 85.686 62.4041 91.928 50.6152L94.1213 52.2309C94.4688 52.4611 94.9292 52.6912 95.3941 52.6912C96.0891 52.6912 96.6668 52.3437 97.1271 51.8834C97.8221 50.9582 97.5875 49.5727 96.6668 48.8776L93.892 46.5732Z" fill="url(#paint2_linear_272_16400)"/>
<defs>
<linearGradient id="paint0_linear_272_16400" x1="105.559" y1="21.0551" x2="84.2518" y2="21.0551" gradientUnits="userSpaceOnUse">
<stop stop-color="#B318C2"/>
<stop offset="1" stop-color="#744AE6"/>
</linearGradient>
<linearGradient id="paint1_linear_272_16400" x1="76.1623" y1="27.831" x2="53.5099" y2="27.831" gradientUnits="userSpaceOnUse">
<stop stop-color="#FF9675"/>
<stop offset="1" stop-color="#F888B5"/>
</linearGradient>
<linearGradient id="paint2_linear_272_16400" x1="97.5306" y1="77.5993" x2="26.4746" y2="77.5993" gradientUnits="userSpaceOnUse">
<stop stop-color="#FF9675"/>
<stop offset="1" stop-color="#F888B5"/>
</linearGradient>
</defs>
</svg>
