<svg width="128" height="128" viewBox="0 0 128 128" fill="none" xmlns="http://www.w3.org/2000/svg">
<path fill-rule="evenodd" clip-rule="evenodd" d="M69.6068 100.985H96.3982C99.6094 100.985 101.399 99.6446 102.459 98.0643C103.595 96.3708 103.967 94.2647 103.938 92.8754L103.938 92.8545V29.684C103.938 26.1247 102.6 24.1684 101.121 23.0515C99.5452 21.8609 97.6041 21.4777 96.3497 21.5035L96.3291 21.5039H33.1751C28.6659 21.5246 25.0217 25.1793 25.0147 29.6881V92.8294C25.0354 97.3284 28.6767 100.967 33.1733 100.985H57.9186L62.9952 109.826L63.7627 111.159L64.5301 109.826L69.6068 100.985ZM69.7322 112.816L66.0926 119.138C66.0853 119.151 66.0778 119.164 66.0703 119.177C65.5869 119.992 64.7112 120.496 63.7604 120.496C62.7978 120.496 61.9121 119.98 61.4327 119.146L61.4293 119.14L61.4282 119.138H61.4327L57.7931 112.816L54.4451 106.985H33.1633C25.3601 106.962 19.042 100.644 19.0147 92.8413V29.684C19.024 21.8674 25.3466 15.5312 33.1633 15.5039H96.3159C104.133 15.5307 110.455 21.8673 110.464 29.684V92.8413C110.437 100.611 104.172 106.914 96.4028 106.985H73.0803L69.7322 112.816Z" fill="url(#paint0_linear_272_16423)"/>
<path fill-rule="evenodd" clip-rule="evenodd" d="M64.6667 59.0855C68.9452 59.0855 72.4135 55.617 72.4135 51.3386C72.4135 47.0601 68.9452 43.5918 64.6667 43.5918C60.3882 43.5918 56.9198 47.0601 56.9198 51.3386C56.9198 55.6172 60.3882 59.0855 64.6667 59.0855ZM49.173 69.4148C49.173 65.1363 52.6415 61.668 56.9198 61.668H72.4135C76.6921 61.668 80.1604 65.1365 80.1604 69.4148V75.8705C80.1604 78.0009 78.4173 79.7439 76.287 79.7439H53.0464C50.9161 79.7439 49.173 78.0009 49.173 75.8705V69.4148Z" fill="url(#paint1_linear_272_16423)"/>
<defs>
<linearGradient id="paint0_linear_272_16423" x1="110.464" y1="68.9545" x2="19.0147" y2="68.9545" gradientUnits="userSpaceOnUse">
<stop stop-color="#FF9675"/>
<stop offset="1" stop-color="#F888B5"/>
</linearGradient>
<linearGradient id="paint1_linear_272_16423" x1="80.1604" y1="61.9967" x2="49.173" y2="61.9967" gradientUnits="userSpaceOnUse">
<stop stop-color="#B318C2"/>
<stop offset="1" stop-color="#744AE6"/>
</linearGradient>
</defs>
</svg>
