<svg width="1759" height="1069" viewBox="0 0 1759 1069" fill="none" xmlns="http://www.w3.org/2000/svg">
<path fill-rule="evenodd" clip-rule="evenodd" d="M1710.77 11.9727H48.8158C28.3812 11.9727 11.8158 28.538 11.8158 48.9726V1020.83C11.8158 1041.27 28.3813 1057.83 48.8158 1057.83H1710.77C1731.2 1057.83 1747.77 1041.27 1747.77 1020.83V48.9727C1747.77 28.5381 1731.2 11.9727 1710.77 11.9727ZM48.8158 0.972656C22.3061 0.972656 0.815796 22.4629 0.815796 48.9726V1020.83C0.815796 1047.34 22.3061 1068.83 48.8158 1068.83H1710.77C1737.28 1068.83 1758.77 1047.34 1758.77 1020.83V48.9727C1758.77 22.463 1737.28 0.972656 1710.77 0.972656H48.8158Z" fill="#E1E1E1"/>
<path d="M45.014 190.172C45.014 176.917 55.7592 166.172 69.014 166.172H1191.86C1205.11 166.172 1215.86 176.917 1215.86 190.172V867.374C1215.86 880.629 1205.11 891.374 1191.86 891.374H69.014C55.7592 891.374 45.014 880.629 45.014 867.374V190.172Z" fill="#7DBFEF"/>
<path d="M45.014 67.5683C45.014 54.3135 55.7592 43.5684 69.014 43.5684H1686.55C1699.81 43.5684 1710.55 54.3135 1710.55 67.5684V115.617C1710.55 128.872 1699.81 139.617 1686.55 139.617H69.0141C55.7592 139.617 45.014 128.872 45.014 115.617V67.5683Z" fill="#AE93F5"/>
<path d="M45.014 941.928C45.014 928.673 55.7592 917.928 69.014 917.928H1686.55C1699.81 917.928 1710.55 928.673 1710.55 941.928V989.977C1710.55 1003.23 1699.81 1013.98 1686.55 1013.98H69.0141C55.7592 1013.98 45.014 1003.23 45.014 989.977V941.928Z" fill="#F888B5"/>
<path d="M1245.84 190.172C1245.84 176.917 1256.58 166.172 1269.84 166.172H1686.55C1699.81 166.172 1710.55 176.917 1710.55 190.172V867.374C1710.55 880.629 1699.81 891.374 1686.55 891.374H1269.84C1256.58 891.374 1245.84 880.629 1245.84 867.374V190.172Z" fill="#6CD5AF"/>
<path d="M763.888 948.252L754.528 973.784L745.22 948.252H735.912V984.496H742.412V957.404L751.408 981.324H757.7L766.696 957.404V984.496H773.196V948.252H763.888Z" fill="white"/>
<path d="M803.078 971.34C803.078 964.216 799.23 958.34 791.274 958.34C782.746 958.34 779.106 965.1 779.106 971.808C779.106 978.672 782.85 985.016 791.69 985.016C796.006 985.016 799.386 983.508 802.194 980.388L797.878 976.592C796.11 978.62 794.03 979.348 791.742 979.348C787.686 979.348 785.606 977.112 785.346 973.732H802.922C803.026 972.9 803.078 972.12 803.078 971.34ZM785.294 968.792C785.658 966.244 787.426 963.54 791.222 963.54C794.498 963.54 796.994 965.516 797.098 968.792H785.294Z" fill="white"/>
<path d="M822.191 958.34C819.071 958.34 816.263 959.38 814.443 961.824V958.86H808.203V984.496H814.443V974.252C814.443 969.676 814.443 963.8 820.267 963.8C824.999 963.8 824.999 967.752 824.999 969.52V984.496H831.239V967.96C831.239 961.876 827.963 958.34 822.191 958.34Z" fill="white"/>
<path d="M853.93 958.86V968.584C853.93 973.16 853.93 979.556 848.106 979.556C843.374 979.556 843.374 975.084 843.374 973.316V958.86H837.134V974.876C837.134 980.336 839.838 985.016 846.286 985.016C849.302 985.016 852.11 983.976 853.93 981.532V984.496H860.17V958.86H853.93Z" fill="white"/>
<path d="M893.785 958.34C890.873 958.34 888.013 959.536 886.401 961.46V948.252H880.161V984.496H886.401V981.948C888.169 984.132 891.029 985.016 893.785 985.016C900.753 985.016 904.601 979.348 904.601 971.652C904.601 963.28 900.077 958.34 893.785 958.34ZM892.277 979.244C887.753 979.244 885.829 975.968 885.829 971.704C885.829 967.44 887.753 964.008 892.225 964.008C896.385 964.008 898.361 966.92 898.361 971.704C898.361 976.436 896.437 979.244 892.277 979.244Z" fill="white"/>
<path d="M919.85 958.34C915.17 958.34 911.374 960.16 908.306 963.852L912.83 967.648C914.702 965.152 917.146 963.8 919.746 963.8C922.71 963.8 924.582 965.516 924.582 968.324V969.052H918.186C915.274 969.052 913.09 969.416 911.374 970.196C908.878 971.34 907.526 973.628 907.526 976.644C907.526 981.532 911.374 985.016 916.782 985.016C920.162 985.016 923.074 983.56 924.582 981.168L925.102 984.496H930.822V968.324C930.822 962.136 926.61 958.34 919.85 958.34ZM917.77 979.712C915.274 979.712 913.766 978.568 913.766 976.748C913.766 975.812 914.13 975.084 914.806 974.616C915.638 973.992 916.886 973.732 919.018 973.732H924.582C924.582 977.06 921.514 979.712 917.77 979.712Z" fill="white"/>
<path d="M950.546 958.34C947.634 958.34 944.774 960.056 943.682 963.228V958.86H937.39V984.496H943.63V971.6C943.63 966.764 945.502 964.424 949.298 964.424C950.546 964.424 951.534 964.736 952.418 965.308L955.434 959.796C953.77 958.756 952.262 958.34 950.546 958.34Z" fill="white"/>
<path d="M760.74 110.135H767.292V79.8706H778.628V73.8906H749.404V79.8706H760.74V110.135Z" fill="white"/>
<path d="M782.129 79.6626H788.681V73.8906H782.129V79.6626ZM782.285 110.135H788.525V84.4986H782.285V110.135Z" fill="white"/>
<path d="M809.468 89.4386V84.4986H803.072V74.9306L796.832 79.5586V84.4986H792.672V89.4386H796.832V102.959C796.832 108.419 800.472 110.655 804.788 110.655C806.348 110.655 807.908 110.395 809.468 109.875V104.883C808.324 105.247 807.232 105.455 806.348 105.455C804.32 105.455 803.072 104.519 803.072 102.491V89.4386H809.468Z" fill="white"/>
<path d="M819.439 110.655C820.635 110.655 822.039 110.395 823.443 109.875V104.883C822.715 105.091 822.039 105.195 821.467 105.195C820.323 105.195 819.647 104.727 819.647 103.583V73.8906H813.407V103.999C813.407 108.575 815.955 110.655 819.439 110.655Z" fill="white"/>
<path d="M849.98 96.9786C849.98 89.8546 846.132 83.9786 838.176 83.9786C829.648 83.9786 826.008 90.7386 826.008 97.4466C826.008 104.311 829.752 110.655 838.592 110.655C842.908 110.655 846.288 109.147 849.096 106.027L844.78 102.231C843.012 104.259 840.932 104.987 838.644 104.987C834.588 104.987 832.508 102.751 832.248 99.3706H849.824C849.928 98.5386 849.98 97.7586 849.98 96.9786ZM832.196 94.4306C832.56 91.8826 834.328 89.1786 838.124 89.1786C841.4 89.1786 843.896 91.1546 844 94.4306H832.196Z" fill="white"/>
<path d="M881.425 83.9786C878.513 83.9786 875.653 85.1746 874.041 87.0986V73.8906H867.801V110.135H874.041V107.587C875.809 109.771 878.669 110.655 881.425 110.655C888.393 110.655 892.241 104.987 892.241 97.2906C892.241 88.9186 887.717 83.9786 881.425 83.9786ZM879.917 104.883C875.393 104.883 873.469 101.607 873.469 97.3426C873.469 93.0786 875.393 89.6466 879.865 89.6466C884.025 89.6466 886.001 92.5586 886.001 97.3426C886.001 102.075 884.077 104.883 879.917 104.883Z" fill="white"/>
<path d="M907.49 83.9786C902.81 83.9786 899.014 85.7986 895.946 89.4906L900.47 93.2866C902.342 90.7906 904.786 89.4386 907.386 89.4386C910.35 89.4386 912.222 91.1546 912.222 93.9626V94.6906H905.826C902.914 94.6906 900.73 95.0546 899.014 95.8346C896.518 96.9786 895.166 99.2666 895.166 102.283C895.166 107.171 899.014 110.655 904.422 110.655C907.802 110.655 910.714 109.199 912.222 106.807L912.742 110.135H918.462V93.9626C918.462 87.7746 914.25 83.9786 907.49 83.9786ZM905.41 105.351C902.914 105.351 901.406 104.207 901.406 102.387C901.406 101.451 901.77 100.723 902.446 100.255C903.278 99.6306 904.526 99.3706 906.658 99.3706H912.222C912.222 102.699 909.154 105.351 905.41 105.351Z" fill="white"/>
<path d="M938.187 83.9786C935.275 83.9786 932.415 85.6946 931.323 88.8666V84.4986H925.031V110.135H931.271V97.2386C931.271 92.4026 933.143 90.0626 936.939 90.0626C938.187 90.0626 939.175 90.3746 940.059 90.9466L943.075 85.4346C941.411 84.3946 939.903 83.9786 938.187 83.9786Z" fill="white"/>
<path d="M1429.57 489.722C1440.44 489.722 1447.51 483.49 1447.51 473.914C1447.51 466.466 1443.94 462.362 1432.46 457.954C1424.33 454.838 1421.44 452.634 1421.44 448.682C1421.44 445.034 1424.63 442.07 1429.04 442.07C1432.92 442.07 1436.34 444.274 1438.31 448.302L1445.08 444.122C1441.81 437.966 1436.26 434.85 1429.27 434.85C1419.69 434.85 1413.31 440.474 1413.31 448.91C1413.31 456.358 1417.19 460.31 1428.13 464.49C1436.49 467.758 1439.38 470.266 1439.38 474.598C1439.38 479.386 1435.81 482.502 1429.73 482.502C1423.19 482.502 1418.71 478.626 1417.95 472.166L1409.81 474.142C1411.33 483.566 1419.24 489.722 1429.57 489.722Z" fill="white"/>
<path d="M1455.68 444.046H1464.04V435.838H1455.68V444.046ZM1455.99 488.81H1463.82V451.342H1455.99V488.81Z" fill="white"/>
<path d="M1499.98 435.838V455.522C1497.62 452.482 1493.29 450.582 1488.66 450.582C1479.08 450.582 1472.62 457.954 1472.62 470.038C1472.62 481.286 1478.24 489.494 1488.66 489.494C1493.14 489.494 1497.4 487.974 1499.98 484.63V488.81H1507.81V435.838H1499.98ZM1490.4 482.35C1483.72 482.35 1480.45 477.562 1480.45 470.114C1480.45 462.438 1483.87 457.65 1490.48 457.65C1497.32 457.65 1500.74 462.97 1500.74 470.114C1500.74 477.106 1497.47 482.35 1490.4 482.35Z" fill="white"/>
<path d="M1550.83 469.126C1550.83 459.322 1545.51 450.658 1533.88 450.658C1521.95 450.658 1516.48 460.234 1516.48 470.266C1516.48 480.526 1522.1 489.494 1534.49 489.494C1540.65 489.494 1545.36 487.518 1549.61 482.882L1544.14 478.17C1541.33 481.362 1538.21 482.426 1534.57 482.426C1528.18 482.426 1524.61 478.55 1524.31 472.546H1550.6C1550.75 471.406 1550.83 470.266 1550.83 469.126ZM1524.31 466.238C1524.84 461.602 1527.88 457.194 1533.88 457.194C1539.43 457.194 1543.15 460.766 1543.31 466.086V466.238H1524.31Z" fill="white"/>
<path d="M1411.42 549.582C1407.02 549.582 1402.68 551.102 1400.1 554.522V550.342H1392.27V603.314H1400.1V583.554C1402.46 586.594 1406.71 588.494 1411.42 588.494C1421.15 588.494 1427.46 580.97 1427.46 569.114C1427.46 557.714 1421.68 549.582 1411.42 549.582ZM1409.6 581.654C1402.61 581.654 1399.34 576.258 1399.34 569.038C1399.34 561.59 1402.76 556.498 1409.68 556.498C1416.29 556.498 1419.63 561.134 1419.63 569.038C1419.63 576.714 1416.36 581.654 1409.6 581.654Z" fill="white"/>
<path d="M1450.27 549.658C1443.58 549.658 1438.26 552.242 1433.93 557.562L1439.63 562.35C1442.44 558.474 1446.09 556.498 1450.19 556.498C1455.13 556.498 1458.09 559.386 1458.09 564.25V565.542H1449.35C1444.03 565.542 1440.54 566.15 1437.95 567.442C1434.61 569.114 1432.79 572.306 1432.79 576.562C1432.79 583.706 1438.11 588.494 1446.09 588.494C1451.41 588.494 1455.74 586.29 1458.17 582.49L1458.78 587.81H1465.92V564.25C1465.92 555.13 1459.99 549.658 1450.27 549.658ZM1447.53 581.882C1443.27 581.882 1440.61 579.906 1440.61 576.714C1440.61 575.118 1441.15 573.826 1442.29 573.066C1443.73 571.926 1445.93 571.546 1450.27 571.546H1458.09V571.698C1458.09 577.626 1453.61 581.882 1447.53 581.882Z" fill="white"/>
<path d="M1496.12 549.658C1491.25 549.658 1487 551.406 1484.41 554.978V550.342H1476.58V587.81H1484.41V572.23C1484.41 564.25 1485.78 556.498 1493.84 556.498C1500.3 556.498 1501.13 561.59 1501.13 565.998V587.81H1508.96V564.022C1508.96 554.826 1504.4 549.658 1496.12 549.658Z" fill="white"/>
<path d="M1551.09 568.126C1551.09 558.322 1545.77 549.658 1534.14 549.658C1522.21 549.658 1516.74 559.234 1516.74 569.266C1516.74 579.526 1522.36 588.494 1534.75 588.494C1540.91 588.494 1545.62 586.518 1549.87 581.882L1544.4 577.17C1541.59 580.362 1538.47 581.426 1534.83 581.426C1528.44 581.426 1524.87 577.55 1524.57 571.546H1550.86C1551.01 570.406 1551.09 569.266 1551.09 568.126ZM1524.57 565.238C1525.1 560.602 1528.14 556.194 1534.14 556.194C1539.69 556.194 1543.41 559.766 1543.57 565.086V565.238H1524.57Z" fill="white"/>
<path d="M1567.54 588.494C1569.29 588.494 1571.26 588.114 1573.16 587.43V581.046C1572.02 581.426 1570.96 581.578 1570.05 581.578C1568.07 581.578 1567.08 580.59 1567.08 578.614V534.838H1559.25V579.146C1559.25 585.53 1562.67 588.494 1567.54 588.494Z" fill="white"/>
<path d="M430.025 537.774H439.642V514.615H463.109V537.774H472.727V484.146H463.109V505.767H439.642V484.146H430.025V537.774Z" fill="white"/>
<path d="M517.007 518.308C517.007 507.767 511.313 499.073 499.541 499.073C486.923 499.073 481.537 509.075 481.537 519C481.537 529.156 487.077 538.543 500.157 538.543C506.543 538.543 511.544 536.312 515.699 531.695L509.313 526.079C506.697 529.079 503.619 530.157 500.234 530.157C494.233 530.157 491.155 526.848 490.77 521.847H516.776C516.93 520.616 517.007 519.462 517.007 518.308ZM490.693 514.538C491.232 510.768 493.848 506.767 499.464 506.767C504.312 506.767 508.005 509.691 508.159 514.538H490.693Z" fill="white"/>
<path d="M544.055 499.073C539.747 499.073 535.515 501.612 533.899 506.305V499.842H524.59V537.774H533.822V518.693C533.822 511.537 536.592 508.075 542.209 508.075C544.055 508.075 545.517 508.536 546.825 509.383L551.288 501.227C548.826 499.688 546.594 499.073 544.055 499.073Z" fill="white"/>
<path d="M569.662 538.543C581.357 538.543 588.666 529.464 588.666 518.769C588.666 507.998 581.357 499.073 569.662 499.073C557.89 499.073 550.658 507.998 550.658 518.769C550.658 529.464 557.89 538.543 569.662 538.543ZM569.662 530.464C562.66 530.464 559.891 524.925 559.891 518.769C559.891 512.537 562.66 507.152 569.662 507.152C576.664 507.152 579.433 512.537 579.433 518.769C579.433 524.925 576.664 530.464 569.662 530.464Z" fill="white"/>
<path d="M634.989 499.073C630.68 499.073 626.449 500.842 624.063 503.689V484.146H614.831V537.774H624.063V534.004C626.679 537.235 630.911 538.543 634.989 538.543C645.299 538.543 650.992 530.157 650.992 518.769C650.992 506.382 644.299 499.073 634.989 499.073ZM632.758 530.003C626.064 530.003 623.217 525.156 623.217 518.846C623.217 512.537 626.064 507.459 632.681 507.459C638.836 507.459 641.76 511.768 641.76 518.846C641.76 525.848 638.913 530.003 632.758 530.003Z" fill="white"/>
<path d="M674.478 538.543C686.173 538.543 693.482 529.464 693.482 518.769C693.482 507.998 686.173 499.073 674.478 499.073C662.706 499.073 655.474 507.998 655.474 518.769C655.474 529.464 662.706 538.543 674.478 538.543ZM674.478 530.464C667.476 530.464 664.706 524.925 664.706 518.769C664.706 512.537 667.476 507.152 674.478 507.152C681.479 507.152 684.249 512.537 684.249 518.769C684.249 524.925 681.479 530.464 674.478 530.464Z" fill="white"/>
<path d="M694.278 537.774H705.588L713.436 525.002L721.284 537.774H732.594L719.514 518.693L732.594 499.842H721.284L713.436 512.383L705.588 499.842H694.278L707.281 518.693L694.278 537.774Z" fill="white"/>
</svg>
