<svg width="1440" height="800" viewBox="0 0 1440 800" fill="none" xmlns="http://www.w3.org/2000/svg">
<rect width="1440" height="800" fill="white"/>
<path fill-rule="evenodd" clip-rule="evenodd" d="M84.1924 27.666C66.5193 27.666 52.1924 41.9929 52.1924 59.666V253.085C52.1924 270.758 66.5193 285.085 84.1924 285.085H425.397C443.071 285.085 457.397 270.758 457.397 253.085V59.666C457.397 41.9929 443.071 27.666 425.397 27.666H84.1924ZM131.717 98.2022C139.824 98.2022 146.396 91.8187 146.396 83.9449C146.396 76.0706 139.824 69.6875 131.717 69.6875C123.609 69.6875 117.037 76.0706 117.037 83.9449C117.037 91.8191 123.609 98.2022 131.717 98.2022ZM117.037 102.953H146.396C154.504 102.953 161.076 109.337 161.076 117.21V129.092C161.076 133.012 157.773 136.22 153.736 136.22H109.697C105.66 136.22 102.357 133.012 102.357 129.092V117.21C102.357 109.336 108.93 102.953 117.037 102.953ZM131.717 205.05C139.824 205.05 146.396 198.666 146.396 190.793C146.396 182.918 139.824 176.535 131.717 176.535C123.609 176.535 117.037 182.918 117.037 190.793C117.037 198.667 123.609 205.05 131.717 205.05ZM117.037 209.801H146.396C154.504 209.801 161.076 216.184 161.076 224.058V235.939C161.076 239.86 157.773 243.068 153.736 243.068H109.697C105.66 243.068 102.357 239.86 102.357 235.939V224.058C102.357 216.184 108.93 209.801 117.037 209.801ZM269.475 83.9449C269.475 91.8187 262.903 98.2022 254.795 98.2022C246.687 98.2022 240.115 91.8191 240.115 83.9449C240.115 76.0706 246.687 69.6875 254.795 69.6875C262.903 69.6875 269.475 76.0706 269.475 83.9449ZM269.475 102.953H240.115C232.008 102.953 225.435 109.336 225.435 117.21V129.092C225.435 133.012 228.738 136.22 232.775 136.22H276.815C280.852 136.22 284.155 133.012 284.155 129.092V117.21C284.155 109.337 277.582 102.953 269.475 102.953ZM254.795 205.05C262.903 205.05 269.475 198.666 269.475 190.793C269.475 182.918 262.903 176.535 254.795 176.535C246.687 176.535 240.115 182.918 240.115 190.793C240.115 198.667 246.687 205.05 254.795 205.05ZM240.115 209.801H269.475C277.582 209.801 284.155 216.184 284.155 224.058V235.939C284.155 239.86 280.852 243.068 276.815 243.068H232.775C228.738 243.068 225.435 239.86 225.435 235.939V224.058C225.435 216.184 232.008 209.801 240.115 209.801ZM392.553 83.9449C392.553 91.8187 385.981 98.2022 377.873 98.2022C369.766 98.2022 363.194 91.8191 363.194 83.9449C363.194 76.0706 369.766 69.6875 377.873 69.6875C385.981 69.6875 392.553 76.0706 392.553 83.9449ZM392.553 102.953H363.194C355.086 102.953 348.514 109.336 348.514 117.21V129.092C348.514 133.012 351.817 136.22 355.854 136.22H399.893C403.93 136.22 407.233 133.012 407.233 129.092V117.21C407.233 109.337 400.661 102.953 392.553 102.953ZM377.873 205.05C385.981 205.05 392.553 198.666 392.553 190.793C392.553 182.918 385.981 176.535 377.873 176.535C369.766 176.535 363.194 182.918 363.194 190.793C363.194 198.667 369.766 205.05 377.873 205.05ZM363.194 209.801H392.553C400.661 209.801 407.233 216.184 407.233 224.058V235.939C407.233 239.86 403.93 243.068 399.893 243.068H355.854C351.817 243.068 348.514 239.86 348.514 235.939V224.058C348.514 216.184 355.086 209.801 363.194 209.801Z" fill="#7DBFEF"/>
<path fill-rule="evenodd" clip-rule="evenodd" d="M84.1924 425.689C66.5193 425.689 52.1924 440.016 52.1924 457.689V651.108C52.1924 668.781 66.5193 683.108 84.1924 683.108H425.397C443.071 683.108 457.397 668.781 457.397 651.108V457.689C457.397 440.016 443.071 425.689 425.397 425.689H84.1924ZM312.778 460.08L335.425 456.788L335.425 456.789C337.111 456.58 338.805 457.816 338.805 459.662V485.358C338.805 488.441 336.268 491.114 332.673 491.732C328.656 492.559 324.846 490.504 324.209 487.212C323.573 483.921 326.325 480.63 330.342 479.811C331.821 479.402 333.301 479.61 334.574 480.02V465.426L314.473 468.3V489.051C314.473 492.134 311.935 494.807 308.34 495.425C304.323 496.252 300.513 494.197 299.876 490.906C299.24 487.614 301.992 484.323 306.009 483.504C307.488 483.095 308.968 483.304 310.241 483.713V462.953C310.241 461.517 311.299 460.288 312.778 460.08ZM284.122 493.909C287.354 483.241 281.064 472.042 270.079 468.904C259.087 465.765 247.565 471.874 244.333 482.542C241.101 493.219 247.391 504.409 258.376 507.547C269.368 510.686 280.89 504.577 284.122 493.909ZM317.44 521.928C318.076 518.227 316.382 514.526 312.786 512.68C310.249 511.444 307.282 511.444 304.959 512.68L299.669 508.779C300.306 504.669 297.975 500.768 293.743 499.74C289.296 498.504 284.643 500.977 283.164 505.287C281.891 509.606 284.437 514.125 288.875 515.562C290.991 516.18 293.107 515.972 294.801 515.153L299.669 518.645C296.496 524.4 292.9 530.156 290.363 533.439C289.941 533.03 289.726 532.62 289.52 532.203C285.924 527.065 280.213 519.255 268.145 515.763L256.723 512.471L245.284 509.188C229.836 504.669 216.503 518.436 210.156 525.01L209.734 525.419C203.832 531.346 197.201 545.26 195.103 549.662C194.945 549.994 194.812 550.272 194.708 550.488C192.807 554.807 194.708 559.945 199.154 561.791C200.212 562.2 201.485 562.61 202.75 562.61C206.139 562.61 209.312 560.763 210.792 557.472C213.751 550.898 219.256 540.414 222.429 537.131L222.851 536.722C223.119 536.462 223.421 536.161 223.754 535.83L223.755 535.83C225.263 534.33 227.405 532.202 229.835 530.348L218.834 566.31C217.991 568.983 217.561 571.857 217.561 574.739C217.14 594.88 216.503 602.891 216.082 604.327C214.817 607.618 205.081 623.649 196.617 636.597C193.658 641.325 194.923 647.49 199.791 650.364C201.485 651.391 203.386 652.009 205.296 652.009C208.685 652.009 212.065 650.364 213.974 647.281C221.38 635.77 234.29 615.638 235.975 609.264C236.397 607.827 237.455 603.917 237.876 581.521L238.298 581.93C246.34 590.359 254.167 601.044 254.804 603.917C254.804 609.444 253.46 626.302 252.654 636.416L252.651 636.452C252.499 638.353 252.367 640.015 252.266 641.316C251.845 646.863 256.077 651.591 261.573 652C267.284 652.41 272.152 648.3 272.574 642.961C272.574 642.625 272.762 640.249 273.035 636.791L273.036 636.785C273.768 627.535 275.111 610.55 275.111 604.126C275.111 595.288 266.011 583.167 258.399 574.119L270.673 536.72C272.152 538.366 273.425 540.011 274.905 542.066L274.96 542.143C277.911 546.243 281.717 551.53 288.658 552.751C289.294 552.959 290.137 552.959 290.989 552.959C295.221 552.959 302.411 550.086 313.843 529.117L317.859 531.991C318.496 532.4 319.339 532.81 320.19 532.81C321.463 532.81 322.521 532.192 323.364 531.373C324.637 529.727 324.207 527.263 322.521 526.027L317.44 521.928Z" fill="#7DBFEF"/>
<path fill-rule="evenodd" clip-rule="evenodd" d="M1014.6 425.689C996.929 425.689 982.603 440.016 982.603 457.689V651.108C982.603 668.781 996.929 683.108 1014.6 683.108H1355.81C1373.48 683.108 1387.81 668.781 1387.81 651.108V457.689C1387.81 440.016 1373.48 425.689 1355.81 425.689H1014.6ZM1172.46 511.169C1161.93 515.881 1150.73 514.74 1142.71 508.246L1142.71 508.244C1131.17 498.991 1117.8 493.474 1106.27 493.309C1081.02 493.475 1060.46 520.254 1060.46 553.055C1060.47 586.179 1080.85 612.801 1106.27 612.801C1117.63 612.808 1131.17 607.449 1142.54 598.032C1150.56 591.531 1161.93 590.561 1172.29 595.108C1175.81 596.567 1179.65 597.378 1183.33 597.378C1198.03 597.379 1210.57 584.873 1215.25 567.668L1280.27 567.502L1280.78 567.991L1283.45 569.608C1284.78 570.584 1286.29 571.073 1287.63 571.396L1287.63 576.913L1286.12 578.702C1285.96 578.86 1285.96 578.86 1285.96 579.19L1285.96 582.767C1286.12 583.255 1286.46 583.579 1286.8 583.579L1292.63 583.414C1293.14 583.255 1293.47 582.932 1293.47 582.602V579.025C1293.64 578.86 1293.48 578.702 1293.31 578.537L1291.8 576.748L1291.8 571.878L1298.83 571.878V576.748L1297.33 578.537C1297.17 578.695 1297.17 578.695 1297.17 579.025V582.602C1297.33 583.09 1297.66 583.414 1298 583.414L1304.35 583.414C1304.85 583.255 1305.18 582.932 1305.18 582.602L1305.01 579.196C1305.18 579.032 1305.01 578.873 1304.84 578.708L1303.34 576.92L1302.83 571.891H1309.85L1309.85 576.761L1308.35 578.55C1308.19 578.708 1308.19 578.708 1308.19 579.038V582.615C1308.35 583.103 1308.68 583.426 1309.02 583.426L1315.37 583.427C1315.87 583.268 1316.21 582.945 1316.21 582.615V579.038C1316.38 578.873 1316.21 578.715 1316.04 578.55L1314.54 576.761L1314.71 571.726C1318.88 571.238 1322.06 567.832 1322.06 563.609V542.503C1322.06 538.28 1318.89 534.868 1314.71 534.386L1315.74 529.199L1317.24 527.41C1317.31 527.344 1317.35 527.305 1317.37 527.258C1317.41 527.194 1317.41 527.113 1317.41 526.922V523.345C1317.24 522.857 1316.91 522.533 1316.57 522.533L1310.22 522.533C1309.72 522.692 1309.39 523.015 1309.39 523.345V526.922C1309.22 527.087 1309.38 527.245 1309.55 527.41L1311.05 529.199V534.069H1304.03V529.199L1305.53 527.41C1305.69 527.252 1305.69 527.252 1305.69 526.922V523.345C1305.53 522.857 1305.2 522.533 1304.86 522.533L1298.51 522.533C1298.01 522.692 1297.67 523.015 1297.67 523.345V526.922C1297.5 527.087 1297.67 527.245 1297.84 527.41L1299.34 529.199L1299.34 534.069L1292.31 534.069V529.199L1293.82 527.41C1293.88 527.344 1293.92 527.305 1293.95 527.258C1293.98 527.194 1293.98 527.113 1293.98 526.922V523.345C1293.82 522.857 1293.48 522.533 1293.14 522.533L1286.8 522.533C1286.29 522.692 1285.96 523.015 1285.96 523.345V526.922C1285.79 527.087 1285.95 527.245 1286.12 527.41L1287.63 529.199V534.716C1286.12 535.204 1284.62 535.693 1283.45 536.504L1280.61 538.286L1280.27 538.61H1215.42C1210.91 521.24 1198.2 508.899 1183.5 508.899C1179.65 508.734 1175.98 509.711 1172.46 511.169ZM1313.04 543.15L1313.04 563.278L1290.98 563.278C1289.98 563.278 1288.97 562.949 1288.14 562.467L1285.3 560.685C1284.46 560.203 1283.96 559.067 1283.96 558.091L1284.28 548.337C1284.12 547.202 1284.79 546.226 1285.62 545.744L1288.46 543.962C1289.3 543.473 1290.3 543.15 1291.31 543.15L1313.04 543.15ZM1275.01 558.481C1275.05 558.605 1275.1 558.728 1275.1 558.897L1216.93 558.89C1217.26 556.943 1217.26 555.003 1217.26 553.05V553.049C1217.26 551.109 1217.26 549.156 1216.93 547.209L1275.1 547.202C1274.93 547.367 1274.93 547.684 1274.93 548.014V558.085C1274.93 558.243 1274.97 558.362 1275.01 558.481ZM1106.27 604.036C1085.88 604.031 1069.32 581.143 1069.49 553.055V553.053C1069.32 524.967 1085.87 502.079 1106.27 502.073C1115.63 502.073 1127 506.95 1136.86 514.903C1147.39 523.509 1162.43 525.133 1175.97 519.127C1178.47 517.992 1180.98 517.504 1183.32 517.504C1197.03 517.496 1208.06 533.408 1208.23 553.054C1208.4 572.701 1197.03 588.605 1183.32 588.605C1180.65 588.605 1178.31 587.958 1175.97 586.982C1162.6 580.819 1147.55 582.442 1136.86 591.206C1127.16 599.33 1115.63 604.036 1106.27 604.036ZM1176.36 553.004C1176.37 543.751 1168.64 536.243 1159.1 536.243C1149.58 536.25 1141.85 543.752 1141.85 553.004C1141.85 562.263 1149.58 569.772 1159.1 569.765C1168.64 569.765 1176.36 562.263 1176.36 553.004ZM1108.6 573.509V532.604L1108.6 532.603C1108.44 530.162 1106.43 528.215 1104.09 528.209C1101.58 528.374 1099.58 530.32 1099.58 532.591V573.509C1099.74 575.944 1101.75 577.891 1104.09 577.891C1106.59 577.726 1108.6 575.779 1108.6 573.509Z" fill="#7DBFEF"/>
<path fill-rule="evenodd" clip-rule="evenodd" d="M1014.6 27.666C996.929 27.666 982.603 41.9929 982.603 59.666V253.085C982.603 270.758 996.929 285.085 1014.6 285.085H1355.81C1373.48 285.085 1387.81 270.758 1387.81 253.085V59.666C1387.81 41.9929 1373.48 27.666 1355.81 27.666H1014.6ZM1178.54 81.7539H1192.8C1194.51 81.7539 1196.06 83.0268 1196.23 84.5876V149.763C1196.23 151.324 1194.69 152.597 1192.8 152.597H1178.54C1176.65 152.597 1175.11 151.324 1175.11 149.763V84.5876C1175.11 83.0269 1176.65 81.7539 1178.54 81.7539ZM1143.86 98.3301H1158.11C1160 98.3301 1161.55 99.6085 1161.55 101.164V149.763C1161.55 151.324 1160 152.597 1158.11 152.597H1143.86C1141.97 152.597 1140.42 151.324 1140.42 149.763V101.164C1140.42 99.6031 1141.97 98.3301 1143.86 98.3301ZM1227.32 113.486H1213.06C1211.17 113.486 1209.63 114.759 1209.63 116.32V149.761C1209.63 151.321 1211.17 152.594 1213.06 152.594H1227.32C1229.21 152.594 1230.75 151.321 1230.75 149.761V116.32C1230.75 114.765 1229.2 113.486 1227.32 113.486ZM1125.56 197.892C1131.14 197.892 1135.67 193.5 1135.67 188.082C1135.67 182.664 1131.14 178.272 1125.56 178.272C1119.99 178.272 1115.46 182.664 1115.46 188.082C1115.46 193.5 1119.99 197.892 1125.56 197.892ZM1135.67 221.189C1135.67 226.607 1131.14 230.999 1125.56 230.999C1119.99 230.999 1115.46 226.607 1115.46 221.189C1115.46 215.771 1119.99 211.379 1125.56 211.379C1131.14 211.379 1135.67 215.771 1135.67 221.189ZM1147.27 192.129H1254.95V182.318H1147.27V192.129ZM1254.95 225.566H1147.27V215.756H1254.95V225.566Z" fill="#7DBFEF"/>
<path fill-rule="evenodd" clip-rule="evenodd" d="M517.745 59.5664C517.745 41.8933 532.072 27.5664 549.745 27.5664H889.238C906.911 27.5664 921.238 41.8933 921.238 59.5664V253.084C921.238 270.757 906.911 285.084 889.238 285.084H549.745C532.072 285.084 517.745 270.757 517.745 253.084V59.5664ZM654.939 91.8125H784.043C791.964 91.8125 798.386 98.2341 798.386 106.155V192.224C798.386 200.145 791.964 206.567 784.043 206.567V192.224V106.155H654.939V192.224V206.567C647.018 206.567 640.597 200.145 640.597 192.224V106.155C640.597 98.2339 647.018 91.8125 654.939 91.8125ZM697.712 206.493L719.558 180.86L741.413 206.493H697.712ZM750.94 220.835C762.862 220.835 766.231 213.499 758.511 204.441L726.531 166.927C722.672 162.395 716.438 162.409 712.585 166.927L680.606 204.441C672.859 213.532 676.282 220.835 688.184 220.835H750.94Z" fill="#7DBFEF"/>
<path fill-rule="evenodd" clip-rule="evenodd" d="M549.397 425.689C531.724 425.689 517.397 440.016 517.397 457.689V651.108C517.397 668.781 531.724 683.108 549.397 683.108H890.603C908.276 683.108 922.603 668.781 922.603 651.108V457.689C922.603 440.016 908.276 425.689 890.603 425.689H549.397ZM736.994 504.353C734.385 496.752 723.41 496.501 720.435 503.974L718.015 510.053H738.95L736.994 504.353ZM690.559 510.053H713.297L716.331 502.432C720.793 491.223 737.255 491.601 741.168 503.002L743.588 510.053H755.885C761.05 510.053 765.237 514.119 765.237 519.135C765.237 524.151 761.05 528.217 755.885 528.217H749.822L758.424 553.278C758.641 553.912 758.935 554.52 759.298 555.088L770.158 572.055C773.886 577.88 782.709 577.238 785.603 571.17C783.668 569.506 782.447 567.075 782.447 564.367C782.447 559.351 786.634 555.285 791.799 555.285H791.833L792.698 553.068C796.499 543.337 810.024 541.826 816 550.465L819.334 555.285H857.125C862.29 555.285 866.477 559.351 866.477 564.367C866.477 569.383 862.29 573.449 857.125 573.449H831.9L844.394 591.51C846.029 593.873 848.768 595.291 851.699 595.291H906.581V599.565H851.699C847.302 599.565 843.194 597.438 840.741 593.893L826.598 573.449H791.799C791.005 573.449 790.234 573.353 789.497 573.172C785.065 582.1 771.975 582.988 766.421 574.311L755.561 557.344C755.016 556.492 754.575 555.581 754.249 554.63L745.184 528.217H710.783L706.968 537.8C703.943 545.398 694.433 548.28 687.427 543.906C686.003 543.017 684.329 542.535 682.647 542.535H675.306C673.434 542.535 671.611 543.115 670.101 544.19L631.279 571.84C629.323 573.233 628.046 575.349 627.749 577.687L626.848 584.783H665.782C670.946 584.783 675.133 588.849 675.133 593.865C675.133 598.881 670.946 602.947 665.782 602.947H624.542L623.344 612.387C621.781 624.698 604.922 627.894 598.708 617.057L581.309 586.717C577.775 580.554 568.509 580.967 565.571 587.419L551.216 618.94L547.192 617.211L561.547 585.69C565.954 576.013 579.852 575.393 585.154 584.638L591.202 595.185C591.137 594.754 591.104 594.313 591.104 593.865C591.104 588.849 595.291 584.783 600.455 584.783H622.414L623.381 577.164C623.826 573.657 625.742 570.483 628.677 568.394L667.499 540.743C669.763 539.131 672.498 538.261 675.306 538.261H682.647C685.183 538.261 687.682 538.984 689.807 540.311C694.519 543.253 700.865 541.279 702.864 536.259L706.065 528.217H690.559C685.394 528.217 681.207 524.151 681.207 519.135C681.207 514.119 685.394 510.053 690.559 510.053ZM814.033 555.285H796.539L796.813 554.584C799.346 548.097 808.363 547.089 812.347 552.849L814.033 555.285ZM600.455 602.947H620.108L618.976 611.864C617.934 620.072 606.695 622.202 602.552 614.978L594.427 600.809C596.055 602.143 598.158 602.947 600.455 602.947Z" fill="#7DBFEF"/>
<path d="M146.048 333.578L136.52 358.521L126.902 333.578H122.453L134.902 364.903H138.048L150.452 333.578H146.048Z" fill="black"/>
<path d="M155.163 338.297H159.478V333.578H155.163V338.297ZM155.388 364.903H159.253V342.746H155.388V364.903Z" fill="black"/>
<path d="M181.765 333.578V345.533C180.237 343.51 177.675 342.342 174.754 342.342C168.821 342.342 165.046 346.791 165.046 353.802C165.046 360.409 168.417 365.307 174.754 365.307C177.675 365.307 180.192 364.229 181.765 362.161V364.903H185.63V333.578H181.765ZM175.473 361.802C171.113 361.802 168.911 358.521 168.911 353.802C168.911 348.948 171.293 345.802 175.473 345.802C179.742 345.802 182.079 349.083 182.079 353.802C182.079 358.386 179.877 361.802 175.473 361.802Z" fill="black"/>
<path d="M211.243 352.993C211.243 347.6 208.232 342.342 201.445 342.342C194.704 342.342 191.378 347.825 191.378 353.937C191.378 360.094 194.749 365.307 201.805 365.307C205.31 365.307 208.007 364.184 210.524 361.487L207.872 359.105C205.984 361.128 204.097 361.757 201.85 361.757C197.76 361.757 195.378 359.195 195.243 354.971H211.108C211.198 354.386 211.243 353.622 211.243 352.993ZM195.243 351.825C195.513 348.499 197.625 345.578 201.4 345.578C205.131 345.578 207.378 348.005 207.512 351.42C207.512 351.6 207.512 351.735 207.557 351.825H195.243Z" fill="black"/>
<path d="M225.728 365.307C232.245 365.307 236.559 360.229 236.559 353.802C236.559 347.33 232.2 342.342 225.728 342.342C219.212 342.342 214.987 347.33 214.987 353.802C214.987 360.274 219.212 365.307 225.728 365.307ZM225.728 361.892C221.234 361.892 218.852 358.341 218.852 353.802C218.852 349.263 221.189 345.757 225.728 345.757C230.268 345.757 232.694 349.218 232.694 353.802C232.694 358.296 230.268 361.892 225.728 361.892Z" fill="black"/>
<path d="M260.704 365.307C264.929 365.307 268.884 363.06 268.884 358.341C268.884 350.027 256.48 352.903 256.48 348.274C256.48 346.656 258.008 345.623 260.434 345.623C263.041 345.623 264.614 346.926 265.603 348.724L268.659 347.061C267.086 343.96 264.165 342.342 260.524 342.342C256.165 342.342 252.749 344.679 252.749 348.679C252.749 356.678 265.064 353.398 265.064 358.566C265.064 360.498 263.446 361.981 260.569 361.981C257.289 361.981 255.446 360.004 254.727 357.937L251.536 359.375C252.704 362.835 256.255 365.307 260.704 365.307Z" fill="black"/>
<path d="M284.656 345.892V342.746H279.219V334.612L275.353 337.488V342.746H271.713V345.892H275.353V359.375C275.353 363.554 277.87 365.307 281.061 365.307C282.23 365.307 283.443 365.082 284.656 364.678V361.397C283.668 361.712 282.769 361.892 282.005 361.892C280.252 361.892 279.219 360.993 279.219 358.97V345.892H284.656Z" fill="black"/>
<path d="M300.022 342.342C297.685 342.342 295.033 343.375 293.64 346.207V342.746H289.775V364.903H293.64V352.948C293.64 348.364 295.842 345.982 299.213 345.982C300.202 345.982 301.145 346.207 302.089 346.656L303.977 343.42C302.673 342.656 301.415 342.342 300.022 342.342Z" fill="black"/>
<path d="M324.3 352.993C324.3 347.6 321.289 342.342 314.503 342.342C307.761 342.342 304.436 347.825 304.436 353.937C304.436 360.094 307.806 365.307 314.862 365.307C318.368 365.307 321.064 364.184 323.581 361.487L320.929 359.105C319.042 361.128 317.154 361.757 314.907 361.757C310.817 361.757 308.435 359.195 308.301 354.971H324.165C324.255 354.386 324.3 353.622 324.3 352.993ZM308.301 351.825C308.57 348.499 310.682 345.578 314.458 345.578C318.188 345.578 320.435 348.005 320.57 351.42C320.57 351.6 320.57 351.735 320.615 351.825H308.301Z" fill="black"/>
<path d="M337.977 342.342C334.112 342.342 331.101 343.825 328.629 346.971L331.415 349.308C333.168 346.971 335.28 345.757 337.887 345.757C341.257 345.757 343.145 347.645 343.145 351.061V351.959H338.246C334.516 351.959 332.314 352.319 330.651 353.218C328.853 354.207 327.865 356.004 327.865 358.341C327.865 362.611 330.876 365.307 335.64 365.307C338.965 365.307 341.617 363.959 343.19 361.577L343.46 364.903H347.01V351.061C347.01 345.578 343.639 342.342 337.977 342.342ZM336.539 362.071C333.572 362.071 331.73 360.678 331.73 358.521C331.73 357.397 332.134 356.544 332.853 355.959C333.797 355.24 335.325 354.971 338.696 354.971H343.145V355.195C343.145 359.285 340.449 362.071 336.539 362.071Z" fill="black"/>
<path d="M377.445 342.342C374.254 342.342 371.737 343.645 370.209 346.656C368.996 343.555 366.569 342.342 363.693 342.342C361.311 342.342 359.064 343.196 357.67 345.488V342.746H353.895L353.94 364.903H357.805V354.971C357.805 350.162 358.569 345.757 362.974 345.757C366.704 345.757 367.558 349.173 367.558 352.184V364.903H371.423V354.971C371.423 350.162 372.142 345.757 376.681 345.757C381.085 345.757 381.175 350.252 381.175 352.094V364.903H385.04V350.971C385.04 346.027 382.748 342.342 377.445 342.342Z" fill="black"/>
<path d="M509.122 362.494C515.594 362.494 519.504 358.943 519.504 353.506C519.504 349.101 517.436 346.63 510.561 344.023C505.707 342.136 503.73 340.743 503.73 338.136C503.73 335.709 505.887 333.732 508.808 333.732C511.325 333.732 513.437 335.125 514.695 337.507L518.066 335.44C516.133 331.979 512.987 330.137 508.943 330.137C503.46 330.137 499.73 333.417 499.73 338.271C499.73 342.495 501.977 344.787 508.403 347.259C513.616 349.281 515.459 350.899 515.459 353.865C515.459 356.786 513.257 358.898 509.167 358.898C505.168 358.898 502.292 356.516 501.752 352.562L497.798 353.55C498.651 358.943 503.19 362.494 509.122 362.494Z" fill="black"/>
<path d="M535.095 339.439C532.219 339.439 529.703 340.473 528.085 342.585V339.844H524.22V371.167H528.085V359.213C529.568 361.19 532.129 362.404 535.095 362.404C541.252 362.404 544.802 357.73 544.802 350.899C544.802 344.068 541.207 339.439 535.095 339.439ZM534.376 358.988C529.972 358.988 527.77 355.528 527.77 350.899C527.77 346.09 530.107 342.81 534.376 342.81C538.556 342.81 540.938 345.956 540.938 350.899C540.938 355.708 538.691 358.988 534.376 358.988Z" fill="black"/>
<path d="M559.404 362.404C565.92 362.404 570.235 357.325 570.235 350.899C570.235 344.428 565.875 339.439 559.404 339.439C552.888 339.439 548.663 344.428 548.663 350.899C548.663 357.37 552.888 362.404 559.404 362.404ZM559.404 358.988C554.91 358.988 552.528 355.438 552.528 350.899C552.528 346.36 554.865 342.855 559.404 342.855C563.943 342.855 566.37 346.315 566.37 350.899C566.37 355.393 563.943 358.988 559.404 358.988Z" fill="black"/>
<path d="M585.678 342.99V339.844H580.24V331.71L576.375 334.586V339.844H572.735V342.99H576.375V356.472C576.375 360.651 578.892 362.404 582.083 362.404C583.251 362.404 584.464 362.179 585.678 361.774V358.494C584.689 358.808 583.79 358.988 583.026 358.988C581.274 358.988 580.24 358.089 580.24 356.067V342.99H585.678Z" fill="black"/>
<path d="M595.199 362.404C596.188 362.404 597.356 362.134 598.39 361.774L598.345 358.584C597.716 358.764 596.997 358.943 596.368 358.943C595.064 358.943 594.525 358.134 594.525 356.786V330.676H590.66V357.011C590.66 360.651 592.503 362.404 595.199 362.404Z" fill="black"/>
<path d="M602.903 335.395H607.218V330.676H602.903V335.395ZM603.128 361.999H606.993V339.844H603.128V361.999Z" fill="black"/>
<path d="M622.448 359.078C619.392 358.629 616.786 358.134 616.786 356.067C616.786 355.258 617.19 354.629 617.999 354.18C619.257 354.854 620.785 355.213 622.448 355.213C627.167 355.213 631.032 352.157 631.032 347.484C631.032 345.956 630.627 344.562 629.908 343.394L632.964 340.877L630.942 338.406L627.796 341.102C626.313 340.068 624.47 339.439 622.358 339.439C617.55 339.439 613.685 342.675 613.685 347.304C613.685 349.236 614.359 350.989 615.572 352.337C614.089 353.416 613.28 354.764 613.28 356.651C613.28 358.898 614.449 360.202 616.112 361.01L612.606 363.662C612.561 363.932 612.516 364.201 612.516 364.651C612.516 369.145 616.291 371.571 622.583 371.571C628.29 371.571 632.29 369.594 632.29 365.28C632.29 360.291 626.897 359.707 622.448 359.078ZM622.403 342.675C625.324 342.675 627.167 344.607 627.167 347.394C627.167 350.045 625.414 352.067 622.403 352.067C619.347 352.067 617.55 350 617.55 347.394C617.55 344.607 619.572 342.675 622.403 342.675ZM622.763 368.471C619.392 368.471 616.336 367.617 616.336 364.875C616.336 364.785 616.336 364.696 616.381 364.516L619.033 361.954C619.887 362.134 620.785 362.269 621.639 362.404C625.145 362.943 628.425 363.258 628.425 365.639C628.425 367.572 626.133 368.471 622.763 368.471Z" fill="black"/>
<path d="M648.853 339.439C645.752 339.439 643.19 340.698 641.707 342.855V330.676H637.843V361.999H641.707V352.247C641.707 346.045 643.82 342.855 647.819 342.855C650.965 342.855 652.403 344.832 652.403 349.146V361.999H656.268V348.203C656.268 342.495 653.661 339.439 648.853 339.439Z" fill="black"/>
<path d="M673.363 342.99V339.844H667.926V331.71L664.061 334.586V339.844H660.421V342.99H664.061V356.472C664.061 360.651 666.577 362.404 669.768 362.404C670.937 362.404 672.15 362.179 673.363 361.774V358.494C672.375 358.808 671.476 358.988 670.712 358.988C668.959 358.988 667.926 358.089 667.926 356.067V342.99H673.363Z" fill="black"/>
<path d="M714.05 361.145L709.466 355.887C711.084 353.461 712.073 350.45 712.298 347.079L708.523 346.72C708.433 349.012 707.894 351.169 706.995 353.011L700.883 346.001C704.343 343.978 707.489 341.641 707.489 337.552C707.489 333.507 703.939 330.361 699.58 330.361C695.265 330.361 691.266 333.148 691.266 337.597C691.266 340.877 694.007 343.843 695.31 345.237C691.445 347.394 687.715 349.955 687.715 354.764C687.715 359.617 691.94 362.404 697.557 362.404C701.332 362.404 704.613 361.01 707.13 358.674L711.309 363.527L714.05 361.145ZM694.996 337.642C694.996 335.035 697.018 333.417 699.58 333.417C702.276 333.417 703.894 335.35 703.894 337.597C703.894 340.293 701.422 341.956 698.366 343.619C697.288 342.36 694.996 339.799 694.996 337.642ZM697.467 359.123C693.827 359.123 691.49 357.55 691.49 354.809C691.49 351.573 694.412 349.641 697.737 347.753L704.883 356.067C702.995 357.955 700.523 359.123 697.467 359.123Z" fill="black"/>
<path d="M736.966 362.404C741.191 362.404 745.145 360.157 745.145 355.438C745.145 347.124 732.742 350 732.742 345.371C732.742 343.754 734.27 342.72 736.697 342.72C739.303 342.72 740.876 344.023 741.865 345.821L744.921 344.158C743.348 341.057 740.427 339.439 736.786 339.439C732.427 339.439 729.012 341.776 729.012 345.776C729.012 353.775 741.325 350.495 741.325 355.663C741.325 357.595 739.708 359.078 736.831 359.078C733.551 359.078 731.708 357.101 730.989 355.033L727.798 356.472C728.967 359.932 732.517 362.404 736.966 362.404Z" fill="black"/>
<path d="M759.079 362.404C763.214 362.404 766.494 360.157 767.977 356.112L764.427 354.764C763.663 357.415 761.641 358.988 759.034 358.988C754.63 358.988 752.743 355.168 752.743 350.989C752.743 346.809 754.63 342.855 759.034 342.855C761.596 342.855 763.618 344.473 764.517 347.169L768.202 345.686C766.449 341.462 763.124 339.439 759.034 339.439C752.158 339.439 748.788 345.147 748.788 350.989C748.788 357.056 752.383 362.404 759.079 362.404Z" fill="black"/>
<path d="M783.523 339.439C781.186 339.439 778.535 340.473 777.142 343.304V339.844H773.277V361.999H777.142V350.045C777.142 345.461 779.344 343.079 782.714 343.079C783.703 343.079 784.647 343.304 785.591 343.754L787.478 340.518C786.175 339.754 784.916 339.439 783.523 339.439Z" fill="black"/>
<path d="M807.8 350.09C807.8 344.697 804.789 339.439 798.003 339.439C791.262 339.439 787.937 344.922 787.937 351.034C787.937 357.191 791.307 362.404 798.363 362.404C801.868 362.404 804.565 361.28 807.081 358.584L804.43 356.202C802.542 358.224 800.655 358.853 798.408 358.853C794.318 358.853 791.937 356.292 791.802 352.067H807.666C807.755 351.483 807.8 350.719 807.8 350.09ZM791.802 348.922C792.071 345.596 794.184 342.675 797.959 342.675C801.689 342.675 803.936 345.102 804.07 348.517C804.07 348.697 804.07 348.832 804.115 348.922H791.802Z" fill="black"/>
<path d="M831.543 350.09C831.543 344.697 828.532 339.439 821.746 339.439C815.005 339.439 811.68 344.922 811.68 351.034C811.68 357.191 815.05 362.404 822.106 362.404C825.611 362.404 828.307 361.28 830.824 358.584L828.173 356.202C826.285 358.224 824.398 358.853 822.151 358.853C818.061 358.853 815.679 356.292 815.544 352.067H831.408C831.498 351.483 831.543 350.719 831.543 350.09ZM815.544 348.922C815.814 345.596 817.926 342.675 821.701 342.675C825.431 342.675 827.678 345.102 827.813 348.517C827.813 348.697 827.813 348.832 827.858 348.922H815.544Z" fill="black"/>
<path d="M848.185 339.439C845.174 339.439 842.568 340.698 841.085 342.855V339.844H837.22V361.999H841.085V352.427C841.085 346.944 842.703 342.855 847.152 342.855C850.747 342.855 851.78 345.461 851.78 349.146V361.999H855.645V348.203C855.645 342.495 853.039 339.439 848.185 339.439Z" fill="black"/>
<path d="M869.46 362.404C873.685 362.404 877.639 360.157 877.639 355.438C877.639 347.124 865.236 350 865.236 345.371C865.236 343.754 866.764 342.72 869.191 342.72C871.797 342.72 873.37 344.023 874.359 345.821L877.415 344.158C875.842 341.057 872.921 339.439 869.28 339.439C864.921 339.439 861.506 341.776 861.506 345.776C861.506 353.775 873.819 350.495 873.819 355.663C873.819 357.595 872.202 359.078 869.325 359.078C866.045 359.078 864.202 357.101 863.483 355.033L860.292 356.472C861.461 359.932 865.011 362.404 869.46 362.404Z" fill="black"/>
<path d="M894.355 339.439C891.254 339.439 888.693 340.698 887.21 342.855V330.676H883.345V361.999H887.21V352.247C887.21 346.045 889.322 342.855 893.322 342.855C896.467 342.855 897.905 344.832 897.905 349.146V361.999H901.77V348.203C901.77 342.495 899.164 339.439 894.355 339.439Z" fill="black"/>
<path d="M916.798 339.439C912.934 339.439 909.923 340.922 907.451 344.068L910.237 346.405C911.99 344.068 914.102 342.855 916.709 342.855C920.079 342.855 921.967 344.742 921.967 348.158V349.056H917.068C913.338 349.056 911.136 349.416 909.473 350.315C907.676 351.303 906.687 353.101 906.687 355.438C906.687 359.707 909.698 362.404 914.462 362.404C917.787 362.404 920.439 361.055 922.012 358.674L922.281 361.999H925.831V348.158C925.831 342.675 922.461 339.439 916.798 339.439ZM915.36 359.168C912.394 359.168 910.552 357.775 910.552 355.618C910.552 354.494 910.956 353.64 911.675 353.056C912.619 352.337 914.147 352.067 917.518 352.067H921.967V352.292C921.967 356.382 919.27 359.168 915.36 359.168Z" fill="black"/>
<path d="M943.008 339.439C940.671 339.439 938.019 340.473 936.626 343.304V339.844H932.761V361.999H936.626V350.045C936.626 345.461 938.828 343.079 942.199 343.079C943.187 343.079 944.131 343.304 945.075 343.754L946.962 340.518C945.659 339.754 944.401 339.439 943.008 339.439Z" fill="black"/>
<path d="M967.285 350.09C967.285 344.697 964.274 339.439 957.488 339.439C950.747 339.439 947.421 344.922 947.421 351.034C947.421 357.191 950.792 362.404 957.847 362.404C961.353 362.404 964.049 361.28 966.566 358.584L963.914 356.202C962.027 358.224 960.139 358.853 957.892 358.853C953.803 358.853 951.421 356.292 951.286 352.067H967.15C967.24 351.483 967.285 350.719 967.285 350.09ZM951.286 348.922C951.556 345.596 953.668 342.675 957.443 342.675C961.173 342.675 963.42 345.102 963.555 348.517C963.555 348.697 963.555 348.832 963.6 348.922H951.286Z" fill="black"/>
<path d="M1107.38 365.038L1102.85 360.544C1105.14 357.757 1106.49 353.892 1106.49 349.263C1106.49 339.511 1100.64 333.039 1091.92 333.039C1083.25 333.039 1077.36 339.511 1077.36 349.263C1077.36 358.971 1083.25 365.442 1091.92 365.442C1095.12 365.442 1097.95 364.543 1100.24 362.926L1104.87 367.42L1107.38 365.038ZM1091.92 361.622C1085.5 361.622 1081.36 356.813 1081.36 349.263C1081.36 341.668 1085.5 336.859 1091.92 336.859C1098.35 336.859 1102.49 341.668 1102.49 349.263C1102.49 352.769 1101.59 355.69 1100.01 357.802L1095.21 353.083L1092.64 355.555L1097.41 360.184C1095.88 361.128 1093.99 361.622 1091.92 361.622Z" fill="black"/>
<path d="M1127.58 342.747V352.364C1127.58 357.488 1126.1 361.892 1121.47 361.892C1117.29 361.892 1116.88 358.341 1116.88 355.465V342.747H1113.02V356.409C1113.02 361.622 1115.27 365.307 1120.48 365.307C1123.26 365.307 1126.01 364.229 1127.58 361.892V364.903H1131.44V342.747H1127.58Z" fill="black"/>
<path d="M1138.79 338.297H1143.1V333.578H1138.79V338.297ZM1139.01 364.903H1142.88V342.747H1139.01V364.903Z" fill="black"/>
<path d="M1166.38 342.747H1148.81V346.027H1161.61L1148.09 362.206V364.903H1166.33V361.622H1153.17L1166.38 345.668V342.747Z" fill="black"/>
<path d="M1207.06 364.049L1202.48 358.791C1204.09 356.364 1205.08 353.353 1205.31 349.982L1201.53 349.623C1201.44 351.915 1200.9 354.072 1200 355.915L1193.89 348.904C1197.35 346.881 1200.5 344.544 1200.5 340.454C1200.5 336.41 1196.95 333.264 1192.59 333.264C1188.27 333.264 1184.28 336.05 1184.28 340.499C1184.28 343.78 1187.02 346.746 1188.32 348.14C1184.45 350.297 1180.72 352.858 1180.72 357.667C1180.72 362.521 1184.95 365.307 1190.57 365.307C1194.34 365.307 1197.62 363.914 1200.14 361.577L1204.32 366.431L1207.06 364.049ZM1188.01 340.544C1188.01 337.938 1190.03 336.32 1192.59 336.32C1195.29 336.32 1196.9 338.252 1196.9 340.499C1196.9 343.196 1194.43 344.859 1191.38 346.522C1190.3 345.263 1188.01 342.702 1188.01 340.544ZM1190.48 362.027C1186.84 362.027 1184.5 360.454 1184.5 357.712C1184.5 354.476 1187.42 352.544 1190.75 350.656L1197.89 358.971C1196 360.858 1193.53 362.027 1190.48 362.027Z" fill="black"/>
<path d="M1234.07 342.342C1231.19 342.342 1228.67 343.376 1227.06 345.488V342.747H1223.19V374.071H1227.06V362.117C1228.54 364.094 1231.1 365.307 1234.07 365.307C1240.22 365.307 1243.77 360.633 1243.77 353.802C1243.77 346.971 1240.18 342.342 1234.07 342.342ZM1233.35 361.892C1228.94 361.892 1226.74 358.431 1226.74 353.802C1226.74 348.993 1229.08 345.713 1233.35 345.713C1237.53 345.713 1239.91 348.859 1239.91 353.802C1239.91 358.611 1237.66 361.892 1233.35 361.892Z" fill="black"/>
<path d="M1258.38 365.307C1264.89 365.307 1269.21 360.229 1269.21 353.802C1269.21 347.331 1264.85 342.342 1258.38 342.342C1251.86 342.342 1247.64 347.331 1247.64 353.802C1247.64 360.274 1251.86 365.307 1258.38 365.307ZM1258.38 361.892C1253.88 361.892 1251.5 358.341 1251.5 353.802C1251.5 349.263 1253.84 345.758 1258.38 345.758C1262.92 345.758 1265.34 349.218 1265.34 353.802C1265.34 358.296 1262.92 361.892 1258.38 361.892Z" fill="black"/>
<path d="M1279.12 365.307C1280.11 365.307 1281.28 365.038 1282.31 364.678L1282.27 361.487C1281.64 361.667 1280.92 361.847 1280.29 361.847C1278.99 361.847 1278.45 361.038 1278.45 359.69V333.578H1274.58V359.914C1274.58 363.555 1276.42 365.307 1279.12 365.307Z" fill="black"/>
<path d="M1291.41 365.307C1292.4 365.307 1293.57 365.038 1294.6 364.678L1294.55 361.487C1293.93 361.667 1293.21 361.847 1292.58 361.847C1291.27 361.847 1290.73 361.038 1290.73 359.69V333.578H1286.87V359.914C1286.87 363.555 1288.71 365.307 1291.41 365.307Z" fill="black"/>
<path d="M129.845 758.335H133.845V744.897H139.238C145.934 744.897 149.664 741.706 149.664 735.864C149.664 730.111 146.024 727.01 139.238 727.01H129.845V758.335ZM133.845 741.212V730.695H138.833C143.417 730.695 145.664 732.403 145.664 735.908C145.664 739.459 143.417 741.212 138.833 741.212H133.845Z" fill="black"/>
<path d="M171.677 746.425C171.677 741.032 168.666 735.774 161.88 735.774C155.138 735.774 151.813 741.257 151.813 747.369C151.813 753.526 155.183 758.739 162.239 758.739C165.745 758.739 168.441 757.615 170.958 754.919L168.306 752.537C166.419 754.559 164.531 755.189 162.284 755.189C158.194 755.189 155.812 752.627 155.678 748.402H171.542C171.632 747.818 171.677 747.054 171.677 746.425ZM155.678 745.256C155.947 741.931 158.06 739.009 161.835 739.009C165.565 739.009 167.812 741.436 167.947 744.852C167.947 745.032 167.947 745.167 167.992 745.256H155.678Z" fill="black"/>
<path d="M187.601 735.774C185.264 735.774 182.612 736.807 181.219 739.639V736.178H177.354V758.335H181.219V746.38C181.219 741.796 183.421 739.414 186.792 739.414C187.781 739.414 188.724 739.639 189.668 740.088L191.556 736.852C190.252 736.088 188.994 735.774 187.601 735.774Z" fill="black"/>
<path d="M197.926 758.335H201.791V739.324H207.768V736.178H201.791V732.897C201.791 731.234 202.51 729.841 204.307 729.841C205.071 729.841 205.835 730.111 206.644 730.515L207.948 727.504C206.599 726.92 205.296 726.605 203.903 726.605C200.847 726.605 197.971 728.044 197.971 733.077V736.178H193.386V739.324H197.926V758.335Z" fill="black"/>
<path d="M220.045 758.739C226.561 758.739 230.876 753.661 230.876 747.234C230.876 740.762 226.516 735.774 220.045 735.774C213.528 735.774 209.304 740.762 209.304 747.234C209.304 753.706 213.528 758.739 220.045 758.739ZM220.045 755.323C215.551 755.323 213.169 751.773 213.169 747.234C213.169 742.695 215.506 739.189 220.045 739.189C224.584 739.189 227.011 742.65 227.011 747.234C227.011 751.728 224.584 755.323 220.045 755.323Z" fill="black"/>
<path d="M246.675 735.774C244.338 735.774 241.686 736.807 240.293 739.639V736.178H236.428V758.335H240.293V746.38C240.293 741.796 242.495 739.414 245.866 739.414C246.855 739.414 247.799 739.639 248.742 740.088L250.63 736.852C249.327 736.088 248.068 735.774 246.675 735.774Z" fill="black"/>
<path d="M278.103 735.774C274.912 735.774 272.395 737.077 270.867 740.088C269.654 736.987 267.227 735.774 264.351 735.774C261.969 735.774 259.722 736.628 258.328 738.92V736.178H254.553L254.598 758.335H258.463V748.402C258.463 743.594 259.227 739.189 263.632 739.189C267.362 739.189 268.216 742.605 268.216 745.616V758.335H272.081V748.402C272.081 743.594 272.8 739.189 277.339 739.189C281.743 739.189 281.833 743.683 281.833 745.526V758.335H285.698V744.403C285.698 739.459 283.406 735.774 278.103 735.774Z" fill="black"/>
<path d="M300.693 735.774C296.828 735.774 293.817 737.257 291.345 740.403L294.132 742.74C295.884 740.403 297.997 739.189 300.603 739.189C303.974 739.189 305.862 741.077 305.862 744.492V745.391H300.963C297.233 745.391 295.031 745.751 293.368 746.65C291.57 747.638 290.581 749.436 290.581 751.773C290.581 756.042 293.592 758.739 298.356 758.739C301.682 758.739 304.334 757.391 305.907 755.009L306.176 758.335H309.727V744.492C309.727 739.009 306.356 735.774 300.693 735.774ZM299.255 755.503C296.289 755.503 294.446 754.11 294.446 751.953C294.446 750.829 294.851 749.975 295.57 749.391C296.514 748.672 298.042 748.402 301.412 748.402H305.862V748.627C305.862 752.717 303.165 755.503 299.255 755.503Z" fill="black"/>
<path d="M327.623 735.774C324.612 735.774 322.005 737.032 320.522 739.189V736.178H316.657V758.335H320.522V748.762C320.522 743.279 322.14 739.189 326.589 739.189C330.184 739.189 331.218 741.796 331.218 745.481V758.335H335.083V744.537C335.083 738.83 332.476 735.774 327.623 735.774Z" fill="black"/>
<path d="M350.516 758.739C354.651 758.739 357.932 756.492 359.415 752.447L355.864 751.099C355.1 753.75 353.078 755.323 350.471 755.323C346.067 755.323 344.18 751.503 344.18 747.324C344.18 743.144 346.067 739.189 350.471 739.189C353.033 739.189 355.056 740.807 355.954 743.504L359.64 742.021C357.887 737.796 354.561 735.774 350.471 735.774C343.595 735.774 340.225 741.481 340.225 747.324C340.225 753.391 343.82 758.739 350.516 758.739Z" fill="black"/>
<path d="M382.562 746.425C382.562 741.032 379.551 735.774 372.765 735.774C366.023 735.774 362.698 741.257 362.698 747.369C362.698 753.526 366.068 758.739 373.124 758.739C376.63 758.739 379.326 757.615 381.843 754.919L379.191 752.537C377.304 754.559 375.416 755.189 373.169 755.189C369.08 755.189 366.698 752.627 366.563 748.402H382.427C382.517 747.818 382.562 747.054 382.562 746.425ZM366.563 745.256C366.832 741.931 368.945 739.009 372.72 739.009C376.45 739.009 378.697 741.436 378.832 744.852C378.832 745.032 378.832 745.167 378.877 745.256H366.563Z" fill="black"/>
<path d="M587.655 758.334H591.654V744.897H597.047C603.744 744.897 607.474 741.706 607.474 735.863C607.474 730.111 603.834 727.01 597.047 727.01H587.655V758.334ZM591.654 741.211V730.695H596.643C601.227 730.695 603.474 732.403 603.474 735.908C603.474 739.459 601.227 741.211 596.643 741.211H591.654Z" fill="black"/>
<path d="M622.72 735.773C620.383 735.773 617.732 736.807 616.338 739.638V736.178H612.473V758.334H616.338V746.38C616.338 741.796 618.541 739.414 621.911 739.414C622.9 739.414 623.844 739.638 624.788 740.088L626.675 736.852C625.372 736.088 624.113 735.773 622.72 735.773Z" fill="black"/>
<path d="M638.687 735.773C634.822 735.773 631.811 737.257 629.339 740.402L632.125 742.739C633.878 740.402 635.99 739.189 638.597 739.189C641.968 739.189 643.855 741.077 643.855 744.492V745.391H638.957C635.226 745.391 633.024 745.751 631.361 746.649C629.564 747.638 628.575 749.436 628.575 751.773C628.575 756.042 631.586 758.739 636.35 758.739C639.676 758.739 642.327 757.391 643.9 755.009L644.17 758.334H647.72V744.492C647.72 739.009 644.35 735.773 638.687 735.773ZM637.249 755.503C634.283 755.503 632.44 754.11 632.44 751.953C632.44 750.829 632.844 749.975 633.564 749.391C634.507 748.672 636.035 748.402 639.406 748.402H643.855V748.627C643.855 752.717 641.159 755.503 637.249 755.503Z" fill="black"/>
<path d="M663.011 758.739C667.145 758.739 670.426 756.492 671.909 752.447L668.359 751.099C667.595 753.75 665.572 755.323 662.966 755.323C658.561 755.323 656.674 751.503 656.674 747.324C656.674 743.144 658.561 739.189 662.966 739.189C665.527 739.189 667.55 740.807 668.449 743.503L672.134 742.02C670.381 737.796 667.056 735.773 662.966 735.773C656.09 735.773 652.719 741.481 652.719 747.324C652.719 753.391 656.314 758.739 663.011 758.739Z" fill="black"/>
<path d="M687.276 739.324V736.178H681.838V728.043L677.973 730.92V736.178H674.333V739.324H677.973V752.806C677.973 756.986 680.49 758.739 683.681 758.739C684.849 758.739 686.063 758.514 687.276 758.11V754.829C686.288 755.143 685.389 755.323 684.625 755.323C682.872 755.323 681.838 754.424 681.838 752.402V739.324H687.276Z" fill="black"/>
<path d="M692.565 731.729H696.879V727.01H692.565V731.729ZM692.79 758.334H696.655V736.178H692.79V758.334Z" fill="black"/>
<path d="M712.605 758.739C716.74 758.739 720.02 756.492 721.503 752.447L717.953 751.099C717.189 753.75 715.167 755.323 712.56 755.323C708.156 755.323 706.268 751.503 706.268 747.324C706.268 743.144 708.156 739.189 712.56 739.189C715.122 739.189 717.144 740.807 718.043 743.503L721.728 742.02C719.975 737.796 716.65 735.773 712.56 735.773C705.684 735.773 702.313 741.481 702.313 747.324C702.313 753.391 705.909 758.739 712.605 758.739Z" fill="black"/>
<path d="M744.651 746.425C744.651 741.032 741.64 735.773 734.853 735.773C728.112 735.773 724.786 741.256 724.786 747.369C724.786 753.526 728.157 758.739 735.213 758.739C738.718 758.739 741.415 757.615 743.932 754.919L741.28 752.537C739.393 754.559 737.505 755.188 735.258 755.188C731.168 755.188 728.786 752.627 728.651 748.402H744.516C744.606 747.818 744.651 747.054 744.651 746.425ZM728.651 745.256C728.921 741.931 731.033 739.009 734.808 739.009C738.539 739.009 740.786 741.436 740.921 744.852C740.921 745.032 740.921 745.166 740.965 745.256H728.651Z" fill="black"/>
<path d="M772.201 739.324V736.178H766.763V728.043L762.898 730.92V736.178H759.258V739.324H762.898V752.806C762.898 756.986 765.415 758.739 768.606 758.739C769.774 758.739 770.987 758.514 772.201 758.11V754.829C771.212 755.143 770.313 755.323 769.549 755.323C767.797 755.323 766.763 754.424 766.763 752.402V739.324H772.201Z" fill="black"/>
<path d="M786.304 758.739C792.82 758.739 797.135 753.66 797.135 747.234C797.135 740.762 792.775 735.773 786.304 735.773C779.787 735.773 775.562 740.762 775.562 747.234C775.562 753.705 779.787 758.739 786.304 758.739ZM786.304 755.323C781.809 755.323 779.427 751.773 779.427 747.234C779.427 742.695 781.764 739.189 786.304 739.189C790.843 739.189 793.27 742.65 793.27 747.234C793.27 751.728 790.843 755.323 786.304 755.323Z" fill="black"/>
<path d="M811.496 758.739C818.012 758.739 822.327 753.66 822.327 747.234C822.327 740.762 817.967 735.773 811.496 735.773C804.979 735.773 800.755 740.762 800.755 747.234C800.755 753.705 804.979 758.739 811.496 758.739ZM811.496 755.323C807.001 755.323 804.62 751.773 804.62 747.234C804.62 742.695 806.957 739.189 811.496 739.189C816.035 739.189 818.462 742.65 818.462 747.234C818.462 751.728 816.035 755.323 811.496 755.323Z" fill="black"/>
<path d="M832.239 758.739C833.227 758.739 834.396 758.469 835.429 758.11L835.384 754.919C834.755 755.099 834.036 755.278 833.407 755.278C832.104 755.278 831.564 754.469 831.564 753.121V727.01H827.699V753.346C827.699 756.986 829.542 758.739 832.239 758.739Z" fill="black"/>
<path d="M846.954 758.739C851.179 758.739 855.134 756.492 855.134 751.773C855.134 743.459 842.73 746.335 842.73 741.706C842.73 740.088 844.258 739.054 846.685 739.054C849.291 739.054 850.864 740.358 851.853 742.155L854.909 740.492C853.336 737.391 850.415 735.773 846.774 735.773C842.415 735.773 838.999 738.11 838.999 742.11C838.999 750.11 851.314 746.829 851.314 751.998C851.314 753.93 849.696 755.413 846.819 755.413C843.539 755.413 841.696 753.436 840.977 751.368L837.786 752.806C838.955 756.267 842.505 758.739 846.954 758.739Z" fill="black"/>
<path d="M1068.73 758.334H1072.73V727.01H1068.73V758.334Z" fill="black"/>
<path d="M1092.22 735.773C1089.21 735.773 1086.6 737.032 1085.12 739.189V736.178H1081.26V758.334H1085.12V748.762C1085.12 743.279 1086.74 739.189 1091.19 739.189C1094.78 739.189 1095.82 741.796 1095.82 745.481V758.334H1099.68V744.537C1099.68 738.83 1097.07 735.773 1092.22 735.773Z" fill="black"/>
<path d="M1113.5 758.739C1117.72 758.739 1121.68 756.492 1121.68 751.773C1121.68 743.459 1109.27 746.335 1109.27 741.706C1109.27 740.088 1110.8 739.054 1113.23 739.054C1115.83 739.054 1117.41 740.358 1118.4 742.155L1121.45 740.492C1119.88 737.391 1116.96 735.773 1113.32 735.773C1108.96 735.773 1105.54 738.11 1105.54 742.11C1105.54 750.11 1117.86 746.829 1117.86 751.998C1117.86 753.93 1116.24 755.413 1113.36 755.413C1110.08 755.413 1108.24 753.436 1107.52 751.368L1104.33 752.806C1105.5 756.267 1109.05 758.739 1113.5 758.739Z" fill="black"/>
<path d="M1137.45 739.324V736.178H1132.01V728.043L1128.15 730.92V736.178H1124.51V739.324H1128.15V752.806C1128.15 756.986 1130.66 758.739 1133.85 758.739C1135.02 758.739 1136.24 758.514 1137.45 758.11V754.829C1136.46 755.143 1135.56 755.323 1134.8 755.323C1133.05 755.323 1132.01 754.424 1132.01 752.402V739.324H1137.45Z" fill="black"/>
<path d="M1152.81 735.773C1150.48 735.773 1147.83 736.807 1146.43 739.638V736.178H1142.57V758.334H1146.43V746.38C1146.43 741.796 1148.64 739.414 1152.01 739.414C1152.99 739.414 1153.94 739.638 1154.88 740.088L1156.77 736.852C1155.47 736.088 1154.21 735.773 1152.81 735.773Z" fill="black"/>
<path d="M1174.89 736.178V745.796C1174.89 750.919 1173.41 755.323 1168.78 755.323C1164.6 755.323 1164.2 751.773 1164.2 748.897V736.178H1160.33V749.84C1160.33 755.054 1162.58 758.739 1167.79 758.739C1170.58 758.739 1173.32 757.66 1174.89 755.323V758.334H1178.76V736.178H1174.89Z" fill="black"/>
<path d="M1209.83 735.773C1206.64 735.773 1204.12 737.077 1202.59 740.088C1201.38 736.987 1198.95 735.773 1196.08 735.773C1193.7 735.773 1191.45 736.627 1190.06 738.919V736.178H1186.28L1186.32 758.334H1190.19V748.402C1190.19 743.593 1190.95 739.189 1195.36 739.189C1199.09 739.189 1199.94 742.605 1199.94 745.616V758.334H1203.81V748.402C1203.81 743.593 1204.53 739.189 1209.07 739.189C1213.47 739.189 1213.56 743.683 1213.56 745.526V758.334H1217.42V744.402C1217.42 739.459 1215.13 735.773 1209.83 735.773Z" fill="black"/>
<path d="M1242.49 746.425C1242.49 741.032 1239.48 735.773 1232.69 735.773C1225.95 735.773 1222.62 741.256 1222.62 747.369C1222.62 753.526 1225.99 758.739 1233.05 758.739C1236.55 758.739 1239.25 757.615 1241.77 754.919L1239.12 752.537C1237.23 754.559 1235.34 755.188 1233.09 755.188C1229 755.188 1226.62 752.627 1226.49 748.402H1242.35C1242.44 747.818 1242.49 747.054 1242.49 746.425ZM1226.49 745.256C1226.76 741.931 1228.87 739.009 1232.64 739.009C1236.37 739.009 1238.62 741.436 1238.76 744.852C1238.76 745.032 1238.76 745.166 1238.8 745.256H1226.49Z" fill="black"/>
<path d="M1259.13 735.773C1256.12 735.773 1253.51 737.032 1252.03 739.189V736.178H1248.16V758.334H1252.03V748.762C1252.03 743.279 1253.65 739.189 1258.1 739.189C1261.69 739.189 1262.73 741.796 1262.73 745.481V758.334H1266.59V744.537C1266.59 738.83 1263.98 735.773 1259.13 735.773Z" fill="black"/>
<path d="M1283.69 739.324V736.178H1278.25V728.043L1274.38 730.92V736.178H1270.74V739.324H1274.38V752.806C1274.38 756.986 1276.9 758.739 1280.09 758.739C1281.26 758.739 1282.47 758.514 1283.69 758.11V754.829C1282.7 755.143 1281.8 755.323 1281.03 755.323C1279.28 755.323 1278.25 754.424 1278.25 752.402V739.324H1283.69Z" fill="black"/>
<path d="M1296.29 758.739C1300.52 758.739 1304.47 756.492 1304.47 751.773C1304.47 743.459 1292.07 746.335 1292.07 741.706C1292.07 740.088 1293.6 739.054 1296.02 739.054C1298.63 739.054 1300.2 740.358 1301.19 742.155L1304.25 740.492C1302.68 737.391 1299.75 735.773 1296.11 735.773C1291.75 735.773 1288.34 738.11 1288.34 742.11C1288.34 750.11 1300.65 746.829 1300.65 751.998C1300.65 753.93 1299.03 755.413 1296.16 755.413C1292.88 755.413 1291.04 753.436 1290.32 751.368L1287.13 752.806C1288.29 756.267 1291.84 758.739 1296.29 758.739Z" fill="black"/>
</svg>
