<svg width="1441" height="800" viewBox="0 0 1441 800" fill="none" xmlns="http://www.w3.org/2000/svg">
<rect width="1440" height="800" transform="translate(0.766479)" fill="white"/>
<path fill-rule="evenodd" clip-rule="evenodd" d="M86.7038 27.666C63.9857 27.666 45.569 46.8876 45.569 70.5987V624.084C45.569 647.795 63.9857 667.017 86.7038 667.017H396.977C419.695 667.017 438.112 647.795 438.112 624.084V70.5988C438.112 46.8877 419.695 27.666 396.977 27.666H86.7038ZM178.608 125.152H376.405V100.471H178.608V125.152ZM178.608 235.8H376.405V211.119H178.608V235.8ZM376.405 350.364H178.608V325.684H376.405V350.364ZM178.608 463.951H376.405V439.27H178.608V463.951ZM376.405 581.553H178.608V556.872H376.405V581.553Z" fill="#6CD5AF"/>
<path fill-rule="evenodd" clip-rule="evenodd" d="M123.361 562.787L123.361 127.953L127.474 127.953L127.474 562.787L123.361 562.787Z" fill="white"/>
<path fill-rule="evenodd" clip-rule="evenodd" d="M118.446 96.2949C113.902 96.2949 110.219 99.9783 110.219 104.522V119.726C110.219 124.27 113.902 127.953 118.446 127.953H133.65C138.194 127.953 141.877 124.27 141.877 119.726V104.522C141.877 99.9783 138.194 96.2949 133.65 96.2949H118.446ZM125.624 117.186L136.397 106.412L133.488 103.504L122.715 114.277L118.565 110.127L115.656 113.035L119.806 117.186C121.412 118.792 124.017 118.792 125.624 117.186Z" fill="white"/>
<path d="M110.219 218.846C110.219 214.302 113.902 210.619 118.446 210.619H133.65C138.194 210.619 141.877 214.302 141.877 218.846V234.051C141.877 238.594 138.194 242.278 133.65 242.278H118.446C113.902 242.278 110.219 238.594 110.219 234.051V218.846Z" fill="#6CD5AF"/>
<path fill-rule="evenodd" clip-rule="evenodd" d="M133.65 217.818H118.446C117.878 217.818 117.417 218.278 117.417 218.846V234.051C117.417 234.619 117.878 235.079 118.446 235.079H133.65C134.218 235.079 134.678 234.619 134.678 234.051V218.846C134.678 218.278 134.218 217.818 133.65 217.818ZM118.446 210.619C113.902 210.619 110.219 214.302 110.219 218.846V234.051C110.219 238.594 113.902 242.278 118.446 242.278H133.65C138.194 242.278 141.877 238.594 141.877 234.051V218.846C141.877 214.302 138.194 210.619 133.65 210.619H118.446Z" fill="white"/>
<path d="M110.219 333.172C110.219 328.629 113.902 324.945 118.446 324.945H133.65C138.194 324.945 141.877 328.629 141.877 333.172V348.377C141.877 352.92 138.194 356.604 133.65 356.604H118.446C113.902 356.604 110.219 352.92 110.219 348.377V333.172Z" fill="#6CD5AF"/>
<path fill-rule="evenodd" clip-rule="evenodd" d="M133.65 332.144H118.446C117.878 332.144 117.417 332.604 117.417 333.172V348.377C117.417 348.945 117.878 349.405 118.446 349.405H133.65C134.218 349.405 134.678 348.945 134.678 348.377V333.172C134.678 332.604 134.218 332.144 133.65 332.144ZM118.446 324.945C113.902 324.945 110.219 328.629 110.219 333.172V348.377C110.219 352.92 113.902 356.604 118.446 356.604H133.65C138.194 356.604 141.877 352.92 141.877 348.377V333.172C141.877 328.629 138.194 324.945 133.65 324.945H118.446Z" fill="white"/>
<path d="M110.219 447.498C110.219 442.955 113.902 439.271 118.446 439.271H133.65C138.194 439.271 141.877 442.955 141.877 447.498V462.703C141.877 467.247 138.194 470.93 133.65 470.93H118.446C113.902 470.93 110.219 467.247 110.219 462.703V447.498Z" fill="#6CD5AF"/>
<path fill-rule="evenodd" clip-rule="evenodd" d="M133.65 446.47H118.446C117.878 446.47 117.417 446.93 117.417 447.498V462.703C117.417 463.271 117.878 463.731 118.446 463.731H133.65C134.218 463.731 134.678 463.271 134.678 462.703V447.498C134.678 446.93 134.218 446.47 133.65 446.47ZM118.446 439.271C113.902 439.271 110.219 442.955 110.219 447.498V462.703C110.219 467.247 113.902 470.93 118.446 470.93H133.65C138.194 470.93 141.877 467.247 141.877 462.703V447.498C141.877 442.955 138.194 439.271 133.65 439.271H118.446Z" fill="white"/>
<path d="M110.219 561.825C110.219 557.281 113.902 553.598 118.446 553.598H133.65C138.194 553.598 141.877 557.281 141.877 561.825V577.029C141.877 581.573 138.194 585.256 133.65 585.256H118.446C113.902 585.256 110.219 581.573 110.219 577.029V561.825Z" fill="#6CD5AF"/>
<path fill-rule="evenodd" clip-rule="evenodd" d="M133.65 560.796H118.446C117.878 560.796 117.417 561.257 117.417 561.825V577.029C117.417 577.597 117.878 578.057 118.446 578.057H133.65C134.218 578.057 134.678 577.597 134.678 577.029V561.825C134.678 561.257 134.218 560.796 133.65 560.796ZM118.446 553.598C113.902 553.598 110.219 557.281 110.219 561.825V577.029C110.219 581.573 113.902 585.256 118.446 585.256H133.65C138.194 585.256 141.877 581.573 141.877 577.029V561.825C141.877 557.281 138.194 553.598 133.65 553.598H118.446Z" fill="white"/>
<path fill-rule="evenodd" clip-rule="evenodd" d="M565.63 27.666C542.912 27.666 524.495 46.8876 524.495 70.5987V624.084C524.495 647.795 542.912 667.017 565.63 667.017H875.903C898.621 667.017 917.038 647.795 917.038 624.084V70.5988C917.038 46.8877 898.621 27.666 875.903 27.666H565.63ZM618.436 122.478C626.774 122.478 633.532 115.719 633.532 107.381C633.532 99.0439 626.774 92.2852 618.436 92.2852C610.098 92.2852 603.34 99.0439 603.34 107.381C603.34 115.719 610.098 122.478 618.436 122.478ZM603.34 127.51H633.532C641.87 127.51 648.629 134.269 648.629 142.606V155.186C648.629 159.338 645.232 162.734 641.08 162.734H595.792C591.64 162.734 588.243 159.338 588.243 155.186V142.606C588.243 134.268 595.003 127.51 603.34 127.51ZM848.933 139.319H692.272V122.865H848.933V139.319ZM848.933 247.764H692.272V231.31H848.933V247.764ZM692.272 356.208H848.933V339.755H692.272V356.208ZM848.933 464.653H692.272V448.199H848.933V464.653ZM692.272 573.098H848.933V556.644H692.272V573.098ZM633.532 216.389C633.532 224.726 626.774 231.485 618.436 231.485C610.098 231.485 603.34 224.726 603.34 216.389C603.34 208.051 610.098 201.292 618.436 201.292C626.774 201.292 633.532 208.051 633.532 216.389ZM633.532 236.517H603.34C595.003 236.517 588.243 243.275 588.243 251.613V264.193C588.243 268.345 591.64 271.741 595.792 271.741H641.08C645.232 271.741 648.629 268.345 648.629 264.193V251.613C648.629 243.276 641.87 236.517 633.532 236.517ZM618.436 340.492C626.774 340.492 633.532 333.733 633.532 325.396C633.532 317.058 626.774 310.299 618.436 310.299C610.098 310.299 603.34 317.058 603.34 325.396C603.34 333.733 610.098 340.492 618.436 340.492ZM603.34 345.524H633.532C641.87 345.524 648.629 352.283 648.629 360.62V373.2C648.629 377.352 645.232 380.748 641.08 380.748H595.792C591.64 380.748 588.243 377.352 588.243 373.2V360.62C588.243 352.283 595.003 345.524 603.34 345.524ZM633.532 434.403C633.532 442.74 626.774 449.499 618.436 449.499C610.098 449.499 603.34 442.74 603.34 434.403C603.34 426.065 610.098 419.307 618.436 419.307C626.774 419.307 633.532 426.065 633.532 434.403ZM633.532 454.531H603.34C595.003 454.531 588.243 461.29 588.243 469.627V482.207C588.243 486.359 591.64 489.756 595.792 489.756H641.08C645.232 489.756 648.629 486.359 648.629 482.207V469.627C648.629 461.29 641.87 454.531 633.532 454.531ZM618.436 558.506C626.774 558.506 633.532 551.747 633.532 543.41C633.532 535.072 626.774 528.314 618.436 528.314C610.098 528.314 603.34 535.072 603.34 543.41C603.34 551.748 610.098 558.506 618.436 558.506ZM603.34 563.538H633.532C641.87 563.538 648.629 570.297 648.629 578.634V591.215C648.629 595.366 645.232 598.763 641.08 598.763H595.792C591.64 598.763 588.243 595.366 588.243 591.215V578.634C588.243 570.297 595.003 563.538 603.34 563.538Z" fill="#6CD5AF"/>
<path fill-rule="evenodd" clip-rule="evenodd" d="M1044.56 27.666C1021.84 27.666 1003.42 46.8876 1003.42 70.5987V624.084C1003.42 647.795 1021.84 667.017 1044.56 667.017H1354.83C1377.55 667.017 1395.96 647.795 1395.96 624.084V70.5988C1395.96 46.8877 1377.55 27.666 1354.83 27.666H1044.56ZM1321.95 106.867C1321.95 93.2356 1310.9 82.1856 1297.27 82.1856H1070.31C1056.68 82.1856 1045.63 93.2356 1045.63 106.867V192.243H1297.27C1310.9 192.243 1321.95 181.193 1321.95 167.562V106.867ZM1297.27 244.114C1310.9 244.114 1321.95 255.164 1321.95 268.794V301.664C1321.95 315.295 1310.9 326.345 1297.27 326.345H1045.63V268.794C1045.63 255.164 1056.68 244.114 1070.31 244.114H1297.27ZM1246.64 402.896C1246.64 389.265 1235.59 378.215 1221.96 378.215H1070.31C1056.68 378.215 1045.63 389.265 1045.63 402.896V460.447H1221.96C1235.59 460.447 1246.64 449.397 1246.64 435.766V402.896ZM1104.26 536.998C1104.26 523.367 1115.31 512.317 1128.94 512.317H1335.91C1349.54 512.317 1360.59 523.367 1360.59 536.998V594.548H1128.94C1115.31 594.548 1104.26 583.498 1104.26 569.868V536.998Z" fill="#6CD5AF"/>
<path d="M132.192 758.334H150.214V754.649H136.192V727.01H132.192V758.334Z" fill="black"/>
<path d="M173.059 746.425C173.059 741.032 170.048 735.773 163.261 735.773C156.52 735.773 153.194 741.256 153.194 747.369C153.194 753.526 156.565 758.739 163.621 758.739C167.126 758.739 169.823 757.615 172.34 754.919L169.688 752.537C167.801 754.559 165.913 755.188 163.666 755.188C159.576 755.188 157.194 752.627 157.059 748.402H172.924C173.014 747.818 173.059 747.054 173.059 746.425ZM157.059 745.256C157.329 741.931 159.441 739.009 163.216 739.009C166.947 739.009 169.194 741.436 169.329 744.852C169.329 745.032 169.329 745.166 169.373 745.256H157.059Z" fill="black"/>
<path d="M185.522 758.739C189.747 758.739 193.702 756.492 193.702 751.773C193.702 743.459 181.298 746.335 181.298 741.706C181.298 740.088 182.826 739.054 185.252 739.054C187.859 739.054 189.432 740.358 190.421 742.155L193.477 740.492C191.904 737.391 188.983 735.773 185.342 735.773C180.983 735.773 177.567 738.11 177.567 742.11C177.567 750.11 189.881 746.829 189.881 751.998C189.881 753.93 188.264 755.413 185.387 755.413C182.106 755.413 180.264 753.436 179.545 751.368L176.354 752.806C177.522 756.267 181.073 758.739 185.522 758.739Z" fill="black"/>
<path d="M206.194 758.739C210.418 758.739 214.373 756.492 214.373 751.773C214.373 743.459 201.969 746.335 201.969 741.706C201.969 740.088 203.497 739.054 205.924 739.054C208.531 739.054 210.104 740.358 211.092 742.155L214.148 740.492C212.575 737.391 209.654 735.773 206.014 735.773C201.655 735.773 198.239 738.11 198.239 742.11C198.239 750.11 210.553 746.829 210.553 751.998C210.553 753.93 208.935 755.413 206.059 755.413C202.778 755.413 200.935 753.436 200.216 751.368L197.025 752.806C198.194 756.267 201.744 758.739 206.194 758.739Z" fill="black"/>
<path d="M228.712 758.739C235.229 758.739 239.543 753.66 239.543 747.234C239.543 740.762 235.184 735.773 228.712 735.773C222.195 735.773 217.971 740.762 217.971 747.234C217.971 753.705 222.195 758.739 228.712 758.739ZM228.712 755.323C224.218 755.323 221.836 751.773 221.836 747.234C221.836 742.695 224.173 739.189 228.712 739.189C233.251 739.189 235.678 742.65 235.678 747.234C235.678 751.728 233.251 755.323 228.712 755.323Z" fill="black"/>
<path d="M256.061 735.773C253.05 735.773 250.444 737.032 248.961 739.189V736.178H245.096V758.334H248.961V748.762C248.961 743.279 250.578 739.189 255.028 739.189C258.623 739.189 259.657 741.796 259.657 745.481V758.334H263.522V744.537C263.522 738.83 260.915 735.773 256.061 735.773Z" fill="black"/>
<path d="M293.233 735.773C290.357 735.773 287.84 736.807 286.222 738.919V736.178H282.357V767.503H286.222V755.548C287.705 757.525 290.267 758.739 293.233 758.739C299.39 758.739 302.94 754.065 302.94 747.234C302.94 740.402 299.345 735.773 293.233 735.773ZM292.514 755.323C288.11 755.323 285.907 751.863 285.907 747.234C285.907 742.425 288.244 739.144 292.514 739.144C296.694 739.144 299.075 742.29 299.075 747.234C299.075 752.042 296.828 755.323 292.514 755.323Z" fill="black"/>
<path d="M313.094 758.739C314.082 758.739 315.251 758.469 316.284 758.11L316.239 754.919C315.61 755.099 314.891 755.278 314.262 755.278C312.959 755.278 312.419 754.469 312.419 753.121V727.01H308.554V753.346C308.554 756.986 310.397 758.739 313.094 758.739Z" fill="black"/>
<path d="M328.979 735.773C325.114 735.773 322.103 737.257 319.631 740.402L322.417 742.739C324.17 740.402 326.282 739.189 328.889 739.189C332.26 739.189 334.147 741.077 334.147 744.492V745.391H329.248C325.518 745.391 323.316 745.751 321.653 746.649C319.856 747.638 318.867 749.436 318.867 751.773C318.867 756.042 321.878 758.739 326.642 758.739C329.967 758.739 332.619 757.391 334.192 755.009L334.462 758.334H338.012V744.492C338.012 739.009 334.641 735.773 328.979 735.773ZM327.541 755.503C324.574 755.503 322.732 754.11 322.732 751.953C322.732 750.829 323.136 749.975 323.855 749.391C324.799 748.672 326.327 748.402 329.698 748.402H334.147V748.627C334.147 752.717 331.451 755.503 327.541 755.503Z" fill="black"/>
<path d="M355.908 735.773C352.897 735.773 350.29 737.032 348.807 739.189V736.178H344.942V758.334H348.807V748.762C348.807 743.279 350.425 739.189 354.875 739.189C358.47 739.189 359.504 741.796 359.504 745.481V758.334H363.369V744.537C363.369 738.83 360.762 735.773 355.908 735.773Z" fill="black"/>
<path d="M575.499 758.334H579.499V744.897H584.892C591.588 744.897 595.318 741.706 595.318 735.863C595.318 730.111 591.678 727.01 584.892 727.01H575.499V758.334ZM579.499 741.211V730.695H584.487C589.071 730.695 591.318 732.403 591.318 735.908C591.318 739.459 589.071 741.211 584.487 741.211H579.499Z" fill="black"/>
<path d="M607.747 735.773C603.882 735.773 600.871 737.257 598.399 740.402L601.185 742.739C602.938 740.402 605.05 739.189 607.657 739.189C611.028 739.189 612.915 741.077 612.915 744.492V745.391H608.016C604.286 745.391 602.084 745.751 600.421 746.649C598.624 747.638 597.635 749.436 597.635 751.773C597.635 756.042 600.646 758.739 605.41 758.739C608.736 758.739 611.387 757.391 612.96 755.009L613.23 758.334H616.78V744.492C616.78 739.009 613.409 735.773 607.747 735.773ZM606.309 755.503C603.342 755.503 601.5 754.11 601.5 751.953C601.5 750.829 601.904 749.975 602.623 749.391C603.567 748.672 605.095 748.402 608.466 748.402H612.915V748.627C612.915 752.717 610.219 755.503 606.309 755.503Z" fill="black"/>
<path d="M633.957 735.773C631.62 735.773 628.969 736.807 627.575 739.638V736.178H623.71V758.334H627.575V746.38C627.575 741.796 629.778 739.414 633.148 739.414C634.137 739.414 635.081 739.638 636.024 740.088L637.912 736.852C636.609 736.088 635.35 735.773 633.957 735.773Z" fill="black"/>
<path d="M653.001 739.324V736.178H647.563V728.043L643.698 730.92V736.178H640.057V739.324H643.698V752.806C643.698 756.986 646.214 758.739 649.405 758.739C650.574 758.739 651.787 758.514 653.001 758.11V754.829C652.012 755.143 651.113 755.323 650.349 755.323C648.596 755.323 647.563 754.424 647.563 752.402V739.324H653.001Z" fill="black"/>
<path d="M658.289 731.729H662.604V727.01H658.289V731.729ZM658.514 758.334H662.379V736.178H658.514V758.334Z" fill="black"/>
<path d="M678.329 758.739C682.464 758.739 685.745 756.492 687.228 752.447L683.677 751.099C682.913 753.75 680.891 755.323 678.284 755.323C673.88 755.323 671.992 751.503 671.992 747.324C671.992 743.144 673.88 739.189 678.284 739.189C680.846 739.189 682.868 740.807 683.767 743.503L687.453 742.02C685.7 737.796 682.374 735.773 678.284 735.773C671.408 735.773 668.038 741.481 668.038 747.324C668.038 753.391 671.633 758.739 678.329 758.739Z" fill="black"/>
<path d="M692.303 731.729H696.618V727.01H692.303V731.729ZM692.528 758.334H696.393V736.178H692.528V758.334Z" fill="black"/>
<path d="M714.815 735.773C711.939 735.773 709.422 736.807 707.804 738.919V736.178H703.939V767.503H707.804V755.548C709.287 757.525 711.849 758.739 714.815 758.739C720.972 758.739 724.522 754.065 724.522 747.234C724.522 740.402 720.927 735.773 714.815 735.773ZM714.096 755.323C709.691 755.323 707.489 751.863 707.489 747.234C707.489 742.425 709.826 739.144 714.096 739.144C718.275 739.144 720.657 742.29 720.657 747.234C720.657 752.042 718.41 755.323 714.096 755.323Z" fill="black"/>
<path d="M738.316 735.773C734.451 735.773 731.44 737.257 728.968 740.402L731.754 742.739C733.507 740.402 735.619 739.189 738.226 739.189C741.596 739.189 743.484 741.077 743.484 744.492V745.391H738.585C734.855 745.391 732.653 745.751 730.99 746.649C729.192 747.638 728.204 749.436 728.204 751.773C728.204 756.042 731.215 758.739 735.979 758.739C739.304 758.739 741.956 757.391 743.529 755.009L743.799 758.334H747.349V744.492C747.349 739.009 743.978 735.773 738.316 735.773ZM736.878 755.503C733.911 755.503 732.069 754.11 732.069 751.953C732.069 750.829 732.473 749.975 733.192 749.391C734.136 748.672 735.664 748.402 739.035 748.402H743.484V748.627C743.484 752.717 740.787 755.503 736.878 755.503Z" fill="black"/>
<path d="M765.245 735.773C762.234 735.773 759.627 737.032 758.144 739.189V736.178H754.279V758.334H758.144V748.762C758.144 743.279 759.762 739.189 764.211 739.189C767.807 739.189 768.84 741.796 768.84 745.481V758.334H772.705V744.537C772.705 738.83 770.099 735.773 765.245 735.773Z" fill="black"/>
<path d="M789.802 739.324V736.178H784.364V728.043L780.499 730.92V736.178H776.858V739.324H780.499V752.806C780.499 756.986 783.015 758.739 786.206 758.739C787.375 758.739 788.588 758.514 789.802 758.11V754.829C788.813 755.143 787.914 755.323 787.15 755.323C785.397 755.323 784.364 754.424 784.364 752.402V739.324H789.802Z" fill="black"/>
<path d="M811.437 758.739C812.425 758.739 813.594 758.469 814.628 758.11L814.583 754.919C813.953 755.099 813.234 755.278 812.605 755.278C811.302 755.278 810.763 754.469 810.763 753.121V727.01H806.898V753.346C806.898 756.986 808.74 758.739 811.437 758.739Z" fill="black"/>
<path d="M819.141 731.729H823.456V727.01H819.141V731.729ZM819.366 758.334H823.231V736.178H819.366V758.334Z" fill="black"/>
<path d="M837.563 758.739C841.788 758.739 845.743 756.492 845.743 751.773C845.743 743.459 833.339 746.335 833.339 741.706C833.339 740.088 834.867 739.054 837.294 739.054C839.9 739.054 841.473 740.358 842.462 742.155L845.518 740.492C843.945 737.391 841.024 735.773 837.384 735.773C833.024 735.773 829.609 738.11 829.609 742.11C829.609 750.11 841.923 746.829 841.923 751.998C841.923 753.93 840.305 755.413 837.429 755.413C834.148 755.413 832.305 753.436 831.586 751.368L828.395 752.806C829.564 756.267 833.114 758.739 837.563 758.739Z" fill="black"/>
<path d="M861.516 739.324V736.178H856.078V728.043L852.213 730.92V736.178H848.572V739.324H852.213V752.806C852.213 756.986 854.73 758.739 857.92 758.739C859.089 758.739 860.302 758.514 861.516 758.11V754.829C860.527 755.143 859.628 755.323 858.864 755.323C857.111 755.323 856.078 754.424 856.078 752.402V739.324H861.516Z" fill="black"/>
<path d="M1160.8 758.874C1167.18 758.874 1171.95 755.773 1174.24 749.93L1170.46 748.537C1168.84 752.852 1165.47 755.054 1160.8 755.054C1154.1 755.054 1150.24 750.515 1150.24 742.605C1150.24 734.74 1154.1 730.291 1160.93 730.291C1165.65 730.291 1168.89 732.358 1170.46 736.673L1174.15 735.234C1171.95 729.437 1167.32 726.471 1160.93 726.471C1151.81 726.471 1146.24 732.583 1146.24 742.605C1146.24 752.717 1151.77 758.874 1160.8 758.874Z" fill="black"/>
<path d="M1190.41 735.774C1187.31 735.774 1184.75 737.032 1183.27 739.189V727.01H1179.4V758.335H1183.27V748.582C1183.27 742.38 1185.38 739.189 1189.38 739.189C1192.52 739.189 1193.96 741.167 1193.96 745.481V758.335H1197.83V744.537C1197.83 738.83 1195.22 735.774 1190.41 735.774Z" fill="black"/>
<path d="M1212.86 735.774C1208.99 735.774 1205.98 737.257 1203.51 740.403L1206.29 742.74C1208.05 740.403 1210.16 739.189 1212.77 739.189C1216.14 739.189 1218.02 741.077 1218.02 744.492V745.391H1213.13C1209.4 745.391 1207.19 745.751 1205.53 746.65C1203.73 747.638 1202.74 749.436 1202.74 751.773C1202.74 756.043 1205.76 758.739 1210.52 758.739C1213.84 758.739 1216.5 757.391 1218.07 755.009L1218.34 758.335H1221.89V744.492C1221.89 739.01 1218.52 735.774 1212.86 735.774ZM1211.42 755.503C1208.45 755.503 1206.61 754.11 1206.61 751.953C1206.61 750.829 1207.01 749.975 1207.73 749.391C1208.68 748.672 1210.2 748.402 1213.58 748.402H1218.02V748.627C1218.02 752.717 1215.33 755.503 1211.42 755.503Z" fill="black"/>
<path d="M1238.84 739.324V736.178H1233.4V728.044L1229.54 730.92V736.178H1225.9V739.324H1229.54V752.807C1229.54 756.986 1232.06 758.739 1235.25 758.739C1236.42 758.739 1237.63 758.514 1238.84 758.11V754.829C1237.85 755.144 1236.96 755.323 1236.19 755.323C1234.44 755.323 1233.4 754.425 1233.4 752.402V739.324H1238.84Z" fill="black"/>
</svg>
