<svg width="1440" height="496" viewBox="0 0 1440 496" fill="none" xmlns="http://www.w3.org/2000/svg">
<rect width="1440" height="496" fill="white"/>
<path d="M45 404C45 390.745 55.7452 380 69 380H1371C1384.25 380 1395 390.745 1395 404V456C1395 469.255 1384.25 480 1371 480H69C55.7452 480 45 469.255 45 456V404Z" fill="#AE93F5"/>
<path d="M1135.11 408.879C1130.75 408.879 1127.18 412.281 1127.18 416.445C1127.18 420.631 1130.75 424.011 1135.11 424.011C1139.49 424.011 1143.06 420.631 1143.06 416.445C1143.06 412.281 1139.49 408.879 1135.11 408.879Z" fill="white"/>
<path d="M1147.79 435.846V443.652C1147.79 445.72 1146.11 447.397 1144.04 447.397H1134.3C1132.23 447.397 1130.56 445.72 1130.56 443.652V435.846C1130.56 434.742 1130.36 433.682 1129.99 432.688C1129.19 430.551 1129.66 427.766 1131.94 427.766V427.766H1138.29C1143.52 427.766 1147.79 431.392 1147.79 435.846Z" fill="white"/>
<path d="M1115.52 408.879C1111.14 408.879 1107.6 412.281 1107.6 416.445C1107.6 420.631 1111.14 424.011 1115.52 424.011C1119.89 424.011 1123.45 420.631 1123.45 416.445C1123.45 412.281 1119.89 408.879 1115.52 408.879Z" fill="white"/>
<path d="M1128.21 435.846V443.652C1128.21 445.72 1126.54 447.397 1124.47 447.397H1106.59C1104.52 447.397 1102.84 445.72 1102.84 443.652V435.846C1102.84 431.392 1107.11 427.766 1112.36 427.766H1118.69C1121.27 427.766 1123.62 428.661 1125.33 430.049C1127.11 431.526 1128.21 433.586 1128.21 435.846Z" fill="white"/>
<path fill-rule="evenodd" clip-rule="evenodd" d="M96.3214 408.064C84.1891 408.064 74.354 417.9 74.354 430.032C74.354 442.164 84.1891 451.999 96.3214 451.999C108.454 451.999 118.289 442.164 118.289 430.032C118.289 417.9 108.454 408.064 96.3214 408.064ZM105.475 426.38V420.888L87.1687 420.888V426.38H87.1718V439.194H92.6636V426.38H105.475ZM103.646 437.367V431.265H97.544V437.367H103.646Z" fill="white"/>
<path d="M129.272 437.689H132.37V431.208H139.334V428.352H132.37V425.211H140.256V422.377H129.272V437.689Z" fill="white"/>
<path d="M156.417 437.689L152.309 431.076C154.066 430.439 155.055 429.033 155.055 426.837C155.055 424.113 153.539 422.377 149.782 422.377H144.598V437.689H147.674V431.472H149.233L152.836 437.689H156.417ZM147.674 428.616V425.211H149.475C150.903 425.211 151.957 425.431 151.957 426.881C151.957 428.352 150.903 428.616 149.475 428.616H147.674Z" fill="white"/>
<path d="M166.572 438.062C170.965 438.062 173.997 434.855 173.997 430.044C173.997 425.211 171.009 422.004 166.572 422.004C162.178 422.004 159.169 425.211 159.169 430.044C159.169 434.833 162.178 438.062 166.572 438.062ZM166.572 435.096C163.958 435.096 162.266 433.185 162.266 430.044C162.266 426.881 163.958 424.97 166.572 424.97C169.208 424.97 170.877 426.903 170.877 430.044C170.877 433.141 169.208 435.096 166.572 435.096Z" fill="white"/>
<path d="M187.888 422.377V432.307L181.781 422.377H178.618V437.689H181.715V427.693L187.8 437.689H190.985V422.377H187.888Z" fill="white"/>
<path d="M199.611 437.689H202.73V425.211H207.365V422.377H194.976V425.211H199.611V437.689Z" fill="white"/>
<path d="M223.168 437.689L219.06 431.076C220.818 430.439 221.806 429.033 221.806 426.837C221.806 424.113 220.291 422.377 216.534 422.377H211.35V437.689H214.425V431.472H215.985L219.588 437.689H223.168ZM214.425 428.616V425.211H216.227C217.655 425.211 218.709 425.431 218.709 426.881C218.709 428.352 217.655 428.616 216.227 428.616H214.425Z" fill="white"/>
<path d="M233.323 438.062C237.717 438.062 240.748 434.855 240.748 430.044C240.748 425.211 237.761 422.004 233.323 422.004C228.93 422.004 225.92 425.211 225.92 430.044C225.92 434.833 228.93 438.062 233.323 438.062ZM233.323 435.096C230.709 435.096 229.018 433.185 229.018 430.044C229.018 426.881 230.709 424.97 233.323 424.97C235.96 424.97 237.629 426.903 237.629 430.044C237.629 433.141 235.96 435.096 233.323 435.096Z" fill="white"/>
<path d="M247.776 437.689H250.764L253.927 428.177L257.068 437.689H260.078L264.735 422.377H261.484L258.408 432.922L255.245 423.278H252.609L249.468 432.922L246.37 422.377H243.141L247.776 437.689Z" fill="white"/>
<path fill-rule="evenodd" clip-rule="evenodd" d="M620.971 437.645H320.971V420.645H620.971V437.645Z" fill="white"/>
<path d="M1167.04 417.645H1255.84V442.344H1167.04V417.645Z" fill="white"/>
<path d="M1326.02 437.824H1331.18V435.892C1331.18 431.622 1338.6 432.386 1338.6 424.342C1338.6 418.32 1333.97 415.578 1328.71 415.578C1322.65 415.578 1318.56 419.263 1318.56 425.69H1323.9C1323.9 422.409 1325.39 420.657 1328.76 420.657C1331.5 420.657 1333.3 421.78 1333.3 424.252C1333.3 429.016 1326.02 427.892 1326.02 435.622V437.824ZM1325.48 447.397H1331.9V441.285H1325.48V447.397Z" fill="white"/>
<path d="M65.2678 307.293H76.4134C82.8402 307.293 86.5254 304.058 86.5254 298.395C86.5254 294.305 84.5929 291.564 80.9526 290.53C83.4693 289.361 84.8625 286.935 84.8625 283.834C84.8625 278.89 81.3571 275.969 75.3348 275.969H65.2678V307.293ZM69.2677 289.227V279.654H75.3348C78.8403 279.654 80.8627 281.452 80.8627 284.508C80.8627 287.474 79.0201 289.227 75.7393 289.227H69.2677ZM69.2677 303.608V292.822H76.6831C80.4133 292.822 82.4806 294.71 82.4806 298.08C82.4806 301.586 80.1886 303.608 76.1438 303.608H69.2677Z" fill="black"/>
<path d="M102.923 284.732C100.586 284.732 97.9344 285.766 96.5412 288.597V285.137H92.6761V307.293H96.5412V295.339C96.5412 290.755 98.7433 288.373 102.114 288.373C103.103 288.373 104.046 288.597 104.99 289.047L106.878 285.811C105.574 285.047 104.316 284.732 102.923 284.732Z" fill="black"/>
<path d="M118.89 284.732C115.025 284.732 112.013 286.216 109.542 289.361L112.328 291.698C114.081 289.361 116.193 288.148 118.8 288.148C122.17 288.148 124.058 290.036 124.058 293.451V294.35H119.159C115.429 294.35 113.227 294.71 111.564 295.608C109.766 296.597 108.778 298.395 108.778 300.732C108.778 305.001 111.789 307.698 116.553 307.698C119.878 307.698 122.53 306.35 124.103 303.968L124.373 307.293H127.923V293.451C127.923 287.968 124.552 284.732 118.89 284.732ZM117.451 304.462C114.485 304.462 112.643 303.069 112.643 300.912C112.643 299.788 113.047 298.934 113.766 298.35C114.71 297.631 116.238 297.361 119.609 297.361H124.058V297.586C124.058 301.676 121.361 304.462 117.451 304.462Z" fill="black"/>
<path d="M145.819 284.732C142.808 284.732 140.201 285.991 138.718 288.148V285.137H134.853V307.293H138.718V297.721C138.718 292.238 140.336 288.148 144.785 288.148C148.381 288.148 149.414 290.755 149.414 294.44V307.293H153.279V293.496C153.279 287.789 150.673 284.732 145.819 284.732Z" fill="black"/>
<path d="M175.274 275.969V287.923C173.746 285.901 171.185 284.732 168.263 284.732C162.331 284.732 158.556 289.182 158.556 296.193C158.556 302.799 161.927 307.698 168.263 307.698C171.185 307.698 173.701 306.619 175.274 304.552V307.293H179.139V275.969H175.274ZM168.982 304.192C164.623 304.192 162.421 300.912 162.421 296.193C162.421 291.339 164.803 288.193 168.982 288.193C173.252 288.193 175.589 291.474 175.589 296.193C175.589 300.777 173.387 304.192 168.982 304.192Z" fill="black"/>
<path d="M186.461 280.688H190.775V275.969H186.461V280.688ZM186.686 307.293H190.551V285.137H186.686V307.293Z" fill="black"/>
<path d="M209.063 284.732C206.052 284.732 203.445 285.991 201.962 288.148V285.137H198.097V307.293H201.962V297.721C201.962 292.238 203.58 288.148 208.029 288.148C211.624 288.148 212.658 290.755 212.658 294.44V307.293H216.523V293.496C216.523 287.789 213.916 284.732 209.063 284.732Z" fill="black"/>
<path d="M231.462 304.372C228.406 303.923 225.799 303.428 225.799 301.361C225.799 300.552 226.204 299.923 227.013 299.473C228.271 300.148 229.799 300.507 231.462 300.507C236.181 300.507 240.046 297.451 240.046 292.777C240.046 291.249 239.641 289.856 238.922 288.687L241.978 286.171L239.956 283.699L236.81 286.395C235.327 285.362 233.484 284.732 231.372 284.732C226.563 284.732 222.698 287.968 222.698 292.597C222.698 294.53 223.372 296.283 224.586 297.631C223.103 298.709 222.294 300.058 222.294 301.945C222.294 304.192 223.462 305.496 225.125 306.305L221.62 308.956C221.575 309.226 221.53 309.496 221.53 309.945C221.53 314.439 225.305 316.866 231.597 316.866C237.304 316.866 241.304 314.889 241.304 310.574C241.304 305.586 235.911 305.001 231.462 304.372ZM231.417 287.968C234.338 287.968 236.181 289.901 236.181 292.687C236.181 295.339 234.428 297.361 231.417 297.361C228.361 297.361 226.563 295.294 226.563 292.687C226.563 289.901 228.586 287.968 231.417 287.968ZM231.777 313.765C228.406 313.765 225.35 312.911 225.35 310.17C225.35 310.08 225.35 309.99 225.395 309.81L228.046 307.248C228.9 307.428 229.799 307.563 230.653 307.698C234.159 308.237 237.439 308.552 237.439 310.934C237.439 312.866 235.147 313.765 231.777 313.765Z" fill="black"/>
<path d="M344.418 307.833C350.8 307.833 355.564 304.732 357.856 298.889L354.08 297.496C352.463 301.811 349.092 304.013 344.418 304.013C337.722 304.013 333.857 299.474 333.857 291.564C333.857 283.699 337.722 279.25 344.553 279.25C349.272 279.25 352.507 281.317 354.08 285.632L357.766 284.193C355.564 278.396 350.934 275.43 344.553 275.43C335.43 275.43 329.857 281.542 329.857 291.564C329.857 301.676 335.385 307.833 344.418 307.833Z" fill="black"/>
<path d="M367.378 307.698C368.367 307.698 369.536 307.428 370.569 307.069L370.524 303.878C369.895 304.058 369.176 304.238 368.547 304.238C367.244 304.238 366.704 303.429 366.704 302.08V275.969H362.839V302.305C362.839 305.945 364.682 307.698 367.378 307.698Z" fill="black"/>
<path d="M383.264 284.733C379.399 284.733 376.387 286.216 373.916 289.362L376.702 291.699C378.455 289.362 380.567 288.148 383.174 288.148C386.544 288.148 388.432 290.036 388.432 293.451V294.35H383.533C379.803 294.35 377.601 294.71 375.938 295.609C374.14 296.597 373.152 298.395 373.152 300.732C373.152 305.002 376.163 307.698 380.927 307.698C384.252 307.698 386.904 306.35 388.477 303.968L388.747 307.294H392.297V293.451C392.297 287.969 388.926 284.733 383.264 284.733ZM381.825 304.462C378.859 304.462 377.017 303.069 377.017 300.912C377.017 299.788 377.421 298.934 378.14 298.35C379.084 297.631 380.612 297.361 383.983 297.361H388.432V297.586C388.432 301.676 385.735 304.462 381.825 304.462Z" fill="black"/>
<path d="M406.013 307.698C410.238 307.698 414.193 305.451 414.193 300.732C414.193 292.418 401.789 295.294 401.789 290.665C401.789 289.047 403.317 288.013 405.744 288.013C408.35 288.013 409.923 289.317 410.912 291.114L413.968 289.452C412.395 286.351 409.474 284.733 405.834 284.733C401.474 284.733 398.059 287.07 398.059 291.07C398.059 299.069 410.373 295.788 410.373 300.957C410.373 302.889 408.755 304.372 405.879 304.372C402.598 304.372 400.755 302.395 400.036 300.328L396.845 301.766C398.014 305.226 401.564 307.698 406.013 307.698Z" fill="black"/>
<path d="M426.685 307.698C430.91 307.698 434.864 305.451 434.864 300.732C434.864 292.418 422.46 295.294 422.46 290.665C422.46 289.047 423.988 288.013 426.415 288.013C429.022 288.013 430.595 289.317 431.584 291.114L434.64 289.452C433.067 286.351 430.146 284.733 426.505 284.733C422.146 284.733 418.73 287.07 418.73 291.07C418.73 299.069 431.044 295.788 431.044 300.957C431.044 302.889 429.426 304.372 426.55 304.372C423.269 304.372 421.427 302.395 420.708 300.328L417.517 301.766C418.685 305.226 422.236 307.698 426.685 307.698Z" fill="black"/>
<path d="M462.443 288.283V285.137H457.005V277.003L453.14 279.879V285.137H449.5V288.283H453.14V301.766C453.14 305.945 455.657 307.698 458.848 307.698C460.017 307.698 461.23 307.473 462.443 307.069V303.788C461.455 304.103 460.556 304.282 459.792 304.282C458.039 304.282 457.005 303.384 457.005 301.361V288.283H462.443Z" fill="black"/>
<path d="M467.732 280.688H472.047V275.969H467.732V280.688ZM467.957 307.294H471.822V285.137H467.957V307.294Z" fill="black"/>
<path d="M489.435 288.283V285.137H483.997V277.003L480.132 279.879V285.137H476.492V288.283H480.132V301.766C480.132 305.945 482.649 307.698 485.84 307.698C487.008 307.698 488.222 307.473 489.435 307.069V303.788C488.446 304.103 487.547 304.282 486.783 304.282C485.031 304.282 483.997 303.384 483.997 301.361V288.283H489.435Z" fill="black"/>
<path d="M498.957 307.698C499.945 307.698 501.114 307.428 502.148 307.069L502.103 303.878C501.473 304.058 500.754 304.238 500.125 304.238C498.822 304.238 498.283 303.429 498.283 302.08V275.969H494.418V302.305C494.418 305.945 496.26 307.698 498.957 307.698Z" fill="black"/>
<path d="M524.953 295.384C524.953 289.991 521.942 284.733 515.155 284.733C508.414 284.733 505.088 290.216 505.088 296.328C505.088 302.485 508.459 307.698 515.515 307.698C519.02 307.698 521.717 306.575 524.234 303.878L521.582 301.496C519.695 303.518 517.807 304.148 515.56 304.148C511.47 304.148 509.088 301.586 508.953 297.361H524.818C524.908 296.777 524.953 296.013 524.953 295.384ZM508.953 294.215C509.223 290.89 511.335 287.969 515.111 287.969C518.841 287.969 521.088 290.395 521.223 293.811C521.223 293.991 521.223 294.126 521.268 294.215H508.953Z" fill="black"/>
<path d="M551.02 304.822H554.256V295.024H564.008V291.789H554.256V281.991H551.02V291.789H541.223V295.024H551.02V304.822Z" fill="black"/>
<path d="M586.559 307.698C587.547 307.698 588.716 307.428 589.749 307.069L589.704 303.878C589.075 304.058 588.356 304.238 587.727 304.238C586.424 304.238 585.884 303.429 585.884 302.08V275.969H582.019V302.305C582.019 305.945 583.862 307.698 586.559 307.698Z" fill="black"/>
<path d="M612.555 295.384C612.555 289.991 609.544 284.733 602.757 284.733C596.016 284.733 592.69 290.216 592.69 296.328C592.69 302.485 596.061 307.698 603.117 307.698C606.622 307.698 609.319 306.575 611.836 303.878L609.184 301.496C607.296 303.518 605.409 304.148 603.162 304.148C599.072 304.148 596.69 301.586 596.555 297.361H612.42C612.51 296.777 612.555 296.013 612.555 295.384ZM596.555 294.215C596.825 290.89 598.937 287.969 602.712 287.969C606.443 287.969 608.69 290.395 608.824 293.811C608.824 293.991 608.824 294.126 608.869 294.215H596.555Z" fill="black"/>
<path d="M625.018 307.698C629.243 307.698 633.197 305.451 633.197 300.732C633.197 292.418 620.793 295.294 620.793 290.665C620.793 289.047 622.321 288.013 624.748 288.013C627.355 288.013 628.928 289.317 629.917 291.114L632.973 289.452C631.4 286.351 628.479 284.733 624.838 284.733C620.479 284.733 617.063 287.07 617.063 291.07C617.063 299.069 629.377 295.788 629.377 300.957C629.377 302.889 627.759 304.372 624.883 304.372C621.602 304.372 619.76 302.395 619.041 300.328L615.85 301.766C617.018 305.226 620.569 307.698 625.018 307.698Z" fill="black"/>
<path d="M645.69 307.698C649.914 307.698 653.869 305.451 653.869 300.732C653.869 292.418 641.465 295.294 641.465 290.665C641.465 289.047 642.993 288.013 645.42 288.013C648.027 288.013 649.6 289.317 650.588 291.114L653.644 289.452C652.071 286.351 649.15 284.733 645.51 284.733C641.15 284.733 637.735 287.07 637.735 291.07C637.735 299.069 650.049 295.788 650.049 300.957C650.049 302.889 648.431 304.372 645.555 304.372C642.274 304.372 640.431 302.395 639.712 300.328L636.521 301.766C637.69 305.226 641.24 307.698 645.69 307.698Z" fill="black"/>
<path d="M668.208 307.698C674.725 307.698 679.039 302.62 679.039 296.193C679.039 289.721 674.68 284.733 668.208 284.733C661.691 284.733 657.467 289.721 657.467 296.193C657.467 302.665 661.691 307.698 668.208 307.698ZM668.208 304.282C663.714 304.282 661.332 300.732 661.332 296.193C661.332 291.654 663.669 288.148 668.208 288.148C672.747 288.148 675.174 291.609 675.174 296.193C675.174 300.687 672.747 304.282 668.208 304.282Z" fill="black"/>
<path d="M695.557 284.733C692.546 284.733 689.94 285.991 688.456 288.148V285.137H684.591V307.294H688.456V297.721C688.456 292.238 690.074 288.148 694.524 288.148C698.119 288.148 699.153 290.755 699.153 294.44V307.294H703.018V293.496C703.018 287.789 700.411 284.733 695.557 284.733Z" fill="black"/>
<path d="M731.92 288.283V285.137H726.482V277.003L722.617 279.879V285.137H718.977V288.283H722.617V301.766C722.617 305.945 725.134 307.698 728.325 307.698C729.493 307.698 730.707 307.473 731.92 307.069V303.788C730.931 304.103 730.032 304.282 729.268 304.282C727.516 304.282 726.482 303.384 726.482 301.361V288.283H731.92Z" fill="black"/>
<path d="M737.209 280.688H741.523V275.969H737.209V280.688ZM737.433 307.294H741.298V285.137H737.433V307.294Z" fill="black"/>
<path d="M758.911 288.283V285.137H753.474V277.003L749.609 279.879V285.137H745.968V288.283H749.609V301.766C749.609 305.945 752.125 307.698 755.316 307.698C756.485 307.698 757.698 307.473 758.911 307.069V303.788C757.923 304.103 757.024 304.282 756.26 304.282C754.507 304.282 753.474 303.384 753.474 301.361V288.283H758.911Z" fill="black"/>
<path d="M768.433 307.698C769.422 307.698 770.59 307.428 771.624 307.069L771.579 303.878C770.95 304.058 770.231 304.238 769.602 304.238C768.298 304.238 767.759 303.429 767.759 302.08V275.969H763.894V302.305C763.894 305.945 765.737 307.698 768.433 307.698Z" fill="black"/>
<path d="M794.429 295.384C794.429 289.991 791.418 284.733 784.632 284.733C777.891 284.733 774.565 290.216 774.565 296.328C774.565 302.485 777.936 307.698 784.992 307.698C788.497 307.698 791.194 306.575 793.71 303.878L791.059 301.496C789.171 303.518 787.284 304.148 785.037 304.148C780.947 304.148 778.565 301.586 778.43 297.361H794.295C794.384 296.777 794.429 296.013 794.429 295.384ZM778.43 294.215C778.7 290.89 780.812 287.969 784.587 287.969C788.317 287.969 790.564 290.395 790.699 293.811C790.699 293.991 790.699 294.126 790.744 294.215H778.43Z" fill="black"/>
<path d="M902.837 307.293H906.837V293.856H912.23C918.926 293.856 922.657 290.665 922.657 284.822C922.657 279.07 919.016 275.969 912.23 275.969H902.837V307.293ZM906.837 290.17V279.654H911.826C916.41 279.654 918.657 281.362 918.657 284.867C918.657 288.418 916.41 290.17 911.826 290.17H906.837Z" fill="black"/>
<path d="M935.085 284.732C931.22 284.732 928.209 286.216 925.737 289.361L928.524 291.698C930.276 289.361 932.389 288.148 934.995 288.148C938.366 288.148 940.253 290.036 940.253 293.451V294.35H935.355C931.625 294.35 929.422 294.71 927.76 295.608C925.962 296.597 924.973 298.395 924.973 300.732C924.973 305.001 927.984 307.698 932.748 307.698C936.074 307.698 938.725 306.35 940.298 303.968L940.568 307.293H944.118V293.451C944.118 287.968 940.748 284.732 935.085 284.732ZM933.647 304.462C930.681 304.462 928.838 303.069 928.838 300.912C928.838 299.788 929.243 298.934 929.962 298.35C930.906 297.631 932.434 297.361 935.804 297.361H940.253V297.586C940.253 301.676 937.557 304.462 933.647 304.462Z" fill="black"/>
<path d="M961.295 284.732C958.958 284.732 956.307 285.766 954.914 288.597V285.137H951.049V307.293H954.914V295.339C954.914 290.755 957.116 288.373 960.486 288.373C961.475 288.373 962.419 288.597 963.363 289.047L965.25 285.811C963.947 285.047 962.689 284.732 961.295 284.732Z" fill="black"/>
<path d="M980.339 288.283V285.137H974.901V277.002L971.036 279.879V285.137H967.396V288.283H971.036V301.765C971.036 305.945 973.553 307.698 976.744 307.698C977.912 307.698 979.125 307.473 980.339 307.069V303.788C979.35 304.102 978.451 304.282 977.687 304.282C975.935 304.282 974.901 303.383 974.901 301.361V288.283H980.339Z" fill="black"/>
<path d="M985.628 280.688H989.942V275.969H985.628V280.688ZM985.852 307.293H989.717V285.137H985.852V307.293Z" fill="black"/>
<path d="M1005.67 307.698C1009.8 307.698 1013.08 305.451 1014.57 301.406L1011.02 300.058C1010.25 302.709 1008.23 304.282 1005.62 304.282C1001.22 304.282 999.331 300.462 999.331 296.283C999.331 292.103 1001.22 288.148 1005.62 288.148C1008.18 288.148 1010.21 289.766 1011.11 292.462L1014.79 290.979C1013.04 286.755 1009.71 284.732 1005.62 284.732C998.747 284.732 995.376 290.44 995.376 296.283C995.376 302.35 998.971 307.698 1005.67 307.698Z" fill="black"/>
<path d="M1019.64 280.688H1023.96V275.969H1019.64V280.688ZM1019.87 307.293H1023.73V285.137H1019.87V307.293Z" fill="black"/>
<path d="M1042.15 284.732C1039.28 284.732 1036.76 285.766 1035.14 287.878V285.137H1031.28V316.462H1035.14V304.507C1036.63 306.484 1039.19 307.698 1042.15 307.698C1048.31 307.698 1051.86 303.024 1051.86 296.193C1051.86 289.361 1048.27 284.732 1042.15 284.732ZM1041.43 304.282C1037.03 304.282 1034.83 300.822 1034.83 296.193C1034.83 291.384 1037.16 288.103 1041.43 288.103C1045.61 288.103 1048 291.249 1048 296.193C1048 301.001 1045.75 304.282 1041.43 304.282Z" fill="black"/>
<path d="M1065.65 284.732C1061.79 284.732 1058.78 286.216 1056.31 289.361L1059.09 291.698C1060.85 289.361 1062.96 288.148 1065.56 288.148C1068.93 288.148 1070.82 290.036 1070.82 293.451V294.35H1065.92C1062.19 294.35 1059.99 294.71 1058.33 295.608C1056.53 296.597 1055.54 298.395 1055.54 300.732C1055.54 305.001 1058.55 307.698 1063.32 307.698C1066.64 307.698 1069.29 306.35 1070.87 303.968L1071.14 307.293H1074.69V293.451C1074.69 287.968 1071.32 284.732 1065.65 284.732ZM1064.22 304.462C1061.25 304.462 1059.41 303.069 1059.41 300.912C1059.41 299.788 1059.81 298.934 1060.53 298.35C1061.47 297.631 1063 297.361 1066.37 297.361H1070.82V297.586C1070.82 301.676 1068.13 304.462 1064.22 304.462Z" fill="black"/>
<path d="M1092.58 284.732C1089.57 284.732 1086.97 285.991 1085.48 288.148V285.137H1081.62V307.293H1085.48V297.721C1085.48 292.238 1087.1 288.148 1091.55 288.148C1095.15 288.148 1096.18 290.755 1096.18 294.44V307.293H1100.04V293.496C1100.04 287.789 1097.44 284.732 1092.58 284.732Z" fill="black"/>
<path d="M1117.14 288.283V285.137H1111.7V277.002L1107.84 279.879V285.137H1104.2V288.283H1107.84V301.765C1107.84 305.945 1110.35 307.698 1113.54 307.698C1114.71 307.698 1115.93 307.473 1117.14 307.069V303.788C1116.15 304.102 1115.25 304.282 1114.49 304.282C1112.74 304.282 1111.7 303.383 1111.7 301.361V288.283H1117.14Z" fill="black"/>
<path d="M1129.75 307.698C1133.97 307.698 1137.93 305.451 1137.93 300.732C1137.93 292.418 1125.52 295.294 1125.52 290.665C1125.52 289.047 1127.05 288.013 1129.48 288.013C1132.08 288.013 1133.66 289.317 1134.65 291.114L1137.7 289.451C1136.13 286.35 1133.21 284.732 1129.57 284.732C1125.21 284.732 1121.79 287.069 1121.79 291.069C1121.79 299.069 1134.11 295.788 1134.11 300.957C1134.11 302.889 1132.49 304.372 1129.61 304.372C1126.33 304.372 1124.49 302.395 1123.77 300.327L1120.58 301.765C1121.75 305.226 1125.3 307.698 1129.75 307.698Z" fill="black"/>
<path d="M1232.55 307.293H1236.55V293.137H1251.97V307.293H1256.01V275.969H1251.97V289.406H1236.55V275.969H1232.55V307.293Z" fill="black"/>
<path d="M1282.55 295.384C1282.55 289.991 1279.54 284.732 1272.75 284.732C1266.01 284.732 1262.68 290.215 1262.68 296.327C1262.68 302.485 1266.06 307.698 1273.11 307.698C1276.62 307.698 1279.31 306.574 1281.83 303.878L1279.18 301.496C1277.29 303.518 1275.4 304.147 1273.16 304.147C1269.07 304.147 1266.68 301.586 1266.55 297.361H1282.41C1282.5 296.777 1282.55 296.013 1282.55 295.384ZM1266.55 294.215C1266.82 290.89 1268.93 287.968 1272.71 287.968C1276.44 287.968 1278.68 290.395 1278.82 293.811C1278.82 293.991 1278.82 294.125 1278.86 294.215H1266.55Z" fill="black"/>
<path d="M1292.59 307.698C1293.57 307.698 1294.74 307.428 1295.78 307.069L1295.73 303.878C1295.1 304.058 1294.38 304.237 1293.75 304.237C1292.45 304.237 1291.91 303.428 1291.91 302.08V275.969H1288.05V302.305C1288.05 305.945 1289.89 307.698 1292.59 307.698Z" fill="black"/>
<path d="M1311.39 284.732C1308.51 284.732 1306 285.766 1304.38 287.878V285.137H1300.52V316.462H1304.38V304.507C1305.86 306.484 1308.42 307.698 1311.39 307.698C1317.55 307.698 1321.1 303.024 1321.1 296.193C1321.1 289.361 1317.5 284.732 1311.39 284.732ZM1310.67 304.282C1306.27 304.282 1304.07 300.822 1304.07 296.193C1304.07 291.384 1306.4 288.103 1310.67 288.103C1314.85 288.103 1317.23 291.249 1317.23 296.193C1317.23 301.001 1314.99 304.282 1310.67 304.282Z" fill="black"/>
</svg>
