<svg width="1440" height="496" viewBox="0 0 1440 496" fill="none" xmlns="http://www.w3.org/2000/svg">
<rect width="1440" height="496" fill="white"/>
<path d="M45 404C45 390.745 55.7452 380 69 380H1371C1384.25 380 1395 390.745 1395 404V456C1395 469.255 1384.25 480 1371 480H69C55.7452 480 45 469.255 45 456V404Z" fill="#F888B5"/>
<path d="M75.8707 47.3242C75.8707 34.0694 86.6158 23.3242 99.8707 23.3242H282.328C295.583 23.3242 306.328 34.0694 306.328 47.3242V320.568C306.328 333.823 295.583 344.568 282.328 344.568H113.268C107.331 344.568 101.605 346.769 97.1962 350.744L75.8707 369.973V47.3242Z" fill="#F888B5"/>
<path d="M523.764 418.324C523.764 412.801 528.242 408.324 533.764 408.324H557.764C563.287 408.324 567.764 412.801 567.764 418.324V442.324C567.764 447.847 563.287 452.324 557.764 452.324H533.764C528.242 452.324 523.764 447.847 523.764 442.324V418.324Z" fill="white"/>
<path d="M75.7645 418.324C75.7645 412.801 80.2416 408.324 85.7645 408.324H109.764C115.287 408.324 119.764 412.801 119.764 418.324V442.324C119.764 447.847 115.287 452.324 109.764 452.324H85.7645C80.2416 452.324 75.7645 447.847 75.7645 442.324V418.324Z" fill="white"/>
<path d="M595.764 418.324C595.764 412.801 600.242 408.324 605.764 408.324H629.764C635.287 408.324 639.764 412.801 639.764 418.324V442.324C639.764 447.847 635.287 452.324 629.764 452.324H605.764C600.242 452.324 595.764 447.847 595.764 442.324V418.324Z" fill="white"/>
<path d="M667.764 418.324C667.764 412.801 672.242 408.324 677.764 408.324H701.764C707.287 408.324 711.764 412.801 711.764 418.324V442.324C711.764 447.847 707.287 452.324 701.764 452.324H677.764C672.242 452.324 667.764 447.847 667.764 442.324V418.324Z" fill="white"/>
<path d="M739.764 418.324C739.764 412.801 744.242 408.324 749.764 408.324H773.764C779.287 408.324 783.764 412.801 783.764 418.324V442.324C783.764 447.847 779.287 452.324 773.764 452.324H749.764C744.242 452.324 739.764 447.847 739.764 442.324V418.324Z" fill="white"/>
<path d="M811.764 418.324C811.764 412.801 816.242 408.324 821.764 408.324H845.764C851.287 408.324 855.764 412.801 855.764 418.324V442.324C855.764 447.847 851.287 452.324 845.764 452.324H821.764C816.242 452.324 811.764 447.847 811.764 442.324V418.324Z" fill="white"/>
<path fill-rule="evenodd" clip-rule="evenodd" d="M529.328 100.932C516.073 100.932 505.328 111.678 505.328 124.932V314.938C505.328 328.191 516.073 338.938 529.328 338.938H666.694L689.392 361.635L712.09 338.938H850.06C863.314 338.938 874.06 328.191 874.06 314.938V124.932C874.06 111.678 863.314 100.932 850.06 100.932H529.328Z" fill="#F888B5"/>
<path fill-rule="evenodd" clip-rule="evenodd" d="M585.81 299.186C595.353 299.186 603.09 291.449 603.09 281.906C603.09 272.363 595.353 264.627 585.81 264.627C576.267 264.627 568.531 272.363 568.531 281.906C568.531 291.449 576.267 299.186 585.81 299.186ZM585.81 304.186C598.115 304.186 608.09 294.211 608.09 281.906C608.09 269.602 598.115 259.627 585.81 259.627C573.506 259.627 563.531 269.602 563.531 281.906C563.531 294.211 573.506 304.186 585.81 304.186Z" fill="white"/>
<path fill-rule="evenodd" clip-rule="evenodd" d="M657.81 299.186C667.353 299.186 675.09 291.449 675.09 281.906C675.09 272.363 667.353 264.627 657.81 264.627C648.267 264.627 640.531 272.363 640.531 281.906C640.531 291.449 648.267 299.186 657.81 299.186ZM657.81 304.186C670.115 304.186 680.09 294.211 680.09 281.906C680.09 269.602 670.115 259.627 657.81 259.627C645.506 259.627 635.531 269.602 635.531 281.906C635.531 294.211 645.506 304.186 657.81 304.186Z" fill="white"/>
<path fill-rule="evenodd" clip-rule="evenodd" d="M729.81 299.186C739.353 299.186 747.09 291.449 747.09 281.906C747.09 272.363 739.353 264.627 729.81 264.627C720.267 264.627 712.531 272.363 712.531 281.906C712.531 291.449 720.267 299.186 729.81 299.186ZM729.81 304.186C742.115 304.186 752.09 294.211 752.09 281.906C752.09 269.602 742.115 259.627 729.81 259.627C717.506 259.627 707.531 269.602 707.531 281.906C707.531 294.211 717.506 304.186 729.81 304.186Z" fill="white"/>
<path fill-rule="evenodd" clip-rule="evenodd" d="M801.81 299.186C811.353 299.186 819.09 291.449 819.09 281.906C819.09 272.363 811.353 264.627 801.81 264.627C792.267 264.627 784.531 272.363 784.531 281.906C784.531 291.449 792.267 299.186 801.81 299.186ZM801.81 304.186C814.115 304.186 824.09 294.211 824.09 281.906C824.09 269.602 814.115 259.627 801.81 259.627C789.506 259.627 779.531 269.602 779.531 281.906C779.531 294.211 789.506 304.186 801.81 304.186Z" fill="white"/>
<path d="M744.362 150.224C744.362 152.957 742.125 155.194 739.392 155.194H734.422V160.163C734.422 162.897 732.186 165.133 729.452 165.133C726.719 165.133 724.482 162.897 724.482 160.163V155.194H719.513C716.779 155.194 714.543 152.957 714.543 150.224C714.543 147.49 716.779 145.254 719.513 145.254H724.482V140.284C724.482 137.551 726.719 135.314 729.452 135.314C732.186 135.314 734.422 137.551 734.422 140.284V145.254H739.392C742.125 145.254 744.362 147.49 744.362 150.224ZM732.037 174.824C733.577 179.595 734.422 184.714 734.422 189.982C734.422 217.416 712.157 239.68 684.724 239.68C657.291 239.68 635.026 217.416 635.026 189.982C635.026 162.549 657.291 140.284 684.724 140.284C692.179 140.284 699.236 141.974 705.597 144.956C705.001 146.596 704.603 148.335 704.603 150.224C704.603 156.933 709.076 162.648 715.189 164.487C716.119 167.547 718.006 170.227 720.574 172.133C723.142 174.039 726.254 175.069 729.452 175.073C730.347 175.073 731.192 174.973 732.037 174.824ZM659.875 177.558C659.875 181.683 663.205 185.012 667.33 185.012C671.455 185.012 674.784 181.683 674.784 177.558C674.784 173.433 671.455 170.103 667.33 170.103C663.205 170.103 659.875 173.433 659.875 177.558ZM706.144 199.922H663.304C661.416 199.922 660.173 202.009 661.117 203.649C665.839 211.8 674.635 217.316 684.724 217.316C694.813 217.316 703.609 211.8 708.331 203.649C708.545 203.268 708.656 202.838 708.653 202.4C708.649 201.963 708.53 201.534 708.309 201.157C708.088 200.779 707.771 200.467 707.391 200.25C707.011 200.034 706.581 199.92 706.144 199.922V199.922ZM709.573 177.558C709.573 173.433 706.243 170.103 702.118 170.103C697.993 170.103 694.664 173.433 694.664 177.558C694.664 181.683 697.993 185.012 702.118 185.012C706.243 185.012 709.573 181.683 709.573 177.558Z" fill="white"/>
<path fill-rule="evenodd" clip-rule="evenodd" d="M133.431 214.573C140.796 214.573 146.764 208.604 146.764 201.24C146.764 193.875 140.796 187.906 133.431 187.906C126.067 187.906 120.098 193.875 120.098 201.24C120.098 208.604 126.067 214.573 133.431 214.573ZM133.431 254.573C140.796 254.573 146.764 248.604 146.764 241.24C146.764 233.875 140.796 227.906 133.431 227.906C126.067 227.906 120.098 233.875 120.098 241.24C120.098 248.604 126.067 254.573 133.431 254.573ZM146.764 281.24C146.764 288.604 140.796 294.573 133.431 294.573C126.067 294.573 120.098 288.604 120.098 281.24C120.098 273.875 126.067 267.906 133.431 267.906C140.796 267.906 146.764 273.875 146.764 281.24ZM257.382 275.24H160.098V287.24H257.382V275.24ZM160.098 235.24H257.382V247.24H160.098V235.24ZM257.382 195.24H160.098V207.24H257.382V195.24Z" fill="white"/>
<path d="M230.74 78.2657H218.876V67.198C218.876 61.599 214.345 57.0625 208.74 57.0625L174.21 57.0677C168.611 57.0677 164.074 61.5989 164.074 67.2032V78.2657H152.21C146.611 78.2657 142.074 82.7969 142.074 88.4012V134.667C142.074 140.265 146.606 144.802 152.21 144.802H153.679L178.481 119.999C176.617 115.067 177.815 109.197 181.815 105.197C185.95 101.061 191.815 100.129 196.747 101.863L189.814 108.796C188.346 110.264 188.346 112.66 189.814 113.993L193.012 117.191C194.481 118.66 196.877 118.66 198.21 117.191L205.142 110.259C207.007 115.327 205.944 121.191 201.809 125.191C197.809 129.191 191.944 130.259 187.006 128.524L170.741 144.795H230.741C236.34 144.795 240.876 140.264 240.876 134.66V88.3996C240.876 82.7954 236.21 78.2641 230.741 78.2641L230.74 78.2657ZM211.407 69.8646V78.1302H171.407V68.6666C171.407 65.8645 173.673 63.5989 176.475 63.5989H206.475C209.277 63.5989 211.543 65.8645 211.543 68.6666V69.8646L211.407 69.8646Z" fill="white"/>
<path d="M931.262 203.407L922.768 189.295C926.813 188.171 928.97 185.34 928.97 180.891C928.97 175.228 925.509 172.082 918.543 172.082H909.15V203.407H913.15V189.834H916.746H918.768L926.633 203.407H931.262ZM913.15 186.104V175.767H918.139C922.633 175.767 924.97 177.385 924.97 180.936C924.97 184.486 922.633 186.104 918.139 186.104H913.15Z" fill="black"/>
<path d="M953.748 191.497C953.748 186.104 950.737 180.846 943.95 180.846C937.209 180.846 933.883 186.329 933.883 192.441C933.883 198.598 937.254 203.811 944.31 203.811C947.815 203.811 950.512 202.688 953.029 199.991L950.377 197.609C948.489 199.631 946.602 200.261 944.355 200.261C940.265 200.261 937.883 197.699 937.748 193.474H953.613C953.703 192.89 953.748 192.126 953.748 191.497ZM937.748 190.328C938.018 187.003 940.13 184.082 943.905 184.082C947.636 184.082 949.883 186.508 950.017 189.924C950.017 190.104 950.017 190.239 950.062 190.328H937.748Z" fill="black"/>
<path d="M967.424 180.846C963.559 180.846 960.548 182.329 958.077 185.475L960.863 187.812C962.616 185.475 964.728 184.261 967.335 184.261C970.705 184.261 972.593 186.149 972.593 189.564V190.463H967.694C963.964 190.463 961.762 190.823 960.099 191.722C958.301 192.71 957.312 194.508 957.312 196.845C957.312 201.115 960.324 203.811 965.087 203.811C968.413 203.811 971.065 202.463 972.638 200.081L972.907 203.407H976.458V189.564C976.458 184.082 973.087 180.846 967.424 180.846ZM965.986 200.575C963.02 200.575 961.178 199.182 961.178 197.025C961.178 195.901 961.582 195.047 962.301 194.463C963.245 193.744 964.773 193.474 968.144 193.474H972.593V193.699C972.593 197.789 969.896 200.575 965.986 200.575Z" fill="black"/>
<path d="M991.748 203.811C995.883 203.811 999.164 201.564 1000.65 197.519L997.096 196.171C996.332 198.823 994.31 200.396 991.703 200.396C987.299 200.396 985.411 196.575 985.411 192.396C985.411 188.216 987.299 184.261 991.703 184.261C994.265 184.261 996.287 185.879 997.186 188.576L1000.87 187.093C999.119 182.868 995.793 180.846 991.703 180.846C984.827 180.846 981.457 186.553 981.457 192.396C981.457 198.463 985.052 203.811 991.748 203.811Z" fill="black"/>
<path d="M1016.01 184.396V181.25H1010.58V173.116L1006.71 175.992V181.25H1003.07V184.396H1006.71V197.879C1006.71 202.058 1009.23 203.811 1012.42 203.811C1013.59 203.811 1014.8 203.586 1016.01 203.182V199.901C1015.03 200.216 1014.13 200.396 1013.36 200.396C1011.61 200.396 1010.58 199.497 1010.58 197.474V184.396H1016.01Z" fill="black"/>
<path d="M1021.3 176.801H1025.62V172.082H1021.3V176.801ZM1021.53 203.407H1025.39V181.25H1021.53V203.407Z" fill="black"/>
<path d="M1041.75 203.811C1048.26 203.811 1052.58 198.733 1052.58 192.306C1052.58 185.834 1048.22 180.846 1041.75 180.846C1035.23 180.846 1031.01 185.834 1031.01 192.306C1031.01 198.778 1035.23 203.811 1041.75 203.811ZM1041.75 200.396C1037.25 200.396 1034.87 196.845 1034.87 192.306C1034.87 187.767 1037.21 184.261 1041.75 184.261C1046.29 184.261 1048.71 187.722 1048.71 192.306C1048.71 196.8 1046.29 200.396 1041.75 200.396Z" fill="black"/>
<path d="M1069.1 180.846C1066.09 180.846 1063.48 182.104 1062 184.261V181.25H1058.13V203.407H1062V193.834C1062 188.351 1063.61 184.261 1068.06 184.261C1071.66 184.261 1072.69 186.868 1072.69 190.553V203.407H1076.56V189.609C1076.56 183.902 1073.95 180.846 1069.1 180.846Z" fill="black"/>
<path d="M1090.37 203.811C1094.6 203.811 1098.55 201.564 1098.55 196.845C1098.55 188.531 1086.15 191.407 1086.15 186.778C1086.15 185.16 1087.68 184.126 1090.1 184.126C1092.71 184.126 1094.28 185.43 1095.27 187.227L1098.33 185.565C1096.75 182.464 1093.83 180.846 1090.19 180.846C1085.83 180.846 1082.42 183.183 1082.42 187.183C1082.42 195.182 1094.73 191.901 1094.73 197.07C1094.73 199.002 1093.11 200.485 1090.24 200.485C1086.96 200.485 1085.11 198.508 1084.39 196.441L1081.2 197.879C1082.37 201.339 1085.92 203.811 1090.37 203.811Z" fill="black"/>
<path d="M331.367 70.3246H349.389V66.6393H335.367V39H331.367V70.3246Z" fill="black"/>
<path d="M372.234 58.415C372.234 53.0219 369.222 47.7637 362.436 47.7637C355.695 47.7637 352.369 53.2466 352.369 59.3587C352.369 65.5158 355.74 70.7291 362.796 70.7291C366.301 70.7291 368.998 69.6055 371.514 66.909L368.863 64.5271C366.975 66.5495 365.088 67.1786 362.841 67.1786C358.751 67.1786 356.369 64.617 356.234 60.3924H372.099C372.189 59.8082 372.234 59.0441 372.234 58.415ZM356.234 57.2465C356.504 53.9208 358.616 50.9995 362.391 50.9995C366.121 50.9995 368.369 53.4264 368.503 56.842C368.503 57.0218 368.503 57.1566 368.548 57.2465H356.234Z" fill="black"/>
<path d="M385.91 47.7637C382.045 47.7637 379.034 49.2468 376.562 52.3927L379.349 54.7297C381.102 52.3927 383.214 51.1793 385.82 51.1793C389.191 51.1793 391.079 53.0669 391.079 56.4824V57.3813H386.18C382.45 57.3813 380.248 57.7408 378.585 58.6397C376.787 59.6284 375.798 61.4261 375.798 63.7631C375.798 68.0326 378.81 70.7291 383.573 70.7291C386.899 70.7291 389.551 69.3808 391.124 66.9989L391.393 70.3246H394.944V56.4824C394.944 50.9995 391.573 47.7637 385.91 47.7637ZM384.472 67.4932C381.506 67.4932 379.663 66.1 379.663 63.9428C379.663 62.8193 380.068 61.9654 380.787 61.3811C381.731 60.6621 383.259 60.3924 386.629 60.3924H391.079V60.6171C391.079 64.7068 388.382 67.4932 384.472 67.4932Z" fill="black"/>
<path d="M412.121 47.7637C409.784 47.7637 407.132 48.7974 405.739 51.6287V48.1682H401.874V70.3246H405.739V58.37C405.739 53.7859 407.941 51.404 411.312 51.404C412.3 51.404 413.244 51.6287 414.188 52.0781L416.076 48.8423C414.772 48.0783 413.514 47.7637 412.121 47.7637Z" fill="black"/>
<path d="M431.01 47.7637C427.999 47.7637 425.392 49.0221 423.909 51.1793V48.1682H420.044V70.3246H423.909V60.7519C423.909 55.269 425.527 51.1793 429.976 51.1793C433.571 51.1793 434.605 53.7859 434.605 57.4712V70.3246H438.47V56.5274C438.47 50.8198 435.863 47.7637 431.01 47.7637Z" fill="black"/>
<path d="M445.275 43.7189H449.589V39H445.275V43.7189ZM445.499 70.3246H449.364V48.1682H445.499V70.3246Z" fill="black"/>
<path d="M467.876 47.7637C464.865 47.7637 462.258 49.0221 460.775 51.1793V48.1682H456.91V70.3246H460.775V60.7519C460.775 55.269 462.393 51.1793 466.842 51.1793C470.438 51.1793 471.472 53.7859 471.472 57.4712V70.3246H475.337V56.5274C475.337 50.8198 472.73 47.7637 467.876 47.7637Z" fill="black"/>
<path d="M490.276 67.4034C487.22 66.9539 484.613 66.4596 484.613 64.3922C484.613 63.5833 485.017 62.9541 485.826 62.5047C487.085 63.1788 488.613 63.5383 490.276 63.5383C494.994 63.5383 498.859 60.4823 498.859 55.8083C498.859 54.2803 498.455 52.8871 497.736 51.7186L500.792 49.2018L498.77 46.73L495.624 49.4265C494.141 48.3929 492.298 47.7637 490.186 47.7637C485.377 47.7637 481.512 50.9995 481.512 55.6285C481.512 57.5611 482.186 59.3138 483.399 60.6621C481.916 61.7407 481.107 63.0889 481.107 64.9765C481.107 67.2236 482.276 68.5269 483.939 69.3359L480.433 71.9874C480.388 72.2571 480.343 72.5268 480.343 72.9762C480.343 77.4704 484.119 79.8972 490.41 79.8972C496.118 79.8972 500.118 77.9198 500.118 73.6054C500.118 68.6168 494.725 68.0326 490.276 67.4034ZM490.231 50.9995C493.152 50.9995 494.994 52.932 494.994 55.7184C494.994 58.37 493.242 60.3924 490.231 60.3924C487.175 60.3924 485.377 58.3251 485.377 55.7184C485.377 52.932 487.399 50.9995 490.231 50.9995ZM490.59 76.7962C487.22 76.7962 484.163 75.9423 484.163 73.2009C484.163 73.111 484.163 73.0211 484.208 72.8413L486.86 70.2797C487.714 70.4594 488.613 70.5942 489.467 70.7291C492.972 71.2684 496.253 71.583 496.253 73.9649C496.253 75.8974 493.961 76.7962 490.59 76.7962Z" fill="black"/>
<path d="M338.288 129.325H342.333V101.685H352.849V98H327.772V101.685H338.288V129.325Z" fill="black"/>
<path d="M362.273 129.729C368.79 129.729 373.104 124.651 373.104 118.224C373.104 111.752 368.745 106.764 362.273 106.764C355.757 106.764 351.532 111.752 351.532 118.224C351.532 124.696 355.757 129.729 362.273 129.729ZM362.273 126.313C357.779 126.313 355.397 122.763 355.397 118.224C355.397 113.685 357.734 110.179 362.273 110.179C366.812 110.179 369.239 113.64 369.239 118.224C369.239 122.718 366.812 126.313 362.273 126.313Z" fill="black"/>
<path d="M387.465 129.729C393.982 129.729 398.296 124.651 398.296 118.224C398.296 111.752 393.937 106.764 387.465 106.764C380.949 106.764 376.724 111.752 376.724 118.224C376.724 124.696 380.949 129.729 387.465 129.729ZM387.465 126.313C382.971 126.313 380.589 122.763 380.589 118.224C380.589 113.685 382.926 110.179 387.465 110.179C392.005 110.179 394.431 113.64 394.431 118.224C394.431 122.718 392.005 126.313 387.465 126.313Z" fill="black"/>
<path d="M408.208 129.729C409.197 129.729 410.365 129.459 411.399 129.1L411.354 125.909C410.725 126.089 410.006 126.269 409.377 126.269C408.073 126.269 407.534 125.46 407.534 124.111V98H403.669V124.336C403.669 127.976 405.512 129.729 408.208 129.729Z" fill="black"/>
<path d="M422.924 129.729C427.149 129.729 431.103 127.482 431.103 122.763C431.103 114.449 418.699 117.325 418.699 112.696C418.699 111.078 420.227 110.044 422.654 110.044C425.261 110.044 426.834 111.348 427.823 113.145L430.879 111.483C429.306 108.382 426.384 106.764 422.744 106.764C418.385 106.764 414.969 109.101 414.969 113.101C414.969 121.1 427.283 117.819 427.283 122.988C427.283 124.92 425.665 126.403 422.789 126.403C419.508 126.403 417.666 124.426 416.947 122.359L413.756 123.797C414.924 127.257 418.475 129.729 422.924 129.729Z" fill="black"/>
</svg>
