<svg width="406" height="258" viewBox="0 0 406 258" fill="none" xmlns="http://www.w3.org/2000/svg">
<path fill-rule="evenodd" clip-rule="evenodd" d="M241.474 176.9L209.474 139.4C205.574 134.9 199.374 134.9 195.474 139.4L163.474 176.9C155.774 186 159.174 193.3 171.074 193.3H233.874C245.774 193.3 249.174 185.9 241.474 176.9ZM180.674 178.9L202.574 153.3L224.374 178.9H180.674Z" fill="white"/>
<path fill-rule="evenodd" clip-rule="evenodd" d="M281.374 78.6V164.7C281.374 172.6 274.974 179 267.074 179V78.6H137.874V179C129.974 179 123.474 172.6 123.474 164.7V78.6C123.474 70.7 129.874 64.3 137.874 64.3H266.974C274.874 64.2 281.374 70.7 281.374 78.6Z" fill="white"/>
</svg>
