<svg width="407" height="258" viewBox="0 0 407 258" fill="none" xmlns="http://www.w3.org/2000/svg">
<path fill-rule="evenodd" clip-rule="evenodd" d="M95.1266 163.1C95.1266 171 88.5266 177.3 80.4266 177.3C72.3266 177.3 65.7266 170.9 65.7266 163.1C65.7266 155.2 72.3266 148.8 80.4266 148.8C88.5266 148.9 95.1266 155.2 95.1266 163.1Z" fill="white"/>
<path fill-rule="evenodd" clip-rule="evenodd" d="M109.827 196.4V208.3C109.827 212.2 106.527 215.4 102.527 215.4H58.5266C54.5266 215.4 51.2266 212.2 51.2266 208.3V196.4C51.2266 188.5 57.8266 182.2 65.9266 182.2H95.3266C103.227 182.1 109.827 188.5 109.827 196.4Z" fill="white"/>
<path fill-rule="evenodd" clip-rule="evenodd" d="M218.226 163.1C218.226 171 211.626 177.3 203.526 177.3C195.426 177.3 188.826 170.9 188.826 163.1C188.826 155.2 195.426 148.8 203.526 148.8C211.626 148.9 218.226 155.2 218.226 163.1Z" fill="white"/>
<path fill-rule="evenodd" clip-rule="evenodd" d="M232.926 196.4V208.3C232.926 212.2 229.626 215.4 225.626 215.4H181.626C177.626 215.4 174.326 212.2 174.326 208.3V196.4C174.326 188.5 180.926 182.2 189.026 182.2H218.426C226.326 182.1 232.926 188.5 232.926 196.4Z" fill="white"/>
<path fill-rule="evenodd" clip-rule="evenodd" d="M355.926 196.4V208.3C355.926 212.2 352.626 215.4 348.626 215.4H304.626C300.626 215.4 297.326 212.2 297.326 208.3V196.4C297.326 188.5 303.926 182.2 312.026 182.2H341.426C349.426 182.1 355.926 188.5 355.926 196.4Z" fill="white"/>
<path fill-rule="evenodd" clip-rule="evenodd" d="M341.326 163.1C341.326 171 334.726 177.3 326.626 177.3C318.526 177.3 311.926 170.9 311.926 163.1C311.926 155.2 318.526 148.8 326.626 148.8C334.726 148.9 341.326 155.2 341.326 163.1Z" fill="white"/>
<path d="M326.626 70.6C334.744 70.6 341.326 64.1977 341.326 56.3C341.326 48.4023 334.744 42 326.626 42C318.507 42 311.926 48.4023 311.926 56.3C311.926 64.1977 318.507 70.6 326.626 70.6Z" fill="white"/>
<path fill-rule="evenodd" clip-rule="evenodd" d="M355.926 89.4998V101.4C355.926 105.3 352.626 108.5 348.626 108.5H304.626C300.626 108.5 297.326 105.3 297.326 101.4V89.4998C297.326 81.5998 303.926 75.2998 312.026 75.2998H341.426C349.426 75.2998 355.926 81.6998 355.926 89.4998Z" fill="white"/>
<path fill-rule="evenodd" clip-rule="evenodd" d="M232.926 89.4998V101.4C232.926 105.3 229.626 108.5 225.626 108.5H181.626C177.626 108.5 174.326 105.3 174.326 101.4V89.4998C174.326 81.5998 180.926 75.2998 189.026 75.2998H218.426C226.326 75.2998 232.926 81.6998 232.926 89.4998Z" fill="white"/>
<path fill-rule="evenodd" clip-rule="evenodd" d="M218.226 56.3C218.226 64.2 211.626 70.6 203.526 70.6C195.426 70.6 188.826 64.2 188.826 56.3C188.826 48.4 195.426 42 203.526 42C211.626 42 218.226 48.4 218.226 56.3Z" fill="white"/>
<path d="M80.4266 70.6C88.5451 70.6 95.1266 64.1977 95.1266 56.3C95.1266 48.4023 88.5451 42 80.4266 42C72.308 42 65.7266 48.4023 65.7266 56.3C65.7266 64.1977 72.308 70.6 80.4266 70.6Z" fill="white"/>
<path fill-rule="evenodd" clip-rule="evenodd" d="M109.827 89.4998V101.4C109.827 105.3 106.527 108.5 102.527 108.5H58.5266C54.5266 108.5 51.2266 105.3 51.2266 101.4V89.4998C51.2266 81.5998 57.8266 75.2998 65.9266 75.2998H95.3266C103.227 75.2998 109.827 81.6998 109.827 89.4998Z" fill="white"/>
</svg>
