<svg width="3225" height="348" viewBox="0 0 3225 348" fill="none" xmlns="http://www.w3.org/2000/svg">
<path fill-rule="evenodd" clip-rule="evenodd" d="M32.1025 0.392578C14.4294 0.392578 0.102539 14.7194 0.102539 32.3926V225.811C0.102539 243.485 14.4294 257.811 32.1025 257.811H373.308C390.981 257.811 405.308 243.485 405.308 225.811V32.3926C405.308 14.7195 390.981 0.392578 373.308 0.392578H32.1025ZM79.6267 70.9288C87.7343 70.9288 94.3066 64.5453 94.3066 56.6714C94.3066 48.7972 87.7343 42.4141 79.6267 42.4141C71.5192 42.4141 64.9469 48.7972 64.9469 56.6714C64.9469 64.5457 71.5192 70.9288 79.6267 70.9288ZM64.9469 75.6797H94.3066C102.414 75.6797 108.986 82.0632 108.986 89.937V101.818C108.986 105.739 105.683 108.947 101.647 108.947H57.607C53.5701 108.947 50.2671 105.739 50.2671 101.818V89.937C50.2671 82.0628 56.8397 75.6797 64.9469 75.6797ZM79.6267 177.776C87.7343 177.776 94.3066 171.393 94.3066 163.519C94.3066 155.645 87.7343 149.262 79.6267 149.262C71.5192 149.262 64.9469 155.645 64.9469 163.519C64.9469 171.393 71.5192 177.776 79.6267 177.776ZM64.9469 182.527H94.3066C102.414 182.527 108.986 188.911 108.986 196.785V208.666C108.986 212.587 105.683 215.794 101.647 215.794H57.607C53.5701 215.794 50.2671 212.587 50.2671 208.666V196.785C50.2671 188.91 56.8397 182.527 64.9469 182.527ZM217.385 56.6714C217.385 64.5453 210.813 70.9288 202.705 70.9288C194.598 70.9288 188.025 64.5457 188.025 56.6714C188.025 48.7972 194.598 42.4141 202.705 42.4141C210.813 42.4141 217.385 48.7972 217.385 56.6714ZM217.385 75.6797H188.025C179.918 75.6797 173.345 82.0628 173.345 89.937V101.818C173.345 105.739 176.648 108.947 180.685 108.947H224.725C228.762 108.947 232.065 105.739 232.065 101.818V89.937C232.065 82.0632 225.493 75.6797 217.385 75.6797ZM202.705 177.776C210.813 177.776 217.385 171.393 217.385 163.519C217.385 155.645 210.813 149.262 202.705 149.262C194.598 149.262 188.025 155.645 188.025 163.519C188.025 171.393 194.598 177.776 202.705 177.776ZM188.025 182.527H217.385C225.493 182.527 232.065 188.911 232.065 196.785V208.666C232.065 212.587 228.762 215.794 224.725 215.794H180.685C176.648 215.794 173.345 212.587 173.345 208.666V196.785C173.345 188.91 179.918 182.527 188.025 182.527ZM340.463 56.6714C340.463 64.5453 333.891 70.9288 325.784 70.9288C317.676 70.9288 311.104 64.5457 311.104 56.6714C311.104 48.7972 317.676 42.4141 325.784 42.4141C333.891 42.4141 340.463 48.7972 340.463 56.6714ZM340.463 75.6797H311.104C302.997 75.6797 296.424 82.0628 296.424 89.937V101.818C296.424 105.739 299.727 108.947 303.764 108.947H347.803C351.84 108.947 355.143 105.739 355.143 101.818V89.937C355.143 82.0632 348.571 75.6797 340.463 75.6797ZM325.784 177.776C333.891 177.776 340.463 171.393 340.463 163.519C340.463 155.645 333.891 149.262 325.784 149.262C317.676 149.262 311.104 155.645 311.104 163.519C311.104 171.393 317.676 177.776 325.784 177.776ZM311.104 182.527H340.463C348.571 182.527 355.143 188.911 355.143 196.785V208.666C355.143 212.587 351.84 215.794 347.803 215.794H303.764C299.727 215.794 296.424 212.587 296.424 208.666V196.785C296.424 188.91 302.997 182.527 311.104 182.527Z" fill="#7DBFEF"/>
<path d="M93.9578 304.188L84.4301 329.13L74.8125 304.188H70.3633L82.8122 335.512H85.9582L98.3622 304.188H93.9578Z" fill="white" fill-opacity="0.5"/>
<path d="M103.073 308.906H107.388V304.188H103.073V308.906ZM103.298 335.512H107.163V313.356H103.298V335.512Z" fill="white" fill-opacity="0.5"/>
<path d="M129.675 304.188V316.142C128.147 314.12 125.585 312.951 122.664 312.951C116.732 312.951 112.956 317.4 112.956 324.411C112.956 331.018 116.327 335.917 122.664 335.917C125.585 335.917 128.102 334.838 129.675 332.771V335.512H133.54V304.188H129.675ZM123.383 332.411C119.024 332.411 116.821 329.13 116.821 324.411C116.821 319.558 119.203 316.412 123.383 316.412C127.652 316.412 129.989 319.692 129.989 324.411C129.989 328.995 127.787 332.411 123.383 332.411Z" fill="white" fill-opacity="0.5"/>
<path d="M159.153 323.602C159.153 318.209 156.142 312.951 149.356 312.951C142.614 312.951 139.289 318.434 139.289 324.546C139.289 330.703 142.659 335.917 149.715 335.917C153.221 335.917 155.917 334.793 158.434 332.097L155.782 329.715C153.895 331.737 152.007 332.366 149.76 332.366C145.67 332.366 143.288 329.804 143.154 325.58H159.018C159.108 324.996 159.153 324.232 159.153 323.602ZM143.154 322.434C143.423 319.108 145.535 316.187 149.311 316.187C153.041 316.187 155.288 318.614 155.423 322.029C155.423 322.209 155.423 322.344 155.468 322.434H143.154Z" fill="white" fill-opacity="0.5"/>
<path d="M173.639 335.917C180.155 335.917 184.47 330.838 184.47 324.411C184.47 317.94 180.11 312.951 173.639 312.951C167.122 312.951 162.897 317.94 162.897 324.411C162.897 330.883 167.122 335.917 173.639 335.917ZM173.639 332.501C169.144 332.501 166.763 328.951 166.763 324.411C166.763 319.872 169.099 316.367 173.639 316.367C178.178 316.367 180.605 319.827 180.605 324.411C180.605 328.906 178.178 332.501 173.639 332.501Z" fill="white" fill-opacity="0.5"/>
<path d="M208.614 335.917C212.839 335.917 216.794 333.669 216.794 328.951C216.794 320.636 204.39 323.513 204.39 318.884C204.39 317.266 205.918 316.232 208.345 316.232C210.951 316.232 212.524 317.535 213.513 319.333L216.569 317.67C214.996 314.569 212.075 312.951 208.435 312.951C204.075 312.951 200.66 315.288 200.66 319.288C200.66 327.288 212.974 324.007 212.974 329.175C212.974 331.108 211.356 332.591 208.48 332.591C205.199 332.591 203.356 330.613 202.637 328.546L199.446 329.984C200.615 333.445 204.165 335.917 208.614 335.917Z" fill="white" fill-opacity="0.5"/>
<path d="M232.567 316.502V313.356H227.129V305.221L223.264 308.097V313.356H219.623V316.502H223.264V329.984C223.264 334.164 225.781 335.917 228.971 335.917C230.14 335.917 231.353 335.692 232.567 335.287V332.007C231.578 332.321 230.679 332.501 229.915 332.501C228.162 332.501 227.129 331.602 227.129 329.58V316.502H232.567Z" fill="white" fill-opacity="0.5"/>
<path d="M247.932 312.951C245.595 312.951 242.943 313.985 241.55 316.816V313.356H237.685V335.512H241.55V323.558C241.55 318.973 243.752 316.591 247.123 316.591C248.112 316.591 249.056 316.816 249.999 317.266L251.887 314.03C250.584 313.266 249.325 312.951 247.932 312.951Z" fill="white" fill-opacity="0.5"/>
<path d="M272.21 323.602C272.21 318.209 269.199 312.951 262.413 312.951C255.672 312.951 252.346 318.434 252.346 324.546C252.346 330.703 255.716 335.917 262.772 335.917C266.278 335.917 268.974 334.793 271.491 332.097L268.84 329.715C266.952 331.737 265.064 332.366 262.817 332.366C258.728 332.366 256.346 329.804 256.211 325.58H272.075C272.165 324.996 272.21 324.232 272.21 323.602ZM256.211 322.434C256.48 319.108 258.593 316.187 262.368 316.187C266.098 316.187 268.345 318.614 268.48 322.029C268.48 322.209 268.48 322.344 268.525 322.434H256.211Z" fill="white" fill-opacity="0.5"/>
<path d="M285.887 312.951C282.022 312.951 279.011 314.434 276.539 317.58L279.325 319.917C281.078 317.58 283.19 316.367 285.797 316.367C289.168 316.367 291.055 318.254 291.055 321.67V322.569H286.157C282.426 322.569 280.224 322.928 278.561 323.827C276.764 324.816 275.775 326.614 275.775 328.951C275.775 333.22 278.786 335.917 283.55 335.917C286.876 335.917 289.527 334.568 291.1 332.186L291.37 335.512H294.92V321.67C294.92 316.187 291.55 312.951 285.887 312.951ZM284.449 332.681C281.483 332.681 279.64 331.288 279.64 329.13C279.64 328.007 280.045 327.153 280.764 326.569C281.707 325.85 283.235 325.58 286.606 325.58H291.055V325.805C291.055 329.894 288.359 332.681 284.449 332.681Z" fill="white" fill-opacity="0.5"/>
<path d="M325.355 312.951C322.164 312.951 319.648 314.255 318.12 317.266C316.906 314.165 314.479 312.951 311.603 312.951C309.221 312.951 306.974 313.805 305.581 316.097V313.356H301.806L301.851 335.512H305.716V325.58C305.716 320.771 306.48 316.367 310.884 316.367C314.614 316.367 315.468 319.782 315.468 322.793V335.512H319.333V325.58C319.333 320.771 320.052 316.367 324.591 316.367C328.996 316.367 329.085 320.861 329.085 322.704V335.512H332.95V321.58C332.95 316.636 330.658 312.951 325.355 312.951Z" fill="white" fill-opacity="0.5"/>
<path fill-rule="evenodd" clip-rule="evenodd" d="M940.513 32.3926C940.513 14.7195 954.84 0.392578 972.513 0.392578H1312.01C1329.68 0.392578 1344.01 14.7195 1344.01 32.3926V225.91C1344.01 243.583 1329.68 257.91 1312.01 257.91H972.513C954.84 257.91 940.513 243.583 940.513 225.91V32.3926ZM1077.71 64.6387H1206.81C1214.73 64.6387 1221.15 71.0603 1221.15 78.9812V165.05C1221.15 172.972 1214.73 179.393 1206.81 179.393V165.05V78.9812H1077.71V165.05V179.393C1069.79 179.393 1063.36 172.971 1063.36 165.05V78.9812C1063.36 71.0601 1069.79 64.6387 1077.71 64.6387ZM1120.48 179.319L1142.33 153.686L1164.18 179.319H1120.48ZM1173.71 193.661C1185.63 193.661 1189 186.325 1181.28 177.267L1149.3 139.753C1145.44 135.221 1139.21 135.235 1135.35 139.753L1103.37 177.267C1095.63 186.358 1099.05 193.661 1110.95 193.661H1173.71Z" fill="#7DBFEF"/>
<g opacity="0.5">
<path d="M1031.28 338.761C1037.62 338.761 1041.45 335.285 1041.45 329.961C1041.45 325.649 1039.42 323.229 1032.69 320.677C1027.94 318.829 1026 317.465 1026 314.913C1026 312.537 1028.12 310.601 1030.98 310.601C1033.44 310.601 1035.51 311.965 1036.74 314.297L1040.04 312.273C1038.15 308.885 1035.07 307.081 1031.11 307.081C1025.74 307.081 1022.09 310.293 1022.09 315.045C1022.09 319.181 1024.29 321.425 1030.58 323.845C1035.68 325.825 1037.49 327.409 1037.49 330.313C1037.49 333.173 1035.33 335.241 1031.33 335.241C1027.41 335.241 1024.6 332.909 1024.07 329.037L1020.2 330.005C1021.03 335.285 1025.48 338.761 1031.28 338.761Z" fill="white"/>
<path d="M1056.41 338.673C1060.46 338.673 1063.67 336.473 1065.12 332.513L1061.65 331.193C1060.9 333.789 1058.92 335.329 1056.37 335.329C1052.05 335.329 1050.21 331.589 1050.21 327.497C1050.21 323.405 1052.05 319.533 1056.37 319.533C1058.87 319.533 1060.85 321.117 1061.73 323.757L1065.34 322.305C1063.63 318.169 1060.37 316.189 1056.37 316.189C1049.63 316.189 1046.33 321.777 1046.33 327.497C1046.33 333.437 1049.85 338.673 1056.41 338.673Z" fill="white"/>
<path d="M1080.78 316.189C1078.49 316.189 1075.9 317.201 1074.53 319.973V316.585H1070.75V338.277H1074.53V326.573C1074.53 322.085 1076.69 319.753 1079.99 319.753C1080.96 319.753 1081.88 319.973 1082.81 320.413L1084.65 317.245C1083.38 316.497 1082.15 316.189 1080.78 316.189Z" fill="white"/>
<path d="M1104.99 326.617C1104.99 321.337 1102.04 316.189 1095.4 316.189C1088.8 316.189 1085.54 321.557 1085.54 327.541C1085.54 333.569 1088.84 338.673 1095.75 338.673C1099.18 338.673 1101.82 337.573 1104.29 334.933L1101.69 332.601C1099.84 334.581 1098 335.197 1095.8 335.197C1091.79 335.197 1089.46 332.689 1089.33 328.553H1104.86C1104.95 327.981 1104.99 327.233 1104.99 326.617ZM1089.33 325.473C1089.59 322.217 1091.66 319.357 1095.36 319.357C1099.01 319.357 1101.21 321.733 1101.34 325.077C1101.34 325.253 1101.34 325.385 1101.38 325.473H1089.33Z" fill="white"/>
<path d="M1128.68 326.617C1128.68 321.337 1125.73 316.189 1119.09 316.189C1112.49 316.189 1109.23 321.557 1109.23 327.541C1109.23 333.569 1112.53 338.673 1119.44 338.673C1122.87 338.673 1125.51 337.573 1127.97 334.933L1125.38 332.601C1123.53 334.581 1121.68 335.197 1119.48 335.197C1115.48 335.197 1113.15 332.689 1113.01 328.553H1128.55C1128.63 327.981 1128.68 327.233 1128.68 326.617ZM1113.01 325.473C1113.28 322.217 1115.35 319.357 1119.04 319.357C1122.69 319.357 1124.89 321.733 1125.03 325.077C1125.03 325.253 1125.03 325.385 1125.07 325.473H1113.01Z" fill="white"/>
<path d="M1145.41 316.189C1142.46 316.189 1139.91 317.421 1138.46 319.533V316.585H1134.68V338.277H1138.46V328.905C1138.46 323.537 1140.04 319.533 1144.4 319.533C1147.92 319.533 1148.93 322.085 1148.93 325.693V338.277H1152.72V324.769C1152.72 319.181 1150.16 316.189 1145.41 316.189Z" fill="white"/>
<path d="M1166.68 338.673C1170.82 338.673 1174.69 336.473 1174.69 331.853C1174.69 323.713 1162.55 326.529 1162.55 321.997C1162.55 320.413 1164.04 319.401 1166.42 319.401C1168.97 319.401 1170.51 320.677 1171.48 322.437L1174.47 320.809C1172.93 317.773 1170.07 316.189 1166.51 316.189C1162.24 316.189 1158.89 318.477 1158.89 322.393C1158.89 330.225 1170.95 327.013 1170.95 332.073C1170.95 333.965 1169.37 335.417 1166.55 335.417C1163.34 335.417 1161.53 333.481 1160.83 331.457L1157.71 332.865C1158.85 336.253 1162.33 338.673 1166.68 338.673Z" fill="white"/>
<path d="M1191.5 316.189C1188.46 316.189 1185.95 317.421 1184.5 319.533V307.609H1180.72V338.277H1184.5V328.729C1184.5 322.657 1186.57 319.533 1190.48 319.533C1193.56 319.533 1194.97 321.469 1194.97 325.693V338.277H1198.76V324.769C1198.76 319.181 1196.2 316.189 1191.5 316.189Z" fill="white"/>
<path d="M1213.91 316.189C1210.13 316.189 1207.18 317.641 1204.76 320.721L1207.49 323.009C1209.2 320.721 1211.27 319.533 1213.82 319.533C1217.12 319.533 1218.97 321.381 1218.97 324.725V325.605H1214.17C1210.52 325.605 1208.37 325.957 1206.74 326.837C1204.98 327.805 1204.01 329.565 1204.01 331.853C1204.01 336.033 1206.96 338.673 1211.62 338.673C1214.88 338.673 1217.47 337.353 1219.01 335.021L1219.28 338.277H1222.75V324.725C1222.75 319.357 1219.45 316.189 1213.91 316.189ZM1212.5 335.505C1209.6 335.505 1207.79 334.141 1207.79 332.029C1207.79 330.929 1208.19 330.093 1208.89 329.521C1209.82 328.817 1211.31 328.553 1214.61 328.553H1218.97V328.773C1218.97 332.777 1216.33 335.505 1212.5 335.505Z" fill="white"/>
<path d="M1240.01 316.189C1237.72 316.189 1235.13 317.201 1233.76 319.973V316.585H1229.98V338.277H1233.76V326.573C1233.76 322.085 1235.92 319.753 1239.22 319.753C1240.19 319.753 1241.11 319.973 1242.04 320.413L1243.88 317.245C1242.61 316.497 1241.38 316.189 1240.01 316.189Z" fill="white"/>
<path d="M1264.22 326.617C1264.22 321.337 1261.27 316.189 1254.63 316.189C1248.03 316.189 1244.77 321.557 1244.77 327.541C1244.77 333.569 1248.07 338.673 1254.98 338.673C1258.41 338.673 1261.05 337.573 1263.52 334.933L1260.92 332.601C1259.07 334.581 1257.22 335.197 1255.02 335.197C1251.02 335.197 1248.69 332.689 1248.56 328.553H1264.09C1264.18 327.981 1264.22 327.233 1264.22 326.617ZM1248.56 325.473C1248.82 322.217 1250.89 319.357 1254.58 319.357C1258.24 319.357 1260.44 321.733 1260.57 325.077C1260.57 325.253 1260.57 325.385 1260.61 325.473H1248.56Z" fill="white"/>
</g>
<path fill-rule="evenodd" clip-rule="evenodd" d="M1441.01 0.392578C1423.33 0.392578 1409.01 14.7194 1409.01 32.3926V225.811C1409.01 243.485 1423.33 257.811 1441.01 257.811H1782.21C1799.88 257.811 1814.21 243.485 1814.21 225.811V32.3926C1814.21 14.7195 1799.88 0.392578 1782.21 0.392578H1441.01ZM1604.95 54.4805H1619.2C1620.92 54.4805 1622.47 55.7534 1622.64 57.3142V122.489C1622.64 124.05 1621.09 125.323 1619.2 125.323H1604.95C1603.06 125.323 1601.51 124.05 1601.51 122.489V57.3142C1601.51 55.7535 1603.06 54.4805 1604.95 54.4805ZM1570.26 71.0567H1584.52C1586.41 71.0567 1587.95 72.3351 1587.95 73.8904V122.49C1587.95 124.051 1586.41 125.324 1584.52 125.324H1570.26C1568.37 125.324 1566.83 124.051 1566.83 122.49V73.8904C1566.83 72.3296 1568.37 71.0567 1570.26 71.0567ZM1653.72 86.2129H1639.47C1637.57 86.2129 1636.03 87.4859 1636.03 89.0466V122.487C1636.03 124.048 1637.57 125.321 1639.47 125.321H1653.72C1655.61 125.321 1657.15 124.048 1657.15 122.487V89.0466C1657.15 87.4913 1655.6 86.2129 1653.72 86.2129ZM1551.97 170.619C1557.55 170.619 1562.07 166.226 1562.07 160.808C1562.07 155.39 1557.55 150.998 1551.97 150.998C1546.39 150.998 1541.87 155.39 1541.87 160.808C1541.87 166.226 1546.39 170.619 1551.97 170.619ZM1562.07 193.916C1562.07 199.334 1557.55 203.726 1551.97 203.726C1546.39 203.726 1541.87 199.334 1541.87 193.916C1541.87 188.498 1546.39 184.105 1551.97 184.105C1557.55 184.105 1562.07 188.498 1562.07 193.916ZM1573.67 164.855H1681.35V155.045H1573.67V164.855ZM1681.35 198.293H1573.67V188.482H1681.35V198.293Z" fill="#7DBFEF"/>
<path d="M1533.79 331.535L1529.25 327.041C1531.54 324.254 1532.89 320.389 1532.89 315.76C1532.89 306.008 1527.05 299.536 1518.33 299.536C1509.65 299.536 1503.77 306.008 1503.77 315.76C1503.77 325.468 1509.65 331.939 1518.33 331.939C1521.52 331.939 1524.35 331.04 1526.64 329.423L1531.27 333.917L1533.79 331.535ZM1518.33 328.119C1511.9 328.119 1507.77 323.31 1507.77 315.76C1507.77 308.165 1511.9 303.356 1518.33 303.356C1524.76 303.356 1528.89 308.165 1528.89 315.76C1528.89 319.266 1527.99 322.187 1526.42 324.299L1521.61 319.58L1519.05 322.052L1523.81 326.681C1522.28 327.625 1520.4 328.119 1518.33 328.119Z" fill="white" fill-opacity="0.5"/>
<path d="M1553.98 309.244V318.861C1553.98 323.985 1552.5 328.389 1547.87 328.389C1543.69 328.389 1543.29 324.838 1543.29 321.962V309.244H1539.42V322.906C1539.42 328.119 1541.67 331.805 1546.88 331.805C1549.67 331.805 1552.41 330.726 1553.98 328.389V331.4H1557.85V309.244H1553.98Z" fill="white" fill-opacity="0.5"/>
<path d="M1565.19 304.794H1569.51V300.075H1565.19V304.794ZM1565.42 331.4H1569.28V309.244H1565.42V331.4Z" fill="white" fill-opacity="0.5"/>
<path d="M1592.78 309.244H1575.21V312.524H1588.02L1574.49 328.704V331.4H1592.74V328.119H1579.57L1592.78 312.165V309.244Z" fill="white" fill-opacity="0.5"/>
<path d="M1633.46 330.546L1628.88 325.288C1630.5 322.861 1631.49 319.85 1631.71 316.479L1627.94 316.12C1627.85 318.412 1627.31 320.569 1626.41 322.412L1620.3 315.401C1623.76 313.378 1626.9 311.041 1626.9 306.952C1626.9 302.907 1623.35 299.761 1618.99 299.761C1614.68 299.761 1610.68 302.547 1610.68 306.997C1610.68 310.277 1613.42 313.243 1614.72 314.637C1610.86 316.794 1607.13 319.356 1607.13 324.164C1607.13 329.018 1611.35 331.805 1616.97 331.805C1620.75 331.805 1624.03 330.411 1626.54 328.074L1630.72 332.928L1633.46 330.546ZM1614.41 307.041C1614.41 304.435 1616.43 302.817 1618.99 302.817C1621.69 302.817 1623.31 304.749 1623.31 306.997C1623.31 309.693 1620.84 311.356 1617.78 313.019C1616.7 311.76 1614.41 309.199 1614.41 307.041ZM1616.88 328.524C1613.24 328.524 1610.9 326.951 1610.9 324.209C1610.9 320.973 1613.82 319.041 1617.15 317.153L1624.3 325.468C1622.41 327.355 1619.94 328.524 1616.88 328.524Z" fill="white" fill-opacity="0.5"/>
<path d="M1660.47 308.839C1657.59 308.839 1655.08 309.873 1653.46 311.985V309.244H1649.59V340.568H1653.46V328.614C1654.94 330.591 1657.5 331.805 1660.47 331.805C1666.63 331.805 1670.18 327.131 1670.18 320.299C1670.18 313.468 1666.58 308.839 1660.47 308.839ZM1659.75 328.389C1655.35 328.389 1653.15 324.928 1653.15 320.299C1653.15 315.491 1655.48 312.21 1659.75 312.21C1663.93 312.21 1666.31 315.356 1666.31 320.299C1666.31 325.108 1664.07 328.389 1659.75 328.389Z" fill="white" fill-opacity="0.5"/>
<path d="M1684.78 331.805C1691.3 331.805 1695.61 326.726 1695.61 320.299C1695.61 313.828 1691.25 308.839 1684.78 308.839C1678.26 308.839 1674.04 313.828 1674.04 320.299C1674.04 326.771 1678.26 331.805 1684.78 331.805ZM1684.78 328.389C1680.29 328.389 1677.9 324.838 1677.9 320.299C1677.9 315.76 1680.24 312.255 1684.78 312.255C1689.32 312.255 1691.75 315.715 1691.75 320.299C1691.75 324.794 1689.32 328.389 1684.78 328.389Z" fill="white" fill-opacity="0.5"/>
<path d="M1705.52 331.805C1706.51 331.805 1707.68 331.535 1708.71 331.175L1708.67 327.984C1708.04 328.164 1707.32 328.344 1706.69 328.344C1705.39 328.344 1704.85 327.535 1704.85 326.187V300.075H1700.98V326.411C1700.98 330.052 1702.83 331.805 1705.52 331.805Z" fill="white" fill-opacity="0.5"/>
<path d="M1717.81 331.805C1718.8 331.805 1719.97 331.535 1721 331.175L1720.96 327.984C1720.33 328.164 1719.61 328.344 1718.98 328.344C1717.68 328.344 1717.14 327.535 1717.14 326.187V300.075H1713.27V326.411C1713.27 330.052 1715.12 331.805 1717.81 331.805Z" fill="white" fill-opacity="0.5"/>
<path fill-rule="evenodd" clip-rule="evenodd" d="M1911.21 0.392578C1893.54 0.392578 1879.21 14.7194 1879.21 32.3926V225.811C1879.21 243.485 1893.54 257.811 1911.21 257.811H2252.42C2270.09 257.811 2284.42 243.485 2284.42 225.811V32.3926C2284.42 14.7195 2270.09 0.392578 2252.42 0.392578H1911.21ZM2139.8 34.7828L2162.44 31.4915L2162.44 31.4917C2164.13 31.2829 2165.82 32.5191 2165.82 34.3654V60.0612C2165.82 63.1437 2163.29 65.8168 2159.69 66.4349C2155.67 67.2619 2151.86 65.2069 2151.23 61.9156C2150.59 58.6243 2153.34 55.3331 2157.36 54.5143C2158.84 54.1049 2160.32 54.3136 2161.59 54.723V40.1292L2141.49 43.0029V63.7543C2141.49 66.8368 2138.95 69.51 2135.36 70.1281C2131.34 70.955 2127.53 68.9 2126.89 65.6087C2126.26 62.3175 2129.01 59.0263 2133.03 58.2075C2134.51 57.7981 2135.99 58.0068 2137.26 58.4162V37.6565C2137.26 36.2197 2138.32 34.9915 2139.8 34.7828ZM2111.14 68.6122C2114.37 57.9438 2108.08 46.7455 2097.1 43.6069C2086.11 40.4681 2074.58 46.577 2071.35 57.2453C2068.12 67.9217 2074.41 79.112 2085.39 82.2506C2096.39 85.3894 2107.91 79.2805 2111.14 68.6122ZM2144.46 96.6309C2145.09 92.9302 2143.4 89.2296 2139.8 87.3834C2137.27 86.1471 2134.3 86.1471 2131.98 87.3834L2126.69 83.4821C2127.32 79.3721 2124.99 75.4709 2120.76 74.4434C2116.32 73.2072 2111.66 75.6796 2110.18 79.9903C2108.91 84.3091 2111.46 88.8284 2115.89 90.2653C2118.01 90.8834 2120.13 90.6747 2121.82 89.8559L2126.69 93.3477C2123.51 99.1034 2119.92 104.859 2117.38 108.142C2116.96 107.733 2116.75 107.323 2116.54 106.906C2112.94 101.768 2107.23 93.9578 2095.16 90.4659L2083.74 87.1746L2072.3 83.8913C2056.85 79.372 2043.52 93.1388 2037.17 99.7132L2036.75 100.123C2030.85 106.049 2024.22 119.963 2022.12 124.365C2021.96 124.697 2021.83 124.975 2021.73 125.192C2019.83 129.51 2021.73 134.648 2026.17 136.494C2027.23 136.903 2028.5 137.313 2029.77 137.313C2033.16 137.313 2036.33 135.467 2037.81 132.175C2040.77 125.601 2046.27 115.117 2049.45 111.834L2049.87 111.425C2050.14 111.165 2050.44 110.864 2050.77 110.533L2050.77 110.533C2052.28 109.034 2054.42 106.905 2056.85 105.051L2045.85 141.013C2045.01 143.687 2044.58 146.56 2044.58 149.442C2044.16 169.583 2043.52 177.594 2043.1 179.03C2041.84 182.321 2032.1 198.352 2023.64 211.3C2020.68 216.028 2021.94 222.193 2026.81 225.067C2028.5 226.094 2030.4 226.712 2032.31 226.712C2035.7 226.712 2039.08 225.067 2040.99 221.984C2048.4 210.473 2061.31 190.341 2062.99 183.967C2063.42 182.53 2064.47 178.62 2064.89 156.224L2065.32 156.634C2073.36 165.062 2081.19 175.747 2081.82 178.62C2081.82 184.147 2080.48 201.005 2079.67 211.119L2079.67 211.155C2079.52 213.056 2079.39 214.718 2079.28 216.019C2078.86 221.566 2083.1 226.294 2088.59 226.703C2094.3 227.113 2099.17 223.003 2099.59 217.665C2099.59 217.328 2099.78 214.952 2100.05 211.494L2100.05 211.488C2100.79 202.238 2102.13 185.253 2102.13 178.829C2102.13 169.991 2093.03 157.87 2085.42 148.822L2097.69 111.423C2099.17 113.069 2100.44 114.714 2101.92 116.769L2101.98 116.846C2104.93 120.946 2108.74 126.233 2115.68 127.454C2116.31 127.662 2117.16 127.662 2118.01 127.662C2122.24 127.662 2129.43 124.789 2140.86 103.82L2144.88 106.694C2145.51 107.103 2146.36 107.513 2147.21 107.513C2148.48 107.513 2149.54 106.895 2150.38 106.076C2151.66 104.43 2151.23 101.966 2149.54 100.73L2144.46 96.6309Z" fill="#7DBFEF"/>
<path d="M1956.86 335.714H1960.86V322.277H1966.26C1972.95 322.277 1976.68 319.086 1976.68 313.243C1976.68 307.491 1973.04 304.39 1966.26 304.39H1956.86V335.714ZM1960.86 318.592V308.075H1965.85C1970.44 308.075 1972.68 309.783 1972.68 313.288C1972.68 316.839 1970.44 318.592 1965.85 318.592H1960.86Z" fill="white" fill-opacity="0.5"/>
<path d="M1998.7 323.805C1998.7 318.412 1995.68 313.154 1988.9 313.154C1982.16 313.154 1978.83 318.636 1978.83 324.749C1978.83 330.906 1982.2 336.119 1989.26 336.119C1992.76 336.119 1995.46 334.995 1997.98 332.299L1995.32 329.917C1993.44 331.939 1991.55 332.568 1989.3 332.568C1985.21 332.568 1982.83 330.007 1982.7 325.782H1998.56C1998.65 325.198 1998.7 324.434 1998.7 323.805ZM1982.7 322.636C1982.97 319.311 1985.08 316.389 1988.85 316.389C1992.58 316.389 1994.83 318.816 1994.97 322.232C1994.97 322.412 1994.97 322.546 1995.01 322.636H1982.7Z" fill="white" fill-opacity="0.5"/>
<path d="M2014.62 313.154C2012.28 313.154 2009.63 314.187 2008.24 317.019V313.558H2004.37V335.714H2008.24V323.76C2008.24 319.176 2010.44 316.794 2013.81 316.794C2014.8 316.794 2015.74 317.019 2016.69 317.468L2018.57 314.232C2017.27 313.468 2016.01 313.154 2014.62 313.154Z" fill="white" fill-opacity="0.5"/>
<path d="M2024.94 335.714H2028.81V316.704H2034.79V313.558H2028.81V310.277C2028.81 308.614 2029.53 307.221 2031.33 307.221C2032.09 307.221 2032.85 307.491 2033.66 307.895L2034.97 304.884C2033.62 304.3 2032.31 303.985 2030.92 303.985C2027.87 303.985 2024.99 305.423 2024.99 310.457V313.558H2020.4V316.704H2024.94V335.714Z" fill="white" fill-opacity="0.5"/>
<path d="M2047.06 336.119C2053.58 336.119 2057.89 331.04 2057.89 324.614C2057.89 318.142 2053.53 313.154 2047.06 313.154C2040.55 313.154 2036.32 318.142 2036.32 324.614C2036.32 331.085 2040.55 336.119 2047.06 336.119ZM2047.06 332.703C2042.57 332.703 2040.19 329.153 2040.19 324.614C2040.19 320.075 2042.52 316.569 2047.06 316.569C2051.6 316.569 2054.03 320.03 2054.03 324.614C2054.03 329.108 2051.6 332.703 2047.06 332.703Z" fill="white" fill-opacity="0.5"/>
<path d="M2073.69 313.154C2071.36 313.154 2068.71 314.187 2067.31 317.019V313.558H2063.45V335.714H2067.31V323.76C2067.31 319.176 2069.51 316.794 2072.88 316.794C2073.87 316.794 2074.82 317.019 2075.76 317.468L2077.65 314.232C2076.35 313.468 2075.09 313.154 2073.69 313.154Z" fill="white" fill-opacity="0.5"/>
<path d="M2105.12 313.154C2101.93 313.154 2099.41 314.457 2097.89 317.468C2096.67 314.367 2094.25 313.154 2091.37 313.154C2088.99 313.154 2086.74 314.007 2085.35 316.299V313.558H2081.57L2081.62 335.714H2085.48V325.782C2085.48 320.973 2086.25 316.569 2090.65 316.569C2094.38 316.569 2095.23 319.985 2095.23 322.996V335.714H2099.1V325.782C2099.1 320.973 2099.82 316.569 2104.36 316.569C2108.76 316.569 2108.85 321.063 2108.85 322.906V335.714H2112.72V321.782C2112.72 316.839 2110.42 313.154 2105.12 313.154Z" fill="white" fill-opacity="0.5"/>
<path d="M2127.71 313.154C2123.85 313.154 2120.84 314.637 2118.36 317.783L2121.15 320.12C2122.9 317.783 2125.02 316.569 2127.62 316.569C2130.99 316.569 2132.88 318.457 2132.88 321.872V322.771H2127.98C2124.25 322.771 2122.05 323.131 2120.39 324.029C2118.59 325.018 2117.6 326.816 2117.6 329.153C2117.6 333.422 2120.61 336.119 2125.37 336.119C2128.7 336.119 2131.35 334.771 2132.93 332.389L2133.19 335.714H2136.75V321.872C2136.75 316.389 2133.37 313.154 2127.71 313.154ZM2126.27 332.883C2123.31 332.883 2121.46 331.49 2121.46 329.333C2121.46 328.209 2121.87 327.355 2122.59 326.771C2123.53 326.052 2125.06 325.782 2128.43 325.782H2132.88V326.007C2132.88 330.097 2130.18 332.883 2126.27 332.883Z" fill="white" fill-opacity="0.5"/>
<path d="M2154.64 313.154C2151.63 313.154 2149.02 314.412 2147.54 316.569V313.558H2143.68V335.714H2147.54V326.142C2147.54 320.659 2149.16 316.569 2153.61 316.569C2157.2 316.569 2158.24 319.176 2158.24 322.861V335.714H2162.1V321.917C2162.1 316.21 2159.49 313.154 2154.64 313.154Z" fill="white" fill-opacity="0.5"/>
<path d="M2177.53 336.119C2181.67 336.119 2184.95 333.872 2186.43 329.827L2182.88 328.479C2182.12 331.13 2180.1 332.703 2177.49 332.703C2173.09 332.703 2171.2 328.883 2171.2 324.704C2171.2 320.524 2173.09 316.569 2177.49 316.569C2180.05 316.569 2182.07 318.187 2182.97 320.884L2186.66 319.4C2184.91 315.176 2181.58 313.154 2177.49 313.154C2170.61 313.154 2167.24 318.861 2167.24 324.704C2167.24 330.771 2170.84 336.119 2177.53 336.119Z" fill="white" fill-opacity="0.5"/>
<path d="M2209.58 323.805C2209.58 318.412 2206.57 313.154 2199.78 313.154C2193.04 313.154 2189.72 318.636 2189.72 324.749C2189.72 330.906 2193.09 336.119 2200.14 336.119C2203.65 336.119 2206.34 334.995 2208.86 332.299L2206.21 329.917C2204.32 331.939 2202.43 332.568 2200.19 332.568C2196.1 332.568 2193.72 330.007 2193.58 325.782H2209.45C2209.54 325.198 2209.58 324.434 2209.58 323.805ZM2193.58 322.636C2193.85 319.311 2195.96 316.389 2199.74 316.389C2203.47 316.389 2205.72 318.816 2205.85 322.232C2205.85 322.412 2205.85 322.546 2205.9 322.636H2193.58Z" fill="white" fill-opacity="0.5"/>
<path fill-rule="evenodd" clip-rule="evenodd" d="M2381.42 0.392578C2363.74 0.392578 2349.42 14.7194 2349.42 32.3926V225.811C2349.42 243.485 2363.74 257.811 2381.42 257.811H2722.62C2740.29 257.811 2754.62 243.485 2754.62 225.811V32.3926C2754.62 14.7195 2740.29 0.392578 2722.62 0.392578H2381.42ZM2569.01 79.0564C2566.4 71.4556 2555.43 71.2039 2552.45 78.6767L2550.03 84.7559H2570.97L2569.01 79.0564ZM2522.58 84.7559H2545.32L2548.35 77.1353C2552.81 65.9262 2569.27 66.3037 2573.19 77.7048L2575.61 84.7559H2587.9C2593.07 84.7559 2597.26 88.822 2597.26 93.8379C2597.26 98.8538 2593.07 102.92 2587.9 102.92H2581.84L2590.44 127.981C2590.66 128.615 2590.95 129.223 2591.32 129.791L2602.18 146.758C2605.9 152.583 2614.73 151.942 2617.62 145.873C2615.69 144.209 2614.47 141.778 2614.47 139.07C2614.47 134.054 2618.65 129.988 2623.82 129.988H2623.85L2624.72 127.771C2628.52 118.04 2642.04 116.529 2648.02 125.168L2651.35 129.988H2689.14C2694.31 129.988 2698.5 134.054 2698.5 139.07C2698.5 144.086 2694.31 148.152 2689.14 148.152H2663.92L2676.41 166.213C2678.05 168.576 2680.79 169.994 2683.72 169.994H2738.6V174.268H2683.72C2679.32 174.268 2675.21 172.141 2672.76 168.596L2658.62 148.152H2623.82C2623.02 148.152 2622.25 148.056 2621.52 147.875C2617.08 156.803 2603.99 157.691 2598.44 149.014L2587.58 132.047C2587.03 131.195 2586.59 130.284 2586.27 129.333L2577.2 102.92H2542.8L2538.99 112.503C2535.96 120.101 2526.45 122.983 2519.45 118.609C2518.02 117.72 2516.35 117.238 2514.67 117.238H2507.32C2505.45 117.238 2503.63 117.818 2502.12 118.893L2463.3 146.543C2461.34 147.936 2460.06 150.052 2459.77 152.39L2458.87 159.486H2497.8C2502.96 159.486 2507.15 163.553 2507.15 168.568C2507.15 173.584 2502.96 177.65 2497.8 177.65H2456.56L2455.36 187.09C2453.8 199.402 2436.94 202.597 2430.73 191.76L2413.33 161.421C2409.79 155.258 2400.53 155.671 2397.59 162.122L2383.23 193.643L2379.21 191.914L2393.57 160.393C2397.97 150.716 2411.87 150.096 2417.17 159.341L2423.22 169.888C2423.16 169.457 2423.12 169.017 2423.12 168.568C2423.12 163.553 2427.31 159.486 2432.47 159.486H2454.43L2455.4 151.867C2455.84 148.36 2457.76 145.187 2460.7 143.097L2499.52 115.447C2501.78 113.834 2504.52 112.964 2507.32 112.964H2514.67C2517.2 112.964 2519.7 113.687 2521.83 115.014C2526.54 117.956 2532.88 115.982 2534.88 110.962L2538.08 102.92H2522.58C2517.41 102.92 2513.23 98.8538 2513.23 93.8379C2513.23 88.822 2517.41 84.7559 2522.58 84.7559ZM2646.05 129.988H2628.56L2628.83 129.287C2631.37 122.8 2640.38 121.792 2644.37 127.552L2646.05 129.988ZM2432.47 177.65H2452.13L2450.99 186.568C2449.95 194.775 2438.71 196.905 2434.57 189.681L2426.45 175.512C2428.07 176.846 2430.18 177.65 2432.47 177.65Z" fill="#7DBFEF"/>
<path d="M2419.67 335.512H2423.67V322.074H2429.07C2435.76 322.074 2439.49 318.884 2439.49 313.041C2439.49 307.288 2435.85 304.188 2429.07 304.188H2419.67V335.512ZM2423.67 318.389V307.873H2428.66C2433.25 307.873 2435.49 309.581 2435.49 313.086C2435.49 316.636 2433.25 318.389 2428.66 318.389H2423.67Z" fill="white" fill-opacity="0.5"/>
<path d="M2454.74 312.951C2452.4 312.951 2449.75 313.985 2448.36 316.816V313.356H2444.49V335.512H2448.36V323.558C2448.36 318.973 2450.56 316.591 2453.93 316.591C2454.92 316.591 2455.86 316.816 2456.81 317.266L2458.69 314.03C2457.39 313.266 2456.13 312.951 2454.74 312.951Z" fill="white" fill-opacity="0.5"/>
<path d="M2470.71 312.951C2466.84 312.951 2463.83 314.434 2461.36 317.58L2464.14 319.917C2465.9 317.58 2468.01 316.367 2470.62 316.367C2473.99 316.367 2475.87 318.254 2475.87 321.67V322.569H2470.97C2467.24 322.569 2465.04 322.928 2463.38 323.827C2461.58 324.816 2460.59 326.614 2460.59 328.951C2460.59 333.22 2463.6 335.917 2468.37 335.917C2471.69 335.917 2474.35 334.568 2475.92 332.186L2476.19 335.512H2479.74V321.67C2479.74 316.187 2476.37 312.951 2470.71 312.951ZM2469.27 332.681C2466.3 332.681 2464.46 331.288 2464.46 329.13C2464.46 328.007 2464.86 327.153 2465.58 326.569C2466.53 325.85 2468.05 325.58 2471.42 325.58H2475.87V325.805C2475.87 329.894 2473.18 332.681 2469.27 332.681Z" fill="white" fill-opacity="0.5"/>
<path d="M2495.03 335.917C2499.16 335.917 2502.44 333.669 2503.93 329.625L2500.38 328.276C2499.61 330.928 2497.59 332.501 2494.98 332.501C2490.58 332.501 2488.69 328.681 2488.69 324.501C2488.69 320.322 2490.58 316.367 2494.98 316.367C2497.55 316.367 2499.57 317.985 2500.47 320.681L2504.15 319.198C2502.4 314.974 2499.07 312.951 2494.98 312.951C2488.11 312.951 2484.74 318.659 2484.74 324.501C2484.74 330.568 2488.33 335.917 2495.03 335.917Z" fill="white" fill-opacity="0.5"/>
<path d="M2519.29 316.502V313.356H2513.86V305.221L2509.99 308.097V313.356H2506.35V316.502H2509.99V329.984C2509.99 334.164 2512.51 335.917 2515.7 335.917C2516.87 335.917 2518.08 335.692 2519.29 335.287V332.007C2518.31 332.321 2517.41 332.501 2516.64 332.501C2514.89 332.501 2513.86 331.602 2513.86 329.58V316.502H2519.29Z" fill="white" fill-opacity="0.5"/>
<path d="M2524.58 308.906H2528.9V304.188H2524.58V308.906ZM2524.81 335.512H2528.67V313.356H2524.81V335.512Z" fill="white" fill-opacity="0.5"/>
<path d="M2544.62 335.917C2548.76 335.917 2552.04 333.669 2553.52 329.625L2549.97 328.276C2549.21 330.928 2547.18 332.501 2544.58 332.501C2540.17 332.501 2538.29 328.681 2538.29 324.501C2538.29 320.322 2540.17 316.367 2544.58 316.367C2547.14 316.367 2549.16 317.985 2550.06 320.681L2553.75 319.198C2551.99 314.974 2548.67 312.951 2544.58 312.951C2537.7 312.951 2534.33 318.659 2534.33 324.501C2534.33 330.568 2537.93 335.917 2544.62 335.917Z" fill="white" fill-opacity="0.5"/>
<path d="M2576.67 323.602C2576.67 318.209 2573.66 312.951 2566.87 312.951C2560.13 312.951 2556.8 318.434 2556.8 324.546C2556.8 330.703 2560.18 335.917 2567.23 335.917C2570.74 335.917 2573.43 334.793 2575.95 332.097L2573.3 329.715C2571.41 331.737 2569.52 332.366 2567.28 332.366C2563.19 332.366 2560.8 329.804 2560.67 325.58H2576.53C2576.62 324.996 2576.67 324.232 2576.67 323.602ZM2560.67 322.434C2560.94 319.108 2563.05 316.187 2566.83 316.187C2570.56 316.187 2572.8 318.614 2572.94 322.029C2572.94 322.209 2572.94 322.344 2572.98 322.434H2560.67Z" fill="white" fill-opacity="0.5"/>
<path d="M2604.22 316.502V313.356H2598.78V305.221L2594.92 308.097V313.356H2591.28V316.502H2594.92V329.984C2594.92 334.164 2597.43 335.917 2600.62 335.917C2601.79 335.917 2603.01 335.692 2604.22 335.287V332.007C2603.23 332.321 2602.33 332.501 2601.57 332.501C2599.81 332.501 2598.78 331.602 2598.78 329.58V316.502H2604.22Z" fill="white" fill-opacity="0.5"/>
<path d="M2618.32 335.917C2624.84 335.917 2629.15 330.838 2629.15 324.411C2629.15 317.94 2624.79 312.951 2618.32 312.951C2611.81 312.951 2607.58 317.94 2607.58 324.411C2607.58 330.883 2611.81 335.917 2618.32 335.917ZM2618.32 332.501C2613.83 332.501 2611.45 328.951 2611.45 324.411C2611.45 319.872 2613.78 316.367 2618.32 316.367C2622.86 316.367 2625.29 319.827 2625.29 324.411C2625.29 328.906 2622.86 332.501 2618.32 332.501Z" fill="white" fill-opacity="0.5"/>
<path d="M2643.51 335.917C2650.03 335.917 2654.35 330.838 2654.35 324.411C2654.35 317.94 2649.99 312.951 2643.51 312.951C2637 312.951 2632.77 317.94 2632.77 324.411C2632.77 330.883 2637 335.917 2643.51 335.917ZM2643.51 332.501C2639.02 332.501 2636.64 328.951 2636.64 324.411C2636.64 319.872 2638.97 316.367 2643.51 316.367C2648.05 316.367 2650.48 319.827 2650.48 324.411C2650.48 328.906 2648.05 332.501 2643.51 332.501Z" fill="white" fill-opacity="0.5"/>
<path d="M2664.26 335.917C2665.25 335.917 2666.41 335.647 2667.45 335.287L2667.4 332.097C2666.77 332.276 2666.05 332.456 2665.43 332.456C2664.12 332.456 2663.58 331.647 2663.58 330.299V304.188H2659.72V330.524C2659.72 334.164 2661.56 335.917 2664.26 335.917Z" fill="white" fill-opacity="0.5"/>
<path d="M2678.97 335.917C2683.2 335.917 2687.15 333.669 2687.15 328.951C2687.15 320.636 2674.75 323.513 2674.75 318.884C2674.75 317.266 2676.28 316.232 2678.7 316.232C2681.31 316.232 2682.88 317.535 2683.87 319.333L2686.93 317.67C2685.35 314.569 2682.43 312.951 2678.79 312.951C2674.43 312.951 2671.02 315.288 2671.02 319.288C2671.02 327.288 2683.33 324.007 2683.33 329.175C2683.33 331.108 2681.71 332.591 2678.84 332.591C2675.56 332.591 2673.71 330.613 2673 328.546L2669.8 329.984C2670.97 333.445 2674.52 335.917 2678.97 335.917Z" fill="white" fill-opacity="0.5"/>
<path fill-rule="evenodd" clip-rule="evenodd" d="M2851.62 0.392578C2833.95 0.392578 2819.62 14.7194 2819.62 32.3926V225.811C2819.62 243.485 2833.95 257.811 2851.62 257.811H3192.83C3210.5 257.811 3224.83 243.485 3224.83 225.811V32.3926C3224.83 14.7195 3210.5 0.392578 3192.83 0.392578H2851.62ZM3009.48 85.8726C2998.95 90.5845 2987.75 89.4429 2979.73 82.949L2979.73 82.947C2968.19 73.6946 2954.82 68.1774 2943.29 68.0124C2918.04 68.1783 2897.48 94.9575 2897.48 127.758C2897.49 160.882 2917.87 187.504 2943.29 187.504C2954.65 187.511 2968.19 182.152 2979.56 172.735C2987.58 166.234 2998.95 165.264 3009.31 169.811C3012.83 171.27 3016.66 172.081 3020.35 172.081C3035.05 172.082 3047.59 159.576 3052.27 142.371L3117.29 142.205L3117.79 142.694L3120.46 144.311C3121.8 145.287 3123.31 145.776 3124.64 146.099L3124.64 151.617L3123.14 153.405C3122.98 153.563 3122.98 153.563 3122.98 153.893L3122.98 157.47C3123.14 157.958 3123.48 158.282 3123.81 158.282L3129.65 158.117C3130.15 157.958 3130.49 157.635 3130.49 157.305V153.728C3130.66 153.563 3130.49 153.405 3130.32 153.24L3128.82 151.452L3128.82 146.581L3135.85 146.581V151.452L3134.35 153.24C3134.18 153.398 3134.18 153.398 3134.18 153.728V157.305C3134.35 157.793 3134.68 158.117 3135.02 158.117L3141.37 158.117C3141.87 157.958 3142.2 157.635 3142.2 157.305L3142.03 153.9C3142.2 153.735 3142.03 153.576 3141.86 153.411L3140.36 151.623L3139.84 146.594H3146.87L3146.87 151.464L3145.37 153.253C3145.21 153.411 3145.21 153.411 3145.21 153.741V157.318C3145.37 157.806 3145.7 158.13 3146.04 158.13L3152.39 158.13C3152.89 157.971 3153.22 157.648 3153.22 157.318V153.741C3153.39 153.576 3153.23 153.418 3153.06 153.253L3151.56 151.464L3151.73 146.429C3155.9 145.941 3159.08 142.535 3159.08 138.312V117.207C3159.08 112.983 3155.91 109.571 3151.73 109.089L3152.76 103.902L3154.26 102.113C3154.33 102.047 3154.37 102.008 3154.39 101.961C3154.43 101.897 3154.43 101.816 3154.43 101.625V98.0483C3154.26 97.56 3153.93 97.2366 3153.59 97.2366L3147.24 97.2366C3146.74 97.3951 3146.41 97.7186 3146.41 98.0483V101.625C3146.24 101.79 3146.4 101.949 3146.57 102.113L3148.07 103.902V108.772H3141.05V103.902L3142.55 102.113C3142.71 101.955 3142.71 101.955 3142.71 101.625V98.0483C3142.55 97.56 3142.21 97.2366 3141.88 97.2366L3135.53 97.2366C3135.03 97.3951 3134.69 97.7185 3134.69 98.0483V101.625C3134.52 101.79 3134.69 101.949 3134.86 102.113L3136.36 103.902L3136.36 108.772L3129.33 108.772V103.902L3130.83 102.113C3130.9 102.047 3130.94 102.008 3130.97 101.961C3131 101.897 3131 101.816 3131 101.625V98.0483C3130.83 97.56 3130.5 97.2366 3130.16 97.2366L3123.81 97.2366C3123.31 97.3951 3122.98 97.7185 3122.98 98.0483V101.625C3122.81 101.79 3122.97 101.949 3123.14 102.113L3124.64 103.902V109.419C3123.14 109.907 3121.64 110.396 3120.46 111.207L3117.62 112.989L3117.29 113.313H3052.44C3047.93 95.9433 3035.22 83.6023 3020.52 83.6023C3016.67 83.4374 3013 84.414 3009.48 85.8726ZM3150.06 117.853L3150.06 137.981L3128 137.981C3127 137.981 3125.99 137.652 3125.15 137.17L3122.31 135.388C3121.48 134.906 3120.98 133.771 3120.98 132.794L3121.3 123.041C3121.14 121.905 3121.8 120.929 3122.64 120.447L3125.48 118.665C3126.32 118.176 3127.32 117.853 3128.33 117.853L3150.06 117.853ZM3112.03 133.184C3112.07 133.308 3112.11 133.432 3112.11 133.6L3053.94 133.593C3054.28 131.646 3054.28 129.706 3054.28 127.753V127.752C3054.28 125.812 3054.28 123.859 3053.94 121.912L3112.11 121.906C3111.95 122.07 3111.95 122.388 3111.95 122.717V132.788C3111.95 132.946 3111.99 133.065 3112.03 133.184ZM2943.29 178.739C2922.89 178.734 2906.34 155.846 2906.5 127.758V127.757C2906.34 99.6701 2922.89 76.7823 2943.29 76.7759C2952.65 76.7763 2964.02 81.6535 2973.88 89.6059C2984.41 98.2123 2999.45 99.8357 3012.99 93.8302C3015.49 92.6951 3018 92.2067 3020.34 92.2067C3034.05 92.1993 3045.07 108.111 3045.24 127.757C3045.41 147.404 3034.05 163.308 3020.34 163.308C3017.66 163.308 3015.33 162.661 3012.99 161.685C2999.62 155.522 2984.57 157.145 2973.88 165.909C2964.18 174.034 2952.65 178.739 2943.29 178.739ZM3013.38 127.707C3013.39 118.455 3005.66 110.946 2996.12 110.946C2986.6 110.953 2978.87 118.455 2978.87 127.707C2978.87 136.966 2986.6 144.475 2996.12 144.468C3005.66 144.468 3013.38 136.966 3013.38 127.707ZM2945.62 148.212V107.307L2945.62 107.307C2945.45 104.865 2943.45 102.918 2941.11 102.912C2938.6 103.077 2936.59 105.024 2936.59 107.294V148.212C2936.76 150.647 2938.77 152.594 2941.11 152.594C2943.61 152.429 2945.62 150.482 2945.62 148.212Z" fill="#7DBFEF"/>
<path d="M2905.74 335.512H2909.74V304.188H2905.74V335.512Z" fill="white" fill-opacity="0.5"/>
<path d="M2929.24 312.951C2926.23 312.951 2923.62 314.21 2922.14 316.367V313.356H2918.27V335.512H2922.14V325.939C2922.14 320.457 2923.76 316.367 2928.21 316.367C2931.8 316.367 2932.84 318.973 2932.84 322.659V335.512H2936.7V321.715C2936.7 316.007 2934.09 312.951 2929.24 312.951Z" fill="white" fill-opacity="0.5"/>
<path d="M2950.52 335.917C2954.74 335.917 2958.7 333.669 2958.7 328.951C2958.7 320.636 2946.29 323.513 2946.29 318.884C2946.29 317.266 2947.82 316.232 2950.25 316.232C2952.85 316.232 2954.43 317.535 2955.41 319.333L2958.47 317.67C2956.9 314.569 2953.98 312.951 2950.34 312.951C2945.98 312.951 2942.56 315.288 2942.56 319.288C2942.56 327.288 2954.88 324.007 2954.88 329.175C2954.88 331.108 2953.26 332.591 2950.38 332.591C2947.1 332.591 2945.26 330.613 2944.54 328.546L2941.35 329.984C2942.52 333.445 2946.07 335.917 2950.52 335.917Z" fill="white" fill-opacity="0.5"/>
<path d="M2974.47 316.502V313.356H2969.03V305.221L2965.17 308.097V313.356H2961.52V316.502H2965.17V329.984C2965.17 334.164 2967.68 335.917 2970.87 335.917C2972.04 335.917 2973.25 335.692 2974.47 335.287V332.007C2973.48 332.321 2972.58 332.501 2971.82 332.501C2970.06 332.501 2969.03 331.602 2969.03 329.58V316.502H2974.47Z" fill="white" fill-opacity="0.5"/>
<path d="M2989.83 312.951C2987.5 312.951 2984.84 313.985 2983.45 316.816V313.356H2979.59V335.512H2983.45V323.558C2983.45 318.973 2985.65 316.591 2989.02 316.591C2990.01 316.591 2990.96 316.816 2991.9 317.266L2993.79 314.03C2992.49 313.266 2991.23 312.951 2989.83 312.951Z" fill="white" fill-opacity="0.5"/>
<path d="M3011.91 313.356V322.973C3011.91 328.097 3010.43 332.501 3005.8 332.501C3001.62 332.501 3001.21 328.951 3001.21 326.074V313.356H2997.35V327.018C2997.35 332.231 2999.6 335.917 3004.81 335.917C3007.6 335.917 3010.34 334.838 3011.91 332.501V335.512H3015.78V313.356H3011.91Z" fill="white" fill-opacity="0.5"/>
<path d="M3046.85 312.951C3043.66 312.951 3041.14 314.255 3039.61 317.266C3038.4 314.165 3035.97 312.951 3033.1 312.951C3030.71 312.951 3028.47 313.805 3027.07 316.097V313.356H3023.3L3023.34 335.512H3027.21V325.58C3027.21 320.771 3027.97 316.367 3032.38 316.367C3036.11 316.367 3036.96 319.782 3036.96 322.793V335.512H3040.83V325.58C3040.83 320.771 3041.55 316.367 3046.08 316.367C3050.49 316.367 3050.58 320.861 3050.58 322.704V335.512H3054.44V321.58C3054.44 316.636 3052.15 312.951 3046.85 312.951Z" fill="white" fill-opacity="0.5"/>
<path d="M3079.51 323.602C3079.51 318.209 3076.49 312.951 3069.71 312.951C3062.97 312.951 3059.64 318.434 3059.64 324.546C3059.64 330.703 3063.01 335.917 3070.07 335.917C3073.57 335.917 3076.27 334.793 3078.79 332.097L3076.14 329.715C3074.25 331.737 3072.36 332.366 3070.11 332.366C3066.02 332.366 3063.64 329.804 3063.51 325.58H3079.37C3079.46 324.996 3079.51 324.232 3079.51 323.602ZM3063.51 322.434C3063.78 319.108 3065.89 316.187 3069.66 316.187C3073.39 316.187 3075.64 318.614 3075.78 322.029C3075.78 322.209 3075.78 322.344 3075.82 322.434H3063.51Z" fill="white" fill-opacity="0.5"/>
<path d="M3096.15 312.951C3093.14 312.951 3090.53 314.21 3089.05 316.367V313.356H3085.18V335.512H3089.05V325.939C3089.05 320.457 3090.67 316.367 3095.12 316.367C3098.71 316.367 3099.74 318.973 3099.74 322.659V335.512H3103.61V321.715C3103.61 316.007 3101 312.951 3096.15 312.951Z" fill="white" fill-opacity="0.5"/>
<path d="M3120.71 316.502V313.356H3115.27V305.221L3111.4 308.097V313.356H3107.76V316.502H3111.4V329.984C3111.4 334.164 3113.92 335.917 3117.11 335.917C3118.28 335.917 3119.49 335.692 3120.71 335.287V332.007C3119.72 332.321 3118.82 332.501 3118.05 332.501C3116.3 332.501 3115.27 331.602 3115.27 329.58V316.502H3120.71Z" fill="white" fill-opacity="0.5"/>
<path d="M3133.31 335.917C3137.54 335.917 3141.49 333.669 3141.49 328.951C3141.49 320.636 3129.09 323.513 3129.09 318.884C3129.09 317.266 3130.62 316.232 3133.04 316.232C3135.65 316.232 3137.22 317.535 3138.21 319.333L3141.27 317.67C3139.69 314.569 3136.77 312.951 3133.13 312.951C3128.77 312.951 3125.36 315.288 3125.36 319.288C3125.36 327.288 3137.67 324.007 3137.67 329.175C3137.67 331.108 3136.05 332.591 3133.18 332.591C3129.9 332.591 3128.05 330.613 3127.34 328.546L3124.14 329.984C3125.31 333.445 3128.86 335.917 3133.31 335.917Z" fill="white" fill-opacity="0.5"/>
<g opacity="0.5">
<path d="M596.842 338.761C603.178 338.761 607.006 335.285 607.006 329.961C607.006 325.649 604.982 323.229 598.25 320.677C593.498 318.829 591.562 317.465 591.562 314.913C591.562 312.537 593.674 310.601 596.534 310.601C598.998 310.601 601.066 311.965 602.298 314.297L605.598 312.273C603.706 308.885 600.626 307.081 596.666 307.081C591.298 307.081 587.646 310.293 587.646 315.045C587.646 319.181 589.846 321.425 596.138 323.845C601.242 325.825 603.046 327.409 603.046 330.313C603.046 333.173 600.89 335.241 596.886 335.241C592.97 335.241 590.154 332.909 589.626 329.037L585.754 330.005C586.59 335.285 591.034 338.761 596.842 338.761Z" fill="white"/>
<path d="M622.712 316.189C619.896 316.189 617.431 317.201 615.847 319.269V316.585H612.064V347.253H615.847V335.549C617.299 337.485 619.808 338.673 622.712 338.673C628.74 338.673 632.216 334.097 632.216 327.409C632.216 320.721 628.696 316.189 622.712 316.189ZM622.008 335.329C617.696 335.329 615.54 331.941 615.54 327.409C615.54 322.701 617.828 319.489 622.008 319.489C626.1 319.489 628.432 322.569 628.432 327.409C628.432 332.117 626.232 335.329 622.008 335.329Z" fill="white"/>
<path d="M646.952 338.673C653.332 338.673 657.556 333.701 657.556 327.409C657.556 321.073 653.288 316.189 646.952 316.189C640.572 316.189 636.436 321.073 636.436 327.409C636.436 333.745 640.572 338.673 646.952 338.673ZM646.952 335.329C642.552 335.329 640.22 331.853 640.22 327.409C640.22 322.965 642.508 319.533 646.952 319.533C651.396 319.533 653.772 322.921 653.772 327.409C653.772 331.809 651.396 335.329 646.952 335.329Z" fill="white"/>
<path d="M673.116 319.665V316.585H667.792V308.621L664.008 311.437V316.585H660.444V319.665H664.008V332.865C664.008 336.957 666.472 338.673 669.596 338.673C670.74 338.673 671.928 338.453 673.116 338.057V334.845C672.148 335.153 671.268 335.329 670.52 335.329C668.804 335.329 667.792 334.449 667.792 332.469V319.665H673.116Z" fill="white"/>
<path d="M682.878 338.673C683.846 338.673 684.99 338.409 686.002 338.057L685.958 334.933C685.342 335.109 684.638 335.285 684.022 335.285C682.746 335.285 682.218 334.493 682.218 333.173V307.609H678.434V333.393C678.434 336.957 680.238 338.673 682.878 338.673Z" fill="white"/>
<path d="M690.861 312.229H695.085V307.609H690.861V312.229ZM691.081 338.277H694.865V316.585H691.081V338.277Z" fill="white"/>
<path d="M710.437 335.417C707.445 334.977 704.893 334.493 704.893 332.469C704.893 331.677 705.289 331.061 706.081 330.621C707.313 331.281 708.809 331.633 710.437 331.633C715.057 331.633 718.841 328.641 718.841 324.065C718.841 322.569 718.445 321.205 717.741 320.061L720.733 317.597L718.753 315.177L715.673 317.817C714.221 316.805 712.417 316.189 710.349 316.189C705.641 316.189 701.857 319.357 701.857 323.889C701.857 325.781 702.517 327.497 703.705 328.817C702.253 329.873 701.461 331.193 701.461 333.041C701.461 335.241 702.605 336.517 704.233 337.309L700.801 339.905C700.757 340.169 700.713 340.433 700.713 340.873C700.713 345.273 704.409 347.649 710.569 347.649C716.157 347.649 720.073 345.713 720.073 341.489C720.073 336.605 714.793 336.033 710.437 335.417ZM710.393 319.357C713.253 319.357 715.057 321.249 715.057 323.977C715.057 326.573 713.341 328.553 710.393 328.553C707.401 328.553 705.641 326.529 705.641 323.977C705.641 321.249 707.621 319.357 710.393 319.357ZM710.745 344.613C707.445 344.613 704.453 343.777 704.453 341.093C704.453 341.005 704.453 340.917 704.497 340.741L707.093 338.233C707.929 338.409 708.809 338.541 709.645 338.673C713.077 339.201 716.289 339.509 716.289 341.841C716.289 343.733 714.045 344.613 710.745 344.613Z" fill="white"/>
<path d="M736.73 316.189C733.694 316.189 731.186 317.421 729.734 319.533V307.609H725.95V338.277H729.734V328.729C729.734 322.657 731.802 319.533 735.718 319.533C738.798 319.533 740.206 321.469 740.206 325.693V338.277H743.99V324.769C743.99 319.181 741.438 316.189 736.73 316.189Z" fill="white"/>
<path d="M761.167 319.665V316.585H755.843V308.621L752.059 311.437V316.585H748.495V319.665H752.059V332.865C752.059 336.957 754.523 338.673 757.647 338.673C758.791 338.673 759.979 338.453 761.167 338.057V334.845C760.199 335.153 759.319 335.329 758.571 335.329C756.855 335.329 755.843 334.449 755.843 332.469V319.665H761.167Z" fill="white"/>
</g>
<path fill-rule="evenodd" clip-rule="evenodd" d="M502.308 0.392578C484.635 0.392578 470.308 14.7197 470.308 32.3926V225.812C470.308 243.484 484.635 257.812 502.308 257.812H843.513C861.186 257.812 875.513 243.484 875.513 225.812V32.3926C875.513 14.7197 861.186 0.392578 843.513 0.392578H502.308ZM657.31 32.79H689.511L736.407 207.476C736.407 215.23 708.188 221.589 673.409 221.589C638.631 221.589 610.412 215.223 610.412 207.476L657.31 32.79ZM686.926 121.43C686.926 113.876 680.964 107.914 673.41 107.914C666.059 107.914 659.895 113.876 659.895 121.43C659.895 128.983 666.059 134.945 673.41 134.945C680.964 134.945 686.926 128.983 686.926 121.43ZM685.133 167.729C687.322 167.528 689.503 167.132 691.692 166.736C693.284 166.541 694.277 165.151 693.874 163.754L692.484 152.031C691.49 144.68 685.334 139.315 678.177 139.315H668.24C660.889 139.315 654.725 144.874 653.933 152.031L652.543 163.754C652.543 165.151 653.335 166.541 654.926 166.937L654.94 166.939C657.125 167.335 659.302 167.729 661.486 167.931L663.271 194.955C663.271 197.136 665.057 198.728 667.246 198.728H679.566C681.554 198.728 683.339 197.144 683.541 194.955L685.133 167.729Z" fill="#7DBFEF"/>
</svg>
