<svg width="407" height="258" viewBox="0 0 407 258" fill="none" xmlns="http://www.w3.org/2000/svg">
<path fill-rule="evenodd" clip-rule="evenodd" d="M220.428 32.4004H188.228L141.328 207.1C141.328 214.9 169.528 221.2 204.328 221.2C239.128 221.2 267.328 214.8 267.328 207.1L220.428 32.4004ZM204.328 107.5C211.928 107.5 217.828 113.5 217.828 121C217.828 128.5 211.828 134.5 204.328 134.5C197.028 134.5 190.828 128.5 190.828 121C190.828 113.5 197.028 107.5 204.328 107.5ZM222.628 166.3C220.428 166.7 218.228 167.1 216.028 167.3L214.428 194.5C214.228 196.7 212.428 198.3 210.428 198.3H198.128C195.928 198.3 194.128 196.7 194.128 194.5L192.328 167.5C190.128 167.3 187.928 166.9 185.828 166.5C184.228 166.1 183.428 164.7 183.428 163.3L184.828 151.6C185.628 144.4 191.828 138.9 199.128 138.9H209.028C216.228 138.9 222.328 144.3 223.328 151.6L224.728 163.3C225.228 164.8 224.228 166.1 222.628 166.3Z" fill="white"/>
</svg>
