<svg width="406" height="258" viewBox="0 0 406 258" fill="none" xmlns="http://www.w3.org/2000/svg">
<path fill-rule="evenodd" clip-rule="evenodd" d="M263.7 59.4004H144.3C126.6 59.4004 112.3 73.7004 112.3 91.4004V208L120 197C126 188.4 135.8 183.3 146.3 183.3H169.3C169.7 181.9 170.2 180.6 171 179.3L192.8 143.4C198.5 134 212.2 134 217.9 143.4L239.7 179.3C240.5 180.6 241.1 182 241.4 183.3H263.8C281.5 183.3 295.8 169 295.8 151.3V91.4004C295.7 73.7004 281.4 59.4004 263.7 59.4004ZM221.6 119.8L217.5 123.8C210.6 130.6 199.5 130.4 192.7 123.4L188.9 119.6C183.3 113.9 182.1 105 186.4 98.1004C194.9 83.8004 215.4 83.7004 224.3 97.7004C228.8 104.7 227.6 113.9 221.6 119.8Z" fill="white"/>
</svg>
