<svg width="406" height="258" viewBox="0 0 406 258" fill="none" xmlns="http://www.w3.org/2000/svg">
<path fill-rule="evenodd" clip-rule="evenodd" d="M334.7 169.6C331.8 169.6 329 168.2 327.4 165.8L314.9 147.7H340.1C345.3 147.7 349.4 143.6 349.4 138.6C349.4 133.6 345.2 129.5 340.1 129.5H302.3L299 124.7C293 116.1 279.5 117.6 275.7 127.3L274.8 129.5C269.6 129.5 265.4 133.6 265.4 138.6C265.4 141.3 266.6 143.7 268.6 145.4C265.7 151.5 256.9 152.1 253.2 146.3L242.3 129.3C241.9 128.7 241.6 128.1 241.4 127.5L232.8 102.4H238.9C244.1 102.4 248.3 98.3001 248.3 93.3001C248.3 88.3001 244.1 84.2 238.9 84.2H226.6L224.2 77.2C220.3 65.8 203.8 65.4 199.4 76.6L196.4 84.2H173.7C168.5 84.2 164.3 88.3001 164.3 93.3001C164.3 98.3001 168.5 102.4 173.7 102.4H189.2L186 110.4C184 115.4 177.7 117.4 172.9 114.4C170.8 113.1 168.3 112.4 165.7 112.4H158.4C155.6 112.4 152.9 113.3 150.6 114.9L111.8 142.6C108.9 144.7 107 147.9 106.5 151.4L105.5 159H83.4998C78.2998 159 74.1998 163.1 74.1998 168.1C74.1998 168.5 74.1998 169 74.2998 169.4L68.2998 158.9C62.9998 149.7 49.0998 150.3 44.6998 159.9L30.2998 191.4L34.2998 193.1L48.6998 161.6C51.5998 155.1 60.8998 154.7 64.3998 160.9L81.7998 191.2C87.9998 202 104.9 198.8 106.4 186.5L107.6 177.1H148.8C154 177.1 158.2 173 158.2 168C158.2 163 154 158.9 148.8 158.9H109.9L110.8 151.8C111.1 149.5 112.4 147.3 114.3 146L153.1 118.3C154.6 117.2 156.4 116.7 158.3 116.7H165.6C167.3 116.7 169 117.2 170.4 118.1C177.4 122.5 186.9 119.6 189.9 112L193.7 102.4H228.1L237.2 128.8C237.5 129.8 238 130.7 238.5 131.5L249.4 148.5C254.9 157.2 268 156.3 272.5 147.4C273.2 147.6 274 147.7 274.8 147.7H309.6L323.7 168.1C326.2 171.6 330.3 173.8 334.7 173.8H389.6V169.5H334.7V169.6ZM102 186.2C101 194.4 89.6998 196.5 85.5998 189.3L77.4998 175.1C79.0998 176.4 81.1998 177.2 83.4998 177.2H103.2L102 186.2ZM201 84.4L203.4 78.3001C206.4 70.8001 217.4 71.1 220 78.7L222 84.4H201V84.4ZM279.6 129.6L279.9 128.9C282.4 122.4 291.4 121.4 295.4 127.2L297.1 129.6H279.6Z" fill="white"/>
</svg>
