<svg width="406" height="258" viewBox="0 0 406 258" fill="none" xmlns="http://www.w3.org/2000/svg">
<path fill-rule="evenodd" clip-rule="evenodd" d="M286.8 33.9996V59.6996C286.8 62.7996 284.3 65.4996 280.7 66.0996C276.7 66.8996 272.9 64.8996 272.2 61.5996C271.6 58.2996 274.3 54.9996 278.3 54.1996C279.8 53.7996 281.3 53.9996 282.5 54.3996V39.6996L262.4 42.5996V63.3996C262.4 66.4996 259.9 69.1996 256.3 69.7996C252.3 70.5996 248.5 68.5996 247.8 65.2996C247.2 61.9996 249.9 58.6996 253.9 57.8996C255.4 57.4996 256.9 57.6996 258.1 58.0996V37.2996C258.1 35.8996 259.2 34.5996 260.6 34.3996L283.2 31.0996C283.3 31.0996 283.4 31.0996 283.6 31.0996C285.4 31.0996 286.8 32.2996 286.8 33.9996Z" fill="white"/>
<path fill-rule="evenodd" clip-rule="evenodd" d="M232.1 68.2001C228.9 78.9001 217.3 85.0001 206.3 81.8001C195.3 78.7001 189 67.5001 192.3 56.8001C195.5 46.1001 207.1 40.0001 218.1 43.2001C229.1 46.3001 235.4 57.5001 232.1 68.2001Z" fill="white"/>
<path fill-rule="evenodd" clip-rule="evenodd" d="M271.4 105.7C270.6 106.5 269.5 107.1 268.2 107.1C267.3 107.1 266.5 106.7 265.9 106.3L261.9 103.4C250.5 124.4 243.3 127.2 239.1 127.2C238.2 127.2 237.4 127.2 236.8 127C229.9 125.8 226 120.5 223.1 116.4L223 116.3C221.5 114.2 220.2 112.6 218.8 111L206.5 148.4C214.1 157.5 223.2 169.6 223.2 178.4C223.2 181.6 222.9 187.5 222.4 193.7C222 199.9 221.4 206.5 221.1 211.1C220.8 214.6 220.6 216.9 220.6 217.3C220.2 222.6 215.3 226.8 209.6 226.3C204.1 225.9 199.9 221.2 200.3 215.6C200.4 214.3 200.5 212.6 200.7 210.7C201.5 200.6 202.9 183.7 202.9 178.2C202.3 175.3 194.4 164.6 186.4 156.2L186 155.8C185.6 178.2 184.5 182.1 184.1 183.5C182.4 189.9 169.5 210 162.1 221.5C160.2 224.6 156.8 226.2 153.4 226.2C151.5 226.2 149.6 225.6 147.9 224.6C143 221.7 141.8 215.6 144.7 210.8C153.2 197.8 162.9 181.8 164.2 178.5C164.6 177.1 165.3 169 165.7 148.9C165.7 146 166.1 143.1 167 140.5L178 104.5C175.6 106.3 173.4 108.5 171.9 110C171.6 110.3 171.3 110.6 171 110.9L170.6 111.3C167.4 114.6 161.9 125.1 159 131.6C157.5 134.9 154.3 136.7 151 136.7C149.7 136.7 148.5 136.3 147.4 135.9C143 134.1 141.1 128.9 143 124.6C143.1 124.4 143.2 124.1 143.4 123.8C145.5 119.4 152.1 105.5 158 99.5996L158.4 99.1996C164.8 92.5996 178.1 78.8996 193.5 83.3996L204.9 86.6996L216.3 89.9996C228.4 93.4996 234.1 101.3 237.7 106.4C237.9 106.8 238.1 107.2 238.5 107.6C241 104.3 244.6 98.5996 247.8 92.7996L242.9 89.2996C241.2 90.0996 239.1 90.2996 237 89.6996C232.6 88.2996 230 83.7996 231.3 79.3996C232.8 75.0996 237.4 72.5996 241.9 73.7996C246.1 74.7996 248.5 78.6996 247.8 82.7996L253 86.9996C255.3 85.7996 258.3 85.7996 260.8 86.9996C264.4 88.8996 266.1 92.5996 265.5 96.1996L270.6 100.3C272.2 101.6 272.7 104 271.4 105.7Z" fill="white"/>
</svg>
