<svg width="407" height="258" viewBox="0 0 407 258" fill="none" xmlns="http://www.w3.org/2000/svg">
<path d="M272.987 188.1H165.287V197.9H272.987V188.1Z" fill="white"/>
<path d="M143.587 203.3C149.165 203.3 153.687 198.913 153.687 193.5C153.687 188.088 149.165 183.7 143.587 183.7C138.009 183.7 133.487 188.088 133.487 193.5C133.487 198.913 138.009 203.3 143.587 203.3Z" fill="white"/>
<path d="M272.987 154.6H165.287V164.4H272.987V154.6Z" fill="white"/>
<path d="M143.587 170.2C149.165 170.2 153.687 165.812 153.687 160.4C153.687 154.987 149.165 150.6 143.587 150.6C138.009 150.6 133.487 154.987 133.487 160.4C133.487 165.812 138.009 170.2 143.587 170.2Z" fill="white"/>
<path fill-rule="evenodd" clip-rule="evenodd" d="M248.787 88.5998V122.1C248.787 123.7 247.287 124.9 245.387 124.9H231.087C229.187 124.9 227.687 123.6 227.687 122.1V88.5998C227.687 86.9998 229.187 85.7998 231.087 85.7998H245.387C247.187 85.7998 248.787 87.0998 248.787 88.5998Z" fill="white"/>
<path fill-rule="evenodd" clip-rule="evenodd" d="M214.187 56.8996V122.1C214.187 123.7 212.687 124.9 210.787 124.9H196.587C194.687 124.9 193.187 123.6 193.187 122.1V56.8996C193.187 55.2996 194.687 54.0996 196.587 54.0996H210.787C212.487 54.0996 214.087 55.3996 214.187 56.8996Z" fill="white"/>
<path fill-rule="evenodd" clip-rule="evenodd" d="M179.587 73.5002V122.1C179.587 123.7 178.087 124.9 176.187 124.9H161.887C159.987 124.9 158.487 123.6 158.487 122.1V73.5002C158.487 71.9002 159.987 70.7002 161.887 70.7002H176.187C177.987 70.7002 179.587 71.9002 179.587 73.5002Z" fill="white"/>
</svg>
