<svg width="407" height="258" viewBox="0 0 407 258" fill="none" xmlns="http://www.w3.org/2000/svg">
<path fill-rule="evenodd" clip-rule="evenodd" d="M333.164 108.7L334.164 103.5L335.664 101.7C335.764 101.6 335.764 101.6 335.764 101.5C335.764 101.4 335.764 101.4 335.764 101.2V97.6002C335.564 97.1002 335.264 96.8002 334.964 96.8002H328.564C328.064 97.0002 327.764 97.3002 327.764 97.6002V101.2C327.564 101.4 327.764 101.5 327.964 101.7L329.464 103.5V108.4H322.464V103.5L323.964 101.7C324.164 101.5 324.164 101.5 324.164 101.2V97.6002C323.964 97.1002 323.664 96.8002 323.364 96.8002H317.064C316.564 97.0002 316.264 97.3002 316.264 97.6002V101.2C316.064 101.4 316.264 101.5 316.464 101.7L317.964 103.5V108.4H310.964V103.5L312.464 101.7C312.564 101.6 312.564 101.6 312.564 101.5C312.564 101.4 312.564 101.4 312.564 101.2V97.6002C312.364 97.1002 312.064 96.8002 311.764 96.8002H305.464C304.964 97.0002 304.664 97.3002 304.664 97.6002V101.2C304.464 101.4 304.664 101.5 304.864 101.7L306.364 103.5V109C304.864 109.5 303.364 110 302.164 110.8L299.364 112.6L299.064 112.9H234.264C229.764 95.5002 217.064 83.2002 202.364 83.2002C198.464 83.0002 194.864 84.0002 191.364 85.5002C180.864 90.2002 169.664 89.1002 161.564 82.6002C150.064 73.4002 136.664 67.8002 125.164 67.7002C99.9643 67.9002 79.3643 94.7002 79.3643 127.5C79.3643 160.6 99.7643 187.2 125.164 187.2C136.564 187.2 150.064 181.9 161.464 172.4C169.464 165.9 180.864 164.9 191.264 169.5C194.764 171 198.564 171.8 202.264 171.8C216.964 171.8 229.464 159.3 234.164 142.1L299.164 141.9L299.664 142.4L302.364 144C303.664 145 305.164 145.5 306.564 145.8V151.3L305.064 153.1C304.864 153.3 304.864 153.3 304.864 153.6V157.2C305.064 157.7 305.364 158 305.664 158L311.464 157.8C311.964 157.6 312.264 157.3 312.264 157V153.4C312.464 153.2 312.264 153.1 312.064 152.9L310.564 151.1V146.2H317.564V151.1L316.064 152.9C315.864 153.1 315.864 153.1 315.864 153.4V157C316.064 157.5 316.364 157.8 316.664 157.8H322.964C323.464 157.6 323.764 157.3 323.764 157L323.564 153.6C323.764 153.4 323.564 153.3 323.364 153.1L321.864 151.3L321.364 146.3H328.364V151.2L326.864 153C326.664 153.2 326.664 153.2 326.664 153.5V157.1C326.864 157.6 327.164 157.9 327.464 157.9H333.864C334.364 157.7 334.664 157.4 334.664 157.1V153.5C334.864 153.3 334.664 153.2 334.464 153L332.964 151.2L333.164 146.2C337.364 145.7 340.564 142.3 340.564 138.1V117C340.564 112.6 337.364 109.2 333.164 108.7ZM201.764 162.9C199.064 162.9 196.764 162.2 194.364 161.3C180.964 155.1 165.964 156.8 155.264 165.5C145.564 173.6 134.064 178.3 124.664 178.3C104.264 178.3 87.7643 155.4 87.8643 127.3C87.6643 99.2002 104.264 76.3002 124.664 76.3002C134.064 76.3002 145.364 81.2002 155.264 89.1002C165.764 97.7002 180.864 99.3002 194.364 93.3002C196.864 92.2002 199.364 91.7002 201.764 91.7002C215.464 91.7002 226.464 107.6 226.664 127.3C226.864 147 215.464 162.9 201.764 162.9ZM293.464 132.8C293.464 132.9 293.564 133 293.564 133.2H235.364C235.664 131.2 235.664 129.3 235.664 127.4C235.664 125.5 235.664 123.5 235.364 121.6H293.564C293.364 121.8 293.364 122.1 293.364 122.4V132.5C293.464 132.5 293.464 132.7 293.464 132.8ZM331.564 137.6H309.464C308.464 137.6 307.464 137.3 306.664 136.8L303.864 135C303.064 134.5 302.564 133.4 302.564 132.4L302.864 122.6C302.664 121.5 303.364 120.5 304.164 120L306.964 118.2C307.764 117.7 308.764 117.4 309.864 117.4H331.564V137.6V137.6Z" fill="white"/>
<path fill-rule="evenodd" clip-rule="evenodd" d="M127.064 106.9V147.8C127.064 150.1 125.064 152 122.564 152.2C120.264 152.2 118.264 150.2 118.064 147.8V106.9C118.064 104.6 120.064 102.7 122.564 102.5C123.764 102.5 124.764 103 125.664 103.8C126.464 104.6 126.964 105.7 127.064 106.9Z" fill="white"/>
<path fill-rule="evenodd" clip-rule="evenodd" d="M194.864 127.3C194.864 136.5 187.164 144.1 177.564 144.1C168.064 144.1 160.364 136.6 160.364 127.3C160.364 118 168.064 110.5 177.564 110.5C187.164 110.5 194.864 118.1 194.864 127.3Z" fill="white"/>
</svg>
