<svg width="1440" height="648" viewBox="0 0 1440 648" fill="none" xmlns="http://www.w3.org/2000/svg">
<path fill-rule="evenodd" clip-rule="evenodd" d="M85.9375 27.666C63.2194 27.666 44.8027 46.8876 44.8027 70.5987V480.084C44.8027 503.795 63.2194 523.017 85.9375 523.017H396.211C418.929 523.017 437.346 503.795 437.346 480.084V70.5988C437.346 46.8877 418.929 27.666 396.211 27.666H85.9375ZM177.842 125.152H375.638V100.471H177.842V125.152ZM177.842 235.8H375.638V211.119H177.842V235.8ZM375.638 350.364H177.842V325.684H375.638V350.364ZM177.842 463.951H375.638V439.27H177.842V463.951Z" fill="#6CD5AF"/>
<path fill-rule="evenodd" clip-rule="evenodd" d="M122.595 470.93L122.595 127.953L126.708 127.953L126.708 470.93L122.595 470.93Z" fill="black"/>
<path fill-rule="evenodd" clip-rule="evenodd" d="M117.68 96.2949C113.136 96.2949 109.453 99.9783 109.453 104.522V119.726C109.453 124.27 113.136 127.953 117.68 127.953H132.884C137.428 127.953 141.111 124.27 141.111 119.726V104.522C141.111 99.9783 137.428 96.2949 132.884 96.2949H117.68ZM124.857 117.186L135.631 106.412L132.722 103.504L121.949 114.277L117.799 110.127L114.89 113.035L119.04 117.186C120.646 118.792 123.251 118.792 124.857 117.186Z" fill="black"/>
<path d="M109.453 218.847C109.453 214.303 113.136 210.62 117.68 210.62H132.884C137.428 210.62 141.111 214.303 141.111 218.847V234.052C141.111 238.595 137.428 242.278 132.884 242.278H117.68C113.136 242.278 109.453 238.595 109.453 234.052V218.847Z" fill="#6CD5AF"/>
<path fill-rule="evenodd" clip-rule="evenodd" d="M132.884 217.819H117.68C117.112 217.819 116.651 218.279 116.651 218.847V234.052C116.651 234.619 117.112 235.08 117.68 235.08H132.884C133.452 235.08 133.912 234.619 133.912 234.052V218.847C133.912 218.279 133.452 217.819 132.884 217.819ZM117.68 210.62C113.136 210.62 109.453 214.303 109.453 218.847V234.052C109.453 238.595 113.136 242.278 117.68 242.278H132.884C137.428 242.278 141.111 238.595 141.111 234.052V218.847C141.111 214.303 137.428 210.62 132.884 210.62H117.68Z" fill="black"/>
<path d="M109.453 333.172C109.453 328.629 113.136 324.945 117.68 324.945H132.884C137.428 324.945 141.111 328.629 141.111 333.172V348.377C141.111 352.92 137.428 356.604 132.884 356.604H117.68C113.136 356.604 109.453 352.92 109.453 348.377V333.172Z" fill="#6CD5AF"/>
<path fill-rule="evenodd" clip-rule="evenodd" d="M132.884 332.144H117.68C117.112 332.144 116.651 332.604 116.651 333.172V348.377C116.651 348.945 117.112 349.405 117.68 349.405H132.884C133.452 349.405 133.912 348.945 133.912 348.377V333.172C133.912 332.604 133.452 332.144 132.884 332.144ZM117.68 324.945C113.136 324.945 109.453 328.629 109.453 333.172V348.377C109.453 352.92 113.136 356.604 117.68 356.604H132.884C137.428 356.604 141.111 352.92 141.111 348.377V333.172C141.111 328.629 137.428 324.945 132.884 324.945H117.68Z" fill="black"/>
<path d="M109.453 447.498C109.453 442.955 113.136 439.271 117.68 439.271H132.884C137.428 439.271 141.111 442.955 141.111 447.498V462.703C141.111 467.247 137.428 470.93 132.884 470.93H117.68C113.136 470.93 109.453 467.247 109.453 462.703V447.498Z" fill="#6CD5AF"/>
<path fill-rule="evenodd" clip-rule="evenodd" d="M132.884 446.47H117.68C117.112 446.47 116.651 446.93 116.651 447.498V462.703C116.651 463.271 117.112 463.731 117.68 463.731H132.884C133.452 463.731 133.912 463.271 133.912 462.703V447.498C133.912 446.93 133.452 446.47 132.884 446.47ZM117.68 439.271C113.136 439.271 109.453 442.955 109.453 447.498V462.703C109.453 467.247 113.136 470.93 117.68 470.93H132.884C137.428 470.93 141.111 467.247 141.111 462.703V447.498C141.111 442.955 137.428 439.271 132.884 439.271H117.68Z" fill="black"/>
<path fill-rule="evenodd" clip-rule="evenodd" d="M564.863 27.666C542.145 27.666 523.729 46.8876 523.729 70.5987V480.084C523.729 503.795 542.145 523.017 564.863 523.017H875.137C897.855 523.017 916.272 503.795 916.272 480.084V70.5988C916.272 46.8877 897.855 27.666 875.137 27.666H564.863ZM617.669 106.478C626.007 106.478 632.766 99.7186 632.766 91.3814C632.766 83.0439 626.007 76.2852 617.669 76.2852C609.332 76.2852 602.573 83.0439 602.573 91.3814C602.573 99.719 609.332 106.478 617.669 106.478ZM602.573 111.51H632.766C641.103 111.51 647.862 118.269 647.862 126.606V139.186C647.862 143.338 644.465 146.734 640.314 146.734H595.025C590.874 146.734 587.477 143.338 587.477 139.186V126.606C587.477 118.268 594.236 111.51 602.573 111.51ZM848.167 123.319H691.505V106.865H848.167V123.319ZM848.167 231.764H691.505V215.31H848.167V231.764ZM691.505 340.208H848.167V323.755H691.505V340.208ZM848.167 448.653H691.505V432.199H848.167V448.653ZM632.766 200.389C632.766 208.726 626.007 215.485 617.669 215.485C609.332 215.485 602.573 208.726 602.573 200.389C602.573 192.051 609.332 185.292 617.669 185.292C626.007 185.292 632.766 192.051 632.766 200.389ZM632.766 220.517H602.573C594.236 220.517 587.477 227.275 587.477 235.613V248.193C587.477 252.345 590.874 255.741 595.025 255.741H640.314C644.465 255.741 647.862 252.345 647.862 248.193V235.613C647.862 227.276 641.103 220.517 632.766 220.517ZM617.669 324.492C626.007 324.492 632.766 317.733 632.766 309.396C632.766 301.058 626.007 294.299 617.669 294.299C609.332 294.299 602.573 301.058 602.573 309.396C602.573 317.733 609.332 324.492 617.669 324.492ZM602.573 329.524H632.766C641.103 329.524 647.862 336.283 647.862 344.62V357.2C647.862 361.352 644.465 364.748 640.314 364.748H595.025C590.874 364.748 587.477 361.352 587.477 357.2V344.62C587.477 336.283 594.236 329.524 602.573 329.524ZM632.766 418.403C632.766 426.74 626.007 433.499 617.669 433.499C609.332 433.499 602.573 426.74 602.573 418.403C602.573 410.065 609.332 403.307 617.669 403.307C626.007 403.307 632.766 410.065 632.766 418.403ZM632.766 438.531H602.573C594.236 438.531 587.477 445.29 587.477 453.627V466.207C587.477 470.359 590.874 473.756 595.025 473.756H640.314C644.465 473.756 647.862 470.359 647.862 466.207V453.627C647.862 445.29 641.103 438.531 632.766 438.531Z" fill="#6CD5AF"/>
<path fill-rule="evenodd" clip-rule="evenodd" d="M1043.79 27.666C1021.07 27.666 1002.65 46.8876 1002.65 70.5987V480.084C1002.65 503.795 1021.07 523.017 1043.79 523.017H1354.06C1376.78 523.017 1395.2 503.795 1395.2 480.084V70.5988C1395.2 46.8877 1376.78 27.666 1354.06 27.666H1043.79ZM1321.18 106.867C1321.18 93.2356 1310.13 82.1856 1296.5 82.1856H1069.54C1055.91 82.1856 1044.86 93.2356 1044.86 106.867V192.243H1296.5C1310.13 192.243 1321.18 181.193 1321.18 167.562V106.867ZM1296.5 244.114C1310.13 244.114 1321.18 255.164 1321.18 268.794V301.664C1321.18 315.295 1310.13 326.345 1296.5 326.345H1044.86V268.794C1044.86 255.164 1055.91 244.114 1069.54 244.114H1296.5ZM1103.49 400.998C1103.49 387.367 1114.54 376.317 1128.17 376.317H1335.15C1348.78 376.317 1359.83 387.367 1359.83 400.998V458.548H1128.17C1114.54 458.548 1103.49 447.498 1103.49 433.868V400.998Z" fill="#6CD5AF"/>
<g opacity="0.5">
<path d="M131.426 606.334H149.448V602.649H135.426V575.01H131.426V606.334Z" fill="white"/>
<path d="M172.292 594.425C172.292 589.032 169.281 583.773 162.495 583.773C155.754 583.773 152.428 589.256 152.428 595.369C152.428 601.526 155.799 606.739 162.855 606.739C166.36 606.739 169.057 605.615 171.573 602.919L168.922 600.537C167.034 602.559 165.147 603.188 162.9 603.188C158.81 603.188 156.428 600.627 156.293 596.402H172.158C172.248 595.818 172.292 595.054 172.292 594.425ZM156.293 593.256C156.563 589.931 158.675 587.009 162.45 587.009C166.18 587.009 168.427 589.436 168.562 592.852C168.562 593.032 168.562 593.166 168.607 593.256H156.293Z" fill="white"/>
<path d="M184.756 606.739C188.98 606.739 192.935 604.492 192.935 599.773C192.935 591.459 180.531 594.335 180.531 589.706C180.531 588.088 182.059 587.054 184.486 587.054C187.093 587.054 188.666 588.358 189.654 590.155L192.711 588.492C191.138 585.391 188.216 583.773 184.576 583.773C180.217 583.773 176.801 586.11 176.801 590.11C176.801 598.11 189.115 594.829 189.115 599.998C189.115 601.93 187.497 603.413 184.621 603.413C181.34 603.413 179.498 601.436 178.779 599.368L175.588 600.806C176.756 604.267 180.307 606.739 184.756 606.739Z" fill="white"/>
<path d="M205.427 606.739C209.652 606.739 213.607 604.492 213.607 599.773C213.607 591.459 201.203 594.335 201.203 589.706C201.203 588.088 202.731 587.054 205.158 587.054C207.764 587.054 209.337 588.358 210.326 590.155L213.382 588.492C211.809 585.391 208.888 583.773 205.248 583.773C200.888 583.773 197.473 586.11 197.473 590.11C197.473 598.11 209.787 594.829 209.787 599.998C209.787 601.93 208.169 603.413 205.293 603.413C202.012 603.413 200.169 601.436 199.45 599.368L196.259 600.806C197.428 604.267 200.978 606.739 205.427 606.739Z" fill="white"/>
<path d="M227.946 606.739C234.462 606.739 238.777 601.66 238.777 595.234C238.777 588.762 234.417 583.773 227.946 583.773C221.429 583.773 217.205 588.762 217.205 595.234C217.205 601.705 221.429 606.739 227.946 606.739ZM227.946 603.323C223.452 603.323 221.07 599.773 221.07 595.234C221.07 590.695 223.407 587.189 227.946 587.189C232.485 587.189 234.912 590.65 234.912 595.234C234.912 599.728 232.485 603.323 227.946 603.323Z" fill="white"/>
<path d="M255.295 583.773C252.284 583.773 249.677 585.032 248.194 587.189V584.178H244.329V606.334H248.194V596.762C248.194 591.279 249.812 587.189 254.261 587.189C257.857 587.189 258.89 589.796 258.89 593.481V606.334H262.755V592.537C262.755 586.83 260.149 583.773 255.295 583.773Z" fill="white"/>
<path d="M292.467 583.773C289.59 583.773 287.074 584.807 285.456 586.919V584.178H281.591V615.503H285.456V603.548C286.939 605.525 289.501 606.739 292.467 606.739C298.624 606.739 302.174 602.065 302.174 595.234C302.174 588.402 298.579 583.773 292.467 583.773ZM291.748 603.323C287.343 603.323 285.141 599.863 285.141 595.234C285.141 590.425 287.478 587.144 291.748 587.144C295.927 587.144 298.309 590.29 298.309 595.234C298.309 600.042 296.062 603.323 291.748 603.323Z" fill="white"/>
<path d="M312.327 606.739C313.316 606.739 314.484 606.469 315.518 606.11L315.473 602.919C314.844 603.099 314.125 603.278 313.496 603.278C312.192 603.278 311.653 602.469 311.653 601.121V575.01H307.788V601.346C307.788 604.986 309.631 606.739 312.327 606.739Z" fill="white"/>
<path d="M328.213 583.773C324.347 583.773 321.336 585.257 318.865 588.402L321.651 590.739C323.404 588.402 325.516 587.189 328.123 587.189C331.493 587.189 333.381 589.077 333.381 592.492V593.391H328.482C324.752 593.391 322.55 593.751 320.887 594.649C319.089 595.638 318.101 597.436 318.101 599.773C318.101 604.042 321.112 606.739 325.876 606.739C329.201 606.739 331.853 605.391 333.426 603.009L333.695 606.334H337.246V592.492C337.246 587.009 333.875 583.773 328.213 583.773ZM326.774 603.503C323.808 603.503 321.966 602.11 321.966 599.953C321.966 598.829 322.37 597.975 323.089 597.391C324.033 596.672 325.561 596.402 328.932 596.402H333.381V596.627C333.381 600.717 330.684 603.503 326.774 603.503Z" fill="white"/>
<path d="M355.142 583.773C352.131 583.773 349.524 585.032 348.041 587.189V584.178H344.176V606.334H348.041V596.762C348.041 591.279 349.659 587.189 354.108 587.189C357.704 587.189 358.737 589.796 358.737 593.481V606.334H362.602V592.537C362.602 586.83 359.996 583.773 355.142 583.773Z" fill="white"/>
</g>
<g opacity="0.5">
<path d="M574.732 606.334H578.732V592.897H584.125C590.822 592.897 594.552 589.706 594.552 583.863C594.552 578.111 590.912 575.01 584.125 575.01H574.732V606.334ZM578.732 589.211V578.695H583.721C588.305 578.695 590.552 580.403 590.552 583.908C590.552 587.459 588.305 589.211 583.721 589.211H578.732Z" fill="white"/>
<path d="M606.98 583.773C603.115 583.773 600.104 585.257 597.632 588.402L600.419 590.739C602.172 588.402 604.284 587.189 606.891 587.189C610.261 587.189 612.149 589.077 612.149 592.492V593.391H607.25C603.52 593.391 601.318 593.751 599.655 594.649C597.857 595.638 596.868 597.436 596.868 599.773C596.868 604.042 599.88 606.739 604.643 606.739C607.969 606.739 610.621 605.391 612.194 603.009L612.463 606.334H616.014V592.492C616.014 587.009 612.643 583.773 606.98 583.773ZM605.542 603.503C602.576 603.503 600.733 602.11 600.733 599.953C600.733 598.829 601.138 597.975 601.857 597.391C602.801 596.672 604.329 596.402 607.7 596.402H612.149V596.627C612.149 600.717 609.452 603.503 605.542 603.503Z" fill="white"/>
<path d="M633.191 583.773C630.854 583.773 628.202 584.807 626.809 587.638V584.178H622.944V606.334H626.809V594.38C626.809 589.796 629.011 587.414 632.382 587.414C633.371 587.414 634.314 587.638 635.258 588.088L637.146 584.852C635.842 584.088 634.584 583.773 633.191 583.773Z" fill="white"/>
<path d="M652.234 587.324V584.178H646.796V576.043L642.931 578.92V584.178H639.291V587.324H642.931V600.806C642.931 604.986 645.448 606.739 648.639 606.739C649.807 606.739 651.021 606.514 652.234 606.11V602.829C651.246 603.143 650.347 603.323 649.583 603.323C647.83 603.323 646.796 602.424 646.796 600.402V587.324H652.234Z" fill="white"/>
<path d="M657.523 579.729H661.837V575.01H657.523V579.729ZM657.748 606.334H661.613V584.178H657.748V606.334Z" fill="white"/>
<path d="M677.563 606.739C681.698 606.739 684.978 604.492 686.461 600.447L682.911 599.099C682.147 601.75 680.125 603.323 677.518 603.323C673.114 603.323 671.226 599.503 671.226 595.324C671.226 591.144 673.114 587.189 677.518 587.189C680.08 587.189 682.102 588.807 683.001 591.503L686.686 590.02C684.933 585.796 681.608 583.773 677.518 583.773C670.642 583.773 667.271 589.481 667.271 595.324C667.271 601.391 670.867 606.739 677.563 606.739Z" fill="white"/>
<path d="M691.537 579.729H695.851V575.01H691.537V579.729ZM691.761 606.334H695.626V584.178H691.761V606.334Z" fill="white"/>
<path d="M714.048 583.773C711.172 583.773 708.655 584.807 707.038 586.919V584.178H703.173V615.503H707.038V603.548C708.521 605.525 711.082 606.739 714.048 606.739C720.206 606.739 723.756 602.065 723.756 595.234C723.756 588.402 720.161 583.773 714.048 583.773ZM713.329 603.323C708.925 603.323 706.723 599.863 706.723 595.234C706.723 590.425 709.06 587.144 713.329 587.144C717.509 587.144 719.891 590.29 719.891 595.234C719.891 600.042 717.644 603.323 713.329 603.323Z" fill="white"/>
<path d="M737.549 583.773C733.684 583.773 730.673 585.257 728.201 588.402L730.988 590.739C732.741 588.402 734.853 587.189 737.459 587.189C740.83 587.189 742.718 589.077 742.718 592.492V593.391H737.819C734.089 593.391 731.887 593.751 730.224 594.649C728.426 595.638 727.437 597.436 727.437 599.773C727.437 604.042 730.448 606.739 735.212 606.739C738.538 606.739 741.19 605.391 742.763 603.009L743.032 606.334H746.583V592.492C746.583 587.009 743.212 583.773 737.549 583.773ZM736.111 603.503C733.145 603.503 731.302 602.11 731.302 599.953C731.302 598.829 731.707 597.975 732.426 597.391C733.37 596.672 734.898 596.402 738.268 596.402H742.718V596.627C742.718 600.717 740.021 603.503 736.111 603.503Z" fill="white"/>
<path d="M764.479 583.773C761.468 583.773 758.861 585.032 757.378 587.189V584.178H753.513V606.334H757.378V596.762C757.378 591.279 758.996 587.189 763.445 587.189C767.04 587.189 768.074 589.796 768.074 593.481V606.334H771.939V592.537C771.939 586.83 769.332 583.773 764.479 583.773Z" fill="white"/>
<path d="M789.035 587.324V584.178H783.597V576.043L779.732 578.92V584.178H776.092V587.324H779.732V600.806C779.732 604.986 782.249 606.739 785.44 606.739C786.608 606.739 787.822 606.514 789.035 606.11V602.829C788.047 603.143 787.148 603.323 786.384 603.323C784.631 603.323 783.597 602.424 783.597 600.402V587.324H789.035Z" fill="white"/>
<path d="M810.67 606.739C811.659 606.739 812.828 606.469 813.861 606.11L813.816 602.919C813.187 603.099 812.468 603.278 811.839 603.278C810.535 603.278 809.996 602.469 809.996 601.121V575.01H806.131V601.346C806.131 604.986 807.974 606.739 810.67 606.739Z" fill="white"/>
<path d="M818.375 579.729H822.689V575.01H818.375V579.729ZM818.6 606.334H822.465V584.178H818.6V606.334Z" fill="white"/>
<path d="M836.797 606.739C841.022 606.739 844.977 604.492 844.977 599.773C844.977 591.459 832.573 594.335 832.573 589.706C832.573 588.088 834.101 587.054 836.527 587.054C839.134 587.054 840.707 588.358 841.696 590.155L844.752 588.492C843.179 585.391 840.258 583.773 836.617 583.773C832.258 583.773 828.842 586.11 828.842 590.11C828.842 598.11 841.156 594.829 841.156 599.998C841.156 601.93 839.539 603.413 836.662 603.413C833.381 603.413 831.539 601.436 830.82 599.368L827.629 600.806C828.797 604.267 832.348 606.739 836.797 606.739Z" fill="white"/>
<path d="M860.749 587.324V584.178H855.311V576.043L851.446 578.92V584.178H847.806V587.324H851.446V600.806C851.446 604.986 853.963 606.739 857.154 606.739C858.323 606.739 859.536 606.514 860.749 606.11V602.829C859.761 603.143 858.862 603.323 858.098 603.323C856.345 603.323 855.311 602.424 855.311 600.402V587.324H860.749Z" fill="white"/>
</g>
<g opacity="0.5">
<path d="M1160.03 606.873C1166.42 606.873 1171.18 603.772 1173.47 597.929L1169.7 596.536C1168.08 600.851 1164.71 603.053 1160.03 603.053C1153.34 603.053 1149.47 598.514 1149.47 590.604C1149.47 582.739 1153.34 578.29 1160.17 578.29C1164.89 578.29 1168.12 580.357 1169.7 584.672L1173.38 583.233C1171.18 577.436 1166.55 574.47 1160.17 574.47C1151.04 574.47 1145.47 580.582 1145.47 590.604C1145.47 600.716 1151 606.873 1160.03 606.873Z" fill="white"/>
<path d="M1189.65 583.773C1186.54 583.773 1183.98 585.031 1182.5 587.188V575.009H1178.63V606.334H1182.5V596.581C1182.5 590.379 1184.61 587.188 1188.61 587.188C1191.76 587.188 1193.2 589.166 1193.2 593.48V606.334H1197.06V592.536C1197.06 586.829 1194.45 583.773 1189.65 583.773Z" fill="white"/>
<path d="M1212.09 583.773C1208.22 583.773 1205.21 585.256 1202.74 588.402L1205.53 590.739C1207.28 588.402 1209.39 587.188 1212 587.188C1215.37 587.188 1217.26 589.076 1217.26 592.491V593.39H1212.36C1208.63 593.39 1206.43 593.75 1204.76 594.649C1202.97 595.637 1201.98 597.435 1201.98 599.772C1201.98 604.042 1204.99 606.738 1209.75 606.738C1213.08 606.738 1215.73 605.39 1217.3 603.008L1217.57 606.334H1221.12V592.491C1221.12 587.009 1217.75 583.773 1212.09 583.773ZM1210.65 603.502C1207.69 603.502 1205.84 602.109 1205.84 599.952C1205.84 598.828 1206.25 597.974 1206.97 597.39C1207.91 596.671 1209.44 596.401 1212.81 596.401H1217.26V596.626C1217.26 600.716 1214.56 603.502 1210.65 603.502Z" fill="white"/>
<path d="M1238.08 587.323V584.177H1232.64V576.043L1228.77 578.919V584.177H1225.13V587.323H1228.77V600.806C1228.77 604.985 1231.29 606.738 1234.48 606.738C1235.65 606.738 1236.86 606.513 1238.08 606.109V602.828C1237.09 603.143 1236.19 603.323 1235.42 603.323C1233.67 603.323 1232.64 602.424 1232.64 600.401V587.323H1238.08Z" fill="white"/>
</g>
</svg>
