<svg width="82" height="72" viewBox="0 0 82 72" fill="none" xmlns="http://www.w3.org/2000/svg">
<path fill-rule="evenodd" clip-rule="evenodd" d="M72.7214 60.1423L72.7246 43.3754H69.8257V56.5333C69.8257 58.7379 67.9891 60.3787 65.9803 60.3787H63.173C60.9683 60.3787 59.3275 58.5421 59.3275 56.5333V43.3754H58.6752L58.6779 56.5329C58.6779 58.7375 56.8413 60.3787 54.8325 60.3787H51.4643C49.2597 60.3787 47.6189 58.5421 47.6189 56.5333V43.3754H46.9661V56.5333C46.9661 58.7379 45.1295 60.3787 43.1207 60.3787H39.7526C37.5479 60.3787 35.9071 58.5421 35.9071 56.5333V43.3754H35.2548L35.2575 56.5329C35.2575 58.7375 33.4209 60.3787 31.4121 60.3787H28.044C25.8393 60.3787 24.1985 58.5421 24.1985 56.5333V43.3754H23.5458V56.5333C23.5458 58.7379 21.7092 60.3787 19.7003 60.3787H16.3322C14.1276 60.3787 12.4868 58.5421 12.4868 56.5333V43.3754H9.58754V60.1427C9.58754 61.4444 10.6973 62.5542 11.999 62.5542H70.3099C71.6116 62.5542 72.7214 61.444 72.7214 60.1423ZM33.2544 41.3754H37.9071V56.5333C37.9071 57.4951 38.7092 58.3787 39.7526 58.3787H43.1207C44.0826 58.3787 44.9661 57.5766 44.9661 56.5333V41.3754H49.6189V56.5333C49.6189 57.4951 50.421 58.3787 51.4643 58.3787H54.8325C55.7943 58.3787 56.6779 57.5766 56.6779 56.5333L56.6748 41.3754H61.3275V56.5333C61.3275 57.4951 62.1296 58.3787 63.173 58.3787H65.9803C66.9421 58.3787 67.8257 57.5766 67.8257 56.5333V41.3754H74.7249L74.7214 60.1427C74.7214 62.5489 72.7162 64.5542 70.3099 64.5542H11.999C9.59275 64.5542 7.58754 62.5489 7.58754 60.1427V41.3754H14.4868V56.5333C14.4868 57.4951 15.2889 58.3787 16.3322 58.3787H19.7003C20.6622 58.3787 21.5458 57.5766 21.5458 56.5333V41.3754H26.1985V56.5333C26.1985 57.4951 27.0006 58.3787 28.044 58.3787H31.4121C32.3739 58.3787 33.2575 57.5766 33.2575 56.5333L33.2544 41.3754ZM59.0808 19.2415H68.0666C75.3373 19.2415 81.2148 25.1038 81.2148 32.3112V60.1428C81.2148 66.2195 76.3091 71.1254 70.2322 71.1254H11.9213C5.84461 71.1254 0.938721 66.2197 0.938721 60.1428V13.54C0.938721 6.25122 6.89352 0.392578 14.0861 0.392578H33.3362C41.1042 0.392578 47.889 5.36872 50.2397 12.772C51.4972 16.677 55.0567 19.2415 59.0808 19.2415ZM48.3344 13.3804C49.8568 18.1146 54.1868 21.2415 59.0808 21.2415H68.0666C74.2417 21.2415 79.2148 26.2172 79.2148 32.3112V60.1428C79.2148 65.115 75.2045 69.1254 70.2322 69.1254H11.9213C6.94916 69.1254 2.93872 65.1151 2.93872 60.1428V13.54C2.93872 7.36488 7.98898 2.39258 14.0861 2.39258H33.3362C40.2318 2.39258 46.2477 6.8039 48.3344 13.3804Z" fill="white"/>
</svg>
