<svg width="75" height="58" viewBox="0 0 75 58" fill="none" xmlns="http://www.w3.org/2000/svg">
<rect width="75" height="37" rx="4" fill="white" fill-opacity="0.2"/>
<path fill-rule="evenodd" clip-rule="evenodd" d="M10.0957 18.5L10.2949 18.8984L10.6934 19.0977C10.8262 19.1419 10.959 19.1641 11.0918 19.1641H12.6191V32.2461C12.6191 32.3789 12.597 32.5117 12.5527 32.6445C12.5306 32.7773 12.4531 32.9102 12.3203 33.043C12.1875 33.1758 12.0547 33.2865 11.9219 33.375C11.7891 33.4414 11.6562 33.4746 11.5234 33.4746H4.98242C4.84961 33.4746 4.7168 33.4414 4.58398 33.375C4.45117 33.2865 4.31836 33.1758 4.18555 33.043L3.98633 32.6445C3.91992 32.5117 3.88672 32.3789 3.88672 32.2461V5.45117C3.88672 5.16341 3.93099 4.91992 4.01953 4.7207C4.10807 4.49935 4.25195 4.28906 4.45117 4.08984C4.65039 3.89062 4.84961 3.74674 5.04883 3.6582C5.27018 3.56966 5.52474 3.52539 5.8125 3.52539H10.0293V17.9688C10.0293 18.168 10.0514 18.3451 10.0957 18.5ZM20.2891 18.9648C20.3555 19.0091 20.4219 19.0312 20.4883 19.0312C20.5547 19.0977 20.6432 19.1419 20.7539 19.1641H21.0195H22.5469V32.2461C22.5469 32.3789 22.5026 32.5117 22.4141 32.6445C22.3477 32.7773 22.248 32.9102 22.1152 33.043C21.9824 33.1758 21.8496 33.2865 21.7168 33.375C21.584 33.4414 21.4512 33.4746 21.3184 33.4746H14.7773C14.6445 33.4746 14.5117 33.4414 14.3789 33.375C14.2461 33.2865 14.1133 33.1758 13.9805 33.043C13.8255 32.9102 13.7148 32.7773 13.6484 32.6445C13.582 32.5117 13.5488 32.3789 13.5488 32.2461V19.1641H14.9102C15.043 19.1641 15.1979 19.1309 15.375 19.0645C15.5521 18.998 15.6738 18.8984 15.7402 18.7656C15.8066 18.6328 15.862 18.5 15.9062 18.3672C15.9727 18.2344 16.0059 18.1016 16.0059 17.9688V3.52539H19.6914V17.9688C19.6914 18.0352 19.7135 18.1016 19.7578 18.168C19.8021 18.2344 19.8242 18.3008 19.8242 18.3672C19.8906 18.4336 19.9349 18.5 19.957 18.5664C19.9792 18.6328 20.0234 18.6992 20.0898 18.7656L20.2891 18.9648ZM31.2793 3.6582C31.5007 3.74674 31.7109 3.89062 31.9102 4.08984C32.043 4.28906 32.1647 4.49935 32.2754 4.7207C32.4082 4.91992 32.4746 5.16341 32.4746 5.45117V32.2461C32.4746 32.3789 32.4635 32.5117 32.4414 32.6445C32.4193 32.7773 32.3307 32.9102 32.1758 33.043C32.043 33.1758 31.9102 33.2865 31.7773 33.375C31.6445 33.4414 31.5117 33.4746 31.3789 33.4746H24.8379C24.7051 33.4746 24.5723 33.4414 24.4395 33.375C24.3066 33.2865 24.1738 33.1758 24.041 33.043C23.8861 32.9102 23.7754 32.7773 23.709 32.6445C23.6426 32.5117 23.6094 32.3789 23.6094 32.2461V19.1641H25.2363C25.3913 19.1641 25.5462 19.1309 25.7012 19.0645C25.8783 18.998 26 18.8984 26.0664 18.7656C26.1328 18.6328 26.1882 18.5 26.2324 18.3672C26.2988 18.2344 26.332 18.1016 26.332 17.9688V3.52539H30.5488C30.8366 3.52539 31.0801 3.56966 31.2793 3.6582ZM39.8109 18.5L40.0101 18.8984L40.4086 19.0977C40.5414 19.1419 40.6742 19.1641 40.807 19.1641H42.3344V32.2461C42.3344 32.3789 42.3122 32.5117 42.268 32.6445C42.2458 32.7773 42.1684 32.9102 42.0355 33.043C41.9027 33.1758 41.7699 33.2865 41.6371 33.375C41.5043 33.4414 41.3715 33.4746 41.2387 33.4746H34.6976C34.5648 33.4746 34.432 33.4414 34.2992 33.375C34.1664 33.2865 34.0336 33.1758 33.9008 33.043L33.7016 32.6445C33.6351 32.5117 33.6019 32.3789 33.6019 32.2461V5.45117C33.6019 5.16341 33.6462 4.91992 33.7348 4.7207C33.8233 4.49935 33.9672 4.28906 34.1664 4.08984C34.3656 3.89062 34.5648 3.74674 34.7641 3.6582C34.9854 3.56966 35.24 3.52539 35.5277 3.52539H39.7445V17.9688C39.7445 18.168 39.7667 18.3451 39.8109 18.5ZM60.2035 19.0312C60.1371 19.0312 60.0707 19.0091 60.0043 18.9648L59.8051 18.7656C59.7387 18.6992 59.6944 18.6328 59.6723 18.5664C59.6501 18.5 59.6059 18.4336 59.5394 18.3672C59.5394 18.3008 59.5173 18.2344 59.473 18.168C59.4288 18.1016 59.4066 18.0352 59.4066 17.9688V3.52539H55.7211V17.9688C55.7211 18.1016 55.6879 18.2344 55.6215 18.3672C55.5772 18.5 55.5219 18.6328 55.4555 18.7656C55.3891 18.8984 55.2673 18.998 55.0902 19.0645C54.9131 19.1309 54.7582 19.1641 54.6254 19.1641H53.2641V32.2461C53.2641 32.3789 53.2973 32.5117 53.3637 32.6445C53.4301 32.7773 53.5407 32.9102 53.6957 33.043C53.8285 33.1758 53.9613 33.2865 54.0941 33.375C54.2269 33.4414 54.3598 33.4746 54.4926 33.4746H61.0336C61.1664 33.4746 61.2992 33.4414 61.432 33.375C61.5648 33.2865 61.6976 33.1758 61.8305 33.043C61.9633 32.9102 62.0629 32.7773 62.1293 32.6445C62.2178 32.5117 62.2621 32.3789 62.2621 32.2461V19.1641H60.7348H60.4691C60.3585 19.1419 60.2699 19.0977 60.2035 19.0312ZM70.9945 3.6582C71.2159 3.74674 71.4262 3.89062 71.6254 4.08984C71.7582 4.28906 71.8799 4.49935 71.9906 4.7207C72.1234 4.91992 72.1898 5.16341 72.1898 5.45117V32.2461C72.1898 32.3789 72.1788 32.5117 72.1566 32.6445C72.1345 32.7773 72.046 32.9102 71.891 33.043C71.7582 33.1758 71.6254 33.2865 71.4926 33.375C71.3598 33.4414 71.2269 33.4746 71.0941 33.4746H64.5531C64.4203 33.4746 64.2875 33.4414 64.1547 33.375C64.0219 33.2865 63.8891 33.1758 63.7562 33.043C63.6013 32.9102 63.4906 32.7773 63.4242 32.6445C63.3578 32.5117 63.3246 32.3789 63.3246 32.2461V19.1641H64.9516C65.1065 19.1641 65.2614 19.1309 65.4164 19.0645C65.5935 18.998 65.7152 18.8984 65.7816 18.7656C65.848 18.6328 65.9034 18.5 65.9476 18.3672C66.0141 18.2344 66.0473 18.1016 66.0473 17.9688V3.52539H70.2641C70.5518 3.52539 70.7953 3.56966 70.9945 3.6582ZM50.0043 18.9648C50.0707 19.0091 50.1371 19.0312 50.2035 19.0312C50.2699 19.0977 50.3585 19.1419 50.4691 19.1641H50.7348H52.2621V32.2461C52.2621 32.3789 52.2178 32.5117 52.1293 32.6445C52.0629 32.7773 51.9633 32.9102 51.8305 33.043C51.6976 33.1758 51.5648 33.2865 51.432 33.375C51.2992 33.4414 51.1664 33.4746 51.0336 33.4746H44.4926C44.3598 33.4746 44.2269 33.4414 44.0941 33.375C43.9613 33.2865 43.8285 33.1758 43.6957 33.043C43.5407 32.9102 43.4301 32.7773 43.3637 32.6445C43.2973 32.5117 43.2641 32.3789 43.2641 32.2461V19.1641H44.6254C44.7582 19.1641 44.9131 19.1309 45.0902 19.0645C45.2673 18.998 45.3891 18.8984 45.4555 18.7656C45.5219 18.6328 45.5772 18.5 45.6215 18.3672C45.6879 18.2344 45.7211 18.1016 45.7211 17.9688V3.52539H49.4066V17.9688C49.4066 18.0352 49.4288 18.1016 49.473 18.168C49.5173 18.2344 49.5394 18.3008 49.5394 18.3672C49.6059 18.4336 49.6501 18.5 49.6723 18.5664C49.6944 18.6328 49.7387 18.6992 49.8051 18.7656L50.0043 18.9648Z" fill="url(#paint0_linear_231_14299)"/>
<rect y="41" width="16.9351" height="16.9351" rx="2" fill="white" fill-opacity="0.2"/>
<path d="M11.459 46.1121C11.459 47.7649 10.12 49.105 8.46702 49.105C6.81405 49.105 5.47508 47.765 5.47508 46.1121C5.47508 44.4602 6.81405 43.1201 8.46702 43.1201C10.12 43.1201 11.459 44.4601 11.459 46.1121Z" fill="url(#paint1_linear_231_14299)"/>
<path d="M10.1219 49.2778H6.81314C4.62488 49.2778 2.84983 51.0519 2.84983 53.2401V55.8148H14.0852V53.2401C14.0842 51.0519 12.3112 49.2778 10.1219 49.2778V49.2778Z" fill="url(#paint2_linear_231_14299)"/>
<rect x="19.1931" y="41" width="16.9351" height="16.9351" rx="2" fill="white" fill-opacity="0.2"/>
<path d="M30.652 46.1121C30.652 47.7649 29.3131 49.105 27.6601 49.105C26.0071 49.105 24.6682 47.765 24.6682 46.1121C24.6682 44.4602 26.0071 43.1201 27.6601 43.1201C29.3131 43.1201 30.652 44.4601 30.652 46.1121Z" fill="url(#paint3_linear_231_14299)"/>
<path d="M29.315 49.2778H26.0062C23.8179 49.2778 22.0429 51.0519 22.0429 53.2401V55.8148H33.2783V53.2401C33.2773 51.0519 31.5042 49.2778 29.315 49.2778V49.2778Z" fill="url(#paint4_linear_231_14299)"/>
<rect x="38.3861" y="41" width="16.9351" height="16.9351" rx="2" fill="white" fill-opacity="0.2"/>
<path d="M49.8451 46.1121C49.8451 47.7649 48.5061 49.105 46.8531 49.105C45.2002 49.105 43.8612 47.765 43.8612 46.1121C43.8612 44.4602 45.2002 43.1201 46.8531 43.1201C48.5061 43.1201 49.8451 44.4601 49.8451 46.1121Z" fill="url(#paint5_linear_231_14299)"/>
<path d="M48.508 49.2778H45.1993C43.011 49.2778 41.236 51.0519 41.236 53.2401V55.8148H52.4714V53.2401C52.4704 51.0519 50.6973 49.2778 48.508 49.2778V49.2778Z" fill="url(#paint6_linear_231_14299)"/>
<rect x="57.5792" y="41" width="16.9351" height="16.9351" rx="2" fill="white" fill-opacity="0.2"/>
<path d="M69.0382 46.1121C69.0382 47.7649 67.6992 49.105 66.0462 49.105C64.3933 49.105 63.0543 47.765 63.0543 46.1121C63.0543 44.4602 64.3933 43.1201 66.0462 43.1201C67.6992 43.1201 69.0382 44.4601 69.0382 46.1121Z" fill="url(#paint7_linear_231_14299)"/>
<path d="M67.7011 49.2778H64.3923C62.2041 49.2778 60.429 51.0519 60.429 53.2401V55.8148H71.6644V53.2401C71.6634 51.0519 69.8904 49.2778 67.7011 49.2778V49.2778Z" fill="url(#paint8_linear_231_14299)"/>
<defs>
<linearGradient id="paint0_linear_231_14299" x1="72.1898" y1="18.7723" x2="3.88672" y2="18.7723" gradientUnits="userSpaceOnUse">
<stop stop-color="#FF9675"/>
<stop offset="1" stop-color="#F888B5"/>
</linearGradient>
<linearGradient id="paint1_linear_231_14299" x1="11.459" y1="46.167" x2="5.47508" y2="46.167" gradientUnits="userSpaceOnUse">
<stop stop-color="#B318C2"/>
<stop offset="1" stop-color="#744AE6"/>
</linearGradient>
<linearGradient id="paint2_linear_231_14299" x1="14.0852" y1="52.6057" x2="2.84983" y2="52.6057" gradientUnits="userSpaceOnUse">
<stop stop-color="#B318C2"/>
<stop offset="1" stop-color="#744AE6"/>
</linearGradient>
<linearGradient id="paint3_linear_231_14299" x1="30.652" y1="46.167" x2="24.6682" y2="46.167" gradientUnits="userSpaceOnUse">
<stop stop-color="#B318C2"/>
<stop offset="1" stop-color="#744AE6"/>
</linearGradient>
<linearGradient id="paint4_linear_231_14299" x1="33.2783" y1="52.6057" x2="22.0429" y2="52.6057" gradientUnits="userSpaceOnUse">
<stop stop-color="#B318C2"/>
<stop offset="1" stop-color="#744AE6"/>
</linearGradient>
<linearGradient id="paint5_linear_231_14299" x1="49.8451" y1="46.167" x2="43.8612" y2="46.167" gradientUnits="userSpaceOnUse">
<stop stop-color="#B318C2"/>
<stop offset="1" stop-color="#744AE6"/>
</linearGradient>
<linearGradient id="paint6_linear_231_14299" x1="52.4714" y1="52.6057" x2="41.236" y2="52.6057" gradientUnits="userSpaceOnUse">
<stop stop-color="#B318C2"/>
<stop offset="1" stop-color="#744AE6"/>
</linearGradient>
<linearGradient id="paint7_linear_231_14299" x1="69.0382" y1="46.167" x2="63.0543" y2="46.167" gradientUnits="userSpaceOnUse">
<stop stop-color="#B318C2"/>
<stop offset="1" stop-color="#744AE6"/>
</linearGradient>
<linearGradient id="paint8_linear_231_14299" x1="71.6644" y1="52.6057" x2="60.429" y2="52.6057" gradientUnits="userSpaceOnUse">
<stop stop-color="#B318C2"/>
<stop offset="1" stop-color="#744AE6"/>
</linearGradient>
</defs>
</svg>
