<svg width="75" height="58" viewBox="0 0 75 58" fill="none" xmlns="http://www.w3.org/2000/svg">
<g clip-path="url(#clip0_234_13771)">
<rect x="24" y="15.4673" width="27" height="27" rx="2" fill="white" fill-opacity="0.2"/>
<path d="M31.8508 29.2526C31.8033 29.1575 31.7557 29.0623 31.7081 28.9672C31.6764 28.8562 31.6605 28.7293 31.6605 28.5866V18.2397H28.6397C28.4336 18.2397 28.2512 18.2715 28.0927 18.3349C27.9499 18.3983 27.8072 18.5014 27.6645 18.6441C27.5218 18.7868 27.4187 18.9375 27.3553 19.096C27.2919 19.2388 27.2601 19.4132 27.2601 19.6193V38.8146C27.2601 38.9097 27.2839 39.0048 27.3315 39.1C27.3791 39.1951 27.4266 39.2903 27.4742 39.3854C27.5694 39.4806 27.6645 39.5598 27.7597 39.6233C27.8548 39.6709 27.9499 39.6946 28.0451 39.6946H32.7309C32.8261 39.6946 32.9212 39.6709 33.0163 39.6233C33.1115 39.5598 33.2066 39.4806 33.3018 39.3854C33.3969 39.2903 33.4524 39.1951 33.4683 39.1C33.5 39.0048 33.5158 38.9097 33.5158 38.8146V29.4429H32.4217C32.3265 29.4429 32.2314 29.4271 32.1363 29.3953C32.0411 29.3478 31.946 29.3002 31.8508 29.2526ZM39.1531 29.3478C39.1055 29.3478 39.058 29.3319 39.0104 29.3002C38.9628 29.2526 38.9152 29.2051 38.8677 29.1575C38.8201 29.1099 38.7884 29.0623 38.7725 29.0148C38.7567 28.9672 38.725 28.9196 38.6774 28.872C38.6774 28.8245 38.6615 28.7769 38.6298 28.7293C38.5981 28.6818 38.5822 28.6342 38.5822 28.5866V18.2397H35.942V28.5866C35.942 28.6818 35.9182 28.7769 35.8706 28.872C35.8389 28.9672 35.7993 29.0623 35.7517 29.1575C35.7041 29.2526 35.6169 29.324 35.4901 29.3716C35.3632 29.4191 35.2522 29.4429 35.1571 29.4429H34.1818V38.8146C34.1818 38.9097 34.2056 39.0048 34.2532 39.1C34.3008 39.1951 34.3801 39.2903 34.4911 39.3854C34.5862 39.4806 34.6814 39.5598 34.7765 39.6233C34.8716 39.6709 34.9668 39.6946 35.0619 39.6946H39.7478C39.8429 39.6946 39.938 39.6709 40.0332 39.6233C40.1283 39.5598 40.2235 39.4806 40.3186 39.3854C40.4138 39.2903 40.4851 39.1951 40.5327 39.1C40.5961 39.0048 40.6278 38.9097 40.6278 38.8146V29.4429H39.5337C39.4861 29.4429 39.4227 29.4429 39.3434 29.4429C39.2641 29.4271 39.2007 29.3953 39.1531 29.3478ZM47.3355 18.6441C47.1927 18.5014 47.0421 18.3983 46.8835 18.3349C46.7408 18.2715 46.5664 18.2397 46.3602 18.2397H43.3394V28.5866C43.3394 28.6818 43.3156 28.7769 43.2681 28.872C43.2364 28.9672 43.1967 29.0623 43.1491 29.1575C43.1016 29.2526 43.0143 29.324 42.8875 29.3716C42.7765 29.4191 42.6655 29.4429 42.5545 29.4429H41.389V38.8146C41.389 38.9097 41.4128 39.0048 41.4603 39.1C41.5079 39.1951 41.5872 39.2903 41.6982 39.3854C41.7933 39.4806 41.8885 39.5598 41.9836 39.6233C42.0788 39.6709 42.1739 39.6946 42.2691 39.6946H46.9549C47.05 39.6946 47.1452 39.6709 47.2403 39.6233C47.3355 39.5598 47.4306 39.4806 47.5257 39.3854C47.6367 39.2903 47.7002 39.1951 47.716 39.1C47.7319 39.0048 47.7398 38.9097 47.7398 38.8146V19.6193C47.7398 19.4132 47.6922 19.2388 47.5971 19.096C47.5178 18.9375 47.4306 18.7868 47.3355 18.6441Z" fill="url(#paint0_linear_234_13771)"/>
<path d="M16.9082 26.5551C16.9082 28.0187 15.7226 29.2053 14.2589 29.2053C12.7952 29.2053 11.6096 28.0188 11.6096 26.5551C11.6096 25.0924 12.7952 23.9058 14.2589 23.9058C15.7226 23.9058 16.9082 25.0923 16.9082 26.5551Z" fill="url(#paint1_linear_234_13771)"/>
<path d="M15.7243 29.3584H12.7944C10.8567 29.3584 9.28496 30.9293 9.28496 32.867V35.1468H19.2338V32.867C19.2329 30.9293 17.6629 29.3584 15.7243 29.3584V29.3584Z" fill="url(#paint2_linear_234_13771)"/>
<path d="M40.1489 3.11026C40.1489 4.57385 38.9632 5.76048 37.4995 5.76048C36.0359 5.76048 34.8502 4.57396 34.8502 3.11026C34.8502 1.64755 36.0359 0.460938 37.4995 0.460938C38.9632 0.460938 40.1489 1.64746 40.1489 3.11026Z" fill="url(#paint3_linear_234_13771)"/>
<path d="M38.9649 5.91357H36.0351C34.0974 5.91357 32.5256 7.48448 32.5256 9.42213V11.702H42.4744V9.42213C42.4735 7.48446 40.9035 5.91357 38.9649 5.91357V5.91357Z" fill="url(#paint4_linear_234_13771)"/>
<path d="M40.1489 48.8817C40.1489 50.3453 38.9632 51.532 37.4996 51.532C36.0359 51.532 34.8502 50.3454 34.8502 48.8817C34.8502 47.419 36.0359 46.2324 37.4996 46.2324C38.9632 46.2324 40.1489 47.4189 40.1489 48.8817Z" fill="url(#paint5_linear_234_13771)"/>
<path d="M38.9649 51.6851H36.0351C34.0974 51.6851 32.5256 53.256 32.5256 55.1936V57.4734H42.4744V55.1936C42.4735 53.2559 40.9035 51.6851 38.9649 51.6851V51.6851Z" fill="url(#paint6_linear_234_13771)"/>
<path d="M63.3895 26.5551C63.3895 28.0187 62.2039 29.2053 60.7402 29.2053C59.2765 29.2053 58.0909 28.0188 58.0909 26.5551C58.0909 25.0924 59.2765 23.9058 60.7402 23.9058C62.2039 23.9058 63.3895 25.0923 63.3895 26.5551Z" fill="url(#paint7_linear_234_13771)"/>
<path d="M62.2056 29.3584H59.2757C57.338 29.3584 55.7662 30.9293 55.7662 32.867V35.1468H65.715V32.867C65.7142 30.9293 64.1441 29.3584 62.2056 29.3584V29.3584Z" fill="url(#paint8_linear_234_13771)"/>
</g>
<defs>
<linearGradient id="paint0_linear_234_13771" x1="47.7398" y1="29.1623" x2="27.2601" y2="29.1623" gradientUnits="userSpaceOnUse">
<stop stop-color="#FF9675"/>
<stop offset="1" stop-color="#F888B5"/>
</linearGradient>
<linearGradient id="paint1_linear_234_13771" x1="16.9082" y1="26.6037" x2="11.6096" y2="26.6037" gradientUnits="userSpaceOnUse">
<stop stop-color="#B318C2"/>
<stop offset="1" stop-color="#744AE6"/>
</linearGradient>
<linearGradient id="paint2_linear_234_13771" x1="19.2338" y1="32.3052" x2="9.28496" y2="32.3052" gradientUnits="userSpaceOnUse">
<stop stop-color="#B318C2"/>
<stop offset="1" stop-color="#744AE6"/>
</linearGradient>
<linearGradient id="paint3_linear_234_13771" x1="40.1489" y1="3.15889" x2="34.8502" y2="3.15889" gradientUnits="userSpaceOnUse">
<stop stop-color="#B318C2"/>
<stop offset="1" stop-color="#744AE6"/>
</linearGradient>
<linearGradient id="paint4_linear_234_13771" x1="42.4744" y1="8.86039" x2="32.5256" y2="8.86039" gradientUnits="userSpaceOnUse">
<stop stop-color="#B318C2"/>
<stop offset="1" stop-color="#744AE6"/>
</linearGradient>
<linearGradient id="paint5_linear_234_13771" x1="40.1489" y1="48.9304" x2="34.8502" y2="48.9304" gradientUnits="userSpaceOnUse">
<stop stop-color="#B318C2"/>
<stop offset="1" stop-color="#744AE6"/>
</linearGradient>
<linearGradient id="paint6_linear_234_13771" x1="42.4744" y1="54.6319" x2="32.5256" y2="54.6319" gradientUnits="userSpaceOnUse">
<stop stop-color="#B318C2"/>
<stop offset="1" stop-color="#744AE6"/>
</linearGradient>
<linearGradient id="paint7_linear_234_13771" x1="63.3895" y1="26.6037" x2="58.0909" y2="26.6037" gradientUnits="userSpaceOnUse">
<stop stop-color="#B318C2"/>
<stop offset="1" stop-color="#744AE6"/>
</linearGradient>
<linearGradient id="paint8_linear_234_13771" x1="65.715" y1="32.3052" x2="55.7662" y2="32.3052" gradientUnits="userSpaceOnUse">
<stop stop-color="#B318C2"/>
<stop offset="1" stop-color="#744AE6"/>
</linearGradient>
<clipPath id="clip0_234_13771">
<rect width="75" height="57.9351" fill="white"/>
</clipPath>
</defs>
</svg>
