<svg width="75" height="58" viewBox="0 0 75 58" fill="none" xmlns="http://www.w3.org/2000/svg">
<path d="M27.1165 9.1359C27.1165 11.6905 25.0471 13.7617 22.4923 13.7617C19.9376 13.7617 17.8682 11.6907 17.8682 9.1359C17.8682 6.58285 19.9376 4.51172 22.4923 4.51172C25.0471 4.51172 27.1165 6.5827 27.1165 9.1359Z" fill="url(#paint0_linear_231_14335)"/>
<path d="M25.0501 14.0288H19.9362C16.5541 14.0288 13.8107 16.7707 13.8107 20.1527V24.132H31.1755V20.1527C31.174 16.7707 28.4337 14.0288 25.0501 14.0288V14.0288Z" fill="url(#paint1_linear_231_14335)"/>
<path d="M57.1165 9.1359C57.1165 11.6905 55.0471 13.7617 52.4923 13.7617C49.9376 13.7617 47.8682 11.6907 47.8682 9.1359C47.8682 6.58285 49.9376 4.51172 52.4923 4.51172C55.0471 4.51172 57.1165 6.5827 57.1165 9.1359Z" fill="url(#paint2_linear_231_14335)"/>
<path d="M55.0501 14.0288H49.9362C46.5541 14.0288 43.8107 16.7707 43.8107 20.1527V24.132H61.1755V20.1527C61.174 16.7707 58.4337 14.0288 55.0501 14.0288V14.0288Z" fill="url(#paint3_linear_231_14335)"/>
<rect x="8" y="27" width="62" height="31" rx="4" fill="white" fill-opacity="0.2"/>
<path fill-rule="evenodd" clip-rule="evenodd" d="M16.3458 42.4999L16.5105 42.8337L16.8398 43.0006C16.9496 43.0377 17.0594 43.0563 17.1692 43.0563H18.4318V54.0169C18.4318 54.1282 18.4135 54.2395 18.3769 54.3507C18.3586 54.462 18.2946 54.5733 18.1848 54.6846C18.075 54.7958 17.9652 54.8886 17.8554 54.9627C17.7456 55.0184 17.6358 55.0462 17.526 55.0462H12.1188C12.009 55.0462 11.8992 55.0184 11.7894 54.9627C11.6796 54.8886 11.5698 54.7958 11.46 54.6846L11.2954 54.3507C11.2405 54.2395 11.213 54.1282 11.213 54.0169V31.5671C11.213 31.326 11.2496 31.122 11.3228 30.9551C11.396 30.7696 11.5149 30.5934 11.6796 30.4265C11.8443 30.2596 12.009 30.1391 12.1737 30.0649C12.3567 29.9907 12.5671 29.9536 12.805 29.9536H16.2909V42.0548C16.2909 42.2217 16.3092 42.3701 16.3458 42.4999ZM24.7723 42.8894C24.8272 42.9265 24.8821 42.945 24.937 42.945C24.9919 43.0006 25.0651 43.0377 25.1566 43.0563H25.3761H26.6387V54.0169C26.6387 54.1282 26.6021 54.2395 26.5289 54.3507C26.4741 54.462 26.3917 54.5733 26.2819 54.6846C26.1721 54.7958 26.0623 54.8886 25.9525 54.9627C25.8428 55.0184 25.733 55.0462 25.6232 55.0462H20.2159C20.1061 55.0462 19.9963 55.0184 19.8866 54.9627C19.7768 54.8886 19.667 54.7958 19.5572 54.6846C19.4291 54.5733 19.3376 54.462 19.2827 54.3507C19.2278 54.2395 19.2004 54.1282 19.2004 54.0169V43.0563H20.3257C20.4355 43.0563 20.5636 43.0285 20.71 42.9728C20.8564 42.9172 20.957 42.8337 21.0119 42.7225C21.0668 42.6112 21.1126 42.4999 21.1492 42.3886C21.2041 42.2774 21.2315 42.1661 21.2315 42.0548V29.9536H24.2782V42.0548C24.2782 42.1104 24.2965 42.1661 24.3331 42.2217C24.3697 42.2774 24.388 42.333 24.388 42.3886C24.4429 42.4443 24.4795 42.4999 24.4978 42.5555C24.5161 42.6112 24.5527 42.6668 24.6076 42.7225L24.7723 42.8894ZM33.8575 30.0649C34.0405 30.1391 34.2144 30.2596 34.3791 30.4265C34.4888 30.5934 34.5895 30.7696 34.681 30.9551C34.7908 31.122 34.8457 31.326 34.8457 31.5671V54.0169C34.8457 54.1282 34.8365 54.2395 34.8182 54.3507C34.7999 54.462 34.7267 54.5733 34.5986 54.6846C34.4888 54.7958 34.3791 54.8886 34.2693 54.9627C34.1595 55.0184 34.0497 55.0462 33.9399 55.0462H28.5326C28.4229 55.0462 28.3131 55.0184 28.2033 54.9627C28.0935 54.8886 27.9837 54.7958 27.8739 54.6846C27.7458 54.5733 27.6543 54.462 27.5994 54.3507C27.5445 54.2395 27.5171 54.1282 27.5171 54.0169V43.0563H28.862C28.9901 43.0563 29.1182 43.0285 29.2463 42.9728C29.3927 42.9172 29.4933 42.8337 29.5482 42.7225C29.6031 42.6112 29.6489 42.4999 29.6855 42.3886C29.7404 42.2774 29.7678 42.1661 29.7678 42.0548V29.9536H33.2537C33.4916 29.9536 33.6929 29.9907 33.8575 30.0649ZM40.9104 42.4999L41.075 42.8337L41.4044 43.0006C41.5142 43.0377 41.624 43.0563 41.7338 43.0563H42.9964V54.0169C42.9964 54.1282 42.9781 54.2395 42.9415 54.3507C42.9232 54.462 42.8592 54.5733 42.7494 54.6846C42.6396 54.7958 42.5298 54.8886 42.42 54.9627C42.3102 55.0184 42.2004 55.0462 42.0906 55.0462H36.6834C36.5736 55.0462 36.4638 55.0184 36.354 54.9627C36.2442 54.8886 36.1344 54.7958 36.0246 54.6846L35.8599 54.3507C35.805 54.2395 35.7776 54.1282 35.7776 54.0169V31.5671C35.7776 31.326 35.8142 31.122 35.8874 30.9551C35.9606 30.7696 36.0795 30.5934 36.2442 30.4265C36.4089 30.2596 36.5736 30.1391 36.7383 30.0649C36.9213 29.9907 37.1317 29.9536 37.3696 29.9536H40.8555V42.0548C40.8555 42.2217 40.8738 42.3701 40.9104 42.4999ZM57.7682 42.945C57.7133 42.945 57.6584 42.9265 57.6035 42.8894L57.4389 42.7225C57.384 42.6668 57.3474 42.6112 57.3291 42.5555C57.3108 42.4999 57.2742 42.4443 57.2193 42.3886C57.2193 42.333 57.201 42.2774 57.1644 42.2217C57.1278 42.1661 57.1095 42.1104 57.1095 42.0548V29.9536H54.0628V42.0548C54.0628 42.1661 54.0353 42.2774 53.9804 42.3886C53.9438 42.4999 53.8981 42.6112 53.8432 42.7225C53.7883 42.8337 53.6876 42.9172 53.5412 42.9728C53.3949 43.0285 53.2668 43.0563 53.157 43.0563H52.0316V54.0169C52.0316 54.1282 52.0591 54.2395 52.114 54.3507C52.1688 54.462 52.2603 54.5733 52.3884 54.6846C52.4982 54.7958 52.608 54.8886 52.7178 54.9627C52.8276 55.0184 52.9374 55.0462 53.0472 55.0462H58.4544C58.5642 55.0462 58.674 55.0184 58.7838 54.9627C58.8936 54.8886 59.0034 54.7958 59.1132 54.6846C59.223 54.5733 59.3053 54.462 59.3602 54.3507C59.4334 54.2395 59.47 54.1282 59.47 54.0169V43.0563H58.2074H57.9878C57.8963 43.0377 57.8231 43.0006 57.7682 42.945ZM66.6888 30.0649C66.8718 30.1391 67.0456 30.2596 67.2103 30.4265C67.3201 30.5934 67.4207 30.7696 67.5122 30.9551C67.622 31.122 67.6769 31.326 67.6769 31.5671V54.0169C67.6769 54.1282 67.6678 54.2395 67.6495 54.3507C67.6312 54.462 67.558 54.5733 67.4299 54.6846C67.3201 54.7958 67.2103 54.8886 67.1005 54.9627C66.9907 55.0184 66.8809 55.0462 66.7711 55.0462H61.3639C61.2541 55.0462 61.1443 55.0184 61.0345 54.9627C60.9247 54.8886 60.8149 54.7958 60.7052 54.6846C60.5771 54.5733 60.4856 54.462 60.4307 54.3507C60.3758 54.2395 60.3483 54.1282 60.3483 54.0169V43.0563H61.6933C61.8214 43.0563 61.9495 43.0285 62.0775 42.9728C62.2239 42.9172 62.3246 42.8337 62.3795 42.7225C62.4344 42.6112 62.4801 42.4999 62.5167 42.3886C62.5716 42.2774 62.5991 42.1661 62.5991 42.0548V29.9536H66.0849C66.3228 29.9536 66.5241 29.9907 66.6888 30.0649ZM49.3369 42.8894C49.3918 42.9265 49.4467 42.945 49.5016 42.945C49.5565 43.0006 49.6296 43.0377 49.7211 43.0563H49.9407H51.2033V54.0169C51.2033 54.1282 51.1667 54.2395 51.0935 54.3507C51.0386 54.462 50.9563 54.5733 50.8465 54.6846C50.7367 54.7958 50.6269 54.8886 50.5171 54.9627C50.4073 55.0184 50.2975 55.0462 50.1878 55.0462H44.7805C44.6707 55.0462 44.5609 55.0184 44.4511 54.9627C44.3414 54.8886 44.2316 54.7958 44.1218 54.6846C43.9937 54.5733 43.9022 54.462 43.8473 54.3507C43.7924 54.2395 43.7649 54.1282 43.7649 54.0169V43.0563H44.8903C45.0001 43.0563 45.1282 43.0285 45.2746 42.9728C45.421 42.9172 45.5216 42.8337 45.5765 42.7225C45.6314 42.6112 45.6771 42.4999 45.7137 42.3886C45.7686 42.2774 45.7961 42.1661 45.7961 42.0548V29.9536H48.8428V42.0548C48.8428 42.1104 48.8611 42.1661 48.8977 42.2217C48.9343 42.2774 48.9526 42.333 48.9526 42.3886C49.0075 42.4443 49.0441 42.4999 49.0624 42.5555C49.0807 42.6112 49.1173 42.6668 49.1722 42.7225L49.3369 42.8894Z" fill="url(#paint4_linear_231_14335)"/>
<defs>
<linearGradient id="paint0_linear_231_14335" x1="27.1165" y1="9.22079" x2="17.8682" y2="9.22079" gradientUnits="userSpaceOnUse">
<stop stop-color="#FF9675"/>
<stop offset="1" stop-color="#F888B5"/>
</linearGradient>
<linearGradient id="paint1_linear_231_14335" x1="31.1755" y1="19.1722" x2="13.8107" y2="19.1722" gradientUnits="userSpaceOnUse">
<stop stop-color="#FF9675"/>
<stop offset="1" stop-color="#F888B5"/>
</linearGradient>
<linearGradient id="paint2_linear_231_14335" x1="57.1165" y1="9.22079" x2="47.8682" y2="9.22079" gradientUnits="userSpaceOnUse">
<stop stop-color="#B318C2"/>
<stop offset="1" stop-color="#744AE6"/>
</linearGradient>
<linearGradient id="paint3_linear_231_14335" x1="61.1755" y1="19.1722" x2="43.8107" y2="19.1722" gradientUnits="userSpaceOnUse">
<stop stop-color="#B318C2"/>
<stop offset="1" stop-color="#744AE6"/>
</linearGradient>
<linearGradient id="paint4_linear_231_14335" x1="67.6769" y1="42.728" x2="11.213" y2="42.728" gradientUnits="userSpaceOnUse">
<stop stop-color="#FF9675"/>
<stop offset="1" stop-color="#F888B5"/>
</linearGradient>
</defs>
</svg>
