<?xml version="1.0" encoding="UTF-8"?>
<svg xmlns="http://www.w3.org/2000/svg" viewBox="0 0 533.3 156.19">
  <defs>
    <style>
      .cls-1 {
        fill: none;
      }

      .cls-2 {
        fill: #f8e849;
      }

      .cls-3 {
        fill: #fff;
      }

      .cls-4 {
        fill: #fffae3;
      }

      .cls-5 {
        fill: #ffa5a7;
      }

      .cls-6 {
        fill: #fd8eb0;
      }

      .cls-7 {
        fill: #fbdd33;
      }

      .cls-8 {
        fill: #fda6a8;
      }

      .cls-9 {
        fill: #aae286;
      }

      .cls-10 {
        fill: #c4e9ff;
      }

      .cls-11 {
        fill: #4286b8;
      }

      .cls-12 {
        fill: #425d89;
      }

      .cls-13 {
        fill: #85e585;
      }

      .cls-14 {
        fill: #3c7490;
      }

      .cls-15 {
        fill: #2daff6;
      }

      .cls-16, .cls-17 {
        mix-blend-mode: multiply;
      }

      .cls-18, .cls-17 {
        opacity: .5;
      }

      .cls-19 {
        isolation: isolate;
      }
    </style>
  </defs>
  <g class="cls-19">
    <g id="Layer_2" data-name="Layer 2">
      <g id="Layer_1-2" data-name="Layer 1">
        <g>
          <g>
            <g class="cls-18">
              <path class="cls-13" d="M87.89,113.03c0,3.33-2.7,6.02-6.02,6.02s-6.02-2.7-6.02-6.02,2.7-6.02,6.02-6.02,6.02,2.7,6.02,6.02Z"/>
            </g>
            <path class="cls-9" d="M126.34,60.37c1.65-3.31,2.45-7.12,2.09-11.14-.88-9.91-8.93-17.92-18.85-18.76-2.82-.24-5.52,.09-8.03,.87,0-.07,.01-.14,.01-.22,0-8.14-7.05-14.64-15.38-13.71-6.19,.69-11.25,5.62-12.08,11.8-.28,2.1-.09,4.12,.48,5.97,.84,2.72-.56,5.67-3.3,6.46-9.37,2.71-16.7,10.66-16.7,20.33,0,5.53,2.12,10.56,5.56,14.36-3.9,3.54-6.23,8.78-5.77,14.57,.67,8.36,7.3,15.22,15.63,16.16,3.42,.39,6.67-.21,9.51-1.54,2.85-1.34,6.24-.87,8.59,1.23,5.49,4.9,12.93,7.66,21.01,6.96,13.62-1.19,24.49-12.42,25.28-26.06,.45-7.86-2.36-15.06-7.21-20.37-1.72-1.88-1.99-4.61-.85-6.89Z"/>
          </g>
          <g class="cls-16">
            <g class="cls-18">
              <path class="cls-13" d="M300.42,124.3h-.08c.2-.21,.41-.4,.62-.59,.45-.41,.91-.8,1.39-1.17,.07-.06,.14-.12,.21-.16-.01,.04-.01,.08-.02,.12-.11,.46-.37,.9-.75,1.23-.19,.16-.4,.29-.64,.39-.22,.1-.55,.16-.73,.18Z"/>
              <path class="cls-13" d="M435.79,155.4c0,.26-.03,.74-.04,.74h-141.56c-.03-.06-.07-.13-.1-.2-.04-.07-.08-.15-.11-.23-.05-.09-.09-.18-.14-.27-.01-.03-.03-.07-.05-.11-.05-.12-.11-.24-.17-.37v-.02c-.63-1.47-1.11-3.17-1.44-4.97-.32-1.76-.49-3.6-.49-5.39s.17-3.54,.49-5.24c.46-2.46,1.24-4.81,2.3-7,.11-.21,.21-.42,.33-.63,.1-.22,.21-.44,.34-.65l-.03,1.62-.31,19.64,23.12-.38,5.78-.09c1.92-.04,3.85-.05,5.78-.04h11.06s0-26.35,0-26.35c.17,.18,.33,.36,.5,.55,.17,.19,.33,.39,.5,.59,.76,.91,1.46,1.87,2.1,2.88,.18,.26,.34,.54,.5,.81,.17,.29,.34,.58,.5,.87,0,.01,.01,.01,.01,.02,1.09,2.01,3.37,2.92,5.54,2.46,.04,0,.09-.01,.14-.03,.04,0,.09-.02,.14-.04,.25-.05,.5-.14,.74-.24,2.33-.98,4.88-1.52,7.57-1.52,4.25,0,8.18,1.35,11.39,3.66,2.05,1.47,4.87,1.34,6.63-.46,3.84-3.93,9.18-6.37,15.11-6.37,.45,0,.9,.01,1.34,.05,.51,.02,1.02,.07,1.52,.14,6.33,.86,11.76,4.52,15.03,9.7,1.21,1.93,3.61,2.77,5.78,2.08,1.47-.47,3.04-.72,4.67-.72,8.57,0,15.53,6.93,15.53,15.51Z"/>
            </g>
            <g class="cls-18">
              <path class="cls-13" d="M181.51,156.14c1.55-3.87,2.44-7.13,2.5-10.92,.19-12.29-8.28-23.27-20.32-25.69-11.78-2.37-22.53,3.25-27.76,12.45-1.26,2.22-3.92,3.31-6.27,2.32-2.11-.89-4.42-1.38-6.84-1.38-3.85,0-7.42,1.21-10.34,3.29-1.92,1.37-4.57,1.12-6.24-.55-3.49-3.49-8.31-5.65-13.64-5.65-6.78,0-12.75,3.5-16.19,8.79-1.22,1.88-3.51,2.69-5.66,2.06-2.56-.75-5.41-.81-8.35,.07-5.79,1.74-9.66,7.22-9.81,13.26-.02,.96,0,.65,.05,1.95H181.51Z"/>
            </g>
            <g>
              <g>
                <rect class="cls-3" x="188" y="21.48" width="3.26" height="3.34"/>
                <path class="cls-14" d="M191.26,24.81c-.54,.21-1.09,.35-1.63,.5-.14,.03-.27-.01-.41,0h-1.22c-.28,0-.5-.22-.5-.5v-3.34c0-.28,.22-.5,.5-.5h3.26c.28,0,.5,.22,.5,.5v1.25c-.01,.14,.02,.28,0,.42-.15,.56-.3,1.11-.5,1.67Zm0,0c-.2-.56-.35-1.11-.5-1.67-.02-.14,.01-.28,0-.42v-1.25l.5,.5h-3.26l.5-.5v3.34l-.5-.5h1.22c.14,.01,.27-.03,.41,0,.54,.15,1.09,.29,1.63,.5Z"/>
              </g>
              <g>
                <rect class="cls-3" x="344.85" y="21.48" width="3.26" height="3.34"/>
                <path class="cls-14" d="M348.11,24.81c-.54,.21-1.09,.35-1.63,.5-.14,.03-.27-.01-.41,0h-1.22c-.28,0-.5-.22-.5-.5v-3.34c0-.28,.22-.5,.5-.5h3.26c.28,0,.5,.22,.5,.5v1.25c-.01,.14,.02,.28,0,.42-.15,.56-.3,1.11-.5,1.67Zm0,0c-.2-.56-.35-1.11-.5-1.67-.02-.14,.01-.28,0-.42v-1.25l.5,.5h-3.26l.5-.5v3.34l-.5-.5h1.22c.14,.01,.27-.03,.41,0,.54,.15,1.09,.29,1.63,.5Z"/>
              </g>
            </g>
            <g>
              <path class="cls-3" d="M163.88,38.1v118.04h186.46V38.1H163.88Zm131.33,95.23l.03-1.63,.13-8.26c.07-3.29,0-6.6,.03-9.89v-39.05h45.17v78.1h-11.04c-1.93-.02-3.85-.01-5.77,.03l-5.77,.09-23.08,.38,.31-19.78Zm5.27-27.82c-.23,0-.54,.05-.78,.13-.25,.08-.48,.21-.69,.36-.43,.31-.74,.77-.9,1.27-.08,.25-.11,.5-.11,.79,0,.23,.06,.54,.15,.78,.15,.44,.45,.84,.81,1.13v10.5c-.37,.29-.7,.68-.84,1.13-.09,.25-.13,.52-.14,.79,0,.23,.04,.53,.12,.79,.16,.5,.48,.96,.9,1.26,.22,.16,.45,.29,.7,.37,.24,.08,.45,.11,.72,.1h.08c.18-.02,.51-.08,.73-.18,.24-.1,.45-.23,.64-.39,.38-.33,.64-.78,.75-1.24,0-.04,0-.08,.02-.12,.03-.19,.04-.38,.02-.58-.02-.22-.07-.46-.17-.66-.1-.23-.24-.43-.41-.6-.07-.13-.12-.24-.12-.34v-3.89l.02-.28c.04-.46,.06-.92,.07-1.38-.02-.93-.09-1.85-.09-2.78v-2.46c.37-.29,.73-.69,.88-1.15,.08-.25,.12-.51,.13-.79,0-.23-.04-.52-.11-.78-.31-1.03-1.32-1.77-2.38-1.76Z"/>
              <path class="cls-14" d="M163.08,37.6v118.23h1.31c.06-.34,.16-.68,.28-1h-.59v.5l-.5-.5h.5V38.6h-.5l.5-.5v.5h185.76v-.5l.5,.5h-.5v28.81l.02,14.65,.1,14.66,.24,36.92,.14,21.69,.14-21.76,.25-36.85,.1-14.66v-14.65s.01-29.81,.01-29.81H163.08Z"/>
            </g>
            <g>
              <g>
                <path class="cls-3" d="M291.68,70.66v84.78h52.47V70.66h-52.47Zm3.44,62.02l.03-1.62,.13-8.2c.07-3.27,0-6.55,.03-9.82v-38.78h45.24v77.56h-11.06c-1.93-.02-3.86-.01-5.78,.03l-5.78,.09-23.12,.38,.31-19.64Zm5.28-27.63c-.23,0-.54,.05-.78,.13-.25,.08-.48,.21-.69,.36-.43,.31-.74,.76-.9,1.26-.08,.25-.11,.5-.11,.78,0,.23,.06,.54,.15,.77,.15,.44,.45,.83,.81,1.12v10.43c-.37,.29-.7,.68-.84,1.12-.09,.25-.13,.52-.14,.78,0,.23,.04,.53,.12,.78,.16,.5,.48,.95,.9,1.25,.22,.16,.45,.29,.7,.37,.24,.08,.45,.11,.72,.1h.08c.18-.02,.51-.08,.73-.18,.24-.1,.45-.23,.64-.39,.38-.33,.64-.77,.75-1.23,.01-.04,.01-.08,.02-.12,.03-.19,.04-.38,.02-.58-.02-.22-.07-.46-.17-.66-.1-.23-.24-.43-.41-.6-.07-.13-.12-.24-.12-.34v-3.86l.02-.28c.04-.46,.06-.91,.07-1.37-.02-.92-.09-1.84-.09-2.76v-2.44c.37-.29,.73-.69,.88-1.14,.08-.25,.12-.51,.13-.78,0-.23-.04-.52-.11-.77-.31-1.02-1.32-1.76-2.38-1.75Z"/>
                <path class="cls-14" d="M344.62,102.45l-.16-10.6-.31-21.19-.3,21.19-.16,10.6c-.03,1.77-.05,3.53-.05,5.3v5.3s.01,41.89,.01,41.89h.5l-.35,.35-.04,.04-.11,.11v-.5h-51.47v.5l-.5-.5h.5V71.16h-.5l.5-.5v.5h12.62c2.19,.01,4.37,.01,6.56-.02l6.56-.09,26.23-.39-26.23-.39-6.56-.1c-2.19-.03-4.37-.03-6.56-.02h-13.12s-.5,0-.5,0v85.78h53.47v-48.19c.01-1.77,0-3.53-.03-5.3Z"/>
              </g>
              <g>
                <path class="cls-3" d="M294.81,73.76v78.56l.31-19.64,.03-1.62,.13-8.2c.07-3.27,0-6.55,.03-9.82v-38.78h45.24v77.56h-11.06c-1.93-.02-3.86-.01-5.78,.03l-5.78,.09-23.12,.38h46.24V73.76h-46.24Zm5.59,31.29c-.23,0-.54,.05-.78,.13-.25,.08-.48,.21-.69,.36-.43,.31-.74,.76-.9,1.26-.08,.25-.11,.5-.11,.78,0,.23,.06,.54,.15,.77,.15,.44,.45,.83,.81,1.12v10.43c-.37,.29-.7,.68-.84,1.12-.09,.25-.13,.52-.14,.78,0,.23,.04,.53,.12,.78,.16,.5,.48,.95,.9,1.25,.22,.16,.45,.29,.7,.37,.24,.08,.45,.11,.72,.1h.08c.18-.02,.51-.08,.73-.18,.24-.1,.45-.23,.64-.39,.38-.33,.64-.77,.75-1.23,.01-.04,.01-.08,.02-.12,.03-.19,.04-.38,.02-.58-.02-.22-.07-.46-.17-.66-.1-.23-.24-.43-.41-.6-.07-.13-.12-.24-.12-.34v-3.86l.02-.28c.04-.46,.06-.91,.07-1.37-.02-.92-.09-1.84-.09-2.76v-2.44c.37-.29,.73-.69,.88-1.14,.08-.25,.12-.51,.13-.78,0-.23-.04-.52-.11-.77-.31-1.02-1.32-1.76-2.38-1.75Z"/>
                <g>
                  <path class="cls-14" d="M294.31,73.26v39.78c.01,3.27-.04,6.55,.02,9.82l.15,9.48v.34s.33,19.64,.33,19.64l.31-19.64,.03-1.62,.13-8.2c.07-3.27,0-6.55,.03-9.82v-38.78h-.5l.5-.5v.5h45.24v-.5l.5,.5h-.5v77.56h.5l-.5,.5v-.5h-11.06c-1.93-.02-3.86-.01-5.78,.03l-5.78,.09-23.12,.38,23.12,.37,5.78,.1c1.92,.04,3.85,.04,5.78,.03h12.06V73.26h-47.24Z"/>
                  <path class="cls-10" d="M295.31,74.26v38.78c-.02,3.27,.04,6.55-.03,9.82l-.13,8.2-.03,1.62-.31,19.64,23.12-.38,5.78-.09c1.92-.04,3.85-.05,5.78-.04h11.06s0-77.55,0-77.55h-45.24Zm7.23,48.24c-.11,.46-.37,.9-.75,1.23-.19,.16-.4,.29-.64,.39-.22,.1-.55,.16-.73,.18h-.08c-.27,.01-.48-.02-.72-.1-.25-.08-.48-.21-.7-.37-.42-.3-.74-.75-.9-1.25-.08-.25-.12-.55-.12-.78,.01-.26,.05-.53,.14-.78,.14-.44,.47-.83,.84-1.12v-10.43c-.36-.29-.66-.68-.81-1.12-.09-.23-.15-.54-.15-.77,0-.28,.03-.53,.11-.78,.16-.5,.47-.95,.9-1.26,.21-.15,.44-.28,.69-.36,.24-.08,.55-.13,.78-.13,1.06-.01,2.07,.73,2.38,1.75,.07,.25,.11,.54,.11,.77-.01,.27-.05,.53-.13,.78-.15,.45-.51,.85-.88,1.14v2.44c0,.92,.07,1.84,.09,2.76-.01,.46-.03,.91-.07,1.37l-.02,.28v3.86c0,.1,.05,.21,.12,.34,.17,.17,.31,.37,.41,.6,.1,.2,.15,.44,.17,.66,.02,.2,.01,.39-.02,.58-.01,.04-.01,.08-.02,.12Z"/>
                </g>
              </g>
              <g>
                <path class="cls-7" d="M302,120.54c.18,.35,.51,.79,.51,1.29,0,.25-.06,.49-.16,.71-.25,.55-.78,.99-1.39,1.17-.21,.07-.44,.11-.66,.11-1.1,0-2.08-.89-2.08-1.99,0-.68,.66-1.27,.66-1.63v-11.02c0-.36-.62-.96-.62-1.63,0-1.1,1.12-2,2.22-2s2.08,.9,2.08,2c0,.67-.68,1.27-.68,1.63v11.02c0,.1,.05,.21,.12,.34Z"/>
                <path class="cls-14" d="M302.76,108.35c.08-.25,.12-.51,.13-.78,0-.23-.04-.52-.11-.77-.31-1.02-1.32-1.76-2.38-1.75-.23,0-.54,.05-.78,.13-.25,.08-.48,.21-.69,.36-.43,.31-.74,.76-.9,1.26-.08,.25-.11,.5-.11,.78,0,.23,.06,.54,.15,.77,.15,.44,.45,.83,.81,1.12v10.43c-.37,.29-.7,.68-.84,1.12-.09,.25-.13,.52-.14,.78,0,.23,.04,.53,.12,.78,.16,.5,.48,.95,.9,1.25,.22,.16,.45,.29,.7,.37,.24,.08,.45,.11,.72,.1h.08c.18-.02,.51-.08,.73-.18,.24-.1,.45-.23,.64-.39,.38-.33,.64-.77,.75-1.23,.01-.04,.01-.08,.02-.12,.03-.19,.04-.38,.02-.58-.02-.22-.07-.46-.17-.66-.1-.23-.24-.43-.41-.6-.14-.13-.29-.25-.46-.34,.65,.55,.82,1.48,.52,2.15-.15,.34-.4,.62-.7,.79-.15,.08-.31,.15-.47,.18-.19,.03-.27,.03-.52,.02-.11-.02-.29-.07-.43-.11-.15-.04-.29-.11-.42-.2-.26-.18-.44-.46-.54-.75-.04-.16-.06-.28-.06-.47,0-.16,.04-.31,.09-.46,.1-.3,.34-.56,.59-.75l.28-.15v-11.53l-.28-.15c-.25-.18-.52-.45-.62-.74-.05-.17-.07-.28-.08-.48,.01-.13,.03-.31,.07-.45,.1-.3,.29-.57,.54-.75,.13-.1,.27-.17,.42-.22,.16-.05,.27-.07,.46-.08,.64,0,1.24,.44,1.42,1.05,.05,.15,.06,.28,.06,.46,0,.16-.05,.32-.1,.47-.1,.29-.34,.56-.6,.74l-.29,.15v3.01c0,.92,.09,1.84,.07,2.76,.01,.46,.15,.91,.19,1.37l.12,1.38c.08,.92,.17,1.84,.28,2.76,.11-.92,.18-1.84,.26-2.76l.08-1.1,.02-.28c.04-.46,.06-.91,.07-1.37-.02-.92-.09-1.84-.09-2.76v-2.44c.37-.29,.73-.69,.88-1.14Z"/>
              </g>
            </g>
            <g>
              <rect class="cls-3" x="163.34" y="31.69" width="187.24" height="3.44"/>
              <path class="cls-14" d="M350.58,31.69l-46.81,.5h-46.81s-93.62,0-93.62,0l.5-.5v3.44l-.5-.5h140.43s46.81,.46,46.81,.46l-.04,.04,.04-3.44Zm0,0l.04,3.44v.04s-.04,0-.04,0l-46.81,.47h-46.81s-93.62,0-93.62,0h-.5v-4.44h140.93s46.81,.5,46.81,.5Z"/>
            </g>
            <g>
              <rect class="cls-3" x="163.34" y="24.81" width="187.24" height="3.44"/>
              <path class="cls-14" d="M350.58,24.81l-46.81,.5h-46.81s-93.62,0-93.62,0l.5-.5v3.44l-.5-.5h140.43s46.81,.46,46.81,.46l-.04,.04,.04-3.44Zm0,0l.04,3.44v.04s-.04,0-.04,0l-46.81,.47h-46.81s-93.62,0-93.62,0h-.5v-4.44h140.93s46.81,.5,46.81,.5Z"/>
            </g>
            <g>
              <g>
                <path class="cls-3" d="M180.49,49.9c0,6.03,4.89,10.92,10.92,10.92h0c6.03,0,10.92-4.89,10.92-10.92v-6.81h-21.85v6.81Z"/>
                <path class="cls-14" d="M180.49,49.9c.03,.43,.04,.86,.1,1.28,.09,.42,.12,.85,.28,1.25,.13,.41,.26,.81,.45,1.19,.15,.39,.38,.76,.59,1.12,.44,.71,.96,1.37,1.53,1.96,.3,.28,.58,.58,.9,.83,.3,.28,.6,.55,.94,.79,.65,.49,1.38,.88,2.13,1.21,.76,.29,1.54,.55,2.36,.66,.4,.08,.81,.11,1.22,.12l.31,.02s.13,0,.13,0h.16s.64-.04,.64-.04c.44,0,.8-.11,1.2-.16,.39-.09,.79-.19,1.18-.31,.77-.27,1.53-.58,2.22-1.03,.71-.41,1.33-.95,1.93-1.5,.56-.59,1.1-1.22,1.51-1.92,.45-.68,.76-1.45,1.04-2.21,.13-.39,.21-.79,.32-1.18,.05-.41,.15-.81,.16-1.21,.06-.8,.04-1.67,.04-2.53v-5.14l.5,.5h-19.12c-.91,.03-1.82-.08-2.73-.12l.38-.38c-.07,1.14-.19,2.27-.25,3.41-.09,1.14-.12,2.27-.12,3.41Zm0,0c0-1.14-.03-2.27-.12-3.41-.06-1.14-.18-2.27-.25-3.41l-.02-.36,.4-.02c.91-.04,1.82-.15,2.73-.13h2.73s5.46,0,5.46,0h11.42v5.64c0,.86,.02,1.7-.05,2.61-.02,.45-.12,.89-.18,1.33-.11,.43-.2,.87-.35,1.3-.3,.84-.64,1.68-1.14,2.43-.46,.77-1.04,1.46-1.66,2.11-.65,.61-1.34,1.2-2.12,1.65-.75,.49-1.59,.83-2.43,1.13-.43,.13-.86,.24-1.3,.34-.45,.06-.92,.17-1.34,.17l-.64,.03h-.16c-.1,.01-.12,0-.19,0l-.34-.02c-.45-.01-.89-.05-1.34-.13-.89-.12-1.75-.4-2.58-.72-.82-.36-1.62-.78-2.33-1.32-.75-.49-1.39-1.14-1.93-1.86-.27-.35-.5-.74-.74-1.11-.19-.4-.42-.78-.57-1.19-.16-.41-.32-.82-.43-1.24-.14-.41-.22-.84-.3-1.27-.16-.85-.22-1.71-.24-2.56Z"/>
              </g>
              <g>
                <path class="cls-3" d="M224.19,49.9c0,6.03,4.89,10.92,10.92,10.92h0c6.03,0,10.92-4.89,10.92-10.92v-6.81h-21.85v6.81Z"/>
                <path class="cls-14" d="M224.19,49.9c.04,.43,.04,.86,.1,1.28,.09,.42,.12,.85,.28,1.25,.13,.41,.26,.81,.45,1.19,.15,.39,.38,.76,.59,1.12,.44,.71,.96,1.37,1.53,1.96,.3,.28,.58,.58,.9,.83,.3,.28,.6,.55,.94,.79,.65,.49,1.38,.88,2.13,1.21,.76,.29,1.54,.55,2.36,.66,.4,.08,.81,.11,1.22,.12l.31,.02s.13,0,.13,0h.16s.64-.04,.64-.04c.44,0,.8-.11,1.2-.16,.39-.09,.79-.19,1.18-.31,.77-.27,1.53-.58,2.22-1.03,.71-.41,1.33-.95,1.93-1.5,.56-.59,1.1-1.22,1.51-1.92,.45-.68,.77-1.45,1.04-2.21,.13-.39,.21-.79,.32-1.18,.05-.41,.14-.81,.16-1.21,.06-.8,.04-1.67,.04-2.53v-5.14l.5,.5h-19.12c-.91,.03-1.82-.08-2.73-.12l.38-.38c-.07,1.14-.19,2.27-.25,3.41-.09,1.14-.12,2.27-.12,3.41Zm0,0c0-1.14-.03-2.27-.12-3.41-.06-1.14-.18-2.27-.25-3.41l-.02-.36,.4-.02c.91-.04,1.82-.15,2.73-.13h2.73s5.46,0,5.46,0h11.42v5.64c0,.86,.02,1.7-.05,2.61-.02,.45-.12,.89-.18,1.33-.11,.43-.2,.87-.35,1.3-.3,.84-.65,1.68-1.14,2.43-.46,.77-1.04,1.46-1.66,2.11-.65,.61-1.34,1.2-2.12,1.65-.75,.49-1.59,.83-2.43,1.13-.43,.13-.86,.24-1.3,.34-.45,.06-.92,.17-1.34,.17l-.64,.03h-.16c-.1,.01-.12,0-.19,0l-.34-.02c-.45-.01-.89-.05-1.34-.13-.89-.12-1.75-.4-2.58-.72-.82-.36-1.62-.78-2.33-1.32-.75-.49-1.39-1.14-1.93-1.86-.27-.35-.5-.74-.74-1.11-.19-.4-.42-.78-.57-1.19-.16-.41-.32-.82-.43-1.24-.14-.41-.22-.84-.3-1.27-.16-.85-.22-1.71-.24-2.56Z"/>
              </g>
              <g>
                <path class="cls-3" d="M267.89,49.9c0,6.03,4.89,10.92,10.92,10.92h0c6.03,0,10.92-4.89,10.92-10.92v-6.81h-21.85v6.81Z"/>
                <path class="cls-14" d="M267.89,49.9c.03,.43,.04,.86,.1,1.28,.09,.42,.12,.85,.28,1.25,.13,.41,.26,.81,.45,1.19,.15,.39,.38,.76,.59,1.12,.44,.71,.96,1.37,1.53,1.96,.3,.28,.58,.58,.9,.83,.3,.28,.6,.55,.94,.79,.65,.49,1.38,.88,2.13,1.21,.76,.29,1.54,.55,2.36,.66,.4,.08,.81,.11,1.22,.12l.31,.02s.13,0,.13,0h.16s.64-.04,.64-.04c.44,0,.8-.11,1.2-.16,.39-.09,.79-.19,1.18-.31,.77-.27,1.53-.58,2.22-1.03,.71-.41,1.33-.95,1.93-1.5,.56-.59,1.1-1.22,1.51-1.92,.45-.68,.77-1.45,1.04-2.21,.13-.39,.21-.79,.32-1.18,.05-.41,.14-.81,.16-1.21,.06-.8,.04-1.67,.04-2.53v-5.14l.5,.5h-19.12c-.91,.03-1.82-.08-2.73-.12l.38-.38c-.07,1.14-.19,2.27-.25,3.41-.09,1.14-.12,2.27-.12,3.41Zm0,0c0-1.14-.03-2.27-.12-3.41-.06-1.14-.18-2.27-.25-3.41l-.02-.36,.4-.02c.91-.04,1.82-.15,2.73-.13h2.73s5.46,0,5.46,0h11.42v5.64c0,.86,.02,1.7-.05,2.61-.02,.45-.12,.89-.18,1.33-.11,.43-.2,.87-.35,1.3-.3,.84-.65,1.68-1.14,2.43-.46,.77-1.04,1.46-1.66,2.11-.65,.61-1.34,1.2-2.12,1.65-.75,.49-1.59,.83-2.43,1.13-.43,.13-.86,.24-1.3,.34-.45,.06-.92,.17-1.34,.17l-.64,.03h-.16c-.1,.01-.12,0-.19,0l-.34-.02c-.45-.01-.89-.05-1.34-.13-.89-.12-1.75-.4-2.58-.72-.82-.36-1.62-.78-2.33-1.32-.75-.49-1.39-1.14-1.93-1.86-.27-.35-.5-.74-.74-1.11-.19-.4-.42-.78-.57-1.19-.16-.41-.32-.82-.43-1.24-.14-.41-.22-.84-.3-1.27-.16-.85-.22-1.71-.24-2.56Z"/>
              </g>
              <g>
                <path class="cls-3" d="M311.58,43.09v6.81c0,6.03,4.89,10.92,10.92,10.92h0c6.03,0,10.92-4.89,10.92-10.92v-6.81h-21.85Z"/>
                <path class="cls-14" d="M311.58,43.09c.14,2,.25,3.99,.36,5.99,.03,1,.16,1.99,.36,2.88,.21,.92,.48,1.85,.93,2.69,.45,.84,.97,1.65,1.64,2.33,.64,.7,1.38,1.32,2.2,1.8,.8,.51,1.69,.88,2.61,1.14,.91,.28,1.87,.36,2.82,.4,.44-.04,1.01-.02,1.44-.11l.69-.11,.69-.18c.91-.26,1.8-.63,2.61-1.14,.82-.49,1.56-1.1,2.2-1.8,.66-.69,1.19-1.49,1.64-2.33,.45-.84,.73-1.76,.95-2.69,.17-.95,.22-1.86,.21-2.88v-5.99l.5,.5h-10.92c-.91-.01-1.82,.04-2.73-.03l-2.73-.15c-1.82-.1-3.64-.2-5.46-.32Zm0,0c1.82-.13,3.64-.22,5.46-.32l2.73-.15c.91-.07,1.82-.02,2.73-.03h11.42v6.49c.02,.98-.04,2.06-.23,3.08-.24,1.02-.54,2.02-1.04,2.95-.49,.92-1.07,1.8-1.79,2.55-.71,.77-1.52,1.44-2.41,1.98-.88,.56-1.86,.96-2.86,1.25l-.76,.19-.79,.12c-.55,.1-.98,.07-1.54,.12-1.04-.04-2.09-.13-3.09-.43-1-.29-1.98-.69-2.86-1.25-.9-.53-1.71-1.21-2.41-1.98-.73-.75-1.31-1.63-1.79-2.55-.49-.92-.8-1.93-1.05-2.95-.16-1.07-.14-2.08-.07-3.08,.11-2,.21-3.99,.36-5.99Z"/>
              </g>
            </g>
            <g>
              <g>
                <polygon class="cls-3" points="180.49 43.09 202.34 43.09 204.95 35.12 184.15 35.12 180.49 43.09"/>
                <path class="cls-14" d="M180.49,43.09c1.82-.15,3.64-.26,5.46-.38,.91-.04,1.82-.15,2.73-.13h2.73s10.92,0,10.92,0l-.48,.34,2.61-7.96,.48,.66h-20.8l.45-.29c-.28,.67-.61,1.33-.97,1.97l-1.04,1.93c-.69,1.29-1.39,2.58-2.1,3.85Zm0,0c.5-1.38,1.03-2.74,1.55-4.11l.79-2.05c.25-.69,.53-1.36,.86-2.01l.15-.29h21.8l-.22,.66-2.61,7.96-.11,.34h-14.02c-.91,.03-1.82-.08-2.73-.12-1.82-.12-3.64-.22-5.46-.38Z"/>
              </g>
              <g>
                <polygon class="cls-3" points="224.19 43.09 246.04 43.09 246.56 35.12 225.76 35.12 224.19 43.09"/>
                <path class="cls-14" d="M224.19,43.09c1.82-.16,3.64-.26,5.46-.38,.91-.05,1.82-.16,2.73-.12h2.73s10.92,0,10.92,0l-.5,.47,.52-7.96,.5,.53h-15.6c-1.73,0-3.47,0-5.2,0l.5-.41c-.1,.67-.31,1.32-.48,1.97l-.52,1.96c-.34,1.31-.69,2.62-1.06,3.92Zm0,0c.15-1.35,.32-2.69,.5-4.04l.26-2.02c.1-.67,.15-1.35,.3-2.01l.1-.41h.4c1.73,.02,3.47,0,5.2,.01h16.14l-.03,.53-.52,7.96-.03,.47h-14.12c-.91,.04-1.82-.07-2.73-.12-1.82-.12-3.64-.23-5.46-.38Z"/>
              </g>
              <g>
                <polygon class="cls-3" points="267.36 35.12 267.89 43.09 289.73 43.09 288.17 35.12 267.36 35.12"/>
                <path class="cls-14" d="M267.36,35.12c.2,1.32,.38,2.64,.55,3.96l.26,1.98c.08,.66,.2,1.32,.22,1.98l-.51-.48c1.82,.02,3.64,0,5.46,.01h16.39l-.49,.6-1.57-7.96,.49,.4h-10.4c-.87,0-1.73,0-2.6,.01-.87-.02-1.73-.1-2.6-.15-1.73-.11-3.47-.22-5.2-.36Zm0,0c1.73-.14,3.47-.25,5.2-.36,.87-.05,1.73-.13,2.6-.15,.87,.02,1.73,0,2.6,.01h10.81l.08,.4,1.57,7.96,.12,.6h-16.99c-1.82,0-3.64-.01-5.46,.01h-.47s-.04-.48-.04-.48c-.06-.66-.03-1.33-.04-2v-2c0-1.33,0-2.66,.03-4Z"/>
              </g>
              <g>
                <polygon class="cls-3" points="329.78 35.12 308.97 35.12 311.58 43.09 333.43 43.09 329.78 35.12"/>
                <path class="cls-14" d="M329.78,35.12c-1.73,.15-3.47,.25-5.2,.36-.87,.05-1.73,.13-2.6,.15-.87-.01-1.73-.01-2.6-.01h-10.4l.48-.66,2.61,7.96-.48-.34h21.85l-.45,.71c-.33-.65-.61-1.33-.86-2.01l-.79-2.05c-.53-1.36-1.05-2.73-1.55-4.11Zm0,0c.72,1.28,1.41,2.57,2.1,3.85l1.04,1.93c.36,.64,.69,1.29,.97,1.97l.29,.71h-22.96l-.11-.34-2.61-7.96-.22-.66h11.09c.87,0,1.73,0,2.6-.01,.87,.03,1.73,.1,2.6,.15,1.73,.11,3.47,.22,5.2,.36Z"/>
              </g>
            </g>
            <g>
              <g>
                <path class="cls-15" d="M158.65,49.9c0,6.03,4.89,10.92,10.92,10.92h0c6.03,0,10.92-4.89,10.92-10.92v-6.81h-21.85v6.81Z"/>
                <path class="cls-14" d="M158.65,49.9c.03,.43,.03,.86,.1,1.28,.09,.42,.12,.85,.28,1.25,.13,.41,.26,.81,.45,1.19,.15,.39,.38,.76,.59,1.12,.44,.71,.96,1.37,1.53,1.96,.3,.28,.58,.58,.9,.83,.3,.28,.6,.55,.94,.79,.65,.49,1.38,.88,2.13,1.21,.76,.29,1.54,.55,2.36,.66,.4,.08,.81,.11,1.22,.12l.31,.02s.13,0,.13,0h.16s.64-.04,.64-.04c.44,0,.8-.11,1.2-.16,.39-.09,.79-.19,1.18-.31,.77-.27,1.53-.58,2.22-1.03,.71-.41,1.33-.95,1.93-1.5,.56-.59,1.1-1.22,1.51-1.92,.45-.68,.76-1.45,1.04-2.21,.13-.39,.21-.79,.32-1.18,.05-.41,.14-.81,.16-1.21,.06-.8,.04-1.67,.04-2.53v-5.14l.5,.5h-19.12c-.91,.03-1.82-.08-2.73-.12l.38-.38c-.07,1.14-.19,2.27-.25,3.41-.09,1.14-.12,2.27-.12,3.41Zm0,0c0-1.14-.03-2.27-.12-3.41-.06-1.14-.18-2.27-.25-3.41l-.02-.36,.4-.02c.91-.04,1.82-.15,2.73-.13h2.73s5.46,0,5.46,0h11.42v5.64c0,.86,.02,1.7-.05,2.61-.02,.45-.12,.89-.18,1.33-.11,.43-.2,.87-.35,1.3-.3,.84-.64,1.68-1.14,2.43-.46,.77-1.04,1.46-1.66,2.11-.65,.61-1.34,1.2-2.12,1.65-.75,.49-1.59,.83-2.43,1.13-.43,.13-.86,.24-1.3,.34-.45,.06-.92,.17-1.34,.17l-.64,.03h-.16c-.1,.01-.12,0-.19,0l-.34-.02c-.45-.01-.89-.05-1.34-.13-.89-.12-1.75-.4-2.58-.72-.82-.36-1.62-.78-2.33-1.32-.75-.49-1.39-1.14-1.93-1.86-.27-.35-.5-.74-.74-1.11-.19-.4-.42-.78-.57-1.19-.16-.41-.32-.82-.43-1.24-.14-.41-.22-.84-.29-1.27-.16-.85-.22-1.71-.24-2.56Z"/>
              </g>
              <g>
                <path class="cls-15" d="M202.34,49.9c0,6.03,4.89,10.92,10.92,10.92h0c6.03,0,10.92-4.89,10.92-10.92v-6.81h-21.85v6.81Z"/>
                <path class="cls-14" d="M202.34,49.9c.04,.43,.04,.86,.1,1.28,.09,.42,.12,.85,.28,1.25,.13,.41,.26,.81,.45,1.19,.15,.39,.38,.76,.59,1.12,.44,.71,.96,1.37,1.53,1.96,.3,.28,.58,.58,.9,.83,.3,.28,.6,.55,.94,.79,.65,.49,1.38,.88,2.13,1.21,.76,.29,1.54,.55,2.36,.66,.4,.08,.81,.11,1.22,.12l.31,.02s.13,0,.13,0h.16s.64-.04,.64-.04c.44,0,.8-.11,1.2-.16,.39-.09,.79-.19,1.18-.31,.77-.27,1.53-.58,2.22-1.03,.71-.41,1.33-.95,1.93-1.5,.56-.59,1.1-1.22,1.51-1.92,.45-.68,.76-1.45,1.04-2.21,.13-.39,.21-.79,.32-1.18,.05-.41,.14-.81,.16-1.21,.06-.8,.04-1.67,.04-2.53v-5.14l.5,.5h-19.12c-.91,.03-1.82-.08-2.73-.12l.38-.38c-.07,1.14-.19,2.27-.25,3.41-.09,1.14-.12,2.27-.12,3.41Zm0,0c0-1.14-.03-2.27-.12-3.41-.06-1.14-.18-2.27-.25-3.41l-.02-.36,.4-.02c.91-.05,1.82-.15,2.73-.13h2.73s5.46,0,5.46,0h11.42v5.64c0,.86,.02,1.7-.05,2.61-.02,.45-.12,.89-.18,1.33-.11,.43-.2,.87-.35,1.3-.3,.84-.64,1.68-1.14,2.43-.46,.77-1.04,1.46-1.66,2.11-.65,.61-1.34,1.2-2.12,1.65-.75,.49-1.59,.83-2.43,1.13-.43,.13-.86,.24-1.3,.34-.45,.06-.92,.17-1.34,.17l-.64,.03h-.16c-.1,.01-.12,0-.19,0l-.34-.02c-.45-.01-.89-.05-1.34-.13-.89-.12-1.75-.4-2.58-.72-.82-.36-1.62-.78-2.33-1.32-.75-.49-1.39-1.14-1.93-1.86-.27-.35-.5-.74-.74-1.11-.19-.4-.42-.78-.57-1.19-.16-.41-.32-.82-.43-1.24-.14-.41-.22-.84-.29-1.27-.16-.85-.22-1.71-.24-2.56Z"/>
              </g>
              <g>
                <path class="cls-15" d="M246.04,49.9c0,6.03,4.89,10.92,10.92,10.92s10.92-4.89,10.92-10.92v-6.81h-21.85v6.81Z"/>
                <path class="cls-14" d="M246.04,49.9c.03,.43,.04,.86,.1,1.28,.09,.42,.12,.85,.28,1.25,.13,.41,.26,.81,.45,1.19,.15,.39,.38,.76,.59,1.12,.44,.71,.96,1.37,1.53,1.96,.3,.28,.58,.58,.9,.83,.3,.28,.6,.55,.94,.79,.65,.49,1.38,.88,2.13,1.21,.76,.29,1.54,.55,2.36,.66,.4,.08,.81,.11,1.22,.12l.31,.02s.13,0,.13,0h.16s.64-.04,.64-.04c.44,0,.8-.11,1.2-.16,.39-.09,.79-.19,1.18-.31,.77-.27,1.53-.58,2.22-1.03,.71-.41,1.33-.95,1.93-1.5,.56-.59,1.1-1.22,1.51-1.92,.45-.68,.76-1.45,1.04-2.21,.13-.39,.21-.79,.32-1.18,.05-.41,.14-.81,.16-1.21,.06-.8,.04-1.67,.04-2.53v-5.14l.5,.5h-19.12c-.91,.03-1.82-.08-2.73-.12l.38-.38c-.07,1.14-.19,2.27-.25,3.41-.09,1.14-.12,2.27-.12,3.41Zm0,0c0-1.14-.03-2.27-.12-3.41-.06-1.14-.18-2.27-.25-3.41l-.02-.36,.4-.02c.91-.04,1.82-.15,2.73-.13h2.73s5.46,0,5.46,0h11.42v5.64c0,.86,.02,1.7-.05,2.61-.02,.45-.12,.89-.18,1.33-.11,.43-.2,.87-.35,1.3-.3,.84-.64,1.68-1.14,2.43-.46,.77-1.04,1.46-1.66,2.11-.65,.61-1.34,1.2-2.12,1.65-.75,.49-1.59,.83-2.43,1.13-.43,.13-.86,.24-1.3,.34-.45,.06-.92,.17-1.34,.17l-.64,.03h-.16c-.1,.01-.12,0-.19,0l-.34-.02c-.45-.01-.89-.05-1.34-.13-.89-.12-1.75-.4-2.58-.72-.82-.36-1.62-.78-2.33-1.32-.75-.49-1.39-1.14-1.93-1.86-.27-.35-.5-.74-.74-1.11-.19-.4-.42-.78-.57-1.19-.16-.41-.32-.82-.43-1.24-.14-.41-.22-.84-.3-1.27-.16-.85-.22-1.71-.24-2.56Z"/>
              </g>
              <g>
                <path class="cls-15" d="M289.73,49.9c0,6.03,4.89,10.92,10.92,10.92h0c6.03,0,10.92-4.89,10.92-10.92v-6.81h-21.85v6.81Z"/>
                <path class="cls-14" d="M289.73,49.9c.03,.43,.03,.86,.1,1.28,.09,.42,.12,.85,.28,1.25,.13,.41,.26,.81,.45,1.19,.15,.39,.38,.76,.59,1.12,.44,.71,.96,1.37,1.53,1.96,.3,.28,.58,.58,.9,.83,.3,.28,.6,.55,.94,.79,.65,.49,1.38,.88,2.13,1.21,.76,.29,1.54,.55,2.36,.66,.4,.08,.81,.11,1.22,.12l.31,.02s.13,0,.13,0h.16s.64-.04,.64-.04c.44,0,.8-.11,1.2-.16,.39-.09,.79-.19,1.18-.31,.77-.27,1.53-.58,2.22-1.03,.71-.41,1.33-.95,1.93-1.5,.56-.59,1.1-1.22,1.51-1.92,.45-.68,.76-1.45,1.04-2.21,.13-.39,.21-.79,.32-1.18,.05-.41,.14-.81,.16-1.21,.06-.8,.04-1.67,.04-2.53v-5.14l.5,.5h-19.12c-.91,.03-1.82-.08-2.73-.12l.38-.38c-.07,1.14-.19,2.27-.25,3.41-.09,1.14-.12,2.27-.12,3.41Zm0,0c0-1.14-.03-2.27-.12-3.41-.06-1.14-.18-2.27-.25-3.41l-.02-.36,.4-.02c.91-.04,1.82-.15,2.73-.13h2.73s5.46,0,5.46,0h11.42v5.64c0,.86,.02,1.7-.05,2.61-.02,.45-.12,.89-.18,1.33-.11,.43-.2,.87-.35,1.3-.3,.84-.64,1.68-1.14,2.43-.46,.77-1.04,1.46-1.66,2.11-.65,.61-1.34,1.2-2.12,1.65-.75,.49-1.59,.83-2.43,1.13-.43,.13-.86,.24-1.3,.34-.44,.06-.92,.17-1.34,.17l-.64,.03h-.16c-.1,.01-.12,0-.19,0l-.34-.02c-.45-.01-.89-.05-1.34-.13-.89-.12-1.75-.4-2.58-.72-.82-.36-1.62-.78-2.33-1.32-.75-.49-1.39-1.14-1.93-1.86-.27-.35-.5-.74-.74-1.11-.19-.4-.42-.78-.57-1.19-.16-.41-.32-.82-.43-1.24-.14-.41-.22-.84-.3-1.27-.16-.85-.22-1.71-.24-2.56Z"/>
              </g>
              <g>
                <path class="cls-15" d="M333.43,43.09v6.81c0,6.03,4.89,10.92,10.92,10.92h0c6.03,0,10.92-4.89,10.92-10.92v-6.81h-21.85Z"/>
                <path class="cls-14" d="M333.43,43.09c.14,2,.25,3.99,.36,5.99,.03,1,.16,1.99,.36,2.88,.21,.92,.48,1.85,.93,2.69,.44,.84,.97,1.65,1.64,2.33,.64,.7,1.38,1.32,2.2,1.8,.8,.51,1.69,.88,2.61,1.14,.91,.28,1.87,.36,2.82,.4,.44-.04,1.01-.01,1.44-.11l.69-.11,.69-.18c.91-.26,1.8-.63,2.61-1.14,.82-.49,1.56-1.1,2.2-1.8,.66-.69,1.19-1.49,1.64-2.33,.45-.84,.73-1.76,.95-2.69,.17-.95,.22-1.86,.21-2.88v-5.99l.5,.5h-10.92c-.91-.01-1.82,.04-2.73-.03l-2.73-.15c-1.82-.1-3.64-.2-5.46-.32Zm0,0c1.82-.13,3.64-.22,5.46-.32l2.73-.15c.91-.07,1.82-.02,2.73-.03h11.42v6.49c.02,.98-.04,2.06-.23,3.08-.24,1.02-.54,2.02-1.04,2.95-.49,.92-1.07,1.8-1.79,2.55-.71,.77-1.52,1.44-2.41,1.98-.88,.56-1.86,.96-2.86,1.25l-.76,.19-.79,.12c-.55,.1-.98,.07-1.54,.12-1.04-.04-2.09-.13-3.09-.43-1-.29-1.98-.69-2.86-1.25-.9-.53-1.71-1.21-2.41-1.98-.73-.75-1.31-1.63-1.79-2.55-.49-.92-.8-1.93-1.05-2.95-.16-1.07-.14-2.08-.07-3.08,.11-2,.21-3.99,.36-5.99Z"/>
              </g>
            </g>
            <g>
              <g>
                <polygon class="cls-10" points="158.65 43.09 180.49 43.09 184.15 35.12 163.34 35.12 158.65 43.09"/>
                <path class="cls-14" d="M158.65,43.09c1.82-.15,3.64-.26,5.46-.37,.91-.04,1.82-.15,2.73-.14,.91,.02,1.82,0,2.73,.01h10.92l-.45,.29,3.65-7.96,.45,.71h-20.8l.43-.25-.58,1c-.19,.33-.42,.65-.63,.97l-1.3,1.92c-.86,1.28-1.73,2.56-2.62,3.82Zm0,0c.68-1.39,1.38-2.76,2.08-4.14l1.05-2.06c.18-.34,.34-.69,.54-1.02l.6-.99,.15-.25h21.87l-.33,.71-3.65,7.96-.13,.29h-11.24c-.91,0-1.82-.01-2.73,.01-.91,0-1.82-.1-2.73-.14-1.82-.12-3.64-.22-5.46-.37Z"/>
              </g>
              <g>
                <polygon class="cls-10" points="202.34 43.09 224.19 43.09 225.76 35.12 204.95 35.12 202.34 43.09"/>
                <path class="cls-14" d="M202.34,43.09c1.82-.15,3.64-.26,5.46-.38,.91-.05,1.82-.16,2.73-.13h2.73s10.92,0,10.92,0l-.49,.4,1.57-7.96,.49,.6h-20.8s.48-.34,.48-.34c-.19,.67-.46,1.32-.72,1.97l-.78,1.95c-.52,1.3-1.04,2.6-1.58,3.89Zm0,0c.33-1.36,.67-2.72,1.03-4.07l.52-2.03c.18-.68,.33-1.36,.58-2.01l.13-.35h21.15s.61,0,.61,0l-.12,.6-1.57,7.96-.08,.4h-14.07c-.91,.04-1.82-.07-2.73-.12-1.82-.12-3.64-.23-5.46-.38Z"/>
              </g>
              <g>
                <polygon class="cls-10" points="246.56 35.12 246.04 43.09 267.89 43.09 267.36 35.12 246.56 35.12"/>
                <path class="cls-14" d="M246.56,35.12c.03,1.33,.03,2.67,.03,4v2c0,.67,.02,1.33-.04,2l-.51-.54c1.82,.02,3.64,0,5.46,.01h16.39l-.5,.53-.52-7.96,.5,.47h-10.4c-.87,0-1.73,0-2.6,.01-.87-.02-1.73-.1-2.6-.15-1.73-.11-3.47-.22-5.2-.36Zm0,0c1.73-.14,3.47-.25,5.2-.36,.87-.05,1.73-.13,2.6-.15,.87,.02,1.73,0,2.6,.01h10.87l.03,.47,.52,7.96,.03,.53h-16.92c-1.82,0-3.64-.01-5.46,.01h-.53s.02-.54,.02-.54c.03-.66,.14-1.32,.22-1.98l.26-1.98c.17-1.32,.35-2.64,.55-3.96Z"/>
              </g>
              <g>
                <polygon class="cls-10" points="288.17 35.12 289.73 43.09 311.58 43.09 308.97 35.12 288.17 35.12"/>
                <path class="cls-14" d="M288.17,35.12c.37,1.3,.72,2.61,1.07,3.92l.52,1.96c.17,.66,.37,1.31,.48,1.97l-.5-.41c1.82,.02,3.64,0,5.46,0h16.39l-.47,.66-2.61-7.96,.47,.34h-13c-.87-.01-1.73-.09-2.6-.14-1.73-.11-3.47-.22-5.2-.36Zm0,0c1.73-.14,3.47-.25,5.2-.36,.87-.05,1.73-.13,2.6-.15h2.6s10.4,.01,10.4,.01h.36l.11,.34,2.61,7.96,.21,.66h-17.08c-1.82,0-3.64,0-5.46,0h-.4s-.1-.41-.1-.41c-.15-.66-.21-1.34-.31-2.01l-.26-2.02c-.18-1.34-.35-2.69-.5-4.04Z"/>
              </g>
              <g>
                <polygon class="cls-10" points="350.58 35.12 329.78 35.12 333.43 43.09 355.28 43.09 350.58 35.12"/>
                <path class="cls-14" d="M350.58,35.12c-1.73,.14-3.47,.25-5.2,.36-.87,.05-1.73,.12-2.6,.16h-2.6s-10.4-.01-10.4-.01l.45-.71,3.65,7.96-.45-.29h21.85l-.43,.75-.6-.99c-.2-.33-.37-.68-.54-1.02l-1.05-2.06c-.7-1.37-1.4-2.75-2.08-4.14Zm0,0c.89,1.26,1.75,2.54,2.62,3.82l1.3,1.92c.22,.32,.44,.63,.63,.97l.58,1,.44,.75h-23.03l-.13-.29-3.65-7.96-.33-.71h13.78c.87,.02,1.73,.09,2.6,.14,1.73,.11,3.47,.21,5.2,.36Z"/>
              </g>
            </g>
            <g>
              <rect class="cls-3" x="178.29" y="73.53" width="88.89" height="53.92"/>
              <path class="cls-14" d="M178.29,127.45l22.22-.32,11.11-.16c3.7-.07,7.41-.02,11.11-.03h44.44l-.5,.5v-53.92l.5,.5h-88.89l.5-.5v13.48c.03,4.49-.07,8.99-.12,13.48l-.38,26.96Zm0,0l-.38-26.96c-.05-4.49-.16-8.99-.13-13.48v-13.48s0-.5,0-.5h89.89v54.92h-44.95c-3.7,0-7.41,.04-11.11-.03l-11.11-.16-22.22-.32Z"/>
            </g>
            <g>
              <rect class="cls-4" x="181.41" y="76.65" width="82.66" height="47.69"/>
              <path class="cls-14" d="M181.41,124.33l20.66-.32,10.33-.16c3.44-.05,6.89,0,10.33-.02h41.33l-.5,.5v-47.69l.5,.5h-82.66l.5-.5v11.92c.02,3.97-.09,7.95-.13,11.92l-.37,23.84Zm0,0l-.37-23.84c-.05-3.97-.16-7.95-.14-11.92v-11.92s0-.5,0-.5h83.66v48.69h-41.83c-3.44-.01-6.89,.04-10.33-.02l-10.33-.16-20.66-.32Z"/>
            </g>
            <rect class="cls-3" x="201.46" y="99.64" width="43.84" height="2" transform="translate(-5.74 187.43) rotate(-45)"/>
            <rect class="cls-3" x="210.46" y="99.64" width="43.84" height="2" transform="translate(-3.1 193.8) rotate(-45)"/>
            <g>
              <path class="cls-15" d="M266.74,137.6h-88c-2.8,0-5.07-2.27-5.07-5.07h0c0-2.8,2.27-5.07,5.07-5.07h88c2.8,0,5.07,2.27,5.07,5.07h0c0,2.8-2.27,5.07-5.07,5.07Z"/>
              <path class="cls-14" d="M266.74,137.6s-.81,0-2.33,.02c-1.52,.02-3.76,0-6.6,.08-2.84,.07-6.29,.16-10.25,.26-1.98,.04-4.09,.09-6.31,.14-2.22,0-4.55,0-6.99,0h-54.47c-.79,0-1.63,.05-2.53-.2-1.71-.46-3.17-1.79-3.76-3.47-.16-.42-.25-.86-.3-1.3-.02-.23-.03-.42-.03-.68,.02-.21,0-.38,.05-.63,.12-.92,.44-1.75,.96-2.48,1.01-1.47,2.77-2.39,4.56-2.38h71.45c2.44,0,4.77-.03,6.99,.01,2.22,.05,4.33,.09,6.31,.14,.99,.03,1.95,.05,2.87,.08,.93,0,1.91,.18,2.68,.61,1.6,.82,2.54,2.34,2.77,3.76,.24,1.44-.14,2.75-.74,3.68-.6,.94-1.39,1.53-2.07,1.85-.69,.33-1.28,.44-1.66,.48-.39,.03-.6,.03-.6,.03Zm0,0s.2,0,.59-.04c.39-.05,.97-.17,1.65-.51,.67-.33,1.45-.93,2.02-1.86,.59-.91,.92-2.24,.62-3.6-.28-1.36-1.24-2.76-2.76-3.43-.76-.36-1.59-.47-2.5-.42-.92,.02-1.88,.05-2.87,.08-1.98,.04-4.09,.09-6.31,.14-2.22,.04-4.55,0-6.99,.01h-71.45c-1.47,0-2.91,.74-3.74,1.95-.43,.59-.69,1.32-.78,2-.04,.16-.03,.39-.04,.58,0,.14,.01,.35,.03,.53,.05,.36,.12,.72,.25,1.06,.48,1.38,1.68,2.48,3.08,2.85,.67,.2,1.46,.17,2.26,.17h54.47c2.44,0,4.77,0,6.99,0,2.22,.05,4.33,.09,6.31,.14,3.96,.1,7.41,.19,10.25,.26,2.84,.08,5.07,.06,6.6,.08,1.52,.01,2.33,.02,2.33,.02Z"/>
            </g>
            <g>
              <path class="cls-3" d="M164.1,.5h185.72c3.26,0,5.91,2.65,5.91,5.91V28.87c0,3.26-2.65,5.91-5.91,5.91H164.1c-3.26,0-5.91-2.65-5.91-5.91V6.41c0-3.26,2.65-5.91,5.91-5.91Z"/>
              <path class="cls-14" d="M349.82,.5s-1.77,0-5.09,.02c-3.32,.02-8.19,0-14.39,.08-6.2,.07-13.73,.15-22.36,.24-4.32,.05-8.91,.1-13.76,.15-4.84,0-9.94,0-15.25,0h-114.87c-.21,.02-.45,.02-.64,.04-.19,.04-.37,.04-.57,.1-.78,.18-1.51,.54-2.14,1.03-1.27,.99-2.03,2.57-2.04,4.18,0,3.51,0,7.03,0,10.56v10.6c.01,.87-.06,1.82,.14,2.53,.18,.79,.54,1.54,1.04,2.17,1,1.28,2.61,2.05,4.23,2.05h155.88c5.31,0,10.41,0,15.25,.01,4.84,.05,9.44,.1,13.76,.15,1.11,.05,2.08-.02,3.01-.4,.91-.39,1.72-.99,2.31-1.76,.6-.76,.98-1.66,1.12-2.58,.13-.91,.07-1.9,.1-2.82,.04-3.74,.07-7.17,.1-10.27,.02-3.1,.04-5.87,.06-8.28-.03-1.2,.11-2.33-.16-3.32-.24-.99-.7-1.82-1.24-2.44-1.09-1.27-2.36-1.74-3.18-1.93-.42-.09-.74-.13-.96-.13-.22-.01-.33-.02-.33-.02Zm0,0s.11,0,.33,.02c.22,0,.54,.04,.96,.13,.82,.18,2.1,.64,3.21,1.91,.55,.62,1.02,1.46,1.27,2.45,.27,1,.15,2.13,.18,3.33,.02,2.41,.04,5.18,.06,8.28,.03,3.1,.07,6.53,.1,10.27-.01,.94,.08,1.87-.04,2.89-.13,1-.52,1.99-1.16,2.83-.62,.85-1.5,1.53-2.5,1.99-.51,.2-1.03,.38-1.61,.45-.55,.08-1.1,.07-1.63,.08-4.32,.05-8.91,.1-13.76,.15-4.84,0-9.94,0-15.25,.01H164.1c-1.92,0-3.83-.91-5.01-2.43-.59-.75-1.02-1.64-1.23-2.58-.24-1.02-.14-1.86-.16-2.75v-10.6c0-3.53,0-7.05,0-10.57,.01-1.91,.92-3.79,2.42-4.96,.74-.59,1.62-1.01,2.54-1.23,.23-.07,.48-.08,.72-.12,.24-.03,.44-.03,.66-.04h1.33c13.95,0,27.68,0,40.96,0h72.63c5.31,0,10.41,0,15.25,0,4.84,.05,9.44,.11,13.76,.15,8.64,.09,16.16,.18,22.36,.24,6.2,.08,11.07,.06,14.39,.08,3.32,.01,5.09,.02,5.09,.02Z"/>
            </g>
            <path class="cls-14" d="M471.88,129.14h-17.28c-.19,0-.37-.11-.45-.29l-6.89-14.47c-.12-.25-.01-.55,.24-.67,.25-.12,.55-.01,.67,.24l6.76,14.18h16.96c.28,0,.5,.22,.5,.5s-.22,.5-.5,.5Z"/>
            <g>
              <path class="cls-3" d="M485.57,117.08l.29-7.6c.11-2.74-1.09-5.25-5.97-3.54-5.56,1.95-1.74,9.11-.15,10.13,.94,.6,3.09-1.47,4.15,.94,.96,.07,1.68,.07,1.68,.07Z"/>
              <path class="cls-14" d="M485.57,117.08c-.15-1.4-.21-2.79-.32-4.19-.04-.35,0-.7,.02-1.04l.04-1.04c.02-.68,.08-1.42,.05-2.04-.04-.64-.17-1.27-.47-1.77-.29-.5-.75-.85-1.32-1-1.16-.29-2.54,.06-3.76,.52-.61,.25-1.11,.57-1.52,1.02-.39,.46-.65,1.01-.75,1.63-.21,1.23,.11,2.57,.62,3.78,.26,.61,.58,1.2,.95,1.74,.36,.5,.86,1.13,1.13,1.01,.53-.03,1.24-.43,2.09-.3,.42,.04,.86,.23,1.16,.54,.29,.3,.46,.66,.58,1.01l-.17-.12c.55,.09,1.11,.2,1.67,.27Zm0,0c-.56,.07-1.13,.12-1.7,.14h-.1s-.07-.12-.07-.12c-.33-.59-.83-.94-1.38-.85-.56,.09-1.15,.33-2.01,.44-.11,0-.23,0-.37-.01-.07-.02-.12-.02-.22-.05-.1-.03-.17-.07-.19-.08-.24-.14-.37-.27-.52-.41-.28-.28-.51-.57-.72-.87-.42-.61-.77-1.25-1.05-1.92-.56-1.33-.94-2.81-.69-4.35,.12-.76,.47-1.51,.98-2.11,.51-.59,1.22-1.02,1.9-1.29,.69-.27,1.37-.47,2.11-.6,.73-.12,1.5-.17,2.28,.04,.78,.19,1.52,.75,1.92,1.46,.41,.71,.56,1.48,.6,2.22,.04,.77-.03,1.43-.04,2.13l-.04,1.04c0,.35,0,.7-.06,1.04-.21,1.38-.39,2.77-.64,4.15Z"/>
            </g>
            <path class="cls-12" d="M485.88,108.52s0-3.8-5.61-3.22c-3.19,.33-4.17-1.09-4.17-1.09,0,0-1.17,2.59,1.53,3.47,2.7,.88,8.05,8.01,8.05,8.01l.21-7.17Z"/>
            <path class="cls-8" d="M455.03,137.4c8.03-5.47,14.84-.59,18.7-4.83,3.81-4.18,7.64-11.09,9.87-15.57l1.97-1.12c1.35,7.38-.38,23.81-6.62,25.32-7.99,1.93-14.96-.65-20.29,.26-3.13,.53-8.78,9.52-11.59,13.49-.57,.81-1.82,.14-1.46-.78,1.74-4.49,4.81-13.63,9.42-16.77Z"/>
            <g>
              <path class="cls-3" d="M485.79,116.26s-4.09,5.64-20.25,8.16c-1.98,.31-4.13,.55-6.48,.72-1.27,.09-1.19,2.18,.08,2.17,2.04-.02,4.21-.02,6.41-.09,7.82-.25,16.01-1.35,20.2-6.72l.04-4.23Z"/>
              <path class="cls-14" d="M485.79,116.26c-.74,1.02-1.72,1.87-2.74,2.62-1.03,.74-2.11,1.43-3.25,2.02-.55,.33-1.15,.54-1.74,.78-.58,.26-1.19,.44-1.79,.66-.59,.23-1.21,.4-1.81,.59-.6,.2-1.21,.37-1.83,.52-1.22,.34-2.46,.6-3.7,.86-1.25,.24-2.47,.47-3.76,.65l-3.75,.41-1.87,.21c-.72,.05-.82,.11-.91,.55-.02,.19,.04,.4,.14,.52,.11,.12,.18,.15,.44,.15l1.88-.03,3.77-.05c1.24-.01,2.51-.09,3.74-.16,1.24-.09,2.49-.2,3.72-.37,1.23-.17,2.45-.38,3.65-.68,1.21-.27,2.37-.67,3.52-1.11,1.14-.46,2.2-1.07,3.22-1.73,1.03-.65,1.97-1.43,2.8-2.34l-.06,.16c.09-1.41,.2-2.82,.32-4.23Zm0,0c.09,1.41,.16,2.82,.23,4.23v.08s-.06,.09-.06,.09c-.75,1.05-1.65,1.99-2.66,2.82-1.06,.75-2.22,1.34-3.41,1.84-1.2,.47-2.42,.88-3.66,1.16-1.24,.3-2.5,.53-3.75,.7-1.26,.18-2.52,.29-3.78,.38-1.27,.08-2.51,.15-3.79,.17l-3.77,.05-1.88,.03c-.36,.03-.96-.13-1.24-.52-.3-.37-.4-.82-.36-1.25,.03-.42,.24-.89,.66-1.17,.09-.07,.24-.13,.37-.17,.13-.04,.17-.03,.26-.05l.5-.06,1.87-.21,3.75-.41c1.2-.16,2.45-.4,3.67-.63,1.22-.26,2.44-.52,3.64-.85,.61-.15,1.2-.32,1.8-.51,.59-.19,1.19-.35,1.77-.57,1.18-.38,2.31-.91,3.46-1.36,1.16-.44,2.28-.98,3.37-1.58,1.07-.62,2.13-1.3,3.02-2.2Z"/>
            </g>
            <path class="cls-8" d="M485.85,115.94l-9.47,5.4,1.14,4.39s5.63-.33,8.41-4c0,0,.46-2.79-.09-5.79Z"/>
            <path class="cls-12" d="M456.03,136.4c8.03-5.47,13.84,.41,17.7-3.83l5.23,8.63c-7.99,1.93-13.96-.54-19.29,.36-2.06,.35-3.69,.52-7.87,6.61-1.72,2.51-3.76,5.4-4.72,6.76-.57,.81-1.82,.14-1.46-.78,.53-1.36,.99-3.72,2.17-6.16,2.99-6.17,5.04-9.42,8.25-11.6Z"/>
            <g>
              <path class="cls-3" d="M439.5,50.18c.38,34.96,.38,69.96,0,105.04V50.18Z"/>
              <path class="cls-14" d="M440.3,155.57c.02-5.44,.04-11.59,.06-18.12,0-7.48,0-15.46,0-23.44-.08-15.96-.16-31.92-.21-43.89-.02-2.99-.04-5.74-.05-8.17-.03-2.43-.11-4.55-.19-6.3-.18-3.49-.4-5.49-.4-5.49,0,0-.22,1.99-.4,5.49-.08,1.75-.16,3.86-.19,6.3-.02,2.43-.03,5.17-.05,8.17-.06,11.97-.14,27.93-.21,43.89,0,7.98,0,15.96,0,23.44,.02,6.62,.04,12.85,.06,18.34,.51-.17,1.05-.24,1.59-.22Z"/>
            </g>
            <g>
              <path class="cls-14" d="M389.45,119.07c1.4,1.8,2.43,3.78,3.41,5.78l2.92,6.01,5.84,12.02-.76-.48c2.63-.04,5.25-.02,7.88-.02,2.63,0,5.25,0,7.88,.03h.84s0,.83,0,.83l-.06,6.1c-.02,1.02,0,2.03-.06,3.05-.03,.51-.12,1.02-.22,1.52-.12,.51-.26,1.02-.5,1.52-.24-.51-.38-1.02-.5-1.52-.1-.51-.18-1.02-.22-1.52-.06-1.02-.03-2.03-.06-3.05l-.06-6.1,.83,.83c-2.63,.03-5.25,.02-7.88,.03-2.63,0-5.25,.02-7.88-.02h-.54s-.22-.48-.22-.48l-5.57-12.15-2.78-6.07c-.93-2.02-1.79-4.08-2.3-6.3Z"/>
              <path class="cls-14" d="M400.85,141.55s.22,.22,.39,.6c.08,.19,.16,.42,.19,.69,.03,.26,.03,.56,.06,.89,.07,1.3,.18,3.04,.21,4.77,.04,1.74,0,3.47-.06,4.77-.01,.33-.03,.62-.04,.89,0,.26-.03,.5-.15,.69-.11,.19-.25,.34-.39,.44-.11,.1-.22,.16-.22,.16,0,0-.11-.05-.22-.16-.14-.1-.28-.25-.39-.44-.11-.19-.15-.42-.15-.69-.01-.26-.02-.56-.04-.89-.05-1.3-.1-3.04-.06-4.77,.03-1.74,.14-3.47,.21-4.77,.02-.33,.03-.62,.06-.89,.03-.26,.11-.5,.19-.69,.18-.38,.4-.6,.4-.6Z"/>
            </g>
            <g>
              <path class="cls-14" d="M489.66,118.07c-.26,2.15-.81,4.2-1.43,6.23l-1.94,6.06-3.88,12.12-.17,.54h-.58c-3.76,.05-7.52,.09-11.27,.07-3.76,0-7.52,0-11.27-.04l.82-.82-.06,6.93c-.02,1.16,.02,2.31-.08,3.47-.05,.58-.12,1.16-.22,1.73-.11,.58-.25,1.16-.47,1.73-.22-.58-.36-1.16-.47-1.73-.11-.58-.18-1.16-.22-1.73-.09-1.16-.05-2.31-.08-3.47l-.06-6.93v-.81s.82,0,.82,0c3.76-.04,7.52-.04,11.27-.04,3.76-.02,7.52,.02,11.27,.06l-.76,.55,4.13-12.04,2.07-6.02c.71-2,1.5-3.97,2.57-5.85Z"/>
              <path class="cls-14" d="M481.65,140.55s.22,.23,.4,.63c.08,.2,.16,.44,.19,.72,.03,.28,.03,.59,.06,.94,.07,1.38,.18,3.21,.21,5.04,.04,1.83,0,3.67-.06,5.04-.01,.34-.03,.66-.04,.94,0,.28-.03,.52-.15,.72-.11,.2-.25,.36-.39,.47-.11,.11-.22,.16-.22,.16,0,0-.11-.06-.22-.16-.14-.11-.28-.26-.39-.47-.11-.2-.15-.44-.15-.72-.01-.28-.02-.59-.04-.94-.05-1.38-.1-3.21-.06-5.04,.03-1.83,.14-3.67,.21-5.04,.02-.34,.03-.66,.06-.94,.03-.28,.11-.52,.19-.72,.18-.4,.4-.63,.4-.63Z"/>
            </g>
            <g>
              <path class="cls-7" d="M430.07,124.21c-.12,.87-.95,1.41-1.77,1.82,.19-.81,.3-1.62,.35-2.31,.42-.24,.93-.34,1.2-.21,.2,.1,.27,.33,.22,.71Zm.02-1.18c-.39-.19-.92-.13-1.4,.07,.03-.75,.01-1.26,.01-1.27v-.05s-6.4,0-6.4,0v.05s-.13,2.66,.6,4.95c.48,1.52,1.32,2.17,1.36,2.2h.01s2.45,.01,2.45,.01h.01s.87-.69,1.36-2.21c0-.02,.01-.05,.02-.07,1-.47,2.31-1.12,2.48-2.43,.11-.81-.27-1.13-.51-1.25Z"/>
              <g>
                <path class="cls-14" d="M430.07,124.21c-.04,.2,.09,.49,.09,.81,0,.15-.01,.33-.14,.4-.09,.1-.19,.19-.28,.28-.39,.34-.81,.57-1.22,.77l-.86,.43,.15-1,.34-2.24,.04-.29,.21-.11c.37-.2,.74-.35,1.26-.33,.07,0,.14,0,.21,.03,.07,.04,.14,.09,.21,.16,.04,.05,.13,.16,.15,.24,.03,.08,.03,.17,.03,.24-.04,.29-.18,.43-.19,.6Zm0,0c.03-.16-.09-.38-.26-.41-.04,0-.08,0-.11,.02-.04,0-.02,.06-.05,.07,0,.02-.02,.05-.03,.06-.01,.01-.02-.01-.04-.01-.17-.02-.47,.07-.69,.2l.25-.4-.36,2.39-.71-.56c.38-.19,.73-.39,1.01-.63,.07-.06,.14-.12,.19-.19,.02-.09,.15-.09,.26-.13,.12-.03,.25-.07,.36-.14,.1-.07,.17-.17,.18-.28Z"/>
                <path class="cls-14" d="M430.09,123.03c-.45-.21-.97-.05-1.35,.2l-.15,.1-.05-.24-.26-1.29,.41,.39c-.27,.04-.53,.1-.8,.1-.27,0-.53-.02-.8-.01h-1.6s-3.2,0-3.2,0l.5-.47c-.02,.6,0,1.24,.04,1.86,.05,.62,.13,1.24,.25,1.84,.06,.3,.13,.6,.22,.89,.04,.15,.08,.28,.14,.43,.05,.15,.1,.26,.16,.4,.12,.27,.26,.52,.43,.76,.08,.12,.17,.23,.26,.33,.09,.1,.2,.21,.27,.27l-.3-.1h2.45l-.3,.1c.12-.09,.27-.25,.39-.4,.12-.16,.24-.32,.34-.5,.21-.35,.37-.73,.49-1.14l.06-.21,.2-.1c.38-.18,.74-.35,1.06-.57,.3-.24,.65-.38,.93-.63,.29-.24,.52-.56,.61-.97,.11-.38-.02-.87-.42-1.06Zm0,0c.4,.18,.6,.63,.63,1.08,.05,.44-.02,.94-.25,1.38-.23,.43-.56,.83-.97,1.05-.39,.24-.79,.44-1.18,.62l.26-.3c-.14,.46-.34,.92-.59,1.35-.13,.21-.27,.42-.42,.62-.16,.2-.32,.38-.56,.57l-.13,.1h-2.8l-.13-.1c-.18-.14-.29-.26-.42-.4-.12-.14-.23-.28-.33-.42-.2-.29-.37-.6-.52-.92-.07-.15-.14-.34-.2-.49-.05-.15-.11-.33-.15-.48-.1-.32-.17-.65-.24-.97-.13-.65-.22-1.31-.27-1.96-.05-.66-.07-1.3-.05-1.99l.02-.47h.48s3.2,0,3.2,0h1.6c.27,0,.53,0,.8-.01,.27,0,.53,.06,.8,.1l.46,.07-.05,.32c-.07,.45-.19,.9-.27,1.34l-.2-.14c.5-.1,1.02-.15,1.46,.06Z"/>
              </g>
            </g>
            <g>
              <path class="cls-7" d="M192.06,121.51c.27-.13,.78-.03,1.2,.21,.05,.69,.16,1.5,.35,2.31-.82-.41-1.66-.94-1.77-1.82-.05-.37,.02-.61,.22-.71Zm-.75,.77c.17,1.31,1.49,1.96,2.48,2.43,0,.02,.01,.05,.02,.07,.48,1.52,1.32,2.17,1.36,2.2h.01s2.45,.01,2.45,.01h.01s.87-.69,1.36-2.21c.73-2.28,.61-4.92,.61-4.95v-.05s-6.4,0-6.4,0v.05s-.03,.51,0,1.27c-.48-.2-1.01-.27-1.4-.07-.24,.12-.62,.44-.51,1.25Z"/>
              <g>
                <path class="cls-14" d="M192.06,121.51c.18-.07,.41-.24,.69-.36,.14-.04,.29-.1,.41-.04,.11,.07,.23,.11,.34,.18l.21,.13,.04,.27,.34,2.24,.15,1.01-.86-.44c-.53-.27-1.09-.57-1.55-1.11-.11-.14-.22-.29-.3-.46-.04-.09-.08-.17-.11-.26-.02-.09-.09-.17-.06-.28,.03-.19,.15-.38,.29-.54,.14-.16,.28-.26,.4-.32Zm0,0c-.14,.07-.15,.25-.05,.37,.09,.13,.23,.22,.32,.31,.06,.04,.02,.09,.05,.14,.01,.05,.04,.09,.05,.13,.04,.09,.1,.17,.17,.26,.28,.34,.74,.61,1.23,.86l-.71,.56-.36-2.39,.25,.4c-.07-.04-.14-.09-.22-.09-.08-.03-.12-.15-.19-.23-.12-.2-.33-.42-.54-.32Z"/>
                <path class="cls-14" d="M191.31,122.28c.04,.3,.17,.59,.36,.82,.19,.23,.44,.4,.7,.53,.26,.13,.54,.23,.81,.32,.27,.1,.56,.17,.83,.3l.21,.11,.06,.21,.04,.15,.05,.16,.11,.28c.08,.19,.18,.37,.28,.55,.1,.18,.22,.34,.34,.5,.12,.15,.27,.31,.39,.4l-.3-.1h2.45l-.3,.1c.07-.06,.18-.17,.27-.27,.09-.1,.18-.22,.26-.33,.16-.24,.31-.49,.43-.76,.06-.13,.11-.27,.17-.41,.05-.14,.09-.26,.14-.43,.09-.31,.15-.58,.22-.89,.12-.6,.2-1.22,.25-1.84,.05-.62,.07-1.26,.04-1.86l.5,.47h-6.4s.5-.48,.5-.48v.14s0,.16,0,.16v.33c0,.22-.04,.44-.07,.66l-.09,.73-.51-.34c-.34-.23-.76-.44-1.17-.34-.11,.03-.2,.08-.29,.15-.09,.07-.16,.17-.2,.27-.1,.21-.11,.47-.08,.7Zm0,0c-.04-.24-.04-.48,.01-.73,.03-.12,.08-.24,.15-.35,.07-.11,.17-.21,.28-.29,.48-.33,1.1-.33,1.63-.2l-.59,.39c-.03-.22-.08-.44-.09-.66v-.68s.02-.48,.02-.48h.49s6.4,0,6.4,0h.48s.02,.47,.02,.47c.03,.68,0,1.33-.05,1.99-.05,.66-.14,1.31-.27,1.96-.06,.32-.15,.67-.24,.98-.04,.14-.1,.32-.15,.49-.06,.16-.12,.32-.2,.48-.14,.32-.32,.62-.52,.92-.1,.14-.21,.29-.33,.42-.13,.14-.24,.26-.42,.4l-.13,.1h-2.8l-.13-.1c-.24-.19-.39-.37-.56-.57-.16-.2-.3-.4-.42-.62-.12-.21-.24-.43-.33-.66l-.14-.35-.06-.16-.06-.17,.27,.31c-.28-.13-.53-.32-.79-.52-.25-.2-.49-.44-.7-.69-.42-.51-.7-1.08-.78-1.68Z"/>
              </g>
            </g>
          </g>
          <g class="cls-16">
            <path class="cls-7" d="M180.49,49.9c0,6.03,4.89,10.92,10.92,10.92h0c6.03,0,10.92-4.89,10.92-10.92v-6.81h-21.85v6.81Z"/>
            <path class="cls-7" d="M224.19,49.9c0,6.03,4.89,10.92,10.92,10.92h0c6.03,0,10.92-4.89,10.92-10.92v-6.81h-21.85v6.81Z"/>
            <path class="cls-7" d="M267.89,49.9c0,6.03,4.89,10.92,10.92,10.92h0c6.03,0,10.92-4.89,10.92-10.92v-6.81h-21.85v6.81Z"/>
            <path class="cls-7" d="M311.58,43.09v6.81c0,6.03,4.89,10.92,10.92,10.92h0c6.03,0,10.92-4.89,10.92-10.92v-6.81h-21.85Z"/>
          </g>
          <g class="cls-17">
            <path class="cls-7" d="M180.49,43.09c5.27,0,12.9,1.52,17.86,0,5.42-1.66,4.41-1.28,6.6-7.96-5.1,0-12.16-1.36-17.01,0-5.31,1.49-4.67,1.9-7.45,7.96Z"/>
            <path class="cls-7" d="M224.19,43.09c4.95,0,11.88,1.35,16.57,0,6.45-1.86,5.23,.68,5.8-7.96-4.75,0-11.27-1.26-15.78,0-6.32,1.76-4.98-.23-6.59,7.96Z"/>
            <path class="cls-7" d="M267.36,35.12c.57,8.64-.66,6.1,5.8,7.96,4.69,1.35,11.62,0,16.57,0-1.61-8.19-.27-6.2-6.59-7.96-4.51-1.26-11.03,0-15.78,0Z"/>
            <path class="cls-7" d="M329.78,35.12h-20.8c2.19,6.68,1.18,6.3,6.6,7.96,4.96,1.52,12.59,0,17.86,0-1.22-2.65-2.44-5.31-3.65-7.96Z"/>
          </g>
          <path class="cls-14" d="M491.88,130.14h-71c-.28,0-.5-.22-.5-.5s.22-.5,.5-.5h71c.28,0,.5,.22,.5,.5s-.22,.5-.5,.5Z"/>
          <path class="cls-14" d="M171.88,12.64l3.61-.19c1.15-.05,2.54-.12,4.14-.19,.8-.04,1.65-.08,2.55-.12,.9-.04,1.84,.01,2.82,0h57.75c.98,.02,1.93-.04,2.82,0,.9,.04,1.75,.08,2.55,.12,1.6,.07,2.99,.14,4.14,.19,2.3,.12,3.61,.19,3.61,.19,0,0-1.31,.07-3.61,.19-1.15,.05-2.54,.12-4.14,.19-.8,.04-1.65,.08-2.55,.12-.9,.05-1.84,0-2.82,0h-57.75c-.98-.01-1.93,.04-2.82,0-.9-.04-1.75-.08-2.55-.12-1.6-.07-2.99-.14-4.14-.19l-3.61-.19Z"/>
          <path class="cls-14" d="M171.88,21.64s1.05-.07,2.88-.19c.92-.05,2.03-.12,3.31-.19,.64-.04,1.32-.08,2.04-.12,.72-.04,1.47,.01,2.26,0h46.13c.79,.02,1.54-.04,2.26,0,.72,.04,1.4,.08,2.04,.12,1.28,.07,2.39,.14,3.31,.19,1.83,.12,2.88,.19,2.88,.19,0,0-1.05,.07-2.88,.19-.92,.05-2.03,.12-3.31,.19-.64,.04-1.32,.08-2.04,.12-.72,.05-1.47,0-2.26,0h-46.13c-.79-.01-1.54,.04-2.26,0-.72-.04-1.4-.08-2.04-.12-1.28-.07-2.39-.14-3.31-.19-1.83-.12-2.88-.19-2.88-.19Z"/>
          <g>
            <path class="cls-14" d="M27.34,142.15s-.01,.33-.03,.94c0,.31-.04,.68-.09,1.12-.03,.45-.12,.95-.23,1.52-.23,1.13-.57,2.53-1.37,4-.39,.73-.89,1.47-1.5,2.2-.3,.36-.68,.67-1.05,1-.39,.3-.8,.6-1.22,.9-1.72,1.14-3.86,1.99-6.21,2.27-.6,.05-1.16,.09-1.82,.08-.58-.04-1.14-.03-1.79-.15-1.28-.16-2.47-.55-3.67-1.05-1.19-.51-2.3-1.24-3.33-2.07-1.02-.86-1.91-1.88-2.68-2.99-.75-1.13-1.32-2.39-1.74-3.69-.39-1.34-.57-2.66-.6-4.11,.02-1.25,.21-2.74,.6-4.03,.42-1.31,.99-2.56,1.74-3.69,.77-1.12,1.66-2.14,2.68-2.99,1.03-.83,2.14-1.56,3.33-2.07,2.35-1.05,4.97-1.37,7.25-1.12,2.42,.29,4.51,1.13,6.25,2.28,.83,.61,1.65,1.18,2.26,1.91,.61,.72,1.1,1.47,1.5,2.19,.79,1.47,1.14,2.87,1.37,3.99,.11,.57,.2,1.07,.23,1.52,.05,.44,.09,.82,.09,1.12,.02,.61,.03,.94,.03,.94Zm0,0s-.02-.33-.06-.94c0-.31-.07-.68-.16-1.11-.05-.22-.08-.45-.15-.7-.08-.24-.17-.49-.26-.76-.39-1.06-1.01-2.3-2-3.48-.49-.59-1.04-1.18-1.67-1.75-.31-.28-.65-.55-.96-.87-.34-.29-.71-.55-1.08-.82-1.52-1.02-3.48-1.78-5.51-2.03-2.17-.24-4.41,.06-6.54,.99-1.06,.46-2.05,1.11-2.97,1.85-.91,.77-1.71,1.68-2.4,2.68-.67,1.01-1.18,2.13-1.55,3.3-.35,1.2-.5,2.32-.54,3.68,.03,1.16,.19,2.44,.54,3.6,.38,1.17,.89,2.29,1.55,3.3,.69,1,1.49,1.91,2.4,2.68,.93,.74,1.91,1.39,2.97,1.85,1.05,.44,2.17,.8,3.23,.93,.51,.11,1.12,.11,1.69,.14,.49,0,1.07-.03,1.58-.08,2.1-.25,4.01-1.01,5.55-2.03,.37-.27,.74-.54,1.08-.82,.31-.31,.65-.58,.96-.87,.63-.57,1.18-1.16,1.66-1.75,.99-1.18,1.61-2.42,2-3.48,.09-.27,.18-.52,.26-.76,.07-.24,.1-.48,.15-.69,.1-.43,.16-.81,.16-1.11,.04-.61,.06-.94,.06-.94Z"/>
            <path class="cls-14" d="M76.81,142.15s-.01,.33-.03,.94c0,.31-.04,.68-.09,1.12-.03,.45-.12,.95-.23,1.52-.23,1.13-.57,2.53-1.37,4-.39,.73-.89,1.47-1.5,2.2-.3,.36-.68,.67-1.05,1-.39,.3-.8,.6-1.22,.9-1.72,1.14-3.86,1.99-6.21,2.27-.6,.05-1.16,.09-1.82,.08-.58-.04-1.14-.03-1.79-.15-1.28-.16-2.47-.55-3.67-1.05-1.19-.51-2.3-1.24-3.33-2.07-1.02-.86-1.91-1.88-2.68-2.99-.75-1.13-1.32-2.39-1.74-3.69-.39-1.32-.57-2.69-.6-4.07,.05-.74,.03-1.3,.16-2.04,.08-.71,.27-1.37,.44-2.04,.42-1.31,.99-2.56,1.74-3.69,.77-1.12,1.66-2.14,2.68-2.99,1.03-.83,2.14-1.56,3.33-2.07,2.35-1.05,4.97-1.37,7.25-1.12,2.42,.29,4.51,1.13,6.25,2.28,.83,.61,1.65,1.18,2.26,1.91,.61,.72,1.1,1.47,1.5,2.19,.79,1.47,1.14,2.87,1.37,3.99,.11,.57,.2,1.07,.23,1.52,.05,.44,.09,.82,.09,1.12,.02,.61,.03,.94,.03,.94Zm0,0s-.02-.33-.06-.94c0-.31-.07-.68-.16-1.11-.05-.22-.08-.45-.15-.7-.08-.24-.17-.49-.26-.76-.39-1.06-1.01-2.3-2-3.48-.49-.59-1.04-1.18-1.67-1.75-.31-.28-.65-.55-.96-.87-.34-.29-.71-.55-1.08-.82-1.52-1.02-3.48-1.78-5.51-2.03-2.17-.24-4.41,.06-6.54,.99-1.06,.46-2.05,1.11-2.97,1.85-.91,.77-1.71,1.68-2.4,2.68-.67,1.01-1.18,2.13-1.56,3.3-.35,1.19-.51,2.35-.54,3.64,.03,1.23,.19,2.46,.54,3.64,.38,1.17,.89,2.29,1.56,3.3,.69,1,1.49,1.91,2.4,2.68,.93,.74,1.91,1.39,2.97,1.85,1.05,.44,2.17,.8,3.23,.93,.51,.11,1.12,.11,1.69,.14,.49,0,1.07-.03,1.58-.08,2.1-.25,4.01-1.01,5.55-2.03,.37-.27,.74-.54,1.08-.82,.31-.31,.65-.58,.96-.87,.63-.57,1.17-1.16,1.66-1.75,.99-1.18,1.61-2.42,2-3.48,.09-.27,.18-.52,.26-.76,.07-.24,.1-.48,.15-.69,.1-.43,.16-.81,.16-1.11,.04-.61,.06-.94,.06-.94Z"/>
            <path class="cls-14" d="M52.21,120.33c-1.08,1.96-2.19,3.9-3.31,5.84l-1.67,2.91c-.28,.48-.55,.97-.86,1.44l-.94,1.38-7.4,11.03c-.14,.22-.38,.21-.63,.21H14.13c-.41,0-.75-.21-.75-.63,0-.15,.04-.23,.12-.35l11.81-18.11c.12-.18,.31-.28,.51-.32l6.57-1.03c2.19-.35,4.38-.68,6.57-1.05,1.09-.2,2.2-.26,3.31-.38l3.32-.33c2.21-.22,4.42-.43,6.64-.62Zm0,0c-2.16,.51-4.33,.99-6.5,1.46l-3.25,.71c-1.09,.22-2.16,.51-3.26,.66-2.19,.32-4.38,.69-6.57,1.03l-6.57,1.04,.51-.33-11.81,18.27-.63-1.03h23.28l-.62,.21,7.4-11.22,.91-1.44c.3-.47,.65-.92,.99-1.37l2.03-2.68c1.35-1.78,2.71-3.57,4.1-5.32Z"/>
            <path class="cls-14" d="M64.9,143.65c-1.69-2.09-3.09-4.34-4.4-6.64-.66-1.15-1.18-2.38-1.72-3.59-.53-1.22-1.11-2.42-1.78-3.56-.66-1.15-1.41-2.25-2.15-3.35-.76-1.09-1.47-2.22-2.14-3.35-.67-1.14-1.39-2.26-2.03-3.42-.65-1.15-1.26-2.33-1.85-3.52l-.03-.06c-.16-.33-.03-.73,.3-.89l.05-.02c1.08-.43,2.16-.84,3.26-1.22,1.09-.39,2.2-.76,3.32-1.09,.04-.01,.08,.01,.09,.05,0,.03,0,.07-.03,.08-.99,.63-1.99,1.22-3.01,1.79-1.01,.58-2.04,1.12-3.07,1.65l.32-.97c.71,1.12,1.39,2.26,2.03,3.42,.66,1.15,1.24,2.34,1.86,3.52,.62,1.17,1.2,2.36,1.74,3.58,.55,1.21,1.1,2.42,1.73,3.58,.62,1.17,1.34,2.29,2.11,3.38,.75,1.1,1.53,2.18,2.16,3.34,1.28,2.32,2.46,4.69,3.36,7.23,.01,.04,0,.08-.05,.1-.03,.01-.06,0-.08-.02Z"/>
            <path class="cls-12" d="M32.43,142.41c0-2.59,2.1-4.69,4.69-4.69s4.69,2.1,4.69,4.69-2.1,4.69-4.69,4.69-4.69-2.1-4.69-4.69Z"/>
            <path class="cls-14" d="M37.12,143.16c-.25,0-.5-.12-.64-.35l-11.18-17.91c-.22-.35-.11-.81,.24-1.03,.35-.22,.81-.11,1.03,.24l11.18,17.91c.22,.35,.11,.81-.24,1.03-.12,.08-.26,.11-.4,.11Z"/>
            <path class="cls-12" d="M28.06,121.56l-5.86,1.19c-.9,.18-1.78-.4-1.96-1.3h0c-.18-.9,.4-1.78,1.3-1.96l5.86-1.19c.9-.18,1.78,.4,1.96,1.3h0c.18,.9-.4,1.78-1.3,1.96Z"/>
          </g>
          <g>
            <path class="cls-12" d="M499.3,135.26c-.04,.74,1.11,2.08,1.87,2.94,.76,.86,2.92,3.34,2.92,3.34-.05,2.77-1.04,6.71,2.45,8.52l.5,3.83c.13,.67,.65,1.19,1.35,1.17s.46-.42,.61-1.06l.44-2.92,2.04,.02c4.78,.08,11.74-1.63,15.64-2.72,2.46,.23,3.46,6.06,3.46,6.06,.19,.55,.71,.93,1.3,.94,.73,.01,1.35-.55,1.41-1.28,0,0-1.96-4.71-1.54-6.48s.43-1.24,.44-1.9c.01-.82-.22-1.61-.67-2.28,0,0,1.13-.93,1.4-2.46,.26-1.53-.28-2.8-.58-3.36-.3-.56-1.32-1.03-1.24,.21,2.04,3.1-1.5,4.25-1.5,4.25-.42-.12-.86-.12-1.28-.13l-18.09-.33c-2.68-.04-1.62-1.51-1.43-1.96,.13-.38,.2-.79,.2-1.19,.02-1.39-3.63-3.13-5.98-4.11-1.11-.46-.59-1.55-1.93-1.75-1.34-.2-2.13,1.5-1.8,2.63Z"/>
            <path class="cls-15" d="M505.78,142.84c-1.99,1.61,.44,5.79,3.03,2.92,3.98-4.41-.4-8.3-.4-8.3,0,0,.62,2.75-2.63,5.38Z"/>
          </g>
          <g class="cls-18">
            <path class="cls-13" d="M135.85,62.69c0,1.98-1.6,3.58-3.58,3.58s-3.58-1.6-3.58-3.58,1.6-3.58,3.58-3.58,3.58,1.6,3.58,3.58Z"/>
          </g>
          <g class="cls-18">
            <path class="cls-13" d="M72.46,36.68c0,1.79-1.45,3.25-3.25,3.25s-3.25-1.45-3.25-3.25,1.45-3.25,3.25-3.25,3.25,1.45,3.25,3.25Z"/>
          </g>
          <g>
            <path class="cls-3" d="M93.27,155.45c-.38-31.31-.38-63.31,0-93.93v93.93Z"/>
            <path class="cls-14" d="M92.4,155.79c.25-.04,.5-.08,.78-.08,.34,0,.65,.03,.94,.1,.08-10.46,.18-23.96,.27-37.48,0-7.1,0-14.2,0-20.86-.03-6.66-.07-12.87-.09-18.2-.02-2.66-.03-5.1-.04-7.27,0-2.16-.04-4.05-.19-5.6-.28-3.11-.82-4.88-.82-4.88,0,0-.53,1.78-.82,4.88-.15,1.55-.2,3.44-.19,5.6-.01,2.16-.03,4.6-.04,7.27-.03,5.33-.06,11.54-.09,18.2,0,6.66,0,13.76,0,20.86,.1,13.51,.2,27,.27,37.46Z"/>
          </g>
          <g>
            <line class="cls-1" x1="93.44" y1="96.35" x2="112.9" y2="74.21"/>
            <path class="cls-14" d="M93.06,96.02l19.83-21.81-19.08,22.47c-.18,.21-.49,.24-.7,.06-.21-.18-.24-.49-.06-.7,0,0,0,0,.01-.01Z"/>
          </g>
          <g>
            <line class="cls-1" x1="79.93" y1="59.39" x2="92.97" y2="71.86"/>
            <path class="cls-14" d="M79.93,59.39l13.38,12.11c.2,.19,.22,.5,.04,.71-.19,.2-.5,.22-.71,.04,0,0-.01-.01-.02-.02l-12.69-12.83Z"/>
          </g>
          <g>
            <line class="cls-1" x1="93.44" y1="62.43" x2="103.36" y2="51.39"/>
            <path class="cls-14" d="M93.07,62.09l10.3-10.7-9.55,11.37c-.18,.21-.49,.24-.7,.06-.21-.18-.24-.49-.06-.7,0,0,.02-.02,.02-.03Z"/>
          </g>
          <g>
            <path class="cls-5" d="M334.85,9.33h-27.34c-1.32,3.99-.66,11.99,4.68,16.01h16.01c2.84-2.15,3.99-5.44,4.44-8.66,.62,.41,1.42,.66,2.25,.66,2.25,0,3.99-1.77,3.99-3.99s-1.8-4.02-4.02-4.02Zm0,6c-1.01,0-1.91-.83-2.01-1.8,0-.17,.03-.31,.03-.45,.14-.97,.97-1.73,1.97-1.73,1.11,0,2.01,.9,2.01,2.01s-.94,1.97-2.01,1.97Z"/>
            <path class="cls-14" d="M328.37,25.84h-16.35l-.13-.1c-5.4-4.06-6.29-12.23-4.85-16.57l.11-.34h27.71c2.49,0,4.52,2.03,4.52,4.52s-1.97,4.49-4.49,4.49c-.65,0-1.29-.13-1.87-.38-.65,3.76-2.13,6.48-4.52,8.29l-.13,.1Zm-16.01-1h15.67c2.24-1.75,3.58-4.45,4.11-8.23l.11-.79,.66,.44c.56,.37,1.26,.58,1.97,.58,1.96,0,3.49-1.53,3.49-3.49s-1.58-3.52-3.52-3.52h-26.97c-1.17,4.09-.29,11.3,4.48,15.01Zm22.5-9.01c-1.25,0-2.37-1.01-2.51-2.25,0-.17,0-.27,.02-.36,0-.05,.01-.1,.01-.14,.18-1.3,1.24-2.23,2.47-2.23,1.38,0,2.51,1.13,2.51,2.51s-1.13,2.47-2.51,2.47Zm0-3.99c-.74,0-1.37,.56-1.48,1.3,0,.01,0,.1-.01,.19,0,.06-.02,.12-.02,.19,.08,.68,.77,1.3,1.51,1.3,.82,0,1.51-.67,1.51-1.47s-.68-1.51-1.51-1.51Z"/>
          </g>
          <g>
            <g>
              <path class="cls-3" d="M439.74,40.88c-23.17,0-43.19,18.45-57.9,43.17-.45,.75,5.16,9.05,9.28,9.05,2.44,0,4.67-.97,6.39-2.38,.96-.79,2.39-.66,3.41,.07,1.7,1.21,3.85,1.89,6.21,1.89,2.56,0,4.88-.92,6.63-2.39,.94-.79,2.43-.79,3.37-.02,1.75,1.43,4.07,2.3,6.63,2.3,2.36,0,4.52-.76,6.21-2.02,1.07-.79,2.52-.79,3.59,0,1.7,1.25,3.85,2,6.21,2,2.51,0,4.79-.85,6.54-2.24,.93-.74,2.36-.74,3.29,0,1.74,1.39,4.03,2.24,6.53,2.24,2.36,0,4.52-.76,6.21-2.01,1.07-.79,2.52-.79,3.59,0,1.7,1.25,3.85,2.01,6.21,2.01,2.55,0,4.87-.88,6.62-2.32,.96-.78,2.45-.77,3.39,.02,1.7,1.42,3.92,2.29,6.45,2.29,5.47,0,9.74-2.9,9.74-7.86,0-.19-26.15-43.8-58.61-43.8Z"/>
              <path class="cls-14" d="M439.74,40.93s-1.11,.06-3.18,.17c-1.04,0-2.3,.25-3.79,.47-1.5,.16-3.16,.66-5.05,1.11-3.71,1.09-8.1,2.87-12.71,5.67-4.62,2.79-9.38,6.63-14.06,11.31-4.7,4.68-9.23,10.29-13.56,16.53-1.04,1.59-2.18,3.15-3.18,4.82-.52,.83-1.04,1.66-1.57,2.49l-.4,.63-.05,.08s.04-.1,0,0c-.02,.09,.03-.03,.01,0,.02,.08,.05,.18,.09,.29,.17,.42,.41,.85,.66,1.27,1.03,1.67,2.29,3.25,3.75,4.63,.73,.69,1.52,1.32,2.39,1.8,.44,.23,.89,.43,1.36,.53,.23,.05,.48,.08,.71,.08,.26,0,.52,0,.76-.03,2.02-.16,3.96-1.02,5.59-2.34,.98-.69,2.28-.57,3.24-.01,.9,.63,1.78,1.13,2.79,1.47,1.99,.68,4.2,.79,6.26,.25,1.03-.27,2.02-.71,2.92-1.29,.46-.28,.84-.64,1.33-.96,.5-.29,1.09-.41,1.66-.37,.57,.04,1.15,.27,1.58,.63,.43,.34,.87,.63,1.34,.9,.94,.52,1.97,.89,3.03,1.09,2.12,.41,4.38,.18,6.35-.73,.49-.22,.97-.49,1.42-.79,.42-.29,.92-.69,1.51-.83,.57-.16,1.19-.16,1.77,.02,.59,.15,1.07,.55,1.51,.83,1.82,1.17,4.02,1.7,6.19,1.57,2.17-.13,4.24-.95,5.93-2.34,1.07-.7,2.51-.63,3.5,.15,.85,.67,1.8,1.18,2.81,1.53,2.02,.7,4.25,.76,6.28,.18,1.02-.29,1.98-.74,2.85-1.34,.37-.28,.98-.7,1.58-.82,.61-.15,1.25-.12,1.85,.06,.3,.1,.58,.23,.84,.4,.25,.16,.46,.33,.68,.46,.43,.27,.9,.52,1.38,.73,.95,.41,1.97,.67,3,.77,2.08,.21,4.16-.22,5.95-1.21,.44-.25,.87-.53,1.27-.85l.33-.25c.13-.09,.29-.19,.43-.25,.29-.14,.59-.23,.9-.27,.62-.09,1.26,0,1.83,.25,.28,.12,.58,.34,.77,.5,.21,.17,.4,.31,.61,.45,1.65,1.14,3.67,1.69,5.64,1.63,2.03-.04,4-.48,5.66-1.47,1.66-.98,2.86-2.59,3.21-4.42,.1-.46,.13-.92,.15-1.39-.02-.15,.03,.1,0,.05l-.04-.08c-.03-.06-.05-.07-.08-.11-.06-.08-.08-.12-.15-.23l-.39-.63c-.52-.83-1.06-1.65-1.6-2.46-1.09-1.62-2.2-3.19-3.33-4.72-4.53-6.1-9.24-11.55-13.98-16.19-2.37-2.32-4.73-4.45-7.08-6.35-2.34-1.92-4.67-3.59-6.94-5.04-4.55-2.89-8.84-4.91-12.53-6.07-3.7-1.19-6.73-1.58-8.79-1.82-2.07-.1-3.18-.16-3.18-.16Zm0-.1s1.11,.05,3.19,.13c2.07,.22,5.12,.59,8.84,1.75,3.71,1.16,8.08,3.04,12.71,5.88,2.31,1.41,4.7,3.04,7.1,4.92,2.41,1.86,4.86,3.93,7.26,6.25,4.84,4.61,9.67,10.03,14.22,16.18,1.14,1.54,2.26,3.12,3.36,4.75,.55,.81,1.09,1.64,1.62,2.48l.4,.64c.06,.1,.16,.27,.23,.41l.11,.21,.04,.08s.05,.31,.03,.23c-.02,.53-.05,1.06-.16,1.59-.39,2.12-1.82,4.03-3.68,5.12-1.85,1.12-4.06,1.56-6.17,1.6-2.19,.05-4.41-.56-6.24-1.84-.49-.32-.85-.72-1.22-.87-.39-.18-.84-.25-1.28-.18-.22,.03-.43,.09-.62,.18-.11,.05-.17,.09-.26,.15l-.31,.23c-.44,.35-.91,.66-1.4,.93-1.95,1.09-4.29,1.53-6.51,1.29-1.12-.12-2.23-.4-3.27-.86-.52-.23-1.02-.49-1.5-.81-.51-.33-.85-.64-1.3-.77-.44-.14-.93-.17-1.38-.06-.49,.11-.8,.32-1.31,.68-.95,.63-2,1.11-3.11,1.41-2.2,.6-4.58,.5-6.73-.27-1.07-.39-2.09-.96-2.98-1.67-.75-.63-1.93-.67-2.73-.17-1.74,1.4-4,2.28-6.27,2.38-2.26,.12-4.58-.45-6.48-1.7-.49-.32-.87-.65-1.37-.79-.49-.15-1.02-.16-1.51-.03-.51,.11-.9,.42-1.38,.75-.47,.31-.97,.58-1.48,.81-2.06,.92-4.4,1.15-6.59,.7-1.1-.22-2.16-.61-3.13-1.16-.48-.27-.95-.6-1.38-.94-.4-.34-.89-.54-1.41-.58-.51-.04-1.04,.06-1.49,.31-.43,.27-.84,.67-1.31,.96-.92,.61-1.94,1.06-3,1.35-2.13,.57-4.4,.47-6.47-.22-1.02-.33-2.02-.9-2.87-1.48-.86-.5-2.01-.55-2.78,.02-1.62,1.37-3.67,2.33-5.8,2.53-.27,.03-.54,.04-.79,.04-.29,0-.56-.03-.84-.08-.54-.11-1.05-.32-1.52-.57-.95-.5-1.78-1.15-2.55-1.85-1.53-1.41-2.84-3-3.94-4.72-.27-.44-.53-.88-.74-1.38-.05-.13-.1-.26-.13-.43-.02-.09-.01-.34,0-.37-.03,.04,.06-.16,.07-.17l.05-.08,.39-.64c.52-.85,1.03-1.69,1.54-2.53,1-1.69,2.13-3.26,3.17-4.87,4.29-6.33,8.93-11.93,13.72-16.6,4.78-4.67,9.7-8.41,14.39-11.13,4.7-2.74,9.16-4.39,12.89-5.48,1.89-.44,3.56-.93,5.07-1.08,1.5-.21,2.76-.45,3.81-.44,2.08-.1,3.19-.15,3.19-.15Z"/>
            </g>
            <path class="cls-2" d="M439.74,46.43c-23.16-.62-43.19,12.9-57.9,37.62-.45,.75,5.2,8.64,9.32,8.64,2.44,0,4.67-.97,6.39-2.38,.96-.79,2.39-.66,3.41,.07,1.7,1.21,3.85,1.89,6.21,1.89,2.56,0,4.88-.92,6.63-2.39,.94-.79,2.43-.79,3.37-.02,1.75,1.43,4.07,2.3,6.63,2.3,2.36,0,4.52-.76,6.21-2.02,1.07-.79,2.52-.79,3.59,0,1.7,1.25,3.85,2,6.21,2,2.51,0,4.79-.85,6.54-2.24,.93-.74,2.36-.74,3.29,0,1.74,1.39,4.03,2.24,6.53,2.24,2.36,0,4.52-.76,6.21-2.01,1.07-.79,2.52-.79,3.59,0,1.7,1.25,3.85,2.01,6.21,2.01,2.55,0,4.87-.88,6.62-2.32,.96-.78,2.45-.77,3.39,.02,1.7,1.42,4.1,1.53,6.63,1.53,0,0-17.55-44.09-49.1-44.93Z"/>
          </g>
          <g>
            <g>
              <polygon class="cls-2" points="150.41 155.01 137.22 155.01 135.53 142.18 152.1 142.18 150.41 155.01"/>
              <path class="cls-11" d="M150.41,155.09l-13.19,.32c-.2,0-.37-.14-.4-.34v-.02s-1.94-12.79-1.94-12.79c-.05-.35,.19-.68,.54-.73h.08s.03,0,.03,0c5.53-.09,11.05-.35,16.58-.17h.06c.44,.02,.78,.38,.76,.82v.11c-.38,2.13-.68,4.26-1.11,6.38-.4,2.12-.82,4.24-1.32,6.35,0,.04-.05,.07-.08,.07Zm-.08-.17c.06-2.14,.2-4.27,.37-6.4,.14-2.16,.4-4.3,.6-6.44l.81,.93c-5.53,.18-11.05-.08-16.58-.17l.64-.74,1.45,12.85-.4-.35,13.11,.32Z"/>
            </g>
            <path class="cls-11" d="M143.9,127.25s.38,3.73,.6,7.47c.06,.93,.18,1.87,.21,2.74,0,.88-.09,1.69-.21,2.39-.22,1.4-.6,2.33-.6,2.33-.02,.05-.07,.07-.12,.05-.02,0-.04-.03-.05-.05,0,0-.38-.93-.6-2.33-.12-.7-.2-1.52-.21-2.39,.02-.88,.14-1.81,.21-2.74,.22-3.73,.6-7.47,.6-7.47,0-.05,.05-.08,.09-.08,.04,0,.07,.04,.08,.08Z"/>
            <g>
              <circle class="cls-6" cx="143.81" cy="125.08" r="2.95"/>
              <path class="cls-11" d="M147.61,125.12s0,.07-.02,.21c0,.1-.06,.48-.18,.74-.24,.61-.86,1.31-1.71,1.82-.42,.27-.93,.48-1.5,.54-.15,.01-.27,.02-.45,.02-.13,0-.24,0-.42-.02-.33-.03-.61-.11-.91-.23-.59-.24-1.13-.64-1.53-1.19-.39-.57-.61-1.21-.63-1.97,0-.6,.22-1.4,.62-1.92,.4-.55,.94-.97,1.53-1.22,.58-.24,1.24-.33,1.77-.27,.62,.08,1.13,.25,1.59,.5,.93,.49,1.48,1.31,1.67,1.93,.11,.31,.13,.57,.15,.74,.01,.17,.02,.27,.02,.27v.04Zm-1.7-.04s0-.21-.05-.56c-.06-.35-.2-.91-.73-1.4-.26-.23-.65-.41-1.01-.45-.45-.05-.87,0-1.28,.2-.4,.19-.75,.51-.99,.91-.24,.43-.37,.78-.37,1.34,0,.4,.11,.91,.36,1.29,.23,.4,.58,.73,.99,.93,.2,.1,.43,.18,.62,.21,.08,.03,.23,.03,.35,.04,.08,0,.21,0,.31-.01,.42-.05,.8-.2,1.1-.41,.61-.47,.68-1.15,.69-1.5,.02-.22,0-.25,.02-.41,0-.14,0-.21,0-.21v.04Z"/>
            </g>
            <g>
              <line class="cls-1" x1="143.91" y1="137.39" x2="149.19" y2="131.29"/>
              <path class="cls-11" d="M143.27,136.83l5.92-5.54-4.64,6.66c-.27,.39-.8,.48-1.19,.21-.39-.27-.48-.8-.21-1.19,.03-.05,.08-.1,.12-.14Z"/>
            </g>
            <g>
              <path class="cls-6" d="M152.14,131.29c0,1.63-1.32,2.95-2.95,2.95s-2.95-1.32-2.95-2.95,1.32-2.95,2.95-2.95,2.95,1.32,2.95,2.95Z"/>
              <path class="cls-11" d="M152.99,131.33s0,.07-.02,.21c0,.1-.06,.48-.18,.74-.24,.61-.86,1.31-1.71,1.82-.42,.27-.93,.48-1.5,.54-.15,.01-.27,.02-.45,.02-.13,0-.24,0-.42-.02-.33-.03-.61-.11-.91-.23-.59-.24-1.13-.64-1.53-1.19-.39-.56-.61-1.24-.63-1.94,0-.66,.22-1.41,.62-1.95,.4-.55,.94-.97,1.53-1.22,.58-.24,1.24-.33,1.77-.27,.62,.08,1.13,.25,1.59,.5,.93,.49,1.48,1.31,1.67,1.93,.11,.31,.13,.57,.15,.74,.01,.17,.02,.27,.02,.27v.04Zm-1.7-.04s0-.21-.06-.56c-.06-.35-.2-.91-.73-1.4-.25-.23-.65-.41-1.01-.45-.45-.05-.87,0-1.28,.2-.4,.19-.75,.51-.99,.91-.24,.42-.37,.81-.37,1.31-.03,.92,.53,1.84,1.35,2.25,.2,.1,.43,.18,.62,.21,.08,.03,.23,.03,.35,.04,.08,0,.21,0,.31-.02,.42-.05,.8-.2,1.1-.41,.61-.47,.68-1.15,.69-1.5,.02-.22,0-.25,.01-.41,0-.14,0-.21,0-.21v.04Z"/>
            </g>
            <g>
              <line class="cls-1" x1="143.25" y1="140.54" x2="138.47" y2="134.23"/>
              <path class="cls-11" d="M142.57,141.06l-4.1-6.83,5.46,5.8c.32,.34,.31,.89-.04,1.21-.34,.32-.89,.31-1.21-.04-.04-.04-.08-.1-.11-.15Z"/>
            </g>
            <g>
              <path class="cls-2" d="M141.42,134.23c0,1.63-1.32,2.95-2.95,2.95s-2.95-1.32-2.95-2.95,1.32-2.95,2.95-2.95,2.95,1.32,2.95,2.95Z"/>
              <path class="cls-11" d="M142.27,134.27s0,.07-.02,.21c0,.1-.06,.48-.18,.74-.24,.61-.86,1.31-1.71,1.82-.42,.27-.93,.48-1.5,.54-.15,.01-.27,.02-.45,.02-.13,0-.24,0-.42-.02-.33-.03-.61-.11-.91-.23-.59-.24-1.13-.64-1.53-1.19-.39-.57-.61-1.21-.63-1.97,0-.6,.22-1.4,.61-1.92,.4-.55,.94-.97,1.53-1.22,.58-.24,1.24-.33,1.77-.27,.62,.08,1.13,.25,1.59,.5,.93,.49,1.48,1.31,1.67,1.93,.11,.31,.13,.57,.15,.74,0,.17,.02,.27,.02,.27v.04Zm-1.7-.04s0-.21-.05-.56c-.06-.35-.2-.91-.73-1.4-.25-.23-.65-.41-1.01-.45-.45-.05-.87,0-1.28,.2-.4,.19-.75,.51-.99,.91-.24,.43-.37,.78-.37,1.34,0,.4,.11,.91,.36,1.29,.23,.4,.58,.73,.99,.93,.2,.1,.43,.18,.62,.21,.08,.03,.23,.03,.36,.04,.08,0,.21,0,.31-.01,.42-.05,.8-.2,1.1-.41,.61-.47,.68-1.15,.69-1.5,.02-.22,0-.25,.02-.41,0-.14,0-.21,0-.21v.04Z"/>
            </g>
          </g>
          <g>
            <g>
              <polygon class="cls-6" points="151.05 155.01 166.96 155.01 169 139.54 149.01 139.54 151.05 155.01"/>
              <path class="cls-11" d="M151.13,154.92l15.83-.32-.4,.35,1.8-15.5,.65,.74c-6.66,.08-13.33,.35-19.99,.17l.81-.93c.25,2.59,.57,5.17,.77,7.77,.22,2.57,.42,5.14,.54,7.72Zm-.16,.1c-.56-2.55-1.04-5.11-1.5-7.67-.48-2.56-.84-5.13-1.27-7.7-.07-.43,.22-.84,.65-.91h.1s.05-.01,.05-.01c6.66-.18,13.33,.08,19.99,.17h.02c.35,0,.64,.3,.63,.65v.09s-2.29,15.43-2.29,15.43h0c-.03,.22-.2,.36-.4,.36l-15.91-.32s-.08-.04-.08-.07Z"/>
            </g>
            <g>
              <path class="cls-6" d="M148.64,118.91c0,1.96,1.59,3.55,3.55,3.55s3.55-1.59,3.55-3.55-1.59-3.55-3.55-3.55-3.55,1.59-3.55,3.55Z"/>
              <path class="cls-11" d="M148.72,118.91s-.04,.36,.12,.93c.14,.57,.63,1.37,1.51,1.82,.44,.22,.94,.37,1.48,.39h.39c.15-.03,.32-.04,.43-.07,.25-.04,.53-.15,.77-.27,1.02-.5,1.72-1.66,1.63-2.79-.05-.61-.24-1.08-.58-1.52-.34-.41-.76-.73-1.22-.91-.46-.2-.89-.28-1.43-.28-.39,0-.89,.09-1.3,.24-.84,.33-1.43,1.01-1.62,1.56-.21,.55-.2,.9-.2,.9Zm-.17,0s-.04-.36,.06-.99c.11-.61,.36-1.6,1.27-2.45,.46-.42,1.04-.77,1.84-.91,.65-.13,1.52-.04,2.26,.29,.74,.35,1.4,.92,1.83,1.65,.42,.7,.65,1.62,.61,2.41-.03,.83-.32,1.64-.79,2.29-.47,.65-1.11,1.14-1.81,1.41-.35,.13-.69,.23-1.07,.26-.2,.03-.34,.02-.5,.02-.2,0-.35-.03-.52-.06-.66-.12-1.23-.4-1.67-.76-.87-.73-1.22-1.6-1.38-2.19-.16-.61-.15-.96-.15-.96Z"/>
            </g>
            <g>
              <line class="cls-1" x1="159.75" y1="137.56" x2="166.19" y2="129.95"/>
              <path class="cls-11" d="M159.1,137.01l7.09-7.06-5.79,8.16c-.27,.39-.81,.48-1.19,.2s-.48-.81-.2-1.19c.03-.04,.06-.08,.09-.11Z"/>
            </g>
            <g>
              <circle class="cls-2" cx="165.45" cy="129.95" r="3.55"/>
              <path class="cls-11" d="M161.98,129.95s-.04,.37,.19,.91c.2,.56,.88,1.17,1.68,1.48,.41,.15,.81,.31,1.28,.39l.34,.06c.15,.01,.33,.04,.43,.03,.23,.03,.53,0,.81-.05,.58-.1,1.14-.47,1.49-1.01,.37-.52,.44-1.24,.34-1.8-.13-.69-.42-1.12-.75-1.57-.35-.42-.79-.72-1.25-.89-.48-.17-.89-.22-1.42-.21-.37,.02-.84,.15-1.23,.28-.82,.27-1.48,.9-1.69,1.45-.24,.55-.18,.91-.2,.9Zm-.17,0s-.01-.35,.06-.99c.09-.61,.27-1.65,1.2-2.56,.48-.44,1.09-.74,1.91-.86,.66-.12,1.54,0,2.26,.36,.74,.36,1.37,.95,1.79,1.67,.43,.69,.55,1.65,.43,2.36-.11,.84-.45,1.51-.84,2.13-.42,.6-.93,1.13-1.55,1.56-.32,.2-.64,.37-1.03,.47-.21,.06-.35,.08-.5,.11-.23,.02-.38,.02-.57,.02-.72-.05-1.4-.33-1.86-.75-.96-.87-1.11-1.93-1.22-2.53-.08-.64-.07-.98-.07-.98Z"/>
            </g>
            <path class="cls-11" d="M154.46,121.63s.18,.21,.5,.57c.15,.19,.37,.39,.56,.67,.2,.28,.42,.59,.66,.94,.23,.35,.44,.75,.68,1.17,.25,.42,.43,.89,.67,1.36,.43,.96,.81,2.02,1.13,3.1,.3,1.08,.58,2.18,.77,3.21,.21,1.04,.33,2.02,.43,2.86,.09,.84,.15,1.55,.17,2.05,.02,.51,.03,.8,.03,.8l-1.7-.07s.02-.26,.04-.72c.02-.47,.03-1.15,.03-1.96-.02-.81-.05-1.77-.15-2.79-.08-1.02-.25-2.1-.44-3.17-.22-1.07-.48-2.13-.81-3.1-.18-.48-.32-.96-.52-1.38-.2-.43-.36-.84-.56-1.2-.2-.36-.39-.69-.55-.98-.16-.29-.36-.52-.49-.72-.28-.39-.44-.62-.44-.62Z"/>
          </g>
        </g>
      </g>
    </g>
  </g>
</svg>