<svg width="335" height="117" viewBox="0 0 335 117" fill="none" xmlns="http://www.w3.org/2000/svg">
<rect width="335" height="117" fill="white"/>
<path d="M67 45C67 42.7909 68.7909 41 71 41H106C108.209 41 110 42.7909 110 45V68C110 70.2091 108.209 72 106 72H71C68.7909 72 67 70.2091 67 68V45Z" fill="white"/>
<path fill-rule="evenodd" clip-rule="evenodd" d="M106 42H71C69.3431 42 68 43.3431 68 45V68C68 69.6569 69.3431 71 71 71H106C107.657 71 109 69.6569 109 68V45C109 43.3431 107.657 42 106 42ZM71 41C68.7909 41 67 42.7909 67 45V68C67 70.2091 68.7909 72 71 72H106C108.209 72 110 70.2091 110 68V45C110 42.7909 108.209 41 106 41H71Z" fill="black" fill-opacity="0.1"/>
<path d="M67 24C67 21.7909 68.7909 20 71 20H106C108.209 20 110 21.7909 110 24V31C110 33.2091 108.209 35 106 35H71C68.7909 35 67 33.2091 67 31V24Z" fill="white"/>
<path d="M67 81C67 78.7909 68.7909 77 71 77H106C108.209 77 110 78.7909 110 81V88C110 90.2091 108.209 92 106 92H71C68.7909 92 67 90.2091 67 88V81Z" fill="#E0E6EB"/>
<path d="M114 45C114 42.7909 115.791 41 118 41H153C155.209 41 157 42.7909 157 45V68C157 70.2091 155.209 72 153 72H118C115.791 72 114 70.2091 114 68V45Z" fill="#F2E780"/>
<path d="M114 24C114 21.7909 115.791 20 118 20H153C155.209 20 157 21.7909 157 24V31C157 33.2091 155.209 35 153 35H118C115.791 35 114 33.2091 114 31V24Z" fill="#FDF9C8"/>
<path d="M114 81C114 78.7909 115.791 77 118 77H153C155.209 77 157 78.7909 157 81V88C157 90.2091 155.209 92 153 92H118C115.791 92 114 90.2091 114 88V81Z" fill="#F0CD6A"/>
<path d="M161 45C161 42.7909 162.791 41 165 41H199C201.209 41 203 42.7909 203 45V68C203 70.2091 201.209 72 199 72H165C162.791 72 161 70.2091 161 68V45Z" fill="#B0D4F6"/>
<path d="M161 24C161 21.7909 162.791 20 165 20H199C201.209 20 203 21.7909 203 24V31C203 33.2091 201.209 35 199 35H165C162.791 35 161 33.2091 161 31V24Z" fill="#EEF7FE"/>
<path d="M161 81C161 78.7909 162.791 77 165 77H199C201.209 77 203 78.7909 203 81V88C203 90.2091 201.209 92 199 92H165C162.791 92 161 90.2091 161 88V81Z" fill="#70ABE7"/>
<path d="M207 45C207 42.7909 208.791 41 211 41H246C248.209 41 250 42.7909 250 45V68C250 70.2091 248.209 72 246 72H211C208.791 72 207 70.2091 207 68V45Z" fill="#DF98B0"/>
<path d="M207 24C207 21.7909 208.791 20 211 20H246C248.209 20 250 21.7909 250 24V31C250 33.2091 248.209 35 246 35H211C208.791 35 207 33.2091 207 31V24Z" fill="#F5E0DF"/>
<path d="M207 81C207 78.7909 208.791 77 211 77H246C248.209 77 250 78.7909 250 81V88C250 90.2091 248.209 92 246 92H211C208.791 92 207 90.2091 207 88V81Z" fill="#DE8180"/>
<path d="M254 45C254 42.7909 255.791 41 258 41H293C295.209 41 297 42.7909 297 45V68C297 70.2091 295.209 72 293 72H258C255.791 72 254 70.2091 254 68V45Z" fill="#92E8B9"/>
<path d="M254 24C254 21.7909 255.791 20 258 20H293C295.209 20 297 21.7909 297 24V31C297 33.2091 295.209 35 293 35H258C255.791 35 254 33.2091 254 31V24Z" fill="#DEF0D8"/>
<path d="M254 81C254 78.7909 255.791 77 258 77H293C295.209 77 297 78.7909 297 81V88C297 90.2091 295.209 92 293 92H258C255.791 92 254 90.2091 254 88V81Z" fill="#8AD470"/>
<g opacity="0.4">
<path d="M25.8239 32V26.984H24.1279V26.096H28.5039V26.984H26.8159V32H25.8239Z" fill="black"/>
<path d="M29.2647 27.032C29.1634 27.032 29.1127 26.984 29.1127 26.888V26.16C29.1127 26.0533 29.1634 26 29.2647 26H30.0167C30.0647 26 30.0994 26.016 30.1207 26.048C30.1474 26.08 30.1607 26.1173 30.1607 26.16V26.888C30.1607 26.984 30.1127 27.032 30.0167 27.032H29.2647ZM29.1367 32V27.712H30.1287V32H29.1367Z" fill="black"/>
<path d="M31.1446 32V27.712H31.9526L32.1366 28.16C32.3126 28.0267 32.5259 27.9067 32.7766 27.8C33.0326 27.6933 33.2966 27.64 33.5686 27.64C33.9046 27.64 34.1686 27.7093 34.3606 27.848C34.5526 27.9813 34.6886 28.1627 34.7686 28.392C34.8539 28.6213 34.8966 28.872 34.8966 29.144V32H33.9046V29.264C33.9046 29.1093 33.8752 28.9787 33.8166 28.872C33.7579 28.7653 33.6752 28.6827 33.5686 28.624C33.4672 28.5653 33.3419 28.536 33.1926 28.536C33.0539 28.536 32.9232 28.5493 32.8006 28.576C32.6832 28.6027 32.5712 28.6427 32.4646 28.696C32.3579 28.7493 32.2486 28.8133 32.1366 28.888V32H31.1446Z" fill="black"/>
<path d="M37.4467 32C37.1374 32 36.8841 31.9547 36.6867 31.864C36.4894 31.768 36.3454 31.6107 36.2547 31.392C36.1694 31.1733 36.1294 30.8853 36.1347 30.528L36.1667 28.512H35.4947V27.872L36.1987 27.712L36.3427 26.512H37.1187V27.712H38.2067V28.512H37.1187V30.52C37.1187 30.6587 37.1321 30.7733 37.1587 30.864C37.1854 30.9493 37.2227 31.0187 37.2707 31.072C37.3241 31.12 37.3801 31.1547 37.4387 31.176C37.4974 31.1973 37.5587 31.2107 37.6227 31.216L38.1587 31.272V32H37.4467Z" fill="black"/>
<path d="M40.4696 32.048C40.347 32.048 40.2056 32.0427 40.0456 32.032C39.8909 32.0267 39.7336 32.016 39.5736 32C39.419 31.9893 39.275 31.9733 39.1416 31.952C39.0083 31.9307 38.899 31.9067 38.8136 31.88V31.296H40.6616C40.795 31.296 40.907 31.2853 40.9976 31.264C41.0936 31.2427 41.1656 31.2 41.2136 31.136C41.2616 31.072 41.2856 30.976 41.2856 30.848V30.696C41.2856 30.5627 41.2403 30.4587 41.1496 30.384C41.0643 30.304 40.9123 30.264 40.6936 30.264H40.0456C39.7949 30.264 39.571 30.2293 39.3736 30.16C39.1816 30.0907 39.0296 29.9733 38.9176 29.808C38.8056 29.6427 38.7496 29.4187 38.7496 29.136V28.896C38.7496 28.624 38.8003 28.4 38.9016 28.224C39.0083 28.0427 39.1816 27.9067 39.4216 27.816C39.6669 27.72 39.9923 27.672 40.3976 27.672C40.5683 27.672 40.7523 27.68 40.9496 27.696C41.147 27.712 41.3363 27.7333 41.5176 27.76C41.6989 27.7813 41.843 27.808 41.9496 27.84V28.424H40.2056C40.0083 28.424 39.8563 28.4587 39.7496 28.528C39.6483 28.592 39.5976 28.7147 39.5976 28.896V29.048C39.5976 29.1653 39.6216 29.2533 39.6696 29.312C39.7176 29.3707 39.7896 29.4107 39.8856 29.432C39.9816 29.4533 40.0963 29.464 40.2296 29.464H40.8936C41.315 29.464 41.6269 29.56 41.8296 29.752C42.0323 29.944 42.1336 30.216 42.1336 30.568V30.92C42.1336 31.208 42.067 31.4347 41.9336 31.6C41.8003 31.7653 41.6083 31.8827 41.3576 31.952C41.1123 32.016 40.8163 32.048 40.4696 32.048Z" fill="black"/>
</g>
<g opacity="0.7">
<path d="M24.5518 58V52.096H26.9918C27.1784 52.096 27.3678 52.12 27.5598 52.168C27.7518 52.2107 27.9278 52.2987 28.0878 52.432C28.2531 52.5653 28.3838 52.7627 28.4798 53.024C28.5811 53.2853 28.6318 53.6347 28.6318 54.072C28.6318 54.5093 28.5811 54.8613 28.4798 55.128C28.3784 55.3947 28.2451 55.6 28.0798 55.744C27.9198 55.8827 27.7438 55.9787 27.5518 56.032C27.3651 56.08 27.1838 56.104 27.0078 56.104C26.9171 56.104 26.8024 56.1013 26.6638 56.096C26.5304 56.0853 26.3891 56.0747 26.2398 56.064C26.0958 56.048 25.9598 56.0347 25.8318 56.024C25.7091 56.008 25.6104 55.9947 25.5358 55.984V58H24.5518ZM25.5358 55.208H26.8638C27.0184 55.208 27.1544 55.1733 27.2718 55.104C27.3891 55.0293 27.4798 54.912 27.5438 54.752C27.6078 54.5867 27.6398 54.3627 27.6398 54.08C27.6398 53.8027 27.6051 53.584 27.5358 53.424C27.4718 53.264 27.3838 53.152 27.2718 53.088C27.1651 53.0187 27.0398 52.984 26.8958 52.984H25.5358V55.208Z" fill="black"/>
<path d="M29.4256 58V53.712H30.1936L30.4176 54.4C30.5883 54.192 30.7776 54.016 30.9856 53.872C31.1936 53.728 31.4416 53.656 31.7296 53.656C31.7883 53.656 31.8496 53.6613 31.9136 53.672C31.9776 53.6773 32.0363 53.688 32.0896 53.704V54.712C32.015 54.7013 31.935 54.6933 31.8496 54.688C31.7643 54.6827 31.6816 54.68 31.6016 54.68C31.4363 54.68 31.2843 54.6987 31.1456 54.736C31.0123 54.7733 30.887 54.832 30.7696 54.912C30.6523 54.9867 30.535 55.0827 30.4176 55.2V58H29.4256Z" fill="black"/>
<path d="M32.9052 53.032C32.8039 53.032 32.7532 52.984 32.7532 52.888V52.16C32.7532 52.0533 32.8039 52 32.9052 52H33.6572C33.7052 52 33.7399 52.016 33.7612 52.048C33.7879 52.08 33.8012 52.1173 33.8012 52.16V52.888C33.8012 52.984 33.7532 53.032 33.6572 53.032H32.9052ZM32.7772 58V53.712H33.7692V58H32.7772Z" fill="black"/>
<path d="M34.785 58V53.712H35.593L35.777 54.16C35.9743 54.0213 36.1903 53.9013 36.425 53.8C36.665 53.6933 36.9477 53.64 37.273 53.64C37.5397 53.64 37.7637 53.6987 37.945 53.816C38.1317 53.928 38.2703 54.0747 38.361 54.256C38.4837 54.16 38.6303 54.0667 38.801 53.976C38.977 53.88 39.1637 53.8 39.361 53.736C39.5583 53.672 39.753 53.64 39.945 53.64C40.2757 53.64 40.5397 53.7067 40.737 53.84C40.9397 53.968 41.0837 54.1493 41.169 54.384C41.2543 54.6133 41.297 54.88 41.297 55.184V58H40.305V55.264C40.305 55.1093 40.2757 54.9787 40.217 54.872C40.1583 54.7653 40.0757 54.6827 39.969 54.624C39.8677 54.5653 39.7423 54.536 39.593 54.536C39.401 54.536 39.2063 54.5733 39.009 54.648C38.817 54.7227 38.641 54.8133 38.481 54.92C38.5023 54.9733 38.5157 55.032 38.521 55.096C38.5317 55.16 38.537 55.224 38.537 55.288V58H37.545V55.264C37.545 55.1093 37.5157 54.9787 37.457 54.872C37.3983 54.7653 37.3157 54.6827 37.209 54.624C37.1077 54.5653 36.9823 54.536 36.833 54.536C36.6943 54.536 36.5637 54.5493 36.441 54.576C36.3237 54.6027 36.2117 54.6427 36.105 54.696C35.9983 54.7493 35.889 54.8133 35.777 54.888V58H34.785Z" fill="black"/>
<path d="M43.1652 58.048C42.8452 58.048 42.5839 57.952 42.3812 57.76C42.1785 57.568 42.0772 57.304 42.0772 56.968V56.608C42.0772 56.2773 42.1892 56.008 42.4132 55.8C42.6425 55.592 42.9919 55.488 43.4612 55.488H44.6852V55.112C44.6852 54.9627 44.6585 54.8373 44.6052 54.736C44.5519 54.6347 44.4559 54.56 44.3172 54.512C44.1785 54.4587 43.9679 54.432 43.6852 54.432H42.3892V53.856C42.5865 53.8027 42.8185 53.7573 43.0852 53.72C43.3519 53.6773 43.6692 53.656 44.0372 53.656C44.3892 53.6507 44.6879 53.6933 44.9332 53.784C45.1785 53.8693 45.3625 54.0133 45.4852 54.216C45.6132 54.4187 45.6772 54.696 45.6772 55.048V58H44.9012L44.7332 57.536C44.6959 57.568 44.6292 57.6107 44.5332 57.664C44.4372 57.7173 44.3172 57.776 44.1732 57.84C44.0292 57.8987 43.8692 57.9493 43.6932 57.992C43.5225 58.0293 43.3465 58.048 43.1652 58.048ZM43.6452 57.352C43.7145 57.352 43.7919 57.344 43.8772 57.328C43.9679 57.3067 44.0585 57.2853 44.1492 57.264C44.2399 57.2373 44.3225 57.2133 44.3972 57.192C44.4772 57.1653 44.5412 57.1413 44.5892 57.12C44.6425 57.0987 44.6745 57.0853 44.6852 57.08V55.96L43.7572 56.008C43.5119 56.0293 43.3332 56.0933 43.2212 56.2C43.1145 56.3067 43.0612 56.448 43.0612 56.624V56.8C43.0612 56.9333 43.0879 57.0427 43.1412 57.128C43.1999 57.208 43.2719 57.264 43.3572 57.296C43.4479 57.328 43.5439 57.3467 43.6452 57.352Z" fill="black"/>
<path d="M46.66 58V53.712H47.428L47.652 54.4C47.8227 54.192 48.012 54.016 48.22 53.872C48.428 53.728 48.676 53.656 48.964 53.656C49.0227 53.656 49.084 53.6613 49.148 53.672C49.212 53.6773 49.2707 53.688 49.324 53.704V54.712C49.2493 54.7013 49.1693 54.6933 49.084 54.688C48.9987 54.6827 48.916 54.68 48.836 54.68C48.6707 54.68 48.5187 54.6987 48.38 54.736C48.2467 54.7733 48.1213 54.832 48.004 54.912C47.8867 54.9867 47.7693 55.0827 47.652 55.2V58H46.66Z" fill="black"/>
<path d="M51.2916 59.896L51.7876 58C51.5796 58 51.3902 57.96 51.2196 57.88C51.0542 57.8 50.9129 57.68 50.7956 57.52C50.6782 57.36 50.5822 57.1547 50.5076 56.904L49.6276 53.712H50.6516L51.4276 56.704C51.4649 56.8267 51.5102 56.92 51.5636 56.984C51.6169 57.048 51.6702 57.096 51.7236 57.128C51.7769 57.1547 51.8249 57.1707 51.8676 57.176C51.9156 57.1813 51.9476 57.184 51.9636 57.184L52.8516 53.712H53.8596L52.4836 59.104L52.0996 59.896H51.2916Z" fill="black"/>
</g>
<path d="M26.2962 89.048C26.1522 89.048 25.9975 89.0427 25.8322 89.032C25.6722 89.0267 25.5069 89.016 25.3362 89C25.1709 88.9787 25.0135 88.96 24.8642 88.944C24.7149 88.9227 24.5815 88.8987 24.4642 88.872V88.096C24.6135 88.1067 24.7869 88.1173 24.9842 88.128C25.1869 88.1387 25.3975 88.1467 25.6162 88.152C25.8349 88.1573 26.0455 88.16 26.2482 88.16C26.4615 88.16 26.6509 88.1413 26.8162 88.104C26.9815 88.0613 27.1095 87.9893 27.2002 87.888C27.2909 87.7867 27.3362 87.6427 27.3362 87.456V87.176C27.3362 86.968 27.2775 86.808 27.1602 86.696C27.0429 86.584 26.8695 86.528 26.6402 86.528H26.0882C25.5495 86.528 25.1335 86.4107 24.8402 86.176C24.5522 85.9413 24.4082 85.5387 24.4082 84.968V84.664C24.4082 84.0933 24.5655 83.6827 24.8802 83.432C25.2002 83.176 25.6562 83.048 26.2482 83.048C26.4509 83.048 26.6589 83.0587 26.8722 83.08C27.0909 83.096 27.2989 83.1173 27.4962 83.144C27.6935 83.1707 27.8615 83.2 28.0002 83.232V84.008C27.7655 83.992 27.4962 83.976 27.1922 83.96C26.8935 83.944 26.6162 83.936 26.3602 83.936C26.1575 83.936 25.9789 83.9573 25.8242 84C25.6695 84.0427 25.5522 84.12 25.4722 84.232C25.3922 84.3387 25.3522 84.4987 25.3522 84.712V84.904C25.3522 85.1547 25.4189 85.3307 25.5522 85.432C25.6909 85.5333 25.8882 85.584 26.1442 85.584H26.7602C27.1069 85.584 27.3922 85.648 27.6162 85.776C27.8402 85.904 28.0055 86.08 28.1122 86.304C28.2242 86.5227 28.2802 86.7733 28.2802 87.056V87.432C28.2802 87.8693 28.1949 88.2053 28.0242 88.44C27.8535 88.6747 27.6189 88.8347 27.3202 88.92C27.0215 89.0053 26.6802 89.048 26.2962 89.048Z" fill="black"/>
<path d="M29.1839 89V82.904H30.1759V85.16C30.3466 85.032 30.5599 84.9147 30.8159 84.808C31.0772 84.696 31.3439 84.64 31.6159 84.64C31.9306 84.64 32.1839 84.704 32.3759 84.832C32.5732 84.96 32.7146 85.1387 32.7999 85.368C32.8906 85.592 32.9359 85.848 32.9359 86.136V89H31.9439V86.256C31.9439 86.1067 31.9146 85.9787 31.8559 85.872C31.7972 85.76 31.7146 85.6773 31.6079 85.624C31.5012 85.5653 31.3759 85.536 31.2319 85.536C31.0932 85.536 30.9652 85.552 30.8479 85.584C30.7306 85.6107 30.6159 85.6507 30.5039 85.704C30.3972 85.7573 30.2879 85.8187 30.1759 85.888V89H29.1839Z" fill="black"/>
<path d="M34.8141 89.048C34.4941 89.048 34.2327 88.952 34.0301 88.76C33.8274 88.568 33.7261 88.304 33.7261 87.968V87.608C33.7261 87.2773 33.8381 87.008 34.0621 86.8C34.2914 86.592 34.6407 86.488 35.1101 86.488H36.3341V86.112C36.3341 85.9627 36.3074 85.8373 36.2541 85.736C36.2007 85.6347 36.1047 85.56 35.9661 85.512C35.8274 85.4587 35.6167 85.432 35.3341 85.432H34.0381V84.856C34.2354 84.8027 34.4674 84.7573 34.7341 84.72C35.0007 84.6773 35.3181 84.656 35.6861 84.656C36.0381 84.6507 36.3367 84.6933 36.5821 84.784C36.8274 84.8693 37.0114 85.0133 37.1341 85.216C37.2621 85.4187 37.3261 85.696 37.3261 86.048V89H36.5501L36.3821 88.536C36.3447 88.568 36.2781 88.6107 36.1821 88.664C36.0861 88.7173 35.9661 88.776 35.8221 88.84C35.6781 88.8987 35.5181 88.9493 35.3421 88.992C35.1714 89.0293 34.9954 89.048 34.8141 89.048ZM35.2941 88.352C35.3634 88.352 35.4407 88.344 35.5261 88.328C35.6167 88.3067 35.7074 88.2853 35.7981 88.264C35.8887 88.2373 35.9714 88.2133 36.0461 88.192C36.1261 88.1653 36.1901 88.1413 36.2381 88.12C36.2914 88.0987 36.3234 88.0853 36.3341 88.08V86.96L35.4061 87.008C35.1607 87.0293 34.9821 87.0933 34.8701 87.2C34.7634 87.3067 34.7101 87.448 34.7101 87.624V87.8C34.7101 87.9333 34.7367 88.0427 34.7901 88.128C34.8487 88.208 34.9207 88.264 35.0061 88.296C35.0967 88.328 35.1927 88.3467 35.2941 88.352Z" fill="black"/>
<path d="M39.7089 89.048C39.3729 89.048 39.0902 88.976 38.8609 88.832C38.6316 88.6827 38.4582 88.4507 38.3409 88.136C38.2289 87.816 38.1729 87.4027 38.1729 86.896C38.1729 86.3627 38.2236 85.9333 38.3249 85.608C38.4262 85.2773 38.5942 85.0373 38.8289 84.888C39.0689 84.7333 39.3889 84.656 39.7889 84.656C40.0022 84.656 40.2129 84.6773 40.4209 84.72C40.6289 84.7627 40.8102 84.8133 40.9649 84.872V82.896H41.9569V89H41.1329L40.9649 88.584C40.8796 88.664 40.7649 88.7387 40.6209 88.808C40.4822 88.8773 40.3329 88.936 40.1729 88.984C40.0182 89.0267 39.8636 89.048 39.7089 89.048ZM40.0449 88.248C40.2369 88.248 40.4102 88.2187 40.5649 88.16C40.7196 88.096 40.8529 88.032 40.9649 87.968V85.584C40.8316 85.536 40.6956 85.4933 40.5569 85.456C40.4182 85.4187 40.2662 85.4 40.1009 85.4C39.8769 85.4 39.6956 85.4427 39.5569 85.528C39.4182 85.608 39.3169 85.752 39.2529 85.96C39.1942 86.168 39.1649 86.464 39.1649 86.848C39.1649 87.2053 39.1942 87.488 39.2529 87.696C39.3116 87.8987 39.4049 88.0427 39.5329 88.128C39.6662 88.208 39.8369 88.248 40.0449 88.248Z" fill="black"/>
<path d="M44.7015 89.04C44.2375 89.04 43.8668 88.976 43.5895 88.848C43.3175 88.72 43.1202 88.4987 42.9975 88.184C42.8748 87.864 42.8135 87.4213 42.8135 86.856C42.8135 86.28 42.8722 85.8347 42.9895 85.52C43.1068 85.2 43.3015 84.976 43.5735 84.848C43.8455 84.72 44.2135 84.656 44.6775 84.656C45.0882 84.656 45.4162 84.6987 45.6615 84.784C45.9122 84.864 46.0935 85.0107 46.2055 85.224C46.3228 85.432 46.3815 85.728 46.3815 86.112C46.3815 86.384 46.3282 86.6027 46.2215 86.768C46.1148 86.928 45.9602 87.0427 45.7575 87.112C45.5602 87.1813 45.3255 87.216 45.0535 87.216H43.7975C43.8082 87.4827 43.8428 87.696 43.9015 87.856C43.9655 88.0107 44.0775 88.1227 44.2375 88.192C44.4028 88.2613 44.6428 88.296 44.9575 88.296H46.2535V88.88C46.0348 88.9227 45.8028 88.96 45.5575 88.992C45.3175 89.024 45.0322 89.04 44.7015 89.04ZM43.7895 86.616H44.9575C45.1442 86.616 45.2802 86.5813 45.3655 86.512C45.4562 86.4373 45.5015 86.304 45.5015 86.112C45.5015 85.9253 45.4748 85.7787 45.4215 85.672C45.3682 85.5653 45.2802 85.4907 45.1575 85.448C45.0348 85.4 44.8748 85.376 44.6775 85.376C44.4535 85.376 44.2775 85.4107 44.1495 85.48C44.0215 85.5493 43.9282 85.6747 43.8695 85.856C43.8162 86.032 43.7895 86.2853 43.7895 86.616Z" fill="black"/>
<path d="M48.798 89.048C48.6753 89.048 48.534 89.0427 48.374 89.032C48.2193 89.0267 48.062 89.016 47.902 89C47.7473 88.9893 47.6033 88.9733 47.47 88.952C47.3367 88.9307 47.2273 88.9067 47.142 88.88V88.296H48.99C49.1233 88.296 49.2353 88.2853 49.326 88.264C49.422 88.2427 49.494 88.2 49.542 88.136C49.59 88.072 49.614 87.976 49.614 87.848V87.696C49.614 87.5627 49.5687 87.4587 49.478 87.384C49.3927 87.304 49.2407 87.264 49.022 87.264H48.374C48.1233 87.264 47.8993 87.2293 47.702 87.16C47.51 87.0907 47.358 86.9733 47.246 86.808C47.134 86.6427 47.078 86.4187 47.078 86.136V85.896C47.078 85.624 47.1287 85.4 47.23 85.224C47.3367 85.0427 47.51 84.9067 47.75 84.816C47.9953 84.72 48.3207 84.672 48.726 84.672C48.8967 84.672 49.0807 84.68 49.278 84.696C49.4753 84.712 49.6647 84.7333 49.846 84.76C50.0273 84.7813 50.1713 84.808 50.278 84.84V85.424H48.534C48.3367 85.424 48.1847 85.4587 48.078 85.528C47.9767 85.592 47.926 85.7147 47.926 85.896V86.048C47.926 86.1653 47.95 86.2533 47.998 86.312C48.046 86.3707 48.118 86.4107 48.214 86.432C48.31 86.4533 48.4247 86.464 48.558 86.464H49.222C49.6433 86.464 49.9553 86.56 50.158 86.752C50.3607 86.944 50.462 87.216 50.462 87.568V87.92C50.462 88.208 50.3953 88.4347 50.262 88.6C50.1287 88.7653 49.9367 88.8827 49.686 88.952C49.4407 89.016 49.1447 89.048 48.798 89.048Z" fill="black"/>
</svg>
