<svg width="335" height="117" viewBox="0 0 335 117" fill="none" xmlns="http://www.w3.org/2000/svg">
<rect width="335" height="117" fill="white"/>
<path d="M24.5518 32V26.096H26.9918C27.1784 26.096 27.3678 26.12 27.5598 26.168C27.7518 26.2107 27.9278 26.2987 28.0878 26.432C28.2531 26.5653 28.3838 26.7627 28.4798 27.024C28.5811 27.2853 28.6318 27.6347 28.6318 28.072C28.6318 28.5093 28.5811 28.8613 28.4798 29.128C28.3784 29.3947 28.2451 29.6 28.0798 29.744C27.9198 29.8827 27.7438 29.9787 27.5518 30.032C27.3651 30.08 27.1838 30.104 27.0078 30.104C26.9171 30.104 26.8024 30.1013 26.6638 30.096C26.5304 30.0853 26.3891 30.0747 26.2398 30.064C26.0958 30.048 25.9598 30.0347 25.8318 30.024C25.7091 30.008 25.6104 29.9947 25.5358 29.984V32H24.5518ZM25.5358 29.208H26.8638C27.0184 29.208 27.1544 29.1733 27.2718 29.104C27.3891 29.0293 27.4798 28.912 27.5438 28.752C27.6078 28.5867 27.6398 28.3627 27.6398 28.08C27.6398 27.8027 27.6051 27.584 27.5358 27.424C27.4718 27.264 27.3838 27.152 27.2718 27.088C27.1651 27.0187 27.0398 26.984 26.8958 26.984H25.5358V29.208Z" fill="black"/>
<path d="M29.4256 32V27.712H30.1936L30.4176 28.4C30.5883 28.192 30.7776 28.016 30.9856 27.872C31.1936 27.728 31.4416 27.656 31.7296 27.656C31.7883 27.656 31.8496 27.6613 31.9136 27.672C31.9776 27.6773 32.0363 27.688 32.0896 27.704V28.712C32.015 28.7013 31.935 28.6933 31.8496 28.688C31.7643 28.6827 31.6816 28.68 31.6016 28.68C31.4363 28.68 31.2843 28.6987 31.1456 28.736C31.0123 28.7733 30.887 28.832 30.7696 28.912C30.6523 28.9867 30.535 29.0827 30.4176 29.2V32H29.4256Z" fill="black"/>
<path d="M32.9052 27.032C32.8039 27.032 32.7532 26.984 32.7532 26.888V26.16C32.7532 26.0533 32.8039 26 32.9052 26H33.6572C33.7052 26 33.7399 26.016 33.7612 26.048C33.7879 26.08 33.8012 26.1173 33.8012 26.16V26.888C33.8012 26.984 33.7532 27.032 33.6572 27.032H32.9052ZM32.7772 32V27.712H33.7692V32H32.7772Z" fill="black"/>
<path d="M34.785 32V27.712H35.593L35.777 28.16C35.9743 28.0213 36.1903 27.9013 36.425 27.8C36.665 27.6933 36.9477 27.64 37.273 27.64C37.5397 27.64 37.7637 27.6987 37.945 27.816C38.1317 27.928 38.2703 28.0747 38.361 28.256C38.4837 28.16 38.6303 28.0667 38.801 27.976C38.977 27.88 39.1637 27.8 39.361 27.736C39.5583 27.672 39.753 27.64 39.945 27.64C40.2757 27.64 40.5397 27.7067 40.737 27.84C40.9397 27.968 41.0837 28.1493 41.169 28.384C41.2543 28.6133 41.297 28.88 41.297 29.184V32H40.305V29.264C40.305 29.1093 40.2757 28.9787 40.217 28.872C40.1583 28.7653 40.0757 28.6827 39.969 28.624C39.8677 28.5653 39.7423 28.536 39.593 28.536C39.401 28.536 39.2063 28.5733 39.009 28.648C38.817 28.7227 38.641 28.8133 38.481 28.92C38.5023 28.9733 38.5157 29.032 38.521 29.096C38.5317 29.16 38.537 29.224 38.537 29.288V32H37.545V29.264C37.545 29.1093 37.5157 28.9787 37.457 28.872C37.3983 28.7653 37.3157 28.6827 37.209 28.624C37.1077 28.5653 36.9823 28.536 36.833 28.536C36.6943 28.536 36.5637 28.5493 36.441 28.576C36.3237 28.6027 36.2117 28.6427 36.105 28.696C35.9983 28.7493 35.889 28.8133 35.777 28.888V32H34.785Z" fill="black"/>
<path d="M43.1652 32.048C42.8452 32.048 42.5839 31.952 42.3812 31.76C42.1785 31.568 42.0772 31.304 42.0772 30.968V30.608C42.0772 30.2773 42.1892 30.008 42.4132 29.8C42.6425 29.592 42.9919 29.488 43.4612 29.488H44.6852V29.112C44.6852 28.9627 44.6585 28.8373 44.6052 28.736C44.5519 28.6347 44.4559 28.56 44.3172 28.512C44.1785 28.4587 43.9679 28.432 43.6852 28.432H42.3892V27.856C42.5865 27.8027 42.8185 27.7573 43.0852 27.72C43.3519 27.6773 43.6692 27.656 44.0372 27.656C44.3892 27.6507 44.6879 27.6933 44.9332 27.784C45.1785 27.8693 45.3625 28.0133 45.4852 28.216C45.6132 28.4187 45.6772 28.696 45.6772 29.048V32H44.9012L44.7332 31.536C44.6959 31.568 44.6292 31.6107 44.5332 31.664C44.4372 31.7173 44.3172 31.776 44.1732 31.84C44.0292 31.8987 43.8692 31.9493 43.6932 31.992C43.5225 32.0293 43.3465 32.048 43.1652 32.048ZM43.6452 31.352C43.7145 31.352 43.7919 31.344 43.8772 31.328C43.9679 31.3067 44.0585 31.2853 44.1492 31.264C44.2399 31.2373 44.3225 31.2133 44.3972 31.192C44.4772 31.1653 44.5412 31.1413 44.5892 31.12C44.6425 31.0987 44.6745 31.0853 44.6852 31.08V29.96L43.7572 30.008C43.5119 30.0293 43.3332 30.0933 43.2212 30.2C43.1145 30.3067 43.0612 30.448 43.0612 30.624V30.8C43.0612 30.9333 43.0879 31.0427 43.1412 31.128C43.1999 31.208 43.2719 31.264 43.3572 31.296C43.4479 31.328 43.5439 31.3467 43.6452 31.352Z" fill="black"/>
<path d="M46.66 32V27.712H47.428L47.652 28.4C47.8227 28.192 48.012 28.016 48.22 27.872C48.428 27.728 48.676 27.656 48.964 27.656C49.0227 27.656 49.084 27.6613 49.148 27.672C49.212 27.6773 49.2707 27.688 49.324 27.704V28.712C49.2493 28.7013 49.1693 28.6933 49.084 28.688C48.9987 28.6827 48.916 28.68 48.836 28.68C48.6707 28.68 48.5187 28.6987 48.38 28.736C48.2467 28.7733 48.1213 28.832 48.004 28.912C47.8867 28.9867 47.7693 29.0827 47.652 29.2V32H46.66Z" fill="black"/>
<path d="M51.2916 33.896L51.7876 32C51.5796 32 51.3902 31.96 51.2196 31.88C51.0542 31.8 50.9129 31.68 50.7956 31.52C50.6782 31.36 50.5822 31.1547 50.5076 30.904L49.6276 27.712H50.6516L51.4276 30.704C51.4649 30.8267 51.5102 30.92 51.5636 30.984C51.6169 31.048 51.6702 31.096 51.7236 31.128C51.7769 31.1547 51.8249 31.1707 51.8676 31.176C51.9156 31.1813 51.9476 31.184 51.9636 31.184L52.8516 27.712H53.8596L52.4836 33.104L52.0996 33.896H51.2916Z" fill="black"/>
<g opacity="0.6">
<path d="M26.2962 58.048C26.1522 58.048 25.9975 58.0427 25.8322 58.032C25.6722 58.0267 25.5069 58.016 25.3362 58C25.1709 57.9787 25.0135 57.96 24.8642 57.944C24.7149 57.9227 24.5815 57.8987 24.4642 57.872V57.096C24.6135 57.1067 24.7869 57.1173 24.9842 57.128C25.1869 57.1387 25.3975 57.1467 25.6162 57.152C25.8349 57.1573 26.0455 57.16 26.2482 57.16C26.4615 57.16 26.6509 57.1413 26.8162 57.104C26.9815 57.0613 27.1095 56.9893 27.2002 56.888C27.2909 56.7867 27.3362 56.6427 27.3362 56.456V56.176C27.3362 55.968 27.2775 55.808 27.1602 55.696C27.0429 55.584 26.8695 55.528 26.6402 55.528H26.0882C25.5495 55.528 25.1335 55.4107 24.8402 55.176C24.5522 54.9413 24.4082 54.5387 24.4082 53.968V53.664C24.4082 53.0933 24.5655 52.6827 24.8802 52.432C25.2002 52.176 25.6562 52.048 26.2482 52.048C26.4509 52.048 26.6589 52.0587 26.8722 52.08C27.0909 52.096 27.2989 52.1173 27.4962 52.144C27.6935 52.1707 27.8615 52.2 28.0002 52.232V53.008C27.7655 52.992 27.4962 52.976 27.1922 52.96C26.8935 52.944 26.6162 52.936 26.3602 52.936C26.1575 52.936 25.9789 52.9573 25.8242 53C25.6695 53.0427 25.5522 53.12 25.4722 53.232C25.3922 53.3387 25.3522 53.4987 25.3522 53.712V53.904C25.3522 54.1547 25.4189 54.3307 25.5522 54.432C25.6909 54.5333 25.8882 54.584 26.1442 54.584H26.7602C27.1069 54.584 27.3922 54.648 27.6162 54.776C27.8402 54.904 28.0055 55.08 28.1122 55.304C28.2242 55.5227 28.2802 55.7733 28.2802 56.056V56.432C28.2802 56.8693 28.1949 57.2053 28.0242 57.44C27.8535 57.6747 27.6189 57.8347 27.3202 57.92C27.0215 58.0053 26.6802 58.048 26.2962 58.048Z" fill="black"/>
<path d="M30.9359 58.04C30.4719 58.04 30.1012 57.976 29.8239 57.848C29.5519 57.72 29.3546 57.4987 29.2319 57.184C29.1092 56.864 29.0479 56.4213 29.0479 55.856C29.0479 55.28 29.1066 54.8347 29.2239 54.52C29.3412 54.2 29.5359 53.976 29.8079 53.848C30.0799 53.72 30.4479 53.656 30.9119 53.656C31.3226 53.656 31.6506 53.6987 31.8959 53.784C32.1466 53.864 32.3279 54.0107 32.4399 54.224C32.5572 54.432 32.6159 54.728 32.6159 55.112C32.6159 55.384 32.5626 55.6027 32.4559 55.768C32.3492 55.928 32.1946 56.0427 31.9919 56.112C31.7946 56.1813 31.5599 56.216 31.2879 56.216H30.0319C30.0426 56.4827 30.0772 56.696 30.1359 56.856C30.1999 57.0107 30.3119 57.1227 30.4719 57.192C30.6372 57.2613 30.8772 57.296 31.1919 57.296H32.4879V57.88C32.2692 57.9227 32.0372 57.96 31.7919 57.992C31.5519 58.024 31.2666 58.04 30.9359 58.04ZM30.0239 55.616H31.1919C31.3786 55.616 31.5146 55.5813 31.5999 55.512C31.6906 55.4373 31.7359 55.304 31.7359 55.112C31.7359 54.9253 31.7092 54.7787 31.6559 54.672C31.6026 54.5653 31.5146 54.4907 31.3919 54.448C31.2692 54.4 31.1092 54.376 30.9119 54.376C30.6879 54.376 30.5119 54.4107 30.3839 54.48C30.2559 54.5493 30.1626 54.6747 30.1039 54.856C30.0506 55.032 30.0239 55.2853 30.0239 55.616Z" fill="black"/>
<path d="M35.1364 58.048C34.8804 58.048 34.6431 58.016 34.4244 57.952C34.2111 57.8827 34.0244 57.768 33.8644 57.608C33.7044 57.4427 33.5791 57.2187 33.4884 56.936C33.4031 56.6533 33.3604 56.2987 33.3604 55.872C33.3604 55.4347 33.4004 55.072 33.4804 54.784C33.5657 54.496 33.6857 54.2693 33.8404 54.104C33.9951 53.9387 34.1817 53.824 34.4004 53.76C34.6244 53.6907 34.8777 53.656 35.1604 53.656C35.4004 53.656 35.6431 53.6693 35.8884 53.696C36.1337 53.7173 36.3791 53.76 36.6244 53.824V54.392H35.4564C35.2004 54.392 34.9924 54.432 34.8324 54.512C34.6724 54.592 34.5524 54.7387 34.4724 54.952C34.3924 55.1653 34.3524 55.472 34.3524 55.872C34.3524 56.2667 34.3924 56.568 34.4724 56.776C34.5524 56.9787 34.6724 57.1173 34.8324 57.192C34.9977 57.2613 35.2084 57.296 35.4644 57.296H36.6884V57.856C36.5604 57.8933 36.4111 57.928 36.2404 57.96C36.0697 57.9867 35.8884 58.008 35.6964 58.024C35.5097 58.04 35.3231 58.048 35.1364 58.048Z" fill="black"/>
<path d="M39.2103 58.04C38.8743 58.04 38.5836 58.0053 38.3383 57.936C38.0929 57.8667 37.8929 57.7493 37.7383 57.584C37.5836 57.4187 37.4689 57.1947 37.3943 56.912C37.3196 56.6293 37.2823 56.2747 37.2823 55.848C37.2823 55.4053 37.3196 55.0427 37.3943 54.76C37.4689 54.472 37.5836 54.248 37.7383 54.088C37.8983 53.9227 38.1009 53.8107 38.3463 53.752C38.5916 53.688 38.8796 53.656 39.2103 53.656C39.5516 53.656 39.8449 53.6907 40.0903 53.76C40.3356 53.824 40.5356 53.936 40.6903 54.096C40.8449 54.256 40.9596 54.48 41.0343 54.768C41.1089 55.0507 41.1463 55.4107 41.1463 55.848C41.1463 56.28 41.1089 56.64 41.0343 56.928C40.9649 57.2107 40.8529 57.4347 40.6983 57.6C40.5436 57.76 40.3436 57.8747 40.0983 57.944C39.8529 58.008 39.5569 58.04 39.2103 58.04ZM39.2103 57.248C39.3756 57.248 39.5169 57.2347 39.6343 57.208C39.7516 57.176 39.8476 57.1147 39.9223 57.024C40.0023 56.928 40.0609 56.7867 40.0983 56.6C40.1356 56.408 40.1543 56.1547 40.1543 55.84C40.1543 55.5307 40.1356 55.2827 40.0983 55.096C40.0609 54.9093 40.0023 54.7707 39.9223 54.68C39.8476 54.584 39.7516 54.5227 39.6343 54.496C39.5169 54.464 39.3756 54.448 39.2103 54.448C39.0503 54.448 38.9116 54.464 38.7943 54.496C38.6769 54.5227 38.5809 54.584 38.5063 54.68C38.4316 54.7707 38.3729 54.9093 38.3303 55.096C38.2929 55.2827 38.2743 55.5307 38.2743 55.84C38.2743 56.1547 38.2929 56.408 38.3303 56.6C38.3729 56.7867 38.4316 56.928 38.5063 57.024C38.5809 57.1147 38.6769 57.176 38.7943 57.208C38.9116 57.2347 39.0503 57.248 39.2103 57.248Z" fill="black"/>
<path d="M42.0276 58V53.712H42.8356L43.0196 54.16C43.1956 54.0267 43.409 53.9067 43.6596 53.8C43.9156 53.6933 44.1796 53.64 44.4516 53.64C44.7876 53.64 45.0516 53.7093 45.2436 53.848C45.4356 53.9813 45.5716 54.1627 45.6516 54.392C45.737 54.6213 45.7796 54.872 45.7796 55.144V58H44.7876V55.264C44.7876 55.1093 44.7583 54.9787 44.6996 54.872C44.641 54.7653 44.5583 54.6827 44.4516 54.624C44.3503 54.5653 44.225 54.536 44.0756 54.536C43.937 54.536 43.8063 54.5493 43.6836 54.576C43.5663 54.6027 43.4543 54.6427 43.3476 54.696C43.241 54.7493 43.1316 54.8133 43.0196 54.888V58H42.0276Z" fill="black"/>
<path d="M48.1698 58.048C47.8338 58.048 47.5512 57.976 47.3218 57.832C47.0925 57.6827 46.9192 57.4507 46.8018 57.136C46.6898 56.816 46.6338 56.4027 46.6338 55.896C46.6338 55.3627 46.6845 54.9333 46.7858 54.608C46.8872 54.2773 47.0552 54.0373 47.2898 53.888C47.5298 53.7333 47.8498 53.656 48.2498 53.656C48.4632 53.656 48.6738 53.6773 48.8818 53.72C49.0898 53.7627 49.2712 53.8133 49.4258 53.872V51.896H50.4178V58H49.5938L49.4258 57.584C49.3405 57.664 49.2258 57.7387 49.0818 57.808C48.9432 57.8773 48.7938 57.936 48.6338 57.984C48.4792 58.0267 48.3245 58.048 48.1698 58.048ZM48.5058 57.248C48.6978 57.248 48.8712 57.2187 49.0258 57.16C49.1805 57.096 49.3138 57.032 49.4258 56.968V54.584C49.2925 54.536 49.1565 54.4933 49.0178 54.456C48.8792 54.4187 48.7272 54.4 48.5618 54.4C48.3378 54.4 48.1565 54.4427 48.0178 54.528C47.8792 54.608 47.7778 54.752 47.7138 54.96C47.6552 55.168 47.6258 55.464 47.6258 55.848C47.6258 56.2053 47.6552 56.488 47.7138 56.696C47.7725 56.8987 47.8658 57.0427 47.9938 57.128C48.1272 57.208 48.2978 57.248 48.5058 57.248Z" fill="black"/>
<path d="M52.2985 58.048C51.9785 58.048 51.7171 57.952 51.5145 57.76C51.3118 57.568 51.2105 57.304 51.2105 56.968V56.608C51.2105 56.2773 51.3225 56.008 51.5465 55.8C51.7758 55.592 52.1251 55.488 52.5945 55.488H53.8185V55.112C53.8185 54.9627 53.7918 54.8373 53.7385 54.736C53.6851 54.6347 53.5891 54.56 53.4505 54.512C53.3118 54.4587 53.1011 54.432 52.8185 54.432H51.5225V53.856C51.7198 53.8027 51.9518 53.7573 52.2185 53.72C52.4851 53.6773 52.8025 53.656 53.1705 53.656C53.5225 53.6507 53.8211 53.6933 54.0665 53.784C54.3118 53.8693 54.4958 54.0133 54.6185 54.216C54.7465 54.4187 54.8105 54.696 54.8105 55.048V58H54.0345L53.8665 57.536C53.8291 57.568 53.7625 57.6107 53.6665 57.664C53.5705 57.7173 53.4505 57.776 53.3065 57.84C53.1625 57.8987 53.0025 57.9493 52.8265 57.992C52.6558 58.0293 52.4798 58.048 52.2985 58.048ZM52.7785 57.352C52.8478 57.352 52.9251 57.344 53.0105 57.328C53.1011 57.3067 53.1918 57.2853 53.2825 57.264C53.3731 57.2373 53.4558 57.2133 53.5305 57.192C53.6105 57.1653 53.6745 57.1413 53.7225 57.12C53.7758 57.0987 53.8078 57.0853 53.8185 57.08V55.96L52.8905 56.008C52.6451 56.0293 52.4665 56.0933 52.3545 56.2C52.2478 56.3067 52.1945 56.448 52.1945 56.624V56.8C52.1945 56.9333 52.2211 57.0427 52.2745 57.128C52.3331 57.208 52.4051 57.264 52.4905 57.296C52.5811 57.328 52.6771 57.3467 52.7785 57.352Z" fill="black"/>
<path d="M55.7933 58V53.712H56.5613L56.7853 54.4C56.9559 54.192 57.1453 54.016 57.3533 53.872C57.5613 53.728 57.8093 53.656 58.0973 53.656C58.1559 53.656 58.2173 53.6613 58.2813 53.672C58.3453 53.6773 58.4039 53.688 58.4573 53.704V54.712C58.3826 54.7013 58.3026 54.6933 58.2173 54.688C58.1319 54.6827 58.0493 54.68 57.9693 54.68C57.8039 54.68 57.6519 54.6987 57.5133 54.736C57.3799 54.7733 57.2546 54.832 57.1373 54.912C57.0199 54.9867 56.9026 55.0827 56.7853 55.2V58H55.7933Z" fill="black"/>
<path d="M60.4248 59.896L60.9208 58C60.7128 58 60.5235 57.96 60.3528 57.88C60.1875 57.8 60.0462 57.68 59.9288 57.52C59.8115 57.36 59.7155 57.1547 59.6408 56.904L58.7608 53.712H59.7848L60.5608 56.704C60.5982 56.8267 60.6435 56.92 60.6968 56.984C60.7502 57.048 60.8035 57.096 60.8568 57.128C60.9102 57.1547 60.9582 57.1707 61.0008 57.176C61.0488 57.1813 61.0808 57.184 61.0968 57.184L61.9848 53.712H62.9928L61.6168 59.104L61.2328 59.896H60.4248Z" fill="black"/>
</g>
<g opacity="0.4">
<path d="M24.1836 88.9999L26.1036 83.0959H27.3516L29.2716 88.9999H28.2396L27.7836 87.5999H25.6476L25.1996 88.9999H24.1836ZM25.8796 86.7119H27.5436L26.7116 83.9439L25.8796 86.7119Z" fill="black"/>
<path d="M31.4327 89.0479C31.1767 89.0479 30.9393 89.0159 30.7207 88.9519C30.5073 88.8826 30.3207 88.7679 30.1607 88.6079C30.0007 88.4426 29.8753 88.2186 29.7847 87.9359C29.6993 87.6533 29.6567 87.2986 29.6567 86.8719C29.6567 86.4346 29.6967 86.0719 29.7767 85.7839C29.862 85.4959 29.982 85.2693 30.1367 85.1039C30.2913 84.9386 30.478 84.8239 30.6967 84.7599C30.9207 84.6906 31.174 84.6559 31.4567 84.6559C31.6967 84.6559 31.9393 84.6693 32.1847 84.6959C32.43 84.7173 32.6753 84.7599 32.9207 84.8239V85.3919H31.7527C31.4967 85.3919 31.2887 85.4319 31.1287 85.5119C30.9687 85.5919 30.8487 85.7386 30.7687 85.9519C30.6887 86.1653 30.6487 86.4719 30.6487 86.8719C30.6487 87.2666 30.6887 87.5679 30.7687 87.7759C30.8487 87.9786 30.9687 88.1173 31.1287 88.1919C31.294 88.2613 31.5047 88.2959 31.7607 88.2959H32.9847V88.8559C32.8567 88.8933 32.7073 88.9279 32.5367 88.9599C32.366 88.9866 32.1847 89.0079 31.9927 89.0239C31.806 89.0399 31.6193 89.0479 31.4327 89.0479Z" fill="black"/>
<path d="M35.3545 89.0479C35.0985 89.0479 34.8612 89.0159 34.6425 88.9519C34.4292 88.8826 34.2425 88.7679 34.0825 88.6079C33.9225 88.4426 33.7972 88.2186 33.7065 87.9359C33.6212 87.6533 33.5785 87.2986 33.5785 86.8719C33.5785 86.4346 33.6185 86.0719 33.6985 85.7839C33.7839 85.4959 33.9039 85.2693 34.0585 85.1039C34.2132 84.9386 34.3999 84.8239 34.6185 84.7599C34.8425 84.6906 35.0959 84.6559 35.3785 84.6559C35.6185 84.6559 35.8612 84.6693 36.1065 84.6959C36.3519 84.7173 36.5972 84.7599 36.8425 84.8239V85.3919H35.6745C35.4185 85.3919 35.2105 85.4319 35.0505 85.5119C34.8905 85.5919 34.7705 85.7386 34.6905 85.9519C34.6105 86.1653 34.5705 86.4719 34.5705 86.8719C34.5705 87.2666 34.6105 87.5679 34.6905 87.7759C34.7705 87.9786 34.8905 88.1173 35.0505 88.1919C35.2159 88.2613 35.4265 88.2959 35.6825 88.2959H36.9065V88.8559C36.7785 88.8933 36.6292 88.9279 36.4585 88.9599C36.2879 88.9866 36.1065 89.0079 35.9145 89.0239C35.7279 89.0399 35.5412 89.0479 35.3545 89.0479Z" fill="black"/>
<path d="M39.3884 89.0399C38.9244 89.0399 38.5537 88.9759 38.2764 88.8479C38.0044 88.7199 37.8071 88.4986 37.6844 88.1839C37.5617 87.8639 37.5004 87.4213 37.5004 86.8559C37.5004 86.2799 37.5591 85.8346 37.6764 85.5199C37.7937 85.1999 37.9884 84.9759 38.2604 84.8479C38.5324 84.7199 38.9004 84.6559 39.3644 84.6559C39.7751 84.6559 40.1031 84.6986 40.3484 84.7839C40.5991 84.8639 40.7804 85.0106 40.8924 85.2239C41.0097 85.4319 41.0684 85.7279 41.0684 86.1119C41.0684 86.3839 41.0151 86.6026 40.9084 86.7679C40.8017 86.9279 40.6471 87.0426 40.4444 87.1119C40.2471 87.1813 40.0124 87.2159 39.7404 87.2159H38.4844C38.4951 87.4826 38.5297 87.6959 38.5884 87.8559C38.6524 88.0106 38.7644 88.1226 38.9244 88.1919C39.0897 88.2613 39.3297 88.2959 39.6444 88.2959H40.9404V88.8799C40.7217 88.9226 40.4897 88.9599 40.2444 88.9919C40.0044 89.0239 39.7191 89.0399 39.3884 89.0399ZM38.4764 86.6159H39.6444C39.8311 86.6159 39.9671 86.5813 40.0524 86.5119C40.1431 86.4373 40.1884 86.3039 40.1884 86.1119C40.1884 85.9253 40.1617 85.7786 40.1084 85.6719C40.0551 85.5653 39.9671 85.4906 39.8444 85.4479C39.7217 85.3999 39.5617 85.3759 39.3644 85.3759C39.1404 85.3759 38.9644 85.4106 38.8364 85.4799C38.7084 85.5493 38.6151 85.6746 38.5564 85.8559C38.5031 86.0319 38.4764 86.2853 38.4764 86.6159Z" fill="black"/>
<path d="M41.9489 88.9999V84.7119H42.7569L42.9409 85.1599C43.1169 85.0266 43.3302 84.9066 43.5809 84.7999C43.8369 84.6933 44.1009 84.6399 44.3729 84.6399C44.7089 84.6399 44.9729 84.7093 45.1649 84.8479C45.3569 84.9813 45.4929 85.1626 45.5729 85.3919C45.6582 85.6213 45.7009 85.8719 45.7009 86.1439V88.9999H44.7089V86.2639C44.7089 86.1093 44.6796 85.9786 44.6209 85.8719C44.5622 85.7653 44.4796 85.6826 44.3729 85.6239C44.2716 85.5653 44.1462 85.5359 43.9969 85.5359C43.8582 85.5359 43.7276 85.5493 43.6049 85.5759C43.4876 85.6026 43.3756 85.6426 43.2689 85.6959C43.1622 85.7493 43.0529 85.8133 42.9409 85.8879V88.9999H41.9489Z" fill="black"/>
<path d="M48.2511 88.9999C47.9418 88.9999 47.6884 88.9546 47.4911 88.8639C47.2938 88.7679 47.1498 88.6106 47.0591 88.3919C46.9738 88.1733 46.9338 87.8853 46.9391 87.5279L46.9711 85.5119H46.2991V84.8719L47.0031 84.7119L47.1471 83.5119H47.9231V84.7119H49.0111V85.5119H47.9231V87.5199C47.9231 87.6586 47.9364 87.7733 47.9631 87.8639C47.9898 87.9493 48.0271 88.0186 48.0751 88.0719C48.1284 88.1199 48.1844 88.1546 48.2431 88.1759C48.3018 88.1973 48.3631 88.2106 48.4271 88.2159L48.9631 88.2719V88.9999H48.2511Z" fill="black"/>
<path d="M51.274 89.0479C51.1513 89.0479 51.01 89.0426 50.85 89.0319C50.6953 89.0266 50.538 89.0159 50.378 88.9999C50.2233 88.9893 50.0793 88.9733 49.946 88.9519C49.8126 88.9306 49.7033 88.9066 49.618 88.8799V88.2959H51.466C51.5993 88.2959 51.7113 88.2853 51.802 88.2639C51.898 88.2426 51.97 88.1999 52.018 88.1359C52.066 88.0719 52.09 87.9759 52.09 87.8479V87.6959C52.09 87.5626 52.0446 87.4586 51.954 87.3839C51.8686 87.3039 51.7166 87.2639 51.498 87.2639H50.85C50.5993 87.2639 50.3753 87.2293 50.178 87.1599C49.986 87.0906 49.834 86.9733 49.722 86.8079C49.61 86.6426 49.554 86.4186 49.554 86.1359V85.8959C49.554 85.6239 49.6046 85.3999 49.706 85.2239C49.8126 85.0426 49.986 84.9066 50.226 84.8159C50.4713 84.7199 50.7966 84.6719 51.202 84.6719C51.3726 84.6719 51.5566 84.6799 51.754 84.6959C51.9513 84.7119 52.1406 84.7333 52.322 84.7599C52.5033 84.7813 52.6473 84.8079 52.754 84.8399V85.4239H51.01C50.8126 85.4239 50.6606 85.4586 50.554 85.5279C50.4526 85.5919 50.402 85.7146 50.402 85.8959V86.0479C50.402 86.1653 50.426 86.2533 50.474 86.3119C50.522 86.3706 50.594 86.4106 50.69 86.4319C50.786 86.4533 50.9006 86.4639 51.034 86.4639H51.698C52.1193 86.4639 52.4313 86.5599 52.634 86.7519C52.8366 86.9439 52.938 87.2159 52.938 87.5679V87.9199C52.938 88.2079 52.8713 88.4346 52.738 88.5999C52.6046 88.7653 52.4126 88.8826 52.162 88.9519C51.9166 89.0159 51.6206 89.0479 51.274 89.0479Z" fill="black"/>
</g>
<path d="M91.5111 24.1022L313 29.1177L91.487 32.923C89.0215 32.9654 87 30.9783 87 28.5124C87 26.037 89.0364 24.0462 91.5111 24.1022Z" fill="#53728A"/>
<path d="M91.5161 50.1562L235 55.1177L91.4797 58.8826C89.0249 58.947 87 56.9745 87 54.5188C87 52.0489 89.0476 50.0709 91.5161 50.1562Z" fill="#B0B8BB"/>
<path d="M91.5275 74.331L157 79.1177L91.4535 82.753C89.0349 82.8872 87 80.9621 87 78.5397C87 76.0879 89.0823 74.1523 91.5275 74.331Z" fill="#70ABE7"/>
<path d="M91.5275 89.331L157 94.1177L91.4535 97.753C89.0349 97.8872 87 95.9621 87 93.5397C87 91.0879 89.0823 89.1523 91.5275 89.331Z" fill="#F0CD6A"/>
<path d="M175.528 74.331L241 79.1177L175.454 82.753C173.035 82.8872 171 80.9621 171 78.5397C171 76.0879 173.082 74.1523 175.528 74.331Z" fill="#DE8180"/>
<path d="M175.023 90.2615L241 94.5491L174.964 97.8047C172.807 97.911 171 96.1909 171 94.0314C171 91.8486 172.845 90.12 175.023 90.2615Z" fill="#8AD470"/>
</svg>
