<svg width="335" height="117" viewBox="0 0 335 117" fill="none" xmlns="http://www.w3.org/2000/svg">
<rect width="335" height="117" fill="white"/>
<path d="M142 93.3158C142 87.3168 146.863 82.4539 152.862 82.4539H160.207C163.087 82.4539 165.85 81.3092 167.887 79.2722L178.075 69.0845C184.533 62.6264 193.289 59 202.421 59H212.212C221.344 59 230.101 62.6264 236.556 69.0845L243.083 75.6114C250.071 82.6002 249.394 94.122 241.637 100.244C238.745 102.525 235.173 103.776 231.489 103.793L152.403 104.169C146.59 103.922 142.003 99.137 142.003 93.3158H142Z" fill="#F2E780"/>
<path fill-rule="evenodd" clip-rule="evenodd" d="M236.556 69.0845C230.101 62.6264 221.344 59 212.212 59H202.421C193.289 59 184.533 62.6264 178.075 69.0845L167.887 79.2722C165.85 81.3092 163.087 82.4539 160.207 82.4539H152.862C147.03 82.4539 142.273 87.0489 142.011 92.8158C142.008 92.8982 142.005 92.9808 142.003 93.0637C142.001 93.1475 142 93.2315 142 93.3158H142.003C142.003 99.137 146.59 103.922 152.403 104.169L231.489 103.793C235.173 103.776 238.745 102.525 241.637 100.244C249.394 94.122 250.071 82.6002 243.083 75.6114L236.556 69.0845ZM241.327 99.8518C248.85 93.9148 249.506 82.7421 242.729 75.9649L236.202 69.438L236.202 69.4379C229.841 63.0737 221.212 59.5 212.212 59.5H202.421C193.421 59.5 184.792 63.0737 178.428 69.438L168.24 79.6257C166.11 81.7565 163.22 82.9539 160.207 82.9539H152.862C147.221 82.9539 142.634 87.4604 142.503 93.0695V93.3158C142.503 98.8653 146.873 103.428 152.413 103.669L231.487 103.293C235.059 103.277 238.523 102.064 241.327 99.8518Z" fill="black"/>
<mask id="mask0_27_442" style="mask-type:alpha" maskUnits="userSpaceOnUse" x="142" y="59" width="106" height="46">
<path d="M142 93.3158C142 87.3168 146.863 82.4539 152.862 82.4539H160.207C163.087 82.4539 165.85 81.3092 167.887 79.2722L178.075 69.0845C184.533 62.6264 193.289 59 202.421 59H212.212C221.344 59 230.101 62.6264 236.556 69.0845L243.083 75.6114C250.071 82.6002 249.394 94.122 241.637 100.244C238.745 102.525 235.173 103.776 231.489 103.793L152.403 104.169C146.59 103.922 142.003 99.137 142.003 93.3158H142Z" fill="#F2E780"/>
</mask>
<g mask="url(#mask0_27_442)">
<path d="M141.713 87.3857C141.713 87.3857 146.177 95.5192 153.482 95.5192C160.786 95.5192 194.87 93.5425 211.911 92.8998C228.953 92.2572 241.82 91.91 243.212 88.78C244.603 85.6499 248.778 79.0054 248.778 79.0054L260.36 81.8256L249.819 121.538L152.437 120.204L125.44 101.587L141.71 87.3885" fill="#F0CD6A"/>
<path fill-rule="evenodd" clip-rule="evenodd" d="M248.546 78.4343L260.974 81.4605L250.202 122.043L152.279 120.702L124.627 101.633L141.382 87.0118L141.71 87.3876C141.711 87.387 141.712 87.3863 141.713 87.3856C142.152 87.1451 142.152 87.145 142.152 87.1449L142.154 87.1486L142.162 87.1636C142.17 87.1773 142.182 87.1985 142.198 87.2265C142.23 87.2826 142.28 87.3664 142.346 87.4738C142.477 87.6887 142.675 87.998 142.935 88.3702C143.455 89.1154 144.223 90.1081 145.212 91.0992C147.2 93.0909 150.021 95.0192 153.482 95.0192C157.634 95.0192 170.454 94.3791 183.877 93.709C194.035 93.2019 204.538 92.6775 211.893 92.4002C212.6 92.3735 213.301 92.3473 213.993 92.3214C221.647 92.0354 228.336 91.7854 233.38 91.2752C236.132 90.9969 238.368 90.6434 239.992 90.1735C240.804 89.9385 241.442 89.6802 241.91 89.4003C242.38 89.1188 242.639 88.8387 242.755 88.5769C243.464 86.9811 244.871 84.5134 246.087 82.4638C246.697 81.4347 247.264 80.504 247.678 79.8306C247.885 79.4938 248.054 79.2213 248.171 79.0328C248.23 78.9386 248.276 78.8654 248.307 78.8156L248.354 78.7397C248.354 78.7397 248.354 78.7394 248.778 79.0054L248.354 78.7397L248.546 78.4343ZM249.011 79.5767C248.895 79.7631 248.73 80.0284 248.53 80.3544C248.118 81.0246 247.554 81.9507 246.947 82.974C245.728 85.0292 244.351 87.4488 243.669 88.9831C243.437 89.5037 242.99 89.9192 242.423 90.2583C241.854 90.599 241.126 90.8863 240.27 91.1341C238.557 91.6297 236.25 91.9901 233.481 92.2701C228.403 92.7837 221.681 93.0349 214.041 93.3203C213.345 93.3463 212.641 93.3726 211.93 93.3995C204.618 93.6752 194.144 94.1979 183.997 94.7044C170.537 95.3761 157.652 96.0192 153.482 96.0192C149.638 96.0192 146.575 93.8808 144.505 91.8056C143.464 90.7633 142.66 89.7227 142.115 88.9428C141.9 88.6353 141.725 88.3677 141.592 88.1555L126.254 101.541L152.596 119.706L249.436 121.033L259.746 82.1906L249.011 79.5767Z" fill="#FECA36"/>
</g>
<path d="M65.775 80.3599H52.6425C49.8601 80.3599 47.6045 82.6052 47.6045 85.375V98.4479C47.6045 101.218 49.8601 103.463 52.6425 103.463H65.775C68.5574 103.463 70.813 101.218 70.813 98.4479V85.375C70.813 82.6052 68.5574 80.3599 65.775 80.3599Z" fill="#92E8B9"/>
<path d="M65.7746 103.504C61.9791 103.481 56.4014 103.535 52.624 103.585C49.8307 103.653 47.3683 101.237 47.3819 98.4432C47.3683 96.5067 47.3094 87.0767 47.2958 85.3524C47.2414 82.4859 49.7581 79.967 52.6422 79.9986C54.5921 79.9806 64.056 79.9038 65.7973 79.8993C68.7494 79.8361 71.3296 82.4453 71.2661 85.3704L71.1891 90.6068L71.0575 95.8431L70.9895 98.4613C70.9578 101.197 68.5181 103.589 65.7792 103.499L65.7746 103.504ZM65.7746 103.413C68.4274 103.418 70.7447 101.102 70.6358 98.4613L70.5723 95.8431L70.4408 90.6068L70.3637 85.3704C70.3955 82.9283 68.246 80.8021 65.7973 80.8157C64.1149 80.8157 54.5422 80.7299 52.6467 80.7164C50.139 80.6532 47.8989 82.8425 47.9216 85.3524C47.9125 87.0181 47.8445 96.5609 47.8354 98.4432C47.8127 100.113 48.7197 101.784 50.198 102.637C51.4813 103.54 53.7668 103.309 55.2542 103.364C57.8752 103.395 63.1536 103.427 65.7746 103.413V103.413Z" fill="#3A7491"/>
<g style="mix-blend-mode:darken">
<path d="M65.775 103.458H52.6425C49.8582 103.458 47.6045 101.215 47.6045 98.4432C47.6045 98.4432 70.813 82.6033 70.813 85.3704V98.4432C70.813 101.215 68.5593 103.458 65.775 103.458V103.458Z" fill="#8AD470"/>
</g>
<path d="M132.939 21.2927L180.938 69.1196C193.662 81.7997 184.643 103.463 166.64 103.463H84.2949C67.8522 103.463 58.2885 84.9595 67.8521 71.6429L102.193 23.8115C109.458 13.6954 124.109 12.4947 132.939 21.2927V21.2927Z" fill="white"/>
<path d="M133.26 20.9723C138.747 26.4705 165.38 53.2436 170.259 58.1414L177.691 65.5445C180.144 68.0408 182.883 70.3656 184.57 73.4893C190.084 82.8606 186.275 95.8793 176.78 101.102C173.701 102.89 170.123 103.702 166.586 103.729C147.477 103.729 111.984 103.811 92.9923 103.77C89.9495 103.72 85.4874 103.865 82.4582 103.675C75.3161 103.17 68.768 98.5065 65.7751 92.0603C62.6553 85.6684 63.2266 77.6829 67.3668 71.8688C69.3847 69.0023 71.439 66.1855 73.475 63.3416C83.1883 49.8986 92.7565 36.2976 102.465 22.8456C104.111 20.7421 106.179 18.968 108.505 17.6499C116.323 13.1132 126.939 14.5171 133.265 20.9768L133.26 20.9723ZM132.621 21.6088C126.585 15.3883 116.409 14.0115 108.891 18.327C106.646 19.5865 104.646 21.2838 103.055 23.3016C93.3007 36.6994 83.5874 50.1966 73.924 63.6576C71.8924 66.497 69.8337 69.3318 67.8293 72.1802C65.8522 75.0061 64.6596 78.36 64.4011 81.7908C63.8434 88.6702 67.1945 95.6897 72.8855 99.626C77.5064 102.903 82.2451 103.341 87.7412 103.16C90.9971 103.129 110.315 103.165 114.024 103.142C121.729 103.156 159.716 103.183 166.59 103.197C177.474 103.391 186.452 94.3896 186.629 83.6325C186.724 80.1882 185.863 76.7259 184.149 73.7286C182.516 70.6635 179.786 68.3884 177.356 65.8831L169.928 58.4799C165.162 53.7943 137.995 26.9038 132.625 21.6133L132.621 21.6088Z" fill="#3A7491"/>
<g style="mix-blend-mode:darken">
<path d="M166.472 103.458H84.2939C67.8512 103.458 58.2875 84.9551 67.8512 71.6385L76.6349 59.4053C84.3937 95.5497 166.472 103.458 166.472 103.458Z" fill="#DEF6FF"/>
</g>
<path d="M34.0001 103.865C99.8574 103.039 169.188 102.984 235 103.278C251.656 103.35 285.34 103.644 302 103.865C302.195 104.036 33.8096 104.036 34.0001 103.865Z" fill="#3A7491"/>
<path d="M266.331 59.1436L290.338 84.9372C296.7 91.7761 292.188 103.459 283.187 103.459H242.007C233.781 103.459 229.002 93.4779 233.781 86.2959L250.959 60.5024C254.591 55.0448 261.919 54.3993 266.336 59.1436H266.331Z" fill="#FFDEDE"/>
<path d="M266.663 58.8367C274.027 66.777 281.224 74.8662 288.638 82.7614C289.699 83.9215 291.386 85.5556 292.116 86.964C293.948 90.1871 294.002 94.2543 292.447 97.5947C290.928 100.962 287.581 103.531 283.813 103.702C282.28 103.761 279.927 103.725 278.371 103.738C269.669 103.761 251.612 103.793 243.096 103.761C236.04 104.352 230.861 97.9378 231.682 91.1983C231.895 89.361 232.585 87.5915 233.605 86.0612C238.602 78.6129 243.618 70.9841 248.533 63.5042C249.449 62.1726 250.565 60.236 251.639 59.0127C252.882 57.6224 254.492 56.5164 256.306 55.9702C259.947 54.8011 264.11 56.0424 266.667 58.8321L266.663 58.8367ZM265.996 59.4506C261.321 54.4806 253.916 55.8664 250.633 61.6535C245.119 69.824 239.509 78.139 234.068 86.3727C229.864 92.2681 232.988 101.82 240.434 103.034C241.899 103.264 244.275 103.129 245.803 103.161C252.673 103.134 271.256 103.17 278.367 103.188C279.886 103.174 282.271 103.228 283.777 103.174C287.359 103.025 290.524 100.592 291.98 97.3871C293.476 94.1911 293.436 90.2954 291.685 87.2078C291.005 85.8265 289.305 84.2465 288.284 83.0909C280.943 75.1326 273.388 67.3683 265.996 59.4551V59.4506Z" fill="#3A7491"/>
<g style="mix-blend-mode:screen">
<path d="M266.455 59.5994L289.913 84.8061C296.13 91.487 292.108 102.908 282.925 102.908C280.313 71.0156 251.432 60.9265 251.432 60.9265C254.982 55.5954 262.143 54.9634 266.455 59.5994Z" fill="#FFDEDE"/>
</g>
</svg>
