<svg width="335" height="117" viewBox="0 0 335 117" fill="none" xmlns="http://www.w3.org/2000/svg">
<rect width="335" height="117" fill="white"/>
<path d="M44 23.8116C59.3836 22.768 75.2673 22.4553 90.6873 22.3309C106.253 22.0747 121.814 23.1711 137.375 23.3896C158.073 23.6948 178.924 22.3535 199.625 22.2179C225.352 21.7695 251.751 21.9994 277.437 23.0355C282.625 23.2427 287.811 23.4801 293 23.8116V24.1884C287.811 24.5162 282.625 24.7573 277.437 24.9645C251.759 26.0006 225.35 26.2305 199.625 25.7821C178.924 25.6502 158.073 24.3052 137.375 24.6141C124.407 24.7573 111.439 25.654 98.469 25.6804C88.4245 25.7218 77.3845 25.5598 67.3449 25.2697C65.4705 25.2207 61.4546 25.0889 59.5633 25.006C54.3747 24.8063 49.1886 24.5614 44 24.1922V23.8154V23.8116Z" fill="#3A7491"/>
<path d="M43.2122 44L293 45.5L43.2122 47C41.6388 46.964 41.5536 44.075 43.2122 44V44Z" fill="#3A7491"/>
<path d="M292.783 95H43.2167C42.5451 95 42 94.104 42 93C42 91.896 42.5451 91 43.2167 91H292.783C293.455 91 294 91.896 294 93C294 94.104 293.455 95 292.783 95Z" fill="#3A7491"/>
<path d="M44 66.3481C98.5564 65.8679 168.693 65.1765 222.968 65C243.358 65.1215 264.87 65.4079 285.218 66.0733C287.115 66.1254 291.092 66.2642 293 66.3481V66.6374C291.043 66.7213 287.17 66.8573 285.218 66.9122C262.238 67.6471 238.201 67.9624 215.186 68C164.257 67.3809 94.6716 67.6905 44 66.3481V66.3481Z" fill="#3A7491"/>
<path d="M25.4702 28.9455L21 24.4721L22.6093 22.8617L25.4702 25.7247L32.1901 19L33.7994 20.6104L25.4702 28.9455Z" fill="#41D94D"/>
<path d="M25.4702 50.7331L21 46.2597L22.6093 44.6493L25.4702 47.5123L32.1901 40.7876L33.7994 42.398L25.4702 50.7331Z" fill="#41D94D"/>
<path d="M25.4702 72.0004L21 67.527L22.6093 65.9166L25.4702 68.7795L32.1901 62.0581L33.7994 63.6685L25.4702 72.0004Z" fill="#41D94D"/>
<path d="M33.2724 97.331L31.6046 99L21.5264 88.9146L23.1942 87.2456L33.2724 97.331ZM33.0676 89.1683L23.4022 98.795L21.7572 97.1488L31.3771 87.4766L33.0676 89.1683Z" fill="#FB8FB0"/>
</svg>
