<svg width="703" height="95" viewBox="0 0 703 95" fill="none" xmlns="http://www.w3.org/2000/svg">
<rect width="703" height="95" fill="white"/>
<path d="M20 33C20 31.8954 20.8954 31 22 31H397.757C398.862 31 399.757 31.8954 399.757 33V60C399.757 61.1046 398.862 62 397.757 62H22C20.8954 62 20 61.1046 20 60V33Z" fill="white"/>
<path fill-rule="evenodd" clip-rule="evenodd" d="M397.757 32H22C21.4477 32 21 32.4477 21 33V60C21 60.5523 21.4477 61 22 61H397.757C398.31 61 398.757 60.5523 398.757 60V33C398.757 32.4477 398.31 32 397.757 32ZM22 31C20.8954 31 20 31.8954 20 33V60C20 61.1046 20.8954 62 22 62H397.757C398.862 62 399.757 61.1046 399.757 60V33C399.757 31.8954 398.862 31 397.757 31H22Z" fill="black" fill-opacity="0.1"/>
<path d="M20 16C20 14.8954 20.8954 14 22 14H397.757C398.862 14 399.757 14.8954 399.757 16V27C399.757 28.1046 398.862 29 397.757 29H22C20.8954 29 20 28.1046 20 27V16Z" fill="white"/>
<path d="M20 66C20 64.8954 20.8954 64 22 64H397.757C398.862 64 399.757 64.8954 399.757 66V77C399.757 78.1046 398.862 79 397.757 79H22C20.8954 79 20 78.1046 20 77V66Z" fill="#E0E6EB"/>
<path d="M406.112 33C406.112 31.8954 407.008 31 408.112 31H497.86C498.964 31 499.86 31.8954 499.86 33V60C499.86 61.1046 498.964 62 497.86 62H408.112C407.008 62 406.112 61.1046 406.112 60V33Z" fill="#F2E780"/>
<path d="M406.112 16C406.112 14.8954 407.008 14 408.112 14H497.86C498.964 14 499.86 14.8954 499.86 16V27C499.86 28.1046 498.964 29 497.86 29H408.112C407.008 29 406.112 28.1046 406.112 27V16Z" fill="#FDF9C8"/>
<path d="M406.112 66C406.112 64.8954 407.008 64 408.112 64H497.86C498.964 64 499.86 64.8954 499.86 66V77C499.86 78.1046 498.964 79 497.86 79H408.112C407.008 79 406.112 78.1046 406.112 77V66Z" fill="#F0CD6A"/>
<path d="M506.216 33C506.216 31.8954 507.111 31 508.216 31H596.374C597.479 31 598.374 31.8954 598.374 33V60C598.374 61.1046 597.479 62 596.374 62H508.216C507.111 62 506.216 61.1046 506.216 60V33Z" fill="#B0D4F6"/>
<path d="M506.216 16C506.216 14.8954 507.111 14 508.216 14H596.374C597.479 14 598.374 14.8954 598.374 16V27C598.374 28.1046 597.479 29 596.374 29H508.216C507.111 29 506.216 28.1046 506.216 27V16Z" fill="#EEF7FE"/>
<path d="M506.216 66C506.216 64.8954 507.111 64 508.216 64H596.374C597.479 64 598.374 64.8954 598.374 66V77C598.374 78.1046 597.479 79 596.374 79H508.216C507.111 79 506.216 78.1046 506.216 77V66Z" fill="#70ABE7"/>
<path d="M604.731 33C604.731 31.8954 605.627 31 606.731 31H637.688C638.793 31 639.688 31.8954 639.688 33V60C639.688 61.1046 638.793 62 637.688 62H606.731C605.627 62 604.731 61.1046 604.731 60V33Z" fill="#DF98B0"/>
<path d="M604.731 16C604.731 14.8954 605.627 14 606.731 14H637.688C638.793 14 639.688 14.8954 639.688 16V27C639.688 28.1046 638.793 29 637.688 29H606.731C605.627 29 604.731 28.1046 604.731 27V16Z" fill="#F5E0DF"/>
<path d="M604.731 66C604.731 64.8954 605.627 64 606.731 64H637.688C638.793 64 639.688 64.8954 639.688 66V77C639.688 78.1046 638.793 79 637.688 79H606.731C605.627 79 604.731 78.1046 604.731 77V66Z" fill="#DE8180"/>
<path d="M646.044 33C646.044 31.8954 646.939 31 648.044 31H679.001C680.105 31 681.001 31.8954 681.001 33V60C681.001 61.1046 680.105 62 679.001 62H648.044C646.939 62 646.044 61.1046 646.044 60V33Z" fill="#92E8B9"/>
<path d="M646.044 16C646.044 14.8954 646.939 14 648.044 14H679.001C680.105 14 681.001 14.8954 681.001 16V27C681.001 28.1046 680.105 29 679.001 29H648.044C646.939 29 646.044 28.1046 646.044 27V16Z" fill="#DEF0D8"/>
<path d="M646.044 66C646.044 64.8954 646.939 64 648.044 64H679.001C680.105 64 681.001 64.8954 681.001 66V77C681.001 78.1046 680.105 79 679.001 79H648.044C646.939 79 646.044 78.1046 646.044 77V66Z" fill="#8AD470"/>
</svg>
