<?xml version="1.0" encoding="UTF-8"?>
<svg xmlns="http://www.w3.org/2000/svg" viewBox="0 0 800 400">
  <defs>
    <style>
      .cls-1 {
        fill: #f9ea35;
      }

      .cls-2 {
        fill: #00efb0;
      }

      .cls-3 {
        fill: #fff;
      }

      .cls-4 {
        fill: #fd8eb0;
      }

      .cls-5 {
        fill: #ff8db0;
      }

      .cls-6 {
        fill: #97d7ff;
      }

      .cls-7 {
        fill: #3e85ba;
      }

      .cls-8 {
        fill: #3a7491;
      }

      .cls-9 {
        mix-blend-mode: darken;
        opacity: .1;
      }

      .cls-10 {
        opacity: .2;
      }

      .cls-11 {
        isolation: isolate;
      }
    </style>
  </defs>
  <g class="cls-11">
    <g id="Layer_1" data-name="Layer 1">
      <g>
        <g>
          <path class="cls-3" d="M652.83,102.11c-1.4,0-2.7,.41-3.8,1.1-2.19-4.16-6.54-6.99-11.57-6.99-2.38,0-4.61,.65-6.53,1.76-2.99-4.26-7.92-7.05-13.52-7.05-5.98,0-11.19,3.19-14.09,7.94-1.61-.9-3.46-1.41-5.44-1.41-6.19,0-11.21,5.02-11.21,11.21s5.02,11.21,11.21,11.21c2.47,0,4.75-.81,6.61-2.17,3.02,3.81,7.68,6.25,12.92,6.25,4.5,0,8.58-1.81,11.56-4.73,2.29,1.96,5.25,3.15,8.5,3.15,5.03,0,9.4-2.85,11.58-7.02,1.1,.69,2.39,1.09,3.79,1.09,3.96,0,7.16-3.21,7.16-7.16s-3.21-7.16-7.16-7.16Z"/>
          <path class="cls-7" d="M652.83,102.16c-1.33,0-2.65,.4-3.76,1.11l-.06,.04-.04-.07c-.42-.77-.91-1.49-1.45-2.17-.56-.67-1.18-1.28-1.85-1.83-.68-.54-1.42-1.01-2.19-1.41-.78-.38-1.59-.7-2.42-.93-1.67-.44-3.43-.57-5.13-.33-1.7,.24-3.35,.82-4.81,1.71l-.27,.16-.19-.26c-.4-.54-.82-1.05-1.27-1.54-.46-.49-.93-.95-1.44-1.39-1.01-.86-2.13-1.6-3.33-2.19-.59-.3-1.21-.56-1.84-.77-.62-.22-1.27-.4-1.92-.54-.65-.15-1.3-.25-1.97-.31-.33-.04-.66-.06-.99-.06l-.48-.02-.51,.02c-.7,.01-1.32,.08-1.99,.18-.66,.1-1.31,.24-1.95,.42-1.28,.37-2.52,.87-3.68,1.53-.58,.33-1.14,.7-1.67,1.1-.53,.4-1.04,.84-1.53,1.3-.48,.47-.93,.96-1.36,1.48-.42,.52-.81,1.07-1.17,1.63l-.14,.22-.22-.13c-1.69-.97-3.65-1.5-5.61-1.44-1.01,0-1.95,.19-2.91,.45-.93,.31-1.85,.67-2.68,1.22-1.67,1.03-3.06,2.54-3.94,4.3-.46,.87-.75,1.82-.98,2.78-.16,.97-.28,1.95-.19,2.94,.05,.99,.26,1.94,.59,2.87,.3,.94,.8,1.79,1.33,2.61,.58,.79,1.22,1.53,1.98,2.15,.76,.61,1.57,1.17,2.47,1.55,.88,.42,1.82,.69,2.78,.84l.72,.1,.73,.03c.48,.04,.98,0,1.45-.05,1.93-.2,3.78-.94,5.32-2.1l.31-.23,.25,.31c.36,.43,.73,.85,1.13,1.25,.4,.39,.82,.77,1.25,1.13,.87,.7,1.81,1.33,2.81,1.84,1.99,1.03,4.19,1.64,6.43,1.76,.57,.02,1.1,.03,1.69,0,.56-.03,1.1-.08,1.66-.16,1.1-.17,2.19-.45,3.23-.85,2.08-.8,4.01-2.01,5.61-3.57l.34-.34,.36,.31c1.43,1.22,3.13,2.13,4.94,2.61,.91,.24,1.84,.39,2.78,.41,.46,.02,.94,0,1.43-.03,.46-.04,.92-.09,1.38-.19,1.85-.35,3.62-1.1,5.15-2.22,.39-.27,.74-.58,1.1-.89,.34-.33,.68-.66,.99-1.02,.31-.35,.6-.73,.87-1.12,.28-.39,.51-.8,.75-1.21l.22-.37,.34,.22c.88,.57,1.88,.94,2.93,1.06,.26,.03,.53,.05,.78,.04,.27-.02,.56,0,.81-.05,.51-.06,1.04-.18,1.53-.36,2.01-.71,3.63-2.43,4.25-4.5,.15-.52,.26-1.05,.28-1.59,.05-.52,0-1.1-.08-1.62-.09-.53-.25-1.06-.47-1.56-.23-.49-.48-.98-.82-1.41-.32-.44-.71-.83-1.11-1.19-.43-.34-.87-.66-1.37-.9-.48-.25-1-.44-1.53-.57-.53-.14-1.08-.19-1.63-.21Zm0-.1c.56,.01,1.11,.06,1.65,.19,.54,.12,1.07,.3,1.57,.56,.5,.24,.97,.56,1.41,.9,.42,.37,.83,.75,1.16,1.21,.35,.44,.62,.93,.86,1.44,.23,.51,.4,1.05,.5,1.6,.1,.57,.16,1.1,.14,1.67,0,.56-.1,1.12-.24,1.67-.58,2.19-2.24,4.08-4.37,4.92-.53,.22-1.08,.37-1.67,.46-.3,.06-.56,.06-.84,.08-.31,.02-.58,0-.87-.01-1.15-.09-2.29-.46-3.28-1.06l.55-.15c-.24,.44-.48,.89-.77,1.3-.28,.42-.58,.83-.9,1.21-.32,.39-.67,.75-1.03,1.11-.37,.34-.75,.68-1.16,.98-1.61,1.23-3.5,2.11-5.5,2.48-.49,.1-1.01,.16-1.53,.21-.49,.02-.99,.06-1.51,.03-1.02-.03-2.03-.18-3.01-.44-1.97-.51-3.81-1.49-5.36-2.81l.71-.02c-1.7,1.66-3.74,2.99-5.97,3.81-1.12,.41-2.27,.71-3.45,.88-.58,.08-1.19,.14-1.78,.16-.57,.02-1.19,0-1.77-.02-2.37-.16-4.7-.82-6.8-1.93-1.05-.56-2.04-1.21-2.94-1.98-.45-.38-.88-.79-1.29-1.21-.41-.43-.79-.88-1.16-1.34l.56,.08c-1.68,1.21-3.68,1.96-5.74,2.14-.52,.04-1.03,.07-1.54,.02l-.77-.05-.76-.12c-1.01-.18-2-.49-2.92-.95-.94-.42-1.78-1.02-2.56-1.68-.78-.67-1.44-1.45-2.02-2.29-.54-.86-1.03-1.76-1.33-2.74-.32-.96-.52-1.98-.56-2.99-.09-1.01,.04-2.03,.21-3.02,.24-.98,.54-1.96,1.03-2.85,.47-.9,1.04-1.74,1.74-2.48,.67-.76,1.46-1.41,2.31-1.96,.84-.57,1.79-.95,2.75-1.28,.96-.27,2.01-.48,2.99-.49,2.04-.1,4.09,.39,5.89,1.36l-.36,.1c.36-.59,.75-1.17,1.17-1.72,.43-.55,.89-1.07,1.37-1.57,.49-.49,1.01-.95,1.56-1.39,.55-.43,1.12-.82,1.72-1.19,1.2-.72,2.48-1.3,3.83-1.69,.67-.19,1.35-.35,2.05-.46,.68-.11,1.42-.19,2.09-.2l.51-.02h.54c.35,.02,.7,.03,1.05,.07,.7,.06,1.39,.16,2.08,.31,.69,.14,1.36,.34,2.02,.58,.66,.23,1.3,.52,1.93,.84,1.25,.64,2.41,1.43,3.46,2.35,.53,.46,1.02,.96,1.49,1.47,.46,.52,.88,1.08,1.28,1.65l-.46-.1c1.57-.88,3.32-1.44,5.1-1.62,1.78-.19,3.59,0,5.29,.5,.85,.27,1.67,.61,2.45,1.03,.77,.43,1.5,.94,2.19,1.49,.68,.57,1.3,1.2,1.86,1.88,.55,.69,1.03,1.43,1.45,2.21l-.1-.03c1.15-.71,2.49-1.1,3.84-1.09Z"/>
        </g>
        <g class="cls-10">
          <path class="cls-6" d="M255.2,359.27l85.14-74.36c9.46-8.26,23.5-8.51,33.25-.57l93.04,75.78-211.42-.85Z"/>
        </g>
        <g class="cls-10">
          <path class="cls-6" d="M72.41,358.92l120.46-105.21c13.39-11.69,33.25-12.04,47.04-.81l131.63,107.22-299.13-1.2Z"/>
        </g>
        <path class="cls-8" d="M493.99,186.46s.11-.22,.33-.63c.23-.41,.56-1.02,1.1-1.72,.53-.71,1.29-1.52,2.41-2.16,1.11-.63,2.58-1.01,4.13-1,1.57-.04,3.38,.45,4.89,1.48,1.54,1.01,2.85,2.48,3.84,4.17,2.01,3.39,2.84,7.66,2.55,11.8-.14,2.11-.54,4.2-1.35,6.15-.8,1.95-1.97,3.75-3.49,5.15-1.49,1.42-3.37,2.42-5.28,2.75-.97,.16-1.89,.12-2.8,0-.93-.16-1.68-.43-2.41-.73-2.91-1.22-4.76-3.25-5.59-4.83-.43-.79-.64-1.46-.76-1.92-.12-.46-.16-.7-.16-.7l.29-.08s.08,.23,.27,.64c.18,.41,.49,1,.99,1.67,.97,1.33,2.85,2.9,5.52,3.71,.65,.2,1.39,.36,2.04,.4,.67,.02,1.41-.13,2.09-.36,1.38-.47,2.67-1.38,3.75-2.59,1.08-1.22,1.98-2.7,2.69-4.32,.71-1.61,1.25-3.39,1.52-5.19,.26-1.85,.28-3.71,.01-5.52-.26-1.8-.79-3.54-1.58-5.08-.78-1.54-1.84-2.86-3.07-3.79-1.25-.94-2.62-1.45-4-1.54-1.4-.13-2.66,.08-3.69,.54-1.02,.47-1.79,1.14-2.36,1.75-.58,.61-.96,1.16-1.23,1.53-.26,.38-.39,.59-.39,.59l-.26-.15Z"/>
        <g>
          <path class="cls-3" d="M338.25,360.72c7.34,0,14.69-3.55,20.29-10.66,0,0,24.6-51.96,47.69-80.43,6.52-8.04,16.34-12.69,26.69-12.69h49.57c-36.51,5.2-65.6,70.58-73.54,88.76-1.9,4.36-4.87,8.23-8.83,10.86-4.16,2.77-8.75,4.16-13.33,4.16h-48.54Z"/>
          <path class="cls-8" d="M338.24,360.62c.99-.04,1.97-.12,2.94-.27,.48-.09,.97-.15,1.44-.27,.47-.12,.96-.2,1.42-.36,.94-.27,1.87-.59,2.76-.97,.9-.38,1.78-.81,2.62-1.3,.43-.24,.85-.48,1.25-.76,.41-.26,.82-.53,1.2-.83,.79-.57,1.55-1.19,2.27-1.84,.36-.33,.73-.65,1.06-1,.34-.35,.7-.68,1.02-1.05,.66-.71,1.28-1.47,1.89-2.23l-.06,.1c1.53-3.29,3.1-6.56,4.69-9.81,1.6-3.25,3.2-6.51,4.88-9.72,1.66-3.22,3.37-6.42,5.08-9.62,1.74-3.18,3.45-6.38,5.25-9.53,1.77-3.17,3.58-6.31,5.45-9.42,1.87-3.11,3.78-6.2,5.73-9.26l2.95-4.57c.99-1.52,2.06-2.99,3.08-4.49,2.03-3.01,4.25-5.89,6.4-8.82l3.39-4.26c1.12-1.47,2.34-2.77,3.68-4.08,1.34-1.26,2.78-2.4,4.28-3.45,1.53-1.01,3.1-1.96,4.76-2.74,3.3-1.57,6.85-2.66,10.47-3.12,.9-.15,1.82-.19,2.73-.27,.91-.02,1.83-.06,2.73-.05h5.43s21.73-.11,21.73-.11l21.72-.2c.34,0,.62,.27,.62,.61,0,.31-.22,.57-.52,.61h-.01c-3.97,.62-7.8,1.96-11.4,3.76-3.59,1.82-6.97,4.05-10.12,6.58-3.16,2.51-6.11,5.3-8.9,8.24-2.8,2.93-5.43,6.03-7.94,9.22-5.01,6.39-9.53,13.18-13.71,20.16-4.17,6.99-8.09,14.14-11.72,21.43-1.82,3.65-3.58,7.32-5.28,11.03l-2.52,5.58c-.83,1.83-1.59,3.8-2.7,5.62-2.15,3.63-5.22,6.82-8.9,8.9-3.66,2.14-7.84,3.38-12.08,3.44-4.12,0-8.18-.06-12.28-.11l-12.26-.16c-8.17-.09-16.35-.28-24.52-.42v-.2Zm0,0c8.17-.14,16.35-.33,24.52-.42l24.5-.29c3.94-.11,7.83-1.33,11.19-3.37,3.41-2.01,6.15-4.95,8.11-8.37,1-1.69,1.73-3.55,2.57-5.43l2.51-5.61c1.7-3.73,3.46-7.43,5.27-11.1,3.65-7.34,7.51-14.59,11.79-21.59,4.27-7.01,8.88-13.83,14-20.26,2.56-3.21,5.25-6.34,8.13-9.29,2.87-2.95,5.92-5.76,9.19-8.29,3.26-2.54,6.76-4.8,10.49-6.61,3.75-1.78,7.75-3.09,11.88-3.65l.09,1.22-21.72-.2-21.73-.09h-5.43c-.91-.02-1.8,.03-2.7,.06-.89,.09-1.79,.14-2.67,.29-3.55,.49-7.01,1.59-10.23,3.16-1.61,.78-3.14,1.73-4.6,2.75-1.44,1.06-2.81,2.21-4.08,3.46-1.22,1.25-2.46,2.62-3.49,4.07l-3.26,4.32c-2.07,2.96-4.2,5.87-6.15,8.92-2,3-3.93,6.06-5.87,9.11-1.92,3.06-3.79,6.15-5.63,9.26-1.82,3.12-3.68,6.22-5.47,9.36-1.82,3.12-3.56,6.29-5.33,9.45-1.74,3.17-3.47,6.35-5.16,9.55-3.39,6.39-6.78,12.79-9.97,19.27v.02s-.04,.06-.06,.08c-.64,.77-1.3,1.53-2,2.25-.34,.37-.72,.7-1.07,1.06-.35,.36-.75,.67-1.13,1-.77,.65-1.57,1.26-2.4,1.81-.41,.29-.84,.55-1.27,.81-.42,.27-.87,.5-1.31,.73-.88,.47-1.8,.88-2.74,1.23-.93,.36-1.89,.65-2.86,.89-.48,.14-.98,.21-1.46,.31-.49,.1-.99,.14-1.48,.21-1,.11-1.99,.14-2.98,.13v-.2Z"/>
        </g>
        <g>
          <path class="cls-6" d="M386.15,360.59c-7.34,0-14.69-3.55-20.29-10.66l-25.61-32.32c-5.6-7.1-12.95-10.66-20.29-10.66h-48.51c7.33,0,14.66,3.56,20.26,10.66l25.61,32.32c5.6,7.1,12.94,10.65,20.29,10.66h48.54Z"/>
          <path class="cls-8" d="M386.15,360.69c-1.42,.03-2.88-.06-4.3-.28-1.43-.23-2.82-.62-4.19-1.1-2.73-.99-5.29-2.44-7.55-4.27-1.11-.93-2.21-1.9-3.18-2.98-1-1.06-1.9-2.2-2.8-3.3l-5.42-6.65-10.73-13.38c-1.78-2.24-3.6-4.44-5.35-6.7l-2.65-3.37c-.44-.57-.87-1.08-1.34-1.65-.46-.53-.91-1.03-1.4-1.53-1.95-1.98-4.15-3.72-6.58-5.06-2.43-1.34-5.09-2.26-7.85-2.68-1.38-.2-2.76-.25-4.2-.27l-4.29-.08c-2.86-.07-5.72-.06-8.57-.09l-8.58-.05-8.57,.04c-5.72,0-11.43,.13-17.15,.2v-1.1c2.93-.03,5.87,.48,8.62,1.5,2.76,1.01,5.32,2.54,7.6,4.39,1.12,.95,2.22,1.93,3.2,3.02,1.01,1.08,1.9,2.22,2.8,3.32l5.37,6.69,10.73,13.38,5.33,6.72,2.66,3.37,.66,.82,.68,.83c.47,.52,.9,1.02,1.39,1.51,1.94,1.97,4.15,3.67,6.57,4.95,2.43,1.28,5.06,2.15,7.77,2.54,1.37,.18,2.7,.22,4.16,.23l4.29,.05,8.57,.09,17.15,.28,17.15,.4v.2Zm0,0l-17.15,.4-17.15,.28-8.57,.09-4.29,.05c-1.4,.03-2.93,.02-4.4-.15-2.96-.35-5.84-1.27-8.47-2.66-2.63-1.38-5.02-3.2-7.1-5.29-.52-.52-1.03-1.09-1.52-1.63l-.69-.82-.69-.85-2.67-3.35-5.32-6.72-10.57-13.5-5.28-6.75c-.89-1.14-1.73-2.26-2.65-3.29-.91-1.06-1.93-2.01-2.97-2.93-2.12-1.79-4.5-3.29-7.07-4.34-2.57-1.05-5.34-1.63-8.13-1.69v-1.1c5.72,.07,11.43,.19,17.15,.2l8.57,.05,8.58-.05c2.86-.03,5.72-.02,8.57-.09l4.29-.08c1.41-.04,2.9-.04,4.36,.12,2.92,.33,5.77,1.21,8.39,2.54,1.32,.66,2.56,1.46,3.76,2.3,1.17,.89,2.29,1.85,3.32,2.89,.52,.52,1.03,1.08,1.51,1.62,.45,.54,.94,1.11,1.38,1.67l2.68,3.35c1.8,2.22,3.54,4.49,5.3,6.74l10.57,13.51,5.23,6.79c.88,1.14,1.72,2.27,2.65,3.32,.91,1.07,1.94,2.03,2.98,2.97,2.14,1.81,4.52,3.37,7.13,4.44,2.61,1.08,5.41,1.68,8.26,1.79v.2Z"/>
        </g>
        <g class="cls-9">
          <path class="cls-8" d="M348.25,326.62c-5.6-7.1-20.95-19.66-28.29-19.66h-48.51c7.33,0,22.66,12.56,28.26,19.66h48.54Z"/>
          <path class="cls-8" d="M348,326.51c-2.25-2.55-4.73-4.86-7.33-7.03-2.66-2.22-5.4-4.35-8.28-6.26-1.44-.95-2.91-1.85-4.42-2.67-1.51-.8-3.04-1.57-4.63-2.1-.79-.28-1.59-.48-2.38-.59-.41-.06-.76-.07-1.19-.07l-1.31,.02-5.22,.04c-3.48,.03-6.97,0-10.45-.06l-10.45-.29c-3.48-.11-6.97-.2-10.45-.22-3.48-.04-6.97,.02-10.45,.04v-.72c1.54,.03,3,.44,4.4,.95,1.39,.52,2.73,1.16,4.03,1.86,2.6,1.41,5.06,3.03,7.44,4.76,2.37,1.74,4.68,3.57,6.87,5.55,2.19,1.98,4.3,4.04,6.21,6.36l-.68-.33,12.13-.18c4.04-.04,8.09-.01,12.13,.04l6.07,.14c2.02,.06,4.04,.08,6.07,.17l6.07,.24c1.94,.11,3.88,.2,5.82,.34Zm.25,.21c-2.02,.15-4.04,.23-6.07,.35l-6.07,.24c-2.02,.09-4.04,.11-6.07,.17l-6.07,.14c-4.04,.06-8.09,.09-12.13,.04l-12.13-.18h-.43s-.25-.33-.25-.33c-1.75-2.24-3.78-4.32-5.88-6.31-2.11-1.98-4.29-3.9-6.58-5.68-2.28-1.79-4.66-3.47-7.15-4.92-1.25-.72-2.53-1.39-3.86-1.93-1.32-.55-2.71-.96-4.1-.99v-.72c3.48,.02,6.97,.09,10.45,.04,3.48-.02,6.97-.11,10.45-.22l10.45-.29c3.48-.06,6.97-.09,10.45-.06l5.22,.04,1.31,.02c.44,.01,.96,.03,1.42,.12,.93,.15,1.82,.4,2.67,.71,1.71,.62,3.29,1.43,4.82,2.32,1.53,.9,3,1.87,4.42,2.89,2.85,2.06,5.57,4.27,8.13,6.66,2.54,2.41,5.01,4.9,7.09,7.72l.11,.15h-.19Z"/>
        </g>
        <g>
          <path class="cls-3" d="M321.08,306.96c-7.34,0-14.69,3.55-20.29,10.66l-32.04,32.47c-5.6,7.1-12.95,10.66-20.29,10.66-7.34,0-14.69-3.55-20.29-10.66l-10.26-13.01h-48.54l10.26,13.01c5.51,6.99,12.7,10.54,19.92,10.65,7.46,.12,14.96-3.43,20.65-10.65l32.04-32.47c5.61-7.11,12.97-10.66,20.32-10.66h48.51Z"/>
          <path class="cls-8" d="M321.08,306.96c-.99,.03-1.98,.1-2.95,.24-.49,.09-.98,.14-1.46,.26-.48,.12-.97,.2-1.44,.35-.95,.26-1.88,.58-2.79,.97-.91,.37-1.8,.81-2.65,1.29-.43,.24-.86,.48-1.26,.76-.42,.26-.83,.53-1.22,.82-.8,.56-1.57,1.18-2.3,1.84-.36,.33-.74,.65-1.08,1-.34,.35-.71,.68-1.03,1.05-.67,.72-1.29,1.48-1.91,2.24l-.02,.02-15.86,16.39-15.92,16.33,.05-.05c-.85,1.06-1.73,2.1-2.7,3.05-.95,.98-2,1.85-3.07,2.7-1.1,.8-2.23,1.59-3.44,2.23-1.2,.66-2.45,1.23-3.75,1.68-1.29,.47-2.63,.8-3.99,1.04-1.36,.25-2.72,.33-4.13,.34-1.3,0-2.77-.16-4.1-.39-1.36-.25-2.69-.63-3.99-1.09-1.29-.5-2.56-1.04-3.75-1.74-1.2-.68-2.35-1.44-3.43-2.29-1.1-.83-2.1-1.78-3.07-2.74-.95-.98-1.85-2.04-2.68-3.09l-9.94-12.55,.71,.34-48.54,.1,.78-1.62,9.89,12.59,.31,.39,.3,.37,.64,.77c.43,.5,.85,.95,1.3,1.42,.91,.91,1.85,1.81,2.88,2.59,2.02,1.6,4.28,2.89,6.68,3.79,1.2,.46,2.44,.78,3.69,1.04,1.25,.24,2.56,.36,3.79,.39,1.37,0,2.56-.08,3.85-.28,1.26-.23,2.52-.51,3.72-.94,2.43-.83,4.71-2.08,6.79-3.62,1.02-.79,2.03-1.61,2.93-2.54,.93-.9,1.78-1.89,2.6-2.89v-.02s.06-.06,.06-.06l16.08-16.18,16.12-16.14-.05,.05c.98-1.18,1.99-2.34,3.12-3.39,1.12-1.05,2.3-2.04,3.58-2.9,2.53-1.75,5.38-3.05,8.37-3.79,1.5-.36,3.03-.58,4.57-.65,1.56-.06,3.03,0,4.54,0l9.03,.09,36.13,.4Zm0,0l-36.13,.4-9.03,.09c-1.49,.03-3.04,0-4.49,.07-1.47,.09-2.93,.32-4.35,.68-2.85,.75-5.55,2.02-7.95,3.72-1.21,.83-2.33,1.8-3.4,2.82-1.07,1.01-2.03,2.14-2.96,3.29h0s-.04,.05-.04,.05l-15.92,16.33-15.96,16.29,.06-.07c-.86,1.06-1.75,2.11-2.73,3.06-.96,.98-2.02,1.86-3.11,2.7-2.2,1.65-4.64,3.01-7.26,3.91-1.3,.47-2.66,.78-4.02,1.03-1.35,.22-2.82,.33-4.12,.32-1.44-.03-2.79-.15-4.16-.41-1.36-.27-2.71-.62-4-1.11-2.59-.97-5.03-2.34-7.2-4.05-1.1-.84-2.1-1.78-3.08-2.75-.48-.5-.96-1.02-1.4-1.53l-.64-.77-.33-.4-.31-.39-9.94-12.55c-.34-.43-.27-1.06,.16-1.4,.18-.15,.4-.22,.62-.22l48.54,.1c.28,0,.54,.14,.71,.34l9.89,12.59c.82,1.05,1.65,2.02,2.55,2.96,.92,.91,1.86,1.81,2.89,2.6,1.01,.81,2.09,1.53,3.21,2.17,1.11,.65,2.29,1.18,3.49,1.66,1.21,.44,2.45,.81,3.71,1.06,1.29,.23,2.48,.39,3.85,.41,1.26,0,2.57-.05,3.84-.27,1.27-.21,2.54-.5,3.76-.93,1.23-.41,2.42-.93,3.56-1.54,1.16-.59,2.23-1.32,3.29-2.07,1.03-.8,2.04-1.62,2.96-2.54,.94-.9,1.8-1.89,2.63-2.9v-.02s.05-.04,.05-.04l16.12-16.14,16.18-16.08-.02,.02c.64-.77,1.28-1.52,1.98-2.24,.33-.37,.71-.7,1.06-1.05,.35-.35,.74-.67,1.11-1,.76-.65,1.54-1.26,2.37-1.82,.4-.29,.83-.55,1.25-.81,.42-.27,.85-.51,1.3-.74,.87-.47,1.78-.88,2.71-1.24,.92-.36,1.87-.66,2.84-.9,.48-.14,.97-.21,1.45-.32,.48-.1,.98-.15,1.47-.22,.99-.12,1.97-.16,2.96-.16Z"/>
        </g>
        <g>
          <path class="cls-6" d="M199.56,360.74c-7.22-.12-14.41-3.67-19.92-10.65l-10.26-13.01h48.54l10.26,13.01c5.6,7.1,12.95,10.66,20.29,10.66h-48.9Z"/>
          <path class="cls-8" d="M199.56,360.84c-.83-.02-1.66-.07-2.5-.17-.83-.11-1.66-.24-2.47-.44-.82-.18-1.63-.39-2.42-.67-.8-.25-1.57-.58-2.35-.9-.77-.33-1.52-.71-2.27-1.11-.73-.42-1.46-.85-2.15-1.33-.7-.47-1.38-.98-2.03-1.52-.66-.53-1.28-1.1-1.9-1.68-.6-.6-1.21-1.19-1.76-1.84-.57-.63-1.1-1.27-1.64-1.91l-3.19-3.84c-2.1-2.58-4.17-5.18-6.22-7.81l-1.13-1.45,1.83,.02c2.02,.02,4.04,.04,6.07,.09l6.07,.15c4.04,.09,8.09,.24,12.13,.29,2.02,.04,4.04,.04,6.07,.05,2.02,0,4.04-.03,6.07-.04,2.02-.02,4.04-.02,6.07-.07l6.07-.13h.25s.17,.21,.17,.21l6.42,7.77,3.18,3.9,.8,.98,.8,.94c.55,.66,1.09,1.2,1.66,1.79,.58,.57,1.17,1.13,1.8,1.65,.62,.52,1.26,1.03,1.93,1.48,.66,.48,1.35,.89,2.04,1.31,.71,.39,1.42,.76,2.16,1.09,.74,.32,1.48,.63,2.25,.87,.38,.13,.76,.25,1.15,.34,.39,.1,.77,.21,1.17,.28,.78,.17,1.57,.3,2.37,.39,.8,.09,1.6,.12,2.4,.14v2.13c-4.08,.02-8.15-.03-12.23-.06-4.08-.04-8.15-.12-12.23-.27l-12.23-.43c-2.04-.08-4.08-.12-6.11-.16l-6.11-.06Zm0-.2l6.11-.06c2.04-.04,4.08-.08,6.11-.16l12.23-.42c4.08-.15,8.15-.23,12.23-.27,4.08-.02,8.15-.08,12.23-.06v2.13c-.88-.02-1.76-.05-2.63-.15-.87-.11-1.74-.23-2.59-.44-.43-.09-.85-.21-1.27-.33-.42-.11-.84-.25-1.25-.4-.83-.28-1.64-.62-2.43-.99-.79-.37-1.56-.79-2.31-1.22-.74-.46-1.48-.92-2.17-1.44-.71-.5-1.38-1.06-2.03-1.62-.66-.57-1.28-1.17-1.88-1.79-.58-.63-1.22-1.29-1.72-1.94l-.8-1-.76-1-3.06-4-6.06-8.05,.42,.21-6.07-.13c-2.02-.06-4.04-.05-6.07-.07-2.02-.01-4.04-.04-6.07-.04-2.02,.02-4.04,.01-6.07,.05-4.04,.05-8.09,.2-12.13,.29l-6.07,.15c-2.02,.05-4.04,.07-6.07,.09l.7-1.44c2.08,2.6,4.13,5.22,6.15,7.87l3,3.99c.49,.67,.98,1.35,1.49,1.98,.49,.66,1.03,1.26,1.57,1.88,.56,.6,1.12,1.19,1.73,1.74,.6,.56,1.22,1.1,1.87,1.6,.64,.51,1.32,.97,2.01,1.43,.7,.43,1.41,.85,2.14,1.23,.74,.37,1.49,.71,2.27,.99,.77,.3,1.56,.54,2.36,.74,.8,.2,1.62,.34,2.44,.46,.82,.11,1.64,.16,2.48,.19Z"/>
        </g>
        <g>
          <path class="cls-1" d="M562.51,293.92c6.33,0,12.69-2.79,18.47-6.66,12.64-8.46,21.43-21.58,25.05-36.35l30.25-143.61h-11.9c-1.77,0-2.61-2.17-1.32-3.37l46.33-42.75,30.49,43.09c.91,1.29-.01,3.07-1.59,3.06l-13.47-.03-31.15,147.27c-2.47,10.08-7.19,19.52-14.08,27.27-5.68,6.39-13.24,12.09-23.39,12.09h-53.68Z"/>
          <path class="cls-8" d="M562.5,293.82c4.42-.07,8.69-1.46,12.59-3.44,3.9-1.99,7.55-4.54,10.84-7.4,3.3-2.88,6.3-6.1,8.91-9.61,2.59-3.52,4.81-7.32,6.61-11.3,1.81-3.97,3.19-8.16,4.09-12.41l2.67-12.97,5.39-25.93c1.81-8.64,3.56-17.29,5.42-25.92l5.52-25.9,11.3-51.74,.42,.52-9.95-.05h-1.24c-.41-.02-.81,.04-1.33-.09-1-.26-1.68-1.21-1.68-2.2-.01-.49,.15-.99,.44-1.39,.33-.41,.63-.62,.93-.92l1.83-1.68,14.66-13.46,29.16-27.08c.17-.16,.44-.15,.6,.02,.01,.01,.03,.03,.04,.04l20.53,28.66,10.29,14.38c.55,.81,.56,2.02,0,2.86-.27,.43-.66,.78-1.13,1-.23,.11-.48,.18-.73,.22l-.38,.03h-.28s-4.41,.02-4.41,.02l-8.81,.03,.81-.66-13.37,64.22-13.6,64.17-3.45,16.03c-1.06,5.41-2.85,10.73-5.23,15.72-2.39,5-5.43,9.69-9.05,13.88-3.6,4.17-7.85,7.99-12.93,10.39-2.53,1.2-5.24,2.03-8.02,2.41-.7,.06-1.39,.15-2.09,.19-.7,.01-1.41,.05-2.09,.04l-4.1-.03-16.4-.12-32.8-.36v-.2Zm0,0l32.8-.36,16.4-.12,4.1-.03c.69,0,1.34-.05,2.01-.07,.67-.05,1.33-.14,1.99-.21,2.64-.4,5.19-1.24,7.59-2.41,4.79-2.37,8.85-6.05,12.33-10.16,3.49-4.11,6.4-8.7,8.68-13.59,2.27-4.9,3.95-10.04,4.95-15.37l3.34-16.05,13.54-64.18,13.78-64.13h0c.08-.4,.43-.66,.81-.66l8.81,.07,4.41,.04h.27s.17-.01,.17-.01c.11-.02,.22-.05,.32-.09,.2-.09,.38-.25,.5-.44,.25-.4,.28-.88,0-1.31l-10.07-14.41-20.19-28.9,.63,.07-29.32,26.9-14.59,13.53-1.82,1.69c-.29,.28-.65,.58-.84,.82-.2,.27-.3,.6-.29,.94,0,.68,.5,1.33,1.13,1.48,.28,.09,.73,.05,1.15,.06h1.24s9.95-.05,9.95-.05c.24,0,.43,.19,.43,.43,0,.03,0,.06,0,.09h0s-10.54,51.91-10.54,51.91l-5.4,25.92c-1.78,8.65-3.66,17.27-5.49,25.9l-5.53,25.9-2.79,12.94c-.99,4.37-2.45,8.6-4.36,12.63-1.9,4.03-4.21,7.87-6.9,11.42-2.71,3.53-5.8,6.77-9.23,9.6-3.43,2.85-7.14,5.3-11.15,7.23-3.99,1.91-8.37,3.22-12.81,3.18v-.2Z"/>
        </g>
        <g>
          <path class="cls-6" d="M557.56,293.94c-4.01-.06-8.01-1.19-11.73-3.37-4.04-2.38-26.09-30.29-44.46-33.29h46.15c7.28,0,14.26,2.9,19.37,8.08,12.45,12.63,32.91,27.16,41.46,28.29,1.49,.2,2.88,.3,4.11,.3h-54.9Z"/>
          <path class="cls-8" d="M557.53,294.94c-1.44-.04-2.98-.21-4.42-.52-1.46-.31-2.88-.76-4.25-1.32-1.38-.58-2.67-1.23-3.94-2.11-.67-.54-1.17-1.02-1.69-1.54-.52-.51-1.02-1.03-1.52-1.54l-5.91-6.22c-1.97-2.07-3.99-4.08-6.06-6.04-2.07-1.96-4.17-3.89-6.36-5.7-2.19-1.82-4.45-3.55-6.79-5.16-2.34-1.6-4.78-3.07-7.32-4.29-.64-.31-1.27-.61-1.93-.86-.65-.28-1.31-.52-1.97-.75-1.32-.47-2.69-.79-4.06-1.05h-.01c-.3-.06-.5-.35-.44-.65,.05-.27,.28-.45,.54-.45l30.62-.05,15.31-.04c2.57-.01,5.25,.3,7.74,1.01,2.52,.68,4.94,1.75,7.18,3.11,1.12,.67,2.17,1.46,3.19,2.29,1,.84,1.93,1.78,2.82,2.67,1.79,1.79,3.65,3.53,5.55,5.21,3.8,3.38,7.75,6.58,11.84,9.61,4.09,3.02,8.3,5.88,12.72,8.36,2.21,1.23,4.47,2.38,6.81,3.25,1.18,.43,2.35,.77,3.57,.92,1.24,.15,2.5,.26,3.74,.26v1.22c-4.58-.02-9.15,0-13.73,.04-4.58,.02-9.15,.07-13.73,.14l-13.73,.16-13.73,.06s-.01,0-.02,0h-.01Zm.06-2l13.7,.06,13.73,.16c4.58,.06,9.15,.12,13.73,.14,4.58,.04,9.15,.06,13.73,.04,.34,0,.61,.27,.61,.61s-.27,.61-.61,.61h0c-1.31,0-2.6-.1-3.89-.26-1.32-.16-2.61-.53-3.83-.97-2.45-.9-4.75-2.07-7-3.32-4.49-2.51-8.74-5.4-12.88-8.41-4.13-3.03-8.13-6.24-11.97-9.63-1.92-1.69-3.8-3.44-5.63-5.25-.91-.91-1.79-1.78-2.74-2.58-.97-.78-1.96-1.53-3.02-2.18-2.11-1.31-4.4-2.34-6.8-3.01-2.41-.69-4.85-1-7.38-1.02l-15.31-.04-30.62-.05,.09-1.1c1.44,.27,2.86,.61,4.24,1.1,.69,.23,1.37,.48,2.04,.77,.68,.27,1.33,.57,1.98,.89,2.61,1.26,5.08,2.76,7.45,4.39,2.37,1.63,4.65,3.39,6.86,5.23,2.21,1.84,4.37,3.72,6.48,5.67,2.11,1.95,4.17,3.94,6.22,5.94l6.1,6.03c.51,.5,1.02,.99,1.54,1.47,.51,.48,1.06,.96,1.51,1.31,1.09,.72,2.41,1.3,3.67,1.82,1.28,.5,2.6,.9,3.95,1.16,1.36,.27,2.67,.4,4.09,.42Z"/>
        </g>
        <g>
          <ellipse class="cls-3" cx="460.17" cy="203.76" rx="16.03" ry="12.95" transform="translate(234.43 653.56) rotate(-87.23)"/>
          <path class="cls-8" d="M448.74,203.15s0,.36-.02,1.02c0,.17,0,.35-.01,.56,0,.18,.02,.38,.03,.6,.01,.43,0,.92,.09,1.5,.06,1.16,.32,2.56,.82,4.12,.5,1.55,1.35,3.26,2.76,4.71,.68,.75,1.54,1.36,2.44,1.94,.95,.5,1.96,.98,3.09,1.18,.27,.08,.56,.1,.85,.13,.27,.02,.61,.1,.83,.07,.31,0,.63-.02,.95-.03,.32,0,.57-.08,.86-.12,1.13-.19,2.33-.59,3.39-1.23,1.08-.62,2.09-1.41,2.95-2.37,.87-.95,1.64-2.02,2.24-3.21,1.28-2.3,1.91-5.07,2.06-7.67,0-.69,.06-1.47-.02-2.1l-.07-.98-.15-1c-.21-1.32-.58-2.62-1.09-3.84-.98-2.44-2.6-4.61-4.64-6.01-1-.73-2.12-1.23-3.27-1.51-1.15-.32-2.28-.35-3.47-.24-1.05,.08-2.14,.47-3.09,.89-.94,.49-1.81,1.06-2.53,1.74-1.46,1.34-2.46,2.9-3.16,4.35-.69,1.46-1.1,2.8-1.34,3.93-.15,.56-.2,1.07-.28,1.51-.09,.44-.12,.82-.14,1.13-.05,.62-.08,.95-.08,.95v-.06Zm-3-.08s.04-.38,.1-1.1c.03-.36,.07-.8,.18-1.31,.09-.51,.19-1.1,.39-1.75,.32-1.3,.96-2.83,1.9-4.44,.94-1.61,2.29-3.29,4.11-4.69,.88-.74,1.95-1.32,3.06-1.86,.59-.2,1.16-.49,1.8-.62,.31-.08,.62-.17,.95-.24,.34-.05,.68-.09,1.02-.14,2.55-.29,5.51,.41,7.87,2.03,1.19,.8,2.29,1.79,3.18,2.95,.92,1.14,1.7,2.41,2.28,3.78,.33,.67,.54,1.39,.79,2.09,.17,.73,.41,1.44,.5,2.19l.18,1.11,.09,1.15c.08,.79,.02,1.45,.03,2.18l-.11,1.16c-.03,.37-.08,.75-.15,1.11l-.2,1.11-.29,1.09c-.17,.73-.47,1.42-.72,2.12-.32,.68-.59,1.37-.98,2.01-1.45,2.58-3.57,4.79-6.1,6.12-1.26,.7-2.61,.9-4.01,1.1-.35,.04-.73-.11-1.04-.11h-.95c-.4,0-.69,.16-1.03,.13-.33-.04-.66,.05-.98-.04-1.3-.24-2.47-.72-3.56-1.3-1.04-.65-2-1.34-2.78-2.16-1.6-1.6-2.77-3.32-3.6-4.97-.82-1.66-1.33-3.21-1.59-4.52-.15-.65-.21-1.27-.27-1.8-.07-.55-.07-.97-.07-1.3,0-.67,0-1.02,0-1.02v-.06Z"/>
        </g>
        <path class="cls-8" d="M495.28,157.83s-.1,.13-.27,.38c-.17,.25-.45,.62-.83,1.06-.39,.44-.88,.96-1.56,1.47-.67,.51-1.55,1.01-2.64,1.22-1.08,.25-2.37,.1-3.53-.48-.3-.16-.54-.32-.85-.55-.21-.19-.43-.37-.68-.66-.48-.52-.8-1.1-1.05-1.72-.5-1.24-.65-2.59-.54-3.91,.1-1.34,.47-2.64,1.12-3.92,.29-.54,.71-1.2,1.19-1.71,.48-.52,1.03-1,1.65-1.36,1.23-.74,2.68-1.15,4.12-1.07,.72,.02,1.43,.19,2.07,.47,.64,.24,1.26,.68,1.68,1.07,1.06,.97,1.63,2.07,1.83,3.18,.21,1.1,.1,2.1-.09,2.92-.2,.83-.48,1.49-.73,2.02-.25,.53-.48,.92-.64,1.18-.16,.26-.25,.4-.25,.4Zm-.17-.11s.08-.14,.23-.4c.15-.26,.34-.67,.48-1.2,.17-.53,.25-1.22,.19-1.97-.05-.75-.26-1.57-.63-2.34-.34-.76-.9-1.54-1.52-2.05-.79-.61-1.6-.99-2.62-1.11-.99-.13-2.1,.07-3.11,.55-.51,.23-1,.54-1.47,.9-.49,.35-.87,.73-1.32,1.26-.74,.9-1.32,2.11-1.4,3.33-.12,1.22,.21,2.46,.88,3.36,.31,.45,.72,.85,1.11,1.12,.16,.13,.42,.29,.67,.44,.16,.08,.41,.22,.62,.29,.87,.36,1.75,.48,2.61,.49,1.72,.01,3.3-.62,4.12-1.36,.44-.35,.73-.68,.9-.93,.18-.25,.27-.38,.27-.38Z"/>
        <g>
          <path class="cls-4" d="M489.24,159.52c-12.98,3.16-13.48,21.02-17.54,24.3-.35,.29-.81,.39-1.26,.31-1.81-.32-6.73-1.47-8.38-4.59-7.03-13.34,5.81-32.51,19.89-27.75,.51,.17,1.05-.18,1.5,.1,1.1,.68,1.95,4.74,4.06,5.68,1,.45,2.79,1.68,1.72,1.94Z"/>
          <path class="cls-8" d="M489.38,160s-.36,.1-1.05,.29c-.34,.1-.71,.26-1.17,.42-.45,.21-.98,.43-1.53,.75-1.12,.61-2.41,1.53-3.66,2.83-1.25,1.3-2.44,3.01-3.46,5.01-1.03,2-1.91,4.29-2.78,6.73-.44,1.22-.87,2.48-1.36,3.77-.51,1.27-1.02,2.6-1.98,3.77-.25,.27-.51,.57-.92,.75-.38,.17-.87,.18-1.23,.09-.72-.13-1.44-.3-2.15-.51-1.42-.42-2.84-.97-4.11-1.84-.64-.43-1.24-.95-1.72-1.59-.49-.66-.8-1.34-1.12-2.05-.59-1.42-1.01-2.92-1.22-4.44-.43-3.06-.07-6.18,.84-9.06,.92-2.88,2.38-5.52,4.22-7.73,1.84-2.21,4.08-3.97,6.49-5.08,2.39-1.14,4.96-1.58,7.28-1.38,1.16,.1,2.26,.33,3.27,.66l.07,.02s.07,.02,.07,.02c.01,0,.06,0,.11,0,.09,0,.2-.01,.32-.03,.24-.03,.59-.1,.97,.07,.05,.03,.07,.03,.15,.08l.07,.05c.05,.04,.14,.12,.2,.17,.1,.11,.2,.22,.27,.33,.16,.22,.28,.43,.4,.64,.87,1.67,1.5,3.13,2.38,3.93,.21,.2,.43,.35,.64,.45,.27,.12,.55,.27,.78,.4,.47,.28,.85,.55,1.15,.84,.15,.15,.28,.3,.39,.53,.05,.12,.09,.27,.06,.46-.03,.18-.14,.34-.22,.41-.36,.27-.46,.21-.47,.24h.02Zm-.26-.97s.1-.04,.03,0c-.08,.03-.09,.29-.07,.24,0-.02-.07-.12-.17-.21-.2-.21-.54-.46-.95-.7-.21-.13-.42-.24-.69-.36-.32-.15-.62-.37-.89-.62-1.09-1.03-1.7-2.62-2.5-4.21-.19-.37-.47-.82-.67-.92-.08-.05-.24-.05-.5-.02-.13,.01-.27,.03-.44,.03-.08,0-.16,0-.27-.03-.06-.01-.08-.02-.12-.03l-.11-.03c-.95-.33-1.98-.57-3.08-.69-2.19-.23-4.64,.13-6.96,1.18-2.32,1.07-4.48,2.78-6.26,4.93-1.78,2.15-3.21,4.72-4.09,7.52-.87,2.8-1.21,5.83-.77,8.77,.2,1.47,.62,2.9,1.19,4.26,.29,.66,.61,1.36,1.02,1.91,.42,.57,.96,1.05,1.55,1.45,1.18,.82,2.54,1.37,3.91,1.79,.69,.21,1.38,.38,2.08,.51,.34,.08,.61,.07,.88-.04,.25-.1,.49-.35,.71-.59,.87-1.02,1.39-2.34,1.89-3.59,.49-1.26,.93-2.52,1.37-3.75,.88-2.45,1.78-4.75,2.83-6.78,1.03-2.04,2.2-3.8,3.43-5.23,1.23-1.42,2.54-2.46,3.71-3.16,.57-.37,1.14-.6,1.62-.84,.5-.19,.93-.37,1.27-.48,.68-.2,1.04-.31,1.04-.31h.02Z"/>
        </g>
        <g>
          <path class="cls-6" d="M429.84,269.69c-.22,0-.44-.07-.63-.22-.43-.35-.5-.98-.15-1.41,1.37-1.7,2.68-3.25,3.91-4.62,.37-.41,1-.44,1.41-.07,.41,.37,.44,1,.07,1.41-1.2,1.33-2.5,2.86-3.84,4.53-.2,.25-.49,.37-.78,.37Z"/>
          <path class="cls-6" d="M390.62,334.71c-.14,0-.29-.03-.42-.09-.5-.23-.72-.83-.48-1.33,1.72-3.67,3.61-7.51,5.62-11.41,.25-.49,.86-.69,1.35-.43,.49,.25,.68,.86,.43,1.35-2,3.88-3.88,7.69-5.59,11.34-.17,.36-.53,.58-.91,.58Zm11.59-22.55c-.16,0-.33-.04-.49-.13-.48-.27-.66-.88-.39-1.36,2.06-3.69,4.19-7.4,6.35-11.01,.28-.47,.9-.63,1.37-.35,.47,.28,.63,.9,.35,1.37-2.15,3.6-4.27,7.29-6.32,10.96-.18,.33-.52,.51-.88,.51Zm13-21.77c-.18,0-.37-.05-.54-.16-.46-.3-.6-.92-.3-1.38,2.4-3.74,4.78-7.3,7.07-10.57,.32-.45,.94-.56,1.39-.25,.45,.32,.56,.94,.25,1.39-2.28,3.25-4.64,6.79-7.03,10.51-.19,.3-.51,.46-.84,.46Z"/>
          <path class="cls-6" d="M383.38,351.91c-.11,0-.23-.02-.34-.06-.52-.19-.79-.76-.6-1.28,.65-1.79,1.38-3.69,2.17-5.63,.21-.51,.79-.76,1.3-.55,.51,.21,.76,.79,.55,1.3-.78,1.92-1.5,3.79-2.14,5.56-.15,.41-.53,.66-.94,.66Z"/>
        </g>
        <g>
          <path class="cls-6" d="M278.72,314.9c-.3,0-.6-.14-.8-.4-.33-.44-.25-1.07,.2-1.4,1.69-1.28,3.33-2.47,4.88-3.55,.46-.32,1.08-.2,1.39,.25,.32,.45,.21,1.08-.25,1.39-1.53,1.07-3.15,2.25-4.82,3.51-.18,.14-.39,.2-.6,.2Z"/>
          <path class="cls-6" d="M249.8,341.26c-.24,0-.47-.08-.66-.25-.42-.37-.45-1-.09-1.41,2.04-2.31,4.32-4.73,6.77-7.17,.39-.39,1.02-.39,1.41,0,.39,.39,.39,1.02,0,1.41-2.42,2.41-4.67,4.79-6.68,7.08-.2,.22-.47,.34-.75,.34Zm13.83-13.86c-.27,0-.54-.11-.74-.33-.37-.41-.34-1.04,.07-1.41,2.4-2.17,4.9-4.33,7.44-6.44,.43-.36,1.06-.29,1.41,.13,.35,.43,.29,1.06-.13,1.41-2.51,2.08-5,4.23-7.37,6.38-.19,.17-.43,.26-.67,.26Z"/>
          <path class="cls-6" d="M240.38,353.91c-.17,0-.34-.04-.5-.13-.48-.28-.64-.89-.37-1.37,.93-1.61,2.05-3.33,3.33-5.11,.32-.45,.95-.55,1.4-.23,.45,.32,.55,.95,.23,1.4-1.24,1.73-2.33,3.39-3.22,4.94-.18,.32-.52,.5-.87,.5Z"/>
        </g>
        <path class="cls-8" d="M468.29,177.2c13.69-7.51,31.96-.45,13.98,26.21,0,0,15.25-27.31-8.65-18.67-3.53,.26-4.53-.46-5.28-.61-2.14-.41-5.57-3.33-5.57-3.33,0,0,2.12-1.87,5.52-3.61Z"/>
        <path class="cls-8" d="M441.68,168.43s-.26,.12-.74,.33c-.48,.22-1.22,.52-2.08,.95-.83,.46-1.87,.93-3.03,1.64-.58,.35-1.2,.71-1.85,1.1-.65,.4-1.3,.86-2,1.32-1.41,.9-2.85,2.02-4.4,3.15-1.5,1.2-3.11,2.45-4.69,3.85-1.62,1.35-3.18,2.88-4.81,4.38-1.56,1.58-3.19,3.14-4.7,4.82-1.56,1.63-3.03,3.34-4.48,5.03-1.46,1.68-2.79,3.42-4.13,5.06-1.26,1.7-2.52,3.32-3.65,4.91-1.1,1.6-2.18,3.1-3.12,4.51-.92,1.43-1.76,2.74-2.51,3.9-.75,1.16-1.33,2.21-1.85,3.06-1.01,1.71-1.59,2.68-1.59,2.68,0,0,.54-1,1.48-2.74,.48-.87,1.02-1.95,1.72-3.14,.7-1.19,1.49-2.54,2.35-4.01,.88-1.46,1.9-3,2.94-4.65,1.07-1.64,2.26-3.32,3.46-5.08,1.28-1.7,2.55-3.51,3.94-5.27,1.39-1.76,2.81-3.55,4.31-5.26,1.45-1.76,3.04-3.4,4.55-5.07,1.59-1.59,3.11-3.21,4.7-4.65,1.54-1.49,3.13-2.83,4.62-4.13,1.54-1.23,2.97-2.44,4.39-3.43,.7-.5,1.36-1.01,2.02-1.45,.66-.43,1.29-.84,1.88-1.23,1.17-.78,2.31-1.37,3.2-1.9,.9-.49,1.59-.8,2.07-1.05,.48-.24,.73-.36,.73-.36,.74-.37,1.64-.06,2.01,.68,.37,.74,.06,1.64-.68,2.01-.02,0-.04,.02-.06,.03Z"/>
        <path class="cls-8" d="M41.05,361.01c173-1.83,355.13-1.95,528-1.3,43.75,.16,132.23,.81,176,1.3,.63,.38-704.63,.38-704,0h0Z"/>
        <path class="cls-8" d="M618.21,279.64c-.21,0-.42-.06-.59-.2-.44-.33-.54-.95-.21-1.4,2.2-2.98,4.2-6.4,5.92-10.17,.23-.5,.82-.72,1.33-.49,.5,.23,.72,.82,.49,1.33-1.78,3.9-3.84,7.44-6.13,10.53-.2,.26-.5,.41-.8,.41Zm10.04-21.68c-.09,0-.17-.01-.26-.04-.53-.14-.85-.69-.7-1.23,.79-2.94,1.78-6.86,2.92-11.66,.13-.54,.67-.87,1.21-.74,.54,.13,.87,.67,.74,1.21-1.15,4.82-2.14,8.76-2.94,11.72-.12,.45-.52,.74-.96,.74Zm5.66-23.41c-.07,0-.15,0-.22-.03-.54-.12-.88-.66-.75-1.2,.84-3.69,1.72-7.62,2.63-11.74,.12-.54,.65-.88,1.19-.76,.54,.12,.88,.65,.76,1.19-.91,4.13-1.79,8.06-2.64,11.75-.11,.46-.52,.78-.97,.78Zm5.21-23.5c-.07,0-.14,0-.21-.02-.54-.12-.88-.65-.77-1.19,.83-3.82,1.68-7.76,2.54-11.76,.12-.54,.65-.89,1.19-.77,.54,.12,.88,.65,.77,1.19-.86,4.01-1.71,7.94-2.54,11.76-.1,.47-.52,.79-.98,.79Zm5.05-23.53c-.07,0-.14,0-.21-.02-.54-.12-.89-.65-.77-1.19,.83-3.9,1.66-7.83,2.49-11.77,.11-.54,.64-.88,1.18-.77,.54,.11,.89,.64,.77,1.18-.83,3.94-1.66,7.87-2.49,11.77-.1,.47-.52,.79-.98,.79Zm4.96-23.54c-.07,0-.14,0-.21-.02-.54-.11-.89-.64-.77-1.18,.83-3.96,1.65-7.89,2.45-11.78,.11-.54,.64-.88,1.18-.78,.54,.11,.89,.64,.78,1.18-.81,3.88-1.63,7.82-2.45,11.78-.1,.47-.51,.8-.98,.8Zm4.89-23.56c-.07,0-.13,0-.2-.02-.54-.11-.89-.64-.78-1.18,.83-4.04,1.65-7.98,2.43-11.79,.11-.54,.64-.89,1.18-.78,.54,.11,.89,.64,.78,1.18-.78,3.81-1.59,7.75-2.43,11.79-.1,.47-.51,.8-.98,.8Zm4.84-23.58c-.07,0-.13,0-.2-.02-.54-.11-.89-.64-.78-1.18,.86-4.21,1.67-8.17,2.41-11.79,.11-.54,.64-.89,1.18-.78,.54,.11,.89,.64,.78,1.18-.74,3.63-1.54,7.58-2.41,11.8-.1,.47-.51,.8-.98,.8Zm4.8-23.6c-.07,0-.13,0-.2-.02-.54-.11-.89-.64-.78-1.18,1.51-7.45,2.39-11.86,2.39-11.86,.11-.54,.64-.9,1.18-.78,.54,.11,.89,.64,.78,1.18,0,0-.89,4.41-2.39,11.86-.1,.47-.51,.8-.98,.8Z"/>
        <path class="cls-8" d="M487.87,157.6s.22,.07,.47,.21c.29,.13,.62,.32,.88,.59,.26,.26,.4,.61,.48,1.02,.09,.41,.24,.87,.37,1.37,.16,.49,.31,1.03,.5,1.59,.19,.56,.4,1.15,.64,1.74,.21,.61,.49,1.2,.76,1.81,.24,.63,.59,1.19,.87,1.8,.32,.59,.66,1.15,1,1.71,.38,.51,.71,1.08,1.12,1.54,.41,.44,.75,.97,1.19,1.31,.43,.36,.78,.78,1.2,1.03,.81,.56,1.5,.97,1.93,1.51,.21,.28,.38,.53,.49,.75,.11,.2,.16,.36,.16,.35,0,0-.12,.08-.32,.16-.21,.09-.51,.17-.89,.22-.37,.03-.83,.04-1.29-.11-.44-.18-.92-.45-1.46-.71-.55-.25-1.04-.68-1.61-1.05-.59-.36-1.07-.9-1.64-1.39-.56-.5-1-1.12-1.53-1.7-.46-.62-.9-1.27-1.32-1.93-.37-.68-.77-1.36-1.07-2.05-.32-.69-.59-1.38-.82-2.06-.26-.67-.42-1.35-.6-1.98-.18-.63-.29-1.24-.41-1.79-.09-.56-.19-1.07-.25-1.53-.09-.45-.09-.86,.08-1.23,.16-.36,.43-.66,.67-.87,.2-.2,.42-.31,.41-.31Z"/>
        <path class="cls-2" d="M646.13,69.06c-.03,3.7-2.64,6.84-6.29,6.74-4.65-.67-5.93-2.81-6.59-6.9,.03-3.7,2.63-6.84,6.29-6.74,4.65,.67,5.93,2.81,6.59,6.9Zm-10.46,.03c.44,2.74,2.31,4.75,4.67,4.77,2.23-.05,3.72-2.31,3.37-4.99-.44-2.74-2.31-4.75-4.67-4.77-2.23,.05-3.72,2.31-3.37,5Z"/>
        <path class="cls-5" d="M744,103.47c-3.55,.21-6.39-2.31-6.3-6.6,.09-2.69,3.04-6.25,6.6-6.3,3.56-.21,6.39,2.31,6.3,6.6-.09,2.69-3.04,6.25-6.6,6.3Zm.25-10.79c-2.39,.48-4.36,2.89-4.42,5.17-.05,2.49,1.84,4.01,4.22,3.51,2.38-.48,4.37-2.89,4.42-5.17,.06-2.49-1.84-4.01-4.22-3.51Z"/>
        <path class="cls-6" d="M605.8,75.53c-1.13,.17-1.74,.84-1.89,1.99-.38,2.81-.47,2.92-3.33,3.23-1.16,.12-2.03,.63-2.02,1.81,0,1.21,.81,1.87,2.06,1.97,2.61,.22,2.7,.32,3.06,2.91,.15,1.1,.77,1.79,1.89,1.78,1.11-.01,1.7-.67,1.84-1.81,.24-1.97,.84-2.53,2.74-2.67,1.21-.09,2.06-.66,2.13-1.9,.07-1.26-.86-1.69-1.94-1.9-2.19-.42-2.66-.95-2.7-3.25-.02-1.26-.54-2-1.85-2.17Z"/>
        <path class="cls-1" d="M709.43,63.45c-.83,.94-.96,1.92-.49,3.13,1.16,2.68,1.14,3.11-1,4.25-.87,.25-1.31,.83-.68,2.08,.63,1.15,1.62,1.24,2.69,.78,2.22-1.1,2.34-1.64,3.98,.27,.7,.85,1.55,1.24,2.44,.45,.88-.76,1.03-1.7,.55-2.91-.83-1.95-.64-2.93,.82-3.57,.93-.23,1.31-.8,.73-2.19-.59-1.29-1.57-1.26-2.55-.92-1.99,.8-2.63,1.24-3.86-.58-.67-1.01-1.48-1.53-2.62-.81Z"/>
        <g>
          <path class="cls-3" d="M746.52,114.72c-2.45-.3-4.74,.32-6.6,1.53-2.18-11.2-12.04-19.66-23.88-19.66-7.96,0-15.02,3.82-19.46,9.72-1.37-1.09-3.09-1.74-4.97-1.74-4.05,0-7.39,3.02-7.91,6.92-.5-.06-1-.11-1.51-.11-7.09,0-12.71,6.34-11.48,13.67,1.02,6.07,7.18,10.19,13.3,9.54,1.43-.15,2.77-.49,3.97-1.03,2.85-1.27,6.29-.33,8.14,2.18,4.4,5.99,11.68,9.52,19.93,9.52,7.73,0,14.62-3.61,19.08-9.23,1.7-2.14,4.59-2.98,7.2-2.15,.94,.3,1.95,.47,3,.47,5.81,0,10.44-5.02,9.8-10.96-.48-4.49-4.1-8.15-8.59-8.69Z"/>
          <path class="cls-7" d="M746.51,114.77c-2.28-.27-4.64,.28-6.55,1.55l-.1,.07-.03-.12c-.27-1.13-.53-2.27-.95-3.36-.17-.56-.4-1.09-.65-1.62-.24-.53-.47-1.06-.77-1.56-.53-1.03-1.19-1.99-1.85-2.94l-1.09-1.35c-.37-.45-.79-.84-1.19-1.27-.38-.43-.84-.79-1.27-1.18l-.65-.57-.7-.52c-.91-.72-1.9-1.31-2.9-1.88l-1.54-.78-1.6-.65c-.53-.23-1.09-.36-1.64-.54-.54-.19-1.1-.31-1.67-.43-1.11-.28-2.26-.39-3.4-.51l-1.72-.07c-.55-.01-1.16,.03-1.73,.05-1.13,.1-2.27,.23-3.39,.47-1.13,.21-2.23,.55-3.31,.93-4.31,1.57-8.16,4.39-10.98,8.04l-.21,.27-.26-.21c-1.04-.85-2.32-1.42-3.65-1.63-.33-.05-.67-.09-1.01-.09-.31,0-.7,0-1.02,.05-.33,.03-.66,.09-.99,.17-.33,.07-.65,.19-.97,.3-1.27,.5-2.4,1.33-3.25,2.4-.21,.27-.41,.55-.58,.85-.19,.29-.32,.61-.47,.91-.12,.32-.25,.64-.33,.97-.11,.33-.15,.67-.22,1l-.04,.18-.17-.02c-2.81-.36-5.79,.29-8.1,1.98-2.32,1.65-4.03,4.17-4.58,6.97-.59,2.77-.13,5.8,1.41,8.17,1.52,2.39,3.95,4.14,6.64,4.96,2.69,.84,5.65,.69,8.26-.32,.61-.26,1.36-.6,2.12-.72,.75-.14,1.53-.16,2.29-.05,1.52,.21,2.97,.91,4.07,2,.56,.56,.96,1.15,1.42,1.71,.47,.54,.9,1.07,1.42,1.56,.99,1.01,2.1,1.9,3.27,2.68,2.34,1.59,4.99,2.71,7.74,3.37,1.37,.34,2.78,.56,4.19,.66,1.41,.12,2.84,.13,4.25,.01,2.8-.22,5.59-.97,8.14-2.17,2.56-1.2,4.89-2.87,6.88-4.88,.49-.51,.98-1.02,1.43-1.57l.36-.42c.12-.14,.23-.27,.38-.41,.29-.29,.57-.53,.9-.75,1.26-.89,2.82-1.35,4.35-1.28,.76,.02,1.55,.21,2.22,.43,.66,.19,1.35,.33,2.04,.38,.36,.03,.67,.03,1.04,0,.37,0,.72-.03,1.05-.09,.34-.04,.68-.11,1.01-.21,.34-.07,.67-.19,1-.32,2.61-.99,4.78-3.2,5.66-5.9,.91-2.68,.59-5.8-.99-8.2-1.52-2.43-4.15-4.13-7.01-4.49Zm.01-.1c2.89,.34,5.59,2.03,7.16,4.49,1.61,2.43,2.05,5.6,1.18,8.42-.84,2.83-3.03,5.22-5.79,6.36-.34,.15-.69,.28-1.05,.37-.35,.12-.72,.2-1.1,.26-.38,.08-.75,.12-1.1,.13-.35,.03-.76,.05-1.12,.03-.75-.03-1.5-.15-2.22-.35-.7-.22-1.33-.35-2.02-.36-1.35-.04-2.71,.39-3.79,1.18-.27,.19-.53,.42-.75,.65-.11,.1-.23,.25-.35,.39l-.34,.41c-.46,.58-.95,1.12-1.46,1.66-2.06,2.11-4.49,3.86-7.16,5.11-2.67,1.26-5.55,2.05-8.51,2.29-2.92,.25-5.9,0-8.76-.72-2.85-.71-5.6-1.9-8.03-3.58-1.22-.83-2.37-1.77-3.39-2.82-.53-.5-1.02-1.1-1.48-1.65-.45-.56-.87-1.17-1.33-1.63-.95-.95-2.21-1.6-3.55-1.81-.67-.1-1.35-.1-2.02,.01-.67,.1-1.26,.35-1.98,.65-2.79,1.03-5.91,1.13-8.73,.2-2.81-.91-5.32-2.78-6.86-5.31-1.58-2.53-1.96-5.65-1.34-8.5,.59-2.88,2.36-5.47,4.76-7.14,2.38-1.72,5.42-2.44,8.33-2.09l-.2,.16c.07-.35,.11-.71,.22-1.05,.08-.35,.21-.68,.34-1.02,.15-.32,.29-.66,.48-.96,.17-.32,.38-.61,.6-.9,.87-1.14,2.05-2.06,3.39-2.61,.34-.13,.68-.26,1.03-.35,.35-.1,.71-.17,1.08-.21,.37-.05,.69-.06,1.08-.07,.36,0,.73,.03,1.09,.07,1.44,.19,2.83,.78,3.98,1.68l-.47,.06c.72-.94,1.47-1.86,2.31-2.7,.82-.86,1.73-1.62,2.67-2.35,.96-.7,1.94-1.37,3-1.92,1.04-.58,2.13-1.05,3.24-1.48,1.12-.39,2.26-.76,3.43-.98,1.16-.27,2.34-.4,3.54-.48,.59-.01,1.15-.05,1.77-.03l1.78,.09c1.18,.14,2.36,.27,3.51,.57,.58,.13,1.16,.26,1.72,.47,.56,.2,1.14,.33,1.68,.59l1.63,.71,1.56,.85c1.01,.62,2.01,1.25,2.92,2.01l.7,.55,.65,.6c.43,.41,.88,.79,1.26,1.24,.39,.44,.81,.86,1.17,1.32l1.07,1.4c.65,.98,1.29,1.97,1.8,3.03,.29,.51,.51,1.06,.74,1.6,.23,.54,.47,1.08,.63,1.64,.41,1.1,.66,2.25,.92,3.39l-.13-.05c1.95-1.27,4.35-1.81,6.65-1.51Z"/>
        </g>
        <path class="cls-6" d="M466.44,204.14s.05,.28,.07,.79c0,.25,0,.56-.02,.91-.03,.37-.06,.74-.16,1.18-.09,.44-.21,.9-.4,1.38-.18,.47-.4,.97-.71,1.44-.3,.48-.64,.95-1.08,1.37-.42,.43-.92,.79-1.45,1.1-.54,.31-1.14,.5-1.73,.62-.6,.13-1.21,.1-1.77,.03-1.16-.17-2.12-.72-2.79-1.3-.68-.58-1.09-1.2-1.35-1.63-.13-.22-.22-.4-.27-.52-.06-.12-.09-.19-.09-.19,0,0,.18,.23,.52,.59,.33,.37,.85,.84,1.54,1.29,.69,.43,1.58,.81,2.54,.89,.98,.08,2.02-.13,2.93-.65,.45-.25,.89-.55,1.26-.92,.38-.36,.73-.74,1.02-1.16,.59-.82,1-1.7,1.28-2.47,.13-.38,.26-.79,.34-1.09,.09-.33,.15-.63,.19-.87,.08-.49,.12-.77,.12-.77Z"/>
        <path class="cls-6" d="M454.02,204.14s-.02-.27-.04-.74c0-.23-.01-.52-.02-.84,0-.38,.04-.7,.11-1.12,.14-.82,.43-1.75,.94-2.67,.26-.46,.56-.92,.93-1.33,.37-.42,.79-.81,1.27-1.13,.95-.65,2.1-1.03,3.19-1.01,1.08-.01,2.07,.35,2.77,.79,.72,.44,1.18,.97,1.48,1.33,.3,.37,.42,.61,.42,.61,0,0-.2-.18-.56-.47-.36-.29-.91-.65-1.61-.96-.71-.29-1.56-.5-2.48-.42-.91,.07-1.85,.38-2.65,.96-.41,.27-.78,.6-1.12,.96-.33,.36-.64,.74-.9,1.14-.52,.79-.89,1.63-1.14,2.35-.12,.36-.25,.75-.3,1.02-.06,.32-.11,.6-.16,.83-.09,.46-.16,.72-.16,.72Z"/>
        <g>
          <path class="cls-6" d="M499.54,205.12s-.31,0-.83-.17c-.26-.08-.56-.25-.88-.44-.32-.23-.67-.51-.97-.88-.62-.73-1.13-1.74-1.43-2.89-.32-1.14-.43-2.41-.36-3.66,.03-.63,.12-1.25,.23-1.85,.1-.6,.27-1.18,.45-1.74,.37-1.11,.86-2.09,1.38-2.87,.52-.78,1.07-1.33,1.46-1.7,.4-.36,.66-.52,.66-.52,0,0-.2,.23-.52,.65-.32,.41-.71,1.06-1.11,1.85-.39,.8-.76,1.76-1.04,2.83-.15,.52-.25,1.09-.34,1.66-.09,.57-.16,1.15-.18,1.74-.15,2.33,.32,4.7,1.26,6.15,.23,.37,.48,.67,.72,.92,.28,.25,.51,.44,.74,.57,.45,.26,.75,.34,.75,.34Z"/>
          <path class="cls-6" d="M502.78,188.11s.29-.01,.79,.14c.25,.07,.54,.23,.83,.4,.31,.21,.65,.46,.94,.8,.3,.34,.6,.73,.83,1.19,.25,.45,.46,.95,.62,1.49,.15,.54,.3,1.1,.36,1.68,.08,.58,.11,1.17,.11,1.76-.02,1.18-.19,2.36-.49,3.41-.29,1.06-.7,2.01-1.14,2.77-.42,.77-.9,1.33-1.23,1.71-.34,.38-.56,.56-.56,.56,0,0,.16-.24,.4-.67,.25-.43,.56-1.07,.87-1.85,.31-.78,.59-1.72,.8-2.73,.11-.5,.17-1.05,.25-1.58,.06-.54,.1-1.09,.1-1.64,.05-2.2-.45-4.4-1.38-5.75-.23-.34-.47-.62-.7-.85-.27-.23-.49-.41-.71-.53-.43-.24-.71-.32-.71-.32Z"/>
        </g>
        <path class="cls-8" d="M491.05,184.9s4.71-12.39,16.23-8.53c4.6,1.54,5.62,5.98,5.62,5.98,0,0-12.45-10.52-21.85,9.94v-7.39Z"/>
        <path class="cls-8" d="M447.86,190.78l23.14,14.37-.39-.04,18.44-4.49-18.16,5.51-.17,.05-.21-.09-24.97-10.88c-1.27-.55-1.85-2.03-1.3-3.3s2.03-1.85,3.3-1.3c.11,.05,.22,.11,.32,.17Z"/>
        <g>
          <polyline class="cls-1" points="616.43 231.94 636.37 221.48 648.13 236.28"/>
          <path class="cls-8" d="M616.43,231.94c1.55-1.08,3.15-2.08,4.74-3.08,1.6-.99,3.22-1.94,4.85-2.88,.81-.48,1.64-.92,2.45-1.38,.82-.46,1.63-.92,2.46-1.36,1.66-.88,3.3-1.79,4.98-2.63h.02c.42-.22,.93-.1,1.2,.26,.97,1.24,1.94,2.48,2.88,3.75,.95,1.25,1.89,2.52,2.81,3.81,.93,1.27,1.82,2.58,2.72,3.88,.88,1.31,1.76,2.63,2.58,3.98-1.13-1.11-2.22-2.26-3.29-3.42-1.07-1.17-2.13-2.33-3.16-3.52-1.04-1.18-2.07-2.38-3.07-3.59-1.02-1.2-2.01-2.43-3-3.65l1.23,.26c-1.65,.9-3.33,1.74-4.99,2.6-.83,.44-1.68,.84-2.52,1.25-.85,.41-1.68,.84-2.53,1.23-1.7,.8-3.4,1.59-5.12,2.35-1.73,.75-3.45,1.5-5.23,2.16Z"/>
        </g>
        <g>
          <polyline class="cls-1" points="613.43 243.94 633.37 233.48 645.13 248.28"/>
          <path class="cls-8" d="M613.43,243.94c1.55-1.08,3.15-2.08,4.74-3.08,1.6-.99,3.22-1.94,4.85-2.88,.81-.48,1.64-.92,2.45-1.38,.82-.46,1.63-.92,2.46-1.36,1.66-.88,3.3-1.79,4.98-2.63h.02c.42-.22,.93-.1,1.2,.26,.97,1.24,1.94,2.48,2.88,3.75,.95,1.25,1.89,2.52,2.81,3.81,.93,1.27,1.82,2.58,2.72,3.88,.88,1.31,1.76,2.63,2.58,3.98-1.13-1.11-2.22-2.26-3.29-3.42-1.07-1.17-2.13-2.33-3.16-3.52-1.04-1.18-2.07-2.38-3.07-3.59-1.02-1.2-2.01-2.43-3-3.65l1.23,.26c-1.65,.9-3.33,1.74-4.99,2.6-.83,.44-1.68,.84-2.52,1.25-.85,.41-1.68,.84-2.53,1.23-1.7,.8-3.4,1.59-5.12,2.35-1.73,.75-3.45,1.5-5.23,2.16Z"/>
        </g>
        <g>
          <polyline class="cls-1" points="610.43 255.94 630.37 245.48 642.13 260.28"/>
          <path class="cls-8" d="M610.43,255.94c1.55-1.08,3.15-2.08,4.74-3.08,1.6-.99,3.22-1.94,4.85-2.88,.81-.48,1.64-.92,2.45-1.38,.82-.46,1.63-.92,2.46-1.36,1.66-.88,3.3-1.79,4.98-2.63h.02c.42-.22,.93-.1,1.2,.26,.97,1.24,1.94,2.48,2.88,3.75,.95,1.25,1.89,2.52,2.81,3.81,.93,1.27,1.82,2.58,2.72,3.88,.88,1.31,1.76,2.63,2.58,3.98-1.13-1.11-2.22-2.26-3.29-3.42-1.07-1.17-2.13-2.33-3.16-3.52-1.04-1.18-2.07-2.38-3.07-3.59-1.02-1.2-2.01-2.43-3-3.65l1.23,.26c-1.65,.9-3.33,1.74-4.99,2.6-.83,.44-1.68,.84-2.52,1.25-.85,.41-1.68,.84-2.53,1.23-1.7,.8-3.4,1.59-5.12,2.35-1.73,.75-3.45,1.5-5.23,2.16Z"/>
        </g>
        <path class="cls-8" d="M468.05,257.11s1.08-.3,2.96-.53c.94-.1,2.09-.22,3.4-.25,1.31-.05,2.8-.05,4.41-.08,6.47-.11,15.09-.22,23.72-.28,4.31,0,8.62,0,12.67,0,4.04,.03,7.82,.07,11.05,.09,1.62,.02,3.1,.03,4.41,.04,1.31,0,2.46,.04,3.4,.19,1.89,.28,2.96,.82,2.96,.82,0,0-1.08,.53-2.96,.82-.94,.15-2.09,.2-3.4,.19-1.31,.01-2.8,.03-4.41,.04-3.23,.03-7.01,.06-11.05,.09-4.04,0-8.36,0-12.67,0-8.62-.06-17.25-.17-23.72-.28-1.62-.03-3.1-.03-4.41-.08-1.31-.03-2.46-.15-3.4-.25-1.89-.22-2.96-.53-2.96-.53Z"/>
        <path class="cls-8" d="M467.06,182.9s-5.27-7.54-14.25-1.73-7.98,5.51-7.98,5.51c0,0,13.51-8.46,29.57,4.53l-7.34-8.32Z"/>
      </g>
    </g>
  </g>
</svg>