<?xml version="1.0" encoding="UTF-8"?>
<svg id="Layer_1" data-name="Layer 1" xmlns="http://www.w3.org/2000/svg" viewBox="0 0 800 400">
  <defs>
    <style>
      .cls-1 {
        fill: #f8e849;
      }

      .cls-2 {
        fill: #66d0ff;
      }

      .cls-3 {
        fill: #fff;
      }

      .cls-4 {
        fill: #fffae3;
      }

      .cls-5 {
        fill: #ffa5a7;
      }

      .cls-6 {
        fill: #fd8eb0;
      }

      .cls-7 {
        fill: #fbdd33;
      }

      .cls-8 {
        fill: #fda6a8;
      }

      .cls-9 {
        fill: #aae286;
      }

      .cls-10 {
        fill: #4286b8;
      }

      .cls-11 {
        fill: #425d89;
      }

      .cls-12 {
        fill: #85e585;
      }

      .cls-13 {
        fill: #3c7490;
      }

      .cls-14 {
        fill: #2daff6;
      }

      .cls-15 {
        opacity: .5;
      }
    </style>
  </defs>
  <g>
    <g class="cls-15">
      <path class="cls-12" d="M169.72,282.15c0,5.79-4.69,10.48-10.48,10.48s-10.48-4.69-10.48-10.48,4.69-10.48,10.48-10.48,10.48,4.69,10.48,10.48Z"/>
    </g>
    <path class="cls-9" d="M236.67,190.47c2.88-5.76,4.26-12.39,3.64-19.4-1.54-17.26-15.55-31.19-32.81-32.67-4.9-.42-9.61,.15-13.97,1.52,0-.13,.02-.25,.02-.38,0-14.17-12.28-25.48-26.78-23.86-10.78,1.2-19.58,9.79-21.03,20.54-.49,3.66-.16,7.17,.84,10.4,1.47,4.74-.98,9.87-5.75,11.25-16.32,4.71-29.07,18.56-29.07,35.39,0,9.63,3.69,18.38,9.68,25-6.79,6.17-10.85,15.29-10.04,25.36,1.17,14.55,12.71,26.5,27.21,28.13,5.96,.67,11.62-.37,16.56-2.69,4.97-2.33,10.86-1.52,14.95,2.14,9.55,8.54,22.51,13.34,36.58,12.12,23.71-2.06,42.64-21.62,44.01-45.37,.79-13.68-4.11-26.22-12.55-35.47-2.99-3.28-3.46-8.03-1.48-12Z"/>
    <g class="cls-15">
      <path class="cls-12" d="M253.22,194.51c0,3.44-2.79,6.23-6.23,6.23s-6.23-2.79-6.23-6.23,2.79-6.23,6.23-6.23,6.23,2.79,6.23,6.23Z"/>
    </g>
    <g class="cls-15">
      <path class="cls-12" d="M142.85,149.22c0,3.12-2.53,5.65-5.65,5.65s-5.65-2.53-5.65-5.65,2.53-5.65,5.65-5.65,5.65,2.53,5.65,5.65Z"/>
    </g>
    <path class="cls-3" d="M179.08,356.01c-.67-54.51-.67-110.22,0-163.53"/>
    <path class="cls-13" d="M177.58,356.6c.43-.08,.88-.14,1.36-.14,.58,0,1.13,.06,1.64,.17,.13-18.21,.31-41.71,.48-65.25,0-12.36,.01-24.73,.02-36.32-.06-11.59-.11-22.41-.16-31.68-.03-4.64-.05-8.89-.07-12.65,0-3.77-.08-7.05-.34-9.76-.49-5.41-1.42-8.5-1.42-8.5,0,0-.93,3.09-1.42,8.5-.26,2.7-.34,5.99-.34,9.76-.02,3.77-.05,8.02-.07,12.65-.05,9.27-.1,20.09-.16,31.68,0,11.59,.01,23.95,.02,36.32,.17,23.52,.34,47.02,.48,65.22Z"/>
    <g>
      <line class="cls-3" x1="179.39" y1="253.11" x2="213.27" y2="214.57"/>
      <path class="cls-13" d="M179.01,252.78l34.26-38.21-33.5,38.87c-.43,.49-1.19-.16-.75-.66h0Z"/>
    </g>
    <g>
      <line class="cls-3" x1="155.87" y1="188.77" x2="178.57" y2="210.48"/>
      <path class="cls-13" d="M155.87,188.77l23.05,21.35c.48,.43-.21,1.18-.68,.73,0,0-22.36-22.08-22.37-22.08h0Z"/>
    </g>
    <g>
      <line class="cls-3" x1="179.39" y1="194.05" x2="196.66" y2="174.84"/>
      <path class="cls-13" d="M179.01,193.72l17.65-18.88-16.91,19.55c-.44,.5-1.2-.18-.74-.67h0Z"/>
    </g>
  </g>
  <g class="cls-15">
    <path class="cls-12" d="M721.69,357.22s.07-.83,.07-1.29c0-14.93-12.11-27.01-27.04-27.01-2.83,0-5.56,.44-8.12,1.26-3.78,1.2-7.96-.26-10.07-3.62-6.52-10.35-18.02-17.22-31.15-17.22-10.31,0-19.62,4.25-26.3,11.09-3.06,3.14-7.98,3.36-11.54,.81-5.59-4.01-12.44-6.38-19.85-6.38-4.67,0-9.12,.95-13.16,2.66-4.25,1.79-9.23,.3-11.43-3.75-8.31-15.29-24.51-25.67-43.14-25.67-27.1,0-49.08,21.91-49.08,49.01,0,7.2,1.56,14.9,4.34,20.12h246.46Z"/>
  </g>
  <g class="cls-15">
    <path class="cls-12" d="M383.5,357.22c2.7-6.73,4.25-12.42,4.35-19.02,.32-21.39-14.41-40.51-35.39-44.72-20.51-4.12-39.23,5.65-48.33,21.68-2.19,3.86-6.82,5.75-10.91,4.04-3.67-1.54-7.69-2.4-11.91-2.4-6.71,0-12.92,2.11-18,5.72-3.35,2.38-7.96,1.95-10.87-.95-6.08-6.08-14.47-9.84-23.75-9.84-11.81,0-22.2,6.09-28.19,15.3-2.13,3.27-6.11,4.69-9.85,3.58-4.45-1.31-9.42-1.4-14.53,.13-10.08,3.02-16.82,12.57-17.08,23.09-.04,1.68,.02,1.14,.09,3.4h224.37Z"/>
  </g>
  <g>
    <rect class="cls-3" x="290.34" y="122.75" width="5.68" height="5.81"/>
    <path class="cls-13" d="M296.02,128.56l-2.65,.46c-.88,.04-2.14,.03-3.03,.04-.28,0-.5-.22-.5-.5,0,0,0-5.81,0-5.81,0-.28,.22-.5,.5-.5h5.68c.28,0,.5,.22,.5,.5,0,0-.04,3.1-.04,3.1l-.46,2.71h0Zm0,0c-.3-2.06-.59-3.79-.5-5.81,0,0,.5,.5,.5,.5h-5.68l.5-.5v5.81l-.5-.5c1.96-.08,3.68,.19,5.68,.5h0Z"/>
  </g>
  <g>
    <rect class="cls-3" x="563.43" y="122.75" width="5.68" height="5.81"/>
    <path class="cls-13" d="M569.11,128.56l-2.65,.46c-.88,.04-2.14,.03-3.03,.04-.28,0-.5-.22-.5-.5,0,0,0-5.81,0-5.81,0-.28,.22-.5,.5-.5h5.68c.28,0,.5,.22,.5,.5,0,0-.04,3.1-.04,3.1l-.46,2.71h0Zm0,0c-.3-2.06-.59-3.79-.5-5.81,0,0,.5,.5,.5,.5h-5.68l.5-.5v5.81s-.5-.5-.5-.5c1.96-.08,3.68,.19,5.68,.5h0Z"/>
  </g>
  <g>
    <rect class="cls-3" x="247.82" y="151.71" width="325.18" height="204.11"/>
    <path class="cls-13" d="M573,355.81c-92.46,.56-231.55,.45-325.18,.5-1.46,.53,0-204.1-.5-204.61-.54-1.46,325.18,0,325.68-.5,0,0,.5,0,.5,0v.5c.29,58.13-.44,145.28-.5,204.11h0Zm0,0c-.61-35.9-.12-118.47-.49-153.17,0,0,0-50.93,0-50.93,0,0,.5,.5,.5,.5,.09-.16-327.27,.7-324.68-.5,0,0,0,204.1,0,204.1,0,0-.5-.5-.5-.5,94.18-.21,232.14,.2,325.18,.5h0Z"/>
  </g>
  <g>
    <rect class="cls-3" x="470.86" y="208.38" width="91.36" height="147.62"/>
    <path class="cls-13" d="M562.22,208.38c-16.05,.32-53.11,.33-68.61,.49,0,0-22.75,0-22.75,0,0,0,.5-.5,.5-.5-.17-.16,.69,149.78-.5,147.12,0,0,91.36,0,91.36,0,0,0-.5,.5-.5,.5-.12-42.78,.13-105.34,.5-147.62h0Zm0,0c.48,41.93,.5,105.14,.5,147.62,0,0,0,.5,0,.5-.17,.37-91.56-.26-91.86,0,0,0-.5,0-.5,0V207.88h.5c26.05-.19,65.01,.36,91.36,.5h0Z"/>
  </g>
  <g>
    <rect class="cls-3" x="476.29" y="213.81" width="80.51" height="136.77"/>
    <path class="cls-13" d="M556.8,213.81c-14.14,.31-46.81,.31-60.48,.5,0,0-20.03,0-20.03,0,0,0,.5-.5,.5-.5-.2-.18,.71,138.95-.5,136.27,0,0,80.51,0,80.51,0,0,0-.5,.5-.5,.5-.11-39.64,.12-97.59,.5-136.77h0Zm0,0c.49,38.84,.5,97.41,.5,136.77,0,0,0,.5,0,.5-.28,.32-80.64-.23-81.01,0,0,0-.5,0-.5,0,0,0,0-.5,0-.5V213.31h.5c22.96-.18,57.28,.38,80.51,.5h0Z"/>
  </g>
  <g>
    <path class="cls-7" d="M488.02,294.63v-19.18c.89-.63,1.48-1.66,1.48-2.84,0-1.92-1.55-3.47-3.47-3.47s-3.47,1.55-3.47,3.47c0,1.18,.59,2.21,1.48,2.84v19.18c-.89,.63-1.48,1.66-1.48,2.84,0,1.92,1.55,3.47,3.47,3.47s3.47-1.55,3.47-3.47c0-1.18-.59-2.21-1.48-2.84Z"/>
    <path class="cls-13" d="M488.02,294.63c-.15-2.82-.38-6.67-.5-9.47,0,0,0-9.71,0-9.71,0,0,0-.26,0-.26l.21-.15c2.37-1.61,1.16-5.43-1.7-5.4-1.26-.02-2.46,.87-2.83,2.08-.43,1.3,.17,2.79,1.35,3.47,0,0,0,.26,0,.26v19.45c-1.82,1-1.99,3.79-.27,4.97,3.5,2.34,7.01-2.52,3.74-5.23h0Zm0,0c3.08,1.88,1.6,6.68-1.99,6.79-3.82,.12-5.43-5.08-2.27-7.2,0,0-.21,.41-.21,.41v-19.18l.21,.41c-1.4-.94-2.05-2.84-1.51-4.44,1.15-3.66,6.42-3.67,7.57,0,.53,1.6-.12,3.5-1.51,4.44l.21-.41v9.47c-.11,2.78-.36,6.88-.5,9.71h0Z"/>
  </g>
  <g>
    <rect class="cls-3" x="247.41" y="140.53" width="325.99" height="5.98"/>
    <path class="cls-13" d="M573.41,140.53c-89.95,.14-236.92,1.41-325.49,0,0,0,0,5.98,0,5.98,88.98-1.4,235.16-.27,325.49-.04,0,0-.04,.04-.04,.04,0,0,.04-5.98,.04-5.98h0Zm0,0s.04,5.98,.04,5.98v.04s-.04,0-.04,0c-91.2,.75-234.25,.39-326.49,.46,0,0,0-.5,0-.5,0,0,0-5.98,0-5.98,0,0,0-.5,0-.5,92.6,.07,234.95-.16,326.49,.5h0Z"/>
  </g>
  <g>
    <rect class="cls-3" x="247.41" y="128.56" width="325.99" height="5.98"/>
    <path class="cls-13" d="M573.41,128.56c-89.95,.14-236.92,1.41-325.49,0,0,0,0,5.98,0,5.98,88.98-1.4,235.16-.27,325.49-.04-.06,.2,0-5.98,0-5.95h0Zm0,0s.04,5.98,.04,5.98c0,0,0,.04,0,.04h-.04c-91.2,.75-234.25,.39-326.49,.46,0,0,0-.5,0-.5,0,0,0-5.98,0-5.98v-.5c92.6,.07,234.95-.16,326.49,.5h0Z"/>
  </g>
  <g>
    <path class="cls-3" d="M277.28,172.24c0,10.5,8.52,19.02,19.02,19.02h0c10.5,0,19.02-8.52,19.02-19.02v-11.86h-38.04v11.86Z"/>
    <path class="cls-13" d="M277.28,172.24c-.03,6,3.41,11.51,8.13,14.96,11.49,8.52,28.26,.81,29.33-13.44,.17-2.95,.04-10.31,.08-13.38,0,0,.5,.5,.5,.5-8.79,.03-24.64-.03-33.28,0-1.59,.02-3.17-.08-4.75-.13l.38-.38c-.17,3.95-.39,7.91-.38,11.86h0Zm0,0c0-4.08-.22-8.15-.39-12.23,0,0,.39-.01,.39-.01,2.72-.17,6.74-.13,9.51-.12,6.35,0,22.49,0,29.03,0,0,0,0,.5,0,.5v8.95c.4,6.07-1.26,12.43-5.76,16.75-6.52,6.65-17.8,7.58-25.24,1.92-5.04-3.53-7.52-9.78-7.54-15.76h0Z"/>
  </g>
  <g>
    <path class="cls-3" d="M353.35,172.24c0,10.5,8.52,19.02,19.02,19.02h0c10.5,0,19.02-8.52,19.02-19.02v-11.86h-38.04v11.86Z"/>
    <path class="cls-13" d="M353.35,172.24c-.03,6,3.41,11.51,8.13,14.96,11.49,8.52,28.26,.81,29.33-13.44,.17-2.95,.04-10.31,.08-13.38,0,0,.5,.5,.5,.5-8.79,.03-24.64-.03-33.28,0-1.59,.02-3.17-.08-4.75-.13,0,0,.38-.38,.38-.38-.17,3.95-.39,7.91-.38,11.86h0Zm0,0c0-4.08-.22-8.15-.39-12.23,0,0,.39-.01,.39-.01,2.72-.17,6.74-.13,9.51-.12,6.35,0,22.49,0,29.03,0,0,0,0,.5,0,.5v8.95c.41,6.07-1.26,12.43-5.76,16.75-6.52,6.65-17.8,7.58-25.24,1.92-5.04-3.53-7.52-9.78-7.54-15.76h0Z"/>
  </g>
  <g>
    <path class="cls-3" d="M429.43,172.24c0,10.5,8.52,19.02,19.02,19.02h0c10.5,0,19.02-8.52,19.02-19.02v-11.86h-38.04v11.86Z"/>
    <path class="cls-13" d="M429.43,172.24c-.03,6,3.41,11.51,8.13,14.96,11.49,8.52,28.26,.81,29.33-13.44,.17-2.95,.04-10.31,.08-13.38,0,0,.5,.5,.5,.5-8.79,.03-24.64-.03-33.28,0-1.59,.02-3.17-.08-4.75-.13l.38-.38c-.17,3.95-.39,7.91-.38,11.86h0Zm0,0c0-4.08-.22-8.15-.39-12.23,0,0,.39-.01,.39-.01,2.72-.17,6.74-.13,9.51-.12,6.35,0,22.49,0,29.03,0,0,0,0,.5,0,.5v8.95c.41,6.07-1.26,12.43-5.76,16.75-6.52,6.65-17.8,7.58-25.24,1.92-5.04-3.53-7.52-9.78-7.54-15.76h0Z"/>
  </g>
  <g>
    <path class="cls-3" d="M505.51,160.38v11.86c0,10.5,8.52,19.02,19.02,19.02h0c10.5,0,19.02-8.52,19.02-19.02v-11.86h-38.04Z"/>
    <path class="cls-13" d="M505.51,160.38c.22,3.61,.12,12.09,.87,15.53,1.6,8.46,9.54,14.95,18.15,14.86,8.61,.09,16.54-6.4,18.15-14.86,.68-3.39,.26-11.97,.37-15.53,0,0,.5,.5,.5,.5-11.05,.07-27.1-.09-38.04-.5h0Zm0,0c10.97-.48,27.41-.52,38.54-.5-.12,4.01,.34,12.34-.39,16.22-4.01,18.7-29.33,21.31-37.08,3.83-1.27-2.87-1.65-6.04-1.43-9.15,0,0,.35-10.4,.35-10.4h0Z"/>
  </g>
  <g>
    <polygon class="cls-3" points="277.28 160.38 315.31 160.38 319.86 146.52 283.64 146.52 277.28 160.38"/>
    <path class="cls-13" d="M277.28,160.38c10.85-.44,27.06-.5,38.04-.5,0,0-.47,.34-.47,.34l4.54-13.86s.48,.66,.48,.66h-36.22l.45-.29c-2.11,4.59-4.61,9-6.81,13.65h0Zm0,0c2.07-4.69,3.84-9.64,6.05-14.36,.43-.06,36.12,.04,36.54,0,0,0,.69,0,.69,0l-.21,.66-4.54,13.86s-.11,.35-.11,.35c0,0-.36,0-.36,0-10.93,0-27.26-.04-38.04-.5h0Z"/>
  </g>
  <g>
    <polygon class="cls-3" points="353.35 160.38 391.39 160.38 392.3 146.52 356.08 146.52 353.35 160.38"/>
    <path class="cls-13" d="M353.35,160.38c10.9-.48,27.03-.5,38.04-.5,0,0-.5,.47-.5,.47l.91-13.86,.5,.53h-36.22s.5-.4,.5-.4c-.44,2.24-1.05,4.47-1.58,6.76l-1.64,7h0Zm0,0c.74-4.17,1.45-9.83,2.23-13.96,0,0,.08-.41,.08-.41h.42s36.22,0,36.22,0h.53l-.04,.53-.91,13.86-.03,.47s-.47,0-.47,0c-10.96-.02-27.25,.03-38.04-.5h0Z"/>
  </g>
  <g>
    <polygon class="cls-3" points="428.52 146.52 429.43 160.38 467.47 160.38 464.74 146.52 428.52 146.52"/>
    <path class="cls-13" d="M428.52,146.52c.42,4.02,1.06,9.89,1.42,13.83,0,0-.51-.48-.51-.48h38.04s-.49,.61-.49,.61l-2.73-13.86,.49,.4-17.91-.04c-5.19,.04-13.05-.31-18.31-.46h0Zm0,0c10.41-.51,26.09-.5,36.63-.5,0,0,.08,.4,.08,.4,0,0,2.73,13.86,2.73,13.86l.12,.6h-38.65s-.48,.01-.48,.01l-.03-.48c-.23-4.1-.23-9.76-.4-13.89h0Z"/>
  </g>
  <g>
    <polygon class="cls-3" points="537.18 146.52 500.96 146.52 505.51 160.38 543.55 160.38 537.18 146.52"/>
    <path class="cls-13" d="M537.19,146.52c-5.27,.18-13.05,.55-18.25,.48,0,0-17.97,.02-17.97,.02,0,0,.48-.66,.48-.66l4.54,13.86s-.48-.34-.48-.34h38.04s-.45,.71-.45,.71c-1.79-3.94-4.19-9.99-5.91-14.07h0Zm0,0c1.97,4.07,4.98,9.55,6.81,13.65,0,0,.31,.71,.31,.71h-39.16l-.11-.34-4.54-13.86s-.22-.66-.22-.66c0,0,.69,0,.69,0,0,0,18.25,.02,18.25,.02,5.15-.09,12.77,.31,17.97,.48h0Z"/>
  </g>
  <g>
    <path class="cls-14" d="M239.24,172.24c0,10.5,8.52,19.02,19.02,19.02h0c10.5,0,19.02-8.52,19.02-19.02v-11.86h-38.04v11.86Z"/>
    <path class="cls-13" d="M239.24,172.24c-.03,6,3.41,11.51,8.13,14.96,11.49,8.52,28.26,.81,29.33-13.44,.17-2.95,.04-10.31,.08-13.38,0,0,.5,.5,.5,.5-8.79,.03-24.64-.03-33.28,0-1.59,.02-3.17-.08-4.75-.13l.38-.38c-.17,3.95-.39,7.91-.38,11.86h0Zm0,0c0-4.08-.22-8.15-.39-12.23,0,0,.39-.01,.39-.01,2.72-.17,6.74-.13,9.51-.12,6.35,0,22.49,0,29.03,0,0,0,0,.5,0,.5v8.95c.4,6.07-1.26,12.43-5.76,16.75-6.52,6.65-17.8,7.58-25.24,1.92-5.04-3.53-7.52-9.78-7.54-15.76h0Z"/>
  </g>
  <g>
    <path class="cls-14" d="M315.31,172.24c0,10.5,8.52,19.02,19.02,19.02h0c10.5,0,19.02-8.52,19.02-19.02v-11.86h-38.04v11.86Z"/>
    <path class="cls-13" d="M315.31,172.24c-.03,6,3.41,11.51,8.13,14.96,11.49,8.52,28.26,.81,29.33-13.44,.17-2.95,.04-10.31,.08-13.38,0,0,.5,.5,.5,.5-8.79,.03-24.64-.03-33.28,0-1.59,.02-3.17-.08-4.75-.13,0,0,.38-.38,.38-.38-.17,3.95-.39,7.91-.38,11.86h0Zm0,0c0-4.08-.22-8.15-.39-12.23,0,0,.39-.01,.39-.01,2.72-.17,6.74-.13,9.51-.12,6.35,0,22.49,0,29.03,0,0,0,0,.5,0,.5v8.95c.41,6.07-1.26,12.43-5.76,16.75-6.52,6.65-17.8,7.58-25.24,1.92-5.04-3.53-7.52-9.78-7.54-15.76h0Z"/>
  </g>
  <g>
    <path class="cls-14" d="M391.39,172.24c0,10.5,8.52,19.02,19.02,19.02s19.02-8.52,19.02-19.02v-11.86h-38.04v11.86Z"/>
    <path class="cls-13" d="M391.39,172.24c-.03,6,3.41,11.51,8.13,14.96,11.49,8.52,28.26,.81,29.33-13.44,.17-2.95,.04-10.31,.08-13.38,0,0,.5,.5,.5,.5-8.79,.03-24.64-.03-33.28,0-1.59,.02-3.17-.08-4.75-.13l.38-.38c-.17,3.95-.39,7.91-.38,11.86h0Zm0,0c0-4.08-.22-8.15-.39-12.23,0,0,.39-.01,.39-.01,2.72-.17,6.74-.13,9.51-.12,6.35,0,22.49,0,29.03,0,0,0,0,.5,0,.5v8.95c.41,6.07-1.26,12.43-5.76,16.75-6.52,6.65-17.8,7.58-25.24,1.92-5.04-3.53-7.52-9.78-7.54-15.76h0Z"/>
  </g>
  <g>
    <path class="cls-14" d="M467.47,172.24c0,10.5,8.52,19.02,19.02,19.02h0c10.5,0,19.02-8.52,19.02-19.02v-11.86h-38.04v11.86Z"/>
    <path class="cls-13" d="M467.47,172.24c-.03,6,3.41,11.51,8.13,14.96,11.49,8.52,28.26,.81,29.33-13.44,.17-2.95,.04-10.31,.08-13.38,0,0,.5,.5,.5,.5-8.79,.03-24.64-.03-33.28,0-1.59,.02-3.17-.08-4.75-.13,0,0,.38-.38,.38-.38-.17,3.95-.39,7.91-.38,11.86h0Zm0,0c0-4.08-.22-8.15-.39-12.23,0,0,.39-.01,.39-.01,2.72-.17,6.74-.13,9.51-.12,6.35,0,22.49,0,29.03,0,0,0,0,.5,0,.5v8.95c.41,6.07-1.26,12.43-5.76,16.75-6.52,6.65-17.8,7.58-25.24,1.92-5.04-3.53-7.52-9.78-7.54-15.76h0Z"/>
  </g>
  <g>
    <path class="cls-14" d="M543.55,160.38v11.86c0,10.5,8.52,19.02,19.02,19.02h0c10.5,0,19.02-8.52,19.02-19.02v-11.86h-38.04Z"/>
    <path class="cls-13" d="M543.55,160.38c.22,3.61,.12,12.09,.87,15.53,1.6,8.46,9.54,14.95,18.15,14.86,8.61,.09,16.54-6.4,18.15-14.86,.68-3.39,.26-11.97,.37-15.53,0,0,.5,.5,.5,.5-11.05,.07-27.1-.09-38.04-.5h0Zm0,0c10.97-.48,27.41-.52,38.54-.5-.12,4.01,.34,12.34-.39,16.22-4.01,18.7-29.33,21.31-37.08,3.83-1.27-2.87-1.65-6.04-1.43-9.15,0,0,.35-10.4,.35-10.4h0Z"/>
  </g>
  <g>
    <polygon class="cls-2" points="239.24 160.38 277.28 160.38 283.64 146.52 247.41 146.52 239.24 160.38"/>
    <path class="cls-13" d="M239.24,160.38c10.86-.41,27.05-.51,38.04-.5,0,0-.45,.29-.45,.29l6.36-13.86,.45,.71h-36.22l.43-.25c-2.68,4.59-5.83,9.01-8.61,13.6h0Zm0,0c2.62-4.58,5.14-9.79,7.89-14.36,.37-.06,36.15,.04,36.51,0,0,0,.78,0,.78,0,0,0-.33,.71-.33,.71l-6.36,13.86-.13,.29s-.32,0-.32,0c-10.93,0-27.26-.06-38.04-.5h0Z"/>
  </g>
  <g>
    <polygon class="cls-2" points="315.31 160.38 353.35 160.38 356.08 146.52 319.86 146.52 315.31 160.38"/>
    <path class="cls-13" d="M315.31,160.38c10.91-.46,27.03-.51,38.04-.5,0,0-.49,.4-.49,.4,0,0,2.73-13.86,2.73-13.86l.49,.6h-36.22s.48-.34,.48-.34c-1.54,4.57-3.43,9.1-5.02,13.7h0Zm0,0c1.26-4.08,2.75-10.02,4.06-14.02,0,0,.12-.35,.12-.35,0,0,.36,0,.36,0h36.22s.61,0,.61,0l-.12,.6-2.73,13.86s-.08,.4-.08,.4h-.41c-10.96-.02-27.26,0-38.04-.5h0Z"/>
  </g>
  <g>
    <polygon class="cls-2" points="392.3 146.52 391.39 160.38 429.43 160.38 428.52 146.52 392.3 146.52"/>
    <path class="cls-13" d="M392.3,146.52s-.19,7.05-.19,7.05c-.07,2.31-.07,4.59-.21,6.84l-.51-.54s38.04,.01,38.04,.01l-.5,.53-.91-13.86,.5,.47s-17.93-.04-17.93-.04c-5.19,.05-13.04-.31-18.29-.46h0Zm0,0c5.22-.15,12.76-.53,17.93-.46,0,0,18.29-.04,18.29-.04,0,0,.47,0,.47,0l.03,.47,.91,13.86s.03,.53,.03,.53h-.53s-38.04,.01-38.04,.01h-.55s.04-.54,.04-.54c.3-4.09,1.04-9.72,1.42-13.83h0Z"/>
  </g>
  <g>
    <polygon class="cls-2" points="464.74 146.52 467.47 160.38 505.51 160.38 500.96 146.52 464.74 146.52"/>
    <path class="cls-13" d="M464.74,146.52c.94,4.01,2.36,9.84,3.23,13.76,0,0-.5-.41-.5-.41h38.04s-.47,.67-.47,.67l-4.54-13.86,.47,.34c-10.5,.02-25.85-.04-36.22-.5h0Zm0,0c10.22-.48,25.86-.51,36.22-.5,0,0,.36,0,.36,0l.11,.35s4.54,13.86,4.54,13.86c0,0,.21,.66,.21,.66,0,0-.69,0-.69,0,0,0-38.04,0-38.04,0h-.42l-.08-.41c-.78-4.11-1.51-9.81-2.23-13.96h0Z"/>
  </g>
  <g>
    <polygon class="cls-2" points="573.41 146.52 537.18 146.52 543.55 160.38 581.58 160.38 573.41 146.52"/>
    <path class="cls-13" d="M573.41,146.52c-5.27,.18-13.04,.55-18.24,.48,0,0-17.98,.02-17.98,.02,0,0,.45-.71,.45-.71l6.36,13.86-.45-.29h38.04l-.43,.75c-2.32-3.89-5.54-10.08-7.75-14.11h0Zm0,0c1.43,2.23,5.11,7.95,6.5,10.11,.91,1.36,1.71,2.84,2.56,4.25,0,0-.88,0-.88,0h-38.04s-.32,0-.32,0l-.13-.29-6.36-13.86-.33-.71s.78,0,.78,0c10.44-.01,25.92-.07,36.22,.5h0Z"/>
  </g>
  <g>
    <rect class="cls-3" x="273.44" y="213.38" width="154.76" height="93.88"/>
    <path class="cls-13" d="M273.44,307.26c44.12-.38,110.13-.58,154.76-.5,0,0-.5,.5-.5,.5v-93.88c3.12,1.31-154.94,.1-154.26,.5,0,0,.5-.5,.5-.5,0,0,0,23.38,0,23.38-.02,15.73-.41,54.25-.49,70.51h0Zm0,0c-.06-27.2-.69-67-.5-93.88,0,0,0-.5,0-.5,0,0,.5,0,.5,0h155.26v.5c-.11,.53,.08,93.92,0,94.38,0,0-.5,0-.5,0-44.75-.05-110.6,0-154.76-.5h0Z"/>
  </g>
  <g>
    <rect class="cls-4" x="278.87" y="218.81" width="143.91" height="83.03"/>
    <path class="cls-13" d="M278.87,301.84c20.49-.18,51.91-.42,72.15-.46,0,0,71.76-.04,71.76-.04,0,0-.5,.5-.5,.5v-83.03c3.11,1.32-144.08,.1-143.41,.5,0,0,.5-.5,.5-.5v20.66c-.06,13.9-.41,47.99-.5,62.37h0Zm0,0c-.05-24.06-.68-59.26-.5-83.03,0,0,0-.5,0-.5,0,0,.5,0,.5,0h143.91s.5,0,.5,0v83.53s0,.5,0,.5c0,0-.5,0-.5,0-41.41-.04-103.02,0-143.91-.5h0Z"/>
  </g>
  <g>
    <path class="cls-14" d="M427.43,324.93h-153.21c-4.88,0-8.83-3.95-8.83-8.83h0c0-4.88,3.95-8.83,8.83-8.83h153.21c4.88,0,8.83,3.95,8.83,8.83h0c0,4.88-3.95,8.83-8.83,8.83Z"/>
    <path class="cls-13" d="M427.43,324.93c-41.76,.55-93.72,.57-135.72,.5,0,0-11.31,0-11.31,0h-5.65c-3.96,.24-7.99-2.33-9.29-6.13-2.3-5.88,2.44-12.66,8.76-12.53,30.03,0,106.69,0,135.72,0,0,0,11.31,.16,11.31,.16l5.65,.08c1.91-.06,3.88,.48,5.47,1.56,7.23,4.89,3.86,16.35-4.94,16.37h0Zm0,0c8.62-.06,12.06-11.33,4.74-16.06-1.57-.99-3.41-1.45-5.27-1.34,0,0-5.65,.08-5.65,.08,0,0-11.31,.16-11.31,.16-28.69,0-106.04,0-135.72,0-5.58-.15-9.91,5.98-7.82,11.19,1.21,3.43,4.71,5.69,8.35,5.48,0,0,5.65,0,5.65,0h11.31c42.08-.07,93.88-.04,135.72,.5h0Z"/>
  </g>
  <g>
    <path class="cls-3" d="M248.73,86.23h323.35c5.68,0,10.29,4.61,10.29,10.29v39.11c0,5.68-4.61,10.29-10.29,10.29H248.73c-5.68,0-10.29-4.61-10.29-10.29v-39.11c0-5.68,4.61-10.29,10.29-10.29Z"/>
    <path class="cls-13" d="M572.09,86.23c-99.76,.63-220.78,.52-320.75,.5-2.08,.03-4.1-.15-5.93,.59-3.72,1.28-6.41,5.01-6.45,8.95,0,0-.01,6.16-.01,6.16-.1,4.56,.07,26.77,0,30.84-.65,6.37,3.05,11.99,9.79,12.14,79.21,.1,243.26-.22,320.75,.16,2.06-.01,4.12,.18,5.99-.56,3.82-1.29,6.59-5.09,6.66-9.13,.08-3.91,.11-26.41,.14-30.84,0-2.14,.07-7.17,0-9.25-.25-5.23-4.96-9.62-10.19-9.56h0Zm0,0c5.24-.09,10.03,4.29,10.31,9.55,.11,2.04,.03,7.13,.07,9.26,0,0,.09,24.67,.09,24.67,0,0,.03,6.17,.03,6.17,0,5.37-4.62,10.17-10,10.33-78.42,.49-243.75,.07-323.85,.2-7.1-.08-11.56-6.24-10.79-13.14-.04-3.93,.03-26.41,0-30.84,0,0,.01-6.18,.01-6.18,.33-7.32,6.44-11.23,13.38-10.52,100.03,0,220.92-.14,320.75,.5h0Z"/>
  </g>
  <g>
    <path class="cls-7" d="M297.4,296.92c.47-.23,1.36-.06,2.09,.36,.09,1.2,.27,2.62,.61,4.03-1.43-.72-2.88-1.64-3.08-3.16-.09-.64,.04-1.06,.38-1.23Zm-1.3,1.35c.3,2.27,2.59,3.41,4.33,4.23,.01,.04,.03,.09,.04,.13,.84,2.64,2.3,3.78,2.36,3.83l.03,.02h4.27l.02-.02c.06-.05,1.52-1.19,2.36-3.83,1.27-3.98,1.06-8.57,1.05-8.62v-.09s-11.15,0-11.15,0v.09s-.04,.9,.01,2.21c-.84-.35-1.76-.46-2.44-.13-.41,.2-1.08,.76-.89,2.18Z"/>
    <g>
      <path class="cls-13" d="M297.4,296.92c.47-.18,1.21-.53,1.79-.35,.26,.13,.54,.26,.78,.41,.1,1.42,.29,2.84,.62,4.21,0,0,.25,1.05,.25,1.05-1.25-.66-2.55-1.18-3.54-2.33-.36-.43-.66-.97-.74-1.56,.04-.58,.41-1.23,.84-1.43h0Zm0,0c-.24,.11-.3,.41-.21,.63,.34,.58,.43,1.19,.88,1.73,.56,.66,1.4,1.15,2.26,1.59l-.71,.56c-.32-1.36-.51-2.73-.62-4.11l.25,.4c-.14-.07-.28-.16-.43-.19-.42-.23-.86-.86-1.41-.6h0Z"/>
      <path class="cls-13" d="M296.1,298.26c.32,2.38,2.92,3.01,4.76,3.87,.39,1.47,1.15,2.94,2.3,3.94,0,0-.3-.1-.3-.1h4.27l-.3,.1c1.58-1.35,2.31-3.56,2.72-5.59,.42-2.13,.59-4.37,.52-6.53,0,0,.5,.47,.5,.47h-11.14s.5-.48,.5-.48c0,.76,.03,1.5-.07,2.25,0,0-.05,.68-.05,.68-1.7-1.06-3.93-1.28-3.7,1.39h0Zm0,0c-.43-2.22,1.63-3.12,3.49-2.44,0,0-.58,.4-.58,.4-.13-.86-.1-1.94-.09-2.81,.31,0,11.8,0,12.12,0,.02,4.62-.03,10.21-3.74,13.55,0,0-.18,0-.18,0h-4.44c-.41-.31-.74-.66-1.04-1.03-.78-.97-1.32-2.12-1.71-3.3,0,0,.27,.31,.27,.31-1.85-.93-3.82-2.52-4.11-4.69h0Z"/>
    </g>
  </g>
  <path class="cls-7" d="M277.28,172.24c0,10.5,8.52,19.02,19.02,19.02h0c10.5,0,19.02-8.52,19.02-19.02v-11.86h-38.04v11.86Z"/>
  <path class="cls-7" d="M353.35,172.24c0,10.5,8.52,19.02,19.02,19.02h0c10.5,0,19.02-8.52,19.02-19.02v-11.86h-38.04v11.86Z"/>
  <path class="cls-7" d="M429.43,172.24c0,10.5,8.52,19.02,19.02,19.02h0c10.5,0,19.02-8.52,19.02-19.02v-11.86h-38.04v11.86Z"/>
  <path class="cls-7" d="M505.51,160.38v11.86c0,10.5,8.52,19.02,19.02,19.02h0c10.5,0,19.02-8.52,19.02-19.02v-11.86h-38.04Z"/>
  <path class="cls-7" d="M277.28,160.38c9.17,0,22.45,2.64,31.09,0,9.44-2.89,7.68-2.23,11.49-13.86-8.89,0-21.16-2.37-29.61,0-9.24,2.6-8.13,3.31-12.97,13.86Z"/>
  <path class="cls-7" d="M353.35,160.38c8.63,0,20.69,2.36,28.85,0,11.24-3.24,9.11,1.18,10.1-13.86-8.27,0-19.62-2.19-27.47,0-11,3.07-8.67-.4-11.48,13.86Z"/>
  <path class="cls-7" d="M428.52,146.52c.99,15.04-1.14,10.61,10.1,13.86,8.16,2.36,20.22,0,28.85,0-2.8-14.25-.47-10.79-11.48-13.86-7.85-2.19-19.21,0-27.47,0Z"/>
  <path class="cls-7" d="M537.18,146.52h-36.22c3.81,11.63,2.05,10.97,11.49,13.86,8.64,2.64,21.92,0,31.09,0-2.12-4.62-4.24-9.24-6.36-13.86Z"/>
  <path class="cls-13" d="M735.9,355.9c-222.14,.86-471.34,.86-693.48,0,222.14-.86,471.34-.86,693.48,0h0Z"/>
  <path class="cls-13" d="M262.28,107.37c20.69-.84,52.13-.4,73.13-.5,20.68,.08,52.68-.3,73.12,.5-20.36,.8-52.51,.42-73.12,.5-21.08-.1-52.32,.34-73.12-.5h0Z"/>
  <path class="cls-13" d="M262.28,123.04c16.53-.84,41.64-.4,58.42-.5,16.52,.08,42.09-.3,58.42,.5-16.26,.8-41.95,.42-58.42,.5-16.84-.1-41.8,.34-58.42-.5h0Z"/>
  <g>
    <path class="cls-13" d="M96.13,332.86c.36,21.76-24.76,31.68-40.05,16.9-9.26-8.94-9.26-24.86,0-33.8,15.32-14.78,40.36-4.88,40.05,16.9h0Zm0,0c.05-6.05-2.95-11.83-7.31-15.84-8.38-8.68-23.3-8.68-31.68,0-8.68,8.38-8.68,23.3,0,31.68,8.37,8.68,23.31,8.69,31.67,0,4.35-4.02,7.37-9.78,7.31-15.84h0Z"/>
    <path class="cls-13" d="M182.26,332.86c.36,21.76-24.76,31.68-40.05,16.9-9.26-8.94-9.26-24.86,0-33.8,15.31-14.79,40.38-4.86,40.05,16.9h0Zm0,0c.05-6.05-2.95-11.83-7.31-15.84-8.38-8.68-23.3-8.68-31.68,0-8.68,8.38-8.68,23.3,0,31.68,8.37,8.68,23.31,8.69,31.67,0,4.35-4.02,7.37-9.78,7.31-15.84h0Z"/>
    <path class="cls-13" d="M139.43,294.86c-8.05,13.02-16.59,26.55-25.14,39.25-.14,.22-.38,.33-.62,.34h-40.53c-.58,.01-.96-.68-.63-1.16,0,0,20.55-31.58,20.55-31.58,.12-.18,.31-.3,.51-.33,5.8-.91,17.49-2.72,23.3-3.58,6.71-.89,15.83-1.97,22.56-2.93h0Zm0,0c-6.8,1.22-16.57,3.05-23.19,4.32-5.59,.95-16.85,2.78-22.44,3.67,0,0,.51-.33,.51-.33l-20.55,31.58-.63-1.16h40.53l-.62,.34c8.53-13.07,17.38-25.61,26.39-38.43h0Z"/>
    <path class="cls-13" d="M161.57,335.43c-2.65-3.8-5.01-7.77-7.28-11.78-2.27-4.02-4.04-8.31-6.38-12.29-4.74-7.93-9.75-15.72-13.94-23.97-.18-.34-.02-.77,.34-.91,3.72-1.57,7.47-3.08,11.28-4.45,.08-.03,.14,.1,.06,.14-3.53,1.97-7.14,3.78-10.77,5.55,0,0,.31-.96,.31-.96,4.83,7.87,8.85,16.2,13.13,24.37,2.17,4.07,4.91,7.83,7.14,11.86,2.24,4.03,4.38,8.12,6.24,12.37,.04,.08-.08,.15-.13,.07h0Z"/>
    <path class="cls-11" d="M104.98,333.3c0-4.51,3.65-8.16,8.16-8.16s8.16,3.65,8.16,8.16-3.65,8.16-8.16,8.16-8.16-3.65-8.16-8.16Z"/>
    <path class="cls-13" d="M113.15,334.05c-.25,0-.5-.12-.64-.35l-19.46-31.19c-.22-.35-.11-.81,.24-1.03,.35-.22,.81-.11,1.03,.24l19.46,31.19c.22,.35,.11,.81-.24,1.03-.12,.08-.26,.11-.4,.11Z"/>
    <path class="cls-11" d="M97.38,297.01l-10.2,2.08c-1.56,.32-3.09-.69-3.41-2.26h0c-.32-1.56,.69-3.09,2.26-3.41l10.2-2.08c1.56-.32,3.09,.69,3.41,2.26h0c.32,1.56-.69,3.09-2.26,3.41Z"/>
  </g>
  <g>
    <path class="cls-5" d="M546.03,101.61h-47.61c-2.29,6.94-1.15,20.88,8.15,27.88h27.88c4.95-3.74,6.94-9.47,7.72-15.08,1.09,.72,2.47,1.15,3.92,1.15,3.92,0,6.94-3.08,6.94-6.94s-3.14-7-7-7Zm0,10.44c-1.75,0-3.32-1.45-3.5-3.14,0-.3,.06-.54,.06-.79,.24-1.69,1.69-3.02,3.44-3.02,1.93,0,3.5,1.57,3.5,3.5s-1.63,3.44-3.5,3.44Z"/>
    <path class="cls-13" d="M534.61,129.99h-28.21l-.13-.1c-9.26-6.97-10.78-20.99-8.32-28.43l.11-.34h47.97c4.13,0,7.5,3.36,7.5,7.5s-3.27,7.44-7.44,7.44c-1.24,0-2.47-.3-3.54-.84-1.07,6.71-3.62,11.52-7.81,14.68l-.13,.1Zm-27.88-1h27.54c4.03-3.11,6.45-7.91,7.4-14.65l.11-.79,.66,.44c1.03,.69,2.33,1.06,3.65,1.06,3.61,0,6.44-2.83,6.44-6.44s-2.92-6.5-6.5-6.5h-47.24c-2.2,7.2-.68,20.26,7.95,26.88Zm39.29-16.44c-1.99,0-3.78-1.61-4-3.58,0-.23,.02-.4,.03-.55,.01-.1,.02-.2,.02-.29,.29-2.04,1.98-3.52,3.94-3.52,2.21,0,4,1.79,4,4s-1.79,3.94-4,3.94Zm0-6.94c-1.47,0-2.73,1.11-2.94,2.59,0,.06,0,.2-.03,.34-.01,.12-.03,.24-.03,.38,.16,1.4,1.53,2.64,3,2.64,1.65,0,3-1.32,3-2.94s-1.35-3-3-3Z"/>
  </g>
  <polygon class="cls-1" points="224.9 355.24 201.93 355.24 198.98 332.91 227.84 332.91 224.9 355.24"/>
  <path class="cls-10" d="M224.9,355.39l-22.97,.56c-.35,0-.65-.25-.7-.59v-.03s-3.37-22.27-3.37-22.27c-.09-.61,.33-1.18,.94-1.27h.14s.04-.01,.04-.01c9.62-.15,19.24-.61,28.86-.29h.11c.76,.03,1.35,.66,1.33,1.42l-.02,.19c-.64,3.7-1.17,7.42-1.91,11.1-.69,3.69-1.42,7.38-2.3,11.05-.01,.07-.08,.12-.15,.13Zm-.14-.3c.11-3.73,.35-7.44,.64-11.14,.24-3.75,.7-7.48,1.04-11.22l1.41,1.61c-9.62,.32-19.24-.15-28.86-.29l1.12-1.28,2.53,22.38-.7-.62,22.83,.56Z"/>
  <path class="cls-10" d="M213.56,306.92s.65,6.5,1.04,13c.11,1.63,.32,3.25,.36,4.78,0,1.52-.16,2.95-.36,4.17-.38,2.44-1.04,4.06-1.04,4.06-.03,.08-.13,.12-.21,.09-.04-.02-.07-.05-.09-.09,0,0-.66-1.63-1.04-4.06-.2-1.22-.35-2.64-.36-4.17,.04-1.52,.25-3.15,.36-4.78,.38-6.5,1.04-13,1.04-13,0-.08,.08-.14,.16-.13,.07,0,.13,.06,.13,.13Z"/>
  <circle class="cls-6" cx="213.41" cy="303.13" r="5.13"/>
  <path class="cls-10" d="M220.02,303.21s-.01,.13-.04,.36c0,.18-.11,.83-.32,1.3-.42,1.06-1.5,2.28-2.98,3.18-.73,.47-1.62,.83-2.61,.94-.26,.02-.47,.03-.78,.04-.23,0-.42,0-.72-.04-.57-.05-1.06-.2-1.58-.4-1.02-.41-1.97-1.12-2.67-2.08-.67-.99-1.07-2.11-1.09-3.43,0-1.04,.39-2.43,1.07-3.34,.69-.96,1.63-1.7,2.66-2.12,1.01-.41,2.16-.57,3.08-.47,1.09,.14,1.96,.43,2.77,.87,1.62,.85,2.58,2.28,2.92,3.35,.19,.54,.23,.99,.26,1.29,.02,.3,.03,.46,.03,.46v.08Zm-2.97-.08s0-.36-.1-.98c-.1-.61-.35-1.58-1.26-2.44-.44-.39-1.13-.72-1.76-.79-.79-.09-1.52,0-2.23,.35-.7,.34-1.31,.89-1.73,1.58-.42,.75-.64,1.36-.64,2.33-.01,.7,.2,1.58,.62,2.24,.41,.69,1.01,1.27,1.72,1.62,.34,.17,.75,.31,1.08,.37,.15,.05,.4,.06,.62,.08,.13,0,.36-.01,.53-.03,.73-.09,1.39-.35,1.92-.72,1.06-.81,1.18-2,1.2-2.62,.03-.38,0-.43,.03-.72,0-.24,0-.36,0-.36v.08Z"/>
  <line class="cls-3" x1="213.58" y1="324.56" x2="222.78" y2="313.94"/>
  <path class="cls-10" d="M212.46,323.59l10.31-9.65-8.07,11.59c-.47,.68-1.4,.84-2.08,.37-.68-.47-.84-1.4-.37-2.08,.06-.09,.13-.17,.21-.24Z"/>
  <path class="cls-6" d="M227.91,313.94c0,2.83-2.3,5.13-5.13,5.13s-5.13-2.3-5.13-5.13,2.3-5.13,5.13-5.13,5.13,2.3,5.13,5.13Z"/>
  <path class="cls-10" d="M229.39,314.01s-.01,.13-.04,.36c0,.18-.11,.83-.32,1.3-.42,1.06-1.5,2.28-2.98,3.18-.73,.47-1.62,.83-2.61,.94-.26,.02-.47,.03-.78,.04-.23,0-.42,0-.72-.04-.57-.05-1.06-.2-1.58-.4-1.02-.41-1.97-1.12-2.67-2.08-.67-.97-1.07-2.17-1.09-3.38,.01-1.14,.39-2.46,1.07-3.39,.69-.96,1.63-1.7,2.66-2.12,1.01-.41,2.16-.57,3.08-.47,1.09,.14,1.96,.43,2.77,.87,1.62,.85,2.58,2.28,2.92,3.35,.19,.54,.23,.99,.26,1.29,.02,.3,.03,.46,.03,.46v.08Zm-2.97-.08s.01-.36-.1-.98c-.1-.61-.35-1.58-1.26-2.44-.44-.39-1.13-.72-1.76-.79-.79-.09-1.52,0-2.23,.35-.7,.34-1.31,.89-1.73,1.58-.41,.73-.64,1.41-.64,2.28-.05,1.61,.92,3.21,2.34,3.92,.35,.17,.75,.31,1.08,.37,.15,.05,.4,.06,.62,.08,.13,0,.36-.01,.53-.03,.73-.09,1.39-.35,1.92-.72,1.06-.81,1.18-2,1.2-2.62,.03-.38,0-.43,.03-.72,0-.24,0-.36,0-.36v.08Z"/>
  <line class="cls-3" x1="212.43" y1="330.06" x2="204.11" y2="319.07"/>
  <path class="cls-10" d="M211.25,330.95l-7.14-11.89,9.51,10.09c.56,.6,.54,1.54-.06,2.11-.6,.57-1.54,.54-2.11-.06-.07-.08-.14-.17-.19-.25Z"/>
  <path class="cls-1" d="M209.24,319.07c0,2.83-2.3,5.13-5.13,5.13s-5.13-2.3-5.13-5.13,2.3-5.13,5.13-5.13,5.13,2.3,5.13,5.13Z"/>
  <path class="cls-10" d="M210.72,319.14s-.01,.13-.04,.36c0,.18-.11,.83-.32,1.3-.42,1.06-1.5,2.28-2.98,3.18-.73,.47-1.62,.83-2.61,.94-.26,.02-.47,.03-.78,.04-.23,0-.42,0-.72-.04-.57-.05-1.06-.2-1.58-.4-1.02-.41-1.97-1.12-2.67-2.08-.67-.99-1.07-2.11-1.09-3.43,0-1.04,.39-2.43,1.07-3.34,.69-.96,1.63-1.7,2.66-2.12,1.01-.41,2.16-.57,3.08-.47,1.09,.14,1.96,.43,2.77,.87,1.62,.85,2.58,2.28,2.92,3.35,.19,.54,.23,.99,.26,1.29,.02,.3,.03,.46,.03,.46v.08Zm-2.97-.08s.01-.36-.1-.98c-.1-.61-.35-1.58-1.26-2.44-.44-.39-1.13-.72-1.76-.79-.79-.09-1.52,0-2.23,.35-.7,.34-1.31,.9-1.73,1.58-.41,.75-.64,1.36-.64,2.33-.01,.7,.2,1.58,.62,2.24,.41,.69,1.01,1.27,1.72,1.62,.34,.17,.75,.31,1.08,.37,.15,.05,.4,.06,.62,.08,.13,0,.36-.01,.53-.03,.73-.09,1.39-.35,1.92-.72,1.06-.81,1.18-2,1.2-2.62,.03-.38,0-.43,.03-.72,0-.24,0-.36,0-.36v.07Z"/>
  <polygon class="cls-6" points="226.01 355.24 253.71 355.24 257.27 328.31 222.46 328.31 226.01 355.24"/>
  <path class="cls-10" d="M226.15,355.09l27.56-.56-.7,.62,3.14-26.98,1.12,1.28c-11.6,.15-23.2,.61-34.81,.29l1.41-1.61c.44,4.51,1,9,1.34,13.52,.39,4.47,.73,8.95,.94,13.44Zm-.28,.17c-.98-4.44-1.81-8.89-2.61-13.35-.84-4.45-1.47-8.94-2.22-13.4-.13-.75,.38-1.47,1.14-1.59l.18-.02h.09c11.6-.32,23.2,.14,34.81,.29h.03c.62,0,1.11,.52,1.1,1.13v.15s-3.98,26.87-3.98,26.87v.03c-.06,.35-.36,.6-.71,.59l-27.7-.56c-.07,0-.13-.06-.15-.13Z"/>
  <path class="cls-6" d="M221.81,292.4c0,3.42,2.77,6.18,6.19,6.18s6.19-2.77,6.19-6.18-2.77-6.19-6.19-6.19-6.19,2.77-6.19,6.19Z"/>
  <path class="cls-10" d="M221.96,292.39s-.06,.62,.21,1.62c.25,.99,1.1,2.38,2.64,3.17,.76,.38,1.64,.65,2.57,.68l.68-.02c.26-.03,.56-.04,.76-.1,.43-.07,.92-.26,1.35-.47,1.78-.86,2.99-2.88,2.84-4.87-.08-1.06-.41-1.87-1-2.65-.59-.72-1.32-1.28-2.12-1.59-.81-.35-1.55-.48-2.48-.48-.67,.02-1.56,.15-2.27,.42-1.45,.58-2.49,1.76-2.82,2.72-.36,.96-.35,1.57-.35,1.57Zm-.3,0s-.07-.63,.11-1.73c.19-1.07,.62-2.78,2.22-4.27,.81-.73,1.8-1.35,3.21-1.58,1.13-.23,2.65-.07,3.93,.5,1.29,.61,2.44,1.6,3.18,2.88,.74,1.22,1.13,2.82,1.06,4.19-.06,1.45-.55,2.86-1.37,3.99-.82,1.13-1.94,1.98-3.15,2.45-.62,.23-1.2,.4-1.86,.45-.35,.05-.59,.03-.86,.04-.35-.01-.61-.05-.91-.1-1.14-.22-2.15-.7-2.9-1.32-1.52-1.27-2.13-2.79-2.4-3.82-.27-1.06-.25-1.68-.25-1.68Z"/>
  <line class="cls-3" x1="241.15" y1="324.87" x2="252.37" y2="311.62"/>
  <path class="cls-10" d="M240.02,323.91l12.35-12.3-10.09,14.21c-.48,.67-1.41,.83-2.08,.35s-.83-1.41-.35-2.08c.05-.07,.11-.14,.16-.19Z"/>
  <circle class="cls-1" cx="251.08" cy="311.62" r="6.19"/>
  <path class="cls-10" d="M245.04,311.61s-.07,.64,.33,1.58c.34,.98,1.54,2.03,2.92,2.58,.71,.26,1.41,.53,2.23,.69l.58,.11c.26,.02,.58,.06,.74,.06,.4,.05,.93,0,1.41-.09,1-.18,1.99-.82,2.59-1.75,.64-.91,.77-2.16,.6-3.13-.22-1.21-.73-1.94-1.31-2.73-.6-.73-1.38-1.26-2.18-1.55-.83-.29-1.55-.38-2.48-.36-.65,.04-1.46,.26-2.14,.5-1.43,.48-2.58,1.57-2.95,2.53-.41,.95-.32,1.58-.35,1.57Zm-.3,0s-.02-.62,.11-1.73c.16-1.06,.47-2.87,2.1-4.46,.84-.77,1.9-1.3,3.33-1.51,1.14-.2,2.69,0,3.94,.62,1.28,.63,2.39,1.66,3.11,2.92,.74,1.2,.96,2.88,.75,4.11-.19,1.46-.78,2.62-1.47,3.71-.73,1.05-1.62,1.98-2.7,2.71-.56,.34-1.11,.65-1.8,.83-.37,.1-.6,.14-.87,.2-.41,.03-.66,.03-1,.03-1.26-.09-2.44-.57-3.25-1.31-1.66-1.51-1.94-3.36-2.12-4.4-.13-1.12-.13-1.71-.13-1.71Z"/>
  <path class="cls-10" d="M231.94,297.12c6.92,7.89,8.81,18.89,9.12,29.09,0,0-1.7-.07-1.7-.07,.25-9.99-1.04-20.93-7.41-29.02h0Z"/>
  <g>
    <path class="cls-13" d="M685.88,309.84h-30.08c-.19,0-.37-.11-.45-.29l-12-25.19c-.12-.25-.01-.55,.24-.67,.25-.12,.55-.01,.67,.24l11.87,24.9h29.77c.28,0,.5,.22,.5,.5s-.22,.5-.5,.5Z"/>
    <g>
      <path class="cls-3" d="M709.71,289.2l.51-13.23c.18-4.77-1.89-9.14-10.4-6.16-9.68,3.39-3.04,15.87-.26,17.64,1.63,1.04,5.39-2.56,7.22,1.63,1.67,.12,2.93,.11,2.93,.11Z"/>
      <path class="cls-13" d="M709.71,289.2c-.05-2.56-.09-5.02-.17-7.44-.17-3.4,.92-7.18-.69-10.31-1.95-3.21-6.29-2.1-9.3-.99-5.03,1.78-5.02,7.5-3.07,11.69,.7,1.59,1.58,3.17,2.79,4.42,.4,.37,.63,.64,1.21,.58,1.04-.07,2.24-.71,3.61-.58,1.39,.03,2.49,1.19,2.88,2.43,0,0-.17-.12-.17-.12,.97,.12,1.94,.24,2.92,.32h0Zm0,0c-1.01,.07-2.03,.11-3.05,.09-.28-.55-.65-1.09-1.11-1.44-1.61-1.04-3.09,.17-5,.29-2.99,.12-5.66-6.66-6.08-9.18-1.25-6.11,2.56-9.6,8.31-10.46,7.06-1.24,8.49,4.03,7.85,9.88,0,2.48-.65,8.27-.91,10.81h0Z"/>
    </g>
    <path class="cls-11" d="M710.25,274.3s0-6.62-9.77-5.61c-5.55,.58-7.27-1.9-7.27-1.9,0,0-2.04,4.51,2.67,6.04,4.71,1.53,14.01,13.95,14.01,13.95l.36-12.48Z"/>
    <path class="cls-8" d="M656.53,324.58c13.98-9.52,25.83-1.02,32.56-8.4,6.64-7.28,13.3-19.3,17.18-27.11l3.44-1.94c2.35,12.84-.66,41.46-11.52,44.08-13.91,3.35-26.05-1.13-35.33,.44-5.46,.92-15.29,16.58-20.18,23.48-.99,1.4-3.16,.24-2.54-1.36,3.02-7.82,8.38-23.73,16.4-29.19Z"/>
    <g>
      <path class="cls-3" d="M710.1,287.78s-7.12,9.82-35.26,14.2c-3.44,.54-7.19,.96-11.29,1.25-2.21,.15-2.07,3.8,.15,3.78,3.56-.03,7.33-.04,11.15-.16,13.62-.44,27.87-2.34,35.17-11.7l.08-7.37Z"/>
      <path class="cls-13" d="M710.1,287.78c-9.81,11.32-31.39,14.62-45.73,15.89,0,0-.81,.06-.81,.06-.62,.06-1.03,.55-1.08,1.2-.06,.87,.41,1.66,1.4,1.58,0,0,3.28-.05,3.28-.05,14.53-.33,32.1,.17,42.65-11.48-.11-1.43,.32-4.9,.29-7.2h0Zm0,0c0,2.34,.15,4.81,.2,7.37v.09s-.06,.08-.06,.08c-9.76,13.03-31.65,11.81-46.35,12.19-2.32,.24-3.31-3.15-1.41-4.43,.3-.21,.65-.3,1-.35,3.53-.25,7.07-.61,10.57-1.14,8.58-1.34,17.15-3.34,25.09-6.92,3.97-1.71,7.95-3.74,10.97-6.9h0Z"/>
    </g>
    <path class="cls-8" d="M710.2,287.22l-16.49,9.4,1.99,7.64s9.8-.58,14.65-6.96c0,0,.81-4.85-.15-10.08Z"/>
    <path class="cls-11" d="M658.28,322.84c13.98-9.52,24.09,.72,30.82-6.66l9.1,15.03c-13.91,3.35-24.31-.94-33.59,.63-3.58,.61-6.43,.9-13.7,11.52-2.99,4.36-6.55,9.41-8.23,11.78-.99,1.4-3.16,.24-2.54-1.36,.92-2.37,1.72-6.48,3.78-10.73,5.21-10.74,8.77-16.4,14.36-20.2Z"/>
    <path class="cls-3" d="M629.5,172.72c.66,60.87,.66,121.81,0,182.88"/>
    <path class="cls-13" d="M630.89,356.21c.03-9.47,.07-20.17,.11-31.54,0-13.02,0-26.92-.01-40.81-.14-27.78-.27-55.57-.37-76.41-.03-5.21-.07-9.99-.09-14.22-.05-4.23-.19-7.92-.33-10.96-.31-6.08-.69-9.55-.69-9.55,0,0-.38,3.47-.69,9.55-.13,3.04-.28,6.73-.33,10.96-.03,4.23-.06,9.01-.1,14.22-.1,20.84-.24,48.62-.37,76.41,0,13.89,0,27.78-.01,40.81,.04,11.53,.08,22.36,.11,31.93,.89-.29,1.83-.42,2.77-.39Z"/>
    <path class="cls-13" d="M542.36,292.68c3.62,5.66,7.55,14.64,10.55,20.75,0,0,10.06,20.98,10.06,20.98l-.76-.48,13.72-.02,13.72,.03h.84s0,.83,0,.83c0,0-.06,10.61-.06,10.61-.05,3.54,.15,7.08-.77,10.61-.92-3.54-.72-7.08-.77-10.61l-.06-10.61,.83,.83-13.72,.03s-13.72-.02-13.72-.02c0,0-.53,0-.53,0l-.22-.48s-9.79-21.1-9.79-21.1c-2.78-6.22-7.25-14.89-9.31-21.33h0Z"/>
    <path class="cls-13" d="M562.21,331.81c.9,1.71,.57,4.22,.71,6.05,.07,2.02,.1,4.03,.14,6.05,.02,2.91,0,6.14-.08,9.07-.06,1.01,.16,2.02-.77,3.02-.93-1.01-.72-2.02-.77-3.02-.08-2.94-.1-6.15-.08-9.07,.04-2.02,.07-4.03,.14-6.05,.15-1.82-.18-4.33,.71-6.05h0Z"/>
    <path class="cls-13" d="M716.84,290.94c-1.23,6.28-4.4,15.07-6.34,21.25,0,0-6.85,21.08-6.85,21.08l-.18,.54s-.58,0-.58,0c-11.36,.11-27.73,.04-39.26,.03,0,0,.82-.82,.82-.82-.23,7.11,.5,17.18-.82,24.15-1.32-6.93-.59-17.05-.82-24.15,0,0,0-.82,0-.82h.83c11.59-.03,27.84-.07,39.26,.02,0,0-.76,.55-.76,.55l7.1-21c2.09-6.14,4.87-15,7.61-20.83h0Z"/>
    <path class="cls-13" d="M702.89,330.06c.89,1.8,.57,4.47,.71,6.38,.07,2.13,.1,4.26,.14,6.38,.02,3.08,0,6.48-.08,9.58-.06,1.06,.16,2.13-.77,3.19-.94-1.06-.72-2.13-.77-3.19-.08-3.1-.1-6.49-.08-9.58,.04-2.13,.06-4.26,.14-6.38,.15-1.92-.18-4.57,.71-6.38h0Z"/>
    <g>
      <path class="cls-7" d="M613.09,301.63c-.2,1.52-1.65,2.45-3.08,3.16,.34-1.41,.52-2.82,.61-4.03,.74-.42,1.62-.6,2.09-.36,.34,.17,.47,.58,.38,1.23Zm.03-2.06c-.68-.34-1.6-.23-2.44,.13,.06-1.31,.02-2.19,.02-2.21v-.09s-11.15,0-11.15,0v.09s-.22,4.64,1.05,8.62c.84,2.64,2.3,3.78,2.36,3.83l.02,.02h4.27l.03-.02c.06-.05,1.52-1.19,2.36-3.83,.01-.04,.03-.09,.04-.13,1.74-.82,4.03-1.95,4.33-4.23,.19-1.42-.48-1.97-.89-2.18Z"/>
      <g>
        <path class="cls-13" d="M613.09,301.63c-.07,.37,0,.8-.08,1.27-.05,.49-.45,.76-.74,1.05-.9,.78-1.98,1.25-3,1.78,.42-1.63,.73-3.31,.85-5,0,0,.02-.27,.02-.27l.23-.12c1.4-.77,3.45-1,2.72,1.3h0Zm0,0c.05-.29-.07-.63-.29-.78-.24-.16-.33,.05-.53-.04-.42-.03-.97,.15-1.41,.4l.25-.4c-.11,1.38-.3,2.75-.62,4.11l-.71-.56c1.13-.49,1.74-1.12,2.6-1.84,.32-.18,.67-.48,.71-.88h0Z"/>
        <path class="cls-13" d="M613.12,299.57c-.85-.39-1.81-.09-2.56,.35,0,0-.03-.23-.03-.23l-.25-2.27,.4,.39c-.93,.13-1.85,.1-2.79,.1-1.77,0-6.52,0-8.36,0,0,0,.5-.47,.5-.47,.03,4.08,.13,9.12,3.24,12.12,0,0-.3-.1-.3-.1h4.27l-.3,.1c1.16-.99,1.89-2.48,2.32-3.94,1.86-.96,4.24-1.9,4.66-4.19,.13-.69-.12-1.53-.81-1.86h0Zm0,0c1.43,.77,1.19,2.89,.45,4.13-.81,1.39-2.31,2.08-3.68,2.73,0,0,.26-.3,.26-.3-.52,1.64-1.35,3.24-2.73,4.33,0,0-.17,0-.17,0h-4.45l-.12-.1c-3.58-3.38-3.64-8.86-3.62-13.45,0,0,.48,0,.48,0,0,0,5.57,0,5.57,0,1.82,.03,4.21-.1,6,.13-.05,.89-.2,1.79-.3,2.67,0,0-.2-.14-.2-.14,.81-.23,1.72-.37,2.49,0h0Z"/>
      </g>
    </g>
    <path class="cls-13" d="M720.7,311.58h-123.62c-.28,0-.5-.22-.5-.5s.22-.5,.5-.5h123.62c.28,0,.5,.22,.5,.5s-.22,.5-.5,.5Z"/>
    <g>
      <path class="cls-3" d="M629.91,156.54c-40.34,0-75.2,32.12-100.81,75.16-.78,1.3,8.98,15.76,16.15,15.76,4.26,0,8.13-1.68,11.13-4.15,1.67-1.37,4.16-1.15,5.93,.11,2.95,2.11,6.7,3.3,10.81,3.3,4.45,0,8.49-1.6,11.55-4.15,1.64-1.37,4.22-1.38,5.88-.03,3.05,2.5,7.09,4,11.54,4,4.11,0,7.86-1.33,10.81-3.52,1.86-1.38,4.39-1.38,6.25,0,2.95,2.18,6.7,3.48,10.81,3.48,4.36,0,8.34-1.48,11.38-3.9,1.61-1.29,4.11-1.29,5.72,0,3.04,2.42,7.02,3.89,11.38,3.89,4.11,0,7.86-1.32,10.81-3.5,1.87-1.38,4.39-1.38,6.25,0,2.95,2.18,6.71,3.5,10.81,3.5,4.44,0,8.48-1.53,11.53-4.04,1.66-1.37,4.26-1.34,5.91,.04,2.96,2.48,6.82,4,11.24,4,9.53,0,16.95-5.04,16.95-13.68,0-.34-45.52-76.26-102.05-76.26Z"/>
      <path class="cls-13" d="M629.91,156.59c-37.16,.07-67,27.5-87.69,55.91-4.55,6.23-8.78,12.68-12.76,19.29-.07,.09-.04,.1-.04,.23,.03,.13,.05,.26,.11,.4,2.39,5.26,9.23,13.85,15.24,14.72,4.54,.31,8.74-1.84,12.26-4.53,3.47-1.73,6.02,1.52,9.04,2.6,4.74,1.86,10.26,1.8,14.87-.43,1.15-.56,2.25-1.22,3.25-2.01,2.01-1.97,5.21-1.74,7.16,.17,6.19,4.56,15.31,4.54,21.45-.11,1.62-1.22,3.92-1.42,5.73-.49,1.65,1.04,3.18,2.13,5.04,2.76,6,2.23,13.02,1.09,17.96-3.01,1.75-1.13,4.19-1.03,5.81,.28,1.49,1.17,3.18,2.08,4.96,2.71,4.76,1.67,10.23,1.31,14.66-1.11,1.2-.58,2.07-1.5,3.34-2.03,1.29-.52,2.78-.56,4.09-.06,1.29,.48,2.18,1.41,3.37,1.99,5.51,3.03,12.64,2.85,17.99-.47,1.16-.65,2.03-1.7,3.32-2.14,1.34-.46,2.85-.37,4.11,.28,3.01,2.31,6.43,4.21,10.32,4.41,6.07,.39,13.18-1.43,16.4-7.01,1.08-1.8,1.53-3.91,1.58-5.99,0-.08,.02-.18-.03-.15-.04-.01-.01,.03-.06-.05l-.12-.2s-.24-.41-.24-.41c-21.62-33.46-58.35-74.85-101.11-75.55h0Zm0-.1c41.17,.62,75.65,37.02,97.72,68.64,1.63,2.48,3.36,4.89,4.76,7.51,.3,5.09-2.94,9.95-7.47,12.12-5.89,2.82-13.29,3.11-19.03-.22-1.14-.6-2.05-1.52-3.15-2.18-1.03-.53-2.29-.6-3.39-.23-1.14,.41-2.06,1.45-3.14,2.04-5.63,3.49-13.1,3.67-18.9,.48-1.13-.54-2.11-1.53-3.25-1.96-1.1-.43-2.36-.41-3.46,.03-1.12,.46-2.13,1.43-3.26,1.96-5.81,3.12-13.25,2.86-18.82-.66-1.08-.62-1.94-1.64-3.2-1.93-1.16-.3-2.45-.12-3.46,.52-.98,.75-2.1,1.54-3.26,2.11-5.82,2.99-13.22,2.68-18.71-.92-1.92-1.65-4.71-2.24-6.83-.62-1.05,.77-2.18,1.44-3.37,1.96-4.76,2.13-10.41,2.1-15.17,0-1.19-.52-2.32-1.18-3.37-1.95-.99-.83-2.04-1.51-3.36-1.51-2.69-.15-4.34,2.5-6.71,3.38-2.34,1.13-4.92,1.77-7.52,1.83-2.6,.07-5.21-.36-7.65-1.3-2.88-.94-5.45-4.2-8.67-2.56-1.55,1.03-3.11,2.36-4.89,3.1-2.38,1.09-4.98,1.69-7.63,1.57-5.27-.85-9.01-5.35-12.25-9.24-1.44-1.98-3.06-3.96-3.75-6.35-.06-.21,0-.51,.13-.7,21.62-36.42,55.5-74.52,101.06-74.94h0Z"/>
    </g>
    <path class="cls-1" d="M629.91,166.21c-40.32-1.07-75.2,22.46-100.81,65.5-.78,1.3,9.05,15.05,16.23,15.05,4.26,0,8.13-1.68,11.13-4.15,1.67-1.37,4.16-1.15,5.93,.11,2.95,2.11,6.7,3.3,10.81,3.3,4.45,0,8.5-1.6,11.55-4.15,1.64-1.37,4.22-1.38,5.88-.03,3.05,2.5,7.09,4,11.54,4,4.11,0,7.86-1.33,10.81-3.52,1.86-1.38,4.39-1.38,6.25,0,2.95,2.18,6.7,3.48,10.81,3.48,4.36,0,8.34-1.48,11.38-3.9,1.61-1.29,4.11-1.29,5.72,0,3.04,2.42,7.02,3.89,11.38,3.89,4.11,0,7.86-1.32,10.81-3.5,1.86-1.38,4.39-1.38,6.25,0,2.95,2.18,6.71,3.5,10.81,3.5,4.44,0,8.48-1.53,11.53-4.04,1.66-1.37,4.26-1.34,5.91,.04,2.96,2.48,7.13,2.66,11.55,2.66,0,0-30.55-76.77-85.48-78.23Z"/>
  </g>
  <g>
    <path class="cls-11" d="M462.65,316.28c-2.33,.35-1.42,2.24-3.35,3.05-4.09,1.7-10.46,4.73-10.42,7.15,.01,.69,.14,1.4,.36,2.07,.33,.79,2.18,3.34-2.5,3.41l-31.49,.57c-.73,.01-1.49,.02-2.22,.22,0,0-6.16-2.01-2.61-7.4,.14-2.16-1.63-1.34-2.16-.36-.52,.98-1.47,3.19-1.01,5.85,.46,2.66,2.43,4.28,2.43,4.28-.79,1.18-1.19,2.54-1.17,3.98,.02,1.14,.03,.23,.77,3.3s-2.68,11.28-2.68,11.28c.11,1.27,1.19,2.25,2.46,2.23,1.02-.02,1.93-.68,2.26-1.64,0,0,1.74-10.15,6.03-10.55,6.79,1.89,18.91,4.87,27.24,4.73l3.55-.03,.76,5.09c.27,1.11-.15,1.81,1.07,1.84s2.13-.87,2.35-2.04l.87-6.67c6.08-3.15,4.35-10,4.27-14.83,0,0,3.78-4.32,5.09-5.82,1.32-1.5,3.32-3.84,3.25-5.12,.58-1.97-.81-4.93-3.14-4.57Z"/>
    <path class="cls-14" d="M454.51,334.06c3.46,2.8-.76,10.09-5.28,5.08-6.94-7.68,.7-14.45,.7-14.45,0,0-1.09,4.78,4.58,9.37Z"/>
  </g>
</svg>