<?xml version="1.0" encoding="UTF-8"?>
<svg id="Layer_1" data-name="Layer 1" xmlns="http://www.w3.org/2000/svg" viewBox="0 0 800 400">
  <defs>
    <style>
      .cls-1 {
        opacity: .1;
      }

      .cls-2 {
        fill: #f6e463;
      }

      .cls-3 {
        fill: #f990b0;
      }

      .cls-4 {
        fill: #f9ea35;
      }

      .cls-5 {
        fill: #fb8fb0;
      }

      .cls-6 {
        fill: #00efb0;
      }

      .cls-7 {
        fill: #fff;
      }

      .cls-8 {
        fill: #fd8eb0;
      }

      .cls-9 {
        fill: #ff8db0;
      }

      .cls-10 {
        fill: #98d7fd;
      }

      .cls-11 {
        fill: #97d7ff;
      }

      .cls-12 {
        fill: #a9e286;
      }

      .cls-13 {
        fill: #225467;
      }

      .cls-14 {
        fill: #41d94d;
      }

      .cls-15 {
        fill: #3e748f;
      }

      .cls-16 {
        fill: #3c7490;
      }
    </style>
  </defs>
  <g>
    <g>
      <path class="cls-10" d="M433.91,212.96c-7.95-35.95-53.24-21.32-66.19,10.21l-39.17,20.28s15.88,54.99,38.04,102.86c1.94,4.2,6.67,.04,7.21-4.86,2.34-21.37,3.17-46.53,7.34-65.21,6.43,10.38,12.33,28.2,20.12,66.15,1.24,4.57,7.29,8.19,8.39,2.89,10.38-50.12,33.08-92.42,24.25-132.33Z"/>
      <path class="cls-16" d="M433.81,212.99c-3.54-17.12-17.45-24.54-33.94-19.34-14.31,4.53-26.25,15.91-31.91,29.75-.12-.04-39.06,20.51-39.18,20.5,0,0,.25-.59,.25-.59,9.02,29.83,19.43,59.31,31.69,87.97,1.13,2.67,3.51,8.05,4.73,10.69,0,0,1.21,2.66,1.21,2.66,.58,1.26,1.26,3.45,3.11,2.37,2.32-1.36,3.27-4.34,3.39-6.92,2.36-22.13,2.68-44.56,7.56-66.36,5.45,8.42,8.85,17.91,11.64,27.36,3.95,13.35,6.93,26.96,9.76,40.56,.32,1.74,1.38,3.28,2.75,4.35,1.48,1.16,3.31,1.46,3.74-.68,5.49-26.65,15.4-52.28,22.1-78.57,4.39-17.49,6.95-35.93,3.09-53.76h0Zm.2-.04c7.59,35.61-8.11,72.35-17.01,106.46-1.22,4.36-2.35,8.75-3.43,13.14-1.1,4.41-2.01,8.77-3.01,13.28-.29,1.39-1.43,2.93-3.02,3.06-1.61,.16-2.84-.56-3.86-1.3-2.01-1.52-3.31-3.84-3.66-6.32-.92-4.46-1.87-8.89-2.86-13.31-3.02-13.21-6.17-26.45-11-39.12-1.63-4.19-3.5-8.28-5.81-12.09l1.73-.29c-4.06,18.88-4.86,38.75-6.76,57.97-.26,1.91-.54,7.01-1.09,8.85-1.36,4.72-6.67,8.64-8.93,1.99-8.47-18.64-15.96-37.82-22.76-57.12-5.2-14.72-10.05-29.57-14.47-44.55l-.12-.4s.37-.19,.37-.19c-.07,.23,39.87-20.67,39.11-19.95,5.87-13.89,17.94-25.19,32.37-29.66,16.6-5.07,30.6,2.21,34.21,19.55h0Z"/>
    </g>
    <g class="cls-1">
      <path class="cls-13" d="M405.42,267.38c-2.7-10.08-7.36-15.47-12.5-18.12,2.63-5.75,5.6-11.56,8.95-17.36,0,0-34.16-18.64-44.21,19.73-7.12,27.19,15.05,88.86,15.05,88.86-.17-.46-2.32-31.38,8.59-66.95,12.2,22.59,21.8,49.5,20.72,69.76,0,0,12.21-43.1,3.41-75.91Z"/>
    </g>
    <g>
      <path class="cls-7" d="M438.29,211.55c1.54-35.89-8.09-47.1-20.41-73.62-3.88-8.35-6.85-4.49-9.99-13.85-7.52,13.05-19.16,12.4-32.05,13.91-14.51,1.7-24.55,5.02-26.85-15.12,1.46,15.81-36.99,37.79-26.64,99.73,9.5,38.53,41.23,48.14,65.79,45.42,17.65-1.96,48.62-20.58,50.16-56.46Z"/>
      <path class="cls-16" d="M437.29,211.51c1.49-28.93-4.45-42.54-17.14-67.6-1.55-2.96-3.29-7.83-5.63-10.21-1.34-1.43-3.22-2.37-4.44-4-1.31-1.64-2.05-3.57-2.72-5.45,0,0,.99,.1,.99,.1-3.04,5.52-8.25,9.87-14.36,11.56-6.05,1.79-12.3,1.92-18.38,2.69-7.31,.58-16.82,3.79-22.65-2.39-3.19-3.65-4.04-8.67-4.66-13.27,0,0,1.34-.14,1.34-.14,.34,4.72-2.12,8.88-4.35,12.77-2.29,3.83-4.78,7.48-7.12,11.23-4.71,7.45-8.85,15.27-11.73,23.59-5.9,16.65-6.44,34.78-3.5,52.11,3.21,13.32,10.55,26.56,22.08,34.64,11.4,8.25,25.93,11.37,39.83,10.42,13.98-.81,26.94-8.53,36.51-18.43,9.68-10.09,15.42-23.64,15.92-37.61h0Zm2,.09c-.71,25.64-19.49,48.23-43.73,55.63-17.09,4.56-36.79,1.15-51.24-9.1-11.81-8.33-19.25-21.57-22.6-35.42-2.98-17.51-2.47-35.88,3.47-52.75,2.9-8.44,7.08-16.38,11.8-23.89,3.42-5.65,7.5-10.94,10.13-16.99,.81-1.98,1.37-4.08,1.19-6.14-.05-.77,1.14-1.11,1.34-.14,1.26,10.94,4.58,17.18,16.66,15.73,3.04-.26,6.09-.73,9.17-1.08,9-1.14,18.83-.77,26.17-6.71,2.34-1.89,4.24-4.3,5.76-6.92,.21-.39,.86-.34,.99,.1,.93,2.78,2.15,5.38,4.57,7.09,2.53,1.69,4.39,4.38,5.57,7.11,13.61,28.15,22.25,40.42,20.75,73.49h0Z"/>
    </g>
    <g>
      <path class="cls-7" d="M343.65,127.17c-21.03,2.62-52.52,27.94-63,92.9,.65,4.58,7.97,5.53,9.87,1.35,22.62-54,53.24-55.09,53.24-55.09"/>
      <path class="cls-16" d="M343.67,127.27c-24.8,4.18-41.41,28.37-50.54,50.07-5.73,13.7-9.32,28.21-11.62,42.86,0,0,0-.26,0-.26,.21,1.56,1.58,2.74,3.21,3.09,1.61,.38,3.44-.03,4.41-1.18,.45-.47,.88-1.7,1.16-2.32,7.16-16.91,17.17-33.38,32.15-44.43,4.72-3.44,9.95-6.27,15.59-7.86,1.87-.52,3.78-.93,5.74-1.01v.2c-3.8,.49-7.45,1.88-10.87,3.56-19.85,10.25-31.98,30.53-40.83,50.32,0,0-.59,1.32-.59,1.32-.63,1.59-2.24,2.84-3.88,3.18-3.3,.86-7.62-1.19-7.79-4.89,2.53-14.72,6.27-29.32,12.21-43.06,7.83-18.09,19.7-35.74,37.48-45.2,4.41-2.31,9.2-3.97,14.14-4.59,0,0,.02,.2,.02,.2h0Z"/>
    </g>
    <g class="cls-1">
      <path class="cls-13" d="M321.62,188.53c1.75,4.67,7.45-1.35,18.34,18.3s13.21,32.24,22.16,42.66,19.95,12.57,46.54,10.06c2.37-.22,3.24,3.04,1.05,3.99-16.46,7.15-46.1,16.47-63.43,.72-17.37-15.79-24.47-36.28-23.19-47.67,.25-2.19-2.25-30.12-1.48-28.06Z"/>
    </g>
    <g class="cls-1">
      <path class="cls-13" d="M325.47,133.77s12.26,3.1,19.19,13.69c6.93,10.58,34.73,17.91,47.39,9.97,12.66-7.94,16.56-22.36,16.56-22.36l-70.57-6.35s-9.54,2.47-12.57,5.05Z"/>
    </g>
    <g>
      <path class="cls-7" d="M407.38,122.84c21.43,5.68,53.54,42.37,45.67,107.7-1.89,4.23-9.19,3.12-9.86-1.42-6.83-58.15-22.96-66.08-22.96-66.08"/>
      <path class="cls-16" d="M407.41,122.75c10.21,2.85,18.58,10.1,25.24,18.11,20.22,24.83,24.78,58.78,21.26,89.79-.65,2.1-2.95,3.39-5.05,3.44-2.97,.23-6.44-1.93-6.65-5.14-.35-2.55-.69-5.29-1.08-7.81-2.76-17.11-5.76-34.76-14.31-50.05-1.77-2.94-3.77-5.96-6.62-7.94,0,0,.09-.18,.09-.18,3.1,1.8,5.27,4.76,7.27,7.66,3.86,5.94,6.6,12.55,8.75,19.27,3.8,11.75,6.05,23.95,7.5,36.19,0,0,.31,2.62,.31,2.62,0,0,.04,.32,.04,.32,.09,.58,.32,1.15,.71,1.61,1.69,2.19,6.21,2.35,7.41-.43,0,0-.07,.25-.07,.25,2.58-20.64,1.58-42.01-5.27-61.78-6.67-19.32-19.87-38.95-39.53-45.91h0Z"/>
    </g>
    <g>
      <path class="cls-7" d="M346.94,90.85c-2.5,11.33-2.79,23.88,1.39,34.11,7.85,19.22,26.9,25.62,38.56,19.23,18.26-10.01,26.58-21.05,23.1-54.08-3.68-34.86-31.15-41.85-46.62-27.85-15.47,14-16.42,28.59-16.42,28.59Z"/>
      <path class="cls-16" d="M347.04,90.87c-3.33,14.86-2.1,31.92,8.16,43.84,6.41,7.63,16.73,12.93,26.82,10.82,5-1.19,9.36-4.27,13.52-7.18,13.95-9.96,15.34-25.87,14.13-41.68-.67-10.16-2.44-20.56-8.55-28.93-7.46-10.68-21.66-14.64-33.1-7.92-10.32,6.49-19.34,18.8-20.99,31.05h0Zm-.2-.03c1.63-12.34,10.16-25.34,20.36-32.39,12.11-7.74,27.65-3.48,35.65,8.04,6.25,8.73,8.08,19.64,8.53,30.07,.94,16.02-1.5,32.35-15.47,42.28-4.26,3-8.58,6.22-13.66,7.65-10.5,2.64-21.74-2.5-28.42-10.64-10.51-12.41-10.32-29.96-6.99-45.01h0Z"/>
    </g>
    <path class="cls-16" d="M402.36,88.85c3.72,8.67-5.3,18.28-14.17,14.94-9.22-3.3-9.52-16.23-.66-20.2,5.3-2.49,12.44-.29,14.83,5.27h0Zm-1.82,.83c-3.52-7.87-14.52-7.74-17.56,.45-1.84,4.85,.8,10.67,5.65,12.49,8.18,3.13,15.84-5.02,11.91-12.94h0Z"/>
    <path class="cls-16" d="M374.64,88.47c3.72,8.67-5.3,18.28-14.17,14.94-9.22-3.3-9.52-16.23-.66-20.2,5.3-2.49,12.44-.29,14.83,5.27h0Zm-1.82,.83c-3.52-7.87-14.52-7.74-17.56,.45-1.83,4.85,.79,10.67,5.65,12.49,8.18,3.13,15.84-5.02,11.91-12.94h0Z"/>
    <path class="cls-16" d="M374.43,92.11c1.25,.84,2.42,.08,3.69,0,1.26-.06,2.49,.13,3.65-.59,0,0,.16,1.99,.16,1.99-1.85-.68-3.65,.29-5.54-.04-.61,.04-1.23,.06-1.8,.63l-.16-1.99h0Z"/>
    <g>
      <g>
        <path class="cls-12" d="M407.99,122.47s4.04,8.81-2.6,18.89c-11.18,16.98-44.28,13.42-57.31-.28-9.63-10.12-24.65-30.63-43.38-24.04-18.73,6.59-23.91-8.2-23.91-8.2,0,0,7.89,1.04,7.39-2.08-.5-3.11,4.47-7.3,4.47-7.3,0,0,1.88,6.98,8.25,6.66,6.36-.32,34-6.58,45.11,15.31,11.12,21.89,41.88,31.32,61.97,1.02Z"/>
        <path class="cls-16" d="M379.5,153.27c-12.27,0-24.89-4.6-31.78-11.84-1.2-1.26-2.48-2.68-3.84-4.18-9.67-10.71-22.92-25.39-39.01-19.73-6.43,2.26-12,2.3-16.55,.11-5.92-2.84-7.91-8.38-8-8.61-.06-.16-.03-.35,.08-.48,.11-.13,.28-.2,.45-.18,1.46,.19,5.49,.44,6.6-.7,.21-.22,.28-.47,.23-.8-.54-3.35,4.43-7.58,4.65-7.76,.13-.11,.31-.14,.47-.09,.16,.05,.29,.18,.33,.35,.07,.27,1.84,6.56,7.74,6.29,.73-.04,1.74-.15,3.02-.3,9.75-1.12,32.59-3.75,42.57,15.89,5.9,11.62,16.96,19.26,28.87,19.95,12.22,.71,23.66-6.04,32.24-18.99,.1-.15,.27-.23,.46-.22,.18,.01,.34,.12,.42,.29,.04,.09,4.08,9.18-2.64,19.38-4.28,6.49-12.13,10.56-22.11,11.45-1.39,.12-2.8,.18-4.2,.18Zm-67.39-38.03c13.27,0,24.19,12.1,32.51,21.33,1.35,1.5,2.63,2.91,3.82,4.17,7.48,7.87,21.94,12.53,35.17,11.35,9.67-.86,17.26-4.77,21.36-11.01,5.22-7.93,3.67-15.09,2.89-17.53-8.73,12.73-20.28,19.32-32.58,18.62-12.26-.71-23.64-8.56-29.7-20.5-9.66-19.02-32.02-16.45-41.56-15.35-1.3,.15-2.32,.27-3.08,.31-5.38,.28-7.77-4.42-8.5-6.29-1.52,1.42-4.08,4.3-3.75,6.35,.1,.64-.07,1.21-.5,1.65-1.32,1.36-4.91,1.23-6.6,1.09,1.34,2.9,7.16,12.7,22.96,7.14,2.6-.92,5.13-1.33,7.57-1.33Z"/>
      </g>
      <path class="cls-14" d="M396.09,142.9c-18.1,9.15-36.2,5.3-50.53-8.59-16.71-16.2-19.03-26.3-45.41-23.68,6.3-1.28,13.98-1.58,20.47,.52,4.41,1.49,8.24,4.35,11.45,7.66,4.8,4.89,9.01,10.31,13.79,15.19,13.65,14.13,32.79,16.05,50.23,8.89h0Z"/>
    </g>
    <g>
      <path class="cls-16" d="M403.2,68.27s-5.33,5.7,0,15.23c5.33,9.53,8.75,15.3,8.75,15.3,0,0,9.61-24.39-8.75-30.53Z"/>
      <path class="cls-16" d="M412.04,99.94l-.52-.88c-.03-.06-3.48-5.89-8.75-15.31-5.45-9.73,.02-15.75,.07-15.82l.22-.23,.3,.1c4.62,1.54,7.91,4.36,9.78,8.37,4.43,9.49-.51,22.28-.72,22.82l-.37,.95Zm-8.68-31.08c-.91,1.16-4.26,6.3,.27,14.4,4.06,7.25,7.03,12.37,8.2,14.37,1.06-3.2,3.95-13.41,.4-21.03-1.71-3.66-4.69-6.26-8.87-7.73Z"/>
    </g>
    <g>
      <path class="cls-16" d="M358.11,66.99s1.48-1.18-3.85,8.34c-5.33,9.53-8.75,20.81-8.75,20.81,0,0-5.76-23.02,12.6-29.15Z"/>
      <path class="cls-16" d="M345.47,98.02l-.44-1.76c-.06-.23-5.64-23.48,12.86-29.73,.23-.14,.5-.12,.7,.04,.38,.32,.78,.66-3.89,9-5.24,9.37-8.67,20.6-8.71,20.71l-.52,1.73Zm12.15-30.33c-13.96,5.15-12.83,20.95-11.98,26.43,1.21-3.62,4.17-11.87,8.18-19.04,2.55-4.55,3.47-6.54,3.79-7.4Z"/>
    </g>
    <path class="cls-16" d="M365.11,117.67c8.29,3.74,16.42,4.62,24.1-.98-1.33,1.76-2.98,3.44-5.08,4.42-6.15,3.26-14.19,1.24-19.03-3.45h0Z"/>
  </g>
  <g class="cls-1">
    <path class="cls-13" d="M717.93,349c0,3.98-144.35,7.21-322.42,7.21s-267.88-3.23-267.88-7.21,89.81-7.21,267.88-7.21,322.42,3.23,322.42,7.21Z"/>
  </g>
  <g>
    <g>
      <g>
        <path class="cls-3" d="M420.64,256.36s14.45,54.89,32.68,94.28c1.6,3.45,5.49,.04,5.93-4,2.66-24.32,2.93-45.96,11.41-66.48,8.48-20.52-.47-39.11-.47-39.11l-49.55,15.31Z"/>
        <path class="cls-16" d="M420.72,256.4c7.4,26.09,15.75,52.02,25.93,77.16,2.18,5.39,4.67,11.04,7.09,16.33,1.27,3.6,4.3-.44,4.63-2.56,2.59-22.13,2.38-45.79,11.11-66.97,1.72-4.13,2.93-8.41,3.47-12.83,1.09-8.76-.1-18.02-3.53-26.13,0,0,1,.44,1,.44l-12.3,3.67c-7.85,2.31-29.28,8.53-37.41,10.89h0Zm-.18-.1c14.04-4.51,35.47-11.73,49.39-16.06,0,0,.71-.23,.71-.23,4.84,10.78,5.93,23.14,2.96,34.57-1.94,6.53-4.87,12.67-6.39,19.33-3.97,15.23-4.95,31.26-6.6,46.91-.12,.95-.43,4.11-.55,5.07-.17,2.46-1.17,5.01-3.33,6.38-1.82,1.14-3.62,.1-4.25-1.81,0,0-.34-.78-.34-.78l-1.37-3.12c-1.79-4.05-3.62-8.47-5.24-12.57-9.93-25.34-18.05-51.4-24.98-77.71h0Z"/>
      </g>
      <g class="cls-1">
        <path class="cls-13" d="M472.14,256.49c-30.53,44.05-17.39,88.82-17.2,89.35,0,0-25.04-50.75-19.18-73.12,8.27-31.57,36.38-16.23,36.38-16.23Z"/>
      </g>
    </g>
    <g>
      <path class="cls-7" d="M445.69,154.62c-20.13,2.92-45.94,29.64-45.63,89.99,1.28,4.05,8.04,3.8,9.13-.26,12.33-52.27,32.41-56.38,32.41-56.38"/>
      <path class="cls-16" d="M445.71,154.72c-27.28,5.35-39.75,38.31-43.12,62.9-1.29,8.93-1.74,17.97-1.66,26.99l-.04-.25c.39,1.25,1.6,2.07,2.99,2.23,2.09,.28,4.26-.87,4.52-3,.55-2.36,1.16-4.88,1.8-7.2,4.44-15.74,10.53-32.18,22.82-43.53,2.53-2.13,5.31-4.16,8.57-4.97,0,0,.04,.2,.04,.2-6.12,2.35-10.55,7.7-14.23,12.93-7.31,10.86-11.67,23.4-15.25,35.91-.65,2.29-1.3,4.82-1.89,7.14,0,0-.16,.61-.16,.61-.07,.25-.16,.5-.27,.73-1.58,3.24-6.13,3.93-8.87,1.9-.85-.64-1.57-1.62-1.75-2.68,.07-9.1,.61-18.21,2.03-27.21,2.82-17.85,8.81-35.99,21.22-49.53,6.16-6.62,14.14-12.05,23.23-13.36,0,0,.03,.2,.03,.2h0Z"/>
    </g>
    <g>
      <g>
        <path class="cls-3" d="M445.86,240.9c6.57-29.67,48.7-25.1,58.04,.62,3.37,9.28-3.51,27.31-9.46,39.05-9.79,19.31-11.84,18.7-21.72,66.84-1.02,3.76-6,6.74-6.9,2.38-8.55-41.24-27.22-76.05-19.96-108.89Z"/>
        <path class="cls-16" d="M445.86,240.9c4.53-22.11,30.49-25.82,47.04-14.17,5.36,3.73,9.66,9.09,11.77,15.39,1.72,6.5,.06,13.18-1.65,19.45-3.48,12.58-10.37,23.76-15.87,35.46-2.63,5.83-4.49,11.99-6.17,18.21-3.01,10.95-5.06,22.13-7.7,33.18-1.02,2.41-3.88,5.33-6.72,3.96-1.04-.64-1.36-1.74-1.53-2.57-.33-1.58-.64-3.16-.99-4.73-.69-3.15-1.43-6.29-2.22-9.42-1.57-6.26-3.34-12.48-5.13-18.7-6.83-24.57-16.35-50.29-10.82-76.06h0Zm0,0c-6.54,31.44,9.49,64.27,17.19,94.43,1.28,4.69,2.45,9.42,3.49,14.17,.67,3.7,4.5,.27,5.15-1.72,4.64-20.38,7.46-41.83,18.09-60.24,6.16-11.67,16.78-31.91,13.83-45.11-8.14-26.04-51.13-31.46-57.76-1.53h0Z"/>
      </g>
      <g class="cls-1">
        <path class="cls-13" d="M485.86,270.16c-12.65,25.71-21.36,56.63-16.57,79.21,0,0-15.42-33.48-12.46-61.28,2.97-27.8,29.03-17.94,29.03-17.94Z"/>
      </g>
    </g>
    <g>
      <path class="cls-7" d="M437.99,158.46s-31.91,24.5-22.81,81.36c8.17,35.4,31.46,37.65,51.51,35.41,14.41-1.61,39.55-7.34,40.44-40.2,.89-32.86-7.1-43.24-17.44-67.66-3.26-7.69-3.43-6.68-6.09-15.29"/>
      <path class="cls-16" d="M438.05,158.54c-9.17,9.03-15.26,20.55-19.66,32.53-3.96,10.53-4.63,22.06-3.93,33.2,.86,20.09,7.55,43.46,29.41,49.09,6.09,1.63,12.53,1.82,18.89,1.38,12.51-.85,25.87-3.93,34.54-13.59,8.86-9.68,9.72-23.44,9.24-36-.2-12.89-3.04-25.55-8.2-37.36-3.86-8.85-7.7-17.74-11.58-26.58-1.37-2.93-2.32-6.03-3.26-9.11-.04-.12,.16-.18,.19-.06,1.76,6.23,4.82,11.93,7.34,17.85,2.59,5.9,5.38,11.7,7.96,17.62,2.56,5.92,4.84,12.01,6.27,18.34,2.17,9.45,2.64,19.29,2.47,28.95-.43,27.93-18.79,39.89-44.84,41.63-22.43,2.2-38.8-6.18-46.32-28.06-.97-2.7-1.73-5.48-2.4-8.27-.99-6.84-1.55-13.75-1.31-20.66,1.03-16.02,3.44-32.77,12.16-46.6,3.46-5.48,7.66-10.64,12.91-14.49,.1-.08,.22,.08,.12,.16h0Z"/>
    </g>
    <g class="cls-1">
      <circle class="cls-13" cx="458.29" cy="154.43" r="23.41"/>
    </g>
    <g class="cls-1">
      <path class="cls-13" d="M492,196.64s7.93,23.75,10.12,47.29c7.39-15.02,2.26-38.7-6.59-63.08l-3.52,15.79Z"/>
    </g>
    <g class="cls-1">
      <path class="cls-13" d="M416.01,223.43c5,15.72,23.6,42.05,66.97,40.16,2.01-.09,2.6,2.7,.72,3.41-14.2,5.34-39.6,11.94-53.56-2.08-13.99-14.06-19.11-31.66-17.55-41.21,.3-1.84,2.86-2.04,3.42-.27Z"/>
    </g>
    <g>
      <path class="cls-7" d="M432.15,123.5c-2.17,9.81-2.41,20.68,1.21,29.54,6.8,16.65,23.3,22.19,33.39,16.66,15.81-8.67,23.02-18.23,20-46.84-3.18-30.19-26.98-36.25-40.38-24.12-13.4,12.13-14.22,24.76-14.22,24.76Z"/>
      <path class="cls-16" d="M432.25,123.51c-2.89,12.85-1.72,27.6,7.15,37.89,5.54,6.57,14.41,11.18,23.13,9.38,4.32-1.01,8.1-3.67,11.7-6.18,12.02-8.52,13.25-22.49,12.15-36.06-.59-8.76-2.14-17.79-7.4-24.98-8.2-11.57-23.66-12.98-33.73-2.9-6.46,6.02-11.8,13.93-12.98,22.85h0Zm-.2-.03c1.19-9.01,6.11-17.2,12.32-23.7,6.17-7.09,16.74-10.03,25.52-6.21,13.55,5.6,17.85,21.5,18.19,34.85,.82,13.83-1.42,28.12-13.49,36.66-3.69,2.6-7.44,5.4-11.84,6.66-9.12,2.32-18.92-2.11-24.72-9.2-9.13-10.78-8.86-26.01-5.98-39.07h0Z"/>
    </g>
    <g>
      <path class="cls-7" d="M462.24,124.19c5.31-2.93,7.23,2.34,10.25,.49"/>
      <path class="cls-16" d="M462.24,124.19c.37-.76,1.07-.94,1.77-1.18,1.18-.34,2.49-.27,3.62,.16,1.3,.43,2.29,1.32,3.56,1.39,.39,.03,.59-.21,1.29,.13-.22,1.3-1.94,.93-2.79,.65-1.86-.77-3.44-1.88-5.47-1.46-.7,.13-1.16,.47-1.98,.32h0Z"/>
    </g>
    <g>
      <path class="cls-7" d="M448,124.19c-5.31-2.93-7.23,2.34-10.25,.49"/>
      <path class="cls-16" d="M448,124.19c-.82,.15-1.28-.19-1.98-.32-1.02-.17-2.05-.06-3.01,.35-1.22,.44-2.52,1.45-3.99,1.36-.58-.01-1.18-.2-1.26-.9,.7-.34,.9-.1,1.29-.13,1.27-.07,2.26-.96,3.56-1.39,1.13-.42,2.44-.49,3.62-.16,.7,.24,1.41,.43,1.77,1.18h0Z"/>
    </g>
    <g>
      <path class="cls-16" d="M445.15,143.99s8.78-2.51,17.32-1c0,0-5.77,16.56-17.32,1Z"/>
      <path class="cls-16" d="M454.45,151.15c-3.06,0-6.31-2.3-9.7-6.87l-.43-.58,.69-.2c.09-.03,8.99-2.52,17.54-1.02l.58,.1-.19,.55c-.1,.29-2.55,7.17-7.58,7.94-.3,.05-.6,.07-.91,.07Zm-8.44-6.87c3.31,4.28,6.41,6.24,9.2,5.81,3.66-.56,5.89-5.11,6.57-6.72-6.74-1.04-13.59,.38-15.77,.91Z"/>
    </g>
    <g>
      <path class="cls-7" d="M491.27,196.35c4.2-8.82,14.83-20.9,24.35-41.38,9.69-20.84,8.37-45.96-2.97-63.06-2.81-4.23-10-3.23-7.67,1.3,9.66,18.23,11.36,35.36-12.12,56.82"/>
      <path class="cls-16" d="M491.18,196.31c3.53-7.1,8.36-13.44,12.46-20.21,13.1-20.51,22.19-42.19,15.77-66.74-.97-3.79-2.3-7.48-4.02-10.98-1.33-2.45-2.51-5.21-4.54-7.15-1.74-1.61-6.95-1.73-4.9,1.75,0,0,.7,1.32,.7,1.32,6.46,11.99,8.57,25.36,1.74,37.71-3.84,7.11-9.42,12.99-15.45,18.1l-.13-.15c17.55-17.34,23.65-33.28,11.44-56.09-2.86-5.47,4.26-7.04,7.7-4.01,2.27,2.12,3.49,5.11,4.91,7.82,8.52,18.16,7.54,40.13-1.06,58.02-5.1,10.77-11.54,20.79-18.25,30.59-2.2,3.28-4.41,6.57-6.18,10.1l-.18-.09h0Z"/>
    </g>
    <g>
      <path class="cls-16" d="M443.48,104.53s26.49,.97,33.45,19.47c6.96,18.5,4.48,18.53-1.25,33.5-6.58,17.18,5.53,34.19,15.77,17.08,13.08-21.86-.78-66.49-6.57-74.98-5.79-8.49-27.13-22.21-43.95-6.72-16.82,15.49-11.92,41.43-16.82,49.84-4.91,8.41-16.82,7.53-16.82,7.53,0,0,1.49,18.85,13.28,19.84,2.18,.18,7.12,.77,7.12,.77l8.41-11.57s-11.56-29.77,7.39-54.76Z"/>
      <path class="cls-16" d="M482.48,182.2c-.94,0-1.86-.22-2.77-.66-5.49-2.67-8.69-13.27-4.5-24.22,.83-2.17,1.6-4.03,2.27-5.67,3.93-9.56,4.86-11.83-1.02-27.47-6.4-17.01-30.01-18.96-32.74-19.13-18.34,24.43-7.28,53.77-7.17,54.07l.1,.25-8.74,12.03-.29-.04s-4.95-.59-7.1-.77c-5.03-.42-9-4.09-11.49-10.61-1.85-4.85-2.23-9.49-2.25-9.69l-.05-.58,.58,.04c.12,.01,11.67,.75,16.36-7.29,1.61-2.76,2.15-7.65,2.77-13.32,1.22-11.09,2.89-26.27,14.15-36.64,6-5.53,13.01-7.88,20.83-6.98,10.2,1.17,19.91,7.98,23.87,13.79,3.12,4.57,8,18.37,10.44,32.67,2.21,12.92,3.33,30.84-3.85,42.84-2.88,4.81-6.19,7.36-9.4,7.36Zm-39.24-78.17h.26c.27,.02,26.9,1.21,33.9,19.8,6.02,16,5.06,18.34,1.01,28.2-.67,1.64-1.43,3.49-2.26,5.65-3.88,10.14-1.09,20.49,4,22.96,3.49,1.7,7.45-.61,10.87-6.32,12.9-21.55-.92-66.18-6.56-74.44-3.06-4.49-12.05-12.08-23.16-13.36-7.52-.86-14.26,1.4-20.04,6.72-10.98,10.11-12.56,24.47-13.83,36.01-.64,5.78-1.18,10.77-2.9,13.71-4.43,7.59-14.14,7.86-16.7,7.81,.37,3.1,2.66,17.96,12.77,18.82,1.86,.16,5.75,.61,6.84,.74l8.08-11.11c-1.07-3-10.41-31.29,7.56-54.98l.16-.21Z"/>
    </g>
  </g>
  <g>
    <g>
      <g>
        <path class="cls-7" d="M568.87,200.77c20.95,16.19,17.29,39.15,33.26,56.99,3.07,3.43,1.34,9.08-3.27,9.09-1.25,0-3.81-1.13-3.81-1.13-20.45-13.25-24.75-39.4-24.75-39.4"/>
        <path class="cls-16" d="M568.93,200.69c15.55,11.37,18,28.17,25.63,44.33,2.18,4.41,4.87,8.54,8.17,12.17,4.13,4.27,.72,12.18-5.51,10.37-.95-.28-1.84-.58-2.72-1-3.42-2.2-6.56-4.83-9.28-7.85-8.08-8.97-13.19-20.5-15.03-32.38,0,0,.2-.03,.2-.03,1.92,7.66,5.05,15.03,9.18,21.74,3.93,6.5,10.06,12.91,15.88,16.76,1.38,.54,2.88,1.32,4.36,.97,3.24-.7,3.82-5.25,1.67-7.47-3.31-3.81-6.03-8.14-8.17-12.68-4.46-9.39-6.74-19.71-11.54-28.9-3.13-6.12-7.56-11.59-12.98-15.87,0,0,.12-.16,.12-.16h0Z"/>
      </g>
      <g class="cls-1">
        <path class="cls-13" d="M572.59,229.41s.5,2.07,1.61,5.24c2.76,7.87,9.31,22.51,21.5,29.21,0,0-19.34-14.82-17.17-37.38l-5.94,2.93Z"/>
      </g>
    </g>
    <g>
      <g>
        <path class="cls-10" d="M568.12,257.8c-10.6-31.57-60.42,3.84-38.69,37.35,9.48,14.62,14.26,12.51,26.27,50.2,1.14,2.92,4.94,4.81,5.73,1.32,7.85-34.61,15.31-63.2,6.69-88.87Z"/>
        <path class="cls-16" d="M568.12,257.8c-10.31-28.94-50.45-1.04-42.41,27.02,1.88,7.31,6.73,13.25,11.37,19.04,8.42,9.71,13.05,21.92,17.08,33.92,0,0,2.32,7.21,2.32,7.21,.41,1.4,2.98,4.06,4.02,2.01,.28-.78,.66-2.63,.89-3.54,2-8.4,4.22-17.4,6-25.83,4.12-19.57,7.25-40.43,.72-59.84h0Zm0,0c6.53,19.38,3.78,40.31,.14,60.01-1.71,9.11-3.87,18.75-5.82,27.83-.59,5.72-5.92,4.13-7.57-.08-2.31-6.97-4.96-14.58-7.81-21.28-1.99-4.6-4.2-9.1-6.99-13.21-2.73-4.14-6.21-7.85-9.13-12.06-27.1-34.92,25.88-74.1,37.18-41.21h0Z"/>
      </g>
      <g class="cls-1">
        <path class="cls-13" d="M526.86,287.74c15.19,17.36,28.41,39.59,29.39,58.14,0,0,5.02-29.25-3.08-50.24-8.1-21-26.31-7.9-26.31-7.9Z"/>
      </g>
    </g>
    <g>
      <g>
        <path class="cls-10" d="M513.52,275.94s.02,6.75,3.96,18.49c4.41,13.12,12.69,32.37,10.64,53.08-.3,3.05,5.84,.22,7.84-2.36,14.24-18.32,13.12-36.17,13.69-52.04,.64-17.86,4.48-31.46,4.48-31.46l-40.62,14.29Z"/>
        <path class="cls-16" d="M513.6,276c1.06,14.23,8.09,27.05,11.74,40.71,2.66,9.41,4.26,19.28,3.61,29.1,0,0-.1,1.34-.1,1.34-.05,.5-.05,.78,.02,.85,.02,.05,.22,.16,.58,.13,1.97-.23,3.89-1.46,5.35-2.78,4.98-6,8.62-13.25,10.73-20.74,2.85-9.76,2.77-21.27,3.12-31.44,.45-10.72,1.95-21.34,4.69-31.74,0,0,1.08,1.02,1.08,1.02-11.32,3.84-29.31,9.81-40.81,13.56h0Zm-.16-.12c11.47-4.25,29.02-10.97,40.42-15.02,0,0,1.48-.54,1.48-.54l-.4,1.56c-2.58,10.21-3.87,20.82-4.28,31.35-.1,18.54-1.3,35.71-13.08,51.02-.49,.6-1.15,1.62-1.76,2.15-1.77,1.85-8.82,5.71-8.34,.61,1.01-10.11-.46-20.26-3.06-30.06-3.36-13.72-10.33-26.76-10.97-41.08h0Z"/>
      </g>
      <g class="cls-1">
        <path class="cls-13" d="M554.32,274.18c-28.36,32.52-21.84,69.51-21.74,69.95,0,0-15.5-42.84-8.82-60.21,9.43-24.52,30.56-9.74,30.56-9.74Z"/>
      </g>
    </g>
    <g>
      <path class="cls-7" d="M523.79,197.52c.97,10.48-22.68,27.77-15.83,68.8,6.3,25.53,27.31,31.89,43.58,30.09,11.69-1.3,32.21-13.63,33.23-37.4,1.02-23.77-2.6-33.96-10.77-51.52q-2.57-5.53-7.55-8.25"/>
      <path class="cls-16" d="M523.89,197.51c.48,3.08-.89,6.1-2.12,8.83-1.27,2.76-2.72,5.4-4.1,8.06-2.7,5.34-5.5,10.61-7.48,16.28-3.84,11.4-3.15,23.78-1.18,35.46,3.34,14.33,13.68,25.88,28.75,28.76,5.26,1.05,10.88,1.3,16.16,.26,8.82-2.06,16.74-7.49,22.34-14.57,7.33-9.08,8.42-19.78,8.13-31.04,.03-11.06-2.04-22.04-6.36-32.26-1.38-3.42-2.89-6.79-4.41-10.16-.79-1.66-1.45-3.43-2.65-4.78-1.25-1.31-2.98-2.1-4.56-3.03-.12-.05-.01-.24,.1-.18,2.44,1.25,5.12,2.64,6.26,5.32,2.07,4.14,3.99,8.34,5.81,12.6,4.5,10.18,6.79,21.32,6.86,32.46,.43,11.52-.63,22.52-8.05,31.93-9.84,12.61-24.2,18.49-40,15.29-15.7-2.72-27-14.87-30.45-30.19-2.08-12.06-.75-24.41,2.5-36.12,1.5-5.87,3.7-11.61,6.7-16.87,1.45-2.66,3.02-5.23,4.51-7.82,1.4-2.59,2.97-5.23,3.04-8.24,0-.12,.18-.13,.2-.02h0Z"/>
    </g>
    <g>
      <path class="cls-7" d="M525.03,199.33c-14.2,3.76-35.47,28.07-30.26,71.34,1.25,2.8,6.09,2.06,6.53-.94,4.53-38.52,20.68-41.04,20.68-41.04"/>
      <path class="cls-16" d="M525.06,199.42c-19.43,6.6-28.91,31.58-30.08,50.52-.61,6.47-.02,14.9,.58,20.37,.95,2.06,4.88,1.28,4.83-1.06,1.27-11.18,3.8-22.73,10.33-32.11,2.79-3.81,6.46-7.56,11.24-8.55,0,0,.03,.2,.03,.2-10.65,4.03-15.16,18.44-17.57,28.6-.87,4-1.59,8.06-2.13,12.12-.07,.72-.33,1.51-.8,2.08-1.92,2.51-6.56,2.32-7.59-.82-1.5-13.87-.69-28.19,4.09-41.39,3.57-9.8,9.34-19.09,17.72-25.44,2.78-2.09,5.9-3.82,9.27-4.71,0,0,.05,.19,.05,.19h0Z"/>
    </g>
    <g class="cls-1">
      <ellipse class="cls-13" cx="547.12" cy="209.5" rx="26.89" ry="23.41"/>
    </g>
    <g class="cls-1">
      <path class="cls-13" d="M512.51,256.49c4.53,12.12,20.14,32,54.01,28.81,1.57-.15,2.14,2.01,.7,2.64-10.91,4.74-30.54,10.91-42.02,.48-11.51-10.46-16.21-24.04-15.36-31.58,.16-1.45,2.16-1.71,2.67-.35Z"/>
    </g>
    <g>
      <path class="cls-7" d="M528.24,172c-3.82,8.69-6.05,18.72-4.34,27.59,3.23,16.68,21.65,25.69,32.02,22.43,16.25-5.12,20.54-13.47,23.02-40.53,2.62-28.56-18.3-38.56-32.96-29.8-14.66,8.76-17.75,20.31-17.75,20.31Z"/>
      <path class="cls-16" d="M528.33,172.03c-4.96,11.38-7,25.68,.16,36.53,4.58,6.91,12.08,12.15,20.35,13.46,4.25,.79,8.39-.56,12.25-2.27,3.9-1.69,7.41-4.31,9.82-7.79,2.37-3.51,3.73-7.6,4.65-11.73,.89-4.16,1.46-8.39,1.9-12.64,.64-6.28,1.31-12.69-.09-18.91-1.89-10.21-9.92-19.29-20.83-19.12-11.2-.16-24.86,12.07-28.2,22.47h0Zm-.19-.07c3.35-9.76,12.33-18.97,21.8-23,11.2-4.21,23.17,2.14,27.49,12.96,3.52,8.17,2.92,17.27,1.7,25.87-.56,4.27-1.26,8.54-2.38,12.73-3.06,12.23-9.42,18.57-21.5,22.06-10.81,2.37-22.4-4.06-28.27-13.05-7.41-11.41-3.86-25.96,1.15-37.57h0Z"/>
    </g>
    <path class="cls-16" d="M547.14,214.2c3.78,2.34,8.04,1.68,12.25,1.65-3.42,2.96-10.34,3.07-12.25-1.65h0Z"/>
    <path class="cls-16" d="M584.04,170.51c-.08-.9-.47-1.74-1.02-2.41-1.51-1.85-2.87-2.05-4.13-1.83,1.74-1.27,2.9-3.48,2.69-6.02-.18-2.21-1.52-4.15-3.39-5.01-1.67-.77-3.28-.58-4.67,.11,.16-7.48-5.01-13.76-11.99-14.25-3.72-.26-7.22,1.17-9.87,3.69-1.29,1.23-3.09,1.38-4.62,.65-.71-.34-1.49-.55-2.32-.61-2.52-.18-4.85,1.1-6.3,3.16-.85,1.21-2.15,1.88-3.52,1.78s-2.94,.14-4.58,.91c-3.04,1.42-5.47,4.3-6.22,7.78-.44,2.04-.34,4.03,.18,5.81,.37,1.26-.05,2.62-1.02,3.48-2.19,1.94-3.55,4.98-3.25,8.39,.1,1.18,.42,2.29,.92,3.3,.4,.82,.43,1.76,.11,2.65-.18,.51-.24,1.08-.15,1.69,.17,1.1,1.68,5.26,2.67,5.59,1.66,.55,2.53-3.74,3.01-5.38,5.15,1.11,10.01-2.97,10.51-8.5,.08-.92,.04-1.82-.11-2.67-.18-1.01,.39-1.99,1.25-2.46,.07-.04,.13-.07,.2-.11,.82-.48,1.77-.35,2.46,.28,1.21,1.11,2.75,1.83,4.48,1.95,2.41,.17,4.67-.85,6.3-2.59,.96-1.03,2.4-1.29,3.63-.79,1.14,.46,2.36,.75,3.64,.84,0,0,.02,0,.02,0-.02,.17-.05,.33-.07,.5-.55,6.09,3.54,11.35,9.14,11.75,4.25,.3,8.15-2.29,10.02-6.22,.32,.1,.65,.18,1,.2,2.82,.2,5.3-2.42,5.02-5.64Z"/>
    <path class="cls-16" d="M541.14,194.19c2.16-1.24,4.66-2.36,7.21-2.41,.88,.1,1.77,.35,2.49,.95,0,0-.04,.15-.04,.15-1.71,.41-3.1,.48-4.79,.5-1.59,.16-3.21,.5-4.8,.95l-.06-.14h0Z"/>
    <path class="cls-16" d="M559.83,196.85c2.57-.71,5.38-1.37,8.07-.93,.9,.26,1.82,.68,2.43,1.47,0,0-.07,.13-.07,.13-1.55-.03-3.62-.21-5.13-.48-1.74-.16-3.51-.13-5.26-.05,0,0-.03-.15-.03-.15h0Z"/>
  </g>
  <g>
    <g>
      <g>
        <path class="cls-7" d="M324.74,197.08c10.07,9.24,26.65,29.26,27.01,70.92-1.29,2.9-6.29,2.13-6.75-.97-8.74-38.3-22.76-34.17-22.76-34.17"/>
        <path class="cls-16" d="M324.81,197.01c9.77,8.71,16.99,20.09,21.35,32.41,4.36,12.45,6.38,25.79,6.38,38.93-1.6,3.72-7.91,2.8-8.49-1.18-2.8-10.51-8.41-33.98-21.84-34.4,3.78-.92,7.52,1.36,10.17,3.88,7.9,8.08,11.08,19.45,13.56,30.17,.18,1.73,2.46,2.51,3.93,1.88,.5-.21,.88-.57,1.1-1.05l-.07,.36c0-12.93-1.59-25.95-5.72-38.25-2.07-6.13-4.76-12.07-8.19-17.57-3.41-5.52-7.56-10.58-12.3-15.03,0,0,.14-.15,.14-.15h0Z"/>
      </g>
      <g class="cls-1">
        <path class="cls-13" d="M331.29,227.5s1.49,1.58,3.58,4.3c5.18,6.75,14.04,20.54,12.95,34.7,0,0-1.86-24.82-22.35-35.56l5.82-3.44Z"/>
      </g>
    </g>
    <g>
      <g>
        <path class="cls-2" d="M330.59,256.9c-7.44-33.61-62.53-2.66-43.87,34.16,8.15,16.07,13.29,14.42,21.51,54.49,.85,3.13,4.55,5.49,5.75,1.98,11.86-34.72,22.66-63.3,16.61-90.63Z"/>
        <path class="cls-16" d="M330.59,256.9c-8.24-34.63-65.03-.13-41.11,37.38,2.52,4.5,5.7,8.68,8.19,13.39,2.56,4.66,4.33,9.68,5.86,14.71,2.19,7.29,3.97,15.44,5.51,22.91,.28,1.5,2.66,4.54,3.97,2.51,.37-.78,.97-2.63,1.31-3.54,2.98-8.42,6.24-17.43,8.98-25.9,6.4-19.67,11.79-40.78,7.28-61.44h0Zm0,0c4.66,20.64-.56,41.86-6.44,61.71-3.04,9.87-6.35,20.19-9.77,29.94-2.1,3.62-6.45,.08-7-2.88,0,0-1.69-7.66-1.69-7.66-1.19-5.07-2.46-10.12-3.99-15.08-1.55-4.95-3.35-9.81-5.75-14.35-2.36-4.56-5.5-8.77-8.05-13.41-24.14-38.82,34.79-73.35,42.68-38.27h0Z"/>
      </g>
      <g class="cls-1">
        <path class="cls-13" d="M284.9,283.17c13.72,19.51,24.87,43.81,23.85,63,0,0,8.36-29.52,2.34-51.99-6.03-22.47-26.18-11-26.18-11Z"/>
      </g>
    </g>
    <g>
      <g>
        <path class="cls-2" d="M264.13,276.36s.79,6.94,6.19,18.55c6.03,12.98,16.75,31.81,17.02,53.32,.04,3.17,6.02-.45,7.79-3.33,12.53-20.46,10.73-38.97,9.5-55.33-1.39-18.43-.39-32.55-.39-32.55l-40.1,19.34Z"/>
        <path class="cls-16" d="M264.21,276.41c2.72,14.51,11.41,26.89,16.72,40.52,3.98,9.79,6.83,20.25,7.08,30.89,0,.53,.05,.77,.13,.85,.32,.21,1.31-.05,1.78-.31,2.4-1.14,4.26-2.97,5.46-5.37,7.48-12.63,9.83-27.43,8.95-41.94-.94-14.6-2-29.39-.94-44.08,0,0,1.2,.81,1.2,.81-11.19,5.25-28.98,13.46-40.37,18.63h0Zm-.18-.1c11.3-5.67,28.57-14.57,39.82-20.05,0,0,1.27-.63,1.27-.63l-.07,1.44c-.87,14.63,.4,29.27,1.35,43.88,.82,14.76-1.97,30.03-9.72,42.78-1.3,2.54-3.51,4.73-6.17,5.91-1.9,.91-4.05,.7-3.88-1.82-.12-10.51-2.8-20.79-6.59-30.56-5.03-13.73-13.69-26.32-16-40.97h0Z"/>
      </g>
      <g class="cls-1">
        <path class="cls-13" d="M278.96,272.63c25.41,36.66,14.47,73.93,14.32,74.37,0,0,16.71-29.85,11.84-48.47-6.88-26.28-26.15-25.9-26.15-25.9Z"/>
      </g>
    </g>
    <g>
      <path class="cls-7" d="M274.81,192.36c1,10.83-23.45,28.71-16.36,71.14,6.51,26.39,28.24,32.97,45.06,31.11,12.09-1.34,33.3-14.09,34.36-38.67,1.06-24.58-2.69-35.11-11.13-53.27"/>
      <path class="cls-16" d="M274.91,192.35c.48,3.18-.94,6.3-2.21,9.12-1.32,2.85-2.81,5.58-4.25,8.33-2.8,5.52-5.69,10.97-7.72,16.84-3.96,11.79-3.28,24.59-1.25,36.67,3.15,13.63,12.8,25.41,26.92,29.07,6.68,1.8,13.97,2.31,20.74,.68,13.48-3.73,25.03-14.68,28.75-28.27,1.9-6.83,1.62-14.09,1.59-21.13-.21-7.11-1.07-14.21-3.08-21.05-1.85-6.89-5.1-13.52-7.71-20.05,4.86,9.41,9.03,19.74,10.71,30.36,1.09,7.09,1.27,14.3,1.05,21.46-.06,3.58-.44,7.23-1.39,10.73-3.68,14.13-15.51,25.59-29.49,29.54-7.09,1.76-14.62,1.39-21.67-.39-14.73-3.6-25.24-15.99-28.48-30.51-2.15-12.46-.81-25.23,2.56-37.33,1.56-6.06,3.85-11.99,6.94-17.44,1.5-2.75,3.12-5.41,4.66-8.08,1.44-2.68,3.06-5.42,3.13-8.53,0-.12,.18-.14,.2-.02h0Z"/>
    </g>
    <g class="cls-1">
      <ellipse class="cls-13" cx="298.12" cy="195.73" rx="26.61" ry="23.41"/>
    </g>
    <g class="cls-1">
      <path class="cls-13" d="M263.15,253.33c4.69,12.53,20.82,33.08,55.85,29.78,1.62-.15,2.22,2.08,.72,2.73-11.28,4.9-31.57,11.28-43.45,.49-11.9-10.81-16.76-24.85-15.88-32.65,.17-1.5,2.23-1.77,2.76-.36Z"/>
    </g>
    <g>
      <path class="cls-7" d="M270.94,170.64c-2.11,9.58-2.36,17.45,1.18,26.1,6.64,16.26,25.76,21.68,35.62,16.27,15.45-8.47,17-15.93,16.53-43-.51-29.65-26.35-35.41-39.44-23.56s-13.89,24.18-13.89,24.18Z"/>
      <path class="cls-16" d="M271.04,170.65c-3.13,12.31-.96,26.55,8.57,35.49,6.06,5.69,14.65,9.28,23.04,8.12,4.24-.6,7.92-3.15,11.34-5.59,7.5-5.42,9.25-13.93,9.45-22.68-.03-12.33,1.59-26.47-6.95-36.55-6.65-8.16-19.15-10.08-28.1-4.66-8.63,5.67-15.87,15.5-17.34,25.87h0Zm-.2-.03c1.14-8.64,5.83-16.54,11.72-22.82,5.87-6.88,15.71-9.82,24.39-7.1,14.04,4.17,18.85,19.04,18.25,32.37-.3,10.54,.49,22.62-6.16,31.52-2.7,3.46-6.4,5.94-10.13,8.14-1.85,1.15-3.96,2.01-6.11,2.42-8.75,1.61-18.03-1.66-24.44-7.72-10.07-9.42-10.69-24.24-7.53-36.82h0Z"/>
    </g>
    <g>
      <path class="cls-7" d="M305.13,174.92c5.49-3.03,7.48,2.42,10.59,.51"/>
      <path class="cls-16" d="M305.13,174.92c.39-.77,1.12-.96,1.84-1.21,1.22-.35,2.57-.27,3.73,.16,1.34,.44,2.37,1.37,3.69,1.44,.4,.03,.62-.22,1.34,.11-.25,1.32-2.01,.94-2.88,.65-1.92-.79-3.57-1.94-5.67-1.51-.72,.13-1.21,.48-2.05,.34h0Z"/>
    </g>
    <g>
      <path class="cls-7" d="M293.25,174.92c-5.49-3.03-7.48,2.42-10.59,.51"/>
      <path class="cls-16" d="M293.25,174.92c-.84,.14-1.33-.21-2.05-.34-2.1-.43-3.75,.71-5.67,1.51-.88,.29-2.63,.67-2.88-.65,.71-.33,.93-.08,1.34-.11,1.32-.07,2.35-1,3.69-1.44,1.17-.44,2.52-.51,3.73-.16,.72,.24,1.45,.44,1.84,1.21h0Z"/>
    </g>
    <g>
      <path class="cls-16" d="M290.31,188.26s9.08-2.59,17.9-1.04c0,0-5.97,17.13-17.9,1.04Z"/>
      <path class="cls-16" d="M299.92,195.65c-3.15,0-6.52-2.38-10.01-7.09l-.43-.58,.69-.2c.09-.03,9.3-2.61,18.13-1.05l.58,.1-.19,.55c-.1,.3-2.63,7.4-7.83,8.19-.31,.05-.62,.07-.94,.07Zm-8.76-7.09c3.44,4.45,6.64,6.48,9.55,6.03,3.82-.58,6.12-5.33,6.81-6.98-7.01-1.09-14.13,.4-16.36,.94Z"/>
    </g>
    <g>
      <path class="cls-16" d="M324,179.77c6.42-25.15-13.57-62.79-49.17-34.8-16.3,12.82-5.56,38.87-5.56,38.87,0,0,8.67-27.37,31.23-31.75,20.08-3.9,23.49,27.68,23.49,27.68Z"/>
      <path class="cls-16" d="M269.33,185.3l-.52-1.27c-.11-.26-10.7-26.55,5.71-39.45,13.47-10.6,26.4-12.84,36.4-6.33,11.44,7.45,17.52,26.13,13.56,41.65l-.68,2.68-.3-2.75c-.02-.18-2.05-17.94-11.4-24.84-3.3-2.44-7.17-3.25-11.5-2.41-22.01,4.27-30.76,31.14-30.85,31.41l-.42,1.31Zm29.09-49.76c-6.2,0-13.95,2.49-23.29,9.83-13.78,10.84-7.73,31.67-5.87,37.01,2.1-5.55,11.41-26.94,31.14-30.78,4.62-.89,8.75-.03,12.29,2.58,7.54,5.56,10.44,17.43,11.39,22.81,2.59-14.55-3.24-31.09-13.71-37.91-3.02-1.97-7-3.55-11.95-3.55Z"/>
    </g>
    <g>
      <path class="cls-16" d="M280.95,148.27s-.64-17.73-10.54-19.41-22.6,6.21-22.5,20.33-.82,13.64-4.37,14.27,13.36,1.61,16.24-9.71c2.88-11.32,15.88-15.84,21.17-5.46Z"/>
      <path class="cls-16" d="M244.11,164.29c-.29,0-.52-.01-.69-.03-.25-.03-.85-.09-.87-.61-.02-.52,.58-.63,.9-.69l.44-.08c2.92-.49,3.61-.61,3.51-13.7-.05-6.38,2.52-12.1,7.22-16.1,4.49-3.82,10.57-5.63,15.86-4.73,10.18,1.74,10.92,19.15,10.95,19.89l.08,2.26-1.03-2.01c-2-3.92-5.37-5.91-9.21-5.49-5.01,.56-9.54,5.02-11.02,10.85-2.27,8.93-12.82,10.42-16.15,10.42Zm23.62-35.15c-4.32,0-8.9,1.7-12.45,4.72-4.47,3.8-6.91,9.25-6.87,15.33,.07,9.86-.32,12.83-1.98,13.95,1.91-.25,4.42-.85,6.8-2.12,3.21-1.72,5.25-4.21,6.06-7.39,1.58-6.22,6.47-10.99,11.88-11.6,3.63-.41,6.85,1.1,9.09,4.19-.53-4.66-2.55-15.59-9.94-16.85-.85-.14-1.72-.22-2.6-.22Z"/>
    </g>
    <g>
      <path class="cls-7" d="M276.68,225.7c-15.18,.52-37.68-24.99-43-58.82,.4-3.15,5.41-3.86,6.75-1.02,15.99,36.78,32.73,34.44,32.73,34.44"/>
      <path class="cls-16" d="M276.68,225.8c-6.61,.16-12.54-3.68-17.42-7.79-14.64-13.09-23.24-32.06-26.44-51.24,.45-3.96,6.59-4.97,8.41-1.43,.15,.29,.83,1.78,.98,2.1,5.69,11.68,12.26,24.37,24.04,30.86,2.13,1.07,4.47,1.9,6.88,1.9,0,0,.03,.2,.03,.2-5.03,.43-9.78-2.18-13.67-5.12-9.38-7.43-15.33-18.27-19.98-29.08-.94-1.96-4.72-1.4-4.99,.79,.79,5.05,2.53,12.7,4.68,18.36,5.48,14.6,14.38,29.85,28.28,37.76,2.83,1.48,5.96,2.55,9.18,2.49v.2h0Z"/>
    </g>
  </g>
  <g>
    <g>
      <g>
        <path class="cls-7" d="M641.77,340.65c-21.14-11.81-6.92-28.13-6.92-28.13-22.33-7.63-27.32-28.3-24.2-35.8,.98-2.34,4.43-9.63,6.62-8.35l31.67,19.76c2.18,1.27,2.92,9.97,2.96,12.49l.19,14.22c11.45,1.44,27.79-6.22,31.31-1.43,1.64,2.24,2.64,4.68,3.04,7.19,2.14,13.63-13.54,29.28-40.22,25.73"/>
        <path class="cls-16" d="M641.77,340.65c-12.79-5.52-16.32-17.59-7.58-28.71,0,0,.38,1.4,.38,1.4-9.96-3.29-18.84-10.45-23.12-20.18-2.66-5.99-4.07-13.43-.59-19.41,1.23-2.18,3.19-6.83,6.24-6.58,.53,.05,1.2,.58,1.63,.82,10.1,6.24,20.2,12.51,30.26,18.83,1.77,.86,2.45,2.99,2.87,4.69,.64,2.62,.93,5.21,1.1,7.83,.13,5.23,.14,10.3,.22,15.46l-.95-1.06c3.73,.45,7.63-.03,11.47-.66,3.86-.64,7.7-1.55,11.7-2.09,2.9-.33,7.33-.86,9.19,2.27,3.05,4.31,3.84,10.04,2.3,15.03-5.27,16.22-25.56,21.88-40.67,18.03,3.97,.09,7.89,0,11.75-.46,7.6-.96,15.26-3.47,20.92-8.74,6.59-5.84,9.45-16.47,3.23-23.52-1.83-1.12-4.18-.72-6.45-.5-3.83,.52-7.69,1.44-11.62,2.1-4.21,.72-8.63,1.24-13.04,.59-.1-5.42-.14-10.96-.28-16.31-.23-3.09-.53-6.23-1.58-9.1-.42-.94-.49-1.15-1.33-1.62-10.1-6.26-20.17-12.57-30.22-18.9,0,0-.82-.51-.82-.51-.09-.06-.09-.05-.08-.04-.17,.01-.67,.34-1.04,.78-1.89,2.23-3.4,5.26-4.37,7.97-1.18,4.68,.05,9.91,1.95,14.32,4.01,9.28,12.39,16.11,21.89,19.33,0,0,1.19,.41,1.19,.41l-.81,.99c-8.37,10.69-4.43,20.64,6.26,27.56h0Z"/>
      </g>
      <g>
        <path class="cls-16" d="M630.06,275.69l-11.03-6.43c-2.19-1.28-5.02-.36-6.01,1.97-1.18,2.77-3.15,4.55-2.83,9.25,7.25,2.8,19.86-4.79,19.86-4.79Z"/>
        <path class="cls-16" d="M630.01,275.69c-2.29-1.19-7.72-4-9.86-5.26-.88-.49-2.09-1.39-3.14-1.39-1.8-.17-3.49,1.04-4.07,2.76,0,0-.86,1.66-.86,1.66-1.26,2.13-1.76,4.55-1.48,7,0,0-.26-.36-.26-.36,3.24,1.07,6.77,.26,10-.63,3.3-.94,6.56-2.38,9.67-3.77h0Zm.1,0c-5.59,3.69-13.61,7.62-20.32,5.08-.08-1.36,.04-2.74,.42-4.04,.52-1.85,1.64-3.37,2.45-5.06,.62-1.84,2.32-3.35,4.37-3.32,1.35-.06,2.55,.72,3.66,1.37,3.17,1.85,6.48,4.07,9.42,5.98h0Z"/>
      </g>
      <path class="cls-16" d="M659.87,343.38c.18,1.02-.07,2.02-.62,2.81,0,0-5.62,.38-6.21-.05-.28-.42-.49-.91-.58-1.44-.37-2.05,1-4,3.04-4.37s4,1,4.37,3.04Z"/>
      <path class="cls-16" d="M677.44,311.89c1.12,3.02,.52,6.55-1.84,9.06-3.32,3.53-8.87,3.7-12.4,.38-1.7-1.6-2.62-3.72-2.75-5.88-.13-2.32,16.53-4.79,16.99-3.55Z"/>
    </g>
    <path class="cls-5" d="M629.46,305.21h0c-1.72,.6-4.49-.14-5.09-1.86,0,0-.99-2.17-1.26-6.32l4.87-.8c-.57,2.78,3.52,4.77,3.52,4.77,.6,1.72-.31,3.61-2.03,4.21Z"/>
    <g>
      <path class="cls-7" d="M616.04,298.08s6.93,1.86,11.79-2.16"/>
      <path class="cls-16" d="M616.17,297.6c3.86,1.05,8.37,.8,11.66-1.68-.79,.66-1.64,1.28-2.6,1.7-2.9,1.33-6.19,1.52-9.32,.94,0,0,.26-.97,.26-.97h0Z"/>
    </g>
    <g>
      <path class="cls-7" d="M638.91,273.62s6.11,.58,3.68,9.21"/>
      <path class="cls-16" d="M638.92,273.52c1.59-.6,3.61,.31,4.29,1.87,1.08,2.41,.52,5.15-.52,7.47,0,0-.19-.05-.19-.05,.03-.48,.07-.95,.12-1.42,.14-2.2-.2-4.32-1.83-5.83-.47-.6-1.08-1.16-1.89-1.84l.02-.2h0Z"/>
    </g>
    <g>
      <path class="cls-7" d="M629.6,267.36s-2.88-1.55-5.29,1.5"/>
      <path class="cls-16" d="M629.55,267.44c-.65,.3-1.07,.43-1.47,.53-.37,.12-.75-.12-1.16-.08-.4,.05-.83,.13-1.25,.31-.44,.16-.84,.43-1.28,.7l-.16-.12c.56-1.47,2.32-3.07,4.01-2.81,.6,.18,1.16,.56,1.4,1.29,0,0-.1,.18-.1,.18h0Z"/>
    </g>
    <g>
      <g>
        <path class="cls-16" d="M640.89,300.76c-2.61,4.14-6.32,19.36-3.42,28.18,3.91,12.55,15.9,10.75,18.87,4.61,1.34-4.05-8.08-28.38-5.46-40.12,.03-.53,.07-1.01,.1-1.44,.08-1-.87-1.57-1.64-.94-2.61,2.05-6.94,6.56-8.46,9.72Z"/>
        <path class="cls-16" d="M640.93,300.79c-3.27,6.9-4.6,15.12-3.89,23.17,.44,8.6,6.08,15.29,12.75,13.97,2.26-.33,4.24-1.64,5.68-3.42,.37-.62,.92-1.25,.95-2,.12-.99-.08-2.03-.29-3.04-.98-4.02-2.42-7.96-3.42-12.1-1.81-7.01-2.9-15.16-2.3-23.12,0-.39,.22-2.15,.2-2.51-.13-.69-.83-.8-1.35-.26-3.11,2.5-6.19,5.44-8.33,9.3t0,0Zm-.08-.06c2.11-3.93,5.11-7,8.11-9.76,.75-.89,2.14-.66,2.36,.53,.08,.61-.07,2.08-.06,2.72-.34,3.66,.14,13.35,2.13,21.59,1.68,8.44,4.89,15.43,2.82,18.28-3.67,5.99-13.6,6.39-17.93-1.99-2.48-5.01-2.53-10.93-1.89-16.29,.72-5.34,2.2-10.48,4.46-15.08t0,0Z"/>
      </g>
      <path class="cls-16" d="M644.43,316.66c-.38,3.33-2.73,5.95-5.6,5.65-1.01-.12-1.94-.61-2.71-1.4,.24-3.94,.78-7.82,1.61-11.59,.84-.33,1.75-.38,2.64-.11,2.75,.87,4.42,4.11,4.06,7.45Z"/>
      <g class="cls-1">
        <path class="cls-13" d="M654.97,335.39c1.59,.73-21.63-.57-15.21-32.39-.11-.57-4.49,10.76-2.84,20.8,1.09,9.99,8.2,18.69,18.05,11.59Z"/>
      </g>
    </g>
    <path class="cls-16" d="M681.35,313.5c1.26-.83,2.38-1.26,3.48-1.83,3.31-1.74,4.77-5.68,4.2-9.28-.49-3.62-2.77-6.97-6.09-8.55-1.28-.64-2.41-.72-3.43-2.03,1.44-1,2.9-.45,4.29,.16,6.96,2.79,10.06,12.49,5.24,18.49-1.83,2.15-4.8,4.07-7.69,3.05h0Z"/>
    <g>
      <g>
        <path class="cls-7" d="M677.48,333.87s1.72,4.47-4.02,6.3-14.51,2.34-12.86,8.43c.8,2.94,5.41,.61,6.62-1.36s6.94-.25,11.63-1.8,8.32-14.13,8.58-20.96,.19-11.65-5.49-12.91c-5.68-1.25-4.21,1.23-4.21,1.23"/>
        <path class="cls-16" d="M677.52,333.85c2.14,7.1-7.74,7.19-12.13,8.98-1.61,.61-3.48,1.33-4.27,2.93-.5,1.01-.53,2.69,.26,3.58,1.75,1.19,4.65-.69,5.7-2.2,.3-.46,.8-.68,1.27-.8,3.22-.62,6.64,.01,9.79-.99,5.54-1.65,8.06-14.26,8.67-19.43,.33-6.79,1.48-14.11-7.55-14.54-.91-.07-2.04,.27-1.49,1.39,0,0-.09,.05-.09,.05-.72-1.18,.55-1.79,1.57-1.76,6.21-.11,8.69,3.37,8.72,9.25,.25,5.72-.72,11.46-2.74,16.8-1.03,2.66-2.24,5.39-4.34,7.41-3.44,2.95-8.41,1.24-12.46,2.12-.43,.12-.85,.33-1.06,.68-.53,.84-1.3,1.46-2.11,1.97-1.2,.72-2.95,1.51-4.27,.53-1.12-1.11-1.18-2.98-.61-4.4,.44-.97,1.25-1.67,2.08-2.2,2.48-1.51,5.41-1.95,8.15-2.65,4.03-.87,7.59-1.95,6.92-6.7h0Z"/>
      </g>
      <g class="cls-1">
        <path class="cls-13" d="M661.54,349.8c-.81-.85-1.18-2.3,1.48-4.05,3.44-2.25,14.63-.6,22.25-13.05-1.49,2.62-1.88,9.99-7.41,11.84-5.53,1.85-9.99,.4-10.86,1.1s.27,.71-1.52,2.06c-1.35,1.02-3.13,2.94-3.95,2.09Z"/>
      </g>
    </g>
    <g>
      <g>
        <path class="cls-7" d="M646.74,339.64s-3.17,1.87-8.93,.12-12.91-3.96-14.67,2.09c-1.75,6.05,5,4.66,5.07,4.01s4.03-1.66,8.77-.28c4.74,1.38,13.1,2,15.51-.73"/>
        <path class="cls-16" d="M646.76,339.68c-5.95,3.27-12.26-1.52-18.34-1.52-1.21,0-2.45,.26-3.42,1.01-1.65,1.29-2.85,4.76-1.17,6.35,.88,.7,2.19,.68,3.3,.42,.26-.07,.58-.18,.7-.28,.01,0,0-.01,0,.01-.02,.02-.03,.04-.05,.1,.05-.34,.5-.65,.83-.78,3.06-1.11,6.52-.55,9.52,.33,3.56,.84,7.33,1.34,10.98,.85,1.2-.2,2.44-.51,3.35-1.37l.07,.07c-3.43,3.57-12.11,2.25-16.47,1-2.35-.56-5.32-.83-7.43,.08,.01-.03,.02-.1,0,0-.04,.18-.16,.3-.27,.38-1.54,.77-3.55,.72-4.89-.42-1.04-.98-.92-2.52-.6-3.76,.51-2.62,2.88-4.5,5.53-4.56,3.82-.3,7.47,1.2,11.07,2.16,2.36,.53,4.92,.72,7.24-.18,0,0,.05,.09,.05,.09h0Z"/>
      </g>
      <g class="cls-1">
        <path class="cls-13" d="M626.63,347.1s-2.55-3.73,.39-4.95c2.94-1.22,19.62,4.6,25.45,2.01,0,0-7.05,3.56-12.64,1.95-5.6-1.62-9.63-3.17-10.62-2.5s1.19,.92,.15,2.25-2.73,1.24-2.73,1.24Z"/>
      </g>
    </g>
    <g>
      <g>
        <path class="cls-7" d="M633.26,334.73c-3.28,.54-5.9,2.15-6.38,5.77-.82,6.25,7.18,3.78,6.55,1.67s2.6-2.08,7.5-1.42"/>
        <path class="cls-16" d="M633.27,334.78c-2.18,.81-4.28,1.77-5.56,3.74-2.05,3.76,.44,7.07,4.46,4.79,.63-.43,.88-.75,.67-1.28-.26-2.45,2.98-2.16,4.55-2,1.2,.15,2.38,.37,3.54,.67v.1c-1.16,.12-7.66-.72-6.99,1.21,.4,2.35-3.26,3.25-5.01,2.79-2.97-.69-2.47-4.3-1.66-6.49,.75-2.48,3.56-3.74,5.99-3.63,0,0,.02,.1,.02,.1h0Z"/>
      </g>
      <g class="cls-1">
        <path class="cls-13" d="M630.92,343.81s-3.08-3.31-.36-4.95,20.09,1.6,25.46-1.84c0,0-6.43,4.58-12.21,3.82-5.78-.76-9.99-1.69-10.87-.87s1.31,.73,.48,2.2-2.51,1.64-2.51,1.64Z"/>
      </g>
    </g>
  </g>
  <g>
    <g>
      <path class="cls-8" d="M198.05,255.84c0,4.23,3.43,7.67,7.67,7.67s7.67-3.43,7.67-7.67-3.43-7.67-7.67-7.67-7.67,3.43-7.67,7.67Z"/>
      <g>
        <path class="cls-7" d="M223.55,304.37c5.55-19.72,18.4-19.77,18.4-19.77"/>
        <path class="cls-16" d="M223.07,304.23c2.11-6.8,5.73-13.79,12.08-17.47,2.08-1.19,4.4-2.05,6.8-2.17-4.79,.46-8.98,3.47-11.9,7.15-2.27,2.84-3.73,5.98-4.98,9.36,0,0-1.03,3.4-1.03,3.4l-.96-.27h0Z"/>
      </g>
      <circle class="cls-10" cx="240.18" cy="284.53" r="6.68"/>
      <path class="cls-15" d="M211.48,262.98c10.08,11.86,12.63,28.24,12.83,43.37,0,0-1-.04-1-.04,.12-15-2.07-31.34-11.83-43.33h0Z"/>
    </g>
    <g>
      <g>
        <polyline class="cls-7" points="204.73 321.01 208.78 346.15 239.69 346.15 242.6 321.22"/>
        <path class="cls-16" d="M204.73,321.01c1.84,8.29,3.43,16.63,4.91,24.99,0,0-.86-.73-.86-.73,6.88-.11,16.3-.15,23.18-.09,0,0,7.73,.09,7.73,.09l-.87,.77c1.08-8.07,2.36-16.84,3.77-24.82-.32,6.03-.9,12.73-1.44,18.78,0,0-.6,6.25-.6,6.25-.04,.45-.43,.78-.87,.77,0,0-7.73,.09-7.73,.09-6.89,.06-16.31,.01-23.2-.09-.43,0-.78-.32-.84-.73-1.22-8.4-2.33-16.82-3.19-25.27h0Z"/>
      </g>
      <g>
        <rect class="cls-7" x="199.57" y="307.99" width="48.25" height="13.2"/>
        <path class="cls-16" d="M247.89,321.26l-48.32,.6c-.37,0-.68-.3-.67-.67,0,0-.13-13.2-.13-13.2,0-.43,.34-.79,.77-.8,8.05-.24,16.1-.29,24.16-.23,8.06,.03,16.11,.16,24.17,.4,.34,.01,.6,.29,.59,.63-.07,2.27-.14,4.54-.25,6.76,0,0-.31,6.51-.31,6.51h0Zm-.14-.14c-.22-3.82-.42-9.39-.56-13.13,0,0,.63,.63,.63,.63-4.02,.15-8.04,.2-12.06,.27-12.06,.21-24.13,.24-36.19-.1,0,0,.8-.8,.8-.8,0,0-.13,13.2-.13,13.2l-.67-.67,48.18,.6h0Z"/>
      </g>
      <g class="cls-1">
        <polygon class="cls-13" points="242.6 321.22 208.78 333.58 204.73 321.01 242.6 321.22"/>
      </g>
    </g>
  </g>
  <g>
    <g>
      <polygon class="cls-16" points="191.06 275.93 191.56 314.72 190.56 314.72 191.06 275.93 191.06 275.93"/>
      <circle class="cls-2" cx="191.17" cy="270.25" r="5.14"/>
      <g>
        <line class="cls-7" x1="191.32" y1="302.25" x2="205.03" y2="286.4"/>
        <polygon class="cls-16" points="190.94 301.92 205.03 286.4 191.7 302.57 190.94 301.92 190.94 301.92"/>
      </g>
      <path class="cls-8" d="M211.68,286.39c0,3.65-2.95,6.6-6.6,6.6s-6.6-2.95-6.6-6.6,2.95-6.6,6.6-6.6,6.6,2.95,6.6,6.6Z"/>
      <g>
        <line class="cls-7" x1="189.6" y1="312.11" x2="177.19" y2="294.05"/>
        <polygon class="cls-16" points="189.19 312.39 177.19 294.05 190.01 311.82 189.19 312.39 189.19 312.39"/>
      </g>
      <path class="cls-10" d="M182.81,294.03c0,3.06-2.48,5.54-5.54,5.54s-5.54-2.48-5.54-5.54,2.48-5.54,5.54-5.54,5.54,2.48,5.54,5.54Z"/>
    </g>
    <g>
      <g>
        <polyline class="cls-7" points="175.02 324.69 178.48 346.15 204.86 346.15 207.35 324.86"/>
        <path class="cls-16" d="M175.02,324.69c1.64,7.07,3.04,14.18,4.32,21.32,0,0-.86-.73-.86-.73,2.2-.03,4.4-.09,6.6-.09,3.29-.04,9.91-.03,13.19,0,0,0,6.6,.09,6.6,.09l-.87,.77c.96-7,2.05-14.26,3.35-21.18-.32,7.04-.95,14.36-1.62,21.38-.04,.45-.43,.78-.87,.77,0,0-6.6,.09-6.6,.09-3.29,.03-9.91,.04-13.19,0-2.2,0-4.4-.06-6.6-.09-.44,0-.8-.31-.86-.73-1.02-7.18-1.93-14.38-2.59-21.6h0Z"/>
      </g>
      <g>
        <rect class="cls-7" x="170.61" y="313.56" width="41.2" height="11.27"/>
        <path class="cls-16" d="M211.88,324.91s-41.27,.6-41.27,.6c-.37,0-.68-.3-.67-.67,0,0-.13-11.27-.13-11.27,0-.43,.33-.78,.76-.8,6.88-.24,13.76-.29,20.64-.23,6.88,.03,13.77,.16,20.65,.4,.33,.01,.59,.29,.58,.63-.07,1.95-.14,3.9-.25,5.79,0,0-.31,5.55-.31,5.55h0Zm-.14-.14c-.21-3.25-.42-8.02-.56-11.2,0,0,.63,.63,.63,.63-6.86,.24-13.73,.38-20.6,.4-6.87,.06-13.73,0-20.6-.23,0,0,.8-.8,.8-.8,0,0-.13,11.27-.13,11.27,0,0-.67-.67-.67-.67l41.13,.6h0Z"/>
      </g>
      <g class="cls-1">
        <polygon class="cls-13" points="207.35 324.86 178.48 335.42 175.02 324.69 207.35 324.86"/>
      </g>
    </g>
  </g>
  <path class="cls-6" d="M476.69,49.71c-.02,3.17-2.26,5.87-5.4,5.78-3.99-.58-5.09-2.41-5.66-5.93,.02-3.18,2.26-5.87,5.4-5.78,3.99,.58,5.09,2.41,5.66,5.93Zm-8.98,.02c.38,2.35,1.98,4.08,4.01,4.1,1.92-.05,3.19-1.98,2.9-4.29-.38-2.35-1.98-4.08-4.01-4.1-1.92,.05-3.19,1.98-2.9,4.29Z"/>
  <path class="cls-9" d="M316.19,85.12c-2.12,.13-3.8-1.38-3.75-3.93,.05-1.6,1.81-3.72,3.93-3.75,2.12-.13,3.8,1.38,3.75,3.93-.05,1.6-1.81,3.72-3.93,3.75Zm.15-6.43c-1.42,.28-2.6,1.72-2.63,3.08-.03,1.48,1.1,2.39,2.51,2.09,1.42-.28,2.6-1.72,2.63-3.08,.03-1.48-1.1-2.39-2.51-2.09Z"/>
  <path class="cls-11" d="M620.5,185.5c-1.16,.17-1.78,.86-1.94,2.04-.39,2.89-.48,3-3.41,3.31-1.19,.13-2.08,.64-2.07,1.86,0,1.24,.83,1.92,2.12,2.02,2.68,.23,2.77,.33,3.15,2.99,.16,1.13,.79,1.84,1.94,1.82,1.14-.01,1.75-.69,1.89-1.85,.25-2.02,.86-2.6,2.81-2.74,1.24-.09,2.11-.68,2.18-1.95,.07-1.29-.88-1.74-1.99-1.95-2.25-.43-2.73-.97-2.77-3.33-.02-1.29-.56-2.05-1.9-2.22Z"/>
  <path class="cls-4" d="M215.02,196.8c-.64,.72-.74,1.48-.38,2.42,.89,2.07,.88,2.4-.78,3.29-.67,.19-1.01,.64-.53,1.61,.49,.89,1.25,.96,2.08,.61,1.72-.85,1.81-1.27,3.08,.21,.54,.66,1.2,.96,1.89,.35,.69-.59,.79-1.31,.42-2.25-.64-1.51-.49-2.26,.63-2.76,.72-.18,1.02-.62,.56-1.7-.46-1-1.21-.98-1.97-.71-1.53,.62-2.03,.96-2.98-.45-.52-.78-1.14-1.18-2.02-.62Z"/>
</svg>