<?xml version="1.0" encoding="UTF-8"?>
<svg id="Layer_1" data-name="Layer 1" xmlns="http://www.w3.org/2000/svg" xmlns:xlink="http://www.w3.org/1999/xlink" viewBox="0 0 800 400">
  <defs>
    <style>
      .cls-1 {
        fill: none;
      }

      .cls-2 {
        clip-path: url(#clippath);
      }

      .cls-3 {
        opacity: .1;
      }

      .cls-4 {
        fill: #f7e657;
      }

      .cls-5 {
        fill: #f9ea35;
      }

      .cls-6 {
        fill: #00efb0;
      }

      .cls-7 {
        fill: #eaf7ff;
      }

      .cls-8 {
        fill: #fff;
      }

      .cls-9 {
        fill: #fff8bd;
      }

      .cls-10 {
        fill: #ffabc1;
      }

      .cls-11 {
        fill: #feca36;
      }

      .cls-12 {
        fill: #ff8db0;
      }

      .cls-13 {
        fill: #97d7ff;
      }

      .cls-14 {
        fill: #83d6ff;
      }

      .cls-15 {
        fill: #a8e381;
      }

      .cls-16 {
        fill: #225467;
      }

      .cls-17 {
        fill: #41d94d;
      }

      .cls-18 {
        fill: #4286b8;
      }

      .cls-19 {
        fill: #36aff3;
      }

      .cls-20 {
        fill: #3a7491;
      }

      .cls-21 {
        fill: #3c7490;
      }

      .cls-22 {
        clip-path: url(#clippath-1);
      }
    </style>
    <clipPath id="clippath">
      <rect class="cls-1" x="301.83" y="175.48" width="218.65" height="146.33" rx="5.58" ry="5.58"/>
    </clipPath>
    <clipPath id="clippath-1">
      <rect class="cls-1" x="301.83" y="175.48" width="218.65" height="146.33" rx="5.58" ry="5.58"/>
    </clipPath>
  </defs>
  <path class="cls-20" d="M406.22,131.43l-1,22.88-1-22.88c-.03-1.37,2.03-1.37,2,0h0Z"/>
  <path class="cls-20" d="M422.28,131.43l-1,22.88-1-22.88c-.03-1.37,2.03-1.37,2,0h0Z"/>
  <path class="cls-6" d="M396.9,135.19c-.02,2.41-1.71,4.45-4.09,4.38-3.02-.44-3.86-1.83-4.29-4.49,.02-2.41,1.71-4.45,4.09-4.38,3.02,.44,3.86,1.83,4.29,4.49Zm-6.81,.02c.28,1.78,1.5,3.09,3.04,3.1,1.45-.04,2.42-1.5,2.19-3.25-.28-1.78-1.5-3.09-3.04-3.1-1.45,.04-2.42,1.5-2.19,3.25Z"/>
  <path class="cls-12" d="M428.59,158.49c-1.6,.1-2.88-1.04-2.84-2.98,.04-1.22,1.37-2.82,2.98-2.84,1.6-.1,2.88,1.04,2.84,2.98-.04,1.22-1.37,2.82-2.98,2.84Zm.11-4.87c-1.08,.21-1.97,1.31-1.99,2.33-.02,1.13,.83,1.81,1.91,1.59,1.08-.22,1.97-1.31,1.99-2.33,.02-1.13-.83-1.81-1.91-1.59Z"/>
  <path class="cls-13" d="M430.72,130.11c-.88,.13-1.35,.65-1.47,1.54-.29,2.19-.36,2.27-2.59,2.51-.9,.1-1.58,.49-1.57,1.41,0,.94,.63,1.45,1.6,1.53,2.03,.17,2.1,.25,2.38,2.27,.12,.86,.6,1.39,1.47,1.38,.87,0,1.33-.52,1.43-1.4,.19-1.53,.65-1.97,2.13-2.07,.94-.07,1.6-.51,1.65-1.48,.06-.98-.67-1.32-1.51-1.48-1.71-.33-2.07-.74-2.1-2.53-.02-.98-.42-1.55-1.44-1.68Z"/>
  <path class="cls-5" d="M394.55,151.99c-.48,.55-.56,1.12-.29,1.83,.68,1.57,.67,1.82-.59,2.49-.51,.15-.77,.49-.4,1.22,.37,.67,.95,.73,1.57,.46,1.3-.64,1.37-.96,2.33,.16,.41,.5,.91,.72,1.43,.27,.52-.44,.6-1,.32-1.7-.49-1.14-.37-1.72,.48-2.09,.54-.13,.77-.47,.42-1.28-.35-.75-.92-.74-1.49-.54-1.16,.47-1.54,.73-2.26-.34-.39-.59-.86-.9-1.53-.47Z"/>
  <g>
    <g>
      <g>
        <g>
          <path class="cls-20" d="M584.77,291.12c1.98-.06,3.48-1.82,3.38-3.97-.24-4.58-5.88-9.56-5.88-9.56,.84,7.11-1.48,6.35-1.29,9.74,.12,2.14,1.82,3.84,3.78,3.79Z"/>
          <path class="cls-20" d="M584.76,290.62c1.22,0,2.46-.8,2.93-2.08,.99-4.03-2.99-8.07-5.64-10.68,0,0,.58-.3,.58-.3,.19,1.99,.35,4.1-.33,6.04-.47,1.25-1.16,2.31-.98,3.67,.08,1.77,1.7,3.43,3.45,3.35h0Zm.03,1c-3.21,.08-4.88-3.7-3.82-6.39,1.28-2.38,1.34-4.96,.96-7.59,0,0-.11-.92-.11-.92l.69,.62c2.88,2.86,6.61,7.02,5.72,11.38-.4,1.54-1.78,2.88-3.44,2.91h0Z"/>
        </g>
        <g>
          <polygon class="cls-15" points="589.22 308.87 589.43 303.89 587.15 292.45 583.18 292.61 582.16 304.18 582.72 309.13 589.22 308.87"/>
          <path class="cls-20" d="M588.87,308.52l.27-4.64v.07c-.68-3.83-1.5-7.63-2.29-11.43l.32,.25-3.97,.19,.33-.31c-.15,1.93-.35,3.85-.53,5.78l-.53,5.78c.16,1.32,.38,3.34,.59,4.89,0,0-.34-.3-.34-.3,2.09-.11,4.13-.22,6.16-.28h0Zm.71,.71c-2.42,.11-4.8,.18-7.15,.24-.17-1.78-.37-3.55-.57-5.32,0,0,.49-5.79,.49-5.79,.17-2.03,.32-4.06,.52-6.09,0,0,.3,0,.3,0,0,0,3.97-.12,3.97-.12h.27c.74,3.92,1.49,7.85,2.32,11.76,0,0-.15,5.32-.15,5.32h0Z"/>
        </g>
      </g>
      <g>
        <polygon class="cls-12" points="601.07 292.16 598.84 282.73 594.84 291.55 593.12 309.17 599.35 309.78 601.07 292.16"/>
        <path class="cls-20" d="M601.02,292.17c-.96-3.1-1.81-6.2-2.58-9.34,0,0,.78,.08,.78,.08-1.25,2.98-2.68,5.88-4.14,8.76-.79,5.38-1.06,11.81-1.51,17.55,0,0-.41-.5-.41-.5l6.24,.53-.58,.48c.56-5.88,1.28-11.7,2.2-17.56h0Zm.1,0c-.22,5.88-.66,11.8-1.24,17.67,0,0-.06,.54-.06,.54l-.52-.06s-6.23-.69-6.23-.69l-.46-.05c.67-6.02,1.69-12.01,1.96-18.08,1.21-3.01,2.46-6.01,3.89-8.94,0,0,.52-1.09,.52-1.09,.81,3.54,1.56,7.12,2.14,10.69h0Z"/>
      </g>
      <g>
        <path class="cls-4" d="M604.41,350.59h-26.93l-6.35-40.51c-.18-1.54,1.02-2.9,2.57-2.9h34.47c1.55,0,2.76,1.36,2.57,2.9l-6.35,40.51Z"/>
        <path class="cls-20" d="M604.44,350.63l-26.96,.16s-.17,0-.17,0l-.03-.16c-.94-5.77-5.4-33.52-6.23-38.65-.1-.65-.21-1.27-.3-1.95-.17-1.52,1.01-3.01,2.52-3.2,.63-.09,1.4-.01,2.01-.04,7.8-.03,23.51-.09,31.31-.1,0,0,.98,0,.98,0,1.94-.26,3.91,1.29,3.68,3.36-2.1,13.52-4.5,27.27-6.81,40.59h0Zm-.07-.08c1.91-13.75,3.8-27.06,5.89-40.61,.12-1.05-.72-2.12-1.78-2.24-.42-.07-1.4,0-1.88-.03-7.81,0-23.51-.07-31.31-.1-1.14,.02-2.56-.23-3.31,.83-.84,.89-.31,2.44-.19,3.48,.77,4.99,5.03,33.08,5.89,38.69-1.17-.43,26.97,.12,26.71,0h0Z"/>
      </g>
      <polygon class="cls-8" points="600.7 292.35 598.72 283.94 595.15 291.81 600.7 292.35"/>
      <polygon class="cls-20" points="599.28 286.13 598.69 283.63 597.63 285.96 599.28 286.13"/>
      <g>
        <line class="cls-16" x1="605.8" y1="311.51" x2="600.03" y2="350.46"/>
        <path class="cls-8" d="M600.03,351.46s-.1,0-.15-.01c-.55-.08-.92-.59-.84-1.14l5.77-38.95c.08-.55,.59-.92,1.14-.84,.55,.08,.92,.59,.84,1.14l-5.77,38.95c-.07,.5-.5,.85-.99,.85Z"/>
      </g>
    </g>
    <g class="cls-3">
      <path class="cls-16" d="M584.64,308.47s-2.7,30.09,7.72,42.61h-14.8l-6.45-43.32,13.53,.7Z"/>
      <path class="cls-11" d="M593.43,351.58h-16.3l-6.6-44.35,14.66,.76-.05,.52c-.03,.3-2.56,30.03,7.61,42.25l.68,.82Zm-15.44-1h13.34c-4-5.35-6.44-13.91-7.23-25.47-.53-7.67-.13-14.31,0-16.17l-12.41-.64,6.29,42.29Z"/>
    </g>
  </g>
  <g>
    <path class="cls-14" d="M533.34,333.39h-244.37V179.63c0-9.22,7.47-16.69,16.69-16.69h210.98c9.22,0,16.69,7.47,16.69,16.69v153.76Z"/>
    <path class="cls-20" d="M533.37,333.43c-70.78-.04-174.49,.69-244.41,.27,0,0-.31,0-.31,0,0,0,0-.31,0-.31,.2-40.05,.09-111.66,.05-151.65-.81-11.82,8.16-20.12,19.85-19.11,49.69-.15,124.03-.14,173.95-.17,7.97,.01,23.32-.02,31.22,0,7.93-.63,15.4,2.8,18.67,10.36,1.24,2.79,1.5,5.95,1.4,8.93,0,0-.02,8.94-.02,8.94,0,0-.42,142.74-.42,142.74h0Zm-.07-.07s-.42-142.72-.42-142.72c0,0-.02-8.9-.02-8.9,.08-2.96-.15-5.83-1.35-8.53-2.31-5.34-7.55-9.19-13.35-9.69-9.93-.2-25.52-.03-35.64-.09-48.08,.02-121.61-.06-169.49-.16-2.29,.04-6.57-.1-8.89,.06-9.3,.82-15.72,9.22-14.91,18.41-.41,39.31,.52,113.5-.26,151.34,69.49-.09,173.98-.04,244.33,.27h0Z"/>
  </g>
  <rect class="cls-19" x="287.93" y="329.85" width="245.4" height="3.54"/>
  <g>
    <rect class="cls-8" x="301.33" y="174.98" width="219.65" height="147.33" rx="6.08" ry="6.08"/>
    <path class="cls-20" d="M514.89,175.48c3.08,0,5.58,2.5,5.58,5.58v135.16c0,3.08-2.5,5.58-5.58,5.58h-207.48c-3.08,0-5.58-2.5-5.58-5.58V181.07c0-3.08,2.5-5.58,5.58-5.58h207.48m0-1h-207.48c-3.63,0-6.58,2.95-6.58,6.58v135.16c0,3.63,2.95,6.58,6.58,6.58h207.48c3.63,0,6.58-2.95,6.58-6.58V181.07c0-3.63-2.95-6.58-6.58-6.58h0Z"/>
  </g>
  <g>
    <rect class="cls-14" x="262.57" y="333.39" width="297.16" height="17.8" rx="8.14" ry="8.14"/>
    <path class="cls-20" d="M551.59,351.24c-71.21,.08-199.5,.27-269.46,.31,0,0-9.62,0-9.62,0-3.3,.29-6.87-.75-8.78-3.65-3.8-5.89-.72-14.87,7-14.92,75.8-.11,204.5-.09,279.09,.27,3.23-.26,6.7,.73,8.55,3.57,3.63,5.7,.69,14.38-6.77,14.41h0Zm0-.1c3.21,0,6.28-2.05,7.46-5.04,1.02-2.92,.92-6.55-.87-9.16-1.87-2.77-5.18-3.7-8.38-3.42-74.1,.34-203.79,.4-279.09,.27-3.08-.02-6.03,1.94-7.17,4.81-.99,2.82-.92,6.34,.8,8.88,1.82,2.71,5.03,3.59,8.15,3.34,0,0,9.62,0,9.62,0,69.45,.07,198.79,.2,269.46,.31h0Z"/>
  </g>
  <g class="cls-2">
    <g>
      <path class="cls-7" d="M532.89,330.47s.21-29.76,.22-29.69c-1.42-1.22-3.36-1.94-5.49-1.88-2.07,.07-3.92,.87-5.25,2.12,.37-.7,.57-1.49,.54-2.31-.09-2.76-2.62-4.92-5.66-4.83-3.04,.1-5.43,2.41-5.35,5.18,0,.23,.04,.46,.08,.68l-.5-.02c-.18-1.74-1.81-3.07-3.76-3.01-1.26,.04-2.35,.65-2.99,1.55-.39-3.12-2.97-5.48-6.01-5.38-.97,.03-1.88,.31-2.67,.78-1.2-1.85-3.38-3.1-5.81-3.09-.55,0-1.08,.07-1.58,.2,.07-.32,.1-.64,.08-.98-.14-2.37-2.51-4.29-5.3-4.28-1.28,0-2.43,.42-3.28,1.09l-.19,.06c-.49-1.13-1.67-1.94-3-1.93-1.48,0-2.66,1.01-2.87,2.35-.37-.11-.75-.19-1.14-.24-6.04-.81-10.63,5.51-6.73,8.25,4.7,3.3,4.69-2.92,7.61-3.62,.02,0,.03,0,.05,0-.77,.92-1,2.14-.47,3.15,.73,1.39,2.62,1.84,4.23,1,.72-.37,1.25-.94,1.57-1.58,.14,2.75-.65,6.35-3.68,10.72-9.42,13.58-19.87-3.45-28.42-5.97-10.79-3.18-19.51-15.12-24.32-34.84-5.99-30.88-4.41-91.08-4.41-91.08l-11.32,.49s-.8,83.8-3.07,95.23c-3.24,16.3-17.11,30.92-27.54,36.35-10.44,5.43-30.21,3.65-25.71-7.24,1.68-1.37,2.64-1.37,4.49-.89,2.96,.76,3.81,7.08,7.96,3.82,3.44-2.71-1.94-9.23-7.75-8.51-.37,.05-.73,.12-1.08,.22-.39-1.36-1.69-2.41-3.14-2.45-1.33-.03-2.39,.8-2.69,1.98-.95-.78-2.2-1.28-3.55-1.31-2.73-.06-4.78,1.84-4.59,4.25,.03,.34,.1,.68,.22,1-.51-.14-1.04-.22-1.58-.23-3.48-.08-6.07,2.59-5.8,5.96,.25,3.13,2.91,5.77,6.08,6.18-1.37,.62-2.49,1.93-2.95,3.7-.39,1.5-.22,3.05,.35,4.37l-.07,.21c-.86-.52-1.82-.83-2.81-.85-2.51-.06-4.49,1.72-5.09,4.24-.16-.02-.32-.04-.49-.05-1.57-.03-2.83,.92-3.22,2.29-.92-2.08-3.04-3.6-5.39-3.66-1.77-.04-3.27,.76-4.16,2.03-1.13-3.06-4.19-5.36-7.62-5.44-4.13-.09-7.21,3.08-6.89,7.07,.07,.82,.28,1.62,.6,2.36-1.3-.95-2.88-1.54-4.55-1.57-2.1-.05-3.92,.79-5.13,2.14-.63-2.03-2.59-3.58-4.79-3.63-2.21-.05-3.93,1.44-4.22,3.47l-.14,.07c-.89-3.66-4.31-6.51-8.18-6.6-.88-.02,.38,14.73-.38,14.97"/>
      <path class="cls-20" d="M532.39,330.47c.1-8.39,.23-20.96,.32-29.23,0,0,0-.23,0-.23v-.12s0-.06,0-.06v-.03s0-.02,0-.02c0,0,0,0,0,0-.03,.48-.16-.79,.78-.03l-.64,.32c-2.83-2.48-7.51-2.36-10.23,.22,0,0-1.71,1.61-1.71,1.61,0,0,1.13-2.05,1.13-2.05,1.6-2.87-.82-6.38-3.97-6.57-3.24-.49-6.63,2.49-5.67,5.82-.38-.01-.85-.03-1.22-.05-.11-3.13-4.49-4.03-6.17-1.6,0,0-.48,.69-.48,.69,0,0-.1-.83-.1-.83-.35-3.82-4.83-6.49-8.21-4.38,0,0-.25,.15-.25,.15l-.16-.25c-1.47-2.28-4.44-3.45-7.07-2.78,0,0-.46,.12-.46,.12,.69-2.02-.63-4.12-2.53-4.9-1.78-.8-3.96-.6-5.48,.59-.09,.03-.34,.11-.43,.14,0,0-.1-.23-.1-.23-.98-2.4-4.91-2.38-5.37,.35,0,0-.05,.29-.05,.29,0,0-.28-.08-.28-.08-2.92-.87-6.36,.19-8.13,2.71-1.27,1.63-1.14,4.04,.81,5.05,3.12,2.12,3.89-1.1,5.65-3.02,.54-.63,1.44-.9,2.25-1.03-3.73,3.77,2.12,6.84,4.37,2.88,0,0,.47-.97,.47-.97,0,0,.05,1.08,.05,1.08,.16,5.55-3.15,11.57-7.54,14.82-5.3,3.62-11.32-.66-15.61-3.91-2.99-2.18-5.87-4.8-9.43-5.92-11.21-3.51-17.57-14.68-21.42-25.07-4.06-10.63-4.92-22.1-5.93-33.33-1.72-22.54-1.92-45.17-1.52-67.77,0,0,.36,.35,.36,.35,0,0-11.32,.5-11.32,.5l.34-.35c-.42,29.26-.62,58.53-2.3,87.75-.29,14.92-8.81,28.44-19.81,38.04-5.49,4.9-12.28,8.66-19.77,8.98-6.42,.71-18.84-1.5-15.09-10.55,.32-.41,1.24-.96,1.8-1.16,1.98-.63,4.24,.22,5.39,1.89,.81,.99,1.49,2.13,2.49,2.7,1.41,.81,3.68-.69,3.82-2.31-.13-4.31-5.61-7.22-9.51-6.07,0,0-.29,.08-.29,.08,0,0-.08-.29-.08-.29-.58-2.44-4.51-3.2-5.25-.47,0,0-.12,.47-.12,.47,0,0-.37-.31-.37-.31-3.21-2.81-9.28-.52-7.2,4.18,0,0-.6-.17-.6-.17-3.14-.97-6.87,1.18-6.96,4.6-.19,3.94,3.28,6.71,7.02,6.81,0,0-1.13,.51-1.13,.51-2.79,1.27-3.63,5.08-2.35,7.73,0,0-.04,.13-.04,.13,0,0-.07,.21-.07,.21l-.15,.44c-2.95-2.2-6.98-.7-7.73,2.92,0,0-.08,.33-.08,.33-1.49-.35-3.23,.37-3.63,1.94,0,0-.29,1.02-.29,1.02,0,0-.43-.97-.43-.97-1.36-3.41-6.62-4.82-8.87-1.55,0,0-.43,.62-.43,.62,0,0-.27-.71-.27-.71-3.93-9.37-17.92-4.89-12.48,5.16,0,0-1.31-.95-1.31-.95-2.89-2.23-7.45-1.96-9.62,1.11,0,0-.23-.76-.23-.76-1.12-4.02-7.62-4.7-8.16,0,0,0-.21,.11-.21,.11,0,0-.14,.07-.14,.07,0,0-.52,.27-.52,.27,0,0-.14-.58-.14-.58-.83-3.42-4.08-6.11-7.6-6.22,0,0-.1,0-.1,0,0,0-.08,0,0,0,.09,0,.18-.06,.2-.07,.13-.12,.07-.09,.07-.06-.43,3.62,.1,7.69,.06,11.37-.04,1.13,.14,2.32-.24,3.42-.05,.07-.1,.21-.35,.31,0,0-.31-.95-.31-.95-.19,.07-.2,.15-.22,.16,0,0,0,.01,0-.01,0-.03,.02-.08,.03-.13,.32-4.16-.21-8.51-.08-12.69,.03-.58,.01-1.08,.19-1.77,.05-.1,.03-.2,.27-.41,.03-.06,.32-.14,.4-.11,0,0,.11,0,.11,0l.44,.03c3.79,.33,7.13,3.24,8.03,6.93,0,0-.67-.3-.67-.3,0,0,.14-.07,.14-.07,0,0-.24,.35-.24,.35,.99-5.51,8.48-4.72,9.9,.1,0,0-.76-.17-.76-.17,2.59-2.95,7.29-2.89,10.28-.62,0,0-.65,.52-.65,.52-3.79-10.64,10.96-13.84,14.68-4.31,0,0-.7-.09-.7-.09,2.62-3.78,8.64-2.26,10.23,1.7,0,0-.72,.05-.72,.05,.48-1.77,2.37-2.83,4.13-2.51,0,0-.43,.29-.43,.29,.79-3.85,5.15-5.79,8.46-3.61,0,0-.54,.2-.54,.2l.07-.21s.01,.26,.01,.26c-1.34-2.99-.35-7.1,2.79-8.53,0,0,.1,.67,.1,.67-9-1.43-8.33-14.49,1.43-12.57,0,0-.39,.42-.39,.42-1.57-5.08,5.03-7.3,8.42-4.28,0,0-.49,.16-.49,.16,.35-1.46,1.89-2.41,3.35-2.18,1.43,.18,2.67,1.25,3.08,2.64l-.37-.21c3.87-1.09,8.25,1.1,9.92,4.7,.57,1.23,.52,2.91-.55,3.88-2.9,2.66-4.72,.54-6.49-1.93-.74-1.02-1.73-1.69-2.97-1.8-.6-.1-1.18-.1-1.73,.1-.54,.2-1.05,.56-1.53,.94l.09-.12c-.68,1.62-.92,3.5-.13,5.06,.76,1.57,2.33,2.62,3.95,3.3,6.72,2.48,14.65,1.61,21.1-1.34,9.61-5.13,17.32-13.59,22.69-22.99,3.65-6.36,5.6-13.44,5.82-20.78,.92-14.59,1.22-29.22,1.57-43.84,.31-14.73,.53-29.47,.69-44.21,0,0,.33-.01,.33-.01,0,0,11.32-.48,11.32-.48,0,0,.37-.02,.37-.02,0,0,0,.37,0,.37-.42,22.57-.24,45.18,1.46,67.7,1.01,11.2,1.84,22.58,5.87,33.17,3.78,10.21,10.01,21.25,21.01,24.72,1.86,.55,3.51,1.57,5.07,2.64,5.59,3.57,12.42,11.64,19.49,7.27,1.53-1.01,2.76-2.45,3.8-3.98,2.08-3.05,3.68-6.63,3.5-10.35,0,0,.52,.11,.52,.11-2.25,4.29-8.94,1.51-5.78-2.86,0,0,.27,.44,.27,.44-2.1,.58-2.35,3.33-4.3,4.34-1.08,.55-2.3,.05-3.22-.53-2.22-1.15-2.39-3.95-.96-5.8,1.89-2.7,5.58-3.84,8.7-2.9,0,0-.33,.21-.33,.21,.51-3.25,5.2-3.37,6.38-.49,0,0-.33-.15-.33-.15l.19-.06-.08,.05c1.68-1.33,4.06-1.47,5.97-.64,1.94,.81,3.48,2.91,2.98,5.08,0,0-.35-.35-.35-.35,2.87-.74,6.1,.52,7.72,3.01,0,0-.41-.1-.41-.1,3.7-2.35,8.81,.58,9.16,4.83,0,0-.59-.15-.59-.15,.93-1.33,2.66-1.93,4.21-1.61,1.58,.28,2.97,1.58,3.13,3.22,0,0-.32-.3-.32-.3l.5,.02s-.35,.4-.35,.4c-1.02-6.05,7.76-8.54,10.83-3.64,.96,1.48,1.07,3.48,.21,5.04l-.58-.44c3.01-2.86,8.11-2.99,11.25-.27,0,0-.64,.32-.64,.32,.94,.77,.8-.49,.78-.01,0,0,0,0,0,0,0,0,0,.01,0,.01,0,0,0,.03,0,.03,0,0,0,.06,0,.06v.12s0,.23,0,.23c0,0,0,.46,0,.46-.03,8.03-.08,20.63-.1,28.76,0,0-1,0-1,0h0Z"/>
    </g>
  </g>
  <g class="cls-22">
    <path class="cls-6" d="M403.12,177.9c.79,10.09,.2,20.2-.08,30.29-.38,10.09-.89,20.18-1.52,30.26-.51,7.56-1.07,15.12-1.89,22.66-1.35,9.83-3.63,21.01-12.13,27.27-2.08,1.52-4.48,2.58-6.95,3.15,2.27-1.15,4.43-2.38,6.38-3.92,7.23-5.34,9.53-14.48,11.15-22.9,1.19-8.73,1.67-17.55,2.31-26.34,1.52-20.13,2.09-40.3,2.74-60.47h0Z"/>
    <path class="cls-5" d="M423.42,178.39c.13,9.95-.3,19.86,.09,29.81,.32,9.93,.84,19.85,1.65,29.75,.42,4.95,.91,9.89,1.64,14.79,1.53,9.47,2.15,20.32,9.26,27.44,3.51,3.4,8.44,4.99,13.37,5.48-2.49,0-5-.32-7.4-1.1-13.21-4.15-14.49-20.07-16.25-31.68-.75-4.93-1.27-9.89-1.71-14.85-.88-9.92-1.38-19.87-1.57-29.82-.05-9.95-.42-19.95,.91-29.84h0Z"/>
  </g>
  <path class="cls-8" d="M264.62,337.15c1.52-2.25,4.1-3.74,7.03-3.74h279.31c3.13,0,5.87,1.7,7.34,4.23l-127.33-.22-.72,1.7c-.78,1.85-2.59,3.05-4.59,3.04l-34.04-.06c-2,0-3.8-1.2-4.58-3.05l-.72-1.72-121.7-.21Z"/>
  <g>
    <path class="cls-20" d="M660.47,350.27c3.14-.18,6.42,.74,9.48-.06,2.91-.93,4.95-3.93,4.91-6.98l-.05-4.87c.5-4.82-2.35-9.28-7.48-9.33,0,0-4.87-.03-4.87-.03-1.58,0-3.11-.14-4.58,.45-2.83,1-4.92,3.88-4.85,6.92,.18,3.11-.43,6.46,.64,9.41,1.13,2.74,3.96,4.52,6.81,4.49h0Zm0,2c-6.01-.06-9.43-5.41-8.68-11.03,.16-2.48-.26-5.03,.44-7.45,1.38-4.52,5.75-6.56,10.23-6.14,0,0,4.87-.03,4.87-.03,5.92,.1,9.28,5.17,8.61,10.74-.13,1.78,.19,5.75-.44,7.43-2.39,6.92-9,6.37-15.03,6.49h0Z"/>
    <path class="cls-20" d="M629.23,350.27c3.14-.18,6.42,.74,9.48-.06,2.91-.93,4.95-3.93,4.91-6.98,0,0-.05-4.87-.05-4.87,.5-4.82-2.35-9.28-7.48-9.33,0,0-4.87-.03-4.87-.03-1.58,0-3.11-.14-4.58,.45-2.83,1-4.92,3.88-4.85,6.92,.18,3.11-.43,6.46,.64,9.41,1.13,2.74,3.96,4.52,6.81,4.49h0Zm0,2c-6.01-.06-9.43-5.41-8.68-11.03,.16-2.48-.26-5.03,.44-7.45,1.38-4.52,5.75-6.56,10.23-6.14,0,0,4.87-.03,4.87-.03,5.92,.1,9.28,5.17,8.61,10.74-.13,1.78,.19,5.75-.44,7.43-2.39,6.92-9,6.37-15.03,6.49h0Z"/>
    <path class="cls-20" d="M651.33,337.77h-6.1c-.64,0-1.17-.52-1.17-1.17s.52-1.17,1.17-1.17h6.1c.64,0,1.17,.52,1.17,1.17s-.52,1.17-1.17,1.17Z"/>
    <path class="cls-20" d="M621.56,335.23c-5.61,1.57-11.21,3.19-16.75,4.98-3.81,1.39-9.17,2.28-9.84,7.07-.24,1.42-.11,2.9,.24,4.31-.43-1.39-.65-2.87-.49-4.35,.4-4.98,5.91-6.36,9.75-7.98,5.46-2.12,10.96-4.06,16.5-5.95,1.28-.41,1.9,1.52,.59,1.91h0Z"/>
  </g>
  <g>
    <g>
      <path class="cls-20" d="M146.86,335.55c-10.08,1.37-15.99-11.49-8.31-18.23,2.29-1.96,5.45-2.86,8.31-2.23v.1c-2.88-.04-5.66,.98-7.64,2.88-7.25,6.81-1.9,17.89,7.64,17.49h0Z"/>
      <g>
        <path class="cls-15" d="M163.88,351.41h8.24c11.11,0,20.11-9,20.11-20.11v-14.77c0-.81-.66-1.47-1.47-1.47h-45.52c-.81,0-1.47,.66-1.47,1.47v14.77c0,11.11,9,20.11,20.11,20.11Z"/>
        <path class="cls-20" d="M163.88,351.36c6.12-.11,12.9,.63,18.25-2.95,6.05-3.61,9.72-10.46,9.6-17.42,0-1.5,0-5.53,0-7.08,0,0,0-4.72,0-4.72v-2.36c-.01-.27,.03-.62-.17-.85-.15-.22-.39-.37-.64-.41l-18.8-.11c-5.84,0-21.48-.12-27.09-.09-.7,.14-1.05,.73-.97,1.47,0,0,0,1.18,0,1.18,0,1.48-.02,5.54-.03,7.08,.05,2.24-.15,6.05,.04,8.24,.84,10,9.79,18.09,19.82,18h0Zm0,.1c-10.13,.15-19.17-8.01-20.19-18.07-.29-5.23-.13-11.3-.2-16.54-.11-1.7,1.16-2.23,2.67-2.08,0,0,2.36,0,2.36,0l4.72-.02c10.37-.01,26.36-.12,36.58-.16,.36,.02,.84-.04,1.26,.02,.79,.12,1.46,.76,1.61,1.54,.09,.43,.02,2.57,.04,3.05-.01,2.35,0,7.09,0,9.44-.03,1.41,.03,3.37-.1,4.77-.94,9.71-9.54,17.83-19.29,18.07-2.74,.16-6.67-.06-9.45-.01h0Z"/>
      </g>
      <path class="cls-4" d="M167.65,287.15c-.73,1.16-1.53,1.85-2.17,2.65-2.05,2.77,.34,5.84,2.69,7.79,3.39,2.47,4.71,7.69,1.4,10.84-1,1-2.2,1.89-3.71,1.2,.52-1.41,1.36-1.7,2.2-2.62,.66-.74,1.09-1.63,1.17-2.57,.36-3.65-3.41-5.28-5.07-8.02-.71-1.09-1.26-2.37-1.33-3.79-.17-2.72,2-5.6,4.82-5.49h0Z"/>
      <path class="cls-17" d="M163.75,349.67c-16.05-8.25-9.87-32.86-9.87-32.86h-7.72c-.76,0-1.38,.62-1.38,1.38v12.51c0,10.48,8.72,18.9,18.97,18.97Z"/>
    </g>
    <path class="cls-8" d="M177.02,342.84c-.42,0-.81-.27-.95-.69-.17-.52,.11-1.09,.64-1.26,4.35-1.43,6.41-4.22,6.89-9.32,.3-3.12,0-10.38,0-10.45-.02-.55,.41-1.02,.96-1.04,.56-.03,1.02,.41,1.04,.96,.01,.3,.31,7.46,0,10.72-.55,5.85-3.18,9.36-8.26,11.03-.1,.03-.21,.05-.31,.05Z"/>
  </g>
  <path class="cls-20" d="M679.57,352.11c-79.18,1.66-199.26,.67-279.57,1.14-80.53-.64-200.07,1.22-279.57-1.13,79.05-2.35,199.33-.5,279.57-1.14,80.66,.47,199.96-.53,279.57,1.14h0Z"/>
  <g>
    <g>
      <path class="cls-4" d="M444.3,62.85c0,6.36-1.32,28.08-1.86,33.55-.89,9.09-1.73,18.18,.79,27.27-8.89,0-14.24,1.63-29.69,2.28-15.46,.65-19.87-2.28-31.33-2.28-1.82-6.58,.47-39.48,1.54-50.22,.9-9.14,.99-16-1.54-25.14,10.17,0,17.06,5.27,30.51-.76,7.9-3.54,13.54-3.45,18.9-2.76,0,0,12.68,11.7,12.68,18.06Z"/>
      <path class="cls-20" d="M444.35,62.85c-.19,15.25-1.55,30.51-2.36,45.71-.07,5.25,.37,10.51,1.8,15.54-5.27-.07-10.51,.6-15.78,1.11-10.16,.91-20.47,1.66-30.6,.14-5.05-.73-10.09-1.54-15.2-1.47,0,0-.17,0-.17,0,0,0-.04-.16-.04-.16-1.17-6.24-.65-12.64-.61-18.95,.18-6.31,.51-12.61,.9-18.91,.72-12.47,3.18-25.21-.59-37.42,0,0-.18-.66-.18-.66h.69c8.42,.12,16.57,3.77,24.89,1.29,4.08-.99,7.78-3.22,11.92-4.09,4.15-1,8.57-1.06,12.74-.34,2.7,2.61,5.24,5.37,7.58,8.3,2.19,2.94,4.75,6.09,5.02,9.9h0Zm-.1,0c-.29-3.76-2.87-6.88-5.07-9.78-2.34-2.91-4.96-5.6-7.69-8.14-3.56-.35-8.44-.46-12.32,.71-4.11,1-7.74,3.26-11.85,4.31-8.35,2.68-16.79-1-25.12-1.12,0,0,.5-.66,.5-.66,2.8,9.19,2.32,18.92,1.23,28.33-1.13,14.12-2.42,28.29-2.06,42.46,.08,1.56,.18,3.15,.54,4.64l-.21-.16c2.56,.01,5.12,.18,7.66,.49,7.56,1.14,15.15,2.28,22.83,1.81,7.37-.25,15.49-1.24,22.85-2.1,2.55-.26,5.11-.41,7.68-.42,0,0-.41,.54-.41,.54-1.4-4.96-1.8-10.14-1.65-15.24,.1-5.1,.79-10.17,1.25-15.23,.84-10.13,1.61-20.29,1.84-30.46h0Z"/>
    </g>
    <g>
      <path class="cls-9" d="M444.3,62.09s-4.12-6.9-11.9-5.34c0,0,1.53-5.48-.8-11.73"/>
      <path class="cls-20" d="M444.26,62.11c-3.08-3.28-7.53-6.71-12.23-4.93,.34-2.07,.41-4.22,.29-6.32-.07-1.97-.38-3.88-.76-5.83,0,0,.09-.03,.09-.03,.98,1.77,1.53,3.77,1.72,5.79,.16,2.04-.03,4.09-.66,6.04,0,0-.36-.39-.36-.39,3.48-.31,7.42,.08,9.96,2.74,.85,.83,1.57,1.8,2.04,2.88,0,0-.09,.05-.09,.05h0Z"/>
    </g>
    <g class="cls-3">
      <path class="cls-21" d="M444.3,62.09s-6.93-2.37-13.87,1.54c0,0,3.5-12.36,1.17-18.62"/>
    </g>
    <path class="cls-18" d="M397.14,85.26c2.62,.56,4.75,3.06,6.61,4.71,1.95,1.82,3.92,3.63,5.85,5.47,0,0-2.28,0-2.28,0,5.15-5.46,10.55-10.74,16.03-15.87,.8-.71,1.77-1.27,3.34-1.22,.05,1.57-.5,2.53-1.22,3.34l-2.21,2.34c-4.79,5.09-9.76,10.02-14.85,14.82-2.21-2.3-4.39-4.66-6.56-6.99-1.64-1.88-4.16-3.96-4.71-6.61h0Z"/>
  </g>
  <g>
    <path class="cls-8" d="M493.15,321.95c-2.06-5.72-7.3-8.79-13.44-8.79-1.75,0-3.42,.23-4.97,.76,0-.06,0-.15,0-.21,0-9.09-7.88-16.47-17.61-16.47-5.23,0-9.93,2.13-13.16,5.52-.81,.85-2.21,.91-3.1,.13-2.68-2.37-6.29-3.83-10.28-3.83-.46,0-.92,.02-1.38,.06-.87,.07-1.73-.33-2.13-1.06-3.41-6.16-10.28-10.37-18.21-10.37-10.19,0-18.64,6.96-20.22,16.07-.17,1.01-1.1,1.74-2.2,1.74,0,0-.01,0-.02,0-5.34,0-10.11,2.28-13.26,5.85-.72,.82-2.03,.95-2.94,.31-3.01-2.12-6.78-3.31-10.86-3.31-8.69,0-15.94,5.98-17.56,13.6"/>
    <path class="cls-20" d="M493.11,321.97c-2.56-7.2-11.37-10.06-18.24-7.7,0,0-.49,.17-.49,.17v-.53c-.09-15.35-20.17-21.58-30.3-10.95-.7,.67-1.78,.84-2.65,.47-.84-.41-1.35-1.09-2.13-1.56-2.83-1.95-6.35-2.9-9.78-2.61-.87,.13-1.93-.16-2.46-.97-3.76-6.88-11.78-10.81-19.46-10.18-8.47,.47-16.62,6.62-18.26,15.13-.1,.43-.18,1.02-.42,1.4-.76,1.49-2.53,1.37-3.93,1.44-3.37,.26-6.66,1.51-9.3,3.61-1.16,.77-1.77,1.98-3.04,2.64-.97,.42-2.1,.19-2.91-.47-1.04-.73-2.17-1.32-3.35-1.8-9.72-4.1-22.05,1.35-24.49,11.89,1.79-10.96,14.67-16.72,24.81-12.7,1.25,.48,2.45,1.09,3.56,1.83,.56,.44,1.32,.64,1.99,.33,1-.61,1.78-1.84,2.8-2.52,2.8-2.24,6.28-3.58,9.85-3.86,.78-.13,1.66,.07,2.38-.25,.71-.29,.89-1.08,1.02-1.75,2.63-12.87,18.05-19.23,29.55-13.72,4.01,1.81,7.38,4.95,9.49,8.79,.45,.68,1.31,.95,2.15,.83,1.75-.13,3.52,.06,5.22,.49,1.7,.44,3.33,1.16,4.79,2.15,.72,.42,1.35,1.16,2.07,1.5,.73,.31,1.65,.13,2.2-.43,10.5-11.46,31.37-4.93,31.35,11.27,0,0-.5-.36-.5-.36,7.05-2.35,16.57,.91,18.48,8.41h0Z"/>
  </g>
  <g>
    <g>
      <g>
        <path class="cls-8" d="M249.12,274.46s9.08-17.42,4.08-31.98c-1.28-3.74-2.81-6.21-4.38-7.8-2.16-2.2-5.79,.6-4.35,3.37,.87,1.68,2.45,7.33,2.46,9.92,.03,8.28-7.54,16.81-7.54,16.81"/>
        <path class="cls-20" d="M249.12,274.46c5.04-11.59,8.12-26.19,.91-37.51-1.24-1.94-3-3.9-5-1.51-1.06,1.38,.18,2.85,.56,4.24,.78,2.38,1.4,4.78,1.67,7.29,.29,6.8-3.62,12.88-7.87,17.81,3.82-5.05,7.54-11.22,7.09-17.73-.38-2.78-1.12-5.59-2.13-8.22-.69-1.2-.95-2.74-.07-3.91,1.04-1.66,3.67-2.06,4.97-.5,.6,.61,1.13,1.28,1.6,1.98,7.39,11.61,4.17,26.57-1.72,38.06h0Z"/>
      </g>
      <g class="cls-3">
        <path class="cls-16" d="M244.08,267.98s10.27-10.74,9.67-23.71c0,0,1.14,18.89-4.51,28.41l-5.16-4.71Z"/>
      </g>
    </g>
    <g>
      <g>
        <path class="cls-10" d="M263.93,303.41s-5.32,33.33-22.34,47.02c-1.37,1.1-3.04-.43-2.46-2.22,3.17-9.84,1.63-21.26-.93-31.22-2.56-9.96,2.75-17.9,2.75-17.9l22.98,4.31Z"/>
        <path class="cls-20" d="M263.97,303.38c-2.39,13.28-6.45,26.43-13.79,37.83-1.87,2.79-4.03,5.5-6.48,7.82-.39,.41-.85,.76-1.27,1.13-.42,.35-.97,.92-1.57,.98-1.48,.21-2.48-1.4-2.17-2.71,.3-1.17,.63-2.16,.85-3.27,1.88-8.76,.59-17.85-1.44-26.47-2.06-6.67-1.11-14.14,2.64-20.06,6.84,1.28,16.33,3.36,23.22,4.75h0Zm-.08,.06c-6.77-1.08-16.38-2.77-23.02-3.93,0,0,.43-.18,.43-.18-2.23,3.75-3.4,8.22-3.29,12.6,.14,4.47,1.85,8.72,2.44,13.15,.76,4.45,1.08,9,.83,13.52-.15,2.26-.46,4.51-.96,6.73-.14,1.5-1.44,3.22-.63,4.57,.39,.6,1.15,.72,1.69,.27,0,0,.63-.54,.63-.54,.42-.37,.86-.7,1.25-1.1,11.78-11.42,17.43-29.39,20.64-45.1h0Z"/>
      </g>
      <g class="cls-3">
        <path class="cls-16" d="M242.69,306.57c15.68,23,1.19,41.7,1.06,41.93,0,0,16.07-17.1,14.57-32.14-1.51-15.04-15.63-9.8-15.63-9.8Z"/>
      </g>
    </g>
    <g>
      <g>
        <path class="cls-10" d="M244.72,299.59c-2.32-11.8-12.73-5.87-20.2,.31-4.31,3.57-4.93,9.96-1.43,14.33,5.72,7.14,12.54,19.42,8.11,34.07-.47,1.54,1.49,2.68,2.55,1.47,12.59-14.35,13.97-34.89,10.97-50.17Z"/>
        <path class="cls-20" d="M244.72,299.59c-1.38-7.54-6.73-8.11-12.73-4.76-4.53,2.79-10.37,6.03-10.86,11.9-.28,2.77,.68,5.54,2.49,7.63,1.78,2.22,3.4,4.57,4.77,7.08,4.15,7.47,5.93,16.49,3.79,24.89,0,0-.55,2.08-.55,2.08-.17,.51,.04,1.04,.51,1.29,.47,.25,.99,.16,1.35-.31l1.33-1.63c3.53-4.36,6.21-9.4,7.99-14.72,3.66-10.71,3.96-22.37,1.91-33.44h0Zm0,0c2.64,13.83,1.75,28.77-4.64,41.49-1.35,2.5-2.79,4.99-4.59,7.2,0,0-1.34,1.67-1.34,1.67-.49,.7-1.66,1-2.43,.52-.83-.41-1.25-1.47-.95-2.33,0,0,.51-2.03,.51-2.03,.61-2.72,.91-5.5,.82-8.29-.24-8.42-3.93-16.43-9.02-23.04-3.92-4.47-3.1-11.96,1.78-15.37,6.05-4.9,17.65-12.11,19.85,.18h0Z"/>
      </g>
      <g class="cls-3">
        <path class="cls-16" d="M225.22,313.74c10.01,11.04,10.66,25.59,7.18,35.23,0,0,10.29-16.18,7.24-28.76-3.05-12.58-14.42-6.47-14.42-6.47Z"/>
      </g>
    </g>
    <g>
      <path class="cls-8" d="M221.24,313.2c-5.75-13.18-1.83-19.37-1.51-30.99,.1-3.66,.34-3.28,.04-7.21,9.48,8.12,25.56,4.83,21.5-9.97,1.81,6.11,17.73,8.3,23.25,32.87,2.39,15.71-6.99,25.02-15.72,27.43-6.28,1.74-21.8,1.06-27.55-12.12Z"/>
      <path class="cls-20" d="M220.78,313.4c-2.68-5.96-3.65-12.69-2.64-19.15,.4-3.22,.97-6.39,1.2-9.6,.13-3.2,.47-6.43,.15-9.64-.01-.15,.1-.28,.25-.29,2.23,1.63,4.67,3.18,7.43,3.8,9.44,2.38,16.71-3.59,13.76-13.41-.12-.4,.53-.6,.65-.18,.48,1.53,1.82,2.7,3.12,3.76,11.04,7.77,17.16,15.79,20.11,29.15,2.7,14.8-7.57,29.63-23.38,28.54-8.54-.26-17.27-4.83-20.66-12.98h0Zm.92-.4c3.21,7.86,11.56,12.24,19.78,12.57,8.39,.8,16.66-3.93,20.45-11.43,5.84-11.36,1.17-25.12-6.19-34.67-2.14-2.67-4.66-4.99-7.38-7.09-2.61-2.25-6.09-3.82-7.43-7.27,0,0,.65-.18,.65-.18,1.73,5.7,.06,12.17-6.16,14.03-5.48,1.7-11.56-.13-15.84-3.76,0,0,.45-.23,.45-.23,.41,6.44-.48,12.97-1.23,19.35-.87,6.4,.16,12.83,2.89,18.67h0Z"/>
    </g>
    <g class="cls-3">
      <path class="cls-16" d="M260.95,297.35c.17,7.44-3.91,21.39-22.68,26.93-.87,.26-.71,1.53,.19,1.56,6.84,.2,18.64-.71,22.54-8.73,3.91-8.04,3.51-16.3,1.45-20.15-.4-.74-1.52-.45-1.5,.39Z"/>
    </g>
    <g class="cls-3">
      <path class="cls-16" d="M226.83,289.75c-4.22,3.75-7.08,20.53-2.56,28.44,0,0-7.9-12.32-5.39-24.05,2.51-11.73,12.18-8.14,7.95-4.39Z"/>
    </g>
    <g>
      <path class="cls-8" d="M231.14,289.83s-26.8,12.68-42.95-7.33c-.98-1.25,.53-3.29,2.02-2.76,16.02,9.33,30.17,1.83,30.17,1.83"/>
      <path class="cls-20" d="M231.16,289.87c-13.54,6.12-31.45,6.28-41.95-5.58-.16-.19-1.2-1.35-1.35-1.53-.78-.96-.36-2.42,.56-3.11,.52-.42,1.35-.63,2.03-.33,9.02,5.34,20.39,6.03,29.95,2.29-9.47,4.9-21.4,4.06-30.43-1.46,0,0,.08,.04,.08,.04-.68-.3-1.61,.43-1.71,1.24-.09,.44,.16,.81,.45,1.11,0,0,1.03,1.2,1.03,1.2,10.54,12.07,27.68,11.53,41.34,6.13h0Z"/>
    </g>
    <g class="cls-3">
      <ellipse class="cls-16" cx="231.45" cy="274.78" rx="13.32" ry="12.32"/>
    </g>
    <g>
      <path class="cls-20" d="M230.69,256.33c-1.1-2.11,.38-4.89,2.47-5.75-.47,2.29-1.43,3.76-2.47,5.75h0Z"/>
      <g>
        <path class="cls-8" d="M229.12,252.4c4.46,1.6,8.73,4.97,11.36,8.64,4.94,6.9,5.46,14.41-1.48,19.34-6.94,4.93-16.6,6.02-23.87-6.33-7.27-12.35-4.2-15.87,2.74-20.8,1.58-1.12,3.36-1.69,5.22-1.81"/>
        <path class="cls-20" d="M229.13,252.36c10.81,3.05,22.09,18.93,10.62,27.68-4.67,3.63-11.41,5.6-16.93,2.59-6-2.98-12.17-13.26-12.36-19.92-.03-4.34,3.69-7.3,6.97-9.46,1.64-1.19,3.66-1.8,5.64-1.85v.1c-1.96,.19-3.83,.95-5.35,2.17-2.97,2.26-6.41,4.98-6.3,9.05,.1,3.86,2.12,7.45,3.96,10.79,1.9,3.36,4.39,6.53,7.79,8.44,5.2,3.09,11.83,1.51,16.34-2.18,7.13-5.38,4.17-14.81-.98-20.47-2.6-2.9-5.81-5.3-9.46-6.84l.03-.09h0Z"/>
      </g>
      <path class="cls-20" d="M228.6,260.85c-1.06-1.48-.8-3.62,.34-4.98,.38-.45,.86-.85,1.47-1.01-.31,1.17-.59,2.05-.86,2.99-.3,.95-.54,2.03-.95,2.99h0Z"/>
      <g>
        <path class="cls-20" d="M215.86,268c1.87,.28,3.15,2.02,2.86,3.9-.29,1.87-2.04,3.17-3.92,2.89-1.87-.28-3.15-2.02-2.86-3.9s2.04-3.17,3.92-2.89Z"/>
        <ellipse class="cls-20" cx="211.11" cy="264.83" rx="6.86" ry="6.82" transform="translate(-126.17 234.05) rotate(-46.23)"/>
        <path class="cls-20" d="M216.5,261.57c3.5,.52,6.78-1.9,7.33-5.4,.54-3.51-1.85-6.77-5.36-7.3-3.5-.52-6.78,1.9-7.33,5.4-.54,3.51,1.85,6.77,5.36,7.3Z"/>
        <path class="cls-20" d="M222.76,251.77c1.96,.29,3.8-1.06,4.11-3.03,.31-1.97-1.04-3.8-3-4.09-1.96-.29-3.8,1.06-4.11,3.03-.31,1.97,1.04,3.8,3,4.09Z"/>
        <ellipse class="cls-20" cx="211.83" cy="255.17" rx="6.96" ry="6.92" transform="translate(-118.98 231.74) rotate(-46.25)"/>
        <path class="cls-20" d="M215.95,252.91c2.65,.4,5.13-1.44,5.55-4.09,.41-2.65-1.4-5.13-4.05-5.52-2.65-.4-5.13,1.44-5.55,4.09-.41,2.65,1.4,5.13,4.05,5.52Z"/>
        <path class="cls-20" d="M208,258.73c.43,1.31-.18,2.68-1.36,3.06s-2.49-.37-2.92-1.68c-.43-1.31,.18-2.68,1.36-3.06,1.18-.38,2.49,.37,2.92,1.68Z"/>
      </g>
    </g>
  </g>
  <path class="cls-7" d="M478.8,321.95c-1.77-4.26-6.26-6.56-11.53-6.56-1.5,0-2.93,.17-4.26,.56,0-.05,0-.11,0-.16,0-6.77-6.76-12.28-15.11-12.28-4.49,0-8.52,1.59-11.29,4.11-.69,.63-1.9,.68-2.66,.1-2.3-1.77-5.4-2.85-8.82-2.85-.4,0-.79,.01-1.18,.04-.75,.06-1.48-.25-1.83-.79-2.92-4.59-8.82-7.73-15.63-7.73-8.75,0-16,5.19-17.35,11.98-.15,.75-.94,1.3-1.88,1.3,0,0-.01,0-.02,0-4.58,0-8.67,1.7-11.38,4.36-.62,.61-1.74,.71-2.52,.23-2.58-1.58-5.81-2.47-9.32-2.47-7.46,0-13.68,4.46-15.07,10.14"/>
</svg>