<?xml version="1.0" encoding="UTF-8"?>
<svg id="Layer_1" data-name="Layer 1" xmlns="http://www.w3.org/2000/svg" viewBox="0 0 800 400">
  <defs>
    <style>
      .cls-1 {
        opacity: .1;
      }

      .cls-2 {
        fill: #f9ea35;
      }

      .cls-3 {
        fill: #fb8fb0;
      }

      .cls-4 {
        fill: #eaf7ff;
      }

      .cls-5 {
        fill: #fff;
      }

      .cls-6 {
        fill: #98d7fd;
      }

      .cls-7 {
        fill: #dde7ed;
      }

      .cls-8 {
        fill: #225467;
      }

      .cls-9 {
        fill: #41d94d;
      }

      .cls-10 {
        fill: #4286b8;
      }

      .cls-11 {
        fill: #27eeb1;
      }

      .cls-12 {
        fill: #36aff3;
      }

      .cls-13 {
        fill: #3c7490;
      }
    </style>
  </defs>
  <path class="cls-7" d="M169.95,136.78l23.31-.6-.8,.8c-.23-5.98,7.32-9,12.11-6.28,0,0-1.65,.7-1.65,.7,.55-2.54,1.95-4.88,3.94-6.59,1.97-1.72,4.55-2.78,7.21-2.91l-1.14,.67c6.78-11.9,24.71-10.03,29.01,2.96,0,0-3.11-1.09-3.11-1.09,1.85-1.25,3.93-1.54,6.04-1.52,6.32,.34,11.36,8.14,11.44,14.06,0,0-1.64-1.64-1.64-1.64,6.92,.29,13.83,.7,20.73,1.44,0,0,0,.4,0,.4-7.39,.79-14.81,1.21-22.23,1.5-.08-2.09-.46-4.05-1.65-6.01-1.43-2.48-4.1-5.63-6.97-5.6-.55,.02-1.17,.05-1.68,.16-1.31,.14-3,1.5-4.06,2.15,0,0-.81-2.59-.81-2.59-3.19-10.37-17-11.99-22.71-2.8,0,0-.42,.66-.42,.66-4.45-.28-8.74,2.9-9.8,7.26,0,0-.38,1.49-.38,1.49,0,0-1.26-.79-1.26-.79-2.56-1.5-6.59-.94-8.42,1.5-.81,1-.99,2.4-1,3.69,0,0-.76-.02-.76-.02l-23.31-.6v-.4h0Z"/>
  <path class="cls-7" d="M762.03,198.78l-35.24,.59h-.76c0-1.89-.36-3.88-1.53-5.39-3.28-4.41-10.41-4.93-14.67-1.71,0,0-.37-1.49-.37-1.49-1.54-6.44-7.62-11.48-14.25-11.53,0,0-.73-.01-.73-.01l-.41-.66c-8.97-14.6-30.76-12.09-35.95,4.26,0,0-.8,2.59-.8,2.59l-2.3-1.5c-1.34-.88-3.15-1.25-4.82-1.35-5.37-.62-9.81,4.65-12.33,9.05-1.59,2.76-2.38,5.64-2.39,8.63,0,0-1.54-.04-1.54-.04-10.45-.28-20.9-.72-31.33-1.44,0,0,0-.4,0-.4,5.22-.36,10.44-.65,15.67-.88,5.22-.23,10.44-.42,15.67-.56l-1.64,1.64c.19-7.22,5.02-14.93,11.1-18.6,4.11-2.42,9.82-2.05,13.89,.53,0,0-3.1,1.09-3.1,1.09,4.25-13.46,20.37-20.02,32.8-13.44,3.92,2.05,7.22,5.21,9.43,9.01,0,0-1.14-.67-1.14-.67,7.77,.27,14.72,6.24,16.32,13.78,0,0-1.65-.7-1.65-.7,6.89-3.95,17.91,.34,17.6,9.01,0,0-.79-.79-.79-.79,0,0,35.24,.59,35.24,.59v.4h0Z"/>
  <path class="cls-7" d="M260.85,340.1l-49.27,.59h-.76c0-2.62-.56-5.32-2.15-7.42-4.51-6.15-14.43-7.2-20.52-2.89,0,0-.36-1.48-.36-1.48-2.16-9.23-10.85-16.45-20.34-16.57,0,0-.74-.02-.74-.02l-.4-.66c-12.86-20.97-43.93-17.4-51.51,6,0,0-.81,2.6-.81,2.6l-2.29-1.51c-2.6-1.71-6.04-2.12-9.16-2.11-7,.42-12.59,7.34-15.94,13.21-1.98,3.6-3.36,7.64-3.24,11.73,0,0-1.59-.02-1.59-.02-14.61-.32-29.21-.72-43.81-1.44,0,0,0-.4,0-.4,7.3-.36,14.6-.66,21.9-.86,7.3-.19,14.6-.46,21.9-.57,0,0-1.64,1.64-1.64,1.64,.2-9.58,7.06-20.44,15.26-25.3,2.25-1.32,5.11-2.2,7.87-2.09,3.73,.03,7.49,.63,10.71,2.81,0,0-3.1,1.09-3.1,1.09,5.85-18.46,27.68-27.44,44.8-18.49,5.39,2.79,9.93,7.12,12.98,12.33,0,0-1.14-.67-1.14-.67,10.63,.33,20.18,8.49,22.41,18.82,0,0-1.65-.7-1.65-.7,9.45-5.32,24.39,.27,24.07,12.21,0,0-.79-.79-.79-.79l49.27,.59v.4h0Z"/>
  <g>
    <g>
      <path class="cls-5" d="M222.39,202.23s-6.14,6.15-10.39,4.43c-4.26-1.72-9.63-2.84-11.37,1.64-1.74,4.48,4.63,4.1,4.54,2.42s2.3-1.07,5.81,.31c3.5,1.37,10.95,1.46,12.97-.45"/>
      <path class="cls-10" d="M222.43,202.27c-2.61,2.64-6.26,5.85-10.28,4.9,0,0-1.56-.56-1.56-.56-2.86-.89-6.7-2.25-9.01,.35-1.35,1.61-1.72,4.49,1.07,4.57,.7,0,1.74-.07,2.09-.72-.04-.49,.11-1.12,.65-1.37,1.95-.65,4.13,.57,5.93,1.15,1.99,.69,4.19,.97,6.31,1.05,2.1-.01,4.45,.1,6.28-1.09,0,0,.07,.07,.07,.07-.39,.42-.89,.7-1.41,.92-3.71,1.31-7.84,1.22-11.62,.05-1.66-.53-3.41-1.6-5.14-1.33-.15,.05-.2,.26-.2,.44-.09,1.42-1.94,1.64-3.03,1.5-4.68-.7-1.71-6.79,1.64-7.16,2.26-.48,4.57-.02,6.66,.73,.85,.33,2.07,.89,3.01,.79,3.27-.14,6.06-2.64,8.55-4.28h0Z"/>
    </g>
    <g class="cls-1">
      <path class="cls-8" d="M203.02,211.48s-1.68-3.01,.63-3.73,14.58,4.83,19.19,3.25c0,0-5.59,2.23-9.73,.62s-7.09-3.06-7.89-2.62,.84,.78-.04,1.72c-.88,.94-2.15,.76-2.15,.76Z"/>
    </g>
  </g>
  <g>
    <path class="cls-12" d="M577.5,254.9l-16.68,39.46c-4.46,10.56-8.13,21.44-10.97,32.54l-9.36,36.59L183.87,209.61l393.63,45.28Z"/>
    <path class="cls-10" d="M577.58,254.85c-6.22,15.55-16.04,37.8-21.53,53.36-5.44,15.72-10.49,39.19-14.81,55.48-.11,.46-.62,.71-1.05,.52-59.53-25.43-118.89-51.25-178.17-77.27-22.13-9.68-66.93-28.98-89.16-38.45,0,0-89.28-38.17-89.28-38.17-.38-.16-.56-.61-.4-.99,112.03,10.66,280.79,32.46,394.41,45.53h0Zm-.17,.1c-113.77-12.44-281.39-31.14-393.63-44.58,0,0,.39-1.45,.39-1.45,50.76,22.03,127.9,55.88,178.17,77.26,59.6,25.27,119.11,50.74,178.45,76.61,0,0-1.05,.52-1.05,.52,4.47-16.42,9.65-39.65,15.31-55.45,5.57-15.41,15.94-37.62,22.36-52.91h0Z"/>
  </g>
  <g>
    <path class="cls-4" d="M184.78,209.61l390,51.62,4.44-2.49c10.94-6.13,22.73-10.59,34.99-13.22l13.25-2.85c1.17-.26,1.1-1.95-.08-2.12l-38.55-.45c-10.98-.13-21.94-.9-32.82-2.31-8.64-1.12-17.74-2.08-25.1-2.44l-124.06-6.18c-8.67-.43-17.3-1.27-25.89-2.51-19.82-2.86-59.75-8.25-92-10.33-44.77-2.89-104.19-6.72-104.19-6.72Z"/>
    <path class="cls-10" d="M184.88,209.62c126.55,16.16,263.97,34.38,389.96,51.22,7.21-4.58,17.64-9.44,26.65-12.38,6.84-2.32,14.51-3.87,21.57-5.4,2.13-.58,6.03-.86,4.33-1.95-16.25-.28-39.56,.11-55.52-.95-9.24-.56-18.42-1.95-27.62-2.86-18.35-1.75-64.05-3.29-83.07-4.39,0,0-55.43-2.78-55.43-2.78-18.53-.95-36.77-4.4-55.15-6.64-52.96-7.13-112.41-9.83-165.72-13.88h0Zm-.2-.02c64.52,4.05,129.63,5.82,193.68,15.66,9.14,1.36,18.29,2.34,27.5,2.82,27.66,1.35,83.2,4.16,110.84,5.61,8.17,.44,19.72,.89,27.73,1.85,9.2,.98,18.32,2.44,27.55,3.07,15.82,1.18,39.4,.98,55.42,1.38,.96,.04,1.73,1.15,1.41,2.08-.15,.57-.65,1.02-1.23,1.14,0,0-.23,.05-.23,.05l-.45,.1c-8.25,1.79-17.14,3.36-25.12,6.02-9.51,2.92-18.39,7.51-27.05,12.25-125.94-16.5-263.74-34.72-390.05-52.03h0Z"/>
  </g>
  <g>
    <g>
      <g>
        <path class="cls-5" d="M323.98,109.93c-25.16-13.25-67.62-10.04-67.62-10.04-2.72-.36-3.33,3.04-1.09,4.62,1.42,1,2.55,.71,7.09,1.12,0,0-1.06,7.6,5.97,8.87,3.17,.57,5.17-.66,6.41-2.19,2.05-2.54,6.23-2.2,9.42-1.51,17.82,3.88,28.39,13.1,38.71,23.82"/>
        <path class="cls-10" d="M323.93,110.02c-10.5-4.71-21.84-6.87-33.19-8.28-11.37-1.39-22.93-2.42-34.38-1.5-2.65-.35-2.55,3.08-.59,4.01,.86,.52,1.99,.5,3.15,.54,1.38,.03,2.81,.09,4.2,.18-.64,4.96,1.98,9.15,7.34,8.71,1.61-.14,2.84-1.07,3.82-2.32,1.08-1.19,2.74-1.8,4.27-2,4.93-.44,9.64,1.31,14.21,2.81,6.02,2.12,11.6,5.38,16.64,9.21,5,3.91,9.42,8.43,13.55,13.16,0,0-.14,.14-.14,.14-4.58-4.29-9.2-8.54-14.31-12.09-5.05-3.6-10.58-6.45-16.44-8.46-2.9-1.02-5.93-1.8-8.91-2.45-2.13-.36-4.35-.62-6.3,.24-.64,.29-1.05,.66-1.51,1.2-3.53,4.31-11.43,2.63-13.15-2.57-.59-1.64-.75-3.3-.54-5.02,0,0,.64,.8,.64,.8-2.33-.44-4.92-.04-7.06-1.25-2.69-1.56-2.17-5.97,1.09-5.54,11.54-.43,23.11-.84,34.61,.42,8.62,1.01,17.2,2.85,25.29,6.05,2.68,1.11,5.3,2.34,7.78,3.83l-.09,.18h0Z"/>
      </g>
      <g class="cls-1">
        <path class="cls-8" d="M281.22,108.98s32.23,3.54,38.99,12.12c0,0,7.68,19.62-.28,9.9-7.96-9.72-30.2-22.48-38.71-22.02Z"/>
      </g>
    </g>
    <g>
      <g>
        <path class="cls-6" d="M308.88,178.96s9.93,57.43,39.61,80.7c2.39,1.88,5.24-.81,4.2-3.88-5.7-16.93-3.29-36.68,.91-53.93,4.2-17.25-5.14-30.85-5.14-30.85l-39.58,7.96Z"/>
        <path class="cls-10" d="M308.96,179.01c4.78,22.41,12.33,45.15,25.38,64.3,3.86,5.51,8.27,10.66,13.49,14.92,0,0,1.12,.89,1.12,.89,.31,.23,.65,.39,.99,.43,1.56,.18,2.56-1.72,2.17-3.14-.08-.35-.26-.86-.4-1.32-4.07-12.63-3.88-26.26-1.95-39.26,.57-3.86,1.34-7.69,2.21-11.49,.92-3.64,1.73-7.49,1.73-11.25,.1-7.51-2.01-15.24-5.93-21.62,0,0,.85,.35,.85,.35-11.19,2.11-28.29,5.19-39.66,7.19h0Zm-.16-.11c6.57-1.47,23.14-5.19,29.5-6.58,3.5-.78,7.04-1.5,10.56-2.26,2.33,3.52,3.97,7.33,5.13,11.31,2.31,7.6,2.1,15.8-.03,23.43-2.49,11.25-4.22,22.79-3.57,34.32,.33,5.8,1.43,11.45,3.16,16.99,.57,2.3-1.16,5.2-3.8,4.84-1.07-.06-2.01-1.05-2.79-1.66-.75-.63-1.5-1.27-2.21-1.94-10.03-9.33-17.01-21.46-22.49-33.88-6.14-14.25-10.7-29.32-13.45-44.58h0Z"/>
      </g>
      <g class="cls-1">
        <path class="cls-8" d="M345.62,183.93c-26.57,40.05-1.12,72.04-.91,72.43,0,0-28.13-29.17-25.86-55.17,2.27-26,26.77-17.26,26.77-17.26Z"/>
      </g>
    </g>
    <g>
      <g>
        <path class="cls-6" d="M329.23,179.12c-1.05-33.06,57.58-17.31,48.94,21.4-3.77,16.89-20.2,20.48-7.11,55.83,1.8,3.08-1.11,5.07-4,2.98-26.72-19.29-36.98-53.33-37.84-80.21Z"/>
        <path class="cls-10" d="M329.23,179.12c-.7-32.51,53.96-18,50.52,16.98-.26,3.1-.92,6.17-2.02,9.08-2.21,5.87-6.09,10.71-8.29,16.17-4.77,11.23-1.45,23.66,2.43,34.69,2.03,3.36-1.45,6.68-5.22,3.94-4.61-3.44-8.88-7.38-12.64-11.72-16.39-19.02-23.83-44.39-24.79-69.15h0Zm0,0c.6,16.55,4.42,33.09,11.81,47.93,5.97,12,14.44,22.83,25.27,30.76,.58,.38,1.67,1.35,2.4,1.47,2.03,.5,2.57-1.03,1.55-2.64-4.21-11.29-7.67-24.42-2.66-36.05,2.41-5.78,6.25-10.59,8.37-16.09,1.08-2.73,1.73-5.63,2.04-8.57,4.1-33.78-49.22-49.21-48.78-16.82h0Z"/>
      </g>
      <g class="cls-1">
        <path class="cls-8" d="M367.51,195.41c-12.59,22.45-8.07,47.19,1.52,62.07,0,0-23.56-23.26-23.29-45.61,.28-22.35,21.77-16.45,21.77-16.45Z"/>
      </g>
    </g>
    <g>
      <path class="cls-5" d="M385.94,174.48c1.09-24.86-5.62-32.62-14.2-50.98-2.7-5.78-2.86-5.01-5.04-11.5-5.25,9.04-15.29,10.51-24.28,11.56-10.12,1.18-19.04,.63-20.64-13.32,1.01,10.95-23.89,29.05-16.71,71.95,6.61,26.68,28.73,33.32,45.86,31.42,12.31-1.36,33.92-14.28,35.01-39.13Z"/>
      <path class="cls-10" d="M384.94,174.43c.6-10.93-.44-22.03-4.85-32.13-1.75-4.44-5.03-10.57-7.09-14.96-2.31-5.07-5.17-9.84-6.82-15.17,0,0,.99,.1,.99,.1-4.9,8.89-15.77,10.96-25,11.9-4.74,.5-9.84,.94-14.25-1.4-4.51-2.42-6.28-7.71-6.81-12.46,0,0,1.34-.14,1.34-.14,.23,3.4-1.34,6.41-2.77,9.31-1.46,2.83-3.04,5.54-4.54,8.31-3,5.51-5.62,11.21-7.45,17.19-3.73,11.97-4.1,24.78-2.01,37.11,2.2,9.14,7.34,18.37,15.35,23.9,11.5,8.1,28.87,9.93,41.35,3.06,12.86-6.64,22.16-19.98,22.55-34.61h0Zm2,.09c-.51,17.92-13.83,33.7-30.78,38.75-12.03,3.1-25.6,.82-35.82-6.31-8.28-5.77-13.53-15-15.88-24.68-2.13-12.5-1.8-25.53,1.95-37.7,1.84-6.09,4.49-11.9,7.5-17.46,2.17-4.17,4.77-8.13,6.45-12.49,.51-1.43,.87-2.91,.75-4.33-.05-.82,1.2-1.04,1.34-.14,.27,2.29,.75,4.57,1.7,6.62,2.94,7.02,11.4,7.06,17.89,6.22,9.01-.91,19.38-2.72,24.18-11.28,.21-.4,.87-.34,.99,.1,1.62,5.3,4.46,10.06,6.72,15.06,8.99,17.46,13.98,27.25,12.99,47.63h0Z"/>
    </g>
    <g>
      <path class="cls-2" d="M382.82,202.86c3.14,8.73,13.39,30.34,13.39,30.34l40.8-6.12s-12.87-26.69-21.03-40.19c-3.96-6.55-37.52-2.16-37.52-2.16,0,0,1.22,9.4,4.36,18.12Z"/>
      <path class="cls-10" d="M382.91,202.83c3.83,10.17,9.5,20.15,14.1,29.99,0,0-.94-.5-.94-.5,3.4-.53,6.8-1.01,10.21-1.46,9.92-1.24,20.86-2.46,30.67-4.12,0,0-.26,.5-.26,.5-6.68-13.21-13.64-26.34-21.14-39.09-2.28-5.2-21.24-3.6-26.6-3.5-3.47,.17-6.96,.37-10.42,.66,0,0,.49-.63,.49-.63,.66,6.15,1.83,12.31,3.89,18.16h0Zm-.19,.07c-2.14-6.07-3.78-12.28-4.92-18.62,7.12-1.19,14.29-1.96,21.54-2.02,3.53-.04,7.07,.09,10.63,.71,2.19,.44,4.85,1.03,6.51,2.92,.64,.87,1.55,2.62,2.1,3.52,6.91,12.19,12.74,24.9,18.74,37.53,0,0,.21,.43,.21,.43-6.97,.95-13.92,2.05-20.84,3.32-6.27,1.08-14.78,2.68-21.01,3.49-4.61-9.93-9.01-21.07-12.96-31.28h0Z"/>
    </g>
    <g class="cls-1">
      <path class="cls-8" d="M378.54,147.25s.92,1.87,2.06,4.97c2.83,7.67,7.04,22.84,2.01,35.52,0,0,5.35-23.3-10.39-38.99l6.32-1.5Z"/>
    </g>
    <g class="cls-1">
      <path class="cls-8" d="M310.17,174.18c4.5,12.03,20,31.78,53.65,28.61,1.56-.15,2.13,2,.69,2.62-10.83,4.7-30.33,10.84-41.74,.47-11.43-10.39-16.1-23.87-15.26-31.37,.16-1.44,2.15-1.7,2.65-.34Z"/>
    </g>
    <g>
      <path class="cls-5" d="M368.42,118.28c14.1,3.74,35.23,27.88,30.05,70.86-1.24,2.78-6.05,2.05-6.49-.94-4.5-38.26-20.54-40.76-20.54-40.76"/>
      <path class="cls-10" d="M368.44,118.18c6.74,1.85,12.27,6.62,16.68,11.88,13.42,16.38,16.56,38.93,14.13,59.43-1.53,3.54-7.5,2.77-8.2-1.03-.06-.28-.27-1.89-.32-2.21-1.94-12.62-6.05-33.52-19.31-38.71,0,0,.03-.2,.03-.2,2.38,.42,4.46,1.74,6.33,3.21,9.08,7.95,12.5,20.42,14.41,31.91,.34,1.92,.49,4.02,.81,5.94,.57,1.8,3.88,2.19,4.67,.38,2.46-18.8-.16-42.31-13.05-58.33-3.19-4.01-7-7.63-11.51-10.11-1.5-.82-3.08-1.52-4.73-1.98,0,0,.05-.19,.05-.19h0Z"/>
    </g>
    <g>
      <path class="cls-5" d="M330.62,83.3c-4.83,6.61-8.57,14.65-8.77,22.45-.37,14.65,5.04,20.19,19.74,20.51,14.7,.32,26.15-1.7,30-25.57,3.95-24.43-9.37-26.75-24.07-27.08-3.35-.07-6.44,.84-9.21,2.47"/>
      <path class="cls-10" d="M330.7,83.35c-4.3,6.72-7.84,14.33-8.01,22.41-.04,4.62,.3,9.73,2.83,13.62,5.05,7.65,18.53,7.1,26.67,5.96,14.22-2.16,17.94-17.37,18.92-29.63,.87-10.74-2.48-18.57-13.87-20.54-6.2-.99-13.05-2.23-18.88,.99,0,0-.1-.17-.1-.17,5.58-3.87,12.8-3.05,19.25-2.33,17.46,2.39,17.52,18.14,14.09,32-2.38,10.36-8.01,18.96-19.29,20.39-3.26,.53-6.55,.54-9.81,.54-6.44-.02-14.24-.51-18.35-6.26-3.79-5.68-3.64-13.13-2.48-19.6,1.49-6.53,4.76-12.43,8.87-17.5,0,0,.16,.12,.16,.12h0Z"/>
    </g>
    <path class="cls-13" d="M339.04,104.07c-3.4-1.09-8.68-3.49-11.03-4.58-.63-.29-1.36,.1-1.48,.82-.43,2.36,.83,7.95,2.93,9.13,4.14,2.31,7.62-.98,10.02-3.49,.58-.6,.35-1.62-.43-1.87Z"/>
    <path class="cls-10" d="M339.21,81.35c-3.82,.18-7.15,.35-10.75-1.11,2.94-2.73,8.66-2.57,10.75,1.11h0Z"/>
    <circle class="cls-13" cx="348.43" cy="89.44" r="6.34"/>
    <circle class="cls-13" cx="333.03" cy="82.19" r="6.34"/>
    <path class="cls-10" d="M337.46,83.07c1,1.42,2.65,1.37,4.08,1.97,1.4,.62,2.68,1.45,4.3,1.43,0,0-.75,1.85-.75,1.85-1.15-1.14-2.64-1.44-4.08-1.97-1.44-.57-2.59-1.75-4.3-1.43,0,0,.75-1.85,.75-1.85h0Z"/>
    <g>
      <path class="cls-13" d="M367.66,93.13c-1.51,2.2-1.4,5.15,.24,6.89,1.64,1.76,4.19,1.45,5.7-.79,1.51-2.21,1.4-5.34-.24-7.08-1.64-1.74-4.19-1.23-5.7,.98Z"/>
      <path class="cls-13" d="M368.69,82.34c-2.39,3.39-2.22,7.78,.39,10.23,2.6,2.51,6.65,1.95,9.05-.87,2.39-2.7,2.22-6.97-.39-10.13-2.6-3.12-6.66-2.64-9.05,.77Z"/>
      <path class="cls-13" d="M380.5,85.28c-4.75,4.05-12.8,5.83-17.98,2.23-5.18-3.25-5.52-11-.77-17.92,4.75-6.66,12.8-8.31,17.98-2.52,5.18,6.57,5.52,15.05,.77,18.22Z"/>
      <path class="cls-13" d="M364.57,73.49c-3.87,5.43-10.43,8.77-14.65,6.17-4.22-2.59-4.5-9.96-.63-15.63,3.87-5.8,10.43-6.51,14.65-3.93,4.22,2.55,4.5,7.94,.63,13.39Z"/>
      <path class="cls-13" d="M341.76,71.09c-2.17,2.83-5.84,2.33-8.21-1.01-2.36-3.38-2.52-6.77-.35-8.75,2.17-2.08,5.84-2.51,8.21,.09,2.36,2.54,2.52,6.89,.35,9.66Z"/>
      <path class="cls-13" d="M368.5,70.14c-4.19,5.16-11.28,8.87-15.84,6.27-4.56-2.54-4.86-10.88-.68-16.86,4.19-6.04,11.28-5.58,15.84-2.87,4.56,2.79,4.86,8.28,.68,13.47Z"/>
      <path class="cls-13" d="M351.11,70.66c-2.93,4.4-7.9,5.76-11.09,2.24-3.19-3.55-3.4-9.01-.47-12.93,2.93-4.13,7.9-4.78,11.09-1.65,3.19,3,3.4,7.96,.47,12.34Z"/>
    </g>
    <polygon class="cls-10" points="354.94 90.24 365.24 94.43 354.61 91.18 354.94 90.24 354.94 90.24"/>
  </g>
  <g class="cls-1">
    <path class="cls-8" d="M319.88,119.8c0,4.47,1.68,8.8,4.82,11.98,2.62,2.65,6.41,5.1,11.63,5.48,12.03,.88,21.94-8.85,39.15-12.48h2.83l-4.87-4.98-25.82,7.81-21.17-1.33-6.57-6.49h0Z"/>
  </g>
  <g>
    <g>
      <path class="cls-11" d="M322.11,112.61s-5.92,1.09-1.6,9.3c4.31,8.21,19.45,14.41,32.67,8.41,9.77-4.43,27.16-16.68,38.6-6.59,11.44,10.09,19.38,1.04,19.38,1.04,0,0-5.92-1.53-4.67-3.61,1.25-2.07-1.09-6.48-1.09-6.48,0,0-3.35,4.43-7.79,2.37s-22.32-14.47-36.53-2.08c-14.22,12.39-31.66,14.99-38.98-2.36Z"/>
      <path class="cls-10" d="M341.91,133.22c-9.6,0-18.52-4.73-21.85-11.07-1.67-3.19-2.06-5.76-1.15-7.62,.97-1.98,3.02-2.38,3.11-2.4,.25-.04,.46,.08,.55,.3,2.71,6.42,6.87,10.32,12.37,11.59,7.54,1.74,16.95-1.69,25.81-9.41,12.82-11.17,28.37-2.7,35.02,.92,.87,.47,1.55,.84,2.06,1.08,4.02,1.87,7.15-2.17,7.18-2.22,.1-.14,.27-.21,.44-.2,.17,.01,.32,.11,.4,.26,.25,.48,2.43,4.73,1.07,6.98-.11,.19-.13,.35-.06,.53,.39,.97,2.92,1.94,4.42,2.33,.17,.04,.3,.17,.35,.34,.05,.17,.01,.35-.1,.48-.13,.14-3.17,3.55-8.25,3.87-3.9,.25-7.89-1.39-11.84-4.87-9.28-8.18-22.74-1.18-32.58,3.93-1.98,1.03-3.84,2-5.49,2.74-3.73,1.69-7.66,2.44-11.47,2.44Zm-20.08-20c-.53,.19-1.5,.68-2.02,1.75-.74,1.54-.35,3.87,1.15,6.71,4.46,8.49,19.42,13.91,32.02,8.19,1.62-.73,3.47-1.7,5.44-2.72,10.09-5.24,23.91-12.42,33.7-3.79,9.33,8.22,16.12,3.45,18.1,1.66-1.32-.42-3.73-1.35-4.27-2.68-.19-.48-.15-.97,.13-1.43,.77-1.27-.12-3.87-.78-5.34-1.17,1.19-4.18,3.65-7.88,1.93-.53-.25-1.23-.63-2.11-1.11-6.46-3.52-21.59-11.76-33.88-1.05-9.11,7.94-18.84,11.45-26.7,9.63-5.63-1.3-10.08-5.37-12.89-11.77Z"/>
    </g>
    <path class="cls-9" d="M324.01,121.1c10.94,11.2,23.3,7.87,35.9,1.72,14.89-7.55,21.21-12.17,36.98-2.42-17.33-8.14-20.41-4.22-36.76,2.92-8.9,3.46-19.16,8.93-28.56,4.12-2.87-1.49-5.93-3.93-7.57-6.34h0Z"/>
  </g>
  <g>
    <g>
      <path class="cls-5" d="M436.49,131.31c-6.2,.17-42.44,33.69-27.7,68.26,.97,2.89,5.82,2.62,6.55-.31-4.39-39.71,22.1-45.11,22.1-45.11"/>
      <path class="cls-10" d="M436.49,131.41c-1.62,.22-3.05,1.29-4.38,2.19-4.04,2.95-7.53,6.59-10.72,10.42-12.49,14.96-20.32,36.53-11.81,55.21,.51,1.61,2.8,1.84,4.03,.95,.41-.29,.68-.69,.79-1.15l-.02,.34c-.5-4.41-.76-9.47-.35-13.89,.89-13.83,9.03-28.3,23.38-31.42-18.92,7.37-23.07,26.41-21.12,45.1,0,1-.84,2.05-1.62,2.57-2.2,1.59-5.98,.64-6.67-1.82-5.43-12.62-3.96-27.28,1.91-39.45,4.32-9.13,10.53-17.32,18.07-24.01,2.58-2.06,5.18-4.6,8.52-5.25,0,0,0,.2,0,.2h0Z"/>
    </g>
    <path class="cls-13" d="M461.67,89.76s-16.01-4.67-23.78-1.2-16.9,10.31-13.24,31.7l37.03-30.49Z"/>
    <g class="cls-1">
      <path class="cls-8" d="M453.8,208.72c-34.28,33.69-16.01,70.24-15.88,70.67,0,0-21.48-34.36-13.88-59.33,7.6-24.96,29.77-11.35,29.77-11.35Z"/>
    </g>
    <g class="cls-1">
      <path class="cls-8" d="M472.84,224.48c-16.96,19.36-17.66,44.5-11.36,61.04,0,0-18.24-27.63-13.34-49.44,4.9-21.81,24.7-11.59,24.7-11.59Z"/>
    </g>
    <g>
      <path class="cls-5" d="M485.53,218.52c-21.03-14.51-15.05-43.72-13.52-60.53,.58-6.35-9.39-13.96-12.32-20.14-5.14,11.88-8.93,10.26-19.49,9.77-7.58-.35-14.42-7.65-14.42-7.65,0,0-9.06,9.92-12.56,26.88-2.16,10.45-1.88,28.81,2.77,44.73,9.71,25.72,40.06,27.04,48.34,25.75s21.2-18.81,21.2-18.81Z"/>
      <path class="cls-10" d="M484.54,218.69c-.8-.36-1.14-.47-1.85-1.11-2.21-1.84-4.15-3.99-5.83-6.32-10.5-15.28-7.29-34.83-5.49-52.14,.52-2.73-.58-5.25-2.12-7.53-3.06-4.71-7.45-8.44-10.06-13.49,0,0,1-.02,1-.02-.69,1.59-1.44,3.16-2.34,4.66-1.7,3.12-4.91,5.7-8.58,5.76-2.56,.17-5.25-.06-7.78-.2-6.29,.04-11.86-3.58-16.2-7.86,0,0,.99,0,.99,0-5.87,7.12-9.84,15.88-11.99,24.85-2.13,9.08-1.97,18.56-1.16,27.81,.6,6.12,1.8,12.54,3.44,18.28,3.72,10.26,12.3,18.15,22.43,21.96,7.58,2.85,15.84,4.14,23.92,3.48,7.35-.52,15.73-11.19,20.19-16.71,.45-.56,1.1-1.47,1.53-2.03,0,0,.05-.07,.05-.07,0,0,.01-.02,.01-.02-.15,.15-.2,.52-.15,.71h0Zm1.97-.33c.04,.28-.09,.69-.29,.9,0,0-.11,.14-.11,.14,0,0-.21,.27-.21,.27-2.11,2.64-4.45,5.39-6.79,7.83-3.86,3.95-7.88,8.18-13.22,10.17-5.44,1.31-11.21,.59-16.67-.24-14.55-2.33-28.74-11.27-33.82-25.62-3.45-12.14-4.74-24.87-3.86-37.46,.67-9.46,3.6-18.76,8.3-27,1.59-2.75,3.32-5.38,5.44-7.82,.25-.29,.7-.3,.96-.03,3.48,3.47,7.85,6.6,12.8,7.41,11.18,.73,15.2,2.41,20.14-9.26,.12-.28,.44-.4,.72-.28,1.92,3.2,4.36,6.24,6.84,9.13,2.85,3.6,6.55,7.73,5.68,12.72-1.73,16.94-4.82,36.36,5.8,51.06,2.27,3.22,5.42,5.44,8.3,8.09h0Z"/>
    </g>
    <g class="cls-1">
      <path class="cls-8" d="M458.46,159.7s1.97,.5,1.96,3.83c-.03,6.93,3.27,21.39,9.87,31.76,.67,1.06,2.3,.34,1.96-.87-2.37-8.29-5.02-23.52,1.57-37.53l-15.37,2.82Z"/>
    </g>
    <g class="cls-1">
      <path class="cls-8" d="M417.3,197.05c6.34,12.54,25.25,32.13,60.13,24.66,1.62-.35,2.5,1.92,1.08,2.77-10.73,6.41-30.37,15.41-43.73,5.52-13.38-9.91-20.1-24.01-20.22-32.25-.02-1.58,2.02-2.1,2.74-.69Z"/>
    </g>
    <g>
      <g class="cls-1">
        <path class="cls-13" d="M424.84,120.63c-6.27,10.89-2.85,24.6,7.63,30.64,10.48,6.04,21.45,.93,27.72-9.96,6.27-10.89,5.47-23.43-5.02-29.47-10.48-6.04-24.06-2.1-30.33,8.78Z"/>
      </g>
      <g>
        <path class="cls-5" d="M423.02,111.43c-5.12,13.18-5.71,28.62,8.03,36.43,11.81,6.72,39.43-7.18,36.32-26.23-4.19-25.67-4.94-27.71-12.68-34.3-12.99-4.18-26.54,10.92-31.66,24.1Z"/>
        <path class="cls-10" d="M423.11,111.47c-3.86,9.74-4.79,22.25,2.3,30.62,3.39,3.95,8.07,7.05,13.53,6.81,14.08-.23,30.92-12.38,27.75-27.86-1.33-6.63-2.48-13.53-4.2-19.99-.72-2.59-1.63-5.1-3.04-7.23-1.41-2.14-3.4-3.9-5.46-5.67-12.59-3.28-26.21,11.22-30.88,23.33h0Zm-.19-.07c4.76-12.17,17.35-29.97,32.45-24.88,2.08,1.78,4.25,3.68,5.84,6.14,1.56,2.47,2.46,5.21,3.15,7.89,1.34,5.4,2.12,10.82,2.9,16.24,0,0,.55,4.07,.55,4.07,.73,4.13,.03,8.51-1.86,12.23-5.87,12.02-27.27,23.41-38.86,13.14-10.8-8.39-8.7-23.6-4.16-34.83h0Z"/>
      </g>
      <path class="cls-10" d="M448.37,120.56c-.49,.36-1.23,.15-1.67-.22-1.75-1.34-2.03-4.15-4.55-3.94-.85,.05-1.8,.31-2.84,.51,2.62-3.69,6.58-2.72,7.69,1.49,.36,.86,.31,1.86,1.37,2.15h0Z"/>
      <path class="cls-10" d="M431.88,113.17c-.94-1.46-1.43-3.08-3.32-2.88-1.54,.18-5.17,.95-5.35-1.63,.86,.74,1.53,.58,2.35,.33,.83-.24,1.74-.62,2.88-.7,2.78-.3,4.17,2.53,3.44,4.87h0Z"/>
    </g>
    <path class="cls-13" d="M433.87,95.39c22.99,.79,9.06,11.5,22.91,27.07,10.68,12,2.53,19.04,2.53,19.04,2.78,2.82,12.26,12.66,24.66,14.35,6.16,.84,15.76-2.61,20.22-6.31,3.77-3.13,6.46-7.48,7.25-15.71-8.12,3.49-12.14,11.61-16.38,7.93-4.96-4.3-6.5-10.31-9.94-18.79-1.34-3.3-6.31-7.6-7.78-10.93-1.57-3.58-4.18-9.79-6.14-13-3.34-5.47-7.42-8.28-12.86-11.01-12.28-6.17-20.91-2.87-24.48,7.37Z"/>
    <g>
      <path class="cls-5" d="M457.48,165.22c6.07,1.27,49.07-22.97,42.72-60.02-.27-3.03-5.06-3.9-6.44-1.21-4.9,39.65-33.73,37.87-33.73,37.87"/>
      <path class="cls-10" d="M457.5,165.12c1.63,.16,3.26-.55,4.77-1.12,4.61-1.94,8.85-4.67,12.84-7.67,15.61-11.67,28.21-30.84,24.25-50.99-.12-1.68-2.3-2.43-3.71-1.86-.47,.19-.82,.51-1.03,.94,0,0,.1-.32,.1-.32-1.26,11.64-5.49,23.79-14.91,31.33-5.54,4.39-12.73,6.93-19.78,6.53,0,0,.01-.2,.01-.2,9.21-.35,17.93-5.18,23.43-12.47,5.64-7.41,8.07-16.66,9.45-25.74,1.84-3.58,7.92-2.16,8.14,1.51,2.37,13.54-2.45,27.46-10.97,37.94-6.32,7.88-14.25,14.41-23.12,19.18-2.98,1.41-6.11,3.28-9.5,3.14,0,0,.04-.2,.04-.2h0Z"/>
    </g>
  </g>
  <g>
    <g>
      <path class="cls-2" d="M487.2,78.33c5.53-10.68,14.54-33.55,14.54-33.55l62.17,13.65s-25.18,23.57-36.09,40.88c-10.91,17.31-46.41,3.57-46.41,3.57,0,0,.26-13.87,5.79-24.55Z"/>
      <path class="cls-10" d="M487.11,78.28c5.47-10.89,9.54-22.43,13.88-33.8,0,0,.24-.63,.24-.63,0,0,.68,.14,.68,.14,15.62,3.09,31.03,7.08,46.53,10.69,4.16,.98,12,2.66,16.19,3.54-6.44,6.17-12.56,12.67-18.47,19.34-5.74,6.47-11.38,13.12-16.18,20.31-1.15,1.73-2.37,3.79-4.08,5.37-8.68,7.79-21.63,6.32-32.13,4.1-4.42-1.03-8.74-2.39-12.95-4.09,.6-8.6,2.43-17.22,6.29-24.97h0Zm.18,.09c-3.76,7.56-5.15,16.13-5.31,24.51,0,0-.36-.54-.36-.54,4.08,1.37,8.3,2.42,12.53,3.24,11.8,2.24,27.55,3.43,34.17-8.84,10.04-14.41,22.68-26.57,35.36-38.58,0,0,.16,.6,.16,.6-15.39-3.6-31.3-6.49-46.75-9.72-5.19-1.12-10.37-2.26-15.53-3.49l.92-.49c-1.16,2.83-2.39,5.62-3.62,8.41-3.47,7.77-7.75,17.34-11.57,24.89h0Z"/>
    </g>
    <g>
      <path class="cls-13" d="M507.09,63.31l-.1-.02c-.59-.14-.88-.72-.65-1.33s.9-.99,1.5-.85l.1,.03,.24-.61c.42-1.07,.99-1.79,1.68-2.19,.7-.4,1.51-.48,2.45-.24,.41,.11,.77,.22,1.04,.35,.42,.19,.68,.73,.41,1.35-.27,.61-.97,1.01-1.54,.87l-.22-.06c-.59-.15-1.07,.09-1.36,.8l-.15,.37,1.11,.28c.59,.15,.85,.73,.59,1.33-.26,.59-.92,.94-1.49,.8l-1.06-.26-2.25,5.42c-.27,.64-1.01,1.03-1.68,.88s-1-.8-.74-1.44l2.14-5.47Z"/>
      <path class="cls-13" d="M510.72,66.76v-.03c1.12-2.54,4.12-4.17,6.87-3.48s3.63,3.2,2.34,5.64l-.02,.03c-1.23,2.34-4.07,3.73-6.6,3.15s-3.65-2.89-2.59-5.31Zm6.84,1.64l.02-.03c.63-1.25,.28-2.59-1.07-2.92s-2.76,.55-3.35,1.83v.03c-.59,1.25-.18,2.52,1.12,2.83s2.66-.51,3.28-1.73Z"/>
      <path class="cls-13" d="M522.7,66.02c.37-.69,1.22-1.12,1.89-.95s.89,.86,.51,1.54l-.22,.39c.82-.76,1.83-1.4,2.54-1.22s.86,.79,.46,1.49c-.38,.64-1,.92-1.54,.91-1.35,0-2.54,.75-3.47,2.4l-1.18,2.1c-.34,.6-1.12,.97-1.74,.83s-.87-.75-.54-1.36l3.3-6.12Z"/>
      <path class="cls-13" d="M528.62,67.48c.4-.67,1.26-1.09,1.92-.93s.84,.84,.42,1.51l-.06,.09c.98-.58,2.1-1.06,3.29-.76,1.07,.27,1.55,.96,1.41,1.9,1.28-.68,2.45-.94,3.55-.66,1.69,.42,1.94,1.71,.54,3.63l-2.87,3.93c-.41,.57-1.22,.91-1.81,.78s-.74-.7-.34-1.28l2.28-3.23c.75-1.06,.66-1.73-.18-1.93s-1.75,.22-2.47,1.3l-2.21,3.27c-.39,.58-1.19,.93-1.79,.79s-.78-.72-.4-1.3l2.15-3.3c.71-1.08,.59-1.76-.27-1.97s-1.75,.23-2.43,1.32l-2.08,3.34c-.37,.59-1.16,.95-1.77,.81s-.82-.73-.47-1.33l3.58-5.97Z"/>
      <path class="cls-13" d="M506.13,78.75l-1.73,.02c-.25,0-.6-.01-.83-.06-1.05-.22-1.65-1.2-1.28-2.16,.33-.84,1.22-1.42,2.26-1.46l3.33-.14c.97-.03,1.69-.02,2.32,.12h.06c1.25,.29,1.81,1.44,1.26,2.56l-6.34,12.94c-.41,.83-1.59,1.34-2.66,1.14s-1.65-1.04-1.27-1.88l4.89-11.07Z"/>
      <path class="cls-13" d="M510.92,91.8c-.73-1.25-.72-2.94,.88-5.93l.02-.04c2.72-5.06,7.85-8.71,13.8-7.39,1.96,.44,3.25,1.22,3.98,2.1,.41,.49,.49,1.1-.04,1.85-.66,.95-2.04,1.49-3.11,1.26-.35-.07-.64-.27-.84-.47-.58-.61-1.21-1.02-2.35-1.26-2.38-.51-4.6,.92-6.12,2.99,1.25-.33,2.65-.61,4.49-.22,3.67,.76,5.26,3.02,3.11,6.04l-.03,.04c-1.97,2.77-6,4.08-9.65,3.4-2.21-.41-3.45-1.19-4.13-2.36Zm9.88-1.65l.03-.04c.8-1.21,.22-2.36-1.74-2.75s-3.67,.28-4.4,1.52l-.02,.04c-.71,1.21-.08,2.33,1.82,2.7s3.52-.27,4.32-1.47Z"/>
    </g>
  </g>
  <g>
    <path class="cls-5" d="M492.83,109.8s-.21-7.58,1.09-8.64c1.89-1.55,3.26,.96,3.4,8.27"/>
    <path class="cls-10" d="M491.83,109.83c.2-2.95,.02-6.04,1.37-8.77,.48-.67,1.5-1.12,2.31-.74,1.44,.85,1.51,2.76,1.72,4.21,.16,1.64,.15,3.27,.09,4.89-.18-1.59-.57-8.12-2.5-8.14-.2,.07-.47,.24-.59,.45-.83,2.5-.48,5.42-.4,8.04,0,0-2,.05-2,.05h0Z"/>
  </g>
  <g>
    <g>
      <path class="cls-5" d="M225.04,217.46c-18.8-8.28-13.94-26.7-13.94-26.7-19.47-4.65-25.34-21.7-23.31-28.28,.64-2.06,2.96-8.49,4.92-7.59l28.32,14.14c1.94,.9,3.27,8.18,3.5,10.31l1.31,11.99c40.28,20.28,38.36,33.89,38.36,33.89"/>
      <path class="cls-10" d="M225.04,217.46c-11.62-3.62-17.34-15.29-14.79-26.92,0,0,.64,1.07,.64,1.07-8.71-1.98-16.83-7.33-21.24-15.24-2.75-4.87-4.54-11.1-2.08-16.47,.9-2.07,2.59-7.21,5.67-5.94,3.87,1.96,25,12.31,28.71,14.31,1.19,1.01,1.49,2.07,2,3.34,.76,2.18,1.21,4.34,1.57,6.56,.54,4.43,.96,8.69,1.45,13.04l-.62-.9c7.9,4.02,15.62,8.45,22.74,13.76,5.99,4.7,16.12,12.71,15.11,21.15-.91-4.3-3.87-7.63-6.64-10.86-8.94-9.59-20.66-16.04-32.24-22.01,0,0-.55-.28-.55-.28,0,0-.07-.62-.07-.62-.99-6.85-.75-14.06-3.47-20.44-.45-.78-.44-.85-1.16-1.18-3-1.49-24.76-12.42-27.75-13.92-1.05,.61-2.16,3.22-2.77,4.75-2.27,4.81-.6,10.29,1.83,14.75,4.1,7.48,11.7,12.55,19.93,14.5,0,0,.84,.21,.84,.21l-.2,.87c-2.49,11.2,3.09,21.26,13.1,26.48h0Z"/>
    </g>
    <g>
      <path class="cls-13" d="M204.09,160.05l-9.83-4.54c-1.95-.9-4.27,.1-4.92,2.15-.77,2.43-2.29,4.09-1.65,8.04,6.35,1.78,16.39-5.64,16.39-5.64Z"/>
      <path class="cls-10" d="M204.04,160.05l-5.99-2.39c-.95-.39-1.87-.79-2.79-1.21-.77-.34-1.85-1-2.73-.93-1.51-.02-2.84,1.12-3.2,2.61,0,0-.59,1.47-.59,1.47-.89,1.9-1.08,3.97-.64,6.01,0,0-.3-.33-.3-.33,5.79,.91,11.28-2.71,16.23-5.24h0Zm.1-.01c-4.49,3.7-10.8,7.62-16.81,5.97-.18-1.16-.18-2.35,.05-3.5,.31-1.61,1.13-2.97,1.68-4.47,.37-1.62,1.69-3.04,3.44-3.2,1.14-.17,2.24,.39,3.24,.86,2.82,1.3,5.81,2.96,8.41,4.35h0Z"/>
    </g>
    <path class="cls-10" d="M261.78,194.03c3.51-.94,6.47,1.32,9.17,3.2,8.35,6.56,3.6,16.42-2.86,22.32-1.3,1.26-2.33,2.49-4.5,2.15-.1-2.45,1.3-3.12,2.26-4.31,.53-.54,.98-1.14,1.46-1.71,3.96-4.63,7.33-11.37,1.76-16.3-2.19-2.27-5.09-2.81-7.29-5.36h0Z"/>
    <g class="cls-1">
      <path class="cls-8" d="M211.1,190.76c.57,7.7,4.2,17.06,17.02,23.55,3.19,1.62,9.56-.9,17.25,.82,7.69,1.72,18.45,9.99,18.45,9.99l-36.69-5.97s-15.42-7.13-16.03-18.53c-.61-11.4,.52-9.93,0-9.86Z"/>
    </g>
    <path class="cls-13" d="M254.39,220.64c0,.88-.36,1.68-.94,2.26,0,0-4.75-.52-5.18-.97-.17-.39-.27-.83-.27-1.29,0-1.76,1.43-3.19,3.19-3.19s3.19,1.43,3.19,3.19Z"/>
    <path class="cls-13" d="M251.47,207.25c-1.22,2.45-3.75,4.13-6.67,4.13-4.11,0-7.44-3.33-7.44-7.44,0-1.98,.77-3.78,2.04-5.12,1.36-1.43,12.56,7.43,12.07,8.43Z"/>
  </g>
  <g>
    <path class="cls-3" d="M417.38,214.73s-3.14,23.14,9.42,42.53l88.27,17.01s40.8,13.13,50.82-7.25c-14.85,4.07-26.32-12.54-37.8-17.98-11.29-5.35-23.4-.95-28.39-12.29-4.14-9.42-14.78-18.23-14.78-18.23,0,0-44.46,16.14-67.54-3.8Z"/>
    <path class="cls-10" d="M417.42,214.83c-.59,10.75,.8,22.19,4.97,32.33,1.38,3.39,3.1,6.62,5.06,9.68,0,0-.5-.34-.5-.34,19.7,3.6,46.56,8.9,66.15,13.03,7.34,1.55,14.7,2.97,22.05,4.43,12.53,3.58,28.02,6.38,40.49,1.62,4.17-1.68,7.81-4.72,9.74-8.81,0,0,.66,.8,.66,.8-15.59,4.1-25.95-11.69-38.43-17.73-5.66-2.67-11.74-2.7-17.9-4.07-6.17-1.38-9.37-4.5-11.78-10.26-3.38-6.23-8.35-11.55-13.65-16.2,0,0,1,.17,1,.17-5.65,1.94-11.39,3.32-17.23,4.33-16.96,2.81-37.06,3.15-50.63-9h0Zm-.07-.19c18.28,14.4,46.64,9.62,67.23,2.94,0,0,.56-.2,.56-.2l.43,.37c5.57,4.84,10.67,10.28,14.23,16.78,1.13,2.56,2.6,5.54,5.03,7.06,5.17,3.35,11.59,2.89,17.54,4.49,16.01,3.15,25.67,24.31,43.37,20.4,0,0,1.23-.33,1.23-.33-1.2,2.51-2.77,4.91-4.93,6.7-11.95,9.73-33.35,5.59-47.07,1.73-7.16-1.33-14.74-2.79-22.06-4.07-19.72-3.45-46.63-8.51-66.25-12.49,0,0-.33-.07-.33-.07,0,0-.17-.27-.17-.27-2.01-3.17-3.71-6.53-5.02-10.03-3.78-10.02-5.07-20.92-4.03-31.55,0,0,.08-.69,.08-.69,0,0,.05-.35,.05-.35,0,0,.02-.17,.02-.17,0,0,.01-.09,.01-.09,0,0,.03-.14,.08-.17h0Z"/>
  </g>
  <path class="cls-3" d="M205.96,185.02h0c-1.41,.65-3.8,.24-4.45-1.16,0,0-1.01-.85-1.57-4.33l5.1-3.24c-.26,2.4,2.3,5.02,2.3,5.02,.65,1.41,.03,3.07-1.38,3.72Z"/>
  <g>
    <path class="cls-5" d="M194.05,180.08s6,1.02,9.78-2.77"/>
    <path class="cls-10" d="M195.93,180.71c-1.12,0-1.88-.12-1.96-.14l.17-.99c.06,.01,5.8,.93,9.35-2.63l.71,.71c-2.58,2.59-6.1,3.05-8.26,3.05Z"/>
  </g>
  <g>
    <path class="cls-5" d="M211.39,157.59s5.21,0,3.85,7.48"/>
    <path class="cls-10" d="M211.39,157.49c1.3-.76,3.18-.16,3.89,1.16,1.1,2.02,.82,4.39,.06,6.44,0,0-.2-.04-.2-.04-.02-.41-.04-.81-.04-1.21-.1-1.1-.28-2.33-.79-3.26-.85-1.14-1.72-1.87-2.91-2.9,0,0,0-.2,0-.2h0Z"/>
  </g>
  <g>
    <path class="cls-5" d="M203.03,153.05s-2.56-1.08-4.34,1.69"/>
    <path class="cls-10" d="M202.99,153.14c-.55,.39-.88,.57-1.19,.7-.28,.15-.6-.06-.94,0-.32,.05-.68,.14-1.02,.31-.37,.15-.7,.4-1.06,.65l-.17-.11c.23-.93,.78-1.81,1.65-2.33,.43-.28,.96-.65,1.52-.51,.54,.12,1.06,.43,1.29,1.11l-.08,.18h0Z"/>
  </g>
  <g class="cls-1">
    <path class="cls-8" d="M421.37,218.57s-.07,2.49,.25,6.45c.15,1.91,1.3,4.16,1.69,6.64,.53,3.39-.49,10.83,.7,14.79,1.75,5.8,3.82,9.85,9.13,13.74l39.7,9.09s5.05-4.3-2.92-9.09c-7.97-4.8-19.05,2.6-20.15-6.38-1.1-8.98,5.63-11.57-2.72-15.41-8.35-3.84-24.57-12.7-25.69-19.82Z"/>
  </g>
  <path class="cls-10" d="M628.44,256.48l40.69,6.46-40.96-4.47c-1.33-.17-1.07-2.17,.27-1.98h0Z"/>
  <path class="cls-10" d="M570.6,358.88l58.68,17.3-59.21-15.37c-1.28-.36-.76-2.28,.53-1.93h0Z"/>
  <g class="cls-1">
    <circle class="cls-8" cx="443.3" cy="246.08" r="2.51"/>
  </g>
  <circle class="cls-3" cx="461.41" cy="248.8" r="2.51"/>
  <circle class="cls-3" cx="470.47" cy="238.83" r="2.51"/>
  <g class="cls-1">
    <circle class="cls-8" cx="470.47" cy="248.8" r="2.51"/>
  </g>
  <g class="cls-1">
    <circle class="cls-8" cx="523.02" cy="266.01" r="2.51"/>
  </g>
  <g class="cls-1">
    <circle class="cls-8" cx="433.33" cy="254.23" r="2.51"/>
  </g>
  <g class="cls-1">
    <circle class="cls-8" cx="488.59" cy="260.57" r="2.51"/>
  </g>
  <g class="cls-1">
    <circle class="cls-8" cx="426.99" cy="234.3" r="2.51"/>
  </g>
  <g class="cls-1">
    <circle class="cls-8" cx="479.53" cy="234.3" r="2.51"/>
  </g>
  <g class="cls-1">
    <circle class="cls-8" cx="454.17" cy="254.23" r="2.51"/>
  </g>
  <g class="cls-1">
    <circle class="cls-8" cx="506.71" cy="266.01" r="2.51"/>
  </g>
  <g class="cls-1">
    <circle class="cls-8" cx="458.7" cy="236.11" r="2.51"/>
  </g>
  <g class="cls-1">
    <circle class="cls-8" cx="514.86" cy="251.51" r="2.51"/>
  </g>
  <g class="cls-1">
    <circle class="cls-8" cx="488.59" cy="248.8" r="2.51"/>
  </g>
  <g class="cls-1">
    <circle class="cls-8" cx="546.57" cy="271.44" r="2.51"/>
  </g>
  <g>
    <path class="cls-5" d="M553.94,291.13l-4.21,13.04c-5.7,17.64-8.78,36.02-9.15,54.55l-.09,4.77-166.07-64.45c-7.95-2.93-15.8-6.13-23.52-9.6l-115.52-51.9c-11.22-4.72-22.09-10.24-32.52-16.51l-18.98-11.42,370.07,81.52Z"/>
    <path class="cls-10" d="M554.03,291.08c-3.7,11.64-7.56,23.71-9.66,35.72-2.26,12.12-3.23,24.38-3.25,36.71,0,.43-.46,.75-.86,.58-58.9-22.62-122.83-47.15-181.2-70.52-29.59-13.26-59.04-26.74-88.65-39.9-22.01-10.29-44.98-18.72-66.02-31,0,0-20.89-12.43-20.89-12.43-.34-.2-.46-.65-.25-.99,.16-.28,.48-.4,.78-.34,0,0,46.38,10.03,46.38,10.03,104.68,22.69,218.79,48.46,323.62,72.14h0Zm-.17,.1c-121.07-25.96-249.65-53.66-370.14-80.86,0,0,.53-1.33,.53-1.33,0,0,20.78,12.6,20.78,12.6,13.33,8.6,50.73,24.5,65.67,31.43,29.54,13.28,59.06,26.73,88.78,39.57,51.39,19.63,130.63,50.35,181.25,70.31,0,0-.86,.58-.86,.58,.11-6.15,.35-12.36,.96-18.51,1.2-12.3,3.64-24.48,7.26-36.29,1.6-5.19,4.05-12.31,5.78-17.5h0Z"/>
  </g>
  <g>
    <path class="cls-4" d="M183.87,209.61l394.28,77.55,1.54,1.74c11.61,13.15,25.26,24.34,40.43,33.15l19.31,11.2c1.16,.88,.28,2.72-1.13,2.36l-45.66-11.69c-14.7-3.76-29.25-8.1-43.62-13.01l-56.02-18.24c-23.66-8.09-47.82-13.72-72.32-18.68l-72.31-16.44c-17.68-3.58-35.18-7.98-52.45-13.19l-112.05-34.74Z"/>
    <path class="cls-10" d="M183.77,209.59c.16,.16,394.83,76.67,394.9,77.11,8.4,9.69,17.85,18.41,28.25,25.9,5.2,3.75,10.62,7.13,16.2,10.3,0,0,16.7,9.66,16.7,9.66,1.34,.84,1.19,3.12-.34,3.72-.46,.21-1.03,.21-1.43,.1,0,0-3.6-.92-3.6-.92-4.35-1.11-17.04-4.33-21.6-5.49-19.21-4.85-38.5-9.64-57.33-15.89-16.29-5.4-39.97-12.99-56.53-18.42-18.71-6.37-37.79-11.86-57.08-16.12-9.37-2.17-19.65-4.1-29.03-6.31-19.77-4.66-67.65-15.46-86.93-19.94-47.95-12.46-94.82-29.43-142.17-43.7h0Zm.19,.05c32.59,10.09,80.51,24.39,113.65,34.55,9.49,2.8,19.05,5.37,28.67,7.68,23.18,5.23,70.63,15.62,94.25,21.05,21.85,4.44,43.69,9.43,64.94,16.22,9.47,3.11,32.62,10.66,42.4,13.84,18.85,6.07,37.51,12.72,56.63,17.87,13.86,3.72,29.18,7.55,43.14,11.18,0,0,7.2,1.85,7.2,1.85,0,0,3.6,.93,3.6,.93,.57,.23,.97-.63,.49-.92,0,0,.08,.05,.08,.05-9.99-5.94-23.78-13.34-32.98-20.13-10.46-7.56-20.01-16.42-28.43-26.19,2.26,.83-394.21-78.22-393.65-78h0Z"/>
  </g>
  <g>
    <g>
      <path class="cls-5" d="M219.35,203.21s-5.59,7.89-10.58,6.79-11.09-1.33-12.17,3.91c-1.08,5.24,5.84,3.64,5.44,1.81s2.33-1.6,6.43-.74c4.1,.86,12.29-.44,14.14-2.91"/>
      <path class="cls-10" d="M219.39,203.24c-2.39,3.36-5.78,7.54-10.36,7.23-3.75-.55-9.19-2.02-11.66,1.79-1.78,3.26-.08,6.16,3.62,4.36,.49-.31,.72-.53,.57-1.09-.17-.9,.78-1.56,1.57-1.61,3.14-.32,6.02,1.03,9.15,.81,3.45-.2,7.54-.37,10.28-2.68,0,0,.08,.06,.08,.06-.35,.52-.85,.93-1.38,1.26-3.83,2.1-8.37,2.75-12.72,2.18-1.93-.27-4.07-1.13-5.93-.49-.18,.1-.2,.35-.15,.57,.07,.34-.04,.73-.23,.98-1.14,1.3-3.21,1.51-4.7,.75-1.25-.67-1.39-2.28-1.09-3.5,.94-4.89,6.93-5.42,10.92-4.59,1.19,.22,2.27,.61,3.46,.31,1.12-.24,2.19-.79,3.19-1.44,1.98-1.35,3.72-3.09,5.29-4.96,0,0,.08,.06,.08,.06h0Z"/>
    </g>
    <g class="cls-1">
      <path class="cls-8" d="M199.82,216.96s-2.4-2.99,0-4.21,16.9,2.58,21.65,0c0,0-5.72,3.48-10.56,2.49-4.84-.99-8.35-2.04-9.14-1.4s1.06,.7,.27,1.89-2.22,1.23-2.22,1.23Z"/>
    </g>
  </g>
  <g>
    <g>
      <path class="cls-13" d="M215.38,179.95c-1.96,3.89-3.94,17.41-.82,24.6,4.22,10.23,14,7.4,16.13,2.08,.89-3.38-8.8-23.62-7.24-34.16,0-.46,0-.89,0-1.26,.01-.88-.84-1.28-1.46-.64-2.12,2.07-5.54,6.48-6.6,9.39Z"/>
      <path class="cls-10" d="M215.42,179.97c-2.34,6.33-2.73,13.56-1.53,20.35,.97,7.21,6.22,12.33,11.59,10.54,1.86-.49,3.43-1.77,4.52-3.37,.27-.55,.68-1.12,.66-1.74-.4-4.22-2.99-8.33-4.19-12.59-1.17-3.47-2.15-7.12-2.74-10.97-.38-1.85-.79-6.96-.7-8.94,0-.51,0-1.03,.02-1.54,.08-.64-.04-1.17-.62-1.05-.15,.04-.26,.14-.46,.35-2.52,2.51-5,5.37-6.54,8.97h0Zm-.09-.05c1.32-3.12,3.24-5.77,5.25-8.22,.42-.43,1.18-1.55,1.75-1.76,.61-.24,1.25,.12,1.43,.78,.11,.53,.07,1.83,.12,2.39,.03,1.01,.1,2.01,.19,3-1.16,7.25,8.26,27.07,6.57,31-1.96,3.6-6.3,5.47-10.36,4.08-9.82-3.18-8.78-22.71-4.94-31.28h0Z"/>
    </g>
    <path class="cls-13" d="M219.49,193.25c-.09,2.9-1.87,5.37-4.3,5.45-.86,.01-1.67-.3-2.37-.87-.1-3.41,.07-6.8,.49-10.14,.69-.39,1.45-.53,2.23-.41,2.39,.43,4.03,3.07,3.95,5.97Z"/>
    <g class="cls-1">
      <path class="cls-8" d="M229.65,208.28c1.39,.31-18.15,1.73-15.08-26.27-.19-.5-2.99,9.82-.87,18.2,1.65,8.43,8.24,14.93,15.95,8.08Z"/>
    </g>
  </g>
</svg>