<?xml version="1.0" encoding="UTF-8"?>
<svg id="Layer_1" data-name="Layer 1" xmlns="http://www.w3.org/2000/svg" xmlns:xlink="http://www.w3.org/1999/xlink" viewBox="0 0 800 400">
  <defs>
    <style>
      .cls-1, .cls-2 {
        fill: none;
      }

      .cls-3, .cls-4, .cls-5 {
        fill: #cceafd;
      }

      .cls-3, .cls-2 {
        clip-rule: evenodd;
      }

      .cls-6 {
        clip-path: url(#clippath);
      }

      .cls-7 {
        fill: #f9ea35;
      }

      .cls-8 {
        fill: #00efb0;
      }

      .cls-9 {
        fill: #fff;
      }

      .cls-10 {
        fill: #ff8db0;
      }

      .cls-11 {
        fill: #97d7ff;
      }

      .cls-12 {
        fill: #6fd899;
      }

      .cls-13 {
        fill: #3a7491;
      }

      .cls-14 {
        fill: #5dbae8;
      }

      .cls-15 {
        clip-path: url(#clippath-1);
      }

      .cls-16 {
        clip-path: url(#clippath-4);
      }

      .cls-17 {
        clip-path: url(#clippath-3);
      }

      .cls-18 {
        clip-path: url(#clippath-2);
      }

      .cls-19 {
        clip-path: url(#clippath-7);
      }

      .cls-20 {
        clip-path: url(#clippath-8);
      }

      .cls-21 {
        clip-path: url(#clippath-6);
      }

      .cls-22 {
        clip-path: url(#clippath-5);
      }

      .cls-23 {
        clip-path: url(#clippath-9);
      }

      .cls-24 {
        clip-path: url(#clippath-20);
      }

      .cls-25 {
        clip-path: url(#clippath-21);
      }

      .cls-26 {
        clip-path: url(#clippath-24);
      }

      .cls-27 {
        clip-path: url(#clippath-23);
      }

      .cls-28 {
        clip-path: url(#clippath-22);
      }

      .cls-29 {
        clip-path: url(#clippath-25);
      }

      .cls-30 {
        clip-path: url(#clippath-27);
      }

      .cls-31 {
        clip-path: url(#clippath-26);
      }

      .cls-32 {
        clip-path: url(#clippath-14);
      }

      .cls-33 {
        clip-path: url(#clippath-13);
      }

      .cls-34 {
        clip-path: url(#clippath-12);
      }

      .cls-35 {
        clip-path: url(#clippath-10);
      }

      .cls-36 {
        clip-path: url(#clippath-15);
      }

      .cls-37 {
        clip-path: url(#clippath-17);
      }

      .cls-38 {
        clip-path: url(#clippath-16);
      }

      .cls-39 {
        clip-path: url(#clippath-19);
      }

      .cls-40 {
        clip-path: url(#clippath-11);
      }

      .cls-41 {
        clip-path: url(#clippath-18);
      }

      .cls-5 {
        fill-rule: evenodd;
      }
    </style>
    <clipPath id="clippath">
      <path class="cls-2" d="M155.6,183.09c1,3.08-.77,6.42-3.97,7.46-3.19,1.04-6.59-.62-7.6-3.71-1-3.08,.77-6.42,3.97-7.46,3.19-1.04,6.59,.62,7.6,3.71"/>
    </clipPath>
    <clipPath id="clippath-1">
      <rect class="cls-1" x="-15.27" y="27.7" width="1147.51" height="308.94"/>
    </clipPath>
    <clipPath id="clippath-2">
      <path class="cls-2" d="M157.02,188.57c.54-1.66,1.21-3.4,1.04-5.15-.16-1.6-2.02-4.78,.07-6.02,1.85-1.1,3.65,1.18,4.37,2.55,1.29,2.48,1.1,5.42,.2,8.02-1.1,3.19-3.43,5.8-4.83,8.86-1.1,2.43-1.77,7.57-1.77,7.57-2.73-8.4,.92-15.84,.92-15.84"/>
    </clipPath>
    <clipPath id="clippath-3">
      <rect class="cls-1" x="-15.27" y="27.7" width="1147.51" height="308.94"/>
    </clipPath>
    <clipPath id="clippath-4">
      <path class="cls-2" d="M163.54,192.93c1.31-1.55,2.82-3.16,3.2-4.94,.35-1.62-1.06-5.1,2.19-5.97,2.88-.78,4.52,1.81,5.01,3.3,.87,2.69-.39,5.57-2.52,8-2.6,2.98-6.66,5.16-9.6,7.96-2.33,2.22-5.04,7.21-5.04,7.21-.76-8.81,6.76-15.56,6.76-15.56"/>
    </clipPath>
    <clipPath id="clippath-5">
      <rect class="cls-1" x="-15.27" y="27.7" width="1147.51" height="308.94"/>
    </clipPath>
    <clipPath id="clippath-6">
      <path class="cls-2" d="M145.05,192.46c-1.42-1.02-2.98-2.04-3.87-3.56-.82-1.39-1.18-5.05-3.59-4.83-2.15,.2-2.26,3.1-2.03,4.63,.42,2.76,2.29,5.03,4.55,6.61,2.77,1.93,6.19,2.67,9.11,4.33,2.31,1.32,5.89,5.08,5.89,5.08-2.73-8.4-10.05-12.27-10.05-12.27"/>
    </clipPath>
    <clipPath id="clippath-7">
      <rect class="cls-1" x="-15.27" y="27.7" width="1147.51" height="308.94"/>
    </clipPath>
    <clipPath id="clippath-8">
      <path class="cls-2" d="M142.34,199.82c-1.97-.48-4.14-.9-5.49-2.11-1.24-1.1-2.14-4.74-5.28-3.54-2.79,1.07-2.6,4.12-2.11,5.61,.87,2.69,3.59,4.27,6.74,4.99,3.86,.88,8.42,.26,12.45,.8,3.19,.43,8.31,2.87,8.31,2.87-4.56-7.58-14.62-8.62-14.62-8.62"/>
    </clipPath>
    <clipPath id="clippath-9">
      <rect class="cls-1" x="-15.27" y="27.7" width="1147.51" height="308.94"/>
    </clipPath>
    <clipPath id="clippath-10">
      <path class="cls-2" d="M130.55,231.34c-.17-.53,.12-1.07,.66-1.24l6.35-2.06c.48-.16,.99,.09,1.14,.56s-.11,.97-.6,1.13l-5.4,1.75,.93,2.87,4.7-1.53c.48-.16,.99,.09,1.15,.56,.15,.47-.11,.97-.6,1.13l-4.7,1.53,1.12,3.44c.17,.51-.12,1.05-.65,1.22-.54,.18-1.1-.09-1.26-.6l-2.84-8.74Z"/>
    </clipPath>
    <clipPath id="clippath-11">
      <rect class="cls-1" x="-12.54" y="26.34" width="1147.51" height="308.94"/>
    </clipPath>
    <clipPath id="clippath-12">
      <path class="cls-2" d="M141.6,232.57v-.03c-.97-2.96,.59-6.21,3.93-7.29,3.34-1.09,6.47,.6,7.44,3.56v.03c.97,2.96-.59,6.21-3.93,7.29-3.34,1.09-6.47-.6-7.44-3.56m9.38-3.05v-.03c-.67-2.04-2.76-3.24-4.93-2.54-2.16,.7-3.13,2.86-2.47,4.9v.03c.67,2.04,2.76,3.23,4.92,2.52,2.16-.7,3.13-2.85,2.47-4.89"/>
    </clipPath>
    <clipPath id="clippath-13">
      <rect class="cls-1" x="-12.54" y="26.34" width="1147.51" height="308.94"/>
    </clipPath>
    <clipPath id="clippath-14">
      <path class="cls-2" d="M153.89,223.76c-.17-.53,.12-1.07,.66-1.24l3.89-1.26c1.37-.44,2.57-.4,3.48,.03,.76,.38,1.34,1.06,1.64,1.98v.03c.56,1.68-.12,3.03-1.45,3.94l2.91,1.86c.26,.17,.45,.32,.54,.61,.17,.51-.17,1-.64,1.15-.44,.14-.78,.04-1.09-.18l-3.7-2.4-2.41,.78,.92,2.82c.17,.51-.12,1.05-.65,1.23-.54,.18-1.1-.09-1.26-.6l-2.84-8.74Zm6.1,2.75c1.37-.44,2.02-1.42,1.67-2.49v-.03c-.38-1.13-1.42-1.47-2.83-1.01l-2.78,.9,1.15,3.53,2.8-.91Z"/>
    </clipPath>
    <clipPath id="clippath-15">
      <rect class="cls-1" x="-12.54" y="26.34" width="1147.51" height="308.94"/>
    </clipPath>
    <clipPath id="clippath-16">
      <path class="cls-2" d="M165.12,220.04c-.17-.51,.12-1.07,.66-1.24l.2-.07c.42-.14,.77-.02,1.05,.21l4.92,3.92,1.69-6.08c.1-.38,.33-.64,.71-.76l.2-.07c.54-.18,1.1,.11,1.27,.62l2.86,8.8c.17,.51-.12,1.05-.67,1.23-.51,.17-1.09-.11-1.25-.61l-2.05-6.31-1.41,4.73c-.1,.37-.29,.63-.65,.74-.34,.11-.65,.01-.95-.22l-3.89-2.97,2.05,6.3c.17,.51-.13,1.04-.65,1.21-.53,.17-1.06-.09-1.23-.6l-2.87-8.82Z"/>
    </clipPath>
    <clipPath id="clippath-17">
      <rect class="cls-1" x="-12.54" y="26.34" width="1147.51" height="308.94"/>
    </clipPath>
    <clipPath id="clippath-18">
      <path class="cls-2" d="M179.67,220.9c-.16-.5,.13-1.04,.62-1.2l2.92-.95c.5-.16,1.05,.11,1.21,.6,.16,.48-.13,1.02-.63,1.18l-2.92,.95c-.5,.16-1.05-.11-1.21-.59"/>
    </clipPath>
    <clipPath id="clippath-19">
      <rect class="cls-1" x="-12.54" y="26.34" width="1147.51" height="308.94"/>
    </clipPath>
    <clipPath id="clippath-20">
      <path class="cls-2" d="M186.17,214.17l-1.01,.69-.33,.16c-.45,.15-.96-.09-1.09-.51-.13-.39,.02-.77,.38-1l1.48-1.05c.34-.23,.6-.38,.88-.47h.03c.54-.19,1.08,.09,1.25,.6l2.89,8.89c.17,.51-.12,1.05-.65,1.23-.51,.17-1.08-.1-1.25-.61l-2.58-7.93Z"/>
    </clipPath>
    <clipPath id="clippath-21">
      <rect class="cls-1" x="-12.54" y="26.34" width="1147.51" height="308.94"/>
    </clipPath>
    <clipPath id="clippath-22">
      <path class="cls-2" d="M194.32,220.19c-1.08-.53-1.94-1.46-2.63-3.58v-.03c-1.05-3.21-.28-6.24,2.8-7.24,1.12-.36,2.1-.37,2.97-.13,.35,.08,.62,.26,.74,.64,.16,.48-.14,.99-.64,1.15l-.53,.02c-.71-.18-1.33-.22-2.06,.02-1.62,.53-2.06,2.23-1.53,4.18,.4-.73,.98-1.48,2.27-1.9,2.1-.68,4.19-.03,4.87,2.07v.03c.69,2.09-.59,4.15-2.87,4.89-1.34,.43-2.44,.34-3.4-.13m4.39-4.07v-.03c-.35-1.05-1.48-1.55-2.83-1.11-1.35,.44-1.94,1.56-1.61,2.57v.03c.36,1.07,1.52,1.58,2.88,1.14,1.35-.44,1.91-1.52,1.56-2.6"/>
    </clipPath>
    <clipPath id="clippath-23">
      <rect class="cls-1" x="-12.54" y="26.34" width="1147.51" height="308.94"/>
    </clipPath>
    <clipPath id="clippath-24">
      <path class="cls-3" d="M142.75,271.96l69.04-21.37-68.42,23.29c-.55,.19-1.14-.09-1.32-.62-.18-.53,.12-1.11,.66-1.29h.03Z"/>
    </clipPath>
    <clipPath id="clippath-25">
      <rect class="cls-4" x="-9.81" y="34.52" width="1147.51" height="308.94"/>
    </clipPath>
    <clipPath id="clippath-26">
      <path class="cls-3" d="M145.88,281.58l49.12-14.9-48.5,16.82c-.55,.19-1.14-.08-1.32-.61-.18-.53,.11-1.11,.65-1.3h.04Z"/>
    </clipPath>
    <clipPath id="clippath-27">
      <rect class="cls-4" x="-9.81" y="34.52" width="1147.51" height="308.94"/>
    </clipPath>
  </defs>
  <g>
    <path class="cls-10" d="M674.68,240.67c12.6,6.88,26.67,10.66,40.66,13.51,10.46,2.05,21.3,3.26,31.93,3.93,3.57,.17,7.15,.28,10.72,.42,.85,0,1.54,.71,1.5,1.56-.03,.85-.77,1.5-1.61,1.44-14.36-.88-28.82-2.63-42.85-5.88-13.96-3.35-27.94-7.63-40.35-14.98h0Z"/>
    <g>
      <path class="cls-9" d="M690.01,299.83l30.72-107.82c2.76-9.69-2.85-19.78-12.54-22.54l-103.49-29.49c-9.69-2.76-19.78,2.85-22.54,12.54l-40.52,142.19"/>
      <path class="cls-13" d="M689.91,299.81c6.52-24.69,14.09-52.1,21.08-76.82,2.38-8.53,4.89-17.01,7.32-25.52,1.15-4.17,2.88-8.27,2.27-12.67-.78-7.66-6.98-13.85-14.42-15.43-1.84-.58-13.78-4.01-15.93-4.65-26.77-7.81-56.16-15.68-83.13-23.18-8.32-3.09-17.5-.75-22.18,7.07-1.12,1.74-1.75,3.94-2.3,5.92-2.26,8.14-8.47,29.92-10.88,38.32-9.73,34.04-19.71,68.01-30,101.89,8.41-33.88,18.57-68.47,28.02-102.46,2.42-8.51,8.55-30.1,10.95-38.29,.62-2.18,1.32-4.46,2.56-6.37,3.59-6.01,10.66-9.74,17.66-9.17,3.87,.32,9.22,2.35,13.01,3.35,24.71,7.29,51.82,15.37,76.49,22.26,2.09,.61,14.07,3.93,15.99,4.45,7.9,1.52,14.56,7.98,15.56,16.11,.73,4.54-.9,9-2.07,13.3-2.41,8.52-4.76,17.05-7.23,25.55-7.34,24.51-14.79,52.56-22.77,76.34h0Z"/>
    </g>
    <g>
      <path class="cls-13" d="M618.53,214.21c.72,.2,1.45,.4,2.18,.61,.73,.21,1.45,.42,2.15,.64,.7,.22,1.35,.45,1.95,.68l-.73,2.1-5.11-1.41c-.32-.09-.58-.07-.79,.05-.21,.12-.35,.34-.44,.67l-1.88,6.79c-.09,.32-.08,.59,.04,.8,.11,.21,.33,.36,.65,.45l5.11,1.41-.46,2.18c-.63-.12-1.3-.26-2.02-.42-.72-.16-1.44-.34-2.18-.54-.73-.2-1.46-.39-2.18-.59-.85-.23-1.46-.67-1.85-1.31-.38-.64-.46-1.36-.24-2.15l2.23-8.06c.22-.81,.66-1.39,1.32-1.73,.66-.34,1.41-.4,2.25-.17Zm-3.98,4.71l7.96,2.2-.58,2.08-7.96-2.2,.58-2.08Z"/>
      <path class="cls-13" d="M629.77,217.32c.68,.19,1.38,.38,2.09,.59s1.41,.42,2.08,.64,1.3,.45,1.88,.67l-.74,2.08-4.82-1.33c-.35-.1-.63-.08-.86,.03-.23,.12-.38,.34-.47,.66l-2.78,10.04-2.95-.82,2.94-10.64c.23-.82,.67-1.41,1.34-1.76,.66-.35,1.43-.41,2.29-.17Zm-4.08,4.93l7.77,2.15-.58,2.08-7.77-2.15,.58-2.08Z"/>
      <path class="cls-13" d="M640.61,220.38l-3.68,13.3-2.93-.81,3.68-13.3,2.93,.81Z"/>
      <path class="cls-13" d="M646.2,221.93l-2.75,9.95c-.09,.32-.07,.59,.07,.81,.13,.22,.37,.37,.7,.46l4.65,1.29-.48,2.25c-.94-.15-1.91-.35-2.91-.61-1-.26-2-.52-2.99-.79-.96-.27-1.62-.73-1.97-1.39s-.42-1.39-.19-2.2l2.93-10.58,2.95,.82Z"/>
      <path class="cls-13" d="M656.37,224.68c.72,.2,1.45,.4,2.18,.61,.73,.21,1.45,.42,2.15,.65,.7,.22,1.35,.45,1.95,.68l-.73,2.1-5.11-1.41c-.32-.09-.59-.07-.79,.05-.21,.12-.35,.34-.44,.67l-1.88,6.79c-.09,.32-.08,.59,.04,.8,.11,.21,.33,.36,.65,.45l5.11,1.41-.46,2.18c-.63-.12-1.3-.26-2.02-.42-.72-.16-1.44-.34-2.18-.54-.73-.2-1.46-.39-2.18-.59-.85-.24-1.46-.67-1.85-1.31-.38-.64-.46-1.36-.24-2.15l2.23-8.06c.22-.81,.66-1.39,1.32-1.73,.66-.34,1.41-.4,2.25-.17Zm-3.98,4.71l7.96,2.2-.58,2.08-7.96-2.2,.58-2.08Z"/>
    </g>
    <path class="cls-11" d="M721.75,272.31c-.96,.14-1.47,.71-1.6,1.68-.32,2.38-.4,2.47-2.81,2.73-.98,.11-1.72,.53-1.71,1.54,0,1.02,.68,1.58,1.75,1.67,2.21,.19,2.28,.27,2.59,2.47,.13,.93,.65,1.51,1.6,1.5,.94-.01,1.44-.57,1.56-1.53,.2-1.67,.71-2.14,2.32-2.26,1.03-.07,1.74-.56,1.8-1.61,.06-1.07-.73-1.43-1.64-1.61-1.86-.35-2.25-.8-2.28-2.75-.02-1.07-.46-1.69-1.57-1.83Z"/>
    <path class="cls-10" d="M714.09,212.13c-46.64-10.31-92.42-22.81-136.75-37.34,.76-2.29,2.88-10.04,3.63-12.33,44.13,14.46,89.92,26.88,136.36,37.13-.55,2.35-2.68,10.19-3.24,12.54Z"/>
    <path class="cls-10" d="M713.48,239.04s5.19-29.1-4.65-40.39l10.18,.69c11.78,14.68,5.64,38.51,5.64,38.51l-3.75-12.09-7.42,13.28Z"/>
    <path class="cls-10" d="M691.44,228.2s20.29-14.38,22.1-27.19l6.68,2.78c-2.89,16.03-22.1,27.19-22.1,27.19l1.28-5.46-7.96,2.68Z"/>
  </g>
  <g>
    <g>
      <path class="cls-9" d="M117.88,299.84l-33.4-103.37c-3.05-9.42,2.13-19.53,11.55-22.58l84.38-27.26,41.25,20.92,43.9,135.88"/>
      <path class="cls-13" d="M117.88,299.84c-8.17-24.85-23.15-69.2-31.03-93.64-1.16-3.97-3.59-9.61-3.97-13.68-.93-8.7,5.08-17.29,13.46-19.65,27.42-8.58,57.16-19.22,84.52-27.11,0,0,41.22,20.99,41.22,20.99,.22,.11,.37,.3,.44,.52,9.71,30.28,22.89,71.74,32.42,102.08,0,0,10.64,34.08,10.64,34.08-5.71-16.91-16.92-50.83-22.52-67.76-5.62-16.9-16.7-50.93-22.23-67.85,0,0,.44,.52,.44,.52,0,0-41.29-20.85-41.29-20.85l.74,.06c-26.98,8.78-56.7,18.26-83.84,26.99-7.67,2.12-13.12,9.9-12.37,17.84,.15,2.3,.93,4.44,1.63,6.65,0,0,2.13,6.72,2.13,6.72,7.76,24.29,21.91,69.34,29.62,94.09h0Z"/>
    </g>
    <g>
      <g class="cls-6">
        <g class="cls-15">
          <rect class="cls-10" x="134.14" y="169.5" width="31.35" height="30.93" transform="translate(-49.83 55.35) rotate(-18)"/>
        </g>
      </g>
      <g class="cls-18">
        <g class="cls-17">
          <rect class="cls-14" x="142.29" y="168.19" width="32.94" height="44.31" transform="translate(-51.05 58.37) rotate(-18)"/>
        </g>
      </g>
      <g class="cls-16">
        <g class="cls-22">
          <rect class="cls-12" x="143.3" y="174.37" width="42.67" height="40.61" transform="translate(-52.1 60.4) rotate(-18)"/>
        </g>
      </g>
      <g class="cls-21">
        <g class="cls-19">
          <rect class="cls-14" x="128.22" y="172.76" width="32.94" height="44.31" transform="translate(-53.15 54.25) rotate(-18)"/>
        </g>
      </g>
      <g class="cls-20">
        <g class="cls-23">
          <rect class="cls-12" x="121.15" y="181.57" width="42.67" height="40.61" transform="translate(-55.41 53.91) rotate(-18)"/>
        </g>
      </g>
    </g>
    <g>
      <g class="cls-35">
        <g class="cls-40">
          <rect class="cls-13" x="122.17" y="219.21" width="27.79" height="30.32" transform="translate(-65.77 53.52) rotate(-18)"/>
        </g>
      </g>
      <g class="cls-34">
        <g class="cls-33">
          <rect class="cls-13" x="131.7" y="215.38" width="31.16" height="30.63" transform="translate(-64.08 56.8) rotate(-18)"/>
        </g>
      </g>
      <g class="cls-32">
        <g class="cls-36">
          <rect class="cls-13" x="145.49" y="211.51" width="28.54" height="30.33" transform="translate(-62.23 60.46) rotate(-18)"/>
        </g>
      </g>
      <g class="cls-38">
        <g class="cls-37">
          <rect class="cls-13" x="156.68" y="207.5" width="30.44" height="30.39" transform="translate(-60.4 64.02) rotate(-18)"/>
        </g>
      </g>
      <g class="cls-41">
        <g class="cls-39">
          <rect class="cls-13" x="169.95" y="209.58" width="24.19" height="21.07" transform="translate(-59.11 67.03) rotate(-18)"/>
        </g>
      </g>
      <g class="cls-24">
        <g class="cls-25">
          <rect class="cls-13" x="175.29" y="202.48" width="23.6" height="30.47" transform="translate(-58.12 68.47) rotate(-18)"/>
        </g>
      </g>
      <g class="cls-28">
        <g class="cls-27">
          <rect class="cls-13" x="181.78" y="199.62" width="28.02" height="30.62" transform="translate(-56.83 71.02) rotate(-18)"/>
        </g>
      </g>
    </g>
    <g>
      <path class="cls-5" d="M142.75,271.96l69.04-21.37-68.42,23.29c-.55,.19-1.14-.09-1.32-.62-.18-.53,.12-1.11,.66-1.29h.03Z"/>
      <g class="cls-26">
        <g>
          <rect class="cls-4" x="-9.81" y="34.52" width="1147.51" height="308.94"/>
          <g class="cls-29">
            <rect class="cls-4" x="130.66" y="251.32" width="92.52" height="21.21" transform="translate(-72.28 67.49) rotate(-18)"/>
          </g>
        </g>
      </g>
    </g>
    <g>
      <path class="cls-5" d="M145.88,281.58l49.12-14.9-48.5,16.82c-.55,.19-1.14-.08-1.32-.61-.18-.53,.11-1.11,.65-1.3h.04Z"/>
      <g class="cls-31">
        <g>
          <rect class="cls-4" x="-9.81" y="34.52" width="1147.51" height="308.94"/>
          <g class="cls-30">
            <rect class="cls-4" x="134.3" y="264.17" width="71.58" height="21.21" transform="translate(-76.59 66.01) rotate(-18)"/>
          </g>
        </g>
      </g>
    </g>
    <g>
      <path class="cls-7" d="M180.41,146.63l6.26,18.45c2.68,7.43,11.23,12.23,18.31,8.72l16.68-6.25-41.25-20.92Z"/>
      <path class="cls-13" d="M180.41,146.63c2.5,6.71,4.84,13.15,7.52,19.67,2.91,5.84,10.53,9.8,16.62,6.64,4.19-1.61,12.56-4.74,16.77-6.3,0,0-.1,1.79-.1,1.79-13.22-6.7-27.62-14.8-40.81-21.79h0Zm0,0c13.56,6.54,28.28,13.23,41.69,20.05,.75,.35,.68,1.53-.1,1.79,0,0-8.34,3.14-8.34,3.14l-8.35,3.09,.09-.04c-3.42,1.71-7.59,1.54-11-.06-4.24-1.97-7.43-5.82-8.64-10.28,0,0-.81-2.6-.81-2.6-1.53-5.01-2.99-10.23-4.55-15.09h0Z"/>
    </g>
  </g>
  <path class="cls-13" d="M236.12,195.05c4.38-1.97,8.79-3.85,13.24-5.64,4.43-2.05,8.92-3.66,13.92-3.65,0,0,.1,.28,.1,.28-3.95,3.07-8.49,4.55-13.24,5.64-4.61,1.31-9.26,2.53-13.92,3.65,0,0-.1-.28-.1-.28h0Z"/>
  <g>
    <path class="cls-4" d="M528.18,290.39H268.85V123.05c0-7.48,6.06-13.54,13.54-13.54h232.24c7.48,0,13.54,6.06,13.54,13.54v167.34Z"/>
    <path class="cls-13" d="M528.22,290.43c-75.12-.03-185.17,.69-259.36,.27,0,0-.31,0-.31,0,0,0,0-.31,0-.31,.2-42.75,.09-119.2,.05-161.89,0,0,0-4.76,0-4.76-.23-4.87,2.23-9.75,6.38-12.35,2.7-1.84,6.09-2.33,9.27-2.19,69.82-.16,158.73-.17,228.55-.19,8.61-.81,16.31,5.88,15.88,14.73-.02,3.35-.41,159.38-.45,166.68h0Zm-.07-.07c.11-7.89-.55-162.7-.45-166.62,.34-8.28-6.75-14.53-14.91-13.74-69.82-.02-158.73-.03-228.55-.19-3.16-.13-6.3,.29-8.96,2.06-4,2.5-6.38,7.15-6.17,11.87,0,0,0,4.76,0,4.76-.41,42,.53,121.06-.25,161.58,73.76-.09,184.62-.03,259.29,.27h0Z"/>
  </g>
  <rect class="cls-9" x="282.5" y="122.82" width="232.03" height="155.29" rx="4.53" ry="4.53"/>
  <g>
    <rect class="cls-4" x="240.84" y="290.39" width="315.35" height="18.89" rx="6.61" ry="6.61"/>
    <path class="cls-13" d="M549.58,309.33c-80.9,.08-218.15,.28-297.76,.32,0,0-2.57,0-2.57,0-.87-.01-1.68,.04-2.61-.05-3.68-.32-6.56-3.96-6.2-7.58,0,0,0-5.14,0-5.14-.02-3.71,3.28-6.96,6.99-6.89,80.87-.11,218.18-.09,297.76,.27,1.72,.03,3.41-.04,5.15,.06,3.55,.33,6.29,3.81,5.93,7.33,0,0-.02,5.14-.02,5.14,0,3.54-3.14,6.63-6.68,6.55h0Zm0-.1c3.46,.06,6.57-2.98,6.52-6.45,0,0,0-5.13,0-5.13,.3-3.44-2.3-6.78-5.78-7.09-1.68-.09-3.41-.02-5.12-.03-79.05,.34-217.43,.4-297.76,.27-3.28-.07-6.24,2.81-6.21,6.11,0,0-.01,5.13-.01,5.13-.31,3.34,2.17,6.5,5.51,6.83,1.36,.09,3.67,.03,5.09,.05,79.07,.06,217.41,.22,297.76,.32h0Z"/>
  </g>
  <path class="cls-13" d="M739.06,309.5c-219.23,.61-465.16,.62-684.39,0,219.23-.62,465.16-.61,684.39,0h0Z"/>
  <path class="cls-13" d="M390.67,167.56c.18-.64,.56-1.42,1.05-2.09-1.08,.02-2.16,.03-3.23,.05-1.77,.03-3.54,.06-5.3,.09-1.76,.07-3.52,.14-5.27,.22-3.5,.16-6.97,.32-10.4,.48-3.42,.25-6.81,.5-10.13,.74-1.66,.12-3.31,.25-4.95,.37-1.63,.14-3.24,.33-4.84,.49-3.19,.34-6.31,.68-9.35,1-3.03,.41-5.98,.8-8.83,1.18-2.85,.39-5.6,.78-8.23,1.27-2.63,.46-5.15,.89-7.54,1.31-2.39,.46-4.64,.99-6.76,1.44-4.25,.85-7.91,1.89-10.91,2.68-.75,.2-1.46,.39-2.13,.57-.66,.2-1.27,.43-1.84,.62-1.14,.4-2.11,.74-2.89,1.01-1.57,.55-2.41,.84-2.41,.84,0,0,.86-.22,2.47-.63,1.62-.37,3.96-1.12,7.01-1.65,3.04-.59,6.7-1.39,10.98-1.96,2.13-.31,4.39-.69,6.79-.99,2.4-.29,4.92-.6,7.56-.92,2.63-.36,5.38-.62,8.23-.88,2.85-.28,5.79-.57,8.81-.86,3.03-.22,6.15-.45,9.33-.68,1.59-.12,3.2-.24,4.82-.36,1.63-.09,3.27-.18,4.92-.27,3.31-.18,6.68-.35,10.08-.54,3.41-.11,6.86-.22,10.34-.33,1.74-.06,3.48-.12,5.24-.18,1.75-.02,3.51-.03,5.27-.05,.65,0,1.3-.01,1.95-.02-.04-.68,0-1.36,.16-1.96Z"/>
  <path class="cls-10" d="M508.99,180.43c-1.59-.5-3.91-1.26-6.88-2.16-1.49-.46-3.14-.96-4.93-1.51-1.82-.45-3.79-.93-5.89-1.44-4.22-.98-8.95-2.33-14.22-3.15-5.26-.92-10.93-2.12-17.01-2.79-3.03-.4-6.15-.81-9.34-1.23-3.19-.42-6.46-.6-9.79-.92-3.33-.26-6.7-.65-10.13-.83-3.43-.18-6.9-.35-10.4-.53-1.75-.07-3.51-.19-5.27-.23-1.76-.03-3.53-.06-5.3-.1-.84-.01-1.69-.03-2.53-.04-.09,.25-.17,.5-.29,.73-.57,1.12-1.23,2.23-1.98,3.28,1.58,.02,3.16,.04,4.73,.05,1.76,.02,3.52,.04,5.27,.06,1.75,.03,3.49,.13,5.23,.19,3.48,.13,6.93,.26,10.33,.39,3.41,.11,6.76,.42,10.07,.61,3.3,.24,6.56,.4,9.73,.69,3.17,.31,6.28,.61,9.3,.91,6.06,.49,11.73,1.42,16.99,2.08,2.63,.34,5.15,.67,7.52,1.14,2.38,.42,4.64,.81,6.76,1.18,2.13,.38,4.11,.73,5.95,1.05,1.82,.43,3.48,.82,4.99,1.18,3.01,.73,5.4,1.23,7.02,1.6,1.63,.36,2.49,.56,2.49,.56,0,0-.84-.27-2.43-.77Z"/>
  <path class="cls-13" d="M244.21,177.21c6.26,2.46,12.23,5.49,18.15,8.65,.54,.28,.69,1,.33,1.48-3.95,5.23-7.99,10.37-12.53,15.13,3.26-5.7,7.04-11.04,10.92-16.32,0,0,.33,1.48,.33,1.48-5.89-3.21-11.71-6.53-17.2-10.4h0Z"/>
  <path class="cls-13" d="M537.18,180.76c4.72,.89,9.42,1.86,14.09,2.93,4.81,.84,9.41,2.09,13.52,4.95,0,0-.08,.29-.08,.29-5,.26-9.57-1.11-14.09-2.93-4.54-1.56-9.04-3.21-13.52-4.95,0,0,.08-.29,.08-.29h0Z"/>
  <path class="cls-13" d="M554,170.74c3.74,5.59,6.9,11.49,9.96,17.46,.28,.54,0,1.21-.57,1.4-6.23,2.03-12.48,3.95-18.92,5.27,5.93-2.82,12.08-5.04,18.29-7.16,0,0-.57,1.4-.57,1.4-3-6-5.89-12.04-8.18-18.36h0Z"/>
  <path class="cls-7" d="M399.06,173.07c37.3,1.34,74.55,8.93,109.1,23.51,.51,.21,.75,.8,.53,1.31-.21,.51-.8,.75-1.31,.53-34.04-15.09-71.05-23.35-108.32-25.35h0Z"/>
  <path class="cls-8" d="M467.46,164.67c14.02,1.16,28.07,.63,42.13,1.36,0,0-.15,1.99-.15,1.99-13.94-1.4-28.06-1.54-41.98-3.36h0Z"/>
  <g>
    <path class="cls-10" d="M409.29,165.01h-9.63c-.61,0-1.06-.57-.92-1.17l5.59-22.79-19.5,30.31c-.4,.63,.05,1.46,.79,1.46h9.63c.61,0,1.06,.57,.92,1.17l-5.59,22.79,19.5-30.31c.4-.63-.05-1.46-.79-1.46Z"/>
    <path class="cls-13" d="M409.29,165.06c-.65,0-9.48,.09-9.81,.08-.65-.07-1.09-.81-.89-1.42,.08-.35,.27-1.23,.36-1.59,0,0,.95-4.25,.95-4.25,1.26-5.67,2.6-11.31,4.03-16.93,0,0,.77,.33,.77,.33-5.37,8.15-13.62,20.45-18.65,28.62-.26,.48-.98,1.41-1.09,1.87-.05,.44,.31,.82,.77,.77,0,0,.57,0,.57,0,1.43-.02,5.35-.08,6.83-.1,1.11,.11,3.07-.52,3.47,1.02,.12,.47-.08,.89-.16,1.31,0,0-1.05,4.43-1.05,4.43-1.42,5.9-2.81,11.82-4.29,17.71,0,0-.94-.4-.94-.4,3.05-4.76,7.33-11.31,10.44-15.91,1.76-2.62,6.28-9.31,7.94-11.86,0,0,1.3-1.99,1.3-1.99,.58-.61,.36-1.64-.55-1.67h0Zm0-.1c.65-.02,1.18,.69,.96,1.31-.14,.35-1.35,2.17-1.57,2.54,0,0-2.52,4.03-2.52,4.03-2.94,4.76-7.05,11.53-10.01,16.19,0,0-5.12,8.02-5.12,8.02-.15,.24-.48,.31-.72,.16-.19-.12-.27-.35-.22-.56,1.76-7.32,3.67-14.78,5.52-22.09,.04-.23,.23-.73,.18-.92-.04-.21-.23-.39-.44-.42l-2.22-.03-4.55-.06-2.28-.03s-.57,0-.57,0c-.72,.06-1.41-.66-1.27-1.4,.06-.42,.4-.75,.59-1.08,0,0,.63-.95,.63-.95,2.86-4.33,5.9-9.01,8.66-13.38,0,0,9.66-15.45,9.66-15.45,.12-.2,.38-.26,.58-.13,.16,.1,.23,.29,.18,.46-1.34,5.65-2.76,11.27-4.27,16.87l-1.12,4.2c-.39,1.68-1.21,2.78,1.24,2.66,0,0,8.7,.07,8.7,.07h0Z"/>
    <path class="cls-9" d="M404.34,141.05l-5.59,22.79c-.15,.6,.3,1.17,.92,1.17h9.63c.75,0,1.2,.83,.79,1.46l-19.5,30.31,5.59-22.79c.15-.6-.3-1.17-.92-1.17h-9.63c-.75,0-1.2-.83-.79-1.46l19.5-30.31m0-3c-.99,0-1.96,.5-2.52,1.38l-19.5,30.31c-.78,1.21-.84,2.76-.15,4.02,.69,1.27,2.02,2.06,3.46,2.06h7.01l-4.97,20.25c-.35,1.42,.38,2.89,1.73,3.47,.38,.17,.79,.24,1.18,.24,.99,0,1.96-.5,2.52-1.38l19.5-30.31c.78-1.21,.84-2.76,.15-4.02-.69-1.27-2.02-2.06-3.46-2.06h-7.01l4.97-20.25c.35-1.42-.38-2.89-1.73-3.47-.38-.17-.79-.24-1.18-.24h0Zm0,6h0Z"/>
  </g>
  <path class="cls-13" d="M81.17,221.22l-28.88,9.77,28.18-11.64c1.26-.49,1.98,1.41,.7,1.87h0Z"/>
  <path class="cls-13" d="M89.34,248.52l-53.43,17.95,52.76-19.84c1.25-.45,1.94,1.43,.67,1.88h0Z"/>
  <path class="cls-13" d="M100.27,275.81l-28.88,9.77,28.18-11.64c1.26-.49,1.98,1.41,.7,1.87h0Z"/>
</svg>