<?xml version="1.0" encoding="UTF-8"?>
<svg id="Layer_1" data-name="Layer 1" xmlns="http://www.w3.org/2000/svg" xmlns:xlink="http://www.w3.org/1999/xlink" viewBox="0 0 200 200">
  <defs>
    <style>
      .cls-1 {
        clip-rule: evenodd;
      }

      .cls-1, .cls-2, .cls-3 {
        fill: #3a7491;
      }

      .cls-4 {
        clip-path: url(#clippath);
      }

      .cls-5 {
        fill: #f9ea35;
      }

      .cls-6 {
        fill: #fff;
      }

      .cls-7 {
        fill: #97d7ff;
      }

      .cls-8 {
        fill: #c1c1c1;
      }

      .cls-9 {
        clip-path: url(#clippath-1);
      }

      .cls-10 {
        opacity: .2;
      }

      .cls-3 {
        fill-rule: evenodd;
      }
    </style>
    <clipPath id="clippath">
      <path class="cls-1" d="M90.09,80.52c4.74,5.93,9.01,11.26,13.26,16.58,.89,1.12,2.08,2.15,2.5,3.43,.34,1.02,.12,2.86-.59,3.41-.72,.56-2.35,.14-3.52-.14-.52-.12-.9-.93-1.32-1.44-5.77-7.2-11.58-14.37-17.25-21.65-.82-1.06-1.67-3.13-1.19-3.91,.65-1.05,2.56-1.67,3.99-1.79,3.09-.26,6.23-.29,9.32-.03,3.84,.33,7.03-.97,10.07-3.05,2.35-1.61,4.4-6.37,3.79-9.44h-3.32c-6.92,0-13.84,0-20.76,0-2.06,0-4.07-.33-3.98-2.92,.08-2.4,2.03-2.63,3.97-2.63,7.6,.02,15.2,0,22.83,0-.7-3.79-4.87-7.1-9.7-7.42-4.08-.27-8.18-.12-12.26-.18-.95-.02-2.1,.2-2.79-.25-.9-.59-1.96-.71-1.96-2.66s1.93-2.42,1.93-2.42c0,0,1.1-.19,1.66-.19,12.56,0,26.01,0,38.56,0,.38,0,1.91,1.07,1.91,2.9s-1.5,2.44-1.75,2.47c-3.2,.35-6.45,.15-9.69,.17-1.01,0-2.01,0-3.16,0,1.29,2.44,2.31,4.57,3.55,6.55,.35,.56,1.34,.95,2.06,.99,2.28,.13,4.62-.23,6.83,.18,1.18,.22,2.83,1.46,3.06,2.51,.42,1.89-1.15,2.83-3.02,2.88-1.81,.05-3.63,.16-5.42,0-2.01-.19-2.65,.81-2.96,2.53-1.91,10.63-10.14,15.66-18.17,15.54-1.89-.03-3.78,0-6.51,0"/>
    </clipPath>
    <clipPath id="clippath-1">
      <rect class="cls-2" x="79.17" y="41.88" width="49.78" height="66.38"/>
    </clipPath>
  </defs>
  <g>
    <path class="cls-7" d="M49.37,81.3s8.46,10.29,15.91,15.37c7.45,5.08,17.7,3.02,17.7,3.02,0,0-1.83-10.29-9.29-15.37-7.45-5.08-24.32-3.02-24.32-3.02Z"/>
    <path class="cls-2" d="M49.41,81.32c5.78,5.9,11.45,12.55,18.76,16.6,4.54,2.17,9.87,2.47,14.76,1.52,0,0-.2,.3-.2,.3-1.72-6.66-5.4-13.79-12.11-16.45-6.67-2.43-14.2-2.28-21.2-1.97h0Zm-.09-.03c7.23-.96,14.63-1.26,21.63,1.12,7.16,2.74,11.01,10.37,12.32,17.5-5.95,.77-12.36,.44-17.67-2.58-6.41-4.26-11.58-9.98-16.29-16.05h0Z"/>
  </g>
  <g>
    <path class="cls-3" d="M90.09,80.52c4.74,5.93,9.01,11.26,13.26,16.58,.89,1.12,2.08,2.15,2.5,3.43,.34,1.02,.12,2.86-.59,3.41-.72,.56-2.35,.14-3.52-.14-.52-.12-.9-.93-1.32-1.44-5.77-7.2-11.58-14.37-17.25-21.65-.82-1.06-1.67-3.13-1.19-3.91,.65-1.05,2.56-1.67,3.99-1.79,3.09-.26,6.23-.29,9.32-.03,3.84,.33,7.03-.97,10.07-3.05,2.35-1.61,4.4-6.37,3.79-9.44h-3.32c-6.92,0-13.84,0-20.76,0-2.06,0-4.07-.33-3.98-2.92,.08-2.4,2.03-2.63,3.97-2.63,7.6,.02,15.2,0,22.83,0-.7-3.79-4.87-7.1-9.7-7.42-4.08-.27-8.18-.12-12.26-.18-.95-.02-2.1,.2-2.79-.25-.9-.59-1.96-.71-1.96-2.66s1.93-2.42,1.93-2.42c0,0,1.1-.19,1.66-.19,12.56,0,26.01,0,38.56,0,.38,0,1.91,1.07,1.91,2.9s-1.5,2.44-1.75,2.47c-3.2,.35-6.45,.15-9.69,.17-1.01,0-2.01,0-3.16,0,1.29,2.44,2.31,4.57,3.55,6.55,.35,.56,1.34,.95,2.06,.99,2.28,.13,4.62-.23,6.83,.18,1.18,.22,2.83,1.46,3.06,2.51,.42,1.89-1.15,2.83-3.02,2.88-1.81,.05-3.63,.16-5.42,0-2.01-.19-2.65,.81-2.96,2.53-1.91,10.63-10.14,15.66-18.17,15.54-1.89-.03-3.78,0-6.51,0"/>
    <g class="cls-4">
      <g>
        <rect class="cls-2" x="79.17" y="41.88" width="49.78" height="66.38"/>
        <g class="cls-9">
          <rect class="cls-2" x="53.44" y="16.16" width="100.44" height="115.73"/>
        </g>
      </g>
    </g>
  </g>
  <g>
    <path class="cls-5" d="M155.65,62.79s-6.46,15.37-15.84,24.75c-9.38,9.38-24.75,9.21-24.75,9.21,0,0-.17-15.37,9.21-24.75,9.38-9.38,31.37-9.21,31.37-9.21Z"/>
    <path class="cls-2" d="M155.69,62.76c-3.58,8.79-8.23,17.17-14.73,24.13-6.63,7-16.55,9.57-25.9,10.11,0,0-.25,0-.25,0v-.26c.13-10,3.24-20.97,11.63-27.17,8.53-5.65,19.22-6.81,29.24-6.81h0Zm-.08,.05c-10.5,.7-23.61,2.22-31.39,9.95-5.97,6.41-8.45,15.38-8.9,23.98,0,0-.25-.25-.25-.25,9.23-.04,19.07-3.07,25.32-10.14,6.33-6.88,11.08-15.22,15.22-23.54h0Z"/>
  </g>
  <g>
    <rect class="cls-6" x="62.39" y="108.34" width="78.16" height="16.44" rx="2.41" ry="2.41"/>
    <path class="cls-2" d="M138.14,124.83c-23.01,.28-46.42,.49-69.4,.11,0,0-2.89-.01-2.89-.01-2.43,.22-3.86-.95-3.62-3.5,0-1.83-.03-6.78-.05-8.67,.05-.89-.17-2.08,.15-2.95,.36-1,1.38-1.72,2.46-1.71,24.09-.22,48.2-.41,72.29,0,.49,.02,.93-.02,1.48,.06,1.05,.17,1.92,1.03,2.12,2.07,.12,1-.03,3.34,0,4.37l-.05,5.78c-.06,.85,.13,2.08-.19,2.89-.35,.93-1.31,1.58-2.3,1.56h0Zm0-.09c1.53,.02,2.55-1.47,2.33-2.92,0,0,0-1.45,0-1.45l-.05-5.78-.04-2.89c.16-2.35-.96-3.34-3.29-3.09-24.09,.41-48.19,.21-72.29,0-.87-.02-1.71,.55-2.03,1.37-.3,.69-.11,2.01-.18,2.79,0,0-.04,5.78-.04,5.78v2.89c-.22,2.38,.94,3.44,3.3,3.21,16.38-.06,32.77-.46,49.16-.14,5.75,.1,17.38,.23,23.13,.25h0Z"/>
  </g>
  <g>
    <polygon class="cls-6" points="125.15 161.28 77.79 161.28 67.53 125.04 135.41 125.04 125.15 161.28"/>
    <path class="cls-2" d="M125.18,161.32c-10.54,.18-24.95,.34-35.49,.37-4.07,.03-8.14-.01-12.2-.02l-.08-.28-4.93-18.18c-1.26-4.64-3.85-13.72-5.17-18.34,11.4-.1,40.1-.33,51.13-.32,0,0,16.97,.03,16.97,.03h.62s-.17,.59-.17,.59c-3.07,10.24-7.58,26.06-10.67,36.16h0Zm-.06-.07c2.72-10.18,7.02-26.06,9.84-36.33,0,0,.45,.59,.45,.59-8.47,.04-25.48,.02-33.94-.02,0,0-33.94-.27-33.94-.27l.16-.22,2.54,9.07c1.62,5.74,6.18,21.2,7.93,27.12,0,0-.37-.28-.37-.28,3.93,0,7.85-.05,11.78-.02,10.56,.03,25,.19,35.56,.37h0Z"/>
  </g>
  <g class="cls-10">
    <polygon class="cls-8" points="67.53 125.18 131.16 140.22 135.41 125.18 67.53 125.18"/>
  </g>
</svg>