<?xml version="1.0" encoding="UTF-8"?>
<svg id="Layer_1" data-name="Layer 1" xmlns="http://www.w3.org/2000/svg" xmlns:xlink="http://www.w3.org/1999/xlink" viewBox="0 0 200 200">
  <defs>
    <style>
      .cls-1 {
        fill: #f9ea35;
      }

      .cls-2 {
        fill: #fff;
      }

      .cls-3 {
        fill: #97d7ff;
      }

      .cls-4 {
        fill: #c1c1c1;
      }

      .cls-5 {
        fill: #3a7491;
      }

      .cls-6 {
        clip-rule: evenodd;
        fill: none;
      }

      .cls-7 {
        opacity: .2;
      }
    </style>
    <clipPath id="clippath">
      <path class="cls-6" d="M-396.71,353.46l47.5,.61-47.5,.97c-.45,0-.82-.34-.83-.78,0-.44,.35-.8,.8-.8h.02Z"/>
    </clipPath>
    <clipPath id="clippath-2">
      <path class="cls-6" d="M-396.69,361.37l37.13,.66-37.12,.92c-.45,.01-.83-.34-.84-.77-.01-.44,.35-.8,.8-.81h.03Z"/>
    </clipPath>
  </defs>
  <g>
    <g>
      <g>
        <path class="cls-2" d="M104.54,147.13l14.93-60.21c1.1-4.8,5.89-7.8,10.69-6.7l41.05,9.42c4.8,1.1,7.8,5.89,6.7,10.69l-11.92,47.04"/>
        <path class="cls-5" d="M104.54,147.13c3.8-16.95,8.86-37.99,12.91-54.96,0,0,1.34-5.49,1.34-5.49,1.09-5.1,6.67-8.48,11.71-7.15,0,0,2.75,.62,2.75,.62,12.64,2.86,25.99,5.87,38.55,8.87,5.05,1.29,8.19,7.03,6.65,11.98-4.03,15.48-8.15,30.95-12.48,46.35,3.53-15.61,7.27-31.16,11.1-46.69,1.31-4.24-1.35-9.12-5.68-10.19-1.76-.44-3.65-.84-5.47-1.26-10.61-2.39-22.37-5.09-33.02-7.58,0,0-2.75-.64-2.75-.64-4.29-1.16-9.02,1.67-9.99,6.02,0,0-1.38,5.47-1.38,5.47-4.33,16.93-9.72,37.84-14.26,54.64h0Z"/>
      </g>
      <path class="cls-3" d="M105.93,147.85l13.77-58.43c1.02-4.43,5.43-7.2,9.86-6.18l37.88,8.69c4.43,1.02,7.2,5.43,6.18,9.86l-12.39,45.26"/>
      <g class="cls-7">
        <path class="cls-4" d="M166.02,143.71c-10.92-.45-26.31,2.08-30.01-2.14-3.7-4.23-6.23-12.68-6.23-12.68v18.61l35.16,.14,1.07-3.93Z"/>
      </g>
    </g>
    <g>
      <path class="cls-2" d="M61.15,147.14V77.94c0-5.58,4.53-10.11,10.11-10.11h47.74c5.58,0,10.11,4.53,10.11,10.11v69.2"/>
      <path class="cls-5" d="M61.15,147.14c-.42-20.95-.59-47.04-.71-68.09-.59-6.23,4.5-12.08,10.86-11.97,2.11,0,8.01-.02,10.21-.03,11.24-.04,26.27-.02,37.45,.02,4.93-.06,9.56,3.59,10.58,8.43,.59,2.4,.09,14.51,.21,17.16,0,0-.23,27.24-.23,27.24-.14,9.08-.22,18.16-.41,27.24-.19-9.08-.27-18.16-.41-27.24l-.23-27.24c-.11-2.43,.19-14.71-.33-16.84-.91-4.18-4.91-7.31-9.18-7.24,0,0-3.4,0-3.4,0-9.77,.03-24.24,.07-34.05,.02-2.19,0-8.08-.02-10.21-.03-5.55-.12-9.98,4.99-9.44,10.47-.09,21.08-.32,47.11-.71,68.09h0Z"/>
    </g>
    <g class="cls-7">
      <path class="cls-4" d="M129.78,142.17c-14-.45-33.58,2.08-38.33-2.14-4.74-4.23-7.84-12.68-7.84-12.68v18.61l44.94,.14,1.23-3.93Z"/>
    </g>
    <g>
      <g>
        <path class="cls-2" d="M27.97,147.64l-11.29-52.56c-.95-4.83,2.19-9.52,7.03-10.47l41.32-8.14c4.83-.95,9.52,2.19,10.47,7.03l12.91,65.5"/>
        <path class="cls-5" d="M27.97,147.64c-3.29-13.35-7.57-32.85-10.68-46.46,0,0-1.27-5.82-1.27-5.82-1.29-5.38,2.83-11.03,8.28-11.64,12.28-2.48,25.63-5.12,37.99-7.5,5.42-1.6,11-.25,13.37,5.31,.78,2.02,1.42,6.73,1.91,8.86,3.66,19.4,7.42,39.17,10.84,58.59-3.38-15.53-6.61-31.08-9.8-46.65l-2.4-11.67-1.17-5.84c-.4-3.76-3.06-7.04-6.85-7.66-1.9-.39-3.73,.21-5.61,.55l-11.68,2.34c-8.75,1.77-17.55,3.43-26.31,5.14-4.73,.5-8.24,5.22-7.18,9.88,0,0,1.23,5.83,1.23,5.83,2.86,13.71,6.74,33.16,9.33,46.74h0Z"/>
      </g>
      <path class="cls-1" d="M29.83,148.01l-11.91-50.75c-.88-4.46,2.02-8.79,6.48-9.67l38.13-7.52c4.46-.88,8.79,2.02,9.67,6.48l11.91,60.45"/>
      <rect class="cls-5" x="39.82" y="97.53" width="19.91" height="19.91" rx="2.53" ry="2.53" transform="translate(-21.48 12.86) rotate(-12.13)"/>
    </g>
    <path class="cls-5" d="M15.5,147.5c62.94-.71,102.12-.71,165.06,0-62.94,.71-102.12,.71-165.06,0h0Z"/>
    <g class="cls-7">
      <polygon class="cls-4" points="83.86 147.14 29.37 147.14 27.83 141.9 82.32 141.9 83.86 147.14"/>
    </g>
  </g>
  <circle class="cls-5" cx="96.44" cy="97.02" r="11.04"/>
  <path class="cls-5" d="M135.62,111.38l11.46-9.34c1.8-1.46,4.5-.43,4.87,1.86l2.35,14.6c.37,2.29-1.88,4.12-4.04,3.29l-13.82-5.26c-2.17-.82-2.63-3.68-.83-5.15Z"/>
</svg>