<?xml version="1.0" encoding="UTF-8"?>
<svg id="Layer_1" data-name="Layer 1" xmlns="http://www.w3.org/2000/svg" viewBox="0 0 200 200">
  <defs>
    <style>
      .cls-1 {
        fill: #f9ea35;
      }

      .cls-2 {
        fill: #fff;
      }

      .cls-3 {
        fill: #97d7ff;
      }

      .cls-4 {
        fill: #3a7491;
      }
    </style>
  </defs>
  <g>
    <path class="cls-1" d="M104.11,99.47h51.28c-1.21-27.76-23.52-50.08-51.28-51.28v51.28Z"/>
    <path class="cls-4" d="M104.11,99.47c14.96-.46,36.14-.41,51.28-.48,0,0-.48,.5-.48,.5-1.01-27.09-23.74-49.78-50.83-50.76,0,0,.56-.54,.56-.54l-.06,25.44c0,7.76-.04,18.07-.47,25.83h0Zm0,0c-.8-14.6-.36-36.98-.54-51.84,28,.71,51.33,23.83,52.3,51.82,0,0,.02,.5,.02,.5,0,0-.5,0-.5,0-15.05-.13-36.49,.06-51.28-.48h0Z"/>
  </g>
  <g>
    <path class="cls-3" d="M109.15,107.61l37.11,37.11c9.06-9.88,14.77-22.83,15.39-37.11h-52.5Z"/>
    <path class="cls-4" d="M109.15,107.61c10.61,10.17,26.91,26.29,37.47,36.75,0,0-.74,.02-.74,.02,9.16-10,14.63-23.24,15.21-36.79,0,0,.55,.57,.55,.57-15.42-.1-37.18-.03-52.5-.55h0Zm0,0c7.01-.36,18.62-.33,25.96-.43,0,0,26.54-.12,26.54-.12,.3,0,.55,.24,.55,.55-.52,13.82-6.16,27.33-15.56,37.46-.19,.21-.51,.22-.72,.04-10.42-10.56-26.65-26.87-36.77-37.49h0Z"/>
  </g>
  <g>
    <path class="cls-2" d="M96.66,108.66c-.21-.21-.39-.48-.51-.76-.12-.29-.18-.59-.18-.89V53.39c-28.54,1.24-51.4,24.77-51.4,53.62s24.11,53.73,53.73,53.73c13.98,0,26.68-5.41,36.25-14.18l-37.9-37.9Z"/>
    <path class="cls-4" d="M96.63,108.69c-.89-.74-.7-2.3-.71-3.32,0,0-.01-3.47-.01-3.47,0-4.45-.09-16.2-.13-20.79-.08-9.24-.2-18.48-.21-27.72,0,0,.44,.42,.44,.42-8.51,.49-16.89,2.89-24.33,7.08-14.96,8.57-25.34,24.21-26.68,41.48-3.02,36.76,31.53,65.51,67.09,56.02,8.23-2.18,15.85-6.47,22.19-12.16,0,0-.01,.64-.01,.64-10.71-10.86-26.97-27.52-37.62-38.18h0Zm.07-.07c10.62,10.57,27.37,27.01,38.18,37.63,0,0,.33,.32,.33,.32,0,0-.34,.32-.34,.32-27.59,25.63-72.11,15.46-86.43-19.2-14.06-34.29,10.31-73.2,47.53-74.71,0,0,.44-.02,.44-.02,0,0,0,.44,0,.44-.04,13.32-.24,28.18-.32,41.59,0,2.35-.03,8.14-.03,10.4,.02,1.01-.2,2.5,.66,3.25h0Z"/>
  </g>
</svg>