<?xml version="1.0" encoding="UTF-8"?>
<svg id="Layer_1" data-name="Layer 1" xmlns="http://www.w3.org/2000/svg" viewBox="0 0 200 200">
  <defs>
    <style>
      .cls-1 {
        fill: #f8e849;
      }

      .cls-2 {
        fill: #fff;
      }

      .cls-3 {
        fill: #fd8eb0;
      }

      .cls-4 {
        fill: #97d7ff;
      }

      .cls-5 {
        fill: #4286b8;
      }
    </style>
  </defs>
  <path class="cls-4" d="M64.07,67.59c16.52,9.77,21.98,19.87,26.03,38.23,0,0-1.96,.4-1.96,.4-3.24-18.32-8.18-28.29-24.07-38.62h0Z"/>
  <path class="cls-4" d="M118.63,93.09c-1.58,1.25-3.21,2.57-4.22,4.19-.99,1.61-1.12,3.6-1.53,5.63l-1.93-.53c.72-1.92,1.26-4.08,2.65-5.7,1.44-1.63,3.26-2.61,5.03-3.6h0Z"/>
  <path class="cls-4" d="M90.58,102.67c.62-9.05,5.39-17.38,12.28-23.11-1.55,1.57-3.04,3.18-4.28,4.99-3.72,5.2-6.03,11.71-6,18.09,0,0-2,.04-2,.04h0Z"/>
  <path class="cls-4" d="M96.58,103.74c-1.38-7.78-3.95-16.63-11-21.12,1.86,.92,3.5,2.27,4.92,3.81,4.17,4.8,6.53,10.85,8.05,16.98,0,0-1.97,.34-1.97,.34h0Z"/>
  <path class="cls-5" d="M37.68,164.62c40.22-1.37,80.48-1.38,120.7,0-40.22,1.38-80.48,1.37-120.7,0h0Z"/>
  <circle class="cls-1" cx="63.93" cy="68.16" r="1.91"/>
  <circle class="cls-3" cx="88.5" cy="84.4" r="4.34"/>
  <circle class="cls-3" cx="116.5" cy="94.02" r="1.63"/>
  <circle class="cls-1" cx="101.56" cy="80.85" r="3.1"/>
  <path class="cls-5" d="M98.33,107.39c-5.68-9.25,7.1-22.45,13.99-27.74,1.25-.96,2.44-1.84,3.89-2.75l-1.04,4.77c-3.73-5.06-7.42-10.15-10.98-15.34-.98-1.38-.79-3.24,.35-4.4,3.1-3.15,6.26-6.24,9.43-9.32,0,0,4.77-4.61,4.77-4.61,.77-.79,1.64-1.48,2.74-1.96,1.1-.47,2.34-.81,4.05-.68,.23,2.92-.67,4.98-2.47,6.85-2.66,2.92-6.35,6.91-9.01,9.73-1.51,1.62-3.03,3.22-4.56,4.81,0,0,.35-4.4,.35-4.4,3.68,5.1,7.23,10.29,10.74,15.5,1.15,1.56,.66,3.83-1.04,4.77-6.91,4.13-13.79,9.71-17.34,17.08-1.27,2.67-2.3,4.93-3.86,7.69h0Z"/>
  <path class="cls-5" d="M102.91,44.31c8.69-2.78,17.88-3.15,26.92-2.93-.02,2.63-.03,5.57-.23,8.18-.38,5.34-1.08,10.64-2.78,15.76-.61-1.75-1.03-3.5-1.4-5.25-1.06-5.2-1.52-10.47-1.58-15.76,0,0,2.98,2.98,2.98,2.98-8.06,.04-16.18-.5-23.92-2.98h0Z"/>
  <g>
    <path class="cls-2" d="M65.96,115.65l4.68,35.74c.6,6.43,4.22,12.72,8.29,12.72h41.17c4.07,0,7.69-6.29,8.29-12.72l4.68-35.74H65.96Z"/>
    <path class="cls-5" d="M66.04,115.72l5.02,36.05c.59,4.33,2.9,11.41,7.94,11.85,10.2-.06,28.54-.16,38.75-.22,0,0,2.28-.01,2.28-.01,4.83-.49,7.01-7.5,7.5-11.67,0,0,4.51-36.19,4.51-36.19,0,0,1.03,1.18,1.03,1.18-5.53-.03-11.05-.02-16.58-.09-10.61-.09-39.47-.66-50.45-.88h0Zm-.15-.13c19.51-.34,47.93-1.05,67.19-.97,0,0,1.19,0,1.19,0,0,0-.16,1.18-.16,1.18l-4.94,36.13c-.67,4.9-3.27,12.52-9.13,12.92-11.27-.07-29.76-.16-41.03-.23-5.69-.47-8.09-7.97-8.69-12.74,0,0-4.43-36.27-4.43-36.27h0Z"/>
  </g>
  <path class="cls-1" d="M66.72,119.69s54.71,3.25,62.85,15.48l1.97-15.48H66.72Z"/>
  <g>
    <path class="cls-2" d="M61.63,103.06c-1.51-.11-3.28,.63-3.28,1.68v11.15c0,.95,2.64,3.66,4,3.66h75.86c1.36,0,2.02-2.71,2.02-3.66v-11.15c0-.95-1.29-1.79-2.65-1.79l-75.94,.11Z"/>
    <path class="cls-5" d="M61.63,103.16c-1.31-.06-3.39,.4-3.18,2.06,0,0,0,1.5,0,1.5v5.99s.02,3,.02,3c-.04,.47,.28,.87,.56,1.27,.88,1.03,2.05,2.32,3.47,2.4,0,0,3-.03,3-.03,15.66-.26,56.49-.5,72.65-.6,.14-.02,.11,0,.22-.08,.19-.13,.41-.49,.57-.87,.35-.79,.47-1.75,.43-2.6,0,0-.05-5.99-.05-5.99l-.02-3v-1.46c-.11-.41-.91-.76-1.4-.81-2.84-.02-13.31,.08-16.36,.08-19.87,.16-40.1-.75-59.92-.86h0Zm0-.2c19.83-.17,40.07-1.13,59.92-1.02,3.28,.05,13.44-.04,16.6,.1,1.38,.26,2.79,.91,2.99,2.63,0,0,0,1.53,0,1.53l-.02,3s-.05,5.99-.05,5.99c.04,1.84-.61,5.05-2.92,5.17-16.33-.1-56.84-.33-72.65-.6,0,0-3-.03-3-.03-1.59-.11-2.73-1.46-3.69-2.6-.27-.4-.64-.87-.58-1.43l.02-3s0-5.99,0-5.99c0-.54-.04-1.74,.05-2.27,.52-1.24,2.15-1.51,3.33-1.48h0Z"/>
  </g>
  <path class="cls-1" d="M74.38,161c.53,1.45,3.68,2.9,7.22,2.9h35.83c3.54,0,6.69-1.45,7.22-2.9h-50.27Z"/>
  <path class="cls-1" d="M134.21,103.9c2.7,4.94,1.82,13.63,.83,14.93h2.37c1.36,0,2.46-.99,2.46-2.2v-10.51c0-1.21-1.09-2.19-2.45-2.2l-3.21-.02Z"/>
</svg>