<?xml version="1.0" encoding="UTF-8"?>
<svg id="Layer_1" data-name="Layer 1" xmlns="http://www.w3.org/2000/svg" xmlns:xlink="http://www.w3.org/1999/xlink" viewBox="0 0 200 200">
  <defs>
    <style>
      .cls-1 {
        fill: #f9ea35;
      }

      .cls-2 {
        fill: #fff;
      }

      .cls-3 {
        fill: #ff8db0;
      }

      .cls-4 {
        fill: #97d7ff;
      }

      .cls-5 {
        fill: #3a7491;
      }

      .cls-6 {
        clip-rule: evenodd;
        fill: none;
      }
    </style>
    <clipPath id="clippath">
      <path class="cls-6" d="M-651.14,353.46l47.5,.61-47.5,.97c-.45,0-.82-.34-.83-.78,0-.44,.35-.8,.8-.8h.02Z"/>
    </clipPath>
    <clipPath id="clippath-2">
      <path class="cls-6" d="M-651.12,361.37l37.13,.66-37.12,.92c-.45,.01-.83-.34-.84-.77-.01-.44,.35-.8,.8-.81h.03Z"/>
    </clipPath>
  </defs>
  <g>
    <rect class="cls-2" x="58.15" y="48.57" width="89.93" height="118.88" rx="5.64" ry="5.64"/>
    <path class="cls-5" d="M142.44,167.45c-24.36,.25-52.03,.51-76.49,.41-3.52,.29-6.95-.66-8.01-4.51-.26-.91-.21-2.32-.21-3.28,.02-8.06-.03-54.62-.02-63.74,0-10.13-.01-31.5-.01-41.43-.38-3.44,2.51-6.9,6.09-6.79,0,0,50.99-.01,50.99-.01h25.5c1.07,.02,2.09-.09,3.27,.1,2.89,.48,5.11,3.23,5.01,6.14-.01,9.46,.03,54.96,.02,65.33,0,12.75,.08,25.5-.32,38.24,0,0-.07,3.19-.07,3.19,.29,3.27-2.38,6.46-5.74,6.34h0Zm0,0c3.31,.02,5.96-3.09,5.54-6.34,0,0-.07-3.19-.07-3.19-.39-12.75-.32-25.49-.32-38.24,0-10.62,.02-55.56,.02-65.33,.09-2.48-1.78-4.8-4.23-5.21-.92-.15-2.05-.06-3.1-.09,0,0-25.5,0-25.5,0H63.78c-3.1-.06-5.53,2.83-5.19,5.88,0,9.84-.01,31.35-.01,41.43,0,9.35-.01,55.4-.02,63.74,.04,.58-.09,2.42,.18,3.06,.95,3.42,3.99,4.15,7.21,3.89,24.49-.15,52.1,.21,76.49,.41h0Z"/>
  </g>
  <g>
    <rect class="cls-1" x="68.37" y="57.28" width="69.54" height="20.74" rx="1.09" ry="1.09"/>
    <path class="cls-2" d="M136.82,57.78c.33,0,.59,.27,.59,.59v18.56c0,.33-.27,.59-.59,.59H69.46c-.33,0-.59-.27-.59-.59v-18.56c0-.33,.27-.59,.59-.59h67.36m0-1H69.46c-.88,0-1.59,.71-1.59,1.59v18.56c0,.88,.71,1.59,1.59,1.59h67.36c.88,0,1.59-.71,1.59-1.59v-18.56c0-.88-.71-1.59-1.59-1.59h0Z"/>
    <path class="cls-5" d="M69.46,56.28c20.7,.22,41.79,.28,62.51,.21,0,0,2.84,0,2.84,0h1.42c.25,0,.45-.01,.73,0,.85,.05,1.61,.74,1.73,1.59,.06,1.01,.02,3.28,.03,4.31-.02,4.1,.04,10.12,.03,14.21,.14,1.15-.74,2.31-1.94,2.29,0,0-45.46-.05-45.46-.05-5.2-.02-14.76,.05-19.89,.07,0,0-1.42,0-1.42,0-.25,0-.44,.01-.74,0-.89-.05-1.69-.77-1.82-1.66-.07-.99-.02-3.3-.05-4.32,0,0-.03-5.68-.03-5.68l-.03-5.68c-.04-.22,.01-3.05-.01-3.2-.01-1.11,.97-2.09,2.08-2.07h0Zm0,1c-.75,0-1.21,.69-1.11,1.43,0,0-.01,2.84-.01,2.84l-.03,5.68c0,1.87-.03,6.71-.04,8.52,.01,.34-.03,1.06,0,1.36,.14,.88,.97,1.1,1.77,1.02,5.76,.04,15.45,.08,21.31,.08,0,0,45.46-.05,45.46-.05,.83,0,1.36-.77,1.24-1.58,.02-4.08,.01-10.11,.03-14.21,0,0,0-2.84,0-2.84-.02-.85,.2-1.82-.64-2.28-.38-.23-.79-.16-1.23-.18,0,0-1.42,0-1.42,0-21.67-.07-43.69-.04-65.35,.2h0Z"/>
  </g>
  <rect class="cls-4" x="70.67" y="92.39" width="16.69" height="16.69" rx="1.57" ry="1.57"/>
  <rect class="cls-4" x="93.62" y="92.39" width="16.69" height="16.69" rx="1.57" ry="1.57"/>
  <rect class="cls-4" x="116.58" y="92.39" width="16.69" height="16.69" rx="1.57" ry="1.57"/>
  <rect class="cls-4" x="70.67" y="113.26" width="16.69" height="16.69" rx="1.57" ry="1.57"/>
  <rect class="cls-4" x="70.67" y="136.21" width="16.69" height="16.69" rx="1.57" ry="1.57"/>
  <rect class="cls-3" x="93.62" y="136.21" width="39.65" height="16.69" rx="2.47" ry="2.47"/>
  <rect class="cls-4" x="93.62" y="113.26" width="16.69" height="16.69" rx="1.57" ry="1.57"/>
  <rect class="cls-4" x="116.58" y="113.26" width="16.69" height="16.69" rx="1.57" ry="1.57"/>
</svg>