<?xml version="1.0" encoding="UTF-8"?>
<svg id="Layer_1" data-name="Layer 1" xmlns="http://www.w3.org/2000/svg" xmlns:xlink="http://www.w3.org/1999/xlink" viewBox="0 0 200 200">
  <defs>
    <style>
      .cls-1 {
        fill: #f9ea35;
      }

      .cls-2 {
        fill: #fff;
      }

      .cls-3 {
        fill: #97d7ff;
      }

      .cls-4 {
        fill: #c1c1c1;
      }

      .cls-5 {
        fill: #3a7491;
      }

      .cls-6 {
        clip-rule: evenodd;
        fill: none;
      }

      .cls-7 {
        opacity: .2;
      }
    </style>
    <clipPath id="clippath">
      <path class="cls-6" d="M90.14,353.46l47.5,.61-47.5,.97c-.45,0-.82-.34-.83-.78,0-.44,.35-.8,.8-.8h.02Z"/>
    </clipPath>
    <clipPath id="clippath-2">
      <path class="cls-6" d="M90.16,361.37l37.13,.66-37.12,.92c-.45,.01-.83-.34-.84-.77-.01-.44,.35-.8,.8-.81h.03Z"/>
    </clipPath>
  </defs>
  <path class="cls-5" d="M166.21,162.78c-44.74,.66-94.47,.65-139.24,0,44.78-.65,94.49-.66,139.24,0h0Z"/>
  <path class="cls-5" d="M121.21,121.52l22.82-68.16-20.92,68.77c-.41,1.26-2.31,.67-1.91-.61h0Z"/>
  <path class="cls-5" d="M80.33,122.77L51.98,54.19l30.19,67.78c.52,1.22-1.3,2.02-1.84,.79h0Z"/>
  <g>
    <path class="cls-2" d="M117.5,160.17l-1.29-33.51c0-8-6.14-14.46-13.96-15.15,6.33-.91,11.2-6.28,11.2-12.86,0-7.21-5.85-13.03-13.06-13.03s-13.06,5.86-13.06,13.07c0,6.73,5.09,12.27,11.63,12.98-7.54,.95-13.38,7.18-13.38,14.98l-.55,33.52"/>
    <path class="cls-5" d="M117.4,160.18c-.76-9.34-1.43-18.69-2-28.04-.07-1.19-.24-4.12-.31-5.26,.08-7.14-5.89-13.41-12.97-13.82-1.81-.17-1.87-2.81-.09-3.07,9.46-1.36,13.15-13.39,5.94-19.72-7.02-6.27-18.53-1.56-18.96,7.91-.39,5.86,4.28,11.42,10.15,11.97,1.82,.22,1.78,2.87-.01,3.06-6.34,.58-11.89,5.94-12.38,12.38-.15,1.89-.17,4.89-.27,6.86-.14,4.62-.42,9.25-.63,13.87-.21,4.62-.45,9.24-.74,13.86,0,.12-.2,.13-.2,0,0,0,.42-27.74,.42-27.74,.12-4.58-.4-9.52,2.22-13.56,2.38-4.03,6.72-6.8,11.36-7.36,0,0,0,.31,0,.31-6.76-.6-12.18-6.98-11.78-13.74,.17-6.78,6.17-12.67,12.96-12.66,16.56,.24,18.46,23.33,2.15,26.25,0,0,0-.32,0-.32,4.72,.39,9.19,3.08,11.71,7.1,2.76,4.02,2.36,9.03,2.57,13.66,0,0,1.05,28.06,1.05,28.06,0,.12-.19,.14-.2,0h0Z"/>
  </g>
  <g class="cls-7">
    <path class="cls-4" d="M112.35,161.43l-4.05-27.15c0-7.7-4.73-13.95-10.58-13.95h0c-5.84,0-10.58,6.24-10.58,13.95l-1.46,27.15"/>
  </g>
  <g class="cls-7">
    <circle class="cls-4" cx="98.38" cy="100.09" r="8.14"/>
  </g>
  <g>
    <path class="cls-1" d="M62.01,83c-11.98,1.42-20.34,11.74-32.31,13.16-4.03-9.89-8.05-19.78-12.08-29.67,11.98-1.42,20.34-11.74,32.31-13.16"/>
    <path class="cls-5" d="M62.02,83.08l-2.16,.39-2.11,.57-2.06,.73-2.01,.86c-1.32,.63-2.61,1.3-3.89,2.01-1.27,.72-2.53,1.46-3.79,2.21-1.26,.75-2.53,1.49-3.8,2.22-1.29,.72-2.59,1.4-3.93,2.03l-2.05,.87-2.1,.74-2.16,.57-2.21,.39c-.22,.04-.43-.08-.51-.28v-.03s-12.4-29.55-12.4-29.55c-.18-.42,.02-.91,.45-1.09,.06-.02,.12-.04,.17-.05h.06s2.09-.37,2.09-.37l2.06-.52,2.03-.68,1.99-.81c1.31-.59,2.62-1.2,3.9-1.88,1.28-.68,2.57-1.38,3.85-2.09,1.28-.71,2.57-1.42,3.88-2.09,1.32-.66,2.66-1.29,4.02-1.86l2.08-.79,2.13-.62,2.17-.46,2.2-.25s.09,.03,.09,.07c0,.04-.03,.08-.07,.09l-2.14,.47-2.09,.63-2.03,.79-1.98,.89c-1.3,.65-2.58,1.34-3.83,2.07l-3.76,2.24c-1.25,.76-2.52,1.5-3.8,2.24-1.29,.72-2.6,1.42-3.95,2.05l-2.07,.87-2.13,.74-2.2,.57-2.25,.36,.68-1.15,11.77,29.8-.53-.31,2.13-.33,2.1-.51,2.06-.68,2.01-.81c1.32-.59,2.63-1.22,3.93-1.9,1.29-.69,2.57-1.39,3.84-2.11,1.28-.72,2.56-1.42,3.86-2.12,1.3-.68,2.62-1.32,3.97-1.92l2.05-.82,2.1-.68,2.15-.52,2.17-.33s.09,.02,.09,.07c0,.04-.02,.09-.07,.09Z"/>
  </g>
  <g>
    <path class="cls-3" d="M136.39,86.23c12.05-.49,21.94,8.37,33.99,7.88,2.41-10.4,4.82-20.81,7.24-31.21-12.05,.49-21.94-8.37-33.99-7.88"/>
    <path class="cls-5" d="M136.39,86.31l2.2,.04,2.17,.23,2.15,.39,2.12,.53c1.4,.41,2.78,.87,4.16,1.37,1.37,.51,2.73,1.04,4.09,1.58,1.36,.54,2.73,1.07,4.11,1.59,1.38,.5,2.78,.97,4.2,1.38l2.16,.53,2.19,.39,2.22,.22,2.24,.03c.22,0,.41-.15,.46-.36v-.03s7.57-31.13,7.57-31.13c.11-.45-.17-.9-.61-1-.06-.01-.12-.02-.18-.02h-.06s-2.12-.03-2.12-.03l-2.12-.19-2.11-.35-2.09-.49c-1.39-.38-2.77-.78-4.15-1.24-1.38-.47-2.75-.95-4.13-1.45-1.38-.5-2.76-1-4.17-1.45-1.41-.45-2.83-.85-4.27-1.2l-2.18-.45-2.2-.28-2.22-.11-2.21,.1s-.08,.04-.08,.09c0,.04,.04,.08,.09,.08l2.18,.12,2.16,.29,2.13,.46,2.1,.57c1.38,.43,2.75,.91,4.11,1.44l4.07,1.62c1.36,.55,2.73,1.09,4.11,1.61,1.39,.51,2.79,.99,4.23,1.4l2.18,.53,2.22,.39,2.26,.21h2.27s-.85-1.03-.85-1.03l-6.91,31.28,.47-.39h-2.15s-2.15-.17-2.15-.17l-2.14-.34-2.12-.48c-1.4-.38-2.79-.79-4.18-1.26-1.38-.48-2.76-.97-4.13-1.48-1.37-.51-2.76-1-4.14-1.48-1.39-.47-2.8-.89-4.22-1.27l-2.15-.48-2.18-.34-2.2-.17-2.2,.02s-.08,.04-.08,.08c0,.04,.04,.08,.08,.08Z"/>
  </g>
</svg>