<?xml version="1.0" encoding="UTF-8"?>
<svg id="Layer_1" data-name="Layer 1" xmlns="http://www.w3.org/2000/svg" viewBox="0 0 200 200">
  <defs>
    <style>
      .cls-1 {
        fill: #f9ea35;
      }

      .cls-2 {
        fill: #fff;
      }

      .cls-3 {
        fill: #83d6ff;
      }

      .cls-4 {
        fill: #36aff3;
      }

      .cls-5 {
        fill: #3a7491;
      }
    </style>
  </defs>
  <g>
    <path class="cls-3" d="M165.72,148.61H35.74V68.62c0-5.9,4.78-10.68,10.68-10.68h108.63c5.9,0,10.68,4.78,10.68,10.68v79.98Z"/>
    <path class="cls-5" d="M165.76,148.64c-30.25,.11-67.35,.45-97.44,.37,0,0-32.57-.1-32.57-.1,0,0-.31,0-.31,0v-.31c.14-18.84,.13-56.7,.06-75.53,.04-3.15-.39-6.49,1.15-9.38,1.77-3.66,5.73-6.07,9.79-6.06,0,0,2.36,0,2.36,0,9.56-.05,41.84-.14,51.93-.16,10.19,0,42.21-.04,51.93-.02,1.23,.02,3.56-.07,4.81,.27,4.9,1.03,8.69,5.62,8.71,10.63,.02,1.6,0,3.17,0,4.75,0,0-.42,75.55-.42,75.55h0Zm-.07-.07l-.42-75.51c-.01-1.56,0-3.15-.03-4.69-.07-4.56-3.52-8.74-7.98-9.67-1.2-.32-3.33-.23-4.59-.24-2.89,.01-11.14,0-14.16,.01-25.44,.02-64.35-.09-89.69-.19-4.73-.42-9.46,1.18-11.67,5.66-1.51,2.81-1.08,6.06-1.15,9.14-.06,18.81-.07,56.72,.06,75.53,0,0-.31-.31-.31-.31,41.39-.23,88.51,.02,129.94,.27h0Z"/>
  </g>
  <rect class="cls-4" x="35.2" y="146.73" width="130.53" height="1.88"/>
  <g>
    <rect class="cls-2" x="42.09" y="64.12" width="117.29" height="78.83" rx="4.07" ry="4.07"/>
    <path class="cls-5" d="M155.31,64.62c1.97,0,3.57,1.6,3.57,3.57v70.69c0,1.97-1.6,3.57-3.57,3.57H46.16c-1.97,0-3.57-1.6-3.57-3.57V68.19c0-1.97,1.6-3.57,3.57-3.57h109.15m0-1H46.16c-2.52,0-4.57,2.05-4.57,4.57v70.69c0,2.52,2.05,4.57,4.57,4.57h109.15c2.52,0,4.57-2.05,4.57-4.57V68.19c0-2.52-2.05-4.57-4.57-4.57h0Z"/>
  </g>
  <g>
    <rect class="cls-3" x="21.71" y="148.61" width="158.05" height="9.47" rx="4.73" ry="4.73"/>
    <path class="cls-5" d="M175.03,158.12c-37.8,.09-105.89,.26-143.02,.31,0,0-5.11,0-5.11,0-1.77,.13-3.72-.72-4.71-2.27-2.28-3.26,.25-8.05,4.25-7.97,37.78-.1,105.9-.1,143.02,.24,0,0,5.11,.03,5.11,.03,6.61-.28,7.19,9.34,.46,9.65h0Zm0-.1c6.37-.27,6.03-9.6-.46-9.28,0,0-5.11,.03-5.11,.03-36.86,.33-105.52,.36-143.02,.24-3.35-.08-5.57,3.97-3.62,6.75,.88,1.33,2.44,2.06,4.08,1.95,0,0,5.11,0,5.11,0,36.86,.06,105.51,.21,143.02,.31h0Z"/>
  </g>
  <path class="cls-2" d="M22.79,150.61c.81-1.2,2.18-1.99,3.74-1.99H175.09c1.67,0,3.12,.91,3.9,2.25l-67.72-.11-.38,.91c-.41,.98-1.38,1.62-2.44,1.62l-18.11-.03c-1.06,0-2.02-.64-2.43-1.62l-.38-.91-64.73-.11Z"/>
  <g>
    <polygon class="cls-1" points="109.31 77.05 84.83 106.85 99 106.85 91.61 128.2 116.09 98.41 101.92 98.41 109.31 77.05"/>
    <path class="cls-5" d="M109.28,77.1c-5.41,6.71-12.7,15.95-18.09,22.67-1.99,2.46-4.02,4.89-6.05,7.34l-.31-.66,14.17,.21s.28,0,.28,0l-.09,.26c-1.25,3.55-2.52,7.1-3.72,10.67-1.23,3.56-2.41,7.14-3.59,10.71,0,0-.47-.26-.47-.26,8.04-10.03,16.09-20.05,24.29-29.94,0,0,.4,.84,.4,.84-4.92,0-9.83-.04-14.75-.11,2.36-6.52,5.63-15.2,7.94-21.71h0Zm.05-.09c-2.03,6.04-4.97,15.33-7.02,21.53,0,0-.39-.54-.39-.54,5.08-.08,10.17-.12,15.25-.1-8.34,10.25-16.83,20.37-25.35,30.48,0,0-.99,1.18-.99,1.18,1.45-4.02,2.91-8.05,4.31-12.09,1.26-3.55,2.45-7.12,3.66-10.69l.19,.26-14.17,.21h-.87c2.23-2.73,4.46-5.5,6.74-8.22,5.51-6.56,13.13-15.46,18.63-22.02h0Z"/>
  </g>
</svg>