<?xml version="1.0" encoding="UTF-8"?>
<svg id="Layer_1" data-name="Layer 1" xmlns="http://www.w3.org/2000/svg" viewBox="0 0 200 200">
  <defs>
    <style>
      .cls-1 {
        fill: #f9ea35;
      }

      .cls-2 {
        fill: #fff;
      }

      .cls-3 {
        fill: #97d7ff;
      }

      .cls-4 {
        fill: #3a7491;
      }
    </style>
  </defs>
  <path class="cls-4" d="M23.88,153.28c49.88-.78,105.34-.76,155.25,0-49.93,.76-105.36,.78-155.25,0h0Z"/>
  <g>
    <path class="cls-4" d="M151.35,153.28h-46.36c-2.61,0-4.72-2.11-4.72-4.72V62.7c0-2.61,2.11-4.72,4.72-4.72h38.76c2.45,0,4.49,1.87,4.7,4.31l7.6,85.86c.24,2.76-1.93,5.14-4.7,5.14Z"/>
    <g>
      <g>
        <path class="cls-2" d="M143.47,65.99l-3.56,74.6c-.29,6.02-5.4,10.9-11.43,10.9H57.29c-6.02,0-10.65-4.88-10.33-10.9l3.96-74.6"/>
        <path class="cls-4" d="M143.59,66c-.24,5.27-2.7,68.05-2.88,71.62-.09,2.69-.11,5.62-1.5,8.03-2.91,5.56-8.34,7.03-14.2,6.62-15.88,.06-47.83,.27-63.71,.38-2.46-.05-5.99,.3-8.3-.78-5.01-1.88-7.85-7.15-7.19-12.38,0,0,.11-1.99,.11-1.99,1.49-23.81,2.67-48,5.01-71.62-.1,21.13-1.39,42.58-2.21,63.79,0,0-.4,7.95-.4,7.95l-.1,1.99c-.53,4.19,1.58,8.5,5.64,10.05,1.9,.94,5.36,.61,7.44,.69,15.88,.11,47.83,.31,63.71,.38,5.33,.4,10.28-.65,12.98-5.73,1.31-2.22,1.3-4.93,1.42-7.45,.37-3.04,3.27-67.58,4.17-71.55h0Z"/>
      </g>
      <path class="cls-3" d="M52.15,103.32l90.3,.59-90.3,.59c-.76,0-.78-1.17,0-1.17h0Z"/>
      <path class="cls-3" d="M50.95,125.86l90.42,.59-90.42,.59c-.76,0-.78-1.17,0-1.17h0Z"/>
      <path class="cls-3" d="M70.84,84.27l-4.25,67.6,3.07-67.67c.04-.76,1.22-.72,1.17,.06h0Z"/>
      <path class="cls-3" d="M96.2,84.27l-4.14,67.6,2.97-67.66c.04-.76,1.21-.72,1.17,.06h0Z"/>
      <path class="cls-3" d="M121.56,84.27l-3.34,53.47,2.17-53.53c.03-.77,1.22-.72,1.17,.06h0Z"/>
      <g>
        <polygon class="cls-3" points="142.4 81.43 50.1 81.43 51.3 58.99 143.47 58.99 142.4 81.43"/>
        <path class="cls-4" d="M142.44,81.47c-21.25,.29-48.04,.62-69.2,.31-7.73-.1-15.44-.15-23.14-.17-.1,0-.18-.09-.18-.19,.38-7.48,.74-14.96,1.05-22.45,0-.17,.15-.31,.32-.3l23.04-.21c11.49-.07,34.6-.11,46.08-.05,0,0,23.04,.22,23.04,.22,.2,0,.37,.16,.37,.37-.34,5.61-1,16.88-1.4,22.48h0Zm-.08-.08c.13-5.59,.55-16.83,.75-22.41l.37,.38c-20.53,.27-48.6,.3-69.13,.16l-23.04-.21,.32-.3c-.49,7.48-.93,14.95-1.34,22.43l-.18-.19c7.68-.02,15.36-.07,23.01-.17,21.12-.31,48.04,.02,69.24,.31h0Z"/>
      </g>
      <g>
        <polygon class="cls-1" points="91.46 125.47 69.08 125.47 70.1 103.91 92.45 103.91 91.46 125.47"/>
        <path class="cls-4" d="M91.5,125.51l-22.42,.25h-.31s.01-.31,.01-.31l.85-21.56,.02-.44h.45c5.38-.15,11.35-.17,16.77-.15,.28,0,6.11,.03,6.21,.03-.35,6.57-1.06,15.55-1.57,22.18h0Zm-.08-.08c.07-6.31,.25-15.35,.46-21.54l.58,.61-5.59,.03c-5.42,.03-11.38,0-16.77-.14l.47-.45-1.2,21.55-.3-.31,22.34,.25h0Z"/>
      </g>
      <path class="cls-4" d="M71.1,110.95c1.37,.08,2.29,.58,3.08,1.22,2.2,2.04,4.4,4.1,6.56,6.18h-2.74c6.72-7.51,13.75-14.84,20.87-21.98,1.04-1,2.28-1.82,4.25-1.95,0,1.97-.75,3.26-1.69,4.36l-2.89,3.23c-5.8,6.48-11.76,12.82-17.87,19.01-.74,.75-1.97,.72-2.67-.07-1.33-1.5-2.61-3.04-3.91-4.57-1.36-1.73-2.99-2.89-2.99-5.43h0Z"/>
    </g>
    <path class="cls-4" d="M133.25,57.51c-.2-3.66-1.01-7.71-3.43-10.51-3.01-3.49-6.04-.06-7.02,3.3-1.14,3.46-1.04,7.27-.68,10.86,.36,2.65,.94,5.44,2.66,7.54,.56,.68,1.3,1.2,2.23,1.39v.23c-2.12,.31-4-1.45-5.04-3.13-3.24-5.25-3.13-11.93-.94-17.55,2.38-6.47,8.4-7.82,11.14-.75,1.08,2.73,1.39,5.72,1.3,8.62h-.23Z"/>
    <path class="cls-4" d="M77.02,57.51c-.2-3.66-1.01-7.71-3.43-10.51-3.01-3.49-6.04-.06-7.02,3.3-1.14,3.46-1.04,7.27-.68,10.86,.36,2.65,.95,5.44,2.66,7.54,.56,.68,1.3,1.2,2.23,1.39v.23c-2.11,.31-4-1.45-5.04-3.13-3.24-5.25-3.13-11.93-.94-17.55,2.38-6.47,8.4-7.82,11.14-.75,1.08,2.73,1.4,5.72,1.3,8.62h-.23Z"/>
    <path class="cls-3" d="M146.78,62.19c-.05,23.93,.58,52.09-.24,75.88-.09,1.7-.09,3.62-.65,5.31-1.46,4.27-5.73,6.8-10,7.28l-.04-.23c3.5-1.05,7.08-3.33,8.2-6.9,.56-1.69,.45-3.46,.42-5.46l-.05-5.84c.06-13.54,.99-32.98,1.3-46.7,0,0,.83-23.34,.83-23.34h.23Z"/>
  </g>
</svg>