<?xml version="1.0" encoding="UTF-8"?>
<svg id="Layer_1" data-name="Layer 1" xmlns="http://www.w3.org/2000/svg" viewBox="0 0 200 200">
  <defs>
    <style>
      .cls-1 {
        fill: #f9ea35;
      }

      .cls-2 {
        fill: #fff;
      }

      .cls-3 {
        fill: #fd8eb0;
      }

      .cls-4 {
        fill: #feca36;
      }

      .cls-5 {
        fill: #97d7ff;
      }

      .cls-6 {
        fill: #c1c1c1;
      }

      .cls-7 {
        fill: #3a7491;
      }

      .cls-8 {
        opacity: .2;
      }
    </style>
  </defs>
  <g>
    <path class="cls-2" d="M88.54,132.31s-11.97-12-24.87-33.28c-12.9-21.28-4.51-62.89,35.5-62.89s44.14,31.26,43.77,43.64c-.37,12.38-3.72,21.23-30.83,52.24"/>
    <path class="cls-7" d="M88.51,132.34c-7.64-7.82-14.32-16.54-20.41-25.61-2.86-4.5-6.32-9.25-8.01-14.35-7.35-20.92,2.11-47.2,24.19-54.21,14.64-4.63,35.22-2.7,46.75,8.17,10.24,9.57,13.61,24.54,12.08,38.09-.93,8.3-5.43,15.67-10.13,22.33-6.4,8.79-13.58,17.48-20.91,25.22,7.03-8.34,14.09-16.69,20.32-25.63,4.59-6.68,8.8-13.89,9.71-22.04,1.43-13.23-1.84-27.87-11.73-37.28-11.43-10.78-31.36-12.92-45.98-8.47-22.09,6.7-30.63,32.99-23.49,53.53,1.62,5.03,5.03,9.77,7.82,14.22,5.88,9.12,12.75,17.99,19.77,26.03h0Z"/>
  </g>
  <g>
    <path class="cls-1" d="M111.62,136.81v11.28c0,1.5-1.22,2.71-2.71,2.71h-17.57c-1.5,0-2.71-1.22-2.71-2.71v-11.28"/>
    <path class="cls-7" d="M111.67,136.81c.3,3.54,.4,7.1,.4,10.64,.22,1.72-1.02,3.53-2.79,3.61-1.08,0-2.05-.09-3.07-.09-4.81-.05-9.63,.34-14.45,.35-1.8,.24-3.65-1.21-3.65-3.08-.01-.55,.03-1.75,.03-2.3,.09-2.95,.18-6.19,.43-9.12,0-.06,.1-.06,.1,0,.24,2.92,.36,6.18,.43,9.12,.05,.5,0,1.78,.05,2.26,.05,1.03,.88,1.95,1.91,2.08,6.02,.03,12.14,.65,18.15,.24,.91-.15,1.65-.85,1.87-1.68,.2-.69,.05-2.11,.1-2.89,.1-2.27,0-7.38,.49-9.12h0Z"/>
  </g>
  <rect class="cls-7" x="87.37" y="134.17" width="25.95" height="2.64"/>
  <polygon class="cls-4" points="89.06 141.98 88.92 136.92 111.62 136.81 89.06 141.98"/>
  <g>
    <g>
      <path class="cls-5" d="M134.36,138.27c-13.92,0-8.09,19.37-.17,21.24l-.94,1.9s0,.06,.02,.08c.4-.15,.81-.24,1.22-.26,.34-.02,.66,.03,.96,.11l-.76-1.78c6.9-1.87,13.6-21.28-.33-21.28Z"/>
      <path class="cls-7" d="M134.36,138.32c-10.88-.27-9.17,14.02-3.29,19.3,.91,.81,2,1.44,3.17,1.71,.12,.03,.18,.16,.12,.26l-.89,1.92c.03-.05,.02-.16,0-.17,0,0-.28-.09-.28-.09,.36-.14,.74-.25,1.13-.3,.4-.05,.82-.02,1.2,.07l-.36,.43-.82-1.76c-.1-.21,.02-.46,.25-.51,4.38-1.8,6.48-7.02,7.28-11.4,.93-5.32-1.83-9.62-7.51-9.47h0Zm0-.1c5.96-.24,9.38,3.87,8.54,9.7-.71,4.71-3.3,10.35-8.11,11.99,0,0,.25-.51,.25-.51l.71,1.81c.12,.23-.12,.52-.36,.43-.66-.21-1.34-.15-2.02,.08-.23,.07-.42-.18-.32-.42l.99-1.87,.12,.26c-9.42-3.21-13.45-21.8,.21-21.47h0Z"/>
    </g>
    <path class="cls-2" d="M135.48,140.35s5.23,.53,5.03,5.35c-.21,4.82-2.51,7.59-2.51,7.59,0,0,2.71-9.65-2.52-12.93Z"/>
    <path class="cls-7" d="M134.22,160.01c-2.57,.13-1.71,3.22-.51,4.58,1.28,1.63,3.62,3.48,2.58,5.82,.38-1.08,.09-2.24-.62-3.1-1.42-1.73-3.59-3.09-3.83-5.57-.24-1.36,.98-2.65,2.35-2.73,0,0,.05,1,.05,1h0Z"/>
  </g>
  <g>
    <g>
      <path class="cls-3" d="M64.99,138.51c-11.64,0-6.76,16.2-.14,17.76l-.79,1.59s0,.05,.02,.07c.33-.12,.68-.2,1.02-.22,.29-.01,.55,.03,.8,.09l-.64-1.49c5.77-1.56,11.37-17.79-.27-17.79Z"/>
      <path class="cls-7" d="M64.99,138.56c-4.74-.16-7.16,3.55-6.5,8,.46,3.79,2.38,8.45,6.41,9.53,.12,.03,.18,.16,.12,.26l-.74,1.61c.09-.23-.08-.19-.28-.27,.59-.25,1.32-.37,1.98-.21l-.36,.43-.69-1.47c-.09-.2,.01-.44,.22-.5,3.64-1.49,5.37-5.86,6.05-9.49,.76-4.42-1.45-8.01-6.2-7.9h0Zm0-.1c4.96-.24,7.96,3.26,7.22,8.13-.63,4.03-2.74,8.65-6.85,10.07,0,0,.25-.51,.25-.51l.58,1.51c.12,.23-.12,.52-.36,.43-.54-.18-1.09-.13-1.66,.06-.23,.07-.41-.17-.32-.4l.84-1.56,.12,.26c-7.94-2.73-11.35-18.28,.18-17.99h0Z"/>
    </g>
    <path class="cls-2" d="M65.92,140.25s4.37,.44,4.2,4.47c-.17,4.03-2.1,6.35-2.1,6.35,0,0,2.27-8.07-2.1-10.82Z"/>
    <path class="cls-7" d="M65.32,156.45c.31,.12,.33,.22,.44,.45,.37,2.01-1.14,3.89-1.16,5.82-.03,.94,.43,1.83,.89,2.71,.45,.89,.86,1.81,1.15,2.76-.63-1.95-2.27-3.35-2.5-5.46-.07-1.8,.79-3.36,.76-5.11,0-.13-.01-.26-.06-.36,0,.01,0,0,0,.02,.07,.07,.01,.06,.21,.14,0,0,.25-.97,.25-.97h0Z"/>
  </g>
  <path class="cls-7" d="M80.04,133.22l-.5,15.4-.5-15.4c-.02-.67,1.02-.68,1,0h0Z"/>
  <path class="cls-7" d="M119.81,140.91l-.5,12.83-.5-12.83c-.02-.68,1.02-.68,1,0h0Z"/>
  <g class="cls-8">
    <path class="cls-6" d="M61.8,62.4c-3.74,43.07,43.87,68.26,56.23,61.91l-7.8,8.63s-10.22-4.36-20.19-.63c-11.59-12.53-40.2-41.36-28.23-69.91Z"/>
  </g>
  <g>
    <path class="cls-1" d="M70.94,73.28c.26-1.39,1.77-2.68,3.33-2.84,.19-.02,.39-.04,.58-.06,1.21-.12,1.88,.4,2.29,1.17,2.4,4.47,5.85,9.24,9.5,14.16,2.79-4.93,6.31-10.03,9.72-15.18,.63-.97,1.45-1.49,2.57-1.51,.19,0,.39,0,.58,0,1.56-.02,2.76,1.27,2.77,2.83-.02,8.97,0,17.87,.06,26.71,0,1.54-1.01,2.76-2.3,2.74-1.22-.01-2.4-1.3-2.55-2.79-.58-6.31-.89-12.66-.91-19.03-2.63,3.92-5.13,7.81-7.1,11.59-.45,.88-1.04,1.4-2.03,1.38-.94-.02-1.73-.57-2.46-1.46-3.15-3.78-6.28-7.48-8.98-11.01,.12,5.94,1.45,11.87,3.99,17.79,.6,1.44,.15,2.45-1.11,2.32-1.25-.13-2.9-1.31-3.65-2.7-4.31-8.03-5.74-16.07-4.29-24.1Z"/>
    <path class="cls-1" d="M110.48,72.11c-.06-1.6,1.08-2.8,2.65-2.74,6.09,.23,12.19,.65,18.28,1.27,1.38,.15,2.77,1.3,3.01,2.57,.24,1.27-.81,2.21-2.24,2.12-5.32-.36-10.64-.62-15.97-.79,.13,2.86,.12,5.72,0,8.58,4.63,.04,9.26,.09,13.89,.16,1.43,.03,2.47,1.09,2.25,2.37-.23,1.29-1.6,2.34-2.98,2.36-4.5,.05-9.01,.09-13.52,.12-.34,3.41-.86,6.82-1.57,10.21-.33,1.51-1.63,2.76-2.88,2.81-1.29,.05-2.14-1.14-1.97-2.67,1.05-8.73,1.4-17.52,1.06-26.36Z"/>
  </g>
</svg>