<?xml version="1.0" encoding="UTF-8"?>
<svg xmlns="http://www.w3.org/2000/svg" viewBox="0 0 200 200">
  <defs>
    <style>
      .cls-1 {
        fill: #f9ea35;
      }

      .cls-2 {
        fill: #00efb0;
      }

      .cls-3 {
        fill: #fff;
      }

      .cls-4 {
        fill: #ff8db0;
      }

      .cls-5 {
        fill: #97d7ff;
      }

      .cls-6 {
        fill: #4286b8;
      }

      .cls-7 {
        mix-blend-mode: darken;
      }

      .cls-8 {
        isolation: isolate;
      }
    </style>
  </defs>
  <g class="cls-8">
    <g id="Layer_1" data-name="Layer 1">
      <g>
        <path class="cls-6" d="M48.33,163.94c42.26-1.37,84.55-1.38,126.81,0-42.26,1.38-84.55,1.37-126.81,0h0Z"/>
        <g>
          <rect class="cls-3" x="66.34" y="150.89" width="60.51" height="13.21" rx="6.6" ry="6.6"/>
          <path class="cls-6" d="M72.95,164.1c9.83-.35,24.03-.52,34.02-.46,2.75-.01,10.08-.03,12.76-.04,8.37,.27,8.89-11.78,.53-12.13-9.33-.01-37.92-.04-46.78-.05-8.52-.38-8.84,12.27-.53,12.69h0Zm0,0c-9.85-.3-9.09-13.92,.53-13.72,0,0,4.25,0,4.25,0,5.44,0,36.4-.04,42.53-.05,3.11-.03,6.05,2.19,6.86,5.18,1.44,4.65-2.59,9.52-7.38,9.09,0,0-4.25-.01-4.25-.01l-8.51-.03c-10.03,.04-24.14-.11-34.02-.46h0Z"/>
        </g>
        <g>
          <rect class="cls-3" x="67.45" y="137.19" width="60.51" height="13.21" rx="6.6" ry="6.6"/>
          <path class="cls-6" d="M74.05,150.39c9.83-.35,24.03-.52,34.02-.46,2.75-.01,10.08-.03,12.76-.04,8.37,.27,8.89-11.78,.53-12.13-9.33-.01-37.92-.04-46.78-.05-8.52-.38-8.84,12.27-.53,12.69h0Zm0,0c-9.85-.3-9.09-13.92,.53-13.72,0,0,4.25,0,4.25,0,5.44,0,36.4-.04,42.53-.05,3.11-.03,6.05,2.19,6.86,5.18,1.44,4.65-2.59,9.52-7.38,9.09,0,0-4.25-.01-4.25-.01l-8.51-.03c-10.03,.04-24.14-.11-34.02-.46h0Z"/>
        </g>
        <g>
          <rect class="cls-3" x="65.23" y="123.48" width="60.51" height="13.21" rx="6.6" ry="6.6"/>
          <path class="cls-6" d="M71.84,136.69c9.83-.35,24.03-.52,34.02-.46,2.75-.01,10.08-.03,12.76-.04,8.37,.27,8.89-11.78,.53-12.13-9.33-.01-37.92-.04-46.78-.05-8.52-.38-8.84,12.27-.53,12.69h0Zm0,0c-9.85-.3-9.09-13.92,.53-13.72,0,0,4.25,0,4.25,0,5.44,0,36.4-.04,42.53-.05,3.11-.03,6.05,2.19,6.86,5.18,1.44,4.65-2.59,9.52-7.38,9.09,0,0-4.25-.01-4.25-.01,0,0-8.51-.03-8.51-.03-10.03,.04-24.14-.11-34.02-.46h0Z"/>
        </g>
        <g>
          <rect class="cls-3" x="67.45" y="109.77" width="60.51" height="13.21" rx="6.6" ry="6.6"/>
          <path class="cls-6" d="M74.05,122.98c9.83-.35,24.03-.52,34.02-.46,2.75-.01,10.08-.03,12.76-.04,8.37,.27,8.89-11.78,.53-12.13-9.33,0-37.92-.04-46.78-.05-8.52-.38-8.84,12.27-.53,12.69h0Zm0,0c-9.84-.3-9.09-13.92,.53-13.72,0,0,4.25,0,4.25,0,5.44,0,36.4-.04,42.53-.05,3.11-.03,6.05,2.19,6.86,5.18,1.44,4.65-2.59,9.52-7.38,9.09,0,0-4.25-.01-4.25-.01,0,0-8.51-.03-8.51-.03-10.03,.04-24.14-.11-34.02-.46h0Z"/>
        </g>
        <g>
          <rect class="cls-3" x="67.45" y="96.07" width="60.51" height="13.21" rx="6.6" ry="6.6"/>
          <path class="cls-6" d="M74.05,109.27c9.83-.35,24.03-.52,34.02-.46,2.75-.01,10.08-.03,12.76-.04,8.37,.27,8.89-11.78,.53-12.13-9.33-.01-37.92-.04-46.78-.05-8.52-.38-8.84,12.27-.53,12.69h0Zm0,0c-9.85-.3-9.09-13.92,.53-13.72,0,0,4.25,0,4.25,0,5.44,0,36.4-.04,42.53-.05,3.11-.03,6.05,2.19,6.86,5.18,1.44,4.65-2.59,9.52-7.38,9.09,0,0-4.25-.01-4.25-.01,0,0-8.51-.03-8.51-.03-10.03,.04-24.14-.11-34.02-.46h0Z"/>
        </g>
        <path class="cls-5" d="M75.29,88.65c6.48-10.34,14.86-19.28,23.58-27.74,0,0,2.06,2.38,2.06,2.38,6.78,7.99,13.23,16.31,18.31,25.52-8.44-6.28-15.81-13.8-22.8-21.6,0,0,4.36,.15,4.36,.15-7.81,7.87-16.05,15.38-25.5,21.28h0Z"/>
        <path class="cls-6" d="M75.29,69.62c6.48-10.34,14.86-19.28,23.58-27.74,0,0,2.06,2.38,2.06,2.38,6.78,7.99,13.23,16.31,18.31,25.52-8.44-6.28-15.81-13.8-22.8-21.6,0,0,4.36,.15,4.36,.15-7.81,7.87-16.05,15.38-25.5,21.28h0Z"/>
        <path class="cls-2" d="M86.25,40.65c-.02,2.35-1.68,4.35-4,4.29-2.96-.43-3.77-1.79-4.2-4.39,.02-2.35,1.68-4.35,4-4.29,2.96,.43,3.77,1.79,4.2,4.39Zm-6.66,.02c.28,1.74,1.47,3.02,2.97,3.03,1.42-.03,2.36-1.47,2.15-3.18-.28-1.74-1.47-3.02-2.97-3.04-1.42,.03-2.36,1.47-2.15,3.18Z"/>
        <path class="cls-4" d="M123.67,80.45c-2.71,.16-4.86-1.76-4.8-5.02,.06-2.05,2.31-4.76,5.02-4.8,2.71-.16,4.86,1.76,4.8,5.02-.06,2.05-2.32,4.76-5.02,4.8Zm.19-8.22c-1.81,.36-3.32,2.2-3.37,3.94-.04,1.9,1.4,3.05,3.21,2.68,1.81-.36,3.32-2.2,3.37-3.94,.04-1.9-1.4-3.05-3.22-2.67Z"/>
        <path class="cls-5" d="M69.63,72.3c-.86,.13-1.32,.64-1.44,1.51-.29,2.14-.36,2.22-2.53,2.46-.88,.1-1.54,.48-1.54,1.38,0,.92,.62,1.42,1.57,1.5,1.99,.17,2.06,.24,2.33,2.22,.12,.84,.58,1.36,1.44,1.35,.85,0,1.3-.51,1.4-1.37,.18-1.5,.64-1.93,2.09-2.03,.92-.07,1.57-.5,1.62-1.45,.05-.96-.65-1.29-1.48-1.45-1.67-.32-2.02-.72-2.05-2.47-.02-.96-.41-1.52-1.41-1.65Z"/>
        <path class="cls-1" d="M118.69,46.69c-.43,.49-.5,.99-.25,1.62,.6,1.39,.59,1.61-.52,2.2-.45,.13-.68,.43-.35,1.08,.33,.6,.84,.64,1.39,.41,1.15-.57,1.21-.85,2.06,.14,.36,.44,.8,.64,1.27,.23,.46-.39,.53-.88,.28-1.51-.43-1.01-.33-1.52,.43-1.85,.48-.12,.68-.42,.38-1.14-.31-.67-.81-.66-1.32-.47-1.03,.42-1.36,.64-2-.3-.35-.52-.76-.79-1.36-.42Z"/>
        <g class="cls-7">
          <path class="cls-1" d="M121.9,96.48s2.44,6.87-1.54,10.42c-.33,.29-42.27,1.32-42.69,1.55s-5.33,.43-5.85,.58h51.1c2.61,0,4.73-2.73,4.73-6.09v-.4c0-3.42-2.18-6.17-4.83-6.09l-.91,.03Z"/>
        </g>
        <g class="cls-7">
          <path class="cls-1" d="M121.9,110.11s2.44,6.87-1.54,10.42c-.33,.29-42.27,1.32-42.69,1.55s-5.33,.43-5.85,.58h51.1c2.61,0,4.73-2.73,4.73-6.09v-.4c0-3.42-2.18-6.17-4.83-6.09l-.91,.03Z"/>
        </g>
        <g class="cls-7">
          <path class="cls-1" d="M119.68,123.82s2.44,6.87-1.54,10.42c-.33,.29-42.27,1.32-42.69,1.55s-5.33,.43-5.85,.58h51.1c2.61,0,4.73-2.73,4.73-6.09v-.4c0-3.42-2.18-6.17-4.83-6.09l-.91,.03Z"/>
        </g>
        <g class="cls-7">
          <path class="cls-1" d="M121.9,137.52s2.44,6.87-1.54,10.42c-.33,.29-42.27,1.32-42.69,1.55s-5.33,.43-5.85,.58h51.1c2.61,0,4.73-2.73,4.73-6.09v-.4c0-3.42-2.18-6.17-4.83-6.09l-.91,.03Z"/>
        </g>
        <g class="cls-7">
          <path class="cls-1" d="M120.79,151.23s2.44,6.87-1.54,10.42c-.33,.29-42.27,1.32-42.69,1.55s-5.33,.43-5.85,.58h51.1c2.61,0,4.73-2.73,4.73-6.09v-.4c0-3.42-2.18-6.17-4.83-6.09l-.91,.03Z"/>
        </g>
        <g>
          <g>
            <circle class="cls-3" cx="136.21" cy="134.4" r="30.28"/>
            <path class="cls-6" d="M106.43,134.4c-.06,26.76,32.03,40,50.98,21.2,11.57-11.22,11.57-31.17-.01-42.38-18.94-18.79-50.92-5.45-50.97,21.19h0Zm-1,0c-.14-16.68,14.15-30.77,30.78-30.59,16.48-.3,30.91,14.1,30.64,30.59,.26,16.48-14.17,30.86-30.64,30.56-16.45,.22-30.95-14.04-30.78-30.56h0Z"/>
          </g>
          <g>
            <circle class="cls-3" cx="136.21" cy="134.4" r="22.11"/>
            <path class="cls-6" d="M114.15,134.4c.1,19.16,23.97,28.88,37.57,15.51,8.56-8.14,8.24-22.76-.21-30.82-13.6-13.42-37.19-3.89-37.36,15.3h0Zm-.1,0c-.16-15.93,16-27.14,30.82-20.91,18.45,7.83,18.02,33.67-.09,41.59-14.75,6.48-30.88-4.81-30.73-20.68h0Z"/>
          </g>
          <g class="cls-7">
            <path class="cls-1" d="M114.1,134.4c0,6.85,3.11,12.97,8,17.03-8.35-15.23-4.88-26.74,2.47-32.16,8.87-6.54,23.38-4.8,29.57,2.2-4.02-5.56-10.56-9.18-17.94-9.18-12.21,0-22.11,9.9-22.11,22.11Z"/>
          </g>
          <path class="cls-4" d="M140.12,131.78c0-.96-.15-1.78-.45-2.44-.3-.66-.72-1.2-1.27-1.62-.54-.42-1.19-.71-1.94-.89-.76-.18-1.58-.27-2.46-.27h-2.01c-.53,0-.95,.43-.95,.95h0c0,.53,.43,.95,.95,.95h1.69c1.95,0,2.5,.25,3.23,.74,.73,.49,1.09,1.35,1.09,2.58s-.36,2.11-1.09,2.71c-.73,.6-1.86,.89-3.23,.89h-1.57c-.59,0-1.07,.48-1.07,1.06v.87h2.21s-1.99,0,.67,0c3.15,0,4.43-1.17,5.14-2.04,.71-.87,1.07-2.03,1.07-3.49Z"/>
          <rect class="cls-4" x="131.04" y="130.8" width="11.27" height="1.7" rx=".85" ry=".85"/>
          <rect class="cls-4" x="131.04" y="126.49" width="11.27" height="1.81" rx=".9" ry=".9"/>
          <path class="cls-4" d="M140.22,143.04l-9.18-5.72,1-1.42,9.08,5.69c.42,.26,.53,.82,.25,1.22h0c-.26,.37-.77,.47-1.15,.23Z"/>
        </g>
      </g>
    </g>
  </g>
</svg>