<?xml version="1.0" encoding="UTF-8"?>
<svg id="Layer_1" data-name="Layer 1" xmlns="http://www.w3.org/2000/svg" xmlns:xlink="http://www.w3.org/1999/xlink" viewBox="0 0 200 200">
  <defs>
    <style>
      .cls-1 {
        fill: #f9ea35;
      }

      .cls-2 {
        fill: #eaf7ff;
      }

      .cls-3 {
        fill: #fff;
      }

      .cls-4 {
        fill: #97d7ff;
      }

      .cls-5 {
        fill: #3a7491;
      }

      .cls-6 {
        clip-rule: evenodd;
        fill: none;
      }
    </style>
    <clipPath id="clippath">
      <path class="cls-6" d="M-154.51,353.46l47.5,.61-47.5,.97c-.45,0-.82-.34-.83-.78,0-.44,.35-.8,.8-.8h.02Z"/>
    </clipPath>
    <clipPath id="clippath-2">
      <path class="cls-6" d="M-154.49,361.37l37.13,.66-37.12,.92c-.45,.01-.83-.34-.84-.77-.01-.44,.35-.8,.8-.81h.03Z"/>
    </clipPath>
  </defs>
  <g>
    <rect class="cls-3" x="44.86" y="44.7" width="97.01" height="116.62" rx="8.1" ry="8.1"/>
    <path class="cls-5" d="M133.77,161.37c-23.02,.02-54.49,.31-77.5,.38,0,0-3.23,.01-3.23,.01-3.43,.08-6.75-2.15-7.98-5.35-.9-1.76-.53-4.63-.6-6.54,.16-27.41,.29-69.81,.17-96.88-.2-4.53,3.77-8.67,8.33-8.57,0,0,51.67-.2,51.67-.2l25.83-.05s3.23,0,3.23,0c4.7-.14,8.86,4.05,8.7,8.74,.01,20.43-.06,40.93-.21,61.36,0,0-.17,25.83-.17,25.83,0,0-.05,12.92-.05,12.92,.17,4.44-3.72,8.47-8.18,8.35h0Zm0-.1c4.39,.08,8.21-3.87,8.01-8.25,0,0-.05-12.92-.05-12.92l-.17-25.83c-.15-20.43-.23-40.92-.21-61.36,.13-4.14-3.51-7.8-7.66-7.69,0,0-3.23,0-3.23,0l-25.83-.05s-51.67-.2-51.67-.2c-4.28-.1-8.03,3.74-7.86,8.02-.24,26.94,.13,69.59,.17,96.88,.07,1.7-.22,4.62,.58,6.22,1.14,2.88,4.1,4.82,7.19,4.78,0,0,3.23,.01,3.23,.01,23.02,.07,54.49,.36,77.5,.38h0Z"/>
  </g>
  <g>
    <path class="cls-1" d="M93.79,79.51h21.59c-.51-11.69-9.9-21.08-21.59-21.59v21.59Z"/>
    <path class="cls-5" d="M93.79,79.52c5.38-.14,16.21-.34,21.59-.42,0,0-.42,.44-.42,.44-.37-11.14-10.05-20.82-21.19-21.18,0,0,.44-.42,.44-.42-.07,5.38-.29,16.21-.42,21.59h0Zm0,0c-.14-5.6-.35-16.42-.43-22.02,12.05,.05,22.39,10.39,22.45,22.44-5.6-.08-16.42-.28-22.02-.42h0Z"/>
  </g>
  <g>
    <path class="cls-4" d="M95.91,82.94l15.62,15.62c3.81-4.16,6.22-9.61,6.48-15.62h-22.1Z"/>
    <path class="cls-5" d="M95.91,82.94c5.36,5.22,10.71,10.1,15.94,15.3,0,0-.65,.01-.65,.01,3.79-4.19,6.08-9.69,6.36-15.34,0,0,.45,.47,.45,.47-7.38-.01-14.61-.35-22.1-.45h0Zm0,0c7.4-.11,15.06-.45,22.57-.45-.09,6.19-2.62,12.28-6.93,16.72-5.31-5.3-10.48-10.96-15.63-16.27h0Z"/>
  </g>
  <g>
    <path class="cls-2" d="M90.65,83.38c-.09-.09-.16-.2-.21-.32-.05-.12-.07-.25-.07-.38v-22.57c-12.01,.52-21.64,10.43-21.64,22.57s10.15,22.62,22.62,22.62c5.88,0,11.23-2.28,15.26-5.97l-15.95-15.96Z"/>
    <path class="cls-5" d="M90.62,83.42c-.36-.39-.31-.93-.32-1.42,0,0-.01-1.46-.01-1.46l-.02-2.92c-.06-5.83-.29-11.67-.32-17.5,0,0,.44,.42,.44,.42-15.41,.84-25.87,16.28-19.67,30.71,6.04,13.97,24.3,18.04,35.59,7.77,0,0-.01,.64-.01,.64-5.16-5.31-10.43-10.98-15.68-16.23h0Zm.07-.07c5.26,5.25,10.92,10.52,16.23,15.68,0,0,.32,.32,.32,.32l-.34,.32c-11.46,11-30.95,6.54-36.71-8.21-5.82-14.34,4.44-31.29,20.15-31.76,0,0,.44-.01,.44-.01v.43c-.04,6.79-.33,13.63-.35,20.42,0,0-.01,1.46-.01,1.46,.01,.48-.09,1.01,.26,1.35h0Z"/>
  </g>
  <g>
    <path class="cls-3" d="M60.06,141.71s8.25-18.1,18.43-20.53c0,0,5.64,10.14,5.2,18.85l16.7-9.71,2.69,9.04s13.09-4.55,22.43,.04"/>
    <path class="cls-5" d="M59.15,141.3c4.13-7.95,10.42-18.67,19.71-20.94,1.67,3.13,2.97,6.38,3.98,9.77,.93,3.22,1.52,6.56,1.36,9.93,0,0-.78-.47-.78-.47l16.8-9.55s.36-.21,.36-.21c0,0,.11,.39,.11,.39l2.6,9.07s-.3-.15-.3-.15c5.5-1.65,11.36-2.41,17.06-1.49,1.89,.35,3.72,.93,5.45,1.75-1.74-.79-3.58-1.33-5.47-1.64-5.74-.81-11.64,.08-17.11,1.89,0,0-.07-.23-.07-.23l-2.78-9.02,.47,.19-16.6,9.88-.8,.48c.34-6.81-2.16-13.48-5.29-19.42,0,0,.79,.35,.79,.35-4.38,1.25-7.78,4.79-10.53,8.32-2.82,3.66-5.21,7.76-7.16,11.93,0,0-1.82-.83-1.82-.83h0Z"/>
  </g>
  <g>
    <path class="cls-4" d="M126.66,117.5l9.91,5.77c.1,.1,.29,.1,.38,.1,.29,0,.58-.19,.77-.38l25.5-44.17-11.45-6.54-25.4,44.07c-.29,.38-.1,.87,.29,1.15Z"/>
    <path class="cls-5" d="M126.69,117.45c2.96,1.67,7.11,4.08,10.03,5.67,.3,.09,.63-.07,.84-.31,0,0-.04,.05-.04,.05l3.06-5.59c4.01-7.24,8.63-14.92,12.9-21.99,3.14-5.31,6.54-11.22,9.51-16.59,0,0,.1,.36,.1,.36,0,0-11.54-6.39-11.54-6.39,0,0,.6-.16,.6-.16l-6.28,11.06c-3.75,6.52-9.02,15.61-12.92,21.91-2.21,3.62-4.4,7.25-6.54,10.91-.28,.35-.07,.85,.26,1.08h0Zm-.06,.08c-.39-.26-.62-.85-.31-1.23,2.1-3.68,4.14-7.4,6.16-11.13,3.46-6.51,8.77-15.68,12.49-22.16,0,0,6.42-10.98,6.42-10.98l.23-.39s.38,.22,.38,.22l11.36,6.7s.23,.14,.23,.14l-.13,.22c-7.69,12.59-14.62,26.05-22.21,38.71,0,0-3.31,5.45-3.31,5.45-.32,.44-1.18,.63-1.46,.35-2.84-1.73-6.92-4.22-9.83-5.91h0Z"/>
  </g>
  <g>
    <path class="cls-5" d="M167.07,66.02l-5.97-3.46c-.48-.29-1.06-.38-1.54-.38-1.06,0-2.12,.58-2.69,1.54l-3.75,6.45,11.45,6.54,3.75-6.45c.67-1.54,.19-3.37-1.25-4.23Z"/>
    <path class="cls-5" d="M167.05,66.06c-1.98-1.17-4.31-2.23-6.37-3.27-1.35-.49-2.87,.07-3.61,1.34,0,0-1.31,2.01-1.31,2.01-.89,1.33-1.72,2.7-2.49,4.11l-.06-.23c3.88,2.07,7.82,4.03,11.63,6.23,0,0-.73,.19-.73,.19,1.24-2.16,2.55-4.27,3.98-6.32,.71-1.2,.38-3.28-1.04-4.05h0Zm.05-.09c1.43,.83,2.11,2.78,1.46,4.42-1.07,2.25-2.27,4.43-3.53,6.58,0,0-.27,.46-.27,.46-3.98-2.25-7.83-4.73-11.73-7.12,0,0-.15-.09-.15-.09,.88-1.41,1.68-2.86,2.43-4.34,0,0,1.1-2.14,1.1-2.14,.7-1.67,2.93-2.52,4.58-1.7,2.11,1.29,3.96,2.74,6.1,3.93h0Z"/>
  </g>
  <g>
    <path class="cls-5" d="M135.22,126.25l-14.82,14.82c-.48,.48-1.25,0-1.06-.58l5.48-20.21c.1-.38,.58-.58,.96-.38l9.33,5.39c.29,.19,.38,.67,.1,.96Z"/>
    <path class="cls-5" d="M135.26,126.29c-3.33,3.34-6.27,7.06-9.75,10.27-.84,.78-3.08,2.85-3.9,3.6-.43,.36-.85,.9-1.37,1.21-.54,.23-1.21-.27-1.06-.85,.48-1.81,.97-3.77,1.39-5.59,1.14-4.96,2.39-9.89,3.76-14.79,.18-.66,.97-.99,1.59-.73,.35,.17,.87,.52,1.19,.71,1,.63,2.02,1.24,3,1.9l2.97,1.94c.49,.33,1,.63,1.5,.94,.53,.29,1.24,.7,.67,1.4h0Zm-.07-.07c.47-.59-.18-.96-.68-1.2-.52-.28-1.04-.57-1.56-.83l-3.16-1.6c-1.41-.7-2.86-1.49-4.24-2.24-.23-.05-.22,.11-.26,.27-1.68,6.57-3.81,13.03-5.69,19.54,0,0-.11,.41-.11,.41-.09,.35,.34,.63,.64,.49,.32-.19,.88-.91,1.2-1.2,.75-.81,2.82-3.06,3.6-3.9,3.2-3.47,6.93-6.42,10.27-9.75h0Z"/>
  </g>
</svg>