<?xml version="1.0" encoding="UTF-8"?>
<svg xmlns="http://www.w3.org/2000/svg" viewBox="0 0 200 200">
  <defs>
    <style>
      .cls-1 {
        fill: #f9ea35;
      }

      .cls-2 {
        fill: #fff;
      }

      .cls-3 {
        fill: #f1f1f1;
      }

      .cls-4 {
        fill: #ff8db0;
      }

      .cls-5 {
        fill: #97d7ff;
      }

      .cls-6 {
        fill: #c1c1c1;
      }

      .cls-7 {
        fill: #cceafd;
      }

      .cls-8 {
        fill: #3a7491;
      }

      .cls-9 {
        isolation: isolate;
      }

      .cls-10 {
        opacity: .2;
      }

      .cls-10, .cls-11 {
        mix-blend-mode: multiply;
      }

      .cls-11 {
        opacity: .5;
      }
    </style>
  </defs>
  <g class="cls-9">
    <g id="Layer_1" data-name="Layer 1">
      <g>
        <path class="cls-8" d="M68.99,156.65c-.45-6.93,5.74-12.09,12.47-11.55,6.2-.16,12.41-.2,18.62-.22,6.21,.02,12.41,.06,18.62,.22,1.5,.03,3.22,.03,4.79,.56,4.67,1.35,8.08,6.23,7.68,10.99-.42-6.51-6.17-10.79-12.47-9.99-12.41,.29-24.82,.29-37.23,0-6.29-.8-12.07,3.49-12.47,9.99h0Z"/>
        <g>
          <rect class="cls-7" x="31.93" y="47.29" width="137.61" height="99.1" rx="7.31" ry="7.31"/>
          <path class="cls-8" d="M162.22,146.44c-40.8,.01-81.61,.58-122.41,.31-1.2,.02-2.52-.13-3.65-.66-3.83-1.69-4.88-5.5-4.54-9.36,0,0,.02-7.2,.02-7.2,.19-17.01,.09-40.85,.09-57.61,0,0-.04-14.4-.04-14.4,.01-1.21-.04-2.38,.03-3.62,.29-3.79,3.72-6.93,7.52-6.88,32.3-.11,90.15-.25,122.41-.22,3.84-.29,7.69,2.59,8.26,6.47,.31,19.31-.25,49.08-.2,68.48,0,0-.06,14.4-.06,14.4-.02,1.2,.02,2.39-.05,3.61-.3,3.7-3.66,6.74-7.37,6.67h0Zm0-.1c3.63,.03,6.92-2.96,7.18-6.59,.06-1.18,0-2.39,.02-3.59,0,0-.06-14.4-.06-14.4-.22-19.35-.05-49.07-.43-68.32-.54-3.43-3.82-5.92-7.28-5.66,0,0-7.2,0-7.2,0-28.71,.04-86.5-.1-115.21-.21-3.54-.06-6.76,2.84-7.03,6.38-.07,1.15-.02,2.39-.04,3.58l-.04,14.4c-.21,16.67,.12,40.7,.09,57.61,0,0,.02,7.2,.02,7.2-.26,3.63,.57,7.16,4.2,8.72,1.06,.48,2.18,.61,3.37,.58,40.8-.27,81.62,.3,122.41,.31h0Z"/>
        </g>
        <g>
          <rect class="cls-2" x="37.93" y="55.36" width="125.6" height="77.4"/>
          <path class="cls-8" d="M163.57,132.79c-40.09,.26-85.58,.51-125.63,.26,0,0-.29,0-.29,0,0,0,0-.29,0-.29,.15-19.29,.12-58.11,.02-77.4,0,0,0-.27,0-.27,0,0,.27,0,.27,0l62.8-.22c15.89-.01,47.4-.03,63.28,.01,.33,.28-.69,77.56-.45,77.92h0Zm-.07-.07l-.45-77.37s.48,.48,.48,.48c-15.67,.05-47.14,.03-62.8,.01,0,0-62.8-.22-62.8-.22l.27-.27-.12,38.7s.14,38.7,.14,38.7c0,0-.29-.29-.29-.29,0,0,31.32-.1,31.32-.1,28.98-.05,65.09,.19,94.24,.36h0Z"/>
        </g>
        <g>
          <rect class="cls-2" x="39.43" y="56.86" width="122.79" height="74.9"/>
          <path class="cls-3" d="M161.22,57.86v72.9H40.43V57.86h120.79m2-2H38.43v76.9h124.79V55.86h0Z"/>
        </g>
        <g>
          <g>
            <path class="cls-8" d="M73.21,122.07c23.93-.67,48.02-.67,71.96,0-23.94,.67-48.02,.67-71.96,0h0Z"/>
            <path class="cls-5" d="M73.21,111.79c23.93-.67,48.02-.67,71.96,0-23.94,.67-48.02,.67-71.96,0h0Z"/>
            <path class="cls-5" d="M73.21,101.52c23.93-.67,48.02-.67,71.96,0-23.94,.67-48.02,.67-71.96,0h0Z"/>
          </g>
          <g class="cls-10">
            <rect class="cls-6" x="97.18" y="107.41" width="23.97" height="5.28" rx="2.64" ry="2.64" transform="translate(26.22 -20.9) rotate(12.42)"/>
          </g>
          <g>
            <rect class="cls-1" x="106.11" y="97.65" width="5.28" height="23.97" rx="2.64" ry="2.64" transform="translate(-21.71 192.26) rotate(-77.58)"/>
            <path class="cls-8" d="M117.29,114.27c-4.38-1.01-8.81-1.82-13.22-2.71l-3.3-.69c-1.01-.25-2.54-.33-3.29-1.19-2.07-2.06-.08-5.67,2.78-5.03,6.02,1.24,12.17,2.43,18.1,4.04,3.67,.84,2.64,6.31-1.08,5.57h0Zm.02-.1c3.3,.58,4.25-4.26,.91-4.8-6.07-1.03-12.15-2.53-18.13-3.93-2.13-.54-3.7,2.22-2.14,3.8,.58,.73,2.1,.84,2.94,1.08,0,0,3.29,.76,3.29,.76,4.37,1.05,8.73,2.17,13.13,3.1h0Z"/>
          </g>
          <g class="cls-10">
            <rect class="cls-6" x="113.31" y="95.86" width="32.27" height="5.28" rx="2.64" ry="2.64" transform="translate(-25.38 148.36) rotate(-55.12)"/>
          </g>
          <g>
            <rect class="cls-5" x="112.47" y="95.86" width="32.27" height="5.28" rx="2.64" ry="2.64" transform="translate(-24.07 152.64) rotate(-56.97)"/>
            <path class="cls-8" d="M138.22,88.65c-4.66,7.1-9.55,15.17-14.19,22.34-1.99,3.85-7.45,.93-5.32-2.83,4.97-7.74,9.75-15.64,15.25-23.02,2.36-2.2,6.07,.77,4.27,3.51h0Zm-.08-.05c1.55-2.52-1.73-5.27-3.86-3.13-4.78,7.81-9.76,15.53-14.9,23.13-1.45,2.25,1.53,4.72,3.49,2.86,.23-.1,5.16-7.75,5.48-8.18,3.27-4.89,6.61-9.73,9.78-14.68h0Z"/>
          </g>
          <path class="cls-8" d="M77.72,69.88h6.59c-.39,.61-.61,.93-.66,.97h-1.76c.24,.28,.41,.63,.49,1.03h1.88s.03,.01,.03,.03c-.42,.63-.63,.95-.64,.95h-1.22c-.03,.32-.18,.71-.47,1.17-.37,.46-.73,.76-1.08,.9-.64,.31-1.25,.46-1.84,.46h0c0,.06,.14,.25,.43,.58l3.25,3.92v.18s-.01,.03-.03,.03h-1.43c-2.58-3-3.86-4.51-3.86-4.52v-.95c.24,.03,.51,.05,.82,.05,1.44,0,2.34-.47,2.69-1.4,.05-.14,.08-.28,.08-.42h-3.92s-.03,0-.03-.03c.43-.63,.66-.95,.66-.95h3.11c-.18-.37-.52-.66-1.03-.86-.37-.12-.69-.18-.99-.18h-1.74v-.03c.42-.63,.64-.94,.65-.94Z"/>
          <path class="cls-8" d="M86.68,74.69l35.88,.5-35.88,.5c-.66,0-.67-1.01,0-1h0Z"/>
          <g class="cls-11">
            <rect class="cls-6" x="80.08" y="112.35" width="23.97" height="5.28" rx="2.64" ry="2.64" transform="translate(-54.72 102.68) rotate(-46.53)"/>
          </g>
          <g>
            <rect class="cls-1" x="79.66" y="112.35" width="23.97" height="5.28" rx="2.64" ry="2.64" transform="translate(-54.86 102.38) rotate(-46.53)"/>
            <path class="cls-8" d="M100.03,110.06c-3.13,3.23-6.1,6.61-9.14,9.93l-2.29,2.47c-.74,.74-1.59,2.01-2.72,2.2-2.83,.71-4.9-2.85-2.87-4.98,3.05-3.3,6.07-6.64,9.21-9.86,.77-.78,2.82-2.83,3.59-3.56,2.62-2.71,6.77,1,4.21,3.8h0Zm-.07-.07c2.2-2.53-1.46-5.84-3.64-3.26-4.01,4.66-8.43,9.1-12.72,13.5-1.56,1.55,0,4.31,2.15,3.79,.92-.12,1.8-1.37,2.44-1.96,0,0,2.35-2.42,2.35-2.42,3.15-3.21,6.36-6.36,9.43-9.65h0Z"/>
          </g>
        </g>
        <g>
          <g>
            <path class="cls-5" d="M65.9,74.87c.06,4.24-3.26,7.61-7.42,7.67-4.16,.06-7.58-3.25-7.64-7.41-.06-4.16,3.19-7.56,7.42-7.62l.11,7.47,7.53-.11Z"/>
            <path class="cls-8" d="M65.93,74.83c.72,7.05-8.1,10.9-12.93,5.73-4.86-4.89-1.86-13.42,5.26-13.59,0,0,.53-.02,.53-.02,.07,2.67,.06,5.34,.01,8.01,0,0-.43-.42-.43-.42,2.62,.02,5.19,.18,7.57,.28h0Zm-.07,.07c-2.8,.19-5.33,.43-7.9,.51-.13-2.63-.22-5.27-.23-7.9,0,0,.54,.52,.54,.52-6.21-.16-9.76,7.99-5,12.25,4.74,4.15,12.24,.78,12.6-5.38h0Z"/>
          </g>
          <g>
            <path class="cls-4" d="M60.08,65.58c4.24-.02,7.58,3.34,7.6,7.49l-7.56,.04-.04-7.53Z"/>
            <path class="cls-8" d="M60.05,65.54c4.62-.74,7.97,3.29,7.79,7.68-2.57,.11-5.14,.44-7.72,.42,0,0-.53,0-.53,0-.03-2.72,.18-5.43,.46-8.1h0Zm.07,.07c.23,2.45,.51,5.07,.54,7.49,0,0-.54-.53-.54-.53,2.53-.05,5.05,.24,7.56,.34,0,0-.16,.16-.16,.16-.05-3.92-3.75-6.9-7.41-7.46h0Z"/>
          </g>
        </g>
        <g class="cls-10">
          <path class="cls-6" d="M71.24,150.06c1.97-2.54,5.05-4.18,8.52-4.18h40.63c3.43,0,6.48,1.6,8.45,4.09"/>
        </g>
        <g>
          <g class="cls-10">
            <path class="cls-6" d="M59.33,143.54c2.3-3.99,7.67-6.71,12.02-8.22,5.5-1.91,4.53-5.7,7.88-12.23,2.07-4.02-1.28-5-3.83-3.28-1.59,1.07-2.63,4.69-2.63,4.69,1.7-6.17,5.68-18,6.56-20.23,1.58-4-.49-5.82-3.15-4.88s-6.16,13.3-7.17,16.19c0,0,1.46-3.85-1.19-4.75-2.64-.89-3.93,2.11-4.13,3.66,0,0,.31-3.74-2.31-3.75-2.62-.01-3.44,4.16-3.44,4.16,0,0,.24-2.18-2.57-2.48s-4.71,9.73-3.65,16.05"/>
          </g>
          <g>
            <path class="cls-2" d="M53.95,162.94l5.8-19.19c.62-2.05,1.61-3.98,2.96-5.65,2.09-2.58,4.54-4.71,7.81-5.6,5.62-1.53,4.91-5.38,8.7-11.66,2.34-3.87-.93-5.08-3.6-3.53-1.66,.96-2.95,4.5-2.95,4.5,2.12-6.04,6.9-17.57,7.93-19.73,1.85-3.88-.09-5.84-2.8-5.09s-7.06,12.85-8.26,15.66c0,0,1.72-3.75-.86-4.82-2.58-1.07-4.07,1.84-4.37,3.37,0,0,.57-3.71-2.05-3.9s-3.71,3.92-3.71,3.92c0,0,.39-2.16-2.4-2.66-2.49-.45-6.12,7.69-6.41,13.98-.08,1.71-.34,3.41-.84,5.05l-11.66,31.9"/>
            <path class="cls-8" d="M53.91,162.93c1.46-5.21,2.92-10.42,4.44-15.61,0,0,1.13-3.9,1.13-3.9,1.21-3.97,3.95-7.42,7.37-9.74,1.16-.76,2.49-1.33,3.81-1.68,2.69-.65,4.27-2.75,5.23-5.25,.79-1.86,1.63-3.76,2.67-5.51,.63-1.03,1.47-2.28,.98-3.44-1.04-1.61-3.77-.71-4.75,.61-.82,1.01-1.43,2.24-1.93,3.48-.09,.24-.46,.1-.37-.14,1.94-5.34,4.36-11.15,6.52-16.44,.57-1.54,1.87-3.83,2.08-5.43,.36-2.18-1.48-3.33-3.39-2.54-1.5,1.02-2.36,3.03-3.22,4.63-1.72,3.51-3.07,7.18-4.52,10.85l-.82-.36c2.18-5.02-3.28-6.15-4.34-1.16-.13,.62-1.06,.46-.99-.16,.09-.79,.05-1.7-.25-2.38-.29-.69-.93-1-1.66-.93-1.54,.22-2.41,2.15-2.84,3.52-.18,.62-1.13,.4-1.02-.23,.14-1.03-.71-1.8-1.72-1.99-2.4-.46-4.67,6.29-5.21,8.27-1.15,3.54-.64,7.4-2.04,10.9,0,0-1.3,3.47-1.3,3.47-2.63,6.79-7.79,21.3-10.57,27.7,0,0,4.9-13.98,4.9-13.98,.95-2.68,5.38-15.07,6.22-17.44,1.31-3.49,.72-7.34,1.82-10.91,.95-3.19,3.77-12.2,8.29-7.98,.52,.59,.75,1.35,.64,2.16l-1.02-.23c.6-1.84,1.55-3.96,3.75-4.29,2.52-.31,3.38,2.5,3.01,4.49,0,0-.98-.17-.98-.17,.38-1.57,1.23-3.2,2.83-3.82,1.68-.63,3.82,.58,3.89,2.43,.1,1.13-.18,2.13-.59,3.12-.1,.23-.36,.33-.59,.24s-.33-.36-.24-.59c1.9-4.5,3.61-9.21,6.23-13.41,.57-.82,1.1-1.69,2.09-2.25,2.28-.94,4.57,.56,4.08,3.1-.36,2-1.5,3.64-2.19,5.51,0,0-2.27,5.43-2.27,5.43-1.48,3.63-2.9,7.3-4.2,11,0,0-.38-.13-.38-.13,.49-1.28,1.06-2.53,1.91-3.65,1.22-1.65,4.4-2.67,5.72-.59,.88,2.2-1.11,3.99-1.84,5.88-1.71,3.59-2.86,8.5-7.37,9.46-5.13,1.37-9.07,5.87-10.74,10.78-2.08,6.28-4.02,13.38-6.26,19.29h0Z"/>
          </g>
        </g>
      </g>
    </g>
  </g>
</svg>