<?xml version="1.0" encoding="UTF-8"?>
<svg id="Layer_1" data-name="Layer 1" xmlns="http://www.w3.org/2000/svg" xmlns:xlink="http://www.w3.org/1999/xlink" viewBox="0 0 200 200">
  <defs>
    <style>
      .cls-1, .cls-2 {
        fill: none;
      }

      .cls-3 {
        clip-path: url(#clippath);
      }

      .cls-4 {
        fill: #f7e657;
      }

      .cls-5 {
        fill: #fff;
      }

      .cls-6 {
        fill: #98d7fd;
      }

      .cls-7 {
        fill: #4286b8;
      }

      .cls-8 {
        fill: #3a7491;
      }

      .cls-9 {
        fill: #3c7490;
      }

      .cls-2 {
        clip-rule: evenodd;
      }

      .cls-10 {
        clip-path: url(#clippath-1);
      }

      .cls-11 {
        clip-path: url(#clippath-3);
      }

      .cls-12 {
        clip-path: url(#clippath-2);
      }
    </style>
    <clipPath id="clippath">
      <path class="cls-2" d="M90.14,106.37l47.5,.61-47.5,.97c-.45,0-.82-.34-.83-.78,0-.44,.35-.8,.8-.8h.02Z"/>
    </clipPath>
    <clipPath id="clippath-1">
      <rect class="cls-1" x="302.72" y="-303.18" width="241.54" height="897.16" transform="translate(155.47 504.07) rotate(-72.18)"/>
    </clipPath>
    <clipPath id="clippath-2">
      <path class="cls-2" d="M90.16,114.28l37.13,.66-37.12,.92c-.45,.01-.83-.34-.84-.77-.01-.44,.35-.8,.8-.81h.03Z"/>
    </clipPath>
    <clipPath id="clippath-3">
      <rect class="cls-1" x="302.72" y="-303.18" width="241.54" height="897.16" transform="translate(155.47 504.07) rotate(-72.18)"/>
    </clipPath>
  </defs>
  <g>
    <rect class="cls-4" x="50.83" y="60.43" width="67.89" height="89.4" rx="5.58" ry="5.58" transform="translate(-40.52 54.73) rotate(-29.21)"/>
    <path class="cls-7" d="M131.37,130.35c-8.3,4.64-24.9,14.11-33.15,18.83-5.53,3.17-11.01,6.28-16.62,9.4-3.43,1.56-6.91-.26-8.34-3.6-10.81-19.39-21.38-39.07-32.35-58.35,0,0-4.68-8.3-4.68-8.3-1.99-2.74-1.23-6.98,1.84-8.62,0,0,33.18-18.78,33.18-18.78l16.66-9.35c2.38-1.15,5.43-.48,7.13,1.53,11.35,19.46,22.63,40.72,33.54,60.53,0,0,4.61,8.34,4.61,8.34,1.92,2.68,1.17,6.78-1.82,8.35h0Zm-.05-.09c2.9-1.57,3.63-5.55,1.72-8.18,0,0-4.7-8.29-4.7-8.29-10.86-18.88-22.32-39.09-32.9-58.05,0,0-.58-1.04-.58-1.04-.18-.32-.39-.61-.62-.89-1.42-1.64-3.93-2.21-5.9-1.27,0,0-16.64,9.22-16.64,9.22l-33.37,18.43c-2.82,1.51-3.54,5.34-1.7,7.91,0,0,4.62,8.34,4.62,8.34,10.68,19.44,21.92,38.76,32.77,58.12,0,0,.58,1.04,.58,1.04,1.23,2.29,4.28,3.32,6.64,2.2,0,0,16.68-9.16,16.68-9.16,8.34-4.55,25.11-13.74,33.41-18.37h0Z"/>
  </g>
  <g>
    <rect class="cls-6" x="61.98" y="49.38" width="77.5" height="102.07" rx="6.37" ry="6.37" transform="translate(-18.98 23.61) rotate(-12.23)"/>
    <path class="cls-7" d="M143.2,143.47c-10.61,2.29-31.9,7.08-42.48,9.48-7.09,1.6-14.12,3.18-21.28,4.71-3.42,.55-6.91-1.93-7.56-5.33,0,0-.29-1.33-.29-1.33-4.29-19.97-11.48-54.71-15.9-74.49,0,0-2.34-10.63-2.34-10.63-1.25-3.64,.98-7.99,4.86-8.75,0,0,42.5-9.41,42.5-9.41,7.11-1.54,14.13-3.12,21.3-4.64,2.95-.45,6.02,1.28,7.2,4.01,5.9,25.03,11.14,52,16.49,77.25,0,0,2.25,10.65,2.25,10.65,1.2,3.56-.98,7.78-4.76,8.5h0Zm-.02-.1c3.7-.75,5.82-4.85,4.61-8.37,0,0-2.36-10.62-2.36-10.62l-4.79-21.23c-4.3-18.38-8.03-37.28-12.39-55.65-1.01-2.3-3.6-3.78-6.1-3.4,0,0-21.24,4.53-21.24,4.53l-42.58,9.03c-3.6,.71-5.68,4.68-4.51,8.12,0,0,2.27,10.64,2.27,10.64,4.09,19.79,12.08,54.48,16.37,74.39,0,0,.29,1.33,.29,1.33,.58,2.95,3.6,5.11,6.58,4.66,0,0,21.26-4.46,21.26-4.46,10.62-2.21,32-6.67,42.59-8.96h0Z"/>
  </g>
  <g>
    <rect class="cls-5" x="59.91" y="64.61" width="106.52" height="80.88" rx="6.64" ry="6.64" transform="translate(7.46 217.59) rotate(-89.66)"/>
    <path class="cls-7" d="M146.65,158.55c-11.33-.07-34.1-.04-45.42,0-7.59,.02-15.11,.03-22.75-.04-3.6-.22-6.57-3.53-6.46-7.13,0,0,.01-1.42,.01-1.42,.28-26.39,.73-64.66,.73-90.84-.44-3.99,2.81-7.91,6.92-7.8,0,0,45.42,.07,45.42,.07,7.59,.04,15.1,.03,22.75,.11,3.37,.22,6.24,3.1,6.52,6.45-.01,19.55-.27,39.43-.53,58.96,0,0-.31,22.71-.31,22.71,0,0-.12,11.36-.12,11.36,.41,3.9-2.76,7.7-6.77,7.58h0Zm0-.1c3.94,.08,7.04-3.62,6.6-7.48,0,0,.02-11.36,.02-11.36,0,0-.04-22.71-.04-22.71-.08-19.48,.06-39.35,.1-58.85-.25-2.85-2.69-5.32-5.56-5.51,0,0-22.67-.21-22.67-.21,0,0-45.42-.47-45.42-.47-3.84-.1-6.86,3.49-6.45,7.25-.37,26.1-.25,64.53-.35,90.84,0,0,0,1.42,0,1.42-.06,3.14,2.52,6.04,5.67,6.26,0,0,22.67,.28,22.67,.28,11.32,.16,34.1,.47,45.42,.53h0Z"/>
  </g>
  <g>
    <path class="cls-9" d="M92.71,72.28v11.94h-2.16v-11.94h2.16Z"/>
    <path class="cls-9" d="M103.96,72.28v1.77h-9.57v-1.77h9.57Zm-3.7,0v11.94h-2.16v-11.94h2.16Z"/>
    <path class="cls-9" d="M110.04,72.13c.99,0,1.8,.1,2.41,.31s1.07,.56,1.35,1.06c.28,.5,.42,1.21,.42,2.12,0,.6-.07,1.11-.22,1.53-.14,.42-.38,.76-.71,1-.33,.25-.77,.41-1.32,.48v.09c.2,.05,.4,.14,.61,.27,.21,.13,.41,.32,.59,.56,.18,.24,.31,.55,.41,.94l1.09,3.74h-2.29l-.99-3.69c-.13-.42-.3-.71-.52-.87-.22-.17-.52-.25-.9-.25-.75,0-1.39,0-1.92,0-.53,0-.97-.01-1.32-.03-.35-.01-.66-.02-.93-.02l.05-1.64h4.12c.52-.01,.93-.07,1.23-.18,.3-.11,.51-.31,.64-.59s.19-.68,.19-1.2-.06-.9-.19-1.18c-.13-.28-.34-.47-.64-.58-.3-.11-.71-.16-1.23-.16-1.02,0-1.89,0-2.61,.02-.73,.01-1.22,.02-1.49,.03l-.24-1.59c.46-.05,.9-.08,1.31-.1,.41-.02,.86-.04,1.34-.04s1.07,0,1.75,0Zm-2.27,.16v11.94h-2.13v-11.94h2.13Z"/>
    <path class="cls-9" d="M121.62,79.12v1.42h-5.21v-1.42h5.21Z"/>
    <path class="cls-9" d="M132.99,72.28l-3.41,11.34c-.06,.17-.16,.32-.29,.43s-.31,.17-.5,.17h-2.04c-.2,0-.36-.06-.5-.17-.14-.12-.23-.26-.28-.43l-3.41-11.34h2.23l2.44,8.98c.06,.22,.12,.44,.17,.66,.06,.22,.1,.44,.14,.66h.45c.06-.22,.11-.44,.16-.67,.05-.23,.11-.45,.16-.67l2.44-8.97h2.23Z"/>
  </g>
  <g class="cls-3">
    <g class="cls-10">
      <rect class="cls-8" x="81.81" y="98.78" width="72.33" height="16.58" transform="translate(-.34 .37) rotate(-.18)"/>
    </g>
  </g>
  <g class="cls-12">
    <g class="cls-11">
      <rect class="cls-8" x="81.83" y="106.71" width="55.96" height="16.58" transform="translate(-.36 .35) rotate(-.18)"/>
    </g>
  </g>
</svg>