<?xml version="1.0" encoding="UTF-8"?>
<svg id="Layer_1" data-name="Layer 1" xmlns="http://www.w3.org/2000/svg" viewBox="0 0 200 200">
  <defs>
    <style>
      .cls-1 {
        fill: #f9ea35;
      }

      .cls-2 {
        fill: #fff;
      }

      .cls-3 {
        fill: #97d7ff;
      }

      .cls-4 {
        fill: #c1c1c1;
      }

      .cls-5 {
        fill: #dde7ed;
      }

      .cls-6 {
        fill: #36aff3;
      }

      .cls-7 {
        fill: #3a7491;
      }

      .cls-8 {
        opacity: .2;
      }

      .cls-9 {
        opacity: .5;
      }
    </style>
  </defs>
  <g>
    <rect class="cls-5" x="73.03" y="108.6" width="55.91" height="24.73" rx="4.12" ry="4.12"/>
    <path class="cls-7" d="M124.82,133.38c-12.5,.04-26.1,.53-38.55,.36-3.23-.05-6.39-.05-9.67-.17-1.71-.22-3.19-1.54-3.61-3.19-.32-1.42-.07-3.41-.13-4.86,.03-3.21,.01-6.43,0-9.64,.07-1.43-.26-3.51,.3-4.86,.63-1.58,2.26-2.7,3.99-2.7,12.85-.15,25.7-.29,38.55-.24,2.79,.04,6.93-.06,9.7,.08,2.26,.27,4.04,2.38,3.95,4.63-.01,.75-.05,2.83-.07,3.61,0,0-.19,9.64-.19,9.64-.03,.83,0,2.81-.07,3.62-.2,2.08-2.11,3.77-4.19,3.72h0Zm0-.1c2.02,.02,3.83-1.63,4-3.64,.05-.77-.02-2.79-.02-3.6,0,0-.19-9.64-.19-9.64l-.05-2.41c-.03-.64,.04-1.68-.18-2.28-.4-1.4-1.68-2.47-3.1-2.6h-9.58c-12.85,.06-25.7-.08-38.55-.23-1.51-.04-2.99,.91-3.59,2.32-.56,1.25-.27,3.34-.35,4.69-.03,3.99-.02,8.06,.01,12.05-.25,2.44,.83,4.78,3.45,5.08,3.14,.02,6.41-.08,9.6-.1,12.44-.15,26.07,.32,38.55,.36h0Z"/>
  </g>
  <g>
    <g>
      <path class="cls-3" d="M110.37,112.73c-1.37,0-2.71-.69-3.49-1.94-1.2-1.93-.61-4.46,1.32-5.66l8.49-5.28c12.6-7.84,16.45-24.51,8.57-37.17-3.8-6.11-9.76-10.4-16.78-12.06-7.02-1.66-14.24-.49-20.33,3.3l-8.51,5.29c-1.93,1.2-4.46,.61-5.66-1.32-1.2-1.93-.61-4.46,1.32-5.66l8.51-5.29c7.96-4.95,17.39-6.48,26.56-4.32,9.14,2.16,16.91,7.74,21.86,15.71,10.26,16.51,5.24,38.26-11.21,48.48l-8.49,5.28c-.68,.42-1.42,.62-2.17,.62Z"/>
      <path class="cls-7" d="M110.37,112.78c-3.93,.05-5.69-5.09-2.58-7.48,3.46-2.3,7.76-4.75,11.09-7.24,6.56-5.24,10.41-13.7,9.99-22.1-.84-20.62-23.84-32.92-41.26-21.52,0,0-6.91,4.34-6.91,4.34-1.11,.78-2.5,1.5-3.93,1.21-4.02-.58-4.99-6.17-1.41-8.1,1.07-.65,7.41-4.68,8.63-5.43,7.02-4.34,15.59-6.13,23.76-4.8,32.69,5.2,41.38,47.77,13.28,65.29-1.73,1.05-5.21,3.22-6.95,4.28-1.01,.6-2.46,1.68-3.73,1.56h0Zm0-.1c1.25,.14,2.65-.99,3.65-1.58,1.72-1.09,5.19-3.25,6.91-4.34,26.91-17.47,18.4-58.96-13.32-64.18-7.96-1.32-16.35,.27-23.27,4.44-1.25,.76-7.58,4.63-8.7,5.32-4.12,2.34-1.39,8.53,3.11,7.07,1.15-.46,7.46-4.54,8.69-5.23,17.71-11.6,41.52,.52,42.29,21.75,.37,8.64-3.74,17.24-10.6,22.47-3.38,2.42-7.76,4.77-11.23,7.05-3.02,2.27-1.33,7.28,2.46,7.23h0Z"/>
    </g>
    <g class="cls-9">
      <path class="cls-6" d="M126.77,89c-.54,.9-1.12,1.79-1.78,2.64l-6.08,7.94c-1.38,1.8-1.04,4.38,.76,5.76,1.17,.9,2.67,1.07,3.95,.58,.69-.26,1.32-.71,1.81-1.34l6.08-7.94c2.84-3.71,4.8-7.82,5.96-12.07-3.55,1.52-7.11,3.01-10.7,4.44Z"/>
    </g>
  </g>
  <g>
    <rect class="cls-2" x="56.31" y="92.49" width="89.36" height="69.3" rx="14.11" ry="14.11"/>
    <path class="cls-7" d="M131.55,162.29h-61.14c-8.05,0-14.61-6.55-14.61-14.61v-41.08c0-8.05,6.55-14.61,14.61-14.61h61.14c8.05,0,14.61,6.55,14.61,14.61v41.08c0,8.05-6.55,14.61-14.61,14.61Zm-61.14-69.3c-7.5,0-13.61,6.1-13.61,13.61v41.08c0,7.5,6.1,13.61,13.61,13.61h61.14c7.5,0,13.61-6.1,13.61-13.61v-41.08c0-7.5-6.1-13.61-13.61-13.61h-61.14Z"/>
  </g>
  <path class="cls-7" d="M49.59,161.69c33.43-.66,70.59-.65,104.04,0-33.46,.65-70.61,.66-104.04,0h0Z"/>
  <g class="cls-8">
    <path class="cls-4" d="M134.62,161.79H67.34c-6.1,0-11.04-4.94-11.04-11.04v-50.46c0-3.23,3.04,45.38,9.72,50.12,6.67,4.74,79.64,.34,79.64,.34,0,6.1-4.94,11.04-11.04,11.04Z"/>
  </g>
  <g>
    <rect class="cls-1" x="91.16" y="110.33" width="20.26" height="21.29"/>
    <path class="cls-7" d="M111.42,131.62c-6.72,.15-13.67,.31-20.63,.38-.11-6.32-.08-15.27-.13-21.67,0,0,0-.5,0-.5h.5c6.14,.06,14.6,.02,20.66,.12-.07,5.51-.26,16.18-.4,21.68h0Zm0,0c-.14-5.31-.32-15.99-.39-21.29,0,0,.39,.39,.39,.39-5.86,.06-14.32,.08-20.26,.11,0,0,.5-.5,.5-.5-.02,6.28-.05,15.11-.12,21.29,0,0-.38-.38-.38-.38,6.66,.07,13.36,.23,20.26,.38h0Z"/>
  </g>
  <path class="cls-7" d="M96.49,125.2c.44,.28,1.47,.73,2.56,.73,2.01,0,2.63-1.28,2.61-2.24-.02-1.62-1.47-2.31-2.98-2.31h-.87v-1.17h.87c1.14,0,2.58-.59,2.58-1.95,0-.92-.59-1.74-2.03-1.74-.92,0-1.81,.41-2.31,.76l-.41-1.14c.6-.44,1.78-.89,3.02-.89,2.27,0,3.3,1.35,3.3,2.75,0,1.19-.71,2.2-2.13,2.72v.04c1.42,.28,2.58,1.35,2.58,2.97,0,1.85-1.44,3.46-4.21,3.46-1.3,0-2.43-.41-3-.78l.43-1.21Z"/>
  <g>
    <g>
      <polyline class="cls-2" points="112.11 110.33 121.97 110.86 121.97 131.09 112.11 131.62"/>
      <path class="cls-7" d="M112.11,110.28l9.88,.34h.23s0,.25,0,.25l.15,10.11c.06,3.18,.17,7.46,.09,10.6-3.45,.09-6.9,.2-10.35,.1,3-.72,6.62-.72,9.84-1.08,0,0-.47,.5-.47,.5-.06-2.92,.04-7.15,.1-10.11,0,0,.15-10.11,.15-10.11l.23,.25-9.85-.73v-.1h0Z"/>
    </g>
    <path class="cls-3" d="M121.74,124.49s.01-.1,.01-.14c-.09-3.22,.06-6.46,.09-9.68-.08-.04-.17-.07-.27-.08-.47-.01-.69,.23-.98,.67l-4.38,6.74c-.24,.37-.36,.72-.36,1.14,0,.6,.36,1.01,.81,1.01l4.16-.04v1.79c0,.57,.34,.99,.77,.98,.04,0,.07-.02,.11-.03,.03-.79,.06-1.58,.04-2.37Zm-.92-2.12h-3.04s3.04-4.78,3.04-4.78v4.78Z"/>
    <g class="cls-8">
      <path class="cls-4" d="M119.3,132.13l2.4-.06v-20.82s-2.4-.06-2.4-.06l.32,.46c.37,.52,.58,1.26,.58,2.03v15.98c0,.78-.22,1.52-.59,2.05l-.3,.42Z"/>
    </g>
  </g>
  <g>
    <g>
      <polyline class="cls-2" points="90.49 131.62 79.01 131.38 79.01 110.57 90.49 110.33"/>
      <path class="cls-7" d="M90.48,131.67l-11.48-.03h-.25s0-.26,0-.26l-.14-10.41c-.05-3.64-.17-7.27-.1-10.91,3.99-.01,7.98,0,11.97,.21-3.55,.64-7.71,.54-11.47,.79,0,0,.49-.5,.49-.5,.06,3.47-.06,6.94-.1,10.41l-.14,10.41-.25-.26,11.47,.45v.1h0Z"/>
    </g>
    <g>
      <path class="cls-3" d="M79.31,116.58c.22-.11,.44-.19,.7-.19,.86,0,1.52,.69,1.52,1.91,0,1.11-.47,1.9-1.76,3.32l-.58,.64c-.02,.82-.04,1.64-.06,2.46l1.66-1.8c1.67-1.77,2.46-2.83,2.46-4.77v-.04c0-2.2-1.27-3.67-3.11-3.65-.29,0-.56,.04-.8,.1,0,.67-.01,1.34-.02,2.02Z"/>
      <path class="cls-3" d="M82.68,125.04l-3.56-.02c-.01,.63-.02,1.26-.04,1.89l3.59,.03c.41,0,.73-.42,.73-.95s-.32-.95-.73-.96Z"/>
    </g>
    <g class="cls-8">
      <path class="cls-4" d="M81.75,131.44l-2.74-.06v-20.82l2.74-.06-.37,.46c-.42,.52-.66,1.26-.66,2.03v15.98c0,.78,.25,1.52,.68,2.05l.35,.42Z"/>
    </g>
  </g>
  <g>
    <path class="cls-7" d="M88.3,144.47v-2.35l-1.75-3.19h.81l.78,1.53c.21,.42,.38,.75,.55,1.14h.02c.16-.36,.34-.72,.56-1.14l.8-1.53h.81l-1.85,3.18v2.36h-.72Z"/>
    <path class="cls-7" d="M94.32,141.88h-2.15v1.99h2.4v.6h-3.11v-5.53h2.99v.6h-2.27v1.75h2.15v.59Z"/>
    <path class="cls-7" d="M96.39,142.73l-.57,1.74h-.74l1.88-5.53h.86l1.89,5.53h-.76l-.59-1.74h-1.96Zm1.81-.56l-.54-1.59c-.12-.36-.21-.69-.29-1.01h-.02c-.08,.33-.17,.67-.28,1l-.54,1.6h1.67Z"/>
    <path class="cls-7" d="M100.52,139.01c.36-.07,.88-.12,1.37-.12,.76,0,1.26,.14,1.6,.45,.28,.25,.43,.62,.43,1.05,0,.73-.46,1.22-1.04,1.41v.03c.43,.15,.68,.54,.81,1.12,.18,.77,.31,1.3,.43,1.52h-.74c-.09-.16-.21-.63-.37-1.32-.16-.76-.46-1.05-1.11-1.08h-.67v2.4h-.71v-5.46Zm.71,2.52h.73c.76,0,1.25-.42,1.25-1.05,0-.71-.52-1.03-1.27-1.04-.34,0-.59,.03-.71,.07v2.02Z"/>
    <path class="cls-7" d="M104.84,143.6c.32,.2,.79,.36,1.28,.36,.73,0,1.16-.39,1.16-.94,0-.52-.3-.81-1.04-1.1-.9-.32-1.46-.79-1.46-1.57,0-.86,.71-1.5,1.79-1.5,.57,0,.98,.13,1.22,.27l-.2,.58c-.18-.1-.55-.26-1.05-.26-.75,0-1.04,.45-1.04,.83,0,.52,.34,.77,1.1,1.07,.94,.36,1.41,.81,1.41,1.62,0,.85-.63,1.59-1.94,1.59-.53,0-1.12-.16-1.41-.35l.18-.6Z"/>
  </g>
  <g>
    <line class="cls-7" x1="66.88" y1="86.39" x2="59.85" y2="78.57"/>
    <path class="cls-7" d="M66.51,86.72s-1.47-1.8-3.03-3.71l-3.63-4.44,7.41,7.48c.48,.49-.3,1.2-.74,.67h0Z"/>
  </g>
  <g>
    <line class="cls-7" x1="79.88" y1="86.39" x2="86.91" y2="78.57"/>
    <path class="cls-7" d="M79.5,86.05l7.41-7.48-6.67,8.15c-.44,.53-1.22-.18-.74-.67h0Z"/>
  </g>
  <path class="cls-7" d="M73.04,86.34l.5-13.93,.5,13.93c.02,.68-1.02,.68-1,0h0Z"/>
</svg>