<?xml version="1.0" encoding="UTF-8"?>
<svg id="Layer_1" data-name="Layer 1" xmlns="http://www.w3.org/2000/svg" xmlns:xlink="http://www.w3.org/1999/xlink" viewBox="0 0 200 200">
  <defs>
    <style>
      .cls-1, .cls-2 {
        fill: none;
      }

      .cls-3 {
        clip-path: url(#clippath);
      }

      .cls-4 {
        fill: #f9ea35;
      }

      .cls-5 {
        fill: #fff;
      }

      .cls-6 {
        fill: #ff8db0;
      }

      .cls-7 {
        fill: #97d7ff;
      }

      .cls-8 {
        fill: #cceafd;
      }

      .cls-9 {
        fill: #6fd899;
      }

      .cls-10 {
        fill: #3a7491;
      }

      .cls-11 {
        fill: #5dbae8;
      }

      .cls-12 {
        fill: #4492aa;
      }

      .cls-2 {
        clip-rule: evenodd;
      }
    </style>
    <clipPath id="clippath">
      <circle class="cls-1" cx="103.18" cy="96.97" r="28.89"/>
    </clipPath>
    <clipPath id="clippath-1">
      <path class="cls-2" d="M-396.71,106.37l47.5,.61-47.5,.97c-.45,0-.82-.34-.83-.78,0-.44,.35-.8,.8-.8h.02Z"/>
    </clipPath>
    <clipPath id="clippath-3">
      <path class="cls-2" d="M-396.69,114.28l37.13,.66-37.12,.92c-.45,.01-.83-.34-.84-.77-.01-.44,.35-.8,.8-.81h.03Z"/>
    </clipPath>
  </defs>
  <g>
    <g>
      <rect class="cls-5" x="36.53" y="46.75" width="125.28" height="88.45" rx="7.29" ry="7.29"/>
      <path class="cls-10" d="M154.52,136.2c-36.73-.24-73.48-.63-110.22-.44-2.25,.12-4.69-.77-6.24-2.51-1.62-1.64-2.26-4.17-2.1-6.37,0,0,0-6.48,0-6.48,0,0-.04-25.93-.04-25.93,0-9.5-.07-31.26-.07-40.53-.03-4.24,3.72-7.97,7.97-7.89,0,0,103.74,.1,103.74,.1h6.48c1.09-.02,2.33,.12,3.4,.57,3.34,1.23,5.31,4.94,4.99,8.37,.1,15.95,.2,42.36,.32,58.35,0,0,.04,12.97,.04,12.97,.49,5.21-2.84,9.7-8.26,9.81h0Zm0-2c3.34,.06,6.32-2.85,6.3-6.2,0,0,0-1.61,0-1.61,0,0,.04-12.97,.04-12.97,.05-16.02,.28-42.38,.32-58.35,.51-4.2-2.87-8.02-7.16-7.72,0,0-6.48,0-6.48,0,0,0-103.74,.1-103.74,.1-3.49-.06-6.61,2.99-6.59,6.49-.03,9.15-.06,31.11-.08,40.51,0,0-.04,25.93-.04,25.93,0,0,0,6.48,0,6.48-.01,1.11,0,2.08,.3,3.04,.91,2.94,3.8,4.92,6.91,4.72,36.74,.19,73.49-.21,110.22-.44h0Z"/>
    </g>
    <rect class="cls-8" x="43.05" y="53.48" width="112.28" height="73.84" rx="3.32" ry="3.32"/>
    <g>
      <rect class="cls-7" x="26.1" y="135.2" width="143.85" height="7.31" rx="2.5" ry="2.5"/>
      <path class="cls-10" d="M167.46,143.01c-43.9-.31-91.04-.23-135.05-.16,0,0-2.33,0-2.33,0h-1.16c-.36,.01-.86,0-1.26-.16-.84-.29-1.51-.99-1.77-1.84-.24-.76-.08-1.67-.13-2.42-.03-.78,0-1.77,.56-2.43,.52-.72,1.4-1.16,2.29-1.15,36.69,.06,98.95,.05,135.04-.11,0,0,2.33,0,2.33,0h1.16c.35-.02,.89,0,1.31,.16,1.32,.41,2.14,1.91,2,3.22,0,0,0,1.16,0,1.16,.23,1.86-.95,3.74-2.98,3.73h0Zm0-1c1.43,0,2.22-1.36,2.01-2.73-.02-.59,.07-1.66-.08-2.18-.32-.97-1.2-1.52-2.25-1.43,0,0-1.16,0-1.16,0h-2.33c-35.86-.17-98.61-.17-135.05-.11-1.5,0-2.37,1.46-2.15,2.88,.02,.62-.08,1.66,.09,2.22,.2,.64,.71,1.18,1.34,1.39,.47,.21,1.64,.1,2.2,.13,0,0,2.33,0,2.33,0,44.04,.07,91.11,.15,135.05-.16h0Z"/>
    </g>
  </g>
  <path class="cls-10" d="M55.36,90.4c4.25-.6,10.5-.37,14.84-.46,0,0,14.84-.1,14.84-.1l14.84,.04,7.42,.02c2.47,.03,4.95-.11,7.42,.51-2.47,.62-4.95,.48-7.42,.51l-7.42,.02-14.84,.04-14.84-.1c-4.35-.09-10.57,.14-14.84-.46h0Z"/>
  <path class="cls-10" d="M55.36,101.07c3.8-.6,9.4-.37,13.28-.46,0,0,13.28-.1,13.28-.1h13.28s6.64,.05,6.64,.05c2.21,.04,4.43-.11,6.64,.52-2.21,.62-4.43,.48-6.64,.52l-6.64,.04h-13.28s-13.28-.09-13.28-.09c-3.89-.09-9.46,.14-13.28-.46h0Z"/>
  <path class="cls-10" d="M55.36,111.74c4.49-.6,11.09-.37,15.67-.46,0,0,15.67-.1,15.67-.1l15.67,.04,7.84,.02c2.61,.03,5.22-.11,7.84,.51-2.61,.62-5.22,.48-7.84,.51,0,0-7.84,.02-7.84,.02l-15.67,.04-15.67-.1c-4.59-.09-11.15,.14-15.67-.46h0Z"/>
  <g>
    <circle class="cls-6" cx="69.82" cy="65.64" r="3.18"/>
    <path class="cls-11" d="M72.82,68.7c.54-.76,1.15-1.54,1.35-2.48,.18-.85-.23-2.8,1-3.09,1.1-.26,1.62,1.22,1.76,2.04,.24,1.49-.33,2.97-1.19,4.16-1.06,1.46-2.64,2.41-3.83,3.75-.94,1.06-2.1,3.6-2.1,3.6,0-4.78,3.01-7.99,3.01-7.99Z"/>
    <path class="cls-9" d="M75.35,72.02c.9-.58,1.91-1.15,2.39-2,.44-.77,.3-2.8,2.05-2.7,1.56,.08,1.96,1.69,1.96,2.53,0,1.53-1.09,2.8-2.54,3.69-1.77,1.1-4.14,1.54-6.06,2.49-1.51,.75-3.67,2.87-3.67,2.87,1.04-4.66,5.87-6.88,5.87-6.88Z"/>
    <path class="cls-11" d="M66.24,68.7c-.54-.76-1.15-1.54-1.35-2.48-.18-.85,.23-2.8-1-3.09-1.1-.26-1.62,1.22-1.76,2.04-.24,1.49,.33,2.97,1.19,4.16,1.06,1.46,2.64,2.41,3.83,3.75,.94,1.06,2.1,3.6,2.1,3.6,0-4.78-3.01-7.99-3.01-7.99Z"/>
    <path class="cls-9" d="M63.71,72.02c-.9-.58-1.91-1.15-2.39-2-.44-.77-.3-2.8-2.05-2.7-1.56,.08-1.96,1.69-1.96,2.53,0,1.53,1.09,2.8,2.54,3.69,1.77,1.1,4.14,1.54,6.06,2.49,1.51,.75,3.67,2.87,3.67,2.87-1.04-4.66-5.87-6.88-5.87-6.88Z"/>
  </g>
  <g>
    <g>
      <g>
        <circle class="cls-5" cx="103.41" cy="96.99" r="32.51"/>
        <path class="cls-5" d="M103.41,64.48l.04,1.5c17.1,.02,30.99,13.95,30.97,31.05-.02,17.08-13.93,30.97-31.05,30.97-17.1-.02-30.99-13.95-30.97-31.05,.02-17.08,13.93-30.97,31.01-30.97v-1.5m0,0c-17.93,0-32.49,14.53-32.51,32.47-.02,17.95,14.51,32.53,32.47,32.55h.04c17.93,0,32.49-14.53,32.51-32.47,.02-17.95-14.51-32.53-32.47-32.55h-.04Z"/>
      </g>
      <path class="cls-10" d="M135.89,90.72c4.88,23.55-15.8,43.8-39.21,39.16-29.33-6.16-36.71-44.3-11.79-60.95,19.68-13.06,47.34-1.93,51.01,21.79h0Zm0,0c-5.24-22.45-30.82-33.74-50.41-20.88-24.04,16.11-16.92,53.06,11.39,59.08,22.78,4.75,42.93-15.49,39.02-38.2h0Z"/>
      <path class="cls-10" d="M102.59,130.22c.6,1.91,.37,4.72,.46,6.69,0,0,.1,6.69,.1,6.69,.02,3.22-.01,6.8-.06,10.04-.04,1.12,.1,2.23-.52,3.35-.62-1.12-.48-2.23-.51-3.35-.05-3.25-.06-6.81-.04-10.04,0,0,.11-6.69,.11-6.69,.1-1.98-.13-4.78,.47-6.69h0Z"/>
      <g>
        <rect class="cls-4" x="87.93" y="150.03" width="29.85" height="13.05" rx="4.27" ry="4.27" transform="translate(-53.82 259.22) rotate(-89.93)"/>
        <path class="cls-10" d="M105.1,171.48c-1.64-.02-3.25,.15-4.93,.22-1.76,.01-3.45-1.27-4.01-2.99-.47-1.41-.19-3.54-.27-5.01,0,0-.02-4.9-.02-4.9l-.04-9.81v-2.45c-.04-.88,.02-1.81,.4-2.62,1.62-3.76,6-2.77,9.34-2.83,2.34,.18,4.32,2.26,4.36,4.61,.05,.83-.03,2.84,0,3.7-.01,3.11-.04,11.5-.05,14.71-.05,.9,.06,2.84-.06,3.74-.27,2.28-2.6,3.68-4.73,3.63h0Zm0,0c2.54-.03,3.96-2.59,3.77-4.92,0,0,0-2.45,0-2.45,0-3.25-.01-11.57-.02-14.71-.03-.8,.02-2.88-.01-3.66-.04-1.8-1.57-3.4-3.36-3.53-2.75,.2-6.84-1.02-8.25,2.15-.57,1.18-.28,3.33-.36,4.63,0,0-.06,9.81-.06,9.81,0,1.61-.04,5.8-.05,7.36-.39,5.48,4.26,5.27,8.35,5.32h0Z"/>
      </g>
    </g>
    <g class="cls-3">
      <g>
        <path class="cls-12" d="M99.89,95.98c-.51-.22-1.13-.29-1.84-.28-.71-.02-1.51-.04-2.38-.06-1.74-.04-3.78-.12-5.96-.14-2.18,0-4.51,0-6.83,0-4.65,.09-9.31,.26-12.79,.41-.04,0-.08,0-.12,0,.13,.83,.12,1.68,.02,2.51,.04,0,.07,0,.1,0,3.49,.16,8.14,.32,12.79,.41,2.33,0,4.65,0,6.83,0,2.18-.02,4.22-.1,5.96-.14,.87-.02,1.67-.04,2.38-.06,.71,0,1.33-.06,1.84-.28,1.02-.41,1.6-1.2,1.6-1.2,0,0-.58-.79-1.6-1.2Z"/>
        <path class="cls-12" d="M99.97,113.61c-.48-.22-1.07-.29-1.74-.28-.67-.02-1.43-.04-2.26-.06-1.65-.04-3.58-.12-5.65-.14-2.07,0-4.27-.02-6.47,0-3.4,.07-6.79,.18-9.69,.3,.8,.8,1.41,1.75,1.79,2.81,2.47,.09,5.17,.18,7.9,.24,2.2,.03,4.41,0,6.47,0,2.07-.02,3.99-.1,5.65-.14,.83-.02,1.58-.04,2.26-.06,.67,0,1.26-.06,1.74-.28,.96-.41,1.52-1.2,1.52-1.2,0,0-.55-.79-1.52-1.2Z"/>
      </g>
    </g>
  </g>
</svg>