<?xml version="1.0" encoding="UTF-8"?>
<svg id="Layer_1" data-name="Layer 1" xmlns="http://www.w3.org/2000/svg" xmlns:xlink="http://www.w3.org/1999/xlink" viewBox="0 0 200 200">
  <defs>
    <style>
      .cls-1 {
        fill: #f7e657;
      }

      .cls-2 {
        fill: #fff;
      }

      .cls-3 {
        fill: #fd8eb0;
      }

      .cls-4 {
        fill: #97d7ff;
      }

      .cls-5 {
        fill: #3e85ba;
      }

      .cls-6 {
        fill: #2570ba;
      }

      .cls-7 {
        clip-rule: evenodd;
        fill: none;
      }
    </style>
    <clipPath id="clippath">
      <path class="cls-7" d="M-154.51,106.37l47.5,.61-47.5,.97c-.45,0-.82-.34-.83-.78,0-.44,.35-.8,.8-.8h.02Z"/>
    </clipPath>
    <clipPath id="clippath-2">
      <path class="cls-7" d="M-154.49,114.28l37.13,.66-37.12,.92c-.45,.01-.83-.34-.84-.77-.01-.44,.35-.8,.8-.81h.03Z"/>
    </clipPath>
  </defs>
  <path class="cls-5" d="M82.4,88.64c-.04-.38-.12-.73-.25-1.07-.13-.34-.32-.65-.54-.93-.45-.56-1.05-.97-1.72-1.16-.33-.09-.68-.14-1.02-.13-.17,0-.35,.02-.51,.05-.17,.03-.33,.07-.5,.12-.65,.22-1.22,.64-1.62,1.19l-.2,.27-.29-.19c-.29-.18-.62-.29-.96-.34-.08-.01-.17-.02-.26-.02-.05,0-.19,0-.27,0-.15,.01-.33,.05-.49,.1-.66,.19-1.22,.69-1.5,1.33l-.2,.45-.31-.35c-.21-.23-.47-.42-.77-.53-.15-.06-.3-.09-.46-.11-.09,0-.15-.01-.24-.01-.09,0-.15,0-.24,.02-.64,.08-1.25,.51-1.52,1.12l-.11,.25-.15-.23c-.34-.51-.92-.84-1.52-.9h-.14s.02-.15,.02-.15c.06-.37,.1-.74,.08-1.1-.01-.38-.06-.74-.15-1.1-.09-.36-.21-.7-.38-1.03-.16-.33-.36-.64-.59-.92-.46-.57-1.03-1.03-1.67-1.35-.32-.16-.65-.28-.99-.39-.34-.09-.69-.15-1.05-.17-.17,0-.37-.02-.52,0-.18,.02-.39,.02-.55,.05-.33,.05-.67,.13-1,.25-.33,.12-.65,.27-.94,.46-.3,.18-.58,.4-.83,.64-.5,.48-.9,1.07-1.18,1.7-.13,.32-.23,.65-.3,.99-.06,.34-.09,.68-.1,1.04v.54s-.53-.1-.53-.1c-.12-.02-.24-.04-.35-.05-.11-.01-.24-.02-.34-.01-.12,0-.28,0-.38,.02-.11,.02-.21,.02-.33,.06-.45,.11-.89,.3-1.27,.59-.38,.29-.68,.67-.9,1.1-.11,.21-.19,.44-.25,.67-.06,.23-.09,.47-.1,.72l-.02,.32h-.29c-1.95-.08-3.9-.15-5.85-.28v-.08c1.95-.13,3.9-.2,5.85-.27l-.31,.31c-.03-1.16,.49-2.33,1.39-3.09,.45-.38,.98-.67,1.56-.82,.14-.04,.3-.06,.45-.09,.17-.03,.28-.02,.42-.04,.18-.01,.31,0,.46,0,.15,.01,.29,.03,.44,.06l-.53,.44c0-.4,.03-.81,.11-1.22,.08-.4,.2-.79,.36-1.17,.17-.37,.36-.74,.61-1.07,.24-.33,.51-.64,.82-.91,.3-.27,.63-.52,.98-.72,.35-.21,.72-.37,1.11-.5,.38-.13,.78-.21,1.2-.26,.21-.03,.38-.02,.58-.03,.23,0,.41,.02,.62,.03,.4,.04,.79,.13,1.18,.25l.56,.22c.18,.09,.36,.18,.53,.28,.68,.41,1.27,.97,1.73,1.61,.23,.32,.42,.66,.58,1.02,.16,.36,.27,.73,.36,1.11,.09,.38,.13,.78,.13,1.15,.01,.4-.04,.78-.11,1.16l-.11-.15c.69,.05,1.33,.42,1.75,.97l-.26,.03c.29-.71,.94-1.29,1.72-1.45,.09-.02,.21-.04,.3-.05,.08,0,.2-.01,.29,0,.2,0,.4,.04,.59,.09,.39,.11,.75,.32,1.04,.61l-.51,.1c.28-.85,.99-1.54,1.85-1.83,.22-.07,.43-.12,.68-.14,.12,0,.18-.01,.33-.01,.11,0,.23,0,.34,.02,.45,.06,.88,.23,1.26,.48l-.49,.09c.51-.65,1.21-1.14,2-1.38,.2-.06,.4-.1,.6-.13,.21-.03,.41-.04,.61-.03,.41,.02,.81,.1,1.19,.24,.75,.28,1.42,.8,1.85,1.46,.21,.33,.38,.69,.47,1.07,.1,.37,.13,.77,.1,1.14h-.08Z"/>
  <path class="cls-1" d="M132.61,65c-8.92,3.54-16.32-.29-19.47-1.6,0,0-2.44,12.38-1.78,22.77,0,0,10.76,2.86,20.49-.66-6.69-2.91-8.55-9.76-8.55-9.76,0,0,10.07-6.72,9.31-10.76Z"/>
  <path class="cls-1" d="M132.57,65.06l-1.12,.44c-.39,.16-.79,.28-1.2,.4-.41,.11-.81,.26-1.23,.33l-1.25,.26-1.26,.15c-.42,.06-.85,.05-1.27,.07-.42,.03-.85,0-1.27,0-.43,0-.85-.03-1.27-.08-.85-.07-1.69-.22-2.52-.39-.83-.17-1.66-.39-2.46-.65-1.62-.5-3.19-1.17-4.71-1.85l.5-.27c-.36,1.86-.67,3.74-.97,5.62-.29,1.88-.54,3.77-.75,5.66-.1,.95-.17,1.9-.23,2.85-.07,.95-.12,1.9-.14,2.85-.01,.95-.03,1.9,0,2.86,0,.95,.07,1.9,.13,2.85l-.13-.16c1.67,.38,3.39,.61,5.1,.76,.86,.07,1.72,.11,2.57,.14,.43,.02,.86,.01,1.29,.02,.43,0,.86,0,1.29-.02,.86-.02,1.71-.09,2.56-.16,.43-.03,.85-.1,1.27-.15,.42-.05,.85-.1,1.27-.19l1.26-.24,1.24-.31c.42-.1,.83-.21,1.23-.35l1.21-.4-.03,.83c-.51-.26-1.05-.48-1.53-.79-.49-.29-.98-.6-1.43-.96-.47-.33-.88-.73-1.32-1.1-.4-.41-.82-.81-1.17-1.25-.38-.43-.71-.89-1.05-1.36-.32-.47-.63-.95-.9-1.45-.27-.5-.52-1.01-.74-1.54-.22-.53-.42-1.05-.59-1.63l-.07-.26,.23-.15c2.01-1.35,3.97-2.84,5.77-4.47,.9-.82,1.74-1.7,2.48-2.67,.36-.49,.69-1,.93-1.55,.12-.27,.22-.56,.27-.86,.06-.28,.06-.56,.03-.84Zm.08-.07c.05,.31,.07,.62,.03,.93-.04,.31-.12,.62-.23,.91-.21,.59-.52,1.14-.86,1.66-.69,1.04-1.52,1.96-2.39,2.84-1.75,1.75-3.67,3.3-5.7,4.73l.15-.41c.16,.49,.36,1.01,.59,1.5,.23,.5,.48,.98,.75,1.45,.28,.47,.56,.93,.87,1.38,.32,.44,.64,.88,1,1.28,.34,.42,.74,.79,1.12,1.18,.41,.35,.8,.73,1.25,1.03,.43,.33,.89,.62,1.35,.89,.46,.29,.96,.48,1.44,.74l.96,.52-.99,.31-1.26,.39c-.42,.14-.84,.25-1.27,.35l-1.28,.3-1.3,.22c-.43,.08-.87,.13-1.3,.18-.44,.04-.87,.11-1.31,.13-.87,.06-1.75,.11-2.62,.1-.44,.01-.87,0-1.31-.01-.44-.02-.87-.02-1.31-.05-.87-.04-1.74-.14-2.6-.24-1.73-.22-3.44-.52-5.13-.96l-.13-.03v-.13c-.02-.96-.07-1.91-.07-2.87-.02-.96,.01-1.91,.03-2.87,.04-.95,.05-1.91,.11-2.86,.04-.95,.11-1.91,.18-2.86,.13-1.91,.3-3.81,.51-5.71,.21-1.9,.48-3.79,.83-5.68l.08-.45,.42,.18c1.56,.65,3.07,1.34,4.65,1.85,.78,.27,1.58,.49,2.39,.68,.81,.19,1.62,.33,2.44,.43,.41,.06,.82,.11,1.24,.12,.41,.03,.83,.06,1.24,.05,.41,0,.83,.02,1.24-.02l1.24-.1,1.23-.18c.42-.04,.81-.16,1.22-.25,.41-.09,.81-.18,1.21-.32l1.25-.38v.05Z"/>
  <path class="cls-3" d="M111.33,86.2s2.07,.03,3.73-1.71l-1.18-5.46-2.62,3.57,.08,3.59Z"/>
  <path class="cls-5" d="M111.38,86.14c.66-.17,1.28-.42,1.84-.73,.29-.16,.57-.34,.83-.53,.26-.19,.5-.42,.74-.64l-.09,.33c-.15-.92-.17-1.87-.36-2.78-.18-.91-.49-1.8-.78-2.69l.57,.12c-.38,.63-.81,1.24-1.22,1.85-.41,.62-.86,1.2-1.32,1.78l.08-.26c-.02,.6-.04,1.2-.09,1.8-.05,.58-.11,1.16-.2,1.75Zm-.09,.06c-.13-.6-.21-1.19-.29-1.79-.08-.6-.13-1.2-.17-1.79v-.13s.08-.14,.08-.14c.42-.61,.84-1.22,1.31-1.79,.46-.58,.91-1.16,1.4-1.72l.49-.56,.08,.68c.11,.93,.19,1.86,.4,2.77,.2,.91,.58,1.78,.82,2.68l.05,.17-.14,.16c-.5,.56-1.14,.98-1.83,1.25-.35,.13-.71,.22-1.07,.27-.36,.04-.73,.05-1.09-.02h-.03s0-.04,0-.04Z"/>
  <path class="cls-2" d="M98.66,85.54c7.08-3.96,13.88-2.49,16.4-1.05,0,0,3.91-9.13,.52-22.75,0,0-3.12-5.22-16.9-1.78-.03,.03,3.73,12.33-.03,25.58Z"/>
  <path class="cls-5" d="M98.73,85.45l.84-.48c.31-.18,.63-.33,.96-.48,.33-.15,.65-.32,.98-.44l1.01-.39,1.03-.31c.34-.11,.7-.17,1.05-.25,.35-.09,.71-.15,1.06-.2,.36-.06,.71-.11,1.07-.14,.36-.03,.72-.08,1.08-.08,.36,0,.72-.03,1.09,0,.72,.02,1.45,.08,2.17,.19,.72,.1,1.43,.26,2.13,.46,.7,.22,1.39,.46,2.05,.83l-.54,.18c.34-.85,.62-1.78,.86-2.69,.12-.46,.23-.92,.32-1.39,.11-.46,.2-.93,.28-1.4,.09-.47,.17-.94,.23-1.41,.07-.47,.14-.95,.18-1.42,.04-.48,.11-.95,.13-1.43l.08-1.43c.02-.48,0-.96,0-1.44,0-.48-.01-.96-.05-1.44l-.08-1.44-.16-1.43c-.09-.95-.3-1.89-.45-2.84-.07-.47-.2-.94-.31-1.4l-.34-1.4,.02,.05c-.18-.26-.46-.52-.73-.74-.28-.22-.58-.41-.89-.6-.32-.16-.64-.34-.98-.45-.34-.13-.67-.26-1.03-.34-.35-.1-.7-.19-1.06-.25-.36-.06-.71-.15-1.07-.17-.36-.03-.72-.08-1.09-.1l-1.09-.03c-.36-.02-.73,.02-1.09,.03-.36,.02-.73,.02-1.09,.05l-1.09,.12c-.36,.05-.73,.07-1.09,.14l-1.08,.19c-.36,.07-.72,.11-1.08,.2l-2.15,.5,.21-.12c.07-.02,.14-.11,.15-.19v-.1s.01,.05,.01,.05l.05,.2,.1,.4,.18,.8c.12,.53,.22,1.07,.33,1.6,.2,1.07,.36,2.14,.49,3.22,.13,1.08,.23,2.16,.3,3.24,.04,1.09,.09,2.17,.06,3.26,.01,1.09-.08,2.17-.12,3.25-.12,1.08-.2,2.16-.39,3.23-.09,.53-.16,1.07-.26,1.6l-.35,1.59c-.21,1.03-.55,2.02-.83,3.03Zm-.11,.08c.21-1.06,.49-2.1,.63-3.16l.25-1.59c.08-.53,.12-1.07,.18-1.6,.14-1.06,.16-2.14,.24-3.21,.02-1.07,.07-2.14,.03-3.21,0-1.07-.08-2.14-.15-3.21-.1-1.07-.18-2.13-.32-3.19-.14-1.06-.31-2.12-.51-3.17-.11-.52-.21-1.05-.33-1.57l-.19-.78-.1-.39-.05-.19v-.05s-.04-.19-.04-.19c0-.15,.05-.29,.11-.38l.05-.08,.16-.03,2.2-.47c.36-.09,.74-.13,1.11-.19l1.11-.17c.37-.07,.75-.08,1.12-.12l1.12-.1c.37-.02,.75-.02,1.13-.03,.38,0,.75-.03,1.13,0l1.13,.06c.38,.03,.75,.09,1.12,.14,.38,.04,.75,.13,1.12,.21,.37,.07,.74,.18,1.1,.31,.37,.1,.72,.26,1.06,.41,.35,.14,.68,.35,1.01,.53,.32,.21,.64,.42,.93,.68,.29,.26,.56,.51,.79,.87l.02,.03v.03s.29,1.42,.29,1.42c.09,.47,.21,.94,.28,1.42,.14,.95,.34,1.9,.41,2.86l.16,1.44,.11,1.44c.09,.96,.07,1.93,.11,2.89v1.45c0,.48-.05,.97-.07,1.45-.02,.48-.06,.97-.11,1.45-.04,.48-.09,.96-.17,1.44-.12,.96-.3,1.92-.53,2.86-.23,.95-.49,1.88-.85,2.81l-.15,.38-.39-.2c-.3-.15-.6-.31-.92-.44-.31-.14-.64-.25-.97-.35-.66-.2-1.34-.37-2.03-.48-.69-.12-1.38-.19-2.08-.22-.35-.03-.7-.01-1.05-.02-.35-.01-.7,.02-1.05,.03-.35,0-.7,.05-1.05,.09-.35,.04-.7,.08-1.04,.15-.34,.07-.7,.11-1.03,.2l-1.02,.26-1.01,.31c-.34,.09-.66,.24-.99,.36-.66,.24-1.3,.57-1.95,.86l-.08,.03,.02-.08Z"/>
  <path class="cls-1" d="M98.69,85.45c5.31-2.97,10.49-3.15,13.8-2.32,0,0,3.11-16.7,.67-22.92-2.35-1.07-6.14-1.91-13.89,.03-.03,.03,2.96,15.43-.58,25.21Z"/>
  <path class="cls-5" d="M98.3,49.24l.85,50.84c0,.47-.37,.85-.83,.86-.47,0-.85-.37-.86-.83v-.03l.85-50.84"/>
  <path class="cls-2" d="M36.78,149.92l.15,.03c3.41-5.06,9.18-8.38,15.74-8.38,8.25,0,15.27,5.27,17.88,12.62,2.02-1.64,4.6-2.63,7.41-2.63,4.17,0,7.82,2.17,9.92,5.43h.08c-.03-.38-.05-.77-.05-1.16,0-7.88,6.39-14.27,14.27-14.27,6.68,0,12.29,4.59,13.84,10.8,2.06-7.16,8.66-12.4,16.49-12.4,6.86,0,12.78,4.03,15.53,9.85,2.39-4.04,8.19-6.21,17.42-3.49-5.31-2.97-13.02-4.67-24.47-12.95-11.45-8.28-21.7-19.67-28.57-27.73-6.9-8.06-21.59-7.03-28.73,0-7.14,7.01-5.77,5.77-19.7,18.71-13.93,12.93-36.5,19.11-42.35,22.92,8.4-3,14.26,1.56,15.16,2.65"/>
  <path class="cls-5" d="M23.62,146.94c.82-.34,1.65-.63,2.48-.85-.74,.05-1.48,.14-2.22,.29,.91-.43,1.84-.83,2.77-1.22l5.06-2.05c3.38-1.36,6.76-2.75,10.09-4.26,3.33-1.51,6.62-3.12,9.82-4.92,3.2-1.8,6.3-3.78,9.21-6.04,.73-.55,1.44-1.15,2.16-1.75,.68-.6,1.38-1.21,2.05-1.83l4.04-3.69c2.69-2.46,5.38-4.92,8.05-7.42,2.67-2.48,5.26-5.14,7.84-7.57,2.62-2.27,5.96-3.69,9.4-4.35,3.45-.65,7.06-.54,10.38,.5,1.65,.54,3.24,1.27,4.62,2.28,.36,.24,.68,.52,1.01,.79,.31,.3,.6,.53,.92,.88l.46,.5,.43,.49,.9,1.04c4.8,5.51,9.79,10.88,15.13,15.89,2.68,2.5,5.45,4.9,8.33,7.18,2.89,2.28,5.87,4.39,9,6.32,3.12,1.94,6.38,3.64,9.73,5.14,2.11,.96,4.26,1.81,6.37,2.72-.07-.01-.13-.02-.2-.03,.34,.14,.68,.28,1.02,.43,.77,.33,1.51,.72,2.24,1.16,.21,.06,.42,.12,.63,.17l3.49,.9-3.15-1.72c-3.26-1.79-6.69-3.03-9.97-4.58-3.29-1.52-6.48-3.24-9.53-5.19-3.05-1.93-5.99-4.09-8.79-6.37-2.81-2.29-5.51-4.72-8.12-7.23-5.24-5.02-10.14-10.39-14.87-15.92l-.88-1.04-.46-.54-.46-.51c-.29-.33-.69-.69-1.04-1.02-.37-.31-.73-.63-1.13-.9-1.55-1.15-3.31-1.99-5.13-2.56-3.66-1.12-7.54-1.22-11.25-.51-3.7,.73-7.3,2.26-10.2,4.78-.73,.66-1.35,1.29-2,1.93l-1.95,1.92-3.89,3.82c-2.61,2.53-5.27,5.03-7.91,7.53-2.67,2.47-5.24,5.11-8.06,7.3-2.83,2.24-5.86,4.23-8.98,6.07-3.12,1.83-6.36,3.49-9.64,5.04-3.29,1.55-6.63,3-9.98,4.42-1.68,.71-3.36,1.42-5.03,2.17-1.66,.76-3.34,1.5-4.91,2.51l-2.12,1.36,2.36-.87c.62-.23,1.26-.43,1.91-.59Z"/>
  <path class="cls-4" d="M97.44,100.9c-1.03,.05-2.07,.18-3.08,.37-3.44,.67-6.78,2.09-9.4,4.35-2.58,2.43-5.17,5.09-7.84,7.57-2.67,2.5-5.36,4.96-8.05,7.42l-4.04,3.69c-.67,.62-1.37,1.23-2.05,1.83-.71,.59-1.43,1.19-2.16,1.75-2.91,2.26-6.02,4.24-9.21,6.04-3.19,1.8-6.49,3.42-9.82,4.92-3.33,1.51-6.71,2.9-10.09,4.26l-5.06,2.05c-.92,.39-1.86,.78-2.76,1.21,1.05-.21,2.11-.32,3.17-.32,.86,0,1.72,.07,2.56,.22,1.35,.23,2.66,.65,3.89,1.24,.61,.3,1.21,.63,1.77,1.02,.56,.39,1.1,.8,1.56,1.32l.02,.02c.48-.73,.99-1.44,1.56-2.1,.57-.67,1.18-1.31,1.85-1.88,.66-.59,1.37-1.12,2.1-1.61,.37-.24,.75-.47,1.13-.7,.39-.2,.78-.42,1.18-.61,.8-.37,1.63-.72,2.48-.97,.42-.14,.85-.26,1.28-.36,.43-.12,.87-.19,1.31-.27,.88-.15,1.77-.22,2.66-.25,.92,0,1.75,0,2.67,.13,.45,.04,.9,.1,1.33,.2,.44,.08,.88,.15,1.31,.29,.87,.21,1.71,.51,2.55,.84l1.23,.55,1.18,.64c.77,.47,1.52,.96,2.22,1.52,.7,.56,1.38,1.15,2,1.81,.32,.32,.62,.65,.9,1,.29,.34,.58,.69,.83,1.07,.54,.73,1,1.5,1.42,2.3,.2,.41,.41,.8,.59,1.22l.17,.43c1.18-.83,2.51-1.46,3.92-1.85,.84-.22,1.71-.36,2.58-.41l.68-.02,.62,.02c.42,.03,.9,.06,1.32,.14,.43,.06,.86,.16,1.29,.27,.42,.12,.84,.25,1.25,.41,.41,.16,.81,.33,1.2,.54,.39,.19,.77,.42,1.14,.66,.86,.56,1.65,1.23,2.36,1.99,.01-.2,.03-.41,.05-.62,.1-.93,.29-1.84,.56-2.73,.54-1.78,1.42-3.46,2.57-4.92s2.57-2.7,4.17-3.65c1.6-.95,3.38-1.58,5.21-1.85,.72-.11,1.44-.17,2.18-.17,.2,0,.4,0,.6,.01,.85,.03,1.84,.14,2.73,.35,.45,.09,.9,.21,1.33,.36,.44,.13,.87,.3,1.29,.48,.85,.35,1.65,.82,2.42,1.31,.37,.26,.74,.54,1.1,.82,.34,.31,.7,.59,1.02,.92,.64,.65,1.25,1.34,1.76,2.1,.53,.74,.97,1.55,1.35,2.38,.2,.41,.33,.85,.5,1.27,.01,.03,.02,.06,.03,.1l.02-.05c.16-.41,.35-.81,.53-1.22,.39-.79,.83-1.56,1.32-2.29,.49-.73,1.03-1.43,1.63-2.08,.28-.34,.61-.63,.93-.94,.31-.32,.65-.59,1-.87,.33-.29,.69-.54,1.06-.79,.36-.26,.73-.5,1.11-.71,.38-.23,.76-.44,1.16-.62,.4-.19,.79-.39,1.21-.53,.81-.33,1.66-.58,2.52-.78,.86-.2,1.73-.32,2.6-.4l1.01-.04c-17.96-11.96-23.62-35.44-34.69-38.82"/>
  <path class="cls-6" d="M24.6,146.31c.1-.03,.19-.06,.28-.09-.33,.05-.66,.08-.99,.15,.91-.43,1.84-.82,2.76-1.21l5.06-2.05c3.38-1.36,6.76-2.75,10.09-4.26,3.33-1.51,6.62-3.12,9.82-4.92,3.2-1.8,6.3-3.78,9.21-6.04,.73-.55,1.44-1.15,2.16-1.75,.68-.6,1.38-1.21,2.05-1.83l4.04-3.69c2.69-2.46,5.38-4.92,8.05-7.42,2.67-2.48,5.26-5.14,7.84-7.57,2.62-2.27,5.96-3.69,9.4-4.35,1.02-.19,2.05-.32,3.08-.37-.87-.27-1.78-.41-2.73-.41-2,0-4.19,.62-6.65,2.02-8.7,4.93-10.15,8.91-24.09,21.84-13.93,12.93-36.5,19.11-42.35,22.92,.76-.27,1.49-.46,2.21-.62,.23-.13,.48-.25,.77-.34Z"/>
  <path class="cls-5" d="M174.14,114.16c-2.03,.11-4.05,.18-6.08,.22-2.03,.07-4.05,.07-6.08,.1h-.35s-.01-.36-.01-.36c-.01-.36-.05-.72-.13-1.06-.05-.17-.08-.35-.15-.51-.07-.17-.12-.34-.2-.49-.3-.65-.74-1.23-1.28-1.7-.28-.23-.57-.43-.89-.6-.32-.17-.65-.32-1-.41-.34-.11-.71-.17-1.07-.19-.36-.04-.73-.01-1.1,.03l-.3,.04v-.29c0-.18,0-.43-.03-.6-.02-.18-.07-.38-.13-.57-.12-.38-.31-.73-.56-1.04-.25-.31-.55-.58-.9-.78-.35-.2-.73-.33-1.13-.39-.2-.04-.4-.04-.6-.04-.22,0-.4,.03-.6,.07-.4,.08-.78,.23-1.12,.46-.67,.45-1.17,1.15-1.37,1.93l-.07,.27-.19-.2c-.54-.56-1.28-.91-2.04-.99l-.21-.02,.04-.22c.11-.55,.17-1.1,.17-1.66,0-.25-.04-.56-.06-.84-.03-.28-.09-.54-.14-.81l-.23-.79c-.11-.25-.2-.51-.31-.76-.24-.49-.51-.97-.84-1.41-.33-.44-.69-.85-1.11-1.2-.4-.37-.85-.68-1.33-.95-.47-.27-.98-.48-1.49-.65-.26-.08-.53-.13-.79-.2l-.8-.11-.79-.03c-.28,.02-.58,.03-.85,.06-.51,.08-1.04,.17-1.56,.35-.51,.17-1.01,.39-1.47,.67-.24,.13-.46,.28-.67,.45-.22,.15-.42,.33-.62,.52-.4,.36-.75,.78-1.07,1.22-.16,.22-.28,.46-.44,.69l-.37,.73c-.21,.5-.38,1.02-.49,1.55-.11,.54-.15,1.07-.16,1.64v.48s-.45-.15-.45-.15c-.34-.11-.69-.19-1.05-.22-.2-.02-.34-.03-.54-.02-.19,0-.39,0-.55,.03-.7,.08-1.43,.31-2.05,.7-.31,.19-.61,.42-.87,.67-.27,.26-.51,.54-.72,.85-.2,.31-.39,.64-.52,.99-.15,.35-.23,.72-.31,1.09v.06s-.07,0-.07,0c-.31-.02-.64-.02-.96-.02h-.97s-1.94-.02-1.94-.02v-.08h1.94s.97,0,.97,0h.49c.17,0,.32,0,.5,.01l-.07,.05c.04-.39,.1-.77,.22-1.15,.11-.38,.27-.74,.46-1.08,.2-.34,.42-.67,.7-.96,.27-.29,.57-.56,.9-.78,.66-.47,1.42-.76,2.23-.9,.21-.04,.4-.05,.59-.07,.18-.02,.43-.01,.62,0,.41,.02,.82,.1,1.21,.22l-.45,.33c0-.58,.02-1.19,.12-1.77,.1-.59,.27-1.17,.48-1.73,.12-.27,.25-.55,.38-.82,.15-.26,.3-.52,.47-.77,.35-.49,.73-.96,1.18-1.36,.22-.21,.44-.41,.69-.58,.24-.19,.49-.36,.75-.51,.51-.32,1.07-.57,1.63-.77,.57-.2,1.16-.33,1.78-.4,.3-.03,.57-.03,.86-.04,.34,0,.61,.03,.92,.05l.89,.14c.29,.08,.58,.15,.87,.24,.57,.2,1.12,.44,1.63,.75,.51,.31,1.01,.66,1.44,1.07,.45,.4,.83,.86,1.17,1.35,.35,.49,.62,1.02,.86,1.56,.12,.27,.2,.56,.3,.84l.2,.87c.04,.3,.08,.6,.1,.89,0,.29,.02,.56,.01,.87-.02,.59-.11,1.17-.25,1.74l-.17-.24c.85,.12,1.63,.55,2.21,1.16l-.26,.07c.23-.85,.79-1.6,1.52-2.07,.37-.23,.78-.41,1.2-.51,.21-.05,.45-.08,.65-.09,.22,0,.44,0,.66,.03,.87,.11,1.69,.56,2.28,1.22,.3,.33,.53,.72,.69,1.14,.08,.21,.14,.42,.18,.65,.05,.24,.05,.42,.07,.66l-.3-.26c.39-.07,.8-.12,1.2-.1,.4,0,.81,.05,1.21,.15,.4,.09,.79,.23,1.15,.41,.37,.18,.71,.41,1.03,.67,.63,.52,1.15,1.19,1.51,1.93,.1,.18,.16,.38,.23,.57,.08,.19,.11,.4,.16,.6,.09,.4,.12,.81,.12,1.22l-.36-.36c2.03,.02,4.05,.03,6.08,.1,2.03,.05,4.05,.11,6.08,.22v.08Z"/>
</svg>