<?xml version="1.0" encoding="UTF-8"?>
<svg xmlns="http://www.w3.org/2000/svg" xmlns:xlink="http://www.w3.org/1999/xlink" viewBox="0 0 200 200">
  <defs>
    <style>
      .cls-1 {
        fill: #f9ea35;
      }

      .cls-2 {
        fill: #fff;
      }

      .cls-3 {
        fill: #97d7ff;
      }

      .cls-4 {
        fill: #c1c1c1;
      }

      .cls-5 {
        fill: #3a7491;
      }

      .cls-6 {
        clip-rule: evenodd;
        fill: none;
      }

      .cls-7, .cls-8 {
        opacity: .2;
      }

      .cls-9 {
        opacity: .4;
      }

      .cls-10 {
        isolation: isolate;
      }

      .cls-8 {
        mix-blend-mode: multiply;
      }
    </style>
    <clipPath id="clippath">
      <path class="cls-6" d="M-651.14,106.37l47.5,.61-47.5,.97c-.45,0-.82-.34-.83-.78,0-.44,.35-.8,.8-.8h.02Z"/>
    </clipPath>
    <clipPath id="clippath-2">
      <path class="cls-6" d="M-651.12,114.28l37.13,.66-37.12,.92c-.45,.01-.83-.34-.84-.77-.01-.44,.35-.8,.8-.81h.03Z"/>
    </clipPath>
  </defs>
  <g class="cls-10">
    <g id="Layer_1" data-name="Layer 1">
      <g>
        <g>
          <g>
            <g>
              <path class="cls-2" d="M160.05,150.97h-44.57s7.34-7.71,6.47-18.17c-.15-1.77,1.25-3.28,3.03-3.28h25.53c1.79,0,3.22,1.54,3.03,3.31-1.25,11.67,6.51,18.14,6.51,18.14Z"/>
              <path class="cls-5" d="M160.12,151c-13.24,.4-31.58,.78-44.64,.22-.21,0-.33-.27-.18-.42,4.09-4.62,6.64-10.88,6.18-17.03,0,0-.07-1.19-.07-1.19-.1-1.91,1.55-3.66,3.47-3.69,.73-.02,2.78-.05,3.55-.06,6.5-.06,14.77-.18,21.2-.08,0,0,.59,0,.59,0,0,0,.3,0,.3,0,1.6,0,3.11,1.12,3.56,2.66,.29,.77,.08,1.8,.04,2.59-.52,6.11,1.59,12.33,6,17h0Zm-.14-.05c-4.94-3.96-7.5-10.73-7.17-17.02-.03-.55,.18-1.56-.06-2.09-.35-1.04-1.45-1.66-2.52-1.56,0,0-.59,0-.59,0-6.42,.08-14.72,0-21.2-.08,0,0-2.36-.04-2.36-.04l-1.16-.02c-.96-.01-1.86,.6-2.23,1.49-.31,.53-.17,1.52-.19,2.1,.07,6.41-2.73,12.58-6.83,17.41,0,0-.18-.42-.18-.42,12.8-.57,31.51-.15,44.5,.22h0Z"/>
            </g>
            <g>
              <rect class="cls-2" x="111.19" y="150.97" width="53.15" height="7.15" rx="3.57" ry="3.57"/>
              <path class="cls-5" d="M114.77,157.37c13.77,.35,29.06,.45,42.92,.29,0,0,1.79,0,1.79,0,1.64,.12,3.39-.17,4.09-1.82,.95-1.94-.64-4.4-2.79-4.33-11.03,.02-33.98-.21-44.71,.08-1.6-.08-3.24,.16-3.9,1.76-.86,1.81,.59,4.09,2.61,4.02h0Zm0,1.5c-5.91-.26-5.55-8.85,.4-8.52,11.08,.3,34.22,.1,45.6,.1,5.01,.09,5.54,7.36,.56,8.11-2.37,.1-15.3-.07-17.95-.05-9.54-.11-19.08,.22-28.61,.36h0Z"/>
            </g>
            <g>
              <path class="cls-2" d="M145.46,91.11h-15.39c2.62,20.43-5.05,38.41-5.05,38.41h25.5s-7.79-17.45-5.05-38.41Z"/>
              <path class="cls-5" d="M145.41,91.16c-4.47,.21-10.96,.45-15.34,.54,0,0,.58-.66,.58-.66,1.91,13.07-.95,26.3-5.37,38.6,0,0-.27-.41-.27-.41,7.52-.24,18.08-.41,25.49-.47,0,0-.7,1.07-.7,1.07-4.99-12.14-6.64-25.73-4.41-38.67h0Zm.11-.1c-.92,12.91,.99,26.1,5.69,38.15,.23,.49-.15,1.09-.7,1.07-4.25-.05-8.5-.07-12.75-.16l-12.75-.31c-.2,0-.35-.22-.27-.41,4.93-12.02,5.87-25.41,4.73-38.25-.03-.34,.24-.64,.59-.63,4.55,.03,10.86,.38,15.45,.54h0Z"/>
            </g>
            <g>
              <rect class="cls-2" x="118.79" y="88.63" width="37.96" height="2.81" rx="1.4" ry="1.4"/>
              <path class="cls-5" d="M155.35,91.51c-6.59,0-13.18,.84-19.78,.55-3.3-.11-6.59-.33-9.89-.38-1.86-.03-3.72-.01-5.58,.02-.24,0-.49-.07-.71-.19-1.59-.79-.98-3.28,.8-3.29,11.51-.46,23.12-.64,34.62,.2,.39,.03,.87,0,1.28,.24,1.32,.74,.8,2.88-.74,2.84h0Zm0-.15c1.32,.01,1.8-1.85,.6-2.43-.33-.18-.71-.11-1.14-.09l-4.95,.29c-9.88,.57-19.79,.27-29.67-.08-1.34-.05-1.45,2.01-.06,2.12,5.15,.17,10.29-.16,15.44-.35,6.6-.29,13.19,.55,19.78,.55h0Z"/>
            </g>
            <g>
              <path class="cls-2" d="M148.85,88.63h-22.16c2.59-3.88,.48-10.56-1.99-15.96-1.67-3.65,1.4-7.48,6.31-7.48h13.95c4.81,0,7.89,3.7,6.38,7.31-2.43,5.83-4.75,13.1-2.49,16.13Z"/>
              <path class="cls-5" d="M148.92,88.66c-6.64,.24-15.67,.77-22.24,.61-.5,0-.81-.6-.53-1,.73-1.09,1.12-2.45,1.2-3.86,.16-2.87-.57-5.8-1.55-8.5-.47-1.44-1.22-2.66-1.67-4.13-.42-1.51,.03-3.18,.98-4.42,1.99-2.61,5.42-2.83,8.43-2.78,2.2-.04,6.64-.12,8.85-.14,0,0,2.21-.03,2.21-.03,2.39-.09,5,.72,6.57,2.63,2.56,3.08,.71,5.91-.53,8.99-1.31,3.98-3.58,8.5-1.72,12.63h0Zm-.13-.07c-2.48-3.41-.43-9.3,.68-12.99,.78-2.47,2.61-5.28,.5-7.55-1.82-2.19-4.95-2.13-7.57-2.1,0,0-4.42-.06-4.42-.06-1.46-.03-5.23-.1-6.64-.13-3.36-.38-7.6,2.1-6.7,5.91,1.84,5.41,5.69,11.64,2.59,17.32,0,0-.54-1-.54-1,6.29-.11,15.7,.36,22.1,.61h0Z"/>
            </g>
            <g>
              <g>
                <polygon class="cls-3" points="134.15 53.8 134.15 65.19 142.57 65.19 142.57 53.8 144.18 49.18 138.43 43.9 132.66 49.18 134.15 53.8"/>
                <path class="cls-5" d="M134.23,53.79c.44,3.78,.56,7.59,.6,11.4,0,0-.67-.67-.67-.67,2.44-.01,5.95,.23,8.42,.38,0,0-.29,.29-.29,.29,.23-3.35-.16-8.14-.26-11.53,.48-1.58,.97-3.16,1.48-4.72,0,0,.19,.77,.19,.77-1.96-1.72-3.92-3.43-5.79-5.24,0,0,1.05,0,1.05,0-1.96,1.72-3.94,3.41-5.97,5.05,0,0,.13-.48,.13-.48,.41,1.59,.79,3.18,1.12,4.75h0Zm-.15,.02c-.66-1.51-1.28-3-1.85-4.49-.06-.16-.02-.32,.09-.44,.91-.97,1.85-1.9,2.8-2.83,.93-.92,1.85-1.84,2.8-2.73,.29-.27,.73-.27,1.02-.02,1.97,1.71,3.85,3.53,5.74,5.34,.22,.2,.29,.51,.19,.77-.56,1.53-1.15,3.05-1.75,4.57l.03-.19-.3,5.69c-.07,1.9-.07,3.8,.02,5.69,0,.15-.11,.28-.26,.29-.02,.03-4.22,.23-4.24,.25-1.41,.1-2.81,.13-4.21,.13-.37,0-.67-.3-.67-.67,.04-3.8,.17-7.6,.6-11.39h0Z"/>
              </g>
              <g>
                <rect class="cls-3" x="127.2" y="53.47" width="23.29" height="4.62"/>
                <path class="cls-5" d="M150.54,58.15c-3.57,.33-7.48,.52-11.44,.57-3.94,.05-7.97-.48-11.9-.39-.13,0-.24-.1-.23-.23,0-1.54-.1-3.08-.18-4.62-.01-.21,.15-.39,.36-.41,3.38-.25,8.26-.32,11.69-.39,3.91-.02,7.81,.11,11.71,.35,.23,.02,.4,.22,.39,.45-.05,.82-.1,1.64-.18,2.42l-.22,2.25h0Zm-.11-.11c-.14-1.31-.3-3.3-.4-4.57,0,0,.45,.45,.45,.45-3.88,.24-7.76,.37-11.64,.35-3.43-.06-8.27-.15-11.64-.39,0,0,.41-.41,.41-.41-.08,1.54-.17,3.08-.18,4.62l-.23-.23c3.84,.1,7.57-.43,11.39-.39,3.81,.05,7.65,.24,11.85,.57h0Z"/>
              </g>
            </g>
          </g>
          <g class="cls-9">
            <polygon class="cls-4" points="134.05 58.11 142.57 58.11 142.57 60.85 134.05 58.11"/>
          </g>
          <g class="cls-8">
            <path class="cls-4" d="M130.4,91.99h15.22s-3.72,19.85,4.23,36.91h-6.61c-1.57-9.03-1.98-29.3-.58-34.21-1.7-1.58-5.58-1.99-12.25-2.7Z"/>
          </g>
          <g class="cls-8">
            <path class="cls-4" d="M142.68,65.04s8.53-.15,9.11,5.17c.58,5.33-6.39,9.07-2.93,18.24h-4.46s-2.26-8.28,1.22-15.13c3.48-6.85-2.94-8.29-2.94-8.29Z"/>
          </g>
          <g class="cls-8">
            <path class="cls-4" d="M143.26,128.92s6.87,3.7,6.6,9.18c-.27,5.48-1.87,6.12-.01,13.18h10.99s-4.99-1.08-6.94-11.18c-1.95-10.1,2.23-10.45-10.63-11.18Z"/>
          </g>
          <g class="cls-8">
            <path class="cls-4" d="M154.74,150.97s5.23,1.73,1.4,7.28c0,0,7.07,.19,7.33-1.15,.26-1.34,2.53-7.7-8.73-6.13Z"/>
          </g>
        </g>
        <g>
          <g>
            <g>
              <path class="cls-2" d="M90.05,151.03H45.1s7.4-7.77,6.53-18.33c-.15-1.78,1.26-3.31,3.05-3.31h25.74c1.8,0,3.24,1.55,3.05,3.34-1.26,11.77,6.57,18.3,6.57,18.3Z"/>
              <path class="cls-5" d="M90.14,151.06c-6.98,.2-14.43,.52-22.06,.69-7.58,.26-15.42-.23-22.98-.4-.27,0-.43-.36-.24-.55,4.14-4.62,6.64-10.97,6.13-17.11,0,0-.08-1.2-.08-1.2-.12-2.03,1.64-3.89,3.67-3.93,.73-.02,2.82-.07,3.59-.08,6.57-.08,14.89-.24,21.38-.11,.16,.02,.73,0,.89,.01,1.72,0,3.33,1.2,3.81,2.85,.3,.81,.1,1.86,.05,2.7-.64,6.2,1.67,12.54,5.84,17.13h0Zm-.19-.07c-.07,0-.04,.07-.09,.02l-.12-.09c-4.9-4.15-7.52-10.71-7.23-17.09-.03-.51,.18-1.54-.06-2.02-.32-.95-1.34-1.5-2.32-1.4,0,0-.59,0-.59,0-6.47,.11-14.84-.01-21.38-.11,0,0-2.38-.05-2.38-.05l-1.17-.02c-.89-.02-1.73,.54-2.08,1.37-.31,.5-.17,1.49-.2,2.04,.01,6.49-2.87,12.7-6.99,17.61,0,0-.24-.55-.24-.55,15.24-.79,29.29-.23,44.85,.29h0Z"/>
            </g>
            <g>
              <rect class="cls-1" x="40.78" y="151.03" width="53.6" height="7.21" rx="3.6" ry="3.6"/>
              <path class="cls-5" d="M90.77,158.33c-9.61,0-19.23,1.12-28.85,.73-4.81-.14-9.62-.43-14.43-.51-1.22-.02-2.36,.01-3.65-.06-2.76-.29-4.36-3.69-2.86-6.04,.68-1.16,2-1.94,3.39-1.98,4.81-.19,9.62-.33,14.43-.39,9.62-.14,19.24-.29,28.85,.28,1.1,.09,2.54,.09,3.67,.24,4.59,.87,4.15,7.66-.56,7.73h0Zm0-.2c2.42,.06,4.23-2.78,3.02-4.89-.87-1.69-2.62-1.88-4.32-1.66,0,0-1.8,.1-1.8,.1-9.61,.57-19.23,.43-28.85,.28-4.81-.06-9.62-.2-14.43-.39-2.21-.15-3.95,2.38-2.96,4.42,.42,1.01,1.42,1.75,2.51,1.9,.92,.1,2.58,0,3.56,.02,4.81-.07,9.62-.36,14.43-.51,9.62-.39,19.24,.73,28.85,.73h0Z"/>
            </g>
            <g>
              <path class="cls-2" d="M75.34,90.66h-15.52c2.64,20.6-5.09,38.73-5.09,38.73h25.71s-7.86-17.6-5.09-38.73Z"/>
              <path class="cls-5" d="M75.26,90.72c-4.48,.27-11.06,.62-15.45,.72,0,0,.78-.89,.78-.89,1.56,9.9,.13,19.95-2.56,29.52-.86,3.19-1.79,6.34-2.95,9.46,0,0-.36-.54-.36-.54,8.57-.29,17.14-.57,25.71-.63,0,0-.93,1.43-.93,1.43-1.37-3.12-2.35-6.28-3.17-9.52-2.37-9.63-2.99-19.81-1.07-29.56h0Zm.15-.13c-.71,13.01,1.26,26.24,5.95,38.38,.32,.65-.2,1.46-.93,1.43-4.28-.06-8.57-.1-12.85-.22-4.28-.1-8.57-.3-12.85-.41-.27,0-.47-.29-.36-.54,1.28-2.99,2.27-6.14,3.04-9.32,2.14-9.56,2.46-19.48,1.63-29.21-.04-.45,.33-.84,.78-.83,4.62,.03,10.95,.48,15.6,.72h0Z"/>
            </g>
            <g>
              <rect class="cls-1" x="48.43" y="88.16" width="38.28" height="2.83" rx="1.41" ry="1.41"/>
              <path class="cls-5" d="M85.3,91.09c-6.64,0-13.29,1.12-19.95,.73-3.32-.14-6.65-.43-9.97-.51-1.88-.04-3.75-.02-5.63,.03-.26,0-.52-.08-.75-.2-1.71-.84-1.06-3.51,.85-3.53,11.85-.66,23.72-.82,35.55,.32,1.96,.18,1.92,3.14-.09,3.16h0Zm0-.2c1.3,0,1.77-1.83,.58-2.38-1.65-.29-4.29,.27-6.11,.31-9.96,.75-19.96,.37-29.92-.11-1.21-.07-1.32,1.82-.06,1.92,5.2,.23,10.38-.21,15.56-.47,6.66-.39,13.3,.73,19.95,.73h0Z"/>
            </g>
            <g>
              <path class="cls-2" d="M78.53,88.16h-22.35c2.61-3.91,.49-10.65-2-16.09-1.68-3.68,1.42-7.54,6.36-7.54h14.07c4.85,0,7.96,3.73,6.44,7.37-2.45,5.88-4.79,13.21-2.52,16.26Z"/>
              <path class="cls-5" d="M78.62,88.2c-6.72,.33-15.79,1.02-22.46,.82-.66,0-1.08-.8-.69-1.34,.71-1.06,1.12-2.38,1.22-3.78,.19-2.87-.49-5.83-1.47-8.54-.48-1.46-1.22-2.68-1.67-4.18-.45-1.54,0-3.26,.96-4.54,2.03-2.69,5.49-2.96,8.59-2.94,2.58-.11,6.3-.13,8.92-.19,0,0,2.23-.04,2.23-.04,4.25-.39,9.22,3.14,8.01,7.81-.39,1.31-1.24,2.97-1.72,4.24-1.38,3.99-3.69,8.47-1.91,12.68h0Zm-.18-.09c-2.88-3.69-.11-11.26,1.24-15.3,0,0,.4-1.06,.4-1.06,1.29-2.8-1.09-5.5-3.84-6-1.1-.27-3.05-.18-4.22-.23-2.63-.03-6.33-.11-8.92-.19-1.22,0-3.13-.2-4.31,.02-2.67,.36-5.32,2.79-4.62,5.67,.38,1.35,1.15,2.74,1.64,4.1,1.55,4.23,3.56,9.18,1.09,13.5,0,0-.72-1.34-.72-1.34,7.3-.17,14.92,.52,22.26,.82h0Z"/>
            </g>
            <g>
              <path class="cls-1" d="M85.04,67.68H50.07c-.56,0-1.03-.41-1.1-.96l-.97-6.88c-.14-1,1.02-1.66,1.81-1.02l3.8,3.1c.42,.34,1.03,.33,1.44-.03l3.83-4.25c.4-.36,1-.37,1.43-.04l6.52,4.34c.43,.33,1.03,.32,1.43-.05l5.18-4.19c.43-.38,1.07-.38,1.5,0l4.07,4.18c.4,.36,1,.39,1.43,.06l4.94-3.78c.79-.6,1.92,.05,1.78,1.03l-1.01,7.51c-.07,.55-.55,.97-1.1,.97Z"/>
              <path class="cls-5" d="M85.04,67.78c-8.77,.01-17.55,1.15-26.33,.71,0,0-6.58-.29-6.58-.29l-1.65-.07-.41-.02c-.97-.03-1.54-.88-1.53-1.79-.05-.51-.23-1.92-.3-2.45-.16-1.38-.39-2.71-.57-4.1-.03-.35,.08-.72,.31-.99,.43-.57,1.32-.74,1.93-.32,0,0,2.65,2.01,2.65,2.01,0,0,1.31,.99,1.31,.99,.29,.24,.59,.17,.77-.01,1-1.22,2.48-3.04,3.69-4.41,.59-.68,2-.56,2.43-.14,2.22,1.37,4.4,2.81,6.6,4.22,.12,.09,.12,.1,.3-.06,1.38-1.17,3.27-2.72,4.68-3.85,0,0,.45-.37,.45-.37,.8-.71,2.22-.62,2.91,.16,0,0,.76,.8,.76,.8l1.52,1.6c.07,.1,1.66,1.74,1.69,1.8,.12,.13,.27-.04,.51-.2,1.5-1.05,3.04-2.1,4.56-3.11,.82-.72,2.13-.64,2.67,.37,.13,.23,.19,.5,.19,.75-.24,1.69-.66,3.28-.9,4.96-.12,.73-.25,1.45-.35,2.18-.07,.35-.04,.75-.29,1.11-.23,.34-.63,.55-1.03,.54h0Zm0-.2c.81-.02,1.04-.77,1.06-1.48,.27-2.19,.43-4.39,.6-6.6,.17-.71-.29-1.23-.87-.94-.05,.03-.06,.05-.12,.1,0,0-.21,.18-.21,.18-1.38,1.21-2.79,2.42-4.19,3.59-.85,.88-2.3,.95-3.16-.04-.79-.77-2.35-2.33-3.13-3.11,0,0-.78-.78-.78-.78-.06-.06-.04-.01-.07-.03-1.1,.89-3.65,2.94-4.74,3.78-.4,.28-.67,.62-1.24,.81-.6,.28-1.71-.06-1.91-.31-2.14-1.49-4.31-2.94-6.43-4.46-.11-.1-.27-.17-.42-.06,0,0,.07-.07,.07-.07-1.31,1.4-2.67,2.76-4.01,4.14-.63,.6-1.73,.51-2.26-.03-1.17-1.02-2.54-2.25-3.7-3.22-.46-.38-1.28,.05-1.21,.67,.27,2.26,.64,4.64,1.02,6.89,.11,.63,.63,.67,1.16,.61,0,0,1.65-.07,1.65-.07l6.58-.29c8.78-.44,17.56,.7,26.33,.72h0Z"/>
            </g>
          </g>
          <g class="cls-8">
            <path class="cls-4" d="M54.34,67.99l-.57,1.48s27.53,.65,24.19,10.36c0,0,4.86-9.02,2.86-11.85h-26.47Z"/>
          </g>
          <g class="cls-7">
            <path class="cls-5" d="M41.36,155.51h52.61l-1.81,2.22-47.78,.17s-1.32,1.15-3.02-2.38Z"/>
          </g>
          <g class="cls-8">
            <path class="cls-4" d="M59.81,91.28h15.22s-3.72,19.85,4.23,36.91h-6.61c-1.57-9.03-1.98-29.3-.58-34.21-1.7-1.58-5.58-1.99-12.25-2.7Z"/>
          </g>
          <g class="cls-8">
            <path class="cls-4" d="M72.68,128.21s6.87,3.7,6.6,9.18c-.27,5.48-1.87,6.12-.01,13.18h10.99s-4.99-1.08-6.94-11.18c-1.95-10.1,2.23-10.45-10.63-11.18Z"/>
          </g>
          <g class="cls-8">
            <path class="cls-4" d="M84.16,150.27s5.23,1.73,1.4,7.28c0,0,7.07,.19,7.33-1.15,.26-1.34,2.53-7.7-8.73-6.13Z"/>
          </g>
        </g>
        <path class="cls-5" d="M28.3,158.23c48.52-.22,101.31-1.92,149.63,0,.12,0,.12,.2,0,.2-24.93,1.07-49.87,1.04-74.82,.7-18.43-.33-57.02-.1-74.82-.9h0Z"/>
      </g>
    </g>
  </g>
</svg>