<?xml version="1.0" encoding="UTF-8"?>
<svg id="Layer_1" data-name="Layer 1" xmlns="http://www.w3.org/2000/svg" viewBox="0 0 200 200">
  <defs>
    <style>
      .cls-1 {
        opacity: .1;
      }

      .cls-2 {
        fill: #f9ea35;
      }

      .cls-3 {
        fill: #fff;
      }

      .cls-4 {
        fill: #97d7ff;
      }

      .cls-5 {
        fill: #225467;
      }

      .cls-6 {
        fill: #41d94d;
      }

      .cls-7 {
        fill: #36aff3;
      }

      .cls-8 {
        fill: #3a7491;
      }
    </style>
  </defs>
  <g>
    <polygon class="cls-2" points="152.26 62.07 163.19 153.11 134.2 153.11 152.26 62.07"/>
    <path class="cls-8" d="M163.19,153.61h-28.99c-.15,0-.29-.07-.39-.18-.09-.12-.13-.27-.1-.42l18.06-91.04c.05-.24,.23-.42,.51-.4,.25,0,.45,.2,.48,.44l10.93,91.04c.02,.14-.03,.28-.12,.39-.09,.11-.23,.17-.37,.17Zm-28.38-1h27.82l-10.48-87.35-17.33,87.35Z"/>
  </g>
  <path class="cls-8" d="M30.77,154.07c20-.83,50.39-.33,70.69-.57,11.64,.01,41.75,.04,53.02,.06,5.89,.03,11.78-.11,17.67,.51-5.89,.62-11.78,.48-17.67,.51-11.13,.02-41.48,.05-53.02,.06-20.38-.24-50.58,.27-70.69-.57h0Z"/>
  <g>
    <path class="cls-3" d="M137.15,153.35H60.59c-5.6,0-10.03-5.8-9.69-12.66l7.27-78.43c.13-1.44,1.23-2.54,2.53-2.55l88.42-.27c1.72,0,3.08,1.59,2.99,3.5l-3.85,77.55c-.35,7.07-5.36,12.86-11.13,12.86Z"/>
    <path class="cls-8" d="M137.15,153.4c-20.43,.02-48.37,.31-68.79,.38-1.93-.06-6.72,.11-8.64-.06-5.14-.56-8.53-5.57-9.08-10.4-.32-1.64,.09-4.12,.21-5.79,.35-3.55,1.29-13.43,1.66-17.12,1.39-13.45,3.13-32.39,4.33-45.66,0,0,1.02-11.42,1.02-11.42,.01-1.48,.47-3.24,2.06-3.74,3.44-.37,48.35-.37,53.09-.52,7.5-.03,27.12-.15,34.4-.16,.77,.06,2.27-.16,3.04,.27,1.57,.66,2.36,2.47,2.19,4.06,0,0-.07,1.43-.07,1.43l-.14,2.86c-1.04,22.05-2.55,46.52-3.78,68.69-.13,1.62-.16,4.11-.39,5.73-.76,5.58-5.05,11.37-11.08,11.44h0Zm0-.1c5.96-.1,10.16-5.85,10.88-11.37,.23-1.88,.21-3.81,.32-5.71l.96-22.91c.68-16.23,1.38-32.46,2.21-48.68-.03-.55,.21-2.13-.02-2.69-.21-.78-.75-1.49-1.47-1.79-.55-.28-1.96-.17-2.62-.18-20.66,.08-59.23,.02-80.26,0-.82,.06-6.33-.13-7.08,.1-1.4,.47-1.72,1.97-1.75,3.31,0,0-1.1,11.41-1.1,11.41-1.39,13.19-2.9,32.28-4.14,45.67-.31,3.7-1.21,13.53-1.52,17.13,0,0-.25,2.85-.25,2.85-.19,2.78,.46,5.63,1.92,8,2.08,3.42,5.48,4.84,9.41,4.46,0,0,5.73,.01,5.73,.01,20.43,.07,48.37,.36,68.79,.38h0Z"/>
  </g>
  <path class="cls-7" d="M88.27,128.97c-5.94,0-11.33-2.33-15.24-6.56-3.96-4.29-5.87-9.99-5.38-16.04,.95-11.8,11.38-21.41,23.25-21.41h8.47c1.38,0,2.5,1.12,2.5,2.5s-1.12,2.5-2.5,2.5h-8.47c-9.33,0-17.52,7.54-18.27,16.81-.37,4.64,1.07,8.99,4.07,12.25,2.94,3.19,7.04,4.95,11.53,4.95,1.91,0,3.71-1.13,4.63-2.89l16.1-33.43c.87-1.81,2.71-2.93,4.67-2.83,1.89,.08,3.47,1.24,4.14,3l14.13,37.67c.49,1.29-.17,2.73-1.46,3.22-1.29,.49-2.73-.17-3.22-1.46l-13.92-37.09-15.98,33.15c-1.81,3.46-5.35,5.64-9.07,5.64Z"/>
  <polygon class="cls-8" points="112.64 92.22 125.21 126.47 111.71 92.58 112.64 92.22 112.64 92.22"/>
  <g>
    <path class="cls-6" d="M109.34,126.77l-5.51-9.63s26.41-7.84,36.04-13.88c0,0-21.95,13.77-28.45,14.78l1.59,6.49-3.66,2.24Z"/>
    <path class="cls-8" d="M109.33,126.81c-1.84-2.99-4.31-6.89-6.07-9.9,3.24-.98,6.43-2.09,9.66-3.11,6.12-1.99,12.32-3.83,18.22-6.43,2.95-1.27,5.87-2.69,8.54-4.42l.37,.59c-7.93,5.03-15.95,10.05-24.65,13.66-1.25,.51-2.55,.93-3.93,1.19l.31-.47,1.42,6.53,.03,.16s-.13,.07-.13,.07l-3.78,2.11h0Zm.02-.1l3.54-2.37s-.09,.23-.09,.23l-1.75-6.45-.1-.37c2.68-.55,5.22-1.82,7.74-3.05,7.16-3.6,14.09-7.67,21-11.74,0,0,.37,.59,.37,.59-5.67,3.19-11.78,5.3-17.78,7.73-6,2.4-12.12,4.45-18.34,6.22,0,0,.22-.55,.22-.55,1.5,2.77,3.71,6.92,5.19,9.77h0Z"/>
  </g>
  <g>
    <g>
      <path class="cls-8" d="M31.46,139.91c-5.3,.86-10.55-3.67-10.52-9.08-.33-5.49,5.13-10.37,10.52-9.08,0,0-.01,.1-.01,.1-2.54,0-4.99,.9-6.73,2.59-6.41,6.06-1.68,15.76,6.74,15.47h0Z"/>
      <path class="cls-4" d="M49.94,97.06c-4.56,2.56-3.43,6.55,.28,9.33,.84,.65,1.76,1.51,2.36,2.55,2.11,3.38-.4,7.77-4.23,8.06,0,0-.07-.19-.07-.19,.86-.65,1.61-1.32,2.14-2.08,1.61-2.34,.9-5.14-1.25-7.14-.8-.76-1.54-1.6-2.13-2.56-1.26-1.84-1.59-4.7,.12-6.38,.76-.82,1.72-1.35,2.69-1.78l.09,.18h0Z"/>
      <g class="cls-1">
        <path class="cls-5" d="M61.01,153.97h-5.76c18.96-5.5,12.88-31.39,12.88-31.39,.49,0,5.29,.22,8.52,.37,1.66,.08,2.96,1.44,2.96,3.1v9.3c0,10.28-8.33,18.61-18.61,18.61Z"/>
      </g>
      <g>
        <path class="cls-4" d="M48.07,153.97h4.28c10.69,0,19.35-8.66,19.35-19.35v-11.47c0-.78-.63-1.41-1.41-1.41H30.13c-.78,0-1.41,.63-1.41,1.41v11.47c0,10.69,8.66,19.35,19.35,19.35Z"/>
        <path class="cls-8" d="M48.07,153.92c2.76-.08,5.55,.14,8.23-.49,8.03-1.74,14.4-9.16,14.82-17.33,.18-3.77,.03-8.58,.08-12.39,0-.48,.05-1.12-.48-1.36-.29-.19-1.4-.09-1.8-.11-10.71-.06-27.65-.15-38.32-.19,0,0-.51,0-.51,0-.14,0-.27,.03-.4,.09-.59,.27-.73,.79-.68,1.45,0,0-.04,8.29-.04,8.29-1.13,11.7,7.08,21.97,19.1,22.06h0Zm0,.1c-12.11-.14-20.51-10.28-19.6-22.16,0,0-.04-8.29-.04-8.29-.14-1.39,.77-2.28,2.16-2.14,3.48-.01,18.01-.08,21.75-.1,0,0,16.57-.09,16.57-.09h1.04c1.07-.16,2.3,.72,2.24,1.95,0,0,0,.52,0,.52-.06,3.89,.11,8.59-.07,12.47-.58,8.53-7.41,15.96-15.76,17.5-2.74,.59-5.53,.31-8.28,.34h0Z"/>
      </g>
    </g>
    <path class="cls-3" d="M30.83,123.54s-1.64,15.95,3.91,22.42c1.76,2.05,3.67,2.87,4.83,3.66,.59,.4,1.3-.32,.89-.9-2.9-4.1-7.6-12.91-5.86-25.19"/>
  </g>
</svg>