<?xml version="1.0" encoding="UTF-8"?>
<svg id="Layer_1" data-name="Layer 1" xmlns="http://www.w3.org/2000/svg" viewBox="0 0 200 200">
  <defs>
    <style>
      .cls-1 {
        fill: #f9ea35;
      }

      .cls-2 {
        fill: #00efb0;
      }

      .cls-3 {
        fill: #fff;
      }

      .cls-4 {
        fill: #ff8db0;
      }

      .cls-5 {
        fill: #3a7491;
      }

      .cls-6 {
        fill: #3d3f51;
      }

      .cls-7 {
        fill: #5cd1ff;
      }
    </style>
  </defs>
  <g>
    <path class="cls-1" d="M151.82,111.44l-1.48,4.21c-.16,.47-.09,.99,.21,1.39l2.63,3.6c.74,1.01,0,2.43-1.25,2.4l-4.46-.1c-.5-.01-.97,.22-1.26,.63l-2.61,3.62c-.73,1.01-2.31,.75-2.67-.45l-1.28-4.28c-.14-.48-.51-.85-.98-1l-4.25-1.37c-1.19-.38-1.43-1.97-.4-2.68l3.67-2.54c.41-.28,.65-.75,.65-1.25v-4.46c-.02-1.25,1.42-1.96,2.41-1.21l3.55,2.7c.4,.3,.91,.39,1.39,.23l4.24-1.39c1.19-.39,2.31,.75,1.9,1.93Z"/>
    <path class="cls-5" d="M151.91,111.47c-.46,1.35-.9,2.72-1.27,4.11-.26,.68,.13,1.18,.57,1.62,0,0,1.42,1.62,1.42,1.62,.5,.64,1.01,1,1.45,1.82,.82,1.57-.69,3.53-2.39,3.3,0,0-1.07-.03-1.07-.03-1.05-.03-2.16-.1-3.19-.19-.18-.02-.37,.02-.53,.13-.27,.23-.99,1.17-1.3,1.52,0,0-1.38,1.66-1.38,1.66-.48,.71-1.22,1.27-2.11,1.1-1.77-.3-1.66-2.45-2.25-3.75-.1-.36-.41-1.19-.52-1.53-.1-.39-.35-.78-.75-.89,0,0-1-.26-1-.26l-2.09-.53c-.14-.05-1.17-.29-1.3-.33-1.73-.42-2.28-2.83-.89-3.99,1.09-.85,2.65-1.93,3.76-2.75,.16-.13,.21-.21,.23-.4-.04-1.48-.04-2.96-.04-4.44-.13-1.86,2.18-3.31,3.81-2.28,1.19,.86,2.29,1.89,3.39,2.86,.57,.51,.58,.62,1.35,.44,1.37-.31,2.85-.65,4.21-1,1.22-.28,2.38,1.05,1.9,2.2h0Zm-.19-.07c.22-.64-.1-1.4-.7-1.67-.61-.32-1.23,.05-1.91,.32-1.05,.42-2.18,.93-3.22,1.38-.75,.4-1.86,.02-2.37-.4-1.04-.66-2.13-1.39-3.13-2.1,0,0-.22-.15-.22-.15-.08-.06-.08-.04-.11-.07-.36-.15-.74,.09-.68,.52,0,1.43,.02,2.86-.01,4.3,.02,.54-.19,1.19-.54,1.62-.29,.39-.71,.62-1.08,.87-.57,.39-2.13,1.39-2.69,1.77-.11,.08-.62,.39-.68,.47-.27,.25-.21,.83,.15,1.04,.23,.12,1.12,.45,1.39,.56,0,0,2,.79,2,.79,.72,.26,1.72,.58,2.01,1.38,.13,.32,.22,.77,.3,1.11,.37,1.15,.65,3,1.23,3.96,.47,.54,1.42,.5,1.8-.12,0,0,.29-.44,.29-.44,.37-.63,1.35-2.14,1.71-2.74,.22-.31,.29-.57,.71-1,1.19-1.06,3.2-.55,4.69-.67,.17-.01,1.29,.04,1.43,.01,.38-.04,.65-.49,.54-.88,0-.1-.29-.48-.45-.78-.5-.83-1.45-2.39-1.95-3.24-.35-.53-.35-1.33-.07-1.84,.58-1.31,1.09-2.66,1.57-4h0Z"/>
  </g>
  <g>
    <path class="cls-3" d="M106.81,48.66l9.18,18.61c1.02,2.07,3,3.51,5.29,3.84l20.53,2.98c5.76,.84,8.06,7.91,3.89,11.97l-14.86,14.48c-1.65,1.61-2.41,3.94-2.02,6.21l3.51,20.45c.98,5.73-5.04,10.11-10.19,7.4l-18.37-9.66c-2.05-1.08-4.49-1.08-6.53,0l-18.37,9.66c-5.15,2.71-11.17-1.67-10.19-7.4l3.51-20.45c.39-2.28-.36-4.6-2.02-6.21l-14.86-14.48c-4.17-4.06-1.87-11.14,3.89-11.97l20.53-2.98c2.29-.33,4.26-1.77,5.29-3.84l9.18-18.61c2.58-5.22,10.02-5.22,12.59,0Z"/>
    <path class="cls-5" d="M107.71,48.22c2.91,5.99,5.85,11.96,8.7,17.98,.64,1.48,1.46,2.62,2.83,3.41,1.17,.72,3.2,.95,4.54,1.15,0,0,9.87,1.55,9.87,1.55,2.53,.44,6.82,.93,9.32,1.49,5.95,1.79,7.23,9.54,2.41,13.34-2.22,2.16-8.41,8.22-10.72,10.47-3.05,3.11-6.32,4.97-5.11,9.96,.78,4.49,2.19,12.67,2.98,17.22,.27,1.69,.76,3.44,.36,5.16-.67,3.62-4.24,6.32-7.9,6.09-1.78-.08-3.39-.99-4.89-1.79-3.01-1.56-10.39-5.43-13.28-6.94-1.28-.61-3.04-1.71-4.36-2.17-1.85-.61-3.81-.25-5.46,.75,0,0-1.1,.58-1.1,.58-1.53,.83-9.38,4.9-11.06,5.8-1.49,.71-5.22,2.87-6.77,3.43-4.45,1.61-9.65-1.72-10.07-6.43-.22-1.54,.38-3.62,.58-5.13,0,0,.85-4.92,.85-4.92l1.7-9.84c.19-1.39,.75-3.38,.49-4.75-.22-1.52-.97-2.88-2.16-3.94-1-1.13-15.8-14.97-15.95-16.05-2.82-5.35,1.25-11.27,7.11-11.4,1.47-.18,10.64-1.63,12.35-1.85,0,0,4.94-.76,4.94-.76,2.33-.23,4.63-.86,5.95-2.91,.86-1.42,2.5-5.09,3.27-6.6,1.53-3.04,5.02-10.61,6.62-13.53,3.07-5.35,11.36-4.96,13.98,.61h0Zm-1.79,.89c-2.35-4.73-9.15-4.37-11.1,.53-.33,.64-1.32,2.67-1.68,3.35,0,0-4.49,8.92-4.49,8.92-.9,1.65-2.5,5.24-3.51,6.75-1.53,2.34-4.41,3.26-7.03,3.43,0,0-4.95,.68-4.95,.68,0,0-9.89,1.39-9.89,1.39-1.28,.22-3.63,.44-4.85,.75-3.81,.99-5.78,5.77-3.84,9.18-.38,.38,15.18,15.06,15.75,15.73,1.3,1.15,2.28,2.86,2.53,4.65,.25,1.58-.24,3.6-.49,5.14,0,0-1.68,9.85-1.68,9.85l-.84,4.92c-.17,1.26-.73,3.51-.55,4.76,.37,3.87,4.66,6.63,8.32,5.28,1.39-.56,5.15-2.65,6.57-3.37,3.2-1.66,10.2-5.45,13.32-6.98,2.54-1.14,5.44-.56,7.73,.88,0,0,2.21,1.17,2.21,1.17,2.86,1.52,10.3,5.44,13.24,7,1.43,.75,2.76,1.58,4.37,1.67,1.51,.08,3.05-.39,4.26-1.32,2.86-2.14,2.79-5.32,2.05-8.49,0,0-1.67-9.85-1.67-9.85l-.84-4.92-.42-2.46c-.65-2.54-.06-5.54,1.86-7.44,3.99-3.9,10.33-10.05,14.33-13.94,4.22-3.26,3.26-10.02-1.96-11.56-2.41-.48-6.7-.96-9.19-1.34,0,0-9.9-1.32-9.9-1.32-1.59-.22-3.7-.35-5.09-1.2-1.59-.82-2.9-2.44-3.58-4.01-3.05-5.92-6-11.89-8.98-17.84h0Z"/>
  </g>
  <path class="cls-6" d="M101.12,80.11l-6.2,14.84c-.17,.4-.17,.7,0,.92,.17,.21,.44,.32,.78,.32h14.8v3.4l-3.18,.56h-15.74c-.7,0-1.3-.19-1.79-.58-.5-.39-.83-.88-.99-1.49-.16-.61-.11-1.23,.17-1.85l6.77-16.11h5.38Zm6.24,5.01v20.78h-5.27v-16.67l.93-4.11h4.34Z"/>
  <path class="cls-4" d="M102.58,134.71c-.17,.51-.88,2.78-1.03,3.22-.77,1.96-.01,4.47,.42,6.46,0,0,.58,2.7,.58,2.7,.99,3.84-1.96,7.26-.98,10.76,.56,1.77,1.27,3.59,1.03,5.49-.4,2.77-1.21,5.23-.65,8.02,0,0,.54,5.4,.54,5.4-.35-1.99-1.27-6.11-1.49-8.05-.16-2.67,.89-5.32-.06-7.88-.75-1.74-1.61-3.49-1.54-5.46,.04-3.07,1.35-5.04,.47-7.67-.97-3.48-2.82-7.02-1.88-10.72,.11-.53,.62-2.77,.74-3.32,.68-2.67,4.62-1.62,3.86,1.04h0Z"/>
  <path class="cls-2" d="M85.99,142.67c8.08,3.51,11.14,12.84,12.36,20.89,0,0-.76-2.98-.76-2.98-1.94-6.4-5.46-13.6-12.12-15.98-1.39-.3-.84-2.38,.52-1.93h0Z"/>
  <g>
    <path class="cls-1" d="M63.43,112.78l4.9,4.94c.55,.55,1.33,.8,2.09,.66l6.85-1.24c1.92-.35,3.41,1.66,2.51,3.39l-3.18,6.19c-.35,.69-.35,1.51,.02,2.19l3.3,6.13c.92,1.72-.52,3.75-2.45,3.44l-6.87-1.11c-.76-.12-1.54,.14-2.08,.7l-4.81,5.03c-1.35,1.41-3.73,.66-4.03-1.27l-1.07-6.88c-.12-.77-.61-1.42-1.3-1.76l-6.27-3.02c-1.76-.85-1.78-3.34-.04-4.22l6.21-3.14c.69-.35,1.17-1.02,1.27-1.78l.94-6.9c.26-1.93,2.63-2.73,4-1.34Z"/>
    <path class="cls-5" d="M63.5,112.71c1.58,1.58,3.17,3.14,4.84,4.64,.79,.87,1.81,.75,2.81,.45,0,0,3.26-.78,3.26-.78,1.14-.21,2.19-.66,3.45-.71,1.98-.02,3.52,2.09,2.96,3.98-.16,.63-.88,1.83-1.16,2.43-.51,.99-1.05,1.97-1.58,2.95-.33,.68-1.22,1.75-.97,2.56,.22,.67,1.01,2.15,1.35,2.9,.24,.52,1.6,3.31,1.83,3.78,.76,1.47-.13,3.42-1.73,3.82-.63,.17-1.27,.02-1.79-.06-1.12-.17-3.89-.59-4.97-.74-.94-.11-2.07-.42-2.8,.36-.71,.79-2.59,2.91-3.31,3.73-.42,.44-1.31,1.55-1.78,1.93-1.67,1.39-4.48,.49-5.02-1.66-.43-2.07-.85-5.01-1.24-7.1-.09-.57-.38-.91-.91-1.13-2.33-1.2-4.83-2.04-7-3.53-1.54-1.4-1.34-4.12,.41-5.25,1.51-.83,3.1-1.49,4.66-2.21,0,0,1.53-.68,1.53-.68,1.09-.39,1.52-.84,1.66-1.92,.38-1.89,.9-4.71,1.27-6.6,.4-1.84,2.95-2.56,4.23-1.16h0Zm-.14,.14c-.76-.76-2.07-.86-2.9-.19-.94,.69-.84,1.89-.95,2.94-.09,1.14-.32,3.92-.4,5.02-.02,.65-.15,1.34-.54,1.89-.34,.55-1.03,.96-1.54,1.24-1.85,1.09-3.87,2.15-5.74,3.19-.82,.6-.69,1.95,.33,2.31,2.01,.97,4.03,1.93,6.02,2.93,1.04,.44,1.88,1.58,1.99,2.7,.21,1.5,.6,4.31,.81,5.81,.06,.3,.13,1.15,.24,1.4,.31,.84,1.53,1.2,2.28,.64,.35-.29,1.38-1.32,1.73-1.65,0,0,2.41-2.33,2.41-2.33,.83-.81,1.77-1.94,3.08-1.85,.28,0,.62,.07,.9,.13,1.5,.32,4.24,.76,5.77,1.03,1.52,.5,3.21-.47,2.97-2.15-.01-.42-.45-1.02-.64-1.38-.58-.98-2.01-3.38-2.57-4.32-.3-.52-.65-.99-.86-1.61-.22-.69-.18-1.47,.12-2.15,.71-1.56,1.43-3.03,2.2-4.55,.14-.33,.95-1.78,1.03-2.09,.28-.85-.41-1.85-1.32-1.93-.29-.04-.96,.1-1.49,.15-1.5,.18-4.32,.54-5.83,.73-.93,.14-1.97-.34-2.5-1.05-1.49-1.67-3.04-3.27-4.61-4.87h0Z"/>
  </g>
  <path class="cls-1" d="M117.82,140.98c-3.26,1.81-6.15,4.59-8.57,7.68-2.41,3.12-4.45,6.6-5.63,10.45,.7-3.97,2.32-7.78,4.4-11.3,2.16-3.57,4.78-6.85,8.21-9.37,.67-.49,1.61-.34,2.1,.34,.53,.72,.29,1.77-.49,2.2h0Z"/>
  <path class="cls-4" d="M76.55,58.55c-1.6,.1-2.86-1.04-2.83-2.96,.04-1.21,1.36-2.8,2.96-2.83,1.6-.1,2.86,1.04,2.83,2.96-.04,1.21-1.36,2.8-2.96,2.83Zm.11-4.84c-1.07,.21-1.96,1.3-1.98,2.32-.02,1.12,.83,1.8,1.89,1.58,1.07-.21,1.96-1.3,1.98-2.32,.02-1.12-.83-1.8-1.89-1.58Z"/>
  <path class="cls-2" d="M153.17,99.07c-1.6,.1-2.86-1.04-2.83-2.96,.04-1.21,1.36-2.8,2.96-2.83,1.6-.1,2.86,1.04,2.83,2.96-.04,1.21-1.36,2.8-2.96,2.83Zm.11-4.84c-1.07,.21-1.96,1.3-1.98,2.32-.02,1.12,.82,1.8,1.89,1.58,1.07-.21,1.96-1.3,1.98-2.32,.03-1.12-.83-1.8-1.89-1.58Z"/>
  <path class="cls-2" d="M47.69,95.2c-1.04-.06-1.69,.42-2.04,1.41-.85,2.42-.95,2.5-3.55,2.25-1.05-.1-1.91,.18-2.13,1.24-.22,1.07,.37,1.81,1.47,2.13,2.28,.68,2.34,.78,2.18,3.15-.07,1.01,.35,1.73,1.35,1.92,.99,.19,1.64-.28,1.97-1.26,.58-1.7,1.21-2.09,2.92-1.86,1.09,.15,1.95-.21,2.24-1.29,.3-1.1-.45-1.66-1.37-2.04-1.87-.78-2.18-1.33-1.79-3.38,.21-1.12-.11-1.87-1.24-2.26Z"/>
  <path class="cls-7" d="M125.25,56.17c.22,.65,.67,.94,1.37,.91,1.7-.07,1.77-.03,2.24,1.63,.19,.67,.58,1.13,1.28,1,.71-.13,1.02-.67,.95-1.42-.14-1.56-.09-1.62,1.4-2.11,.63-.21,.97-.64,.85-1.3-.12-.65-.57-.93-1.25-.9-1.19,.06-1.58-.23-1.85-1.34-.18-.7-.6-1.14-1.34-1.06-.75,.09-.91,.68-.92,1.34-.02,1.34-.28,1.66-1.64,1.92-.74,.14-1.12,.53-1.08,1.31Z"/>
</svg>