<?xml version="1.0" encoding="UTF-8"?>
<svg id="Layer_1" data-name="Layer 1" xmlns="http://www.w3.org/2000/svg" viewBox="0 0 200 200">
  <defs>
    <style>
      .cls-1 {
        fill: #f9ea35;
      }

      .cls-2 {
        fill: #97d7ff;
      }

      .cls-3 {
        fill: #3a7491;
      }
    </style>
  </defs>
  <g>
    <g>
      <path class="cls-2" d="M126.04,77.44l-10.53,11.7c2.76-.11,10.38,.13,15.25,4.81l10.51-10.04c.08-.04-4.03-6.98-15.23-6.46Z"/>
      <path class="cls-2" d="M152.53,98.08l8.88-9.43c-.26-.59-.52-1.17-.81-1.85-2.41-6.15-5.8-9.97-9.34-12.32l-10.02,9.33c.12,.05,10.89,4.92,11.3,14.26Z"/>
      <path class="cls-2" d="M130.76,93.94l-5.55,6.05c3.51,2.06,6.77,5.13,9.18,10.59,.85,1.93,1.71,3.66,2.5,5.21l7.01-7.3c.08-.04-3.35-12.15-13.13-14.56Z"/>
      <path class="cls-2" d="M179.82,108.8c.26-.32,.4-.68,.3-1.14-.06-.37-.42-.72-.83-.74-.08,.04-3.97-1.06-8.54-5.06l-7.94,8.81s3.89,4.5,8.98,6.97l8.03-8.85Z"/>
      <path class="cls-2" d="M152.53,98.08l-8.59,10.3s1.85,8.51,10,13.13l8.74-10.87c.04,.08-5.89-1.31-10.15-12.57Z"/>
      <path class="cls-2" d="M160.03,130.55l1.95-2.16c-2.31-1.39-5.17-3.54-7.96-6.92l-6.05,6.98c2.92,1.62,5.77,2.17,8.66,2.6,.45,.1,1.84,.09,1.84,.09,.16,.13,.74,.08,1.55-.58Z"/>
    </g>
    <path class="cls-3" d="M138.15,58.4c-7.81,10.82-23.61,32.46-31.54,43.19-10.4,14.51-21.13,28.73-33.35,41.8,0,0-.26-.2-.26-.2,9.39-15.23,20.28-29.33,31.54-43.19,8.25-10.46,24.99-31.44,33.35-41.8l.26,.2h0Z"/>
    <path class="cls-3" d="M137.05,65.91c7.99,1.34,14.97,6.07,20.47,11.87,5.38,6.04,7,14.38,11.8,20.65,3.1,4.34,7.54,7.74,12.63,9.57-2.1,2.13-4.17,4.28-6.21,6.47-5.84,6.32-11.46,12.83-17.39,19.07-12.34-1-19.03-9.66-24.39-19.71-2.4-4.71-5.7-8.43-9.49-12-3.7-3.66-8.18-6.3-13.17-7.81,0,0,.05-.21,.05-.21,2.58,.49,5.12,1.28,7.52,2.44,4.8,2.39,8.69,6.08,12.4,9.89,1.84,2.06,3.2,4.36,4.57,6.6,5.02,8.99,11.35,17.58,22.25,18.71,0,0-.86,.31-.86,.31,3.94-4.01,7.94-7.96,11.99-11.87,4.03-3.92,8.02-7.88,11.85-12,0,0,.13,.58,.13,.58-5.06-1.78-9.7-4.89-13.09-9.1-5.35-6.06-6.89-14.33-11.88-20.37-5.25-5.84-11.56-10.67-19.24-12.88,0,0,.05-.21,.05-.21h0Z"/>
  </g>
  <g>
    <g>
      <path class="cls-1" d="M57.43,80.66l10.3,10.25c4.96-4.57,12.59-4.67,15.34-4.5l-8.97-11.93c-11.18-.75-16.76,6.14-16.68,6.18Z"/>
      <path class="cls-1" d="M57.47,80.57l-9.83-9.53c-3.59,2.28-7.05,6.03-9.59,12.13-.31,.67-.58,1.25-.85,1.83l8.68,9.6c.6-9.33,11.46-13.99,11.58-14.03Z"/>
      <path class="cls-1" d="M54.31,105.2l6.86,7.44c.82-1.54,1.71-3.25,2.6-5.16,2.51-5.41,5.83-8.41,9.39-10.4l-5.43-6.17c-9.83,2.21-13.51,14.25-13.42,14.29Z"/>
      <path class="cls-1" d="M26.24,113.79c5.14-2.36,9.12-6.78,9.12-6.78l-7.76-8.97c-4.65,3.91-8.56,4.92-8.64,4.88-.41,.01-.77,.35-.84,.72-.11,.45,.02,.82,.28,1.14l7.85,9.01Z"/>
      <path class="cls-1" d="M35.48,106.97l8.52,11.04c8.24-4.46,10.26-12.93,10.26-12.93l-8.38-10.47c-4.48,11.17-10.44,12.44-10.4,12.36Z"/>
      <path class="cls-1" d="M39.27,127.54s1.4,.04,1.85-.05c2.9-.37,5.76-.86,8.71-2.42l-5.91-7.1c-2.86,3.32-5.76,5.42-8.1,6.75l1.91,2.2c.8,.67,1.38,.74,1.54,.61Z"/>
    </g>
    <path class="cls-3" d="M61.32,55.03c8.87,10.94,26.57,33,35.32,44.03,11.91,14.59,23.46,29.44,33.51,45.42,0,0-.26,.2-.26,.2-12.87-13.81-24.26-28.77-35.32-44.03-8.41-11.26-25.23-34.06-33.51-45.42,0,0,.26-.2,.26-.2h0Z"/>
    <path class="cls-3" d="M62.05,62.97c-5.09,1.43-9.78,3.85-13.79,7.16-3.99,3.31-7.68,6.83-9.84,11.72-2.32,4.66-4.57,9.64-8.15,13.73-3.47,4.14-8.17,7.15-13.27,8.83l.14-.57c5.61,6.3,11.64,12.2,17.52,18.25,1.96,2.02,3.91,4.04,5.83,6.09l-.85-.33c13.92-1.38,18.71-12.75,25.8-22.97,2.62-3.31,5.92-5.94,9.31-8.4,4.52-3.21,9.66-5.65,15.09-6.61l.05,.21c-5.26,1.52-10.05,4.21-14.27,7.57-4.16,3.37-8.15,7.07-10.76,11.81-5.7,10.12-12.26,19.47-25.03,20.44,0,0-.51,.05-.51,.05l-.34-.38c-3.77-4.17-7.46-8.41-11.11-12.69-3.78-4.4-7.62-8.75-11.62-12.95,5.13-1.73,9.63-5.04,12.82-9.31,4.93-6.17,6.72-14.48,12.22-20.41,5.61-5.69,12.68-10.28,20.7-11.46,0,0,.05,.21,.05,.21h0Z"/>
  </g>
  <path class="cls-3" d="M172.78,145.95c-63.89,.71-81.28,.71-145.17,0,63.89-.71,81.28-.71,145.17,0h0Z"/>
</svg>