<?xml version="1.0" encoding="UTF-8"?>
<svg id="Layer_1" data-name="Layer 1" xmlns="http://www.w3.org/2000/svg" viewBox="0 0 200 200">
  <defs>
    <style>
      .cls-1 {
        fill: #f9ea35;
      }

      .cls-2 {
        fill: #ff8db0;
      }

      .cls-3 {
        fill: #6fd899;
      }

      .cls-4 {
        fill: #3a7491;
      }

      .cls-5 {
        fill: #5dbae8;
      }
    </style>
  </defs>
  <g>
    <circle class="cls-2" cx="101.19" cy="57.92" r="5.02"/>
    <path class="cls-5" d="M105.92,62.75c.85-1.2,1.82-2.44,2.13-3.91,.29-1.34-.36-4.42,1.59-4.88,1.73-.41,2.57,1.92,2.78,3.23,.38,2.35-.51,4.69-1.89,6.57-1.68,2.3-4.17,3.8-6.05,5.93-1.48,1.68-3.32,5.68-3.32,5.68,0-7.54,4.76-12.63,4.76-12.63Z"/>
    <path class="cls-3" d="M109.93,68.01c1.43-.91,3.02-1.82,3.77-3.16,.69-1.22,.47-4.42,3.24-4.27,2.46,.13,3.09,2.66,3.09,4,0,2.41-1.73,4.42-4.02,5.84-2.8,1.73-6.54,2.43-9.57,3.93-2.39,1.19-5.79,4.53-5.79,4.53,1.65-7.36,9.27-10.86,9.27-10.86Z"/>
    <path class="cls-5" d="M95.54,62.75c-.85-1.2-1.82-2.44-2.13-3.91-.29-1.34,.36-4.42-1.59-4.88-1.73-.41-2.57,1.92-2.78,3.23-.38,2.35,.51,4.69,1.89,6.57,1.68,2.3,4.17,3.8,6.05,5.93,1.48,1.68,3.32,5.68,3.32,5.68,0-7.54-4.76-12.63-4.76-12.63Z"/>
    <path class="cls-3" d="M91.54,68.01c-1.43-.91-3.02-1.82-3.77-3.16-.69-1.22-.47-4.42-3.24-4.27-2.46,.13-3.09,2.66-3.09,4,0,2.41,1.73,4.42,4.02,5.84,2.8,1.73,6.54,2.43,9.57,3.93,2.39,1.19,5.79,4.53,5.79,4.53-1.65-7.36-9.27-10.86-9.27-10.86Z"/>
  </g>
  <path class="cls-4" d="M138.07,149.03c-21.57,.24-43.14,.79-64.72,.64,0,0-8.09,.01-8.09,.01h-2.03c-3.66-.03-7.13-2.39-8.51-5.78-.57-1.32-.75-2.87-.72-4.22v-8.09s-.07-32.36-.07-32.36c-.02-12.92-.07-39.93-.08-52.58,.03-1.14-.09-3.08,.26-4.22,.94-4.4,5.33-7.63,9.77-7.37,0,0,4.04,0,4.04,0,0,0,8.09,0,8.09,0,10.27,0,37.92,.03,48.54,.03,.22,0,.43,.09,.58,.24,0,0,22.22,22.01,22.22,22.01,.16,.15,.24,.36,.24,.57l-.03,48.04c-.12,9.43,.19,20.68-.27,30.03-.15,1.71,0,4.34-.39,6.05-.91,4.03-4.71,7.05-8.81,7h0Zm0,0c4.04,.04,7.75-3.12,8.29-7.1,.22-1.6-.04-4.27-.07-5.94-.08-2-.16-4-.19-6-.18-16.02-.06-55.51-.12-72.06,0,0,.24,.57,.24,.57l-22.25-21.97,.58,.24c-10.76,0-38.15,.03-48.54,.03,0,0-8.09,0-8.09,0,0,0-4.04,0-4.04,0-4.43-.3-8.4,3.42-8.36,7.85-.02,13.59-.07,40.74-.09,54.61,0,0-.05,32.36-.05,32.36,0,0-.01,8.09-.01,8.09-.03,1.34,.12,2.53,.6,3.7,1.18,2.91,4.14,4.95,7.28,4.97,0,0,2.01,.01,2.01,.01,24.25-.13,48.57,.32,72.81,.66h0Z"/>
  <g>
    <path class="cls-4" d="M75.82,90.15c.48,0,.96,0,1.46,0,.5,0,.99,.02,1.47,.04,.48,.02,.93,.06,1.34,.1l-.11,1.49h-3.38c-.24,0-.43,.06-.55,.18-.12,.12-.19,.29-.19,.51v7.03h-2.07v-7.45c0-.58,.18-1.04,.55-1.38s.86-.52,1.46-.52Zm-1.77,3.94h5.44v1.46h-5.44v-1.46Z"/>
    <path class="cls-4" d="M85.03,90c.74,0,1.36,.08,1.88,.24,.51,.16,.92,.42,1.23,.78s.54,.86,.68,1.49c.14,.62,.22,1.41,.22,2.34s-.07,1.72-.22,2.34-.37,1.12-.68,1.49c-.31,.36-.72,.62-1.23,.78-.51,.16-1.14,.24-1.88,.24s-1.36-.08-1.88-.24c-.51-.16-.93-.42-1.24-.78-.31-.37-.54-.86-.69-1.49-.14-.63-.22-1.41-.22-2.34s.07-1.72,.22-2.34c.14-.63,.37-1.12,.69-1.49,.32-.36,.73-.62,1.24-.78,.51-.16,1.14-.24,1.88-.24Zm0,1.63c-.48,0-.85,.09-1.11,.28-.27,.19-.46,.52-.57,.98-.11,.46-.17,1.11-.17,1.95s.06,1.48,.17,1.94,.3,.8,.57,.99c.27,.19,.64,.28,1.11,.28s.83-.09,1.1-.28c.26-.19,.45-.52,.57-.99,.11-.47,.17-1.12,.17-1.94s-.06-1.49-.17-1.95c-.11-.46-.3-.79-.57-.98-.27-.19-.63-.28-1.1-.28Z"/>
    <path class="cls-4" d="M94.2,90.06c.82,0,1.48,.08,1.99,.25,.51,.17,.88,.45,1.12,.85,.24,.4,.36,.96,.36,1.67,0,.43-.06,.81-.17,1.14-.11,.33-.3,.59-.56,.79-.26,.2-.62,.32-1.07,.38v.07c.16,.03,.33,.09,.51,.19,.17,.1,.34,.25,.49,.44,.15,.19,.27,.45,.34,.78l.81,2.9h-2.17l-.72-2.83c-.08-.31-.2-.52-.36-.63-.16-.12-.38-.18-.65-.18-.61,0-1.13,0-1.55,0-.42,0-.77-.01-1.05-.02-.28,0-.54-.02-.76-.03l.04-1.5h3.36c.36,0,.65-.04,.86-.11s.36-.21,.45-.41c.08-.2,.13-.47,.13-.82s-.04-.64-.13-.83c-.09-.19-.23-.33-.45-.41s-.5-.12-.86-.12c-.85,0-1.56,0-2.15,.01-.58,0-.99,.02-1.2,.04l-.2-1.47c.38-.04,.73-.08,1.07-.09,.33-.02,.7-.03,1.09-.03,.39,0,.87,0,1.43,0Zm-1.55,.13v9.32h-2.04v-9.32h2.04Z"/>
    <path class="cls-4" d="M108.88,90.19c.49,0,.74,.25,.76,.76l.35,8.56h-1.9l-.31-7.72h-.24l-1.5,5.81c-.08,.43-.35,.65-.81,.65h-1.3c-.46,0-.74-.22-.84-.65l-1.5-5.81h-.23l-.28,7.72h-1.92l.35-8.56c.02-.5,.27-.76,.77-.76h1.93c.44,0,.71,.22,.81,.66l1.2,4.68c.05,.22,.1,.43,.13,.66s.08,.44,.12,.67h.18c.04-.22,.09-.45,.13-.67,.04-.22,.08-.44,.13-.67l1.19-4.67c.09-.44,.36-.66,.81-.66h1.97Z"/>
    <path class="cls-4" d="M115.54,95.43v1.27h-4.02v-1.27h4.02Z"/>
    <path class="cls-4" d="M120.48,90.19v9.32h-2.05v-6.6c0-.17,0-.34,.01-.51,0-.17,.03-.33,.07-.51l-2.21,.57-.24-1.34,2.38-.93h2.05Z"/>
    <path class="cls-4" d="M126.33,90.03c.22,0,.54,.01,.95,.03,.4,.02,.83,.1,1.27,.22l-.11,1.3c-.23,0-.45-.02-.65-.02-.2,0-.41,0-.63,0h-.82c-.4,0-.72,.04-.98,.13-.26,.09-.46,.25-.59,.49-.14,.24-.23,.6-.28,1.07-.05,.47-.08,1.09-.08,1.86,0,.62,.01,1.13,.04,1.53,.03,.4,.09,.7,.18,.92,.09,.22,.24,.37,.44,.46,.2,.09,.47,.13,.82,.13,.4,0,.7-.06,.89-.19,.19-.13,.31-.32,.37-.58,.05-.26,.08-.59,.08-1s-.04-.71-.11-.93c-.07-.23-.21-.38-.4-.47s-.47-.14-.82-.14c-.25,0-.48,.03-.7,.09-.21,.06-.44,.17-.68,.32s-.53,.36-.88,.63l-.05-.78c.3-.45,.58-.8,.85-1.05,.27-.25,.57-.42,.89-.51,.32-.09,.71-.14,1.16-.14,.69,0,1.23,.1,1.61,.3,.38,.2,.65,.51,.81,.94,.16,.43,.24,1,.24,1.71,0,.55-.04,1.03-.13,1.45-.09,.42-.25,.77-.49,1.05-.24,.28-.57,.49-1,.63-.43,.14-.99,.21-1.68,.21s-1.24-.07-1.69-.22c-.45-.14-.8-.39-1.06-.74s-.44-.82-.55-1.43-.16-1.37-.16-2.29c0-1.08,.08-1.95,.24-2.61,.16-.66,.41-1.16,.73-1.5,.32-.34,.73-.57,1.23-.69,.5-.12,1.07-.18,1.73-.18Z"/>
  </g>
  <path class="cls-4" d="M70.92,120.11l59.63,.5-59.63,.5c-.65,0-.67-1,0-1h0Z"/>
  <path class="cls-4" d="M70.92,128.75l42.34,.5-42.34,.5c-.66,0-.67-1,0-1h0Z"/>
  <path class="cls-5" d="M65.12,159.5l-1,13.04-1-13.04c-.07-1.42,2.07-1.42,2,0h0Z"/>
  <path class="cls-5" d="M102.34,159.5l-1,26.09-1-26.09c-.02-1.36,2.02-1.37,2,0h0Z"/>
  <path class="cls-5" d="M140.52,159.5l-1,15.41-1-15.41c-.05-1.4,2.05-1.4,2,0h0Z"/>
  <g>
    <polygon class="cls-1" points="146.54 57.92 124.55 57.92 124.55 35.93 146.54 57.92"/>
    <path class="cls-4" d="M147.09,57.92c-7.42,.02-14.91,.2-22.54,.3-.16,0-.29-.13-.29-.29,0,0-.29-21.99-.29-21.99,0-.32,.25-.59,.57-.59,.17,0,.32,.07,.43,.18,7.46,7.22,14.96,14.86,22.13,22.4h0Zm-1.08,0c-7.5-7.12-14.68-14.11-21.87-21.57,0,0,1-.41,1-.41l-.29,21.99-.29-.29c7.05,.09,14.21,.25,21.46,.29h0Z"/>
  </g>
</svg>