<?xml version="1.0" encoding="UTF-8"?>
<svg id="Layer_1" data-name="Layer 1" xmlns="http://www.w3.org/2000/svg" viewBox="0 0 200 200">
  <defs>
    <style>
      .cls-1 {
        fill: #f8e849;
      }

      .cls-2 {
        fill: #fff;
      }

      .cls-3 {
        fill: #97d7ff;
      }

      .cls-4 {
        fill: #4286b8;
      }
    </style>
  </defs>
  <g>
    <circle class="cls-2" cx="105.33" cy="98.94" r="54.84"/>
    <path class="cls-4" d="M78.51,146.77c-19.09-10.41-30.48-32.75-27.78-54.33,4.49-39.02,47.4-60.93,81.68-41.77,34.23,19.25,37.91,67.3,6.95,91.48-17.01,13.55-42,15.49-60.84,4.62h0Zm0,0c18.83,10.76,43.81,8.83,60.65-4.87,30.29-23.96,26.5-71.56-7.25-90.36-33.64-18.99-76.24,2.6-80.88,40.94-2.91,21.51,8.47,43.84,27.47,54.29h0Z"/>
  </g>
  <g>
    <circle class="cls-3" cx="105.33" cy="98.94" r="34.86"/>
    <path class="cls-4" d="M88.28,129.34c-27.1-15.37-22.41-55.59,7.49-64.37,18.5-5.44,38.52,5.78,43.52,24.41,8.11,30.1-23.77,55.07-51.02,39.96h0Zm0,0c27.12,14.89,58.49-9.95,50.19-39.73-6.61-23.44-35.32-32.79-54.49-17.79-19.5,15.06-17.2,45.48,4.3,57.52h0Z"/>
  </g>
  <g>
    <circle class="cls-2" cx="105.33" cy="98.94" r="18.45"/>
    <path class="cls-4" d="M96.31,115.04c-14.39-8.05-11.94-29.61,3.91-34.27,9.8-2.99,20.73,3.14,23.29,13.06,4.3,15.96-12.83,29.29-27.2,21.21h0Zm0,0c14.25,7.87,30.88-5.37,26.38-20.98-2.49-9.31-12.99-15.2-22.23-12.47-15.67,4.3-18.29,25.39-4.14,33.45h0Z"/>
  </g>
  <path class="cls-4" d="M105.08,80.93c.68,12.09,.68,24.3,0,36.39-.68-12.1-.68-24.3,0-36.39h0Z"/>
  <path class="cls-4" d="M123.28,99.13c-12.09,.68-24.3,.68-36.39,0,12.1-.68,24.3-.68,36.39,0h0Z"/>
  <g>
    <g>
      <path class="cls-2" d="M66.82,151.01l-15.36-7.45c-2.77-1.35-3.07-5.18-.53-6.93l54.16-37.41-1.06,58.66c-.15,2.88-3.19,4.67-5.78,3.41l-21.59-5.5"/>
      <path class="cls-4" d="M66.82,151.01c-1.86-.53-3.59-1.32-5.31-2.12-2.56-1.22-7.75-3.67-10.31-4.9-3.16-1.44-3.4-6.19-.42-7.95,0,0,2.35-1.62,2.35-1.62,2.96-2.04,11.03-7.61,14.09-9.72,0,0,37.57-25.92,37.57-25.92,.24-.17,.57-.11,.74,.13,.41,.28-.71,33.27-.53,33.61,0,0-.32,16.65-.32,16.65-.06,2.77-.14,5.55-.24,8.32,.03,1.46-.73,3.04-2.02,3.82-1.17,.87-3.22,.88-4.24,.28-7.18-1.89-14.35-3.83-21.51-5.81,7.23,1.69,14.46,3.43,21.67,5.2,1.18,.58,2.63,.48,3.7-.26,1.07-.71,1.69-1.94,1.61-3.26,0-2.78,.02-5.55,.06-8.33,.18-10.59,.67-38.99,.86-49.93,0,0,.83,.45,.83,.45l-37.54,25.97c-3.08,2.14-11.09,7.67-14.08,9.74-1.12,.88-3.49,2-3.86,3.52-.53,1.57,.22,3.47,1.74,4.2l5.11,2.53c3.04,1.53,7.32,3.44,10.07,5.39h0Z"/>
    </g>
    <path class="cls-1" d="M70.97,165.78l-4.21-15.2,32.27-42.24c.59-.75,1.78-.07,1.43,.82l-20.44,47.58-5.32,9.87c-1.13,1.31-3.26,.84-3.73-.83Z"/>
    <path class="cls-4" d="M80.87,156.17c-2.46,4.52-5.09,8.95-7.79,13.34-.2,.35-.77,.27-.87-.11-1.78-5.47-3.42-10.97-4.73-16.58,2.15,5.34,3.96,10.79,5.65,16.28,0,0-.87-.11-.87-.11,2.77-4.34,5.61-8.64,8.61-12.82h0Z"/>
    <g>
      <line class="cls-3" x1="46.36" y1="147.71" x2="34.83" y2="158.67"/>
      <path class="cls-4" d="M46.7,148.07l-11.87,10.59,11.18-11.32c.48-.47,1.19,.27,.69,.72h0Z"/>
    </g>
    <g>
      <line class="cls-3" x1="95.49" y1="166.44" x2="91.84" y2="182.84"/>
      <path class="cls-4" d="M95.98,166.55l-4.14,16.3,3.16-16.51c.13-.66,1.14-.44,.98,.22h0Z"/>
    </g>
  </g>
</svg>