<?xml version="1.0" encoding="UTF-8"?>
<svg id="Layer_1" data-name="Layer 1" xmlns="http://www.w3.org/2000/svg" viewBox="0 0 200 200">
  <defs>
    <style>
      .cls-1 {
        fill: #f9ea35;
      }

      .cls-2 {
        fill: #00efb0;
      }

      .cls-3 {
        fill: #fff;
      }

      .cls-4 {
        fill: #fd8eb0;
      }

      .cls-5 {
        fill: #ff8db0;
      }

      .cls-6 {
        fill: #97d7ff;
      }

      .cls-7 {
        fill: #4286b8;
      }
    </style>
  </defs>
  <path class="cls-7" d="M38.03,169.43c38.37-1.37,76.8-1.38,115.17,0-38.37,1.38-76.8,1.37-115.17,0h0Z"/>
  <path class="cls-4" d="M89.58,112.54c-11.96,11.57,2.1,23.94-2.58,37.26-1.45,4.34-4.35,7.92-7.56,10.99,3.03-3.24,5.69-6.96,6.84-11.2,2.64-9.11-3.41-16.95-3.97-26.06-.31-4.79,1.93-9.54,5.07-13.03,1.37-1.51,3.61,.56,2.2,2.04h0Z"/>
  <g>
    <path class="cls-3" d="M90.71,88l-15.12-10.91c-2.73-1.97-2.32-6.15,.74-7.56l65.3-30.02-12.2,62.89c-.71,3.06-4.31,4.42-6.86,2.58l-22.18-9.99"/>
    <path class="cls-7" d="M90.71,88c-3.61-1.14-7.52-4.52-10.64-6.55,0,0-5.12-3.58-5.12-3.58-1.02-.74-1.83-1.86-2.11-3.13-.57-2.22,.43-4.72,2.39-5.93,.48-.33,3.08-1.44,3.64-1.73,3.56-1.64,13.29-6.11,16.98-7.81,0,0,45.3-20.79,45.3-20.79,.56-.26,1.22-.01,1.48,.54-1.78,12.25-8.3,42.34-10.44,54.21-.6,2.97-1.24,5.93-1.91,8.89-.29,1.68-1.48,3.33-3.12,3.96-1.45,.8-4.11,.25-4.87-.53-7.33-3.47-14.65-6.97-21.92-10.58,7.56,3.08,15.09,6.22,22.56,9.46,2.2,1.6,5.56,.13,5.78-2.64,.48-2.99,.99-5.98,1.55-8.96l3.41-17.85s6.84-35.7,6.84-35.7l1.56,1.23-45.27,20.85c-3.72,1.72-13.38,6.15-16.98,7.81,0,0-2.83,1.3-2.83,1.3-2.42,.88-2.92,4.24-.85,5.76,2.5,1.86,7.48,5.59,9.98,7.45,1.66,1.24,3.27,2.56,4.57,4.31h0Z"/>
  </g>
  <path class="cls-2" d="M58.64,148.87c-.02,2.98-2.12,5.51-5.06,5.43-3.74-.54-4.77-2.26-5.31-5.56,.02-2.98,2.12-5.51,5.06-5.43,3.74,.54,4.77,2.26,5.31,5.56Zm-8.43,.02c.35,2.21,1.86,3.82,3.76,3.84,1.8-.04,2.99-1.86,2.72-4.02-.35-2.21-1.86-3.82-3.76-3.84-1.8,.04-2.99,1.86-2.72,4.02Z"/>
  <path class="cls-5" d="M108.83,158.2c-3.43,.21-6.15-2.23-6.07-6.36,.08-2.6,2.93-6.02,6.36-6.08,3.43-.21,6.15,2.23,6.08,6.36-.08,2.6-2.93,6.02-6.36,6.08Zm.24-10.4c-2.3,.46-4.21,2.79-4.26,4.99-.05,2.4,1.77,3.87,4.07,3.39,2.3-.46,4.21-2.79,4.26-4.99,.05-2.4-1.77-3.87-4.07-3.39Z"/>
  <path class="cls-1" d="M67.68,109.77c-1.09,.16-1.67,.81-1.82,1.91-.36,2.71-.45,2.81-3.21,3.11-1.12,.12-1.96,.61-1.95,1.75,0,1.16,.78,1.8,1.99,1.9,2.52,.21,2.6,.31,2.96,2.81,.15,1.06,.74,1.72,1.82,1.71,1.07-.01,1.64-.65,1.78-1.74,.23-1.9,.81-2.44,2.64-2.57,1.17-.08,1.98-.64,2.05-1.83,.07-1.21-.83-1.63-1.87-1.83-2.12-.4-2.56-.91-2.6-3.13-.02-1.21-.52-1.92-1.79-2.09Z"/>
  <path class="cls-6" d="M99.4,123.31c-.59,.66-.68,1.36-.35,2.22,.82,1.9,.81,2.21-.71,3.02-.62,.18-.93,.59-.49,1.48,.45,.82,1.15,.88,1.91,.56,1.58-.78,1.66-1.17,2.83,.19,.49,.6,1.1,.88,1.74,.32,.63-.54,.73-1.21,.39-2.06-.59-1.39-.45-2.08,.58-2.53,.66-.16,.93-.57,.52-1.56-.42-.91-1.12-.9-1.81-.65-1.41,.57-1.87,.88-2.74-.41-.48-.72-1.05-1.09-1.86-.57Z"/>
  <path class="cls-6" d="M92.39,104.67l-1.66-17.15,36.33-32.38c.78-.69,1.92,.26,1.38,1.15l-24.61,40.35-7.58,9.61c-1.46,1.2-3.67,.29-3.86-1.59Z"/>
  <path class="cls-7" d="M104.23,94.65c-2.18,3.37-4.58,6.58-7.05,9.73-.83,1.04-1.64,2.1-2.5,3.12-.5,.63-1.59,.33-1.69-.46-1.16-6.3-2.11-12.62-2.28-19.05,1.98,6.12,3.18,12.39,4.18,18.72,0,0-1.69-.46-1.69-.46,3.51-4.03,7.11-7.97,11.03-11.61h0Z"/>
  <path class="cls-6" d="M120.38,110.87l-7.98,13.57,6.2-14.47c.58-1.27,2.46-.32,1.78,.9h0Z"/>
  <path class="cls-6" d="M73.18,81.23l-4.18,4.08-6.78,6.63,9.47-12.05c.89-1.08,2.47,.33,1.49,1.34h0Z"/>
</svg>