<?xml version="1.0" encoding="UTF-8"?>
<svg xmlns="http://www.w3.org/2000/svg" viewBox="0 0 200 200">
  <defs>
    <style>
      .cls-1 {
        fill: #f9ea35;
      }

      .cls-2 {
        fill: #00efb0;
      }

      .cls-3 {
        fill: #fff;
      }

      .cls-4 {
        fill: #fd8eb0;
      }

      .cls-5 {
        fill: #97d7ff;
      }

      .cls-6 {
        fill: #4479a5;
      }

      .cls-7 {
        fill: #3a7491;
      }

      .cls-8 {
        isolation: isolate;
      }

      .cls-9 {
        mix-blend-mode: multiply;
        opacity: .4;
      }
    </style>
  </defs>
  <g class="cls-8">
    <g id="Layer_1" data-name="Layer 1">
      <g>
        <g>
          <path class="cls-3" d="M132.09,50.28h21.37c2.48,0,3.64,3.06,1.79,4.71l-23.16,22.55"/>
          <path class="cls-6" d="M132.09,50.23c6.22-.41,12.58-.51,18.82-.23,1.11,.11,2.76-.1,3.79,.39,1.2,.58,1.9,2.05,1.53,3.35-.28,1.16-1.65,2.13-2.38,2.99-6.97,7.22-14.12,14.42-21.79,20.83,6.63-7.49,14.01-14.46,21.42-21.23,.69-.73,2.18-1.68,2.42-2.68,.36-1.12-.24-2.49-1.33-2.96-.93-.44-2.62-.1-3.65-.13,0,0-3.76,.14-3.76,.14-4.91-.03-10.43,.15-15.05-.47h0Z"/>
        </g>
        <g>
          <path class="cls-3" d="M132.09,90.11h21.37c2.48,0,3.64,3.06,1.79,4.71l-23.16,22.55"/>
          <path class="cls-6" d="M132.09,90.06c6.22-.41,12.58-.51,18.82-.23,1.11,.11,2.76-.1,3.79,.39,1.2,.58,1.9,2.05,1.53,3.35-.28,1.16-1.65,2.13-2.38,2.99-6.97,7.22-14.12,14.42-21.79,20.83,6.63-7.49,14.01-14.46,21.42-21.23,.69-.73,2.18-1.68,2.42-2.68,.36-1.12-.24-2.49-1.33-2.96-.93-.44-2.62-.1-3.65-.13,0,0-3.76,.14-3.76,.14-4.91-.03-10.43,.15-15.05-.47h0Z"/>
        </g>
        <g>
          <path class="cls-3" d="M132.09,127.73h21.37c2.48,0,3.64,3.06,1.79,4.71l-23.16,22.55"/>
          <path class="cls-6" d="M132.09,127.68c6.22-.41,12.58-.51,18.82-.23,1.11,.11,2.76-.1,3.79,.39,1.2,.58,1.9,2.05,1.53,3.35-.28,1.16-1.65,2.13-2.38,2.99-6.97,7.22-14.12,14.42-21.79,20.83,6.63-7.49,14.01-14.46,21.42-21.23,.69-.73,2.18-1.68,2.42-2.68,.36-1.12-.24-2.49-1.33-2.96-.93-.42-2.63-.11-3.65-.13,0,0-3.76,.14-3.76,.14-4.91-.03-10.43,.15-15.05-.47h0Z"/>
        </g>
        <g>
          <path class="cls-3" d="M132.09,168.1h-57.7V46.73c0-3.25,2.64-5.89,5.89-5.89h45.92c3.25,0,5.89,2.64,5.89,5.89v121.37Z"/>
          <path class="cls-6" d="M132.09,168.1c-16.39,.01-41.5,.57-57.7,.56-.31,0-.56-.25-.56-.56-.29-36.95-.35-78.02-.42-115.19,0,0,0-4.8,0-4.8-.07-1.74,.07-3.67,1.12-5.16,1.25-1.97,3.61-3.17,5.92-3.11,0,0,1.2,0,1.2,0,0,0,2.4,0,2.4,0l19.2,.04,19.2,.04s2.4,0,2.4,0c0,0,1.2,0,1.2,0,2.28-.05,4.6,1.13,5.83,3.08,1.03,1.47,1.18,3.37,1.1,5.1,0,28.64-.65,90.57-.88,119.98h0Zm0,0c-.33-29.63-.8-91.23-.88-119.99,.02-1.39,.02-2.95-.83-4.12-.94-1.46-2.62-2.3-4.35-2.25-.72,.02-2.84-.01-3.6,0,0,0-19.2,.04-19.2,.04l-19.2,.04c-.72,.03-2.88-.01-3.6,0-1.7-.04-3.33,.8-4.25,2.22-.84,1.16-.84,2.68-.81,4.06-.03,1.87-.06,40.3-.09,43.19,0,25.6-.18,51.19-.34,76.79,0,0-.56-.56-.56-.56,16.08,.22,41.43,.33,57.7,.56h0Z"/>
        </g>
        <g>
          <circle class="cls-4" cx="103.22" cy="66.25" r="12.29"/>
          <path class="cls-7" d="M115.61,66.25c.16,9.16-8.6,16.13-17.31,11.87-10.05-4.92-10.93-19.49-.19-24.19,8.86-3.77,17.67,3.04,17.49,12.32h0Zm-.2,0c-.05-9.96-13.31-14.86-20.22-8.03-7.6,7.34-2.85,20.07,8.03,19.49,6.06-.16,12.28-5.02,12.19-11.46h0Z"/>
        </g>
        <g>
          <circle class="cls-1" cx="103.22" cy="103.86" r="12.29"/>
          <path class="cls-7" d="M115.61,103.86c.16,9.16-8.6,16.13-17.31,11.87-10.05-4.92-10.93-19.49-.19-24.19,8.86-3.77,17.67,3.04,17.49,12.32h0Zm-.2,0c-.05-9.96-13.31-14.86-20.22-8.03-7.6,7.34-2.85,20.07,8.03,19.49,6.06-.16,12.28-5.02,12.19-11.46h0Z"/>
        </g>
        <g>
          <circle class="cls-2" cx="103.22" cy="141.48" r="12.29"/>
          <path class="cls-7" d="M115.61,141.48c.16,9.16-8.6,16.13-17.31,11.87-10.05-4.92-10.93-19.49-.19-24.19,8.86-3.77,17.67,3.04,17.49,12.32h0Zm-.2,0c-.05-9.96-13.31-14.86-20.22-8.03-7.6,7.34-2.85,20.07,8.03,19.49,6.06-.16,12.28-5.02,12.19-11.46h0Z"/>
        </g>
        <g class="cls-9">
          <path class="cls-5" d="M155.25,54.99l-7.48,8.61-15.69,13.94v-15.95c4.48-4.54,25.01-8.25,23.16-6.6Z"/>
        </g>
        <g class="cls-9">
          <path class="cls-5" d="M155.25,93.39l-7.48,8.61-15.69,13.94v-15.95c4.48-4.54,25.01-8.25,23.16-6.6Z"/>
        </g>
        <g class="cls-9">
          <path class="cls-5" d="M155.25,132.43l-7.48,8.61-15.69,13.94v-15.95c4.48-4.54,25.01-8.25,23.16-6.6Z"/>
        </g>
        <g>
          <path class="cls-3" d="M71.61,51.51h-23.59c-2.48,0-3.64,3.06-1.79,4.71l25.37,22.55"/>
          <path class="cls-6" d="M71.61,51.56c-5.34,.34-10.67,.44-16.01,.37l-4-.14c-2.39,0-6.11-.94-6.09,2.6,.05,1.33,1.38,2.01,2.35,2.9,8.08,6.83,16.64,14.02,23.72,21.51-8.91-7.04-17.33-14.65-25.54-22.48-1.69-1.55-.74-4.63,1.54-4.94,0,0,8.03-.29,8.03-.29,5.23,.02,11.07-.15,16.01,.47h0Z"/>
        </g>
        <g>
          <path class="cls-3" d="M71.61,91.34h-23.59c-2.48,0-3.64,3.06-1.79,4.71l25.37,22.55"/>
          <path class="cls-6" d="M71.61,91.39c-5.34,.34-10.67,.44-16.01,.37l-4-.14c-2.39,0-6.11-.94-6.09,2.6,.05,1.33,1.38,2.01,2.35,2.9,8.08,6.83,16.64,14.02,23.72,21.51-8.91-7.04-17.33-14.65-25.54-22.48-1.69-1.55-.74-4.63,1.54-4.94,0,0,8.03-.29,8.03-.29,5.23,.02,11.07-.15,16.01,.47h0Z"/>
        </g>
        <g>
          <path class="cls-3" d="M71.61,128.96h-23.59c-2.48,0-3.64,3.06-1.79,4.71l25.37,22.55"/>
          <path class="cls-6" d="M71.61,129.01c-5.34,.34-10.67,.44-16.01,.37,0,0-4-.14-4-.14-2.39,0-6.11-.94-6.09,2.6,.05,1.33,1.38,2.01,2.35,2.9,8.08,6.83,16.64,14.02,23.72,21.51-8.91-7.04-17.33-14.65-25.54-22.48-1.69-1.55-.74-4.63,1.54-4.94,0,0,8.03-.29,8.03-.29,5.23,.02,11.07-.15,16.01,.47h0Z"/>
        </g>
        <g class="cls-9">
          <path class="cls-5" d="M46.24,56.22l9.69,8.61,15.69,13.94v-15.95c-4.48-4.54-27.23-8.25-25.37-6.6Z"/>
        </g>
        <g class="cls-9">
          <path class="cls-5" d="M46.24,94.62l9.69,8.61,15.69,13.94v-15.95c-4.48-4.54-27.23-8.25-25.37-6.6Z"/>
        </g>
        <g class="cls-9">
          <path class="cls-5" d="M46.24,133.66l9.69,8.61,15.69,13.94v-15.95c-4.48-4.54-27.23-8.25-25.37-6.6Z"/>
        </g>
      </g>
    </g>
  </g>
</svg>