<?xml version="1.0" encoding="UTF-8"?>
<svg id="Layer_1" data-name="Layer 1" xmlns="http://www.w3.org/2000/svg" xmlns:xlink="http://www.w3.org/1999/xlink" viewBox="0 0 320 128">
  <defs>
    <style>
      .cls-1 {
        fill: none;
      }

      .cls-2 {
        clip-path: url(#clippath);
      }

      .cls-3 {
        fill: #fff;
      }

      .cls-4 {
        fill: #a9e0ff;
      }

      .cls-5 {
        fill: #186dc9;
      }
    </style>
    <clipPath id="clippath">
      <circle class="cls-1" cx="97.37" cy="28.92" r="12.5"/>
    </clipPath>
  </defs>
  <g>
    <g class="cls-2">
      <g>
        <g>
          <path class="cls-4" d="M83.04,27.36c-.66,.02-1.19-.35-1.19-.83s.54-2.66,1.19-3.79,2.44-4.76,2.44-5.3-1.36-1.39-3.02-.69-5.31,3.57-5.03,3.71,1.05,.99,1.05,1.38,.49,1.98,1.1,2.65,2.27,2.91,2.27,2.91c0,0,0,.39,0,.87s.27,2.17,.59,2.69,1.2,2.81,1.2,3.84,.55,3.01,1.23,2.12,2.5-4.01,2.5-4.57-.28-2.51-.63-3.08-3.04-1.94-3.69-1.92Z"/>
          <path class="cls-5" d="M84.52,37.52c-.08,0-.16-.02-.21-.04-.8-.27-1.06-2.09-1.06-2.68,0-.93-.83-3.14-1.14-3.64-.39-.63-.65-2.41-.65-2.89v-.75c-.33-.44-1.66-2.22-2.17-2.78-.68-.75-1.2-2.44-1.2-2.9-.02-.21-.62-.93-.83-1.04-.13-.07-.23-.23-.23-.37,.02-.71,4.05-3.5,5.27-4.01,1.23-.52,2.33-.27,2.94,.13,.38,.25,.6,.58,.6,.9,0,.7-1.97,4.59-2.49,5.49-.63,1.08-1.14,3.2-1.14,3.6,0,.08,.04,.16,.11,.23,.15,.15,.39,.23,.69,.22,.8-.04,3.62,1.44,4.03,2.1,.41,.67,.69,2.74,.69,3.27,0,.75-1.98,4.02-2.58,4.8-.22,.29-.46,.37-.64,.37Zm-2.31-9.94v.7c0,.5,.27,2.07,.54,2.49,.35,.57,1.25,2.91,1.25,4.04,0,.8,.31,1.75,.51,1.95,0-.01,.02-.03,.04-.05,.72-.94,2.39-3.88,2.42-4.35,0-.59-.3-2.42-.58-2.87-.27-.44-2.78-1.74-3.35-1.74h-.01c-.3,.01-.59-.04-.83-.16Zm.82-.22h0Zm-5.11-6.98c.4,.36,.92,1.01,.92,1.47,0,.31,.46,1.8,1,2.4,.37,.41,1.1,1.35,1.64,2.06,.1-.77,.61-2.69,1.23-3.75,.71-1.21,2.35-4.62,2.39-5.11,0-.04-.11-.19-.36-.33-.22-.12-1.01-.49-2.14-.01-1.37,.58-3.96,2.57-4.67,3.27Z"/>
        </g>
        <g>
          <path class="cls-4" d="M109.15,21.85c.28-.17,.51-.6,.51-.94s-2.05-2.55-4.56-4.14-10.87-2.58-12.22-1.66-4.07,3.76-3.09,3.92,4.19,.78,4.9,.8,2.88,.65,3.23,1.26,1.84,2.24,2.54,2.32,2.47,.73,2.47,1.25,.54,1.11,1.19,.19,2.57-2.76,2.87-2.65,1.86-.17,2.14-.35Z"/>
          <path class="cls-5" d="M103.46,25.7c-.09,0-.18-.02-.24-.04-.43-.14-.66-.61-.66-1.01-.12-.23-1.46-.8-2.13-.87-.93-.1-2.49-1.93-2.82-2.5-.25-.43-2.21-1.06-2.92-1.07-.53-.01-2.24-.32-3.6-.57-.56-.1-1.06-.19-1.35-.24-.27-.04-.46-.21-.51-.46-.22-1.01,2.5-3.5,3.45-4.14,1.59-1.08,10.09,.04,12.63,1.65,2.21,1.41,4.73,3.78,4.73,4.46,0,.47-.3,1.01-.69,1.26-.29,.18-1.79,.51-2.36,.41-.42,.19-1.94,1.64-2.54,2.49-.37,.51-.72,.64-.98,.64Zm-13.48-7.02c.3,.05,.74,.13,1.23,.22,1.27,.23,3.02,.54,3.49,.56,.69,.02,3.07,.63,3.55,1.45,.38,.65,1.78,2.08,2.25,2.13,.42,.04,2.81,.66,2.81,1.62,0,.15,.08,.28,.14,.29,.02,.01,.16-.02,.38-.32,.18-.25,2.56-3.07,3.31-2.78,.25,.06,1.58-.19,1.81-.32,.17-.11,.33-.41,.33-.62-.12-.28-1.94-2.27-4.38-3.83-2.39-1.52-10.6-2.49-11.81-1.67-1.23,.83-2.88,2.64-3.11,3.26Zm19.16,3.17h0Z"/>
        </g>
        <g>
          <path class="cls-4" d="M95.78,24.02c-.36-.6-1.24-1.09-1.95-1.1s-2.6,.5-2.6,1.09,.29,2.62,.65,3.2,1.3,3.11,1.3,4.29,.88,2.82,1.96,1.02c1.08-1.8,3.58-6.3,3.23-6.31s-2.22-1.59-2.58-2.19Z"/>
          <path class="cls-5" d="M94.19,33.7c-.09,0-.17-.01-.25-.03-.79-.22-1.14-1.39-1.14-2.16,0-1.08-.9-3.52-1.25-4.1-.42-.69-.71-2.84-.71-3.4,0-.2,.09-.39,.26-.56,.57-.56,2.08-.91,2.7-.91h.02c.85,.01,1.85,.58,2.27,1.29h0c.33,.54,1.99,1.92,2.31,2.01,.13,0,.24,.09,.3,.21,.31,.57-2.17,4.85-3.26,6.67-.46,.78-.92,.99-1.27,.99Zm-.38-10.41c-.71,0-2.08,.46-2.21,.74,0,.6,.31,2.51,.6,2.98,.38,.63,1.36,3.23,1.36,4.49,0,.69,.32,1.37,.59,1.44,.13,.03,.37-.11,.67-.61,1.12-1.87,2.82-4.99,3.15-5.88-.8-.44-2.23-1.78-2.5-2.23h0c-.29-.48-1.05-.91-1.64-.92h-.02Zm4.54,3.29h0Zm-.05,0s.03,0,.05,0c-.01,0-.03,0-.05,0Z"/>
        </g>
        <g>
          <path class="cls-4" d="M106.89,31.93c-.62,.13-1.12,.62-1.12,1.07s-.03,1.67-.06,1.68,.02,.77,.19,1.66,1.01,2.13,1.49,.95,1.66-4.22,1.66-4.58-1.54-.92-2.15-.78Z"/>
          <path class="cls-5" d="M106.9,38.16s-.05,0-.07,0c-.68-.06-1.17-1.05-1.3-1.73-.22-1.12-.24-1.62-.18-1.86,.02-.21,.05-1.09,.05-1.56,0-.63,.62-1.27,1.42-1.44,.62-.13,1.83,.24,2.32,.63,.19,.16,.29,.33,.29,.52,0,.41-.92,2.79-1.69,4.72-.24,.61-.6,.72-.83,.72Zm-.83-3.37c0,.18,.05,.77,.19,1.49,.12,.59,.49,1.1,.63,1.13,0,0,.06-.06,.13-.25,.86-2.15,1.51-3.93,1.62-4.38-.26-.22-1.27-.57-1.69-.48-.47,.1-.82,.46-.82,.71,0,1.06-.01,1.55-.07,1.78Zm-.36-.1h0Zm2.99-1.86h0Z"/>
        </g>
      </g>
    </g>
    <path class="cls-5" d="M97.37,41.8c-7.1,0-12.88-5.78-12.88-12.88s5.78-12.88,12.88-12.88,12.88,5.78,12.88,12.88-5.78,12.88-12.88,12.88Zm0-25c-6.69,0-12.12,5.44-12.12,12.12s5.44,12.12,12.12,12.12,12.12-5.44,12.12-12.12-5.44-12.12-12.12-12.12Z"/>
  </g>
  <g>
    <path class="cls-5" d="M295.86,40.58h-17.55c-1.33,0-2.41-1.08-2.41-2.41v-.52c0-1.33,1.08-2.41,2.41-2.41h17.55c1.33,0,2.41,1.08,2.41,2.41v.52c0,1.33-1.08,2.41-2.41,2.41Zm-17.55-4.59c-.91,0-1.66,.74-1.66,1.66v.52c0,.91,.74,1.66,1.66,1.66h17.55c.91,0,1.66-.74,1.66-1.66v-.52c0-.91-.74-1.66-1.66-1.66h-17.55Z"/>
    <path class="cls-5" d="M294.72,35.99h-17.55c-1.33,0-2.41-1.08-2.41-2.41v-.52c0-1.33,1.08-2.41,2.41-2.41h17.55c1.33,0,2.41,1.08,2.41,2.41v.52c0,1.33-1.08,2.41-2.41,2.41Zm-17.55-4.59c-.91,0-1.66,.74-1.66,1.66v.52c0,.91,.74,1.66,1.66,1.66h17.55c.91,0,1.66-.74,1.66-1.66v-.52c0-.91-.74-1.66-1.66-1.66h-17.55Z"/>
    <path class="cls-5" d="M295.86,31.4h-17.55c-1.33,0-2.41-1.08-2.41-2.41v-.52c0-1.33,1.08-2.41,2.41-2.41h17.55c1.33,0,2.41,1.08,2.41,2.41v.52c0,1.33-1.08,2.41-2.41,2.41Zm-17.55-4.59c-.91,0-1.66,.74-1.66,1.66v.52c0,.91,.74,1.66,1.66,1.66h17.55c.91,0,1.66-.74,1.66-1.66v-.52c0-.91-.74-1.66-1.66-1.66h-17.55Z"/>
    <path class="cls-5" d="M294.72,26.82h-17.55c-1.33,0-2.41-1.08-2.41-2.41v-.52c0-1.33,1.08-2.41,2.41-2.41h17.55c1.33,0,2.41,1.08,2.41,2.41v.52c0,1.33-1.08,2.41-2.41,2.41Zm-17.55-4.59c-.91,0-1.66,.74-1.66,1.66v.52c0,.91,.74,1.66,1.66,1.66h17.55c.91,0,1.66-.74,1.66-1.66v-.52c0-.91-.74-1.66-1.66-1.66h-17.55Z"/>
    <path class="cls-5" d="M294.72,22.23h-17.55c-1.33,0-2.41-1.08-2.41-2.41v-.52c0-1.33,1.08-2.41,2.41-2.41h17.55c1.33,0,2.41,1.08,2.41,2.41v.52c0,1.33-1.08,2.41-2.41,2.41Zm-17.55-4.59c-.91,0-1.66,.74-1.66,1.66v.52c0,.91,.74,1.66,1.66,1.66h17.55c.91,0,1.66-.74,1.66-1.66v-.52c0-.91-.74-1.66-1.66-1.66h-17.55Z"/>
    <g>
      <circle class="cls-3" cx="294.77" cy="29.94" r="10.64"/>
      <path class="cls-5" d="M294.77,40.96c-6.08,0-11.02-4.94-11.02-11.02s4.94-11.02,11.02-11.02,11.02,4.94,11.02,11.02-4.94,11.02-11.02,11.02Zm0-21.29c-5.66,0-10.27,4.61-10.27,10.27s4.61,10.27,10.27,10.27,10.27-4.61,10.27-10.27-4.61-10.27-10.27-10.27Z"/>
    </g>
    <g>
      <circle class="cls-4" cx="294.77" cy="29.94" r="8.45"/>
      <path class="cls-5" d="M294.77,38.77c-4.87,0-8.83-3.96-8.83-8.83s3.96-8.83,8.83-8.83,8.83,3.96,8.83,8.83-3.96,8.83-8.83,8.83Zm0-16.9c-4.45,0-8.08,3.62-8.08,8.08s3.62,8.08,8.08,8.08,8.08-3.62,8.08-8.08-3.62-8.08-8.08-8.08Z"/>
    </g>
    <path class="cls-5" d="M292.24,25.65h6.7c-.39,.62-.62,.95-.67,.99h-1.79c.25,.29,.41,.64,.5,1.05h1.91s.03,.01,.03,.03c-.43,.64-.65,.96-.66,.96h-1.24c-.03,.33-.19,.73-.47,1.19-.38,.47-.75,.77-1.09,.91-.65,.31-1.27,.47-1.87,.47h0c0,.06,.15,.25,.44,.59l3.31,3.99v.19s-.01,.03-.04,.03h-1.46c-2.62-3.05-3.93-4.58-3.93-4.6v-.96c.25,.03,.52,.05,.83,.05,1.47,0,2.38-.48,2.74-1.43,.06-.14,.08-.28,.08-.43h-3.99s-.03,0-.03-.03c.44-.64,.67-.96,.68-.96h3.16c-.18-.38-.53-.67-1.05-.87-.37-.12-.71-.18-1-.18h-1.77v-.03c.43-.64,.65-.95,.66-.95Z"/>
    <path class="cls-5" d="M304.46,40.74h-30.75c-.21,0-.38-.17-.38-.38s.17-.38,.38-.38h30.75c.21,0,.38,.17,.38,.38s-.17,.38-.38,.38Z"/>
  </g>
  <g>
    <g>
      <polygon class="cls-3" points="37.77 103.47 19.28 89.98 46.64 80.1 37.77 103.47"/>
      <path class="cls-5" d="M37.77,103.84c-.08,0-.16-.02-.22-.07l-18.49-13.49c-.11-.08-.17-.22-.15-.36,.02-.14,.11-.25,.24-.3l27.36-9.87c.13-.05,.29-.02,.39,.09,.1,.1,.13,.26,.08,.4l-8.87,23.36c-.04,.11-.13,.19-.24,.23-.04,.01-.07,.02-.11,.02Zm-17.7-13.75l17.52,12.78,8.41-22.14-25.93,9.35Z"/>
    </g>
    <g>
      <polygon class="cls-4" points="28.92 97.01 26.15 100.6 24.21 93.57 46.64 80.1 28.92 97.01"/>
      <path class="cls-5" d="M26.15,100.97s-.05,0-.07,0c-.14-.03-.25-.13-.29-.27l-1.94-7.03c-.04-.16,.02-.33,.17-.42l22.43-13.47c.16-.1,.38-.06,.49,.09,.12,.15,.1,.37-.04,.5l-17.7,16.88-2.75,3.57c-.07,.09-.18,.15-.3,.15Zm-1.5-7.23l1.66,6.03,2.31-3s.02-.03,.04-.04l15.28-14.57-19.29,11.58Z"/>
    </g>
    <g>
      <line class="cls-4" x1="34.32" y1="104.47" x2="32.96" y2="107.1"/>
      <path class="cls-5" d="M32.96,107.48c-.06,0-.12-.01-.17-.04-.18-.09-.26-.32-.16-.5l1.35-2.64c.09-.19,.32-.26,.5-.16,.18,.09,.26,.32,.16,.5l-1.35,2.64c-.07,.13-.2,.2-.33,.2Z"/>
    </g>
    <g>
      <line class="cls-4" x1="17.35" y1="91.78" x2="14.58" y2="92.83"/>
      <path class="cls-5" d="M14.58,93.21c-.15,0-.29-.09-.35-.24-.07-.19,.02-.41,.22-.48l2.77-1.05c.2-.07,.41,.02,.48,.22,.07,.19-.02,.41-.22,.48l-2.77,1.05s-.09,.02-.13,.02Z"/>
    </g>
  </g>
  <g>
    <path class="cls-5" d="M162.12,108.77c-7.42,0-13.46-6.04-13.46-13.46,0-.21,.17-.38,.38-.38s.38,.17,.38,.38c0,7.01,5.7,12.71,12.71,12.71s12.71-5.7,12.71-12.71-5.7-12.71-12.71-12.71h-13.09c-.21,0-.38-.17-.38-.38s.17-.38,.38-.38h13.09c7.42,0,13.46,6.04,13.46,13.46s-6.04,13.46-13.46,13.46Z"/>
    <path class="cls-5" d="M152.08,86.38c-.1,0-.19-.04-.27-.11l-3.73-3.73c-.07-.07-.11-.17-.11-.27s.04-.19,.11-.27l3.47-3.47c.15-.15,.38-.15,.53,0,.15,.15,.15,.38,0,.53l-3.2,3.2,3.47,3.47c.15,.15,.15,.38,0,.53-.07,.07-.17,.11-.27,.11Z"/>
    <g>
      <g>
        <circle class="cls-4" cx="157.5" cy="91.46" r="2.97"/>
        <path class="cls-5" d="M157.5,94.81c-1.84,0-3.34-1.5-3.34-3.34s1.5-3.34,3.34-3.34,3.34,1.5,3.34,3.34-1.5,3.34-3.34,3.34Zm0-5.94c-1.43,0-2.59,1.16-2.59,2.59s1.16,2.59,2.59,2.59,2.59-1.16,2.59-2.59-1.16-2.59-2.59-2.59Z"/>
      </g>
      <g>
        <circle class="cls-4" cx="166.66" cy="100.62" r="2.97"/>
        <path class="cls-5" d="M166.66,103.97c-1.84,0-3.34-1.5-3.34-3.34s1.5-3.34,3.34-3.34,3.34,1.5,3.34,3.34-1.5,3.34-3.34,3.34Zm0-5.94c-1.43,0-2.59,1.16-2.59,2.59s1.16,2.59,2.59,2.59,2.59-1.16,2.59-2.59-1.16-2.59-2.59-2.59Z"/>
      </g>
      <g>
        <polygon class="cls-3" points="170.4 94.43 163.93 87.95 170.4 87.95 170.4 94.43"/>
        <path class="cls-5" d="M170.41,94.81c-.1,0-.19-.04-.27-.11l-6.48-6.48c-.11-.11-.14-.27-.08-.41,.06-.14,.2-.23,.35-.23h6.48c.21,0,.38,.17,.38,.38v6.48c0,.15-.09,.29-.23,.35-.05,.02-.09,.03-.14,.03Zm-5.57-6.48l5.2,5.2v-5.2h-5.2Z"/>
      </g>
      <g>
        <polyline class="cls-3" points="168.14 91.77 156.08 103.83 154.53 102.28 166.59 90.22"/>
        <path class="cls-5" d="M156.08,104.2c-.1,0-.2-.04-.27-.11l-1.55-1.55c-.15-.15-.15-.38,0-.53l12.06-12.06,.53,.53-11.8,11.8,1.02,1.02,11.79-11.8,.53,.53-12.06,12.06c-.07,.07-.17,.11-.27,.11Z"/>
      </g>
    </g>
  </g>
  <g>
    <g>
      <circle class="cls-4" cx="97.71" cy="95.31" r="9.92"/>
      <path class="cls-5" d="M97.71,105.6c-5.67,0-10.29-4.62-10.29-10.29s4.62-10.29,10.29-10.29,10.29,4.62,10.29,10.29-4.62,10.29-10.29,10.29Zm0-19.83c-5.26,0-9.54,4.28-9.54,9.54s4.28,9.54,9.54,9.54,9.54-4.28,9.54-9.54-4.28-9.54-9.54-9.54Z"/>
    </g>
    <path class="cls-5" d="M97.71,108.77c-7.42,0-13.46-6.04-13.46-13.46,0-.21,.17-.38,.38-.38s.38,.17,.38,.38c0,7.01,5.7,12.71,12.71,12.71s12.71-5.7,12.71-12.71-5.7-12.71-12.71-12.71h-13.09c-.21,0-.38-.17-.38-.38s.17-.38,.38-.38h13.09c7.42,0,13.46,6.04,13.46,13.46s-6.04,13.46-13.46,13.46Z"/>
    <g>
      <path class="cls-5" d="M91.97,93.92h-1.39c-.26,0-.47-.21-.47-.47s.2-.47,.47-.47h3.8c.25,0,.46,.21,.46,.47s-.21,.47-.46,.47h-1.4v4.33c0,.28-.23,.5-.51,.5s-.51-.22-.51-.5v-4.33Z"/>
      <path class="cls-5" d="M95.29,93.49c0-.29,.22-.51,.51-.51h1.63c1.8,0,3.04,1.23,3.04,2.85v.02c0,1.61-1.24,2.86-3.04,2.86h-1.63c-.29,0-.51-.22-.51-.51v-4.71Zm2.13,4.3c1.2,0,1.99-.81,1.99-1.93v-.02c0-1.12-.79-1.95-1.99-1.95h-1.13v3.89h1.13Z"/>
      <path class="cls-5" d="M100.89,98.07c-.11-.08-.2-.22-.2-.38,0-.26,.21-.47,.47-.47,.14,0,.23,.04,.29,.09,.47,.38,.98,.59,1.6,.59s1.01-.29,1.01-.72v-.02c0-.41-.23-.63-1.29-.88-1.22-.29-1.91-.65-1.91-1.71v-.02c0-.98,.82-1.66,1.96-1.66,.72,0,1.3,.19,1.82,.53,.11,.07,.22,.2,.22,.4,0,.26-.21,.47-.47,.47-.1,0-.18-.02-.26-.07-.44-.29-.87-.43-1.32-.43-.59,0-.93,.3-.93,.68v.02c0,.44,.26,.64,1.37,.9,1.21,.29,1.83,.73,1.83,1.68v.02c0,1.07-.84,1.71-2.04,1.71-.78,0-1.51-.25-2.15-.72Z"/>
    </g>
    <path class="cls-5" d="M87.67,86.38c-.1,0-.19-.04-.27-.11l-3.73-3.73c-.07-.07-.11-.17-.11-.27s.04-.19,.11-.27l3.47-3.47c.15-.15,.38-.15,.53,0,.15,.15,.15,.38,0,.53l-3.2,3.2,3.47,3.47c.15,.15,.15,.38,0,.53-.07,.07-.17,.11-.27,.11Z"/>
  </g>
  <g>
    <g>
      <g>
        <path class="cls-4" d="M299.61,96.79c.05-.41,.09-.82,.09-1.25s-.04-.84-.09-1.25l-1.99-.71c-.19-.76-.49-1.48-.88-2.14l.91-1.91c-.51-.66-1.1-1.25-1.76-1.76l-1.91,.91c-.66-.39-1.37-.69-2.14-.88l-.71-1.99c-.41-.05-.82-.09-1.25-.09s-.84,.04-1.25,.09l-.71,1.99c-.76,.19-1.48,.49-2.14,.88l-1.91-.91c-.66,.51-1.25,1.1-1.76,1.76l.91,1.91c-.39,.66-.69,1.37-.89,2.14l-1.99,.71c-.05,.41-.09,.82-.09,1.25s.04,.84,.09,1.25l1.99,.71c.19,.76,.49,1.48,.89,2.14l-.91,1.91c.51,.66,1.1,1.25,1.76,1.76l1.91-.91c.66,.39,1.37,.69,2.14,.89l.71,1.99c.41,.05,.82,.09,1.25,.09s.84-.04,1.25-.09l.71-1.99c.76-.19,1.48-.49,2.14-.89l1.91,.91c.66-.51,1.25-1.1,1.76-1.76l-.91-1.91c.39-.66,.69-1.37,.88-2.14l1.99-.71Z"/>
        <path class="cls-5" d="M289.89,105.73c-.4,0-.81-.03-1.29-.09-.14-.02-.26-.11-.31-.25l-.64-1.8c-.65-.18-1.28-.44-1.87-.77l-1.73,.82c-.13,.06-.28,.04-.39-.04-.68-.53-1.3-1.14-1.83-1.83-.09-.11-.1-.26-.04-.39l.82-1.73c-.33-.59-.59-1.21-.77-1.87l-1.8-.64c-.13-.05-.23-.17-.25-.31-.06-.48-.09-.89-.09-1.29s.03-.81,.09-1.29c.02-.14,.11-.26,.25-.31l1.8-.64c.18-.65,.44-1.28,.77-1.87l-.82-1.73c-.06-.13-.04-.28,.04-.39,.53-.69,1.15-1.3,1.83-1.83,.11-.09,.26-.1,.39-.04l1.73,.82c.59-.33,1.22-.59,1.87-.77l.64-1.8c.05-.13,.17-.23,.31-.25,.97-.12,1.61-.12,2.58,0,.14,.02,.26,.11,.31,.25l.64,1.8c.65,.18,1.28,.44,1.87,.77l1.73-.82c.13-.06,.28-.04,.39,.04,.68,.53,1.3,1.14,1.83,1.83,.09,.11,.1,.26,.04,.39l-.82,1.73c.33,.59,.59,1.21,.77,1.87l1.8,.64c.13,.05,.23,.17,.25,.31,.06,.49,.09,.9,.09,1.29s-.03,.8-.09,1.29c-.02,.14-.11,.26-.25,.31l-1.8,.64c-.18,.65-.44,1.28-.77,1.87l.82,1.73c.06,.13,.04,.28-.04,.39-.53,.68-1.14,1.3-1.83,1.83-.11,.09-.26,.1-.39,.04l-1.73-.82c-.59,.33-1.21,.59-1.87,.77l-.64,1.8c-.05,.13-.17,.23-.31,.25-.49,.06-.9,.09-1.29,.09Zm-.97-.81c.71,.08,1.22,.08,1.94,0l.63-1.77c.04-.12,.14-.21,.26-.24,.72-.18,1.4-.46,2.04-.84,.11-.06,.24-.07,.35-.02l1.7,.81c.5-.41,.96-.87,1.37-1.37l-.81-1.69c-.05-.11-.05-.25,.02-.35,.38-.63,.66-1.32,.84-2.04,.03-.12,.12-.22,.24-.26l1.77-.63c.04-.36,.06-.67,.06-.97s-.02-.61-.06-.97l-1.77-.63c-.12-.04-.21-.14-.24-.26-.18-.72-.46-1.4-.84-2.04-.06-.11-.07-.24-.02-.35l.81-1.69c-.41-.5-.87-.96-1.37-1.37l-1.7,.81c-.11,.05-.25,.05-.35-.02-.63-.38-1.32-.66-2.04-.84-.12-.03-.22-.12-.26-.24l-.63-1.77c-.72-.08-1.23-.08-1.94,0l-.63,1.77c-.04,.12-.14,.21-.26,.24-.72,.18-1.4,.46-2.04,.84-.11,.07-.24,.07-.35,.02l-1.69-.81c-.5,.41-.96,.87-1.37,1.37l.81,1.69c.05,.11,.05,.25-.02,.35-.38,.63-.66,1.32-.84,2.04-.03,.12-.12,.22-.24,.26l-1.77,.63c-.04,.35-.06,.67-.06,.97s.02,.61,.06,.97l1.77,.63c.12,.04,.21,.14,.24,.26,.18,.72,.47,1.4,.84,2.04,.06,.11,.07,.24,.02,.35l-.81,1.69c.41,.5,.87,.96,1.37,1.37l1.69-.81c.11-.05,.25-.05,.35,.02,.63,.38,1.32,.66,2.04,.84,.12,.03,.22,.12,.26,.24l.63,1.77Zm10.69-7.67h0Z"/>
      </g>
      <g>
        <circle class="cls-3" cx="289.89" cy="95.54" r="5.09"/>
        <path class="cls-5" d="M289.89,101c-3.01,0-5.46-2.45-5.46-5.46s2.45-5.46,5.46-5.46,5.46,2.45,5.46,5.46-2.45,5.46-5.46,5.46Zm0-10.18c-2.6,0-4.71,2.11-4.71,4.71s2.11,4.71,4.71,4.71,4.71-2.11,4.71-4.71-2.11-4.71-4.71-4.71Z"/>
      </g>
    </g>
    <path class="cls-5" d="M289.91,108.77c-7.42,0-13.46-6.04-13.46-13.46,0-.21,.17-.38,.38-.38s.38,.17,.38,.38c0,7.01,5.7,12.71,12.71,12.71s12.71-5.7,12.71-12.71-5.7-12.71-12.71-12.71h-13.09c-.21,0-.38-.17-.38-.38s.17-.38,.38-.38h13.09c7.42,0,13.46,6.04,13.46,13.46s-6.04,13.46-13.46,13.46Z"/>
    <path class="cls-5" d="M279.87,86.38c-.1,0-.19-.04-.27-.11l-3.73-3.73c-.07-.07-.11-.17-.11-.27s.04-.19,.11-.27l3.47-3.47c.15-.15,.38-.15,.53,0,.15,.15,.15,.38,0,.53l-3.2,3.2,3.47,3.47c.15,.15,.15,.38,0,.53-.07,.07-.17,.11-.27,.11Z"/>
  </g>
  <g>
    <path class="cls-5" d="M216.17,102.53c-.21,0-.38-.17-.38-.38v-2.84c0-.21,.17-.38,.38-.38s.38,.17,.38,.38v2.84c0,.21-.17,.38-.38,.38Z"/>
    <path class="cls-5" d="M233.83,102.53c-.21,0-.38-.17-.38-.38v-2.84c0-.21,.17-.38,.38-.38s.38,.17,.38,.38v2.84c0,.21-.17,.38-.38,.38Z"/>
    <path class="cls-5" d="M225,102.53c-.21,0-.38-.17-.38-.38v-2.84c0-.21,.17-.38,.38-.38s.38,.17,.38,.38v2.84c0,.21-.17,.38-.38,.38Z"/>
    <path class="cls-5" d="M219.12,102.53c-.21,0-.38-.17-.38-.38v-2.84c0-.21,.17-.38,.38-.38s.38,.17,.38,.38v2.84c0,.21-.17,.38-.38,.38Z"/>
    <path class="cls-5" d="M230.89,102.53c-.21,0-.38-.17-.38-.38v-2.84c0-.21,.17-.38,.38-.38s.38,.17,.38,.38v2.84c0,.21-.17,.38-.38,.38Z"/>
    <path class="cls-5" d="M222.06,102.53c-.21,0-.38-.17-.38-.38v-2.84c0-.21,.17-.38,.38-.38s.38,.17,.38,.38v2.84c0,.21-.17,.38-.38,.38Z"/>
    <path class="cls-5" d="M227.94,102.53c-.21,0-.38-.17-.38-.38v-2.84c0-.21,.17-.38,.38-.38s.38,.17,.38,.38v2.84c0,.21-.17,.38-.38,.38Z"/>
    <g>
      <path class="cls-4" d="M216.17,95.83c0-4.99,9.03-9.03,9.03-9.03,0,0,9.03,4.04,9.03,9.03h-18.07Z"/>
      <path class="cls-5" d="M234.24,96.2h-18.07c-.21,0-.38-.17-.38-.38,0-5.17,8.88-9.21,9.26-9.38,.1-.04,.21-.04,.31,0,.38,.17,9.26,4.2,9.26,9.38,0,.21-.17,.38-.38,.38Zm-17.68-.75h17.28c-.41-4.18-7.5-7.71-8.64-8.25-1.14,.54-8.23,4.06-8.64,8.25Z"/>
    </g>
    <g>
      <rect class="cls-3" x="214.11" y="95.13" width="22.19" height="2.36" rx="1.18" ry="1.18"/>
      <path class="cls-5" d="M235.13,97.86h-19.84c-.86,0-1.55-.7-1.55-1.55s.7-1.55,1.55-1.55h19.84c.86,0,1.55,.7,1.55,1.55s-.7,1.55-1.55,1.55Zm-19.84-2.36c-.44,0-.8,.36-.8,.8s.36,.8,.8,.8h19.84c.44,0,.8-.36,.8-.8s-.36-.8-.8-.8h-19.84Z"/>
    </g>
    <g>
      <rect class="cls-3" x="214.11" y="103.92" width="22.19" height="2.39" rx="1.19" ry="1.19"/>
      <path class="cls-5" d="M235.12,106.69h-19.82c-.86,0-1.56-.7-1.56-1.56s.7-1.58,1.56-1.58h19.82c.86,0,1.56,.7,1.56,1.56s-.7,1.58-1.56,1.58Zm-19.82-2.39c-.45,0-.81,.36-.81,.81s.36,.83,.81,.83h19.82c.45,0,.81-.36,.81-.81s-.36-.83-.81-.83h-19.82Z"/>
    </g>
    <path class="cls-5" d="M225.21,87.17c-.21,0-.38-.17-.38-.38v-5.9c0-.21,.17-.38,.38-.38s.38,.17,.38,.38v5.9c0,.21-.17,.38-.38,.38Z"/>
    <g>
      <polygon class="cls-4" points="231.87 84.68 225.21 84.68 225.21 80.89 231.87 80.89 229.59 82.78 231.87 84.68"/>
      <path class="cls-5" d="M231.87,85.05h-6.66c-.21,0-.38-.17-.38-.38v-3.79c0-.21,.17-.38,.38-.38h6.66c.16,0,.3,.1,.35,.25,.05,.15,0,.31-.11,.42l-1.93,1.6,1.93,1.6c.12,.1,.17,.27,.11,.42-.05,.15-.19,.25-.35,.25Zm-6.28-.75h5.24l-1.48-1.23c-.09-.07-.14-.18-.14-.29s.05-.22,.14-.29l1.48-1.23h-5.24v3.04Z"/>
    </g>
  </g>
  <g>
    <g>
      <path class="cls-5" d="M22.05,38.86V20.95c0-1.19,.96-2.15,2.15-2.15h15.27c1.19,0,2.15,.96,2.15,2.15v4.87c.25,0,.5,0,.75,0v-4.87c0-1.6-1.3-2.9-2.9-2.9h-15.27c-1.6,0-2.9,1.3-2.9,2.9v17.91c0,1.6,1.3,2.9,2.9,2.9h11.51c.01-.25,.03-.5,.03-.75h-11.54c-1.19,0-2.15-.96-2.15-2.15Z"/>
      <g>
        <path class="cls-4" d="M42,24.13H21.68v-3.03c0-1.48,1.07-2.67,2.39-2.67h15.54c1.32,0,2.39,1.2,2.39,2.67v3.03Z"/>
        <path class="cls-5" d="M42,24.5H21.68c-.21,0-.38-.17-.38-.38v-3.03c0-1.68,1.24-3.05,2.76-3.05h15.54c1.52,0,2.76,1.37,2.76,3.05v3.03c0,.21-.17,.38-.38,.38Zm-19.95-.75h19.57v-2.66c0-1.27-.9-2.3-2.01-2.3h-15.54c-1.11,0-2.01,1.03-2.01,2.3v2.66Z"/>
      </g>
      <g>
        <path class="cls-5" d="M25.77,20.76c-.21,0-.38-.17-.38-.38v-3.93c0-.21,.17-.38,.38-.38s.38,.17,.38,.38v3.93c0,.21-.17,.38-.38,.38Z"/>
        <path class="cls-5" d="M37.9,20.76c-.21,0-.38-.17-.38-.38v-3.93c0-.21,.17-.38,.38-.38s.38,.17,.38,.38v3.93c0,.21-.17,.38-.38,.38Z"/>
      </g>
      <path class="cls-5" d="M28.9,26.91h6.56v.02c-.39,.67-.6,1.02-.65,1.07h-1.75c.24,.31,.4,.7,.49,1.15h1.87s.03,.02,.03,.03c-.42,.7-.63,1.05-.64,1.05h-1.21c-.03,.36-.18,.8-.46,1.3-.37,.51-.73,.85-1.07,1-.64,.34-1.25,.51-1.83,.51v.02c0,.05,.14,.26,.43,.63l3.24,4.37v.21s-.01,.03-.03,.03h-1.42c-2.56-3.34-3.84-5.01-3.84-5.03v-1.05c.24,.04,.51,.05,.81,.05,1.44,0,2.33-.52,2.68-1.56,.05-.15,.08-.31,.08-.47h-3.9s-.03-.01-.03-.03c.43-.7,.65-1.05,.66-1.05h3.09v-.02c-.18-.4-.52-.71-1.03-.94-.36-.13-.69-.2-.98-.2h-1.73v-.04c.42-.7,.63-1.04,.65-1.04Z"/>
    </g>
    <g>
      <path class="cls-5" d="M47.55,41.76h-10.64c-.21,0-.38-.17-.38-.38v-1.69c0-3.14,2.56-5.7,5.7-5.7s5.7,2.56,5.7,5.7v1.69c0,.21-.17,.38-.38,.38Zm-10.27-.75h9.89v-1.31c0-2.73-2.22-4.95-4.95-4.95s-4.95,2.22-4.95,4.95v1.31Z"/>
      <g>
        <circle class="cls-4" cx="42.23" cy="30.6" r="3.6"/>
        <path class="cls-5" d="M42.23,34.57c-2.19,0-3.97-1.78-3.97-3.97s1.78-3.97,3.97-3.97,3.97,1.78,3.97,3.97-1.78,3.97-3.97,3.97Zm0-7.19c-1.78,0-3.22,1.44-3.22,3.22s1.44,3.22,3.22,3.22,3.22-1.44,3.22-3.22-1.44-3.22-3.22-3.22Z"/>
      </g>
    </g>
  </g>
  <g>
    <g>
      <path class="cls-5" d="M218.35,27.38l2.79-2.37c1.25-1.05,1.7-1.63,1.7-2.45,0-.9-.64-1.41-1.47-1.41-.73,0-1.23,.34-1.79,1.01-.12,.13-.3,.25-.56,.25-.4,0-.73-.32-.73-.73,0-.17,.07-.35,.18-.49,.74-.92,1.58-1.47,3.01-1.47,1.78,0,3,1.09,3,2.71v.03c0,1.43-.75,2.21-2.36,3.52l-1.87,1.56h3.68c.39,0,.7,.31,.7,.7s-.31,.7-.7,.7h-5.15c-.49,0-.86-.29-.86-.75,0-.31,.14-.57,.42-.79Z"/>
      <path class="cls-5" d="M227.17,28.12c-.69-.69-1.1-1.63-1.1-3.46v-.03c0-2.78,1.32-4.94,3.89-4.94,.93,0,1.67,.25,2.27,.65,.25,.16,.4,.36,.4,.69,0,.42-.35,.74-.77,.74-.14,0-.29-.05-.4-.12-.49-.32-.95-.51-1.56-.51-1.35,0-2.1,1.22-2.18,2.88,.48-.47,1.1-.91,2.18-.91,1.75,0,3.16,1.04,3.16,2.85v.03c0,1.8-1.47,3.09-3.37,3.09-1.12,0-1.92-.35-2.53-.96Zm4.31-2.06v-.03c0-.91-.73-1.58-1.86-1.58s-1.84,.73-1.84,1.6v.03c0,.92,.75,1.62,1.88,1.62s1.82-.7,1.82-1.63Z"/>
      <path class="cls-5" d="M217.99,34.83v-.02c0-2.04,1.58-3.76,3.81-3.76s3.79,1.69,3.79,3.74v.02c0,.82-.27,1.6-.74,2.23l.47,.38c.15,.12,.24,.28,.24,.5,0,.33-.27,.61-.6,.61-.19,0-.33-.07-.45-.19l-.52-.47c-.61,.44-1.37,.68-2.21,.68-2.23,0-3.79-1.69-3.79-3.74Zm3.92,.95c0-.33,.27-.61,.6-.61,.19,0,.3,.06,.45,.19l.93,.85c.23-.39,.35-.86,.35-1.38v-.02c0-1.41-1.03-2.58-2.47-2.58s-2.45,1.15-2.45,2.56v.02c0,1.41,1.03,2.57,2.47,2.57,.48,0,.9-.12,1.26-.33l-.9-.77c-.15-.12-.24-.28-.24-.5Z"/>
      <path class="cls-5" d="M227.14,31.82c0-.36,.28-.64,.64-.64h2.62c.83,0,1.48,.23,1.9,.64,.32,.32,.49,.72,.49,1.2v.02c0,.87-.5,1.34-1.04,1.62,.85,.29,1.44,.78,1.44,1.76v.02c0,1.3-1.07,1.99-2.69,1.99h-2.72c-.36,0-.64-.28-.64-.64v-5.98Zm3,2.42c.82,0,1.37-.32,1.37-.99v-.02c0-.57-.46-.92-1.28-.92h-1.84v1.93h1.74Zm.37,3.07c.87,0,1.4-.34,1.4-1v-.02c0-.61-.49-.98-1.49-.98h-2.02v1.99h2.12Z"/>
    </g>
    <path class="cls-5" d="M234.07,42h-17.73c-1.91,0-3.47-1.56-3.47-3.47V19.32c0-1.91,1.56-3.47,3.47-3.47h17.73c1.91,0,3.47,1.56,3.47,3.47v19.2c0,1.91-1.56,3.47-3.47,3.47Zm-17.73-25.4c-1.5,0-2.72,1.22-2.72,2.72v19.2c0,1.5,1.22,2.72,2.72,2.72h17.73c1.5,0,2.72-1.22,2.72-2.72V19.32c0-1.5-1.22-2.72-2.72-2.72h-17.73Z"/>
  </g>
  <g>
    <path class="cls-5" d="M147.81,40.26c-.09,0-.18-.03-.25-.1-.08-.07-.12-.17-.12-.28V18.69c0-1.77,1.44-3.22,3.22-3.22h17.72c.2,0,.37,.16,.38,.36l1,21.71c0,.2-.14,.37-.33,.39l-21.56,2.33s-.03,0-.04,0Zm2.84-24.04c-1.36,0-2.47,1.11-2.47,2.47v20.78l20.8-2.25-.97-21h-17.36Z"/>
    <g>
      <path class="cls-4" d="M169.43,42h-19.39c-1.23,0-2.22-.99-2.22-2.22h0c0-1.23,.99-2.22,2.22-2.22h19.39c-1.06,.46-1.68,1.54-1.52,2.59,.19,1.29,1.46,1.83,1.52,1.85Z"/>
      <path class="cls-5" d="M169.43,42.38h-19.39c-1.43,0-2.6-1.17-2.6-2.6s1.17-2.6,2.6-2.6h19.39c.18,0,.33,.12,.37,.3s-.05,.35-.22,.42c-.9,.39-1.44,1.29-1.3,2.19,.16,1.09,1.28,1.56,1.29,1.56,.17,.07,.26,.24,.23,.42-.03,.18-.19,.3-.37,.3Zm-19.39-4.44c-1.02,0-1.85,.83-1.85,1.85s.83,1.85,1.85,1.85h18.22c-.33-.34-.62-.8-.72-1.42-.12-.83,.16-1.66,.72-2.27h-18.22Z"/>
    </g>
    <path class="cls-5" d="M153.62,23.25h-1.64c-.35,0-.63-.28-.63-.63s.29-.63,.63-.63h1.64v-1.6c0-.37,.29-.66,.66-.66s.66,.29,.66,.66v1.6h1.64c.35,0,.63,.29,.63,.63s-.29,.63-.63,.63h-1.64v1.6c0,.37-.3,.66-.66,.66s-.66-.29-.66-.66v-1.6Z"/>
    <path class="cls-5" d="M160.65,21.97c0-.36,.4-.66,.87-.66h2.75c.47,.01,.86,.31,.86,.68,0,.35-.4,.65-.87,.65h-2.75c-.47-.01-.86-.31-.86-.67Z"/>
    <path class="cls-5" d="M152.99,31.89l-1.21-1.21c-.26-.26-.26-.68,0-.94,.26-.26,.68-.26,.94,0l1.21,1.21,1.19-1.19c.27-.27,.7-.27,.97,0s.27,.7,0,.98l-1.19,1.19,1.21,1.21c.26,.26,.26,.68,0,.94-.26,.27-.69,.26-.94,0l-1.21-1.21-1.19,1.19c-.27,.27-.71,.26-.98,0s-.27-.7,0-.97l1.19-1.19Z"/>
    <g>
      <g>
        <path class="cls-4" d="M175.11,17.15h0c.81,.76,.85,2.03,.09,2.84l-12.43,13.26-4.6,1.98,1.68-4.72,12.43-13.26c.76-.81,2.03-.85,2.84-.09Z"/>
        <path class="cls-5" d="M158.16,35.59c-.09,0-.19-.04-.26-.1-.11-.1-.15-.26-.1-.4l1.68-4.72s.04-.09,.08-.13l12.43-13.26c.43-.46,1.02-.73,1.66-.75,.64-.02,1.24,.21,1.71,.64h0c.46,.43,.73,1.02,.75,1.66s-.21,1.24-.64,1.71l-12.43,13.26s-.08,.07-.13,.09l-4.6,1.98s-.1,.03-.15,.03Zm2-4.9l-1.36,3.84,3.74-1.61,12.38-13.2c.3-.32,.45-.73,.44-1.17-.01-.44-.2-.84-.52-1.14h0c-.32-.3-.74-.44-1.17-.44-.44,.01-.84,.2-1.14,.52l-12.38,13.2Zm2.6,2.54h0Z"/>
      </g>
      <g>
        <line class="cls-4" x1="162.76" y1="33.24" x2="159.84" y2="30.5"/>
        <path class="cls-5" d="M162.76,33.62c-.09,0-.18-.03-.26-.1l-2.93-2.74c-.15-.14-.16-.38-.02-.53,.14-.15,.38-.16,.53-.02l2.93,2.74c.15,.14,.16,.38,.02,.53-.07,.08-.17,.12-.27,.12Z"/>
      </g>
      <g>
        <line class="cls-4" x1="174.41" y1="20.82" x2="171.49" y2="18.07"/>
        <path class="cls-5" d="M174.41,21.19c-.09,0-.18-.03-.26-.1l-2.93-2.74c-.15-.14-.16-.38-.02-.53,.14-.15,.38-.16,.53-.02l2.93,2.74c.15,.14,.16,.38,.02,.53-.07,.08-.17,.12-.27,.12Z"/>
      </g>
    </g>
    <path class="cls-5" d="M167.9,40.26h-17.95c-.21,0-.38-.17-.38-.38s.17-.38,.38-.38h17.95c.21,0,.38,.17,.38,.38s-.17,.38-.38,.38Z"/>
  </g>
</svg>