<?xml version="1.0" encoding="UTF-8"?>
<svg id="Layer_1" data-name="Layer 1" xmlns="http://www.w3.org/2000/svg" viewBox="0 0 320 128">
  <defs>
    <style>
      .cls-1 {
        fill: #fff;
      }

      .cls-2 {
        fill: #a9e0ff;
      }

      .cls-3 {
        fill: #186dc9;
      }
    </style>
  </defs>
  <g>
    <g>
      <polygon class="cls-2" points="290.04 24.93 291.1 41.23 273.74 23.87 290.04 24.93"/>
      <path class="cls-3" d="M291.1,41.6c-.1,0-.19-.04-.27-.11l-17.36-17.36c-.11-.11-.14-.28-.08-.42,.06-.14,.19-.24,.37-.22l16.3,1.06c.19,.01,.34,.16,.35,.35l1.06,16.3c.01,.16-.08,.3-.22,.37-.05,.02-.1,.03-.15,.03Zm-16.39-17.29l15.95,15.95-.97-14.98-14.98-.97Z"/>
    </g>
    <g>
      <path class="cls-1" d="M282.48,37.64l-4.86-4.86c.36-1.67,1.78-7.3,7.11-11.61,5.84-4.73,12.31-4.6,13.89-4.53-.01,1.84-.28,7.89-4.76,13.51-4.19,5.27-9.55,6.99-11.38,7.49Z"/>
      <path class="cls-3" d="M282.48,38.02c-.1,0-.19-.04-.27-.11l-4.86-4.86c-.09-.09-.13-.22-.1-.34,.58-2.69,2.29-7.81,7.24-11.82,5.56-4.51,11.75-4.72,14.15-4.61,.2,0,.36,.18,.36,.38-.02,2.89-.67,8.51-4.84,13.75-3.94,4.95-8.94,6.9-11.58,7.62-.03,0-.07,.01-.1,.01Zm-4.45-5.36l4.56,4.56c2.59-.74,7.28-2.65,10.98-7.3,3.86-4.85,4.6-10.04,4.67-12.92-2.55-.07-8.18,.33-13.28,4.46-4.65,3.77-6.33,8.56-6.93,11.2Z"/>
    </g>
    <path class="cls-3" d="M296.69,25.83c-.1,0-.19-.04-.27-.11l-7.17-7.17c-.15-.15-.15-.38,0-.53,.15-.15,.38-.15,.53,0l7.17,7.17c.15,.15,.15,.38,0,.53-.07,.07-.17,.11-.27,.11Z"/>
    <path class="cls-3" d="M289.29,28.26c-.66,0-1.32-.25-1.82-.75-1-1-1-2.64,0-3.64,1.01-1,2.64-1,3.64,0,1,1,1,2.64,0,3.64-.5,.5-1.16,.75-1.82,.75Zm0-4.4c-.47,0-.94,.18-1.29,.53-.71,.71-.71,1.87,0,2.58,.71,.71,1.87,.71,2.58,0,.71-.71,.71-1.87,0-2.58-.36-.36-.82-.53-1.29-.53Z"/>
    <path class="cls-3" d="M274.11,41.24c-.1,0-.19-.04-.27-.11-.15-.15-.15-.38,0-.53l2.34-2.34c.15-.15,.38-.15,.53,0,.15,.15,.15,.38,0,.53l-2.34,2.34c-.07,.07-.17,.11-.27,.11Z"/>
    <path class="cls-3" d="M277.38,41.46c-.1,0-.19-.04-.27-.11-.15-.15-.15-.38,0-.53l2.34-2.34c.15-.15,.38-.15,.53,0,.15,.15,.15,.38,0,.53l-2.34,2.34c-.07,.07-.17,.11-.27,.11Z"/>
    <path class="cls-3" d="M273.89,37.97c-.1,0-.19-.04-.27-.11-.15-.15-.15-.38,0-.53l2.34-2.34c.15-.15,.38-.15,.53,0,.15,.15,.15,.38,0,.53l-2.34,2.34c-.07,.07-.17,.11-.27,.11Z"/>
  </g>
  <g>
    <g>
      <path class="cls-3" d="M36.29,40.07H19.89c-1.76,0-3.18-1.48-3.18-3.3v-15.73c0-1.82,1.43-3.3,3.18-3.3h16.4c.8,0,1.56,.31,2.15,.86l8.31,7.87c.66,.62,1.04,1.51,1.04,2.44s-.38,1.81-1.04,2.44l-8.31,7.87c-.59,.56-1.35,.86-2.15,.86ZM19.89,18.49c-1.34,0-2.43,1.14-2.43,2.55v15.73c0,1.41,1.09,2.55,2.43,2.55h16.4c.6,0,1.18-.23,1.63-.66l8.31-7.87c.51-.48,.8-1.17,.8-1.89s-.29-1.41-.8-1.89l-8.31-7.87c-.45-.42-1.03-.66-1.63-.66H19.89Z"/>
      <g>
        <ellipse class="cls-2" cx="42.03" cy="28.93" rx="1.71" ry="1.78"/>
        <path class="cls-3" d="M42.03,31.09c-1.15,0-2.08-.97-2.08-2.16s.93-2.15,2.08-2.15,2.08,.97,2.08,2.15-.94,2.16-2.08,2.16Zm0-3.56c-.74,0-1.33,.63-1.33,1.4s.6,1.41,1.33,1.41,1.33-.63,1.33-1.41-.6-1.4-1.33-1.4Z"/>
      </g>
      <path class="cls-3" d="M47.21,40.11c-.74,0-1.4-.24-1.93-.71-.85-.74-1.31-1.97-1.28-3.48,.01-.66,.16-1.29,.3-1.91,.42-1.83,.75-3.27-2.34-4.75-.19-.09-.27-.31-.18-.5,.09-.19,.31-.26,.5-.18,3.63,1.74,3.16,3.78,2.75,5.59-.13,.58-.27,1.17-.28,1.75-.02,1.28,.34,2.31,1.02,2.9,.5,.43,1.15,.6,1.88,.49,.21-.03,.4,.11,.43,.31,.03,.2-.11,.4-.31,.43-.19,.03-.38,.04-.56,.04Z"/>
    </g>
    <g>
      <g>
        <polygon class="cls-2" points="36.45 29.58 28.36 20.83 20.26 29.58 22.74 29.58 22.74 35.41 33.93 35.41 33.93 29.58 36.45 29.58"/>
        <path class="cls-3" d="M33.93,35.78h-11.19c-.21,0-.38-.17-.38-.38v-5.45h-2.1c-.15,0-.28-.09-.34-.22-.06-.14-.03-.3,.07-.41l8.09-8.75c.14-.15,.41-.15,.55,0l8.09,8.75c.1,.11,.13,.27,.07,.41-.06,.14-.19,.22-.34,.22h-2.15v5.45c0,.21-.17,.38-.38,.38Zm-10.81-.75h10.44v-5.45c0-.21,.17-.38,.38-.38h1.67l-7.24-7.82-7.24,7.82h1.62c.21,0,.38,.17,.38,.38v5.45Z"/>
      </g>
      <g>
        <rect class="cls-1" x="26.64" y="29.09" width="3.44" height="6.31"/>
        <path class="cls-3" d="M30.09,35.78h-3.44c-.21,0-.38-.17-.38-.38v-6.31c0-.21,.17-.38,.38-.38h3.44c.21,0,.38,.17,.38,.38v6.31c0,.21-.17,.38-.38,.38Zm-3.07-.75h2.69v-5.56h-2.69v5.56Z"/>
      </g>
    </g>
  </g>
  <g>
    <path class="cls-3" d="M104.29,43.9h-17.87c-1.58,0-2.86-1.28-2.86-2.86v-15.16c0-1.57,1.28-2.86,2.86-2.86h17.87c1.57,0,2.86,1.28,2.86,2.86v15.16c0,1.57-1.28,2.86-2.86,2.86Zm-17.87-20.12c-1.16,0-2.11,.94-2.11,2.11v15.16c0,1.16,.95,2.11,2.11,2.11h17.87c1.16,0,2.11-.94,2.11-2.11v-15.16c0-1.16-.94-2.11-2.11-2.11h-17.87Z"/>
    <g>
      <path class="cls-3" d="M86.22,35.36v-.03c0-2.73,2.04-4.97,4.95-4.97,1.48,0,2.46,.44,3.29,1.08,.18,.14,.33,.37,.33,.67,0,.47-.37,.82-.84,.82-.23,0-.4-.08-.51-.16-.66-.54-1.37-.86-2.29-.86-1.82,0-3.17,1.51-3.17,3.39v.03c0,1.88,1.33,3.4,3.17,3.4,1.02,0,1.7-.33,2.4-.92,.12-.11,.3-.19,.51-.19,.43,0,.8,.36,.8,.78,0,.26-.12,.47-.28,.6-.9,.8-1.93,1.29-3.48,1.29-2.8,0-4.88-2.18-4.88-4.94Z"/>
      <path class="cls-3" d="M95.39,39.04l3.57-7.96c.19-.43,.54-.69,1.01-.69h.08c.48,0,.81,.26,1,.69l3.57,7.96c.07,.12,.1,.25,.1,.36,0,.45-.34,.81-.79,.81-.4,0-.67-.23-.82-.59l-.78-1.8h-4.66l-.81,1.85c-.14,.34-.43,.53-.78,.53-.44,0-.78-.34-.78-.78,0-.12,.04-.25,.11-.38Zm6.28-2.72l-1.69-3.88-1.69,3.88h3.37Z"/>
    </g>
    <g>
      <polygon class="cls-2" points="96.44 14.33 98.66 18.82 103.61 19.54 100.03 23.03 100.87 27.97 96.44 25.64 92.01 27.97 92.86 23.03 89.27 19.54 94.23 18.82 96.44 14.33"/>
      <path class="cls-3" d="M92.01,28.35c-.08,0-.16-.02-.22-.07-.12-.08-.17-.23-.15-.37l.81-4.74-3.44-3.36c-.1-.1-.14-.25-.09-.38s.16-.23,.3-.26l4.76-.69,2.13-4.31c.06-.13,.19-.21,.34-.21h0c.14,0,.27,.08,.34,.21l2.13,4.31,4.76,.69c.14,.02,.26,.12,.3,.26s0,.28-.09,.38l-3.44,3.36,.81,4.74c.02,.14-.03,.28-.15,.37-.12,.08-.27,.1-.4,.03l-4.26-2.24-4.26,2.24c-.05,.03-.12,.04-.17,.04Zm-1.93-8.54l3.04,2.97c.09,.09,.13,.21,.11,.33l-.72,4.19,3.76-1.98c.11-.06,.24-.06,.35,0l3.76,1.98-.72-4.19c-.02-.12,.02-.25,.11-.33l3.04-2.97-4.2-.61c-.12-.02-.23-.09-.28-.21l-1.88-3.81-1.88,3.81c-.05,.11-.16,.19-.28,.21l-4.2,.61Z"/>
    </g>
  </g>
  <g>
    <g>
      <rect class="cls-1" x="227.1" y="31.2" width="8.21" height="9.43"/>
      <path class="cls-3" d="M235.31,41h-8.21c-.21,0-.38-.17-.38-.38v-9.43c0-.21,.17-.38,.38-.38h8.21c.21,0,.38,.17,.38,.38v9.43c0,.21-.17,.38-.38,.38Zm-7.84-.75h7.46v-8.68h-7.46v8.68Z"/>
    </g>
    <g>
      <path class="cls-3" d="M214.25,17.53c0-.38,.3-.69,.7-.69s.69,.3,.69,.69v5.98h3.56c.35,0,.63,.28,.63,.63s-.28,.63-.63,.63h-4.25c-.39,0-.7-.3-.7-.7v-6.54Z"/>
      <path class="cls-3" d="M221.21,17.53c0-.38,.3-.69,.7-.69s.69,.3,.69,.69v5.98h3.56c.35,0,.63,.28,.63,.63s-.28,.63-.63,.63h-4.25c-.39,0-.7-.3-.7-.7v-6.54Z"/>
      <path class="cls-3" d="M228.17,17.6c0-.39,.3-.7,.7-.7h2.41c1.84,0,2.99,1.05,2.99,2.63v.02c0,1.77-1.42,2.69-3.15,2.69h-1.56v1.9c0,.38-.3,.69-.69,.69s-.7-.3-.7-.69v-6.54Zm2.99,3.4c1.05,0,1.7-.58,1.7-1.41v-.02c0-.92-.66-1.41-1.7-1.41h-1.61v2.83h1.61Z"/>
    </g>
    <g>
      <rect class="cls-1" x="214.14" y="26.9" width="13.72" height="13.72"/>
      <path class="cls-3" d="M227.86,41h-13.72c-.21,0-.38-.17-.38-.38v-13.72c0-.21,.17-.38,.38-.38h13.72c.21,0,.38,.17,.38,.38v13.72c0,.21-.17,.38-.38,.38Zm-13.35-.75h12.97v-12.97h-12.97v12.97Z"/>
    </g>
    <g>
      <polygon class="cls-2" points="211.43 40.63 217.23 40.63 217.23 34.91 214.33 32.91 211.43 34.91 211.43 40.63"/>
      <path class="cls-3" d="M217.23,41h-5.8c-.21,0-.38-.17-.38-.38v-5.71c0-.12,.06-.24,.16-.31l2.9-2c.13-.09,.3-.09,.43,0l2.9,2c.1,.07,.16,.19,.16,.31v5.71c0,.21-.17,.38-.38,.38Zm-5.42-.75h5.05v-5.14l-2.52-1.74-2.52,1.74v5.14Z"/>
    </g>
    <g>
      <rect class="cls-2" x="221" y="36.38" width="2.78" height="4.24"/>
      <path class="cls-3" d="M223.78,41h-2.78c-.21,0-.38-.17-.38-.38v-4.24c0-.21,.17-.38,.38-.38h2.78c.21,0,.38,.17,.38,.38v4.24c0,.21-.17,.38-.38,.38Zm-2.41-.75h2.03v-3.49h-2.03v3.49Z"/>
    </g>
    <g>
      <g>
        <rect class="cls-1" x="217.33" y="32.47" width=".52" height=".52"/>
        <rect class="cls-3" x="216.96" y="32.09" width="1.27" height="1.27" rx=".37" ry=".37"/>
      </g>
      <g>
        <rect class="cls-1" x="220.83" y="32.47" width=".52" height=".52"/>
        <rect class="cls-3" x="220.46" y="32.09" width="1.27" height="1.27" rx=".37" ry=".37"/>
      </g>
      <g>
        <rect class="cls-1" x="224.33" y="32.47" width=".52" height=".52"/>
        <rect class="cls-3" x="223.96" y="32.09" width="1.27" height="1.27" rx=".37" ry=".37"/>
      </g>
      <g>
        <rect class="cls-1" x="217.33" y="29.47" width=".52" height=".52"/>
        <rect class="cls-3" x="216.96" y="29.09" width="1.27" height="1.27" rx=".37" ry=".37"/>
      </g>
      <g>
        <rect class="cls-1" x="220.83" y="29.47" width=".52" height=".52"/>
        <rect class="cls-3" x="220.46" y="29.09" width="1.27" height="1.27" rx=".37" ry=".37"/>
      </g>
      <g>
        <rect class="cls-1" x="224.33" y="29.47" width=".52" height=".52"/>
        <rect class="cls-3" x="223.96" y="29.09" width="1.27" height="1.27" rx=".37" ry=".37"/>
      </g>
    </g>
  </g>
  <g>
    <g>
      <rect class="cls-2" x="162.13" y="31.11" width="7.99" height="9.17"/>
      <path class="cls-3" d="M170.12,40.65h-7.99c-.21,0-.38-.17-.38-.38v-9.17c0-.21,.17-.38,.38-.38h7.99c.21,0,.38,.17,.38,.38v9.17c0,.21-.17,.38-.38,.38Zm-7.61-.75h7.24v-8.42h-7.24v8.42Z"/>
    </g>
    <g>
      <path class="cls-3" d="M149.59,17.88c0-.38,.3-.68,.68-.68h2.34c1.79,0,2.91,1.02,2.91,2.56v.02c0,1.72-1.38,2.62-3.06,2.62h-1.52v1.85c0,.37-.29,.67-.67,.67s-.68-.3-.68-.67v-6.37Zm2.91,3.3c1.02,0,1.65-.57,1.65-1.37v-.02c0-.9-.65-1.37-1.65-1.37h-1.56v2.76h1.56Z"/>
      <path class="cls-3" d="M159.26,24.97h-.07c-.36,0-.6-.23-.75-.58l-1.93-4.41c-.03-.1-.08-.21-.08-.33,0-.33,.29-.63,.66-.63s.55,.21,.66,.48l1.49,3.83,1.51-3.85c.1-.23,.27-.46,.62-.46s.65,.27,.65,.63c0,.12-.04,.25-.08,.32l-1.93,4.42c-.15,.34-.39,.58-.75,.58Z"/>
      <path class="cls-3" d="M163.54,23.26v-3.04h-.22c-.32,0-.57-.25-.57-.57s.25-.57,.57-.57h.22v-.98c0-.36,.29-.66,.67-.66s.66,.3,.66,.66v.98h1.04c.32,0,.58,.25,.58,.57s-.26,.57-.58,.57h-1.04v2.83c0,.51,.26,.72,.71,.72,.15,0,.29-.03,.33-.03,.3,0,.56,.24,.56,.55,0,.24-.16,.44-.35,.51-.28,.1-.56,.15-.91,.15-.97,0-1.66-.43-1.66-1.7Z"/>
    </g>
    <g>
      <rect class="cls-1" x="149.53" y="26.93" width="13.35" height="13.35"/>
      <path class="cls-3" d="M162.88,40.65h-13.35c-.21,0-.38-.17-.38-.38v-13.35c0-.21,.17-.38,.38-.38h13.35c.21,0,.38,.17,.38,.38v13.35c0,.21-.17,.38-.38,.38Zm-12.97-.75h12.6v-12.6h-12.6v12.6Z"/>
    </g>
    <g>
      <polygon class="cls-1" points="152.53 40.28 146.89 40.28 146.89 35.69 152.53 32.05 152.53 40.28"/>
      <path class="cls-3" d="M152.53,40.65h-5.64c-.21,0-.38-.17-.38-.38v-4.58c0-.13,.06-.25,.17-.31l5.64-3.65c.11-.07,.26-.08,.38-.01,.12,.07,.2,.19,.2,.33v8.23c0,.21-.17,.38-.38,.38Zm-5.27-.75h4.89v-7.17l-4.89,3.16v4.01Z"/>
    </g>
    <g>
      <rect class="cls-2" x="156.2" y="36.15" width="2.71" height="4.13"/>
      <path class="cls-3" d="M158.91,40.65h-2.71c-.21,0-.38-.17-.38-.38v-4.13c0-.21,.17-.38,.38-.38h2.71c.21,0,.38,.17,.38,.38v4.13c0,.21-.17,.38-.38,.38Zm-2.33-.75h1.96v-3.38h-1.96v3.38Z"/>
    </g>
    <g>
      <g>
        <rect class="cls-1" x="155.8" y="32.37" width=".52" height=".52"/>
        <rect class="cls-3" x="155.42" y="32" width="1.27" height="1.27" rx=".38" ry=".38"/>
      </g>
      <g>
        <rect class="cls-1" x="159.3" y="32.37" width=".52" height=".52"/>
        <rect class="cls-3" x="158.92" y="32" width="1.27" height="1.27" rx=".38" ry=".38"/>
      </g>
      <g>
        <rect class="cls-1" x="152.3" y="29.37" width=".52" height=".52"/>
        <rect class="cls-3" x="151.92" y="29" width="1.27" height="1.27" rx=".38" ry=".38"/>
      </g>
      <g>
        <rect class="cls-1" x="155.8" y="29.37" width=".52" height=".52"/>
        <rect class="cls-3" x="155.42" y="29" width="1.27" height="1.27" rx=".38" ry=".38"/>
      </g>
      <g>
        <rect class="cls-1" x="159.3" y="29.37" width=".52" height=".52"/>
        <rect class="cls-3" x="158.92" y="29" width="1.27" height="1.27" rx=".38" ry=".38"/>
      </g>
    </g>
  </g>
  <g>
    <path class="cls-3" d="M33.24,107.55c-.49,0-.97-.04-1.46-.14l-9.27-1.74c-.18-.03-.31-.19-.31-.37v-6.24c0-.16,.11-.31,.26-.36l.3-.09c3.06-.94,6.31-1.01,9.4-.22l1.12,.29c.1,0,.19,0,.28,0,.43-.02,.83-.03,1.11,.24,.17,.16,.25,.4,.25,.71v.37c0,.93-.76,1.69-1.69,1.69h-1.44l2.34,.56c.23,.08,.45,.07,.65,0l8.3-3.77c.54-.21,1.12-.14,1.58,.17,.46,.31,.73,.83,.73,1.39,0,.61-.33,1.17-.86,1.47l-7.39,5c-1.21,.68-2.57,1.04-3.93,1.04Zm-10.28-2.55l8.97,1.68c1.66,.31,3.38,.03,4.85-.8l7.39-5c.32-.18,.5-.5,.5-.83,0-.31-.15-.6-.41-.77-.26-.18-.57-.21-.87-.1l-8.29,3.76s-.01,0-.02,0c-.36,.14-.77,.15-1.14,.03l-5.38-1.29c-.18-.04-.31-.22-.28-.41,.02-.19,.18-.33,.37-.33h4.6c.52,0,.94-.42,.94-.94v-.37c0-.13-.03-.17-.03-.17-.06-.05-.37-.04-.56-.03-.14,0-.3,.03-.45,0l-1.17-.3c-2.96-.77-6.07-.69-8.99,.21h-.03v5.66Zm11.99-2.4h0Z"/>
    <g>
      <rect class="cls-2" x="19.75" y="98.23" width="2.72" height="8.95"/>
      <path class="cls-3" d="M22.47,107.55h-2.72c-.21,0-.38-.17-.38-.38v-8.95c0-.21,.17-.38,.38-.38h2.72c.21,0,.38,.17,.38,.38v8.95c0,.21-.17,.38-.38,.38Zm-2.34-.75h1.97v-8.2h-1.97v8.2Z"/>
    </g>
    <g>
      <g>
        <path class="cls-2" d="M41.48,89.15c.04-.34,.07-.68,.07-1.03s-.03-.69-.07-1.03l-1.64-.58c-.16-.63-.41-1.22-.73-1.76l.75-1.57c-.42-.54-.91-1.03-1.45-1.45l-1.57,.75c-.54-.32-1.13-.57-1.76-.73l-.58-1.64c-.34-.04-.68-.07-1.03-.07s-.69,.03-1.03,.07l-.58,1.64c-.63,.16-1.22,.41-1.76,.73l-1.57-.75c-.54,.42-1.03,.91-1.45,1.45l.75,1.57c-.32,.54-.57,1.13-.73,1.76l-1.64,.58c-.04,.34-.07,.68-.07,1.03s.03,.69,.07,1.03l1.64,.58c.16,.63,.41,1.22,.73,1.76l-.75,1.57c.42,.54,.91,1.03,1.45,1.45l1.57-.75c.54,.32,1.13,.57,1.76,.73l.58,1.64c.34,.04,.68,.07,1.03,.07s.69-.03,1.03-.07l.58-1.64c.63-.16,1.22-.41,1.76-.73l1.57,.75c.54-.42,1.03-.91,1.45-1.45l-.75-1.57c.32-.54,.57-1.13,.73-1.76l1.64-.58Z"/>
        <path class="cls-3" d="M33.46,96.6c-.33,0-.67-.02-1.07-.08-.14-.02-.26-.11-.31-.25l-.52-1.46c-.52-.15-1.02-.35-1.49-.62l-1.39,.66c-.13,.06-.28,.04-.39-.04-.57-.44-1.08-.95-1.52-1.52-.09-.11-.1-.26-.04-.39l.66-1.39c-.26-.47-.47-.97-.62-1.49l-1.46-.52c-.13-.05-.23-.17-.25-.31-.05-.4-.08-.74-.08-1.07s.02-.67,.08-1.07c.02-.14,.11-.26,.25-.31l1.46-.52c.15-.52,.35-1.02,.62-1.49l-.66-1.39c-.06-.13-.04-.28,.04-.39,.44-.57,.95-1.08,1.52-1.52,.11-.09,.26-.1,.39-.04l1.39,.66c.47-.26,.97-.47,1.49-.62l.52-1.46c.05-.13,.17-.23,.31-.25,.81-.1,1.33-.1,2.15,0,.14,.02,.26,.11,.31,.25l.52,1.46c.52,.15,1.02,.35,1.49,.62l1.39-.66c.13-.06,.28-.04,.39,.04,.57,.44,1.08,.95,1.52,1.52,.09,.11,.1,.26,.04,.39l-.66,1.39c.26,.47,.47,.97,.62,1.49l1.46,.52c.13,.05,.23,.17,.25,.31,.05,.4,.08,.74,.08,1.07s-.02,.67-.08,1.07c-.02,.14-.11,.26-.25,.31l-1.46,.52c-.15,.52-.35,1.02-.62,1.49l.66,1.39c.06,.13,.04,.28-.04,.39-.44,.57-.95,1.08-1.52,1.52-.11,.09-.26,.1-.39,.04l-1.39-.66c-.47,.26-.97,.47-1.49,.62l-.52,1.46c-.05,.13-.17,.23-.31,.25-.41,.05-.75,.08-1.07,.08Zm-.75-.79c.55,.06,.95,.06,1.5,0l.51-1.42c.04-.12,.14-.21,.26-.24,.59-.15,1.15-.38,1.66-.69,.11-.06,.24-.07,.35-.02l1.36,.65c.39-.32,.75-.68,1.06-1.06l-.65-1.36c-.05-.11-.05-.25,.02-.35,.31-.52,.54-1.08,.69-1.66,.03-.12,.12-.22,.24-.26l1.42-.51c.03-.27,.04-.52,.04-.75s-.01-.48-.04-.75l-1.42-.51c-.12-.04-.21-.14-.24-.26-.15-.59-.38-1.14-.69-1.66-.06-.11-.07-.24-.02-.35l.65-1.36c-.32-.39-.68-.74-1.06-1.06l-1.36,.65c-.11,.05-.25,.05-.35-.02-.52-.31-1.07-.54-1.66-.69-.12-.03-.22-.12-.26-.24l-.51-1.42c-.55-.06-.95-.06-1.5,0l-.5,1.42c-.04,.12-.14,.21-.26,.24-.59,.15-1.14,.38-1.66,.69-.11,.06-.24,.07-.35,.02l-1.36-.65c-.39,.32-.74,.67-1.06,1.06l.65,1.36c.05,.11,.05,.25-.02,.35-.31,.52-.54,1.07-.69,1.66-.03,.12-.12,.22-.24,.26l-1.42,.51c-.03,.27-.04,.52-.04,.75s.01,.48,.04,.75l1.42,.51c.12,.04,.21,.14,.24,.26,.15,.59,.38,1.15,.69,1.66,.06,.11,.07,.24,.02,.35l-.65,1.36c.32,.39,.68,.75,1.06,1.06l1.36-.65c.11-.05,.25-.05,.35,.02,.52,.31,1.08,.54,1.66,.69,.12,.03,.22,.12,.26,.24l.5,1.42Zm8.77-6.96h0Z"/>
      </g>
      <g>
        <circle class="cls-1" cx="33.46" cy="88.13" r="4.2"/>
        <path class="cls-3" d="M33.46,92.7c-2.52,0-4.57-2.05-4.57-4.57s2.05-4.57,4.57-4.57,4.57,2.05,4.57,4.57-2.05,4.57-4.57,4.57Zm0-8.39c-2.11,0-3.82,1.71-3.82,3.82s1.71,3.82,3.82,3.82,3.82-1.71,3.82-3.82-1.71-3.82-3.82-3.82Z"/>
      </g>
    </g>
  </g>
  <g>
    <path class="cls-3" d="M100.7,106.68h-15.46c-1.82,0-3.3-1.48-3.3-3.3v-19.55c0-1.82,1.48-3.3,3.3-3.3h15.46c1.82,0,3.3,1.48,3.3,3.3v19.55c0,1.82-1.48,3.3-3.3,3.3Zm-15.46-25.4c-1.4,0-2.55,1.14-2.55,2.55v19.55c0,1.4,1.14,2.55,2.55,2.55h15.46c1.4,0,2.55-1.14,2.55-2.55v-19.55c0-1.4-1.14-2.55-2.55-2.55h-15.46Z"/>
    <g>
      <path class="cls-3" d="M86.7,84.78h-1.46c-.27,0-.49-.22-.49-.49s.21-.49,.49-.49h3.98c.26,0,.48,.22,.48,.49s-.21,.49-.48,.49h-1.46v4.54c0,.29-.24,.52-.53,.52s-.53-.23-.53-.52v-4.54Z"/>
      <path class="cls-3" d="M89.14,89.11l2.23-4.97c.12-.27,.33-.43,.63-.43h.05c.3,0,.5,.16,.62,.43l2.23,4.97c.04,.08,.06,.15,.06,.22,0,.28-.21,.5-.5,.5-.25,0-.42-.15-.51-.37l-.49-1.12h-2.91l-.5,1.16c-.09,.21-.27,.33-.49,.33-.27,0-.49-.21-.49-.49,0-.08,.03-.15,.07-.24Zm3.92-1.7l-1.05-2.42-1.05,2.42h2.11Z"/>
      <path class="cls-3" d="M95.5,84.3c0-.29,.23-.53,.53-.53h.11c.26,0,.4,.13,.55,.31l3,3.88v-3.68c0-.28,.23-.51,.51-.51s.52,.23,.52,.51v5.03c0,.29-.22,.52-.51,.52h-.04c-.25,0-.4-.13-.55-.32l-3.08-3.99v3.8c0,.28-.23,.51-.51,.51s-.52-.23-.52-.51v-5.02Z"/>
    </g>
    <path class="cls-3" d="M98.96,93.98h-12.67c-.21,0-.38-.17-.38-.38s.17-.38,.38-.38h12.67c.21,0,.38,.17,.38,.38s-.17,.38-.38,.38Z"/>
    <path class="cls-3" d="M94.96,96.98h-8.67c-.21,0-.38-.17-.38-.38s.17-.38,.38-.38h8.67c.21,0,.38,.17,.38,.38s-.17,.38-.38,.38Z"/>
    <path class="cls-3" d="M91.96,99.98h-5.67c-.21,0-.38-.17-.38-.38s.17-.38,.38-.38h5.67c.21,0,.38,.17,.38,.38s-.17,.38-.38,.38Z"/>
    <g>
      <g>
        <path class="cls-2" d="M107.76,90.74h0c.81,.76,.85,2.03,.09,2.84l-6.43,7.26-4.6,1.98,1.68-4.72,6.43-7.26c.76-.81,2.03-.85,2.84-.09Z"/>
        <path class="cls-3" d="M96.82,103.19c-.09,0-.19-.04-.26-.1-.11-.1-.15-.26-.1-.4l1.68-4.72s.04-.09,.07-.12l6.43-7.26c.9-.97,2.41-1.02,3.37-.12,.46,.44,.73,1.02,.75,1.66s-.21,1.24-.64,1.71l-6.43,7.25s-.08,.07-.13,.1l-4.6,1.98s-.1,.03-.15,.03Zm2-4.9l-1.36,3.84,3.74-1.6,6.38-7.2c.3-.33,.46-.74,.45-1.18-.01-.44-.2-.84-.52-1.14h0c-.66-.62-1.69-.58-2.3,.07l-6.38,7.2Zm2.6,2.55h0Z"/>
      </g>
      <g>
        <line class="cls-2" x1="101.42" y1="100.84" x2="98.5" y2="98.09"/>
        <path class="cls-3" d="M101.42,101.21c-.09,0-.18-.03-.26-.1l-2.93-2.74c-.15-.14-.16-.38-.02-.53,.14-.15,.38-.16,.53-.02l2.93,2.74c.15,.14,.16,.38,.02,.53-.07,.08-.17,.12-.27,.12Z"/>
      </g>
      <g>
        <line class="cls-2" x1="107.07" y1="94.41" x2="104.15" y2="91.67"/>
        <path class="cls-3" d="M107.07,94.79c-.09,0-.18-.03-.26-.1l-2.93-2.74c-.15-.14-.16-.38-.02-.53,.14-.15,.38-.16,.53-.02l2.93,2.74c.15,.14,.16,.38,.02,.53-.07,.08-.17,.12-.27,.12Z"/>
      </g>
    </g>
  </g>
  <g>
    <path class="cls-3" d="M166.24,106.68h-15.46c-1.82,0-3.3-1.48-3.3-3.3v-19.55c0-1.82,1.48-3.3,3.3-3.3h15.46c1.82,0,3.3,1.48,3.3,3.3v19.55c0,1.82-1.48,3.3-3.3,3.3Zm-15.46-25.4c-1.4,0-2.55,1.14-2.55,2.55v19.55c0,1.4,1.14,2.55,2.55,2.55h15.46c1.4,0,2.55-1.14,2.55-2.55v-19.55c0-1.4-1.14-2.55-2.55-2.55h-15.46Z"/>
    <g>
      <path class="cls-3" d="M150.58,84.33c0-.3,.23-.53,.53-.53h1.83c1.4,0,2.28,.8,2.28,2v.02c0,1.34-1.08,2.05-2.4,2.05h-1.19v1.45c0,.29-.23,.52-.52,.52s-.53-.23-.53-.52v-4.98Zm2.28,2.59c.8,0,1.29-.45,1.29-1.07v-.02c0-.7-.5-1.07-1.29-1.07h-1.22v2.16h1.22Z"/>
      <path class="cls-3" d="M154.87,89.11l2.23-4.97c.12-.27,.33-.43,.63-.43h.05c.3,0,.5,.16,.62,.43l2.23,4.97c.04,.08,.06,.15,.06,.22,0,.28-.21,.5-.5,.5-.25,0-.42-.15-.51-.37l-.49-1.12h-2.91l-.5,1.16c-.09,.21-.27,.33-.49,.33-.27,0-.49-.21-.49-.49,0-.08,.03-.15,.07-.24Zm3.92-1.7l-1.05-2.42-1.05,2.42h2.11Z"/>
      <path class="cls-3" d="M161.23,84.3c0-.29,.23-.53,.53-.53h.11c.26,0,.4,.13,.55,.31l3,3.88v-3.68c0-.28,.23-.51,.51-.51s.52,.23,.52,.51v5.03c0,.29-.22,.52-.51,.52h-.04c-.25,0-.4-.13-.55-.32l-3.08-3.99v3.8c0,.28-.23,.51-.51,.51s-.52-.23-.52-.51v-5.02Z"/>
    </g>
    <path class="cls-3" d="M164.5,93.98h-12.67c-.21,0-.38-.17-.38-.38s.17-.38,.38-.38h12.67c.21,0,.38,.17,.38,.38s-.17,.38-.38,.38Z"/>
    <path class="cls-3" d="M160.5,96.98h-8.67c-.21,0-.38-.17-.38-.38s.17-.38,.38-.38h8.67c.21,0,.38,.17,.38,.38s-.17,.38-.38,.38Z"/>
    <path class="cls-3" d="M164.5,99.98h-12.67c-.21,0-.38-.17-.38-.38s.17-.38,.38-.38h12.67c.21,0,.38,.17,.38,.38s-.17,.38-.38,.38Z"/>
  </g>
  <g>
    <path class="cls-3" d="M215.05,100.25c-.05,0-.11-.01-.16-.03-.09-.04-.16-.12-.2-.21l-.78-2.19c-.04-.11-.03-.22,.03-.32l5.34-8.89c.1-.17,.31-.23,.48-.15l.96,.44c.17,.08,.26,.28,.2,.46l-3.34,9.82c-.04,.11-.12,.19-.22,.23l-2.18,.82s-.09,.02-.13,.02Zm-.37-2.53l.59,1.67,1.66-.62,3.17-9.34-.34-.16-5.08,8.45Zm2.55,1.33h0Z"/>
    <g>
      <polygon class="cls-2" points="223.2 101.4 220.01 104.64 216.82 101.4 218.98 86.5 221.04 86.5 223.2 101.4"/>
      <path class="cls-3" d="M220.01,105.01c-.1,0-.2-.04-.27-.11l-3.19-3.24c-.08-.08-.12-.2-.1-.32l2.16-14.9c.03-.18,.18-.32,.37-.32h2.06c.19,0,.34,.14,.37,.32l2.16,14.9c.02,.12-.02,.23-.1,.32l-3.19,3.24c-.07,.07-.17,.11-.27,.11Zm-2.79-3.74l2.79,2.83,2.79-2.83-2.09-14.39h-1.41l-2.09,14.39Z"/>
    </g>
    <path class="cls-3" d="M221.13,86.88h-2.15c-.12,0-.23-.05-.3-.15l-2-2.58c-.09-.11-.1-.27-.04-.39,.06-.13,.19-.21,.34-.21h6.15c.14,0,.27,.08,.34,.21,.06,.13,.05,.28-.04,.39l-2,2.58c-.07,.09-.18,.15-.3,.15Zm-1.97-.75h1.78l1.42-1.83h-4.62l1.42,1.83Z"/>
    <g>
      <path class="cls-3" d="M228.71,106.68h-15.46c-1.82,0-3.3-1.48-3.3-3.3v-19.55c0-1.82,1.48-3.3,3.3-3.3h15.46c1.82,0,3.3,1.48,3.3,3.3v19.55c0,1.82-1.48,3.3-3.3,3.3Zm-15.46-25.4c-1.4,0-2.55,1.14-2.55,2.55v19.55c0,1.4,1.14,2.55,2.55,2.55h15.46c1.4,0,2.55-1.14,2.55-2.55v-19.55c0-1.4-1.14-2.55-2.55-2.55h-15.46Z"/>
      <g>
        <g>
          <path class="cls-2" d="M235.78,85.74h0c.81,.76,.85,2.03,.09,2.84l-6.43,7.26-4.6,1.98,1.68-4.72,6.43-7.26c.76-.81,2.03-.85,2.84-.09Z"/>
          <path class="cls-3" d="M224.83,98.19c-.09,0-.19-.04-.26-.1-.11-.1-.15-.26-.1-.4l1.68-4.72s.04-.09,.07-.12l6.43-7.26c.44-.47,1.03-.74,1.67-.76,.64-.02,1.24,.21,1.71,.64h0c.96,.9,1,2.41,.11,3.37l-6.43,7.25s-.08,.07-.13,.1l-4.6,1.98s-.1,.03-.15,.03Zm2-4.9l-1.36,3.84,3.74-1.6,6.38-7.2c.62-.66,.59-1.7-.07-2.31-.32-.3-.74-.46-1.17-.44-.44,.01-.84,.2-1.14,.51l-6.38,7.2Z"/>
        </g>
        <g>
          <line class="cls-2" x1="229.43" y1="95.84" x2="226.51" y2="93.09"/>
          <path class="cls-3" d="M229.43,96.21c-.09,0-.18-.03-.26-.1l-2.93-2.74c-.15-.14-.16-.38-.02-.53,.14-.15,.38-.16,.53-.02l2.93,2.74c.15,.14,.16,.38,.02,.53-.07,.08-.17,.12-.27,.12Z"/>
        </g>
        <g>
          <line class="cls-2" x1="235.08" y1="89.41" x2="232.16" y2="86.67"/>
          <path class="cls-3" d="M235.08,89.79c-.09,0-.18-.03-.26-.1l-2.93-2.74c-.15-.14-.16-.38-.02-.53,.14-.15,.38-.16,.53-.02l2.93,2.74c.15,.14,.16,.38,.02,.53-.07,.08-.17,.12-.27,.12Z"/>
        </g>
      </g>
    </g>
  </g>
  <g>
    <g>
      <rect class="cls-1" x="271.33" y="81.68" width="29.39" height="21.71" rx="3" ry="3"/>
      <path class="cls-3" d="M297.72,103.81h-23.39c-1.89,0-3.42-1.54-3.42-3.43v-15.71c0-1.89,1.54-3.43,3.42-3.43h23.39c1.89,0,3.42,1.54,3.42,3.43v15.71c0,1.89-1.54,3.43-3.42,3.43Zm-23.39-21.71c-1.42,0-2.58,1.16-2.58,2.57v15.71c0,1.42,1.16,2.57,2.58,2.57h23.39c1.42,0,2.58-1.16,2.58-2.57v-15.71c0-1.42-1.16-2.57-2.58-2.57h-23.39Z"/>
    </g>
    <g>
      <g>
        <polygon class="cls-2" points="286.45 99.06 279.7 95.95 279.7 89.2 286.45 92.32 286.45 99.06"/>
        <path class="cls-3" d="M286.45,99.49c-.06,0-.12-.01-.18-.04l-6.75-3.11c-.15-.07-.25-.22-.25-.39v-6.75c0-.14,.07-.28,.2-.36,.12-.08,.27-.09,.41-.03l6.75,3.11c.15,.07,.25,.22,.25,.39v6.75c0,.15-.07,.28-.2,.36-.07,.04-.15,.07-.23,.07Zm-6.32-3.81l5.9,2.72v-5.81l-5.9-2.72v5.81Z"/>
      </g>
      <g>
        <polygon class="cls-2" points="286.55 99.06 293.29 95.95 293.29 89.2 286.55 92.32 286.55 99.06"/>
        <path class="cls-3" d="M286.55,99.49c-.08,0-.16-.02-.23-.07-.12-.08-.2-.21-.2-.36v-6.75c0-.17,.1-.32,.25-.39l6.75-3.11c.13-.06,.29-.05,.41,.03,.12,.08,.2,.21,.2,.36v6.75c0,.17-.1,.32-.25,.39l-6.75,3.11c-.06,.03-.12,.04-.18,.04Zm.42-6.9v5.81l5.9-2.72v-5.81l-5.9,2.72Z"/>
      </g>
      <path class="cls-3" d="M279.7,89.63c-.16,0-.32-.09-.39-.25-.1-.21,0-.47,.21-.56l6.85-3.12c.11-.05,.24-.05,.35,0l6.75,3.12c.21,.1,.31,.35,.21,.56-.1,.21-.35,.31-.56,.21l-6.57-3.03-6.67,3.04c-.06,.03-.12,.04-.18,.04Z"/>
    </g>
    <path class="cls-3" d="M303.64,105.96h-34.91c-.23,0-.42-.19-.42-.43s.19-.43,.42-.43h34.91c.23,0,.42,.19,.42,.43s-.19,.43-.42,.43Z"/>
  </g>
</svg>