<?xml version="1.0" encoding="UTF-8"?>
<svg id="Layer_1" data-name="Layer 1" xmlns="http://www.w3.org/2000/svg" viewBox="0 0 320 128">
  <defs>
    <style>
      .cls-1 {
        fill: #fff;
      }

      .cls-2 {
        fill: #a9e0ff;
      }

      .cls-3 {
        fill: #186dc9;
      }
    </style>
  </defs>
  <g>
    <g>
      <rect class="cls-2" x="87.51" y="87.96" width="21.04" height="16.06"/>
      <path class="cls-3" d="M108.55,104.4h-21.04c-.21,0-.38-.17-.38-.38v-16.06c0-.21,.17-.38,.38-.38h21.04c.21,0,.38,.17,.38,.38v16.06c0,.21-.17,.38-.38,.38Zm-20.66-.75h20.29v-15.31h-20.29v15.31Z"/>
    </g>
    <g>
      <path class="cls-1" d="M98.03,93.59h0c4.37,0,7.92,3.55,7.92,7.92v2.51h-15.84v-2.51c0-4.37,3.55-7.92,7.92-7.92Z"/>
      <path class="cls-3" d="M105.96,104.4h-15.84c-.21,0-.38-.17-.38-.38v-2.51c0-4.58,3.72-8.3,8.3-8.3s8.3,3.72,8.3,8.3v2.51c0,.21-.17,.38-.38,.38Zm-15.47-.75h15.09v-2.14c0-4.16-3.39-7.55-7.55-7.55s-7.55,3.39-7.55,7.55v2.14Z"/>
    </g>
    <g>
      <circle class="cls-1" cx="98.03" cy="87.96" r="5.35"/>
      <path class="cls-3" d="M98.03,93.69c-3.16,0-5.73-2.57-5.73-5.73s2.57-5.73,5.73-5.73,5.73,2.57,5.73,5.73-2.57,5.73-5.73,5.73Zm0-10.71c-2.74,0-4.98,2.23-4.98,4.98s2.23,4.98,4.98,4.98,4.98-2.23,4.98-4.98-2.23-4.98-4.98-4.98Z"/>
    </g>
    <g>
      <polygon class="cls-2" points="99.56 106.12 98.09 107.24 96.62 106.12 97.75 95.83 98.43 95.83 99.56 106.12"/>
      <path class="cls-3" d="M98.09,107.62c-.08,0-.16-.03-.23-.08l-1.47-1.12c-.1-.08-.16-.21-.14-.34l1.12-10.29c.02-.19,.18-.33,.37-.33h.68c.19,0,.35,.14,.37,.33l1.12,10.29c.01,.13-.04,.26-.14,.34l-1.47,1.12c-.07,.05-.15,.08-.23,.08Zm-1.07-1.67l1.07,.82,1.07-.82-1.08-9.75-1.06,9.75Z"/>
    </g>
    <g>
      <polyline class="cls-2" points="99.93 93.88 98.09 95.72 96.25 93.88"/>
      <path class="cls-3" d="M98.09,96.1c-.1,0-.19-.04-.26-.11l-1.84-1.84c-.15-.15-.15-.38,0-.53s.39-.15,.53,0l1.58,1.57,1.57-1.57c.15-.15,.39-.15,.53,0,.15,.15,.15,.38,0,.53l-1.84,1.84c-.07,.07-.17,.11-.27,.11Z"/>
    </g>
  </g>
  <g>
    <g>
      <path class="cls-1" d="M47.02,104.13H23.53v-5.96c0-3.36,2.72-6.08,6.08-6.08h3.76"/>
      <path class="cls-3" d="M47.02,104.51H23.53c-.21,0-.38-.17-.38-.38v-5.96c0-3.56,2.9-6.46,6.46-6.46h3.76c.21,0,.38,.17,.38,.38s-.17,.38-.38,.38h-3.76c-3.15,0-5.71,2.56-5.71,5.71v5.59h23.11c.21,0,.38,.17,.38,.38s-.17,.38-.38,.38Z"/>
    </g>
    <g>
      <circle class="cls-2" cx="31.01" cy="86.91" r="4.8"/>
      <path class="cls-3" d="M31.01,92.08c-2.85,0-5.17-2.32-5.17-5.17s2.32-5.17,5.17-5.17,5.17,2.32,5.17,5.17-2.32,5.17-5.17,5.17Zm0-9.59c-2.44,0-4.42,1.98-4.42,4.42s1.98,4.42,4.42,4.42,4.42-1.98,4.42-4.42-1.98-4.42-4.42-4.42Z"/>
    </g>
    <g>
      <polygon class="cls-1" points="32.96 106.09 31.3 107.36 29.65 106.09 30.92 94.48 31.69 94.48 32.96 106.09"/>
      <path class="cls-3" d="M31.3,107.73c-.08,0-.16-.03-.23-.08l-1.65-1.27c-.1-.08-.16-.21-.14-.34l1.27-11.61c.02-.19,.18-.33,.37-.33h.77c.19,0,.35,.14,.37,.33l1.27,11.61c.01,.13-.04,.26-.14,.34l-1.65,1.27c-.07,.05-.15,.08-.23,.08Zm-1.26-1.81l1.26,.96,1.26-.96-1.21-11.06h-.1l-1.21,11.06Z"/>
    </g>
    <g>
      <polyline class="cls-1" points="33.38 92.29 31.3 94.36 29.23 92.29"/>
      <path class="cls-3" d="M31.3,94.74c-.1,0-.2-.04-.27-.11l-2.07-2.07c-.15-.15-.15-.38,0-.53,.14-.15,.38-.15,.53,0l1.81,1.81,1.81-1.81c.15-.15,.39-.15,.53,0,.15,.15,.15,.38,0,.53l-2.07,2.07c-.07,.07-.17,.11-.27,.11Z"/>
    </g>
    <g>
      <g>
        <circle class="cls-1" cx="39.97" cy="86.91" r="4.8"/>
        <path class="cls-3" d="M39.97,92.08c-2.85,0-5.17-2.32-5.17-5.17s2.32-5.17,5.17-5.17,5.17,2.32,5.17,5.17-2.32,5.17-5.17,5.17Zm0-9.59c-2.44,0-4.42,1.98-4.42,4.42s1.98,4.42,4.42,4.42,4.42-1.98,4.42-4.42-1.98-4.42-4.42-4.42Z"/>
      </g>
      <g>
        <path class="cls-1" d="M38.64,92.29h2.6c3.19,0,5.78,2.59,5.78,5.78v6.07h-14.15v-6.07c0-3.19,2.59-5.78,5.78-5.78Z"/>
        <path class="cls-3" d="M47.02,104.51h-14.16c-.21,0-.38-.17-.38-.38v-6.07c0-3.39,2.76-6.15,6.15-6.15h2.6c3.39,0,6.15,2.76,6.15,6.15v6.07c0,.21-.17,.38-.38,.38Zm-13.78-.75h13.41v-5.69c0-2.98-2.42-5.4-5.4-5.4h-2.6c-2.98,0-5.4,2.42-5.4,5.4v5.69Z"/>
      </g>
      <g>
        <polygon class="cls-2" points="41.84 106.47 40.19 107.74 38.53 106.47 39.8 94.87 40.57 94.87 41.84 106.47"/>
        <path class="cls-3" d="M40.19,108.12c-.08,0-.16-.03-.23-.08l-1.65-1.27c-.1-.08-.16-.21-.14-.34l1.27-11.61c.02-.19,.18-.33,.37-.33h.77c.19,0,.35,.14,.37,.33l1.27,11.61c.01,.13-.04,.26-.14,.34l-1.65,1.27c-.07,.05-.15,.08-.23,.08Zm-1.26-1.81l1.26,.96,1.26-.96-1.21-11.06h-.1l-1.21,11.06Z"/>
      </g>
      <g>
        <polyline class="cls-2" points="42.26 92.67 40.19 94.74 38.11 92.67"/>
        <path class="cls-3" d="M40.19,95.12c-.1,0-.19-.04-.26-.11l-2.08-2.07c-.15-.15-.15-.38,0-.53s.38-.15,.53,0l1.81,1.81,1.81-1.81c.15-.15,.38-.15,.53,0,.15,.15,.15,.38,0,.53l-2.07,2.07c-.07,.07-.17,.11-.27,.11Z"/>
      </g>
    </g>
  </g>
  <g>
    <path class="cls-3" d="M40.61,45.78h-15.46c-1.82,0-3.3-1.48-3.3-3.3V22.93c0-1.82,1.48-3.3,3.3-3.3h15.46c1.82,0,3.3,1.48,3.3,3.3v19.55c0,1.82-1.48,3.3-3.3,3.3Zm-15.46-25.4c-1.4,0-2.55,1.14-2.55,2.55v19.55c0,1.4,1.14,2.55,2.55,2.55h15.46c1.4,0,2.55-1.14,2.55-2.55V22.93c0-1.4-1.14-2.55-2.55-2.55h-15.46Z"/>
    <g>
      <path class="cls-3" d="M28.6,24.88h-1.46c-.27,0-.49-.22-.49-.49s.21-.49,.49-.49h3.98c.27,0,.48,.22,.48,.49s-.21,.49-.48,.49h-1.46v4.54c0,.29-.24,.52-.53,.52s-.53-.23-.53-.52v-4.54Z"/>
      <path class="cls-3" d="M32.76,24.4c0-.29,.23-.53,.53-.53h.11c.23,0,.38,.12,.49,.28l1.82,2.84,1.82-2.85c.11-.18,.26-.27,.48-.27h.11c.3,0,.53,.24,.53,.53v5.02c0,.29-.23,.52-.53,.52-.28,0-.52-.24-.52-.52v-3.59l-1.46,2.2c-.11,.17-.25,.27-.45,.27s-.33-.1-.44-.27l-1.46-2.18v3.59c0,.29-.23,.51-.52,.51s-.51-.22-.51-.51v-5.02Z"/>
    </g>
    <path class="cls-3" d="M38.88,33.08h-12.67c-.21,0-.38-.17-.38-.38s.17-.38,.38-.38h12.67c.21,0,.38,.17,.38,.38s-.17,.38-.38,.38Z"/>
    <path class="cls-3" d="M34.88,36.08h-8.67c-.21,0-.38-.17-.38-.38s.17-.38,.38-.38h8.67c.21,0,.38,.17,.38,.38s-.17,.38-.38,.38Z"/>
    <path class="cls-3" d="M31.88,39.08h-5.67c-.21,0-.38-.17-.38-.38s.17-.38,.38-.38h5.67c.21,0,.38,.17,.38,.38s-.17,.38-.38,.38Z"/>
    <g>
      <g>
        <path class="cls-2" d="M47.68,29.84h0c.81,.76,.85,2.03,.09,2.84l-6.43,7.26-4.6,1.98,1.68-4.72,6.43-7.26c.76-.81,2.03-.85,2.84-.09Z"/>
        <path class="cls-3" d="M36.74,42.29c-.09,0-.19-.04-.26-.1-.11-.1-.15-.26-.1-.4l1.68-4.72s.04-.09,.07-.12l6.43-7.26c.44-.47,1.03-.74,1.67-.76,.63-.02,1.24,.21,1.71,.64h0c.46,.43,.73,1.02,.75,1.66s-.21,1.24-.64,1.71l-6.43,7.25s-.08,.07-.13,.1l-4.6,1.98s-.1,.03-.15,.03Zm2-4.9l-1.36,3.84,3.74-1.6,6.38-7.2c.3-.33,.46-.74,.45-1.17-.01-.44-.2-.84-.52-1.14h0c-.32-.3-.73-.45-1.17-.44-.44,.01-.84,.2-1.14,.52l-6.38,7.2Zm2.6,2.55h0Z"/>
      </g>
      <g>
        <line class="cls-2" x1="41.34" y1="39.94" x2="38.41" y2="37.19"/>
        <path class="cls-3" d="M41.34,40.31c-.09,0-.18-.03-.26-.1l-2.93-2.74c-.15-.14-.16-.38-.02-.53,.14-.15,.38-.16,.53-.02l2.93,2.74c.15,.14,.16,.38,.02,.53-.07,.08-.17,.12-.27,.12Z"/>
      </g>
      <g>
        <line class="cls-2" x1="46.99" y1="33.51" x2="44.06" y2="30.77"/>
        <path class="cls-3" d="M46.99,33.89c-.09,0-.18-.03-.26-.1l-2.93-2.74c-.15-.14-.16-.38-.02-.53,.14-.15,.38-.16,.53-.02l2.93,2.74c.15,.14,.16,.38,.02,.53-.07,.08-.17,.12-.27,.12Z"/>
      </g>
    </g>
  </g>
  <g>
    <path class="cls-3" d="M170.16,45.78h-15.46c-1.82,0-3.3-1.48-3.3-3.3V22.93c0-1.82,1.48-3.3,3.3-3.3h15.46c1.82,0,3.3,1.48,3.3,3.3v19.55c0,1.82-1.48,3.3-3.3,3.3Zm-15.46-25.4c-1.4,0-2.55,1.14-2.55,2.55v19.55c0,1.4,1.14,2.55,2.55,2.55h15.46c1.4,0,2.55-1.14,2.55-2.55V22.93c0-1.4-1.14-2.55-2.55-2.55h-15.46Z"/>
    <g>
      <path class="cls-3" d="M158.15,24.88h-1.46c-.27,0-.49-.22-.49-.49s.21-.49,.49-.49h3.98c.27,0,.48,.22,.48,.49s-.21,.49-.48,.49h-1.46v4.54c0,.29-.24,.52-.53,.52s-.53-.23-.53-.52v-4.54Z"/>
      <path class="cls-3" d="M162.31,24.4c0-.29,.23-.53,.53-.53h.11c.23,0,.38,.12,.49,.28l1.82,2.84,1.82-2.85c.11-.18,.26-.27,.48-.27h.11c.3,0,.53,.24,.53,.53v5.02c0,.29-.23,.52-.53,.52-.28,0-.52-.24-.52-.52v-3.6l-1.46,2.2c-.11,.17-.25,.27-.45,.27s-.33-.1-.44-.27l-1.46-2.18v3.59c0,.29-.23,.51-.52,.51s-.51-.22-.51-.51v-5.03Z"/>
    </g>
    <path class="cls-3" d="M160.69,41.31c-.13,0-.26-.05-.35-.15l-3.93-3.93c-.2-.2-.2-.51,0-.71s.51-.2,.71,0l3.58,3.58,6.51-6.51c.2-.2,.51-.2,.71,0s.2,.51,0,.71l-6.86,6.86c-.1,.1-.23,.15-.35,.15Z"/>
  </g>
  <g>
    <path class="cls-3" d="M295.85,45.47h-16.6c-1.5,0-2.72-1.22-2.72-2.73v-11.73c0-.73,.28-1.41,.8-1.93,.15-.15,.38-.15,.53,0s.15,.38,0,.53c-.37,.37-.58,.87-.58,1.4v11.73c0,1.09,.89,1.98,1.97,1.98h16.6c1.09,0,1.98-.89,1.98-1.98v-11.73c0-.55-.23-1.08-.64-1.45-.15-.14-.16-.38-.02-.53,.14-.15,.38-.16,.53-.02,.56,.52,.88,1.25,.88,2.01v11.73c0,1.5-1.22,2.73-2.73,2.73Z"/>
    <g>
      <g>
        <path class="cls-2" d="M303.1,31.32h0c.7,.86,.57,2.12-.29,2.82l-7.34,6.34-4.82,1.34,2.29-4.45,7.34-6.34c.86-.7,2.12-.57,2.82,.29Z"/>
        <path class="cls-3" d="M290.65,42.2c-.11,0-.22-.05-.29-.14-.09-.12-.11-.28-.04-.41l2.29-4.45s.05-.08,.09-.11l7.34-6.34c.5-.41,1.12-.59,1.75-.53,.63,.06,1.2,.37,1.6,.86h0c.4,.49,.59,1.11,.52,1.75-.06,.63-.37,1.2-.86,1.6l-7.34,6.33s-.09,.06-.14,.08l-4.82,1.34s-.07,.01-.1,.01Zm2.59-4.59l-1.86,3.63,3.92-1.09,7.28-6.28c.35-.28,.56-.67,.6-1.1,.04-.43-.08-.86-.36-1.2h0c-.27-.34-.67-.55-1.1-.59-.43-.05-.86,.08-1.2,.36l-7.28,6.28Zm2.23,2.87h0Z"/>
      </g>
      <g>
        <line class="cls-2" x1="295.47" y1="40.48" x2="292.94" y2="37.37"/>
        <path class="cls-3" d="M295.47,40.86c-.11,0-.22-.05-.29-.14l-2.53-3.11c-.13-.16-.11-.4,.05-.53,.16-.13,.4-.11,.53,.05l2.53,3.11c.13,.16,.11,.4-.05,.53-.07,.06-.15,.08-.24,.08Z"/>
      </g>
      <g>
        <line class="cls-2" x1="301.92" y1="34.87" x2="299.39" y2="31.76"/>
        <path class="cls-3" d="M301.92,35.24c-.11,0-.22-.05-.29-.14l-2.53-3.11c-.13-.16-.11-.4,.05-.53,.16-.13,.4-.11,.53,.05l2.53,3.11c.13,.16,.11,.4-.05,.53-.07,.06-.15,.08-.24,.08Z"/>
      </g>
    </g>
    <g>
      <path class="cls-3" d="M283.42,27.89v-.03c0-2.25,1.74-4.14,4.12-4.14,1.24,0,2.1,.4,2.77,.99,.12,.11,.28,.33,.28,.63,0,.46-.38,.82-.84,.82-.22,0-.42-.09-.54-.18-.46-.39-.97-.67-1.69-.67-1.32,0-2.29,1.14-2.29,2.52v.03c0,1.41,.97,2.53,2.37,2.53,.72,0,1.27-.29,1.77-.7,.11-.09,.29-.2,.5-.2,.43,0,.78,.36,.78,.79,0,.24-.09,.43-.25,.57-.7,.67-1.56,1.12-2.88,1.12-2.35,0-4.09-1.84-4.09-4.09Z"/>
      <path class="cls-3" d="M287.55,35.46c-4.28,0-7.76-3.48-7.76-7.76s3.48-7.76,7.76-7.76,7.76,3.48,7.76,7.76-3.48,7.76-7.76,7.76Zm0-14.77c-3.87,0-7.01,3.14-7.01,7.01s3.14,7.01,7.01,7.01,7.01-3.14,7.01-7.01-3.14-7.01-7.01-7.01Z"/>
    </g>
    <path class="cls-3" d="M289.54,38.31h-8.67c-.21,0-.38-.17-.38-.38s.17-.38,.38-.38h8.67c.21,0,.38,.17,.38,.38s-.17,.38-.38,.38Z"/>
    <path class="cls-3" d="M286.54,41.31h-5.67c-.21,0-.38-.17-.38-.38s.17-.38,.38-.38h5.67c.21,0,.38,.17,.38,.38s-.17,.38-.38,.38Z"/>
  </g>
  <g>
    <path class="cls-3" d="M105.76,45.78h-15.46c-1.82,0-3.3-1.48-3.3-3.3V22.93c0-1.82,1.48-3.3,3.3-3.3h15.46c1.82,0,3.3,1.48,3.3,3.3v19.55c0,1.82-1.48,3.3-3.3,3.3Zm-15.46-25.4c-1.4,0-2.55,1.14-2.55,2.55v19.55c0,1.4,1.14,2.55,2.55,2.55h15.46c1.4,0,2.55-1.14,2.55-2.55V22.93c0-1.41-1.14-2.55-2.55-2.55h-15.46Z"/>
    <g>
      <path class="cls-3" d="M93.75,23.88h-1.46c-.27,0-.49-.22-.49-.49s.21-.49,.49-.49h3.98c.27,0,.48,.22,.48,.49s-.21,.49-.48,.49h-1.46v4.54c0,.29-.24,.52-.53,.52s-.53-.23-.53-.52v-4.54Z"/>
      <path class="cls-3" d="M97.91,23.4c0-.29,.23-.53,.53-.53h.11c.23,0,.38,.12,.49,.28l1.81,2.84,1.82-2.85c.11-.18,.26-.27,.48-.27h.11c.3,0,.53,.24,.53,.53v5.02c0,.29-.23,.52-.53,.52-.28,0-.52-.24-.52-.52v-3.6l-1.46,2.2c-.11,.17-.25,.27-.45,.27s-.33-.1-.44-.27l-1.46-2.18v3.59c0,.29-.23,.51-.52,.51s-.51-.22-.51-.51v-5.03Z"/>
    </g>
    <path class="cls-3" d="M96.88,33.27c-.04-.38,.17-.66,.52-.66h1.27c.35,0,.56,.29,.52,.66l-.56,4.89c-.04,.35-.27,.57-.6,.57s-.56-.22-.6-.57l-.56-4.89Zm1.16,6.32c.65,0,1.13,.48,1.13,1.11v.03c0,.62-.48,1.11-1.13,1.11s-1.13-.48-1.13-1.11v-.03c0-.62,.48-1.11,1.13-1.11Z"/>
  </g>
  <g>
    <g>
      <circle class="cls-2" cx="219.4" cy="89.03" r="3.89"/>
      <path class="cls-3" d="M219.4,93.29c-2.35,0-4.26-1.91-4.26-4.26s1.91-4.27,4.26-4.27,4.26,1.91,4.26,4.27-1.91,4.26-4.26,4.26Zm0-7.78c-1.94,0-3.51,1.58-3.51,3.52s1.58,3.51,3.51,3.51,3.51-1.58,3.51-3.51-1.58-3.52-3.51-3.52Z"/>
    </g>
    <g>
      <circle class="cls-2" cx="231.4" cy="101.03" r="3.89"/>
      <path class="cls-3" d="M231.4,105.29c-2.35,0-4.26-1.91-4.26-4.26s1.91-4.27,4.26-4.27,4.26,1.91,4.26,4.27-1.91,4.26-4.26,4.26Zm0-7.78c-1.94,0-3.51,1.58-3.51,3.52s1.58,3.51,3.51,3.51,3.51-1.58,3.51-3.51-1.58-3.52-3.51-3.52Z"/>
    </g>
    <path class="cls-3" d="M217.55,105.74c-.13,0-.25-.05-.35-.14l-2.03-2.01c-.09-.09-.15-.22-.15-.35s.05-.26,.15-.35l15.18-15.13-2.87-2.78c-.15-.14-.19-.36-.11-.55,.08-.19,.26-.31,.46-.31h8.41c.28,0,.5,.22,.5,.5v8.31c0,.2-.12,.39-.31,.46-.19,.08-.4,.03-.55-.11l-2.83-2.86-15.14,15.19c-.1,.1-.23,.15-.35,.15Zm-1.32-2.51l1.32,1.3,15.14-15.19c.09-.09,.22-.15,.35-.15h0c.13,0,.26,.05,.35,.15l2.33,2.35v-6.59h-6.67l2.35,2.28c.1,.09,.15,.22,.15,.35,0,.13-.05,.26-.15,.36l-15.18,15.13Z"/>
  </g>
  <g>
    <g>
      <path class="cls-3" d="M290.23,96.9c-.21,0-.38-.17-.38-.38v-14.16c0-.21,.17-.38,.38-.38s.38,.17,.38,.38v14.16c0,.21-.17,.38-.38,.38Z"/>
      <g>
        <path class="cls-2" d="M279.75,94.71c0-5.79,4.69-10.48,10.48-10.48s10.48,4.69,10.48,10.48h0c-1.26-1.34-3.38-1.4-4.72-.14l-.15,.14-.67-.57c-1.27-1.07-3.13-1.04-4.37,.06l-.57,.51-.45-.4c-1.29-1.15-3.25-1.12-4.5,.07l-.36,.33-.37-.33c-1.31-1.18-3.32-1.13-4.57,.1l-.23,.22Z"/>
        <path class="cls-3" d="M300.7,95.09c-.1,0-.2-.04-.27-.12-1.12-1.19-3-1.24-4.19-.12l-.15,.14c-.14,.13-.35,.14-.5,.01l-.67-.57c-1.12-.94-2.78-.92-3.88,.05l-.57,.51c-.14,.13-.36,.13-.5,0l-.45-.4c-1.16-1.02-2.87-1-4,.06l-.36,.33c-.14,.13-.36,.14-.51,0l-.37-.33c-1.16-1.04-2.95-1-4.06,.09l-.23,.22c-.11,.11-.27,.14-.41,.08-.14-.06-.23-.19-.23-.35,0-5.98,4.87-10.85,10.85-10.85s10.85,4.87,10.85,10.85c0,.15-.09,.29-.24,.35-.04,.02-.09,.03-.14,.03Zm-7.69-2.09c.85,0,1.7,.29,2.39,.87l.42,.35c1.27-1.11,3.1-1.21,4.47-.33-.42-5.19-4.78-9.28-10.07-9.28s-9.62,4.07-10.07,9.24c1.39-.99,3.33-.92,4.64,.26l.11,.1,.1-.1c1.41-1.33,3.56-1.36,5.01-.07l.2,.18,.32-.29c.7-.62,1.58-.93,2.47-.93Z"/>
      </g>
    </g>
    <g>
      <path class="cls-3" d="M294.62,107.86h-8.78c-.21,0-.38-.17-.38-.38v-1.39c0-2.63,2.14-4.77,4.77-4.77s4.77,2.14,4.77,4.77v1.39c0,.21-.17,.38-.38,.38Zm-8.41-.75h8.03v-1.02c0-2.21-1.8-4.02-4.02-4.02s-4.02,1.8-4.02,4.02v1.02Z"/>
      <path class="cls-3" d="M290.23,102.04c-1.6,0-2.9-1.3-2.9-2.9s1.3-2.9,2.9-2.9,2.9,1.3,2.9,2.9-1.3,2.9-2.9,2.9Zm0-5.05c-1.19,0-2.15,.96-2.15,2.15s.96,2.15,2.15,2.15,2.15-.96,2.15-2.15-.96-2.15-2.15-2.15Z"/>
    </g>
  </g>
  <g>
    <g>
      <path class="cls-3" d="M220.25,30.01h-1.87c-.35,0-.63-.29-.63-.63s.27-.63,.63-.63h5.12c.34,0,.62,.29,.62,.63s-.28,.63-.62,.63h-1.88v5.83c0,.37-.31,.67-.68,.67s-.68-.3-.68-.67v-5.83Z"/>
      <path class="cls-3" d="M225.6,29.39c0-.37,.3-.68,.68-.68h.14c.3,0,.5,.15,.63,.36l2.33,3.65,2.34-3.66c.14-.23,.34-.35,.62-.35h.14c.38,0,.68,.31,.68,.68v6.45c0,.37-.3,.67-.68,.67-.36,0-.67-.31-.67-.67v-4.62l-1.88,2.83c-.14,.22-.32,.35-.57,.35s-.42-.13-.56-.35l-1.87-2.81v4.61c0,.37-.3,.66-.67,.66s-.66-.29-.66-.66v-6.46Z"/>
    </g>
    <path class="cls-3" d="M225.87,45.75c-7.19,0-13.04-5.85-13.04-13.05,0-.21,.17-.38,.38-.38s.38,.17,.38,.38c0,6.78,5.52,12.3,12.29,12.3,4.88,0,9.3-2.89,11.27-7.36,.18-.42,.35-.85,.48-1.29,.06-.2,.27-.31,.47-.25,.2,.06,.31,.27,.25,.47-.15,.47-.32,.93-.51,1.37-2.08,4.75-6.77,7.81-11.95,7.81Z"/>
    <path class="cls-3" d="M238.54,33.08c-.21,0-.37-.17-.37-.38,0-6.78-5.52-12.29-12.3-12.29-4.91,0-9.34,2.91-11.29,7.42-.08,.19-.31,.28-.49,.2-.19-.08-.28-.3-.2-.49,2.07-4.79,6.77-7.88,11.98-7.88,7.19,0,13.05,5.85,13.05,13.04,0,.21-.17,.38-.37,.38Z"/>
    <path class="cls-3" d="M216.39,35.83c-.1,0-.19-.04-.27-.11l-2.93-2.93-2.93,2.93c-.15,.15-.38,.15-.53,0-.15-.15-.15-.38,0-.53l3.19-3.19c.07-.07,.17-.11,.27-.11h0c.1,0,.2,.04,.27,.11l3.19,3.19c.15,.15,.15,.38,0,.53-.07,.07-.17,.11-.26,.11Z"/>
    <path class="cls-3" d="M238.54,33.48c-.1,0-.19-.04-.26-.11l-3.19-3.19c-.15-.15-.15-.38,0-.53,.15-.15,.39-.15,.53,0l2.93,2.93,2.93-2.93c.15-.15,.38-.15,.53,0,.15,.15,.15,.38,0,.53l-3.19,3.19c-.07,.07-.17,.11-.27,.11Z"/>
  </g>
  <g>
    <g>
      <circle class="cls-1" cx="162.44" cy="94.93" r="13.31"/>
      <path class="cls-3" d="M162.44,108.66c-7.57,0-13.73-6.16-13.73-13.73s6.16-13.73,13.73-13.73,13.73,6.16,13.73,13.73-6.16,13.73-13.73,13.73Zm0-26.62c-7.1,0-12.88,5.78-12.88,12.88s5.78,12.88,12.88,12.88,12.88-5.78,12.88-12.88-5.78-12.88-12.88-12.88Z"/>
    </g>
    <g>
      <polygon class="cls-2" points="158.29 97.34 158.29 102.21 163.25 102.21 166.59 102.21 166.59 97.34 158.29 97.34"/>
      <path class="cls-3" d="M166.59,102.64h-8.3c-.23,0-.42-.19-.42-.43v-4.87c0-.23,.19-.43,.42-.43h8.3c.23,0,.42,.19,.42,.43v4.87c0,.23-.19,.43-.42,.43Zm-7.88-.85h7.45v-4.02h-7.45v4.02Z"/>
    </g>
    <g>
      <path class="cls-3" d="M162.44,95.47c-.23,0-.42-.19-.42-.43v-6.95c0-.23,.19-.43,.42-.43s.42,.19,.42,.43v6.95c0,.23-.19,.43-.42,.43Z"/>
      <path class="cls-3" d="M166.09,91.79c-.11,0-.22-.04-.3-.12l-3.35-3.35-3.35,3.35c-.17,.17-.44,.17-.6,0-.17-.17-.17-.44,0-.6l3.65-3.65c.16-.16,.44-.16,.6,0l3.65,3.65c.17,.17,.17,.44,0,.6-.08,.08-.19,.12-.3,.12Z"/>
    </g>
  </g>
</svg>