<?xml version="1.0" encoding="UTF-8"?>
<svg id="Layer_1" data-name="Layer 1" xmlns="http://www.w3.org/2000/svg" viewBox="0 0 320 128">
  <defs>
    <style>
      .cls-1 {
        fill: #fff;
      }

      .cls-2 {
        fill: #a9e0ff;
      }

      .cls-3 {
        fill: #186dc9;
      }
    </style>
  </defs>
  <g>
    <path class="cls-3" d="M222.91,107.77c-6.08,0-11.03-4.95-11.03-11.03s4.95-11.03,11.03-11.03,11.03,4.95,11.03,11.03-4.95,11.03-11.03,11.03Zm0-21.32c-5.67,0-10.28,4.61-10.28,10.28s4.61,10.28,10.28,10.28,10.28-4.61,10.28-10.28-4.61-10.28-10.28-10.28Z"/>
    <g>
      <circle class="cls-2" cx="213.3" cy="100.11" r="3.91"/>
      <path class="cls-3" d="M213.3,104.4c-2.37,0-4.29-1.92-4.29-4.29s1.92-4.29,4.29-4.29,4.29,1.92,4.29,4.29-1.92,4.29-4.29,4.29Zm0-7.83c-1.95,0-3.54,1.59-3.54,3.54s1.59,3.54,3.54,3.54,3.54-1.59,3.54-3.54-1.59-3.54-3.54-3.54Z"/>
    </g>
    <g>
      <polygon class="cls-2" points="225.66 86.45 218.75 90.44 218.75 82.45 225.66 86.45"/>
      <path class="cls-3" d="M218.75,90.81c-.06,0-.13-.02-.19-.05-.12-.07-.19-.19-.19-.33v-7.98c0-.13,.07-.26,.19-.33,.12-.07,.26-.07,.38,0l6.91,3.99c.12,.07,.19,.19,.19,.33s-.07,.26-.19,.33l-6.91,3.99c-.06,.03-.12,.05-.19,.05Zm.38-7.71v6.68l5.79-3.34-5.79-3.34Z"/>
    </g>
    <g>
      <rect class="cls-2" x="228.48" y="96.74" width="6.73" height="6.73"/>
      <path class="cls-3" d="M235.21,103.84h-6.73c-.21,0-.38-.17-.38-.38v-6.73c0-.21,.17-.38,.38-.38h6.73c.21,0,.38,.17,.38,.38v6.73c0,.21-.17,.38-.38,.38Zm-6.35-.75h5.98v-5.98h-5.98v5.98Z"/>
    </g>
  </g>
  <g>
    <g>
      <path class="cls-1" d="M292.98,35.87s0-14.61-12.99-14.89c5.16,6.4-.48,13.38,9.16,17.64"/>
      <path class="cls-3" d="M289.14,39c-.05,0-.1-.01-.15-.03-5.87-2.59-6.26-6.18-6.68-9.98-.28-2.56-.57-5.22-2.62-7.76-.09-.11-.11-.27-.04-.4s.21-.21,.34-.21c13.2,.28,13.36,15.11,13.36,15.26,0,.21-.17,.38-.38,.38h0c-.21,0-.38-.17-.38-.38,0-.04-.02-3.64-1.6-7.21-1.99-4.49-5.43-6.94-10.24-7.27,1.75,2.51,2.03,5.04,2.3,7.5,.41,3.73,.76,6.96,6.23,9.38,.19,.08,.28,.31,.19,.49-.06,.14-.2,.22-.34,.22Z"/>
    </g>
    <g>
      <path class="cls-2" d="M275.39,43.69c11.29-1.34,14.79-23.63,24.81-14.78-7.58-1,1,19.67-24.81,14.78Z"/>
      <path class="cls-3" d="M282.42,44.8c-2.03,0-4.38-.23-7.1-.74-.18-.03-.31-.2-.31-.38,0-.18,.15-.34,.33-.36,4.81-.57,8.14-5.04,11.35-9.37,2.72-3.66,5.3-7.12,8.5-7.46,1.71-.18,3.42,.52,5.24,2.14,.12,.11,.16,.29,.09,.44-.07,.15-.21,.24-.39,.22-2.22-.29-2.85,1.47-3.78,4.62-1.32,4.49-3.2,10.91-13.95,10.91Zm-5.11-1.16c14.76,2.22,16.82-4.78,18.34-9.96,.75-2.56,1.42-4.83,3.49-5.15-1.36-1-2.62-1.43-3.86-1.3-2.88,.3-5.36,3.63-7.98,7.16-2.75,3.71-5.83,7.84-9.99,9.24Z"/>
    </g>
    <g>
      <path class="cls-1" d="M290.46,34.46s-6.56-13.06-18.29-7.48c7.48,3.4,5.57,12.18,16.09,11.65"/>
      <path class="cls-3" d="M287.38,39.04c-5.7,0-7.57-2.89-9.54-5.95-1.4-2.17-2.85-4.41-5.82-5.76-.13-.06-.22-.19-.22-.34,0-.15,.08-.28,.21-.34,11.93-5.67,18.72,7.52,18.79,7.65,.09,.19,.02,.41-.17,.5-.18,.09-.41,.02-.5-.17-.02-.03-1.65-3.24-4.67-5.72-3.79-3.12-7.96-3.76-12.41-1.9,2.69,1.45,4.08,3.6,5.42,5.68,2.04,3.16,3.8,5.87,9.78,5.58,.21-.02,.38,.15,.39,.36,0,.21-.15,.38-.36,.39-.31,.02-.61,.02-.9,.02Z"/>
    </g>
  </g>
  <g>
    <g>
      <rect class="cls-2" x="31.24" y="94.14" width="11.95" height="12.15"/>
      <path class="cls-3" d="M43.2,106.67h-11.95c-.21,0-.38-.17-.38-.38v-12.15c0-.21,.17-.38,.38-.38h11.95c.21,0,.38,.17,.38,.38v12.15c0,.21-.17,.38-.38,.38Zm-11.58-.75h11.2v-11.4h-11.2v11.4Z"/>
    </g>
    <g>
      <polygon class="cls-2" points="26.71 88.16 37.86 82.16 37.86 106.29 26.71 106.29 26.71 88.16"/>
      <path class="cls-3" d="M37.86,106.67h-11.15c-.21,0-.38-.17-.38-.38v-18.13c0-.14,.08-.26,.2-.33l11.15-6c.12-.06,.25-.06,.37,0,.11,.07,.18,.19,.18,.32v24.13c0,.21-.17,.38-.38,.38Zm-10.77-.75h10.4v-23.13l-10.4,5.6v17.53Z"/>
    </g>
    <g>
      <rect class="cls-2" x="31.24" y="99.85" width="3.8" height="6.44"/>
      <path class="cls-3" d="M35.05,106.67h-3.8c-.21,0-.38-.17-.38-.38v-6.44c0-.21,.17-.38,.38-.38h3.8c.21,0,.38,.17,.38,.38v6.44c0,.21-.17,.38-.38,.38Zm-3.43-.75h3.05v-5.69h-3.05v5.69Z"/>
    </g>
    <g>
      <path class="cls-3" d="M31.44,90.51h-.77c-.21,0-.38-.17-.38-.38s.17-.38,.38-.38h.77c.21,0,.38,.17,.38,.38s-.17,.38-.38,.38Z"/>
      <path class="cls-3" d="M31.44,92.51h-.77c-.21,0-.38-.17-.38-.38s.17-.38,.38-.38h.77c.21,0,.38,.17,.38,.38s-.17,.38-.38,.38Z"/>
      <path class="cls-3" d="M31.44,94.51h-.77c-.21,0-.38-.17-.38-.38s.17-.38,.38-.38h.77c.21,0,.38,.17,.38,.38s-.17,.38-.38,.38Z"/>
      <path class="cls-3" d="M31.44,96.51h-.77c-.21,0-.38-.17-.38-.38s.17-.38,.38-.38h.77c.21,0,.38,.17,.38,.38s-.17,.38-.38,.38Z"/>
      <path class="cls-3" d="M35.15,90.51h-.77c-.21,0-.38-.17-.38-.38s.17-.38,.38-.38h.77c.21,0,.38,.17,.38,.38s-.17,.38-.38,.38Z"/>
      <path class="cls-3" d="M35.15,92.51h-.77c-.21,0-.38-.17-.38-.38s.17-.38,.38-.38h.77c.21,0,.38,.17,.38,.38s-.17,.38-.38,.38Z"/>
      <path class="cls-3" d="M35.15,94.51h-.77c-.21,0-.38-.17-.38-.38s.17-.38,.38-.38h.77c.21,0,.38,.17,.38,.38s-.17,.38-.38,.38Z"/>
      <path class="cls-3" d="M35.15,96.51h-.77c-.21,0-.38-.17-.38-.38s.17-.38,.38-.38h.77c.21,0,.38,.17,.38,.38s-.17,.38-.38,.38Z"/>
    </g>
    <g>
      <g>
        <path class="cls-1" d="M25.54,98.29h0c3.36,0,6.09,2.73,6.09,6.09v1.93h-12.18v-1.93c0-3.36,2.73-6.09,6.09-6.09Z"/>
        <path class="cls-3" d="M31.63,106.69h-12.18c-.21,0-.38-.17-.38-.38v-1.93c0-3.57,2.9-6.47,6.47-6.47s6.47,2.9,6.47,6.47v1.93c0,.21-.17,.38-.38,.38Zm-11.81-.75h11.43v-1.56c0-3.15-2.56-5.72-5.72-5.72s-5.72,2.56-5.72,5.72v1.56Z"/>
      </g>
      <g>
        <circle class="cls-1" cx="25.54" cy="93.97" r="4.12"/>
        <path class="cls-3" d="M25.54,98.46c-2.48,0-4.49-2.01-4.49-4.49s2.01-4.49,4.49-4.49,4.49,2.01,4.49,4.49-2.01,4.49-4.49,4.49Zm0-8.23c-2.06,0-3.74,1.68-3.74,3.74s1.68,3.74,3.74,3.74,3.74-1.68,3.74-3.74-1.68-3.74-3.74-3.74Z"/>
      </g>
      <g>
        <polygon class="cls-2" points="26.71 106.83 25.58 107.69 24.46 106.83 25.32 98.92 25.85 98.92 26.71 106.83"/>
        <path class="cls-3" d="M25.58,108.07c-.08,0-.16-.03-.23-.08l-1.13-.86c-.1-.08-.16-.21-.14-.34l.86-7.91c.02-.19,.18-.33,.37-.33h.53c.19,0,.35,.14,.37,.33l.87,7.91c.01,.13-.04,.26-.14,.34l-1.13,.86c-.07,.05-.15,.08-.23,.08Zm-.73-1.41l.73,.56,.73-.56-.73-6.7-.73,6.7Z"/>
      </g>
    </g>
  </g>
  <g>
    <path class="cls-3" d="M99.63,108h-15.46c-1.82,0-3.3-1.48-3.3-3.3v-19.55c0-1.82,1.48-3.3,3.3-3.3h15.46c1.82,0,3.3,1.48,3.3,3.3v19.55c0,1.82-1.48,3.3-3.3,3.3Zm-15.46-25.4c-1.4,0-2.55,1.14-2.55,2.55v19.55c0,1.4,1.14,2.55,2.55,2.55h15.46c1.4,0,2.55-1.14,2.55-2.55v-19.55c0-1.4-1.14-2.55-2.55-2.55h-15.46Z"/>
    <g>
      <path class="cls-3" d="M85.62,90.59v-4.93c0-.3,.23-.53,.53-.53h3.48c.26,0,.47,.21,.47,.47s-.21,.47-.47,.47h-2.96v1.56h2.58c.26,0,.47,.21,.47,.48s-.21,.46-.47,.46h-2.58v1.61h3c.26,0,.47,.21,.47,.47s-.21,.47-.47,.47h-3.53c-.3,0-.53-.23-.53-.53Z"/>
      <path class="cls-3" d="M91.29,90.45c-.12-.08-.21-.23-.21-.4,0-.27,.22-.49,.5-.49,.15,0,.24,.04,.31,.09,.5,.39,1.03,.62,1.68,.62s1.06-.31,1.06-.75v-.02c0-.43-.24-.66-1.35-.92-1.28-.31-1.99-.68-1.99-1.79v-.02c0-1.03,.86-1.74,2.05-1.74,.75,0,1.36,.2,1.9,.56,.12,.07,.23,.21,.23,.42,0,.27-.22,.49-.5,.49-.1,0-.19-.03-.27-.08-.46-.3-.91-.45-1.38-.45-.62,0-.98,.32-.98,.71v.02c0,.46,.27,.67,1.43,.94,1.27,.31,1.92,.76,1.92,1.75v.02c0,1.12-.88,1.79-2.14,1.79-.81,0-1.58-.26-2.25-.75Z"/>
      <path class="cls-3" d="M97.06,85.61c0-.29,.23-.52,.53-.52s.52,.23,.52,.52v5.03c0,.29-.23,.52-.52,.52s-.53-.23-.53-.52v-5.03Z"/>
    </g>
    <path class="cls-3" d="M97.89,95.3h-12.67c-.21,0-.38-.17-.38-.38s.17-.38,.38-.38h12.67c.21,0,.38,.17,.38,.38s-.17,.38-.38,.38Z"/>
    <path class="cls-3" d="M93.89,98.3h-8.67c-.21,0-.38-.17-.38-.38s.17-.38,.38-.38h8.67c.21,0,.38,.17,.38,.38s-.17,.38-.38,.38Z"/>
    <path class="cls-3" d="M90.89,101.3h-5.67c-.21,0-.38-.17-.38-.38s.17-.38,.38-.38h5.67c.21,0,.38,.17,.38,.38s-.17,.38-.38,.38Z"/>
    <g>
      <g>
        <path class="cls-2" d="M106.69,92.06h0c.81,.76,.85,2.03,.09,2.84l-6.43,7.26-4.6,1.98,1.68-4.72,6.43-7.26c.76-.81,2.03-.85,2.84-.09Z"/>
        <path class="cls-3" d="M95.75,104.51c-.09,0-.19-.04-.26-.1-.11-.1-.15-.26-.1-.4l1.68-4.72s.04-.09,.07-.12l6.43-7.26c.9-.97,2.41-1.01,3.37-.12,.46,.44,.73,1.02,.75,1.66s-.21,1.24-.64,1.71l-6.43,7.25s-.08,.07-.13,.1l-4.6,1.98s-.1,.03-.15,.03Zm2-4.9l-1.36,3.84,3.74-1.6,6.38-7.2c.3-.33,.46-.74,.45-1.18-.01-.44-.2-.84-.52-1.14h0c-.66-.62-1.69-.58-2.3,.07l-6.38,7.2Zm2.6,2.55h0Z"/>
      </g>
      <g>
        <line class="cls-2" x1="100.35" y1="102.16" x2="97.43" y2="99.42"/>
        <path class="cls-3" d="M100.35,102.53c-.09,0-.18-.03-.26-.1l-2.93-2.74c-.15-.14-.16-.38-.02-.53,.14-.15,.38-.16,.53-.02l2.93,2.74c.15,.14,.16,.38,.02,.53-.07,.08-.17,.12-.27,.12Z"/>
      </g>
      <g>
        <line class="cls-2" x1="106" y1="95.74" x2="103.07" y2="92.99"/>
        <path class="cls-3" d="M106,96.11c-.09,0-.18-.03-.26-.1l-2.93-2.74c-.15-.14-.16-.38-.02-.53,.14-.15,.38-.16,.53-.02l2.93,2.74c.15,.14,.16,.38,.02,.53-.07,.08-.17,.12-.27,.12Z"/>
      </g>
    </g>
  </g>
  <g>
    <path class="cls-3" d="M162.77,108h-15.46c-1.82,0-3.3-1.48-3.3-3.3v-19.55c0-1.82,1.48-3.3,3.3-3.3h15.46c1.82,0,3.3,1.48,3.3,3.3v19.55c0,1.82-1.48,3.3-3.3,3.3Zm-15.46-25.4c-1.4,0-2.55,1.14-2.55,2.55v19.55c0,1.4,1.14,2.55,2.55,2.55h15.46c1.4,0,2.55-1.14,2.55-2.55v-19.55c0-1.4-1.14-2.55-2.55-2.55h-15.46Z"/>
    <g>
      <path class="cls-3" d="M148.77,90.59v-4.93c0-.3,.23-.53,.53-.53h3.48c.26,0,.47,.21,.47,.47s-.21,.47-.47,.47h-2.96v1.56h2.58c.26,0,.47,.21,.47,.48s-.21,.46-.47,.46h-2.58v1.61h3c.26,0,.47,.21,.47,.47s-.21,.47-.47,.47h-3.53c-.3,0-.53-.23-.53-.53Z"/>
      <path class="cls-3" d="M154.44,90.45c-.12-.08-.21-.23-.21-.4,0-.27,.22-.49,.5-.49,.15,0,.24,.04,.31,.09,.5,.39,1.03,.62,1.68,.62s1.06-.31,1.06-.75v-.02c0-.43-.24-.66-1.35-.92-1.28-.31-1.99-.68-1.99-1.79v-.02c0-1.03,.86-1.74,2.05-1.74,.75,0,1.36,.2,1.9,.56,.12,.07,.23,.21,.23,.42,0,.27-.22,.49-.5,.49-.1,0-.19-.03-.27-.08-.46-.3-.91-.45-1.38-.45-.62,0-.98,.32-.98,.71v.02c0,.46,.27,.67,1.43,.94,1.27,.31,1.92,.76,1.92,1.75v.02c0,1.12-.88,1.79-2.14,1.79-.81,0-1.58-.26-2.25-.75Z"/>
      <path class="cls-3" d="M160.21,85.61c0-.29,.23-.52,.53-.52s.52,.23,.52,.52v5.03c0,.29-.23,.52-.52,.52s-.53-.23-.53-.52v-5.03Z"/>
    </g>
    <path class="cls-3" d="M161.04,95.3h-12.67c-.21,0-.38-.17-.38-.38s.17-.38,.38-.38h12.67c.21,0,.38,.17,.38,.38s-.17,.38-.38,.38Z"/>
    <path class="cls-3" d="M157.04,98.3h-8.67c-.21,0-.38-.17-.38-.38s.17-.38,.38-.38h8.67c.21,0,.38,.17,.38,.38s-.17,.38-.38,.38Z"/>
    <path class="cls-3" d="M154.04,101.3h-5.67c-.21,0-.38-.17-.38-.38s.17-.38,.38-.38h5.67c.21,0,.38,.17,.38,.38s-.17,.38-.38,.38Z"/>
    <g>
      <g>
        <path class="cls-2" d="M169.84,92.06h0c.81,.76,.85,2.03,.09,2.84l-6.43,7.26-4.6,1.98,1.68-4.72,6.43-7.26c.76-.81,2.03-.85,2.84-.09Z"/>
        <path class="cls-3" d="M158.9,104.51c-.09,0-.19-.04-.26-.1-.11-.1-.15-.26-.1-.4l1.68-4.72s.04-.09,.07-.12l6.43-7.26c.9-.97,2.41-1.01,3.37-.12,.46,.44,.73,1.02,.75,1.66s-.21,1.24-.64,1.71l-6.43,7.25s-.08,.07-.13,.1l-4.6,1.98s-.1,.03-.15,.03Zm2-4.9l-1.36,3.84,3.74-1.6,6.38-7.2c.3-.33,.46-.74,.45-1.18-.01-.44-.2-.84-.52-1.14h0c-.66-.62-1.69-.58-2.3,.07l-6.38,7.2Zm2.6,2.55h0Z"/>
      </g>
      <g>
        <line class="cls-2" x1="163.5" y1="102.16" x2="160.57" y2="99.42"/>
        <path class="cls-3" d="M163.5,102.53c-.09,0-.18-.03-.26-.1l-2.93-2.74c-.15-.14-.16-.38-.02-.53,.14-.15,.38-.16,.53-.02l2.93,2.74c.15,.14,.16,.38,.02,.53-.07,.08-.17,.12-.27,.12Z"/>
      </g>
      <g>
        <line class="cls-2" x1="169.15" y1="95.74" x2="166.22" y2="92.99"/>
        <path class="cls-3" d="M169.15,96.11c-.09,0-.18-.03-.26-.1l-2.93-2.74c-.15-.14-.16-.38-.02-.53,.14-.15,.38-.16,.53-.02l2.93,2.74c.15,.14,.16,.38,.02,.53-.07,.08-.17,.12-.27,.12Z"/>
      </g>
    </g>
  </g>
  <g>
    <path class="cls-3" d="M100.44,38.74h-15.59c-1.5,0-2.72-1.22-2.72-2.72v-12.51c0-1.5,1.22-2.72,2.72-2.72h15.59c1.5,0,2.72,1.22,2.72,2.72v12.51c0,1.5-1.22,2.72-2.72,2.72Zm-15.59-17.2c-1.09,0-1.97,.88-1.97,1.97v12.51c0,1.09,.88,1.97,1.97,1.97h15.59c1.09,0,1.97-.88,1.97-1.97v-12.51c0-1.09-.88-1.97-1.97-1.97h-15.59Z"/>
    <g>
      <g>
        <rect class="cls-2" x="94.46" y="38.11" width="9.13" height="2.79" transform="translate(22.81 114.05) rotate(-66.11)"/>
        <path class="cls-3" d="M98.45,44.62c-.05,0-.1-.01-.15-.03l-2.55-1.13c-.09-.04-.16-.12-.2-.21-.04-.09-.03-.2,0-.29l3.7-8.35c.04-.09,.12-.16,.21-.2,.09-.04,.2-.03,.29,0l2.55,1.13c.19,.08,.27,.31,.19,.49l-3.7,8.35c-.04,.09-.12,.16-.21,.2-.04,.02-.09,.03-.13,.03Zm-2.06-1.7l1.87,.83,3.39-7.67-1.86-.83-3.4,7.67Z"/>
      </g>
      <g>
        <rect class="cls-2" x="101.72" y="34.94" width="2.61" height="9.13" transform="translate(-7.17 45.1) rotate(-23.89)"/>
        <path class="cls-3" d="M103.68,44.58s-.09,0-.13-.03c-.09-.04-.17-.11-.21-.2l-3.7-8.35c-.08-.19,0-.41,.19-.49l2.39-1.06c.09-.04,.2-.04,.29,0,.09,.04,.17,.11,.21,.2l3.7,8.35c.08,.19,0,.41-.19,.49l-2.39,1.06s-.1,.03-.15,.03Zm-3.2-8.54l3.4,7.67,1.7-.75-3.4-7.67-1.7,.75Z"/>
      </g>
      <g>
        <circle class="cls-2" cx="100.79" cy="33.86" r="4.64"/>
        <path class="cls-3" d="M100.79,38.88c-2.77,0-5.02-2.25-5.02-5.02s2.25-5.02,5.02-5.02,5.02,2.25,5.02,5.02-2.25,5.02-5.02,5.02Zm0-9.29c-2.35,0-4.27,1.92-4.27,4.27s1.92,4.27,4.27,4.27,4.27-1.92,4.27-4.27-1.92-4.27-4.27-4.27Z"/>
      </g>
    </g>
    <path class="cls-3" d="M95.25,26.19h-8.67c-.21,0-.38-.17-.38-.38s.17-.38,.38-.38h8.67c.21,0,.38,.17,.38,.38s-.17,.38-.38,.38Z"/>
    <path class="cls-3" d="M92.25,29.19h-5.67c-.21,0-.38-.17-.38-.38s.17-.38,.38-.38h5.67c.21,0,.38,.17,.38,.38s-.17,.38-.38,.38Z"/>
  </g>
  <g>
    <path class="cls-3" d="M25.85,45.34s-.01,0-.02,0c-.11,0-.21-.08-.26-.18l-1.27-2.68h-2.8c-.12,0-.22-.07-.28-.17s-.05-.22,.01-.32l5.38-8.18c.05-.07,.12-.12,.2-.13,.08-.02,.17,0,.24,.04l4.36,2.87c.15,.09,.19,.29,.09,.43l-5.38,8.18c-.06,.09-.16,.14-.26,.14Zm-3.77-3.49h2.42c.12,0,.23,.08,.28,.18l1.12,2.35,4.9-7.45-3.83-2.52-4.89,7.43Z"/>
    <g>
      <rect class="cls-2" x="35.81" y="37.99" width="4" height="6.23" transform="translate(-15.43 24.23) rotate(-29.8)"/>
      <path class="cls-3" d="M37.62,45.18s-.07,0-.1-.01c-.1-.03-.18-.09-.23-.18l-3.1-5.41c-.1-.18-.04-.41,.14-.51l3.47-1.99c.09-.05,.19-.06,.29-.04s.18,.09,.23,.18l3.1,5.41c.1,.18,.04,.41-.14,.51l-3.47,1.99c-.06,.03-.12,.05-.19,.05Zm-2.59-5.65l2.72,4.76,2.82-1.61-2.72-4.76-2.82,1.61Z"/>
    </g>
    <g>
      <line class="cls-2" x1="36.35" y1="38.35" x2="35.36" y2="36.74"/>
      <path class="cls-3" d="M36.35,38.73c-.13,0-.25-.06-.32-.18l-.99-1.61c-.11-.18-.05-.41,.12-.52,.18-.11,.41-.05,.52,.12l.99,1.61c.11,.18,.05,.41-.12,.52-.06,.04-.13,.06-.2,.06Z"/>
    </g>
    <g>
      <path class="cls-2" d="M31.33,20.45c-4.78,0-8.65,3.87-8.65,8.65s3.87,8.65,8.65,8.65,8.65-3.87,8.65-8.65-3.87-8.65-8.65-8.65Zm0,14.41c-3.18,0-5.77-2.58-5.77-5.77s2.58-5.77,5.77-5.77,5.77,2.58,5.77,5.77-2.58,5.77-5.77,5.77Z"/>
      <path class="cls-3" d="M31.33,38.12c-4.97,0-9.02-4.05-9.02-9.02s4.05-9.02,9.02-9.02,9.02,4.05,9.02,9.02-4.05,9.02-9.02,9.02Zm0-17.29c-4.56,0-8.27,3.71-8.27,8.27s3.71,8.27,8.27,8.27,8.27-3.71,8.27-8.27-3.71-8.27-8.27-8.27Zm0,14.41c-3.39,0-6.14-2.75-6.14-6.14s2.75-6.14,6.14-6.14,6.14,2.75,6.14,6.14-2.75,6.14-6.14,6.14Zm0-11.53c-2.97,0-5.39,2.42-5.39,5.39s2.42,5.39,5.39,5.39,5.39-2.42,5.39-5.39-2.42-5.39-5.39-5.39Z"/>
    </g>
  </g>
  <g>
    <g>
      <rect class="cls-2" x="208.95" y="19.85" width="21.24" height="25.71" rx="3.4" ry="3.4"/>
      <path class="cls-3" d="M226.79,45.94h-14.45c-2.08,0-3.77-1.69-3.77-3.77V23.25c0-2.08,1.69-3.77,3.77-3.77h14.45c2.08,0,3.77,1.69,3.77,3.77v18.92c0,2.08-1.69,3.77-3.77,3.77Zm-14.45-25.71c-1.67,0-3.02,1.36-3.02,3.02v18.92c0,1.67,1.36,3.02,3.02,3.02h14.45c1.67,0,3.02-1.36,3.02-3.02V23.25c0-1.67-1.36-3.02-3.02-3.02h-14.45Z"/>
    </g>
    <g>
      <rect class="cls-1" x="211.44" y="22.86" width="16.26" height="19.09"/>
      <path class="cls-3" d="M227.7,42.32h-16.26c-.21,0-.38-.17-.38-.38V22.86c0-.21,.17-.38,.38-.38h16.26c.21,0,.38,.17,.38,.38v19.09c0,.21-.17,.38-.38,.38Zm-15.89-.75h15.51V23.24h-15.51v18.34Z"/>
    </g>
    <path class="cls-3" d="M214.79,39.23s-.04,0-.06,0c-1.76-.3-1.56-3.52-1.53-3.89,.02-.21,.2-.37,.4-.34,.21,.02,.36,.2,.34,.4-.05,.65-.03,2.38,.58,2.93,.26-1.04,1.04-3.5,2.74-4.48,.11-.07,.25-.07,.37,0,.11,.06,.19,.18,.2,.31,0,.03,.17,2.91,1.73,4.13,.28-.71,.99-2.04,2.66-3.22,.17-.12,.4-.08,.52,.09,.12,.17,.08,.4-.09,.52-2.11,1.49-2.51,3.24-2.52,3.26-.02,.11-.1,.21-.21,.26-.11,.05-.23,.05-.33,0-1.72-.91-2.27-3.2-2.44-4.34-1.46,1.31-1.98,4.04-1.99,4.07-.03,.18-.19,.31-.37,.31Z"/>
    <g>
      <g>
        <path class="cls-1" d="M234.99,22.21h0c.84,.78,.88,2.1,.09,2.93l-6.66,7.51-4.76,2.04,1.73-4.88,6.66-7.51c.78-.84,2.1-.88,2.93-.09Z"/>
        <path class="cls-3" d="M223.67,35.08c-.09,0-.19-.04-.26-.1-.11-.1-.15-.26-.1-.4l1.73-4.88s.04-.09,.07-.12l6.66-7.51c.93-.99,2.49-1.04,3.47-.12h0c.99,.92,1.04,2.48,.11,3.46l-6.65,7.51s-.08,.07-.13,.1l-4.76,2.04s-.1,.03-.15,.03Zm2.06-5.07l-1.42,4.01,3.9-1.67,6.6-7.45c.65-.69,.61-1.77-.07-2.41-.33-.31-.76-.49-1.22-.46-.45,.01-.88,.21-1.19,.54l-6.6,7.45Z"/>
      </g>
      <g>
        <line class="cls-1" x1="228.43" y1="32.66" x2="225.4" y2="29.82"/>
        <path class="cls-3" d="M228.43,33.04c-.09,0-.18-.03-.26-.1l-3.03-2.84c-.15-.14-.16-.38-.02-.53,.14-.15,.38-.16,.53-.02l3.03,2.84c.15,.14,.16,.38,.02,.53-.07,.08-.17,.12-.27,.12Z"/>
      </g>
      <g>
        <line class="cls-1" x1="234.28" y1="26.01" x2="231.25" y2="23.17"/>
        <path class="cls-3" d="M234.28,26.39c-.09,0-.18-.03-.26-.1l-3.03-2.84c-.15-.14-.16-.38-.02-.53,.14-.15,.38-.16,.53-.02l3.03,2.84c.15,.14,.16,.38,.02,.53-.07,.08-.17,.12-.27,.12Z"/>
      </g>
    </g>
  </g>
  <g>
    <g>
      <g>
        <rect class="cls-2" x="147.36" y="19.75" width="22.32" height="25.92" rx="2" ry="2"/>
        <path class="cls-3" d="M167.68,46.09h-18.32c-1.34,0-2.42-1.09-2.42-2.43V21.75c0-1.34,1.09-2.43,2.42-2.43h18.32c1.34,0,2.42,1.09,2.42,2.43v21.92c0,1.34-1.09,2.43-2.42,2.43Zm-18.32-25.92c-.87,0-1.58,.71-1.58,1.57v21.92c0,.87,.71,1.57,1.58,1.57h18.32c.87,0,1.58-.71,1.58-1.57V21.75c0-.87-.71-1.57-1.58-1.57h-18.32Z"/>
      </g>
      <rect class="cls-3" x="145.19" y="23.48" width="4.23" height=".85"/>
      <rect class="cls-3" x="145.19" y="29.26" width="4.23" height=".85"/>
      <rect class="cls-3" x="145.19" y="35.03" width="4.23" height=".85"/>
      <rect class="cls-3" x="145.19" y="40.8" width="4.23" height=".85"/>
      <rect class="cls-3" x="150.73" y="19.75" width=".85" height="25.92"/>
      <path class="cls-1" d="M151.62,20.17h16.13c.83,0,1.5,.67,1.5,1.5v22.1c0,.83-.67,1.5-1.5,1.5h-16.13V20.17h0Z"/>
    </g>
    <path class="cls-3" d="M158.74,38.22c-.23,0-.42-.19-.42-.43v-9.16l-2.48,2.48c-.17,.17-.44,.17-.6,0-.17-.17-.17-.44,0-.6l3.2-3.2c.12-.12,.3-.16,.46-.09,.16,.07,.26,.22,.26,.39v10.18c0,.23-.19,.43-.42,.43Z"/>
    <path class="cls-3" d="M162.12,38.22c-.05,0-.11-.01-.16-.03-.16-.07-.26-.22-.26-.39v-10.18c0-.23,.19-.43,.42-.43s.42,.19,.42,.43v9.15l2.48-2.48c.17-.17,.44-.17,.6,0,.17,.17,.17,.44,0,.6l-3.2,3.2c-.08,.08-.19,.12-.3,.12Z"/>
  </g>
  <g>
    <g>
      <path class="cls-2" d="M293.93,107.79l-17.48,.17c-.43,0-.78-.34-.79-.77l-.21-22.24c0-.38,.3-.68,.67-.69l12.96-.12,4.66,4.76,.18,18.9Z"/>
      <path class="cls-3" d="M276.44,108.39c-.66,0-1.2-.53-1.2-1.19l-.21-22.24c0-.61,.49-1.11,1.1-1.12l13.14-.13,4.91,5.01,.18,19.49-17.9,.17h-.01Zm12.47-23.82l-12.78,.12c-.14,0-.25,.12-.25,.26l.21,22.24c0,.19,.16,.35,.35,.35h0l17.05-.16-.17-18.3-4.41-4.51Z"/>
    </g>
    <g>
      <g>
        <path class="cls-1" d="M296.14,107.8l-16.7,.16c-.43,0-.78-.34-.79-.77l-.21-24.49c0-.38,.3-.68,.67-.69l12.96-.12,4.66,4.76,.17,20.36c0,.43-.34,.78-.77,.78Z"/>
        <path class="cls-3" d="M279.43,108.39c-.32,0-.62-.12-.84-.34-.23-.23-.36-.53-.36-.85l-.21-24.48c0-.61,.49-1.11,1.1-1.12l13.14-.13,4.91,5.01,.17,20.54c0,.66-.53,1.21-1.19,1.21l-16.7,.16h-.01Zm12.47-26.07l-12.78,.12c-.14,0-.25,.12-.25,.26l.21,24.49c0,.09,.04,.18,.11,.25,.07,.07,.15,.1,.25,.1l16.7-.16c.19,0,.35-.16,.35-.36l-.17-20.19-4.41-4.51Z"/>
      </g>
      <path class="cls-3" d="M296.93,86.65l-3.78,.04c-.56,0-1.03-.45-1.03-1.01l-.04-3.78,4.85,4.76Z"/>
    </g>
    <g>
      <path class="cls-3" d="M281.23,90.73h0c0-.99,.77-1.8,1.82-1.8,.52,0,.87,.12,1.18,.34,.07,.05,.16,.16,.16,.31,0,.21-.17,.38-.38,.38-.11,0-.18-.04-.23-.08-.21-.15-.43-.24-.76-.24-.55,0-1,.49-1,1.08h0c0,.64,.44,1.11,1.05,1.11,.28,0,.52-.07,.72-.21v-.5h-.51c-.18,0-.33-.14-.33-.33s.15-.33,.33-.33h.87c.21,0,.38,.17,.38,.38v.84c0,.22-.08,.38-.27,.49-.28,.17-.69,.35-1.21,.35-1.08,0-1.82-.76-1.82-1.78Z"/>
      <path class="cls-3" d="M285.2,92.08c-.08-.06-.14-.17-.14-.29,0-.2,.16-.35,.36-.35,.1,0,.17,.03,.22,.07,.26,.19,.55,.31,.89,.31,.31,0,.5-.12,.5-.33h0c0-.2-.12-.3-.7-.45-.7-.18-1.15-.37-1.15-1.06h0c0-.64,.5-1.05,1.21-1.05,.42,0,.79,.11,1.1,.31,.08,.05,.17,.15,.17,.3,0,.2-.16,.35-.36,.35-.07,0-.13-.02-.19-.05-.25-.15-.49-.23-.73-.23-.29,0-.45,.13-.45,.3h0c0,.24,.15,.31,.75,.47,.7,.18,1.1,.44,1.1,1.04h0c0,.7-.52,1.08-1.27,1.08-.46,0-.92-.14-1.3-.42Z"/>
      <path class="cls-3" d="M289.17,89.69h-.73c-.19,0-.35-.16-.35-.35s.16-.35,.35-.35h2.23c.19,0,.35,.16,.35,.35s-.16,.35-.35,.35h-.73v2.41c0,.21-.17,.38-.38,.38s-.38-.17-.38-.38v-2.41Z"/>
      <path class="cls-3" d="M291.57,89.37c0-.21,.17-.38,.38-.38h1.2c.44,0,.78,.12,1.01,.35,.19,.19,.3,.47,.3,.79h0c0,.55-.27,.89-.69,1.06l.53,.64c.07,.09,.12,.17,.12,.29,0,.21-.18,.35-.36,.35-.17,0-.29-.08-.38-.2l-.74-.94h-.61v.76c0,.21-.17,.38-.38,.38s-.38-.17-.38-.38v-2.73Zm1.53,1.3c.37,0,.58-.2,.58-.49h0c0-.34-.23-.51-.6-.51h-.76v1h.77Z"/>
    </g>
    <path class="cls-3" d="M290.46,96.78h-8.63c-.14,0-.26-.16-.26-.36s.11-.36,.26-.36h8.63c.14,0,.26,.16,.26,.36s-.11,.36-.26,.36Z"/>
    <path class="cls-3" d="M287.74,99.69h-5.9c-.14,0-.26-.16-.26-.36s.11-.36,.26-.36h5.9c.14,0,.26,.16,.26,.36s-.11,.36-.26,.36Z"/>
    <path class="cls-3" d="M290.46,102.6h-8.63c-.14,0-.26-.16-.26-.36s.11-.36,.26-.36h8.63c.14,0,.26,.16,.26,.36s-.11,.36-.26,.36Z"/>
  </g>
</svg>