<?xml version="1.0" encoding="UTF-8"?>
<svg id="Layer_1" data-name="Layer 1" xmlns="http://www.w3.org/2000/svg" viewBox="0 0 320 64">
  <defs>
    <style>
      .cls-1 {
        fill: #fff;
      }

      .cls-2 {
        fill: #a9e0ff;
      }

      .cls-3 {
        fill: #186dc9;
      }
    </style>
  </defs>
  <g>
    <g>
      <path class="cls-1" d="M283.68,19.83h14.56c1.31,0,2.37,1.06,2.37,2.37v17.74c0,2.34-1.9,4.23-4.23,4.23h-15.06c-.25,0-.45-.2-.45-.45V22.64c0-1.55,1.26-2.81,2.81-2.81Z"/>
      <path class="cls-3" d="M296.37,44.55h-15.06c-.46,0-.83-.37-.83-.83V22.64c0-1.76,1.43-3.19,3.19-3.19h14.55c1.51,0,2.75,1.23,2.75,2.75v17.74c0,2.54-2.07,4.61-4.61,4.61Zm-12.69-24.34c-1.34,0-2.44,1.09-2.44,2.43v21.08s.03,.07,.07,.07h15.06c2.12,0,3.85-1.73,3.85-3.85V22.2c0-1.1-.89-1.99-1.99-1.99h-14.55Z"/>
    </g>
    <g>
      <path class="cls-2" d="M280.67,44.17c-4.34,0-4.74-6.71,0-6.71h15.79c-3.95,0-3.95,6.71,0,6.71h-15.79Z"/>
      <path class="cls-3" d="M296.46,44.55h-15.79c-2.46,0-3.78-1.98-3.78-3.84,0-.96,.33-1.84,.93-2.5,.68-.74,1.67-1.13,2.85-1.13h15.79c.21,0,.38,.17,.38,.38s-.17,.38-.38,.38c-.79,0-1.46,.31-1.92,.9-.42,.53-.66,1.29-.66,2.07,0,1.43,.81,2.98,2.58,2.98,.21,0,.38,.17,.38,.38s-.17,.38-.38,.38Zm-15.79-6.71c-.96,0-1.76,.31-2.29,.89-.47,.51-.73,1.21-.73,1.98,0,1.53,1.04,3.08,3.03,3.08h13.69c-.82-.72-1.24-1.85-1.24-2.98,0-.96,.29-1.87,.82-2.54,.13-.16,.26-.31,.41-.44h-13.68Z"/>
    </g>
    <path class="cls-3" d="M297.96,32.25h-14.67c-.21,0-.38-.17-.38-.38s.17-.38,.38-.38h14.67c.21,0,.38,.17,.38,.38s-.17,.38-.38,.38Z"/>
    <path class="cls-3" d="M294.39,35.01h-11.1c-.21,0-.38-.17-.38-.38s.17-.38,.38-.38h11.1c.21,0,.38,.17,.38,.38s-.17,.38-.38,.38Z"/>
    <g>
      <path class="cls-3" d="M286.58,22.92v6.34h-1.4v-4.49c0-.12,0-.23,0-.34,0-.11,.02-.23,.05-.35l-1.51,.39-.17-.91,1.62-.63h1.4Z"/>
      <path class="cls-3" d="M290.55,22.81c.15,0,.37,0,.64,.02,.28,.01,.56,.07,.86,.15l-.07,.88c-.16,0-.31-.01-.44-.01-.13,0-.28,0-.43,0h-.56c-.27,0-.49,.03-.67,.09-.18,.06-.31,.17-.4,.34-.1,.17-.16,.41-.19,.73s-.05,.74-.05,1.26c0,.42,0,.77,.03,1.04,.02,.27,.06,.48,.12,.63,.06,.15,.16,.25,.3,.31,.13,.06,.32,.09,.56,.09,.28,0,.48-.04,.61-.13,.13-.09,.21-.22,.25-.39,.04-.18,.06-.4,.06-.68s-.02-.48-.07-.63c-.05-.15-.14-.26-.27-.32-.13-.06-.32-.09-.56-.09-.17,0-.33,.02-.47,.06-.14,.04-.3,.12-.46,.22-.16,.1-.36,.24-.6,.43l-.04-.53c.2-.31,.39-.54,.58-.71,.18-.17,.39-.29,.61-.35,.22-.06,.48-.1,.79-.1,.47,0,.84,.07,1.1,.2s.44,.35,.55,.64,.16,.68,.16,1.16c0,.37-.03,.7-.09,.99-.06,.28-.17,.52-.33,.71-.16,.19-.39,.33-.68,.43-.29,.09-.67,.14-1.14,.14s-.84-.05-1.15-.15c-.31-.1-.55-.26-.72-.5s-.3-.56-.37-.97c-.07-.41-.11-.93-.11-1.56,0-.74,.06-1.33,.16-1.77,.11-.45,.28-.79,.5-1.02,.22-.23,.5-.39,.84-.47s.73-.12,1.18-.12Z"/>
    </g>
  </g>
  <g>
    <g>
      <rect class="cls-1" x="110.26" y="25.26" width="2.17" height="18.55"/>
      <path class="cls-3" d="M112.43,44.19h-2.17c-.21,0-.38-.17-.38-.38V25.26c0-.21,.17-.38,.38-.38h2.17c.21,0,.38,.17,.38,.38v18.55c0,.21-.17,.38-.38,.38Zm-1.79-.76h1.41V25.64h-1.41v17.79Z"/>
    </g>
    <g>
      <path class="cls-1" d="M115.82,22.96c-.08,0-.15,0-.22,.01-.19-1.56-1.52-2.77-3.13-2.77-1.5,0-2.75,1.04-3.07,2.44-.65-.3-1.36-.47-2.12-.47-2.8,0-5.06,2.27-5.06,5.06s2.27,5.06,5.06,5.06c.68,0,1.32-.14,1.91-.38,.57,1.08,1.71,1.82,3.02,1.82,1.67,0,3.06-1.2,3.36-2.78,.09,0,.17,.01,.26,.01,2.22,0,4.01-1.8,4.01-4.01s-1.8-4.01-4.01-4.01Z"/>
      <path class="cls-3" d="M112.2,34.12c-1.3,0-2.49-.66-3.19-1.74-.56,.19-1.15,.29-1.75,.29-3,0-5.44-2.44-5.44-5.44s2.44-5.44,5.44-5.44c.65,0,1.28,.11,1.88,.34,.5-1.38,1.81-2.31,3.32-2.31,1.67,0,3.09,1.17,3.45,2.76,2.38,.05,4.3,2,4.3,4.39s-1.95,4.37-4.36,4.39c-.46,1.62-1.95,2.76-3.65,2.76Zm-3.02-2.58c.14,0,.27,.07,.33,.2,.53,1,1.56,1.62,2.69,1.62,1.46,0,2.71-1.04,2.99-2.47,.04-.19,.21-.32,.4-.31,.11,0,.17,.01,.23,.01,2,0,3.63-1.63,3.63-3.63s-1.63-3.63-3.63-3.63h-.12c-.19,0-.45-.12-.48-.32-.17-1.39-1.35-2.44-2.76-2.44-1.3,0-2.41,.88-2.71,2.15-.03,.11-.1,.21-.2,.25-.1,.05-.22,.05-.33,0-.62-.29-1.29-.44-1.96-.44-2.58,0-4.69,2.1-4.69,4.69s2.1,4.69,4.69,4.69c.61,0,1.2-.12,1.77-.35,.05-.02,.1-.03,.14-.03Z"/>
    </g>
    <g>
      <path class="cls-1" d="M104.88,43.81h-15c-1.09,0-1.97-.89-1.97-1.97v-11.05c0-1.09,9.37-8.29,9.37-8.29,0,0,9.57,8.39,9.57,9.47v9.87c0,1.09-.89,1.97-1.97,1.97Z"/>
      <path class="cls-3" d="M104.88,44.19h-15c-1.3,0-2.35-1.05-2.35-2.35v-11.05c0-1.11,5.97-5.86,9.52-8.59,.14-.11,.34-.1,.48,.01,2.92,2.56,9.7,8.62,9.7,9.76v9.87c0,1.3-1.06,2.35-2.35,2.35Zm-7.61-21.2c-4.31,3.33-8.8,7.12-8.98,7.83v11.02c0,.88,.72,1.59,1.6,1.59h15c.88,0,1.59-.71,1.59-1.59v-9.87c-.17-.7-4.78-5.09-9.21-8.98Z"/>
    </g>
    <g>
      <path class="cls-2" d="M86.56,34.91c-.48,0-.92-.18-1.25-.52-.69-.69-.69-1.82,0-2.51l10.86-10.86c.33-.33,.78-.52,1.25-.52,.51,0,.95,.18,1.29,.52l10.85,10.48c.34,.34,.52,.78,.52,1.26s-.18,.92-.52,1.25-.78,.52-1.25,.52-.92-.18-1.25-.52l-9.61-9.25-9.62,9.62c-.33,.33-.78,.52-1.25,.52Z"/>
      <path class="cls-3" d="M97.45,20.89c.36,0,.72,.13,.99,.41l10.86,10.49c.54,.54,.54,1.43,0,1.97-.27,.27-.63,.41-.99,.41s-.72-.14-.99-.41l-9.89-9.51-9.89,9.89c-.27,.27-.63,.41-.99,.41s-.72-.14-.99-.41c-.54-.54-.54-1.43,0-1.97l10.86-10.86c.27-.27,.63-.41,.99-.41,0,0,0,0,.01,0s0,0,.01,0m0-.76s-.02,0-.02,0h0c-.58,0-1.12,.22-1.53,.63l-10.86,10.86c-.84,.84-.84,2.21,0,3.04,.41,.41,.95,.63,1.52,.63s1.12-.22,1.52-.63l9.36-9.36,9.35,9c.4,.4,.94,.62,1.51,.62s1.12-.22,1.52-.63c.41-.41,.63-.95,.63-1.52s-.22-1.12-.63-1.52l-10.87-10.5c-.4-.4-.94-.62-1.51-.62h0Z"/>
    </g>
    <g>
      <rect class="cls-1" x="94.81" y="33.15" width="5.13" height="10.66"/>
      <path class="cls-3" d="M99.95,44.19h-5.13c-.21,0-.38-.17-.38-.38v-10.66c0-.21,.17-.38,.38-.38h5.13c.21,0,.38,.17,.38,.38v10.66c0,.21-.17,.38-.38,.38Zm-4.75-.76h4.37v-9.9h-4.37v9.9Z"/>
    </g>
    <path class="cls-3" d="M115.49,44.19h-30.78c-.21,0-.38-.17-.38-.38s.17-.38,.38-.38h30.78c.21,0,.38,.17,.38,.38s-.17,.38-.38,.38Z"/>
  </g>
  <g>
    <g>
      <g>
        <path class="cls-1" d="M23.08,21.11h21.21c1.66,0,3.01,1.35,3.01,3.01v15.76c0,1.66-1.35,3.01-3.01,3.01H23.08c-1.66,0-3.01-1.35-3.01-3.01v-15.76c0-1.66,1.35-3.01,3.01-3.01Z"/>
        <path class="cls-3" d="M44.29,43.27H23.08c-1.87,0-3.39-1.52-3.39-3.39v-15.76c0-1.87,1.52-3.39,3.39-3.39h21.21c1.87,0,3.39,1.52,3.39,3.39v15.76c0,1.87-1.52,3.39-3.39,3.39ZM23.08,21.49c-1.45,0-2.63,1.18-2.63,2.63v15.76c0,1.45,1.18,2.63,2.63,2.63h21.21c1.45,0,2.63-1.18,2.63-2.63v-15.76c0-1.45-1.18-2.63-2.63-2.63H23.08Z"/>
      </g>
      <path class="cls-3" d="M25.65,30.92c.78,.98,1.48,1.85,2.18,2.73,.15,.18,.34,.35,.41,.56,.06,.17,.02,.47-.1,.56-.12,.09-.39,.02-.58-.02-.09-.02-.15-.15-.22-.24-.95-1.18-1.91-2.36-2.84-3.56-.14-.17-.27-.52-.2-.64,.11-.17,.42-.27,.66-.29,.51-.04,1.03-.05,1.53,0,.63,.05,1.16-.16,1.66-.5,.39-.26,.72-1.05,.62-1.55-.18,0-.36,0-.55,0-1.14,0-2.28,0-3.41,0-.34,0-.67-.05-.65-.48,.01-.39,.33-.43,.65-.43,1.25,0,2.5,0,3.75,0-.11-.62-.8-1.17-1.59-1.22-.67-.04-1.34-.02-2.02-.03-.16,0-.35,.03-.46-.04-.15-.1-.31-.28-.32-.44,0-.13,.19-.28,.32-.4,.06-.05,.18-.03,.27-.03,2.07,0,4.13,0,6.2,0,.06,0,.15-.02,.18,.01,.16,.14,.3,.3,.45,.45-.15,.15-.29,.4-.46,.42-.53,.06-1.06,.03-1.59,.03-.17,0-.33,0-.52,0,.21,.4,.38,.75,.58,1.08,.06,.09,.22,.16,.34,.16,.37,.02,.76-.04,1.12,.03,.19,.04,.46,.24,.5,.41,.07,.31-.19,.47-.5,.47-.3,0-.6,.03-.89,0-.33-.03-.44,.13-.49,.42-.31,1.75-1.67,2.58-2.99,2.56-.31,0-.62,0-1.07,0Z"/>
    </g>
    <g>
      <circle class="cls-2" cx="43.38" cy="36.05" r="6.84"/>
      <path class="cls-3" d="M43.38,43.27c-3.98,0-7.22-3.24-7.22-7.22s3.24-7.22,7.22-7.22,7.22,3.24,7.22,7.22-3.24,7.22-7.22,7.22Zm0-13.68c-3.56,0-6.46,2.9-6.46,6.46s2.9,6.46,6.46,6.46,6.46-2.9,6.46-6.46-2.9-6.46-6.46-6.46Z"/>
    </g>
    <path class="cls-3" d="M41.07,32.61c.4,0,.72,.06,.96,.18,.24,.12,.41,.32,.51,.6s.15,.64,.15,1.11-.05,.83-.15,1.11c-.1,.28-.27,.48-.51,.6s-.56,.18-.96,.18-.72-.06-.96-.18-.41-.32-.51-.6c-.1-.28-.15-.65-.15-1.11s.05-.84,.15-1.11,.27-.47,.51-.6c.24-.12,.56-.18,.96-.18Zm0,.65c-.19,0-.34,.04-.44,.11-.11,.07-.18,.2-.23,.38s-.07,.44-.07,.76,.02,.58,.07,.76c.05,.18,.12,.31,.23,.38,.11,.07,.25,.11,.44,.11s.35-.04,.45-.11c.11-.07,.18-.2,.22-.38,.04-.18,.06-.43,.06-.76s-.02-.58-.06-.76c-.04-.18-.12-.31-.22-.38-.11-.07-.26-.11-.45-.11Zm4.84-.53l-4.17,6.36h-.77l4.17-6.36h.77Zm-.08,2.68c.4,0,.72,.06,.96,.18,.24,.12,.41,.32,.51,.6s.16,.64,.16,1.1-.05,.83-.16,1.11c-.1,.28-.27,.48-.51,.6-.24,.12-.56,.18-.96,.18s-.71-.06-.95-.18c-.24-.12-.41-.32-.51-.6-.1-.28-.15-.65-.15-1.11s.05-.83,.15-1.1,.27-.47,.51-.6c.24-.12,.56-.18,.95-.18Zm0,.64c-.19,0-.34,.04-.44,.11-.11,.07-.18,.2-.22,.38-.04,.18-.06,.44-.06,.76s.02,.58,.06,.77c.04,.18,.12,.31,.22,.38,.11,.07,.25,.11,.44,.11s.35-.04,.45-.11c.11-.07,.18-.2,.23-.38,.04-.18,.07-.44,.07-.77s-.02-.58-.07-.76c-.05-.18-.12-.31-.23-.38-.11-.07-.26-.11-.45-.11Z"/>
  </g>
  <g>
    <g>
      <path class="cls-2" d="M179.78,37.96c-.4-1.08-1.2-1.94-2.25-2.42-.58-.27-1.2-.39-1.8-.39-1.54-.72-11.3-5.28-14.03-6.53-2.97-1.36-6.94,.6-6.94,.6l17.35,7.89c-.11,.18-.22,.36-.31,.55-.99,2.17-.04,4.74,2.13,5.73,.58,.27,1.19,.39,1.79,.39,1.64,0,3.21-.94,3.94-2.52,.48-1.05,.52-2.22,.12-3.31Zm-1.41,2.72c-.32,.71-.9,1.24-1.63,1.52-.73,.27-1.52,.24-2.22-.08-1.46-.67-2.1-2.4-1.43-3.86,.49-1.07,1.55-1.7,2.65-1.7,.4,0,.81,.08,1.21,.26,.71,.32,1.24,.9,1.52,1.63,.27,.73,.24,1.52-.08,2.22Z"/>
      <path class="cls-3" d="M175.72,44.17c-.68,0-1.33-.14-1.95-.43-2.36-1.08-3.4-3.87-2.32-6.23,.04-.08,.07-.15,.11-.23l-16.97-7.72c-.13-.06-.22-.19-.22-.34,0-.15,.08-.28,.21-.34,.17-.08,4.16-2.02,7.26-.61,2.69,1.23,12.2,5.67,13.96,6.5,.66,0,1.29,.15,1.88,.42,1.14,.52,2.01,1.46,2.45,2.63h0c.44,1.18,.39,2.45-.13,3.59-.76,1.67-2.44,2.75-4.28,2.75Zm-20.02-14.93l16.56,7.53c.1,.05,.18,.13,.21,.24,.03,.11,.01,.22-.05,.31-.1,.16-.2,.33-.28,.51-.44,.96-.48,2.03-.11,3.02,.37,.99,1.1,1.77,2.05,2.21,.52,.24,1.07,.36,1.63,.36,1.54,0,2.95-.9,3.59-2.3,.44-.96,.48-2.03,.11-3.02h0c-.37-.99-1.1-1.77-2.06-2.21-.51-.23-1.06-.35-1.63-.35h-.01c-.06,0-.11-.01-.16-.04-1.54-.72-11.3-5.28-14.03-6.53-2.01-.92-4.57-.2-5.83,.27Zm20.02,13.52c-.46,0-.93-.1-1.37-.3-1.65-.75-2.38-2.71-1.62-4.36,.53-1.17,1.71-1.92,2.99-1.92,.47,0,.93,.1,1.36,.3,.8,.36,1.41,1.02,1.71,1.84s.27,1.72-.09,2.51c-.37,.8-1.02,1.41-1.84,1.71-.37,.14-.76,.21-1.15,.21Zm0-5.82c-.99,0-1.89,.58-2.3,1.48-.58,1.27-.02,2.77,1.25,3.35,.62,.28,1.3,.3,1.94,.07,.63-.24,1.14-.7,1.42-1.32h0c.28-.61,.31-1.3,.07-1.94-.24-.63-.71-1.14-1.32-1.42-.33-.15-.68-.23-1.05-.23Z"/>
    </g>
    <g>
      <rect class="cls-1" x="147.56" y="23.48" width="23.26" height="16.71" rx="1.62" ry="1.62" transform="translate(191.02 -127.36) rotate(90)"/>
      <path class="cls-3" d="M165.92,43.84h-13.47c-1.1,0-2-.9-2-2V21.83c0-1.1,.9-2,2-2h13.47c1.1,0,2,.9,2,2v20.01c0,1.1-.9,2-2,2Zm-13.47-23.25c-.68,0-1.24,.56-1.24,1.24v20.01c0,.69,.56,1.24,1.24,1.24h13.47c.69,0,1.24-.56,1.24-1.24V21.83c0-.69-.56-1.24-1.24-1.24h-13.47Z"/>
    </g>
    <g>
      <path class="cls-2" d="M179.66,27.74c-.99-2.17-3.56-3.12-5.73-2.13-2.17,.99-3.12,3.56-2.13,5.73,.09,.19,.2,.38,.31,.55l-17.35,7.89s3.96,1.96,6.94,.6c2.73-1.25,12.44-5.78,14.02-6.52,0,0,.01,0,.02,0,.61,0,1.22-.13,1.8-.39,1.05-.48,1.85-1.34,2.25-2.42,.4-1.08,.36-2.26-.12-3.31Zm-1.2,2.81c-.27,.73-.81,1.31-1.52,1.63-.71,.32-1.5,.35-2.22,.08-.73-.27-1.31-.81-1.63-1.52-.67-1.46-.02-3.19,1.43-3.86,.39-.18,.8-.27,1.21-.27,.34,0,.69,.06,1.02,.18,.73,.27,1.31,.81,1.63,1.52s.35,1.5,.08,2.22Z"/>
      <path class="cls-3" d="M159.27,41.25c-2.38,0-4.56-1.06-4.69-1.12-.13-.06-.21-.2-.21-.34,0-.15,.09-.28,.22-.34l16.97-7.72c-.04-.07-.08-.15-.11-.23-1.08-2.36-.04-5.15,2.32-6.23,1.14-.52,2.41-.57,3.59-.13,1.18,.44,2.11,1.31,2.64,2.45,.52,1.14,.57,2.42,.13,3.6-.44,1.18-1.31,2.11-2.45,2.63-.6,.28-1.24,.42-1.89,.43-1.07,.5-11.13,5.2-13.95,6.49-.82,.38-1.71,.52-2.58,.52Zm-3.57-1.48c1.26,.47,3.82,1.19,5.83,.27,2.91-1.33,13.57-6.31,14.02-6.52,.05-.02,.11-.04,.17-.04,.58,0,1.13-.12,1.65-.36,.96-.44,1.69-1.22,2.06-2.21,.37-.99,.33-2.06-.11-3.02h0c-.9-1.98-3.25-2.85-5.23-1.94-1.98,.9-2.85,3.25-1.94,5.23,.08,.18,.18,.34,.28,.51,.06,.09,.08,.21,.04,.31s-.11,.19-.21,.24l-16.56,7.53Zm20.03-6.94c-.39,0-.77-.07-1.15-.21-.82-.31-1.48-.92-1.84-1.71-.75-1.65-.03-3.6,1.62-4.36,.79-.36,1.7-.4,2.51-.09,.82,.31,1.48,.92,1.84,1.71,.36,.8,.4,1.69,.09,2.51h0c-.31,.82-.92,1.48-1.71,1.84-.44,.2-.9,.3-1.37,.3Zm0-5.82c-.36,0-.72,.08-1.05,.23-1.27,.58-1.83,2.08-1.25,3.35,.28,.61,.78,1.08,1.42,1.32,.63,.23,1.32,.21,1.93-.07,.61-.28,1.08-.79,1.32-1.42,.24-.63,.21-1.32-.07-1.93-.28-.61-.79-1.08-1.42-1.32-.29-.11-.58-.16-.88-.16Zm2.73,3.55h0Z"/>
    </g>
    <path class="cls-3" d="M154.76,27.7c.58,.73,1.11,1.38,1.63,2.04,.11,.14,.26,.26,.31,.42,.04,.13,.01,.35-.07,.42-.09,.07-.29,.02-.43-.02-.06-.02-.11-.11-.16-.18-.71-.89-1.42-1.77-2.12-2.66-.1-.13-.21-.39-.15-.48,.08-.13,.31-.21,.49-.22,.38-.03,.77-.04,1.15,0,.47,.04,.86-.12,1.24-.38,.29-.2,.54-.78,.47-1.16-.13,0-.27,0-.41,0-.85,0-1.7,0-2.55,0-.25,0-.5-.04-.49-.36,.01-.29,.25-.32,.49-.32,.93,0,1.87,0,2.81,0-.09-.47-.6-.87-1.19-.91-.5-.03-1.01-.02-1.51-.02-.12,0-.26,.02-.34-.03-.11-.07-.23-.21-.24-.33,0-.1,.14-.21,.24-.3,.04-.04,.13-.02,.2-.02,1.54,0,3.09,0,4.63,0,.05,0,.11-.02,.14,0,.12,.11,.23,.22,.34,.34-.11,.11-.22,.3-.34,.32-.39,.04-.79,.02-1.19,.02-.12,0-.25,0-.39,0,.16,.3,.28,.56,.44,.81,.04,.07,.17,.12,.25,.12,.28,.02,.57-.03,.84,.02,.15,.03,.35,.18,.38,.31,.05,.23-.14,.35-.37,.35-.22,0-.45,.02-.67,0-.25-.02-.33,.1-.36,.31-.23,1.31-1.25,1.93-2.23,1.91-.23,0-.46,0-.8,0Z"/>
  </g>
  <g>
    <g>
      <path class="cls-1" d="M231.34,44.57h-13.96c-1.54,0-2.61-1.4-2.39-3.05l1.1-8.39c.54-4.12,4.22-7.08,8.27-7.08h0c2.99,0,5.78,1.61,7.25,4.11,.52,.89,.46,1.89,.6,2.96l-.16,8.39c.22,1.65,.83,3.05-.71,3.05Z"/>
      <path class="cls-3" d="M231.34,44.95h-13.96c-.8,0-1.53-.33-2.05-.92-.58-.67-.85-1.6-.72-2.56l1.1-8.39c.55-4.22,4.27-7.41,8.64-7.41,3.11,0,6.01,1.65,7.58,4.3,.44,.74,.5,1.51,.57,2.33,.02,.25,.04,.51,.08,.78l-.15,8.45c.04,.25,.09,.55,.14,.83,.16,.9,.3,1.67-.11,2.17-.24,.28-.6,.42-1.12,.42Zm-6.98-18.52c-4,0-7.39,2.9-7.89,6.75l-1.1,8.39c-.1,.74,.1,1.46,.54,1.96,.38,.43,.9,.66,1.48,.66h13.96c.19,0,.44-.03,.54-.15,.19-.23,.07-.9-.05-1.55-.05-.29-.11-.6-.15-.93l.15-8.45c-.03-.22-.06-.49-.08-.75-.07-.76-.12-1.42-.47-2.01-1.43-2.42-4.08-3.93-6.92-3.93Z"/>
    </g>
    <g>
      <rect class="cls-1" x="220.83" y="24.48" width="7.05" height="1.81" rx=".75" ry=".75"/>
      <path class="cls-3" d="M227.14,26.66h-5.56c-.62,0-1.12-.5-1.12-1.12v-.32c0-.62,.5-1.12,1.12-1.12h5.56c.62,0,1.12,.5,1.12,1.12v.32c0,.62-.5,1.12-1.12,1.12Zm-5.56-1.81c-.2,0-.37,.16-.37,.37v.32c0,.2,.16,.37,.37,.37h5.56c.2,0,.37-.16,.37-.37v-.32c0-.2-.16-.37-.37-.37h-5.56Z"/>
    </g>
    <g>
      <path class="cls-1" d="M222.69,24.25l-2.43-2.47c-.36-.61-.25-1.39,.28-1.87l.34-.31c.48-.44,1.21,.06,1.67,.53l1.81,1.86,1.35-.9c.64-.43,1.49-.83,2.04-.29h0c.46,.45,.56,1.16,.24,1.71l-1.97,1.75h-3.33Z"/>
      <path class="cls-3" d="M226.03,24.63h-3.33c-.1,0-.2-.04-.27-.11l-2.43-2.47c-.51-.83-.36-1.81,.29-2.41l.34-.31c.55-.5,1.38-.29,2.19,.54l1.59,1.63,1.09-.73c1.09-.72,1.94-.81,2.51-.25,.59,.57,.71,1.47,.3,2.18-.02,.04-.05,.07-.08,.09l-1.97,1.75c-.07,.06-.16,.1-.25,.1Zm-3.17-.76h3.03l1.81-1.61c.2-.4,.12-.89-.2-1.2-.29-.28-.81-.17-1.57,.33l-1.35,.9c-.15,.1-.35,.08-.48-.05l-1.81-1.86c-.38-.4-.9-.72-1.14-.51l-.34,.31c-.39,.36-.48,.94-.21,1.39l2.26,2.29Z"/>
    </g>
    <path class="cls-3" d="M223.38,33.52c.55,.69,1.05,1.31,1.55,1.94,.1,.13,.24,.25,.29,.4,.04,.12,.01,.33-.07,.4-.08,.07-.27,.02-.41-.02-.06-.01-.11-.11-.15-.17-.67-.84-1.35-1.68-2.01-2.53-.1-.12-.2-.37-.14-.46,.08-.12,.3-.19,.47-.21,.36-.03,.73-.03,1.09,0,.45,.04,.82-.11,1.18-.36,.27-.19,.51-.74,.44-1.1-.12,0-.26,0-.39,0-.81,0-1.62,0-2.42,0-.24,0-.48-.04-.46-.34,0-.28,.24-.31,.46-.31,.89,0,1.77,0,2.67,0-.08-.44-.57-.83-1.13-.87-.48-.03-.95-.01-1.43-.02-.11,0-.25,.02-.33-.03-.1-.07-.22-.2-.23-.31,0-.09,.13-.2,.23-.28,.04-.04,.13-.02,.19-.02,1.47,0,2.93,0,4.4,0,.04,0,.1-.02,.13,0,.11,.1,.21,.21,.32,.32-.11,.1-.21,.29-.33,.3-.37,.04-.75,.02-1.13,.02-.12,0-.24,0-.37,0,.15,.29,.27,.53,.41,.77,.04,.07,.16,.11,.24,.12,.27,.02,.54-.03,.8,.02,.14,.03,.33,.17,.36,.29,.05,.22-.13,.33-.35,.34-.21,0-.42,.02-.63,0-.23-.02-.31,.1-.35,.3-.22,1.24-1.18,1.83-2.12,1.81-.22,0-.44,0-.76,0Z"/>
    <g>
      <g>
        <path class="cls-2" d="M227.21,37.08h.49c.71,0,1.29,.58,1.29,1.29v6.13h-3.07v-6.13c0-.71,.58-1.29,1.29-1.29Z"/>
        <path class="cls-3" d="M228.99,44.88h-3.07c-.21,0-.38-.17-.38-.38v-6.13c0-.92,.75-1.67,1.67-1.67h.49c.92,0,1.67,.75,1.67,1.67v6.13c0,.21-.17,.38-.38,.38Zm-2.7-.76h2.32v-5.75c0-.5-.41-.91-.91-.91h-.49c-.5,0-.91,.41-.91,.91v5.75Z"/>
      </g>
      <g>
        <path class="cls-2" d="M230.28,30.07h.49c.71,0,1.29,.58,1.29,1.29v13.13h-3.07v-13.13c0-.71,.58-1.29,1.29-1.29Z"/>
        <path class="cls-3" d="M232.07,44.88h-3.08c-.21,0-.38-.17-.38-.38v-13.13c0-.92,.75-1.67,1.67-1.67h.49c.92,0,1.67,.75,1.67,1.67v13.13c0,.21-.17,.38-.38,.38Zm-2.7-.76h2.32v-12.75c0-.5-.41-.91-.91-.91h-.49c-.5,0-.91,.41-.91,.91v12.75Z"/>
      </g>
      <g>
        <path class="cls-2" d="M233.36,32.74h.49c.71,0,1.29,.58,1.29,1.29v10.47h-3.07v-10.47c0-.71,.58-1.29,1.29-1.29Z"/>
        <path class="cls-3" d="M235.14,44.88h-3.08c-.21,0-.38-.17-.38-.38v-10.47c0-.92,.75-1.67,1.67-1.67h.49c.92,0,1.67,.75,1.67,1.67v10.47c0,.21-.17,.38-.38,.38Zm-2.7-.76h2.32v-10.09c0-.5-.41-.91-.91-.91h-.49c-.5,0-.91,.41-.91,.91v10.09Z"/>
      </g>
      <g>
        <path class="cls-2" d="M236.43,26.71h.49c.71,0,1.29,.58,1.29,1.29v16.47h-3.07V28c0-.71,.58-1.29,1.29-1.29Z"/>
        <path class="cls-3" d="M238.22,44.85h-3.08c-.21,0-.38-.17-.38-.38V28c0-.92,.75-1.67,1.67-1.67h.49c.92,0,1.67,.75,1.67,1.67v16.47c0,.21-.17,.38-.38,.38Zm-2.7-.76h2.32V28c0-.5-.41-.91-.91-.91h-.49c-.5,0-.91,.41-.91,.91v16.09Z"/>
      </g>
    </g>
  </g>
</svg>