<?xml version="1.0" encoding="UTF-8"?>
<svg id="Layer_1" data-name="Layer 1" xmlns="http://www.w3.org/2000/svg" viewBox="0 0 320 64">
  <defs>
    <style>
      .cls-1 {
        fill: #fff;
      }

      .cls-2 {
        fill: #a9e0ff;
      }

      .cls-3 {
        fill: #186dc9;
      }
    </style>
  </defs>
  <g>
    <g>
      <path class="cls-1" d="M214.75,22.18h14.56c1.31,0,2.37,1.06,2.37,2.37v17.74c0,2.34-1.9,4.23-4.23,4.23h-15.06c-.25,0-.45-.2-.45-.45V24.99c0-1.55,1.26-2.81,2.81-2.81Z"/>
      <path class="cls-3" d="M227.45,46.9h-15.06c-.46,0-.83-.37-.83-.83V24.99c0-1.76,1.43-3.19,3.19-3.19h14.56c1.51,0,2.75,1.23,2.75,2.75v17.74c0,2.54-2.07,4.61-4.61,4.61Zm-12.69-24.34c-1.34,0-2.44,1.09-2.44,2.44v21.08s.03,.07,.07,.07h15.06c2.12,0,3.85-1.73,3.85-3.85V24.55c0-1.1-.89-1.99-1.99-1.99h-14.56Z"/>
    </g>
    <g>
      <path class="cls-2" d="M211.75,46.52c-4.34,0-4.74-6.71,0-6.71h15.79c-3.95,0-3.95,6.71,0,6.71h-15.79Z"/>
      <path class="cls-3" d="M227.53,46.9h-15.79c-2.46,0-3.78-1.98-3.78-3.84,0-.96,.33-1.84,.94-2.5,.68-.74,1.67-1.13,2.85-1.13h15.79c.21,0,.38,.17,.38,.38s-.17,.38-.38,.38c-.79,0-1.46,.31-1.92,.9-.42,.53-.66,1.29-.66,2.07,0,1.43,.81,2.98,2.58,2.98,.21,0,.38,.17,.38,.38s-.17,.38-.38,.38Zm-15.79-6.71c-.96,0-1.76,.31-2.29,.89-.47,.51-.73,1.21-.73,1.98,0,1.53,1.04,3.08,3.03,3.08h13.69c-.82-.72-1.24-1.85-1.24-2.98,0-.96,.29-1.87,.82-2.54,.13-.16,.26-.31,.41-.44h-13.68Z"/>
    </g>
    <path class="cls-3" d="M229.03,34.59h-14.67c-.21,0-.38-.17-.38-.38s.17-.38,.38-.38h14.67c.21,0,.38,.17,.38,.38s-.17,.38-.38,.38Z"/>
    <path class="cls-3" d="M225.47,37.36h-11.1c-.21,0-.38-.17-.38-.38s.17-.38,.38-.38h11.1c.21,0,.38,.17,.38,.38s-.17,.38-.38,.38Z"/>
    <g>
      <path class="cls-3" d="M215.24,26.06v4.36h-.96v-4.36h.96Z"/>
      <path class="cls-3" d="M219.37,26.06v.76h-3.59v-.76h3.59Zm-1.31,0v4.36h-.97v-4.36h.97Z"/>
      <path class="cls-3" d="M221.6,26c.38,0,.69,.04,.93,.12s.41,.21,.52,.4c.11,.19,.17,.45,.17,.78,0,.2-.03,.38-.08,.53-.05,.15-.14,.28-.26,.37-.12,.09-.29,.15-.5,.18v.03c.08,.01,.15,.04,.24,.09,.08,.05,.16,.11,.23,.2,.07,.09,.12,.21,.16,.36l.38,1.36h-1.02l-.33-1.33c-.04-.14-.09-.24-.17-.3-.07-.06-.18-.08-.31-.08-.29,0-.53,0-.72,0-.2,0-.36,0-.49,0s-.25,0-.36-.01l.02-.7h1.57c.17,0,.3-.02,.4-.05s.17-.1,.21-.19c.04-.09,.06-.22,.06-.38s-.02-.3-.06-.39c-.04-.09-.11-.15-.21-.19-.1-.04-.23-.05-.4-.05-.39,0-.73,0-1,0s-.46,.01-.56,.02l-.1-.69c.18-.02,.34-.04,.5-.04s.33-.01,.51-.02c.18,0,.41,0,.67,0Zm-.73,.06v4.36h-.95v-4.36h.95Z"/>
      <path class="cls-3" d="M225.81,28.51v.59h-1.88v-.59h1.88Z"/>
      <path class="cls-3" d="M230.04,26.06l-1.19,4.09c-.02,.08-.06,.14-.12,.19-.06,.05-.13,.08-.22,.08h-.88c-.09,0-.16-.03-.22-.08-.06-.05-.1-.11-.12-.19l-1.19-4.09h1l.8,3.15c.02,.08,.03,.16,.05,.24s.04,.16,.05,.24h.16c.01-.08,.03-.16,.05-.25,.02-.08,.04-.17,.06-.25l.79-3.14h.99Z"/>
    </g>
  </g>
  <g>
    <g>
      <g>
        <path class="cls-1" d="M24.76,22.18h15c1.31,0,2.37,1.06,2.37,2.37v18.01c0,2.19-1.78,3.97-3.97,3.97h-15.77V24.55c0-1.31,1.06-2.37,2.37-2.37Z"/>
        <path class="cls-3" d="M38.16,46.9h-15.77c-.21,0-.38-.17-.38-.38V24.55c0-1.51,1.23-2.75,2.75-2.75h15c1.51,0,2.75,1.23,2.75,2.75v18.01c0,2.39-1.95,4.34-4.34,4.34Zm-15.39-.76h15.39c1.98,0,3.59-1.61,3.59-3.59V24.55c0-1.1-.89-1.99-1.99-1.99h-15c-1.1,0-1.99,.89-1.99,1.99v21.59Z"/>
      </g>
      <g>
        <path class="cls-1" d="M22.2,46.52c-4.34,0-4.74-6.71,0-6.71h15.79c-3.95,0-3.95,6.71,0,6.71h-15.79Z"/>
        <path class="cls-3" d="M37.98,46.9h-15.79c-2.46,0-3.78-1.98-3.78-3.84,0-.96,.33-1.84,.94-2.5,.68-.74,1.67-1.13,2.85-1.13h15.79c.21,0,.38,.17,.38,.38s-.17,.38-.38,.38c-.79,0-1.46,.31-1.92,.9-.42,.53-.66,1.29-.66,2.07,0,1.43,.81,2.98,2.58,2.98,.21,0,.38,.17,.38,.38s-.17,.38-.38,.38Zm-15.79-6.71c-.96,0-1.76,.31-2.29,.89-.47,.51-.73,1.21-.73,1.98,0,1.53,1.04,3.08,3.03,3.08h13.69c-.82-.72-1.24-1.85-1.24-2.98,0-.96,.29-1.87,.82-2.54,.13-.16,.26-.31,.41-.44h-13.68Z"/>
      </g>
      <path class="cls-3" d="M39.48,36.96h-14.67c-.21,0-.38-.17-.38-.38s.17-.38,.38-.38h14.67c.21,0,.38,.17,.38,.38s-.17,.38-.38,.38Z"/>
    </g>
    <g>
      <g>
        <path class="cls-2" d="M34.72,33.52h-5.85c-.42,0-.77-.35-.77-.77v-4.31c0-.42,3.66-3.23,3.66-3.23,0,0,3.74,3.27,3.74,3.7v3.85c0,.42-.35,.77-.77,.77Z"/>
        <path class="cls-3" d="M34.72,33.9h-5.85c-.63,0-1.15-.52-1.15-1.15v-4.31c0-.2,0-.61,3.81-3.53,.14-.11,.34-.1,.48,.01,3.87,3.39,3.87,3.8,3.87,3.98v3.85c0,.63-.52,1.15-1.15,1.15Zm-6.25-5.39v4.25c0,.22,.18,.39,.39,.39h5.85c.22,0,.39-.18,.39-.39v-3.85c-.14-.24-1.78-1.8-3.37-3.21-1.46,1.13-3.03,2.45-3.26,2.81Z"/>
      </g>
      <g>
        <path class="cls-2" d="M27.57,30.28c-.25,0-.48-.1-.65-.27-.36-.36-.36-.95,0-1.31l4.24-4.24c.17-.17,.4-.27,.65-.27,.26,0,.49,.1,.67,.27l4.23,4.09c.18,.18,.27,.41,.27,.66s-.1,.48-.27,.65-.41,.27-.65,.27-.48-.1-.65-.27l-3.59-3.45-3.6,3.6c-.17,.17-.41,.27-.65,.27Z"/>
        <path class="cls-3" d="M31.82,24.57c.14,0,.28,.05,.39,.16l4.24,4.09c.21,.21,.21,.56,0,.77-.11,.11-.25,.16-.39,.16s-.28-.05-.39-.16l-3.86-3.71-3.86,3.86c-.11,.11-.25,.16-.39,.16s-.28-.05-.39-.16c-.21-.21-.21-.56,0-.77l4.24-4.24c.11-.11,.25-.16,.39-.16h.01m0-.76h-.01c-.35,0-.67,.14-.92,.38l-4.24,4.24c-.25,.25-.38,.57-.38,.92s.14,.68,.38,.92c.25,.25,.57,.38,.92,.38s.68-.14,.92-.38l3.33-3.33,3.32,3.2c.23,.24,.56,.37,.91,.37s.68-.14,.92-.38c.25-.25,.38-.57,.38-.92s-.14-.68-.38-.92l-4.25-4.1c-.24-.24-.56-.37-.91-.37h0Z"/>
      </g>
    </g>
  </g>
  <g>
    <g>
      <rect class="cls-1" x="85.94" y="26.34" width="21.78" height="17.89" rx="2.17" ry="2.17"/>
      <path class="cls-3" d="M105.55,44.61h-17.44c-1.41,0-2.55-1.14-2.55-2.55v-13.55c0-1.41,1.14-2.55,2.55-2.55h17.44c1.41,0,2.55,1.14,2.55,2.55v13.55c0,1.41-1.14,2.55-2.55,2.55Zm-17.44-17.89c-.99,0-1.79,.8-1.79,1.79v13.55c0,.99,.8,1.79,1.79,1.79h17.44c.99,0,1.79-.8,1.79-1.79v-13.55c0-.99-.8-1.79-1.79-1.79h-17.44Z"/>
    </g>
    <g>
      <rect class="cls-2" x="81.69" y="29.75" width="26.02" height="5.54"/>
      <path class="cls-3" d="M107.72,35.66h-26.02c-.21,0-.38-.17-.38-.38v-5.54c0-.21,.17-.38,.38-.38h26.02c.21,0,.38,.17,.38,.38v5.54c0,.21-.17,.38-.38,.38Zm-25.64-.76h25.26v-4.78h-25.26v4.78Z"/>
    </g>
    <g>
      <g>
        <path class="cls-1" d="M76.95,34.35c0-5.53,4.48-10.01,10.01-10.01"/>
        <path class="cls-3" d="M76.95,34.73c-.21,0-.38-.17-.38-.38,0-.53,.04-1.05,.12-1.56,.03-.21,.22-.34,.43-.32,.21,.03,.35,.22,.32,.43-.07,.47-.11,.96-.11,1.45,0,.21-.17,.38-.38,.38Zm1.37-5.05c-.07,0-.13-.02-.19-.05-.18-.11-.24-.34-.13-.52,.26-.45,.57-.89,.89-1.29,.13-.16,.37-.19,.53-.05,.16,.13,.19,.37,.05,.53-.3,.37-.58,.78-.83,1.2-.07,.12-.2,.19-.33,.19Zm3.74-3.67c-.13,0-.26-.07-.33-.19-.1-.18-.04-.41,.14-.52,.45-.25,.93-.48,1.42-.66,.19-.07,.41,.02,.49,.22,.07,.2-.03,.41-.22,.49-.46,.17-.9,.38-1.32,.62-.06,.03-.12,.05-.19,.05Z"/>
      </g>
      <g>
        <path class="cls-1" d="M86.96,24.34c5.53,0,10.01,4.48,10.01,10.01s-4.48,10.01-10.01,10.01-10.01-4.48-10.01-10.01"/>
        <path class="cls-3" d="M86.96,44.73c-5.73,0-10.39-4.66-10.39-10.39,0-.21,.17-.38,.38-.38s.38,.17,.38,.38c0,5.31,4.32,9.63,9.63,9.63s9.63-4.32,9.63-9.63-4.32-9.63-9.63-9.63c-.21,0-.38-.17-.38-.38s.17-.38,.38-.38c5.73,0,10.39,4.66,10.39,10.38s-4.66,10.39-10.39,10.39Z"/>
      </g>
      <g>
        <polyline class="cls-1" points="87.88 27.15 87.88 34.6 83.55 31.96"/>
        <path class="cls-3" d="M87.88,34.98c-.07,0-.14-.02-.2-.06l-4.34-2.64c-.18-.11-.23-.34-.13-.52,.11-.18,.34-.23,.52-.13l3.76,2.29v-6.77c0-.21,.17-.38,.38-.38s.38,.17,.38,.38v7.45c0,.14-.07,.26-.19,.33-.06,.03-.12,.05-.19,.05Z"/>
      </g>
    </g>
  </g>
  <g>
    <g>
      <g>
        <circle class="cls-2" cx="286.37" cy="33.98" r="11.16"/>
        <path class="cls-3" d="M286.37,45.52c-6.36,0-11.54-5.17-11.54-11.54s5.17-11.54,11.54-11.54,11.54,5.17,11.54,11.54-5.17,11.54-11.54,11.54Zm0-22.31c-5.94,0-10.78,4.83-10.78,10.78s4.83,10.78,10.78,10.78,10.78-4.83,10.78-10.78-4.83-10.78-10.78-10.78Z"/>
      </g>
      <g>
        <circle class="cls-1" cx="286.37" cy="33.98" r="8.61"/>
        <path class="cls-3" d="M286.37,42.97c-4.95,0-8.99-4.03-8.99-8.99s4.03-8.99,8.99-8.99,8.99,4.03,8.99,8.99-4.03,8.99-8.99,8.99Zm0-17.21c-4.54,0-8.23,3.69-8.23,8.23s3.69,8.23,8.23,8.23,8.23-3.69,8.23-8.23-3.69-8.23-8.23-8.23Z"/>
      </g>
      <path class="cls-3" d="M286.25,45.57h-15.35c-.21,0-.38-.17-.38-.38s.17-.38,.38-.38h15.35c6.01,0,10.9-4.85,10.9-10.8s-4.89-10.8-10.9-10.8h-12.83c-.21,0-.38-.17-.38-.38s.17-.38,.38-.38h12.83c6.43,0,11.66,5.19,11.66,11.56s-5.23,11.56-11.66,11.56Z"/>
      <g>
        <path class="cls-3" d="M274.22,26.64c-.1,0-.19-.04-.27-.11l-3.43-3.43c-.15-.15-.15-.39,0-.54l3.43-3.43c.15-.15,.39-.15,.54,0s.15,.39,0,.54l-3.17,3.17,3.17,3.17c.15,.15,.15,.39,0,.54-.07,.07-.17,.11-.27,.11Z"/>
        <path class="cls-3" d="M274.22,26.64c-.1,0-.19-.04-.27-.11l-3.43-3.43c-.15-.15-.15-.39,0-.54l3.43-3.43c.15-.15,.39-.15,.54,0s.15,.39,0,.54l-3.17,3.17,3.17,3.17c.15,.15,.15,.39,0,.54-.07,.07-.17,.11-.27,.11Z"/>
      </g>
    </g>
    <path class="cls-3" d="M284.64,35.39c.78,.98,1.48,1.85,2.18,2.73,.15,.18,.34,.35,.41,.56,.06,.17,.02,.47-.1,.56-.12,.09-.39,.02-.58-.02-.09-.02-.15-.15-.22-.24-.95-1.18-1.91-2.36-2.84-3.56-.14-.17-.27-.52-.2-.64,.11-.17,.42-.27,.66-.29,.51-.04,1.03-.05,1.53,0,.63,.05,1.16-.16,1.66-.5,.39-.26,.72-1.05,.62-1.55-.18,0-.36,0-.55,0-1.14,0-2.28,0-3.41,0-.34,0-.67-.05-.65-.48,.01-.39,.33-.43,.65-.43,1.25,0,2.5,0,3.75,0-.11-.62-.8-1.17-1.59-1.22-.67-.04-1.34-.02-2.02-.03-.16,0-.35,.03-.46-.04-.15-.1-.31-.28-.32-.44,0-.13,.19-.28,.32-.4,.06-.05,.18-.03,.27-.03,2.07,0,4.13,0,6.2,0,.06,0,.15-.02,.18,.01,.16,.14,.3,.3,.45,.45-.15,.15-.29,.4-.46,.42-.53,.06-1.06,.03-1.59,.03-.17,0-.33,0-.52,0,.21,.4,.38,.75,.58,1.08,.06,.09,.22,.16,.34,.16,.37,.02,.76-.04,1.12,.03,.19,.04,.46,.24,.5,.41,.07,.31-.19,.47-.5,.47-.3,0-.6,.03-.89,0-.33-.03-.44,.13-.49,.42-.31,1.75-1.67,2.58-2.99,2.56-.31,0-.62,0-1.07,0Z"/>
  </g>
  <g>
    <g>
      <g>
        <circle class="cls-1" cx="157.1" cy="27.11" r="4.99"/>
        <path class="cls-3" d="M157.1,32.48c-2.96,0-5.37-2.41-5.37-5.37s2.41-5.37,5.37-5.37,5.37,2.41,5.37,5.37-2.41,5.37-5.37,5.37Zm0-9.99c-2.54,0-4.61,2.07-4.61,4.61s2.07,4.62,4.61,4.62,4.61-2.07,4.61-4.62-2.07-4.61-4.61-4.61Z"/>
      </g>
      <g>
        <path class="cls-1" d="M155.06,32.13h4.17c3.27,0,5.92,2.65,5.92,5.92v6.56c0,1.09-.88,1.97-1.97,1.97h-12.06c-1.09,0-1.97-.88-1.97-1.97v-6.56c0-3.27,2.65-5.92,5.92-5.92Z"/>
        <path class="cls-3" d="M163.17,46.96h-12.06c-1.3,0-2.35-1.06-2.35-2.35v-6.56c0-3.47,2.83-6.3,6.3-6.3h4.17c3.47,0,6.3,2.83,6.3,6.3v6.56c0,1.3-1.06,2.35-2.35,2.35Zm-8.11-14.45c-3.06,0-5.54,2.49-5.54,5.54v6.56c0,.88,.71,1.59,1.59,1.59h12.06c.88,0,1.59-.71,1.59-1.59v-6.56c0-3.06-2.49-5.54-5.54-5.54h-4.17Z"/>
      </g>
    </g>
    <g>
      <g>
        <path class="cls-2" d="M154.42,41.11h14.98c.43,0,.78,.47,.78,.9s-.35,.9-.78,.9h-.65v1.79c0,.49-.4,.9-.9,.9h0c-.49,0-.9-.4-.9-.9v-1.79h-.9v1.36c0,.49-.39,.88-.88,.88h0c-.5,0-.91-.41-.91-.91v-1.33s-9.85,0-9.85,0h0c0,2.8-3.67,4.89-6.49,2.87-.98-.7-1.62-1.81-1.75-3.01-.27-2.62,1.58-4.85,4.14-4.85,2,0,3.81,1.36,4.08,3.2h.02Z"/>
        <path class="cls-3" d="M150.38,46.96c-.94,0-1.86-.3-2.68-.88-1.07-.77-1.76-1.96-1.9-3.28-.15-1.41,.28-2.79,1.18-3.79,.85-.95,2.04-1.47,3.33-1.47,2.09,0,3.95,1.38,4.39,3.2h14.69c.68,0,1.16,.67,1.16,1.28s-.47,1.27-1.16,1.27h-.27v1.41c0,.7-.57,1.27-1.27,1.27s-1.28-.57-1.28-1.27v-1.41h-.14v.98c0,.7-.57,1.26-1.26,1.26s-1.29-.58-1.29-1.29v-.95h-9.12c-.14,1.3-.99,2.49-2.3,3.16-.67,.34-1.39,.52-2.1,.52Zm-.06-8.67c-1.08,0-2.06,.43-2.77,1.22-.76,.84-1.12,2.01-.99,3.21,.12,1.1,.7,2.1,1.59,2.74,1.2,.86,2.69,.97,3.99,.3,1.17-.6,1.9-1.7,1.9-2.87,0-.21,.17-.38,.38-.38h9.85c.21,0,.38,.17,.38,.38v1.33c0,.29,.24,.53,.53,.53,.28,0,.5-.23,.5-.5v-1.36c0-.21,.17-.38,.38-.38h.9c.21,0,.38,.17,.38,.38v1.79c0,.29,.23,.52,.52,.52s.52-.23,.52-.52v-1.79c0-.21,.17-.38,.38-.38h.65c.19,0,.4-.27,.4-.52s-.21-.52-.4-.52h-14.98s-.01,0-.02,0h-.02c-.18,0-.33-.15-.36-.33-.23-1.61-1.86-2.87-3.7-2.87Zm4.1,2.81h0s0,0,0,0Z"/>
      </g>
      <g>
        <circle class="cls-1" cx="150.29" cy="42.25" r="2.37"/>
        <path class="cls-3" d="M150.29,44.99c-1.51,0-2.74-1.23-2.74-2.74s1.23-2.75,2.74-2.75,2.75,1.23,2.75,2.75-1.23,2.74-2.75,2.74Zm0-4.73c-1.1,0-1.99,.89-1.99,1.99s.89,1.99,1.99,1.99,1.99-.89,1.99-1.99-.89-1.99-1.99-1.99Z"/>
      </g>
    </g>
  </g>
</svg>