<?xml version="1.0" encoding="UTF-8"?>
<svg id="Layer_1" data-name="Layer 1" xmlns="http://www.w3.org/2000/svg" viewBox="0 0 200 200">
  <defs>
    <style>
      .cls-1 {
        fill: #020202;
        opacity: .1;
      }

      .cls-2 {
        fill: #ff9f2c;
      }

      .cls-3 {
        fill: #fff;
      }

      .cls-4 {
        fill: #ffcc29;
      }

      .cls-5 {
        fill: #e82374;
      }

      .cls-6 {
        fill: #ff5a70;
      }

      .cls-7 {
        fill: #ff902c;
      }
    </style>
  </defs>
  <ellipse class="cls-1" cx="94.19" cy="151.5" rx="58.66" ry="4.3"/>
  <g>
    <rect class="cls-5" x="58.27" y="61" width="84.81" height="88.6" rx="7.63" ry="7.63"/>
    <path class="cls-4" d="M143.08,88.06v-19.43c0-4.22-3.42-7.63-7.63-7.63H65.9c-4.22,0-7.63,3.42-7.63,7.63v19.43h84.81Z"/>
    <g>
      <rect class="cls-6" x="118.7" y="129.15" width="10.61" height="10.61"/>
      <rect class="cls-6" x="70.27" y="129.15" width="10.61" height="10.61"/>
      <rect class="cls-6" x="86.41" y="129.15" width="10.61" height="10.61"/>
      <rect class="cls-6" x="102.56" y="129.15" width="10.61" height="10.61"/>
      <rect class="cls-6" x="118.7" y="113.32" width="10.61" height="10.61"/>
      <rect class="cls-6" x="70.27" y="113.32" width="10.61" height="10.61"/>
      <rect class="cls-6" x="86.41" y="113.32" width="10.61" height="10.61"/>
      <rect class="cls-6" x="102.56" y="113.32" width="10.61" height="10.61"/>
      <rect class="cls-6" x="118.7" y="96.86" width="10.61" height="10.61"/>
      <rect class="cls-6" x="86.41" y="96.86" width="10.61" height="10.61"/>
      <rect class="cls-6" x="102.56" y="96.86" width="10.61" height="10.61"/>
    </g>
    <circle class="cls-3" cx="72.94" cy="69.95" r="5.73" transform="translate(-7.43 131.21) rotate(-81.12)"/>
    <circle class="cls-3" cx="129.31" cy="69.95" r="5.73" transform="translate(39.55 186.38) rotate(-80.78)"/>
    <g>
      <path class="cls-6" d="M72.92,72.38h0c-1.46,0-2.65-1.19-2.65-2.65v-14.45c0-1.46,1.19-2.65,2.65-2.65h0c1.46,0,2.65,1.19,2.65,2.65v14.45c0,1.46-1.19,2.65-2.65,2.65Z"/>
      <path class="cls-6" d="M129.31,72.38h0c-1.46,0-2.65-1.19-2.65-2.65v-14.45c0-1.46,1.19-2.65,2.65-2.65h0c1.46,0,2.65,1.19,2.65,2.65v14.45c0,1.46-1.19,2.65-2.65,2.65Z"/>
    </g>
  </g>
  <g>
    <g>
      <g>
        <g>
          <path class="cls-4" d="M83.38,143.44v4.1c0,1.18-1.25,2.5-2.78,2.71-8.9,1.53-18.02,1.53-26.92,0-1.53-.28-2.78-1.53-2.78-2.71v-4.1c0-1.25,1.25-1.95,2.78-1.67,8.9,1.53,18.02,1.53,26.92,0,1.53-.28,2.78,.42,2.78,1.67Z"/>
          <path class="cls-2" d="M67.31,140.1c8.61,0,15.58,1.03,15.58,2.3s-6.98,2.3-15.58,2.3-15.58-1.03-15.58-2.3,6.98-2.3,15.58-2.3Z"/>
        </g>
        <g>
          <path class="cls-4" d="M82.83,135.37v4.1c0,1.18-1.25,2.5-2.78,2.71-8.9,1.53-18.02,1.53-26.92,0-1.53-.28-2.78-1.53-2.78-2.71v-4.1c0-1.25,1.25-1.95,2.78-1.67,8.9,1.53,18.02,1.53,26.92,0,1.53-.28,2.78,.42,2.78,1.67Z"/>
          <ellipse class="cls-2" cx="66.76" cy="134.32" rx="15.58" ry="2.3"/>
        </g>
        <g>
          <path class="cls-4" d="M83.38,127.44v4.1c0,1.18-1.25,2.5-2.78,2.71-8.9,1.53-18.02,1.53-26.92,0-1.53-.28-2.78-1.53-2.78-2.71v-4.1c0-1.25,1.25-1.95,2.78-1.67,8.9,1.53,18.02,1.53,26.92,0,1.53-.28,2.78,.49,2.78,1.67Z"/>
          <path class="cls-2" d="M67.31,124.17c8.61,0,15.58,1.03,15.58,2.3s-6.98,2.3-15.58,2.3-15.58-1.03-15.58-2.3,6.98-2.3,15.58-2.3Z"/>
        </g>
        <g>
          <path class="cls-4" d="M84.5,119.37v4.1c0,1.18-1.25,2.5-2.78,2.71-8.9,1.53-18.02,1.53-26.92,0-1.53-.28-2.78-1.53-2.78-2.71v-4.1c0-1.25,1.25-1.95,2.78-1.67,8.9,1.53,18.02,1.53,26.92,0,1.53-.28,2.78,.42,2.78,1.67Z"/>
          <ellipse class="cls-2" cx="68.43" cy="118.32" rx="15.58" ry="2.3"/>
        </g>
        <g>
          <path class="cls-4" d="M83.38,111.37v4.1c0,1.18-1.25,2.5-2.78,2.71-8.9,1.53-18.02,1.53-26.92,0-1.53-.28-2.78-1.53-2.78-2.71v-4.1c0-1.25,1.25-1.95,2.78-1.67,8.9,1.53,18.02,1.53,26.92,0,1.53-.28,2.78,.42,2.78,1.67Z"/>
          <ellipse class="cls-2" cx="67.31" cy="110.32" rx="15.58" ry="2.3"/>
        </g>
        <g>
          <path class="cls-4" d="M83.38,103.3v4.1c0,1.18-1.25,2.5-2.78,2.71-8.9,1.53-18.02,1.53-26.92,0-1.53-.28-2.78-1.53-2.78-2.71v-4.1c0-1.25,1.25-1.95,2.78-1.67,8.9,1.53,18.02,1.53,26.92,0,1.53-.28,2.78,.42,2.78,1.67Z"/>
          <path class="cls-2" d="M67.31,99.96c8.61,0,15.58,1.03,15.58,2.3s-6.98,2.3-15.58,2.3-15.58-1.03-15.58-2.3,6.98-2.3,15.58-2.3Z"/>
        </g>
      </g>
      <path class="cls-7" d="M68.36,137.66c0,8.9-5.15,16.14-11.48,16.14h-6.4s-5.08-9.25-5.08-16.14,5.15-16.14,5.15-16.14h6.33c6.33,.07,11.48,7.24,11.48,16.14Z"/>
      <ellipse class="cls-4" cx="51.38" cy="137.66" rx="11.48" ry="16.14"/>
    </g>
    <path class="cls-7" d="M52,134.98h-3.91c-.36,0-.51-.22-.51-.8q0-1.67,1.01-1.67h2.68c.14,0,.29,0,.51-.07-.22-.8-.65-1.23-1.09-1.3-.8-.22-1.59-.29-2.39-.36-.8-.07-.8,0-.8-1.23,0-1.96-.07-1.67,1.09-1.67h6.89c.51,0,.65,.22,.65,.94v.58c.07,.65-.14,.94-.58,.87-.65-.07-1.23,0-1.88,0,.14,.65,.29,1.3,.51,1.88,.07,.14,.22,.29,.36,.29h1.23c.29,0,.43,.22,.43,.65,0,2.1,.07,1.81-1.01,1.81-.22,0-.43-.07-.58,0-.14,.07-.36,.29-.36,.51-.43,2.68-1.67,3.99-3.26,4.49-.14,.07-.29,.07-.43,.14l-.07,.07c.07,.14,.14,.29,.22,.43,1.3,2.39,2.61,4.86,3.99,7.25,.14,.22,.14,.51,.22,.8-.14,.07-.29,.22-.51,.22-1.23,.36-2.1-.29-2.9-1.96-1.09-2.32-2.39-4.35-3.62-6.52-.22-.43-.43-2.25-.22-2.68,.07-.22,.36-.29,.51-.29,.72-.14,1.52-.07,2.25-.36,.8,0,1.38-.72,1.59-2.03Z"/>
  </g>
</svg>