<?xml version="1.0" encoding="UTF-8"?>
<svg id="Layer_1" data-name="Layer 1" xmlns="http://www.w3.org/2000/svg" viewBox="0 0 200 200">
  <defs>
    <style>
      .cls-1 {
        fill: #020202;
        opacity: .1;
      }

      .cls-2 {
        fill: #ff9f2c;
      }

      .cls-3 {
        fill: #fff;
      }

      .cls-4 {
        fill: #ffcc29;
      }

      .cls-5 {
        fill: #e72473;
      }

      .cls-6 {
        fill: #ff902c;
      }

      .cls-7 {
        fill: none;
        stroke: #e72473;
        stroke-linecap: round;
        stroke-miterlimit: 10;
        stroke-width: 2.76px;
      }
    </style>
  </defs>
  <ellipse class="cls-1" cx="97.89" cy="144.38" rx="61.42" ry="5.63"/>
  <g>
    <path class="cls-5" d="M145.5,106.24l-1.46-14.2-7.63-3.73c-2.29-5.34-6.42-11.76-10.96-15.64l4.19-10.29c.72-1.78-.5-3.74-2.41-3.88-5.76-.41-14.24,.86-19.43,5.06-3.77-.97-7.75-1.51-11.87-1.51-23.62,0-42.77,17.17-42.77,38.36,0,9.83,4.13,18.78,10.9,25.57,1.8,1.8,2.96,4.14,3.37,6.65l2.1,11.48c8.37,2.85,16.83,0,16.83,0l.75-3.39c.24-1.45,1.58-2.47,3.04-2.29,1.89,.23,3.82,.35,5.77,.35,1.36,0,2.71-.06,4.04-.17,1.5-.13,2.84,.95,3.09,2.43l.7,3.07c7.27,3.04,16.83,0,16.83,0l2.22-12.2c.2-1.17,.81-2.23,1.74-2.98,4.13-3.33,7.53-7.37,9.96-11.91l6.31-2.64c3.21-1.35,5.14-4.67,4.7-8.13Z"/>
    <path class="cls-7" d="M63.1,88.18c-9.48-12.01-13.59-13.59-19.91-12.96-6.32,.63-7.1,10.42,0,11.06,9.98,.9,9.48-13.35,7.11-19.39"/>
    <path class="cls-3" d="M127.12,83.58c0,1.22-.99,2.21-2.21,2.21s-2.21-.99-2.21-2.21,.99-2.21,2.21-2.21,2.21,.99,2.21,2.21Z"/>
  </g>
  <g>
    <g>
      <g>
        <path class="cls-4" d="M105.28,135.1v4.81c0,1.39-1.47,2.93-3.26,3.18-10.43,1.79-21.11,1.79-31.54,0-1.79-.33-3.26-1.79-3.26-3.18v-4.81c0-1.47,1.47-2.28,3.26-1.96,10.43,1.79,21.11,1.79,31.54,0,1.79-.33,3.26,.49,3.26,1.96Z"/>
        <ellipse class="cls-2" cx="86.45" cy="133.88" rx="18.26" ry="2.69"/>
      </g>
      <g>
        <path class="cls-4" d="M104.62,125.64v4.81c0,1.39-1.47,2.93-3.26,3.18-10.43,1.79-21.11,1.79-31.54,0-1.79-.33-3.26-1.79-3.26-3.18v-4.81c0-1.47,1.47-2.28,3.26-1.96,10.43,1.79,21.11,1.79,31.54,0,1.79-.33,3.26,.49,3.26,1.96Z"/>
        <ellipse class="cls-2" cx="85.8" cy="124.42" rx="18.26" ry="2.69"/>
      </g>
      <g>
        <path class="cls-4" d="M105.28,116.35v4.81c0,1.39-1.47,2.93-3.26,3.18-10.43,1.79-21.11,1.79-31.54,0-1.79-.33-3.26-1.79-3.26-3.18v-4.81c0-1.47,1.47-2.28,3.26-1.96,10.43,1.79,21.11,1.79,31.54,0,1.79-.33,3.26,.57,3.26,1.96Z"/>
        <ellipse class="cls-2" cx="86.45" cy="115.21" rx="18.26" ry="2.69"/>
      </g>
      <g>
        <path class="cls-4" d="M106.58,106.9v4.81c0,1.39-1.47,2.93-3.26,3.18-10.43,1.79-21.11,1.79-31.54,0-1.79-.33-3.26-1.79-3.26-3.18v-4.81c0-1.47,1.47-2.28,3.26-1.96,10.43,1.79,21.11,1.79,31.54,0,1.79-.33,3.26,.49,3.26,1.96Z"/>
        <ellipse class="cls-2" cx="87.75" cy="105.67" rx="18.26" ry="2.69"/>
      </g>
      <g>
        <path class="cls-4" d="M105.28,97.52v4.81c0,1.39-1.47,2.93-3.26,3.18-10.43,1.79-21.11,1.79-31.54,0-1.79-.33-3.26-1.79-3.26-3.18v-4.81c0-1.47,1.47-2.28,3.26-1.96,10.43,1.79,21.11,1.79,31.54,0,1.79-.33,3.26,.49,3.26,1.96Z"/>
        <ellipse class="cls-2" cx="86.45" cy="96.3" rx="18.26" ry="2.69"/>
      </g>
      <g>
        <path class="cls-4" d="M105.28,88.07v4.81c0,1.39-1.47,2.93-3.26,3.18-10.43,1.79-21.11,1.79-31.54,0-1.79-.33-3.26-1.79-3.26-3.18v-4.81c0-1.47,1.47-2.28,3.26-1.96,10.43,1.79,21.11,1.79,31.54,0,1.79-.33,3.26,.49,3.26,1.96Z"/>
        <ellipse class="cls-2" cx="86.45" cy="86.85" rx="18.26" ry="2.69"/>
      </g>
    </g>
    <path class="cls-6" d="M87.67,128.33c0,10.43-6.03,18.91-13.45,18.91h-7.5s-5.95-10.84-5.95-18.91,6.03-18.91,6.03-18.91h7.42c7.42,.08,13.45,8.48,13.45,18.91Z"/>
    <ellipse class="cls-4" cx="67.78" cy="128.33" rx="13.45" ry="18.91"/>
  </g>
  <path class="cls-6" d="M68.5,125.18h-4.59c-.42,0-.59-.25-.59-.93q0-1.95,1.19-1.95h3.14c.17,0,.34,0,.59-.08-.25-.93-.76-1.44-1.27-1.53-.93-.25-1.87-.34-2.8-.42-.93-.08-.93,0-.93-1.44,0-2.29-.08-1.95,1.27-1.95h8.07c.59,0,.76,.25,.76,1.1v.68c.08,.76-.17,1.1-.68,1.02-.76-.08-1.44,0-2.21,0,.17,.76,.34,1.53,.59,2.21,.08,.17,.25,.34,.42,.34h1.44c.34,0,.51,.25,.51,.76,0,2.46,.08,2.12-1.19,2.12-.25,0-.51-.08-.68,0-.17,.08-.42,.34-.42,.59-.51,3.14-1.95,4.67-3.82,5.27-.17,.08-.34,.08-.51,.17l-.08,.08c.08,.17,.17,.34,.25,.51,1.53,2.8,3.06,5.69,4.67,8.49,.17,.25,.17,.59,.25,.93-.17,.08-.34,.25-.59,.25-1.44,.42-2.46-.34-3.4-2.29-1.27-2.72-2.8-5.1-4.25-7.64-.25-.51-.51-2.63-.25-3.14,.08-.25,.42-.34,.59-.34,.85-.17,1.78-.08,2.63-.42,.93,0,1.61-.85,1.87-2.38Z"/>
</svg>