<?xml version="1.0" encoding="UTF-8"?>
<svg id="Layer_1" data-name="Layer 1" xmlns="http://www.w3.org/2000/svg" viewBox="0 0 200 200">
  <defs>
    <style>
      .cls-1 {
        fill: #ec1f78;
      }

      .cls-2 {
        fill: #fff;
      }

      .cls-3 {
        fill: #fecb30;
      }
    </style>
  </defs>
  <g>
    <rect class="cls-3" x="83.3" y="64.52" width="41.79" height="48.56" rx="16.63" ry="16.63" transform="translate(-16.04 23.34) rotate(-11.87)"/>
    <path class="cls-1" d="M84.19,96.01s-20.91-29.14,19.97-36.22c5.94-1.03,1.8-9.78,11.03-11.92,9.23-2.14,15.45,14.47,8.21,21.09-7.24,6.62-30.72,7.95-35.39,15.28-4.67,7.33-3.81,11.77-3.81,11.77Z"/>
    <path class="cls-1" d="M113.06,92.97c-.87,0-1.73-.23-2.5-.69-1.13-.67-1.93-1.74-2.26-3.02l-.94-3.71c-.32-1.27-.13-2.6,.54-3.73,.67-1.13,1.74-1.93,3.02-2.26l3.71-.94c1.27-.32,2.6-.13,3.73,.54,1.13,.67,1.93,1.74,2.26,3.02l.94,3.71c.67,2.63-.93,5.31-3.55,5.98l-3.71,.94c-.41,.1-.82,.15-1.22,.15Zm2.78-13.19c-.3,0-.6,.04-.9,.11l-3.71,.94c-.94,.24-1.72,.83-2.21,1.66s-.63,1.8-.39,2.74l.94,3.71c.24,.94,.83,1.72,1.66,2.21,.83,.49,1.8,.63,2.74,.39l3.71-.94c1.93-.49,3.1-2.46,2.61-4.39l-.94-3.71c-.24-.94-.83-1.72-1.66-2.21-.57-.34-1.2-.51-1.84-.51Z"/>
    <path class="cls-1" d="M95.42,97.6c-2.2,0-4.2-1.48-4.77-3.71l-.94-3.71c-.32-1.27-.13-2.6,.54-3.73s1.74-1.93,3.02-2.26l3.71-.94c2.62-.67,5.31,.92,5.98,3.55l.94,3.71c.67,2.63-.93,5.31-3.55,5.98l-3.71,.94c-.41,.1-.81,.15-1.21,.15Zm2.76-13.19c-.29,0-.59,.04-.89,.11l-3.71,.94c-.94,.24-1.72,.83-2.21,1.66-.49,.83-.63,1.8-.39,2.74l.94,3.71c.49,1.93,2.46,3.1,4.39,2.61l3.71-.94c1.93-.49,3.1-2.46,2.61-4.39l-.94-3.71c-.42-1.63-1.89-2.72-3.5-2.72Z"/>
    <rect class="cls-1" x="102.21" y="85.53" width="5.89" height="1.31" transform="translate(-19.22 31.26) rotate(-15.51)"/>
  </g>
  <path class="cls-3" d="M44.47,110.37c.68-1.01,4.01-4,4.79-7.26s1.19-5.98,4.28-5.24c3.09,.74,2.98,4.09,1.16,7.48-1.82,3.39-10.23,5.02-10.23,5.02Z"/>
  <g>
    <path class="cls-2" d="M57.71,86.26h89.65c2.86,0,5.18,2.32,5.18,5.18v58.57c0,2.86-2.32,5.18-5.18,5.18H57.71c-2.86,0-5.18-2.32-5.18-5.18v-58.57c0-2.86,2.32-5.18,5.18-5.18Z"/>
    <path class="cls-3" d="M147.36,86.52c2.71,0,4.92,2.21,4.92,4.92v58.57c0,2.71-2.21,4.92-4.92,4.92H57.71c-2.71,0-4.92-2.21-4.92-4.92v-58.57c0-2.71,2.21-4.92,4.92-4.92h89.65m0-.52H57.71c-3.01,0-5.44,2.44-5.44,5.44v58.57c0,3.01,2.44,5.44,5.44,5.44h89.65c3.01,0,5.44-2.44,5.44-5.44v-58.57c0-3.01-2.44-5.44-5.44-5.44h0Z"/>
  </g>
  <path class="cls-1" d="M108.22,113.03h25.07c.25,0,.46-.32,.46-.71h0c0-.39-.21-.71-.46-.71h-25.07c-.25,0-.46,.32-.46,.71h0c0,.39,.21,.71,.46,.71Z"/>
  <path class="cls-1" d="M108.22,123.75h19.68c.25,0,.46-.32,.46-.71h0c0-.39-.21-.71-.46-.71h-19.68c-.25,0-.46,.32-.46,.71h0c0,.39,.21,.71,.46,.71Z"/>
  <path class="cls-1" d="M108.22,134.47h18.79c.25,0,.46-.32,.46-.71h0c0-.39-.21-.71-.46-.71h-18.79c-.25,0-.46,.32-.46,.71h0c0,.39,.21,.71,.46,.71Z"/>
  <g>
    <g>
      <rect class="cls-3" x="69.93" y="111.58" width="28.88" height="24.86" rx="9.89" ry="9.89" transform="translate(-42.52 203.98) rotate(-87.99)"/>
      <path class="cls-1" d="M71.79,125.32s-7.91-19.81,16.7-18.06c3.57,.25,2.43-5.39,8.07-5.31,5.64,.08,6.85,10.56,1.73,13.35-5.12,2.79-18.87,.2-22.62,3.77-3.74,3.57-3.88,6.25-3.88,6.25Z"/>
      <g>
        <path class="cls-1" d="M88.72,128.56c-.77,0-1.5-.3-2.05-.84-.56-.55-.87-1.28-.87-2.07l-.02-2.28c0-.78,.29-1.52,.84-2.08,.55-.56,1.28-.87,2.07-.87l2.28-.02h.02c.77,0,1.5,.3,2.06,.84,.56,.55,.87,1.28,.87,2.07l.02,2.28c.01,1.62-1.29,2.94-2.91,2.95l-2.28,.02h-.02Zm2.26-7.37h-.02l-2.28,.02c-.57,0-1.11,.23-1.51,.64s-.62,.95-.62,1.52l.02,2.28c0,.57,.23,1.11,.64,1.51,.4,.4,.94,.62,1.5,.62h.02l2.28-.02c1.18,0,2.14-.98,2.13-2.16l-.02-2.28c0-.57-.23-1.11-.64-1.51-.4-.4-.94-.62-1.51-.62Z"/>
        <path class="cls-1" d="M77.87,128.72c-1.61,0-2.92-1.3-2.93-2.91l-.02-2.28c-.01-1.62,1.29-2.94,2.91-2.95l2.28-.02h.02c1.6,0,2.92,1.3,2.93,2.91l.02,2.28c0,.78-.29,1.52-.84,2.08-.55,.56-1.28,.87-2.07,.87l-2.28,.02h-.02Zm2.26-7.37h-.02l-2.28,.02c-1.18,0-2.14,.98-2.13,2.16l.02,2.28c0,1.18,.97,2.13,2.15,2.13h.01l2.28-.02c.57,0,1.11-.23,1.51-.64s.62-.95,.62-1.52l-.02-2.28c0-1.18-.97-2.13-2.14-2.13Z"/>
        <polygon class="cls-1" points="82.67 123.87 82.65 123.08 86.15 122.98 86.18 123.77 82.67 123.87"/>
      </g>
    </g>
    <path class="cls-1" d="M84.13,133.58c-1.19,0-2.43-.3-3.35-.85-.19-.11-.25-.35-.14-.54s.35-.25,.54-.14c1.66,.99,4.72,1.05,5.7-.24,.13-.17,.38-.21,.55-.08,.17,.13,.21,.38,.08,.55-.67,.89-1.99,1.29-3.37,1.29Z"/>
  </g>
  <circle class="cls-3" cx="53.6" cy="114.74" r="9.93"/>
  <g>
    <circle class="cls-3" cx="150.53" cy="135.66" r="9.93" transform="translate(-51.1 115.47) rotate(-36.31)"/>
    <path class="cls-3" d="M159.16,130.58c-.67-1.01-3.99-4.02-4.75-7.28-.77-3.26-1.16-5.99-4.25-5.26-3.09,.73-3,4.08-1.2,7.48,1.8,3.4,10.21,5.07,10.21,5.07Z"/>
  </g>
</svg>