<?xml version="1.0" encoding="UTF-8"?>
<svg id="Layer_1" data-name="Layer 1" xmlns="http://www.w3.org/2000/svg" viewBox="0 0 200 200">
  <defs>
    <style>
      .cls-1 {
        fill: #191919;
        opacity: .1;
      }

      .cls-2 {
        fill: #f9265e;
      }

      .cls-3 {
        fill: #ea2176;
      }

      .cls-4 {
        fill: #ffda44;
      }

      .cls-5 {
        fill: #ff6464;
      }

      .cls-6 {
        fill: #dbba2e;
      }
    </style>
  </defs>
  <ellipse class="cls-1" cx="98.83" cy="152.29" rx="52.79" ry="2.84"/>
  <g>
    <path class="cls-4" d="M123.69,109.75c-3.9-7.25-9.45-13.15-15.36-18.81-1.64-1.57-3.17-2.95-4.77-4.32-1.44-.53-4.4-.55-6.15-1.15-1.63-.55-3.33-1.15-5.07-1.05-1.6,.09-3.09,.65-4.64,1.01-1.74,.4-3.41,.51-5.16,.16,0,0-3.44,.68-7.21,3.55-6.76,5.49-13.01,11.56-17.49,19.14-3.88,6.56-5.64,14.21-3.39,21.64,1.32,4.35,2.69,8.21,5.68,11.59,2.61,2.95,6.71,5.63,10.2,7.49,6.28,3.37,13.64,2.99,20.69,3.33,7.57,.36,16.55-.03,23.55-3.03,6.37-2.73,10.62-6.34,12.91-13.01,3.03-8.8,.48-18.63-3.78-26.54Z"/>
    <path class="cls-6" d="M79.79,83.77c1.41,1.69,8.47,2.22,11.89,2.41,3.4-.08,10.68-.36,11.08-3.19,.44-5.49,5.93-11.74,7.12-12.44,2.19-1.47,3.51-5.81-4.41-5.41-1.89,.09-6.3,2.69-7.6-1.27-2.45-7.3-10.79-5.61-12.17-.98-1.07,3.13-5.35,3.49-10.35,3.86-5.92,.51-5.98,3.55-3.68,5.45,1.36,.99,6.72,9.46,8.12,11.57Z"/>
    <path class="cls-4" d="M79.79,83.77c1.41,1.69,8.47,2.22,11.89,2.41,3.4-.08,10.68-.36,11.08-3.19,.44-5.49,8.84-13.93,8.84-13.93,0,0-3.83,1.31-6.32,2.56-2.49,1.25-5.43,1.87-7.6-1.27-2.45-7.3-10.79-5.61-12.17-.98-1.07,3.13-5.15-2.99-10.16-2.62-5.92,.51-5.98,3.55-3.68,5.45,1.36,.99,6.72,9.46,8.12,11.57Z"/>
    <path class="cls-2" d="M89.63,109.01c-.76-.14-1.53-.28-2.31-.4-.24-1.84-.78-3.63-1.52-5.1,1.14,.24,2.28,.52,3.39,.84,.81,.23,1.34-.39,1.18-1.48-.15-1.09-.86-2.21-1.6-2.52-3.5-1.43-7.22-2.11-10.74-1.82-.04,0-.07,0-.12,0-.03,0-.05,0-.08,0-1.68,.15-3.31,.52-4.86,1.13-.68,.28-1.42,1.33-1.69,2.33-.27,.99,.1,1.55,.85,1.38,1.98-.48,4.1-.69,6.27-.69,2.02,.21,4.18,1.7,4.77,5.3-4.16-.51-8.33-.72-12.05-.41-.8,.08-1.66,.95-1.95,1.9-.29,.95,.14,1.73,1,1.78,3.93,.18,8.31,.63,12.71,1.13-.88,2.7-3.44,4.12-6.73,3.63-1.2-.18-2.38-.36-3.53-.54,0,0,0,0-.01,0-.67-.11-1.34-.21-1.99-.32-.91-.14-1.85,.52-2.13,1.46-.28,.94,.25,1.9,1.22,2.16,.68,.17,1.38,.34,2.08,.51,0,0,.02,0,.02,.01,1.11,.26,2.25,.5,3.4,.73,3.72,.87,5.3,2.93,5.99,8.2,.55,3.91,1.05,6.48,1.48,8.03,.3,1.42,.97,3.61,2.35,4.95,.54,.52,1.26,.8,2,.81,.77,0,1.54-.28,2.11-.84,1.05-1.04,1.03-2.54,.11-3.5,0-.01,0-.03,0-.04-.85-1.43-1.84-5.36-2.89-10.42-.85-4.1-2.35-6.76-4.56-8.16,2.95-.92,4.84-3.24,5.42-6.19,.92,.1,1.83,.21,2.74,.3,.94,.09,1.58-.75,1.45-1.87-.13-1.12-.93-2.16-1.79-2.33Z"/>
    <path class="cls-2" d="M90.93,88.86c-3.54,0-7.54-.62-11.76-2.37-.75-.31-1.11-1.18-.79-1.93,.31-.75,1.17-1.11,1.93-.79,10.02,4.17,18.68,1.23,21.94-.23,.75-.33,1.62,0,1.95,.74,.33,.74,0,1.61-.74,1.95-2.23,1-6.76,2.63-12.52,2.63Z"/>
    <path class="cls-2" d="M114.64,92.1c-5.1,0-8.49-2.42-10.76-4.05-.61-.44-1.14-.82-1.6-1.08-.71-.4-.95-1.3-.55-2.01,.4-.71,1.3-.95,2.01-.55,.59,.33,1.2,.77,1.85,1.24,2.27,1.62,5.08,3.65,9.52,3.49,.82-.06,1.5,.61,1.52,1.42,.03,.81-.61,1.5-1.42,1.52-.19,0-.38,0-.57,0Z"/>
    <circle class="cls-2" cx="103.01" cy="85.08" r="3.08" transform="translate(-15.02 147.69) rotate(-67.5)"/>
  </g>
  <g>
    <g>
      <path class="cls-3" d="M142.12,131.09c-1.95-3.62-4.72-6.57-7.68-9.41-.82-.79-1.59-1.48-2.38-2.16-.72-.26-2.2-.28-3.07-.57-.81-.28-1.66-.58-2.54-.53-.8,.04-1.55,.33-2.32,.5-.87,.2-.84,.25-1.72,.08,0,0-2.58,1.2-4.47,2.64-3.38,2.75-6.51,4.92-8.75,8.71-1.94,3.28-2.82,7.1-1.69,10.82,.66,2.17,1.35,4.1,2.84,5.8,1.3,1.48,3.36,2.81,5.1,3.75,3.14,1.68,6.82,1.49,10.35,1.66,3.78,.18,8.28-.02,11.77-1.51,3.19-1.36,5.31-3.17,6.46-6.51,1.52-4.4,.24-9.32-1.89-13.27Z"/>
      <path class="cls-5" d="M123.05,118.1c.7,.84,1.35,1.11,3.07,1.2,1.7-.04,4.48-.18,4.68-1.6,.22-2.74,3.83-5.87,4.42-6.22,1.1-.74,0-4.41-2.2-2.71-2.21,1.7-4.73,1.24-5.38-.74-2.01-3.65-5.47-3.01-4.51-.71,.96,2.3-.09,2.83-2.59,3.02-2.96,.25-5.57,1.02-4.43,1.97,.68,.49,6.24,4.73,6.94,5.79Z"/>
      <path class="cls-3" d="M123.05,118.1c.7,.84,1.35,1.11,3.07,1.2,1.7-.04,5.05,.68,5.25-.73,.22-2.74,4.1-7.37,4.1-7.37,0,0-1.2,.47-1.73,.85-.52,.38-1.46,.47-2.32-1.53-1.45-3.36-4.6-4.88-6.09-.49-1.49,4.39-3.43,2.9-6.77,.57-3.33-2.33-3.6,.76-2.45,1.71,.68,.49,6.24,4.73,6.94,5.79Z"/>
    </g>
    <path class="cls-4" d="M128.13,134.09c-.48-.08-.92-.26-1.32-.52-.4-.27-.74-.58-1.02-.95-.28-.36-.49-.75-.64-1.16-.14-.41-.2-.83-.16-1.26,.04-.43,.16-.83,.37-1.2,.21-.38,.47-.72,.79-1.03,.32-.31,.68-.57,1.08-.79,.4-.21,.82-.35,1.27-.39,.45-.04,.86,.02,1.24,.19,.38,.17,.72,.42,1.01,.75,.29,.33,.52,.73,.69,1.2,.17,.47,.25,.98,.25,1.53,0,.55-.1,1.06-.29,1.54-.19,.47-.45,.88-.77,1.22-.32,.34-.7,.59-1.13,.74-.43,.16-.88,.2-1.36,.12Zm.26-5.15c-.38,0-.71,.15-.99,.43-.29,.28-.44,.61-.47,1-.03,.4,.09,.74,.34,1.05,.25,.31,.58,.49,.97,.53,.39,.04,.73-.09,1.02-.38,.29-.29,.44-.66,.45-1.09,.01-.43-.11-.81-.37-1.11-.26-.3-.57-.44-.95-.44Zm-.65,12.96c-.09-.03-.19-.1-.32-.18-.12-.09-.23-.19-.33-.3-.11-.16-.2-.33-.27-.5-.07-.17-.1-.34-.09-.49,.01-.24,.1-.41,.25-.54,3.48-2.91,6.7-8.16,9.36-13.25,.17-.34,.41-.52,.73-.55,.21-.02,.4,.04,.59,.19,.26,.23,.4,.54,.42,.92,0,.11,0,.23-.02,.36-.02,.13-.06,.24-.12,.35-2.63,5.07-5.77,10.55-9.29,13.88-.12,.08-.27,.13-.43,.16-.17,.03-.32,.01-.47-.04Zm10.11,.84c-.52,.11-1.01,.08-1.48-.08-.47-.16-.88-.43-1.23-.78-.35-.35-.63-.78-.84-1.27-.21-.49-.31-1.01-.32-1.58,0-.56,.08-1.09,.27-1.6,.18-.5,.44-.95,.75-1.34,.32-.39,.69-.72,1.11-.98,.43-.26,.88-.43,1.36-.51,.47-.07,.91-.05,1.35,.08,.43,.12,.82,.32,1.15,.59,.33,.27,.61,.6,.82,1.02,.21,.41,.34,.87,.38,1.4,.04,.53-.02,1.06-.17,1.6-.15,.54-.37,1.05-.67,1.52-.3,.48-.66,.9-1.09,1.24-.43,.35-.9,.58-1.4,.69Zm-.26-5.73c-.41,.07-.75,.28-1.03,.65-.28,.37-.41,.78-.4,1.25,.01,.47,.18,.85,.49,1.14,.31,.29,.68,.4,1.09,.32,.42-.08,.76-.33,1.03-.73s.39-.83,.37-1.28c-.03-.45-.19-.81-.49-1.06-.3-.26-.65-.35-1.06-.28Z"/>
    <path class="cls-5" d="M126.91,120.67c-1.93,0-2.99-.57-3.92-1.06-.16-.09-.32-.17-.48-.25-.37-.18-.52-.62-.34-.99,.18-.37,.62-.52,.99-.34,.18,.09,.35,.18,.53,.28,1.35,.72,2.88,1.53,7.79,.08,.39-.12,.8,.11,.92,.5s-.11,.8-.5,.92c-2.15,.64-3.74,.87-4.98,.87Z"/>
    <circle class="cls-5" cx="122.29" cy="118.7" r="1.58"/>
    <path class="cls-5" d="M114.18,123.25c-.07,0-.15-.01-.22-.03-.39-.12-.6-.53-.48-.92,.85-2.74,4.24-3.42,6.48-3.88,.68-.14,1.61-.33,1.81-.49,.29-.29,.75-.29,1.04,0,.29,.29,.29,.76,0,1.05-.45,.46-1.34,.64-2.56,.89-2.01,.41-4.77,.97-5.37,2.87-.1,.32-.39,.52-.7,.52Z"/>
  </g>
</svg>