<?xml version="1.0" encoding="UTF-8"?>
<svg id="Layer_1" data-name="Layer 1" xmlns="http://www.w3.org/2000/svg" viewBox="0 0 200 200">
  <defs>
    <style>
      .cls-1 {
        fill: #ec1f78;
      }

      .cls-2 {
        fill: #fff;
      }

      .cls-3 {
        fill: #fecb30;
      }
    </style>
  </defs>
  <path class="cls-3" d="M51.28,125.39h30.78c2.57,0,4.66,2.09,4.66,4.66v14.73c0,2.06-1.67,3.72-3.72,3.72h-31.71v-23.11h0Z" transform="translate(137.99 273.88) rotate(180)"/>
  <path class="cls-1" d="M57.18,148.5c-8.32,0,70.25,0,70.25,0,7.74,0,10.68-6.27,10.68-14.01V65.9c0-5.3-4.3-9.59-9.59-9.59h-54.31c-5.37,0-9.72,4.35-9.72,9.72v74.33s1.01,8.14-7.31,8.14Z"/>
  <g>
    <rect class="cls-3" x="78.2" y="105.81" width="35.66" height="4.36" rx="1.1" ry="1.1"/>
    <path class="cls-3" d="M112.29,123.59h-32.52c-.87,0-1.57-.98-1.57-2.18h0c0-1.2,.7-2.18,1.57-2.18h32.52c.87,0,1.57,.98,1.57,2.18h0c0,1.2-.7,2.18-1.57,2.18Z"/>
    <path class="cls-3" d="M93.82,137.02h-14.05c-.87,0-1.57-.98-1.57-2.18h0c0-1.2,.7-2.18,1.57-2.18h14.05c.87,0,1.57,.98,1.57,2.18h0c0,1.2-.7,2.18-1.57,2.18Z"/>
  </g>
  <g>
    <g>
      <path class="cls-2" d="M90.47,84.47c-.86,.86-2.25,.86-3.11,0h0c-.86-.86-.86-2.25,0-3.11h0l12.96-12.96c.86-.86,2.25-.86,3.11,0h0c.86,.86,.86,2.25,0,3.11h0l-12.96,12.96h0Z"/>
      <path class="cls-2" d="M116.38,81.36c.86,.86,.86,2.25,0,3.11h0c-.86,.86-2.25,.86-3.11,0h0l-12.96-12.96c-.86-.86-.86-2.25,0-3.11h0c.86-.86,2.25-.86,3.11,0h0l12.96,12.96h0Z"/>
    </g>
    <path class="cls-2" d="M104.07,94.55c0,1.22-.98,2.2-2.2,2.2h0c-1.21,0-2.2-.98-2.2-2.2h0v-24.59c0-1.21,.98-2.2,2.2-2.2h0c1.21,0,2.2,.98,2.2,2.2h0v24.59h0Z"/>
  </g>
</svg>