<?xml version="1.0" encoding="UTF-8"?>
<svg id="Layer_1" data-name="Layer 1" xmlns="http://www.w3.org/2000/svg" viewBox="0 0 200 200">
  <defs>
    <style>
      .cls-1 {
        opacity: .1;
      }

      .cls-2 {
        fill: #ec1f78;
      }

      .cls-3 {
        fill: #fff;
      }

      .cls-4 {
        fill: #fecb30;
      }
    </style>
  </defs>
  <g class="cls-1">
    <ellipse cx="92.89" cy="147.96" rx="49.72" ry="3.58"/>
  </g>
  <rect class="cls-2" x="61.38" y="53.26" width="60.16" height="94.29" rx="7.1" ry="7.1"/>
  <rect class="cls-3" x="68.5" y="59.84" width="45.9" height="69.62" rx="2.7" ry="2.7"/>
  <g>
    <g>
      <rect class="cls-4" x="98.41" y="95.37" width="7.51" height="3.18" rx="1.37" ry="1.37"/>
      <path class="cls-4" d="M104.75,108.35h-12.33c-.65,0-1.17-.71-1.17-1.59h0c0-.88,.53-1.59,1.17-1.59h12.33c.65,0,1.17,.71,1.17,1.59h0c0,.88-.53,1.59-1.17,1.59Z"/>
      <path class="cls-4" d="M105.29,118.15h-24.8c-.65,0-1.17-.71-1.17-1.59h0c0-.88,.53-1.59,1.17-1.59h24.8c.65,0,1.17,.71,1.17,1.59h0c0,.88-.53,1.59-1.17,1.59Z"/>
    </g>
    <g>
      <path class="cls-4" d="M82.69,85.62v-9.38c-1.75,1.34-2.92,2.01-3.53,2.01-.29,0-.54-.12-.77-.35s-.33-.5-.33-.8c0-.35,.11-.61,.33-.77,.22-.17,.61-.38,1.17-.64,.83-.39,1.5-.8,2-1.24,.5-.43,.94-.92,1.32-1.45s.64-.87,.75-.99c.12-.12,.34-.19,.66-.19,.36,0,.66,.14,.88,.42,.22,.28,.33,.67,.33,1.17v11.81c0,1.38-.47,2.07-1.41,2.07-.42,0-.76-.14-1.01-.42s-.38-.7-.38-1.25Z"/>
      <path class="cls-4" d="M92.05,78.86c.47-.56,.98-.97,1.53-1.24s1.17-.4,1.85-.4,1.26,.12,1.81,.37c.55,.24,1.04,.59,1.45,1.04s.74,.98,.96,1.59c.23,.61,.34,1.25,.34,1.92,0,.97-.22,1.85-.67,2.64s-1.06,1.41-1.86,1.85c-.79,.44-1.69,.67-2.7,.67-1.16,0-2.15-.28-2.99-.85-.84-.56-1.48-1.4-1.92-2.5s-.67-2.45-.67-4.05c0-1.3,.13-2.46,.4-3.49,.27-1.02,.65-1.87,1.15-2.55,.5-.67,1.11-1.18,1.83-1.53,.71-.34,1.53-.52,2.44-.52s1.66,.17,2.33,.52,1.18,.77,1.52,1.28c.34,.51,.51,1,.51,1.46,0,.28-.11,.54-.32,.77-.21,.23-.48,.35-.81,.35-.29,0-.56-.09-.8-.27-.25-.18-.43-.43-.55-.76-.16-.41-.41-.74-.75-1-.34-.25-.74-.38-1.2-.38-.36,0-.73,.1-1.09,.31-.36,.21-.66,.49-.91,.85-.5,.73-.8,2.03-.89,3.9Zm2.78,6.4c.69,0,1.27-.28,1.72-.85s.68-1.31,.68-2.23c0-.62-.11-1.16-.32-1.61s-.51-.79-.88-1.03c-.37-.24-.78-.36-1.23-.36s-.83,.11-1.22,.34c-.39,.23-.7,.56-.94,.98-.24,.43-.36,.93-.36,1.51,0,.93,.24,1.7,.72,2.32s1.09,.93,1.81,.93Z"/>
    </g>
  </g>
  <path class="cls-3" d="M94.57,141.94h-5.55c-2.17,0-3.93-1.76-3.93-3.93h0c0-2.17,1.76-3.93,3.93-3.93h5.55c2.17,0,3.93,1.76,3.93,3.93h0c0,2.17-1.76,3.93-3.93,3.93Z"/>
  <path class="cls-4" d="M56.99,131.91c-.92,0-1.83-.35-2.53-1.05l-15.17-15.17c-1.4-1.4-1.4-3.66,0-5.06,1.4-1.4,3.66-1.4,5.06,0l12.64,12.64,31.8-31.8c1.4-1.4,3.66-1.4,5.06,0,1.4,1.4,1.4,3.66,0,5.06l-34.33,34.33c-.7,.7-1.62,1.05-2.53,1.05Z"/>
</svg>