<?xml version="1.0" encoding="UTF-8"?>
<svg id="Layer_1" data-name="Layer 1" xmlns="http://www.w3.org/2000/svg" viewBox="0 0 200 200">
  <defs>
    <style>
      .cls-1 {
        fill: #ec1f78;
      }

      .cls-2 {
        fill: #fff;
      }

      .cls-3 {
        fill: #fecb30;
      }
    </style>
  </defs>
  <path class="cls-3" d="M45.69,128.64h29.34c4.59,0,8.32,3.73,8.32,8.32v9.6c0,3.67-2.98,6.65-6.65,6.65h-31.02v-24.56h0Z" transform="translate(129.03 281.85) rotate(180)"/>
  <path class="cls-1" d="M51.96,153.21c-8.85,0,74.67,0,74.67,0,8.22,0,11.35-6.67,11.35-14.89V65.42c0-5.63-4.57-10.2-10.2-10.2h-57.72c-5.71,0-10.33,4.62-10.33,10.33v79s1.07,8.66-7.77,8.66Z"/>
  <g>
    <path class="cls-3" d="M76.27,106.21h33.97c1.09,0,1.97,.88,1.97,1.97v.7c0,1.09-.88,1.97-1.97,1.97h-33.97c-1.09,0-1.97-.88-1.97-1.97v-.7c0-1.09,.88-1.97,1.97-1.97Z"/>
    <path class="cls-3" d="M110.53,125.12h-34.56c-.92,0-1.67-1.04-1.67-2.32h0c0-1.28,.75-2.32,1.67-2.32h34.56c.92,0,1.67,1.04,1.67,2.32h0c0,1.28-.75,2.32-1.67,2.32Z"/>
    <path class="cls-3" d="M90.9,139.39h-14.93c-.92,0-1.67-1.04-1.67-2.32h0c0-1.28,.75-2.32,1.67-2.32h14.93c.92,0,1.67,1.04,1.67,2.32h0c0,1.28-.75,2.32-1.67,2.32Z"/>
  </g>
  <g>
    <path class="cls-2" d="M78.11,72.23v6.96l7.89-8.23c.38-.4,.7-.69,.97-.88s.62-.28,1.06-.28c.58,0,1.04,.17,1.4,.51,.36,.34,.54,.75,.54,1.24,0,.59-.3,1.17-.91,1.75l-4.89,4.63,5.63,8.07c.4,.56,.7,1.05,.89,1.47,.2,.42,.3,.83,.3,1.22,0,.44-.17,.83-.52,1.15-.35,.32-.82,.49-1.41,.49-.56,0-1.02-.12-1.37-.36-.35-.24-.65-.56-.89-.95-.24-.4-.46-.76-.65-1.08l-4.75-7.31-3.29,3.15v4.1c0,.83-.19,1.45-.57,1.85-.38,.4-.87,.6-1.46,.6-.34,0-.67-.09-.99-.27-.32-.18-.56-.42-.73-.73-.13-.25-.2-.55-.23-.88-.03-.33-.04-.82-.04-1.45v-14.76c0-.81,.18-1.42,.54-1.83,.36-.41,.84-.61,1.46-.61s1.09,.2,1.47,.6c.37,.4,.56,1.01,.56,1.83Z"/>
    <path class="cls-2" d="M98.73,87.86v-6.3l-4.85-7.51c-.42-.68-.72-1.21-.9-1.58s-.26-.71-.26-.99c0-.46,.18-.86,.54-1.19,.36-.33,.8-.5,1.32-.5s.97,.16,1.25,.47c.28,.31,.71,.93,1.28,1.86l3.71,6.02,3.75-6.02c.23-.37,.42-.68,.57-.93,.15-.25,.32-.49,.51-.71,.19-.22,.39-.39,.62-.51s.5-.18,.83-.18c.51,0,.93,.17,1.27,.49,.34,.33,.51,.71,.51,1.14,0,.35-.09,.7-.26,1.06-.17,.35-.46,.84-.88,1.46l-4.97,7.62v6.3c0,.82-.19,1.43-.57,1.84s-.86,.61-1.45,.61-1.08-.2-1.45-.6c-.37-.4-.56-1.02-.56-1.85Z"/>
    <path class="cls-2" d="M127.58,83.71c0,.63-.16,1.32-.47,2.05-.31,.74-.8,1.46-1.47,2.17-.67,.71-1.52,1.28-2.56,1.73-1.04,.44-2.25,.66-3.63,.66-1.05,0-2-.1-2.86-.3s-1.64-.51-2.34-.93-1.34-.97-1.93-1.66c-.52-.62-.97-1.32-1.34-2.09s-.65-1.59-.83-2.47c-.19-.88-.28-1.8-.28-2.79,0-1.6,.23-3.03,.7-4.29s1.13-2.34,2-3.24c.87-.9,1.88-1.58,3.05-2.05,1.16-.47,2.4-.7,3.72-.7,1.61,0,3.04,.32,4.29,.96s2.22,1.43,2.88,2.38c.67,.94,1,1.83,1,2.67,0,.46-.16,.87-.49,1.22-.33,.35-.72,.53-1.18,.53-.51,0-.9-.12-1.16-.37-.26-.24-.54-.66-.86-1.26-.52-.98-1.14-1.72-1.85-2.21-.71-.49-1.58-.73-2.62-.73-1.65,0-2.97,.63-3.95,1.88-.98,1.25-1.47,3.04-1.47,5.35,0,1.54,.22,2.83,.65,3.85,.43,1.02,1.05,1.79,1.84,2.29s1.72,.76,2.79,.76c1.16,0,2.13-.29,2.93-.86s1.4-1.42,1.81-2.52c.17-.52,.38-.95,.64-1.28,.25-.33,.66-.49,1.22-.49,.48,0,.89,.17,1.23,.5,.34,.33,.51,.75,.51,1.25Z"/>
  </g>
</svg>