<?xml version="1.0" encoding="UTF-8"?>
<svg id="Layer_1" data-name="Layer 1" xmlns="http://www.w3.org/2000/svg" viewBox="0 0 200 200">
  <defs>
    <style>
      .cls-1 {
        fill: #ec1f78;
      }

      .cls-2 {
        fill: #fff;
      }

      .cls-3 {
        fill: #fecb30;
      }

      .cls-4 {
        fill: #ff5a74;
      }

      .cls-5 {
        opacity: .2;
      }
    </style>
  </defs>
  <g class="cls-5">
    <ellipse cx="98.53" cy="143.16" rx="53.31" ry="2.83"/>
  </g>
  <path class="cls-4" d="M115.86,54.86h21.05c5.87,0,10.64,4.77,10.64,10.64h0c0,5.92-4.81,10.74-10.74,10.74h-20.96v-21.38h0Z"/>
  <path class="cls-1" d="M142.02,54.86c7.44,0-62.84,0-62.84,0-6.92,0-12.53,5.61-12.53,12.53v67.09c0,4.74,3.84,8.58,8.58,8.58h51.56c4.8,0,8.69-3.89,8.69-8.69V62.15s-.9-7.29,6.54-7.29Z"/>
  <path class="cls-4" d="M127.78,143.07H62.58c-3.87,0-7-3.13-7-7v-2.66c0-3.69,2.99-6.69,6.69-6.69h51.03c3.69,0,6.69,2.99,6.69,6.69v2.66h0c.01,3.85,3.13,6.98,6.98,7h.82Z"/>
  <g>
    <rect class="cls-3" x="101.71" y="90.28" width="21.17" height="3.9" rx="1.95" ry="1.95"/>
    <path class="cls-3" d="M120.93,104.54h-27.6c-1.08,0-1.95-.87-1.95-1.95h0c0-1.08,.87-1.95,1.95-1.95h27.6c1.08,0,1.95,.87,1.95,1.95h0c0,1.08-.87,1.95-1.95,1.95Z"/>
    <path class="cls-3" d="M98.02,116.44h-17.42c-1.08,0-1.95-.87-1.95-1.95h0c0-1.08,.87-1.95,1.95-1.95h17.42c1.08,0,1.95,.87,1.95,1.95h0c0,1.08-.87,1.95-1.95,1.95Z"/>
    <g>
      <path class="cls-3" d="M92.53,118.64c-.25,0-.48-.11-.64-.29-.17-.2-.24-.48-.19-.78l.48-2.92s-.03-.14-.06-.18l-2.13-2.05c-.28-.26-.38-.62-.28-.94,.1-.32,.39-.55,.77-.61l2.93-.45s.13-.07,.15-.11l1.29-2.66c.17-.35,.47-.55,.81-.55s.64,.2,.81,.54l1.33,2.65s.11,.09,.15,.11l2.93,.4c.38,.05,.67,.27,.78,.6,.11,.32,0,.67-.26,.94l-2.11,2.09s-.06,.13-.05,.18l.52,2.91c.05,.3-.01,.58-.18,.79-.16,.19-.39,.3-.65,.3-.16,0-.32-.04-.47-.12l-2.63-1.36s-.08,0-.1,0c-.06,0-.08,0-.09,0l-2.61,1.4c-.16,.09-.32,.13-.49,.13Z"/>
      <path class="cls-1" d="M95.64,107.77c.07,0,.15,.06,.2,.17l1.33,2.65c.11,.23,.41,.44,.66,.47l2.94,.4c.25,.03,.31,.21,.13,.39l-2.1,2.09c-.18,.18-.29,.53-.24,.77l.53,2.92c.03,.18-.04,.29-.16,.29-.05,0-.1-.01-.16-.05l-2.64-1.36c-.11-.06-.25-.08-.4-.08s-.3,.03-.41,.09l-2.61,1.4c-.06,.03-.12,.05-.17,.05-.12,0-.19-.11-.16-.28l.48-2.93c.04-.25-.08-.6-.26-.77l-2.14-2.05c-.18-.17-.13-.35,.12-.39l2.93-.45c.25-.04,.54-.26,.65-.48l1.29-2.67c.06-.11,.13-.17,.2-.17m0-1.36c-.6,0-1.14,.36-1.42,.94l-1.18,2.44-2.68,.41c-.64,.1-1.13,.5-1.31,1.07-.18,.57-.01,1.18,.46,1.63l1.96,1.87-.44,2.67c-.08,.5,.04,.97,.35,1.33,.29,.34,.71,.53,1.16,.53,.28,0,.55-.07,.81-.21l2.39-1.28,2.41,1.24c.25,.13,.52,.2,.78,.2,.45,0,.88-.2,1.17-.54,.3-.36,.42-.84,.33-1.34l-.48-2.67,1.92-1.91c.46-.46,.62-1.07,.43-1.64-.19-.57-.69-.96-1.33-1.05l-2.68-.37-1.22-2.42c-.29-.57-.82-.91-1.41-.91h0Z"/>
    </g>
  </g>
  <path class="cls-3" d="M67.33,117.63c-.95,0-1.91-.36-2.64-1.09l-15.59-15.59c-1.46-1.46-1.46-3.82,0-5.27s3.82-1.46,5.27,0l12.95,12.95,25.38-25.38c1.46-1.46,3.82-1.46,5.27,0s1.46,3.82,0,5.27l-28.02,28.02c-.73,.73-1.68,1.09-2.64,1.09Z"/>
  <g>
    <path class="cls-2" d="M80.82,71.18v3.85l4.37-4.56c.21-.22,.39-.38,.54-.49s.34-.16,.59-.16c.32,0,.58,.09,.78,.28s.3,.42,.3,.69c0,.32-.17,.65-.5,.97l-2.71,2.56,3.12,4.47c.22,.31,.38,.58,.49,.81s.17,.46,.17,.68c0,.24-.1,.46-.29,.64-.19,.18-.45,.27-.78,.27-.31,0-.56-.07-.76-.2-.19-.13-.36-.31-.49-.53s-.25-.42-.36-.6l-2.63-4.05-1.82,1.75v2.27c0,.46-.11,.8-.31,1.02-.21,.22-.48,.33-.81,.33-.19,0-.37-.05-.55-.15-.17-.1-.31-.24-.41-.41-.07-.14-.11-.3-.13-.49-.01-.19-.02-.45-.02-.8v-8.17c0-.45,.1-.79,.3-1.01s.47-.34,.81-.34,.61,.11,.81,.33c.21,.22,.31,.56,.31,1.02Z"/>
    <path class="cls-2" d="M92.24,79.84v-3.48l-2.68-4.16c-.24-.38-.4-.67-.5-.88-.1-.21-.15-.39-.15-.55,0-.25,.1-.47,.3-.66,.2-.19,.44-.28,.73-.28,.3,0,.54,.09,.69,.26,.16,.17,.39,.52,.71,1.03l2.05,3.33,2.08-3.33c.12-.21,.23-.38,.32-.52,.08-.14,.18-.27,.28-.39s.22-.22,.34-.28c.12-.07,.28-.1,.46-.1,.28,0,.51,.09,.7,.27,.19,.18,.28,.39,.28,.63,0,.2-.05,.39-.14,.58-.1,.2-.26,.46-.49,.81l-2.75,4.22v3.48c0,.45-.1,.79-.31,1.02s-.48,.34-.8,.34-.6-.11-.8-.33c-.21-.22-.31-.56-.31-1.02Z"/>
    <path class="cls-2" d="M108.2,77.54c0,.35-.09,.73-.26,1.13-.17,.41-.44,.81-.81,1.2-.37,.39-.84,.71-1.42,.96-.57,.25-1.24,.37-2.01,.37-.58,0-1.11-.05-1.58-.16-.47-.11-.91-.28-1.29-.51-.39-.23-.74-.54-1.07-.92-.29-.34-.54-.73-.74-1.16-.21-.43-.36-.88-.46-1.37-.1-.48-.15-1-.15-1.54,0-.88,.13-1.68,.39-2.38,.26-.7,.63-1.3,1.11-1.79s1.04-.88,1.69-1.14c.64-.26,1.33-.39,2.06-.39,.89,0,1.68,.18,2.38,.53,.69,.36,1.23,.79,1.6,1.32,.37,.52,.55,1.02,.55,1.48,0,.26-.09,.48-.27,.67s-.4,.29-.65,.29c-.29,0-.5-.07-.64-.2-.14-.14-.3-.37-.48-.7-.29-.54-.63-.95-1.02-1.22-.39-.27-.88-.41-1.45-.41-.91,0-1.64,.35-2.18,1.04s-.81,1.68-.81,2.96c0,.85,.12,1.56,.36,2.13,.24,.57,.58,.99,1.02,1.27,.44,.28,.95,.42,1.54,.42,.64,0,1.18-.16,1.62-.48,.44-.32,.78-.78,1-1.4,.09-.29,.21-.53,.35-.71,.14-.18,.36-.27,.67-.27,.26,0,.49,.09,.68,.28,.19,.18,.29,.41,.29,.69Z"/>
  </g>
</svg>