<?xml version="1.0" encoding="UTF-8"?>
<svg id="Layer_1" data-name="Layer 1" xmlns="http://www.w3.org/2000/svg" viewBox="0 0 200 200">
  <defs>
    <style>
      .cls-1 {
        fill: #ec1f78;
      }

      .cls-2 {
        fill: #fff;
      }

      .cls-3 {
        fill: #fecb30;
      }
    </style>
  </defs>
  <path class="cls-3" d="M52.29,123.17h26.64c4.17,0,7.55,3.38,7.55,7.55v14.9c0,3.33-2.7,6.03-6.03,6.03h-28.16v-28.49h0Z" transform="translate(138.77 274.83) rotate(180)"/>
  <path class="cls-1" d="M57.99,151.66c-8.03,0,67.79,0,67.79,0,7.46,0,10.31-6.05,10.31-13.52V65.77c0-5.11-4.14-9.26-9.26-9.26h-52.4c-5.18,0-9.38,4.2-9.38,9.38v77.91s.97,7.86-7.06,7.86Z"/>
  <g>
    <rect class="cls-3" x="85.28" y="102.81" width="34.41" height="4.21" rx="1.79" ry="1.79"/>
    <path class="cls-3" d="M118.18,119.97h-31.38c-.84,0-1.52-.94-1.52-2.1h0c0-1.16,.68-2.1,1.52-2.1h31.38c.84,0,1.52,.94,1.52,2.1h0c0,1.16-.68,2.1-1.52,2.1Z"/>
    <path class="cls-3" d="M100.35,132.92h-13.55c-.84,0-1.52-.94-1.52-2.1h0c0-1.16,.68-2.1,1.52-2.1h13.55c.84,0,1.52,.94,1.52,2.1h0c0,1.16-.68,2.1-1.52,2.1Z"/>
  </g>
  <g>
    <path class="cls-2" d="M89.74,89.91v-12.41c-2.31,1.77-3.86,2.66-4.66,2.66-.38,0-.72-.15-1.02-.46-.3-.3-.44-.66-.44-1.06,0-.46,.14-.8,.44-1.02,.29-.22,.8-.5,1.54-.85,1.1-.52,1.98-1.06,2.64-1.64,.66-.57,1.24-1.21,1.75-1.92,.51-.71,.84-1.15,1-1.31,.15-.16,.44-.24,.87-.24,.48,0,.87,.19,1.16,.56,.29,.37,.44,.89,.44,1.54v15.61c0,1.83-.62,2.74-1.87,2.74-.55,0-1-.19-1.34-.56-.34-.37-.5-.92-.5-1.65Z"/>
    <path class="cls-2" d="M102.11,80.97c.62-.74,1.29-1.28,2.02-1.64,.73-.35,1.54-.53,2.44-.53s1.66,.16,2.39,.48,1.37,.78,1.92,1.38c.55,.6,.97,1.3,1.27,2.11,.3,.81,.45,1.65,.45,2.54,0,1.28-.29,2.44-.88,3.49-.59,1.04-1.4,1.86-2.45,2.45s-2.24,.88-3.56,.88c-1.53,0-2.84-.37-3.95-1.12-1.11-.75-1.96-1.85-2.54-3.31-.59-1.46-.88-3.24-.88-5.35,0-1.72,.18-3.25,.53-4.61,.35-1.35,.86-2.48,1.53-3.37,.66-.89,1.47-1.56,2.41-2.02,.95-.46,2.02-.68,3.23-.68s2.19,.23,3.07,.68c.89,.45,1.55,1.02,2,1.69,.45,.67,.68,1.32,.68,1.94,0,.37-.14,.71-.42,1.02-.28,.3-.64,.46-1.08,.46-.38,0-.74-.12-1.06-.36-.33-.24-.57-.57-.72-1-.21-.54-.54-.98-1-1.32-.45-.33-.98-.5-1.58-.5-.48,0-.96,.14-1.44,.42-.48,.28-.88,.65-1.21,1.12-.66,.96-1.05,2.68-1.17,5.15Zm3.68,8.46c.92,0,1.68-.38,2.28-1.12,.6-.75,.9-1.73,.9-2.95,0-.83-.14-1.54-.42-2.13s-.67-1.05-1.16-1.36c-.49-.31-1.03-.47-1.62-.47s-1.1,.15-1.62,.45c-.51,.3-.93,.73-1.24,1.3-.31,.57-.47,1.23-.47,2,0,1.23,.32,2.25,.95,3.07,.64,.82,1.44,1.23,2.4,1.23Z"/>
  </g>
</svg>