<?xml version="1.0" encoding="UTF-8"?>
<svg id="Layer_1" data-name="Layer 1" xmlns="http://www.w3.org/2000/svg" viewBox="0 0 200 200">
  <defs>
    <style>
      .cls-1 {
        fill: #ec1f78;
      }

      .cls-2 {
        fill: #e82374;
      }

      .cls-3 {
        fill: #fecb30;
      }
    </style>
  </defs>
  <path class="cls-1" d="M85.48,69.03H51.22c-8.04,0-14.56,6.52-14.56,14.56v18.34c0,6.42,5.21,11.63,11.63,11.63h37.19s0-44.53,0-44.53Z"/>
  <path class="cls-3" d="M57.07,81.75v49.86c0,6.51,5.27,11.78,11.78,11.78h70.58c6.51,0,11.78-5.27,11.78-11.78v-41.45c0-11.67-3.77-21.13-13.66-21.13H47.72c9.63,0,9.49,10.07,9.37,11.97-.01,.25-.02,.49-.02,.74Z"/>
  <path class="cls-2" d="M110.04,125.2c1.23-2.99,3.07-5.67,5.35-7.95l-2.04-.84c.22,2.78,.09,5.54-.44,8.27-.21,1.1,1.12,2.09,1.99,1.16,1.5-1.6,2.9-3.28,4.22-5.03l-2.18-.29c.46,1.72-.15,3.53,1.74,4.57,1.66,.91,3.89,.3,5.63,.01,4.71-.77,9.34-1.93,13.87-3.44,1.45-.48,.83-2.79-.63-2.3-3.64,1.21-7.34,2.2-11.1,2.94-1.76,.34-3.59,.78-5.39,.85-.79,.03-1.46,0-1.6-.9-.12-.8-.01-1.57-.22-2.37-.29-1.08-1.6-1.06-2.18-.29-1.2,1.59-2.49,3.1-3.85,4.55l1.99,1.16c.57-2.95,.76-5.92,.52-8.91-.08-1-1.26-1.62-2.04-.84-2.59,2.59-4.57,5.62-5.97,9-.58,1.42,1.72,2.04,2.3,.63h0Z"/>
  <rect class="cls-1" x="66.56" y="93.26" width="43.94" height="5.14" rx="2.57" ry="2.57"/>
  <rect class="cls-1" x="66.56" y="82.82" width="67.49" height="5.14" rx="2.57" ry="2.57"/>
  <rect class="cls-1" x="113.08" y="132.8" width="22.25" height="1.61"/>
</svg>