<?xml version="1.0" encoding="UTF-8"?>
<svg id="Layer_1" data-name="Layer 1" xmlns="http://www.w3.org/2000/svg" xmlns:xlink="http://www.w3.org/1999/xlink" viewBox="0 0 200 200">
  <defs>
    <style>
      .cls-1, .cls-2 {
        fill: none;
      }

      .cls-3 {
        clip-path: url(#clippath);
      }

      .cls-4 {
        fill: #ec1f78;
      }

      .cls-5, .cls-6 {
        fill: #fff;
      }

      .cls-7 {
        fill: #fecb30;
      }

      .cls-8 {
        fill: #d8d8d8;
      }

      .cls-9 {
        fill: #dfdcff;
      }

      .cls-2 {
        stroke: #ec1f78;
        stroke-linecap: round;
        stroke-width: 2.15px;
      }

      .cls-2, .cls-6 {
        stroke-miterlimit: 10;
      }

      .cls-6 {
        stroke: #d8d8d8;
        stroke-width: .86px;
      }
    </style>
    <clipPath id="clippath">
      <rect class="cls-1" x="80.62" y="94.83" width="40.24" height="52.15"/>
    </clipPath>
  </defs>
  <g>
    <g>
      <rect class="cls-7" x="77.97" y="63.14" width="45.3" height="52.64" rx="20.23" ry="20.23" transform="translate(-16.25 22.62) rotate(-11.87)"/>
      <path class="cls-4" d="M78.94,97.27s-22.66-31.58,21.64-39.26c6.43-1.12,1.95-10.6,11.95-12.92,10.01-2.32,16.74,15.68,8.9,22.86-7.85,7.18-33.3,8.61-38.37,16.56-5.06,7.95-4.13,12.76-4.13,12.76Z"/>
      <path class="cls-4" d="M110.24,93.99c-.95,0-1.88-.25-2.71-.75-1.23-.73-2.09-1.89-2.45-3.27l-1.02-4.02c-.73-2.85,1-5.76,3.85-6.49l4.02-1.02c1.38-.35,2.82-.15,4.04,.58,1.22,.73,2.09,1.89,2.45,3.27l1.02,4.02c.35,1.38,.14,2.82-.58,4.04-.73,1.22-1.89,2.09-3.27,2.45l-4.02,1.02c-.44,.11-.88,.17-1.33,.17Zm3.01-14.3c-.32,0-.65,.04-.97,.12l-4.02,1.02c-2.09,.53-3.36,2.67-2.83,4.76l1.02,4.02c.26,1.01,.9,1.87,1.8,2.4,.9,.53,1.95,.69,2.97,.43l4.02-1.02c1.01-.26,1.87-.9,2.4-1.8,.53-.9,.69-1.95,.43-2.97l-1.02-4.02c-.26-1.01-.9-1.87-1.8-2.4-.61-.36-1.3-.55-1.99-.55Z"/>
      <path class="cls-4" d="M91.11,99c-2.38,0-4.56-1.61-5.17-4.02l-1.02-4.02c-.35-1.38-.14-2.82,.58-4.04,.73-1.22,1.89-2.09,3.27-2.45l4.02-1.02c1.38-.35,2.82-.14,4.04,.58,1.22,.73,2.09,1.89,2.45,3.27l1.02,4.02c.35,1.38,.14,2.82-.58,4.04-.73,1.22-1.89,2.09-3.27,2.45l-4.02,1.02c-.44,.11-.88,.17-1.32,.17Zm3-14.3c-.32,0-.65,.04-.97,.12l-4.02,1.02c-1.01,.26-1.87,.9-2.4,1.8-.53,.9-.69,1.95-.43,2.97l1.02,4.02c.53,2.09,2.67,3.36,4.76,2.83l4.02-1.02c1.01-.26,1.87-.9,2.4-1.8,.53-.9,.69-1.95,.43-2.97l-1.02-4.02c-.26-1.01-.9-1.87-1.8-2.4-.61-.36-1.3-.55-1.99-.55Z"/>
      <rect class="cls-4" x="98.47" y="85.92" width="6.38" height="1.42" transform="translate(-19.46 30.33) rotate(-15.51)"/>
    </g>
    <rect class="cls-6" x="76.24" y="86.43" width="48.63" height="68.05" rx="8.94" ry="8.94"/>
    <g class="cls-3">
      <path class="cls-4" d="M75.24,129.69s5.38-15.3,16.06-17.76c0,0,21.92-9.59,31.74,12.49l-2.17,22.56h-40.24l-5.38-17.29Z"/>
      <g>
        <rect class="cls-7" x="77.97" y="62.53" width="45.3" height="52.64" rx="20.23" ry="20.23" transform="translate(-16.13 22.6) rotate(-11.87)"/>
        <path class="cls-4" d="M78.93,96.66s-22.66-31.58,21.64-39.26c6.43-1.12,1.95-10.6,11.95-12.92,10.01-2.32,16.74,15.68,8.9,22.86-7.85,7.18-33.3,8.61-38.37,16.56-5.06,7.95-4.13,12.76-4.13,12.76Z"/>
        <path class="cls-4" d="M110.23,93.38c-.95,0-1.88-.25-2.71-.75-1.23-.73-2.09-1.89-2.45-3.27l-1.02-4.02c-.73-2.85,1-5.76,3.85-6.49l4.02-1.02c2.85-.73,5.76,1,6.49,3.85l1.02,4.02c.35,1.38,.14,2.82-.58,4.04-.73,1.22-1.89,2.09-3.27,2.45l-4.02,1.02c-.44,.11-.88,.17-1.33,.17Zm3-14.3c-.32,0-.64,.04-.97,.12l-4.02,1.02c-2.09,.53-3.36,2.67-2.83,4.76l1.02,4.02c.53,2.09,2.67,3.36,4.76,2.83l4.02-1.02c1.01-.26,1.87-.9,2.4-1.8,.53-.9,.69-1.95,.43-2.97l-1.02-4.02c-.45-1.77-2.05-2.95-3.8-2.95Z"/>
        <path class="cls-4" d="M91.09,98.39c-.95,0-1.88-.25-2.71-.75-1.22-.73-2.09-1.89-2.45-3.27l-1.02-4.02c-.35-1.38-.14-2.82,.58-4.04,.73-1.22,1.89-2.09,3.27-2.45l4.02-1.02c1.38-.35,2.82-.14,4.04,.58,1.22,.73,2.09,1.89,2.45,3.27l1.02,4.02c.35,1.38,.14,2.82-.58,4.04-.73,1.22-1.89,2.09-3.27,2.45l-4.02,1.02c-.44,.11-.88,.17-1.33,.17Zm3.01-14.3c-.32,0-.65,.04-.97,.12l-4.02,1.02c-1.01,.26-1.87,.9-2.4,1.8-.53,.9-.69,1.95-.43,2.97l1.02,4.02c.26,1.01,.9,1.87,1.8,2.4s1.95,.69,2.97,.43l4.02-1.02c1.01-.26,1.87-.9,2.4-1.8,.53-.9,.69-1.95,.43-2.97l-1.02-4.02c-.26-1.01-.9-1.87-1.8-2.4-.61-.36-1.3-.55-1.99-.55Z"/>
        <rect class="cls-4" x="98.46" y="85.31" width="6.38" height="1.42" transform="translate(-19.3 30.31) rotate(-15.51)"/>
      </g>
      <path class="cls-5" d="M114.35,99.93l-17,4.53s1.13,5.67,9.92,3.4c0,0,7.65-2.83,7.09-7.94Z"/>
    </g>
    <path class="cls-8" d="M120.3,95.4v51.01h-39.11v-51.01h39.11m.57-.57h-40.24v52.15h40.24v-52.15h0Z"/>
    <g>
      <rect class="cls-5" x="95.93" y="149.53" width="7.94" height="2.27"/>
      <path class="cls-9" d="M103.3,150.1v1.13h-6.8v-1.13h6.8m.57-.57h-7.94v2.27h7.94v-2.27h0Z"/>
    </g>
    <g>
      <path class="cls-7" d="M66.34,131.26c.74-1.09,4.34-4.34,5.19-7.87s1.29-6.48,4.64-5.68c3.35,.8,3.23,4.44,1.26,8.11-1.97,3.67-11.09,5.44-11.09,5.44Z"/>
      <circle class="cls-7" cx="76.24" cy="136.01" r="10.77"/>
    </g>
  </g>
  <g>
    <line class="cls-2" x1="70.92" y1="109.64" x2="63.62" y2="109.87"/>
    <line class="cls-2" x1="67.3" y1="91.42" x2="58.04" y2="88.3"/>
    <line class="cls-2" x1="130.58" y1="106.64" x2="137.87" y2="106.87"/>
    <line class="cls-2" x1="134.2" y1="88.41" x2="143.45" y2="85.29"/>
  </g>
</svg>