<?xml version="1.0" encoding="UTF-8"?>
<svg id="Layer_1" data-name="Layer 1" xmlns="http://www.w3.org/2000/svg" viewBox="0 0 200 200">
  <defs>
    <style>
      .cls-1 {
        fill: #ec1f78;
      }

      .cls-2 {
        fill: #e82374;
      }

      .cls-3 {
        fill: #fecb30;
      }
    </style>
  </defs>
  <rect class="cls-3" x="36.91" y="63.86" width="108.24" height="68.08" rx="19.3" ry="19.3"/>
  <path class="cls-1" d="M75.29,115.39h1.43s.01,0,.01-.01v-5.42c0-6.68-5.47-12.28-12.15-12.15s-11.66,5.41-11.66,11.9v5.66s0,.01,.01,.01h22.36Z"/>
  <circle class="cls-1" cx="64.62" cy="89.12" r="6.68"/>
  <rect class="cls-1" x="91.31" y="95.44" width="21.41" height="4.78" rx="2.39" ry="2.39"/>
  <rect class="cls-1" x="91.31" y="80.94" width="39.06" height="4.78" rx="2.39" ry="2.39"/>
  <path class="cls-2" d="M71.37,135.49c3.54-8.71,8.86-16.62,15.55-23.22l-2.04-.84c.67,7.94,.25,15.93-1.3,23.75-.22,1.1,1.12,2.08,1.99,1.16,4.09-4.33,7.92-8.9,11.5-13.67l-2.18-.29c1.13,3.57-.59,7.85,2.64,10.66,2.58,2.24,6.37,1.99,9.53,1.56,9.65-1.32,19.23-3.25,28.65-5.72,5.41-1.42,10.77-3.02,16.07-4.8,1.45-.49,.83-2.79-.63-2.3-8.56,2.87-17.27,5.28-26.09,7.21-4.37,.95-8.77,1.79-13.18,2.5-3.46,.56-7.67,1.74-11.14,.64-4.44-1.4-2.46-6.98-3.54-10.38-.33-1.05-1.58-1.09-2.18-.29-3.45,4.61-7.17,9-11.12,13.18l1.99,1.16c1.59-8.03,2.07-16.23,1.38-24.39-.08-1-1.26-1.61-2.04-.84-7,6.9-12.47,15.16-16.16,24.27-.58,1.42,1.73,2.04,2.3,.63h0Z"/>
</svg>