<?xml version="1.0" encoding="UTF-8"?>
<svg id="Layer_1" data-name="Layer 1" xmlns="http://www.w3.org/2000/svg" viewBox="0 0 200 200">
  <defs>
    <style>
      .cls-1 {
        fill: none;
        stroke: #5490b5;
        stroke-miterlimit: 10;
        stroke-width: .78px;
      }

      .cls-2 {
        fill: #020202;
        opacity: .1;
      }

      .cls-3 {
        fill: #ed7d29;
      }

      .cls-4 {
        fill: #ed1e79;
      }

      .cls-5 {
        fill: #eab41c;
      }

      .cls-6 {
        fill: #ffcc29;
      }

      .cls-7 {
        fill: #ff5a7a;
      }

      .cls-8 {
        fill: #ff902c;
      }
    </style>
  </defs>
  <ellipse class="cls-2" cx="98.53" cy="137.6" rx="71.55" ry="10.46"/>
  <g>
    <g>
      <g>
        <line class="cls-1" x1="59.1" y1="60.95" x2="141.41" y2="60.95"/>
        <line class="cls-1" x1="59.1" y1="109.21" x2="141.41" y2="109.21"/>
        <line class="cls-1" x1="59.1" y1="77.04" x2="141.41" y2="77.04"/>
        <line class="cls-1" x1="59.1" y1="93.12" x2="141.41" y2="93.12"/>
      </g>
      <g>
        <g>
          <path class="cls-8" d="M73.26,68.65h-1.95c-.58,0-1.05-.6-1.05-1.33v-12.73c0-.73,.47-1.33,1.05-1.33h1.95c.58,0,1.05,.6,1.05,1.33v12.73c0,.73-.47,1.33-1.05,1.33Z"/>
          <path class="cls-3" d="M73.26,68.65h-1.95c-.58,0-1.05-.6-1.05-1.33v-2.06h4.04v2.06c0,.73-.47,1.33-1.05,1.33Z"/>
        </g>
        <g>
          <path class="cls-8" d="M77.6,68.65h-1.95c-.58,0-1.05-.6-1.05-1.33v-12.73c0-.73,.47-1.33,1.05-1.33h1.95c.58,0,1.05,.6,1.05,1.33v12.73c0,.73-.47,1.33-1.05,1.33Z"/>
          <path class="cls-3" d="M77.6,68.65h-1.95c-.58,0-1.05-.6-1.05-1.33v-2.06h4.04v2.06c0,.73-.47,1.33-1.05,1.33Z"/>
        </g>
        <g>
          <path class="cls-8" d="M81.95,68.65h-1.95c-.58,0-1.05-.6-1.05-1.33v-12.73c0-.73,.47-1.33,1.05-1.33h1.95c.58,0,1.05,.6,1.05,1.33v12.73c0,.73-.47,1.33-1.05,1.33Z"/>
          <path class="cls-3" d="M81.95,68.65h-1.95c-.58,0-1.05-.6-1.05-1.33v-2.06h4.04v2.06c0,.73-.47,1.33-1.05,1.33Z"/>
        </g>
        <g>
          <path class="cls-8" d="M86.25,68.65h-1.95c-.58,0-1.05-.6-1.05-1.33v-12.73c0-.73,.47-1.33,1.05-1.33h1.95c.58,0,1.05,.6,1.05,1.33v12.73c0,.73-.47,1.33-1.05,1.33Z"/>
          <path class="cls-3" d="M86.25,68.65h-1.95c-.58,0-1.05-.6-1.05-1.33v-2.06h4.04v2.06c0,.73-.47,1.33-1.05,1.33Z"/>
        </g>
        <g>
          <path class="cls-8" d="M118.65,116.9h-1.95c-.58,0-1.05-.6-1.05-1.33v-12.73c0-.73,.47-1.33,1.05-1.33h1.95c.58,0,1.05,.6,1.05,1.33v12.73c0,.73-.47,1.33-1.05,1.33Z"/>
          <path class="cls-3" d="M118.65,116.9h-1.95c-.58,0-1.05-.6-1.05-1.33v-2.06h4.04v2.06c0,.73-.47,1.33-1.05,1.33Z"/>
        </g>
        <g>
          <path class="cls-8" d="M122.99,116.9h-1.95c-.58,0-1.05-.6-1.05-1.33v-12.73c0-.73,.47-1.33,1.05-1.33h1.95c.58,0,1.05,.6,1.05,1.33v12.73c0,.73-.47,1.33-1.05,1.33Z"/>
          <path class="cls-3" d="M122.99,116.9h-1.95c-.58,0-1.05-.6-1.05-1.33v-2.06h4.04v2.06c0,.73-.47,1.33-1.05,1.33Z"/>
        </g>
        <g>
          <path class="cls-8" d="M127.34,116.9h-1.95c-.58,0-1.05-.6-1.05-1.33v-12.73c0-.73,.47-1.33,1.05-1.33h1.95c.58,0,1.05,.6,1.05,1.33v12.73c0,.73-.47,1.33-1.05,1.33Z"/>
          <path class="cls-3" d="M127.34,116.9h-1.95c-.58,0-1.05-.6-1.05-1.33v-2.06h4.04v2.06c0,.73-.47,1.33-1.05,1.33Z"/>
        </g>
        <g>
          <path class="cls-8" d="M131.76,116.9h-1.95c-.58,0-1.05-.6-1.05-1.33v-12.73c0-.73,.47-1.33,1.05-1.33h1.95c.58,0,1.05,.6,1.05,1.33v12.73c0,.73-.47,1.33-1.05,1.33Z"/>
          <path class="cls-3" d="M131.76,116.9h-1.95c-.58,0-1.05-.6-1.05-1.33v-2.06h4.04v2.06c0,.73-.47,1.33-1.05,1.33Z"/>
        </g>
        <g>
          <g>
            <path class="cls-6" d="M77.15,116.9h-1.95c-.58,0-1.05-.6-1.05-1.33v-12.73c0-.73,.47-1.33,1.05-1.33h1.95c.58,0,1.05,.6,1.05,1.33v12.73c0,.73-.47,1.33-1.05,1.33Z"/>
            <path class="cls-5" d="M77.15,116.9h-1.95c-.58,0-1.05-.6-1.05-1.33v-2.06h4.04v2.06c0,.73-.47,1.33-1.05,1.33Z"/>
          </g>
          <g>
            <path class="cls-6" d="M81.49,116.9h-1.95c-.58,0-1.05-.6-1.05-1.33v-12.73c0-.73,.47-1.33,1.05-1.33h1.95c.58,0,1.05,.6,1.05,1.33v12.73c0,.73-.47,1.33-1.05,1.33Z"/>
            <path class="cls-5" d="M81.49,116.9h-1.95c-.58,0-1.05-.6-1.05-1.33v-2.06h4.04v2.06c0,.73-.47,1.33-1.05,1.33Z"/>
          </g>
        </g>
        <g>
          <g>
            <path class="cls-6" d="M92.32,100.82h-1.95c-.58,0-1.05-.6-1.05-1.33v-12.73c0-.73,.47-1.33,1.05-1.33h1.95c.58,0,1.05,.6,1.05,1.33v12.73c0,.73-.47,1.33-1.05,1.33Z"/>
            <path class="cls-5" d="M92.32,100.82h-1.95c-.58,0-1.05-.6-1.05-1.33v-2.03s.01-.03,.03-.03h3.99s.03,.01,.03,.03v2.03c0,.73-.47,1.33-1.05,1.33Z"/>
          </g>
          <g>
            <path class="cls-6" d="M96.66,100.82h-1.95c-.58,0-1.05-.6-1.05-1.33v-12.73c0-.73,.47-1.33,1.05-1.33h1.95c.58,0,1.05,.6,1.05,1.33v12.73c0,.73-.47,1.33-1.05,1.33Z"/>
            <path class="cls-5" d="M96.66,100.82h-1.95c-.58,0-1.05-.6-1.05-1.33v-2.06h4.04v2.06c0,.73-.47,1.33-1.05,1.33Z"/>
          </g>
        </g>
        <g>
          <g>
            <path class="cls-6" d="M107.49,84.73h-1.95c-.58,0-1.05-.6-1.05-1.33v-12.73c0-.73,.47-1.33,1.05-1.33h1.95c.58,0,1.05,.6,1.05,1.33v12.73c0,.73-.47,1.33-1.05,1.33Z"/>
            <path class="cls-5" d="M107.49,84.73h-1.95c-.58,0-1.05-.6-1.05-1.33v-2.06h4.04v2.06c0,.73-.47,1.33-1.05,1.33Z"/>
          </g>
          <g>
            <path class="cls-6" d="M111.83,84.73h-1.95c-.58,0-1.05-.6-1.05-1.33v-12.73c0-.73,.47-1.33,1.05-1.33h1.95c.58,0,1.05,.6,1.05,1.33v12.73c0,.73-.47,1.33-1.05,1.33Z"/>
            <path class="cls-5" d="M111.83,84.73h-1.95c-.58,0-1.05-.6-1.05-1.33v-2.06h4.04v2.06c0,.73-.47,1.33-1.05,1.33Z"/>
          </g>
        </g>
        <g>
          <g>
            <path class="cls-6" d="M122.66,68.65h-1.95c-.58,0-1.05-.6-1.05-1.33v-12.73c0-.73,.47-1.33,1.05-1.33h1.95c.58,0,1.05,.6,1.05,1.33v12.73c0,.73-.47,1.33-1.05,1.33Z"/>
            <path class="cls-5" d="M122.66,68.65h-1.95c-.58,0-1.05-.6-1.05-1.33v-2.06h4.04v2.06c0,.73-.47,1.33-1.05,1.33Z"/>
          </g>
          <g>
            <path class="cls-6" d="M127.01,68.65h-1.95c-.58,0-1.05-.6-1.05-1.33v-12.73c0-.73,.47-1.33,1.05-1.33h1.95c.58,0,1.05,.6,1.05,1.33v12.73c0,.73-.47,1.33-1.05,1.33Z"/>
            <path class="cls-5" d="M127.01,68.65h-1.95c-.58,0-1.05-.6-1.05-1.33v-2.06h4.04v2.06c0,.73-.47,1.33-1.05,1.33Z"/>
          </g>
        </g>
      </g>
      <path class="cls-4" d="M159.01,141.28H39.15c-2.3,0-4.16-1.86-4.16-4.16h0c0-2.3,1.86-4.16,4.16-4.16h119.86c2.3,0,4.16,1.86,4.16,4.16h0c0,2.3-1.86,4.16-4.16,4.16Z"/>
      <polygon class="cls-7" points="162.12 134.11 36.04 134.11 55.99 123.25 142.17 123.25 162.12 134.11"/>
      <path class="cls-4" d="M140.81,128.02h0c-1.35,0-2.52-.41-3.06-.64-.2-.08-.32-.27-.32-.49V54.68c0-1.86,1.52-3.38,3.38-3.38h0c1.86,0,3.38,1.52,3.38,3.38V126.83c0,.25-.16,.48-.39,.58-.57,.23-1.7,.61-2.99,.61Z"/>
    </g>
    <path class="cls-4" d="M59.1,128.02h0c-1.35,0-2.52-.41-3.06-.64-.2-.08-.32-.27-.32-.49V54.68c0-1.86,1.52-3.38,3.38-3.38h0c1.86,0,3.38,1.52,3.38,3.38V126.83c0,.25-.16,.48-.39,.58-.57,.23-1.7,.61-2.99,.61Z"/>
  </g>
  <g>
    <g>
      <path class="cls-8" d="M61.11,122.12c0,4.61-2.66,8.35-5.93,8.35-.76,0-3.3,0-3.3,0,0,0-2.63-4.81-2.63-8.35s2.66-8.36,2.66-8.36c0,0,2.52,.01,3.27,.01,3.28,0,5.93,3.74,5.93,8.35Z"/>
      <ellipse class="cls-6" cx="52.33" cy="122.12" rx="5.93" ry="8.35"/>
    </g>
    <path class="cls-8" d="M52.14,120.84h-.63c-.43,0-.86,0-1.29,0-.19,0-.26-.1-.26-.4-.01-.82-.02-.82,.51-.82,.45,0,.89,0,1.34,0,.08,0,.16-.01,.26-.02-.11-.4-.31-.6-.53-.66-.39-.1-.79-.14-1.18-.17-.39-.03-.39,0-.39-.62,0-.97-.03-.84,.54-.84,1.15,0,2.29,0,3.44,0,.24,0,.33,.12,.31,.48,0,.1,0,.2,0,.31,.02,.33-.07,.46-.28,.44-.31-.02-.61,0-.94,0,.09,.34,.15,.65,.24,.94,.02,.07,.11,.14,.17,.14,.2,.02,.41,.01,.61,0,.14,0,.21,.1,.21,.32,0,1.03,.03,.89-.5,.9-.1,0-.2-.03-.29,.01-.07,.03-.17,.14-.19,.24-.22,1.32-.82,1.97-1.62,2.25-.07,.02-.14,.05-.21,.07,0,0-.01,.02-.03,.05,.03,.07,.07,.15,.1,.22,.66,1.2,1.31,2.4,1.96,3.6,.06,.1,.06,.26,.1,.4-.08,.04-.16,.1-.24,.12-.61,.17-1.06-.15-1.45-.96-.55-1.14-1.19-2.16-1.79-3.23-.12-.21-.2-1.13-.1-1.34,.05-.1,.16-.13,.25-.15,.38-.06,.76-.05,1.13-.17,.36-.11,.65-.44,.77-1.11Z"/>
  </g>
</svg>