<?xml version="1.0" encoding="UTF-8"?>
<svg id="Layer_1" data-name="Layer 1" xmlns="http://www.w3.org/2000/svg" viewBox="0 0 200 200">
  <defs>
    <style>
      .cls-1 {
        opacity: .1;
      }

      .cls-2 {
        fill: #f9c646;
      }

      .cls-3 {
        fill: #fff;
      }

      .cls-4 {
        fill: #e82374;
      }

      .cls-5 {
        fill: #111;
      }
    </style>
  </defs>
  <g class="cls-1">
    <ellipse class="cls-5" cx="97.89" cy="143.81" rx="56.83" ry="4.3"/>
  </g>
  <path class="cls-2" d="M133.16,143.81h-62.08c-3.77,0-6.82-3.05-6.82-6.82v-36.04c0-1.77,.68-3.46,1.91-4.73l30.56-31.72c2.66-2.76,7.06-2.79,9.76-.07l31.53,31.78c1.27,1.28,1.98,3,1.98,4.8v35.98c0,3.77-3.05,6.82-6.82,6.82Z"/>
  <path class="cls-2" d="M148.26,108.31c-1.65,0-3.3-.63-4.56-1.89l-42.34-42.34-40.83,40.83c-2.52,2.52-6.61,2.52-9.13,0-2.52-2.52-2.52-6.61,0-9.13l45.39-45.39c2.52-2.52,6.61-2.52,9.13,0l46.9,46.9c2.52,2.52,2.52,6.61,0,9.13-1.26,1.26-2.91,1.89-4.56,1.89Z"/>
  <circle class="cls-3" cx="102.11" cy="95.19" r="9.85"/>
  <g>
    <path class="cls-4" d="M65.32,144.24c-12.93,0-23.46-10.52-23.46-23.46s10.52-23.46,23.46-23.46,23.46,10.52,23.46,23.46-10.52,23.46-23.46,23.46Zm0-35.23c-6.49,0-11.78,5.28-11.78,11.78s5.28,11.78,11.78,11.78,11.78-5.28,11.78-11.78-5.28-11.78-11.78-11.78Z"/>
    <path class="cls-4" d="M141.65,126.62h-58.72c-3.23,0-5.84-2.61-5.84-5.84s2.61-5.84,5.84-5.84h58.72c3.23,0,5.84,2.61,5.84,5.84s-2.61,5.84-5.84,5.84Z"/>
    <path class="cls-4" d="M133.6,141.91c-2.69,0-4.87-2.18-4.87-4.87v-16.26c0-2.69,2.18-4.87,4.87-4.87s4.87,2.18,4.87,4.87v16.26c0,2.69-2.18,4.87-4.87,4.87Z"/>
    <path class="cls-4" d="M118.16,138.01c-2.69,0-4.87-2.18-4.87-4.87v-10.7c0-2.69,2.18-4.87,4.87-4.87s4.87,2.18,4.87,4.87v10.7c0,2.69-2.18,4.87-4.87,4.87Z"/>
  </g>
</svg>