<?xml version="1.0" encoding="UTF-8"?>
<svg id="Layer_1" data-name="Layer 1" xmlns="http://www.w3.org/2000/svg" viewBox="0 0 200 200">
  <defs>
    <style>
      .cls-1 {
        fill: #0c0c0c;
        opacity: .1;
      }

      .cls-2 {
        fill: #fdd442;
      }

      .cls-3 {
        fill: #ea2176;
      }

      .cls-4 {
        fill: #fff;
      }

      .cls-5 {
        fill: #ff5a76;
      }

      .cls-6 {
        fill: #ff7752;
      }

      .cls-7 {
        fill: #fed53d;
      }

      .cls-8 {
        fill: #fcfcfc;
        opacity: .2;
      }

      .cls-9 {
        opacity: .3;
      }

      .cls-10 {
        opacity: .5;
      }
    </style>
  </defs>
  <ellipse class="cls-1" cx="100.43" cy="149.87" rx="61.47" ry="2.4"/>
  <g>
    <rect class="cls-5" x="48.99" y="71.8" width="100.54" height="77.42" rx="8.06" ry="8.06"/>
    <g>
      <path class="cls-3" d="M149.53,79.86c0-4.94-4.21-8.08-7.63-8.08l-84.84,.02c-4.44,0-8.06,3.63-8.06,8.06v.87h100.54v-.87Z"/>
      <path class="cls-3" d="M48.99,139.97v1.19c0,4.44,3.63,8.06,8.06,8.06h84.41c4.44,0,8.06-3.63,8.06-8.06v-1.19H48.99Z"/>
    </g>
    <g class="cls-9">
      <path d="M48.99,105.78h35.85v9.57c0,4.07-3.3,7.36-7.36,7.36h-28.49v-16.93Z"/>
    </g>
    <rect class="cls-3" x="41.67" y="99.63" width="43.28" height="21.16" rx="6.41" ry="6.41"/>
    <circle class="cls-5" cx="71.96" cy="109.94" r="7.69" transform="translate(-1.81 1.21) rotate(-.95)"/>
    <g class="cls-10">
      <path class="cls-4" d="M121.96,80.59c-.06-.06-.14-.1-.23-.1h-3.48c-.18,0-.33,.15-.33,.33,0,.11,.06,.21,.14,.27,.05,.04,.12,.06,.19,.06h3.47c.18,0,.33-.15,.33-.33,0-.1-.04-.18-.11-.24Z"/>
      <path class="cls-4" d="M107.84,80.51h-3.48c-.18,0-.33,.15-.33,.33s.15,.33,.33,.33h3.48c.18,0,.33-.15,.33-.33s-.15-.33-.33-.33Z"/>
      <path class="cls-4" d="M114.79,80.51h-3.48c-.18,0-.33,.15-.33,.33s.15,.33,.33,.33h3.48c.18,0,.33-.15,.33-.33s-.15-.33-.33-.33Z"/>
      <path class="cls-4" d="M86.99,80.51h-3.48c-.18,0-.33,.15-.33,.33s.15,.33,.33,.33h3.48c.18,0,.33-.15,.33-.33s-.15-.33-.33-.33Z"/>
      <path class="cls-4" d="M100.89,80.51h-3.48c-.18,0-.33,.15-.33,.33s.15,.33,.33,.33h3.48c.18,0,.33-.15,.33-.33s-.15-.33-.33-.33Z"/>
      <path class="cls-4" d="M52.26,80.51h-3.27v.65h3.27c.17,0,.31-.15,.31-.33s-.14-.33-.31-.33Z"/>
      <path class="cls-4" d="M59.19,80.51h-3.47c-.18,0-.33,.15-.33,.33s.15,.33,.33,.33h3.47c.18,0,.33-.15,.33-.33s-.15-.33-.33-.33Z"/>
      <path class="cls-4" d="M80.04,80.51h-3.48c-.18,0-.33,.15-.33,.33s.15,.33,.33,.33h3.48c.18,0,.33-.15,.33-.33s-.15-.33-.33-.33Z"/>
      <path class="cls-4" d="M66.14,80.51h-3.48c-.18,0-.33,.15-.33,.33s.15,.33,.33,.33h3.48c.18,0,.33-.15,.33-.33s-.15-.33-.33-.33Z"/>
      <path class="cls-4" d="M73.09,80.51h-3.47c-.18,0-.33,.15-.33,.33s.15,.33,.33,.33h3.47c.18,0,.33-.15,.33-.33s-.15-.33-.33-.33Z"/>
      <path class="cls-4" d="M93.94,80.51h-3.47c-.18,0-.33,.15-.33,.33s.15,.33,.33,.33h3.47c.18,0,.33-.15,.33-.33s-.15-.33-.33-.33Z"/>
      <path class="cls-4" d="M135.63,80.5h-3.47c-.18,0-.33,.15-.33,.33s.15,.33,.33,.33h3.47c.18,0,.33-.15,.33-.33s-.15-.33-.33-.33Z"/>
      <path class="cls-4" d="M128.68,80.5h-3.47c-.18,0-.33,.15-.33,.33s.15,.33,.33,.33h3.47c.18,0,.33-.15,.33-.33s-.15-.33-.33-.33Z"/>
      <path class="cls-4" d="M142.58,80.5h-3.48c-.18,0-.33,.15-.33,.33s.15,.33,.33,.33h3.48c.18,0,.33-.15,.33-.33s-.15-.33-.33-.33Z"/>
      <path class="cls-4" d="M149.53,80.5h-3.48c-.18,0-.33,.15-.33,.33s.15,.33,.33,.33h3.48v-.65Z"/>
    </g>
    <g class="cls-10">
      <path class="cls-4" d="M121.96,139.69c-.06-.06-.14-.1-.23-.1h-3.48c-.18,0-.33,.15-.33,.33,0,.11,.06,.21,.14,.27,.05,.04,.12,.06,.19,.06h3.47c.18,0,.33-.15,.33-.33,0-.1-.04-.18-.11-.24Z"/>
      <path class="cls-4" d="M107.84,139.6h-3.48c-.18,0-.33,.15-.33,.33s.15,.33,.33,.33h3.48c.18,0,.33-.15,.33-.33s-.15-.33-.33-.33Z"/>
      <path class="cls-4" d="M114.79,139.6h-3.48c-.18,0-.33,.15-.33,.33s.15,.33,.33,.33h3.48c.18,0,.33-.15,.33-.33s-.15-.33-.33-.33Z"/>
      <path class="cls-4" d="M86.99,139.6h-3.48c-.18,0-.33,.15-.33,.33s.15,.33,.33,.33h3.48c.18,0,.33-.15,.33-.33s-.15-.33-.33-.33Z"/>
      <path class="cls-4" d="M100.89,139.6h-3.48c-.18,0-.33,.15-.33,.33s.15,.33,.33,.33h3.48c.18,0,.33-.15,.33-.33s-.15-.33-.33-.33Z"/>
      <path class="cls-4" d="M52.26,139.6h-3.27v.65h3.27c.17,0,.31-.15,.31-.33s-.14-.33-.31-.33Z"/>
      <path class="cls-4" d="M59.19,139.6h-3.47c-.18,0-.33,.15-.33,.33s.15,.33,.33,.33h3.47c.18,0,.33-.15,.33-.33s-.15-.33-.33-.33Z"/>
      <path class="cls-4" d="M80.04,139.6h-3.48c-.18,0-.33,.15-.33,.33s.15,.33,.33,.33h3.48c.18,0,.33-.15,.33-.33s-.15-.33-.33-.33Z"/>
      <path class="cls-4" d="M66.14,139.6h-3.48c-.18,0-.33,.15-.33,.33s.15,.33,.33,.33h3.48c.18,0,.33-.15,.33-.33s-.15-.33-.33-.33Z"/>
      <path class="cls-4" d="M73.09,139.6h-3.47c-.18,0-.33,.15-.33,.33s.15,.33,.33,.33h3.47c.18,0,.33-.15,.33-.33s-.15-.33-.33-.33Z"/>
      <path class="cls-4" d="M93.94,139.6h-3.47c-.18,0-.33,.15-.33,.33s.15,.33,.33,.33h3.47c.18,0,.33-.15,.33-.33s-.15-.33-.33-.33Z"/>
      <path class="cls-4" d="M135.63,139.59h-3.47c-.18,0-.33,.15-.33,.33s.15,.33,.33,.33h3.47c.18,0,.33-.15,.33-.33s-.15-.33-.33-.33Z"/>
      <path class="cls-4" d="M128.68,139.59h-3.47c-.18,0-.33,.15-.33,.33s.15,.33,.33,.33h3.47c.18,0,.33-.15,.33-.33s-.15-.33-.33-.33Z"/>
      <path class="cls-4" d="M142.58,139.59h-3.48c-.18,0-.33,.15-.33,.33s.15,.33,.33,.33h3.48c.18,0,.33-.15,.33-.33s-.15-.33-.33-.33Z"/>
      <path class="cls-4" d="M149.53,139.59h-3.48c-.18,0-.33,.15-.33,.33s.15,.33,.33,.33h3.48v-.65Z"/>
    </g>
  </g>
  <g>
    <g>
      <path class="cls-2" d="M112.98,88.51c-11.41-1.18-19.7-11.38-18.52-22.79,1.18-11.41,11.38-19.7,22.79-18.52,11.41,1.18,19.7,11.38,18.52,22.79-1.18,11.41-11.38,19.7-22.79,18.52Z"/>
      <path class="cls-6" d="M98.41,66.13c.95-9.21,9.22-15.93,18.43-14.97,9.21,.95,15.93,9.22,14.97,18.43-.95,9.21-9.22,15.93-18.43,14.97-9.21-.95-15.93-9.22-14.97-18.43Zm30.76,3.18c.8-7.75-4.85-14.72-12.61-15.52-7.75-.8-14.72,4.85-15.52,12.61-.8,7.75,4.85,14.72,12.61,15.52,7.75,.8,14.72-4.85,15.52-12.61Z"/>
      <path class="cls-8" d="M113.66,81.92c-7.77-.8-13.41-7.75-12.61-15.52,.8-7.77,7.75-13.41,15.52-12.61s13.41,7.75,12.61,15.52c-.8,7.77-7.75,13.41-15.52,12.61Z"/>
    </g>
    <path class="cls-6" d="M117.73,61.63c-.09-.03-.19-.01-.28,.04l-1.7,.96c-.42-.49-.9-.84-1.44-1.07l2.31-1.3c.09-.05,.15-.12,.18-.22,.03-.09,.01-.19-.04-.28l-.57-1.01c-.05-.09-.12-.15-.22-.18-.09-.03-.19-.01-.28,.04l-8.26,4.66c-.09,.05-.15,.13-.18,.22-.03,.09-.01,.19,.04,.28l.74,1.32c.05,.09,.12,.14,.22,.17s.19,.02,.28-.03l1.44-.81c1.4-.79,2.49-.91,3.29-.38l-4.1,2.31c-.09,.05-.15,.12-.18,.22-.03,.09-.01,.19,.04,.28l.57,1.01c.05,.09,.12,.15,.22,.18,.09,.03,.19,.01,.28-.04l4.24-2.39c.16,.62,.05,1.23-.32,1.82-.37,.59-.99,1.12-1.87,1.62l-1.11,.63c-.09,.05-.14,.12-.17,.22-.03,.1-.02,.19,.03,.28l.71,1.26c.05,.09,.12,.14,.21,.17,2.03,.63,4.75,1.59,8.14,2.88,.1,.05,.21,.04,.32-.02l1.94-1.09c.14-.08,.2-.19,.19-.34,0-.16-.08-.26-.23-.32-3.27-1.28-5.79-2.2-7.56-2.75,1.05-.77,1.76-1.65,2.12-2.64,.37-.99,.36-2.01-.03-3.05l1.67-.94c.09-.05,.15-.12,.18-.22,.03-.09,.01-.19-.04-.28l-.57-1.01c-.05-.09-.13-.15-.22-.18Z"/>
  </g>
  <g>
    <rect class="cls-7" x="96.12" y="141.55" width="41.93" height="9.76" rx="3.29" ry="3.29"/>
    <rect class="cls-7" x="96.98" y="128.79" width="41.93" height="9.76" rx="3.29" ry="3.29"/>
    <rect class="cls-7" x="96.12" y="116.02" width="41.93" height="9.76" rx="3.29" ry="3.29"/>
    <rect class="cls-7" x="94.38" y="103.26" width="41.93" height="9.76" rx="3.29" ry="3.29"/>
    <rect class="cls-7" x="95.25" y="90.49" width="41.93" height="9.76" rx="3.29" ry="3.29"/>
  </g>
</svg>