<?xml version="1.0" encoding="UTF-8"?>
<svg id="Layer_1" data-name="Layer 1" xmlns="http://www.w3.org/2000/svg" viewBox="0 0 200 200">
  <defs>
    <style>
      .cls-1 {
        fill: #ec1f78;
      }

      .cls-2 {
        fill: #ff9f2c;
      }

      .cls-3 {
        fill: #fff;
      }

      .cls-4 {
        fill: #e82374;
      }

      .cls-5 {
        fill: #fecb30;
      }
    </style>
  </defs>
  <path class="cls-1" d="M157.33,158.77H40.15V41.74h117.19v117.04Zm-114.74-2.45h112.29V44.19H42.6v112.13Z"/>
  <rect class="cls-3" x="153.17" y="51.95" width="7.14" height="93.71"/>
  <rect class="cls-3" x="37.8" y="51.95" width="7.14" height="93.71"/>
  <rect class="cls-3" x="52.72" y="39.15" width="94.18" height="8.23"/>
  <rect class="cls-3" x="52.72" y="153.43" width="94.18" height="8.23"/>
  <rect class="cls-5" x="49.21" y="64.45" width="101.02" height="65.58" rx="10.2" ry="10.2"/>
  <path class="cls-2" d="M73.47,114l-1.65-.06c-5.47-.21-9.8-5.25-9.61-11.21l.18-5.6c.19-5.96,4.83-10.66,10.3-10.45l1.65,.06c5.47,.21,9.8,5.25,9.61,11.21l-.18,5.6c-.19,5.96-4.83,10.66-10.3,10.45Z"/>
  <path class="cls-1" d="M62.16,101.58s-6.87-18.7,14.5-17.06c3.1,.24,2.11-5.09,7-5.01,4.89,.08,5.95,9.97,1.5,12.6-4.45,2.63-16.38,.19-19.63,3.56-3.25,3.37-3.37,5.9-3.37,5.9Z"/>
  <path class="cls-1" d="M77.59,105c-.99,0-1.91-.41-2.61-1.16-.69-.74-1.07-1.71-1.08-2.75v-.53c-.02-2.17,1.62-3.95,3.65-3.97h.49s.02,0,.03,0c.93,0,1.81,.37,2.49,1.04,.75,.74,1.18,1.78,1.19,2.87v.53c.02,2.17-1.62,3.95-3.65,3.97h-.49s-.02,0-.03,0Zm.49-6.95h-.5c-1.22,.01-2.21,1.13-2.2,2.49v.53c0,.67,.25,1.3,.68,1.76,.42,.45,.99,.65,1.55,.69h.49c1.22-.01,2.21-1.13,2.2-2.49v-.53c0-.7-.28-1.37-.75-1.83-.4-.4-.92-.62-1.46-.62Z"/>
  <path class="cls-1" d="M68.17,105.14c-.93,0-1.81-.37-2.5-1.04-.75-.74-1.18-1.78-1.19-2.87v-.53c-.02-2.17,1.62-3.95,3.65-3.97h.49s.02,0,.03,0c.93,0,1.81,.37,2.49,1.04,.75,.74,1.18,1.78,1.19,2.87v.53c.02,2.17-1.62,3.95-3.65,3.97h-.49s-.02,0-.03,0Zm.49-6.95h-.51c-1.22,.01-2.21,1.13-2.2,2.49v.53c0,.7,.28,1.37,.75,1.83,.41,.4,.92,.62,1.46,.62h.5c1.22-.01,2.21-1.13,2.2-2.49v-.53c0-.7-.28-1.37-.75-1.83-.4-.4-.92-.62-1.46-.62Z"/>
  <rect class="cls-1" x="71.6" y="99.05" width="3.04" height="1.47" transform="translate(-3.02 2.28) rotate(-1.75)"/>
  <path class="cls-1" d="M72.95,110.73c-1.12,0-2.28-.31-3.14-.87-.34-.22-.44-.68-.22-1.02,.22-.34,.67-.44,1.02-.22,1.38,.9,3.72,.83,4.39-.13,.23-.33,.69-.42,1.02-.18,.33,.23,.42,.69,.18,1.02-.67,.97-1.93,1.4-3.25,1.4Z"/>
  <g>
    <path class="cls-1" d="M104.65,85.8h-1.74v2.88c0,.41-.09,.73-.27,.94-.18,.21-.41,.32-.68,.32s-.52-.11-.69-.32-.26-.52-.26-.93v-7.86c0-.45,.1-.78,.29-.97,.19-.19,.5-.29,.91-.29h2.44c.72,0,1.27,.06,1.66,.18,.38,.12,.71,.31,.99,.58,.28,.27,.49,.6,.64,.99,.14,.39,.22,.83,.22,1.31,0,1.04-.29,1.83-.88,2.36-.59,.54-1.46,.8-2.63,.8Zm-.46-4.67h-1.28v3.11h1.28c.45,0,.82-.05,1.12-.15,.3-.1,.53-.27,.69-.5,.16-.23,.24-.54,.24-.91,0-.45-.12-.82-.36-1.1-.27-.3-.83-.45-1.68-.45Z"/>
    <path class="cls-1" d="M114.46,88.62l-.45-1.28h-3.81l-.45,1.31c-.17,.51-.32,.85-.45,1.03-.12,.18-.33,.27-.61,.27-.24,0-.45-.1-.63-.29-.18-.19-.27-.41-.27-.65,0-.14,.02-.28,.06-.43,.04-.15,.11-.35,.21-.62l2.4-6.62c.07-.19,.15-.42,.25-.69,.1-.27,.2-.49,.31-.66,.11-.18,.25-.32,.43-.43,.18-.11,.4-.16,.66-.16s.48,.05,.66,.16c.18,.11,.32,.25,.43,.42,.11,.17,.2,.36,.27,.55,.08,.2,.17,.46,.29,.79l2.45,6.58c.19,.5,.29,.86,.29,1.09s-.09,.45-.27,.65c-.18,.2-.4,.3-.66,.3-.15,0-.28-.03-.38-.09-.11-.06-.2-.14-.27-.24s-.15-.25-.23-.46-.15-.39-.21-.55Zm-3.76-2.83h2.8l-1.41-4.21-1.39,4.21Z"/>
    <path class="cls-1" d="M120.22,80.64l3.65,6.01v-6.06c0-.39,.08-.69,.23-.89,.16-.2,.37-.29,.63-.29s.49,.1,.64,.29c.16,.2,.24,.49,.24,.89v8.02c0,.89-.34,1.34-1.02,1.34-.17,0-.32-.03-.46-.08-.14-.05-.26-.14-.38-.25-.12-.12-.23-.25-.33-.41s-.2-.31-.31-.48l-3.56-5.94v5.97c0,.39-.08,.68-.25,.88s-.38,.3-.64,.3-.48-.1-.65-.3c-.16-.2-.24-.5-.24-.88v-7.86c0-.33,.03-.6,.1-.79,.08-.21,.22-.38,.4-.51,.19-.13,.39-.2,.61-.2,.17,0,.32,.03,.44,.09s.23,.14,.32,.24c.09,.1,.19,.23,.28,.4s.2,.33,.3,.51Z"/>
  </g>
  <path class="cls-4" d="M90.56,147.52c-1.02-7.83-.61-15.75,1.29-23.42l-2.69,.35c3.53,5.48,6.3,11.38,8.27,17.59,.41,1.3,2.52,1.49,2.84,0,1.05-4.9,1.83-9.85,2.37-14.84l-2.51,1.04c2.03,2,2.39,5.23,5.26,6.43,3.28,1.38,6.48-1.13,8.84-3.15,5.79-4.98,11.28-10.3,16.45-15.92,2.99-3.25,5.87-6.61,8.64-10.05,1.18-1.46-.89-3.55-2.08-2.08-5.63,6.98-11.7,13.59-18.21,19.76-1.64,1.56-3.31,3.08-5.01,4.58-1.5,1.33-3,2.83-4.79,3.75s-3.22,.52-4.27-1.21c-.87-1.44-1.52-2.98-2.75-4.19-.98-.97-2.38-.18-2.51,1.04-.51,4.72-1.27,9.41-2.26,14.06h2.84c-2.04-6.44-4.9-12.61-8.57-18.29-.66-1.02-2.37-.93-2.69,.35-1.96,7.91-2.45,16.12-1.4,24.2,.1,.79,.6,1.46,1.47,1.47,.72,0,1.57-.68,1.47-1.47h0Z"/>
  <rect class="cls-4" x="98.16" y="131.48" width="43.89" height="2.94" transform="translate(-57.97 113.21) rotate(-41.58)"/>
  <path class="cls-1" d="M100.3,99.46h26.44c.34,0,.62-.3,.62-.67h0c0-.37-.28-.67-.62-.67h-26.44c-.34,0-.62,.3-.62,.67h0c0,.37,.28,.67,.62,.67Z"/>
  <path class="cls-1" d="M100.17,106.04h20.71c.27,0,.48-.3,.48-.67h0c0-.37-.22-.67-.48-.67h-20.71c-.27,0-.48,.3-.48,.67h0c0,.37,.22,.67,.48,.67Z"/>
</svg>