<?xml version="1.0" encoding="UTF-8"?>
<svg id="Layer_1" data-name="Layer 1" xmlns="http://www.w3.org/2000/svg" xmlns:xlink="http://www.w3.org/1999/xlink" viewBox="0 0 200 200">
  <defs>
    <style>
      .cls-1, .cls-2, .cls-3, .cls-4 {
        fill: none;
      }

      .cls-5 {
        clip-path: url(#clippath);
      }

      .cls-2 {
        stroke: #ef847b;
        stroke-miterlimit: 10;
        stroke-width: .4px;
      }

      .cls-6 {
        fill: #ea2176;
      }

      .cls-7 {
        fill: #fcc93b;
      }

      .cls-8 {
        fill: #ff5a72;
      }

      .cls-3, .cls-4 {
        stroke: #fff;
        stroke-linecap: round;
        stroke-linejoin: round;
        stroke-width: 2.8px;
      }

      .cls-3, .cls-9 {
        opacity: .3;
      }

      .cls-4 {
        opacity: .5;
      }

      .cls-9, .cls-10 {
        fill: #8e4f4c;
      }

      .cls-10 {
        opacity: .35;
      }
    </style>
    <clipPath id="clippath">
      <path class="cls-1" d="M156.34,90.33c0,12.94-10.49,23.43-23.43,23.43-4.22,0-8.18-1.12-11.6-3.07-7.06-4.03-11.82-11.64-11.82-20.36,0-12.94,10.49-23.43,23.43-23.43s23.43,10.49,23.43,23.43Z"/>
    </clipPath>
  </defs>
  <path class="cls-2" d="M101.29,112.81c-1.78,12.11,13.24,30.69,4.36,46.14"/>
  <circle class="cls-8" cx="97.83" cy="90.12" r="23.32"/>
  <path class="cls-7" d="M156.03,88.42c1.08,12.84-8.46,24.11-21.3,25.19-4.19,.35-8.21-.43-11.77-2.08-7.34-3.42-12.7-10.57-13.42-19.21-1.08-12.84,8.46-24.11,21.3-25.19,12.84-1.08,24.11,8.46,25.19,21.3Z"/>
  <path class="cls-3" d="M114.54,89.31c.07-10.23,8.43-18.47,18.66-18.4"/>
  <path class="cls-2" d="M105.65,158.95c.45-19.21,4.24-36.72,17.32-47.42"/>
  <path class="cls-2" d="M106.89,96.72c5.43,25.29-9.75,46.25-1.24,62.23"/>
  <path class="cls-6" d="M107.31,96.29c-.31-.01-.62-.03-.93-.04-.55-.02-1.15-.03-1.58,.33-.26,.22-.41,.55-.55,.87-.07,.18-.14,.39-.03,.55,.07,.09,.17,.13,.28,.17,.15,.05,.31,.11,.47,.08,.28-.05,.44-.32,.61-.55,.16-.23,.43-.45,.7-.35,.1,.25,.09,.53,.17,.78,.09,.25,.35,.49,.6,.39,.1-.24,.19-.49,.29-.73,.03-.07,.05-.13,.11-.18,.13-.11,.35-.02,.45,.13,.1,.14,.15,.32,.26,.45,.11,.13,.35,.19,.45,.05,.15-.54-.18-1.08-.5-1.55-.07-.1-.14-.2-.23-.26-.16-.12-.37-.13-.57-.14Z"/>
  <path class="cls-7" d="M121.08,112.3c.49,.16,.88-.68,1.38-.57,.01,.49,.02,.98,.04,1.47,0,.04,0,.09,.03,.13,.04,.06,.13,.06,.2,.03,.19-.07,.29-.26,.43-.4,.14-.14,.4-.22,.51-.06,.05,.07,.05,.17,.09,.25,.1,.16,.37,.12,.48-.04,.11-.16,.09-.37,.05-.55-.23-1.02-1.18-1.83-2.23-1.9-.12,0-.24,0-.34,.07-.06,.04-.1,.11-.13,.17-.25,.43-.51,.89-.51,1.4Z"/>
  <path class="cls-8" d="M100.64,112.65c-.22,0-.45,.06-.62,.21-.08,.08-.14,.18-.19,.28-.23,.44-.33,.95-.31,1.45,0,.11,.03,.23,.11,.3,.15,.12,.39,0,.47-.18,.09-.17,.09-.38,.16-.56,.07-.18,.27-.34,.44-.27,0,.17-.01,.35,.07,.5,.08,.15,.27,.26,.42,.19,0-.29,.06-.66,.34-.7,.16,.44,.36,.94,.8,1.1,.14,.05,.32,.05,.41-.06,.06-.08,.06-.18,.06-.28-.06-1.08-1.08-2.02-2.16-1.99Z"/>
  <g class="cls-5">
    <circle class="cls-9" cx="112.97" cy="74.93" r="20.36" transform="translate(1.1 151.49) rotate(-67.94)"/>
  </g>
  <circle class="cls-6" cx="106.1" cy="73.41" r="23.32" transform="translate(-21.28 52.92) rotate(-25.54)"/>
  <path class="cls-4" d="M87.04,74.34c-.85-10.2,6.72-19.16,16.92-20.01"/>
  <path class="cls-10" d="M97.68,83.21c1.04,12.4-8.17,23.3-20.57,24.34-12.4,1.04-23.3-8.17-24.34-20.57,25.3,2.06,31.74-22.42,31.74-22.42,7.2,3.26,12.47,10.22,13.18,18.66Z"/>
  <path class="cls-2" d="M79.48,107.23c23.69,20.85,25.96,51.61,25.96,51.61"/>
  <path class="cls-7" d="M81.1,107.43c-.04-.27,.2-.54,.47-.52,.15,0,.29,.09,.44,.12,.15,.03,.34-.03,.36-.18,0-.21-.14-.41-.32-.52-.18-.11-.4-.14-.62-.15-1.26-.05-2.4,.68-3.45,1.38-.12,.08-.24,.16-.31,.28-.08,.14-.09,.31-.09,.48,0,.27,0,.54-.01,.82,.27,.19,.64,0,.85-.25,.21-.25,.35-.57,.62-.75,.47-.32,1.1-.12,1.67-.13,.18,0,.41-.07,.44-.25,.02-.11-.03-.21-.05-.32Z"/>
  <circle class="cls-7" cx="69.83" cy="85.99" r="23.32" transform="translate(-35.57 120.07) rotate(-68.84)"/>
  <path class="cls-4" d="M53.56,95.56c-5.3-8.76-2.49-20.15,6.26-25.45"/>
</svg>