<?xml version="1.0" encoding="UTF-8"?>
<svg id="Layer_1" data-name="Layer 1" xmlns="http://www.w3.org/2000/svg" viewBox="0 0 200 200">
  <defs>
    <style>
      .cls-1 {
        fill: #ec1f78;
      }

      .cls-2 {
        fill: #fff;
      }

      .cls-3 {
        fill: #fecb30;
      }

      .cls-4 {
        fill: #dfdcff;
      }
    </style>
  </defs>
  <g>
    <path class="cls-1" d="M127.81,154.34h0c.98-18.27-4.18-29.35-4.18-29.35-3.04-3.76-10.41-5.11-10.41-5.11-5.53-1.69-10.55-3.62-12.25-4.75-1.57,1.77-3.47,4.06-7.1,5.35,0,0-.08-2.39-1.74-5.17l-1.66-.54-1.66,.54c-1.66,2.78-1.11,5.29-1.11,5.29-3.64-1.29-6.16-3.69-7.73-5.46-1.7,1.13-6.72,3.06-12.25,4.75,0,0-7.37,1.35-10.4,5.11,0,0-4.18,3.36-4.18,29.34h0s74.65,.01,74.65,.01Z"/>
    <polygon class="cls-3" points="99.19 112.99 99.19 105.96 90.48 106.22 81.77 105.96 81.77 112.99 90.48 115.05 99.19 112.99"/>
    <g>
      <path class="cls-2" d="M93.64,119.33c-.13-.76-.49-2.27-1.51-3.61l-.08-.11-1.06-.27,8.06-1.91,1.38,1.59c-.13,.12-.3,.28-.51,.47-1.22,1.08-3.61,2.97-6.27,3.84Zm-6.33,0c-2.66-.87-5.05-2.75-6.28-3.84-.21-.19-.38-.34-.51-.46l1.38-1.59,8.05,1.91-1.06,.27-.08,.11c-1.01,1.34-1.38,2.85-1.5,3.61Z"/>
      <path class="cls-4" d="M82.06,113.88l6.5,1.54-.05,.07c-.88,1.17-1.3,2.46-1.49,3.32-2.42-.9-4.58-2.61-5.71-3.61-.08-.07-.15-.14-.22-.2l.97-1.12m16.84,0l.97,1.12c-.07,.06-.14,.13-.22,.2-1.13,1-3.28,2.71-5.71,3.61-.19-.86-.61-2.15-1.49-3.32l-.05-.07,6.5-1.54m.29-.89l-8.71,2.06-8.71-2.06-1.79,2.06s.29,.3,.79,.74c1.27,1.13,3.94,3.24,6.88,4.06,0,0,.15-2.11,1.49-3.89l1.34-.34,1.34,.34c1.34,1.77,1.49,3.89,1.49,3.89,2.94-.82,5.6-2.93,6.87-4.06,.5-.44,.79-.74,.79-.74l-1.79-2.06h0Z"/>
    </g>
  </g>
  <path class="cls-3" d="M138.37,51.57h-2v1.99h2v-1.99h0Zm-3.99,0h-1.99v1.99h1.99v-1.99h0Zm-3.99,0h-2v1.99h2v-1.99h0Zm-3.99,0h-1.99v1.99h1.99v-1.99h0Zm-3.99,0h-2v1.99h2v-1.99h0Zm-3.99,0h-1.99v1.99h1.99v-1.99h0Zm-3.99,0h-2v1.99h2v-1.99h0Zm-3.99,0h-2v1.99h2v-1.99h0Zm-3.99,0h-2v1.99h2v-1.99h0Zm-3.99,0h-2v1.99h2v-1.99h0Zm-3.99,0h-2v1.99h2v-1.99h0Zm-3.99,0h-2v1.99h2v-1.99h0Zm-3.99,0h-2v1.99h2v-1.99h0Zm-3.99,0h-2v1.99h2v-1.99h0Zm-3.99,0h-1.99v1.99h1.99v-1.99h0Zm-3.99,0h-2v1.99h2v-1.99h0Zm-3.99,0h-1.99v1.99h1.99v-1.99h0Zm-3.99,0h-2v1.99h2v-1.99h0Zm-3.99,0h-2v1.99h2v-1.99h0Zm-3.99,0h-2v1.99h2v-1.99h0Zm-3.99,0h-2v1.99h2v-1.99h0Zm-3.99,0h-2v1.99h2v-1.99h0Zm-3.99,0h-2v1.99h2v-1.99h0Zm-3.99,0h-2v1.99h2v-1.99h0Zm-3.99,0h-.01s0,0,0,0h0s0,0,0,0h0s0,0,0,0h0s0,0,0,0h0s0,0,0,0h0s0,0,0,0h0s0,0,0,0h0c-.07,0-.14,0-.2,.02l.26,1.98h0v-2h0Zm0,2.85h-2v1.99h2v-1.99h0Zm0,3.99h-2v1.99h2v-1.99h0Zm0,3.99h-2v2h2v-2h0Zm0,3.99h-2v2h2v-2h0Zm0,3.99h-2v2h2v-2h0Zm0,3.99h-2v2h2v-2h0Zm0,3.99h-2v2h2v-2h0Zm0,3.99h-2v2h2v-2h0Zm0,3.99h-2v2h2v-2h0Zm0,3.99h-2v1.99h2v-1.99h0Zm0,3.99h-2v1.99h2v-1.99h0Zm0,3.99h-2v1.99h2v-1.99h0Zm0,3.99h-2v1.99h2v-1.99h0Zm0,3.99h-2v1.99h2v-1.99h0Zm0,3.99h-2v2h2v-2h0Zm0,3.99h-2v2h2v-2h0Zm0,3.99h-2v2h2v-2h0Zm0,3.99h-2v2h2v-2h0Zm0,3.99h-2v2h2v-2h0Zm0,3.99h-2v2h2v-2h0Zm0,3.99h-2v2h2v-2h0Zm0,3.99h-2v2h2v-2h0Zm0,3.99h-2v1.99h2v-1.99h0Zm0,2.69l-1.59,1.21c.15,.2,.34,.37,.55,.5,1.03,.29,1.19,.29,1.19,.29v-2h-.16s0,0,0,0h0Zm4.15,0h-2v2h2v-2h0Zm3.99,0h-2v2h2v-2h0Zm3.99,0h-2v2h2v-2h0Zm3.99,0h-2v2h2v-2h0Zm3.99,0h-2v2h2v-2h0Zm3.99,0h-1.99v2h1.99v-2h0Zm3.99,0h-2v2h2v-2h0Zm3.99,0h-1.99v2h1.99v-2h0Zm3.99,0h-2v2h2v-2h0Zm3.99,0h-1.99v2h1.99v-2h0Zm3.99,0h-2v2h2v-2h0Zm3.99,0h-2v2h2v-2h0Zm3.99,0h-2v2h2v-2h0Zm3.99,0h-2v2h2v-2h0Zm3.99,0h-2v2h2v-2h0Zm3.99,0h-2v2h2v-2h0Zm3.99,0h-2v2h2v-2h0Zm3.99,0h-2v2h2v-2h0Zm3.99,0h-1.99v2h1.99v-2h0Zm3.99,0h-2v2h2v-2h0Zm3.99,0h-1.99v2h1.99v-2h0Zm3.99,0h-2v2h2v-2h0Zm3.99,0h-1.99v2h1.99v-2h0Zm3.84,0l1.75,.94s0,0,0,0c0,0,0,0,0,0,0,0,0,0,0,0,0,0,0,0,0,0h0s0,0,0,0c0,0,0,0,0,0,0,0,0,0,0,0,0,0,0,0,0,0,0,0,0,0,0,0h0s0,0,0,0c0,0,0,0,0,0,0,0,0,0,0,0,0,0,0,0,0,0h0s0,0,0,0h0s0,0,0,0h0s0,0,0,0c.07-.14,.12-.28,.16-.44h0s0-.01,0-.02h0s0,0,0,0c0,0,0,0,0,0,0,0,0,0,0,0h0s0,0,0,0c0,0,0,0,0,0,0,0,0,0,0,0,0,0,0,0,0,0,0,0,0,0,0,0,0,0,0,0,0,0h0s0,0,0,0c0,0,0,0,0,0,0,0,0,0,0,0,0,0,0,0,0,0,0,0,0,0,0,0,0,0,0,0,0,0,0,0,0,0,0,0,0,0,0,0,0,0,0,0,0,0,0,0,0,0,0,0,0,0h0s0,0,0,0c0,0,0,0,0,0,0,0,0,0,0,0,0,0,0,0,0,0,0,0,0,0,0,0,0,0,0,0,0,0,0,0,0,0,0,0,0,0,0,0,0,0,0,0,0,0,0,0,0,0,0,0,0,0,0,0,0,0,0,0,0,0,0,0,0,0,0,0,0,0,0,0,0,0,0,0,0,0,0,0,0,0,0,0,0,0,0,0,0,0,0,0,0,0,0,0,0,0,0,0,0,0,0,0,0,0,0,0,0,0,0,0,0,0,0,0,0,0,0,0,0,0,0,0,0,0,0,0,0,0,0,0,0,0,0,0,0,0,0,0,0,0,0,0,0,0,0,0,0,0,0,0,0,0,0,0,0,0,0,0,0,0,0,0,0,0,0,0,0,0,0,0,0,0,0,0,0,0,0,0,0,0,0,0,0,0,0,0,0,0,0,0l-1.97-.26h0Zm1.98-1.02h-2v1.02h-1.84v2h1.84v-1.99h.01s0,0,0,0h1.99v-1.02h0Zm0-3.99h-2v2h2v-2h0Zm0-3.99h-2v2h2v-2h0Zm0-3.99h-2v1.99h2v-1.99h0Zm0-3.99h-2v1.99h2v-1.99h0Zm0-3.99h-2v1.99h2v-1.99h0Zm0-3.99h-2v1.99h2v-1.99h0Zm0-3.99h-2v2h2v-2h0Zm0-3.99h-2v2h2v-2h0Zm0-3.99h-2v2h2v-2h0Zm0-3.99h-2v2h2v-2h0Zm0-3.99h-2v2h2v-2h0Zm0-3.99h-2v2h2v-2h0Zm0-3.99h-2v1.99h2v-1.99h0Zm0-3.99h-2v2h2v-2h0Zm0-3.99h-2v1.99h2v-1.99h0Zm0-3.99h-2v1.99h2v-1.99h0Zm0-3.99h-2v1.99h2v-1.99h0Zm0-3.99h-2v1.99h2v-1.99h0Zm0-3.99h-2v1.99h2v-1.99h0Zm0-3.99h-2v2h2v-2h0Zm0-3.99h-2v2h2v-2h0Zm0-3.99h-2v2h2v-2h0Zm0-2.53h-2v.54h2v-.54h0Z"/>
  <rect class="cls-3" x="69.59" y="73.03" width="42.55" height="36.62" rx="18.31" ry="18.31" transform="translate(-3.6 178.95) rotate(-87.99)"/>
  <path class="cls-1" d="M72.34,93.27s-11.66-29.18,24.6-26.62c5.27,.37,3.58-7.94,11.89-7.82,8.3,.12,10.1,15.56,2.55,19.67-7.55,4.11-27.81,.3-33.32,5.56-5.52,5.26-5.72,9.21-5.72,9.21Z"/>
  <path class="cls-1" d="M97.41,98.06c-1.18,0-2.29-.46-3.14-1.29-.85-.84-1.32-1.96-1.33-3.15l-.02-3.08c-.02-2.46,1.97-4.49,4.44-4.5l3.09-.02h.03c1.18,0,2.29,.46,3.14,1.29,.85,.84,1.32,1.96,1.33,3.15l.02,3.08c.02,2.46-1.97,4.49-4.44,4.5l-3.09,.02h-.03Zm3.07-10.85h-.03l-3.09,.02c-1.8,.01-3.26,1.49-3.25,3.3l.02,3.08c0,.88,.35,1.69,.98,2.31s1.41,.96,2.32,.94l3.09-.02c1.8-.01,3.26-1.49,3.25-3.3l-.02-3.08c0-.88-.35-1.69-.98-2.31-.62-.61-1.43-.94-2.3-.94Z"/>
  <path class="cls-1" d="M81.42,98.29c-2.45,0-4.45-1.98-4.47-4.44l-.02-3.09c-.02-2.47,1.97-4.49,4.44-4.5l3.09-.02h.03c2.45,0,4.46,1.99,4.47,4.44l.02,3.08c.02,2.46-1.97,4.49-4.44,4.5l-3.09,.02h-.03Zm3.07-10.85h-.02l-3.09,.02c-1.8,.01-3.26,1.49-3.25,3.3l.02,3.09c.01,1.8,1.48,3.25,3.27,3.25h.02l3.09-.02c1.8-.01,3.26-1.49,3.25-3.3l-.02-3.08c-.01-1.8-1.48-3.25-3.27-3.25Z"/>
  <rect class="cls-1" x="88.35" y="89.88" width="5.16" height="1.2" transform="translate(-2.47 2.56) rotate(-1.59)"/>
  <circle class="cls-1" cx="82" cy="92.39" r="1.63"/>
  <circle class="cls-1" cx="98.56" cy="92.34" r="1.63"/>
  <path class="cls-1" d="M90.92,127.06h13.09c.09,0,.17-.1,.17-.22h0c0-.12-.08-.22-.17-.22h-13.09c-.09,0-.17,.1-.17,.22h0c0,.12,.08,.22,.17,.22Z"/>
  <path class="cls-1" d="M90.92,130.36h7.32c.09,0,.17-.1,.17-.22h0c0-.12-.08-.22-.17-.22h-7.32c-.09,0-.17,.1-.17,.22h0c0,.12,.08,.22,.17,.22Z"/>
  <path class="cls-1" d="M90.92,133.66h10.76c.09,0,.17-.1,.17-.22h0c0-.12-.08-.22-.17-.22h-10.76c-.09,0-.17,.1-.17,.22h0c0,.12,.08,.22,.17,.22Z"/>
  <path class="cls-1" d="M55.25,107.22c-.54,0-.98-.43-1-.97-.02-.55,.42-1.01,.97-1.03l6.92-.22c.55-.01,1.01,.41,1.03,.97,.02,.55-.42,1.01-.97,1.03l-6.92,.22h-.03Z"/>
  <path class="cls-1" d="M58.74,89.7c-.11,0-.21-.02-.32-.05l-8.78-2.96c-.52-.18-.8-.74-.63-1.26,.18-.52,.74-.8,1.26-.63l8.78,2.96c.52,.18,.8,.74,.63,1.26-.14,.42-.53,.68-.95,.68Z"/>
  <path class="cls-1" d="M125.71,104.37h-.03l-6.92-.22c-.55-.02-.98-.48-.97-1.03,.02-.55,.47-.97,1.03-.97l6.92,.22c.55,.02,.98,.48,.97,1.03-.02,.54-.46,.97-1,.97Z"/>
  <path class="cls-1" d="M122.22,86.85c-.42,0-.8-.26-.95-.68-.18-.52,.1-1.09,.63-1.26l8.78-2.96c.53-.17,1.09,.1,1.26,.63,.18,.52-.1,1.09-.63,1.26l-8.78,2.96c-.11,.04-.21,.05-.32,.05Z"/>
  <path class="cls-2" d="M97.18,102.58l-11.67,3.11s.78,3.89,6.81,2.33c0,0,5.25-1.94,4.86-5.45Z"/>
</svg>