<?xml version="1.0" encoding="UTF-8"?>
<svg id="Layer_1" data-name="Layer 1" xmlns="http://www.w3.org/2000/svg" viewBox="0 0 200 200">
  <defs>
    <style>
      .cls-1 {
        fill: #ec1f78;
      }

      .cls-2 {
        fill: #ff9f2c;
      }

      .cls-3 {
        fill: #fff;
      }

      .cls-4 {
        fill: #e82374;
      }

      .cls-5 {
        fill: #fecb30;
      }
    </style>
  </defs>
  <path class="cls-1" d="M153.36,162.37H34.37V43.54h118.99v118.84Zm-116.5-2.49h114.01V46.03H36.86v113.86Z"/>
  <rect class="cls-3" x="149.13" y="53.91" width="7.25" height="95.15"/>
  <rect class="cls-3" x="31.99" y="53.91" width="7.25" height="95.15"/>
  <rect class="cls-3" x="47.14" y="40.91" width="95.63" height="8.35"/>
  <rect class="cls-3" x="47.14" y="156.95" width="95.63" height="8.35"/>
  <path class="cls-5" d="M53.93,66.6h81.85c5.72,0,10.36,4.64,10.36,10.36v45.87c0,5.72-4.64,10.36-10.36,10.36H53.93c-5.72,0-10.36-4.64-10.36-10.36v-45.87c0-5.72,4.64-10.36,10.36-10.36Z"/>
  <path class="cls-1" d="M95.76,99.31h26.85c.35,0,.63-.31,.63-.68h0c0-.38-.28-.68-.63-.68h-26.85c-.35,0-.63,.31-.63,.68h0c0,.38,.28,.68,.63,.68Z"/>
  <path class="cls-1" d="M95.63,106h21.03c.27,0,.49-.31,.49-.68h0c0-.38-.22-.68-.49-.68h-21.03c-.27,0-.49,.31-.49,.68h0c0,.38,.22,.68,.49,.68Z"/>
  <g>
    <path class="cls-1" d="M100.47,91.44l-.34-.97h-2.9l-.34,.99c-.13,.39-.25,.65-.34,.79-.09,.14-.25,.2-.46,.2-.18,0-.34-.07-.48-.22-.14-.14-.21-.31-.21-.49,0-.11,.02-.21,.05-.33,.03-.11,.08-.27,.16-.47l1.82-5.03c.05-.14,.11-.32,.19-.52,.07-.2,.15-.37,.23-.5,.08-.13,.19-.24,.33-.32,.13-.08,.3-.12,.5-.12s.37,.04,.5,.12c.13,.08,.24,.19,.33,.32,.08,.13,.15,.27,.21,.42,.06,.15,.13,.35,.22,.6l1.86,5c.15,.38,.22,.66,.22,.83s-.07,.34-.21,.5c-.14,.15-.3,.22-.5,.22-.11,0-.21-.02-.29-.07s-.15-.1-.2-.18c-.06-.08-.11-.19-.18-.35-.06-.16-.12-.3-.16-.42Zm-2.86-2.15h2.13l-1.07-3.2-1.05,3.2Z"/>
    <path class="cls-1" d="M106.52,91.62v-.14c-.18,.22-.35,.4-.53,.54-.17,.14-.36,.25-.56,.32-.2,.07-.42,.11-.66,.11-.32,0-.61-.07-.88-.22s-.5-.36-.7-.63c-.2-.27-.35-.59-.45-.96-.1-.37-.15-.76-.15-1.19,0-.9,.2-1.61,.61-2.11s.94-.76,1.6-.76c.38,0,.71,.07,.97,.21s.52,.36,.77,.66v-2.13c0-.3,.05-.52,.16-.67,.11-.15,.26-.23,.46-.23s.36,.07,.46,.21c.11,.14,.16,.34,.16,.62v6.36c0,.28-.06,.48-.17,.62-.12,.14-.27,.21-.45,.21s-.33-.07-.45-.21c-.12-.14-.18-.35-.18-.61Zm-2.61-2.12c0,.39,.06,.72,.17,1,.11,.27,.27,.48,.46,.62,.2,.14,.41,.21,.64,.21s.45-.07,.64-.2c.19-.13,.35-.33,.46-.61s.17-.61,.17-1.02c0-.38-.06-.71-.17-.99-.12-.28-.27-.49-.47-.63s-.41-.22-.64-.22-.46,.08-.65,.22c-.19,.15-.34,.37-.45,.65s-.16,.61-.16,.97Z"/>
    <path class="cls-1" d="M112.64,91.62v-.14c-.18,.22-.35,.4-.53,.54-.17,.14-.36,.25-.56,.32-.2,.07-.42,.11-.66,.11-.32,0-.61-.07-.88-.22-.27-.15-.51-.36-.7-.63-.2-.27-.35-.59-.45-.96-.1-.37-.15-.76-.15-1.19,0-.9,.2-1.61,.61-2.11s.94-.76,1.6-.76c.38,0,.71,.07,.97,.21s.52,.36,.77,.66v-2.13c0-.3,.05-.52,.16-.67s.26-.23,.46-.23,.36,.07,.46,.21c.11,.14,.16,.34,.16,.62v6.36c0,.28-.06,.48-.17,.62-.12,.14-.27,.21-.45,.21s-.33-.07-.45-.21c-.12-.14-.18-.35-.18-.61Zm-2.61-2.12c0,.39,.06,.72,.17,1,.11,.27,.27,.48,.46,.62,.19,.14,.41,.21,.64,.21s.45-.07,.64-.2c.19-.13,.35-.33,.46-.61s.17-.61,.17-1.02c0-.38-.06-.71-.17-.99-.12-.28-.27-.49-.47-.63-.2-.15-.41-.22-.64-.22s-.46,.08-.65,.22c-.19,.15-.34,.37-.45,.65-.1,.28-.16,.61-.16,.97Z"/>
    <path class="cls-1" d="M116.44,90.36v1.21c0,.29-.06,.51-.19,.66-.13,.15-.29,.22-.48,.22s-.35-.07-.47-.22c-.12-.15-.18-.37-.18-.66v-4.02c0-.65,.21-.97,.65-.97,.22,0,.38,.08,.48,.23,.1,.15,.15,.38,.16,.67,.16-.3,.32-.52,.49-.67s.39-.23,.67-.23,.55,.08,.81,.23c.26,.15,.39,.35,.39,.6,0,.18-.06,.32-.17,.44-.11,.12-.23,.17-.36,.17-.05,0-.17-.03-.35-.1-.19-.06-.35-.1-.49-.1-.19,0-.35,.06-.48,.17-.12,.11-.22,.28-.29,.49-.07,.22-.12,.48-.14,.78-.03,.3-.04,.67-.04,1.1Z"/>
    <path class="cls-1" d="M122.84,89.86h-2.6c0,.33,.06,.62,.18,.87,.12,.25,.28,.44,.47,.57s.41,.19,.65,.19c.16,0,.3-.02,.43-.06,.13-.04,.26-.1,.38-.19,.12-.09,.24-.18,.34-.28s.24-.23,.4-.4c.07-.06,.17-.09,.29-.09,.14,0,.25,.04,.33,.12s.13,.2,.13,.34c0,.13-.05,.28-.14,.46-.09,.17-.24,.34-.42,.5-.19,.16-.43,.29-.71,.4s-.62,.16-.99,.16c-.85,0-1.52-.26-1.99-.79-.47-.53-.71-1.25-.71-2.15,0-.43,.06-.82,.17-1.19,.12-.36,.29-.68,.51-.94,.22-.26,.5-.46,.83-.6,.33-.14,.69-.21,1.09-.21,.52,0,.96,.12,1.33,.36,.37,.24,.65,.54,.83,.92,.18,.38,.28,.76,.28,1.15,0,.36-.1,.6-.29,.71-.19,.11-.46,.16-.81,.16Zm-2.6-.82h2.41c-.03-.49-.15-.86-.37-1.11-.21-.25-.49-.37-.84-.37s-.6,.12-.81,.37c-.21,.25-.34,.62-.39,1.1Z"/>
    <path class="cls-1" d="M129.22,90.56c0,.4-.09,.74-.27,1.02-.18,.28-.44,.5-.79,.64-.35,.15-.77,.22-1.27,.22s-.88-.08-1.22-.24c-.34-.16-.59-.36-.75-.59s-.24-.48-.24-.72c0-.16,.05-.29,.16-.41,.1-.11,.24-.17,.39-.17,.14,0,.25,.04,.32,.11,.07,.07,.15,.18,.21,.31,.14,.26,.3,.45,.49,.58s.45,.19,.78,.19c.27,0,.48-.06,.65-.19s.25-.28,.25-.44c0-.25-.09-.44-.26-.55-.18-.12-.47-.23-.87-.33-.46-.12-.83-.25-1.12-.39-.29-.14-.52-.31-.69-.54-.17-.22-.26-.5-.26-.82,0-.29,.08-.56,.24-.82,.16-.26,.39-.46,.7-.62s.68-.23,1.12-.23c.34,0,.65,.04,.93,.12,.27,.08,.5,.18,.69,.31,.18,.13,.32,.27,.42,.43,.1,.16,.14,.31,.14,.47,0,.17-.05,.3-.15,.41-.1,.11-.25,.16-.44,.16-.14,0-.25-.04-.35-.13s-.21-.21-.33-.38c-.1-.14-.22-.25-.35-.34-.14-.08-.32-.13-.55-.13s-.44,.06-.6,.17c-.16,.11-.24,.25-.24,.42,0,.15,.06,.28,.17,.37s.27,.18,.47,.24c.2,.06,.47,.14,.82,.23,.41,.11,.75,.24,1.01,.39,.26,.15,.46,.33,.59,.54,.13,.21,.2,.44,.2,.71Z"/>
    <path class="cls-1" d="M134.52,90.56c0,.4-.09,.74-.27,1.02-.18,.28-.44,.5-.79,.64s-.77,.22-1.27,.22-.88-.08-1.23-.24c-.34-.16-.59-.36-.75-.59s-.24-.48-.24-.72c0-.16,.05-.29,.16-.41,.1-.11,.23-.17,.39-.17,.14,0,.25,.04,.32,.11,.08,.07,.15,.18,.21,.31,.14,.26,.3,.45,.49,.58s.45,.19,.78,.19c.27,0,.48-.06,.65-.19,.17-.13,.25-.28,.25-.44,0-.25-.09-.44-.26-.55-.18-.12-.47-.23-.87-.33-.46-.12-.83-.25-1.12-.39s-.52-.31-.69-.54c-.17-.22-.26-.5-.26-.82,0-.29,.08-.56,.24-.82,.16-.26,.39-.46,.7-.62s.68-.23,1.12-.23c.34,0,.65,.04,.93,.12,.27,.08,.5,.18,.69,.31,.18,.13,.32,.27,.42,.43,.1,.16,.14,.31,.14,.47,0,.17-.05,.3-.15,.41-.1,.11-.25,.16-.44,.16-.14,0-.25-.04-.35-.13-.1-.08-.21-.21-.33-.38-.1-.14-.22-.25-.35-.34-.14-.08-.32-.13-.55-.13s-.44,.06-.6,.17c-.16,.11-.24,.25-.24,.42,0,.15,.06,.28,.17,.37,.12,.1,.27,.18,.47,.24s.47,.14,.82,.23c.41,.11,.75,.24,1.01,.39s.46,.33,.59,.54c.13,.21,.2,.44,.2,.71Z"/>
  </g>
  <rect class="cls-2" x="54.91" y="90.25" width="30.79" height="21.84" rx="4.98" ry="4.98"/>
  <path class="cls-1" d="M68.97,112.09h-7.61v-9.76c0-.66,.53-1.19,1.19-1.19h5.23c.66,0,1.19,.53,1.19,1.19v9.76Z"/>
  <path class="cls-1" d="M84.25,97.26h-27.68c-1.17,0-2.12-1.04-2.12-2.31l1.77-6.79c0-1.27,.96-2.31,2.12-2.31h24.14c1.17,0,2.12,1.04,2.12,2.31l1.77,6.79c0,1.27-.96,2.31-2.12,2.31Z"/>
  <rect class="cls-1" x="74.86" y="100.54" width="5.13" height="5.58"/>
  <path class="cls-4" d="M87.14,148.71c-1.04-7.95-.62-16,1.31-23.78l-2.73,.36c3.59,5.56,6.4,11.55,8.4,17.86,.42,1.32,2.55,1.51,2.88,0,1.07-4.98,1.86-10.01,2.4-15.07l-2.55,1.06c2.05,2.02,2.44,5.31,5.34,6.53,3.41,1.43,6.71-1.25,9.14-3.34,5.86-5.05,11.42-10.44,16.65-16.14,3-3.26,5.88-6.63,8.66-10.08,1.19-1.48-.9-3.61-2.11-2.11-5.69,7.06-11.83,13.75-18.42,19.99-1.59,1.51-3.21,2.99-4.85,4.45s-3.24,3.09-5.18,4.09-3.26,.55-4.34-1.23c-.89-1.46-1.55-3.03-2.79-4.25-.99-.98-2.42-.18-2.55,1.06-.51,4.8-1.29,9.56-2.3,14.27h2.88c-2.08-6.54-4.98-12.8-8.7-18.57-.67-1.04-2.41-.94-2.73,.36-1.99,8.03-2.49,16.37-1.42,24.57,.11,.81,.61,1.48,1.49,1.49,.73,0,1.6-.69,1.49-1.49h0Z"/>
  <rect class="cls-4" x="94.86" y="132.43" width="44.57" height="2.98" transform="translate(-59.36 111.48) rotate(-41.58)"/>
</svg>