<?xml version="1.0" encoding="UTF-8"?>
<svg id="Layer_1" data-name="Layer 1" xmlns="http://www.w3.org/2000/svg" viewBox="0 0 200 200">
  <defs>
    <style>
      .cls-1 {
        fill: #ec1f78;
      }

      .cls-2 {
        fill: #fff;
      }

      .cls-3 {
        fill: #f37928;
      }

      .cls-4 {
        fill: #fecb30;
      }

      .cls-5 {
        fill: #ff5a74;
      }

      .cls-6 {
        opacity: .2;
      }
    </style>
  </defs>
  <g class="cls-6">
    <ellipse cx="97.89" cy="143.57" rx="56.1" ry="2.73"/>
  </g>
  <path class="cls-5" d="M119.32,58.5h20.29c5.66,0,10.26,4.6,10.26,10.26h0c0,5.71-4.63,10.34-10.34,10.34h-20.2v-20.6h0Z"/>
  <path class="cls-1" d="M144.53,58.5c7.17,0-60.55,0-60.55,0-6.67,0-12.07,5.4-12.07,12.07v64.64c0,4.57,3.7,8.27,8.27,8.27h49.67c4.63,0,8.38-3.75,8.38-8.38V65.52s-.87-7.02,6.3-7.02Z"/>
  <path class="cls-5" d="M130.81,143.48h-62.82c-3.73,0-6.75-3.02-6.75-6.75v-2.56c0-3.56,2.89-6.44,6.44-6.44h49.16c3.56,0,6.44,2.89,6.44,6.44v2.56h0c.01,3.71,3.01,6.72,6.73,6.74h.79Z"/>
  <g>
    <rect class="cls-4" x="83.47" y="92.63" width="42.62" height="3.76" rx="1.88" ry="1.88"/>
    <path class="cls-4" d="M124.21,106.36h-38.86c-1.04,0-1.88-.84-1.88-1.88h0c0-1.04,.84-1.88,1.88-1.88h38.86c1.04,0,1.88,.84,1.88,1.88h0c0,1.04-.84,1.88-1.88,1.88Z"/>
    <path class="cls-4" d="M102.13,117.83h-16.78c-1.04,0-1.88-.84-1.88-1.88h0c0-1.04,.84-1.88,1.88-1.88h16.78c1.04,0,1.88,.84,1.88,1.88h0c0,1.04-.84,1.88-1.88,1.88Z"/>
  </g>
  <g>
    <path class="cls-2" d="M85.56,74.23v3.71l4.21-4.39c.2-.21,.38-.37,.52-.47s.33-.15,.57-.15c.31,0,.56,.09,.75,.27,.19,.18,.29,.4,.29,.66,0,.31-.16,.62-.48,.93l-2.61,2.47,3,4.3c.21,.3,.37,.56,.48,.78,.11,.22,.16,.44,.16,.65,0,.24-.09,.44-.28,.61-.19,.17-.44,.26-.75,.26-.3,0-.54-.06-.73-.19-.19-.13-.35-.3-.48-.51-.13-.21-.25-.4-.35-.58l-2.53-3.9-1.75,1.68v2.19c0,.44-.1,.77-.3,.99s-.46,.32-.78,.32c-.18,0-.36-.05-.53-.14-.17-.1-.3-.23-.39-.39-.07-.13-.11-.29-.12-.47s-.02-.44-.02-.77v-7.87c0-.43,.09-.76,.29-.97,.19-.22,.45-.32,.78-.32s.58,.11,.78,.32c.2,.21,.3,.54,.3,.98Z"/>
    <path class="cls-2" d="M96.56,82.57v-3.36l-2.58-4.01c-.23-.36-.39-.64-.48-.84-.09-.2-.14-.38-.14-.53,0-.25,.09-.46,.29-.63,.19-.18,.42-.27,.7-.27,.29,0,.52,.08,.67,.25,.15,.17,.38,.5,.68,.99l1.98,3.21,2-3.21c.12-.2,.22-.36,.3-.5,.08-.13,.17-.26,.27-.38,.1-.12,.21-.21,.33-.27s.27-.09,.44-.09c.27,0,.5,.09,.67,.26,.18,.18,.27,.38,.27,.61,0,.19-.05,.38-.14,.56-.09,.19-.25,.45-.47,.78l-2.65,4.06v3.36c0,.44-.1,.77-.3,.98-.2,.22-.46,.33-.77,.33s-.58-.11-.77-.32c-.2-.21-.3-.54-.3-.99Z"/>
    <path class="cls-2" d="M111.94,80.35c0,.34-.08,.7-.25,1.09s-.43,.78-.78,1.16c-.36,.38-.81,.68-1.37,.92-.55,.24-1.2,.35-1.93,.35-.56,0-1.07-.05-1.52-.16-.46-.11-.87-.27-1.25-.49s-.72-.52-1.03-.88c-.28-.33-.52-.7-.71-1.12s-.35-.85-.44-1.32c-.1-.47-.15-.96-.15-1.49,0-.85,.12-1.61,.37-2.29,.25-.67,.6-1.25,1.06-1.73,.46-.48,1-.84,1.62-1.09,.62-.25,1.28-.38,1.99-.38,.86,0,1.62,.17,2.29,.51s1.18,.76,1.54,1.27c.36,.5,.53,.98,.53,1.43,0,.25-.09,.46-.26,.65s-.38,.28-.63,.28c-.27,0-.48-.06-.62-.2-.14-.13-.29-.35-.46-.67-.28-.52-.61-.92-.99-1.18s-.84-.39-1.4-.39c-.88,0-1.58,.34-2.1,1-.52,.67-.78,1.62-.78,2.85,0,.82,.12,1.51,.35,2.05,.23,.55,.56,.95,.98,1.22,.42,.27,.92,.4,1.49,.4,.62,0,1.14-.15,1.56-.46,.43-.31,.75-.75,.96-1.35,.09-.28,.21-.51,.34-.68s.35-.26,.65-.26c.25,0,.47,.09,.66,.27,.18,.18,.27,.4,.27,.66Z"/>
  </g>
  <g>
    <path class="cls-4" d="M73.06,73.12l-24.64,.22c-3.66,.03-6.6,3.03-6.57,6.69l-.07,22.81c.03,3.66,3.03,6.6,6.68,6.57l24.64-.22c3.66-.03,6.6-3.03,6.57-6.68l.07-22.81c-.03-3.66-3.03-6.6-6.68-6.56Zm5.59,29.38c.02,2.46-1.53,4.62-3.87,5.38-.54,.18-1.11,.27-1.68,.27l-24.64,.22c-1.5,.01-2.91-.56-3.98-1.6-1.07-1.05-1.66-2.45-1.68-3.95l.26-2.18c.95-.67,1.89-1.3,2.82-1.91l.06-18.7c0-1.16,.69-2.14,1.75-2.48,.24-.08,.5-.12,.76-.12l24.64-.22c.68,0,1.31,.25,1.8,.72,.48,.47,.75,1.11,.76,1.78l-.02,7.95c2.02-.19,3.16-.14,3.16-.14l-.14,14.97Z"/>
    <path class="cls-1" d="M75.63,87.67l.02-7.95c0-.68-.27-1.31-.76-1.78-.48-.47-1.12-.73-1.8-.72l-24.64,.22c-.26,0-.52,.04-.76,.12-1.06,.34-1.76,1.32-1.75,2.48l-.06,18.7c13.1-8.52,24.46-10.58,29.74-11.06Z"/>
    <path class="cls-4" d="M75.58,102.48c0,1.16-.69,2.14-1.75,2.48-.24,.08-.5,.12-.76,.12l-24.64,.22c-1.4,.01-2.54-1.11-2.56-2.51v-4.07c-.92,.61-1.86,1.24-2.81,1.91l-.26,2.18c.01,1.49,.61,2.9,1.68,3.95,1.07,1.05,2.48,1.62,3.98,1.6l24.64-.22c.57,0,1.14-.1,1.68-.27,2.33-.76,3.89-2.92,3.87-5.38l.14-14.97s-1.14-.04-3.16,.14l-.05,14.81Z"/>
    <path class="cls-3" d="M48.43,105.31l24.64-.22c.26,0,.52-.04,.76-.12,1.06-.34,1.76-1.32,1.75-2.48l.05-14.81c-5.29,.48-16.64,2.54-29.74,11.06v4.07c0,1.39,1.15,2.52,2.54,2.51Z"/>
    <path class="cls-1" d="M48.43,105.31l24.64-.22c.26,0,.52-.04,.76-.12,1.06-.34,1.76-1.32,1.75-2.48l.05-14.81c-5.29,.48-16.64,2.54-29.74,11.06v4.07c0,1.39,1.15,2.52,2.54,2.51Z"/>
    <path class="cls-2" d="M72.01,89.53l-8.82,.14c-.17-.27-.38-.51-.62-.71l-.15-9.47c0-.63-.53-1.14-1.17-1.13-.63,0-1.14,.53-1.13,1.17l.14,8.83c-1.34,.25-2.35,1.42-2.33,2.83,.03,1.57,1.32,2.82,2.88,2.79,1.36-.02,2.48-1,2.74-2.29l8.49-.14c.52,0,.93-.47,.93-1.03,0-.56-.44-1-.96-1Zm-22,.16c-.82,.01-1.48,.69-1.46,1.51,.01,.82,.69,1.47,1.51,1.46,.82-.01,1.48-.69,1.46-1.51-.01-.82-.69-1.48-1.51-1.46Zm10.87,11.43c-.82,.01-1.48,.69-1.46,1.51,.01,.82,.69,1.48,1.51,1.46,.82-.01,1.48-.69,1.46-1.51-.01-.82-.69-1.48-1.51-1.46Z"/>
  </g>
</svg>