<?xml version="1.0" encoding="UTF-8"?>
<svg id="Layer_1" data-name="Layer 1" xmlns="http://www.w3.org/2000/svg" xmlns:xlink="http://www.w3.org/1999/xlink" viewBox="0 0 200 200">
  <defs>
    <style>
      .cls-1 {
        fill: none;
      }

      .cls-2 {
        clip-path: url(#clippath);
      }

      .cls-3 {
        fill: #fff;
      }

      .cls-4 {
        fill: #fcd346;
      }

      .cls-5 {
        fill: #e82374;
      }

      .cls-6 {
        fill: #ff5a74;
      }

      .cls-7 {
        fill: #b6eeff;
      }

      .cls-8 {
        opacity: .3;
      }

      .cls-9 {
        opacity: .4;
      }
    </style>
    <clipPath id="clippath">
      <rect class="cls-1" x="28.82" y="46.15" width="134.25" height="112.51"/>
    </clipPath>
  </defs>
  <g class="cls-2">
    <g>
      <g class="cls-9">
        <path class="cls-7" d="M148.83,107.85c0-2.67-2.16-4.83-4.83-4.83-.29,0-.58,.03-.86,.08,0-.03,0-.05,0-.08,0-1.77-1.43-3.2-3.2-3.2-1.47,0-2.71,1-3.08,2.35-.5-.54-1.18-.9-1.94-.99,.12-.53,.19-1.09,.19-1.66,0-4.1-3.32-7.42-7.42-7.42s-7.42,3.32-7.42,7.42c0,.07,0,.14,0,.21-.45-.14-.92-.21-1.41-.21-2.47,0-4.51,1.86-4.8,4.26-.15-.02-.3-.03-.46-.03-1.61,0-2.95,1.2-3.17,2.75-.32-.11-.67-.17-1.03-.17-1.77,0-3.2,1.43-3.2,3.2s1.43,3.2,3.2,3.2h34.99v-.04c2.49-.2,4.45-2.28,4.45-4.82Z"/>
      </g>
      <g class="cls-9">
        <path class="cls-7" d="M104.68,88.21c.46-.86,.72-1.83,.72-2.87,0-3.34-2.71-6.05-6.05-6.05-1.98,0-3.74,.95-4.85,2.43-.71-.46-1.55-.73-2.45-.73-1.91,0-3.54,1.19-4.19,2.87-.67-.7-1.61-1.14-2.66-1.14-1.51,0-2.81,.92-3.37,2.22-.61-.88-1.6-1.47-2.74-1.56,.1-.55,.16-1.12,.16-1.7,0-5.03-4.08-9.1-9.1-9.1s-9.1,4.08-9.1,9.1c0,.04,0,.08,0,.13-.39-.08-.8-.12-1.21-.12-3.34,0-6.05,2.71-6.05,6.05s2.71,6.05,6.05,6.05v.03h43.81c1.6,0,2.9-1.3,2.9-2.9,0-1.24-.78-2.3-1.87-2.71Z"/>
      </g>
      <g>
        <g>
          <path class="cls-6" d="M127.48,70.32c-8.19,3.24-14.99-.26-17.88-1.46,0,0-2.24,11.36-1.64,20.92,0,0,9.87,2.63,18.81-.61-6.15-2.68-7.85-8.96-7.85-8.96,0,0,9.25-6.2,8.56-9.89Z"/>
          <path class="cls-5" d="M107.94,89.77s1.9,.03,3.41-1.56l-1.08-5.01-2.41,3.28,.08,3.28Z"/>
          <path class="cls-5" d="M96.31,89.17c6.51-3.64,12.74-2.3,15.04-.96,0,0,3.59-8.39,.48-20.89,0,0-2.87-4.79-15.52-1.63,0,0,3.45,11.31,0,23.47Z"/>
        </g>
        <path class="cls-6" d="M95.7,104.03h0c-.36,0-.65-.29-.65-.65v-38.12c0-.36,.29-.65,.65-.65h0c.36,0,.65,.29,.65,.65v38.12c0,.36-.29,.65-.65,.65Z"/>
      </g>
      <path class="cls-4" d="M34.29,147.24s19.37-12.19,30.18-22.46c10.8-10.26,11.54-10.74,18.08-17.18,6.55-6.44,20.05-7.41,26.36,0,6.32,7.41,17.92,22.66,26.24,28.58s27.91,15.9,27.91,15.9l-88.36,3.08-40.41-7.91Z"/>
      <g>
        <circle class="cls-3" cx="32.13" cy="154.37" r="9.58" transform="translate(-125.49 149.93) rotate(-76.63)"/>
        <circle class="cls-3" cx="54.09" cy="158.01" r="17.42" transform="translate(-112.16 173.89) rotate(-76.56)"/>
        <circle class="cls-3" cx="77.3" cy="160.59" r="10.83"/>
        <circle class="cls-3" cx="99.55" cy="153.69" r="13.1" transform="translate(-74.42 210.85) rotate(-75.26)"/>
        <circle class="cls-3" cx="127.38" cy="154.88" r="15.75" transform="translate(-72.14 175.05) rotate(-56.34)"/>
        <circle class="cls-3" cx="150.47" cy="155.37" r="11.42"/>
        <circle class="cls-3" cx="171.04" cy="156.12" r="11.42"/>
        <circle class="cls-3" cx="187.2" cy="157.68" r="9.11" transform="translate(-9.06 303.93) rotate(-76.8)"/>
      </g>
      <g class="cls-8">
        <path class="cls-3" d="M169.21,157.75c.58-.81,.98-1.77,1.1-2.84,.37-3.3-2-6.27-5.3-6.65-.53-.06-1.05-.04-1.55,.03-.48-8.39-6.94-15.47-15.57-16.44-6.91-.78-13.34,2.56-16.83,8.07-1-.6-2.14-1-3.37-1.14-2.09-.24-4.08,.31-5.69,1.41-.64-3.57-3.55-6.46-7.35-6.89-2.76-.31-5.37,.75-7.12,2.65-2.63-3.11-6.55-5.29-11.09-5.81-5.57-.63-10.78,1.41-14.15,5.03-1.25-1.09-2.83-1.83-4.6-2.03-4.51-.51-8.6,2.65-9.27,7.11-1.34-1.68-3.33-2.85-5.63-3.11-2.37-.27-4.62,.48-6.33,1.89-.74-3.81-3.87-6.86-7.93-7.32-5-.56-9.51,3.03-10.07,8.03-.12,1.08-.05,2.15,.19,3.15-3.23-.28-6.12,2.06-6.49,5.31-.37,3.3,2,6.27,5.3,6.65,.16,.02,128.39,14.47,129.23,14.57,3.3,.37,6.27-2,6.65-5.3,.33-2.89-1.46-5.53-4.13-6.39Z"/>
      </g>
    </g>
    <path class="cls-3" d="M43.37,144.3c-6.82,5.54-18.39-5.09-18.39-5.09l4.9,19.44,20.89,2.09-7.41-16.44Z"/>
    <path class="cls-3" d="M136.76,142.23c6.11,3.98,11.92,1.58,13.71,1.72s-7.34,10.93-7.34,10.93c0,0-9.63-2.88-9.63-3.73s3.26-8.92,3.26-8.92Z"/>
  </g>
</svg>