<?xml version="1.0" encoding="UTF-8"?>
<svg width="1332px" height="1022px" viewBox="0 0 1332 1022" version="1.1" xmlns="http://www.w3.org/2000/svg" xmlns:xlink="http://www.w3.org/1999/xlink">
    <!-- Generator: Sketch 63.1 (92452) - https://sketch.com -->
    <title>Group 4</title>
    <desc>Created with Sketch.</desc>
    <g id="Page-1" stroke="none" stroke-width="1" fill="none" fill-rule="evenodd">
        <g id="Artboard" transform="translate(-450.000000, -163.000000)">
            <g id="Group-4" transform="translate(476.000000, 163.000000)">
                <g id="Group-2" transform="translate(0.000000, 185.000000)">
                    <rect id="Rectangle" stroke="#2A283A" stroke-width="51" fill="#0C0A2C" x="0" y="0" width="1280" height="811" rx="30"></rect>
                    <rect id="Rectangle" fill="#352344" x="41.1954023" y="625.544465" width="1197.6092" height="144.243194"></rect>
                    <rect id="Rectangle" stroke="#979797" fill="#FFFFFF" x="144.183908" y="685.891107" width="1057.83908" height="14.7186933"></rect>
                    <rect id="Rectangle-Copy-7" stroke="#979797" fill="#FFFFFF" x="819.494253" y="500.435572" width="351.632184" height="58.8747731"></rect>
                    <rect id="Rectangle" fill="#FE484A" x="1071.08046" y="101.558984" width="100.045977" height="94.199637"></rect>
                    <rect id="Rectangle" fill="#FE484A" x="470.804598" y="706.497278" width="169.195402" height="20.6061706"></rect>
                    <rect id="Rectangle-Copy-6" fill="#FE484A" x="100.045977" y="148.658802" width="169.195402" height="20.6061706"></rect>
                    <rect id="Rectangle-Copy-8" fill="#FE484A" x="901.885057" y="482.77314" width="51.4942529" height="35.3248639"></rect>
                    <rect id="Rectangle" fill="#4FBCE3" x="100.045977" y="203.117967" width="67.6781609" height="66.2341198"></rect>
                    <rect id="Rectangle" fill="#30EBA5" x="794.482759" y="312.036298" width="50.0229885" height="61.8185118"></rect>
                </g>
                <g id="Group" transform="translate(1.000000, 0.000000)">
                    <rect id="Rectangle" stroke="#352344" stroke-width="2" fill="#0C0A2C" x="1" y="1" width="702" height="86"></rect>
                    <rect id="Rectangle-Copy-4" fill="#352344" x="702" y="0" width="325" height="88"></rect>
                    <rect id="Rectangle-Copy" fill="#FE484A" x="1025" y="0" width="151" height="88"></rect>
                    <rect id="Rectangle-Copy-2" fill="#FFFFFF" x="1176" y="0" width="69" height="88"></rect>
                    <rect id="Rectangle-Copy-3" fill="#4FBCE3" x="1245" y="0" width="37" height="88"></rect>
                    <rect id="Rectangle-Copy-5" fill="#30EBA5" x="1282" y="0" width="18" height="88"></rect>
                </g>
            </g>
        </g>
    </g>
</svg>