<?xml version="1.0" encoding="UTF-8"?>
<svg width="1207px" height="238px" viewBox="0 0 1207 238" version="1.1" xmlns="http://www.w3.org/2000/svg" xmlns:xlink="http://www.w3.org/1999/xlink">
    <!-- Generator: Sketch 63.1 (92452) - https://sketch.com -->
    <title>Group 12</title>
    <desc>Created with Sketch.</desc>
    <g id="Page-1" stroke="none" stroke-width="1" fill="none" fill-rule="evenodd">
        <g id="Artboard" transform="translate(-529.000000, -1290.000000)">
            <g id="Group-12" transform="translate(506.000000, 1264.000000)">
                <g id="Group-9" transform="translate(803.000000, 0.000000)" fill="#FFFFFF" fill-rule="nonzero">
                    <g id="Mic">
                        <rect id="Rectangle" opacity="0" x="0" y="0" width="125.221765" height="125.221765"></rect>
                        <path d="M63,31.1664706 L62.2032353,31.1664706 C56.0083156,31.2068955 50.9963073,36.2189038 50.9558824,42.4138235 L50.9558824,58.6085294 C50.9964114,64.8003923 56.011314,69.8070331 62.2032353,69.8373529 L63,69.8373529 C69.1919213,69.8070331 74.2068239,64.8003923 74.2473529,58.6085294 L74.2473529,42.4138235 C74.206928,36.2189038 69.1949197,31.2068955 63,31.1664706 Z" id="Path"></path>
                        <path d="M40.7647059,60.795 C41.652306,70.4587749 48.8336617,78.3658254 58.3676471,80.1767647 C59.2812176,80.315308 59.9530924,81.105749 59.9426471,82.0297059 L59.9426471,86.8844118 C59.9426471,87.9077629 59.113057,88.7373529 58.0897059,88.7373529 L55.8291176,88.7373529 C54.8057665,88.7373529 53.9761765,89.566943 53.9761765,90.5902941 L53.9761765,92.2394118 C53.9761765,93.2627629 54.8057665,94.0923529 55.8291176,94.0923529 L69.3926471,94.0923529 C70.4159982,94.0923529 71.2455882,93.2627629 71.2455882,92.2394118 L71.2455882,90.5902941 C71.2455882,89.566943 70.4159982,88.7373529 69.3926471,88.7373529 L67.2061765,88.7373529 C66.1828253,88.7373529 65.3532353,87.9077629 65.3532353,86.8844118 L65.3532353,82.0111765 C65.3427899,81.0872196 66.0146648,80.2967786 66.9282353,80.1582353 C76.4622207,78.347296 83.6435763,70.4402454 84.5311765,60.7764706 C84.5893633,60.2507985 84.4201463,59.7253148 84.066147,59.3323756 C83.7121476,58.9394363 83.2071082,58.7164953 82.6782353,58.7196568 L81.0291176,58.7196568 C80.0866642,58.7128984 79.2892492,59.4146236 79.1761765,60.3502941 C78.0344967,68.5982777 70.9838298,74.740221 62.6572059,74.740221 C54.330582,74.740221 47.2799151,68.5982777 46.1382353,60.3502941 C46.0251625,59.4146236 45.2277476,58.7128984 44.2852941,58.7196568 L42.6176471,58.7196568 C42.0851491,58.7158562 41.5767343,58.94129 41.222073,59.3385106 C40.8674118,59.7357312 40.7007905,60.2663378 40.7647059,60.795 Z" id="Path"></path>
                    </g>
                    <g id="Volume---Low" transform="translate(23.000000, 190.000000)">
                        <g id="Group" opacity="0">
                            <rect id="Rectangle" x="0" y="0" width="87.8253275" height="87.8253275"></rect>
                        </g>
                        <path d="M45.8338428,21.279345 L29.5129694,34.5995197 C29.186157,34.8617228 28.7792533,35.0038161 28.360262,35.0020524 L17.1259389,35.0020524 C16.1154266,35.0020524 15.2962445,35.8212345 15.2962445,36.8317467 L15.2962445,52.7500873 C15.2962445,53.7605996 16.1154266,54.5797817 17.1259389,54.5797817 L28.360262,54.5797817 C28.7814845,54.5831866 29.1886313,54.7318276 29.5129694,55.0006114 L45.8338428,68.3024891 C46.3766081,68.7667364 47.139896,68.8727228 47.7886148,68.573919 C48.4373336,68.2751152 48.8528384,67.6261481 48.8528384,66.9119214 L48.8528384,22.6699127 C48.8528384,21.955686 48.4373336,21.3067189 47.7886148,21.0079151 C47.139896,20.7091113 46.3766081,20.8150976 45.8338428,21.279345 Z" id="Path"></path>
                        <path d="M56.8120087,32.7332314 C55.9849806,32.2969287 54.9620557,32.5544021 54.4401275,33.3302414 C53.9181993,34.1060806 54.0652286,35.1506142 54.781048,35.7522271 C57.7534644,37.8012381 59.5284667,41.1806947 59.5284667,44.790917 C59.5284667,48.4011393 57.7534644,51.780596 54.781048,53.829607 C53.9587854,54.3996334 53.7468686,55.5244228 54.3053275,56.3545852 C54.6419611,56.8657747 55.2119061,57.174781 55.8239738,57.1779476 C56.1845461,57.1697484 56.5346531,57.0551679 56.8303057,56.8486026 C60.8458955,54.1498466 63.2544742,49.6291238 63.2544742,44.790917 C63.2544742,39.9527102 60.8458955,35.4319874 56.8303057,32.7332314 L56.8120087,32.7332314 Z" id="Path"></path>
                    </g>
                </g>
                <g id="Group-10" transform="translate(981.000000, 16.000000)" fill="#FFFFFF" fill-rule="nonzero">
                    <g id="Volume---HIgh" transform="translate(5.000000, 171.000000)">
                        <g id="Group" opacity="0">
                            <rect id="Rectangle" x="0" y="0" width="87.8253275" height="87.8253275"></rect>
                        </g>
                        <path d="M45.8338428,21.279345 L29.5129694,34.5995197 C29.186157,34.8617228 28.7792533,35.0038161 28.360262,35.0020524 L17.1259389,35.0020524 C16.1154266,35.0020524 15.2962445,35.8212345 15.2962445,36.8317467 L15.2962445,52.7500873 C15.2962445,53.7605996 16.1154266,54.5797817 17.1259389,54.5797817 L28.360262,54.5797817 C28.7814845,54.5831866 29.1886313,54.7318276 29.5129694,55.0006114 L45.8338428,68.3024891 C46.3766081,68.7667364 47.139896,68.8727228 47.7886148,68.573919 C48.4373336,68.2751152 48.8528384,67.6261481 48.8528384,66.9119214 L48.8528384,22.6699127 C48.8528384,21.955686 48.4373336,21.3067189 47.7886148,21.0079151 C47.139896,20.7091113 46.3766081,20.8150976 45.8338428,21.279345 Z" id="Path"></path>
                        <path d="M63.2525477,44.790917 C63.2521297,39.9488066 60.8363094,35.4260066 56.8120087,32.7332314 C55.9849806,32.2969287 54.9620557,32.5544021 54.4401275,33.3302414 C53.9181993,34.1060806 54.0652286,35.1506142 54.781048,35.7522271 C57.7534644,37.8012381 59.5284667,41.1806947 59.5284667,44.790917 C59.5284667,48.4011393 57.7534644,51.780596 54.781048,53.829607 C54.1092968,54.2808932 53.8137994,55.1198623 54.0544615,55.892514 C54.2951235,56.6651658 55.0147711,57.1879421 55.8239738,57.1780885 C56.1845461,57.1697484 56.5346531,57.0551679 56.8303057,56.8486026 C60.8501387,54.1539032 63.2594804,49.6303813 63.2525477,44.790917 L63.2525477,44.790917 Z" id="Path"></path>
                        <path d="M61.9534498,24.499607 C61.5508654,24.2272508 61.0564565,24.126273 60.5793169,24.2189548 C60.1021774,24.3116366 59.6815235,24.5903604 59.4101747,24.9936245 C58.9033914,25.8134433 59.1194683,26.8858251 59.9041921,27.4454148 C65.6514939,31.3147222 69.0977187,37.7893083 69.0977187,44.7177293 C69.0977187,51.6461502 65.6514939,58.1207363 59.9041921,61.9900437 C59.5009281,62.2613925 59.2222043,62.6820464 59.1295225,63.1591859 C59.0368407,63.6363255 59.1378185,64.1307344 59.4101747,64.5333188 C59.7509926,65.0375438 60.3202169,65.3393012 60.928821,65.3383864 C61.2956581,65.3338076 61.6526484,65.2190607 61.9534498,65.0090393 C68.7045846,60.4629194 72.7525781,52.856834 72.7525781,44.7177293 C72.7525781,36.5786245 68.7045846,28.9725391 61.9534498,24.4264192 L61.9534498,24.499607 Z" id="Path"></path>
                    </g>
                    <g id="Icon-CXC_Ride">
                        <rect id="Rectangle" opacity="0" x="0" y="0" width="98" height="98"></rect>
                        <polygon id="Path" points="74.3983333 21.49875 23.6016667 42.63 46.5295833 49.3675 53.2670833 72.2954167"></polygon>
                    </g>
                </g>
                <g id="Group-11" transform="translate(1143.000000, 16.000000)">
                    <g id="Volume---HIgh-Copy" transform="translate(5.000000, 171.000000)">
                        <g id="Group" opacity="0" fill="#FFFFFF" fill-rule="nonzero">
                            <rect id="Rectangle" x="0" y="0" width="87.8253275" height="87.8253275"></rect>
                        </g>
                        <path d="M45.8338428,21.279345 L29.5129694,34.5995197 C29.186157,34.8617228 28.7792533,35.0038161 28.360262,35.0020524 L17.1259389,35.0020524 C16.1154266,35.0020524 15.2962445,35.8212345 15.2962445,36.8317467 L15.2962445,52.7500873 C15.2962445,53.7605996 16.1154266,54.5797817 17.1259389,54.5797817 L28.360262,54.5797817 C28.7814845,54.5831866 29.1886313,54.7318276 29.5129694,55.0006114 L45.8338428,68.3024891 C46.3766081,68.7667364 47.139896,68.8727228 47.7886148,68.573919 C48.4373336,68.2751152 48.8528384,67.6261481 48.8528384,66.9119214 L48.8528384,22.6699127 C48.8528384,21.955686 48.4373336,21.3067189 47.7886148,21.0079151 C47.139896,20.7091113 46.3766081,20.8150976 45.8338428,21.279345 Z" id="Path" fill="#FFFFFF" fill-rule="nonzero"></path>
                        <path d="M63.2525477,44.790917 C63.2521297,39.9488066 60.8363094,35.4260066 56.8120087,32.7332314 C55.9849806,32.2969287 54.9620557,32.5544021 54.4401275,33.3302414 C53.9181993,34.1060806 54.0652286,35.1506142 54.781048,35.7522271 C57.7534644,37.8012381 59.5284667,41.1806947 59.5284667,44.790917 C59.5284667,48.4011393 57.7534644,51.780596 54.781048,53.829607 C54.1092968,54.2808932 53.8137994,55.1198623 54.0544615,55.892514 C54.2951235,56.6651658 55.0147711,57.1879421 55.8239738,57.1780885 C56.1845461,57.1697484 56.5346531,57.0551679 56.8303057,56.8486026 C60.8501387,54.1539032 63.2594804,49.6303813 63.2525477,44.790917 L63.2525477,44.790917 Z" id="Path" fill="#FFFFFF" fill-rule="nonzero"></path>
                        <path d="M61.9534498,24.499607 C61.5508654,24.2272508 61.0564565,24.126273 60.5793169,24.2189548 C60.1021774,24.3116366 59.6815235,24.5903604 59.4101747,24.9936245 C58.9033914,25.8134433 59.1194683,26.8858251 59.9041921,27.4454148 C65.6514939,31.3147222 69.0977187,37.7893083 69.0977187,44.7177293 C69.0977187,51.6461502 65.6514939,58.1207363 59.9041921,61.9900437 C59.5009281,62.2613925 59.2222043,62.6820464 59.1295225,63.1591859 C59.0368407,63.6363255 59.1378185,64.1307344 59.4101747,64.5333188 C59.7509926,65.0375438 60.3202169,65.3393012 60.928821,65.3383864 C61.2956581,65.3338076 61.6526484,65.2190607 61.9534498,65.0090393 C68.7045846,60.4629194 72.7525781,52.856834 72.7525781,44.7177293 C72.7525781,36.5786245 68.7045846,28.9725391 61.9534498,24.4264192 L61.9534498,24.499607 Z" id="Path" fill="#FFFFFF" fill-rule="nonzero"></path>
                        <path d="M70.0428013,70.602738 C76.4991345,64.2909256 80.5065502,55.4846329 80.5065502,45.7423581 C80.5065502,34.9809792 75.6168809,25.3616437 67.9380726,18.9848821" id="Oval" stroke="#FFFFFF" stroke-width="2" stroke-linecap="round"></path>
                    </g>
                    <g id="Icon-CXC_Settings" fill="#FFFFFF" fill-rule="nonzero">
                        <rect id="Rectangle" opacity="0" x="0" y="0" width="98" height="98"></rect>
                        <path d="M76.13375,46.9583333 L62.5770833,23.3975 L35.4229167,23.3975 L21.86625,46.9583333 L35.4229167,70.4579167 L62.5770833,70.4579167 L76.13375,46.9583333 Z M58.24875,56.1458333 C44.77375,66.5175 29.3795833,51.1233333 39.75125,37.6483333 C53.22625,27.2766667 68.6204167,42.6708333 58.24875,56.1458333 Z" id="Shape"></path>
                    </g>
                </g>
                <g id="Group-8" transform="translate(647.000000, 16.000000)" fill="#FFFFFF" fill-rule="nonzero">
                    <g id="Volume---Mute" transform="translate(11.000000, 171.000000)">
                        <g id="Group" opacity="0">
                            <rect id="Rectangle" x="0" y="0" width="87.8253275" height="87.8253275"></rect>
                        </g>
                        <path d="M45.8338428,21.279345 L29.5129694,34.5995197 C29.186157,34.8617228 28.7792533,35.0038161 28.360262,35.0020524 L17.1259389,35.0020524 C16.1154266,35.0020524 15.2962445,35.8212345 15.2962445,36.8317467 L15.2962445,52.7500873 C15.2962445,53.7605996 16.1154266,54.5797817 17.1259389,54.5797817 L28.360262,54.5797817 C28.7814845,54.5831866 29.1886313,54.7318276 29.5129694,55.0006114 L45.8338428,68.3024891 C46.3766081,68.7667364 47.139896,68.8727228 47.7886148,68.573919 C48.4373336,68.2751152 48.8528384,67.6261481 48.8528384,66.9119214 L48.8528384,22.6699127 C48.8528384,21.955686 48.4373336,21.3067189 47.7886148,21.0079151 C47.139896,20.7091113 46.3766081,20.8150976 45.8338428,21.279345 Z" id="Path"></path>
                        <path d="M67.0582969,44.790917 L73.1877729,38.6248472 C73.8971886,37.9111978 73.8971886,36.7586275 73.1877729,36.0449782 C72.8442174,35.6985939 72.3765551,35.5037577 71.88869,35.5037577 C71.4008248,35.5037577 70.9331625,35.6985939 70.589607,36.0449782 L64.4235371,42.211048 L58.3123581,36.0449782 C57.9688026,35.6985939 57.5011403,35.5037577 57.0132751,35.5037577 C56.5254099,35.5037577 56.0577476,35.6985939 55.7141921,36.0449782 C55.0047765,36.7586275 55.0047765,37.9111978 55.7141921,38.6248472 L61.880262,44.790917 L55.7141921,50.9569869 C55.3678079,51.3005424 55.1729716,51.7682047 55.1729716,52.2560699 C55.1729716,52.7439351 55.3678079,53.2115974 55.7141921,53.5551528 C56.0594899,53.8976469 56.5269369,54.088576 57.0132751,54.0857642 C57.4996133,54.088576 57.9670603,53.8976469 58.3123581,53.5551528 L64.460131,47.389083 L70.6262009,53.5551528 C70.9697564,53.9015371 71.4374187,54.0963734 71.9252838,54.0963734 C72.413149,54.0963734 72.8808113,53.9015371 73.2243668,53.5551528 C73.5707511,53.2115974 73.7655873,52.7439351 73.7655873,52.2560699 C73.7655873,51.7682047 73.5707511,51.3005424 73.2243668,50.9569869 L67.0582969,44.790917 Z" id="Path"></path>
                    </g>
                    <g id="Icon-CXC_Shop">
                        <rect id="Rectangle" opacity="0" x="0" y="0" width="98" height="98"></rect>
                        <polygon id="Path" points="77.0320833 33.6466667 25.66375 33.6466667 21.2945833 72.8466667 81.4216667 72.8466667"></polygon>
                        <path d="M38.955,28.9304167 C39.2250389,22.2759972 44.6982287,17.020407 51.358125,17.020407 C58.0180213,17.020407 63.4912111,22.2759972 63.76125,28.9304167 L68.0283333,28.9304167 C67.7140275,19.9506703 60.3433703,12.8334846 51.358125,12.8334846 C42.3728797,12.8334846 35.0022225,19.9506703 34.6879167,28.9304167 L38.955,28.9304167 Z" id="Path"></path>
                    </g>
                </g>
                <g id="Group-5" transform="translate(162.000000, 14.000000)" fill="#FFFFFF" fill-rule="nonzero">
                    <g id="Brightness---Low" transform="translate(1.000000, 167.000000)">
                        <g id="Group" opacity="0">
                            <rect id="Rectangle" x="0" y="0" width="95.1794872" height="95.1794872"></rect>
                        </g>
                        <path d="M47.5897436,32.7177355 C41.5970357,32.6859075 36.175468,36.2679844 33.8543737,41.793027 C31.5332794,47.3180696 32.7700421,53.69734 36.9876728,57.954706 C41.2053035,62.2120721 47.5726964,63.5085982 53.1192607,61.2394136 C58.6658251,58.9702291 62.2985819,53.5824885 62.3229486,47.5897436 C62.3438213,43.6630977 60.8028071,39.8891882 58.0392577,37.0996026 C55.2757083,34.3100171 51.5164146,32.7336831 47.5897436,32.7177355 L47.5897436,32.7177355 Z M47.5897436,59.3483761 C41.0189712,59.3483761 35.6923077,54.0217126 35.6923077,47.4509402 C35.6923077,40.8801678 41.0189712,35.5535043 47.5897436,35.5535043 C54.160516,35.5535043 59.4871795,40.8801678 59.4871795,47.4509402 C59.4871795,50.6063364 58.2337032,53.6324957 56.0025012,55.8636978 C53.7712992,58.0948998 50.7451398,59.3483761 47.5897436,59.3483761 Z" id="Shape"></path>
                        <path d="M46.1223932,25.202735 C46.5110599,25.5889055 47.0421871,25.79705 47.5897436,25.7777778 C47.8541992,25.7835543 48.1171376,25.7363602 48.3630769,25.6389744 C48.6010603,25.5364206 48.8166342,25.3882135 48.9976068,25.202735 C49.1782393,25.0177307 49.3257927,24.8031076 49.4338462,24.5682051 C49.531232,24.3222658 49.578426,24.0593274 49.5726496,23.7948718 C49.5835674,23.1966745 49.3238053,22.6255281 48.8657624,22.240618 C48.4077194,21.8557079 47.8003705,21.6981898 47.2129915,21.8119658 C47.0816542,21.830349 46.9543148,21.8705615 46.8362393,21.9309402 C46.7144226,21.9705396 46.6003759,22.0309173 46.4991453,22.1094017 L46.2017094,22.3473504 C45.8133452,22.7278915 45.5982816,23.2512129 45.6068376,23.7948718 C45.6073487,24.0606763 45.6612951,24.323665 45.7654701,24.5682051 C45.844264,24.7999304 45.9652776,25.0150657 46.1223932,25.202735 Z" id="Path"></path>
                        <path d="M49.1562393,70.274188 C49.083029,70.1703085 49.003566,70.0709796 48.9182906,69.9767521 C48.144883,69.2079327 46.8958008,69.2079327 46.1223932,69.9767521 L45.8646154,70.274188 C45.7932775,70.3868587 45.7334877,70.5064384 45.6861538,70.6311111 C45.635273,70.7460458 45.5954356,70.8655579 45.5671795,70.9880342 C45.5574462,71.1200488 45.5574462,71.2526008 45.5671795,71.3846154 C45.5671795,72.4797441 46.4549567,73.3675214 47.5500855,73.3675214 C47.81589,73.3670103 48.0788787,73.3130639 48.3234188,73.2088889 C48.557445,73.1078744 48.7721462,72.9669767 48.9579487,72.7924786 C49.1389421,72.6002974 49.2864028,72.3791063 49.394188,72.1381197 C49.5785984,71.652708 49.5785984,71.1165228 49.394188,70.6311111 C49.3280121,70.5038822 49.2482291,70.3842077 49.1562393,70.274188 Z" id="Path"></path>
                        <path d="M73.1295726,46.8362393 C73.0387273,46.5910661 72.8967848,46.3680136 72.7131624,46.1818803 C72.1429566,45.6192416 71.2902233,45.4549535 70.5517949,45.7654701 C70.3029328,45.848733 70.0782627,45.9917049 69.8974359,46.1818803 C69.722284,46.3746207 69.5814437,46.5959411 69.4810256,46.8362393 C69.3970537,47.0779793 69.3699129,47.3358174 69.4017094,47.5897436 C69.3986622,48.1168059 69.6055789,48.6233951 69.9767521,48.9976068 C70.3509638,49.3687801 70.8575531,49.5756968 71.3846154,49.5726828 C72.4797441,49.5726828 73.3675214,48.6848723 73.3675214,47.5897436 C73.3395601,47.3251554 73.2586373,47.0689001 73.1295726,46.8362393 Z" id="Path"></path>
                        <path d="M25.1234188,46.1818803 C25.0332534,46.0919482 24.933514,46.0121567 24.8259829,45.9439316 C24.7247523,45.8654472 24.6107056,45.8050696 24.4888889,45.7654701 C24.3696203,45.7080502 24.2427514,45.6679864 24.1121368,45.6464957 C23.4652415,45.5169636 22.7962878,45.7176498 22.3275214,46.1818803 C22.1313655,46.3615422 21.9816792,46.5860717 21.8912821,46.8362393 C21.7068717,47.321651 21.7068717,47.8578362 21.8912821,48.3432479 C21.9915486,48.5883053 22.1398786,48.8108002 22.3275214,48.9976068 C22.9969371,49.6641328 24.0436033,49.7658829 24.8288623,49.240771 C25.6141213,48.7156592 25.919917,47.709502 25.5596581,46.8362393 C25.4593915,46.5911819 25.3110616,46.368687 25.1234188,46.1818803 Z" id="Path"></path>
                        <path d="M65.4358974,29.1090598 L65.0988034,28.9305983 L64.7220513,28.831453 C64.4676748,28.7722322 64.2030944,28.7722322 63.9487179,28.831453 L63.5719658,28.9305983 L63.2348718,29.1090598 C63.1268143,29.1841289 63.0271012,29.2705469 62.9374359,29.3668376 C62.5662626,29.7410493 62.3593459,30.2476385 62.36236,30.7747009 C62.3645835,31.2948962 62.5711056,31.7933977 62.9374359,32.162735 C63.1133769,32.3540982 63.3302898,32.5032258 63.5719658,32.5989744 C63.8165059,32.7031494 64.0794947,32.7570958 64.3452991,32.7576068 C64.6044199,32.7544739 64.8604139,32.7005804 65.0988034,32.5989744 C65.3404794,32.5032258 65.5573923,32.3540982 65.7333333,32.162735 C66.1069411,31.7966302 66.3207553,31.2977305 66.3282051,30.7747009 C66.3260052,30.2447774 66.1117821,29.7377827 65.7333333,29.3668376 C65.6481973,29.2659662 65.5478453,29.1789945 65.4358974,29.1090598 L65.4358974,29.1090598 Z" id="Path"></path>
                        <path d="M32.1032479,63.0167521 L31.7264957,62.7589744 L31.3894017,62.5805128 L31.0126496,62.4615385 C30.3623917,62.3370765 29.6929147,62.5453583 29.2280342,63.0167521 C29.0427953,63.1938536 28.9003817,63.4108649 28.8116239,63.6512821 C28.7006182,63.8866121 28.646289,64.1446756 28.6529915,64.4047863 C28.649664,65.0677821 28.9779115,65.6885731 29.5277186,66.0590953 C30.0775256,66.4296174 30.7761353,66.5008388 31.3894017,66.2488889 C31.6344592,66.1486223 31.856954,66.0002924 32.0437607,65.8126496 C32.8125801,65.039242 32.8125801,63.7901597 32.0437607,63.0167521 L32.1032479,63.0167521 Z" id="Path"></path>
                        <path d="M65.7333333,63.0167521 C65.5573923,62.825389 65.3404794,62.6762614 65.0988034,62.5805128 C64.6102595,62.3767139 64.0605097,62.3767139 63.5719658,62.5805128 C63.3302898,62.6762614 63.1133769,62.825389 62.9374359,63.0167521 C62.7519574,63.1977248 62.6037504,63.4132987 62.5011966,63.6512821 C62.1409377,64.5245447 62.4467334,65.5307019 63.2319924,66.0558138 C64.0172514,66.5809256 65.0639176,66.4791755 65.7333333,65.8126496 C65.9246965,65.6367086 66.0738241,65.4197957 66.1695726,65.1781197 C66.2669585,64.9321804 66.3141525,64.6692419 66.3083761,64.4047863 C66.3115346,64.1469829 66.2643868,63.8910378 66.1695726,63.6512821 C66.0670189,63.4132987 65.9188118,63.1977248 65.7333333,63.0167521 L65.7333333,63.0167521 Z" id="Path"></path>
                        <path d="M31.7264957,29.1090598 L31.3894017,28.9305983 L31.0126496,28.831453 C30.6348402,28.7449005 30.239364,28.7795914 29.8823932,28.9305983 C29.6322255,29.0209955 29.407696,29.1706818 29.2280342,29.3668376 C28.8656904,29.7468294 28.6602955,30.2496928 28.6529915,30.7747009 C28.6551818,31.2948962 28.8617039,31.7933977 29.2280342,32.162735 C29.7927839,32.732149 30.6449236,32.9053141 31.387126,32.6014885 C32.1293285,32.2976629 32.6154409,31.5766754 32.6188366,30.7747009 C32.6218507,30.2476385 32.4149339,29.7410493 32.0437607,29.3668376 L31.7264957,29.1090598 Z" id="Path"></path>
                    </g>
                    <g id="Icon-CXC_Listen">
                        <rect id="Rectangle" opacity="0" x="0" y="0" width="98" height="98"></rect>
                        <path d="M35.9129167,21.0495833 L35.9129167,52.2870833 C31.6700212,49.2826295 25.9224929,49.5704072 22.0009305,52.9836539 C18.0793681,56.3969006 17.0015206,62.0497885 19.3919832,66.6665616 C21.7824457,71.2833347 27.0208299,73.6658182 32.0715778,72.433402 C37.1223258,71.2009857 40.6746349,66.6735143 40.67,61.4745833 L40.67,34.4225 L73.8879167,34.4225 L73.8879167,52.3075 C69.6552751,49.2819565 63.901626,49.5470478 59.965121,52.9489732 C56.028616,56.3508987 54.932481,62.0053871 57.3126714,66.6318179 C59.6928619,71.2582487 64.9306888,73.6540618 69.9872702,72.4292546 C75.0438517,71.2044474 78.6048174,66.6773872 78.6041667,61.4745833 L78.6041667,21.0495833 L35.9129167,21.0495833 Z" id="Path"></path>
                    </g>
                </g>
                <g id="Group-6" transform="translate(323.000000, 14.000000)" fill="#FFFFFF" fill-rule="nonzero">
                    <g id="Brightness---Medium" transform="translate(1.000000, 167.000000)">
                        <g id="Group" opacity="0">
                            <rect id="Rectangle" x="0" y="0" width="95.1794872" height="95.1794872"></rect>
                        </g>
                        <path d="M47.5897436,24.2905983 C48.6848723,24.2905983 49.5726496,23.402821 49.5726496,22.3076923 L49.5726496,18.1039316 C49.5726496,17.0088029 48.6848723,16.1210256 47.5897436,16.1210256 C46.4946149,16.1210256 45.6068376,17.0088029 45.6068376,18.1039316 L45.6068376,22.3076923 C45.6068376,23.402821 46.4946149,24.2905983 47.5897436,24.2905983 Z" id="Path"></path>
                        <path d="M47.5897436,68.3705983 C46.4946149,68.3705983 45.6068376,69.2583755 45.6068376,70.3535043 L45.6068376,74.557265 C45.6068376,75.6523937 46.4946149,76.5401709 47.5897436,76.5401709 C48.6848723,76.5401709 49.5726496,75.6523937 49.5726496,74.557265 L49.5726496,70.3535043 C49.5726496,69.2583755 48.6848723,68.3705983 47.5897436,68.3705983 Z" id="Path"></path>
                        <path d="M75.7470085,44.3377778 L71.5432479,44.3377778 C70.4481191,44.3377778 69.5603419,45.225555 69.5603419,46.3206838 C69.5603419,47.4158125 70.4481191,48.3035897 71.5432479,48.3035897 L75.7470085,48.3035897 C76.8421373,48.3035897 77.7299145,47.4158125 77.7299145,46.3206838 C77.7299145,45.225555 76.8421373,44.3377778 75.7470085,44.3377778 Z" id="Path"></path>
                        <path d="M23.4974359,44.3377778 L19.2738462,44.3377778 C18.1787174,44.3377778 17.2909402,45.225555 17.2909402,46.3206838 C17.2909402,47.4158125 18.1787174,48.3035897 19.2738462,48.3035897 L23.4974359,48.3035897 C24.5925646,48.3035897 25.4803419,47.4158125 25.4803419,46.3206838 C25.4803419,45.225555 24.5925646,44.3377778 23.4974359,44.3377778 L23.4974359,44.3377778 Z" id="Path"></path>
                        <path d="M66.0704274,24.9647863 L63.0960684,27.9391453 C62.5966294,28.4421264 62.4034659,29.1733476 62.5893408,29.857365 C62.7752157,30.5413824 63.3118902,31.0742775 63.9972041,31.2553138 C64.682518,31.4363501 65.4123559,31.2380239 65.9117949,30.7350427 L68.8861538,27.7606838 C69.6549733,26.9872762 69.6549733,25.7381939 68.8861538,24.9647863 C68.5138303,24.5893971 68.0070078,24.3782461 67.4782906,24.3782461 C66.9495734,24.3782461 66.4427509,24.5893971 66.0704274,24.9647863 Z" id="Path"></path>
                        <path d="M29.1288889,61.9261538 L26.1545299,64.9005128 C25.5990788,65.4670297 25.4347835,66.3101036 25.7368665,67.0437337 C26.0389495,67.7773638 26.7492527,68.2603089 27.5425641,68.2714862 C28.0696264,68.2745002 28.5762157,68.0675835 28.9504274,67.6964103 L31.9247863,64.7220513 C32.6936058,63.9486437 32.6936058,62.6995614 31.9247863,61.9261538 C31.1513787,61.1573344 29.9022965,61.1573344 29.1288889,61.9261538 L29.1288889,61.9261538 Z" id="Path"></path>
                        <path d="M65.9117949,61.9261538 C65.1397291,61.1486125 63.8835243,61.1441736 63.105983,61.9162394 C62.3284416,62.6883051 62.3240027,63.9445099 63.0960684,64.7220513 L66.0704274,67.6964103 C66.4427509,68.0717994 66.9495734,68.2829505 67.4782906,68.2829505 C68.0070078,68.2829505 68.5138303,68.0717994 68.8861538,67.6964103 C69.6549733,66.9230027 69.6549733,65.6739204 68.8861538,64.9005128 L65.9117949,61.9261538 Z" id="Path"></path>
                        <path d="M28.9504274,24.9647863 C28.163689,24.2910409 26.9909312,24.3363394 26.2585071,25.0687635 C25.526083,25.8011876 25.4807845,26.9739454 26.1545299,27.7606838 L29.1288889,30.7350427 C29.9022965,31.5038622 31.1513787,31.5038622 31.9247863,30.7350427 C32.6936058,29.9616351 32.6936058,28.7125529 31.9247863,27.9391453 L28.9504274,24.9647863 Z" id="Path"></path>
                        <path d="M47.5897436,31.4687046 C41.5969211,31.4687046 36.1945659,35.0797755 33.9030689,40.6171903 C31.6115718,46.1546052 32.8824885,52.5271956 37.1228913,56.7619218 C41.3632941,60.996648 47.7375814,62.259027 53.2719216,59.9601142 C58.8062618,57.6612013 62.4100738,52.2540137 62.4020646,46.2611966 C62.4020646,42.3345493 60.8408443,38.5690163 58.0624263,35.7943178 C55.2840083,33.0196192 51.5163873,31.4634543 47.5897436,31.4687046 L47.5897436,31.4687046 Z M35.6923077,46.2611966 C36.3474295,40.2225148 41.4462278,35.6469552 47.5203419,35.6469552 C53.594456,35.6469552 58.6932542,40.2225148 59.3483761,46.2611966 L35.6923077,46.2611966 Z" id="Shape"></path>
                    </g>
                    <g id="Icon-CXC_Watch">
                        <rect id="Rectangle" opacity="0" x="0" y="0" width="98" height="98"></rect>
                        <path d="M39.7104167,12.8216667 L50.53125,23.6425 L60.7395833,13.4341667 L63.7,16.3333333 L52.675,27.4195833 L75.17625,27.4195833 C77.9376737,27.4195833 80.17625,29.6581596 80.17625,32.4195833 L80.17625,32.4195833 L80.17625,68.2754167 C80.17625,71.0368404 77.9376737,73.2754167 75.17625,73.2754167 L75.17625,73.2754167 L25.2533333,73.2754167 C22.4919096,73.2754167 20.2533333,71.0368404 20.2533333,68.2754167 L20.2533333,68.2754167 L20.2533333,32.4195833 C20.2533333,29.6581596 22.4919096,27.4195833 25.2533333,27.4195833 L25.2533333,27.4195833 L48.3670833,27.4195833 L36.75,15.8025 L39.7104167,12.8216667 Z M38.2420833,37.0370833 L38.2420833,64.3920833 L65.8408333,50.7145833 L38.2420833,37.0370833 Z" id="Shape"></path>
                    </g>
                </g>
                <g id="Group-3" transform="translate(0.000000, 14.000000)" fill="#FFFFFF" fill-rule="nonzero">
                    <g id="Brightness---Sleep" transform="translate(2.000000, 167.000000)">
                        <g id="Group" opacity="0">
                            <rect id="Rectangle" x="0" y="0" width="95.1794872" height="95.1794872"></rect>
                        </g>
                        <path d="M47.5897436,28.4148775 C39.8271639,28.3829325 32.8110661,33.0342847 29.8181795,40.1967776 C26.8252929,47.3592705 28.4461632,55.6196267 33.9237949,61.1200108 C39.4014266,66.6203949 47.6549933,68.2754909 54.8298303,65.312319 C62.0046674,62.3491471 66.6851282,55.3523897 66.6851282,47.5897436 C66.6851282,37.0307465 58.1486504,28.4587201 47.5897436,28.4148775 Z M47.5897436,63.8099231 C45.0773689,63.8125066 42.5990762,63.2285801 40.3521368,62.1046154 C47.5897436,58.8724786 50.0882051,53.9548718 50.0882051,47.5897436 C50.0882051,41.2246154 45.2102564,35.6923077 40.6694017,32.8964103 C46.6865062,30.0830528 53.8108303,31.22265 58.6501132,35.7725806 C63.4893961,40.3225112 65.0655222,47.3631434 62.6280161,53.5420666 C60.1905099,59.7209897 54.2320401,63.7893202 47.5897436,63.8099231 L47.5897436,63.8099231 Z" id="Shape"></path>
                    </g>
                    <g id="Icon-CXC_Home">
                        <rect id="Rectangle" opacity="0" x="0" y="0" width="98" height="98"></rect>
                        <polygon id="Path" points="49.6533333 20.3145833 23.1729167 45.5904167 23.1729167 73.5 40.4045833 73.5 40.4045833 51.5520833 58.5141667 51.5520833 58.5141667 73.5 76.1133333 73.5 76.1133333 45.5904167"></polygon>
                    </g>
                </g>
                <g id="Group-7" transform="translate(485.000000, 14.000000)" fill="#FFFFFF" fill-rule="nonzero">
                    <g id="Brightness---High" transform="translate(2.000000, 167.000000)">
                        <g id="Group" opacity="0">
                            <rect id="Rectangle" x="0" y="0" width="95.1794872" height="95.1794872"></rect>
                        </g>
                        <circle id="Oval" cx="47.5104274" cy="48.045812" r="14.7924786"></circle>
                        <path d="M47.5897436,28.0581197 C46.4946149,28.0581197 45.6068376,27.1703424 45.6068376,26.0752137 L45.6068376,16.1606838 C45.6068376,15.065555 46.4946149,14.1777778 47.5897436,14.1777778 C48.6848723,14.1777778 49.5726496,15.065555 49.5726496,16.1606838 L49.5726496,26.0752137 C49.5726496,27.1703424 48.6848723,28.0581197 47.5897436,28.0581197 Z" id="Path"></path>
                        <path d="M47.5897436,82.0526496 C46.4946149,82.0526496 45.6068376,81.1648723 45.6068376,80.0697436 L45.6068376,70.1552137 C45.6068376,69.0600849 46.4946149,68.1723077 47.5897436,68.1723077 C48.6848723,68.1723077 49.5726496,69.0600849 49.5726496,70.1552137 L49.5726496,80.0697436 C49.5726496,81.1648723 48.6848723,82.0526496 47.5897436,82.0526496 Z" id="Path"></path>
                        <path d="M79.4748718,50.0882051 L69.5603419,50.0882051 C68.4652131,50.0882051 67.5774359,49.2004279 67.5774359,48.1052991 C67.5774359,47.0101704 68.4652131,46.1223932 69.5603419,46.1223932 L79.4748718,46.1223932 C80.5700005,46.1223932 81.4577778,47.0101704 81.4577778,48.1052991 C81.4577778,49.2004279 80.5700005,50.0882051 79.4748718,50.0882051 Z" id="Path"></path>
                        <path d="M25.4803419,50.0882051 L15.565812,50.0882051 C14.4706832,50.0882051 13.582906,49.2004279 13.582906,48.1052991 C13.582906,47.0101704 14.4706832,46.1223932 15.565812,46.1223932 L25.4803419,46.1223932 C26.5754706,46.1223932 27.4632479,47.0101704 27.4632479,48.1052991 C27.4632479,49.2004279 26.5754706,50.0882051 25.4803419,50.0882051 Z" id="Path"></path>
                        <path d="M63.0960684,34.5025973 C62.5758731,34.5003737 62.0773715,34.2938517 61.7080342,33.9275214 C60.9392148,33.1541138 60.9392148,31.9050315 61.7080342,31.1316239 L68.7076923,24.1121368 C69.0800158,23.7367476 69.5868384,23.5255965 70.1155556,23.5255965 C70.6442727,23.5255965 71.1510953,23.7367476 71.5234188,24.1121368 C72.2922382,24.8855444 72.2922382,26.1346266 71.5234188,26.9080342 L64.5039316,33.9275214 C64.1297199,34.2986946 63.6231307,34.5056114 63.0960684,34.5025973 Z" id="Path"></path>
                        <path d="M24.9052991,72.6933665 C24.1119877,72.6821893 23.4016845,72.1992441 23.0996016,71.465614 C22.7975186,70.7319839 22.9618139,69.88891 23.517265,69.3223932 L30.5169231,62.302906 C30.8892466,61.9275168 31.3960692,61.7163657 31.9247863,61.7163657 C32.4535035,61.7163657 32.9603261,61.9275168 33.3326496,62.302906 C34.101469,63.0763136 34.101469,64.3253958 33.3326496,65.0988034 L26.3131624,72.1182906 C25.9389507,72.4894639 25.4323615,72.6963806 24.9052991,72.6933665 Z" id="Path"></path>
                        <path d="M70.1155556,72.6933333 C69.5884932,72.6963806 69.081904,72.4894639 68.7076923,72.1182906 L61.7080342,65.0988034 C60.9392148,64.3253958 60.9392148,63.0763136 61.7080342,62.302906 C62.4814418,61.5340865 63.730524,61.5340865 64.5039316,62.302906 L71.5234188,69.4017094 C72.2922382,70.175117 72.2922382,71.4241992 71.5234188,72.1976068 C71.1366074,72.5399065 70.6314968,72.7177623 70.1155556,72.6933333 Z" id="Path"></path>
                        <path d="M31.9247863,34.5025973 C31.397724,34.5056114 30.8911348,34.2986946 30.5169231,33.9275214 L23.517265,26.9080342 C22.8435195,26.1212959 22.8888181,24.9485381 23.6212422,24.216114 C24.3536663,23.4836899 25.5264241,23.4383913 26.3131624,24.1121368 L33.3326496,31.1316239 C34.101469,31.9050315 34.101469,33.1541138 33.3326496,33.9275214 C32.9584379,34.2986946 32.4518487,34.5056114 31.9247863,34.5025973 Z" id="Path"></path>
                    </g>
                    <g id="Icon-CXC_Play">
                        <rect id="Rectangle" opacity="0" x="0" y="0" width="98" height="98"></rect>
                        <path d="M80.7479167,44.9166667 C78.4531127,32.8348765 67.892379,24.0916667 55.5945833,24.0916667 L42.7525,24.0916667 C30.4547043,24.0916667 19.8939706,32.8348765 17.5991667,44.9166667 L12.9650221,64.7621255 C12.5454064,66.5591056 13.4095358,68.4099321 15.0566205,69.2419939 L20.9660376,72.2272684 C22.7193123,73.1129798 24.8562507,72.5945644 26.0087711,71.0039187 C32.8998336,61.4932507 40.6384377,56.7379167 49.2245833,56.7379167 C57.7876215,56.7379167 65.2700537,61.4676895 71.6718799,70.9272352 C72.7766468,72.5596771 74.9059651,73.1439545 76.6891607,72.3039605 L83.2603744,69.2085174 C84.9727789,68.4018702 85.8853308,66.5053508 85.4471219,64.6638889 L80.7479167,44.9166667 L80.7479167,44.9166667 Z M44.6920833,45.8966667 L37.9341667,45.8966667 L37.9341667,52.5525 L32.15625,52.5525 L32.15625,45.9783333 L25.41875,45.9783333 L25.41875,40.18 L32.15625,40.18 L32.15625,33.50375 L37.9341667,33.50375 L37.9341667,40.2004167 L44.6920833,40.2004167 L44.6920833,45.8966667 Z M61.9441667,49.67375 C59.0933923,49.6820131 56.5187261,47.9711075 55.4220516,45.3397034 C54.3253771,42.7082993 54.9229605,39.6753142 56.935843,37.6565803 C58.9487255,35.6378464 61.9799632,35.0314615 64.6145396,36.1204931 C67.249116,37.2095246 68.967488,39.7792137 68.9675,42.63 C68.9838142,44.5051749 68.2517186,46.3094479 66.9334063,47.6430894 C65.6150941,48.9767309 63.8194048,49.7296355 61.9441667,49.735 L61.9441667,49.67375 Z" id="Shape"></path>
                    </g>
                </g>
            </g>
        </g>
    </g>
</svg>