<svg width="600" height="600" viewBox="0 0 600 600" fill="none" xmlns="http://www.w3.org/2000/svg">
<rect width="600" height="600" fill="#15151D"/>
<path d="M267.952 148.869L258.925 148.9C249.3 148.934 241.487 141.15 241.454 131.549L241.369 107.086C241.34 98.4259 248.344 91.3728 257.004 91.343L269.523 91.2999C278.183 91.2701 285.236 98.2748 285.266 106.935L285.35 131.375C285.337 141 277.577 148.836 267.952 148.869Z" fill="#FF9280"/>
<path d="M285.256 117.432L241.383 117.583L241.347 107.086C241.317 98.4259 248.322 91.3728 256.982 91.343L269.5 91.2999C278.16 91.2701 285.213 98.2748 285.243 106.935L285.279 117.432L285.256 117.432Z" fill="white"/>
<path d="M282.62 112.436L282.887 112.448C284.206 112.577 285.238 113.687 285.243 115.04C285.247 116.394 284.223 117.51 282.905 117.649L282.638 117.663L228.705 117.848C227.261 117.853 226.087 116.687 226.082 115.244C226.077 113.801 227.243 112.626 228.687 112.621L282.62 112.436Z" fill="white"/>
<path d="M315.03 165.407L324.058 165.376C333.682 165.343 341.442 157.506 341.409 147.905L341.325 123.441C341.295 114.782 334.242 107.777 325.582 107.807L313.064 107.85C304.404 107.88 297.399 114.933 297.429 123.592L297.513 148.033C297.569 157.657 305.406 165.44 315.03 165.407Z" fill="#FF9280"/>
<path d="M297.488 134.09L341.361 133.939L341.325 123.441C341.295 114.782 334.242 107.777 325.582 107.807L313.064 107.85C304.404 107.88 297.399 114.933 297.429 123.592L297.465 134.09L297.488 134.09Z" fill="white"/>
<path d="M354.046 128.888L354.313 128.9C355.632 129.029 356.664 130.139 356.668 131.492C356.673 132.846 355.648 133.962 354.331 134.101L354.064 134.115L300.107 134.301C298.664 134.305 297.49 133.139 297.485 131.696C297.48 130.253 298.646 129.078 300.089 129.074L354.046 128.888Z" fill="white"/>
<path d="M335.086 139.106L335.102 143.654C335.115 147.352 332.116 150.371 328.418 150.384C324.719 150.397 321.7 147.398 321.687 143.7C321.684 142.896 321.039 142.255 320.235 142.258L318.673 142.263C317.869 142.266 317.228 142.911 317.231 143.715C317.244 147.414 314.268 150.433 310.547 150.446C306.849 150.458 303.829 147.46 303.816 143.761L303.801 139.213L335.086 139.106Z" fill="black"/>
<path d="M279.098 123.38L279.114 127.928C279.126 131.626 276.128 134.645 272.429 134.658C268.731 134.671 265.712 131.672 265.699 127.974C265.696 127.17 265.051 126.529 264.247 126.532L262.685 126.537C261.881 126.54 261.24 127.185 261.243 127.989C261.255 131.687 258.28 134.707 254.559 134.72C250.837 134.732 247.841 131.734 247.828 128.035L247.812 123.487L279.098 123.38V123.38Z" fill="black"/>
<path d="M337.462 279.12C337.462 297.655 322.437 312.681 303.902 312.681C285.367 312.681 270.342 297.655 270.342 279.12C270.342 260.586 285.367 245.56 303.902 245.56C322.437 245.56 337.462 260.586 337.462 279.12Z" fill="#18502C"/>
<path d="M296.311 297.587L270.326 320.319C269.587 320.966 268.474 320.929 267.78 320.235L262.096 314.551C261.402 313.857 261.365 312.744 262.011 312.005L284.733 286.01L296.311 297.587Z" fill="#2CC161"/>
<path d="M313.884 289.667C310.435 293.115 305.755 294.524 301.291 293.933L288.388 281.03C287.767 276.577 289.196 271.876 292.644 268.427C298.506 262.566 308.012 262.566 313.873 268.427C319.745 274.299 319.745 283.805 313.884 289.667Z" fill="white"/>
<path d="M294.664 334.899L288.543 341.019C288.098 341.465 287.352 341.465 286.907 341.019C286.462 340.574 286.472 339.839 286.918 339.394L293.058 333.253C295.627 330.684 295.627 326.48 293.058 323.912C290.49 321.343 286.286 321.343 283.718 323.912L272.192 335.438C268.691 338.938 263.037 338.938 259.558 335.458L258.605 334.506C255.125 331.026 255.115 325.362 258.595 321.882L261.857 318.62L263.462 320.225L260.2 323.487C257.631 326.055 257.631 330.26 260.2 332.828L261.152 333.781C263.721 336.349 267.925 336.349 270.493 333.781L282.019 322.255C285.499 318.775 291.163 318.765 294.643 322.244C298.122 325.724 298.122 331.399 294.664 334.899Z" fill="#00973C"/>
<path d="M456.428 250.629L452.792 254.29L463.236 264.662L466.871 261.001L456.428 250.629Z" fill="white"/>
<path d="M477.767 244.597L472.607 244.614L472.661 260.115L477.82 260.097L477.767 244.597Z" fill="white"/>
<path d="M494.175 250.335L483.803 260.778L487.464 264.414L497.836 253.97L494.175 250.335Z" fill="white"/>
<path d="M467.945 285.527C468.685 286.351 469.113 287.422 469.117 288.583C469.121 289.811 468.612 291.019 467.699 291.961L462.584 291.978C461.959 291.98 461.469 292.473 461.471 293.099C461.473 293.724 461.967 294.214 462.592 294.212L466.3 294.199C466.86 294.912 467.176 295.804 467.179 296.72C467.184 297.926 466.674 299.022 465.828 299.852L457.899 299.879C457.273 299.881 456.783 300.374 456.786 301C456.788 301.603 457.281 302.115 457.906 302.112L462.53 302.097C463.091 302.832 463.406 303.724 463.41 304.684C463.419 307.32 460.992 309.495 457.976 309.505L450.181 309.532C449.868 309.533 449.578 309.49 449.287 309.446L449.288 309.535L440.398 309.566C438.544 309.572 429.112 307.594 429.112 307.594L410.217 307.95L410.132 283.403L428.157 283.274C428.6 282.312 429.222 281.26 430.134 279.984L436.049 272.57C436.049 272.548 436.049 272.548 436.049 272.548C437.161 271.159 438.811 270.372 440.554 270.366L447.232 270.343C449.131 270.336 450.899 271.335 451.798 272.963C451.82 272.985 451.82 273.007 451.843 273.052L453.081 276.018C453.906 275.569 454.843 275.32 455.826 275.317L463.621 275.29C466.637 275.279 469.079 277.505 469.088 280.229C469.092 281.346 468.694 282.42 467.937 283.293L462.554 283.312C461.929 283.314 461.439 283.807 461.441 284.433C461.444 285.058 461.937 285.548 462.562 285.546L467.945 285.527V285.527Z" fill="#39B54A"/>
<path d="M482.239 285.478C481.505 286.307 481.084 287.38 481.088 288.542C481.093 289.77 481.611 290.975 482.529 291.91L487.644 291.892C488.27 291.89 488.763 292.379 488.765 293.005C488.767 293.63 488.277 294.123 487.652 294.125L483.944 294.138C483.388 294.855 483.079 295.749 483.082 296.665C483.086 297.871 483.604 298.964 484.455 299.787L492.384 299.76C493.01 299.758 493.503 300.248 493.505 300.873C493.507 301.476 493.017 301.992 492.392 301.994L487.769 302.01C487.213 302.749 486.903 303.643 486.906 304.604C486.915 307.239 489.357 309.397 492.373 309.387L500.168 309.36C500.481 309.359 500.771 309.313 501.061 309.268L501.061 309.357L509.951 309.326C511.805 309.32 521.223 307.277 521.223 307.277L540.12 307.503L540.036 282.956L522.011 282.951C521.561 281.992 520.932 280.944 520.012 279.674L514.045 272.302C514.045 272.28 514.045 272.28 514.045 272.28C512.923 270.899 511.268 270.122 509.526 270.128L502.847 270.151C500.949 270.158 499.188 271.169 498.3 272.803C498.278 272.825 498.278 272.847 498.256 272.892L497.037 275.867C496.209 275.423 495.27 275.181 494.288 275.184L486.493 275.211C483.477 275.221 481.05 277.463 481.06 280.188C481.064 281.305 481.469 282.376 482.232 283.244L487.615 283.226C488.24 283.224 488.733 283.713 488.735 284.339C488.737 284.964 488.248 285.457 487.622 285.459L482.239 285.478V285.478Z" fill="#39B54A"/>
<path d="M112.591 322.165C102.438 322.2 94.1236 314.232 93.6528 304.177C93.6269 303.693 93.9891 303.328 94.4738 303.326L130.627 303.202C131.063 303.201 131.452 303.587 131.454 304.047C131.052 314.081 122.768 322.13 112.591 322.165ZM112.213 268.469C94.8144 268.529 80.7361 282.704 80.796 300.102C80.8558 317.5 95.0314 331.579 112.43 331.519C129.828 331.459 143.906 317.283 143.846 299.885C143.786 282.487 129.635 268.409 112.213 268.469Z" fill="#916AE5"/>
<path d="M157.883 287.451C152.362 267.382 133.967 252.615 112.183 252.69C90.3265 252.765 71.9862 267.755 66.6763 287.958C64.0619 288.719 62.1317 291.124 62.1416 294.008L62.1633 300.308C62.1753 303.797 64.9958 306.598 68.4851 306.586L77.16 306.557C77.5961 306.555 77.9341 306.19 77.9327 305.778L77.873 288.429C77.8715 287.993 77.5069 287.655 77.0949 287.656L73.2906 287.669C78.5162 271.125 93.983 259.077 112.229 259.014C130.476 258.952 146.001 270.893 151.34 287.376L148.069 287.388C147.633 287.389 147.295 287.754 147.296 288.166L147.356 305.515C147.357 305.952 147.722 306.29 148.134 306.288L156.809 306.258C160.298 306.246 163.099 303.426 163.087 299.936L163.065 293.636C163.006 290.535 160.792 287.998 157.883 287.451Z" fill="white"/>
<path d="M98.3186 279.902L101.149 285.562L107.38 286.437L102.888 290.863L103.975 297.087L98.3677 294.174L92.8046 297.125L93.8493 290.894L89.3029 286.499L95.5515 285.581L98.3186 279.902Z" fill="#1E1B1C"/>
<path d="M125.118 279.809L127.925 285.47L134.179 286.345L129.687 290.77L130.775 296.994L125.168 294.082L119.604 297.033L120.649 290.802L116.103 286.407L122.351 285.489L125.118 279.809Z" fill="#1E1B1C"/>
<g clip-path="url(#clip0_67_6290)">
<path d="M100.025 130.033C102.366 133.071 105.604 134.982 109.058 135.685C110.203 135.924 111.376 136.023 112.544 135.976L109.937 137.985C106.927 140.303 105.02 143.687 104.568 147.498L103.178 159.215L100.926 158.42L99.0606 157.763L99.0435 157.628C97.675 156.985 96.3729 156.202 95.1617 155.26C93.7018 154.222 92.3757 152.941 91.2455 151.55L69.5399 123.373C69.0363 122.719 68.6179 121.999 68.3501 121.223C67.3009 118.122 68.3418 114.899 70.6872 113.093C72.2202 111.882 74.1946 111.383 76.1337 111.695C77.9988 112.024 79.6657 113.092 80.8178 114.625L93.9467 131.669C94.3218 132.193 94.8482 132.562 95.4646 132.732C95.7224 132.752 95.9736 132.687 96.183 132.555C96.394 132.363 96.5448 132.118 96.5811 131.812C96.5883 131.192 96.3808 130.607 95.9692 130.111L79.8424 109.176C78.6332 107.656 78.0872 105.725 78.2764 103.804C78.507 101.86 79.4993 100.073 81.0367 98.9188C83.3578 97.1309 86.6259 96.9252 89.3189 98.5814C90.0867 99.0615 90.7467 99.704 91.3032 100.426L99.9374 111.635C95.8593 116.85 95.7173 124.441 100.025 130.033Z" fill="#0071BC"/>
<path d="M114.711 103.242L118.132 107.681C113.179 105.196 107.109 105.546 102.51 109.089C102.193 109.333 101.886 109.589 101.599 109.86L94.5911 100.762C93.388 99.238 92.8373 97.3008 93.0639 95.3898C93.3463 93.4756 94.3492 91.7406 95.8683 90.6002C97.3952 89.3942 99.3369 88.8907 101.29 89.1824C103.177 89.465 104.905 90.4856 106.071 92.0377L114.71 103.252L114.711 103.242Z" fill="#0071BC"/>
<path d="M118.193 107.713L118.193 107.763L118.131 107.683C118.152 107.686 118.173 107.7 118.193 107.713Z" fill="#FBB03B"/>
<path d="M120.594 109.228L120.669 110.976L120.607 110.896L120.558 109.207C120.569 109.208 120.585 109.216 120.594 109.228Z" fill="#FBB03B"/>
<path d="M112.545 135.977L109.937 137.985C106.928 140.304 105.021 143.688 104.569 147.499L103.179 159.216L100.927 158.421L102.261 147.173C102.786 142.74 105.002 138.811 108.498 136.117L109.059 135.686C110.204 135.925 111.377 136.023 112.545 135.977Z" fill="#005288"/>
<path d="M128.439 125.492C127.07 136.238 117.258 143.797 106.522 142.383C103.876 142.033 101.43 141.178 99.2531 139.918C98.9095 139.717 98.5636 139.505 98.2343 139.287C96.9876 138.451 95.8403 137.49 94.8225 136.414C94.7875 136.378 94.749 136.337 94.714 136.3C94.3339 135.889 93.967 135.467 93.6221 135.029C93.4236 134.78 93.2349 134.517 93.0462 134.254C90.2723 130.362 88.9008 125.46 89.5549 120.356C90.9228 109.618 100.739 102.056 111.479 103.475C114.882 103.924 117.981 105.227 120.571 107.142C120.879 107.369 121.186 107.604 121.48 107.857C122.409 108.627 123.261 109.478 124.028 110.401C124.231 110.647 124.433 110.9 124.623 111.155C124.959 111.6 125.278 112.059 125.574 112.535C125.6 112.578 125.63 112.626 125.656 112.669C126.613 114.221 127.366 115.909 127.865 117.694C127.879 117.739 127.892 117.793 127.906 117.838C128.574 120.261 128.776 122.845 128.439 125.492Z" fill="white"/>
<path d="M99.5074 138.308L98.2402 139.284C98.5696 139.502 98.9121 139.71 99.259 139.915L100.192 139.197L99.5074 138.308ZM102.978 135.642L101.24 136.98L101.918 137.86L103.656 136.521L102.978 135.642ZM106.449 132.967L104.712 134.306L105.389 135.186L107.127 133.847L106.449 132.967ZM109.925 130.29L108.187 131.629L108.865 132.508L110.603 131.169L109.925 130.29ZM113.397 127.616L111.659 128.954L112.337 129.834L114.075 128.495L113.397 127.616ZM116.861 124.94L115.123 126.279L115.807 127.168L117.545 125.829L116.861 124.94ZM120.332 122.266L118.594 123.605L119.279 124.493L121.017 123.155L120.332 122.266ZM123.807 119.596L122.07 120.927L122.755 121.816L124.485 120.476L123.807 119.596ZM127.871 117.691L127.279 116.922L125.541 118.261L126.218 119.14L127.912 117.836C127.898 117.79 127.885 117.737 127.871 117.691Z" fill="#1E1B1C"/>
<path d="M120.568 107.141L119.393 108.046L120.078 108.934L121.477 107.856C121.184 107.603 120.876 107.368 120.568 107.141ZM117.66 109.381L115.922 110.72L116.599 111.6L118.337 110.261L117.66 109.381ZM114.188 112.055L112.45 113.394L113.128 114.274L114.866 112.935L114.188 112.055ZM110.712 114.733L108.974 116.072L109.652 116.951L111.39 115.613L110.712 114.733ZM107.241 117.407L105.504 118.738L106.188 119.627L107.918 118.287L107.241 117.407ZM103.774 120.078L102.036 121.417L102.72 122.305L104.458 120.966L103.774 120.078ZM100.302 122.752L98.5641 124.091L99.2486 124.979L100.987 123.641L100.302 122.752ZM96.8306 125.426L95.0926 126.765L95.7702 127.645L97.5082 126.306L96.8306 125.426ZM93.359 128.101L91.6255 129.436L92.3031 130.316L94.041 128.977L93.3634 128.097L93.359 128.101Z" fill="#1E1B1C"/>
<path d="M125.575 112.542L94.7189 136.311C94.3388 135.9 93.9719 135.478 93.627 135.04L124.62 111.165C124.96 111.607 125.279 112.066 125.575 112.542Z" fill="#1E1B1C"/>
<path d="M134.896 107.002L135.347 117.757L136.295 123.952C136.532 125.318 136.944 126.647 137.54 127.925C138.041 129.205 138.723 130.456 139.559 131.579L142.749 135.72C142.864 135.869 142.967 136.028 143.042 136.188C143.269 136.42 143.483 136.672 143.679 136.928C145.042 138.696 145.617 140.981 145.275 143.17C144.965 145.363 143.78 147.328 142.043 148.665L121.178 164.738C119.448 166.071 117.246 166.716 115.046 166.456C112.837 166.233 110.774 165.093 109.412 163.325C109.186 163.032 108.984 162.731 108.806 162.412C108.245 161.445 107.357 160.72 106.317 160.341L104.433 159.659L103.179 159.216L104.569 147.499C105.021 143.688 106.928 140.304 109.937 137.986L114.525 134.452C118.643 131.28 121.023 126.241 120.879 120.964L120.607 110.895L120.669 110.976L120.594 109.228L120.516 107.274C120.434 105.353 121.134 103.464 122.434 102.065C123.734 100.677 125.541 99.8607 127.45 99.8188C129.412 99.7565 131.33 100.521 132.744 101.902C134.094 103.264 134.845 105.096 134.896 107.002Z" fill="#0071BC"/>
</g>
<path d="M461.211 500.803C444.683 500.86 431.287 487.453 431.231 471.033C431.174 454.505 444.581 441.114 461.001 441.057C465.557 441.042 469.902 442.086 473.831 443.873L479.217 438.45C473.802 435.398 467.656 433.722 460.981 433.745C440.431 433.816 423.853 450.612 423.923 471.059C423.994 491.608 440.682 508.188 461.237 508.117C481.575 508.047 498.15 491.569 498.296 471.23L490.887 473.267C489.773 488.631 476.887 500.75 461.212 500.804L461.211 500.803Z" fill="#FFB330"/>
<path d="M461.058 455.037C461.588 455.035 462.117 455.034 462.648 455.139L468.664 449.081C466.332 448.241 463.785 447.72 461.033 447.729C448.213 447.773 437.871 458.192 437.915 471.007C437.959 483.828 448.377 494.169 461.193 494.125C472.527 494.086 481.93 485.898 483.904 475.189L475.648 477.444C473.229 482.96 467.627 486.795 461.27 486.817C452.477 486.847 445.356 479.775 445.325 470.981C445.192 462.188 452.264 455.066 461.057 455.036L461.058 455.037Z" fill="#FFB330"/>
<path d="M523.144 459.378L516.883 455.799L520.461 449.538C520.988 448.584 520.876 447.418 520.24 446.468C519.6 445.622 518.435 445.204 517.377 445.526L507.112 448.318C506.372 448.531 505.843 448.959 505.419 449.594L501.734 456.062L473.265 463.787L494.062 442.847L501.688 442.82C502.429 442.818 503.065 442.497 503.593 441.966L511.09 434.416C511.829 433.673 512.143 432.505 511.717 431.447C511.292 430.389 510.334 429.755 509.171 429.759L501.966 429.784L501.937 422.584C501.934 421.524 501.293 420.467 500.232 420.049C499.171 419.63 498.005 419.845 497.267 420.696L489.77 428.245C489.242 428.777 488.926 429.415 488.928 430.156L488.954 437.679L464.467 462.439C463.406 462.021 462.346 461.809 461.076 461.814C455.99 461.831 451.978 465.975 451.995 470.957C452.012 475.936 456.156 480.055 461.138 480.038C465.694 480.023 469.494 476.62 470.116 472.17L503.666 463.05L510.246 466.842C510.884 467.159 511.626 467.26 512.366 467.154L522.631 464.362C523.69 464.04 524.535 463.189 524.635 462.026C524.635 460.962 524.102 459.905 523.144 459.378L523.144 459.378Z" fill="white"/>
<path d="M117.089 480.274C125.199 480.246 131.752 473.649 131.724 465.538C131.696 457.428 125.098 450.876 116.988 450.904C108.878 450.931 102.325 457.529 102.353 465.639C102.381 473.75 108.979 480.302 117.089 480.274Z" fill="#009E8B"/>
<path d="M131.692 456.26L131.716 463.163L102.837 463.263L102.813 456.36C102.793 450.672 107.405 446.028 113.093 446.008L121.315 445.98C127.054 445.96 131.672 450.572 131.692 456.26Z" fill="white"/>
<path d="M131.704 460.061L131.715 463.111C131.715 463.137 131.689 463.137 131.689 463.163C131.277 463.604 130.683 463.891 130.011 463.893L94.5132 464.015C93.2463 464.019 92.2086 462.989 92.2042 461.722C92.1998 460.455 93.2305 459.417 94.4973 459.413L129.995 459.291C130.667 459.289 131.289 459.597 131.704 460.061Z" fill="white"/>
<path d="M79.6129 432.267L66.8652 442.694L77.293 455.442L90.0407 445.014L79.6129 432.267Z" fill="#009E8B"/>
<path d="M155.164 455.584L149.088 455.605C144.797 455.62 141.32 452.167 141.305 447.875L141.285 441.8C141.27 437.508 144.722 434.032 149.014 434.017L155.09 433.996C159.382 433.981 162.858 437.434 162.873 441.725L162.894 447.801C162.908 452.093 159.456 455.569 155.164 455.584Z" fill="#009E8B"/>
<path d="M120.222 414.131L102.219 426.655L122.081 435.997L120.222 414.131Z" fill="#009E8B"/>
<path d="M154.09 466.344C151.989 464.257 148.576 464.269 146.489 466.37L130.489 482.481C123.275 489.745 111.511 489.785 104.247 482.571L87.7211 466.159C85.6197 464.072 82.207 464.083 80.12 466.185C78.033 468.286 78.0448 471.699 80.1462 473.786L90.731 484.298C94.363 487.905 96.7062 492.629 97.3442 497.72L97.5332 507.544L136.677 507.409L136.697 498.36C137.3 493.265 139.611 488.525 143.218 484.893L154.117 473.919C156.204 471.844 156.192 468.431 154.09 466.344Z" fill="#009E8B"/>
<g clip-path="url(#clip1_67_6290)">
<path d="M273.41 513.804L267.206 513.825L266.894 423.084L273.098 423.062L273.41 513.804Z" fill="#625F60"/>
<path d="M291.558 513.742L285.354 513.763L285.042 423.021L291.246 423L291.558 513.742Z" fill="#625F60"/>
<path d="M309.707 513.679L303.503 513.7L303.19 422.959L309.395 422.938L309.707 513.679Z" fill="#625F60"/>
<path d="M338.046 423.265C339.825 419.255 341.552 421.833 341.552 421.833C341.552 421.833 343.676 423.664 344.762 425.049C345.833 426.435 342.062 428.136 342.062 428.136L325.044 445.478C322.624 447.936 323.775 450.979 324.951 452.887C325.666 454.05 325.494 455.574 324.52 456.549L272.506 509.37C271.163 510.734 268.614 510.354 266.816 508.553L257.913 499.636C256.115 497.819 255.721 495.251 257.064 493.902L309.136 441.006C310.096 440.032 311.576 439.847 312.749 440.546C314.871 441.808 318.312 443.245 320.556 440.967L338.046 423.265Z" fill="#FEB330"/>
<path d="M325.164 509.992C330.145 509.974 334.17 505.888 334.152 500.863C334.135 495.839 330.083 491.78 325.101 491.797C320.119 491.814 316.095 495.901 316.112 500.925C316.13 505.95 320.182 510.009 325.164 509.992Z" fill="#FEB330"/>
</g>
<path opacity="0.5" fill-rule="evenodd" clip-rule="evenodd" d="M527.557 122.015L422.578 121.147L422.609 117.344L527.589 118.212L527.557 122.015Z" fill="#1978F2"/>
<path opacity="0.5" fill-rule="evenodd" clip-rule="evenodd" d="M527.385 142.989L422.405 142.121L422.437 138.318L527.416 139.186L527.385 142.989Z" fill="#1978F2"/>
<path d="M442.271 109.277L441.987 143.612C439.833 141.966 437.179 140.94 434.258 140.916C427.109 140.857 421.257 146.612 421.198 153.762C421.139 160.92 426.894 166.763 434.044 166.823C441.202 166.882 447.053 161.134 447.112 153.976L447.368 123.027L480.569 123.286L480.421 141.275C478.266 139.629 475.605 138.603 472.692 138.579C465.534 138.52 459.69 144.268 459.631 151.425C459.572 158.575 465.328 164.427 472.477 164.486C479.627 164.545 485.479 158.789 485.538 151.639L485.888 109.273L442.271 109.277Z" fill="#1978F2"/>
<path d="M530.466 98.0675C530.402 105.811 524.045 112.064 516.302 112C512.879 111.972 509.748 110.714 507.331 108.647L507.042 143.499C507.031 144.891 505.896 146.015 504.496 146.003C503.104 145.992 501.98 144.849 501.992 143.457L502.364 98.4665C502.364 98.4133 502.365 98.3525 502.373 98.2993C502.367 98.1471 502.368 97.9874 502.369 97.8352C502.433 90.0921 508.791 83.8388 516.534 83.9028C524.277 83.9668 530.53 90.3245 530.466 98.0675Z" fill="white"/>
<defs>
<clipPath id="clip0_67_6290">
<rect width="63.2264" height="76.638" fill="white" transform="translate(62 113.584) rotate(-37.6081)"/>
</clipPath>
<clipPath id="clip1_67_6290">
<rect width="88.9266" height="88.9266" fill="white" transform="translate(256 421.306) rotate(-0.19716)"/>
</clipPath>
</defs>
</svg>
