<svg xmlns="http://www.w3.org/2000/svg" xmlns:xlink="http://www.w3.org/1999/xlink" viewBox="0 0 2289.52 1579.46"><defs><style>.cls-1{fill:none;}.cls-2{clip-path:url(#clip-path);}.cls-3{fill:#fff;}.cls-4{clip-path:url(#clip-path-2);}.cls-5{fill:#acdb00;}.cls-6{fill:#001a73;}.cls-7{fill:#abcf37;}.cls-8{clip-path:url(#clip-path-3);}</style><clipPath id="clip-path" transform="translate(0 0)"><rect class="cls-1" width="2289.53" height="1431.42"/></clipPath><clipPath id="clip-path-2" transform="translate(0 0)"><polygon class="cls-1" points="1475.4 1431.15 227.49 431.83 1041.83 431.83 2289.74 1431.15 1475.4 1431.15"/></clipPath><clipPath id="clip-path-3" transform="translate(0 0)"><polygon class="cls-1" points="2289.74 1431.15 1041.83 431.83 2289.52 431.83 2289.74 1431.15"/></clipPath></defs><g id="Layer_2" data-name="Layer 2"><g id="Layer_1-2" data-name="Layer 1"><g id="Layer_2-2" data-name="Layer 2"><g id="Layer_1-2-2" data-name="Layer 1-2"><g class="cls-2"><polygon class="cls-3" points="2289.52 1431.42 1475.18 1431.42 0.11 249.39 0 0 503.38 0.12 2289.52 1431.42"/><g class="cls-4"><path class="cls-5" d="M1591.85,1107.91v33.81a37.5,37.5,0,0,1-55.42,32.93l5.48-5.49a30.14,30.14,0,0,0,42.57-27.44v-30.13h-30.13a30.16,30.16,0,0,0-27.41,42.63l-5.5,5.49a37.54,37.54,0,0,1,32.91-55.49h33.82A3.7,3.7,0,0,1,1591.85,1107.91Z" transform="translate(0 0)"/><polygon class="cls-6" points="1552.18 1149.13 1568.06 1149.13 1568.06 1156.5 1544.81 1156.5 1543.23 1158.08 1525.26 1176.06 1514.94 1186.37 1509.72 1181.16 1520.05 1170.85 1538.02 1152.87 1539.59 1151.29 1539.59 1128.04 1546.96 1128.04 1546.96 1143.92 1562.89 1128 1568.1 1133.21 1552.18 1149.13"/><path class="cls-5" d="M966.39,774.38H919.27l-23.56-40.8,23.56-40.8h47.12l23.55,40.8Zm-43.08-7h39l19.51-33.8-19.51-33.8h-39l-19.51,33.8Z" transform="translate(0 0)"/><path class="cls-6" d="M942.83,754a20.4,20.4,0,1,1,20.4-20.4A20.4,20.4,0,0,1,942.83,754Zm0-33.8a13.4,13.4,0,1,0,13.4,13.4,13.4,13.4,0,0,0-13.4-13.4h0Z" transform="translate(0 0)"/><path class="cls-6" d="M1347,1146.63a20.94,20.94,0,1,1,20.93-21h0A21,21,0,0,1,1347,1146.63Zm0-34.88a13.94,13.94,0,1,0,13.93,14h0A14,14,0,0,0,1347,1111.75Z" transform="translate(0 0)"/><path class="cls-5" d="M1386.11,1185.84h-7a32.12,32.12,0,1,0-64.24,0v0h-7a39.12,39.12,0,1,1,78.24,0Z" transform="translate(0 0)"/><path class="cls-5" d="M562.52,774.34H507.37v-7h55.15a6.33,6.33,0,0,0,0-12.66H545a13.35,13.35,0,0,1-13.33-13.33v-2.18A13.35,13.35,0,0,1,545,725.84h14.68v7H545a6.35,6.35,0,0,0-6.33,6.33v2.18a6.35,6.35,0,0,0,6.33,6.33h17.48a13.33,13.33,0,0,1,0,26.66Z" transform="translate(0 0)"/><path class="cls-6" d="M508.11,774.27a3.51,3.51,0,0,1-3-1.77L490.8,747.38a20.06,20.06,0,0,1-.16-19.63,19.31,19.31,0,0,1,15.91-10.17,20.89,20.89,0,0,1,3.79.11,19.19,19.19,0,0,1,15,10.48,20.13,20.13,0,0,1-.24,18.94l-13.9,25.34a3.52,3.52,0,0,1-3.05,1.82Zm-.31-49.73H507a12.21,12.21,0,0,0-10.17,6.53,13.12,13.12,0,0,0,.09,12.82l11.18,19.67L519,743.74h0a13.15,13.15,0,0,0,.14-12.37,12.27,12.27,0,0,0-9.57-6.73,15,15,0,0,0-1.77-.1Z" transform="translate(0 0)"/><path class="cls-6" d="M560.78,732.91a3.52,3.52,0,0,1-3-1.77l-9.49-16.71a14.51,14.51,0,0,1-.11-14.2,14,14,0,0,1,11.54-7.38,15.58,15.58,0,0,1,2.73.08,14.08,14.08,0,0,1,10.87,7.6,14.58,14.58,0,0,1-.17,13.7h0l-9.25,16.86a3.52,3.52,0,0,1-3,1.82Zm-.21-33.09h-.49a7,7,0,0,0-5.8,3.73,7.53,7.53,0,0,0,.05,7.4l6.39,11.26L567,710.86h0a7.57,7.57,0,0,0,.09-7.13,7,7,0,0,0-5.48-3.85,9.07,9.07,0,0,0-1-.06Z" transform="translate(0 0)"/><path class="cls-5" d="M1580.8,980h-55.14v-7h55.14a6.33,6.33,0,0,0,0-12.66h-17.5A13.35,13.35,0,0,1,1550,947v-2.18a13.35,13.35,0,0,1,13.33-13.33H1578v7h-14.68a6.35,6.35,0,0,0-6.33,6.33V947a6.35,6.35,0,0,0,6.33,6.33h17.47a13.33,13.33,0,0,1,0,26.66h0Z" transform="translate(0 0)"/><path class="cls-6" d="M1526.39,979.91a3.49,3.49,0,0,1-3-1.77L1509.08,953a20.09,20.09,0,0,1-.15-19.63,19.31,19.31,0,0,1,15.91-10.18,22.87,22.87,0,0,1,3.79.11,19.21,19.21,0,0,1,15,10.48,20.14,20.14,0,0,1-.23,19l-13.91,25.34a3.48,3.48,0,0,1-3,1.81Zm-.3-49.73h-.85a12.19,12.19,0,0,0-10.16,6.53,13.11,13.11,0,0,0,.09,12.83l11.17,19.66,10.89-19.84h0a13.17,13.17,0,0,0,.15-12.38,12.3,12.3,0,0,0-9.58-6.72A14,14,0,0,0,1526.09,930.18Z" transform="translate(0 0)"/><path class="cls-6" d="M1579.06,938.55a3.49,3.49,0,0,1-3-1.77l-9.49-16.71a14.53,14.53,0,0,1-.12-14.2,14,14,0,0,1,11.55-7.38,16.61,16.61,0,0,1,2.73.08,14.14,14.14,0,0,1,10.87,7.6,14.62,14.62,0,0,1-.17,13.71h0l-9.25,16.86a3.48,3.48,0,0,1-3,1.81Zm-.2-33.09h-.5a7,7,0,0,0-5.8,3.74,7.54,7.54,0,0,0,0,7.39l6.4,11.26,6.24-11.36h0a7.61,7.61,0,0,0,.08-7.14,7.06,7.06,0,0,0-5.47-3.85c-.32,0-.63,0-1,0Z" transform="translate(0 0)"/><path class="cls-5" d="M361.68,573H298.91a3.7,3.7,0,0,1-3.69-3.68v-72a3.69,3.69,0,0,1,3.69-3.69h62.77a3.7,3.7,0,0,1,3.68,3.69v72.08A3.67,3.67,0,0,1,361.68,573Zm-59.09-7.37H358V501H302.6Z" transform="translate(0 0)"/><polygon class="cls-6" points="336.01 516.63 336.01 524 327.53 524 327.53 532.48 320.16 532.48 320.16 524 311.68 524 311.68 516.63 320.16 516.63 320.16 508.15 327.53 508.15 327.53 516.63 336.01 516.63"/><rect class="cls-6" x="332.94" y="549.59" width="16.63" height="7.37"/><path class="cls-5" d="M1175,1185h-62.77a3.68,3.68,0,0,1-3.68-3.68h0v-72.08a3.7,3.7,0,0,1,3.68-3.69H1175a3.69,3.69,0,0,1,3.69,3.69v72.08A3.7,3.7,0,0,1,1175,1185Zm-59.08-7.37h55.4v-64.71h-55.4Z" transform="translate(0 0)"/><polygon class="cls-6" points="1149.33 1128.61 1149.33 1135.98 1140.85 1135.98 1140.85 1144.46 1133.48 1144.46 1133.48 1135.98 1125 1135.98 1125 1128.61 1133.48 1128.61 1133.48 1120.13 1140.85 1120.13 1140.85 1128.61 1149.33 1128.61"/><rect class="cls-6" x="1146.27" y="1161.57" width="16.63" height="7.37"/><path class="cls-5" d="M1378.37,773.31H1315.6a3.7,3.7,0,0,1-3.68-3.69V697.54a3.68,3.68,0,0,1,3.68-3.68h62.77a3.68,3.68,0,0,1,3.69,3.67h0v72.08A3.69,3.69,0,0,1,1378.37,773.31Zm-59.08-7.37h55.4V701.23h-55.4Z" transform="translate(0 0)"/><polygon class="cls-6" points="1352.7 716.89 1352.7 724.26 1344.22 724.26 1344.22 732.74 1336.85 732.74 1336.85 724.26 1328.37 724.26 1328.37 716.89 1336.85 716.89 1336.85 708.41 1344.22 708.41 1344.22 716.89 1352.7 716.89"/><rect class="cls-6" x="1349.64" y="749.86" width="16.63" height="7.37"/><path class="cls-6" d="M973.66,927.54h-7a23.83,23.83,0,0,0-47.66,0h-7a30.83,30.83,0,0,1,61.66,0Z" transform="translate(0 0)"/><path class="cls-5" d="M981.4,981.74H904.26V926.6H981.4Zm-70.14-7H974.4V933.6H911.26Z" transform="translate(0 0)"/><rect class="cls-6" x="939.33" y="944.86" width="7" height="14.44"/><path class="cls-5" d="M1137.12,557.31a32.23,32.23,0,1,1,32.23-32.23h0A32.25,32.25,0,0,1,1137.12,557.31Zm0-57.45a25.23,25.23,0,1,0,25.23,25.23h0A25.25,25.25,0,0,0,1137.12,499.86Z" transform="translate(0 0)"/><rect class="cls-6" x="1170.22" y="548.11" width="7" height="27.18" transform="translate(-53.41 994.46) rotate(-45)"/><path class="cls-5" d="M1168.34,776h-46a7.52,7.52,0,0,1-7.5-7.5V698.7a7.52,7.52,0,0,1,7.5-7.5h46a7.52,7.52,0,0,1,7.5,7.5v69.76a7.52,7.52,0,0,1-7.5,7.54Zm-46-77.76a.5.5,0,0,0-.5.5V768.5a.5.5,0,0,0,.5.5h46a.52.52,0,0,0,.5-.5V698.7a.52.52,0,0,0-.5-.5Z" transform="translate(0 0)"/><rect class="cls-6" x="1141.57" y="757.18" width="7.57" height="7"/><path class="cls-5" d="M1982.87,1187.67h-46a7.52,7.52,0,0,1-7.5-7.5v-69.75a7.52,7.52,0,0,1,7.5-7.5h46a7.5,7.5,0,0,1,7.5,7.5v69.75A7.5,7.5,0,0,1,1982.87,1187.67Zm-46-77.75a.5.5,0,0,0-.5.5v69.75a.5.5,0,0,0,.5.5h46a.5.5,0,0,0,.5-.5v-69.75a.5.5,0,0,0-.5-.5Z" transform="translate(0 0)"/><rect class="cls-6" x="1956.1" y="1168.9" width="7.57" height="7"/><path class="cls-5" d="M739.55,573.81A40.5,40.5,0,1,1,780,533.26v.06A40.52,40.52,0,0,1,739.55,573.81Zm0-73.62a33.13,33.13,0,1,0,33.12,33.14h0A33.16,33.16,0,0,0,739.55,500.19Z" transform="translate(0 0)"/><rect class="cls-6" x="735.86" y="509.69" width="7.37" height="13.52"/><rect class="cls-6" x="746.27" y="541.74" width="7.37" height="13.52" transform="translate(-179.17 545.57) rotate(-36)"/><rect class="cls-6" x="719.02" y="521.93" width="7.37" height="13.52" transform="translate(-3.44 1052.65) rotate(-72)"/><rect class="cls-6" x="749.63" y="524.98" width="13.52" height="7.37" transform="translate(-126.35 259.61) rotate(-18)"/><rect class="cls-6" x="722.38" y="544.81" width="13.52" height="7.37" transform="translate(-143.18 815.99) rotate(-54)"/><path class="cls-5" d="M1347,980.05a40.83,40.83,0,1,1,40.82-40.84h0A40.87,40.87,0,0,1,1347,980.05Zm0-74.65a33.83,33.83,0,1,0,33.82,33.84v0A33.86,33.86,0,0,0,1347,905.4Z" transform="translate(0 0)"/><polygon class="cls-6" points="1341.94 957.68 1325.3 941.04 1330.25 936.09 1341.94 947.78 1365.02 924.71 1369.97 929.66 1341.94 957.68"/><polygon class="cls-6" points="1170.84 936.16 1163.84 936.16 1163.84 919.53 1147.21 919.53 1147.21 912.53 1170.84 912.53 1170.84 936.16"/><polygon class="cls-6" points="1183.96 923.98 1176.96 923.98 1176.96 907.35 1160.32 907.35 1160.32 900.35 1183.96 900.35 1183.96 923.98"/><path class="cls-5" d="M1157.65,979.52a52.2,52.2,0,0,1-52.13-52.14v-6.21a22.27,22.27,0,0,1,22.24-22.24h7.85a3.5,3.5,0,0,1,3.5,3.5h0v24.72a3.5,3.5,0,0,1-3.5,3.5h-4.31a26.57,26.57,0,0,0,23.11,23.09v-4.31a3.5,3.5,0,0,1,3.5-3.5h23.78a3.5,3.5,0,0,1,3.5,3.5v7.85A22.27,22.27,0,0,1,1163,979.51Zm-29.89-73.59a15.26,15.26,0,0,0-15.24,15.24v6.21a45.2,45.2,0,0,0,45.13,45.14h5.29a15.27,15.27,0,0,0,15.25-15.23v-4.35h-16.78v4.5a3.49,3.49,0,0,1-3.47,3.51,33.57,33.57,0,0,1-33.84-33.3v-.52a3.49,3.49,0,0,1,.94-2.35l.19-.19a3.51,3.51,0,0,1,2.38-.93h4.5V905.93Z" transform="translate(0 0)"/><path class="cls-5" d="M558.69,493.31H529.76a42.29,42.29,0,0,0-42.24,42.24v13a5.61,5.61,0,0,1,.82,0,8.91,8.91,0,0,1,6.18,2.49V535.55a35.28,35.28,0,0,1,35.24-35.24h28.93a25.59,25.59,0,0,1,25.56,25.55v29.06a8.9,8.9,0,0,1-1.46,7.85h5a3.5,3.5,0,0,0,3.5-3.5V525.86A32.58,32.58,0,0,0,558.69,493.31Zm8.21,62.46H497.11a8.91,8.91,0,0,1-1.65,7h73.1A8.86,8.86,0,0,1,566.9,555.77Z" transform="translate(0 0)"/><path class="cls-6" d="M500.65,555.77A12.42,12.42,0,0,0,488.34,545h-.82a12.42,12.42,0,1,0,13.12,10.77Zm-12.31,10.55a8.92,8.92,0,0,1-.82-17.81,5.61,5.61,0,0,1,.82,0,8.92,8.92,0,0,1,8.77,7.3,8.8,8.8,0,0,1,.15,1.62,8.92,8.92,0,0,1-8.91,8.93h0Z" transform="translate(0 0)"/><path class="cls-6" d="M504.18,555.77a15.94,15.94,0,0,0-15.84-14.3h-.82a15.91,15.91,0,1,0,16.74,15.9C504.26,556.84,504.23,556.31,504.18,555.77Zm-6.92,1.62a8.93,8.93,0,1,1-9.74-8.88,5.61,5.61,0,0,1,.82,0,8.92,8.92,0,0,1,8.77,7.3,8.37,8.37,0,0,1,.15,1.58Z" transform="translate(0 0)"/><path class="cls-6" d="M584.25,548.41a12.4,12.4,0,1,0,3.85,9A12.39,12.39,0,0,0,584.25,548.41Zm-8.58,17.91a8.94,8.94,0,0,1-8.92-8.93,8.8,8.8,0,0,1,.15-1.62,8.92,8.92,0,1,1,8.77,10.55Z" transform="translate(0 0)"/><path class="cls-6" d="M591.25,554.06a15.93,15.93,0,0,0-31.42,1.71c-.05.54-.08,1.07-.08,1.62a15.93,15.93,0,1,0,31.5-3.33Zm-8.46,8.71a8.91,8.91,0,0,1-12.48,1.75,9.07,9.07,0,0,1-1.75-1.75,8.92,8.92,0,1,1,14.23,0Z" transform="translate(0 0)"/><rect class="cls-5" x="534.68" y="506.79" width="7" height="42.13"/><path class="cls-5" d="M1780.17,1105.29h-28.94a42.29,42.29,0,0,0-42.24,42.24v13a5.61,5.61,0,0,1,.82,0,8.86,8.86,0,0,1,6.18,2.5v-15.42a35.28,35.28,0,0,1,35.24-35.24h28.94a25.59,25.59,0,0,1,25.55,25.55V1167a8.9,8.9,0,0,1-1.46,7.85h5a3.5,3.5,0,0,0,3.5-3.5v-33.41a32.58,32.58,0,0,0-32.53-32.63Zm8.2,62.46h-69.79a8.86,8.86,0,0,1-1.66,7H1790a8.86,8.86,0,0,1-1.66-7Z" transform="translate(0 0)"/><path class="cls-6" d="M1722.12,1167.75a12.42,12.42,0,0,0-12.31-10.8H1709a12.42,12.42,0,1,0,13.12,10.77Zm-12.31,10.55a8.92,8.92,0,0,1-.82-17.81,5.61,5.61,0,0,1,.82,0,8.91,8.91,0,1,1,0,17.81Z" transform="translate(0 0)"/><path class="cls-6" d="M1725.65,1167.75a15.94,15.94,0,0,0-15.84-14.3H1709a15.93,15.93,0,1,0,15.8,21.28,15.67,15.67,0,0,0,.94-5.38C1725.73,1168.82,1725.7,1168.29,1725.65,1167.75Zm-6.92,1.62a9,9,0,1,1-9.74-8.88,5.61,5.61,0,0,1,.82,0,9,9,0,0,1,8.77,7.3A8.37,8.37,0,0,1,1718.73,1169.37Z" transform="translate(0 0)"/><path class="cls-6" d="M1805.72,1160.39a12.4,12.4,0,1,0,3.85,9A12.39,12.39,0,0,0,1805.72,1160.39Zm-8.57,17.91a9,9,0,0,1-8.93-8.93,8.8,8.8,0,0,1,.15-1.62,8.92,8.92,0,1,1,8.78,10.55Z" transform="translate(0 0)"/><path class="cls-6" d="M1812.72,1166a15.92,15.92,0,0,0-7-10.07,15.69,15.69,0,0,0-8.57-2.52,16,16,0,0,0-15.85,14.3c0,.54-.08,1.07-.08,1.62a15.93,15.93,0,1,0,31.5-3.33Zm-8.46,8.71a8.93,8.93,0,0,1-16-5.38,8.8,8.8,0,0,1,.15-1.62,8.92,8.92,0,1,1,15.89,7Z" transform="translate(0 0)"/><rect class="cls-5" x="1756.15" y="1118.77" width="7" height="42.13"/><path class="cls-5" d="M738.64,744.56H713.79a3.73,3.73,0,0,1-3.09-5.81L742.86,691l6.18,4.17-28.25,42h17.85Z" transform="translate(0 0)"/><path class="cls-6" d="M736.24,776.18,730.06,772l28.25-42H740.46v-7.4h24.85a3.73,3.73,0,0,1,3.09,5.81Z" transform="translate(0 0)"/><path class="cls-5" d="M963.3,573.91a23.64,23.64,0,0,1-23.61-23.62V516.34a16.64,16.64,0,0,0-16.62-16.62h-2.45A16.64,16.64,0,0,0,904,516.34V532h-7V516.34a23.65,23.65,0,0,1,23.62-23.62h2.45a23.65,23.65,0,0,1,23.62,23.62v33.95a16.61,16.61,0,0,0,33.22,0V532h7v18.28A23.65,23.65,0,0,1,963.3,573.91Z" transform="translate(0 0)"/><rect class="cls-6" x="886.88" y="528.95" width="111.9" height="7"/><path class="cls-5" d="M963.3,573.91a23.64,23.64,0,0,1-23.61-23.62V516.34a16.64,16.64,0,0,0-16.62-16.62h-2.45A16.64,16.64,0,0,0,904,516.34h-7a23.65,23.65,0,0,1,23.62-23.62h2.45a23.65,23.65,0,0,1,23.62,23.62v33.95a16.61,16.61,0,0,0,33.22,0h7A23.64,23.64,0,0,1,963.3,573.91Z" transform="translate(0 0)"/></g><polygon class="cls-7" points="2289.52 0 2289.52 1431.42 503.22 0 2289.52 0"/><g class="cls-8"><path class="cls-6" d="M1591.35,495.94v33.8a37.5,37.5,0,0,1-55.42,32.93l5.48-5.49A30.14,30.14,0,0,0,1584,529.74V499.61h-30.13a30.16,30.16,0,0,0-27.41,42.63l-5.49,5.49a37.52,37.52,0,0,1,32.9-55.49h33.82A3.69,3.69,0,0,1,1591.35,495.94Z" transform="translate(0 0)"/><polygon class="cls-3" points="1551.68 537.15 1567.56 537.15 1567.56 544.52 1544.31 544.52 1542.73 546.1 1524.76 564.08 1514.44 574.39 1509.23 569.18 1519.55 558.87 1537.52 540.89 1539.09 539.31 1539.09 516.06 1546.46 516.06 1546.46 531.94 1562.39 516.02 1567.6 521.23 1551.68 537.15"/><path class="cls-6" d="M1983.44,980h-47.11l-23.56-40.81,23.56-40.8h47.11l23.56,40.8Zm-43.07-7h39l19.52-33.81-19.52-33.8h-39l-19.52,33.8Z" transform="translate(0 0)"/><path class="cls-3" d="M1959.89,959.63a20.41,20.41,0,1,1,20.4-20.42h0A20.44,20.44,0,0,1,1959.89,959.63Zm0-33.81a13.41,13.41,0,1,0,13.4,13.42v0A13.41,13.41,0,0,0,1959.89,925.82Z" transform="translate(0 0)"/><path class="cls-3" d="M1347,534.65a20.94,20.94,0,1,1,20.93-20.95h0A21,21,0,0,1,1347,534.65Zm0-34.88a13.94,13.94,0,1,0,13.93,14h0A14,14,0,0,0,1347,499.77Z" transform="translate(0 0)"/><path class="cls-6" d="M1386.11,573.86h-7a32.12,32.12,0,1,0-64.24,0v0h-7a39.12,39.12,0,1,1,78.24,0Z" transform="translate(0 0)"/><path class="cls-6" d="M1378.37,773.31H1315.6a3.7,3.7,0,0,1-3.68-3.69V697.54a3.68,3.68,0,0,1,3.68-3.68h62.77a3.68,3.68,0,0,1,3.69,3.67h0v72.08A3.69,3.69,0,0,1,1378.37,773.31Zm-59.08-7.37h55.4V701.23h-55.4Z" transform="translate(0 0)"/><polygon class="cls-3" points="1352.7 716.89 1352.7 724.26 1344.22 724.26 1344.22 732.74 1336.85 732.74 1336.85 724.26 1328.37 724.26 1328.37 716.89 1336.85 716.89 1336.85 708.41 1344.22 708.41 1344.22 716.89 1352.7 716.89"/><rect class="cls-3" x="1349.64" y="749.86" width="16.63" height="7.37"/><path class="cls-3" d="M1784.31,521.63h-7a23.84,23.84,0,0,0-47.67,0h-7a30.84,30.84,0,0,1,61.67,0Z" transform="translate(0 0)"/><path class="cls-6" d="M1792.05,575.83H1714.9V520.7h77.15Zm-70.15-7h63.15V527.7H1721.9Z" transform="translate(0 0)"/><rect class="cls-3" x="1749.97" y="538.96" width="7" height="14.44"/><path class="cls-6" d="M1137.12,557.31a32.23,32.23,0,1,1,32.23-32.23h0A32.25,32.25,0,0,1,1137.12,557.31Zm0-57.45a25.23,25.23,0,1,0,25.23,25.23h0A25.25,25.25,0,0,0,1137.12,499.86Z" transform="translate(0 0)"/><rect class="cls-3" x="1170.22" y="548.11" width="7" height="27.18" transform="translate(-53.41 994.46) rotate(-45)"/><path class="cls-6" d="M1982.87,1187.67h-46a7.52,7.52,0,0,1-7.5-7.5v-69.75a7.52,7.52,0,0,1,7.5-7.5h46a7.5,7.5,0,0,1,7.5,7.5v69.75A7.5,7.5,0,0,1,1982.87,1187.67Zm-46-77.75a.5.5,0,0,0-.5.5v69.75a.5.5,0,0,0,.5.5h46a.5.5,0,0,0,.5-.5v-69.75a.5.5,0,0,0-.5-.5Z" transform="translate(0 0)"/><rect class="cls-3" x="1956.1" y="1168.9" width="7.57" height="7"/><path class="cls-6" d="M1753.48,774.07A40.49,40.49,0,1,1,1794,733.58,40.49,40.49,0,0,1,1753.48,774.07Zm0-73.61a33.12,33.12,0,1,0,33.12,33.12h0A33.16,33.16,0,0,0,1753.48,700.46Z" transform="translate(0 0)"/><rect class="cls-3" x="1749.79" y="709.95" width="7.37" height="13.52"/><rect class="cls-3" x="1760.21" y="742.03" width="7.37" height="13.52" transform="translate(-103.25 1179.8) rotate(-36)"/><rect class="cls-3" x="1732.95" y="722.19" width="7.37" height="13.52" transform="translate(506.71 2155.33) rotate(-72)"/><rect class="cls-3" x="1763.56" y="725.21" width="13.52" height="7.37" transform="translate(-138.6 582.73) rotate(-18)"/><rect class="cls-3" x="1736.33" y="745.09" width="13.52" height="7.37" transform="translate(112.75 1718.85) rotate(-54)"/><polygon class="cls-3" points="1985.37 530.25 1978.37 530.25 1978.37 513.62 1961.74 513.62 1961.74 506.62 1985.37 506.62 1985.37 530.25"/><polygon class="cls-3" points="1998.49 518.07 1991.49 518.07 1991.49 501.44 1974.86 501.44 1974.86 494.44 1998.49 494.44 1998.49 518.07"/><path class="cls-6" d="M1972.19,573.61a52.2,52.2,0,0,1-52.14-52.14v-6.21A22.25,22.25,0,0,1,1942.29,493h7.85a3.49,3.49,0,0,1,3.5,3.48v24.73a3.5,3.5,0,0,1-3.5,3.5h-4.31a26.6,26.6,0,0,0,23.11,23.1v-4.32a3.5,3.5,0,0,1,3.5-3.5h23.78a3.5,3.5,0,0,1,3.5,3.5v7.85a22.28,22.28,0,0,1-22.24,22.24ZM1942.29,500a15.24,15.24,0,0,0-15.23,15.23v6.21a45.19,45.19,0,0,0,45.14,45.14h5.29a15.27,15.27,0,0,0,15.24-15.24V547H1976v4.51a3.5,3.5,0,0,1-3.47,3.5,33.55,33.55,0,0,1-33.83-33.27v-.54a3.49,3.49,0,0,1,.93-2.36l.19-.19a3.51,3.51,0,0,1,2.38-.93h4.5V500Z" transform="translate(0 0)"/><path class="cls-6" d="M1577,693.57h-29a42.27,42.27,0,0,0-42.23,42.24v13h.81a8.88,8.88,0,0,1,6.19,2.5v-15.5A35.27,35.27,0,0,1,1548,700.57h29a25.59,25.59,0,0,1,25.55,25.56v29.06a8.9,8.9,0,0,1-1.45,7.84h5a3.49,3.49,0,0,0,3.5-3.48V726.13A32.59,32.59,0,0,0,1577,693.57Zm8.2,62.46h-69.8a8.86,8.86,0,0,1-1.66,7h73.1a8.86,8.86,0,0,1-1.66-7Z" transform="translate(0 0)"/><path class="cls-3" d="M1518.94,756a12.42,12.42,0,0,0-12.32-10.8h-.81A12.45,12.45,0,1,0,1519,756.84C1519,756.56,1519,756.28,1518.94,756Zm-12.32,10.55a8.92,8.92,0,0,1-.81-17.81h.81a8.92,8.92,0,1,1,0,17.84Z" transform="translate(0 0)"/><path class="cls-3" d="M1522.47,756a15.93,15.93,0,0,0-15.85-14.3h-.81a15.91,15.91,0,1,0,16.74,15.91C1522.55,757.11,1522.52,756.57,1522.47,756Zm-6.92,1.63a8.76,8.76,0,0,1-1.81,5.37,8.92,8.92,0,1,1-7.93-14.26h.81a9,9,0,0,1,8.78,7.3,8.8,8.8,0,0,1,.15,1.62Z" transform="translate(0 0)"/><path class="cls-3" d="M1602.53,748.67a12.42,12.42,0,1,0,3.74,10.61A12.42,12.42,0,0,0,1602.53,748.67ZM1594,766.58a8.92,8.92,0,1,1,8.92-8.92,8.89,8.89,0,0,1-8.92,8.92Z" transform="translate(0 0)"/><path class="cls-3" d="M1609.53,754.33a15.9,15.9,0,0,0-7-10.08,15.69,15.69,0,0,0-8.57-2.52,16,16,0,0,0-15.85,14.3c0,.54-.08,1.08-.08,1.63a15.71,15.71,0,0,0,1,5.34,15.92,15.92,0,0,0,30.56-8.7Zm-8.45,8.7a8.93,8.93,0,0,1-12.49,1.75,9.07,9.07,0,0,1-1.75-1.75,8.93,8.93,0,1,1,14.24,0Z" transform="translate(0 0)"/><rect class="cls-6" x="1552.96" y="707.05" width="7" height="42.13"/><path class="cls-6" d="M1752.57,950.2h-24.86a3.72,3.72,0,0,1-3.09-5.8l32.16-47.77,6.18,4.16-28.25,42h17.86Z" transform="translate(0 0)"/><path class="cls-3" d="M1750.17,981.82l-6.18-4.16,28.25-42h-17.86v-7.45h24.86a3.72,3.72,0,0,1,3.09,5.8Z" transform="translate(0 0)"/><path class="cls-6" d="M1980.36,774.17a23.64,23.64,0,0,1-23.62-23.61v-34A16.63,16.63,0,0,0,1940.13,700h-2.46a16.63,16.63,0,0,0-16.61,16.61v15.67h-7V716.6a23.63,23.63,0,0,1,23.61-23.6h2.46a23.63,23.63,0,0,1,23.61,23.61v34a16.62,16.62,0,0,0,33.23,0V732.27h7v18.29A23.63,23.63,0,0,1,1980.36,774.17Z" transform="translate(0 0)"/><rect class="cls-3" x="1903.94" y="729.21" width="111.9" height="7"/><path class="cls-6" d="M1980.36,774.17a23.64,23.64,0,0,1-23.62-23.61v-34A16.63,16.63,0,0,0,1940.13,700h-2.46a16.63,16.63,0,0,0-16.61,16.61h-7A23.63,23.63,0,0,1,1937.67,693h2.46a23.63,23.63,0,0,1,23.61,23.61v34a16.62,16.62,0,0,0,33.23,0h7A23.62,23.62,0,0,1,1980.36,774.17Z" transform="translate(0 0)"/></g><polygon points="1475.18 1431.42 0 1431.42 0 249.31 1475.18 1431.42"/><line class="cls-1" x1="227.49" y1="1579.46" x2="227.49" y2="431.83"/><path class="cls-7" d="M780.61,901.84v33.81a37.5,37.5,0,0,1-55.42,32.93l5.48-5.49a30.14,30.14,0,0,0,42.57-27.44V905.52H743.12a30.17,30.17,0,0,0-27.42,42.62l-5.49,5.5a37.52,37.52,0,0,1,32.91-55.49h33.81A3.7,3.7,0,0,1,780.61,901.84Z" transform="translate(0 0)"/><polygon class="cls-3" points="740.94 943.06 756.82 943.06 756.82 950.43 733.57 950.43 731.99 952.01 714.03 969.99 703.7 980.3 698.49 975.09 708.81 964.78 726.78 946.8 728.36 945.22 728.36 921.97 735.73 921.97 735.73 937.85 751.65 921.93 756.86 927.14 740.94 943.06"/><path class="cls-7" d="M555.56,1186.1H508.44l-23.55-40.8,23.55-40.81h47.12l23.56,40.81Zm-43.07-7h39L571,1145.3l-19.52-33.81h-39L493,1145.3Z" transform="translate(0 0)"/><path class="cls-3" d="M532,1165.7a20.41,20.41,0,1,1,20.41-20.41h0A20.42,20.42,0,0,1,532,1165.7Zm0-33.81a13.41,13.41,0,1,0,13.41,13.41A13.41,13.41,0,0,0,532,1131.89Z" transform="translate(0 0)"/><path class="cls-3" d="M532,940.56a20.94,20.94,0,1,1,20.94-20.94A20.95,20.95,0,0,1,532,940.56Zm0-34.88a13.94,13.94,0,1,0,13.94,13.94A13.94,13.94,0,0,0,532,905.68Z" transform="translate(0 0)"/><path class="cls-7" d="M571.12,979.77h-7a32.12,32.12,0,0,0-64.24,0h-7a39.12,39.12,0,0,1,78.24,0Z" transform="translate(0 0)"/><path class="cls-7" d="M562.52,774.34H507.37v-7h55.15a6.33,6.33,0,0,0,0-12.66H545a13.35,13.35,0,0,1-13.33-13.33v-2.18A13.35,13.35,0,0,1,545,725.84h14.68v7H545a6.35,6.35,0,0,0-6.33,6.33v2.18a6.35,6.35,0,0,0,6.33,6.33h17.48a13.33,13.33,0,0,1,0,26.66Z" transform="translate(0 0)"/><path class="cls-3" d="M508.11,774.27a3.51,3.51,0,0,1-3-1.77L490.8,747.38a20.06,20.06,0,0,1-.16-19.63,19.31,19.31,0,0,1,15.91-10.17,20.89,20.89,0,0,1,3.79.11,19.19,19.19,0,0,1,15,10.48,20.13,20.13,0,0,1-.24,18.94l-13.9,25.34a3.52,3.52,0,0,1-3.05,1.82Zm-.31-49.73H507a12.21,12.21,0,0,0-10.17,6.53,13.12,13.12,0,0,0,.09,12.82l11.18,19.67L519,743.74h0a13.15,13.15,0,0,0,.14-12.37,12.27,12.27,0,0,0-9.57-6.73,15,15,0,0,0-1.77-.1Z" transform="translate(0 0)"/><path class="cls-3" d="M560.78,732.91a3.52,3.52,0,0,1-3-1.77l-9.49-16.71a14.51,14.51,0,0,1-.11-14.2,14,14,0,0,1,11.54-7.38,15.58,15.58,0,0,1,2.73.08,14.08,14.08,0,0,1,10.87,7.6,14.58,14.58,0,0,1-.17,13.7h0l-9.25,16.86a3.52,3.52,0,0,1-3,1.82Zm-.21-33.09h-.49a7,7,0,0,0-5.8,3.73,7.53,7.53,0,0,0,.05,7.4l6.39,11.26L567,710.86h0a7.57,7.57,0,0,0,.09-7.13,7,7,0,0,0-5.48-3.85,9.07,9.07,0,0,0-1-.06Z" transform="translate(0 0)"/><path class="cls-7" d="M770.07,1186.06H714.92v-7h55.15a6.33,6.33,0,1,0,0-12.66H752.59a13.35,13.35,0,0,1-13.33-13.33v-2.19a13.35,13.35,0,0,1,13.33-13.33h14.68v7H752.59a6.35,6.35,0,0,0-6.33,6.33v2.19a6.35,6.35,0,0,0,6.33,6.33h17.48a13.33,13.33,0,1,1,0,26.66Z" transform="translate(0 0)"/><path class="cls-3" d="M715.66,1186a3.52,3.52,0,0,1-3-1.77l-14.27-25.11a20.09,20.09,0,0,1-.15-19.63,19.32,19.32,0,0,1,15.91-10.18,21.84,21.84,0,0,1,3.79.12,19.2,19.2,0,0,1,15,10.47,20.15,20.15,0,0,1-.24,18.95l-13.91,25.34a3.48,3.48,0,0,1-3,1.81Zm-.31-49.72h-.85a12.2,12.2,0,0,0-10.16,6.53,13.14,13.14,0,0,0,.09,12.83l11.17,19.66,10.9-19.84h0a13.15,13.15,0,0,0,.14-12.37,12.28,12.28,0,0,0-9.58-6.73,14,14,0,0,0-1.71-.1Z" transform="translate(0 0)"/><path class="cls-3" d="M768.33,1144.62a3.5,3.5,0,0,1-3.05-1.77l-9.49-16.71a14.53,14.53,0,0,1-.12-14.2,14,14,0,0,1,11.55-7.38,15.58,15.58,0,0,1,2.73.09,14.13,14.13,0,0,1,10.87,7.59,14.6,14.6,0,0,1-.17,13.71h0l-9.26,16.86a3.48,3.48,0,0,1-3,1.81Zm-.21-33.08h-.49a7,7,0,0,0-5.81,3.74,7.54,7.54,0,0,0,0,7.39l6.4,11.27,6.24-11.37h0a7.6,7.6,0,0,0,.08-7.13,7,7,0,0,0-5.47-3.85C768.75,1111.56,768.44,1111.54,768.12,1111.54Z" transform="translate(0 0)"/><path class="cls-7" d="M361.68,573H298.91a3.7,3.7,0,0,1-3.69-3.68v-72a3.69,3.69,0,0,1,3.69-3.69h62.77a3.7,3.7,0,0,1,3.68,3.69v72.08A3.67,3.67,0,0,1,361.68,573Zm-59.09-7.37H358V501H302.6Z" transform="translate(0 0)"/><polygon class="cls-3" points="336.01 516.63 336.01 524 327.53 524 327.53 532.48 320.16 532.48 320.16 524 311.68 524 311.68 516.63 320.16 516.63 320.16 508.15 327.53 508.15 327.53 516.63 336.01 516.63"/><rect class="cls-3" x="332.94" y="549.59" width="16.63" height="7.37"/><path class="cls-7" d="M1175,1185h-62.77a3.68,3.68,0,0,1-3.68-3.68h0v-72.08a3.7,3.7,0,0,1,3.68-3.69H1175a3.69,3.69,0,0,1,3.69,3.69v72.08A3.7,3.7,0,0,1,1175,1185Zm-59.08-7.37h55.4v-64.71h-55.4Z" transform="translate(0 0)"/><polygon class="cls-3" points="1149.33 1128.61 1149.33 1135.98 1140.85 1135.98 1140.85 1144.46 1133.48 1144.46 1133.48 1135.98 1125 1135.98 1125 1128.61 1133.48 1128.61 1133.48 1120.13 1140.85 1120.13 1140.85 1128.61 1149.33 1128.61"/><rect class="cls-3" x="1146.27" y="1161.57" width="16.63" height="7.37"/><path class="cls-3" d="M973.66,927.54h-7a23.83,23.83,0,0,0-47.66,0h-7a30.83,30.83,0,0,1,61.66,0Z" transform="translate(0 0)"/><path class="cls-7" d="M981.4,981.74H904.26V926.6H981.4Zm-70.14-7H974.4V933.6H911.26Z" transform="translate(0 0)"/><rect class="cls-3" x="939.33" y="944.86" width="7" height="14.44"/><path class="cls-7" d="M322.06,963.22A32.23,32.23,0,1,1,354.29,931h0A32.26,32.26,0,0,1,322.06,963.22Zm0-57.45A25.23,25.23,0,1,0,347.29,931a25.24,25.24,0,0,0-25.23-25.23Z" transform="translate(0 0)"/><rect class="cls-3" x="355.15" y="954.01" width="7" height="27.18" transform="translate(-579.15 537.01) rotate(-45)"/><path class="cls-7" d="M353.28,1187.67h-46a7.5,7.5,0,0,1-7.5-7.5v-69.75a7.5,7.5,0,0,1,7.5-7.5h46a7.52,7.52,0,0,1,7.5,7.5v69.75A7.52,7.52,0,0,1,353.28,1187.67Zm-46-77.75a.5.5,0,0,0-.5.5v69.75a.5.5,0,0,0,.5.5h46a.5.5,0,0,0,.5-.5v-69.75a.5.5,0,0,0-.5-.5Z" transform="translate(0 0)"/><rect class="cls-3" x="326.51" y="1168.9" width="7.57" height="7"/><path class="cls-7" d="M330.29,774.41a40.83,40.83,0,1,1,40.83-40.83A40.83,40.83,0,0,1,330.29,774.41Zm0-74.66a33.83,33.83,0,1,0,33.83,33.83A33.83,33.83,0,0,0,330.29,699.75Z" transform="translate(0 0)"/><polygon class="cls-3" points="325.25 752.04 308.61 735.4 313.56 730.45 325.25 742.14 348.33 719.07 353.28 724.01 325.25 752.04"/><path class="cls-7" d="M942.83,1186.12a40.83,40.83,0,1,1,40.83-40.83h0A40.87,40.87,0,0,1,942.83,1186.12Zm0-74.65a33.83,33.83,0,1,0,33.83,33.83h0A33.87,33.87,0,0,0,942.83,1111.47Z" transform="translate(0 0)"/><polygon class="cls-3" points="937.79 1163.76 921.14 1147.11 926.1 1142.16 937.79 1153.86 960.86 1130.78 965.81 1135.73 937.79 1163.76"/></g></g></g></g></g></svg>