<?xml version="1.0" encoding="UTF-8"?>
<svg width="207px" height="161px" viewBox="0 0 207 161" version="1.1" xmlns="http://www.w3.org/2000/svg" xmlns:xlink="http://www.w3.org/1999/xlink">
    <!-- Generator: Sketch 64 (93537) - https://sketch.com -->
    <title>BioSans</title>
    <desc>Created with Sketch.</desc>
    <g id="Page-1" stroke="none" stroke-width="1" fill="none" fill-rule="evenodd">
        <g id="Artboard-Copy" transform="translate(-533.000000, -365.000000)" fill="#FFFFFF" fill-rule="nonzero">
            <path d="M566.5,436 C581.5,436 588.4,430 588.4,417.2 C588.4,408.2 585,402.9 577.2,400.5 L577.2,400.3 C583.4,398 586.1,393.2 586.1,385.6 C586.1,373.5 579.1,368 564.5,368 L538.2,368 L538.2,436 L566.5,436 Z M563.9,397.2 L547.2,397.2 L547.2,376.2 L563.8,376.2 C573.3,376.2 577.2,379.2 577.2,386.8 C577.2,394.3 573.4,397.2 563.9,397.2 Z M565.2,427.8 L547.2,427.8 L547.2,405.4 L564.1,405.4 C575.2,405.4 579.4,408.5 579.4,416.6 C579.4,424.5 575.4,427.8 565.2,427.8 Z M610.5,375.1 L610.5,365.3 L600.9,365.3 L600.9,375.1 L610.5,375.1 Z M610.1,436 L610.1,384.4 L601.3,384.4 L601.3,436 L610.1,436 Z M646.4,437.2 C661,437.2 668.7,429.4 668.7,414.4 L668.7,406 C668.7,391 661,383.2 646.4,383.2 C631.8,383.2 624.1,391 624.1,406 L624.1,414.4 C624.1,429.4 631.8,437.2 646.4,437.2 Z M646.4,429.5 C637.3,429.5 632.9,424.5 632.9,414.1 L632.9,406.2 C632.9,395.8 637.3,390.9 646.4,390.9 C655.5,390.9 659.9,395.8 659.9,406.2 L659.9,414.1 C659.9,424.5 655.5,429.5 646.4,429.5 Z M557.1,525.2 C572.2,525.2 580.2,518.7 580.2,506.5 C580.2,495.1 574.3,490 557.6,487.8 C543,485.9 537.5,482 537.5,472.7 C537.5,462.9 544.4,457.7 557.3,457.7 C569.9,457.7 576.1,462.6 576.1,472.5 L579.1,472.5 C579.1,461 571.4,454.8 557.1,454.8 C542.6,454.8 534.5,461.4 534.5,473.1 C534.5,483.7 540.5,488.5 556.1,490.5 C571.5,492.5 577.2,496.7 577.2,506.9 C577.2,517.1 570.5,522.3 557.3,522.3 C543.6,522.3 536.1,516.8 536.1,507.1 L533.1,507.1 C533.1,518.6 541.8,525.2 557.1,525.2 Z M606.3,525.2 C614.9,525.2 622.2,521.6 627.4,514.5 L627.6,524 L630.2,524 L630.2,489.5 C630.2,478 623.6,471.9 611.1,471.9 C599.3,471.9 592.5,477.3 591.5,487.3 L594.4,487.3 C595.2,479 600.8,474.6 611,474.6 C621.9,474.6 627.2,479.6 627.2,489.5 L627.2,495.5 L610.7,495.5 C596.3,495.5 590,500.8 590,510.5 C590,520 596.1,525.2 606.3,525.2 Z M606.5,522.6 C597.9,522.6 593,518.4 593,510.3 C593,502 598.2,498.2 611.1,498.2 L627.2,498.2 L627.2,510.6 C622.1,518.6 615,522.6 606.5,522.6 Z M651.2,524 L651.2,489.7 C655.6,479 662,474.6 670.1,474.6 C679.1,474.6 683.2,480 683.2,490.5 L683.2,524 L686.2,524 L686.2,490.1 C686.2,478.3 680.8,471.9 670.4,471.9 C661.8,471.9 655.2,476.3 651,484.8 L650.8,473.1 L648.2,473.1 L648.2,524 L651.2,524 Z M719.6,525.2 C732.4,525.2 739.3,519.9 739.3,510.5 C739.3,501.7 734.1,497.9 720.2,496.6 C708.1,495.5 703.7,492.6 703.7,486.1 C703.7,478.9 709.6,474.6 719.7,474.6 C729.7,474.6 735.1,478.8 735.1,486.6 L738,486.6 C738,477.1 731.4,471.9 719.6,471.9 C707.7,471.9 700.8,477.2 700.8,486.3 C700.8,494.4 705.8,498.1 719.1,499.3 C731.8,500.4 736.4,503.6 736.4,510.7 C736.4,518.2 730.6,522.5 719.5,522.5 C708.2,522.5 702.4,518.2 702.4,510.1 L699.5,510.1 C699.5,519.9 706.6,525.2 719.6,525.2 Z" id="BioSans"></path>
        </g>
    </g>
</svg>