<?xml version="1.0" encoding="UTF-8"?>
<svg width="602px" height="157px" viewBox="0 0 602 157" version="1.1" xmlns="http://www.w3.org/2000/svg" xmlns:xlink="http://www.w3.org/1999/xlink">
    <!-- Generator: Sketch 64 (93537) - https://sketch.com -->
    <title>EBtitle</title>
    <desc>Created with Sketch.</desc>
    <g id="Page-1" stroke="none" stroke-width="1" fill="none" fill-rule="evenodd">
        <g id="EBtitle" transform="translate(1.000000, 1.000000)">
            <path d="M95.889,90.31 L95.889,83.307 L81.648,83.307 L81.648,77.479 L93.069,77.479 L93.069,70.711 L81.648,70.711 L81.648,65.353 L95.419,65.353 L95.419,58.35 L73,58.35 L73,90.31 L95.889,90.31 Z M105.853,90.31 L109.331,83.307 L113.185,90.31 L122.961,90.31 L115.535,77.949 L122.679,65.635 L113.984,65.635 L110.741,72.121 L107.216,65.635 L97.44,65.635 L104.584,77.526 L97.158,90.31 L105.853,90.31 Z M139.082,90.31 L139.082,84.012 L136.403,84.012 C134.805,84.012 134.288,83.448 134.288,81.615 L134.288,71.698 L138.894,71.698 L138.894,65.635 L134.288,65.635 L134.288,59.666 L126.345,59.666 L125.969,65.635 L122.585,65.635 L122.585,71.698 L125.781,71.698 L125.781,82.085 C125.781,87.913 127.943,90.31 133.207,90.31 L139.082,90.31 Z M150.785,90.31 L150.785,76.586 C151.349,73.907 152.947,72.779 156.284,72.779 L157.647,72.779 L157.647,65.165 L155.72,65.165 C152.571,65.165 150.738,66.575 149.798,69.771 L149.516,65.635 L142.278,65.635 L142.278,90.31 L150.785,90.31 Z M166.718,90.874 C169.726,90.874 172.029,89.793 173.58,87.49 L173.815,90.31 L181.053,90.31 L181.053,74.518 C181.053,67.938 177.81,65.071 170.525,65.071 C163.381,65.071 160.091,67.844 159.715,73.578 L167.799,73.578 C167.94,71.933 168.739,71.181 170.243,71.181 C171.935,71.181 172.546,72.121 172.546,74.33 L172.546,75.223 L169.162,75.223 C162.347,75.223 159.104,77.902 159.104,83.213 C159.104,88.148 161.924,90.874 166.718,90.874 Z M169.679,84.764 C168.175,84.764 167.188,83.918 167.188,82.32 C167.188,80.581 168.269,79.641 170.76,79.641 L172.546,79.641 L172.546,82.978 C171.888,84.153 170.901,84.764 169.679,84.764 Z M210.945,90.31 C218.653,90.31 222.131,87.584 222.131,81.286 C222.131,77.056 220.58,74.659 216.632,73.578 L216.632,73.484 C219.828,72.403 221.097,70.241 221.097,66.716 C221.097,60.935 217.76,58.35 209.864,58.35 L196.845,58.35 L196.845,90.31 L210.945,90.31 Z M208.407,70.946 L205.493,70.946 L205.493,64.789 L209.018,64.789 C211.65,64.789 212.59,65.588 212.59,67.75 C212.59,70.1 211.462,70.946 208.407,70.946 Z M209.347,83.871 L205.493,83.871 L205.493,77.244 L208.783,77.244 C212.261,77.244 213.483,78.09 213.483,80.675 C213.483,83.025 212.496,83.871 209.347,83.871 Z M237.312,90.874 C245.067,90.874 248.827,87.443 248.827,80.393 L248.827,75.552 C248.827,68.502 245.067,65.071 237.312,65.071 C229.557,65.071 225.797,68.502 225.797,75.552 L225.797,80.393 C225.797,87.443 229.557,90.874 237.312,90.874 Z M237.312,84.435 C235.197,84.435 234.304,83.401 234.304,80.252 L234.304,75.693 C234.304,72.591 235.197,71.51 237.312,71.51 C239.427,71.51 240.32,72.591 240.32,75.693 L240.32,80.252 C240.32,83.401 239.427,84.435 237.312,84.435 Z M261.47,90.31 L261.47,56 L252.963,56 L252.963,90.31 L261.47,90.31 Z M274.301,90.874 C277.168,90.874 279.283,89.934 280.975,87.819 L281.163,90.31 L288.401,90.31 L288.401,56 L279.894,56 L279.894,66.998 C278.39,65.682 276.604,65.071 274.301,65.071 C268.755,65.071 265.653,68.502 265.653,75.129 L265.653,80.816 C265.653,87.443 268.755,90.874 274.301,90.874 Z M276.604,84.435 C274.912,84.435 274.16,83.401 274.16,80.863 L274.16,75.082 C274.16,72.591 274.912,71.51 276.604,71.51 C278.155,71.51 279.236,72.403 279.894,74.283 L279.894,81.662 C279.236,83.542 278.155,84.435 276.604,84.435 Z M313.17,90.31 L313.17,78.043 L324.262,78.043 L324.262,71.04 L313.17,71.04 L313.17,65.353 L326.612,65.353 L326.612,58.35 L304.522,58.35 L304.522,90.31 L313.17,90.31 Z M340.43,90.874 C348.185,90.874 351.945,87.443 351.945,80.393 L351.945,75.552 C351.945,68.502 348.185,65.071 340.43,65.071 C332.675,65.071 328.915,68.502 328.915,75.552 L328.915,80.393 C328.915,87.443 332.675,90.874 340.43,90.874 Z M340.43,84.435 C338.315,84.435 337.422,83.401 337.422,80.252 L337.422,75.693 C337.422,72.591 338.315,71.51 340.43,71.51 C342.545,71.51 343.438,72.591 343.438,75.693 L343.438,80.252 C343.438,83.401 342.545,84.435 340.43,84.435 Z M364.588,90.31 L364.588,76.586 C365.152,73.907 366.75,72.779 370.087,72.779 L371.45,72.779 L371.45,65.165 L369.523,65.165 C366.374,65.165 364.541,66.575 363.601,69.771 L363.319,65.635 L356.081,65.635 L356.081,90.31 L364.588,90.31 Z M397.911,90.31 C406.606,90.31 410.507,86.409 410.507,77.62 L410.507,71.04 C410.507,62.298 406.606,58.35 397.911,58.35 L385.503,58.35 L385.503,90.31 L397.911,90.31 Z M396.689,83.542 L394.151,83.542 L394.151,65.118 L396.689,65.118 C400.637,65.118 401.859,66.575 401.859,71.228 L401.859,77.432 C401.859,82.085 400.637,83.542 396.689,83.542 Z M423.714,62.674 L423.714,56 L415.019,56 L415.019,62.674 L423.714,62.674 Z M423.62,90.31 L423.62,65.635 L415.113,65.635 L415.113,90.31 L423.62,90.31 Z M438.049,90.874 C445.428,90.874 448.953,88.289 448.953,82.931 C448.953,78.278 446.556,76.022 440.493,75.035 C436.968,74.471 435.887,73.86 435.887,72.45 C435.887,71.275 436.686,70.617 438.096,70.617 C439.694,70.617 440.352,71.416 440.352,73.296 L448.436,73.296 C448.436,67.844 444.911,65.071 438.049,65.071 C431.187,65.071 427.521,67.891 427.521,73.202 C427.521,77.714 429.871,79.829 435.887,80.816 C439.459,81.38 440.587,82.085 440.587,83.542 C440.587,84.717 439.741,85.328 438.096,85.328 C436.075,85.328 435.229,84.435 435.229,82.32 L427.145,82.32 C427.145,88.242 430.576,90.874 438.049,90.874 Z M461.032,98.864 L461.032,88.947 C462.536,90.263 464.322,90.874 466.625,90.874 C472.171,90.874 475.273,87.443 475.273,80.816 L475.273,75.129 C475.273,68.502 472.171,65.071 466.625,65.071 C463.758,65.071 461.643,66.011 459.951,68.126 L459.763,65.635 L452.525,65.635 L452.525,98.864 L461.032,98.864 Z M464.322,84.435 C462.771,84.435 461.69,83.542 461.032,81.662 L461.032,74.283 C461.69,72.403 462.771,71.51 464.322,71.51 C466.014,71.51 466.766,72.544 466.766,75.082 L466.766,80.863 C466.766,83.354 466.014,84.435 464.322,84.435 Z M487.963,90.31 L487.963,56 L479.456,56 L479.456,90.31 L487.963,90.31 Z M499.102,90.874 C502.11,90.874 504.413,89.793 505.964,87.49 L506.199,90.31 L513.437,90.31 L513.437,74.518 C513.437,67.938 510.194,65.071 502.909,65.071 C495.765,65.071 492.475,67.844 492.099,73.578 L500.183,73.578 C500.324,71.933 501.123,71.181 502.627,71.181 C504.319,71.181 504.93,72.121 504.93,74.33 L504.93,75.223 L501.546,75.223 C494.731,75.223 491.488,77.902 491.488,83.213 C491.488,88.148 494.308,90.874 499.102,90.874 Z M502.063,84.764 C500.559,84.764 499.572,83.918 499.572,82.32 C499.572,80.581 500.653,79.641 503.144,79.641 L504.93,79.641 L504.93,82.978 C504.272,84.153 503.285,84.764 502.063,84.764 Z M522.743,98.864 C528.101,98.864 529.887,97.501 531.532,92.002 L539.522,65.635 L530.968,65.635 L527.772,79.688 L524.247,65.635 L515.223,65.635 L523.636,90.592 L523.495,91.156 C523.166,92.331 522.837,92.566 521.709,92.566 L518.325,92.566 L518.325,98.864 L522.743,98.864 Z" id="ExtraBoldForDisplay" fill="#FFFFFF" fill-rule="nonzero"></path>
            <rect id="Rectangle-Copy-6" stroke="#000000" x="0" y="0" width="600" height="155"></rect>
        </g>
    </g>
</svg>