<?xml version="1.0" encoding="UTF-8"?>
<svg width="602px" height="157px" viewBox="0 0 602 157" version="1.1" xmlns="http://www.w3.org/2000/svg" xmlns:xlink="http://www.w3.org/1999/xlink">
    <!-- Generator: Sketch 64 (93537) - https://sketch.com -->
    <title>ELTitle</title>
    <desc>Created with Sketch.</desc>
    <g id="Page-1" stroke="none" stroke-width="1" fill="none" fill-rule="evenodd">
        <g id="ELTitle" transform="translate(1.000000, 1.000000)">
            <path d="M174.192,90.96 L174.192,88.204 L153.964,88.204 L153.964,74.164 L171.072,74.164 L171.072,71.408 L153.964,71.408 L153.964,58.356 L173.672,58.356 L173.672,55.6 L151,55.6 L151,90.96 L174.192,90.96 Z M184.228,90.96 L184.228,53 L181.316,53 L181.316,90.96 L184.228,90.96 Z M203.468,91.584 C209.76,91.584 213.608,88.62 213.972,83.16 L211.164,83.16 C210.852,86.852 208.148,89.036 203.364,89.036 C197.8,89.036 195.096,86.124 195.096,80.092 L195.096,78.272 L214.18,78.272 L214.18,74.996 C214.18,67.664 210.332,63.712 203.208,63.712 C196.084,63.712 192.184,67.664 192.184,74.996 L192.184,80.3 C192.184,87.632 196.188,91.584 203.468,91.584 Z M211.372,75.776 L195.096,75.776 L195.096,75.204 C195.096,69.172 197.696,66.26 203.208,66.26 C208.72,66.26 211.372,69.172 211.372,75.204 L211.372,75.776 Z M231.808,101.048 C239.192,101.048 242.884,97.616 242.884,90.596 L242.884,64.336 L240.388,64.336 L240.284,69.588 C237.84,65.636 234.512,63.712 230.248,63.712 C224.164,63.712 220.576,67.612 220.576,74.632 L220.576,79.468 C220.576,86.54 224.164,90.44 230.248,90.44 C234.356,90.44 237.58,88.62 239.972,85.032 L239.972,90.596 C239.972,96.004 237.424,98.5 231.704,98.5 C227.024,98.5 224.268,96.784 223.956,93.196 L221.2,93.196 C221.564,98.292 225.204,101.048 231.808,101.048 Z M230.56,87.84 C226.036,87.84 223.488,84.876 223.488,79.26 L223.488,74.84 C223.488,69.276 226.036,66.26 230.56,66.26 C234.668,66.26 237.84,68.756 239.972,73.332 L239.972,80.768 C237.84,85.396 234.668,87.84 230.56,87.84 Z M258.848,91.584 C263.112,91.584 266.544,89.868 268.988,86.54 L269.092,90.96 L271.588,90.96 L271.588,73.228 C271.588,66.936 268.156,63.712 261.396,63.712 C255,63.712 251.464,66.572 250.944,72.084 L253.804,72.084 C254.064,68.236 256.664,66.26 261.292,66.26 C266.284,66.26 268.676,68.548 268.676,73.228 L268.676,75.62 L261.084,75.62 C253.544,75.62 250.164,78.48 250.164,83.68 C250.164,88.776 253.44,91.584 258.848,91.584 Z M259.212,89.088 C255.208,89.088 253.076,87.164 253.076,83.576 C253.076,79.832 255.468,78.116 261.24,78.116 L268.676,78.116 L268.676,83.368 C266.492,87.112 263.268,89.088 259.212,89.088 Z M283.34,90.96 L283.34,73.28 C285.472,68.444 288.384,66.364 292.128,66.364 C296.132,66.364 298.004,68.756 298.004,73.644 L298.004,90.96 L300.916,90.96 L300.916,73.332 C300.916,67.04 298.108,63.712 292.596,63.712 C288.488,63.712 285.316,65.584 283.028,69.484 L282.924,64.336 L280.428,64.336 L280.428,90.96 L283.34,90.96 Z M321.248,90.96 L321.248,88.412 L318.128,88.412 C314.748,88.412 313.656,87.112 313.656,83.056 L313.656,66.728 L320.936,66.728 L320.936,64.336 L313.656,64.336 L313.656,57.056 L311.056,57.056 L310.796,64.336 L305.752,64.336 L305.752,66.728 L310.744,66.728 L310.744,83.056 C310.744,88.62 312.772,90.96 317.556,90.96 L321.248,90.96 Z M363.004,90.96 L363.004,88.204 L344.44,88.204 L344.44,55.6 L341.476,55.6 L341.476,90.96 L363.004,90.96 Z M371.74,58.824 L371.74,54.508 L368.516,54.508 L368.516,58.824 L371.74,58.824 Z M371.584,90.96 L371.584,64.336 L368.672,64.336 L368.672,90.96 L371.584,90.96 Z M390.772,101.048 C398.156,101.048 401.848,97.616 401.848,90.596 L401.848,64.336 L399.352,64.336 L399.248,69.588 C396.804,65.636 393.476,63.712 389.212,63.712 C383.128,63.712 379.54,67.612 379.54,74.632 L379.54,79.468 C379.54,86.54 383.128,90.44 389.212,90.44 C393.32,90.44 396.544,88.62 398.936,85.032 L398.936,90.596 C398.936,96.004 396.388,98.5 390.668,98.5 C385.988,98.5 383.232,96.784 382.92,93.196 L380.164,93.196 C380.528,98.292 384.168,101.048 390.772,101.048 Z M389.524,87.84 C385,87.84 382.452,84.876 382.452,79.26 L382.452,74.84 C382.452,69.276 385,66.26 389.524,66.26 C393.632,66.26 396.804,68.756 398.936,73.332 L398.936,80.768 C396.804,85.396 393.632,87.84 389.524,87.84 Z M414.12,90.96 L414.12,73.28 C416.252,68.444 419.164,66.364 422.908,66.364 C426.912,66.364 428.784,68.756 428.784,73.644 L428.784,90.96 L431.696,90.96 L431.696,73.332 C431.696,67.04 428.888,63.712 423.376,63.712 C419.424,63.712 416.356,65.428 414.12,69.016 L414.12,53 L411.208,53 L411.208,90.96 L414.12,90.96 Z M452.028,90.96 L452.028,88.412 L448.908,88.412 C445.528,88.412 444.436,87.112 444.436,83.056 L444.436,66.728 L451.716,66.728 L451.716,64.336 L444.436,64.336 L444.436,57.056 L441.836,57.056 L441.576,64.336 L436.532,64.336 L436.532,66.728 L441.524,66.728 L441.524,83.056 C441.524,88.62 443.552,90.96 448.336,90.96 L452.028,90.96 Z" id="ElegantLight" fill="#FFFFFF" fill-rule="nonzero"></path>
            <rect id="Rectangle-Copy-8" stroke="#000000" x="0" y="0" width="600" height="155"></rect>
        </g>
    </g>
</svg>