<?xml version="1.0" encoding="UTF-8"?>
<svg width="602px" height="157px" viewBox="0 0 602 157" version="1.1" xmlns="http://www.w3.org/2000/svg" xmlns:xlink="http://www.w3.org/1999/xlink">
    <!-- Generator: Sketch 64 (93537) - https://sketch.com -->
    <title>EStitle</title>
    <desc>Created with Sketch.</desc>
    <g id="Page-1" stroke="none" stroke-width="1" fill="none" fill-rule="evenodd">
        <g id="EStitle" transform="translate(1.000000, 1.000000)">
            <path d="M114.286,84.71 L114.286,82.469 L105.43,82.469 L105.43,66.35 L103,66.35 L103,84.71 L114.286,84.71 Z M123.202,85.034 C126.55,85.034 128.629,83.522 128.818,80.552 L126.523,80.552 C126.361,82.064 125.254,82.982 123.148,82.982 C120.664,82.982 119.53,81.74 119.53,79.013 L119.53,78.392 L128.926,78.392 L128.926,76.367 C128.926,72.533 126.847,70.454 123.04,70.454 C119.233,70.454 117.154,72.533 117.154,76.367 L117.154,79.121 C117.154,82.955 119.287,85.034 123.202,85.034 Z M126.631,76.421 L119.53,76.421 C119.53,73.748 120.637,72.506 123.094,72.506 C125.524,72.506 126.631,73.748 126.631,76.421 Z M138.544,89.948 C142.513,89.948 144.484,88.112 144.484,84.413 L144.484,70.778 L142.459,70.778 L142.351,72.938 C141.19,71.237 139.705,70.454 137.707,70.454 C134.467,70.454 132.577,72.452 132.577,76.259 L132.577,78.446 C132.577,82.253 134.467,84.251 137.707,84.251 C139.57,84.251 140.974,83.576 142.108,82.118 L142.108,84.413 C142.108,86.843 140.974,87.896 138.49,87.896 C136.546,87.896 135.223,87.248 135.088,85.628 L132.874,85.628 C133.063,88.49 135.007,89.948 138.544,89.948 Z M138.004,82.172 C136.087,82.172 134.953,80.849 134.953,78.365 L134.953,76.34 C134.953,73.856 136.087,72.533 138.004,72.533 C139.759,72.533 141.19,73.667 142.108,75.638 L142.108,79.067 C141.19,81.038 139.759,82.172 138.004,82.172 Z M152.05,68.267 L152.05,65.621 L149.458,65.621 L149.458,68.267 L152.05,68.267 Z M151.942,84.71 L151.942,70.778 L149.566,70.778 L149.566,84.71 L151.942,84.71 Z M163.828,85.034 C167.068,85.034 168.958,83.036 168.958,79.229 L168.958,76.259 C168.958,72.452 167.068,70.454 163.828,70.454 C161.965,70.454 160.534,71.129 159.4,72.614 L159.4,65 L157.024,65 L157.024,84.71 L159.049,84.71 L159.13,82.496 C160.318,84.251 161.803,85.034 163.828,85.034 Z M163.531,82.955 C161.776,82.955 160.318,81.794 159.4,79.796 L159.4,75.692 C160.318,73.694 161.749,72.533 163.531,72.533 C165.448,72.533 166.582,73.856 166.582,76.34 L166.582,79.148 C166.582,81.632 165.448,82.955 163.531,82.955 Z M175.714,84.71 L175.714,65 L173.338,65 L173.338,84.71 L175.714,84.71 Z M186.142,85.034 C189.49,85.034 191.569,83.522 191.758,80.552 L189.463,80.552 C189.301,82.064 188.194,82.982 186.088,82.982 C183.604,82.982 182.47,81.74 182.47,79.013 L182.47,78.392 L191.866,78.392 L191.866,76.367 C191.866,72.533 189.787,70.454 185.98,70.454 C182.173,70.454 180.094,72.533 180.094,76.367 L180.094,79.121 C180.094,82.955 182.227,85.034 186.142,85.034 Z M189.571,76.421 L182.47,76.421 C182.47,73.748 183.577,72.506 186.034,72.506 C188.464,72.506 189.571,73.748 189.571,76.421 Z M206.404,68.267 L206.404,65.621 L203.812,65.621 L203.812,68.267 L206.404,68.267 Z M206.296,84.71 L206.296,70.778 L203.92,70.778 L203.92,84.71 L206.296,84.71 Z M213.754,84.71 L213.754,75.665 C214.753,73.613 216.022,72.641 217.669,72.641 C219.316,72.641 220.126,73.586 220.126,75.773 L220.126,84.71 L222.502,84.71 L222.502,75.557 C222.502,72.209 221.044,70.454 218.128,70.454 C216.184,70.454 214.699,71.237 213.484,72.965 L213.403,70.778 L211.378,70.778 L211.378,84.71 L213.754,84.71 Z M240.442,85.034 C243.79,85.034 245.869,83.522 246.058,80.552 L243.763,80.552 C243.601,82.064 242.494,82.982 240.388,82.982 C237.904,82.982 236.77,81.74 236.77,79.013 L236.77,78.392 L246.166,78.392 L246.166,76.367 C246.166,72.533 244.087,70.454 240.28,70.454 C236.473,70.454 234.394,72.533 234.394,76.367 L234.394,79.121 C234.394,82.955 236.527,85.034 240.442,85.034 Z M243.871,76.421 L236.77,76.421 C236.77,73.748 237.877,72.506 240.334,72.506 C242.764,72.506 243.871,73.748 243.871,76.421 Z M250.897,84.71 L254.461,79.229 L258.241,84.71 L261.13,84.71 L256.297,77.771 L260.941,70.778 L258.295,70.778 L254.974,75.881 L251.437,70.778 L248.548,70.778 L253.138,77.366 L248.251,84.71 L250.897,84.71 Z M270.559,84.71 L270.559,82.658 L268.966,82.658 C267.373,82.658 266.968,82.199 266.968,80.39 L266.968,72.722 L270.397,72.722 L270.397,70.778 L266.968,70.778 L266.968,67.106 L264.835,67.106 L264.646,70.778 L262.189,70.778 L262.189,72.722 L264.592,72.722 L264.592,80.363 C264.592,83.414 265.726,84.71 268.399,84.71 L270.559,84.71 Z M276.262,84.71 L276.262,76.691 C276.721,74.018 277.99,72.857 280.258,72.857 L280.96,72.857 L280.96,70.508 L280.015,70.508 C277.99,70.508 276.721,71.399 276.019,73.37 L275.911,70.778 L273.886,70.778 L273.886,84.71 L276.262,84.71 Z M287.608,85.034 C289.633,85.034 291.199,84.251 292.333,82.82 L292.414,84.71 L294.439,84.71 L294.439,75.611 C294.439,72.155 292.657,70.454 288.985,70.454 C285.502,70.454 283.612,71.993 283.369,75.017 L285.691,75.017 C285.772,73.316 286.933,72.506 288.904,72.506 C291.064,72.506 292.063,73.505 292.063,75.665 L292.063,76.421 L288.715,76.421 C284.8,76.421 282.964,77.987 282.964,80.768 C282.964,83.495 284.746,85.034 287.608,85.034 Z M287.959,82.982 C286.204,82.982 285.34,82.172 285.34,80.714 C285.34,79.148 286.366,78.392 288.796,78.392 L292.063,78.392 L292.063,80.363 C291.226,82.064 289.822,82.982 287.959,82.982 Z M311.461,85.034 C315.133,85.034 317.023,83.576 317.023,80.768 C317.023,78.122 315.619,76.934 311.893,76.529 C309.328,76.259 308.383,75.746 308.383,74.477 C308.383,73.208 309.463,72.479 311.407,72.479 C313.405,72.479 314.404,73.262 314.404,74.747 L316.726,74.747 C316.726,71.939 314.89,70.454 311.434,70.454 C307.978,70.454 306.061,71.966 306.061,74.666 C306.061,77.15 307.411,78.23 311.056,78.662 C313.756,78.986 314.701,79.58 314.701,80.957 C314.701,82.28 313.621,83.009 311.461,83.009 C309.139,83.009 308.005,82.199 308.005,80.606 L305.737,80.606 C305.737,83.549 307.627,85.034 311.461,85.034 Z M323.347,84.71 L323.347,75.719 C324.373,73.559 325.534,72.641 327.019,72.641 C328.477,72.641 329.287,73.532 329.287,75.395 L329.287,84.71 L331.663,84.71 L331.663,75.584 C332.689,73.559 333.877,72.641 335.335,72.641 C336.793,72.641 337.603,73.532 337.603,75.395 L337.603,84.71 L339.979,84.71 L339.979,75.206 C339.979,72.128 338.44,70.454 335.659,70.454 C333.877,70.454 332.446,71.156 331.285,72.884 C330.718,71.291 329.395,70.454 327.451,70.454 C325.561,70.454 324.184,71.237 323.077,72.965 L322.996,70.778 L320.971,70.778 L320.971,84.71 L323.347,84.71 Z M348.436,85.034 C350.461,85.034 352.027,84.251 353.161,82.82 L353.242,84.71 L355.267,84.71 L355.267,75.611 C355.267,72.155 353.485,70.454 349.813,70.454 C346.33,70.454 344.44,71.993 344.197,75.017 L346.519,75.017 C346.6,73.316 347.761,72.506 349.732,72.506 C351.892,72.506 352.891,73.505 352.891,75.665 L352.891,76.421 L349.543,76.421 C345.628,76.421 343.792,77.987 343.792,80.768 C343.792,83.495 345.574,85.034 348.436,85.034 Z M348.787,82.982 C347.032,82.982 346.168,82.172 346.168,80.714 C346.168,79.148 347.194,78.392 349.624,78.392 L352.891,78.392 L352.891,80.363 C352.054,82.064 350.65,82.982 348.787,82.982 Z M362.428,84.71 L362.428,65 L360.052,65 L360.052,84.71 L362.428,84.71 Z M369.886,84.71 L369.886,65 L367.51,65 L367.51,84.71 L369.886,84.71 Z M387.205,85.034 C390.877,85.034 392.767,83.576 392.767,80.768 C392.767,78.122 391.363,76.934 387.637,76.529 C385.072,76.259 384.127,75.746 384.127,74.477 C384.127,73.208 385.207,72.479 387.151,72.479 C389.149,72.479 390.148,73.262 390.148,74.747 L392.47,74.747 C392.47,71.939 390.634,70.454 387.178,70.454 C383.722,70.454 381.805,71.966 381.805,74.666 C381.805,77.15 383.155,78.23 386.8,78.662 C389.5,78.986 390.445,79.58 390.445,80.957 C390.445,82.28 389.365,83.009 387.205,83.009 C384.883,83.009 383.749,82.199 383.749,80.606 L381.481,80.606 C381.481,83.549 383.371,85.034 387.205,85.034 Z M399.199,68.267 L399.199,65.621 L396.607,65.621 L396.607,68.267 L399.199,68.267 Z M399.091,84.71 L399.091,70.778 L396.715,70.778 L396.715,84.71 L399.091,84.71 Z M413.569,84.71 L413.569,82.685 L405.766,82.685 L413.434,72.56 L413.434,70.778 L403.309,70.778 L403.309,72.803 L410.41,72.803 L402.742,82.928 L402.742,84.71 L413.569,84.71 Z M422.62,85.034 C425.968,85.034 428.047,83.522 428.236,80.552 L425.941,80.552 C425.779,82.064 424.672,82.982 422.566,82.982 C420.082,82.982 418.948,81.74 418.948,79.013 L418.948,78.392 L428.344,78.392 L428.344,76.367 C428.344,72.533 426.265,70.454 422.458,70.454 C418.651,70.454 416.572,72.533 416.572,76.367 L416.572,79.121 C416.572,82.955 418.705,85.034 422.62,85.034 Z M426.049,76.421 L418.948,76.421 C418.948,73.748 420.055,72.506 422.512,72.506 C424.942,72.506 426.049,73.748 426.049,76.421 Z M446.878,84.71 L446.878,82.658 L445.285,82.658 C443.692,82.658 443.287,82.199 443.287,80.39 L443.287,72.722 L446.716,72.722 L446.716,70.778 L443.287,70.778 L443.287,67.106 L441.154,67.106 L440.965,70.778 L438.508,70.778 L438.508,72.722 L440.911,72.722 L440.911,80.363 C440.911,83.414 442.045,84.71 444.718,84.71 L446.878,84.71 Z M455.578,85.034 C459.52,85.034 461.599,82.928 461.599,78.878 L461.599,76.61 C461.599,72.56 459.52,70.454 455.578,70.454 C451.636,70.454 449.557,72.56 449.557,76.61 L449.557,78.878 C449.557,82.928 451.636,85.034 455.578,85.034 Z M455.578,82.955 C453.121,82.955 451.933,81.605 451.933,78.797 L451.933,76.664 C451.933,73.856 453.121,72.533 455.578,72.533 C458.035,72.533 459.223,73.856 459.223,76.664 L459.223,78.797 C459.223,81.605 458.035,82.955 455.578,82.955 Z M471.298,85.034 C475.24,85.034 477.319,82.928 477.319,78.878 L477.319,76.61 C477.319,72.56 475.24,70.454 471.298,70.454 C467.356,70.454 465.277,72.56 465.277,76.61 L465.277,78.878 C465.277,82.928 467.356,85.034 471.298,85.034 Z M471.298,82.955 C468.841,82.955 467.653,81.605 467.653,78.797 L467.653,76.664 C467.653,73.856 468.841,72.533 471.298,72.533 C473.755,72.533 474.943,73.856 474.943,76.664 L474.943,78.797 C474.943,81.605 473.755,82.955 471.298,82.955 Z" id="Legibleinextrasmallsizetoo" fill="#FFFFFF" fill-rule="nonzero"></path>
            <rect id="Rectangle-Copy-7" stroke="#000000" x="0" y="0" width="600" height="155"></rect>
        </g>
    </g>
</svg>