<svg xmlns="http://www.w3.org/2000/svg" xmlns:xlink="http://www.w3.org/1999/xlink" viewBox="0 0 1696.35 968.16"><defs><style>.cls-1{fill:none;}.cls-2{fill:#fff;}.cls-3{fill:#abcf37;}.cls-4{fill:#001a73;}.cls-5{clip-path:url(#clip-path);}</style><clipPath id="clip-path"><polygon class="cls-1" points="1567.98 894.9 128.37 73.26 1567.98 73.26 1567.98 894.9"/></clipPath></defs><g id="Layer_2" data-name="Layer 2"><g id="Layer_1-2" data-name="Layer 1"><rect class="cls-2" width="1696.35" height="968.16"/><polygon points="1696.35 968.16 0 0 1696.35 0 1696.35 968.16"/><path class="cls-3" d="M481.25,753.09v33.8a37.5,37.5,0,0,1-55.42,32.94l5.48-5.5a30.12,30.12,0,0,0,42.56-27.44V756.77H443.75a30.15,30.15,0,0,0-27.41,42.62l-5.5,5.5a37.54,37.54,0,0,1,32.91-55.49h33.82A3.69,3.69,0,0,1,481.25,753.09Z"/><polygon class="cls-4" points="441.58 794.31 457.46 794.31 457.46 801.68 434.21 801.68 432.63 803.25 414.66 821.24 404.34 831.55 399.13 826.33 409.45 816.02 427.42 798.04 428.99 796.47 428.99 773.22 436.37 773.22 436.37 789.09 452.29 773.17 457.5 778.38 441.58 794.31"/><path class="cls-3" d="M875.3,825.24H828.19l-23.56-40.81,23.56-40.8H875.3l23.56,40.8Zm-43.07-7h39l19.52-33.81-19.52-33.8h-39l-19.52,33.8Z"/><path class="cls-4" d="M851.75,804.84a20.41,20.41,0,1,1,20.4-20.41A20.44,20.44,0,0,1,851.75,804.84Zm0-33.81a13.41,13.41,0,1,0,13.4,13.4A13.42,13.42,0,0,0,851.75,771Z"/><path class="cls-3" d="M1095.3,552.15V586a37.5,37.5,0,0,1-55.42,32.94l5.48-5.5A30.14,30.14,0,0,0,1087.93,586V555.83h-30.12a30.17,30.17,0,0,0-27.42,42.62l-5.49,5.5a37.53,37.53,0,0,1,32.91-55.5h33.81A3.7,3.7,0,0,1,1095.3,552.15Z"/><polygon class="cls-4" points="1055.63 593.36 1071.51 593.36 1071.51 600.74 1048.26 600.74 1046.68 602.31 1028.72 620.29 1018.39 630.6 1013.18 625.39 1023.5 615.08 1041.47 597.1 1043.05 595.52 1043.05 572.27 1050.42 572.27 1050.42 588.15 1066.34 572.23 1071.55 577.44 1055.63 593.36"/><path class="cls-4" d="M643.17,786.78a20.94,20.94,0,1,1,20.93-20.94A21,21,0,0,1,643.17,786.78Zm0-34.87a13.94,13.94,0,1,0,13.93,13.93A13.95,13.95,0,0,0,643.17,751.91Z"/><path class="cls-3" d="M682.29,826h-7a32.12,32.12,0,0,0-64.24,0h-7a39.12,39.12,0,0,1,78.24,0Z"/><path class="cls-3" d="M259.25,832.76H204.11v-7h55.14a6.33,6.33,0,0,0,0-12.66H241.78a13.35,13.35,0,0,1-13.33-13.33v-2.18a13.35,13.35,0,0,1,13.33-13.33h14.68v7H241.78a6.34,6.34,0,0,0-6.33,6.33v2.18a6.34,6.34,0,0,0,6.33,6.33h17.47a13.33,13.33,0,0,1,0,26.66Z"/><path class="cls-4" d="M204.84,832.69a3.5,3.5,0,0,1-3-1.77L187.53,805.8a20.09,20.09,0,0,1-.15-19.63A19.31,19.31,0,0,1,203.29,776a20.89,20.89,0,0,1,3.79.11,19.17,19.17,0,0,1,15,10.48,20.16,20.16,0,0,1-.23,18.94l-13.91,25.34a3.5,3.5,0,0,1-3,1.82Zm-.3-49.73c-.29,0-.57,0-.85,0a12.19,12.19,0,0,0-10.16,6.53,13.09,13.09,0,0,0,.09,12.82L204.79,822l10.89-19.85h0a13.15,13.15,0,0,0,.15-12.37,12.33,12.33,0,0,0-9.58-6.73A16.18,16.18,0,0,0,204.54,783Z"/><path class="cls-4" d="M257.51,791.33a3.5,3.5,0,0,1-3-1.77L245,772.85a14.56,14.56,0,0,1-.11-14.2,14,14,0,0,1,11.55-7.38,15.61,15.61,0,0,1,2.73.08A14.08,14.08,0,0,1,270,759a14.55,14.55,0,0,1-.17,13.7h0l-9.25,16.86a3.48,3.48,0,0,1-3,1.82Zm-.2-33.09-.5,0A7,7,0,0,0,251,762a7.58,7.58,0,0,0,.05,7.4l6.4,11.26,6.24-11.36h0a7.61,7.61,0,0,0,.08-7.14,7,7,0,0,0-5.47-3.85A8.39,8.39,0,0,0,257.31,758.24Z"/><path class="cls-3" d="M260.12,214.53H197.35a3.69,3.69,0,0,1-3.68-3.69V138.76a3.68,3.68,0,0,1,3.68-3.68h62.77a3.69,3.69,0,0,1,3.69,3.68v72.08A3.69,3.69,0,0,1,260.12,214.53ZM201,207.16h55.4V142.45H201Z"/><polygon class="cls-4" points="234.45 158.11 234.45 165.48 225.97 165.48 225.97 173.96 218.6 173.96 218.6 165.48 210.12 165.48 210.12 158.11 218.6 158.11 218.6 149.63 225.97 149.63 225.97 158.11 234.45 158.11"/><rect class="cls-4" x="231.39" y="191.08" width="16.63" height="7.37"/><path class="cls-4" d="M259.57,367.78h-7a23.84,23.84,0,0,0-47.67,0h-7a30.84,30.84,0,0,1,61.67,0Z"/><path class="cls-3" d="M267.31,422H190.17V366.85h77.14Zm-70.14-7h63.14V373.85H197.17Z"/><rect class="cls-4" x="225.24" y="385.11" width="7" height="14.44"/><path class="cls-3" d="M1046,811.31a32.23,32.23,0,1,1,32.23-32.22A32.26,32.26,0,0,1,1046,811.31Zm0-57.45a25.23,25.23,0,1,0,25.23,25.23A25.26,25.26,0,0,0,1046,753.86Z"/><rect class="cls-4" x="1079.11" y="802.1" width="7" height="27.18" transform="translate(-259.69 1004.44) rotate(-45)"/><path class="cls-3" d="M874.73,621.9h-46a7.52,7.52,0,0,1-7.5-7.5V544.64a7.52,7.52,0,0,1,7.5-7.5h46a7.51,7.51,0,0,1,7.5,7.5V614.4A7.51,7.51,0,0,1,874.73,621.9Zm-46-77.76a.51.51,0,0,0-.5.5V614.4a.51.51,0,0,0,.5.5h46a.5.5,0,0,0,.5-.5V544.64a.5.5,0,0,0-.5-.5Z"/><rect class="cls-4" x="847.96" y="603.12" width="7.57" height="7"/><path class="cls-3" d="M228.74,629a40.5,40.5,0,1,1,40.49-40.49A40.53,40.53,0,0,1,228.74,629Zm0-73.61a33.12,33.12,0,1,0,33.12,33.12A33.15,33.15,0,0,0,228.74,555.39Z"/><rect class="cls-4" x="225.05" y="564.88" width="7.37" height="13.52"/><rect class="cls-4" x="235.46" y="596.91" width="7.37" height="13.52" transform="translate(-309.16 255.87) rotate(-36)"/><rect class="cls-4" x="208.21" y="577.11" width="7.37" height="13.52" transform="translate(-408.88 604.97) rotate(-72)"/><rect class="cls-4" x="238.82" y="580.19" width="13.52" height="7.37" transform="translate(-168.39 104.45) rotate(-18)"/><rect class="cls-4" x="211.57" y="599.99" width="13.52" height="7.37" transform="translate(-398.39 425.49) rotate(-54)"/><path class="cls-3" d="M643.17,420.29A40.83,40.83,0,1,1,684,379.47,40.87,40.87,0,0,1,643.17,420.29Zm0-74.65A33.83,33.83,0,1,0,677,379.47,33.87,33.87,0,0,0,643.17,345.64Z"/><polygon class="cls-4" points="638.13 397.93 621.49 381.28 626.43 376.33 638.13 388.03 661.2 364.95 666.15 369.9 638.13 397.93"/><polygon class="cls-4" points="465.67 378.29 458.67 378.29 458.67 361.66 442.04 361.66 442.04 354.66 465.67 354.66 465.67 378.29"/><polygon class="cls-4" points="478.79 366.12 471.79 366.12 471.79 349.48 455.16 349.48 455.16 342.48 478.79 342.48 478.79 366.12"/><path class="cls-3" d="M476.52,388.06H452.74a3.5,3.5,0,0,0-3.5,3.5v4.32a26.56,26.56,0,0,1-23.11-23.1h4.31a3.5,3.5,0,0,0,3.5-3.5V344.57a3.5,3.5,0,0,0-3.5-3.5h-7.85a22.27,22.27,0,0,0-22.24,22.23v6.22a52.19,52.19,0,0,0,52.14,52.13h5.29A22.27,22.27,0,0,0,480,399.41v-7.85A3.5,3.5,0,0,0,476.52,388.06ZM473,399.41a15.26,15.26,0,0,1-15.24,15.24h-5.29a45.18,45.18,0,0,1-45.14-45.13v-6.21a15.26,15.26,0,0,1,15.24-15.24h4.35v17.71h-4.5a3.5,3.5,0,0,0-2.38.94,1.7,1.7,0,0,0-.19.19,3.49,3.49,0,0,0-.94,2.35,33.55,33.55,0,0,0,33.84,33.81,3.48,3.48,0,0,0,2.45-1,3.54,3.54,0,0,0,1-2.48v-4.51H473Z"/><path class="cls-3" d="M643.17,420.29A40.83,40.83,0,1,1,684,379.47,40.87,40.87,0,0,1,643.17,420.29Zm0-74.65A33.83,33.83,0,1,0,677,379.47,33.87,33.87,0,0,0,643.17,345.64Z"/><polygon class="cls-4" points="638.13 397.93 621.49 381.28 626.43 376.33 638.13 388.03 661.2 364.95 666.15 369.9 638.13 397.93"/><path class="cls-3" d="M1279.33,753.47H1250.4a42.29,42.29,0,0,0-42.24,42.24v13a7.38,7.38,0,0,1,.82,0,8.91,8.91,0,0,1,6.18,2.49V795.71a35.28,35.28,0,0,1,35.24-35.24h28.93A25.59,25.59,0,0,1,1304.89,786v29.06a8.72,8.72,0,0,1,.35,2.47,8.85,8.85,0,0,1-1.81,5.38h5a3.5,3.5,0,0,0,3.5-3.5V786A32.59,32.59,0,0,0,1279.33,753.47Zm8.21,62.46h-69.79a8.72,8.72,0,0,1,.15,1.62,8.9,8.9,0,0,1-1.8,5.38h73.1a8.85,8.85,0,0,1-1.81-5.38A8.72,8.72,0,0,1,1287.54,815.93Z"/><path class="cls-4" d="M1221.29,815.93a12.42,12.42,0,0,0-12.31-10.8c-.28,0-.55,0-.82,0a12.42,12.42,0,1,0,12,17.77,12.29,12.29,0,0,0,1.12-7ZM1209,826.48a8.92,8.92,0,0,1-.82-17.81,7.38,7.38,0,0,1,.82,0,8.92,8.92,0,0,1,8.77,7.3,8.72,8.72,0,0,1,.15,1.62,8.92,8.92,0,0,1-8.92,8.93Z"/><path class="cls-4" d="M1224.82,815.93a16,16,0,0,0-9.66-13,15.72,15.72,0,0,0-6.18-1.25l-.82,0a15.93,15.93,0,1,0,15.8,21.28,15.72,15.72,0,0,0,.94-5.38C1224.9,817,1224.87,816.47,1224.82,815.93Zm-6.92,1.62a8.93,8.93,0,1,1-9.74-8.88,7.38,7.38,0,0,1,.82,0,8.92,8.92,0,0,1,8.77,7.3A8.72,8.72,0,0,1,1217.9,817.55Z"/><path class="cls-4" d="M1304.89,808.57a12.39,12.39,0,1,0,3.85,9A12.38,12.38,0,0,0,1304.89,808.57Zm-8.58,17.91a8.94,8.94,0,0,1-8.92-8.93,8.72,8.72,0,0,1,.15-1.62,8.92,8.92,0,0,1,17.35-.85,8.72,8.72,0,0,1,.35,2.47,8.94,8.94,0,0,1-8.93,8.93Z"/><path class="cls-4" d="M1311.89,814.22a15.92,15.92,0,0,0-7-10.07,15.76,15.76,0,0,0-8.58-2.52,15.94,15.94,0,0,0-15.84,14.3c0,.54-.08,1.07-.08,1.62a15.72,15.72,0,0,0,.94,5.38,15.92,15.92,0,0,0,30.56-8.71Zm-8.46,8.71a8.93,8.93,0,0,1-16-5.38,8.72,8.72,0,0,1,.15-1.62,8.92,8.92,0,0,1,17.35-.85,8.72,8.72,0,0,1,.35,2.47A8.85,8.85,0,0,1,1303.43,822.93Z"/><rect class="cls-3" x="1255.32" y="766.94" width="7" height="42.13"/><path class="cls-3" d="M642.26,588.71H617.4a3.74,3.74,0,0,1-3.09-5.81l32.16-47.77,6.18,4.16-28.25,42h17.86Z"/><path class="cls-4" d="M639.86,620.33l-6.18-4.16,28.25-42H644.08v-7.45h24.85a3.73,3.73,0,0,1,3.09,5.81Z"/><path class="cls-3" d="M460.66,618.88A23.64,23.64,0,0,1,437,595.27v-34a16.63,16.63,0,0,0-16.61-16.61H418a16.63,16.63,0,0,0-16.61,16.61V577h-7V561.31A23.63,23.63,0,0,1,418,537.7h2.46A23.63,23.63,0,0,1,444,561.31v34a16.62,16.62,0,0,0,33.23,0V577h7v18.29A23.63,23.63,0,0,1,460.66,618.88Z"/><rect class="cls-4" x="384.24" y="573.92" width="111.9" height="7"/><path class="cls-3" d="M460.66,618.88A23.64,23.64,0,0,1,437,595.27v-34a16.63,16.63,0,0,0-16.61-16.61H418a16.63,16.63,0,0,0-16.61,16.61h-7A23.63,23.63,0,0,1,418,537.7h2.46A23.63,23.63,0,0,1,444,561.31v34a16.62,16.62,0,0,0,33.23,0h7A23.63,23.63,0,0,1,460.66,618.88Z"/><g class="cls-5"><path class="cls-3" d="M1293.7,137.42v33.81a37.5,37.5,0,0,1-55.42,32.93l5.48-5.49a30.14,30.14,0,0,0,42.57-27.44V141.1h-30.12a30.15,30.15,0,0,0-27.41,42.62l-5.5,5.5a37.54,37.54,0,0,1,32.91-55.49H1290A3.69,3.69,0,0,1,1293.7,137.42Z"/><polygon class="cls-2" points="1254.03 178.64 1269.91 178.64 1269.91 186.01 1246.66 186.01 1245.09 187.59 1227.12 205.57 1216.79 215.88 1211.58 210.67 1221.91 200.35 1239.87 182.37 1241.45 180.8 1241.45 157.55 1248.82 157.55 1248.82 173.43 1264.74 157.5 1269.95 162.72 1254.03 178.64"/><path class="cls-3" d="M1095.3,552.15V586a37.5,37.5,0,0,1-55.42,32.94l5.48-5.5A30.14,30.14,0,0,0,1087.93,586V555.83h-30.12a30.17,30.17,0,0,0-27.42,42.62l-5.49,5.5a37.53,37.53,0,0,1,32.91-55.5h33.81A3.7,3.7,0,0,1,1095.3,552.15Z"/><polygon class="cls-2" points="1055.63 593.36 1071.51 593.36 1071.51 600.74 1048.26 600.74 1046.68 602.31 1028.72 620.29 1018.39 630.6 1013.18 625.39 1023.5 615.08 1041.47 597.1 1043.05 595.52 1043.05 572.27 1050.42 572.27 1050.42 588.15 1066.34 572.23 1071.55 577.44 1055.63 593.36"/><path class="cls-3" d="M463.74,215.61H416.63L393.07,174.8,416.63,134h47.11l23.56,40.8Zm-43.07-7h39l19.52-33.81L459.7,141h-39l-19.52,33.8Z"/><path class="cls-2" d="M440.19,195.21a20.41,20.41,0,1,1,20.4-20.41A20.44,20.44,0,0,1,440.19,195.21Zm0-33.81a13.41,13.41,0,1,0,13.4,13.4A13.42,13.42,0,0,0,440.19,161.4Z"/><path class="cls-2" d="M1054.24,176.14a20.94,20.94,0,1,1,20.94-20.94A21,21,0,0,1,1054.24,176.14Zm0-34.88a13.94,13.94,0,1,0,13.94,13.94A14,14,0,0,0,1054.24,141.26Z"/><path class="cls-3" d="M1093.36,215.35h-7a32.12,32.12,0,1,0-64.24,0h-7a39.12,39.12,0,1,1,78.24,0Z"/><path class="cls-3" d="M1491.48,215.56h-55.15v-7h55.15a6.33,6.33,0,0,0,0-12.66H1474a13.35,13.35,0,0,1-13.34-13.33v-2.18A13.35,13.35,0,0,1,1474,167.06h14.68v7H1474a6.34,6.34,0,0,0-6.34,6.33v2.18a6.34,6.34,0,0,0,6.34,6.33h17.47a13.33,13.33,0,0,1,0,26.66Z"/><path class="cls-2" d="M1437.07,215.49a3.5,3.5,0,0,1-3-1.77l-14.27-25.11a20.09,20.09,0,0,1-.15-19.63,19.3,19.3,0,0,1,15.9-10.18,23,23,0,0,1,3.8.11,19.23,19.23,0,0,1,15,10.48,20.18,20.18,0,0,1-.23,19l-13.91,25.33a3.48,3.48,0,0,1-3,1.82Zm-.31-49.73-.84,0a12.19,12.19,0,0,0-10.16,6.53,13.11,13.11,0,0,0,.09,12.83L1437,204.81,1447.91,185h0a13.17,13.17,0,0,0,.15-12.38,12.29,12.29,0,0,0-9.58-6.72A14.06,14.06,0,0,0,1436.76,165.76Z"/><path class="cls-2" d="M1489.74,174.13a3.48,3.48,0,0,1-3-1.77l-9.5-16.71a14.53,14.53,0,0,1-.11-14.2,14,14,0,0,1,11.55-7.38,16.68,16.68,0,0,1,2.73.08,14.12,14.12,0,0,1,10.86,7.6,14.57,14.57,0,0,1-.17,13.71h0l-9.25,16.86a3.51,3.51,0,0,1-3,1.81Zm-.2-33.09-.5,0a6.94,6.94,0,0,0-5.8,3.74,7.56,7.56,0,0,0,0,7.39l6.4,11.26,6.24-11.36h0A7.61,7.61,0,0,0,1496,145a7,7,0,0,0-5.47-3.85A8.39,8.39,0,0,0,1489.54,141Z"/><path class="cls-2" d="M1491.8,563.46h-7a23.84,23.84,0,1,0-47.67,0h-7a30.84,30.84,0,1,1,61.67,0Z"/><path class="cls-3" d="M1499.54,617.66h-77.15V562.52h77.15Zm-70.15-7h63.15V569.52h-63.15Z"/><rect class="cls-2" x="1457.47" y="580.78" width="7" height="14.44"/><path class="cls-3" d="M843.52,198.8a32.23,32.23,0,1,1,32.22-32.23A32.27,32.27,0,0,1,843.52,198.8Zm0-57.45a25.23,25.23,0,1,0,25.22,25.22A25.26,25.26,0,0,0,843.52,141.35Z"/><rect class="cls-2" x="876.62" y="189.58" width="7" height="27.18" transform="translate(114.12 681.85) rotate(-45)"/><path class="cls-3" d="M874.73,420.18h-46a7.51,7.51,0,0,1-7.5-7.5V342.93a7.51,7.51,0,0,1,7.5-7.5h46a7.5,7.5,0,0,1,7.5,7.5v69.75A7.5,7.5,0,0,1,874.73,420.18Zm-46-77.75a.5.5,0,0,0-.5.5v69.75a.5.5,0,0,0,.5.5h46a.5.5,0,0,0,.5-.5V342.93a.5.5,0,0,0-.5-.5Z"/><rect class="cls-2" x="847.96" y="401.41" width="7.57" height="7"/><path class="cls-3" d="M260.12,214.53H197.35a3.69,3.69,0,0,1-3.68-3.69V138.76a3.68,3.68,0,0,1,3.68-3.68h62.77a3.69,3.69,0,0,1,3.69,3.68v72.08A3.69,3.69,0,0,1,260.12,214.53ZM201,207.16h55.4V142.45H201Z"/><polygon class="cls-2" points="234.45 158.11 234.45 165.48 225.97 165.48 225.97 173.96 218.6 173.96 218.6 165.48 210.12 165.48 210.12 158.11 218.6 158.11 218.6 149.63 225.97 149.63 225.97 158.11 234.45 158.11"/><rect class="cls-2" x="231.39" y="191.08" width="16.63" height="7.37"/><path class="cls-3" d="M643.17,420.29A40.83,40.83,0,1,1,684,379.47,40.87,40.87,0,0,1,643.17,420.29Zm0-74.65A33.83,33.83,0,1,0,677,379.47,33.87,33.87,0,0,0,643.17,345.64Z"/><polygon class="cls-2" points="638.13 397.93 621.49 381.28 626.43 376.33 638.13 388.03 661.2 364.95 666.15 369.9 638.13 397.93"/><path class="cls-3" d="M1461,420.67a40.5,40.5,0,1,1,40.49-40.5A40.55,40.55,0,0,1,1461,420.67Zm0-73.62a33.13,33.13,0,1,0,33.12,33.12A33.16,33.16,0,0,0,1461,347.05Z"/><rect class="cls-2" x="1457.28" y="356.54" width="7.37" height="13.52"/><rect class="cls-2" x="1467.69" y="388.58" width="7.37" height="13.52" transform="translate(48.64 940.38) rotate(-36)"/><rect class="cls-2" x="1440.44" y="368.78" width="7.37" height="13.52" transform="translate(640.71 1632.93) rotate(-72)"/><rect class="cls-2" x="1471.05" y="371.85" width="13.52" height="7.37" transform="translate(-43.72 475.01) rotate(-18)"/><rect class="cls-2" x="1443.8" y="391.65" width="13.52" height="7.37" transform="translate(278.13 1336.51) rotate(-54)"/><polygon class="cls-2" points="1278.13 569.14 1271.13 569.14 1271.13 552.51 1254.5 552.51 1254.5 545.51 1278.13 545.51 1278.13 569.14"/><polygon class="cls-2" points="1291.25 556.96 1284.25 556.96 1284.25 540.33 1267.61 540.33 1267.61 533.33 1291.25 533.33 1291.25 556.96"/><path class="cls-3" d="M1289,578.91H1265.2a3.5,3.5,0,0,0-3.5,3.5v4.32a26.56,26.56,0,0,1-23.11-23.1h4.31a3.5,3.5,0,0,0,3.5-3.5V535.42a3.5,3.5,0,0,0-3.5-3.5h-7.85a22.27,22.27,0,0,0-22.24,22.23v6.22A52.19,52.19,0,0,0,1265,612.5h5.29a22.27,22.27,0,0,0,22.24-22.24v-7.85A3.5,3.5,0,0,0,1289,578.91Zm-3.5,11.35a15.26,15.26,0,0,1-15.24,15.24H1265a45.18,45.18,0,0,1-45.14-45.13v-6.21a15.26,15.26,0,0,1,15.24-15.24h4.35v17.71h-4.5a3.5,3.5,0,0,0-2.38.94l-.19.19a3.49,3.49,0,0,0-.94,2.35,33.55,33.55,0,0,0,33.84,33.81,3.48,3.48,0,0,0,2.45-1,3.54,3.54,0,0,0,1-2.48v-4.51h16.78Z"/><path class="cls-3" d="M669.85,134.8H640.92A42.29,42.29,0,0,0,598.68,177v13a7.38,7.38,0,0,1,.82,0,8.91,8.91,0,0,1,6.18,2.49V177a35.28,35.28,0,0,1,35.24-35.24h28.93a25.59,25.59,0,0,1,25.56,25.55v29.06a8.72,8.72,0,0,1,.35,2.47,8.85,8.85,0,0,1-1.81,5.38h5a3.5,3.5,0,0,0,3.5-3.5V167.35A32.59,32.59,0,0,0,669.85,134.8Zm8.21,62.46H608.27a8.72,8.72,0,0,1,.15,1.62,8.9,8.9,0,0,1-1.8,5.38h73.1a8.85,8.85,0,0,1-1.81-5.38A8.72,8.72,0,0,1,678.06,197.26Z"/><path class="cls-2" d="M611.81,197.26a12.42,12.42,0,0,0-12.31-10.8c-.28,0-.55,0-.82,0a12.42,12.42,0,1,0,12,17.77,12.29,12.29,0,0,0,1.12-7ZM599.5,207.81a8.92,8.92,0,0,1-.82-17.81,7.38,7.38,0,0,1,.82,0,8.92,8.92,0,0,1,8.77,7.3,8.72,8.72,0,0,1,.15,1.62,8.92,8.92,0,0,1-8.92,8.93Z"/><path class="cls-2" d="M615.34,197.26a16,16,0,0,0-9.66-13A15.72,15.72,0,0,0,599.5,183l-.82,0a15.93,15.93,0,1,0,15.8,21.28,15.72,15.72,0,0,0,.94-5.38C615.42,198.33,615.39,197.8,615.34,197.26Zm-6.92,1.62a8.93,8.93,0,1,1-9.74-8.88,7.38,7.38,0,0,1,.82,0,8.92,8.92,0,0,1,8.77,7.3A8.72,8.72,0,0,1,608.42,198.88Z"/><path class="cls-2" d="M695.41,189.9a12.39,12.39,0,1,0,3.85,9A12.38,12.38,0,0,0,695.41,189.9Zm-8.58,17.91a8.94,8.94,0,0,1-8.92-8.93,8.72,8.72,0,0,1,.15-1.62,8.92,8.92,0,0,1,17.35-.85,8.72,8.72,0,0,1,.35,2.47,8.94,8.94,0,0,1-8.93,8.93Z"/><path class="cls-2" d="M702.41,195.55a15.92,15.92,0,0,0-7-10.07,15.76,15.76,0,0,0-8.58-2.52A15.94,15.94,0,0,0,671,197.26c0,.54-.08,1.07-.08,1.62a15.72,15.72,0,0,0,.94,5.38,15.92,15.92,0,0,0,30.56-8.71ZM694,204.26a8.93,8.93,0,0,1-16-5.38,8.72,8.72,0,0,1,.15-1.62,8.92,8.92,0,0,1,17.35-.85,8.72,8.72,0,0,1,.35,2.47A8.85,8.85,0,0,1,694,204.26Z"/><rect class="cls-3" x="645.84" y="148.27" width="7" height="42.13"/><path class="cls-3" d="M1053.33,390.16h-24.85a3.72,3.72,0,0,1-3.09-5.8l32.16-47.77,6.18,4.16-28.25,42h17.85Z"/><path class="cls-2" d="M1050.93,421.78l-6.17-4.16,28.24-42h-17.85v-7.45H1080a3.72,3.72,0,0,1,3.09,5.8Z"/><path class="cls-3" d="M1273.11,417.57A23.63,23.63,0,0,1,1249.5,394V360a16.63,16.63,0,0,0-16.62-16.61h-2.45A16.63,16.63,0,0,0,1213.82,360v15.67h-7V360a23.63,23.63,0,0,1,23.61-23.61h2.45A23.64,23.64,0,0,1,1256.5,360v34a16.62,16.62,0,0,0,33.23,0V375.67h7V394A23.64,23.64,0,0,1,1273.11,417.57Z"/><rect class="cls-2" x="1196.69" y="372.61" width="111.9" height="7"/><path class="cls-3" d="M1273.11,417.57A23.63,23.63,0,0,1,1249.5,394V360a16.63,16.63,0,0,0-16.62-16.61h-2.45A16.63,16.63,0,0,0,1213.82,360h-7a23.63,23.63,0,0,1,23.61-23.61h2.45A23.64,23.64,0,0,1,1256.5,360v34a16.62,16.62,0,0,0,33.23,0h7A23.64,23.64,0,0,1,1273.11,417.57Z"/><path class="cls-3" d="M1481.44,841.26a23.64,23.64,0,0,1-23.62-23.61v-34a16.63,16.63,0,0,0-16.61-16.61h-2.46a16.63,16.63,0,0,0-16.61,16.61v15.67h-7V783.69a23.63,23.63,0,0,1,23.61-23.61h2.46a23.63,23.63,0,0,1,23.61,23.61v34a16.62,16.62,0,0,0,33.23,0V799.36h7v18.29A23.63,23.63,0,0,1,1481.44,841.26Z"/><rect class="cls-2" x="1405.02" y="796.3" width="111.9" height="7"/><path class="cls-3" d="M1481.44,841.26a23.64,23.64,0,0,1-23.62-23.61v-34a16.63,16.63,0,0,0-16.61-16.61h-2.46a16.63,16.63,0,0,0-16.61,16.61h-7a23.63,23.63,0,0,1,23.61-23.61h2.46a23.63,23.63,0,0,1,23.61,23.61v34a16.62,16.62,0,0,0,33.23,0h7A23.63,23.63,0,0,1,1481.44,841.26Z"/></g></g></g></svg>