<svg xmlns="http://www.w3.org/2000/svg" xmlns:xlink="http://www.w3.org/1999/xlink" viewBox="0 0 2289.52 1289.61"><defs><style>.cls-1{fill:none;}.cls-2{fill:#fff;}.cls-3{fill:#abcf37;}.cls-4{clip-path:url(#clip-path);}.cls-5{fill:#acdb00;}.cls-6{fill:#001a73;}.cls-7{clip-path:url(#clip-path-2);}</style><clipPath id="clip-path"><polygon class="cls-1" points="1475.4 1289.34 227.49 290.02 1041.83 290.02 2289.74 1289.34 1475.4 1289.34"/></clipPath><clipPath id="clip-path-2"><polygon class="cls-1" points="2289.74 1289.34 1041.83 290.02 2289.52 290.02 2289.74 1289.34"/></clipPath></defs><g id="Layer_2" data-name="Layer 2"><g id="Layer_1-2" data-name="Layer 1"><polygon class="cls-2" points="2289.52 1289.61 1475.18 1289.61 0.11 107.58 0.06 0 680.2 0 2289.52 1289.61"/><polygon class="cls-3" points="2289.52 0 2289.52 1289.61 680.2 0 2289.52 0"/><polygon points="1475.18 1289.61 0 1289.61 0 107.5 0.11 107.58 1475.18 1289.61"/><polygon class="cls-1" points="2289.52 0 2289.52 1289.61 0 1289.61 0 107.5 0.11 107.58 0.06 0 2289.52 0"/><path class="cls-3" d="M780.61,760v33.81a37.5,37.5,0,0,1-55.42,32.93l5.48-5.49a30.14,30.14,0,0,0,42.57-27.44V763.71H743.12a30.17,30.17,0,0,0-27.42,42.62l-5.49,5.5a37.52,37.52,0,0,1,32.91-55.49h33.81A3.69,3.69,0,0,1,780.61,760Z"/><polygon class="cls-2" points="740.94 801.25 756.82 801.25 756.82 808.62 733.57 808.62 731.99 810.2 714.03 828.18 703.7 838.49 698.49 833.28 708.81 822.97 726.78 804.99 728.36 803.41 728.36 780.16 735.73 780.16 735.73 796.04 751.65 780.12 756.86 785.33 740.94 801.25"/><path class="cls-3" d="M555.56,1044.29H508.44l-23.55-40.8,23.55-40.81h47.12l23.56,40.81Zm-43.07-7h39l19.51-33.8-19.52-33.81h-39L493,1003.49Z"/><path class="cls-2" d="M532,1023.89a20.41,20.41,0,1,1,20.41-20.41h0A20.42,20.42,0,0,1,532,1023.89Zm0-33.81a13.41,13.41,0,1,0,13.41,13.41A13.41,13.41,0,0,0,532,990.08Z"/><path class="cls-2" d="M532,798.75a20.94,20.94,0,1,1,20.94-20.94A20.95,20.95,0,0,1,532,798.75Zm0-34.88a13.94,13.94,0,1,0,13.94,13.94A13.94,13.94,0,0,0,532,763.87Z"/><path class="cls-3" d="M571.12,838h-7a32.12,32.12,0,0,0-64.24,0h-7a39.12,39.12,0,0,1,78.24,0Z"/><path class="cls-3" d="M562.52,632.53H507.37v-7h55.15a6.33,6.33,0,0,0,0-12.66H545a13.35,13.35,0,0,1-13.33-13.33v-2.18A13.35,13.35,0,0,1,545,584h14.68v7H545a6.35,6.35,0,0,0-6.33,6.33v2.18a6.35,6.35,0,0,0,6.33,6.33h17.48a13.33,13.33,0,0,1,0,26.66Z"/><path class="cls-2" d="M508.11,632.46a3.52,3.52,0,0,1-3-1.77L490.8,605.57a20.06,20.06,0,0,1-.16-19.63,19.32,19.32,0,0,1,15.91-10.17,20.86,20.86,0,0,1,3.79.11,19.17,19.17,0,0,1,15,10.48,20.13,20.13,0,0,1-.24,18.94l-13.9,25.34a3.52,3.52,0,0,1-3.05,1.82Zm-.31-49.73H507a12.22,12.22,0,0,0-10.17,6.53,13.12,13.12,0,0,0,.09,12.82l11.18,19.67L519,601.93h0a13.13,13.13,0,0,0,.14-12.37,12.24,12.24,0,0,0-9.57-6.73,15,15,0,0,0-1.77-.1Z"/><path class="cls-2" d="M560.78,591.1a3.52,3.52,0,0,1-3-1.77l-9.49-16.71a14.51,14.51,0,0,1-.11-14.2A14,14,0,0,1,559.72,551a15.55,15.55,0,0,1,2.73.08,14.07,14.07,0,0,1,10.87,7.6,14.58,14.58,0,0,1-.17,13.7h0l-9.25,16.86a3.52,3.52,0,0,1-3,1.82ZM560.57,558h-.49a7,7,0,0,0-5.8,3.73,7.53,7.53,0,0,0,.05,7.4l6.39,11.26L567,569.05h0a7.57,7.57,0,0,0,.09-7.13,7,7,0,0,0-5.48-3.85,8.94,8.94,0,0,0-1-.06Z"/><path class="cls-3" d="M770.07,1044.25H714.92v-7h55.15a6.33,6.33,0,0,0,0-12.66H752.59a13.35,13.35,0,0,1-13.33-13.33v-2.19a13.35,13.35,0,0,1,13.33-13.33h14.68v7H752.59a6.35,6.35,0,0,0-6.33,6.33v2.19a6.35,6.35,0,0,0,6.33,6.33h17.48a13.33,13.33,0,0,1,0,26.66Z"/><path class="cls-2" d="M715.66,1044.19a3.52,3.52,0,0,1-3-1.77l-14.27-25.11a20.09,20.09,0,0,1-.15-19.63,19.32,19.32,0,0,1,15.91-10.18,21.81,21.81,0,0,1,3.79.12,19.2,19.2,0,0,1,15,10.47,20.15,20.15,0,0,1-.24,18.95l-13.91,25.34a3.48,3.48,0,0,1-3,1.81Zm-.31-49.72h-.85a12.2,12.2,0,0,0-10.16,6.53,13.14,13.14,0,0,0,.09,12.83l11.17,19.66,10.9-19.84h0a13.13,13.13,0,0,0,.14-12.37,12.28,12.28,0,0,0-9.58-6.73,14,14,0,0,0-1.71-.1Z"/><path class="cls-2" d="M768.33,1002.81a3.51,3.51,0,0,1-3.05-1.77l-9.49-16.71a14.53,14.53,0,0,1-.12-14.2,14,14,0,0,1,11.55-7.38,15.55,15.55,0,0,1,2.73.09,14.12,14.12,0,0,1,10.87,7.59,14.6,14.6,0,0,1-.17,13.71h0L771.39,1001a3.47,3.47,0,0,1-3,1.81Zm-.21-33.08h-.49a7,7,0,0,0-5.81,3.74,7.59,7.59,0,0,0,0,7.39l6.4,11.27,6.24-11.37h0a7.6,7.6,0,0,0,.08-7.13,7,7,0,0,0-5.47-3.85C768.76,969.75,768.44,969.73,768.12,969.73Z"/><path class="cls-3" d="M361.68,431.19H298.91a3.7,3.7,0,0,1-3.69-3.68v-72a3.69,3.69,0,0,1,3.69-3.69h62.77a3.69,3.69,0,0,1,3.68,3.69v72.08A3.67,3.67,0,0,1,361.68,431.19Zm-59.09-7.37H358V359.19H302.6Z"/><polygon class="cls-2" points="336.01 374.82 336.01 382.19 327.53 382.19 327.53 390.67 320.16 390.67 320.16 382.19 311.68 382.19 311.68 374.82 320.16 374.82 320.16 366.34 327.53 366.34 327.53 374.82 336.01 374.82"/><rect class="cls-2" x="332.94" y="407.78" width="16.63" height="7.37"/><path class="cls-3" d="M1175,1043.19h-62.77a3.68,3.68,0,0,1-3.68-3.68h0V967.43a3.7,3.7,0,0,1,3.68-3.69H1175a3.69,3.69,0,0,1,3.69,3.69v72.08A3.69,3.69,0,0,1,1175,1043.19Zm-59.08-7.37h55.4V971.11h-55.4Z"/><polygon class="cls-2" points="1149.33 986.8 1149.33 994.17 1140.85 994.17 1140.85 1002.65 1133.48 1002.65 1133.48 994.17 1125 994.17 1125 986.8 1133.48 986.8 1133.48 978.32 1140.85 978.32 1140.85 986.8 1149.33 986.8"/><rect class="cls-2" x="1146.27" y="1019.76" width="16.63" height="7.37"/><path class="cls-2" d="M973.66,785.73h-7a23.83,23.83,0,0,0-47.66,0h-7a30.83,30.83,0,0,1,61.66,0Z"/><path class="cls-3" d="M981.4,839.93H904.26V784.79H981.4Zm-70.14-7H974.4V791.79H911.26Z"/><rect class="cls-2" x="939.33" y="803.05" width="7" height="14.44"/><path class="cls-3" d="M322.06,821.41a32.23,32.23,0,1,1,32.23-32.23h0A32.26,32.26,0,0,1,322.06,821.41Zm0-57.45a25.23,25.23,0,1,0,25.23,25.23A25.24,25.24,0,0,0,322.06,764Z"/><rect class="cls-2" x="355.15" y="812.2" width="7" height="27.18" transform="translate(-478.87 495.47) rotate(-45)"/><path class="cls-3" d="M353.28,1045.86h-46a7.5,7.5,0,0,1-7.5-7.5V968.61a7.5,7.5,0,0,1,7.5-7.5h46a7.51,7.51,0,0,1,7.5,7.5v69.75A7.51,7.51,0,0,1,353.28,1045.86Zm-46-77.75a.5.5,0,0,0-.5.5v69.75a.5.5,0,0,0,.5.5h46a.5.5,0,0,0,.5-.5V968.61a.5.5,0,0,0-.5-.5Z"/><rect class="cls-2" x="326.51" y="1027.09" width="7.57" height="7"/><path class="cls-3" d="M330.29,632.6a40.83,40.83,0,1,1,40.83-40.83A40.83,40.83,0,0,1,330.29,632.6Zm0-74.66a33.83,33.83,0,1,0,33.83,33.83A33.83,33.83,0,0,0,330.29,557.94Z"/><polygon class="cls-2" points="325.25 610.23 308.61 593.59 313.56 588.64 325.25 600.33 348.33 577.26 353.28 582.2 325.25 610.23"/><path class="cls-3" d="M942.83,1044.31a40.83,40.83,0,1,1,40.83-40.83h0A40.87,40.87,0,0,1,942.83,1044.31Zm0-74.65a33.83,33.83,0,1,0,33.83,33.83h0A33.87,33.87,0,0,0,942.83,969.66Z"/><polygon class="cls-2" points="937.79 1021.95 921.14 1005.3 926.1 1000.35 937.79 1012.05 960.86 988.97 965.81 993.92 937.79 1021.95"/><g class="cls-4"><path class="cls-5" d="M1591.85,966.1v33.81a37.5,37.5,0,0,1-55.42,32.93l5.48-5.49a30.14,30.14,0,0,0,42.57-27.44V969.78h-30.13a30.16,30.16,0,0,0-27.41,42.63l-5.5,5.49a37.54,37.54,0,0,1,32.91-55.49h33.82A3.69,3.69,0,0,1,1591.85,966.1Z"/><polygon class="cls-6" points="1552.18 1007.32 1568.06 1007.32 1568.06 1014.69 1544.81 1014.69 1543.23 1016.27 1525.26 1034.25 1514.94 1044.56 1509.72 1039.35 1520.05 1029.04 1538.02 1011.06 1539.59 1009.48 1539.59 986.23 1546.96 986.23 1546.96 1002.11 1562.89 986.19 1568.1 991.4 1552.18 1007.32"/><path class="cls-5" d="M966.39,632.57H919.27l-23.56-40.8L919.27,551h47.12l23.55,40.8Zm-43.08-7h39l19.51-33.8L962.31,558h-39l-19.51,33.8Z"/><path class="cls-6" d="M942.83,612.19a20.4,20.4,0,1,1,20.4-20.4A20.4,20.4,0,0,1,942.83,612.19Zm0-33.8a13.4,13.4,0,1,0,13.4,13.4,13.4,13.4,0,0,0-13.4-13.4h0Z"/><path class="cls-6" d="M1347,1004.82a20.94,20.94,0,1,1,20.93-21h0A21,21,0,0,1,1347,1004.82Zm0-34.88a13.94,13.94,0,1,0,13.93,13.95h0A14,14,0,0,0,1347,969.94Z"/><path class="cls-5" d="M1386.11,1044h-7a32.12,32.12,0,1,0-64.24,0v0h-7a39.12,39.12,0,1,1,78.24,0Z"/><path class="cls-5" d="M562.52,632.53H507.37v-7h55.15a6.33,6.33,0,0,0,0-12.66H545a13.35,13.35,0,0,1-13.33-13.33v-2.18A13.35,13.35,0,0,1,545,584h14.68v7H545a6.35,6.35,0,0,0-6.33,6.33v2.18a6.35,6.35,0,0,0,6.33,6.33h17.48a13.33,13.33,0,0,1,0,26.66Z"/><path class="cls-6" d="M508.11,632.46a3.52,3.52,0,0,1-3-1.77L490.8,605.57a20.06,20.06,0,0,1-.16-19.63,19.32,19.32,0,0,1,15.91-10.17,20.86,20.86,0,0,1,3.79.11,19.17,19.17,0,0,1,15,10.48,20.13,20.13,0,0,1-.24,18.94l-13.9,25.34a3.52,3.52,0,0,1-3.05,1.82Zm-.31-49.73H507a12.22,12.22,0,0,0-10.17,6.53,13.12,13.12,0,0,0,.09,12.82l11.18,19.67L519,601.93h0a13.13,13.13,0,0,0,.14-12.37,12.24,12.24,0,0,0-9.57-6.73,15,15,0,0,0-1.77-.1Z"/><path class="cls-6" d="M560.78,591.1a3.52,3.52,0,0,1-3-1.77l-9.49-16.71a14.51,14.51,0,0,1-.11-14.2A14,14,0,0,1,559.72,551a15.55,15.55,0,0,1,2.73.08,14.07,14.07,0,0,1,10.87,7.6,14.58,14.58,0,0,1-.17,13.7h0l-9.25,16.86a3.52,3.52,0,0,1-3,1.82ZM560.57,558h-.49a7,7,0,0,0-5.8,3.73,7.53,7.53,0,0,0,.05,7.4l6.39,11.26L567,569.05h0a7.57,7.57,0,0,0,.09-7.13,7,7,0,0,0-5.48-3.85,8.94,8.94,0,0,0-1-.06Z"/><path class="cls-5" d="M1580.8,838.19h-55.14v-7h55.14a6.33,6.33,0,1,0,0-12.66h-17.5A13.35,13.35,0,0,1,1550,805.19V803a13.35,13.35,0,0,1,13.33-13.33H1578v7h-14.68A6.35,6.35,0,0,0,1557,803v2.18a6.35,6.35,0,0,0,6.33,6.33h17.47a13.33,13.33,0,0,1,0,26.66h0Z"/><path class="cls-6" d="M1526.39,838.1a3.5,3.5,0,0,1-3-1.77l-14.31-25.14a20.09,20.09,0,0,1-.15-19.63,19.32,19.32,0,0,1,15.91-10.18,22.84,22.84,0,0,1,3.79.11,19.19,19.19,0,0,1,15,10.48,20.14,20.14,0,0,1-.23,19l-13.91,25.34a3.48,3.48,0,0,1-3,1.81Zm-.3-49.73h-.85a12.2,12.2,0,0,0-10.16,6.53,13.11,13.11,0,0,0,.09,12.83l11.17,19.66,10.89-19.84h0a13.15,13.15,0,0,0,.15-12.38,12.29,12.29,0,0,0-9.58-6.72A14,14,0,0,0,1526.09,788.37Z"/><path class="cls-6" d="M1579.06,796.74a3.49,3.49,0,0,1-3-1.77l-9.49-16.71a14.53,14.53,0,0,1-.12-14.2,14,14,0,0,1,11.55-7.38,16.58,16.58,0,0,1,2.73.08,14.14,14.14,0,0,1,10.87,7.6,14.62,14.62,0,0,1-.17,13.71h0l-9.25,16.86a3.48,3.48,0,0,1-3,1.81Zm-.2-33.09h-.5a7,7,0,0,0-5.8,3.74,7.59,7.59,0,0,0,0,7.39L1579,786l6.24-11.36h0a7.61,7.61,0,0,0,.08-7.14,7,7,0,0,0-5.47-3.85c-.31,0-.63,0-1,0Z"/><path class="cls-5" d="M361.68,431.19H298.91a3.7,3.7,0,0,1-3.69-3.68v-72a3.69,3.69,0,0,1,3.69-3.69h62.77a3.69,3.69,0,0,1,3.68,3.69v72.08A3.67,3.67,0,0,1,361.68,431.19Zm-59.09-7.37H358V359.19H302.6Z"/><polygon class="cls-6" points="336.01 374.82 336.01 382.19 327.53 382.19 327.53 390.67 320.16 390.67 320.16 382.19 311.68 382.19 311.68 374.82 320.16 374.82 320.16 366.34 327.53 366.34 327.53 374.82 336.01 374.82"/><rect class="cls-6" x="332.94" y="407.78" width="16.63" height="7.37"/><path class="cls-5" d="M1175,1043.19h-62.77a3.68,3.68,0,0,1-3.68-3.68h0V967.43a3.7,3.7,0,0,1,3.68-3.69H1175a3.69,3.69,0,0,1,3.69,3.69v72.08A3.69,3.69,0,0,1,1175,1043.19Zm-59.08-7.37h55.4V971.11h-55.4Z"/><polygon class="cls-6" points="1149.33 986.8 1149.33 994.17 1140.85 994.17 1140.85 1002.65 1133.48 1002.65 1133.48 994.17 1125 994.17 1125 986.8 1133.48 986.8 1133.48 978.32 1140.85 978.32 1140.85 986.8 1149.33 986.8"/><rect class="cls-6" x="1146.27" y="1019.76" width="16.63" height="7.37"/><path class="cls-5" d="M1378.37,631.5H1315.6a3.7,3.7,0,0,1-3.68-3.69V555.73a3.68,3.68,0,0,1,3.68-3.68h62.77a3.68,3.68,0,0,1,3.69,3.67h0v72.08A3.69,3.69,0,0,1,1378.37,631.5Zm-59.08-7.37h55.4V559.42h-55.4Z"/><polygon class="cls-6" points="1352.7 575.08 1352.7 582.45 1344.22 582.45 1344.22 590.93 1336.85 590.93 1336.85 582.45 1328.37 582.45 1328.37 575.08 1336.85 575.08 1336.85 566.6 1344.22 566.6 1344.22 575.08 1352.7 575.08"/><rect class="cls-6" x="1349.64" y="608.05" width="16.63" height="7.37"/><path class="cls-6" d="M973.66,785.73h-7a23.83,23.83,0,0,0-47.66,0h-7a30.83,30.83,0,0,1,61.66,0Z"/><path class="cls-5" d="M981.4,839.93H904.26V784.79H981.4Zm-70.14-7H974.4V791.79H911.26Z"/><rect class="cls-6" x="939.33" y="803.05" width="7" height="14.44"/><path class="cls-5" d="M1137.12,415.5a32.23,32.23,0,1,1,32.23-32.23h0A32.25,32.25,0,0,1,1137.12,415.5Zm0-57.45a25.23,25.23,0,1,0,25.23,25.23h0A25.25,25.25,0,0,0,1137.12,358.05Z"/><rect class="cls-6" x="1170.22" y="406.3" width="7" height="27.18" transform="translate(46.87 952.93) rotate(-45)"/><path class="cls-5" d="M1168.34,634.19h-46a7.52,7.52,0,0,1-7.5-7.5v-69.8a7.52,7.52,0,0,1,7.5-7.5h46a7.52,7.52,0,0,1,7.5,7.5v69.76a7.52,7.52,0,0,1-7.5,7.54Zm-46-77.76a.5.5,0,0,0-.5.5v69.76a.5.5,0,0,0,.5.5h46a.51.51,0,0,0,.5-.5v-69.8a.51.51,0,0,0-.5-.5Z"/><rect class="cls-6" x="1141.57" y="615.37" width="7.57" height="7"/><path class="cls-5" d="M1982.87,1045.86h-46a7.52,7.52,0,0,1-7.5-7.5V968.61a7.52,7.52,0,0,1,7.5-7.5h46a7.5,7.5,0,0,1,7.5,7.5v69.75A7.5,7.5,0,0,1,1982.87,1045.86Zm-46-77.75a.5.5,0,0,0-.5.5v69.75a.5.5,0,0,0,.5.5h46a.5.5,0,0,0,.5-.5V968.61a.5.5,0,0,0-.5-.5Z"/><rect class="cls-6" x="1956.1" y="1027.09" width="7.57" height="7"/><path class="cls-5" d="M739.55,432A40.5,40.5,0,1,1,780,391.45v.06A40.52,40.52,0,0,1,739.55,432Zm0-73.62a33.13,33.13,0,1,0,33.12,33.14h0A33.15,33.15,0,0,0,739.55,358.38Z"/><rect class="cls-6" x="735.86" y="367.88" width="7.37" height="13.52"/><rect class="cls-6" x="746.27" y="399.93" width="7.37" height="13.52" transform="translate(-95.82 518.48) rotate(-36)"/><rect class="cls-6" x="719.02" y="380.12" width="7.37" height="13.52" transform="translate(131.43 954.66) rotate(-72)"/><rect class="cls-6" x="749.63" y="383.17" width="13.52" height="7.37" transform="translate(-82.52 252.67) rotate(-18)"/><rect class="cls-6" x="722.39" y="403" width="13.52" height="7.37" transform="translate(-28.45 757.53) rotate(-54)"/><path class="cls-5" d="M1347,838.24a40.83,40.83,0,1,1,40.82-40.84h0A40.87,40.87,0,0,1,1347,838.24Zm0-74.65a33.83,33.83,0,1,0,33.82,33.84v0A33.86,33.86,0,0,0,1347,763.59Z"/><polygon class="cls-6" points="1341.94 815.87 1325.3 799.23 1330.25 794.28 1341.94 805.97 1365.02 782.9 1369.97 787.85 1341.94 815.87"/><polygon class="cls-6" points="1170.84 794.35 1163.84 794.35 1163.84 777.72 1147.21 777.72 1147.21 770.72 1170.84 770.72 1170.84 794.35"/><polygon class="cls-6" points="1183.96 782.17 1176.96 782.17 1176.96 765.54 1160.32 765.54 1160.32 758.54 1183.96 758.54 1183.96 782.17"/><path class="cls-5" d="M1157.65,837.71a52.2,52.2,0,0,1-52.13-52.14v-6.21a22.28,22.28,0,0,1,22.24-22.24h7.85a3.5,3.5,0,0,1,3.5,3.5h0v24.72a3.5,3.5,0,0,1-3.5,3.5h-4.31a26.58,26.58,0,0,0,23.11,23.09v-4.31a3.5,3.5,0,0,1,3.5-3.5h23.78a3.5,3.5,0,0,1,3.5,3.5v7.85A22.26,22.26,0,0,1,1163,837.7Zm-29.89-73.59a15.26,15.26,0,0,0-15.24,15.24v6.21a45.2,45.2,0,0,0,45.13,45.14h5.29a15.26,15.26,0,0,0,15.25-15.23v-4.35h-16.78v4.5a3.49,3.49,0,0,1-3.47,3.51,33.57,33.57,0,0,1-33.84-33.3v-.52A3.54,3.54,0,0,1,1125,783l.19-.19a3.51,3.51,0,0,1,2.38-.93h4.5V764.12Z"/><path class="cls-5" d="M558.69,351.5H529.76a42.3,42.3,0,0,0-42.24,42.24v13a5.61,5.61,0,0,1,.82,0,8.89,8.89,0,0,1,6.18,2.49V393.74a35.28,35.28,0,0,1,35.24-35.24h28.93a25.59,25.59,0,0,1,25.56,25.55v29.06a8.9,8.9,0,0,1-1.46,7.85h5a3.5,3.5,0,0,0,3.5-3.5V384.05A32.58,32.58,0,0,0,558.69,351.5ZM566.9,414H497.11a8.91,8.91,0,0,1-1.65,7h73.1A8.9,8.9,0,0,1,566.9,414Z"/><path class="cls-6" d="M500.65,414a12.41,12.41,0,0,0-12.31-10.77h-.82a12.42,12.42,0,1,0,12,17.77,12.25,12.25,0,0,0,1.12-7Zm-12.31,10.55a8.92,8.92,0,0,1-.82-17.81,5.61,5.61,0,0,1,.82,0,8.92,8.92,0,0,1,8.77,7.3,8.8,8.8,0,0,1,.15,1.62,8.92,8.92,0,0,1-8.91,8.93h0Z"/><path class="cls-6" d="M504.18,414a15.92,15.92,0,0,0-15.84-14.3h-.82a15.93,15.93,0,1,0,15.8,21.28,15.43,15.43,0,0,0,.94-5.38C504.26,415,504.23,414.5,504.18,414Zm-6.92,1.62a8.93,8.93,0,1,1-9.74-8.88,5.61,5.61,0,0,1,.82,0,8.92,8.92,0,0,1,8.77,7.3,8.37,8.37,0,0,1,.15,1.58Z"/><path class="cls-6" d="M584.25,406.6a12.4,12.4,0,1,0,3.85,9A12.38,12.38,0,0,0,584.25,406.6Zm-8.58,17.91a8.94,8.94,0,0,1-8.92-8.93,8.8,8.8,0,0,1,.15-1.62,8.92,8.92,0,1,1,8.77,10.55Z"/><path class="cls-6" d="M591.25,412.25A15.93,15.93,0,0,0,559.83,414c-.05.54-.08,1.07-.08,1.62a15.93,15.93,0,1,0,31.5-3.33ZM582.79,421a8.91,8.91,0,0,1-12.48,1.75,9.07,9.07,0,0,1-1.75-1.75,8.92,8.92,0,1,1,14.23,0Z"/><rect class="cls-5" x="534.68" y="364.98" width="7" height="42.13"/><path class="cls-5" d="M1780.17,963.48h-28.94a42.3,42.3,0,0,0-42.24,42.24v13a5.61,5.61,0,0,1,.82,0,8.84,8.84,0,0,1,6.18,2.5V1005.8a35.28,35.28,0,0,1,35.24-35.24h28.94a25.58,25.58,0,0,1,25.55,25.55v29.06a8.9,8.9,0,0,1-1.46,7.85h5a3.5,3.5,0,0,0,3.5-3.5V996.11a32.58,32.58,0,0,0-32.53-32.63Zm8.2,62.46h-69.79a8.86,8.86,0,0,1-1.66,7H1790a8.9,8.9,0,0,1-1.66-7Z"/><path class="cls-6" d="M1722.12,1025.94a12.42,12.42,0,0,0-12.31-10.8H1709a12.42,12.42,0,1,0,13.12,10.77Zm-12.31,10.55a8.92,8.92,0,0,1-.82-17.81,5.61,5.61,0,0,1,.82,0,8.91,8.91,0,1,1,0,17.81Z"/><path class="cls-6" d="M1725.65,1025.94a15.92,15.92,0,0,0-15.84-14.3H1709a15.93,15.93,0,1,0,15.8,21.28,15.43,15.43,0,0,0,.94-5.38C1725.73,1027,1725.7,1026.48,1725.65,1025.94Zm-6.92,1.62a9,9,0,1,1-9.74-8.88,5.61,5.61,0,0,1,.82,0,9,9,0,0,1,8.77,7.3A8.37,8.37,0,0,1,1718.73,1027.56Z"/><path class="cls-6" d="M1805.72,1018.58a12.4,12.4,0,1,0,3.85,9A12.38,12.38,0,0,0,1805.72,1018.58Zm-8.57,17.91a9,9,0,0,1-8.93-8.93,8.8,8.8,0,0,1,.15-1.62,8.92,8.92,0,1,1,8.78,10.55Z"/><path class="cls-6" d="M1812.72,1024.19a15.88,15.88,0,0,0-7-10.07,15.69,15.69,0,0,0-8.57-2.52,16,16,0,0,0-15.85,14.3c0,.54-.08,1.07-.08,1.62a15.93,15.93,0,1,0,31.5-3.33Zm-8.46,8.71a8.93,8.93,0,0,1-16-5.38,8.8,8.8,0,0,1,.15-1.62,8.92,8.92,0,1,1,15.89,7Z"/><rect class="cls-5" x="1756.15" y="976.96" width="7" height="42.13"/><path class="cls-5" d="M738.64,602.75H713.79a3.73,3.73,0,0,1-3.09-5.81l32.16-47.75,6.18,4.17-28.25,42h17.85Z"/><path class="cls-6" d="M736.24,634.37l-6.18-4.18,28.25-42H740.46v-7.4h24.85a3.74,3.74,0,0,1,3.73,3.74,3.83,3.83,0,0,1-.64,2.07Z"/><path class="cls-5" d="M963.3,432.1a23.64,23.64,0,0,1-23.61-23.62v-34a16.64,16.64,0,0,0-16.62-16.62h-2.45A16.64,16.64,0,0,0,904,374.53v15.66h-7V374.53a23.65,23.65,0,0,1,23.62-23.62h2.45a23.65,23.65,0,0,1,23.62,23.62v34a16.61,16.61,0,0,0,33.22,0V390.19h7v18.28A23.64,23.64,0,0,1,963.3,432.1Z"/><rect class="cls-6" x="886.88" y="387.14" width="111.9" height="7"/><path class="cls-5" d="M963.3,432.1a23.64,23.64,0,0,1-23.61-23.62v-34a16.64,16.64,0,0,0-16.62-16.62h-2.45A16.64,16.64,0,0,0,904,374.53h-7a23.65,23.65,0,0,1,23.62-23.62h2.45a23.65,23.65,0,0,1,23.62,23.62v34a16.61,16.61,0,0,0,33.22,0h7A23.64,23.64,0,0,1,963.3,432.1Z"/></g><g class="cls-7"><path class="cls-6" d="M1591.35,354.13v33.8a37.5,37.5,0,0,1-55.42,32.93l5.48-5.49A30.14,30.14,0,0,0,1584,387.93V357.8h-30.13a30.16,30.16,0,0,0-27.41,42.63l-5.49,5.49a37.52,37.52,0,0,1,32.9-55.49h33.82A3.69,3.69,0,0,1,1591.35,354.13Z"/><polygon class="cls-2" points="1551.68 395.34 1567.56 395.34 1567.56 402.71 1544.31 402.71 1542.73 404.29 1524.76 422.27 1514.44 432.58 1509.23 427.37 1519.55 417.06 1537.52 399.08 1539.09 397.5 1539.09 374.25 1546.46 374.25 1546.46 390.13 1562.39 374.21 1567.6 379.42 1551.68 395.34"/><path class="cls-6" d="M1983.44,838.19h-47.11l-23.56-40.81,23.56-40.8h47.11l23.56,40.8Zm-43.07-7h39l19.52-33.81-19.52-33.8h-39l-19.52,33.8Z"/><path class="cls-2" d="M1959.89,817.82a20.41,20.41,0,1,1,20.4-20.42h0A20.43,20.43,0,0,1,1959.89,817.82Zm0-33.81a13.41,13.41,0,1,0,13.4,13.42v0A13.41,13.41,0,0,0,1959.89,784Z"/><path class="cls-2" d="M1347,392.84a20.94,20.94,0,1,1,20.93-20.95h0A21,21,0,0,1,1347,392.84Zm0-34.88a13.94,13.94,0,1,0,13.93,14h0A14,14,0,0,0,1347,358Z"/><path class="cls-6" d="M1386.11,432.05h-7a32.12,32.12,0,1,0-64.24,0v0h-7a39.12,39.12,0,1,1,78.24,0Z"/><path class="cls-6" d="M1378.37,631.5H1315.6a3.7,3.7,0,0,1-3.68-3.69V555.73a3.68,3.68,0,0,1,3.68-3.68h62.77a3.68,3.68,0,0,1,3.69,3.67h0v72.08A3.69,3.69,0,0,1,1378.37,631.5Zm-59.08-7.37h55.4V559.42h-55.4Z"/><polygon class="cls-2" points="1352.7 575.08 1352.7 582.45 1344.22 582.45 1344.22 590.93 1336.85 590.93 1336.85 582.45 1328.37 582.45 1328.37 575.08 1336.85 575.08 1336.85 566.6 1344.22 566.6 1344.22 575.08 1352.7 575.08"/><rect class="cls-2" x="1349.64" y="608.05" width="16.63" height="7.37"/><path class="cls-2" d="M1784.31,379.82h-7a23.84,23.84,0,0,0-47.67,0h-7a30.84,30.84,0,0,1,61.67,0Z"/><path class="cls-6" d="M1792.05,434H1714.9V378.89h77.15Zm-70.15-7h63.15V385.89H1721.9Z"/><rect class="cls-2" x="1749.97" y="397.15" width="7" height="14.44"/><path class="cls-6" d="M1137.12,415.5a32.23,32.23,0,1,1,32.23-32.23h0A32.25,32.25,0,0,1,1137.12,415.5Zm0-57.45a25.23,25.23,0,1,0,25.23,25.23h0A25.25,25.25,0,0,0,1137.12,358.05Z"/><rect class="cls-2" x="1170.22" y="406.3" width="7" height="27.18" transform="translate(46.87 952.93) rotate(-45)"/><path class="cls-6" d="M1982.87,1045.86h-46a7.52,7.52,0,0,1-7.5-7.5V968.61a7.52,7.52,0,0,1,7.5-7.5h46a7.5,7.5,0,0,1,7.5,7.5v69.75A7.5,7.5,0,0,1,1982.87,1045.86Zm-46-77.75a.5.5,0,0,0-.5.5v69.75a.5.5,0,0,0,.5.5h46a.5.5,0,0,0,.5-.5V968.61a.5.5,0,0,0-.5-.5Z"/><rect class="cls-2" x="1956.1" y="1027.09" width="7.57" height="7"/><path class="cls-6" d="M1753.48,632.26A40.49,40.49,0,1,1,1794,591.77,40.5,40.5,0,0,1,1753.48,632.26Zm0-73.61a33.12,33.12,0,1,0,33.12,33.12h0A33.16,33.16,0,0,0,1753.48,558.65Z"/><rect class="cls-2" x="1749.79" y="568.14" width="7.37" height="13.52"/><rect class="cls-2" x="1760.21" y="600.22" width="7.37" height="13.52" transform="translate(-19.9 1152.72) rotate(-36)"/><rect class="cls-2" x="1732.95" y="580.38" width="7.37" height="13.52" transform="translate(641.58 2057.34) rotate(-72)"/><rect class="cls-2" x="1763.56" y="583.4" width="13.52" height="7.37" transform="translate(-94.77 575.79) rotate(-18)"/><rect class="cls-2" x="1736.33" y="603.28" width="13.52" height="7.37" transform="translate(227.48 1660.39) rotate(-54)"/><polygon class="cls-2" points="1985.37 388.44 1978.37 388.44 1978.37 371.81 1961.74 371.81 1961.74 364.81 1985.37 364.81 1985.37 388.44"/><polygon class="cls-2" points="1998.49 376.26 1991.49 376.26 1991.49 359.63 1974.86 359.63 1974.86 352.63 1998.49 352.63 1998.49 376.26"/><path class="cls-6" d="M1972.19,431.8a52.21,52.21,0,0,1-52.14-52.14v-6.21a22.25,22.25,0,0,1,22.24-22.26h7.85a3.48,3.48,0,0,1,3.5,3.48V379.4a3.5,3.5,0,0,1-3.5,3.5h-4.31a26.6,26.6,0,0,0,23.11,23.1v-4.32a3.5,3.5,0,0,1,3.5-3.5h23.78a3.5,3.5,0,0,1,3.5,3.5v7.85a22.28,22.28,0,0,1-22.24,22.24Zm-29.9-73.61a15.24,15.24,0,0,0-15.23,15.23v6.21a45.19,45.19,0,0,0,45.14,45.14h5.29a15.27,15.27,0,0,0,15.24-15.24v-4.34H1976v4.51a3.5,3.5,0,0,1-3.47,3.5,33.55,33.55,0,0,1-33.83-33.27v-.54a3.54,3.54,0,0,1,.93-2.36l.19-.19a3.51,3.51,0,0,1,2.38-.93h4.5V358.19Z"/><path class="cls-6" d="M1577,551.76h-29A42.28,42.28,0,0,0,1505.77,594v13a5.48,5.48,0,0,1,.81,0,8.88,8.88,0,0,1,6.19,2.5V594A35.27,35.27,0,0,1,1548,558.76h29a25.58,25.58,0,0,1,25.55,25.56v29.06a8.57,8.57,0,0,1,.35,2.47,8.82,8.82,0,0,1-1.8,5.37h5a3.48,3.48,0,0,0,3.5-3.48V584.32A32.58,32.58,0,0,0,1577,551.76Zm8.2,62.46h-69.8a8.86,8.86,0,0,1-1.66,7h73.1a8.9,8.9,0,0,1-1.66-7Z"/><path class="cls-2" d="M1518.94,614.19a12.42,12.42,0,0,0-12.32-10.8h-.81A12.45,12.45,0,1,0,1519,615,8,8,0,0,0,1518.94,614.19Zm-12.32,10.55a8.92,8.92,0,0,1-.81-17.81,5.48,5.48,0,0,1,.81,0,8.92,8.92,0,1,1,0,17.84Z"/><path class="cls-2" d="M1522.47,614.19a15.92,15.92,0,0,0-15.85-14.3h-.81a15.93,15.93,0,1,0,15.8,21.28,15.61,15.61,0,0,0,.94-5.37C1522.55,615.3,1522.52,614.76,1522.47,614.19Zm-6.92,1.63a8.76,8.76,0,0,1-1.81,5.37,8.92,8.92,0,1,1-7.93-14.26,5.48,5.48,0,0,1,.81,0,9,9,0,0,1,8.78,7.3,8.8,8.8,0,0,1,.15,1.62Z"/><path class="cls-2" d="M1602.53,606.86a12.42,12.42,0,1,0,3.74,10.61A12.42,12.42,0,0,0,1602.53,606.86ZM1594,624.77a8.93,8.93,0,1,1,8.57-11.39,8.57,8.57,0,0,1,.35,2.47,8.92,8.92,0,0,1-8.92,8.92Z"/><path class="cls-2" d="M1609.53,612.52a15.9,15.9,0,0,0-7-10.08,15.69,15.69,0,0,0-8.57-2.52,16,16,0,0,0-15.85,14.3c0,.54-.08,1.08-.08,1.63a15.71,15.71,0,0,0,1,5.34,15.92,15.92,0,0,0,30.56-8.7Zm-8.45,8.7a8.93,8.93,0,0,1-12.49,1.75,9.07,9.07,0,0,1-1.75-1.75,8.92,8.92,0,1,1,15.69-7.84,8.57,8.57,0,0,1,.35,2.47,8.81,8.81,0,0,1-1.8,5.34Z"/><rect class="cls-6" x="1552.96" y="565.24" width="7" height="42.13"/><path class="cls-6" d="M1752.57,808.39h-24.86a3.72,3.72,0,0,1-3.72-3.71,3.77,3.77,0,0,1,.63-2.09l32.16-47.77L1763,759l-28.25,42h17.86Z"/><path class="cls-2" d="M1750.17,840l-6.18-4.16,28.25-42h-17.86V786.4h24.86a3.72,3.72,0,0,1,3.09,5.8Z"/><path class="cls-6" d="M1980.36,632.36a23.64,23.64,0,0,1-23.62-23.61v-34a16.63,16.63,0,0,0-16.61-16.56h-2.46a16.63,16.63,0,0,0-16.61,16.61v15.67h-7V574.79a23.63,23.63,0,0,1,23.61-23.6h2.46a23.63,23.63,0,0,1,23.61,23.61v34a16.62,16.62,0,0,0,33.23,0V590.46h7v18.29A23.63,23.63,0,0,1,1980.36,632.36Z"/><rect class="cls-2" x="1903.94" y="587.4" width="111.9" height="7"/><path class="cls-6" d="M1980.36,632.36a23.64,23.64,0,0,1-23.62-23.61v-34a16.63,16.63,0,0,0-16.61-16.56h-2.46a16.63,16.63,0,0,0-16.61,16.61h-7a23.63,23.63,0,0,1,23.61-23.61h2.46a23.63,23.63,0,0,1,23.61,23.61v34a16.62,16.62,0,0,0,33.23,0h7A23.62,23.62,0,0,1,1980.36,632.36Z"/></g></g></g></svg>