<svg xmlns="http://www.w3.org/2000/svg" viewBox="0 0 1334.93 282.88"><defs><style>.cls-1{fill:#abcf37;}.cls-2{fill:#262c6c;}.cls-3{fill:#fff;}</style></defs><g id="Layer_2" data-name="Layer 2"><g id="Layer_1-2" data-name="Layer 1"><path class="cls-1" d="M1328.88,8.11v33.8a37.5,37.5,0,0,1-55.42,32.94l5.48-5.5a30.13,30.13,0,0,0,42.57-27.44V11.79h-30.13A30.15,30.15,0,0,0,1264,54.41l-5.49,5.5a37.52,37.52,0,0,1,32.9-55.49h33.82A3.69,3.69,0,0,1,1328.88,8.11Z"/><polygon class="cls-2" points="1289.21 49.33 1305.09 49.33 1305.09 56.7 1281.84 56.7 1280.26 58.27 1262.3 76.25 1251.97 86.57 1246.76 81.35 1257.08 71.04 1275.05 53.06 1276.63 51.48 1276.63 28.23 1284 28.23 1284 44.11 1299.92 28.19 1305.13 33.41 1289.21 49.33"/><path class="cls-1" d="M1311.38,277.88h-47.12l-23.56-40.8,23.56-40.8h47.12l23.55,40.8Zm-43.08-7h39l19.52-33.8-19.52-33.8h-39l-19.51,33.8Z"/><path class="cls-2" d="M1287.82,257.48a20.4,20.4,0,1,1,20.4-20.4A20.43,20.43,0,0,1,1287.82,257.48Zm0-33.8a13.4,13.4,0,1,0,13.4,13.4A13.42,13.42,0,0,0,1287.82,223.68Z"/><path class="cls-2" d="M1079.61,43.79a20.94,20.94,0,1,1,20.94-20.93A21,21,0,0,1,1079.61,43.79Zm0-34.87a13.94,13.94,0,1,0,13.94,13.94A14,14,0,0,0,1079.61,8.92Z"/><path class="cls-1" d="M1118.73,83h-7a32.12,32.12,0,0,0-64.24,0h-7a39.12,39.12,0,0,1,78.24,0Z"/><path class="cls-1" d="M1110.12,274.93H1055v-7h55.14a6.33,6.33,0,1,0,0-12.66h-17.47a13.35,13.35,0,0,1-13.33-13.33v-2.19a13.35,13.35,0,0,1,13.33-13.33h14.68v7h-14.68a6.34,6.34,0,0,0-6.33,6.33v2.19a6.34,6.34,0,0,0,6.33,6.33h17.47a13.33,13.33,0,1,1,0,26.66Z"/><path class="cls-2" d="M1055.71,274.85a3.48,3.48,0,0,1-3-1.77L1038.4,248a20.09,20.09,0,0,1-.15-19.63,19.3,19.3,0,0,1,15.91-10.18,21.84,21.84,0,0,1,3.79.12,19.18,19.18,0,0,1,15,10.47,20.18,20.18,0,0,1-.23,18.95L1058.78,273a3.49,3.49,0,0,1-3,1.81Zm-.31-49.72c-.28,0-.56,0-.84,0a12.19,12.19,0,0,0-10.16,6.53,13.11,13.11,0,0,0,.09,12.83l11.17,19.66,10.89-19.84h0a13.15,13.15,0,0,0,.15-12.37,12.28,12.28,0,0,0-9.58-6.73A13.94,13.94,0,0,0,1055.4,225.13Z"/><path class="cls-2" d="M1108.38,233.49a3.48,3.48,0,0,1-3-1.77l-9.5-16.71a14.56,14.56,0,0,1-.11-14.2,14,14,0,0,1,11.55-7.38,16.68,16.68,0,0,1,2.73.08,14.12,14.12,0,0,1,10.86,7.6,14.57,14.57,0,0,1-.17,13.71h0l-9.25,16.86a3.49,3.49,0,0,1-3,1.81Zm-.2-33.08h-.5a7,7,0,0,0-5.8,3.74,7.56,7.56,0,0,0,0,7.39l6.4,11.27,6.24-11.37h0a7.59,7.59,0,0,0,.08-7.13,7,7,0,0,0-5.47-3.85A8.39,8.39,0,0,0,1108.18,200.41Z"/><path class="cls-1" d="M70,82.87H7.19A3.69,3.69,0,0,1,3.5,79.18V7.1A3.69,3.69,0,0,1,7.19,3.42H70A3.68,3.68,0,0,1,73.64,7.1V79.18A3.69,3.69,0,0,1,70,82.87ZM10.87,75.5h55.4V10.79H10.87Z"/><polygon class="cls-2" points="44.29 26.45 44.29 33.82 35.81 33.82 35.81 42.3 28.44 42.3 28.44 33.82 19.96 33.82 19.96 26.45 28.44 26.45 28.44 17.97 35.81 17.97 35.81 26.45 44.29 26.45"/><rect class="cls-2" x="41.23" y="59.42" width="16.63" height="7.37"/><path class="cls-2" d="M69.4,225.4h-7a23.83,23.83,0,1,0-47.66,0h-7a30.83,30.83,0,1,1,61.66,0Z"/><path class="cls-1" d="M77.14,279.6H0V224.46H77.14ZM7,272.6H70.14V231.46H7Z"/><rect class="cls-2" x="35.07" y="242.72" width="7" height="14.44"/><path class="cls-1" d="M862.66,67.67a32.23,32.23,0,1,1,32.23-32.23A32.27,32.27,0,0,1,862.66,67.67Zm0-57.45a25.23,25.23,0,1,0,25.23,25.22A25.25,25.25,0,0,0,862.66,10.22Z"/><rect class="cls-2" x="895.76" y="58.45" width="7" height="27.18" transform="translate(212.45 656.98) rotate(-45)"/><path class="cls-1" d="M894.39,282.88h-46a7.5,7.5,0,0,1-7.5-7.5V205.63a7.5,7.5,0,0,1,7.5-7.5h46a7.51,7.51,0,0,1,7.5,7.5v69.75A7.51,7.51,0,0,1,894.39,282.88Zm-46-77.75a.5.5,0,0,0-.5.5v69.75a.5.5,0,0,0,.5.5h46a.5.5,0,0,0,.5-.5V205.63a.5.5,0,0,0-.5-.5Z"/><rect class="cls-2" x="867.62" y="264.1" width="7.57" height="7"/><path class="cls-1" d="M455,81a40.5,40.5,0,1,1,40.49-40.5A40.54,40.54,0,0,1,455,81Zm0-73.62a33.12,33.12,0,1,0,33.12,33.12A33.15,33.15,0,0,0,455,7.37Z"/><rect class="cls-2" x="451.3" y="16.86" width="7.37" height="13.52"/><rect class="cls-2" x="461.71" y="48.9" width="7.37" height="13.52" transform="translate(56.17 284.19) rotate(-36)"/><rect class="cls-2" x="434.46" y="29.1" width="7.37" height="13.52" transform="translate(268.65 441.48) rotate(-72)"/><rect class="cls-2" x="465.07" y="32.17" width="13.52" height="7.37" transform="translate(12.01 147.55) rotate(-18)"/><rect class="cls-2" x="437.82" y="51.97" width="13.52" height="7.37" transform="translate(138.24 382.62) rotate(-54)"/><path class="cls-1" d="M455,277.91a40.83,40.83,0,1,1,40.82-40.83A40.88,40.88,0,0,1,455,277.91Zm0-74.66a33.83,33.83,0,1,0,33.82,33.83A33.87,33.87,0,0,0,455,203.25Z"/><polygon class="cls-2" points="449.95 255.54 433.31 238.89 438.25 233.94 449.95 245.64 473.02 222.56 477.97 227.51 449.95 255.54"/><polygon class="cls-2" points="272.27 235.91 265.27 235.91 265.27 219.27 248.63 219.27 248.63 212.27 272.27 212.27 272.27 235.91"/><polygon class="cls-2" points="285.38 223.73 278.38 223.73 278.38 207.09 261.75 207.09 261.75 200.09 285.38 200.09 285.38 223.73"/><path class="cls-1" d="M259.08,279.26A52.18,52.18,0,0,1,207,227.13v-6.22a22.26,22.26,0,0,1,22.24-22.23H237a3.5,3.5,0,0,1,3.5,3.5v24.71a3.5,3.5,0,0,1-3.5,3.5h-4.31a26.56,26.56,0,0,0,23.11,23.1v-4.32a3.5,3.5,0,0,1,3.5-3.5h23.77a3.5,3.5,0,0,1,3.5,3.5V257a22.26,22.26,0,0,1-22.24,22.24Zm-29.89-73.58A15.26,15.26,0,0,0,214,220.92v6.21a45.17,45.17,0,0,0,45.13,45.13h5.29A15.26,15.26,0,0,0,279.61,257v-4.35H262.84v4.51a3.5,3.5,0,0,1-3.48,3.5,33.55,33.55,0,0,1-33.83-33.81,3.49,3.49,0,0,1,.94-2.35,1.62,1.62,0,0,1,.18-.19,3.52,3.52,0,0,1,2.38-.94h4.51V205.68Z"/><path class="cls-1" d="M302.52,73.54H205.79a3.5,3.5,0,0,1-3.5-3.5V46.32A42.28,42.28,0,0,1,244.53,4.08h28.94A32.58,32.58,0,0,1,306,36.63V70A3.5,3.5,0,0,1,302.52,73.54Zm-93.23-7H299V36.63a25.58,25.58,0,0,0-25.55-25.55H244.53a35.28,35.28,0,0,0-35.24,35.24Z"/><circle class="cls-3" cx="203.11" cy="68.16" r="12.42"/><path class="cls-2" d="M203.11,84.09A15.93,15.93,0,1,1,219,68.16,15.94,15.94,0,0,1,203.11,84.09Zm0-24.85A8.93,8.93,0,1,0,212,68.16,8.93,8.93,0,0,0,203.11,59.24Z"/><circle class="cls-3" cx="290.45" cy="68.16" r="12.42"/><path class="cls-2" d="M290.45,84.09a15.93,15.93,0,1,1,15.92-15.93A16,16,0,0,1,290.45,84.09Zm0-24.85a8.93,8.93,0,1,0,8.92,8.92A8.94,8.94,0,0,0,290.45,59.24Z"/><rect class="cls-1" x="249.46" y="17.55" width="7" height="42.13"/><path class="cls-1" d="M662.29,246.44H637.43a3.72,3.72,0,0,1-3.09-5.8l32.16-47.77,6.18,4.16-28.25,42h17.86Z"/><path class="cls-2" d="M659.89,278.06l-6.18-4.16,28.25-42H664.1v-7.45H689a3.73,3.73,0,0,1,3.09,5.81Z"/><path class="cls-1" d="M683.67,81.38a23.64,23.64,0,0,1-23.62-23.61v-34A16.63,16.63,0,0,0,643.44,7.2H641a16.63,16.63,0,0,0-16.61,16.61V39.48h-7V23.81A23.63,23.63,0,0,1,641,.2h2.46a23.63,23.63,0,0,1,23.61,23.61v34a16.62,16.62,0,0,0,33.23,0V39.48h7V57.77A23.63,23.63,0,0,1,683.67,81.38Z"/><rect class="cls-2" x="607.25" y="36.42" width="111.9" height="7"/><path class="cls-1" d="M683.67,81.38a23.64,23.64,0,0,1-23.62-23.61v-34A16.63,16.63,0,0,0,643.44,7.2H641a16.63,16.63,0,0,0-16.61,16.61h-7A23.63,23.63,0,0,1,641,.2h2.46a23.63,23.63,0,0,1,23.61,23.61v34a16.62,16.62,0,0,0,33.23,0h7A23.63,23.63,0,0,1,683.67,81.38Z"/></g></g></svg>