<svg xmlns="http://www.w3.org/2000/svg" xmlns:xlink="http://www.w3.org/1999/xlink" viewBox="0 0 1726.37 840.71"><defs><style>.cls-1{fill:none;}.cls-2{fill:#abcf37;}.cls-3{fill:#262c6c;}.cls-4{fill:#fff;}.cls-5{clip-path:url(#clip-path);}.cls-6{clip-path:url(#clip-path-2);}.cls-7{fill:#001a73;}</style><clipPath id="clip-path"><rect class="cls-1" x="1067.69" y="259.98" width="628.69" height="580.74"/></clipPath><clipPath id="clip-path-2"><rect class="cls-1" x="43.27" width="617.65" height="570.54"/></clipPath></defs><g id="Layer_2" data-name="Layer 2"><g id="Layer_1-2" data-name="Layer 1"><rect class="cls-2" x="43.27" width="617.65" height="570.54"/><rect x="1067.69" y="259.98" width="628.69" height="580.74"/><path class="cls-2" d="M1301.88,80v33.8a37.5,37.5,0,0,1-55.42,32.94l5.48-5.5a30.13,30.13,0,0,0,42.57-27.44V83.66h-30.12A30.17,30.17,0,0,0,1237,126.28l-5.49,5.5a37.52,37.52,0,0,1,32.91-55.49h33.81A3.69,3.69,0,0,1,1301.88,80Z"/><polygon class="cls-3" points="1262.21 121.2 1278.09 121.2 1278.09 128.57 1254.84 128.57 1253.27 130.15 1235.3 148.13 1224.97 158.44 1219.76 153.22 1230.09 142.91 1248.05 124.93 1249.63 123.36 1249.63 100.11 1257 100.11 1257 115.99 1272.92 100.06 1278.13 105.28 1262.21 121.2"/><path class="cls-2" d="M491.14,485.89v33.8a37.5,37.5,0,0,1-55.42,32.94l5.49-5.5a30.12,30.12,0,0,0,42.56-27.44V489.57H453.65a30.15,30.15,0,0,0-27.41,42.62l-5.5,5.5a37.54,37.54,0,0,1,32.91-55.49h33.82A3.68,3.68,0,0,1,491.14,485.89Z"/><polygon class="cls-3" points="451.48 527.11 467.35 527.11 467.35 534.48 444.1 534.48 442.53 536.05 424.56 554.03 414.24 564.35 409.02 559.13 419.35 548.82 437.31 530.84 438.89 529.26 438.89 506.01 446.26 506.01 446.26 521.89 462.18 505.97 467.4 511.18 451.48 527.11"/><path class="cls-2" d="M1302.38,692v33.8A37.5,37.5,0,0,1,1247,758.7l5.48-5.5A30.13,30.13,0,0,0,1295,725.76V695.64h-30.12a30.17,30.17,0,0,0-27.42,42.62l-5.49,5.5a37.52,37.52,0,0,1,32.91-55.49h33.81A3.69,3.69,0,0,1,1302.38,692Z"/><polygon class="cls-3" points="1262.71 733.18 1278.59 733.18 1278.59 740.55 1255.34 740.55 1253.77 742.13 1235.8 760.11 1225.47 770.42 1220.26 765.21 1230.59 754.89 1248.55 736.91 1250.13 735.34 1250.13 712.09 1257.5 712.09 1257.5 727.97 1273.42 712.04 1278.63 717.26 1262.71 733.18"/><path class="cls-2" d="M676.92,358.43H629.8l-23.55-40.8,23.55-40.81h47.12l23.56,40.81Zm-43.07-7h39l19.52-33.8-19.52-33.81h-39l-19.52,33.81Z"/><path class="cls-3" d="M653.36,338a20.41,20.41,0,1,1,20.41-20.4A20.42,20.42,0,0,1,653.36,338Zm0-33.81a13.41,13.41,0,1,0,13.41,13.41A13.42,13.42,0,0,0,653.36,304.22Z"/><path class="cls-2" d="M1694,564.07h-47.12l-23.56-40.8,23.56-40.8H1694l23.56,40.8Zm-43.08-7h39l19.51-33.8-19.51-33.8h-39l-19.51,33.8Z"/><path class="cls-3" d="M1670.42,543.67a20.4,20.4,0,1,1,20.4-20.4A20.42,20.42,0,0,1,1670.42,543.67Zm0-33.8a13.4,13.4,0,1,0,13.4,13.4A13.41,13.41,0,0,0,1670.42,509.87Z"/><path class="cls-2" d="M266.09,770.15H219l-23.56-40.81L219,688.54h47.11l23.56,40.8Zm-43.07-7h39l19.52-33.81-19.52-33.8H223l-19.52,33.8Z"/><path class="cls-3" d="M242.54,749.75a20.41,20.41,0,1,1,20.4-20.41A20.44,20.44,0,0,1,242.54,749.75Zm0-33.81a13.41,13.41,0,1,0,13.4,13.4A13.42,13.42,0,0,0,242.54,715.94Z"/><path class="cls-3" d="M1057.52,118.7a20.94,20.94,0,1,1,20.94-20.94A21,21,0,0,1,1057.52,118.7Zm0-34.88a13.94,13.94,0,1,0,13.94,13.94A14,14,0,0,0,1057.52,83.82Z"/><path class="cls-2" d="M1096.64,157.91h-7a32.12,32.12,0,0,0-64.24,0h-7a39.12,39.12,0,0,1,78.24,0Z"/><path class="cls-3" d="M1057.52,730.68a20.94,20.94,0,1,1,20.94-20.94A21,21,0,0,1,1057.52,730.68Zm0-34.88a13.94,13.94,0,1,0,13.94,13.94A14,14,0,0,0,1057.52,695.8Z"/><path class="cls-2" d="M1096.64,769.89h-7a32.12,32.12,0,0,0-64.24,0h-7a39.12,39.12,0,0,1,78.24,0Z"/><path class="cls-3" d="M242.54,524.6a20.94,20.94,0,1,1,20.93-20.93A21,21,0,0,1,242.54,524.6Zm0-34.87a13.94,13.94,0,1,0,13.93,13.94A14,14,0,0,0,242.54,489.73Z"/><path class="cls-2" d="M281.66,563.81h-7a32.13,32.13,0,0,0-64.25,0h-7a39.13,39.13,0,0,1,78.25,0Z"/><path class="cls-2" d="M273.05,358.39H217.9v-7h55.15a6.33,6.33,0,0,0,0-12.66H255.57a13.35,13.35,0,0,1-13.33-13.33v-2.19a13.35,13.35,0,0,1,13.33-13.33h14.69v7H255.57a6.34,6.34,0,0,0-6.33,6.33v2.19a6.34,6.34,0,0,0,6.33,6.33h17.48a13.33,13.33,0,0,1,0,26.66Z"/><path class="cls-3" d="M218.64,358.31a3.48,3.48,0,0,1-3-1.77l-14.27-25.11a20.09,20.09,0,0,1-.15-19.63,19.32,19.32,0,0,1,15.9-10.18,22,22,0,0,1,3.8.12,19.2,19.2,0,0,1,15,10.47,20.18,20.18,0,0,1-.23,19L221.71,356.5a3.49,3.49,0,0,1-3,1.81Zm-.31-49.72-.84,0a12.19,12.19,0,0,0-10.16,6.53,13.11,13.11,0,0,0,.09,12.83l11.17,19.67,10.89-19.85h0a13.15,13.15,0,0,0,.15-12.37,12.28,12.28,0,0,0-9.58-6.73A14.06,14.06,0,0,0,218.33,308.59Z"/><path class="cls-3" d="M271.31,317a3.49,3.49,0,0,1-3-1.78l-9.5-16.71a14.53,14.53,0,0,1-.11-14.2,14.06,14.06,0,0,1,11.55-7.38,15.65,15.65,0,0,1,2.73.09,14.09,14.09,0,0,1,10.86,7.59,14.57,14.57,0,0,1-.17,13.71h0l-9.25,16.86a3.51,3.51,0,0,1-3,1.82Zm-.2-33.09h-.5a7,7,0,0,0-5.8,3.74,7.58,7.58,0,0,0,.05,7.4l6.4,11.26,6.24-11.37h0a7.59,7.59,0,0,0,.08-7.13,7,7,0,0,0-5.47-3.85A8.39,8.39,0,0,0,271.11,283.87Z"/><path class="cls-2" d="M1291.34,564h-55.15v-7h55.15a6.33,6.33,0,1,0,0-12.66h-17.48A13.35,13.35,0,0,1,1260.53,531v-2.18a13.35,13.35,0,0,1,13.33-13.33h14.68v7h-14.68a6.34,6.34,0,0,0-6.33,6.33V531a6.34,6.34,0,0,0,6.33,6.33h17.48a13.33,13.33,0,1,1,0,26.66Z"/><path class="cls-3" d="M1236.93,564a3.53,3.53,0,0,1-3-1.77l-14.26-25.12a20.06,20.06,0,0,1-.16-19.63,19.33,19.33,0,0,1,15.91-10.17,20.89,20.89,0,0,1,3.79.11,19.19,19.19,0,0,1,15,10.48,20.13,20.13,0,0,1-.24,18.94L1240,562.14a3.52,3.52,0,0,1-3,1.82Zm-.31-49.73c-.28,0-.57,0-.85,0a12.2,12.2,0,0,0-10.16,6.53,13.12,13.12,0,0,0,.09,12.82l11.17,19.67,10.9-19.85h0a13.15,13.15,0,0,0,.14-12.37,12.27,12.27,0,0,0-9.58-6.73A13.89,13.89,0,0,0,1236.62,514.23Z"/><path class="cls-3" d="M1289.6,522.6a3.53,3.53,0,0,1-3-1.77l-9.49-16.71a14.51,14.51,0,0,1-.11-14.2,14,14,0,0,1,11.54-7.38,14.66,14.66,0,0,1,2.73.08,14.11,14.11,0,0,1,10.87,7.6,14.58,14.58,0,0,1-.17,13.7h0l-9.26,16.86a3.48,3.48,0,0,1-3,1.82Zm-.21-33.09-.49,0a6.94,6.94,0,0,0-5.8,3.73,7.56,7.56,0,0,0,0,7.4l6.4,11.26,6.24-11.37h0a7.57,7.57,0,0,0,.08-7.13,7,7,0,0,0-5.47-3.85A8.26,8.26,0,0,0,1289.39,489.51Z"/><path class="cls-2" d="M480.6,770.1H425.45v-7H480.6a6.33,6.33,0,0,0,0-12.66H463.12a13.35,13.35,0,0,1-13.33-13.33v-2.18a13.35,13.35,0,0,1,13.33-13.33H477.8v7H463.12a6.34,6.34,0,0,0-6.33,6.33v2.18a6.34,6.34,0,0,0,6.33,6.33H480.6a13.33,13.33,0,1,1,0,26.66Z"/><path class="cls-3" d="M426.19,770a3.5,3.5,0,0,1-3-1.77l-14.27-25.12a20.07,20.07,0,0,1-.16-19.62,19.33,19.33,0,0,1,15.91-10.18,21.83,21.83,0,0,1,3.79.11,19.21,19.21,0,0,1,15,10.48,20.16,20.16,0,0,1-.23,18.94l-13.91,25.34a3.49,3.49,0,0,1-3,1.82Zm-.31-49.73q-.42,0-.84,0a12.2,12.2,0,0,0-10.17,6.53,13.14,13.14,0,0,0,.09,12.83l11.18,19.66L437,739.51h0a13.17,13.17,0,0,0,.14-12.38,12.3,12.3,0,0,0-9.57-6.73A16.37,16.37,0,0,0,425.88,720.3Z"/><path class="cls-3" d="M478.86,728.67a3.48,3.48,0,0,1-3-1.77l-9.5-16.71a14.51,14.51,0,0,1-.11-14.2,14,14,0,0,1,11.54-7.38,15.58,15.58,0,0,1,2.73.08,14.09,14.09,0,0,1,10.87,7.6,14.58,14.58,0,0,1-.17,13.7h0l-9.25,16.86a3.5,3.5,0,0,1-3.05,1.82Zm-.21-33.09-.49,0a7,7,0,0,0-5.8,3.73,7.56,7.56,0,0,0,.05,7.4l6.4,11.26L485,706.63h0a7.59,7.59,0,0,0,.09-7.14,7,7,0,0,0-5.47-3.85A8.43,8.43,0,0,0,478.65,695.58Z"/><path class="cls-2" d="M72.21,157.09H9.44a3.69,3.69,0,0,1-3.68-3.69V81.32a3.68,3.68,0,0,1,3.68-3.68H72.21a3.69,3.69,0,0,1,3.69,3.68V153.4A3.69,3.69,0,0,1,72.21,157.09Zm-59.08-7.37h55.4V85H13.13Z"/><polygon class="cls-3" points="46.54 100.67 46.54 108.04 38.06 108.04 38.06 116.52 30.69 116.52 30.69 108.04 22.21 108.04 22.21 100.67 30.69 100.67 30.69 92.19 38.06 92.19 38.06 100.67 46.54 100.67"/><rect class="cls-3" x="43.48" y="133.64" width="16.63" height="7.37"/><path class="cls-2" d="M885.53,769.07H822.77a3.69,3.69,0,0,1-3.69-3.69V693.3a3.69,3.69,0,0,1,3.69-3.68h62.76a3.69,3.69,0,0,1,3.69,3.68v72.08A3.69,3.69,0,0,1,885.53,769.07Zm-59.08-7.37h55.4V697h-55.4Z"/><polygon class="cls-3" points="859.87 712.65 859.87 720.02 851.39 720.02 851.39 728.5 844.02 728.5 844.02 720.02 835.54 720.02 835.54 712.65 844.02 712.65 844.02 704.17 851.39 704.17 851.39 712.65 859.87 712.65"/><rect class="cls-3" x="856.8" y="745.62" width="16.63" height="7.37"/><path class="cls-2" d="M1088.9,357.35h-62.76a3.69,3.69,0,0,1-3.69-3.68V281.59a3.69,3.69,0,0,1,3.69-3.69h62.76a3.69,3.69,0,0,1,3.69,3.69v72.08A3.69,3.69,0,0,1,1088.9,357.35ZM1029.82,350h55.4V285.27h-55.4Z"/><polygon class="cls-3" points="1063.24 300.94 1063.24 308.31 1054.76 308.31 1054.76 316.79 1047.38 316.79 1047.38 308.31 1038.91 308.31 1038.91 300.94 1047.38 300.94 1047.38 292.46 1054.76 292.46 1054.76 300.94 1063.24 300.94"/><rect class="cls-3" x="1060.17" y="333.9" width="16.63" height="7.37"/><path class="cls-3" d="M1494.84,105.68h-7a23.83,23.83,0,0,0-47.66,0h-7a30.83,30.83,0,0,1,61.66,0Z"/><path class="cls-2" d="M1502.58,159.88h-77.14V104.74h77.14Zm-70.14-7h63.14V111.74h-63.14Z"/><rect class="cls-3" x="1460.51" y="123" width="7" height="14.44"/><path class="cls-3" d="M684.19,511.59h-7a23.83,23.83,0,1,0-47.66,0h-7a30.83,30.83,0,1,1,61.66,0Z"/><path class="cls-2" d="M691.93,565.79H614.79V510.65h77.14Zm-70.14-7h63.14V517.65H621.79Z"/><rect class="cls-3" x="649.86" y="528.91" width="7" height="14.44"/><path class="cls-2" d="M847.66,141.36a32.23,32.23,0,1,1,32.22-32.23A32.27,32.27,0,0,1,847.66,141.36Zm0-57.45a25.23,25.23,0,1,0,25.22,25.22A25.25,25.25,0,0,0,847.66,83.91Z"/><rect class="cls-3" x="880.76" y="132.14" width="7" height="27.18" transform="translate(155.95 667.95) rotate(-45)"/><path class="cls-2" d="M32.6,547.27A32.23,32.23,0,1,1,64.82,515,32.27,32.27,0,0,1,32.6,547.27Zm0-57.45A25.23,25.23,0,1,0,57.82,515,25.25,25.25,0,0,0,32.6,489.82Z"/><rect class="cls-3" x="65.7" y="538.05" width="7" height="27.18" transform="translate(-369.8 210.5) rotate(-45)"/><path class="cls-2" d="M878.87,360h-46a7.51,7.51,0,0,1-7.5-7.5V282.75a7.52,7.52,0,0,1,7.5-7.5h46a7.51,7.51,0,0,1,7.5,7.5V352.5A7.5,7.5,0,0,1,878.87,360Zm-46-77.75a.5.5,0,0,0-.5.5V352.5a.5.5,0,0,0,.5.5h46a.5.5,0,0,0,.5-.5V282.75a.5.5,0,0,0-.5-.5Z"/><rect class="cls-3" x="852.1" y="341.23" width="7.57" height="7"/><path class="cls-2" d="M63.81,771.72h-46a7.51,7.51,0,0,1-7.5-7.5V694.47a7.51,7.51,0,0,1,7.5-7.5h46a7.5,7.5,0,0,1,7.5,7.5v69.75A7.5,7.5,0,0,1,63.81,771.72ZM17.84,694a.5.5,0,0,0-.5.5v69.75a.5.5,0,0,0,.5.5h46a.5.5,0,0,0,.5-.5V694.47a.5.5,0,0,0-.5-.5Z"/><rect class="cls-3" x="37.04" y="752.94" width="7.57" height="7"/><path class="cls-2" d="M1693.4,771.72h-46a7.5,7.5,0,0,1-7.5-7.5V694.47a7.5,7.5,0,0,1,7.5-7.5h46a7.5,7.5,0,0,1,7.5,7.5v69.75A7.5,7.5,0,0,1,1693.4,771.72Zm-46-77.75a.5.5,0,0,0-.5.5v69.75a.5.5,0,0,0,.5.5h46a.5.5,0,0,0,.5-.5V694.47a.5.5,0,0,0-.5-.5Z"/><rect class="cls-3" x="1666.63" y="752.94" width="7.57" height="7"/><path class="cls-2" d="M450.08,157.86a40.5,40.5,0,1,1,40.5-40.5A40.55,40.55,0,0,1,450.08,157.86Zm0-73.62a33.13,33.13,0,1,0,33.12,33.12A33.16,33.16,0,0,0,450.08,84.24Z"/><rect class="cls-3" x="446.4" y="93.73" width="7.37" height="13.52"/><rect class="cls-3" x="456.81" y="125.77" width="7.37" height="13.52" transform="translate(10.05 295.99) rotate(-36)"/><rect class="cls-3" x="429.56" y="105.97" width="7.37" height="13.52" transform="translate(192.15 489.93) rotate(-72)"/><rect class="cls-3" x="460.17" y="109.04" width="13.52" height="7.37" transform="translate(-11.98 149.79) rotate(-18)"/><rect class="cls-3" x="432.92" y="128.84" width="13.52" height="7.37" transform="translate(74.03 410.34) rotate(-54)"/><path class="cls-2" d="M1464,358.12a40.5,40.5,0,1,1,40.49-40.49A40.53,40.53,0,0,1,1464,358.12Zm0-73.61a33.12,33.12,0,1,0,33.12,33.12A33.15,33.15,0,0,0,1464,284.51Z"/><rect class="cls-3" x="1460.32" y="294" width="7.37" height="13.52"/><rect class="cls-3" x="1470.73" y="326.03" width="7.37" height="13.52" transform="translate(85.99 930.22) rotate(-36)"/><rect class="cls-3" x="1443.48" y="306.23" width="7.37" height="13.52" transform="translate(702.29 1592.61) rotate(-72)"/><rect class="cls-3" x="1474.09" y="309.31" width="13.52" height="7.37" transform="translate(-24.25 472.89) rotate(-18)"/><rect class="cls-3" x="1446.84" y="329.11" width="13.52" height="7.37" transform="translate(329.98 1313.19) rotate(-54)"/><path class="cls-2" d="M40.83,358.45a40.83,40.83,0,1,1,40.82-40.82A40.87,40.87,0,0,1,40.83,358.45Zm0-74.65a33.83,33.83,0,1,0,33.82,33.83A33.87,33.87,0,0,0,40.83,283.8Z"/><polygon class="cls-3" points="35.79 336.08 19.14 319.44 24.09 314.49 35.79 326.19 58.86 303.11 63.81 308.06 35.79 336.08"/><path class="cls-2" d="M1057.52,564.1a40.83,40.83,0,1,1,40.83-40.83A40.88,40.88,0,0,1,1057.52,564.1Zm0-74.66a33.83,33.83,0,1,0,33.83,33.83A33.87,33.87,0,0,0,1057.52,489.44Z"/><polygon class="cls-3" points="1052.48 541.73 1035.84 525.08 1040.79 520.13 1052.48 531.83 1075.56 508.75 1080.51 513.7 1052.48 541.73"/><path class="cls-2" d="M653.36,770.17a40.83,40.83,0,1,1,40.83-40.83A40.87,40.87,0,0,1,653.36,770.17Zm0-74.65a33.83,33.83,0,1,0,33.83,33.82A33.86,33.86,0,0,0,653.36,695.52Z"/><polygon class="cls-3" points="648.32 747.8 631.68 731.16 636.63 726.21 648.32 737.9 671.4 714.83 676.35 719.77 648.32 747.8"/><polygon class="cls-3" points="1695.91 114.3 1688.91 114.3 1688.91 97.66 1672.28 97.66 1672.28 90.66 1695.91 90.66 1695.91 114.3"/><polygon class="cls-3" points="1709.03 102.12 1702.03 102.12 1702.03 85.48 1685.39 85.48 1685.39 78.48 1709.03 78.48 1709.03 102.12"/><path class="cls-2" d="M1682.72,157.65a52.18,52.18,0,0,1-52.13-52.13V99.31a22.27,22.27,0,0,1,22.24-22.24h7.85a3.5,3.5,0,0,1,3.5,3.5v24.71a3.5,3.5,0,0,1-3.5,3.5h-4.31a26.54,26.54,0,0,0,23.11,23.1v-4.32a3.5,3.5,0,0,1,3.5-3.5h23.77a3.5,3.5,0,0,1,3.5,3.5v7.86A22.26,22.26,0,0,1,1688,157.65Zm-29.89-73.58a15.26,15.26,0,0,0-15.24,15.24v6.21a45.17,45.17,0,0,0,45.13,45.13H1688a15.25,15.25,0,0,0,15.24-15.23v-4.36h-16.77v4.51a3.52,3.52,0,0,1-3.48,3.51,33.57,33.57,0,0,1-33.83-33.82,3.49,3.49,0,0,1,.94-2.35,1.62,1.62,0,0,1,.18-.19,3.52,3.52,0,0,1,2.38-.94h4.51V84.07Z"/><polygon class="cls-3" points="881.38 520.21 874.38 520.21 874.38 503.57 857.74 503.57 857.74 496.57 881.38 496.57 881.38 520.21"/><polygon class="cls-3" points="894.49 508.03 887.49 508.03 887.49 491.39 870.86 491.39 870.86 484.39 894.49 484.39 894.49 508.03"/><path class="cls-2" d="M868.19,563.56a52.19,52.19,0,0,1-52.14-52.13v-6.22A22.27,22.27,0,0,1,838.29,483h7.85a3.5,3.5,0,0,1,3.5,3.5v24.71a3.5,3.5,0,0,1-3.5,3.5h-4.31a26.59,26.59,0,0,0,23.11,23.1v-4.32a3.5,3.5,0,0,1,3.5-3.5h23.78a3.5,3.5,0,0,1,3.5,3.5v7.85a22.27,22.27,0,0,1-22.24,22.24ZM838.29,490a15.26,15.26,0,0,0-15.24,15.24v6.21a45.18,45.18,0,0,0,45.14,45.13h5.29a15.26,15.26,0,0,0,15.24-15.24V537H871.94v4.51a3.5,3.5,0,0,1-3.47,3.5,33.53,33.53,0,0,1-33.83-33.81,3.52,3.52,0,0,1,.93-2.36l.19-.18a3.52,3.52,0,0,1,2.38-.94h4.5V490Z"/><path class="cls-2" d="M269.22,77.56H240.29a42.29,42.29,0,0,0-42.24,42.24v13a7.38,7.38,0,0,1,.82,0,8.85,8.85,0,0,1,6.18,2.5V119.8a35.28,35.28,0,0,1,35.24-35.24h28.93a25.59,25.59,0,0,1,25.56,25.56v29.06a8.72,8.72,0,0,1,.35,2.47,8.9,8.9,0,0,1-1.8,5.37h4.95a3.5,3.5,0,0,0,3.5-3.5v-33.4A32.6,32.6,0,0,0,269.22,77.56ZM277.43,140H207.64a8.75,8.75,0,0,1,.15,1.63A8.9,8.9,0,0,1,206,147h73.08a9,9,0,0,1-1.79-5.37A8.75,8.75,0,0,1,277.43,140Z"/><path class="cls-4" d="M211.18,140a12.42,12.42,0,0,0-12.31-10.8c-.28,0-.55,0-.82,0a12.42,12.42,0,1,0,12,17.77,12.21,12.21,0,0,0,1.23-5.37A12.51,12.51,0,0,0,211.18,140Zm-12.31,10.55a8.92,8.92,0,0,1-.82-17.81,7.38,7.38,0,0,1,.82,0,8.95,8.95,0,0,1,8.77,7.3,8.75,8.75,0,0,1,.15,1.63,8.92,8.92,0,0,1-8.92,8.92Z"/><path class="cls-3" d="M214.71,140a16,16,0,0,0-9.66-13,15.73,15.73,0,0,0-6.18-1.26l-.82,0A15.93,15.93,0,1,0,213.85,147a15.71,15.71,0,0,0,.94-5.37C214.79,141.1,214.76,140.56,214.71,140Zm-6.92,1.63a8.93,8.93,0,1,1-9.74-8.89,7.38,7.38,0,0,1,.82,0,8.95,8.95,0,0,1,8.77,7.3A8.75,8.75,0,0,1,207.79,141.65Z"/><path class="cls-4" d="M294.78,132.66A12.42,12.42,0,0,0,273.89,140a12.51,12.51,0,0,0-.11,1.63A12.21,12.21,0,0,0,275,147a12.41,12.41,0,0,0,22.39,0,12.21,12.21,0,0,0,1.23-5.37A12.4,12.4,0,0,0,294.78,132.66Zm-8.58,17.91a8.91,8.91,0,0,1-8.92-8.92,8.75,8.75,0,0,1,.15-1.63,8.92,8.92,0,0,1,17.35-.84,8.72,8.72,0,0,1,.35,2.47,8.92,8.92,0,0,1-8.93,8.92Z"/><path class="cls-3" d="M301.78,138.31a16,16,0,0,0-7-10.07A15.91,15.91,0,0,0,270.36,140c-.05.54-.08,1.08-.08,1.63a15.71,15.71,0,0,0,.94,5.37,15.92,15.92,0,0,0,30.56-8.71ZM293.33,147a8.92,8.92,0,0,1-16.05-5.37,8.75,8.75,0,0,1,.15-1.63,8.92,8.92,0,0,1,17.35-.84,8.72,8.72,0,0,1,.35,2.47A8.9,8.9,0,0,1,293.33,147Z"/><rect class="cls-2" x="245.21" y="91.03" width="7" height="42.13"/><path class="cls-2" d="M1490.7,689.34h-28.94a42.29,42.29,0,0,0-42.24,42.24v13a7.38,7.38,0,0,1,.82,0,8.91,8.91,0,0,1,6.18,2.49V731.58a35.28,35.28,0,0,1,35.24-35.24h28.94a25.58,25.58,0,0,1,25.55,25.56V751a8.72,8.72,0,0,1,.35,2.47,9,9,0,0,1-1.79,5.37h4.94a3.5,3.5,0,0,0,3.5-3.5V721.9A32.59,32.59,0,0,0,1490.7,689.34Zm8.2,62.46h-69.79a8.75,8.75,0,0,1,.15,1.63,9,9,0,0,1-1.79,5.37h73.08a8.9,8.9,0,0,1-1.8-5.37A8.75,8.75,0,0,1,1498.9,751.8Z"/><path class="cls-4" d="M1432.65,751.8a12.42,12.42,0,0,0-12.31-10.8c-.28,0-.55,0-.82,0a12.42,12.42,0,1,0,12,17.77,12.21,12.21,0,0,0,1.23-5.37A12.51,12.51,0,0,0,1432.65,751.8Zm-12.31,10.55a8.92,8.92,0,0,1-.82-17.81,7.38,7.38,0,0,1,.82,0,8.92,8.92,0,0,1,8.77,7.3,8.75,8.75,0,0,1,.15,1.63,8.91,8.91,0,0,1-8.92,8.92Z"/><path class="cls-3" d="M1436.18,751.8a16,16,0,0,0-9.66-13,15.73,15.73,0,0,0-6.18-1.26l-.82,0a15.93,15.93,0,1,0,15.8,21.28,15.71,15.71,0,0,0,.94-5.37C1436.26,752.88,1436.23,752.34,1436.18,751.8Zm-6.92,1.63a8.92,8.92,0,1,1-9.74-8.89,7.38,7.38,0,0,1,.82,0,8.92,8.92,0,0,1,8.77,7.3A8.75,8.75,0,0,1,1429.26,753.43Z"/><path class="cls-4" d="M1516.25,744.44a12.42,12.42,0,0,0-20.89,7.36,12.51,12.51,0,0,0-.11,1.63,12.21,12.21,0,0,0,1.23,5.37,12.41,12.41,0,0,0,22.39,0,12.21,12.21,0,0,0,1.23-5.37A12.38,12.38,0,0,0,1516.25,744.44Zm-8.57,17.91a8.92,8.92,0,0,1-8.93-8.92,8.75,8.75,0,0,1,.15-1.63,8.92,8.92,0,0,1,17.35-.84,8.72,8.72,0,0,1,.35,2.47,8.91,8.91,0,0,1-8.92,8.92Z"/><path class="cls-3" d="M1523.25,750.09a15.94,15.94,0,0,0-7-10.07,15.7,15.7,0,0,0-8.57-2.52,16,16,0,0,0-15.85,14.3c0,.54-.08,1.08-.08,1.63a15.71,15.71,0,0,0,.94,5.37,15.92,15.92,0,0,0,30.56-8.71Zm-8.44,8.71a8.93,8.93,0,0,1-16.06-5.37,8.75,8.75,0,0,1,.15-1.63,8.92,8.92,0,0,1,17.35-.84,8.72,8.72,0,0,1,.35,2.47A9,9,0,0,1,1514.81,758.8Z"/><rect class="cls-2" x="1466.68" y="702.81" width="7" height="42.13"/><path class="cls-2" d="M1287.51,277.63h-28.93a42.27,42.27,0,0,0-42.24,42.23v13a7.32,7.32,0,0,1,.81,0,8.89,8.89,0,0,1,6.19,2.5V319.86a35.27,35.27,0,0,1,35.24-35.23h28.93a25.58,25.58,0,0,1,25.55,25.55v29.06a8.72,8.72,0,0,1,.35,2.47,8.85,8.85,0,0,1-1.81,5.38h5a3.5,3.5,0,0,0,3.5-3.5V310.18A32.58,32.58,0,0,0,1287.51,277.63Zm8.2,62.46h-69.78a8.72,8.72,0,0,1,.15,1.62,8.85,8.85,0,0,1-1.81,5.38h73.1a8.85,8.85,0,0,1-1.81-5.38A8.72,8.72,0,0,1,1295.71,340.09Z"/><path class="cls-4" d="M1229.47,340.09a12.42,12.42,0,0,0-12.32-10.8l-.81,0a12.42,12.42,0,1,0,12,17.77,12.29,12.29,0,0,0,1.12-7Zm-12.32,10.55a8.92,8.92,0,0,1-.81-17.81,7.32,7.32,0,0,1,.81,0,8.95,8.95,0,0,1,8.78,7.3,8.72,8.72,0,0,1,.15,1.62,8.94,8.94,0,0,1-8.93,8.93Z"/><path class="cls-3" d="M1233,340.09a15.93,15.93,0,0,0-15.85-14.3l-.81,0a15.93,15.93,0,1,0,15.8,21.28,15.72,15.72,0,0,0,.94-5.38C1233.08,341.16,1233.05,340.63,1233,340.09Zm-6.92,1.62a8.93,8.93,0,1,1-9.74-8.88,7.32,7.32,0,0,1,.81,0,8.95,8.95,0,0,1,8.78,7.3A8.72,8.72,0,0,1,1226.08,341.71Z"/><path class="cls-4" d="M1313.06,332.73a12.39,12.39,0,1,0,3.85,9A12.34,12.34,0,0,0,1313.06,332.73Zm-8.57,17.91a8.94,8.94,0,0,1-8.93-8.93,8.72,8.72,0,0,1,.15-1.62,8.92,8.92,0,0,1,17.35-.85,8.72,8.72,0,0,1,.35,2.47,8.94,8.94,0,0,1-8.92,8.93Z"/><path class="cls-3" d="M1320.06,338.38a15.92,15.92,0,0,0-7-10.07,15.7,15.7,0,0,0-8.57-2.52,16,16,0,0,0-15.85,14.3c-.05.54-.08,1.07-.08,1.62a15.72,15.72,0,0,0,.94,5.38,15.92,15.92,0,0,0,30.56-8.71Zm-8.46,8.71a8.93,8.93,0,0,1-16-5.38,8.72,8.72,0,0,1,.15-1.62,8.92,8.92,0,0,1,17.35-.85,8.72,8.72,0,0,1,.35,2.47A8.85,8.85,0,0,1,1311.6,347.09Z"/><rect class="cls-2" x="1263.5" y="291.1" width="7" height="42.13"/><path class="cls-2" d="M449.17,328.61H424.32a3.73,3.73,0,0,1-3.09-5.81L453.39,275l6.18,4.16-28.25,42h17.85Z"/><path class="cls-3" d="M446.78,360.22l-6.18-4.16,28.25-42H451v-7.45h24.86a3.74,3.74,0,0,1,3.09,5.81Z"/><path class="cls-2" d="M1463.1,534.25h-24.85a3.73,3.73,0,0,1-3.09-5.81l32.15-47.77,6.18,4.17-28.25,42h17.86Z"/><path class="cls-3" d="M1460.7,565.87l-6.18-4.16,28.25-42h-17.85v-7.45h24.85a3.73,3.73,0,0,1,3.09,5.81Z"/><path class="cls-2" d="M673.83,158a23.64,23.64,0,0,1-23.61-23.62V100.39A16.63,16.63,0,0,0,633.6,83.77h-2.45a16.63,16.63,0,0,0-16.61,16.62v15.66h-7V100.39a23.64,23.64,0,0,1,23.61-23.62h2.45a23.64,23.64,0,0,1,23.62,23.62v34a16.62,16.62,0,1,0,33.23,0V116.05h7v18.29A23.65,23.65,0,0,1,673.83,158Z"/><rect class="cls-3" x="597.41" y="112.99" width="111.9" height="7"/><path class="cls-2" d="M673.83,158a23.64,23.64,0,0,1-23.61-23.62V100.39A16.63,16.63,0,0,0,633.6,83.77h-2.45a16.63,16.63,0,0,0-16.61,16.62h-7a23.64,23.64,0,0,1,23.61-23.62h2.45a23.64,23.64,0,0,1,23.62,23.62v34a16.62,16.62,0,1,0,33.23,0h7A23.65,23.65,0,0,1,673.83,158Z"/><path class="cls-2" d="M1690.89,358.22a23.63,23.63,0,0,1-23.61-23.61v-34A16.64,16.64,0,0,0,1650.66,284h-2.45a16.64,16.64,0,0,0-16.62,16.61v15.67h-7V300.65A23.64,23.64,0,0,1,1648.21,277h2.45a23.64,23.64,0,0,1,23.62,23.61v34a16.62,16.62,0,0,0,33.23,0V316.32h7v18.29A23.64,23.64,0,0,1,1690.89,358.22Z"/><rect class="cls-3" x="1614.47" y="313.26" width="111.9" height="7"/><path class="cls-2" d="M1690.89,358.22a23.63,23.63,0,0,1-23.61-23.61v-34A16.64,16.64,0,0,0,1650.66,284h-2.45a16.64,16.64,0,0,0-16.62,16.61h-7A23.64,23.64,0,0,1,1648.21,277h2.45a23.64,23.64,0,0,1,23.62,23.61v34a16.62,16.62,0,0,0,33.23,0h7A23.64,23.64,0,0,1,1690.89,358.22Z"/><g class="cls-5"><path class="cls-2" d="M1302.38,692v33.8A37.5,37.5,0,0,1,1247,758.73l5.48-5.5A30.13,30.13,0,0,0,1295,725.79V695.67h-30.12a30.17,30.17,0,0,0-27.42,42.62l-5.49,5.5a37.52,37.52,0,0,1,32.91-55.49h33.81A3.69,3.69,0,0,1,1302.38,692Z"/><polygon class="cls-4" points="1262.71 733.21 1278.59 733.21 1278.59 740.58 1255.34 740.58 1253.77 742.15 1235.8 760.13 1225.47 770.45 1220.26 765.23 1230.59 754.92 1248.55 736.94 1250.13 735.37 1250.13 712.12 1257.5 712.12 1257.5 727.99 1273.42 712.07 1278.63 717.28 1262.71 733.21"/><path class="cls-2" d="M1694,482.5h-47.11l-23.56,40.8,23.56,40.81H1694l23.56-40.81Zm-4,74.61h-39l-19.52-33.81,19.52-33.8h39l19.52,33.8Z"/><path class="cls-4" d="M1670.42,502.9a20.41,20.41,0,1,0,20.4,20.4A20.43,20.43,0,0,0,1670.42,502.9Zm0,33.81a13.41,13.41,0,1,1,13.4-13.41A13.43,13.43,0,0,1,1670.42,536.71Z"/><path class="cls-4" d="M1057.52,688.83a20.94,20.94,0,1,0,20.93,20.94A21,21,0,0,0,1057.52,688.83Zm0,34.88a13.94,13.94,0,1,1,13.93-13.94A14,14,0,0,1,1057.52,723.71Z"/><path class="cls-2" d="M1096.64,769.91h-7a32.12,32.12,0,0,0-64.24,0h-7a39.12,39.12,0,0,1,78.24,0Z"/><path class="cls-2" d="M1291.34,564.06h-55.15v-7h55.15a6.33,6.33,0,1,0,0-12.66h-17.48a13.35,13.35,0,0,1-13.33-13.33v-2.19a13.35,13.35,0,0,1,13.33-13.33h14.68v7h-14.68a6.34,6.34,0,0,0-6.33,6.33v2.19a6.34,6.34,0,0,0,6.33,6.33h17.48a13.33,13.33,0,1,1,0,26.66Z"/><path class="cls-4" d="M1254.13,517.89a19.18,19.18,0,0,0-15-10.48,21.83,21.83,0,0,0-3.79-.11,19.3,19.3,0,0,0-15.91,10.18,20.09,20.09,0,0,0,.15,19.63l14.27,25.11a3.52,3.52,0,0,0,3,1.77h0a3.48,3.48,0,0,0,3-1.82l2.81-5.11,11.1-20.22A20.15,20.15,0,0,0,1254.13,517.89Zm-6.37,15.58-10.89,19.84-11.17-19.66a13.11,13.11,0,0,1-.09-12.83,12.19,12.19,0,0,1,10.16-6.53c.28,0,.56,0,.85,0a16.18,16.18,0,0,1,1.71.1,12.33,12.33,0,0,1,9.58,6.73,13.29,13.29,0,0,1,1.47,6.07A13.11,13.11,0,0,1,1247.76,533.47Z"/><path class="cls-4" d="M1302.08,490.25a14.1,14.1,0,0,0-10.86-7.6,16.64,16.64,0,0,0-2.73-.08,14,14,0,0,0-11.55,7.38,14.56,14.56,0,0,0,.11,14.2l6.49,11.41,3,5.3a3.43,3.43,0,0,0,2,1.6,3.35,3.35,0,0,0,1,.17h0a3.49,3.49,0,0,0,3-1.81l9.25-16.86A14.57,14.57,0,0,0,1302.08,490.25Zm-6.3,10.34L1289.54,512l-6.4-11.26a7.56,7.56,0,0,1-.05-7.39,6.94,6.94,0,0,1,5.8-3.74l.5,0a8.39,8.39,0,0,1,1,.06,7,7,0,0,1,5.47,3.85,7.61,7.61,0,0,1-.08,7.14Z"/><path class="cls-2" d="M1088.9,277.93h-62.77a3.69,3.69,0,0,0-3.68,3.69V353.7a3.69,3.69,0,0,0,3.68,3.69h62.77a3.69,3.69,0,0,0,3.69-3.69V281.62A3.69,3.69,0,0,0,1088.9,277.93ZM1085.21,350h-55.39V285.31h55.39Z"/><polygon class="cls-4" points="1063.24 300.96 1063.24 308.33 1054.76 308.33 1054.76 316.81 1047.38 316.81 1047.38 308.33 1038.91 308.33 1038.91 300.96 1047.38 300.96 1047.38 292.49 1054.76 292.49 1054.76 300.96 1063.24 300.96"/><rect class="cls-4" x="1060.17" y="333.93" width="16.63" height="7.37"/><path class="cls-2" d="M1693.4,687h-46a7.51,7.51,0,0,0-7.5,7.5v69.75a7.51,7.51,0,0,0,7.5,7.5h46a7.5,7.5,0,0,0,7.5-7.5V694.5A7.5,7.5,0,0,0,1693.4,687Zm.5,77.25a.5.5,0,0,1-.5.5h-46a.5.5,0,0,1-.5-.5V694.5a.5.5,0,0,1,.5-.5h46a.5.5,0,0,1,.5.5Z"/><rect class="cls-4" x="1666.63" y="752.97" width="7.57" height="7"/><path class="cls-2" d="M1464,277.17a40.49,40.49,0,1,0,40.5,40.49A40.54,40.54,0,0,0,1464,277.17Zm0,73.61a33.12,33.12,0,1,1,33.13-33.12A33.16,33.16,0,0,1,1464,350.78Z"/><rect class="cls-4" x="1460.32" y="294.03" width="7.37" height="13.52"/><rect class="cls-4" x="1470.73" y="326.06" width="7.37" height="13.52" transform="translate(85.97 930.23) rotate(-36)"/><rect class="cls-4" x="1443.48" y="306.26" width="7.37" height="13.52" transform="translate(702.27 1592.63) rotate(-72)"/><rect class="cls-4" x="1474.09" y="309.34" width="13.52" height="7.37" transform="translate(-24.26 472.89) rotate(-18)"/><rect class="cls-4" x="1446.84" y="329.13" width="13.52" height="7.37" transform="translate(329.96 1313.2) rotate(-54)"/><path class="cls-2" d="M1057.52,482.48a40.83,40.83,0,1,0,40.82,40.82A40.87,40.87,0,0,0,1057.52,482.48Zm0,74.65a33.83,33.83,0,1,1,33.82-33.83A33.86,33.86,0,0,1,1057.52,557.13Z"/><polygon class="cls-4" points="1052.48 541.76 1035.84 525.11 1040.79 520.16 1052.48 531.86 1075.56 508.78 1080.51 513.73 1052.48 541.76"/><path class="cls-2" d="M1498.75,753.46a8.75,8.75,0,0,1,.15-1.63h-69.79a8.75,8.75,0,0,1,.15,1.63,9,9,0,0,1-1.79,5.37h73.08A8.9,8.9,0,0,1,1498.75,753.46Zm-8.06-64.09h-28.93a42.29,42.29,0,0,0-42.24,42.24v13a7.38,7.38,0,0,1,.82,0,8.91,8.91,0,0,1,6.18,2.49V731.61a35.28,35.28,0,0,1,35.24-35.24h28.93a25.59,25.59,0,0,1,25.56,25.56V751a8.72,8.72,0,0,1,.35,2.47,8.9,8.9,0,0,1-1.8,5.37h5a3.5,3.5,0,0,0,3.5-3.5v-33.4A32.6,32.6,0,0,0,1490.69,689.37Z"/><path class="cls-4" d="M1432.65,751.83a12.42,12.42,0,0,0-12.31-10.8c-.28,0-.55,0-.82,0a12.42,12.42,0,1,0,12,17.77,12.21,12.21,0,0,0,1.23-5.37A12.51,12.51,0,0,0,1432.65,751.83Zm-12.31,10.55a8.92,8.92,0,0,1-.82-17.81,7.38,7.38,0,0,1,.82,0,8.92,8.92,0,0,1,8.77,7.3,8.75,8.75,0,0,1,.15,1.63,8.91,8.91,0,0,1-8.92,8.92Z"/><path class="cls-4" d="M1436.18,751.83a16,16,0,0,0-9.66-13,15.73,15.73,0,0,0-6.18-1.26l-.82,0a15.93,15.93,0,1,0,15.8,21.28,15.71,15.71,0,0,0,.94-5.37C1436.26,752.91,1436.23,752.37,1436.18,751.83Zm-6.92,1.63a8.93,8.93,0,1,1-9.74-8.89,7.38,7.38,0,0,1,.82,0,8.92,8.92,0,0,1,8.77,7.3A8.75,8.75,0,0,1,1429.26,753.46Z"/><path class="cls-4" d="M1516.25,744.47a12.42,12.42,0,0,0-20.89,7.36,12.51,12.51,0,0,0-.11,1.63,12.21,12.21,0,0,0,1.23,5.37,12.41,12.41,0,0,0,22.39,0,12.21,12.21,0,0,0,1.23-5.37A12.38,12.38,0,0,0,1516.25,744.47Zm-8.58,17.91a8.92,8.92,0,0,1-8.92-8.92,8.75,8.75,0,0,1,.15-1.63,8.92,8.92,0,0,1,17.35-.84,8.72,8.72,0,0,1,.35,2.47,8.92,8.92,0,0,1-8.93,8.92Z"/><path class="cls-4" d="M1523.25,750.12a16,16,0,0,0-7-10.07,15.91,15.91,0,0,0-24.42,11.78c0,.54-.08,1.08-.08,1.63a15.71,15.71,0,0,0,.94,5.37,15.92,15.92,0,0,0,30.56-8.71Zm-8.45,8.71a8.93,8.93,0,0,1-16-5.37,8.75,8.75,0,0,1,.15-1.63,8.92,8.92,0,0,1,17.35-.84,8.72,8.72,0,0,1,.35,2.47A8.9,8.9,0,0,1,1514.8,758.83Z"/><rect class="cls-2" x="1466.68" y="702.84" width="7" height="42.13"/><path class="cls-2" d="M1295.56,341.74a8.72,8.72,0,0,1,.15-1.62h-69.79a8.72,8.72,0,0,1,.15,1.62,8.85,8.85,0,0,1-1.81,5.38h73.11A8.85,8.85,0,0,1,1295.56,341.74Zm-8-64.08h-28.94a42.28,42.28,0,0,0-42.24,42.23v13a7.38,7.38,0,0,1,.82,0,8.85,8.85,0,0,1,6.18,2.5V319.89a35.27,35.27,0,0,1,35.24-35.23h28.94a25.58,25.58,0,0,1,25.55,25.55v29.06a8.72,8.72,0,0,1,.35,2.47,8.85,8.85,0,0,1-1.81,5.38h5a3.5,3.5,0,0,0,3.5-3.5V310.21A32.58,32.58,0,0,0,1287.51,277.66Z"/><path class="cls-4" d="M1229.46,340.12a12.42,12.42,0,0,0-12.31-10.8c-.28,0-.55,0-.82,0a12.42,12.42,0,1,0,12,17.77,12.29,12.29,0,0,0,1.12-7Zm-12.31,10.55a8.92,8.92,0,0,1-.82-17.81,7.38,7.38,0,0,1,.82,0,8.95,8.95,0,0,1,8.77,7.3,8.72,8.72,0,0,1,.15,1.62,8.94,8.94,0,0,1-8.92,8.93Z"/><path class="cls-4" d="M1233,340.12a15.93,15.93,0,0,0-15.84-14.3l-.82,0a15.93,15.93,0,1,0,15.8,21.28,15.72,15.72,0,0,0,.94-5.38C1233.07,341.19,1233,340.66,1233,340.12Zm-6.92,1.62a8.92,8.92,0,1,1-9.74-8.88,7.38,7.38,0,0,1,.82,0,8.95,8.95,0,0,1,8.77,7.3A8.72,8.72,0,0,1,1226.07,341.74Z"/><path class="cls-4" d="M1313.06,332.76a12.39,12.39,0,1,0,3.85,9A12.34,12.34,0,0,0,1313.06,332.76Zm-8.57,17.91a8.94,8.94,0,0,1-8.93-8.93,8.72,8.72,0,0,1,.15-1.62,8.92,8.92,0,0,1,17.35-.85,8.72,8.72,0,0,1,.35,2.47,8.94,8.94,0,0,1-8.92,8.93Z"/><path class="cls-4" d="M1320.06,338.41a15.92,15.92,0,0,0-7-10.07,15.7,15.7,0,0,0-8.57-2.52,16,16,0,0,0-15.85,14.3c-.05.54-.08,1.07-.08,1.62a15.72,15.72,0,0,0,.94,5.38,15.92,15.92,0,0,0,30.56-8.71Zm-8.46,8.71a8.93,8.93,0,0,1-16-5.38,8.72,8.72,0,0,1,.15-1.62,8.92,8.92,0,0,1,17.35-.85,8.72,8.72,0,0,1,.35,2.47A8.85,8.85,0,0,1,1311.6,347.12Z"/><rect class="cls-2" x="1263.5" y="291.12" width="7" height="42.13"/><path class="cls-2" d="M1463.1,534.28h-24.85a3.73,3.73,0,0,1-3.09-5.81l32.15-47.77,6.18,4.16-28.25,42h17.86Z"/><path class="cls-4" d="M1460.7,565.9l-6.18-4.16,28.25-42h-17.85v-7.45h24.85a3.73,3.73,0,0,1,3.09,5.81Z"/><path class="cls-2" d="M1690.89,358.25a23.64,23.64,0,0,1-23.61-23.62V300.68a16.64,16.64,0,0,0-16.62-16.62h-2.45a16.64,16.64,0,0,0-16.62,16.62v15.67h-7V300.68a23.65,23.65,0,0,1,23.62-23.62h2.45a23.65,23.65,0,0,1,23.62,23.62v33.95a16.62,16.62,0,1,0,33.23,0V316.35h7v18.28A23.65,23.65,0,0,1,1690.89,358.25Z"/><rect class="cls-4" x="1614.47" y="313.29" width="111.9" height="7"/><path class="cls-2" d="M1690.89,358.25a23.64,23.64,0,0,1-23.61-23.62V300.68a16.64,16.64,0,0,0-16.62-16.62h-2.45a16.64,16.64,0,0,0-16.62,16.62h-7a23.65,23.65,0,0,1,23.62-23.62h2.45a23.65,23.65,0,0,1,23.62,23.62v33.95a16.62,16.62,0,1,0,33.23,0h7A23.65,23.65,0,0,1,1690.89,358.25Z"/></g><g class="cls-6"><path class="cls-7" d="M491.14,486.09v33.8a37.5,37.5,0,0,1-55.42,32.94l5.49-5.5a30.14,30.14,0,0,0,42.56-27.44V489.77H453.65a30.15,30.15,0,0,0-27.41,42.62l-5.5,5.49a37.54,37.54,0,0,1,32.91-55.49h33.81A3.69,3.69,0,0,1,491.14,486.09Z"/><polygon class="cls-4" points="451.47 527.3 467.35 527.3 467.35 534.67 444.1 534.67 442.53 536.25 424.56 554.23 414.24 564.54 409.02 559.33 419.35 549.02 437.31 531.04 438.89 529.46 438.89 506.21 446.26 506.21 446.26 522.09 462.18 506.17 467.4 511.38 451.47 527.3"/><path class="cls-7" d="M676.92,277H629.8l-23.56,40.8,23.56,40.8h47.12l23.55-40.8Zm-4,74.6h-39l-19.51-33.8L633.84,284h39l19.51,33.8Z"/><path class="cls-4" d="M653.36,297.42a20.4,20.4,0,1,0,20.4,20.4A20.42,20.42,0,0,0,653.36,297.42Zm0,33.8a13.4,13.4,0,1,1,13.4-13.4A13.41,13.41,0,0,1,653.36,331.22Z"/><path class="cls-4" d="M242.53,482.92a20.94,20.94,0,1,0,20.94,20.94A21,21,0,0,0,242.53,482.92Zm0,34.88a13.94,13.94,0,1,1,13.94-13.94A14,14,0,0,1,242.53,517.8Z"/><path class="cls-7" d="M281.66,564h-7a32.13,32.13,0,0,0-64.25,0h-7a39.13,39.13,0,0,1,78.25,0Z"/><path class="cls-7" d="M273.05,358.58H217.9v-7h55.15a6.33,6.33,0,1,0,0-12.66H255.57a13.35,13.35,0,0,1-13.33-13.33v-2.18a13.35,13.35,0,0,1,13.33-13.33h14.69v7H255.57a6.34,6.34,0,0,0-6.33,6.33v2.18a6.34,6.34,0,0,0,6.33,6.33h17.48a13.33,13.33,0,1,1,0,26.66Z"/><path class="cls-4" d="M235.85,312.41a19.19,19.19,0,0,0-15-10.48,20.89,20.89,0,0,0-3.79-.11A19.33,19.33,0,0,0,201.17,312a20.06,20.06,0,0,0,.16,19.63l14.27,25.12a3.53,3.53,0,0,0,2.3,1.69,3.65,3.65,0,0,0,.74.08h0a3.52,3.52,0,0,0,3.05-1.82l2.8-5.11,11.1-20.23A20.13,20.13,0,0,0,235.85,312.41ZM229.48,328l-10.89,19.85-11.18-19.67a13.12,13.12,0,0,1-.09-12.82,12.2,12.2,0,0,1,10.16-6.53c.28,0,.57,0,.85,0a16.18,16.18,0,0,1,1.71.1,12.3,12.3,0,0,1,9.58,6.73,13.12,13.12,0,0,1-.14,12.37Z"/><path class="cls-4" d="M283.8,284.77a14.09,14.09,0,0,0-10.87-7.6,15.58,15.58,0,0,0-2.73-.08,14,14,0,0,0-11.54,7.38,14.51,14.51,0,0,0,.11,14.2l6.48,11.41,3,5.3a3.54,3.54,0,0,0,2,1.6,3.41,3.41,0,0,0,1.06.17h0a3.51,3.51,0,0,0,3.05-1.82l9.25-16.86A14.58,14.58,0,0,0,283.8,284.77Zm-6.31,10.34-6.24,11.36-6.39-11.26a7.53,7.53,0,0,1-.05-7.4,6.94,6.94,0,0,1,5.8-3.73l.49,0a8.26,8.26,0,0,1,1,.06,7,7,0,0,1,5.47,3.85,7.53,7.53,0,0,1-.08,7.14Z"/><path class="cls-7" d="M72.21,77.83H9.44a3.69,3.69,0,0,0-3.69,3.69V153.6a3.69,3.69,0,0,0,3.69,3.68H72.21a3.68,3.68,0,0,0,3.68-3.68V81.52A3.69,3.69,0,0,0,72.21,77.83Zm-3.69,72.08H13.12V85.2h55.4Z"/><polygon class="cls-4" points="46.54 100.87 46.54 108.24 38.06 108.24 38.06 116.72 30.69 116.72 30.69 108.24 22.21 108.24 22.21 100.87 30.69 100.87 30.69 92.39 38.06 92.39 38.06 100.87 46.54 100.87"/><rect class="cls-4" x="43.48" y="133.84" width="16.63" height="7.37"/><path class="cls-4" d="M684.19,511.78h-7a23.83,23.83,0,0,0-47.66,0h-7a30.83,30.83,0,0,1,61.66,0Z"/><path class="cls-7" d="M614.79,510.84V566h77.14V510.84ZM684.93,559H621.79V517.84h63.14Z"/><rect class="cls-4" x="649.86" y="529.11" width="7" height="14.44"/><path class="cls-7" d="M32.59,483a32.23,32.23,0,1,0,32.23,32.22A32.26,32.26,0,0,0,32.59,483Zm0,57.45a25.23,25.23,0,1,1,25.23-25.23A25.25,25.25,0,0,1,32.59,540.46Z"/><rect class="cls-4" x="65.7" y="538.25" width="7" height="27.18" transform="translate(-369.94 210.56) rotate(-45)"/><path class="cls-7" d="M450.08,77.06a40.5,40.5,0,1,0,40.49,40.5A40.54,40.54,0,0,0,450.08,77.06Zm0,73.62a33.13,33.13,0,1,1,33.12-33.12A33.16,33.16,0,0,1,450.08,150.68Z"/><rect class="cls-4" x="446.4" y="93.93" width="7.37" height="13.52"/><rect class="cls-4" x="456.81" y="125.97" width="7.37" height="13.52" transform="translate(9.94 296.03) rotate(-36)"/><rect class="cls-4" x="429.56" y="106.17" width="7.37" height="13.52" transform="translate(191.96 490.07) rotate(-72)"/><rect class="cls-4" x="460.17" y="109.24" width="13.52" height="7.37" transform="translate(-12.04 149.8) rotate(-18)"/><rect class="cls-4" x="432.91" y="129.04" width="13.52" height="7.37" transform="translate(73.87 410.42) rotate(-54)"/><path class="cls-7" d="M40.82,277a40.83,40.83,0,1,0,40.83,40.82A40.86,40.86,0,0,0,40.82,277Zm0,74.65a33.83,33.83,0,1,1,33.83-33.83A33.86,33.86,0,0,1,40.82,351.65Z"/><polygon class="cls-4" points="35.79 336.28 19.14 319.64 24.09 314.69 35.79 326.38 58.86 303.31 63.81 308.26 35.79 336.28"/><path class="cls-7" d="M269.22,77.55H240.29a42.28,42.28,0,0,0-42.24,42.24v13a7.32,7.32,0,0,1,.81,0,8.86,8.86,0,0,1,6.19,2.5V119.79a35.28,35.28,0,0,1,35.24-35.24h28.93a25.59,25.59,0,0,1,25.56,25.56V139.2a8.91,8.91,0,0,1-1.46,7.81h5a3.5,3.5,0,0,0,3.5-3.5v-33.4A32.6,32.6,0,0,0,269.22,77.55ZM277.43,140H207.64a8.88,8.88,0,0,1-1.66,7h73.1a8.85,8.85,0,0,1-1.8-5.37A8.75,8.75,0,0,1,277.43,140Z"/><path class="cls-4" d="M211.18,140a12.42,12.42,0,0,0-12.32-10.8q-.41,0-.81,0A12.45,12.45,0,1,0,211.18,140Zm-12.32,10.55a8.92,8.92,0,0,1-.81-17.81,7.32,7.32,0,0,1,.81,0,8.95,8.95,0,0,1,8.78,7.3,8.88,8.88,0,0,1-1.66,7A8.89,8.89,0,0,1,198.86,150.56Z"/><path class="cls-4" d="M214.71,140a15.93,15.93,0,0,0-15.85-14.3l-.81,0A15.93,15.93,0,1,0,213.85,147a15.71,15.71,0,0,0,.94-5.37C214.79,141.09,214.76,140.55,214.71,140Zm-6.92,1.63A8.8,8.8,0,0,1,206,147a8.92,8.92,0,1,1-7.93-14.26,7.32,7.32,0,0,1,.81,0,8.95,8.95,0,0,1,8.78,7.3A8.75,8.75,0,0,1,207.79,141.64Z"/><path class="cls-4" d="M294.78,132.66A12.41,12.41,0,0,0,273.89,140a12.42,12.42,0,1,0,24.73,1.63A12.37,12.37,0,0,0,294.78,132.66Zm-8.58,17.9a8.92,8.92,0,0,1-8.92-8.92,8.75,8.75,0,0,1,.15-1.63,8.92,8.92,0,0,1,17.69,1.63,8.92,8.92,0,0,1-8.92,8.92Z"/><path class="cls-4" d="M301.78,138.35a15.93,15.93,0,0,0-7-10.11,15.74,15.74,0,0,0-8.58-2.53A16,16,0,0,0,270.36,140c-.05.54-.08,1.08-.08,1.63a15.71,15.71,0,0,0,.94,5.37,15.92,15.92,0,0,0,30.9-5.37A16.17,16.17,0,0,0,301.78,138.35ZM293.32,147a8.92,8.92,0,0,1-16-5.37,8.75,8.75,0,0,1,.15-1.63,8.92,8.92,0,0,1,17.69,1.63A8.85,8.85,0,0,1,293.32,147Z"/><rect class="cls-7" x="245.21" y="91.03" width="7" height="42.13"/><path class="cls-7" d="M449.17,328.8H424.32a3.72,3.72,0,0,1-3.09-5.8l32.16-47.77,6.18,4.16-28.25,42h17.85Z"/><path class="cls-4" d="M446.78,360.42l-6.18-4.16,28.25-42H451v-7.45h24.86a3.72,3.72,0,0,1,3.08,5.8Z"/><path class="cls-7" d="M673.83,158.15a23.63,23.63,0,0,1-23.61-23.61v-34A16.64,16.64,0,0,0,633.6,84h-2.45a16.64,16.64,0,0,0-16.62,16.61v15.67h-7V100.58A23.64,23.64,0,0,1,631.15,77h2.45a23.64,23.64,0,0,1,23.62,23.61v34a16.62,16.62,0,0,0,33.23,0V116.25h7v18.29A23.64,23.64,0,0,1,673.83,158.15Z"/><rect class="cls-4" x="597.41" y="113.19" width="111.9" height="7"/><path class="cls-7" d="M673.83,158.15a23.63,23.63,0,0,1-23.61-23.61v-34A16.64,16.64,0,0,0,633.6,84h-2.45a16.64,16.64,0,0,0-16.62,16.61h-7A23.64,23.64,0,0,1,631.15,77h2.45a23.64,23.64,0,0,1,23.62,23.61v34a16.62,16.62,0,0,0,33.23,0h7A23.64,23.64,0,0,1,673.83,158.15Z"/></g></g></g></svg>