<svg xmlns="http://www.w3.org/2000/svg" xmlns:xlink="http://www.w3.org/1999/xlink" viewBox="0 0 2347.08 801.14"><defs><style>.cls-1{fill:none;}.cls-2{fill:#abcf37;}.cls-3{fill:#262c6c;}.cls-4{fill:#fff;}.cls-5{clip-path:url(#clip-path);}.cls-6{clip-path:url(#clip-path-2);}.cls-7{fill:#001a73;}</style><clipPath id="clip-path"><rect class="cls-1" x="1373.16" y="230.59" width="973.91" height="570.54"/></clipPath><clipPath id="clip-path-2"><rect class="cls-1" width="973.91" height="570.54"/></clipPath></defs><g id="Layer_2" data-name="Layer 2"><g id="Layer_1-2" data-name="Layer 1"><rect class="cls-2" width="973.91" height="570.54"/><rect x="1373.16" y="230.59" width="973.91" height="570.54"/><path class="cls-2" d="M1612.24,60v33.8a37.5,37.5,0,0,1-55.42,32.94l5.48-5.5a30.12,30.12,0,0,0,42.56-27.44V63.66h-30.12a30.15,30.15,0,0,0-27.41,42.62l-5.5,5.5a37.54,37.54,0,0,1,32.91-55.49h33.82A3.69,3.69,0,0,1,1612.24,60Z"/><polygon class="cls-3" points="1572.57 101.2 1588.45 101.2 1588.45 108.57 1565.2 108.57 1563.62 110.15 1545.65 128.13 1535.33 138.44 1530.12 133.22 1540.44 122.91 1558.41 104.93 1559.98 103.36 1559.98 80.11 1567.35 80.11 1567.35 95.98 1583.28 80.06 1588.49 85.28 1572.57 101.2"/><path class="cls-2" d="M801.5,465.89v33.8a37.5,37.5,0,0,1-55.42,32.94l5.48-5.5a30.13,30.13,0,0,0,42.57-27.44V469.57H764a30.15,30.15,0,0,0-27.41,42.62l-5.5,5.5A37.54,37.54,0,0,1,764,462.2h33.82A3.69,3.69,0,0,1,801.5,465.89Z"/><polygon class="cls-3" points="761.83 507.11 777.71 507.11 777.71 514.48 754.46 514.48 752.88 516.05 734.91 534.03 724.59 544.35 719.38 539.13 729.7 528.82 747.67 510.84 749.25 509.26 749.25 486.01 756.62 486.01 756.62 501.89 772.54 485.97 777.75 491.18 761.83 507.11"/><path class="cls-2" d="M1612.74,672v33.8a37.5,37.5,0,0,1-55.42,32.94l5.48-5.5a30.12,30.12,0,0,0,42.56-27.44V675.64h-30.12a30.15,30.15,0,0,0-27.41,42.62l-5.5,5.5a37.54,37.54,0,0,1,32.91-55.49h33.82A3.69,3.69,0,0,1,1612.74,672Z"/><polygon class="cls-3" points="1573.07 713.18 1588.94 713.18 1588.94 720.55 1565.69 720.55 1564.12 722.13 1546.15 740.11 1535.83 750.42 1530.61 745.21 1540.94 734.89 1558.91 716.91 1560.48 715.34 1560.48 692.09 1567.85 692.09 1567.85 707.97 1583.78 692.04 1588.99 697.26 1573.07 713.18"/><path class="cls-2" d="M987.27,338.43H940.16l-23.56-40.8,23.56-40.81h47.11l23.56,40.81Zm-43.07-7h39l19.52-33.8-19.52-33.81h-39l-19.52,33.81Z"/><path class="cls-3" d="M963.72,318a20.41,20.41,0,1,1,20.4-20.4A20.43,20.43,0,0,1,963.72,318Zm0-33.81a13.41,13.41,0,1,0,13.4,13.41A13.43,13.43,0,0,0,963.72,284.22Z"/><path class="cls-2" d="M2004.33,544.07h-47.11l-23.56-40.8,23.56-40.8h47.11l23.56,40.8Zm-43.07-7h39l19.52-33.8-19.52-33.8h-39l-19.52,33.8Z"/><path class="cls-3" d="M1980.77,523.67a20.4,20.4,0,1,1,20.41-20.4A20.42,20.42,0,0,1,1980.77,523.67Zm0-33.8a13.4,13.4,0,1,0,13.41,13.4A13.41,13.41,0,0,0,1980.77,489.87Z"/><path class="cls-2" d="M576.45,750.15H529.33l-23.56-40.81,23.56-40.8h47.12L600,709.34Zm-43.08-7h39l19.51-33.81-19.51-33.8h-39l-19.51,33.8Z"/><path class="cls-3" d="M552.89,729.75a20.41,20.41,0,1,1,20.4-20.41A20.43,20.43,0,0,1,552.89,729.75Zm0-33.81a13.41,13.41,0,1,0,13.4,13.4A13.41,13.41,0,0,0,552.89,695.94Z"/><path class="cls-3" d="M1367.87,98.7a20.94,20.94,0,1,1,20.94-20.94A21,21,0,0,1,1367.87,98.7Zm0-34.88a13.94,13.94,0,1,0,13.94,13.94A13.95,13.95,0,0,0,1367.87,63.82Z"/><path class="cls-2" d="M1407,137.91h-7a32.12,32.12,0,0,0-64.24,0h-7a39.12,39.12,0,0,1,78.24,0Z"/><path class="cls-3" d="M1367.87,710.68a20.94,20.94,0,1,1,20.94-20.94A21,21,0,0,1,1367.87,710.68Zm0-34.88a13.94,13.94,0,1,0,13.94,13.94A13.95,13.95,0,0,0,1367.87,675.8Z"/><path class="cls-2" d="M1407,749.89h-7a32.12,32.12,0,0,0-64.24,0h-7a39.12,39.12,0,0,1,78.24,0Z"/><path class="cls-3" d="M552.89,504.6a20.94,20.94,0,1,1,20.94-20.93A21,21,0,0,1,552.89,504.6Zm0-34.87a13.94,13.94,0,1,0,13.94,13.94A14,14,0,0,0,552.89,469.73Z"/><path class="cls-2" d="M592,543.81h-7a32.12,32.12,0,0,0-64.24,0h-7a39.12,39.12,0,0,1,78.24,0Z"/><path class="cls-2" d="M583.4,338.39H528.26v-7H583.4a6.33,6.33,0,1,0,0-12.66H565.93A13.35,13.35,0,0,1,552.6,305.4v-2.19a13.35,13.35,0,0,1,13.33-13.33h14.68v7H565.93a6.34,6.34,0,0,0-6.33,6.33v2.19a6.34,6.34,0,0,0,6.33,6.33H583.4a13.33,13.33,0,1,1,0,26.66Z"/><path class="cls-3" d="M529,338.31a3.5,3.5,0,0,1-3-1.77l-14.27-25.11a20.09,20.09,0,0,1-.15-19.63,19.32,19.32,0,0,1,15.91-10.18,21.84,21.84,0,0,1,3.79.12,19.17,19.17,0,0,1,15,10.47,20.15,20.15,0,0,1-.23,19L532.06,336.5a3.49,3.49,0,0,1-3,1.81Zm-.31-49.72-.85,0a12.19,12.19,0,0,0-10.16,6.53,13.11,13.11,0,0,0,.09,12.83l11.17,19.67,10.89-19.85h0a13.15,13.15,0,0,0,.15-12.37,12.28,12.28,0,0,0-9.58-6.73A13.89,13.89,0,0,0,528.69,288.59Z"/><path class="cls-3" d="M581.66,297a3.5,3.5,0,0,1-3-1.78l-9.49-16.71a14.53,14.53,0,0,1-.12-14.2,14,14,0,0,1,11.55-7.38,15.58,15.58,0,0,1,2.73.09,14.12,14.12,0,0,1,10.87,7.59,14.62,14.62,0,0,1-.17,13.71h0l-9.26,16.86a3.5,3.5,0,0,1-3,1.82Zm-.2-33.09H581a7,7,0,0,0-5.81,3.74,7.58,7.58,0,0,0,.05,7.4l6.4,11.26,6.24-11.37h0a7.59,7.59,0,0,0,.08-7.13,7,7,0,0,0-5.47-3.85A8.39,8.39,0,0,0,581.46,263.87Z"/><path class="cls-2" d="M1601.69,544h-55.15v-7h55.15a6.33,6.33,0,0,0,0-12.66h-17.48A13.35,13.35,0,0,1,1570.88,511v-2.18a13.35,13.35,0,0,1,13.33-13.33h14.69v7h-14.69a6.33,6.33,0,0,0-6.33,6.33V511a6.34,6.34,0,0,0,6.33,6.33h17.48a13.33,13.33,0,0,1,0,26.66Z"/><path class="cls-3" d="M1547.28,544a3.5,3.5,0,0,1-3-1.77L1530,517.07a20.06,20.06,0,0,1-.15-19.63,19.31,19.31,0,0,1,15.9-10.17,21,21,0,0,1,3.8.11,19.19,19.19,0,0,1,15,10.48,20.16,20.16,0,0,1-.23,18.94l-13.91,25.34a3.5,3.5,0,0,1-3,1.82Zm-.31-49.73-.84,0a12.21,12.21,0,0,0-10.17,6.53,13.09,13.09,0,0,0,.1,12.82l11.17,19.67,10.89-19.85h0a13.15,13.15,0,0,0,.15-12.37,12.3,12.3,0,0,0-9.58-6.73A14.06,14.06,0,0,0,1547,494.23Z"/><path class="cls-3" d="M1600,502.6a3.5,3.5,0,0,1-3-1.77l-9.5-16.71a14.53,14.53,0,0,1-.11-14.2,14,14,0,0,1,11.55-7.38,14.58,14.58,0,0,1,2.72.08,14.08,14.08,0,0,1,10.87,7.6,14.55,14.55,0,0,1-.17,13.7h0L1603,500.78a3.51,3.51,0,0,1-3,1.82Zm-.21-33.09-.49,0a7,7,0,0,0-5.8,3.73,7.58,7.58,0,0,0,0,7.4l6.4,11.26,6.24-11.37h0a7.59,7.59,0,0,0,.08-7.13,7,7,0,0,0-5.47-3.85A8.43,8.43,0,0,0,1599.74,469.51Z"/><path class="cls-2" d="M791,750.1H735.81v-7H791a6.33,6.33,0,1,0,0-12.66H773.48a13.35,13.35,0,0,1-13.33-13.33v-2.18a13.35,13.35,0,0,1,13.33-13.33h14.68v7H773.48a6.34,6.34,0,0,0-6.33,6.33v2.18a6.34,6.34,0,0,0,6.33,6.33H791a13.33,13.33,0,0,1,0,26.66Z"/><path class="cls-3" d="M736.54,750a3.5,3.5,0,0,1-3-1.77l-14.27-25.12a20.07,20.07,0,0,1-.15-19.62A19.3,19.3,0,0,1,735,693.34a21.83,21.83,0,0,1,3.79.11,19.2,19.2,0,0,1,15,10.48,20.16,20.16,0,0,1-.23,18.94l-13.91,25.34a3.48,3.48,0,0,1-3,1.82Zm-.3-49.73c-.29,0-.57,0-.85,0a12.19,12.19,0,0,0-10.16,6.53,13.11,13.11,0,0,0,.09,12.83l11.17,19.66,10.89-19.84h0a13.17,13.17,0,0,0,.15-12.38A12.33,12.33,0,0,0,738,700.4,16.18,16.18,0,0,0,736.24,700.3Z"/><path class="cls-3" d="M789.21,708.67a3.48,3.48,0,0,1-3-1.77l-9.5-16.71a14.56,14.56,0,0,1-.11-14.2,14,14,0,0,1,11.55-7.38,15.61,15.61,0,0,1,2.73.08,14.08,14.08,0,0,1,10.86,7.6,14.55,14.55,0,0,1-.17,13.7h0l-9.25,16.86a3.48,3.48,0,0,1-3,1.82Zm-.2-33.09-.5,0a7,7,0,0,0-5.8,3.73,7.58,7.58,0,0,0,0,7.4l6.4,11.26,6.24-11.36h0a7.61,7.61,0,0,0,.08-7.14,7,7,0,0,0-5.47-3.85A8.39,8.39,0,0,0,789,675.58Z"/><path class="cls-2" d="M382.56,137.09H319.8a3.69,3.69,0,0,1-3.69-3.69V61.32a3.69,3.69,0,0,1,3.69-3.68h62.76a3.69,3.69,0,0,1,3.69,3.68V133.4A3.69,3.69,0,0,1,382.56,137.09Zm-59.08-7.37h55.4V65h-55.4Z"/><polygon class="cls-3" points="356.9 80.67 356.9 88.04 348.42 88.04 348.42 96.52 341.05 96.52 341.05 88.04 332.57 88.04 332.57 80.67 341.05 80.67 341.05 72.19 348.42 72.19 348.42 80.67 356.9 80.67"/><rect class="cls-3" x="353.83" y="113.64" width="16.63" height="7.37"/><path class="cls-2" d="M1195.89,749.07h-62.77a3.69,3.69,0,0,1-3.69-3.69V673.3a3.69,3.69,0,0,1,3.69-3.68h62.77a3.68,3.68,0,0,1,3.68,3.68v72.08A3.69,3.69,0,0,1,1195.89,749.07Zm-59.09-7.37h55.4V677h-55.4Z"/><polygon class="cls-3" points="1170.22 692.65 1170.22 700.02 1161.74 700.02 1161.74 708.5 1154.37 708.5 1154.37 700.02 1145.89 700.02 1145.89 692.65 1154.37 692.65 1154.37 684.17 1161.74 684.17 1161.74 692.65 1170.22 692.65"/><rect class="cls-3" x="1167.16" y="725.62" width="16.63" height="7.37"/><path class="cls-2" d="M1399.26,337.35h-62.77a3.69,3.69,0,0,1-3.69-3.68V261.59a3.69,3.69,0,0,1,3.69-3.69h62.77a3.69,3.69,0,0,1,3.68,3.69v72.08A3.68,3.68,0,0,1,1399.26,337.35ZM1340.17,330h55.4V265.27h-55.4Z"/><polygon class="cls-3" points="1373.59 280.94 1373.59 288.31 1365.11 288.31 1365.11 296.79 1357.74 296.79 1357.74 288.31 1349.26 288.31 1349.26 280.94 1357.74 280.94 1357.74 272.46 1365.11 272.46 1365.11 280.94 1373.59 280.94"/><rect class="cls-3" x="1370.53" y="313.9" width="16.63" height="7.37"/><path class="cls-3" d="M1805.19,85.68h-7a23.83,23.83,0,0,0-47.66,0h-7a30.83,30.83,0,0,1,61.66,0Z"/><path class="cls-2" d="M1812.93,139.88h-77.14V84.74h77.14Zm-70.14-7h63.14V91.74h-63.14Z"/><rect class="cls-3" x="1770.86" y="103" width="7" height="14.44"/><path class="cls-3" d="M994.55,491.59h-7a23.84,23.84,0,1,0-47.67,0h-7a30.84,30.84,0,1,1,61.67,0Z"/><path class="cls-2" d="M1002.29,545.79H925.14V490.65h77.15Zm-70.15-7h63.15V497.65H932.14Z"/><rect class="cls-3" x="960.22" y="508.91" width="7" height="14.44"/><path class="cls-2" d="M1158,121.36a32.23,32.23,0,1,1,32.23-32.23A32.27,32.27,0,0,1,1158,121.36Zm0-57.45a25.23,25.23,0,1,0,25.23,25.22A25.25,25.25,0,0,0,1158,63.91Z"/><rect class="cls-3" x="1191.11" y="112.14" width="7" height="27.18" transform="translate(260.99 881.55) rotate(-45)"/><path class="cls-2" d="M343,527.27A32.23,32.23,0,1,1,375.18,495,32.27,32.27,0,0,1,343,527.27Zm0-57.45A25.23,25.23,0,1,0,368.18,495,25.25,25.25,0,0,0,343,469.82Z"/><rect class="cls-3" x="376.05" y="518.05" width="7" height="27.18" transform="translate(-264.76 424.1) rotate(-45)"/><path class="cls-2" d="M1189.22,340h-46a7.5,7.5,0,0,1-7.5-7.5V262.75a7.5,7.5,0,0,1,7.5-7.5h46a7.5,7.5,0,0,1,7.5,7.5V332.5A7.5,7.5,0,0,1,1189.22,340Zm-46-77.75a.5.5,0,0,0-.5.5V332.5a.5.5,0,0,0,.5.5h46a.5.5,0,0,0,.5-.5V262.75a.5.5,0,0,0-.5-.5Z"/><rect class="cls-3" x="1162.45" y="321.23" width="7.57" height="7"/><path class="cls-2" d="M374.16,751.72h-46a7.5,7.5,0,0,1-7.5-7.5V674.47a7.5,7.5,0,0,1,7.5-7.5h46a7.5,7.5,0,0,1,7.5,7.5v69.75A7.5,7.5,0,0,1,374.16,751.72ZM328.2,674a.5.5,0,0,0-.5.5v69.75a.5.5,0,0,0,.5.5h46a.5.5,0,0,0,.5-.5V674.47a.5.5,0,0,0-.5-.5Z"/><rect class="cls-3" x="347.39" y="732.94" width="7.57" height="7"/><path class="cls-2" d="M2003.76,751.72h-46a7.5,7.5,0,0,1-7.5-7.5V674.47a7.5,7.5,0,0,1,7.5-7.5h46a7.51,7.51,0,0,1,7.5,7.5v69.75A7.51,7.51,0,0,1,2003.76,751.72Zm-46-77.75a.5.5,0,0,0-.5.5v69.75a.5.5,0,0,0,.5.5h46a.5.5,0,0,0,.5-.5V674.47a.5.5,0,0,0-.5-.5Z"/><rect class="cls-3" x="1976.99" y="732.94" width="7.57" height="7"/><path class="cls-2" d="M760.44,137.86a40.5,40.5,0,1,1,40.49-40.5A40.54,40.54,0,0,1,760.44,137.86Zm0-73.62a33.13,33.13,0,1,0,33.12,33.12A33.15,33.15,0,0,0,760.44,64.24Z"/><rect class="cls-3" x="756.75" y="73.73" width="7.37" height="13.52"/><rect class="cls-3" x="767.16" y="105.77" width="7.37" height="13.52" transform="translate(81.08 474.59) rotate(-36)"/><rect class="cls-3" x="739.91" y="85.97" width="7.37" height="13.52" transform="translate(425.62 771.27) rotate(-72)"/><rect class="cls-3" x="770.52" y="89.04" width="13.52" height="7.37" transform="translate(9.38 244.71) rotate(-18)"/><rect class="cls-3" x="743.27" y="108.84" width="13.52" height="7.37" transform="translate(218.15 653.18) rotate(-54)"/><path class="cls-2" d="M1774.36,338.12a40.5,40.5,0,1,1,40.49-40.49A40.53,40.53,0,0,1,1774.36,338.12Zm0-73.61a33.12,33.12,0,1,0,33.12,33.12A33.15,33.15,0,0,0,1774.36,264.51Z"/><rect class="cls-3" x="1770.68" y="274" width="7.37" height="13.52"/><rect class="cls-3" x="1781.08" y="306.03" width="7.37" height="13.52" transform="translate(157.02 1108.83) rotate(-36)"/><rect class="cls-3" x="1753.83" y="286.23" width="7.37" height="13.52" transform="translate(935.76 1873.95) rotate(-72)"/><rect class="cls-3" x="1784.44" y="289.31" width="13.52" height="7.37" transform="translate(-2.88 567.81) rotate(-18)"/><rect class="cls-3" x="1757.19" y="309.11" width="13.52" height="7.37" transform="translate(474.1 1556.03) rotate(-54)"/><path class="cls-2" d="M351.18,338.45A40.83,40.83,0,1,1,392,297.63,40.87,40.87,0,0,1,351.18,338.45Zm0-74.65A33.83,33.83,0,1,0,385,297.63,33.87,33.87,0,0,0,351.18,263.8Z"/><polygon class="cls-3" points="346.14 316.08 329.5 299.44 334.45 294.49 346.14 306.18 369.22 283.11 374.17 288.06 346.14 316.08"/><path class="cls-2" d="M1367.87,544.1a40.83,40.83,0,1,1,40.83-40.83A40.87,40.87,0,0,1,1367.87,544.1Zm0-74.66a33.83,33.83,0,1,0,33.83,33.83A33.86,33.86,0,0,0,1367.87,469.44Z"/><polygon class="cls-3" points="1362.84 521.73 1346.19 505.08 1351.14 500.13 1362.84 511.83 1385.91 488.75 1390.86 493.7 1362.84 521.73"/><path class="cls-2" d="M963.72,750.17a40.83,40.83,0,1,1,40.82-40.83A40.87,40.87,0,0,1,963.72,750.17Zm0-74.65a33.83,33.83,0,1,0,33.82,33.82A33.86,33.86,0,0,0,963.72,675.52Z"/><polygon class="cls-3" points="958.68 727.8 942.03 711.16 946.98 706.21 958.68 717.9 981.75 694.83 986.7 699.77 958.68 727.8"/><polygon class="cls-3" points="2006.26 94.3 1999.26 94.3 1999.26 77.66 1982.63 77.66 1982.63 70.66 2006.26 70.66 2006.26 94.3"/><polygon class="cls-3" points="2019.38 82.12 2012.38 82.12 2012.38 65.48 1995.74 65.48 1995.74 58.48 2019.38 58.48 2019.38 82.12"/><path class="cls-2" d="M1993.07,137.65a52.19,52.19,0,0,1-52.13-52.13V79.31a22.27,22.27,0,0,1,22.24-22.24H1971a3.5,3.5,0,0,1,3.5,3.5V85.28a3.5,3.5,0,0,1-3.5,3.5h-4.31a26.56,26.56,0,0,0,23.11,23.1v-4.32a3.5,3.5,0,0,1,3.5-3.5h23.78a3.5,3.5,0,0,1,3.5,3.5v7.86a22.27,22.27,0,0,1-22.24,22.23Zm-29.89-73.58a15.26,15.26,0,0,0-15.24,15.24v6.21a45.18,45.18,0,0,0,45.13,45.13h5.29a15.26,15.26,0,0,0,15.25-15.23v-4.36h-16.78v4.51a3.5,3.5,0,0,1-3.47,3.51,33.57,33.57,0,0,1-33.84-33.82,3.49,3.49,0,0,1,.94-2.35,1.7,1.7,0,0,1,.19-.19,3.48,3.48,0,0,1,2.38-.94h4.5V64.07Z"/><polygon class="cls-3" points="1191.73 500.2 1184.73 500.2 1184.73 483.57 1168.1 483.57 1168.1 476.57 1191.73 476.57 1191.73 500.2"/><polygon class="cls-3" points="1204.85 488.03 1197.85 488.03 1197.85 471.39 1181.21 471.39 1181.21 464.39 1204.85 464.39 1204.85 488.03"/><path class="cls-2" d="M1178.54,543.56a52.18,52.18,0,0,1-52.13-52.13v-6.22A22.26,22.26,0,0,1,1148.65,463h7.85a3.5,3.5,0,0,1,3.5,3.5v24.71a3.5,3.5,0,0,1-3.5,3.5h-4.31a26.56,26.56,0,0,0,23.11,23.1v-4.32a3.5,3.5,0,0,1,3.5-3.5h23.77a3.5,3.5,0,0,1,3.5,3.5v7.85a22.26,22.26,0,0,1-22.24,22.24ZM1148.65,470a15.26,15.26,0,0,0-15.24,15.24v6.21a45.17,45.17,0,0,0,45.13,45.13h5.29a15.26,15.26,0,0,0,15.24-15.24V517H1182.3v4.51a3.52,3.52,0,0,1-3.48,3.5A33.55,33.55,0,0,1,1145,491.17a3.53,3.53,0,0,1,.94-2.36l.18-.18a3.52,3.52,0,0,1,2.38-.94H1153V470Z"/><path class="cls-2" d="M579.57,57.56H550.64A42.29,42.29,0,0,0,508.4,99.8v13a7.38,7.38,0,0,1,.82,0,8.85,8.85,0,0,1,6.18,2.5V99.8a35.28,35.28,0,0,1,35.24-35.24h28.93a25.59,25.59,0,0,1,25.56,25.56v29.06a8.72,8.72,0,0,1,.35,2.47,8.9,8.9,0,0,1-1.8,5.37h5a3.5,3.5,0,0,0,3.5-3.5V90.12A32.6,32.6,0,0,0,579.57,57.56ZM587.78,120H518a8.75,8.75,0,0,1,.15,1.63,8.9,8.9,0,0,1-1.8,5.37h73.08a9,9,0,0,1-1.79-5.37A8.75,8.75,0,0,1,587.78,120Z"/><path class="cls-4" d="M521.53,120a12.42,12.42,0,0,0-12.31-10.8c-.28,0-.55,0-.82,0a12.42,12.42,0,1,0,12,17.77,12.21,12.21,0,0,0,1.23-5.37A12.51,12.51,0,0,0,521.53,120Zm-12.31,10.55a8.92,8.92,0,0,1-.82-17.81,7.38,7.38,0,0,1,.82,0A8.95,8.95,0,0,1,518,120a8.75,8.75,0,0,1,.15,1.63,8.92,8.92,0,0,1-8.92,8.92Z"/><path class="cls-3" d="M525.06,120a16,16,0,0,0-9.66-13,15.73,15.73,0,0,0-6.18-1.26l-.82,0A15.93,15.93,0,1,0,524.2,127a15.71,15.71,0,0,0,.94-5.37C525.14,121.1,525.11,120.56,525.06,120Zm-6.92,1.63a8.93,8.93,0,1,1-9.74-8.89,7.38,7.38,0,0,1,.82,0A8.95,8.95,0,0,1,518,120,8.75,8.75,0,0,1,518.14,121.65Z"/><path class="cls-4" d="M605.13,112.66A12.42,12.42,0,0,0,584.24,120a12.51,12.51,0,0,0-.11,1.63,12.21,12.21,0,0,0,1.23,5.37,12.41,12.41,0,0,0,22.39,0,12.21,12.21,0,0,0,1.23-5.37A12.4,12.4,0,0,0,605.13,112.66Zm-8.58,17.91a8.91,8.91,0,0,1-8.92-8.92,8.75,8.75,0,0,1,.15-1.63,8.92,8.92,0,0,1,17.35-.84,8.72,8.72,0,0,1,.35,2.47,8.92,8.92,0,0,1-8.93,8.92Z"/><path class="cls-3" d="M612.13,118.31a16,16,0,0,0-7-10.07A15.91,15.91,0,0,0,580.71,120c-.05.54-.08,1.08-.08,1.63a15.71,15.71,0,0,0,.94,5.37,15.92,15.92,0,0,0,30.56-8.71ZM603.68,127a8.92,8.92,0,0,1-16-5.37,8.75,8.75,0,0,1,.15-1.63,8.92,8.92,0,0,1,17.35-.84,8.72,8.72,0,0,1,.35,2.47A8.9,8.9,0,0,1,603.68,127Z"/><rect class="cls-2" x="555.57" y="71.03" width="7" height="42.13"/><path class="cls-2" d="M1801.05,669.34h-28.94a42.29,42.29,0,0,0-42.24,42.24v13a7.38,7.38,0,0,1,.82,0,8.91,8.91,0,0,1,6.18,2.49V711.58a35.28,35.28,0,0,1,35.24-35.24h28.94a25.58,25.58,0,0,1,25.55,25.56V731a8.72,8.72,0,0,1,.35,2.47,9,9,0,0,1-1.79,5.37h4.94a3.5,3.5,0,0,0,3.5-3.5V701.9A32.59,32.59,0,0,0,1801.05,669.34Zm8.2,62.46h-69.79a8.75,8.75,0,0,1,.15,1.63,9,9,0,0,1-1.79,5.37h73.08a8.9,8.9,0,0,1-1.8-5.37A8.75,8.75,0,0,1,1809.25,731.8Z"/><path class="cls-4" d="M1743,731.8a12.42,12.42,0,0,0-12.31-10.8c-.28,0-.55,0-.82,0a12.42,12.42,0,1,0,12,17.77,12.21,12.21,0,0,0,1.23-5.37A12.51,12.51,0,0,0,1743,731.8Zm-12.31,10.55a8.92,8.92,0,0,1-.82-17.81,7.38,7.38,0,0,1,.82,0,8.92,8.92,0,0,1,8.77,7.3,8.75,8.75,0,0,1,.15,1.63,8.91,8.91,0,0,1-8.92,8.92Z"/><path class="cls-3" d="M1746.53,731.8a16,16,0,0,0-9.66-13,15.73,15.73,0,0,0-6.18-1.26l-.82,0a15.93,15.93,0,1,0,15.8,21.28,15.71,15.71,0,0,0,.94-5.37C1746.61,732.88,1746.58,732.34,1746.53,731.8Zm-6.92,1.63a8.92,8.92,0,1,1-9.74-8.89,7.38,7.38,0,0,1,.82,0,8.92,8.92,0,0,1,8.77,7.3A8.75,8.75,0,0,1,1739.61,733.43Z"/><path class="cls-4" d="M1826.6,724.44a12.42,12.42,0,0,0-20.89,7.36,12.51,12.51,0,0,0-.11,1.63,12.21,12.21,0,0,0,1.23,5.37,12.41,12.41,0,0,0,22.39,0,12.21,12.21,0,0,0,1.23-5.37A12.38,12.38,0,0,0,1826.6,724.44ZM1818,742.35a8.92,8.92,0,0,1-8.93-8.92,8.75,8.75,0,0,1,.15-1.63,8.92,8.92,0,0,1,17.35-.84,8.72,8.72,0,0,1,.35,2.47,8.91,8.91,0,0,1-8.92,8.92Z"/><path class="cls-3" d="M1833.6,730.09a15.94,15.94,0,0,0-7-10.07,15.7,15.7,0,0,0-8.57-2.52,16,16,0,0,0-15.85,14.3c0,.54-.08,1.08-.08,1.63a15.71,15.71,0,0,0,.94,5.37,15.92,15.92,0,0,0,30.56-8.71Zm-8.44,8.71a8.93,8.93,0,0,1-16.06-5.37,8.75,8.75,0,0,1,.15-1.63,8.92,8.92,0,0,1,17.35-.84,8.72,8.72,0,0,1,.35,2.47A9,9,0,0,1,1825.16,738.8Z"/><rect class="cls-2" x="1777.04" y="682.81" width="7" height="42.13"/><path class="cls-2" d="M1597.86,257.63h-28.93a42.27,42.27,0,0,0-42.24,42.23v13a7.32,7.32,0,0,1,.81,0,8.89,8.89,0,0,1,6.19,2.5V299.86a35.27,35.27,0,0,1,35.24-35.23h28.93a25.58,25.58,0,0,1,25.55,25.55v29.06a8.72,8.72,0,0,1,.35,2.47,8.85,8.85,0,0,1-1.81,5.38h5a3.5,3.5,0,0,0,3.5-3.5V290.18A32.58,32.58,0,0,0,1597.86,257.63Zm8.2,62.46h-69.78a8.72,8.72,0,0,1,.15,1.62,8.85,8.85,0,0,1-1.81,5.38h73.1a8.85,8.85,0,0,1-1.81-5.38A8.72,8.72,0,0,1,1606.06,320.09Z"/><path class="cls-4" d="M1539.82,320.09a12.42,12.42,0,0,0-12.32-10.8l-.81,0a12.42,12.42,0,1,0,12,17.77,12.29,12.29,0,0,0,1.12-7Zm-12.32,10.55a8.92,8.92,0,0,1-.81-17.81,7.32,7.32,0,0,1,.81,0,8.95,8.95,0,0,1,8.78,7.3,8.72,8.72,0,0,1,.15,1.62,8.94,8.94,0,0,1-8.93,8.93Z"/><path class="cls-3" d="M1543.35,320.09a15.93,15.93,0,0,0-15.85-14.3l-.81,0a15.93,15.93,0,1,0,15.8,21.28,15.72,15.72,0,0,0,.94-5.38C1543.43,321.16,1543.4,320.63,1543.35,320.09Zm-6.92,1.62a8.93,8.93,0,1,1-9.74-8.88,7.32,7.32,0,0,1,.81,0,8.95,8.95,0,0,1,8.78,7.3A8.72,8.72,0,0,1,1536.43,321.71Z"/><path class="cls-4" d="M1623.41,312.73a12.39,12.39,0,1,0,3.85,9A12.34,12.34,0,0,0,1623.41,312.73Zm-8.57,17.91a8.94,8.94,0,0,1-8.93-8.93,8.72,8.72,0,0,1,.15-1.62,8.92,8.92,0,0,1,17.35-.85,8.72,8.72,0,0,1,.35,2.47,8.94,8.94,0,0,1-8.92,8.93Z"/><path class="cls-3" d="M1630.41,318.38a15.92,15.92,0,0,0-7-10.07,15.7,15.7,0,0,0-8.57-2.52,16,16,0,0,0-15.85,14.3c0,.54-.08,1.07-.08,1.62a15.72,15.72,0,0,0,.94,5.38,15.92,15.92,0,0,0,30.56-8.71Zm-8.46,8.71a8.93,8.93,0,0,1-16-5.38,8.72,8.72,0,0,1,.15-1.62,8.92,8.92,0,0,1,17.35-.85,8.72,8.72,0,0,1,.35,2.47A8.85,8.85,0,0,1,1622,327.09Z"/><rect class="cls-2" x="1573.85" y="271.1" width="7" height="42.13"/><path class="cls-2" d="M759.53,308.61H734.67a3.73,3.73,0,0,1-3.08-5.81L763.74,255l6.18,4.16-28.25,42h17.86Z"/><path class="cls-3" d="M757.13,340.22,751,336.06l28.25-42H761.35v-7.45H786.2a3.73,3.73,0,0,1,3.09,5.81Z"/><path class="cls-2" d="M1773.45,514.25H1748.6a3.73,3.73,0,0,1-3.09-5.81l32.16-47.77,6.18,4.17-28.25,42h17.85Z"/><path class="cls-3" d="M1771.06,545.87l-6.18-4.16,28.25-42h-17.86v-7.45h24.85a3.73,3.73,0,0,1,3.09,5.81Z"/><path class="cls-2" d="M984.19,138a23.65,23.65,0,0,1-23.62-23.62V80.39A16.63,16.63,0,0,0,944,63.77H941.5a16.63,16.63,0,0,0-16.61,16.62V96.05h-7V80.39A23.64,23.64,0,0,1,941.5,56.77H944a23.64,23.64,0,0,1,23.61,23.62v34a16.62,16.62,0,1,0,33.23,0V96.05h7v18.29A23.64,23.64,0,0,1,984.19,138Z"/><rect class="cls-3" x="907.77" y="92.99" width="111.9" height="7"/><path class="cls-2" d="M984.19,138a23.65,23.65,0,0,1-23.62-23.62V80.39A16.63,16.63,0,0,0,944,63.77H941.5a16.63,16.63,0,0,0-16.61,16.62h-7A23.64,23.64,0,0,1,941.5,56.77H944a23.64,23.64,0,0,1,23.61,23.62v34a16.62,16.62,0,1,0,33.23,0h7A23.64,23.64,0,0,1,984.19,138Z"/><path class="cls-2" d="M2001.24,338.22a23.63,23.63,0,0,1-23.61-23.61v-34A16.63,16.63,0,0,0,1961,264h-2.46A16.63,16.63,0,0,0,1942,280.65v15.67h-7V280.65A23.63,23.63,0,0,1,1958.56,257H1961a23.63,23.63,0,0,1,23.61,23.61v34a16.62,16.62,0,0,0,33.23,0V296.32h7v18.29A23.64,23.64,0,0,1,2001.24,338.22Z"/><rect class="cls-3" x="1924.82" y="293.26" width="111.9" height="7"/><path class="cls-2" d="M2001.24,338.22a23.63,23.63,0,0,1-23.61-23.61v-34A16.63,16.63,0,0,0,1961,264h-2.46A16.63,16.63,0,0,0,1942,280.65h-7A23.63,23.63,0,0,1,1958.56,257H1961a23.63,23.63,0,0,1,23.61,23.61v34a16.62,16.62,0,0,0,33.23,0h7A23.64,23.64,0,0,1,2001.24,338.22Z"/><g class="cls-5"><path class="cls-2" d="M1612.74,672v33.8a37.5,37.5,0,0,1-55.42,32.94l5.48-5.5a30.12,30.12,0,0,0,42.56-27.44V675.64h-30.12a30.15,30.15,0,0,0-27.41,42.62l-5.5,5.5a37.54,37.54,0,0,1,32.91-55.49h33.82A3.69,3.69,0,0,1,1612.74,672Z"/><polygon class="cls-4" points="1573.07 713.18 1588.94 713.18 1588.94 720.55 1565.69 720.55 1564.12 722.13 1546.15 740.11 1535.83 750.42 1530.61 745.21 1540.94 734.89 1558.91 716.91 1560.48 715.34 1560.48 692.09 1567.85 692.09 1567.85 707.97 1583.78 692.04 1588.99 697.26 1573.07 713.18"/><path class="cls-2" d="M2004.33,544.07h-47.11l-23.56-40.8,23.56-40.8h47.11l23.56,40.8Zm-43.07-7h39l19.52-33.8-19.52-33.8h-39l-19.52,33.8Z"/><path class="cls-4" d="M1980.77,523.67a20.4,20.4,0,1,1,20.41-20.4A20.42,20.42,0,0,1,1980.77,523.67Zm0-33.8a13.4,13.4,0,1,0,13.41,13.4A13.41,13.41,0,0,0,1980.77,489.87Z"/><path class="cls-4" d="M1367.87,710.68a20.94,20.94,0,1,1,20.94-20.94A21,21,0,0,1,1367.87,710.68Zm0-34.88a13.94,13.94,0,1,0,13.94,13.94A13.95,13.95,0,0,0,1367.87,675.8Z"/><path class="cls-2" d="M1407,749.89h-7a32.12,32.12,0,0,0-64.24,0h-7a39.12,39.12,0,0,1,78.24,0Z"/><path class="cls-2" d="M1601.69,544h-55.15v-7h55.15a6.33,6.33,0,0,0,0-12.66h-17.48A13.35,13.35,0,0,1,1570.88,511v-2.18a13.35,13.35,0,0,1,13.33-13.33h14.69v7h-14.69a6.33,6.33,0,0,0-6.33,6.33V511a6.34,6.34,0,0,0,6.33,6.33h17.48a13.33,13.33,0,0,1,0,26.66Z"/><path class="cls-4" d="M1547.28,544a3.5,3.5,0,0,1-3-1.77L1530,517.07a20.06,20.06,0,0,1-.15-19.63,19.31,19.31,0,0,1,15.9-10.17,21,21,0,0,1,3.8.11,19.19,19.19,0,0,1,15,10.48,20.16,20.16,0,0,1-.23,18.94l-13.91,25.34a3.5,3.5,0,0,1-3,1.82Zm-.31-49.73-.84,0a12.21,12.21,0,0,0-10.17,6.53,13.09,13.09,0,0,0,.1,12.82l11.17,19.67,10.89-19.85h0a13.15,13.15,0,0,0,.15-12.37,12.3,12.3,0,0,0-9.58-6.73A14.06,14.06,0,0,0,1547,494.23Z"/><path class="cls-4" d="M1600,502.6a3.5,3.5,0,0,1-3-1.77l-9.5-16.71a14.53,14.53,0,0,1-.11-14.2,14,14,0,0,1,11.55-7.38,14.58,14.58,0,0,1,2.72.08,14.08,14.08,0,0,1,10.87,7.6,14.55,14.55,0,0,1-.17,13.7h0L1603,500.78a3.51,3.51,0,0,1-3,1.82Zm-.21-33.09-.49,0a7,7,0,0,0-5.8,3.73,7.58,7.58,0,0,0,0,7.4l6.4,11.26,6.24-11.37h0a7.59,7.59,0,0,0,.08-7.13,7,7,0,0,0-5.47-3.85A8.43,8.43,0,0,0,1599.74,469.51Z"/><path class="cls-2" d="M1399.26,337.35h-62.77a3.69,3.69,0,0,1-3.69-3.68V261.59a3.69,3.69,0,0,1,3.69-3.69h62.77a3.69,3.69,0,0,1,3.68,3.69v72.08A3.68,3.68,0,0,1,1399.26,337.35ZM1340.17,330h55.4V265.27h-55.4Z"/><polygon class="cls-4" points="1373.59 280.94 1373.59 288.31 1365.11 288.31 1365.11 296.79 1357.74 296.79 1357.74 288.31 1349.26 288.31 1349.26 280.94 1357.74 280.94 1357.74 272.46 1365.11 272.46 1365.11 280.94 1373.59 280.94"/><rect class="cls-4" x="1370.53" y="313.9" width="16.63" height="7.37"/><path class="cls-2" d="M2003.76,751.72h-46a7.5,7.5,0,0,1-7.5-7.5V674.47a7.5,7.5,0,0,1,7.5-7.5h46a7.51,7.51,0,0,1,7.5,7.5v69.75A7.51,7.51,0,0,1,2003.76,751.72Zm-46-77.75a.5.5,0,0,0-.5.5v69.75a.5.5,0,0,0,.5.5h46a.5.5,0,0,0,.5-.5V674.47a.5.5,0,0,0-.5-.5Z"/><rect class="cls-4" x="1976.99" y="732.94" width="7.57" height="7"/><path class="cls-2" d="M1774.36,338.12a40.5,40.5,0,1,1,40.49-40.49A40.53,40.53,0,0,1,1774.36,338.12Zm0-73.61a33.12,33.12,0,1,0,33.12,33.12A33.15,33.15,0,0,0,1774.36,264.51Z"/><rect class="cls-4" x="1770.68" y="274" width="7.37" height="13.52"/><rect class="cls-4" x="1781.08" y="306.03" width="7.37" height="13.52" transform="translate(157.02 1108.83) rotate(-36)"/><rect class="cls-4" x="1753.83" y="286.23" width="7.37" height="13.52" transform="translate(935.76 1873.95) rotate(-72)"/><rect class="cls-4" x="1784.44" y="289.31" width="13.52" height="7.37" transform="translate(-2.88 567.81) rotate(-18)"/><rect class="cls-4" x="1757.19" y="309.11" width="13.52" height="7.37" transform="translate(474.1 1556.03) rotate(-54)"/><path class="cls-2" d="M1367.87,544.1a40.83,40.83,0,1,1,40.83-40.83A40.87,40.87,0,0,1,1367.87,544.1Zm0-74.66a33.83,33.83,0,1,0,33.83,33.83A33.86,33.86,0,0,0,1367.87,469.44Z"/><polygon class="cls-4" points="1362.84 521.73 1346.19 505.08 1351.14 500.13 1362.84 511.83 1385.91 488.75 1390.86 493.7 1362.84 521.73"/><path class="cls-2" d="M1801.05,669.34h-28.94a42.29,42.29,0,0,0-42.24,42.24v13a7.38,7.38,0,0,1,.82,0,8.91,8.91,0,0,1,6.18,2.49V711.58a35.28,35.28,0,0,1,35.24-35.24h28.94a25.58,25.58,0,0,1,25.55,25.56V731a8.72,8.72,0,0,1,.35,2.47,9,9,0,0,1-1.79,5.37h4.94a3.5,3.5,0,0,0,3.5-3.5V701.9A32.59,32.59,0,0,0,1801.05,669.34Zm8.2,62.46h-69.79a8.75,8.75,0,0,1,.15,1.63,9,9,0,0,1-1.79,5.37h73.08a8.9,8.9,0,0,1-1.8-5.37A8.75,8.75,0,0,1,1809.25,731.8Z"/><path class="cls-4" d="M1743,731.8a12.42,12.42,0,0,0-12.31-10.8c-.28,0-.55,0-.82,0a12.42,12.42,0,1,0,12,17.77,12.21,12.21,0,0,0,1.23-5.37A12.51,12.51,0,0,0,1743,731.8Zm-12.31,10.55a8.92,8.92,0,0,1-.82-17.81,7.38,7.38,0,0,1,.82,0,8.92,8.92,0,0,1,8.77,7.3,8.75,8.75,0,0,1,.15,1.63,8.91,8.91,0,0,1-8.92,8.92Z"/><path class="cls-4" d="M1746.53,731.8a16,16,0,0,0-9.66-13,15.73,15.73,0,0,0-6.18-1.26l-.82,0a15.93,15.93,0,1,0,15.8,21.28,15.71,15.71,0,0,0,.94-5.37C1746.61,732.88,1746.58,732.34,1746.53,731.8Zm-6.92,1.63a8.92,8.92,0,1,1-9.74-8.89,7.38,7.38,0,0,1,.82,0,8.92,8.92,0,0,1,8.77,7.3A8.75,8.75,0,0,1,1739.61,733.43Z"/><path class="cls-4" d="M1826.6,724.44a12.42,12.42,0,0,0-20.89,7.36,12.51,12.51,0,0,0-.11,1.63,12.21,12.21,0,0,0,1.23,5.37,12.41,12.41,0,0,0,22.39,0,12.21,12.21,0,0,0,1.23-5.37A12.38,12.38,0,0,0,1826.6,724.44ZM1818,742.35a8.92,8.92,0,0,1-8.93-8.92,8.75,8.75,0,0,1,.15-1.63,8.92,8.92,0,0,1,17.35-.84,8.72,8.72,0,0,1,.35,2.47,8.91,8.91,0,0,1-8.92,8.92Z"/><path class="cls-4" d="M1833.6,730.09a15.94,15.94,0,0,0-7-10.07,15.7,15.7,0,0,0-8.57-2.52,16,16,0,0,0-15.85,14.3c0,.54-.08,1.08-.08,1.63a15.71,15.71,0,0,0,.94,5.37,15.92,15.92,0,0,0,30.56-8.71Zm-8.44,8.71a8.93,8.93,0,0,1-16.06-5.37,8.75,8.75,0,0,1,.15-1.63,8.92,8.92,0,0,1,17.35-.84,8.72,8.72,0,0,1,.35,2.47A9,9,0,0,1,1825.16,738.8Z"/><rect class="cls-2" x="1777.04" y="682.81" width="7" height="42.13"/><path class="cls-2" d="M1597.86,257.63h-28.93a42.27,42.27,0,0,0-42.24,42.23v13a7.32,7.32,0,0,1,.81,0,8.89,8.89,0,0,1,6.19,2.5V299.86a35.27,35.27,0,0,1,35.24-35.23h28.93a25.58,25.58,0,0,1,25.55,25.55v29.06a8.72,8.72,0,0,1,.35,2.47,8.85,8.85,0,0,1-1.81,5.38h5a3.5,3.5,0,0,0,3.5-3.5V290.18A32.58,32.58,0,0,0,1597.86,257.63Zm8.2,62.46h-69.78a8.72,8.72,0,0,1,.15,1.62,8.85,8.85,0,0,1-1.81,5.38h73.1a8.85,8.85,0,0,1-1.81-5.38A8.72,8.72,0,0,1,1606.06,320.09Z"/><path class="cls-4" d="M1539.82,320.09a12.42,12.42,0,0,0-12.32-10.8l-.81,0a12.42,12.42,0,1,0,12,17.77,12.29,12.29,0,0,0,1.12-7Zm-12.32,10.55a8.92,8.92,0,0,1-.81-17.81,7.32,7.32,0,0,1,.81,0,8.95,8.95,0,0,1,8.78,7.3,8.72,8.72,0,0,1,.15,1.62,8.94,8.94,0,0,1-8.93,8.93Z"/><path class="cls-4" d="M1543.35,320.09a15.93,15.93,0,0,0-15.85-14.3l-.81,0a15.93,15.93,0,1,0,15.8,21.28,15.72,15.72,0,0,0,.94-5.38C1543.43,321.16,1543.4,320.63,1543.35,320.09Zm-6.92,1.62a8.93,8.93,0,1,1-9.74-8.88,7.32,7.32,0,0,1,.81,0,8.95,8.95,0,0,1,8.78,7.3A8.72,8.72,0,0,1,1536.43,321.71Z"/><path class="cls-4" d="M1623.41,312.73a12.39,12.39,0,1,0,3.85,9A12.34,12.34,0,0,0,1623.41,312.73Zm-8.57,17.91a8.94,8.94,0,0,1-8.93-8.93,8.72,8.72,0,0,1,.15-1.62,8.92,8.92,0,0,1,17.35-.85,8.72,8.72,0,0,1,.35,2.47,8.94,8.94,0,0,1-8.92,8.93Z"/><path class="cls-4" d="M1630.41,318.38a15.92,15.92,0,0,0-7-10.07,15.7,15.7,0,0,0-8.57-2.52,16,16,0,0,0-15.85,14.3c0,.54-.08,1.07-.08,1.62a15.72,15.72,0,0,0,.94,5.38,15.92,15.92,0,0,0,30.56-8.71Zm-8.46,8.71a8.93,8.93,0,0,1-16-5.38,8.72,8.72,0,0,1,.15-1.62,8.92,8.92,0,0,1,17.35-.85,8.72,8.72,0,0,1,.35,2.47A8.85,8.85,0,0,1,1622,327.09Z"/><rect class="cls-2" x="1573.85" y="271.1" width="7" height="42.13"/><path class="cls-2" d="M1773.45,514.25H1748.6a3.73,3.73,0,0,1-3.09-5.81l32.16-47.77,6.18,4.17-28.25,42h17.85Z"/><path class="cls-4" d="M1771.06,545.87l-6.18-4.16,28.25-42h-17.86v-7.45h24.85a3.73,3.73,0,0,1,3.09,5.81Z"/><path class="cls-2" d="M2001.24,338.22a23.63,23.63,0,0,1-23.61-23.61v-34A16.63,16.63,0,0,0,1961,264h-2.46A16.63,16.63,0,0,0,1942,280.65v15.67h-7V280.65A23.63,23.63,0,0,1,1958.56,257H1961a23.63,23.63,0,0,1,23.61,23.61v34a16.62,16.62,0,0,0,33.23,0V296.32h7v18.29A23.64,23.64,0,0,1,2001.24,338.22Z"/><rect class="cls-4" x="1924.82" y="293.26" width="111.9" height="7"/><path class="cls-2" d="M2001.24,338.22a23.63,23.63,0,0,1-23.61-23.61v-34A16.63,16.63,0,0,0,1961,264h-2.46A16.63,16.63,0,0,0,1942,280.65h-7A23.63,23.63,0,0,1,1958.56,257H1961a23.63,23.63,0,0,1,23.61,23.61v34a16.62,16.62,0,0,0,33.23,0h7A23.64,23.64,0,0,1,2001.24,338.22Z"/></g><g class="cls-6"><path class="cls-7" d="M801.5,465.89v33.8a37.5,37.5,0,0,1-55.42,32.94l5.48-5.5a30.13,30.13,0,0,0,42.57-27.44V469.57H764a30.15,30.15,0,0,0-27.41,42.62l-5.5,5.5A37.54,37.54,0,0,1,764,462.2h33.82A3.69,3.69,0,0,1,801.5,465.89Z"/><polygon class="cls-4" points="761.83 507.11 777.71 507.11 777.71 514.48 754.46 514.48 752.88 516.05 734.91 534.03 724.59 544.35 719.38 539.13 729.7 528.82 747.67 510.84 749.25 509.26 749.25 486.01 756.62 486.01 756.62 501.89 772.54 485.97 777.75 491.18 761.83 507.11"/><path class="cls-7" d="M987.27,338.43H940.16l-23.56-40.8,23.56-40.81h47.11l23.56,40.81Zm-43.07-7h39l19.52-33.8-19.52-33.81h-39l-19.52,33.81Z"/><path class="cls-4" d="M963.72,318a20.41,20.41,0,1,1,20.4-20.4A20.43,20.43,0,0,1,963.72,318Zm0-33.81a13.41,13.41,0,1,0,13.4,13.41A13.43,13.43,0,0,0,963.72,284.22Z"/><path class="cls-4" d="M552.89,504.6a20.94,20.94,0,1,1,20.94-20.93A21,21,0,0,1,552.89,504.6Zm0-34.87a13.94,13.94,0,1,0,13.94,13.94A14,14,0,0,0,552.89,469.73Z"/><path class="cls-7" d="M592,543.81h-7a32.12,32.12,0,0,0-64.24,0h-7a39.12,39.12,0,0,1,78.24,0Z"/><path class="cls-7" d="M583.4,338.39H528.26v-7H583.4a6.33,6.33,0,1,0,0-12.66H565.93A13.35,13.35,0,0,1,552.6,305.4v-2.19a13.35,13.35,0,0,1,13.33-13.33h14.68v7H565.93a6.34,6.34,0,0,0-6.33,6.33v2.19a6.34,6.34,0,0,0,6.33,6.33H583.4a13.33,13.33,0,1,1,0,26.66Z"/><path class="cls-4" d="M529,338.31a3.5,3.5,0,0,1-3-1.77l-14.27-25.11a20.09,20.09,0,0,1-.15-19.63,19.32,19.32,0,0,1,15.91-10.18,21.84,21.84,0,0,1,3.79.12,19.17,19.17,0,0,1,15,10.47,20.15,20.15,0,0,1-.23,19L532.06,336.5a3.49,3.49,0,0,1-3,1.81Zm-.31-49.72-.85,0a12.19,12.19,0,0,0-10.16,6.53,13.11,13.11,0,0,0,.09,12.83l11.17,19.67,10.89-19.85h0a13.15,13.15,0,0,0,.15-12.37,12.28,12.28,0,0,0-9.58-6.73A13.89,13.89,0,0,0,528.69,288.59Z"/><path class="cls-4" d="M581.66,297a3.5,3.5,0,0,1-3-1.78l-9.49-16.71a14.53,14.53,0,0,1-.12-14.2,14,14,0,0,1,11.55-7.38,15.58,15.58,0,0,1,2.73.09,14.12,14.12,0,0,1,10.87,7.59,14.62,14.62,0,0,1-.17,13.71h0l-9.26,16.86a3.5,3.5,0,0,1-3,1.82Zm-.2-33.09H581a7,7,0,0,0-5.81,3.74,7.58,7.58,0,0,0,.05,7.4l6.4,11.26,6.24-11.37h0a7.59,7.59,0,0,0,.08-7.13,7,7,0,0,0-5.47-3.85A8.39,8.39,0,0,0,581.46,263.87Z"/><path class="cls-7" d="M382.56,137.09H319.8a3.69,3.69,0,0,1-3.69-3.69V61.32a3.69,3.69,0,0,1,3.69-3.68h62.76a3.69,3.69,0,0,1,3.69,3.68V133.4A3.69,3.69,0,0,1,382.56,137.09Zm-59.08-7.37h55.4V65h-55.4Z"/><polygon class="cls-4" points="356.9 80.67 356.9 88.04 348.42 88.04 348.42 96.52 341.05 96.52 341.05 88.04 332.57 88.04 332.57 80.67 341.05 80.67 341.05 72.19 348.42 72.19 348.42 80.67 356.9 80.67"/><rect class="cls-4" x="353.83" y="113.64" width="16.63" height="7.37"/><path class="cls-4" d="M994.55,491.59h-7a23.84,23.84,0,1,0-47.67,0h-7a30.84,30.84,0,1,1,61.67,0Z"/><path class="cls-7" d="M1002.29,545.79H925.14V490.65h77.15Zm-70.15-7h63.15V497.65H932.14Z"/><rect class="cls-4" x="960.22" y="508.91" width="7" height="14.44"/><path class="cls-7" d="M343,527.27A32.23,32.23,0,1,1,375.18,495,32.27,32.27,0,0,1,343,527.27Zm0-57.45A25.23,25.23,0,1,0,368.18,495,25.25,25.25,0,0,0,343,469.82Z"/><rect class="cls-4" x="376.05" y="518.05" width="7" height="27.18" transform="translate(-264.76 424.1) rotate(-45)"/><path class="cls-7" d="M760.44,137.86a40.5,40.5,0,1,1,40.49-40.5A40.54,40.54,0,0,1,760.44,137.86Zm0-73.62a33.13,33.13,0,1,0,33.12,33.12A33.15,33.15,0,0,0,760.44,64.24Z"/><rect class="cls-4" x="756.75" y="73.73" width="7.37" height="13.52"/><rect class="cls-4" x="767.16" y="105.77" width="7.37" height="13.52" transform="translate(81.08 474.59) rotate(-36)"/><rect class="cls-4" x="739.91" y="85.97" width="7.37" height="13.52" transform="translate(425.62 771.27) rotate(-72)"/><rect class="cls-4" x="770.52" y="89.04" width="13.52" height="7.37" transform="translate(9.38 244.71) rotate(-18)"/><rect class="cls-4" x="743.27" y="108.84" width="13.52" height="7.37" transform="translate(218.15 653.18) rotate(-54)"/><path class="cls-7" d="M351.18,338.45A40.83,40.83,0,1,1,392,297.63,40.87,40.87,0,0,1,351.18,338.45Zm0-74.65A33.83,33.83,0,1,0,385,297.63,33.87,33.87,0,0,0,351.18,263.8Z"/><polygon class="cls-4" points="346.14 316.08 329.5 299.44 334.45 294.49 346.14 306.18 369.22 283.11 374.17 288.06 346.14 316.08"/><path class="cls-7" d="M579.57,57.56H550.64A42.29,42.29,0,0,0,508.4,99.8v13a7.38,7.38,0,0,1,.82,0,8.85,8.85,0,0,1,6.18,2.5V99.8a35.28,35.28,0,0,1,35.24-35.24h28.93a25.59,25.59,0,0,1,25.56,25.56v29.06a8.72,8.72,0,0,1,.35,2.47,8.9,8.9,0,0,1-1.8,5.37h5a3.5,3.5,0,0,0,3.5-3.5V90.12A32.6,32.6,0,0,0,579.57,57.56ZM587.78,120H518a8.75,8.75,0,0,1,.15,1.63,8.9,8.9,0,0,1-1.8,5.37h73.08a9,9,0,0,1-1.79-5.37A8.75,8.75,0,0,1,587.78,120Z"/><path class="cls-4" d="M521.53,120a12.42,12.42,0,0,0-12.31-10.8c-.28,0-.55,0-.82,0a12.42,12.42,0,1,0,12,17.77,12.21,12.21,0,0,0,1.23-5.37A12.51,12.51,0,0,0,521.53,120Zm-12.31,10.55a8.92,8.92,0,0,1-.82-17.81,7.38,7.38,0,0,1,.82,0A8.95,8.95,0,0,1,518,120a8.75,8.75,0,0,1,.15,1.63,8.92,8.92,0,0,1-8.92,8.92Z"/><path class="cls-4" d="M525.06,120a16,16,0,0,0-9.66-13,15.73,15.73,0,0,0-6.18-1.26l-.82,0A15.93,15.93,0,1,0,524.2,127a15.71,15.71,0,0,0,.94-5.37C525.14,121.1,525.11,120.56,525.06,120Zm-6.92,1.63a8.93,8.93,0,1,1-9.74-8.89,7.38,7.38,0,0,1,.82,0A8.95,8.95,0,0,1,518,120,8.75,8.75,0,0,1,518.14,121.65Z"/><path class="cls-4" d="M605.13,112.66A12.42,12.42,0,0,0,584.24,120a12.51,12.51,0,0,0-.11,1.63,12.21,12.21,0,0,0,1.23,5.37,12.41,12.41,0,0,0,22.39,0,12.21,12.21,0,0,0,1.23-5.37A12.4,12.4,0,0,0,605.13,112.66Zm-8.58,17.91a8.91,8.91,0,0,1-8.92-8.92,8.75,8.75,0,0,1,.15-1.63,8.92,8.92,0,0,1,17.35-.84,8.72,8.72,0,0,1,.35,2.47,8.92,8.92,0,0,1-8.93,8.92Z"/><path class="cls-4" d="M612.13,118.31a16,16,0,0,0-7-10.07A15.91,15.91,0,0,0,580.71,120c-.05.54-.08,1.08-.08,1.63a15.71,15.71,0,0,0,.94,5.37,15.92,15.92,0,0,0,30.56-8.71ZM603.68,127a8.92,8.92,0,0,1-16-5.37,8.75,8.75,0,0,1,.15-1.63,8.92,8.92,0,0,1,17.35-.84,8.72,8.72,0,0,1,.35,2.47A8.9,8.9,0,0,1,603.68,127Z"/><rect class="cls-7" x="555.57" y="71.03" width="7" height="42.13"/><path class="cls-7" d="M759.53,308.61H734.67a3.73,3.73,0,0,1-3.08-5.81L763.74,255l6.18,4.16-28.25,42h17.86Z"/><path class="cls-4" d="M757.13,340.22,751,336.06l28.25-42H761.35v-7.45H786.2a3.73,3.73,0,0,1,3.09,5.81Z"/><path class="cls-7" d="M984.19,138a23.65,23.65,0,0,1-23.62-23.62V80.39A16.63,16.63,0,0,0,944,63.77H941.5a16.63,16.63,0,0,0-16.61,16.62V96.05h-7V80.39A23.64,23.64,0,0,1,941.5,56.77H944a23.64,23.64,0,0,1,23.61,23.62v34a16.62,16.62,0,1,0,33.23,0V96.05h7v18.29A23.64,23.64,0,0,1,984.19,138Z"/><rect class="cls-4" x="907.77" y="92.99" width="111.9" height="7"/><path class="cls-7" d="M984.19,138a23.65,23.65,0,0,1-23.62-23.62V80.39A16.63,16.63,0,0,0,944,63.77H941.5a16.63,16.63,0,0,0-16.61,16.62h-7A23.64,23.64,0,0,1,941.5,56.77H944a23.64,23.64,0,0,1,23.61,23.62v34a16.62,16.62,0,1,0,33.23,0h7A23.64,23.64,0,0,1,984.19,138Z"/></g></g></g></svg>