<?xml version="1.0" encoding="UTF-8"?>
<svg width="414px" height="44px" viewBox="0 0 414 44" version="1.1" xmlns="http://www.w3.org/2000/svg" xmlns:xlink="http://www.w3.org/1999/xlink">
    <!-- Generator: Sketch 64 (93537) - https://sketch.com -->
    <title>Group 24 Copy</title>
    <desc>Created with Sketch.</desc>
    <defs>
        <polygon id="path-1" points="0 0.0540250842 44.945841 0.0540250842 44.945841 42.855858 0 42.855858"></polygon>
        <polygon id="path-3" points="0.109554393 0.0434336634 34.9392406 0.0434336634 34.9392406 44 0.109554393 44"></polygon>
        <polygon id="path-5" points="0 44 414 44 414 0 0 0"></polygon>
    </defs>
    <g id="Page-1" stroke="none" stroke-width="1" fill="none" fill-rule="evenodd">
        <g id="PARENT-IDENTITY_1" transform="translate(-195.000000, -379.000000)">
            <g id="Group-24-Copy" transform="translate(195.000000, 379.000000)">
                <g id="Group-3" transform="translate(0.000000, 1.000000)">
                    <mask id="mask-2" fill="white">
                        <use xlink:href="#path-1"></use>
                    </mask>
                    <g id="Clip-2"></g>
                    <path d="M10.4875216,21.4311567 C10.4796515,27.7152171 15.8410152,32.841452 22.4323788,32.8525814 C29.0573788,32.8638178 34.4181364,27.7723581 34.4365164,21.4519352 C34.454803,15.2068346 29.0714697,10.0606869 22.5158636,10.0556328 C15.8728333,10.0505862 10.4952576,15.1364185 10.4875216,21.4311567 M22.4399545,0.0540250842 C34.8752576,0.0239385906 44.9034394,9.57455604 44.945841,21.4881534 C44.9873788,33.2264319 34.9172273,42.791046 22.4488939,42.855858 C10.1860152,42.9190359 0.0178333333,33.2853044 -7.02513225e-05,21.586707 C-0.0182272727,9.66315336 9.9645,0.0842540268 22.4399545,0.0540250842" id="Fill-1" fill="#000000" mask="url(#mask-2)"></path>
                </g>
                <path d="M93.0438157,0 C101.378577,14.360756 109.666892,28.6417709 118,43 C117.753039,43 117.61385,43 117.474512,43 C113.899057,42.99533 110.323602,42.9849666 106.748147,42.9950422 C106.374023,42.9960497 106.185833,42.8745667 106.008916,42.5678366 C101.781712,35.237692 97.543234,27.9134488 93.306109,20.5884858 C93.2366651,20.4682983 93.1609082,20.3514213 93.0614022,20.1897799 C92.9655036,20.3321337 92.8856883,20.4386472 92.8186494,20.5520697 C88.481417,27.8714191 84.1422306,35.1897609 79.8186765,42.5164511 C79.6184618,42.855567 79.4051701,42.967982 79.0094005,42.967982 C75.4486762,42.9671184 71.8879519,42.9865499 68.3272277,42.9992163 C68.243354,42.9995042 68.15933,42.990724 68,42.9820878 C76.3502434,28.650695 84.6761363,14.3611878 93.0438157,0" id="Fill-4" fill="#000000"></path>
                <path d="M57.0154722,33.9757031 L70,33.9757031 C69.8798095,34.1915757 69.8102175,34.3250453 69.7328762,34.4541627 C67.8979573,37.521643 66.0595436,40.5872373 64.2320702,43.6587796 C64.0924304,43.893367 63.9451932,44.000578 63.6522383,44 C58.2316606,43.9915833 52.8110829,43.993034 47.3905053,43.9908579 C47.260894,43.9908579 47.1312827,43.9724333 47,43.9624231 L47,1 L57.0154722,1 L57.0154722,33.9757031 Z" id="Fill-6" fill="#000000"></path>
                <polygon id="Fill-8" fill="#000000" points="134 44 134 1 162 1 162 5.10683704 139.04003 5.10683704 139.04003 20.0843374 160.755556 20.0843374 160.755556 24.2514516 139.04003 24.2514516 139.04003 39.8933082 162 39.8933082 162 44"></polygon>
                <polygon id="Fill-10" fill="#000000" points="170 44 170 1 175.043345 1 175.043345 39.7726086 197 39.7726086 197 44"></polygon>
                <polygon id="Fill-12" fill="#000000" points="204 44 204 1 232 1 232 5.10683704 209.04003 5.10683704 209.04003 20.0843374 230.755556 20.0843374 230.755556 24.2514516 209.04003 24.2514516 209.04003 39.8933082 232 39.8933082 232 44"></polygon>
                <g id="Group-16" transform="translate(239.000000, 0.000000)">
                    <mask id="mask-4" fill="white">
                        <use xlink:href="#path-3"></use>
                    </mask>
                    <g id="Clip-15"></g>
                    <path d="M9.51723222,41.3433149 C6.49273431,39.572569 4.16838285,37.0262323 2.54520293,33.7051762 C0.921144351,30.3842653 0.109554393,26.4700079 0.109554393,21.9612422 C0.109554393,17.4534931 0.921144351,13.55913 2.54520293,10.2777175 C4.16838285,6.99732145 6.49273431,4.47189571 9.51723222,2.70013333 C12.540705,0.929242244 16.10309,0.0434336634 20.2036548,0.0434336634 C23.2072113,0.0434336634 25.9578598,0.496212541 28.4542824,1.40191551 C30.9508515,2.30761848 33.1125042,3.66610033 34.9392406,5.47765149 L33.0515837,9.28154587 C30.9813117,7.5108 28.9415,6.24264158 26.9320021,5.47765149 C24.9226506,4.71338746 22.7002238,4.33031155 20.2645753,4.33031155 C15.5149728,4.33031155 11.8311862,5.86058218 9.21277615,8.91923564 C6.59451255,11.9787604 5.28530753,16.3261927 5.28530753,21.9612422 C5.28530753,27.6369518 6.58396862,32.0145888 9.1823159,35.0940079 C11.7796381,38.1734271 15.4741151,39.7129914 20.2645753,39.7129914 C22.7002238,39.7129914 24.9226506,39.3310772 26.9320021,38.5657967 C28.9415,37.8015327 30.9813117,36.5336647 33.0515837,34.7619023 L34.9392406,38.5657967 C33.1125042,40.3773479 30.9508515,41.7358297 28.4542824,42.6413875 C25.9578598,43.5472356 23.2072113,44.0000145 20.2036548,44.0000145 C16.10309,44.0000145 12.540705,43.1150772 9.51723222,41.3433149" id="Fill-14" fill="#000000" mask="url(#mask-4)"></path>
                </g>
                <polygon id="Fill-17" fill="#000000" points="292.991319 44 292.991319 5.22753666 278 5.22753666 278 1 313 1 313 5.22753666 298.008681 5.22753666 298.008681 44"></polygon>
                <path d="M337.280904,21.1109377 C344.126196,21.1109377 347.549219,18.4140058 347.549219,13.0182537 C347.549219,10.360974 346.713792,8.37836304 345.044895,7.0695493 C343.374793,5.76160703 340.787198,5.1066918 337.280904,5.1066918 L325.071591,5.1066918 L325.071591,21.1109377 L337.280904,21.1109377 Z M355,44 L349.552858,44 L344.042924,29.6868559 C343.374793,27.9155782 342.446457,26.727464 341.256712,26.1236755 C340.067116,25.5197417 338.386474,25.2176295 336.216592,25.2176295 L325.071591,25.2176295 L325.071591,44 L320,44 L320,1 L337.719247,1 C342.518737,1 346.203169,2.02660033 348.770286,4.08009147 C351.337251,6.13343737 352.62081,9.09268398 352.62081,12.9578313 C352.62081,15.7764796 351.858716,18.1422501 350.335431,20.0541262 C348.811244,21.9668737 346.610041,23.3256522 343.729865,24.1306068 C345.023211,24.3326443 346.129836,24.8658432 347.048384,25.7310749 C347.966029,26.5971782 348.738965,27.8354022 349.364933,29.4451662 L355,44 Z" id="Fill-19" fill="#000000"></path>
                <mask id="mask-6" fill="white">
                    <use xlink:href="#path-5"></use>
                </mask>
                <g id="Clip-22"></g>
                <polygon id="Fill-21" fill="#000000" mask="url(#mask-6)" points="364 44 369 44 369 1 364 1"></polygon>
                <path d="M388.45368,41.3406761 C385.414393,39.5681811 383.078676,37.0193293 381.447559,33.6949927 C379.815559,30.3708016 379,26.4526777 379,21.9394584 C379,17.4272566 379.815559,13.5290468 381.447559,10.244393 C383.078676,6.96075665 385.414393,4.43283636 388.45368,2.65932389 C391.491938,0.886683559 395.071742,0 399.192359,0 C402.210602,0 404.974701,0.453226121 407.483331,1.35982372 C409.992108,2.26642132 412.164331,3.62624504 414,5.4395856 L412.103113,9.24723737 C410.022717,7.4747424 407.972931,6.20533133 405.953607,5.4395856 C403.93443,4.67456665 401.701136,4.29111235 399.253577,4.29111235 C394.480749,4.29111235 390.778949,5.82289454 388.147736,8.88456926 C385.516669,11.9471161 384.201062,16.2988428 384.201062,21.9394584 C384.201062,27.6207743 385.506073,32.0027354 388.117126,35.0851963 C390.727149,38.1676572 394.439692,39.7087423 399.253577,39.7087423 C401.701136,39.7087423 403.93443,39.3264509 405.953607,38.5604144 C407.972931,37.7953955 410.022717,36.5262751 412.103113,34.7527626 L414,38.5604144 C412.164331,40.373755 409.992108,41.7335787 407.483331,42.6400309 C404.974701,43.5467739 402.210602,44 399.192359,44 C395.071742,44 391.491938,43.1141886 388.45368,41.3406761" id="Fill-23" fill="#000000" mask="url(#mask-6)"></path>
            </g>
        </g>
    </g>
</svg>