<?xml version="1.0" encoding="UTF-8"?>
<svg width="553px" height="95px" viewBox="0 0 553 95" version="1.1" xmlns="http://www.w3.org/2000/svg" xmlns:xlink="http://www.w3.org/1999/xlink">
    <!-- Generator: Sketch 64 (93537) - https://sketch.com -->
    <title>Group 11</title>
    <desc>Created with Sketch.</desc>
    <g id="Page-1" stroke="none" stroke-width="1" fill="none" fill-rule="evenodd">
        <g id="Artboard-Copy" transform="translate(-276.000000, -833.000000)" fill-rule="nonzero">
            <g id="Group-11" transform="translate(276.250000, 833.000000)">
                <g id="Group-9" fill="#FFFFFF">
                    <g id="Group-Copy" transform="translate(66.750000, 19.000000)">
                        <path d="M27,-0.75 C11.6740982,-0.75 -0.75,11.6740982 -0.75,27 C-0.75,42.3259018 11.6740982,54.75 27,54.75 C42.3259018,54.75 54.75,42.3259018 54.75,27 C54.75,11.6740982 42.3259018,-0.75 27,-0.75 Z M27,0.75 C41.4974747,0.75 53.25,12.5025253 53.25,27 C53.25,41.4974747 41.4974747,53.25 27,53.25 C12.5025253,53.25 0.75,41.4974747 0.75,27 C0.75,12.5025253 12.5025253,0.75 27,0.75 Z" id="Oval"></path>
                        <path d="M49.75,-0.75 L4.25,-0.75 L4.25,54.75 L49.75,54.75 L49.75,-0.75 Z M48.25,0.75 L48.25,53.25 L5.75,53.25 L5.75,0.75 L48.25,0.75 Z" id="Rectangle"></path>
                        <path d="M39.75,8.25 L14.25,8.25 L14.25,46.75 L39.75,46.75 L39.75,8.25 Z M38.25,9.75 L38.25,45.25 L15.75,45.25 L15.75,9.75 L38.25,9.75 Z" id="Rectangle"></path>
                    </g>
                    <g id="Group-3-Copy" transform="translate(349.750000, 16.000000)">
                        <path d="M28,0.25 C12.6740982,0.25 0.25,12.6740982 0.25,28 C0.25,43.3259018 12.6740982,55.75 28,55.75 C43.3259018,55.75 55.75,43.3259018 55.75,28 C55.75,12.6740982 43.3259018,0.25 28,0.25 Z M28,1.75 C42.4974747,1.75 54.25,13.5025253 54.25,28 C54.25,42.4974747 42.4974747,54.25 28,54.25 C13.5025253,54.25 1.75,42.4974747 1.75,28 C1.75,13.5025253 13.5025253,1.75 28,1.75 Z" id="Oval"></path>
                        <path d="M50.75,0.25 L5.25,0.25 L5.25,55.75 L50.75,55.75 L50.75,0.25 Z M49.25,1.75 L49.25,54.25 L6.75,54.25 L6.75,1.75 L49.25,1.75 Z" id="Rectangle"></path>
                        <path d="M41.75,8.25 L14.25,8.25 L14.25,47.75 L41.75,47.75 L41.75,8.25 Z M40.25,9.75 L40.25,46.25 L15.75,46.25 L15.75,9.75 L40.25,9.75 Z" id="Rectangle"></path>
                    </g>
                    <g id="Group-2-Copy" transform="translate(211.750000, 21.000000)">
                        <path d="M26,-0.75 C11.2263829,-0.75 -0.75,11.2263829 -0.75,26 C-0.75,40.7736171 11.2263829,52.75 26,52.75 C40.7736171,52.75 52.75,40.7736171 52.75,26 C52.75,11.2263829 40.7736171,-0.75 26,-0.75 Z M26,0.75 C39.9451899,0.75 51.25,12.0548101 51.25,26 C51.25,39.9451899 39.9451899,51.25 26,51.25 C12.0548101,51.25 0.75,39.9451899 0.75,26 C0.75,12.0548101 12.0548101,0.75 26,0.75 Z" id="Oval-Copy"></path>
                        <path d="M26,20.25 C11.2263829,20.25 -0.75,32.2263829 -0.75,47 C-0.75,61.7736171 11.2263829,73.75 26,73.75 C40.7736171,73.75 52.75,61.7736171 52.75,47 C52.75,32.2263829 40.7736171,20.25 26,20.25 Z M26,21.75 C39.9451899,21.75 51.25,33.0548101 51.25,47 C51.25,60.9451899 39.9451899,72.25 26,72.25 C12.0548101,72.25 0.75,60.9451899 0.75,47 C0.75,33.0548101 12.0548101,21.75 26,21.75 Z" id="Oval-Copy"></path>
                        <path d="M50.75,0.25 L5.25,0.25 L5.25,73.75 L50.75,73.75 L50.75,0.25 Z M49.25,1.75 L49.25,72.25 L6.75,72.25 L6.75,1.75 L49.25,1.75 Z" id="Rectangle-Copy"></path>
                        <path d="M40.75,8.25 L14.25,8.25 L14.25,64.75 L40.75,64.75 L40.75,8.25 Z M39.25,9.75 L39.25,63.25 L15.75,63.25 L15.75,9.75 L39.25,9.75 Z" id="Rectangle-Copy"></path>
                    </g>
                    <path d="M52.5,3.25 L52.5,72.75 L0,72.75 L0,3.25 L52.5,3.25 Z M51,4.75 L1.5,4.75 L1.5,71.25 L51,71.25 L51,4.75 Z M40.5,41.25 L40.5,63.75 L9,63.75 L9,41.25 L40.5,41.25 Z M39,42.75 L10.5,42.75 L10.5,62.25 L39,62.25 L39,42.75 Z M40.5,11.25 L40.5,33.75 L9,33.75 L9,11.25 L40.5,11.25 Z M39,12.75 L10.5,12.75 L10.5,32.25 L39,32.25 L39,12.75 Z" id="Combined-Shape-Copy"></path>
                    <g id="Group-4-Copy" transform="translate(128.750000, 1.000000)">
                        <path d="M64.75,-0.75 L9.25,-0.75 L9.25,71.75 L64.75,71.75 L64.75,-0.75 Z M63.25,0.75 L63.25,70.25 L10.75,70.25 L10.75,0.75 L63.25,0.75 Z" id="Rectangle-Copy-2"></path>
                        <path d="M53.75,8.25 L19.25,8.25 L19.25,61.75 L53.75,61.75 L53.75,8.25 Z M52.25,9.75 L52.25,60.25 L20.75,60.25 L20.75,9.75 L52.25,9.75 Z" id="Rectangle-Copy-2"></path>
                        <path d="M35.5,-0.75 C15.4796778,-0.75 -0.75,15.4796778 -0.75,35.5 C-0.75,55.5203222 15.4796778,71.75 35.5,71.75 C55.5203222,71.75 71.75,55.5203222 71.75,35.5 C71.75,15.4796778 55.5203222,-0.75 35.5,-0.75 Z M35.5,0.75 C54.6918951,0.75 70.25,16.3081049 70.25,35.5 C70.25,54.6918951 54.6918951,70.25 35.5,70.25 C16.3081049,70.25 0.75,54.6918951 0.75,35.5 C0.75,16.3081049 16.3081049,0.75 35.5,0.75 Z" id="Oval"></path>
                    </g>
                    <path d="M36.25,34.25 C25.6185186,34.25 17,42.8685186 17,53.5 C17,64.1314814 25.6185186,72.75 36.25,72.75 C46.8814814,72.75 55.5,64.1314814 55.5,53.5 C55.5,42.8685186 46.8814814,34.25 36.25,34.25 Z M36.25,35.75 C46.0530543,35.75 54,43.6969457 54,53.5 C54,63.3030543 46.0530543,71.25 36.25,71.25 C26.4469457,71.25 18.5,63.3030543 18.5,53.5 C18.5,43.6969457 26.4469457,35.75 36.25,35.75 Z" id="Oval-Copy-3"></path>
                    <path d="M34.25,3.25 C24.1708033,3.25 16,11.4208033 16,21.5 C16,31.5791967 24.1708033,39.75 34.25,39.75 C44.3291967,39.75 52.5,31.5791967 52.5,21.5 C52.5,11.4208033 44.3291967,3.25 34.25,3.25 Z M34.25,4.75 C43.5007696,4.75 51,12.2492304 51,21.5 C51,30.7507696 43.5007696,38.25 34.25,38.25 C24.9992304,38.25 17.5,30.7507696 17.5,21.5 C17.5,12.2492304 24.9992304,4.75 34.25,4.75 Z" id="Oval-Copy-4"></path>
                    <g id="Group-6-Copy" transform="translate(423.750000, 0.000000)">
                        <path d="M51.75,1.25 L2.25,1.25 L2.25,73.75 L51.75,73.75 L51.75,1.25 Z M50.25,2.75 L50.25,72.25 L3.75,72.25 L3.75,2.75 L50.25,2.75 Z" id="Rectangle-Copy-2"></path>
                        <path d="M128.75,2.25 L77.25,2.25 L77.25,74.75 L128.75,74.75 L128.75,2.25 Z M127.25,3.75 L127.25,73.25 L78.75,73.25 L78.75,3.75 L127.25,3.75 Z" id="Rectangle-Copy-2"></path>
                        <path d="M117.75,10.25 L88.25,10.25 L88.25,65.75 L117.75,65.75 L117.75,10.25 Z M116.25,11.75 L116.25,64.25 L89.75,64.25 L89.75,11.75 L116.25,11.75 Z" id="Rectangle-Copy-2"></path>
                        <path d="M102,1.25 C87.7786677,1.25 76.25,12.7786677 76.25,27 C76.25,41.2213323 87.7786677,52.75 102,52.75 C116.221332,52.75 127.75,41.2213323 127.75,27 C127.75,12.7786677 116.221332,1.25 102,1.25 Z M102,2.75 C115.392905,2.75 126.25,13.6070948 126.25,27 C126.25,40.3929052 115.392905,51.25 102,51.25 C88.6070948,51.25 77.75,40.3929052 77.75,27 C77.75,13.6070948 88.6070948,2.75 102,2.75 Z" id="Oval"></path>
                        <path d="M102,26.25 C87.7786677,26.25 76.25,37.7786677 76.25,52 C76.25,66.2213323 87.7786677,77.75 102,77.75 C116.221332,77.75 127.75,66.2213323 127.75,52 C127.75,37.7786677 116.221332,26.25 102,26.25 Z M102,27.75 C115.392905,27.75 126.25,38.6070948 126.25,52 C126.25,65.3929052 115.392905,76.25 102,76.25 C88.6070948,76.25 77.75,65.3929052 77.75,52 C77.75,38.6070948 88.6070948,27.75 102,27.75 Z" id="Oval"></path>
                        <path d="M42.75,10.25 L12.25,10.25 L12.25,65.75 L42.75,65.75 L42.75,10.25 Z M41.25,11.75 L41.25,64.25 L13.75,64.25 L13.75,11.75 L41.25,11.75 Z" id="Rectangle-Copy-2"></path>
                        <path d="M27,0.25 C12.2263829,0.25 0.25,12.2263829 0.25,27 C0.25,41.7736171 12.2263829,53.75 27,53.75 C41.7736171,53.75 53.75,41.7736171 53.75,27 C53.75,12.2263829 41.7736171,0.25 27,0.25 Z M27,1.75 C40.9451899,1.75 52.25,13.0548101 52.25,27 C52.25,40.9451899 40.9451899,52.25 27,52.25 C13.0548101,52.25 1.75,40.9451899 1.75,27 C1.75,13.0548101 13.0548101,1.75 27,1.75 Z" id="Oval"></path>
                        <path d="M27,21.25 C12.2263829,21.25 0.25,33.2263829 0.25,48 C0.25,62.7736171 12.2263829,74.75 27,74.75 C41.7736171,74.75 53.75,62.7736171 53.75,48 C53.75,33.2263829 41.7736171,21.25 27,21.25 Z M27,22.75 C40.9451899,22.75 52.25,34.0548101 52.25,48 C52.25,61.9451899 40.9451899,73.25 27,73.25 C13.0548101,73.25 1.75,61.9451899 1.75,48 C1.75,34.0548101 13.0548101,22.75 27,22.75 Z" id="Oval"></path>
                    </g>
                    <g id="Group-7-Copy" transform="translate(281.750000, 0.000000)">
                        <path d="M49.75,1.25 L0.25,1.25 L0.25,73.75 L49.75,73.75 L49.75,1.25 Z M48.25,2.75 L48.25,72.25 L1.75,72.25 L1.75,2.75 L48.25,2.75 Z" id="Rectangle-Copy-3"></path>
                        <path d="M39.75,11.25 L10.25,11.25 L10.25,63.75 L39.75,63.75 L39.75,11.25 Z M38.25,12.75 L38.25,62.25 L11.75,62.25 L11.75,12.75 L38.25,12.75 Z" id="Rectangle-Copy-3"></path>
                        <path d="M26,0.25 C11.7786677,0.25 0.25,11.7786677 0.25,26 C0.25,40.2213323 11.7786677,51.75 26,51.75 C40.2213323,51.75 51.75,40.2213323 51.75,26 C51.75,11.7786677 40.2213323,0.25 26,0.25 Z M26,1.75 C39.3929052,1.75 50.25,12.6070948 50.25,26 C50.25,39.3929052 39.3929052,50.25 26,50.25 C12.6070948,50.25 1.75,39.3929052 1.75,26 C1.75,12.6070948 12.6070948,1.75 26,1.75 Z" id="Oval-Copy-2"></path>
                        <path d="M26,40.25 C11.7786677,40.25 0.25,51.7786677 0.25,66 C0.25,80.2213323 11.7786677,91.75 26,91.75 C40.2213323,91.75 51.75,80.2213323 51.75,66 C51.75,51.7786677 40.2213323,40.25 26,40.25 Z M26,41.75 C39.3929052,41.75 50.25,52.6070948 50.25,66 C50.25,79.3929052 39.3929052,90.25 26,90.25 C12.6070948,90.25 1.75,79.3929052 1.75,66 C1.75,52.6070948 12.6070948,41.75 26,41.75 Z" id="Oval-Copy-2"></path>
                    </g>
                </g>
                <g id="Group-8" opacity="0.600000024" transform="translate(0.750000, 0.000000)" fill="#000000">
                    <g id="Group-10" transform="translate(0.200000, 0.800000)">
                        <path d="M526.1,72.4 C542,72.4 550,65.8 550,52.5 C550,40.1 543.8,34.5 527.4,32.4 C515.9,30.9 511.7,27.7 511.7,20.9 C511.7,14 516.8,10.2 526.1,10.2 C535.5,10.2 540,14 540,21.9 L549,21.9 C549,8.6 541.4,2 526.4,2 C511.1,2 502.8,8.8 502.8,21.8 C502.8,33.5 508.6,38.8 524.2,40.9 C536.7,42.6 541.1,46 541.1,53.3 C541.1,60.5 536.1,64.2 526.2,64.2 C515.9,64.2 510.6,60.1 510.6,51.9 L501.6,51.9 C501.6,65.6 509.9,72.4 526.1,72.4 Z" id="S"></path>
                        <path d="M93.3,72.4 C106.3,72.4 113.5,65.8 113.9,53.3 L105.4,53.3 C104.8,61.6 100.6,64.7 93.4,64.7 C84.7,64.7 80.6,60.2 80.6,50.3 L80.6,40.5 C80.6,30.6 84.7,26.1 93.4,26.1 C100.6,26.1 104.8,29.2 105.4,37.5 L113.9,37.5 C113.5,25 106.3,18.4 93.3,18.4 C79.3,18.4 71.8,26 71.8,40.3 L71.8,50.5 C71.8,64.8 79.3,72.4 93.3,72.4 Z" id="c"></path>
                        <path d="M376.8,70.4 C391.4,70.4 399.1,62.6 399.1,47.6 L399.1,39.2 C399.1,24.2 391.4,16.4 376.8,16.4 C362.2,16.4 354.5,24.2 354.5,39.2 L354.5,47.6 C354.5,62.6 362.2,70.4 376.8,70.4 Z M376.8,62.7 C367.7,62.7 363.3,57.7 363.3,47.3 L363.3,39.4 C363.3,29 367.7,24.1 376.8,24.1 C385.9,24.1 390.3,29 390.3,39.4 L390.3,47.3 C390.3,57.7 385.9,62.7 376.8,62.7 Z" id="o"></path>
                        <path d="M239.5,92.6 C254.2,92.6 261.5,85.8 261.5,72.1 L261.5,21.6 L254,21.6 L253.6,29.6 C249.3,23.3 243.8,20.4 236.4,20.4 C224.4,20.4 217.4,27.8 217.4,41.9 L217.4,50 C217.4,64.1 224.4,71.5 236.4,71.5 C243.3,71.5 248.5,69 252.7,63.6 L252.7,72.1 C252.7,81.1 248.5,85 239.3,85 C232.1,85 227.2,82.6 226.7,76.6 L218.5,76.6 C219.2,87.2 226.4,92.6 239.5,92.6 Z M237.5,63.8 C230.4,63.8 226.2,58.9 226.2,49.7 L226.2,42.2 C226.2,33 230.4,28.1 237.5,28.1 C244,28.1 249.3,32.3 252.7,39.6 L252.7,52.3 C249.3,59.6 244,63.8 237.5,63.8 Z" id="g"></path>
                        <path d="M28.3,71.2 C43.3,71.2 50.2,65.2 50.2,52.4 C50.2,43.4 46.8,38.1 39,35.7 L39,35.5 C45.2,33.2 47.9,28.4 47.9,20.8 C47.9,8.7 40.9,3.2 26.3,3.2 L3.62376795e-13,3.2 L3.62376795e-13,71.2 L28.3,71.2 Z M25.7,32.4 L9,32.4 L9,11.4 L25.6,11.4 C35.1,11.4 39,14.4 39,22 C39,29.5 35.2,32.4 25.7,32.4 Z M27,63 L9,63 L9,40.6 L25.9,40.6 C37,40.6 41.2,43.7 41.2,51.8 C41.2,59.7 37.2,63 27,63 Z" id="B"></path>
                        <path d="M188.3,76 L194.7,69.6 L186.7,61.5 C189.9,57 191.5,51 191.5,43.3 L191.5,27.1 C191.5,9.1 182.8,0 165.1,0 C147.4,0 138.7,9.1 138.7,27.1 L138.7,43.3 C138.7,61.3 147.4,70.4 165.1,70.4 C171,70.4 175.9,69.4 179.8,67.4 L188.3,76 Z M165.1,62.2 C153.1,62.2 147.7,56.3 147.7,43.3 L147.7,27.1 C147.7,14.1 153.1,8.2 165.1,8.2 C177.1,8.2 182.5,14.1 182.5,27.1 L182.5,43.3 C182.5,48.1 181.8,52 180.2,54.9 L167.3,41.7 L161.1,47.8 L173.8,60.7 C171.4,61.7 168.5,62.2 165.1,62.2 Z" id="Q"></path>
                        <path d="M450.6,72.4 C466.2,72.4 474.6,64.3 474.6,49.2 L474.6,25.1 C474.6,9.9 466,2 450.8,2 C435.4,2 427.4,10.1 427.4,24.7 C427.4,38.9 435,46.4 448.2,46.4 C455.7,46.4 461.6,44 465.8,39.1 L465.8,48.7 C465.8,59.2 460.8,64.4 450.5,64.4 C442.1,64.4 437.5,60.9 436.9,54 L428.3,54 C428.8,66 436.6,72.4 450.6,72.4 Z M449.8,38.4 C440.8,38.4 436.3,33.6 436.3,24.5 C436.3,15.1 441,10 450.8,10 C460.6,10 465.8,15 465.8,25.3 L465.8,27.6 C462.9,34.8 457.5,38.4 449.8,38.4 Z" id="9"></path>
                        <path d="M330,71.2 L330,62.9 L292,62.9 C292.4,55.6 296.9,51.2 309.4,45.6 C324.5,38.8 330.2,32.2 330.2,21.4 C330.2,9.5 322.4,2 307.6,2 C292.8,2 284.3,9.3 284.3,22.7 L284.3,25 L292.9,25 L292.9,23.6 C292.9,14.5 298,10 307.5,10 C316.9,10 321.4,14.5 321.4,21.6 C321.4,28.7 317.2,33.2 305.2,38.7 C289.3,46 283.3,53.5 283.3,66.1 L283.3,71.2 L330,71.2 Z" id="2"></path>
                    </g>
                </g>
            </g>
        </g>
    </g>
</svg>