<svg width="4080" height="192" viewBox="0 0 4080 192" fill="none" xmlns="http://www.w3.org/2000/svg">
<g clip-path="url(#clip0_1040_3734)">
<g opacity="0.4">
<rect x="2128" width="24.1374" height="24.1371" fill="#EBEBEB"/>
<rect x="2128" y="96.5498" width="24.1374" height="24.1371" fill="#EBEBEB"/>
<rect x="2128" y="48.2744" width="24.1374" height="24.1371" fill="#EBEBEB"/>
<rect x="2128" y="144.824" width="24.1374" height="24.1371" fill="#EBEBEB"/>
<rect x="2514.2" width="24.1374" height="24.1371" fill="#EBEBEB"/>
<rect x="2514.2" y="96.5498" width="24.1374" height="24.1371" fill="#EBEBEB"/>
<rect x="2514.2" y="48.2744" width="24.1374" height="24.1371" fill="#EBEBEB"/>
<rect x="2514.2" y="144.824" width="24.1374" height="24.1371" fill="#EBEBEB"/>
<rect x="2321.1" width="24.1374" height="24.1371" fill="#EBEBEB"/>
<rect x="2321.1" y="96.5498" width="24.1374" height="24.1371" fill="#EBEBEB"/>
<rect x="2321.1" y="48.2744" width="24.1374" height="24.1371" fill="#EBEBEB"/>
<rect x="2321.1" y="144.824" width="24.1374" height="24.1371" fill="#EBEBEB"/>
<rect x="2707.3" width="24.1374" height="24.1371" fill="#EBEBEB"/>
<rect x="2707.3" y="96.5498" width="24.1374" height="24.1371" fill="#EBEBEB"/>
<rect x="2707.3" y="48.2744" width="24.1374" height="24.1371" fill="#EBEBEB"/>
<rect x="2707.3" y="144.824" width="24.1374" height="24.1371" fill="#EBEBEB"/>
<rect x="2948.67" width="24.1374" height="24.1371" fill="#EBEBEB"/>
<rect x="2948.67" y="96.5498" width="24.1374" height="24.1371" fill="#EBEBEB"/>
<rect x="2948.67" y="48.2744" width="24.1374" height="24.1371" fill="#EBEBEB"/>
<rect x="2948.67" y="144.824" width="24.1374" height="24.1371" fill="#EBEBEB"/>
<rect x="3190.04" width="24.1374" height="24.1371" fill="#EBEBEB"/>
<rect x="4058.81" width="24.1374" height="24.1371" fill="#EBEBEB"/>
<rect x="3190.04" y="96.5498" width="24.1374" height="24.1371" fill="#EBEBEB"/>
<rect x="4058.81" y="96.5498" width="24.1374" height="24.1371" fill="#EBEBEB"/>
<rect x="3190.04" y="48.2744" width="24.1374" height="24.1371" fill="#EBEBEB"/>
<rect x="4058.81" y="48.2744" width="24.1374" height="24.1371" fill="#EBEBEB"/>
<rect x="3190.04" y="144.824" width="24.1374" height="24.1371" fill="#EBEBEB"/>
<rect x="4058.81" y="144.824" width="24.1374" height="24.1371" fill="#EBEBEB"/>
<rect x="3431.42" width="24.1374" height="24.1371" fill="#EBEBEB"/>
<rect x="3431.42" y="96.5498" width="24.1374" height="24.1371" fill="#EBEBEB"/>
<rect x="3431.42" y="48.2744" width="24.1374" height="24.1371" fill="#EBEBEB"/>
<rect x="3431.42" y="144.824" width="24.1374" height="24.1371" fill="#EBEBEB"/>
<rect x="3672.79" width="24.1374" height="24.1371" fill="#EBEBEB"/>
<rect x="3672.79" y="96.5498" width="24.1374" height="24.1371" fill="#EBEBEB"/>
<rect x="3672.79" y="48.2744" width="24.1374" height="24.1371" fill="#EBEBEB"/>
<rect x="3672.79" y="144.824" width="24.1374" height="24.1371" fill="#EBEBEB"/>
<rect x="2224.55" width="24.1374" height="24.1371" fill="#EBEBEB"/>
<rect x="2224.55" y="96.5498" width="24.1374" height="24.1371" fill="#EBEBEB"/>
<rect x="2224.55" y="48.2744" width="24.1374" height="24.1371" fill="#EBEBEB"/>
<rect x="2224.55" y="144.824" width="24.1374" height="24.1371" fill="#EBEBEB"/>
<rect x="2610.75" width="24.1374" height="24.1371" fill="#EBEBEB"/>
<rect x="2610.75" y="96.5498" width="24.1374" height="24.1371" fill="#EBEBEB"/>
<rect x="2610.75" y="48.2744" width="24.1374" height="24.1371" fill="#EBEBEB"/>
<rect x="2610.75" y="144.824" width="24.1374" height="24.1371" fill="#EBEBEB"/>
<rect x="2417.65" width="24.1374" height="24.1371" fill="#EBEBEB"/>
<rect x="2417.65" y="96.5498" width="24.1374" height="24.1371" fill="#EBEBEB"/>
<rect x="2417.65" y="48.2744" width="24.1374" height="24.1371" fill="#EBEBEB"/>
<rect x="2417.65" y="144.824" width="24.1374" height="24.1371" fill="#EBEBEB"/>
<rect x="2803.85" width="24.1374" height="24.1371" fill="#EBEBEB"/>
<rect x="2803.85" y="96.5498" width="24.1374" height="24.1371" fill="#EBEBEB"/>
<rect x="2803.85" y="48.2744" width="24.1374" height="24.1371" fill="#EBEBEB"/>
<rect x="2803.85" y="144.824" width="24.1374" height="24.1371" fill="#EBEBEB"/>
<rect x="3045.22" width="24.1374" height="24.1371" fill="#EBEBEB"/>
<rect x="3913.98" width="24.1374" height="24.1371" fill="#EBEBEB"/>
<rect x="3045.22" y="96.5498" width="24.1374" height="24.1371" fill="#EBEBEB"/>
<rect x="3913.98" y="96.5498" width="24.1374" height="24.1371" fill="#EBEBEB"/>
<rect x="3045.22" y="48.2744" width="24.1374" height="24.1371" fill="#EBEBEB"/>
<rect x="3913.98" y="48.2744" width="24.1374" height="24.1371" fill="#EBEBEB"/>
<rect x="3045.22" y="144.824" width="24.1374" height="24.1371" fill="#EBEBEB"/>
<rect x="3913.98" y="144.824" width="24.1374" height="24.1371" fill="#EBEBEB"/>
<rect x="3286.59" width="24.1374" height="24.1371" fill="#EBEBEB"/>
<rect x="3286.59" y="96.5498" width="24.1374" height="24.1371" fill="#EBEBEB"/>
<rect x="3286.59" y="48.2744" width="24.1374" height="24.1371" fill="#EBEBEB"/>
<rect x="3286.59" y="144.824" width="24.1374" height="24.1371" fill="#EBEBEB"/>
<rect x="3527.96" width="24.1374" height="24.1371" fill="#EBEBEB"/>
<rect x="3527.97" y="96.5498" width="24.1374" height="24.1371" fill="#EBEBEB"/>
<rect x="3527.97" y="48.2744" width="24.1374" height="24.1371" fill="#EBEBEB"/>
<rect x="3527.97" y="144.824" width="24.1374" height="24.1371" fill="#EBEBEB"/>
<rect x="3769.34" width="24.1374" height="24.1371" fill="#EBEBEB"/>
<rect x="3769.34" y="96.5498" width="24.1374" height="24.1371" fill="#EBEBEB"/>
<rect x="3769.34" y="48.2744" width="24.1374" height="24.1371" fill="#EBEBEB"/>
<rect x="3769.34" y="144.824" width="24.1374" height="24.1371" fill="#EBEBEB"/>
<rect x="2176.27" width="24.1374" height="24.1371" fill="#EBEBEB"/>
<rect x="2176.27" y="96.5498" width="24.1374" height="24.1371" fill="#EBEBEB"/>
<rect x="2176.27" y="48.2744" width="24.1374" height="24.1371" fill="#EBEBEB"/>
<rect x="2176.27" y="144.824" width="24.1374" height="24.1371" fill="#EBEBEB"/>
<rect x="2562.47" width="24.1374" height="24.1371" fill="#EBEBEB"/>
<rect x="2562.47" y="96.5498" width="24.1374" height="24.1371" fill="#EBEBEB"/>
<rect x="2562.47" y="48.2744" width="24.1374" height="24.1371" fill="#EBEBEB"/>
<rect x="2562.47" y="144.824" width="24.1374" height="24.1371" fill="#EBEBEB"/>
<rect x="2369.37" width="24.1374" height="24.1371" fill="#EBEBEB"/>
<rect x="2369.37" y="96.5498" width="24.1374" height="24.1371" fill="#EBEBEB"/>
<rect x="2369.37" y="48.2744" width="24.1374" height="24.1371" fill="#EBEBEB"/>
<rect x="2369.37" y="144.824" width="24.1374" height="24.1371" fill="#EBEBEB"/>
<rect x="2755.57" width="24.1374" height="24.1371" fill="#EBEBEB"/>
<rect x="2755.57" y="96.5498" width="24.1374" height="24.1371" fill="#EBEBEB"/>
<rect x="2755.57" y="48.2744" width="24.1374" height="24.1371" fill="#EBEBEB"/>
<rect x="2755.57" y="144.824" width="24.1374" height="24.1371" fill="#EBEBEB"/>
<rect x="2996.95" width="24.1374" height="24.1371" fill="#EBEBEB"/>
<rect x="3865.71" width="24.1374" height="24.1371" fill="#EBEBEB"/>
<rect x="2996.95" y="96.5498" width="24.1374" height="24.1371" fill="#EBEBEB"/>
<rect x="3865.71" y="96.5498" width="24.1374" height="24.1371" fill="#EBEBEB"/>
<rect x="2996.95" y="48.2744" width="24.1374" height="24.1371" fill="#EBEBEB"/>
<rect x="3865.71" y="48.2744" width="24.1374" height="24.1371" fill="#EBEBEB"/>
<rect x="2996.95" y="144.824" width="24.1374" height="24.1371" fill="#EBEBEB"/>
<rect x="3865.71" y="144.824" width="24.1374" height="24.1371" fill="#EBEBEB"/>
<rect x="3238.32" width="24.1374" height="24.1371" fill="#EBEBEB"/>
<rect x="3238.32" y="96.5498" width="24.1374" height="24.1371" fill="#EBEBEB"/>
<rect x="3238.32" y="48.2744" width="24.1374" height="24.1371" fill="#EBEBEB"/>
<rect x="3238.32" y="144.824" width="24.1374" height="24.1371" fill="#EBEBEB"/>
<rect x="3479.69" width="24.1374" height="24.1371" fill="#EBEBEB"/>
<rect x="3479.69" y="96.5498" width="24.1374" height="24.1371" fill="#EBEBEB"/>
<rect x="3479.69" y="48.2744" width="24.1374" height="24.1371" fill="#EBEBEB"/>
<rect x="3479.69" y="144.824" width="24.1374" height="24.1371" fill="#EBEBEB"/>
<rect x="3721.07" width="24.1374" height="24.1371" fill="#EBEBEB"/>
<rect x="3721.07" y="96.5498" width="24.1374" height="24.1371" fill="#EBEBEB"/>
<rect x="3721.07" y="48.2744" width="24.1374" height="24.1371" fill="#EBEBEB"/>
<rect x="3721.07" y="144.824" width="24.1374" height="24.1371" fill="#EBEBEB"/>
<rect x="2272.82" width="24.1374" height="24.1371" fill="#EBEBEB"/>
<rect x="2272.82" y="96.5498" width="24.1374" height="24.1371" fill="#EBEBEB"/>
<rect x="2272.82" y="48.2744" width="24.1374" height="24.1371" fill="#EBEBEB"/>
<rect x="2272.82" y="144.824" width="24.1374" height="24.1371" fill="#EBEBEB"/>
<rect x="2659.02" width="24.1374" height="24.1371" fill="#EBEBEB"/>
<rect x="2659.02" y="96.5498" width="24.1374" height="24.1371" fill="#EBEBEB"/>
<rect x="2659.02" y="48.2744" width="24.1374" height="24.1371" fill="#EBEBEB"/>
<rect x="2659.02" y="144.824" width="24.1374" height="24.1371" fill="#EBEBEB"/>
<rect x="2900.4" width="24.1374" height="24.1371" fill="#EBEBEB"/>
<rect x="2900.4" y="96.5498" width="24.1374" height="24.1371" fill="#EBEBEB"/>
<rect x="2900.4" y="48.2744" width="24.1374" height="24.1371" fill="#EBEBEB"/>
<rect x="2900.4" y="144.824" width="24.1374" height="24.1371" fill="#EBEBEB"/>
<rect x="3141.77" width="24.1374" height="24.1371" fill="#EBEBEB"/>
<rect x="4010.53" width="24.1374" height="24.1371" fill="#EBEBEB"/>
<rect x="3141.77" y="96.5498" width="24.1374" height="24.1371" fill="#EBEBEB"/>
<rect x="4010.53" y="96.5498" width="24.1374" height="24.1371" fill="#EBEBEB"/>
<rect x="3141.77" y="48.2744" width="24.1374" height="24.1371" fill="#EBEBEB"/>
<rect x="4010.53" y="48.2744" width="24.1374" height="24.1371" fill="#EBEBEB"/>
<rect x="3141.77" y="144.824" width="24.1374" height="24.1371" fill="#EBEBEB"/>
<rect x="4010.53" y="144.824" width="24.1374" height="24.1371" fill="#EBEBEB"/>
<rect x="3383.14" width="24.1374" height="24.1371" fill="#EBEBEB"/>
<rect x="3383.14" y="96.5498" width="24.1374" height="24.1371" fill="#EBEBEB"/>
<rect x="3383.14" y="48.2744" width="24.1374" height="24.1371" fill="#EBEBEB"/>
<rect x="3383.14" y="144.824" width="24.1374" height="24.1371" fill="#EBEBEB"/>
<rect x="3624.51" width="24.1374" height="24.1371" fill="#EBEBEB"/>
<rect x="3624.51" y="96.5498" width="24.1374" height="24.1371" fill="#EBEBEB"/>
<rect x="3624.51" y="48.2744" width="24.1374" height="24.1371" fill="#EBEBEB"/>
<rect x="3624.51" y="144.824" width="24.1374" height="24.1371" fill="#EBEBEB"/>
<rect x="2465.92" width="24.1374" height="24.1371" fill="#EBEBEB"/>
<rect x="2465.92" y="96.5498" width="24.1374" height="24.1371" fill="#EBEBEB"/>
<rect x="2465.92" y="48.2744" width="24.1374" height="24.1371" fill="#EBEBEB"/>
<rect x="2465.92" y="144.824" width="24.1374" height="24.1371" fill="#EBEBEB"/>
<rect x="2852.12" width="24.1374" height="24.1371" fill="#EBEBEB"/>
<rect x="2852.12" y="96.5498" width="24.1374" height="24.1371" fill="#EBEBEB"/>
<rect x="2852.12" y="48.2744" width="24.1374" height="24.1371" fill="#EBEBEB"/>
<rect x="2852.12" y="144.824" width="24.1374" height="24.1371" fill="#EBEBEB"/>
<rect x="3093.5" width="24.1374" height="24.1371" fill="#EBEBEB"/>
<rect x="3962.26" width="24.1374" height="24.1371" fill="#EBEBEB"/>
<rect x="3093.5" y="96.5498" width="24.1374" height="24.1371" fill="#EBEBEB"/>
<rect x="3962.26" y="96.5498" width="24.1374" height="24.1371" fill="#EBEBEB"/>
<rect x="3093.5" y="48.2744" width="24.1374" height="24.1371" fill="#EBEBEB"/>
<rect x="3962.26" y="48.2744" width="24.1374" height="24.1371" fill="#EBEBEB"/>
<rect x="3093.5" y="144.824" width="24.1374" height="24.1371" fill="#EBEBEB"/>
<rect x="3962.26" y="144.824" width="24.1374" height="24.1371" fill="#EBEBEB"/>
<rect x="3334.87" width="24.1374" height="24.1371" fill="#EBEBEB"/>
<rect x="3334.87" y="96.5498" width="24.1374" height="24.1371" fill="#EBEBEB"/>
<rect x="3334.87" y="48.2744" width="24.1374" height="24.1371" fill="#EBEBEB"/>
<rect x="3334.87" y="144.824" width="24.1374" height="24.1371" fill="#EBEBEB"/>
<rect x="3576.24" width="24.1374" height="24.1371" fill="#EBEBEB"/>
<rect x="3576.24" y="96.5498" width="24.1374" height="24.1371" fill="#EBEBEB"/>
<rect x="3576.24" y="48.2744" width="24.1374" height="24.1371" fill="#EBEBEB"/>
<rect x="3576.24" y="144.824" width="24.1374" height="24.1371" fill="#EBEBEB"/>
<rect x="3817.62" width="24.1374" height="24.1371" fill="#EBEBEB"/>
<rect x="3817.61" y="96.5498" width="24.1374" height="24.1371" fill="#EBEBEB"/>
<rect x="3817.61" y="48.2744" width="24.1374" height="24.1371" fill="#EBEBEB"/>
<rect x="3817.62" y="144.824" width="24.1374" height="24.1371" fill="#EBEBEB"/>
<rect width="24.1374" height="24.1371" transform="matrix(1 0 0 -1 2152.14 48.2744)" fill="#EBEBEB"/>
<rect width="24.1374" height="24.1371" transform="matrix(1 0 0 -1 2152.14 144.824)" fill="#EBEBEB"/>
<rect width="24.1374" height="24.1371" transform="matrix(1 0 0 -1 2152.14 96.5498)" fill="#EBEBEB"/>
<rect width="24.1374" height="24.1371" transform="matrix(1 0 0 -1 2152.14 193.099)" fill="#EBEBEB"/>
<rect width="24.1374" height="24.1371" transform="matrix(1 0 0 -1 2538.33 48.2744)" fill="#EBEBEB"/>
<rect width="24.1374" height="24.1371" transform="matrix(1 0 0 -1 2538.33 144.824)" fill="#EBEBEB"/>
<rect width="24.1374" height="24.1371" transform="matrix(1 0 0 -1 2538.33 96.5498)" fill="#EBEBEB"/>
<rect width="24.1374" height="24.1371" transform="matrix(1 0 0 -1 2538.33 193.099)" fill="#EBEBEB"/>
<rect width="24.1374" height="24.1371" transform="matrix(1 0 0 -1 2345.24 48.2744)" fill="#EBEBEB"/>
<rect width="24.1374" height="24.1371" transform="matrix(1 0 0 -1 2345.24 144.824)" fill="#EBEBEB"/>
<rect width="24.1374" height="24.1371" transform="matrix(1 0 0 -1 2345.24 96.5498)" fill="#EBEBEB"/>
<rect width="24.1374" height="24.1371" transform="matrix(1 0 0 -1 2345.24 193.099)" fill="#EBEBEB"/>
<rect width="24.1374" height="24.1371" transform="matrix(1 0 0 -1 2731.43 48.2744)" fill="#EBEBEB"/>
<rect width="24.1374" height="24.1371" transform="matrix(1 0 0 -1 2731.43 144.824)" fill="#EBEBEB"/>
<rect width="24.1374" height="24.1371" transform="matrix(1 0 0 -1 2731.43 96.5498)" fill="#EBEBEB"/>
<rect width="24.1374" height="24.1371" transform="matrix(1 0 0 -1 2731.43 193.099)" fill="#EBEBEB"/>
<rect width="24.1374" height="24.1371" transform="matrix(1 0 0 -1 2972.81 48.2744)" fill="#EBEBEB"/>
<rect width="24.1374" height="24.1371" transform="matrix(1 0 0 -1 2972.81 144.824)" fill="#EBEBEB"/>
<rect width="24.1374" height="24.1371" transform="matrix(1 0 0 -1 2972.81 96.5498)" fill="#EBEBEB"/>
<rect width="24.1374" height="24.1371" transform="matrix(1 0 0 -1 2972.81 193.099)" fill="#EBEBEB"/>
<rect width="24.1374" height="24.1371" transform="matrix(1 0 0 -1 3214.18 48.2744)" fill="#EBEBEB"/>
<rect width="24.1374" height="24.1371" transform="matrix(1 0 0 -1 3214.18 144.824)" fill="#EBEBEB"/>
<rect width="24.1374" height="24.1371" transform="matrix(1 0 0 -1 3214.18 96.5498)" fill="#EBEBEB"/>
<rect width="24.1374" height="24.1371" transform="matrix(1 0 0 -1 3214.18 193.099)" fill="#EBEBEB"/>
<rect width="24.1374" height="24.1371" transform="matrix(1 0 0 -1 3455.55 48.2744)" fill="#EBEBEB"/>
<rect width="24.1374" height="24.1371" transform="matrix(1 0 0 -1 3455.55 144.824)" fill="#EBEBEB"/>
<rect width="24.1374" height="24.1371" transform="matrix(1 0 0 -1 3455.55 96.5498)" fill="#EBEBEB"/>
<rect width="24.1374" height="24.1371" transform="matrix(1 0 0 -1 3455.55 193.098)" fill="#EBEBEB"/>
<rect width="24.1374" height="24.1371" transform="matrix(1 0 0 -1 3696.92 48.2744)" fill="#EBEBEB"/>
<rect width="24.1374" height="24.1371" transform="matrix(1 0 0 -1 3696.92 144.824)" fill="#EBEBEB"/>
<rect width="24.1374" height="24.1371" transform="matrix(1 0 0 -1 3696.92 96.5498)" fill="#EBEBEB"/>
<rect width="24.1374" height="24.1371" transform="matrix(1 0 0 -1 3696.93 193.098)" fill="#EBEBEB"/>
<rect width="24.1374" height="24.1371" transform="matrix(1 0 0 -1 2248.69 48.2744)" fill="#EBEBEB"/>
<rect width="24.1374" height="24.1371" transform="matrix(1 0 0 -1 2248.69 144.824)" fill="#EBEBEB"/>
<rect width="24.1374" height="24.1371" transform="matrix(1 0 0 -1 2248.69 96.5498)" fill="#EBEBEB"/>
<rect width="24.1374" height="24.1371" transform="matrix(1 0 0 -1 2248.69 193.099)" fill="#EBEBEB"/>
<rect width="24.1374" height="24.1371" transform="matrix(1 0 0 -1 2634.89 48.2744)" fill="#EBEBEB"/>
<rect width="24.1374" height="24.1371" transform="matrix(1 0 0 -1 2634.89 144.824)" fill="#EBEBEB"/>
<rect width="24.1374" height="24.1371" transform="matrix(1 0 0 -1 2634.89 96.5498)" fill="#EBEBEB"/>
<rect width="24.1374" height="24.1371" transform="matrix(1 0 0 -1 2634.89 193.099)" fill="#EBEBEB"/>
<rect width="24.1374" height="24.1371" transform="matrix(1 0 0 -1 2441.79 48.2744)" fill="#EBEBEB"/>
<rect width="24.1374" height="24.1371" transform="matrix(1 0 0 -1 2441.79 144.824)" fill="#EBEBEB"/>
<rect width="24.1374" height="24.1371" transform="matrix(1 0 0 -1 2441.79 96.5498)" fill="#EBEBEB"/>
<rect width="24.1374" height="24.1371" transform="matrix(1 0 0 -1 2441.79 193.099)" fill="#EBEBEB"/>
<rect width="24.1374" height="24.1371" transform="matrix(1 0 0 -1 2827.98 48.2744)" fill="#EBEBEB"/>
<rect width="24.1374" height="24.1371" transform="matrix(1 0 0 -1 2827.98 144.824)" fill="#EBEBEB"/>
<rect width="24.1374" height="24.1371" transform="matrix(1 0 0 -1 2827.98 96.5498)" fill="#EBEBEB"/>
<rect width="24.1374" height="24.1371" transform="matrix(1 0 0 -1 2827.98 193.099)" fill="#EBEBEB"/>
<rect width="24.1374" height="24.1371" transform="matrix(1 0 0 -1 3069.36 48.2744)" fill="#EBEBEB"/>
<rect width="24.1374" height="24.1371" transform="matrix(1 0 0 -1 3938.12 48.2744)" fill="#EBEBEB"/>
<rect width="24.1374" height="24.1371" transform="matrix(1 0 0 -1 3069.36 144.824)" fill="#EBEBEB"/>
<rect width="24.1374" height="24.1371" transform="matrix(1 0 0 -1 3938.12 144.824)" fill="#EBEBEB"/>
<rect width="24.1374" height="24.1371" transform="matrix(1 0 0 -1 3069.36 96.5498)" fill="#EBEBEB"/>
<rect width="24.1374" height="24.1371" transform="matrix(1 0 0 -1 3938.12 96.5498)" fill="#EBEBEB"/>
<rect width="24.1374" height="24.1371" transform="matrix(1 0 0 -1 3069.36 193.099)" fill="#EBEBEB"/>
<rect width="24.1374" height="24.1371" transform="matrix(1 0 0 -1 3938.12 193.098)" fill="#EBEBEB"/>
<rect width="24.1374" height="24.1371" transform="matrix(1 0 0 -1 3310.73 48.2744)" fill="#EBEBEB"/>
<rect width="24.1374" height="24.1371" transform="matrix(1 0 0 -1 3310.73 144.824)" fill="#EBEBEB"/>
<rect width="24.1374" height="24.1371" transform="matrix(1 0 0 -1 3310.73 96.5498)" fill="#EBEBEB"/>
<rect width="24.1374" height="24.1371" transform="matrix(1 0 0 -1 3310.73 193.099)" fill="#EBEBEB"/>
<rect width="24.1374" height="24.1371" transform="matrix(1 0 0 -1 3552.1 48.2744)" fill="#EBEBEB"/>
<rect width="24.1374" height="24.1371" transform="matrix(1 0 0 -1 3552.1 144.824)" fill="#EBEBEB"/>
<rect width="24.1374" height="24.1371" transform="matrix(1 0 0 -1 3552.1 96.5498)" fill="#EBEBEB"/>
<rect width="24.1374" height="24.1371" transform="matrix(1 0 0 -1 3552.1 193.098)" fill="#EBEBEB"/>
<rect width="24.1374" height="24.1371" transform="matrix(1 0 0 -1 3793.48 48.2744)" fill="#EBEBEB"/>
<rect width="24.1374" height="24.1371" transform="matrix(1 0 0 -1 3793.48 144.824)" fill="#EBEBEB"/>
<rect width="24.1374" height="24.1371" transform="matrix(1 0 0 -1 3793.48 96.5498)" fill="#EBEBEB"/>
<rect width="24.1374" height="24.1371" transform="matrix(1 0 0 -1 3793.48 193.098)" fill="#EBEBEB"/>
<rect width="24.1374" height="24.1371" transform="matrix(1 0 0 -1 2200.41 48.2744)" fill="#EBEBEB"/>
<rect width="24.1374" height="24.1371" transform="matrix(1 0 0 -1 2200.41 144.824)" fill="#EBEBEB"/>
<rect width="24.1374" height="24.1371" transform="matrix(1 0 0 -1 2200.41 96.5498)" fill="#EBEBEB"/>
<rect width="24.1374" height="24.1371" transform="matrix(1 0 0 -1 2200.41 193.099)" fill="#EBEBEB"/>
<rect width="24.1374" height="24.1371" transform="matrix(1 0 0 -1 2586.61 48.2744)" fill="#EBEBEB"/>
<rect width="24.1374" height="24.1371" transform="matrix(1 0 0 -1 2586.61 144.824)" fill="#EBEBEB"/>
<rect width="24.1374" height="24.1371" transform="matrix(1 0 0 -1 2586.61 96.5498)" fill="#EBEBEB"/>
<rect width="24.1374" height="24.1371" transform="matrix(1 0 0 -1 2586.61 193.099)" fill="#EBEBEB"/>
<rect width="24.1374" height="24.1371" transform="matrix(1 0 0 -1 2393.51 48.2744)" fill="#EBEBEB"/>
<rect width="24.1374" height="24.1371" transform="matrix(1 0 0 -1 2393.51 144.824)" fill="#EBEBEB"/>
<rect width="24.1374" height="24.1371" transform="matrix(1 0 0 -1 2393.51 96.5498)" fill="#EBEBEB"/>
<rect width="24.1374" height="24.1371" transform="matrix(1 0 0 -1 2393.51 193.099)" fill="#EBEBEB"/>
<rect width="24.1374" height="24.1371" transform="matrix(1 0 0 -1 2779.71 48.2744)" fill="#EBEBEB"/>
<rect width="24.1374" height="24.1371" transform="matrix(1 0 0 -1 2779.71 144.824)" fill="#EBEBEB"/>
<rect width="24.1374" height="24.1371" transform="matrix(1 0 0 -1 2779.71 96.5498)" fill="#EBEBEB"/>
<rect width="24.1374" height="24.1371" transform="matrix(1 0 0 -1 2779.71 193.099)" fill="#EBEBEB"/>
<rect width="24.1374" height="24.1371" transform="matrix(1 0 0 -1 3021.08 48.2744)" fill="#EBEBEB"/>
<rect width="24.1374" height="24.1371" transform="matrix(1 0 0 -1 3889.85 48.2744)" fill="#EBEBEB"/>
<rect width="24.1374" height="24.1371" transform="matrix(1 0 0 -1 3021.08 144.824)" fill="#EBEBEB"/>
<rect width="24.1374" height="24.1371" transform="matrix(1 0 0 -1 3889.85 144.824)" fill="#EBEBEB"/>
<rect width="24.1374" height="24.1371" transform="matrix(1 0 0 -1 3021.08 96.5498)" fill="#EBEBEB"/>
<rect width="24.1374" height="24.1371" transform="matrix(1 0 0 -1 3889.85 96.5498)" fill="#EBEBEB"/>
<rect width="24.1374" height="24.1371" transform="matrix(1 0 0 -1 3021.08 193.099)" fill="#EBEBEB"/>
<rect width="24.1374" height="24.1371" transform="matrix(1 0 0 -1 3889.85 193.099)" fill="#EBEBEB"/>
<rect width="24.1374" height="24.1371" transform="matrix(1 0 0 -1 3262.45 48.2744)" fill="#EBEBEB"/>
<rect width="24.1374" height="24.1371" transform="matrix(1 0 0 -1 3262.45 144.824)" fill="#EBEBEB"/>
<rect width="24.1374" height="24.1371" transform="matrix(1 0 0 -1 3262.45 96.5498)" fill="#EBEBEB"/>
<rect width="24.1374" height="24.1371" transform="matrix(1 0 0 -1 3262.45 193.099)" fill="#EBEBEB"/>
<rect width="24.1374" height="24.1371" transform="matrix(1 0 0 -1 3503.83 48.2744)" fill="#EBEBEB"/>
<rect width="24.1374" height="24.1371" transform="matrix(1 0 0 -1 3503.83 144.824)" fill="#EBEBEB"/>
<rect width="24.1374" height="24.1371" transform="matrix(1 0 0 -1 3503.83 96.5498)" fill="#EBEBEB"/>
<rect width="24.1374" height="24.1371" transform="matrix(1 0 0 -1 3503.83 193.098)" fill="#EBEBEB"/>
<rect width="24.1374" height="24.1371" transform="matrix(1 0 0 -1 3745.2 48.2744)" fill="#EBEBEB"/>
<rect width="24.1374" height="24.1371" transform="matrix(1 0 0 -1 3745.2 144.824)" fill="#EBEBEB"/>
<rect width="24.1374" height="24.1371" transform="matrix(1 0 0 -1 3745.2 96.5498)" fill="#EBEBEB"/>
<rect width="24.1374" height="24.1371" transform="matrix(1 0 0 -1 3745.2 193.098)" fill="#EBEBEB"/>
<rect width="24.1374" height="24.1371" transform="matrix(1 0 0 -1 2296.96 48.2744)" fill="#EBEBEB"/>
<rect width="24.1374" height="24.1371" transform="matrix(1 0 0 -1 2296.96 144.824)" fill="#EBEBEB"/>
<rect width="24.1374" height="24.1371" transform="matrix(1 0 0 -1 2296.96 96.5498)" fill="#EBEBEB"/>
<rect width="24.1374" height="24.1371" transform="matrix(1 0 0 -1 2296.96 193.099)" fill="#EBEBEB"/>
<rect width="24.1374" height="24.1371" transform="matrix(1 0 0 -1 2683.16 48.2744)" fill="#EBEBEB"/>
<rect width="24.1374" height="24.1371" transform="matrix(1 0 0 -1 2683.16 144.824)" fill="#EBEBEB"/>
<rect width="24.1374" height="24.1371" transform="matrix(1 0 0 -1 2683.16 96.5498)" fill="#EBEBEB"/>
<rect width="24.1374" height="24.1371" transform="matrix(1 0 0 -1 2683.16 193.099)" fill="#EBEBEB"/>
<rect width="24.1374" height="24.1371" transform="matrix(1 0 0 -1 2924.53 48.2744)" fill="#EBEBEB"/>
<rect width="24.1374" height="24.1371" transform="matrix(1 0 0 -1 2924.53 144.824)" fill="#EBEBEB"/>
<rect width="24.1374" height="24.1371" transform="matrix(1 0 0 -1 2924.53 96.5498)" fill="#EBEBEB"/>
<rect width="24.1374" height="24.1371" transform="matrix(1 0 0 -1 2924.53 193.099)" fill="#EBEBEB"/>
<rect width="24.1374" height="24.1371" transform="matrix(1 0 0 -1 3165.91 48.2744)" fill="#EBEBEB"/>
<rect width="24.1374" height="24.1371" transform="matrix(1 0 0 -1 4034.67 48.2744)" fill="#EBEBEB"/>
<rect width="24.1374" height="24.1371" transform="matrix(1 0 0 -1 3165.91 144.824)" fill="#EBEBEB"/>
<rect width="24.1374" height="24.1371" transform="matrix(1 0 0 -1 4034.67 144.824)" fill="#EBEBEB"/>
<rect width="24.1374" height="24.1371" transform="matrix(1 0 0 -1 3165.91 96.5498)" fill="#EBEBEB"/>
<rect width="24.1374" height="24.1371" transform="matrix(1 0 0 -1 4034.67 96.5498)" fill="#EBEBEB"/>
<rect width="24.1374" height="24.1371" transform="matrix(1 0 0 -1 3165.91 193.099)" fill="#EBEBEB"/>
<rect width="24.1374" height="24.1371" transform="matrix(1 0 0 -1 4034.67 193.098)" fill="#EBEBEB"/>
<rect width="24.1374" height="24.1371" transform="matrix(1 0 0 -1 3407.28 48.2744)" fill="#EBEBEB"/>
<rect width="24.1374" height="24.1371" transform="matrix(1 0 0 -1 3407.28 144.824)" fill="#EBEBEB"/>
<rect width="24.1374" height="24.1371" transform="matrix(1 0 0 -1 3407.28 96.5498)" fill="#EBEBEB"/>
<rect width="24.1374" height="24.1371" transform="matrix(1 0 0 -1 3407.28 193.098)" fill="#EBEBEB"/>
<rect width="24.1374" height="24.1371" transform="matrix(1 0 0 -1 3648.65 48.2744)" fill="#EBEBEB"/>
<rect width="24.1374" height="24.1371" transform="matrix(1 0 0 -1 3648.65 144.824)" fill="#EBEBEB"/>
<rect width="24.1374" height="24.1371" transform="matrix(1 0 0 -1 3648.65 96.5498)" fill="#EBEBEB"/>
<rect width="24.1374" height="24.1371" transform="matrix(1 0 0 -1 3648.65 193.098)" fill="#EBEBEB"/>
<rect width="24.1374" height="24.1371" transform="matrix(1 0 0 -1 2490.06 48.2744)" fill="#EBEBEB"/>
<rect width="24.1374" height="24.1371" transform="matrix(1 0 0 -1 2490.06 144.824)" fill="#EBEBEB"/>
<rect width="24.1374" height="24.1371" transform="matrix(1 0 0 -1 2490.06 96.5498)" fill="#EBEBEB"/>
<rect width="24.1374" height="24.1371" transform="matrix(1 0 0 -1 2490.06 193.099)" fill="#EBEBEB"/>
<rect width="24.1374" height="24.1371" transform="matrix(1 0 0 -1 2876.26 48.2744)" fill="#EBEBEB"/>
<rect width="24.1374" height="24.1371" transform="matrix(1 0 0 -1 2876.26 144.824)" fill="#EBEBEB"/>
<rect width="24.1374" height="24.1371" transform="matrix(1 0 0 -1 2876.26 96.5498)" fill="#EBEBEB"/>
<rect width="24.1374" height="24.1371" transform="matrix(1 0 0 -1 2876.26 193.099)" fill="#EBEBEB"/>
<rect width="24.1374" height="24.1371" transform="matrix(1 0 0 -1 3117.63 48.2744)" fill="#EBEBEB"/>
<rect width="24.1374" height="24.1371" transform="matrix(1 0 0 -1 3986.4 48.2744)" fill="#EBEBEB"/>
<rect width="24.1374" height="24.1371" transform="matrix(1 0 0 -1 3117.63 144.824)" fill="#EBEBEB"/>
<rect width="24.1374" height="24.1371" transform="matrix(1 0 0 -1 3986.4 144.824)" fill="#EBEBEB"/>
<rect width="24.1374" height="24.1371" transform="matrix(1 0 0 -1 3117.63 96.5498)" fill="#EBEBEB"/>
<rect width="24.1374" height="24.1371" transform="matrix(1 0 0 -1 3986.4 96.5498)" fill="#EBEBEB"/>
<rect width="24.1374" height="24.1371" transform="matrix(1 0 0 -1 3117.63 193.099)" fill="#EBEBEB"/>
<rect width="24.1374" height="24.1371" transform="matrix(1 0 0 -1 3986.4 193.098)" fill="#EBEBEB"/>
<rect width="24.1374" height="24.1371" transform="matrix(1 0 0 -1 3359 48.2744)" fill="#EBEBEB"/>
<rect width="24.1374" height="24.1371" transform="matrix(1 0 0 -1 3359 144.824)" fill="#EBEBEB"/>
<rect width="24.1374" height="24.1371" transform="matrix(1 0 0 -1 3359 96.5498)" fill="#EBEBEB"/>
<rect width="24.1374" height="24.1371" transform="matrix(1 0 0 -1 3359 193.099)" fill="#EBEBEB"/>
<rect width="24.1374" height="24.1371" transform="matrix(1 0 0 -1 3600.38 48.2744)" fill="#EBEBEB"/>
<rect width="24.1374" height="24.1371" transform="matrix(1 0 0 -1 3600.38 144.824)" fill="#EBEBEB"/>
<rect width="24.1374" height="24.1371" transform="matrix(1 0 0 -1 3600.38 96.5498)" fill="#EBEBEB"/>
<rect width="24.1374" height="24.1371" transform="matrix(1 0 0 -1 3600.38 193.098)" fill="#EBEBEB"/>
<rect width="24.1374" height="24.1371" transform="matrix(1 0 0 -1 3841.75 48.2744)" fill="#EBEBEB"/>
<rect width="24.1374" height="24.1371" transform="matrix(1 0 0 -1 3841.75 144.824)" fill="#EBEBEB"/>
<rect width="24.1374" height="24.1371" transform="matrix(1 0 0 -1 3841.75 96.5498)" fill="#EBEBEB"/>
<rect width="24.1374" height="24.1371" transform="matrix(1 0 0 -1 3841.75 193.098)" fill="#EBEBEB"/>
<rect x="2128" y="24.1387" width="24.1374" height="24.1371" fill="#9E9E9E"/>
<rect x="2128" y="120.687" width="24.1374" height="24.1371" fill="#9E9E9E"/>
<rect x="2128" y="72.4121" width="24.1374" height="24.1371" fill="#9E9E9E"/>
<rect x="2128" y="168.963" width="24.1374" height="24.1371" fill="#9E9E9E"/>
<rect x="2514.2" y="24.1387" width="24.1374" height="24.1371" fill="#9E9E9E"/>
<rect x="2514.2" y="120.687" width="24.1374" height="24.1371" fill="#9E9E9E"/>
<rect x="2514.2" y="72.4121" width="24.1374" height="24.1371" fill="#9E9E9E"/>
<rect x="2514.2" y="168.963" width="24.1374" height="24.1371" fill="#9E9E9E"/>
<rect x="2321.1" y="24.1387" width="24.1374" height="24.1371" fill="#9E9E9E"/>
<rect x="2321.1" y="120.687" width="24.1374" height="24.1371" fill="#9E9E9E"/>
<rect x="2321.1" y="72.4121" width="24.1374" height="24.1371" fill="#9E9E9E"/>
<rect x="2321.1" y="168.963" width="24.1374" height="24.1371" fill="#9E9E9E"/>
<rect x="2707.3" y="24.1387" width="24.1374" height="24.1371" fill="#9E9E9E"/>
<rect x="2707.3" y="120.687" width="24.1374" height="24.1371" fill="#9E9E9E"/>
<rect x="2707.3" y="72.4121" width="24.1374" height="24.1371" fill="#9E9E9E"/>
<rect x="2707.3" y="168.963" width="24.1374" height="24.1371" fill="#9E9E9E"/>
<rect x="2948.67" y="24.1387" width="24.1374" height="24.1371" fill="#9E9E9E"/>
<rect x="2948.67" y="120.687" width="24.1374" height="24.1371" fill="#9E9E9E"/>
<rect x="2948.67" y="72.4121" width="24.1374" height="24.1371" fill="#9E9E9E"/>
<rect x="2948.67" y="168.963" width="24.1374" height="24.1371" fill="#9E9E9E"/>
<rect x="3190.04" y="24.1387" width="24.1374" height="24.1371" fill="#9E9E9E"/>
<rect x="4058.81" y="24.1387" width="24.1374" height="24.1371" fill="#9E9E9E"/>
<rect x="3190.04" y="120.687" width="24.1374" height="24.1371" fill="#9E9E9E"/>
<rect x="4058.81" y="120.687" width="24.1374" height="24.1371" fill="#9E9E9E"/>
<rect x="3190.04" y="72.4121" width="24.1374" height="24.1371" fill="#9E9E9E"/>
<rect x="4058.81" y="72.4121" width="24.1374" height="24.1371" fill="#9E9E9E"/>
<rect x="3190.04" y="168.963" width="24.1374" height="24.1371" fill="#9E9E9E"/>
<rect x="4058.81" y="168.963" width="24.1374" height="24.1371" fill="#9E9E9E"/>
<rect x="3431.42" y="24.1387" width="24.1374" height="24.1371" fill="#9E9E9E"/>
<rect x="3431.42" y="120.687" width="24.1374" height="24.1371" fill="#9E9E9E"/>
<rect x="3431.42" y="72.4121" width="24.1374" height="24.1371" fill="#9E9E9E"/>
<rect x="3431.42" y="168.963" width="24.1374" height="24.1371" fill="#9E9E9E"/>
<rect x="3672.79" y="24.1387" width="24.1374" height="24.1371" fill="#9E9E9E"/>
<rect x="3672.79" y="120.687" width="24.1374" height="24.1371" fill="#9E9E9E"/>
<rect x="3672.79" y="72.4121" width="24.1374" height="24.1371" fill="#9E9E9E"/>
<rect x="3672.79" y="168.963" width="24.1374" height="24.1371" fill="#9E9E9E"/>
<rect x="2224.55" y="24.1387" width="24.1374" height="24.1371" fill="#9E9E9E"/>
<rect x="2224.55" y="120.687" width="24.1374" height="24.1371" fill="#9E9E9E"/>
<rect x="2224.55" y="72.4121" width="24.1374" height="24.1371" fill="#9E9E9E"/>
<rect x="2224.55" y="168.963" width="24.1374" height="24.1371" fill="#9E9E9E"/>
<rect x="2610.75" y="24.1387" width="24.1374" height="24.1371" fill="#9E9E9E"/>
<rect x="2610.75" y="120.687" width="24.1374" height="24.1371" fill="#9E9E9E"/>
<rect x="2610.75" y="72.4121" width="24.1374" height="24.1371" fill="#9E9E9E"/>
<rect x="2610.75" y="168.963" width="24.1374" height="24.1371" fill="#9E9E9E"/>
<rect x="2417.65" y="24.1387" width="24.1374" height="24.1371" fill="#9E9E9E"/>
<rect x="2417.65" y="120.687" width="24.1374" height="24.1371" fill="#9E9E9E"/>
<rect x="2417.65" y="72.4121" width="24.1374" height="24.1371" fill="#9E9E9E"/>
<rect x="2417.65" y="168.963" width="24.1374" height="24.1371" fill="#9E9E9E"/>
<rect x="2803.85" y="24.1387" width="24.1374" height="24.1371" fill="#9E9E9E"/>
<rect x="2803.85" y="120.687" width="24.1374" height="24.1371" fill="#9E9E9E"/>
<rect x="2803.85" y="72.4121" width="24.1374" height="24.1371" fill="#9E9E9E"/>
<rect x="2803.85" y="168.963" width="24.1374" height="24.1371" fill="#9E9E9E"/>
<rect x="3045.22" y="24.1387" width="24.1374" height="24.1371" fill="#9E9E9E"/>
<rect x="3913.98" y="24.1387" width="24.1374" height="24.1371" fill="#9E9E9E"/>
<rect x="3045.22" y="120.687" width="24.1374" height="24.1371" fill="#9E9E9E"/>
<rect x="3913.98" y="120.687" width="24.1374" height="24.1371" fill="#9E9E9E"/>
<rect x="3045.22" y="72.4121" width="24.1374" height="24.1371" fill="#9E9E9E"/>
<rect x="3913.98" y="72.4121" width="24.1374" height="24.1371" fill="#9E9E9E"/>
<rect x="3045.22" y="168.963" width="24.1374" height="24.1371" fill="#9E9E9E"/>
<rect x="3913.98" y="168.963" width="24.1374" height="24.1371" fill="#9E9E9E"/>
<rect x="3286.59" y="24.1387" width="24.1374" height="24.1371" fill="#9E9E9E"/>
<rect x="3286.59" y="120.687" width="24.1374" height="24.1371" fill="#9E9E9E"/>
<rect x="3286.59" y="72.4121" width="24.1374" height="24.1371" fill="#9E9E9E"/>
<rect x="3286.59" y="168.963" width="24.1374" height="24.1371" fill="#9E9E9E"/>
<rect x="3527.97" y="24.1387" width="24.1374" height="24.1371" fill="#9E9E9E"/>
<rect x="3527.97" y="120.687" width="24.1374" height="24.1371" fill="#9E9E9E"/>
<rect x="3527.97" y="72.4121" width="24.1374" height="24.1371" fill="#9E9E9E"/>
<rect x="3527.97" y="168.963" width="24.1374" height="24.1371" fill="#9E9E9E"/>
<rect x="3769.34" y="24.1387" width="24.1374" height="24.1371" fill="#9E9E9E"/>
<rect x="3769.34" y="120.687" width="24.1374" height="24.1371" fill="#9E9E9E"/>
<rect x="3769.34" y="72.4121" width="24.1374" height="24.1371" fill="#9E9E9E"/>
<rect x="3769.34" y="168.963" width="24.1374" height="24.1371" fill="#9E9E9E"/>
<rect x="2176.27" y="24.1387" width="24.1374" height="24.1371" fill="#9E9E9E"/>
<rect x="2176.27" y="120.687" width="24.1374" height="24.1371" fill="#9E9E9E"/>
<rect x="2176.27" y="72.4121" width="24.1374" height="24.1371" fill="#9E9E9E"/>
<rect x="2176.27" y="168.963" width="24.1374" height="24.1371" fill="#9E9E9E"/>
<rect x="2562.47" y="24.1387" width="24.1374" height="24.1371" fill="#9E9E9E"/>
<rect x="2562.47" y="120.687" width="24.1374" height="24.1371" fill="#9E9E9E"/>
<rect x="2562.47" y="72.4121" width="24.1374" height="24.1371" fill="#9E9E9E"/>
<rect x="2562.47" y="168.963" width="24.1374" height="24.1371" fill="#9E9E9E"/>
<rect x="2369.37" y="24.1387" width="24.1374" height="24.1371" fill="#9E9E9E"/>
<rect x="2369.37" y="120.687" width="24.1374" height="24.1371" fill="#9E9E9E"/>
<rect x="2369.37" y="72.4121" width="24.1374" height="24.1371" fill="#9E9E9E"/>
<rect x="2369.37" y="168.963" width="24.1374" height="24.1371" fill="#9E9E9E"/>
<rect x="2755.57" y="24.1387" width="24.1374" height="24.1371" fill="#9E9E9E"/>
<rect x="2755.57" y="120.687" width="24.1374" height="24.1371" fill="#9E9E9E"/>
<rect x="2755.57" y="72.4121" width="24.1374" height="24.1371" fill="#9E9E9E"/>
<rect x="2755.57" y="168.963" width="24.1374" height="24.1371" fill="#9E9E9E"/>
<rect x="2996.95" y="24.1387" width="24.1374" height="24.1371" fill="#9E9E9E"/>
<rect x="3865.71" y="24.1387" width="24.1374" height="24.1371" fill="#9E9E9E"/>
<rect x="2996.95" y="120.687" width="24.1374" height="24.1371" fill="#9E9E9E"/>
<rect x="3865.71" y="120.687" width="24.1374" height="24.1371" fill="#9E9E9E"/>
<rect x="2996.95" y="72.4121" width="24.1374" height="24.1371" fill="#9E9E9E"/>
<rect x="3865.71" y="72.4121" width="24.1374" height="24.1371" fill="#9E9E9E"/>
<rect x="2996.95" y="168.963" width="24.1374" height="24.1371" fill="#9E9E9E"/>
<rect x="3865.71" y="168.963" width="24.1374" height="24.1371" fill="#9E9E9E"/>
<rect x="3238.32" y="24.1387" width="24.1374" height="24.1371" fill="#9E9E9E"/>
<rect x="3238.32" y="120.687" width="24.1374" height="24.1371" fill="#9E9E9E"/>
<rect x="3238.32" y="72.4121" width="24.1374" height="24.1371" fill="#9E9E9E"/>
<rect x="3238.32" y="168.963" width="24.1374" height="24.1371" fill="#9E9E9E"/>
<rect x="3479.69" y="24.1387" width="24.1374" height="24.1371" fill="#9E9E9E"/>
<rect x="3479.69" y="120.687" width="24.1374" height="24.1371" fill="#9E9E9E"/>
<rect x="3479.69" y="72.4121" width="24.1374" height="24.1371" fill="#9E9E9E"/>
<rect x="3479.69" y="168.963" width="24.1374" height="24.1371" fill="#9E9E9E"/>
<rect x="3721.06" y="24.1387" width="24.1374" height="24.1371" fill="#9E9E9E"/>
<rect x="3721.07" y="120.687" width="24.1374" height="24.1371" fill="#9E9E9E"/>
<rect x="3721.07" y="72.4121" width="24.1374" height="24.1371" fill="#9E9E9E"/>
<rect x="3721.07" y="168.963" width="24.1374" height="24.1371" fill="#9E9E9E"/>
<rect x="2272.82" y="24.1387" width="24.1374" height="24.1371" fill="#9E9E9E"/>
<rect x="2272.82" y="120.687" width="24.1374" height="24.1371" fill="#9E9E9E"/>
<rect x="2272.82" y="72.4121" width="24.1374" height="24.1371" fill="#9E9E9E"/>
<rect x="2272.82" y="168.963" width="24.1374" height="24.1371" fill="#9E9E9E"/>
<rect x="2659.02" y="24.1387" width="24.1374" height="24.1371" fill="#9E9E9E"/>
<rect x="2659.02" y="120.687" width="24.1374" height="24.1371" fill="#9E9E9E"/>
<rect x="2659.02" y="72.4121" width="24.1374" height="24.1371" fill="#9E9E9E"/>
<rect x="2659.02" y="168.963" width="24.1374" height="24.1371" fill="#9E9E9E"/>
<rect x="2900.4" y="24.1387" width="24.1374" height="24.1371" fill="#9E9E9E"/>
<rect x="2900.4" y="120.687" width="24.1374" height="24.1371" fill="#9E9E9E"/>
<rect x="2900.4" y="72.4121" width="24.1374" height="24.1371" fill="#9E9E9E"/>
<rect x="2900.4" y="168.963" width="24.1374" height="24.1371" fill="#9E9E9E"/>
<rect x="3141.77" y="24.1387" width="24.1374" height="24.1371" fill="#9E9E9E"/>
<rect x="4010.53" y="24.1387" width="24.1374" height="24.1371" fill="#9E9E9E"/>
<rect x="3141.77" y="120.687" width="24.1374" height="24.1371" fill="#9E9E9E"/>
<rect x="4010.53" y="120.687" width="24.1374" height="24.1371" fill="#9E9E9E"/>
<rect x="3141.77" y="72.4121" width="24.1374" height="24.1371" fill="#9E9E9E"/>
<rect x="4010.53" y="72.4121" width="24.1374" height="24.1371" fill="#9E9E9E"/>
<rect x="3141.77" y="168.963" width="24.1374" height="24.1371" fill="#9E9E9E"/>
<rect x="4010.53" y="168.963" width="24.1374" height="24.1371" fill="#9E9E9E"/>
<rect x="3383.14" y="24.1387" width="24.1374" height="24.1371" fill="#9E9E9E"/>
<rect x="3383.14" y="120.687" width="24.1374" height="24.1371" fill="#9E9E9E"/>
<rect x="3383.14" y="72.4121" width="24.1374" height="24.1371" fill="#9E9E9E"/>
<rect x="3383.14" y="168.963" width="24.1374" height="24.1371" fill="#9E9E9E"/>
<rect x="3624.52" y="24.1387" width="24.1374" height="24.1371" fill="#9E9E9E"/>
<rect x="3624.52" y="120.687" width="24.1374" height="24.1371" fill="#9E9E9E"/>
<rect x="3624.52" y="72.4121" width="24.1374" height="24.1371" fill="#9E9E9E"/>
<rect x="3624.51" y="168.963" width="24.1374" height="24.1371" fill="#9E9E9E"/>
<rect x="2465.92" y="24.1387" width="24.1374" height="24.1371" fill="#9E9E9E"/>
<rect x="2465.92" y="120.687" width="24.1374" height="24.1371" fill="#9E9E9E"/>
<rect x="2465.92" y="72.4121" width="24.1374" height="24.1371" fill="#9E9E9E"/>
<rect x="2465.92" y="168.963" width="24.1374" height="24.1371" fill="#9E9E9E"/>
<rect x="2852.12" y="24.1387" width="24.1374" height="24.1371" fill="#9E9E9E"/>
<rect x="2852.12" y="120.687" width="24.1374" height="24.1371" fill="#9E9E9E"/>
<rect x="2852.12" y="72.4121" width="24.1374" height="24.1371" fill="#9E9E9E"/>
<rect x="2852.12" y="168.963" width="24.1374" height="24.1371" fill="#9E9E9E"/>
<rect x="3093.5" y="24.1387" width="24.1374" height="24.1371" fill="#9E9E9E"/>
<rect x="3962.26" y="24.1387" width="24.1374" height="24.1371" fill="#9E9E9E"/>
<rect x="3093.5" y="120.687" width="24.1374" height="24.1371" fill="#9E9E9E"/>
<rect x="3962.26" y="120.687" width="24.1374" height="24.1371" fill="#9E9E9E"/>
<rect x="3093.5" y="72.4121" width="24.1374" height="24.1371" fill="#9E9E9E"/>
<rect x="3962.26" y="72.4121" width="24.1374" height="24.1371" fill="#9E9E9E"/>
<rect x="3093.5" y="168.963" width="24.1374" height="24.1371" fill="#9E9E9E"/>
<rect x="3962.26" y="168.963" width="24.1374" height="24.1371" fill="#9E9E9E"/>
<rect x="3334.87" y="24.1387" width="24.1374" height="24.1371" fill="#9E9E9E"/>
<rect x="3334.87" y="120.687" width="24.1374" height="24.1371" fill="#9E9E9E"/>
<rect x="3334.87" y="72.4121" width="24.1374" height="24.1371" fill="#9E9E9E"/>
<rect x="3334.87" y="168.963" width="24.1374" height="24.1371" fill="#9E9E9E"/>
<rect x="3576.24" y="24.1387" width="24.1374" height="24.1371" fill="#9E9E9E"/>
<rect x="3576.24" y="120.687" width="24.1374" height="24.1371" fill="#9E9E9E"/>
<rect x="3576.24" y="72.4121" width="24.1374" height="24.1371" fill="#9E9E9E"/>
<rect x="3576.24" y="168.963" width="24.1374" height="24.1371" fill="#9E9E9E"/>
<rect x="3817.62" y="24.1387" width="24.1374" height="24.1371" fill="#9E9E9E"/>
<rect x="3817.62" y="120.687" width="24.1374" height="24.1371" fill="#9E9E9E"/>
<rect x="3817.62" y="72.4121" width="24.1374" height="24.1371" fill="#9E9E9E"/>
<rect x="3817.62" y="168.963" width="24.1374" height="24.1371" fill="#9E9E9E"/>
<rect width="24.1374" height="24.1371" transform="matrix(1 0 0 -1 2152.14 24.1387)" fill="#9E9E9E"/>
<rect width="24.1374" height="24.1371" transform="matrix(1 0 0 -1 2152.14 120.687)" fill="#9E9E9E"/>
<rect width="24.1374" height="24.1371" transform="matrix(1 0 0 -1 2152.14 72.4121)" fill="#9E9E9E"/>
<rect width="24.1374" height="24.1371" transform="matrix(1 0 0 -1 2152.14 168.963)" fill="#9E9E9E"/>
<rect width="24.1374" height="24.1371" transform="matrix(1 0 0 -1 2538.33 24.1387)" fill="#9E9E9E"/>
<rect width="24.1374" height="24.1371" transform="matrix(1 0 0 -1 2538.33 120.687)" fill="#9E9E9E"/>
<rect width="24.1374" height="24.1371" transform="matrix(1 0 0 -1 2538.33 72.4121)" fill="#9E9E9E"/>
<rect width="24.1374" height="24.1371" transform="matrix(1 0 0 -1 2538.33 168.963)" fill="#9E9E9E"/>
<rect width="24.1374" height="24.1371" transform="matrix(1 0 0 -1 2345.24 24.1387)" fill="#9E9E9E"/>
<rect width="24.1374" height="24.1371" transform="matrix(1 0 0 -1 2345.24 120.687)" fill="#9E9E9E"/>
<rect width="24.1374" height="24.1371" transform="matrix(1 0 0 -1 2345.24 72.4121)" fill="#9E9E9E"/>
<rect width="24.1374" height="24.1371" transform="matrix(1 0 0 -1 2345.24 168.963)" fill="#9E9E9E"/>
<rect width="24.1374" height="24.1371" transform="matrix(1 0 0 -1 2731.43 24.1387)" fill="#9E9E9E"/>
<rect width="24.1374" height="24.1371" transform="matrix(1 0 0 -1 2731.43 120.687)" fill="#9E9E9E"/>
<rect width="24.1374" height="24.1371" transform="matrix(1 0 0 -1 2731.43 72.4121)" fill="#9E9E9E"/>
<rect width="24.1374" height="24.1371" transform="matrix(1 0 0 -1 2731.43 168.963)" fill="#9E9E9E"/>
<rect width="24.1374" height="24.1371" transform="matrix(1 0 0 -1 2972.81 24.1387)" fill="#9E9E9E"/>
<rect width="24.1374" height="24.1371" transform="matrix(1 0 0 -1 2972.81 120.687)" fill="#9E9E9E"/>
<rect width="24.1374" height="24.1371" transform="matrix(1 0 0 -1 2972.81 72.4121)" fill="#9E9E9E"/>
<rect width="24.1374" height="24.1371" transform="matrix(1 0 0 -1 2972.81 168.963)" fill="#9E9E9E"/>
<rect width="24.1374" height="24.1371" transform="matrix(1 0 0 -1 3214.18 24.1387)" fill="#9E9E9E"/>
<rect width="24.1374" height="24.1371" transform="matrix(1 0 0 -1 3214.18 120.687)" fill="#9E9E9E"/>
<rect width="24.1374" height="24.1371" transform="matrix(1 0 0 -1 3214.18 72.4121)" fill="#9E9E9E"/>
<rect width="24.1374" height="24.1371" transform="matrix(1 0 0 -1 3214.18 168.963)" fill="#9E9E9E"/>
<rect width="24.1374" height="24.1371" transform="matrix(1 0 0 -1 3455.56 24.1387)" fill="#9E9E9E"/>
<rect width="24.1374" height="24.1371" transform="matrix(1 0 0 -1 3455.56 120.687)" fill="#9E9E9E"/>
<rect width="24.1374" height="24.1371" transform="matrix(1 0 0 -1 3455.55 72.4121)" fill="#9E9E9E"/>
<rect width="24.1374" height="24.1371" transform="matrix(1 0 0 -1 3455.56 168.963)" fill="#9E9E9E"/>
<rect width="24.1374" height="24.1371" transform="matrix(1 0 0 -1 3696.93 24.1387)" fill="#9E9E9E"/>
<rect width="24.1374" height="24.1371" transform="matrix(1 0 0 -1 3696.92 120.687)" fill="#9E9E9E"/>
<rect width="24.1374" height="24.1371" transform="matrix(1 0 0 -1 3696.92 72.4121)" fill="#9E9E9E"/>
<rect width="24.1374" height="24.1371" transform="matrix(1 0 0 -1 3696.93 168.963)" fill="#9E9E9E"/>
<rect width="24.1374" height="24.1371" transform="matrix(1 0 0 -1 2248.69 24.1387)" fill="#9E9E9E"/>
<rect width="24.1374" height="24.1371" transform="matrix(1 0 0 -1 2248.69 120.687)" fill="#9E9E9E"/>
<rect width="24.1374" height="24.1371" transform="matrix(1 0 0 -1 2248.69 72.4121)" fill="#9E9E9E"/>
<rect width="24.1374" height="24.1371" transform="matrix(1 0 0 -1 2248.69 168.963)" fill="#9E9E9E"/>
<rect width="24.1374" height="24.1371" transform="matrix(1 0 0 -1 2634.89 24.1387)" fill="#9E9E9E"/>
<rect width="24.1374" height="24.1371" transform="matrix(1 0 0 -1 2634.89 120.687)" fill="#9E9E9E"/>
<rect width="24.1374" height="24.1371" transform="matrix(1 0 0 -1 2634.89 72.4121)" fill="#9E9E9E"/>
<rect width="24.1374" height="24.1371" transform="matrix(1 0 0 -1 2634.89 168.963)" fill="#9E9E9E"/>
<rect width="24.1374" height="24.1371" transform="matrix(1 0 0 -1 2441.79 24.1387)" fill="#9E9E9E"/>
<rect width="24.1374" height="24.1371" transform="matrix(1 0 0 -1 2441.79 120.687)" fill="#9E9E9E"/>
<rect width="24.1374" height="24.1371" transform="matrix(1 0 0 -1 2441.79 72.4121)" fill="#9E9E9E"/>
<rect width="24.1374" height="24.1371" transform="matrix(1 0 0 -1 2441.79 168.963)" fill="#9E9E9E"/>
<rect width="24.1374" height="24.1371" transform="matrix(1 0 0 -1 2827.98 24.1387)" fill="#9E9E9E"/>
<rect width="24.1374" height="24.1371" transform="matrix(1 0 0 -1 2827.98 120.687)" fill="#9E9E9E"/>
<rect width="24.1374" height="24.1371" transform="matrix(1 0 0 -1 2827.98 72.4121)" fill="#9E9E9E"/>
<rect width="24.1374" height="24.1371" transform="matrix(1 0 0 -1 2827.98 168.963)" fill="#9E9E9E"/>
<rect width="24.1374" height="24.1371" transform="matrix(1 0 0 -1 3069.36 24.1387)" fill="#9E9E9E"/>
<rect width="24.1374" height="24.1371" transform="matrix(1 0 0 -1 3938.12 24.1387)" fill="#9E9E9E"/>
<rect width="24.1374" height="24.1371" transform="matrix(1 0 0 -1 3069.36 120.687)" fill="#9E9E9E"/>
<rect width="24.1374" height="24.1371" transform="matrix(1 0 0 -1 3938.12 120.687)" fill="#9E9E9E"/>
<rect width="24.1374" height="24.1371" transform="matrix(1 0 0 -1 3069.36 72.4121)" fill="#9E9E9E"/>
<rect width="24.1374" height="24.1371" transform="matrix(1 0 0 -1 3938.12 72.4121)" fill="#9E9E9E"/>
<rect width="24.1374" height="24.1371" transform="matrix(1 0 0 -1 3069.36 168.963)" fill="#9E9E9E"/>
<rect width="24.1374" height="24.1371" transform="matrix(1 0 0 -1 3938.12 168.963)" fill="#9E9E9E"/>
<rect width="24.1374" height="24.1371" transform="matrix(1 0 0 -1 3310.73 24.1387)" fill="#9E9E9E"/>
<rect width="24.1374" height="24.1371" transform="matrix(1 0 0 -1 3310.73 120.687)" fill="#9E9E9E"/>
<rect width="24.1374" height="24.1371" transform="matrix(1 0 0 -1 3310.73 72.4121)" fill="#9E9E9E"/>
<rect width="24.1374" height="24.1371" transform="matrix(1 0 0 -1 3310.73 168.963)" fill="#9E9E9E"/>
<rect width="24.1374" height="24.1371" transform="matrix(1 0 0 -1 3552.11 24.1387)" fill="#9E9E9E"/>
<rect width="24.1374" height="24.1371" transform="matrix(1 0 0 -1 3552.1 120.687)" fill="#9E9E9E"/>
<rect width="24.1374" height="24.1371" transform="matrix(1 0 0 -1 3552.1 72.4121)" fill="#9E9E9E"/>
<rect width="24.1374" height="24.1371" transform="matrix(1 0 0 -1 3552.1 168.963)" fill="#9E9E9E"/>
<rect width="24.1374" height="24.1371" transform="matrix(1 0 0 -1 3793.48 24.1387)" fill="#9E9E9E"/>
<rect width="24.1374" height="24.1371" transform="matrix(1 0 0 -1 3793.48 120.687)" fill="#9E9E9E"/>
<rect width="24.1374" height="24.1371" transform="matrix(1 0 0 -1 3793.48 72.4121)" fill="#9E9E9E"/>
<rect width="24.1374" height="24.1371" transform="matrix(1 0 0 -1 3793.48 168.963)" fill="#9E9E9E"/>
<rect width="24.1374" height="24.1371" transform="matrix(1 0 0 -1 2200.41 24.1387)" fill="#9E9E9E"/>
<rect width="24.1374" height="24.1371" transform="matrix(1 0 0 -1 2200.41 120.687)" fill="#9E9E9E"/>
<rect width="24.1374" height="24.1371" transform="matrix(1 0 0 -1 2200.41 72.4121)" fill="#9E9E9E"/>
<rect width="24.1374" height="24.1371" transform="matrix(1 0 0 -1 2200.41 168.963)" fill="#9E9E9E"/>
<rect width="24.1374" height="24.1371" transform="matrix(1 0 0 -1 2586.61 24.1387)" fill="#9E9E9E"/>
<rect width="24.1374" height="24.1371" transform="matrix(1 0 0 -1 2586.61 120.687)" fill="#9E9E9E"/>
<rect width="24.1374" height="24.1371" transform="matrix(1 0 0 -1 2586.61 72.4121)" fill="#9E9E9E"/>
<rect width="24.1374" height="24.1371" transform="matrix(1 0 0 -1 2586.61 168.963)" fill="#9E9E9E"/>
<rect width="24.1374" height="24.1371" transform="matrix(1 0 0 -1 2393.51 24.1387)" fill="#9E9E9E"/>
<rect width="24.1374" height="24.1371" transform="matrix(1 0 0 -1 2393.51 120.687)" fill="#9E9E9E"/>
<rect width="24.1374" height="24.1371" transform="matrix(1 0 0 -1 2393.51 72.4121)" fill="#9E9E9E"/>
<rect width="24.1374" height="24.1371" transform="matrix(1 0 0 -1 2393.51 168.963)" fill="#9E9E9E"/>
<rect width="24.1374" height="24.1371" transform="matrix(1 0 0 -1 2779.71 24.1387)" fill="#9E9E9E"/>
<rect width="24.1374" height="24.1371" transform="matrix(1 0 0 -1 2779.71 120.687)" fill="#9E9E9E"/>
<rect width="24.1374" height="24.1371" transform="matrix(1 0 0 -1 2779.71 72.4121)" fill="#9E9E9E"/>
<rect width="24.1374" height="24.1371" transform="matrix(1 0 0 -1 2779.71 168.963)" fill="#9E9E9E"/>
<rect width="24.1374" height="24.1371" transform="matrix(1 0 0 -1 3021.08 24.1387)" fill="#9E9E9E"/>
<rect width="24.1374" height="24.1371" transform="matrix(1 0 0 -1 3889.85 24.1387)" fill="#9E9E9E"/>
<rect width="24.1374" height="24.1371" transform="matrix(1 0 0 -1 3021.08 120.687)" fill="#9E9E9E"/>
<rect width="24.1374" height="24.1371" transform="matrix(1 0 0 -1 3889.85 120.687)" fill="#9E9E9E"/>
<rect width="24.1374" height="24.1371" transform="matrix(1 0 0 -1 3021.08 72.4121)" fill="#9E9E9E"/>
<rect width="24.1374" height="24.1371" transform="matrix(1 0 0 -1 3889.85 72.4121)" fill="#9E9E9E"/>
<rect width="24.1374" height="24.1371" transform="matrix(1 0 0 -1 3021.08 168.963)" fill="#9E9E9E"/>
<rect width="24.1374" height="24.1371" transform="matrix(1 0 0 -1 3889.85 168.963)" fill="#9E9E9E"/>
<rect width="24.1374" height="24.1371" transform="matrix(1 0 0 -1 3262.45 24.1387)" fill="#9E9E9E"/>
<rect width="24.1374" height="24.1371" transform="matrix(1 0 0 -1 3262.45 120.687)" fill="#9E9E9E"/>
<rect width="24.1374" height="24.1371" transform="matrix(1 0 0 -1 3262.45 72.4121)" fill="#9E9E9E"/>
<rect width="24.1374" height="24.1371" transform="matrix(1 0 0 -1 3262.45 168.963)" fill="#9E9E9E"/>
<rect width="24.1374" height="24.1371" transform="matrix(1 0 0 -1 3503.83 24.1387)" fill="#9E9E9E"/>
<rect width="24.1374" height="24.1371" transform="matrix(1 0 0 -1 3503.83 120.687)" fill="#9E9E9E"/>
<rect width="24.1374" height="24.1371" transform="matrix(1 0 0 -1 3503.83 72.4121)" fill="#9E9E9E"/>
<rect width="24.1374" height="24.1371" transform="matrix(1 0 0 -1 3503.83 168.963)" fill="#9E9E9E"/>
<rect width="24.1374" height="24.1371" transform="matrix(1 0 0 -1 3745.2 24.1387)" fill="#9E9E9E"/>
<rect width="24.1374" height="24.1371" transform="matrix(1 0 0 -1 3745.2 120.687)" fill="#9E9E9E"/>
<rect width="24.1374" height="24.1371" transform="matrix(1 0 0 -1 3745.2 72.4121)" fill="#9E9E9E"/>
<rect width="24.1374" height="24.1371" transform="matrix(1 0 0 -1 3745.2 168.963)" fill="#9E9E9E"/>
<rect width="24.1374" height="24.1371" transform="matrix(1 0 0 -1 2296.96 24.1387)" fill="#9E9E9E"/>
<rect width="24.1374" height="24.1371" transform="matrix(1 0 0 -1 2296.96 120.687)" fill="#9E9E9E"/>
<rect width="24.1374" height="24.1371" transform="matrix(1 0 0 -1 2296.96 72.4121)" fill="#9E9E9E"/>
<rect width="24.1374" height="24.1371" transform="matrix(1 0 0 -1 2296.96 168.963)" fill="#9E9E9E"/>
<rect width="24.1374" height="24.1371" transform="matrix(1 0 0 -1 2683.16 24.1387)" fill="#9E9E9E"/>
<rect width="24.1374" height="24.1371" transform="matrix(1 0 0 -1 2683.16 120.687)" fill="#9E9E9E"/>
<rect width="24.1374" height="24.1371" transform="matrix(1 0 0 -1 2683.16 72.4121)" fill="#9E9E9E"/>
<rect width="24.1374" height="24.1371" transform="matrix(1 0 0 -1 2683.16 168.963)" fill="#9E9E9E"/>
<rect width="24.1374" height="24.1371" transform="matrix(1 0 0 -1 2924.53 24.1387)" fill="#9E9E9E"/>
<rect width="24.1374" height="24.1371" transform="matrix(1 0 0 -1 2924.53 120.687)" fill="#9E9E9E"/>
<rect width="24.1374" height="24.1371" transform="matrix(1 0 0 -1 2924.53 72.4121)" fill="#9E9E9E"/>
<rect width="24.1374" height="24.1371" transform="matrix(1 0 0 -1 2924.53 168.963)" fill="#9E9E9E"/>
<rect width="24.1374" height="24.1371" transform="matrix(1 0 0 -1 3165.91 24.1387)" fill="#9E9E9E"/>
<rect width="24.1374" height="24.1371" transform="matrix(1 0 0 -1 4034.67 24.1387)" fill="#9E9E9E"/>
<rect width="24.1374" height="24.1371" transform="matrix(1 0 0 -1 3165.91 120.687)" fill="#9E9E9E"/>
<rect width="24.1374" height="24.1371" transform="matrix(1 0 0 -1 4034.67 120.687)" fill="#9E9E9E"/>
<rect width="24.1374" height="24.1371" transform="matrix(1 0 0 -1 3165.91 72.4121)" fill="#9E9E9E"/>
<rect width="24.1374" height="24.1371" transform="matrix(1 0 0 -1 4034.67 72.4121)" fill="#9E9E9E"/>
<rect width="24.1374" height="24.1371" transform="matrix(1 0 0 -1 3165.91 168.963)" fill="#9E9E9E"/>
<rect width="24.1374" height="24.1371" transform="matrix(1 0 0 -1 4034.67 168.963)" fill="#9E9E9E"/>
<rect width="24.1374" height="24.1371" transform="matrix(1 0 0 -1 3407.28 24.1387)" fill="#9E9E9E"/>
<rect width="24.1374" height="24.1371" transform="matrix(1 0 0 -1 3407.28 120.687)" fill="#9E9E9E"/>
<rect width="24.1374" height="24.1371" transform="matrix(1 0 0 -1 3407.28 72.4121)" fill="#9E9E9E"/>
<rect width="24.1374" height="24.1371" transform="matrix(1 0 0 -1 3407.28 168.963)" fill="#9E9E9E"/>
<rect width="24.1374" height="24.1371" transform="matrix(1 0 0 -1 3648.65 24.1387)" fill="#9E9E9E"/>
<rect width="24.1374" height="24.1371" transform="matrix(1 0 0 -1 3648.65 120.687)" fill="#9E9E9E"/>
<rect width="24.1374" height="24.1371" transform="matrix(1 0 0 -1 3648.65 72.4121)" fill="#9E9E9E"/>
<rect width="24.1374" height="24.1371" transform="matrix(1 0 0 -1 3648.65 168.963)" fill="#9E9E9E"/>
<rect width="24.1374" height="24.1371" transform="matrix(1 0 0 -1 2490.06 24.1387)" fill="#9E9E9E"/>
<rect width="24.1374" height="24.1371" transform="matrix(1 0 0 -1 2490.06 120.687)" fill="#9E9E9E"/>
<rect width="24.1374" height="24.1371" transform="matrix(1 0 0 -1 2490.06 72.4121)" fill="#9E9E9E"/>
<rect width="24.1374" height="24.1371" transform="matrix(1 0 0 -1 2490.06 168.963)" fill="#9E9E9E"/>
<rect width="24.1374" height="24.1371" transform="matrix(1 0 0 -1 2876.26 24.1387)" fill="#9E9E9E"/>
<rect width="24.1374" height="24.1371" transform="matrix(1 0 0 -1 2876.26 120.687)" fill="#9E9E9E"/>
<rect width="24.1374" height="24.1371" transform="matrix(1 0 0 -1 2876.26 72.4121)" fill="#9E9E9E"/>
<rect width="24.1374" height="24.1371" transform="matrix(1 0 0 -1 2876.26 168.963)" fill="#9E9E9E"/>
<rect width="24.1374" height="24.1371" transform="matrix(1 0 0 -1 3117.63 24.1387)" fill="#9E9E9E"/>
<rect width="24.1374" height="24.1371" transform="matrix(1 0 0 -1 3986.4 24.1387)" fill="#9E9E9E"/>
<rect width="24.1374" height="24.1371" transform="matrix(1 0 0 -1 3117.63 120.687)" fill="#9E9E9E"/>
<rect width="24.1374" height="24.1371" transform="matrix(1 0 0 -1 3986.4 120.687)" fill="#9E9E9E"/>
<rect width="24.1374" height="24.1371" transform="matrix(1 0 0 -1 3117.63 72.4121)" fill="#9E9E9E"/>
<rect width="24.1374" height="24.1371" transform="matrix(1 0 0 -1 3986.4 72.4121)" fill="#9E9E9E"/>
<rect width="24.1374" height="24.1371" transform="matrix(1 0 0 -1 3117.63 168.963)" fill="#9E9E9E"/>
<rect width="24.1374" height="24.1371" transform="matrix(1 0 0 -1 3986.4 168.963)" fill="#9E9E9E"/>
<rect width="24.1374" height="24.1371" transform="matrix(1 0 0 -1 3359 24.1387)" fill="#9E9E9E"/>
<rect width="24.1374" height="24.1371" transform="matrix(1 0 0 -1 3359 120.687)" fill="#9E9E9E"/>
<rect width="24.1374" height="24.1371" transform="matrix(1 0 0 -1 3359 72.4121)" fill="#9E9E9E"/>
<rect width="24.1374" height="24.1371" transform="matrix(1 0 0 -1 3359 168.963)" fill="#9E9E9E"/>
<rect width="24.1374" height="24.1371" transform="matrix(1 0 0 -1 3600.38 24.1387)" fill="#9E9E9E"/>
<rect width="24.1374" height="24.1371" transform="matrix(1 0 0 -1 3600.38 120.687)" fill="#9E9E9E"/>
<rect width="24.1374" height="24.1371" transform="matrix(1 0 0 -1 3600.38 72.4121)" fill="#9E9E9E"/>
<rect width="24.1374" height="24.1371" transform="matrix(1 0 0 -1 3600.38 168.963)" fill="#9E9E9E"/>
<rect width="24.1374" height="24.1371" transform="matrix(1 0 0 -1 3841.75 24.1387)" fill="#9E9E9E"/>
<rect width="24.1374" height="24.1371" transform="matrix(1 0 0 -1 3841.75 120.687)" fill="#9E9E9E"/>
<rect width="24.1374" height="24.1371" transform="matrix(1 0 0 -1 3841.75 72.4121)" fill="#9E9E9E"/>
<rect width="24.1374" height="24.1371" transform="matrix(1 0 0 -1 3841.75 168.963)" fill="#9E9E9E"/>
</g>
<rect width="128" height="128" rx="40" transform="matrix(-1 0 0 1 4048 32)" fill="white" fill-opacity="0.9"/>
<rect width="128" height="128" rx="40" transform="matrix(-1 0 0 1 3888 32)" fill="white" fill-opacity="0.7"/>
<rect width="128" height="128" rx="40" transform="matrix(-1 0 0 1 3728 32)" fill="white" fill-opacity="0.6"/>
<rect width="128" height="128" rx="40" transform="matrix(-1 0 0 1 3568 32)" fill="white" fill-opacity="0.5"/>
<rect width="128" height="128" rx="40" transform="matrix(-1 0 0 1 3408 32)" fill="white" fill-opacity="0.3"/>
<rect width="128" height="128" rx="40" transform="matrix(-1 0 0 1 3248 32)" fill="white" fill-opacity="0.15"/>
<rect width="128" height="128" rx="40" transform="matrix(-1 0 0 1 3088 32)" fill="black" fill-opacity="0.15"/>
<rect width="128" height="128" rx="40" transform="matrix(-1 0 0 1 2928 32)" fill="black" fill-opacity="0.3"/>
<rect width="128" height="128" rx="40" transform="matrix(-1 0 0 1 2768 32)" fill="black" fill-opacity="0.45"/>
<rect width="128" height="128" rx="40" transform="matrix(-1 0 0 1 2608 32)" fill="black" fill-opacity="0.6"/>
<rect width="128" height="128" rx="40" transform="matrix(-1 0 0 1 2448 32)" fill="black" fill-opacity="0.75"/>
<rect width="128" height="128" rx="40" transform="matrix(-1 0 0 1 2288 32)" fill="black" fill-opacity="0.9"/>
</g>
<rect x="0.5" y="0.5" width="1951" height="191" rx="23.5" stroke="#3F485A"/>
<rect width="128" height="128" rx="40" transform="matrix(-1 0 0 1 1920 32)" fill="#F7FAFC"/>
<rect width="128" height="128" rx="40" transform="matrix(-1 0 0 1 1760 32)" fill="#EDF2F7"/>
<rect width="128" height="128" rx="40" transform="matrix(-1 0 0 1 1600 32)" fill="#E2E8F0"/>
<rect width="128" height="128" rx="40" transform="matrix(-1 0 0 1 1440 32)" fill="#C7D2E0"/>
<rect width="128" height="128" rx="40" transform="matrix(-1 0 0 1 1280 32)" fill="#96A4B6"/>
<rect width="128" height="128" rx="40" transform="matrix(-1 0 0 1 1120 32)" fill="#6E7C8E"/>
<rect x="832" y="32" width="128" height="128" rx="40" fill="#5E697C"/>
<rect x="672" y="32" width="128" height="128" rx="40" fill="#4A5568"/>
<rect x="512" y="32" width="128" height="128" rx="40" fill="#2D3748"/>
<rect x="352" y="32" width="128" height="128" rx="40" fill="#1A202C"/>
<rect x="192" y="32" width="128" height="128" rx="40" fill="#1B1E2D"/>
<rect x="32.5" y="32.5" width="127" height="127" rx="39.5" fill="#0A0A19" stroke="#3C3C3C"/>
<path d="M2090.83 98.8284C2092.39 97.2663 2092.39 94.7337 2090.83 93.1716L2065.37 67.7157C2063.81 66.1536 2061.28 66.1536 2059.72 67.7157C2058.15 69.2778 2058.15 71.8105 2059.72 73.3726L2082.34 96L2059.72 118.627C2058.15 120.19 2058.15 122.722 2059.72 124.284C2061.28 125.846 2063.81 125.846 2065.37 124.284L2090.83 98.8284ZM1992 100H2088V92H1992V100Z" fill="#9E9FA5"/>
<defs>
<clipPath id="clip0_1040_3734">
<rect x="2128" width="1952" height="192" rx="24" fill="white"/>
</clipPath>
</defs>
</svg>
