<svg width="1952" height="327" viewBox="0 0 1952 327" fill="none" xmlns="http://www.w3.org/2000/svg">
<g clip-path="url(#clip0_1038_1262)">
<g opacity="0.3">
<rect y="199" width="18.3908" height="18.3908" fill="#EBEBEB"/>
<rect y="272.563" width="18.3908" height="18.3908" fill="#EBEBEB"/>
<rect y="235.781" width="18.3908" height="18.3908" fill="#EBEBEB"/>
<rect y="309.345" width="18.3908" height="18.3908" fill="#EBEBEB"/>
<rect x="294.253" y="199" width="18.3908" height="18.3908" fill="#EBEBEB"/>
<rect x="294.253" y="272.563" width="18.3908" height="18.3908" fill="#EBEBEB"/>
<rect x="294.253" y="235.781" width="18.3908" height="18.3908" fill="#EBEBEB"/>
<rect x="294.253" y="309.345" width="18.3908" height="18.3908" fill="#EBEBEB"/>
<rect x="147.126" y="199" width="18.3908" height="18.3908" fill="#EBEBEB"/>
<rect x="147.126" y="272.563" width="18.3908" height="18.3908" fill="#EBEBEB"/>
<rect x="147.126" y="235.781" width="18.3908" height="18.3908" fill="#EBEBEB"/>
<rect x="147.126" y="309.345" width="18.3908" height="18.3908" fill="#EBEBEB"/>
<rect x="441.379" y="199" width="18.3908" height="18.3908" fill="#EBEBEB"/>
<rect x="441.379" y="272.563" width="18.3908" height="18.3908" fill="#EBEBEB"/>
<rect x="441.379" y="235.781" width="18.3908" height="18.3908" fill="#EBEBEB"/>
<rect x="441.379" y="309.345" width="18.3908" height="18.3908" fill="#EBEBEB"/>
<rect x="625.287" y="199" width="18.3908" height="18.3908" fill="#EBEBEB"/>
<rect x="625.287" y="272.563" width="18.3908" height="18.3908" fill="#EBEBEB"/>
<rect x="625.287" y="235.781" width="18.3908" height="18.3908" fill="#EBEBEB"/>
<rect x="625.287" y="309.345" width="18.3908" height="18.3908" fill="#EBEBEB"/>
<rect x="809.194" y="199" width="18.3908" height="18.3908" fill="#EBEBEB"/>
<rect x="1471.13" y="199" width="18.3908" height="18.3908" fill="#EBEBEB"/>
<rect x="809.194" y="272.563" width="18.3908" height="18.3908" fill="#EBEBEB"/>
<rect x="1471.13" y="272.563" width="18.3908" height="18.3908" fill="#EBEBEB"/>
<rect x="809.194" y="235.781" width="18.3908" height="18.3908" fill="#EBEBEB"/>
<rect x="1471.13" y="235.781" width="18.3908" height="18.3908" fill="#EBEBEB"/>
<rect x="809.194" y="309.345" width="18.3908" height="18.3908" fill="#EBEBEB"/>
<rect x="1471.13" y="309.345" width="18.3908" height="18.3908" fill="#EBEBEB"/>
<rect x="993.103" y="199" width="18.3908" height="18.3908" fill="#EBEBEB"/>
<rect x="1655.03" y="199" width="18.3908" height="18.3908" fill="#EBEBEB"/>
<rect x="993.103" y="272.563" width="18.3908" height="18.3908" fill="#EBEBEB"/>
<rect x="1655.03" y="272.563" width="18.3908" height="18.3908" fill="#EBEBEB"/>
<rect x="993.103" y="235.781" width="18.3908" height="18.3908" fill="#EBEBEB"/>
<rect x="1655.03" y="235.781" width="18.3908" height="18.3908" fill="#EBEBEB"/>
<rect x="993.103" y="309.345" width="18.3908" height="18.3908" fill="#EBEBEB"/>
<rect x="1655.03" y="309.345" width="18.3908" height="18.3908" fill="#EBEBEB"/>
<rect x="1177.01" y="199" width="18.3908" height="18.3908" fill="#EBEBEB"/>
<rect x="1838.94" y="199" width="18.3908" height="18.3908" fill="#EBEBEB"/>
<rect x="1177.01" y="272.563" width="18.3908" height="18.3908" fill="#EBEBEB"/>
<rect x="1838.94" y="272.563" width="18.3908" height="18.3908" fill="#EBEBEB"/>
<rect x="1177.01" y="235.781" width="18.3908" height="18.3908" fill="#EBEBEB"/>
<rect x="1838.94" y="235.781" width="18.3908" height="18.3908" fill="#EBEBEB"/>
<rect x="1177.01" y="309.345" width="18.3908" height="18.3908" fill="#EBEBEB"/>
<rect x="1838.94" y="309.345" width="18.3908" height="18.3908" fill="#EBEBEB"/>
<rect x="73.5635" y="199" width="18.3908" height="18.3908" fill="#EBEBEB"/>
<rect x="73.5635" y="272.563" width="18.3908" height="18.3908" fill="#EBEBEB"/>
<rect x="73.5635" y="235.781" width="18.3908" height="18.3908" fill="#EBEBEB"/>
<rect x="73.5635" y="309.345" width="18.3908" height="18.3908" fill="#EBEBEB"/>
<rect x="367.815" y="199" width="18.3908" height="18.3908" fill="#EBEBEB"/>
<rect x="367.815" y="272.563" width="18.3908" height="18.3908" fill="#EBEBEB"/>
<rect x="367.815" y="235.781" width="18.3908" height="18.3908" fill="#EBEBEB"/>
<rect x="367.815" y="309.345" width="18.3908" height="18.3908" fill="#EBEBEB"/>
<rect x="220.689" y="199" width="18.3908" height="18.3908" fill="#EBEBEB"/>
<rect x="220.689" y="272.563" width="18.3908" height="18.3908" fill="#EBEBEB"/>
<rect x="220.689" y="235.781" width="18.3908" height="18.3908" fill="#EBEBEB"/>
<rect x="220.689" y="309.345" width="18.3908" height="18.3908" fill="#EBEBEB"/>
<rect x="514.942" y="199" width="18.3908" height="18.3908" fill="#EBEBEB"/>
<rect x="514.942" y="272.563" width="18.3908" height="18.3908" fill="#EBEBEB"/>
<rect x="514.942" y="235.781" width="18.3908" height="18.3908" fill="#EBEBEB"/>
<rect x="514.942" y="309.345" width="18.3908" height="18.3908" fill="#EBEBEB"/>
<rect x="698.85" y="199" width="18.3908" height="18.3908" fill="#EBEBEB"/>
<rect x="1360.78" y="199" width="18.3908" height="18.3908" fill="#EBEBEB"/>
<rect x="698.85" y="272.563" width="18.3908" height="18.3908" fill="#EBEBEB"/>
<rect x="1360.78" y="272.563" width="18.3908" height="18.3908" fill="#EBEBEB"/>
<rect x="698.85" y="235.781" width="18.3908" height="18.3908" fill="#EBEBEB"/>
<rect x="1360.78" y="235.781" width="18.3908" height="18.3908" fill="#EBEBEB"/>
<rect x="698.85" y="309.345" width="18.3908" height="18.3908" fill="#EBEBEB"/>
<rect x="1360.78" y="309.345" width="18.3908" height="18.3908" fill="#EBEBEB"/>
<rect x="882.758" y="199" width="18.3908" height="18.3908" fill="#EBEBEB"/>
<rect x="1544.69" y="199" width="18.3908" height="18.3908" fill="#EBEBEB"/>
<rect x="882.758" y="272.563" width="18.3908" height="18.3908" fill="#EBEBEB"/>
<rect x="1544.69" y="272.563" width="18.3908" height="18.3908" fill="#EBEBEB"/>
<rect x="882.758" y="235.781" width="18.3908" height="18.3908" fill="#EBEBEB"/>
<rect x="1544.69" y="235.781" width="18.3908" height="18.3908" fill="#EBEBEB"/>
<rect x="882.758" y="309.345" width="18.3908" height="18.3908" fill="#EBEBEB"/>
<rect x="1544.69" y="309.345" width="18.3908" height="18.3908" fill="#EBEBEB"/>
<rect x="1066.67" y="199" width="18.3908" height="18.3908" fill="#EBEBEB"/>
<rect x="1728.6" y="199" width="18.3908" height="18.3908" fill="#EBEBEB"/>
<rect x="1066.67" y="272.563" width="18.3908" height="18.3908" fill="#EBEBEB"/>
<rect x="1728.6" y="272.563" width="18.3908" height="18.3908" fill="#EBEBEB"/>
<rect x="1066.67" y="235.781" width="18.3908" height="18.3908" fill="#EBEBEB"/>
<rect x="1728.6" y="235.781" width="18.3908" height="18.3908" fill="#EBEBEB"/>
<rect x="1066.67" y="309.345" width="18.3908" height="18.3908" fill="#EBEBEB"/>
<rect x="1728.6" y="309.345" width="18.3908" height="18.3908" fill="#EBEBEB"/>
<rect x="1250.57" y="199" width="18.3908" height="18.3908" fill="#EBEBEB"/>
<rect x="1912.5" y="199" width="18.3908" height="18.3908" fill="#EBEBEB"/>
<rect x="1250.57" y="272.563" width="18.3908" height="18.3908" fill="#EBEBEB"/>
<rect x="1912.5" y="272.563" width="18.3908" height="18.3908" fill="#EBEBEB"/>
<rect x="1250.57" y="235.781" width="18.3908" height="18.3908" fill="#EBEBEB"/>
<rect x="1912.5" y="235.781" width="18.3908" height="18.3908" fill="#EBEBEB"/>
<rect x="1250.57" y="309.345" width="18.3908" height="18.3908" fill="#EBEBEB"/>
<rect x="1912.5" y="309.345" width="18.3908" height="18.3908" fill="#EBEBEB"/>
<rect x="36.7812" y="199" width="18.3908" height="18.3908" fill="#EBEBEB"/>
<rect x="36.7812" y="272.563" width="18.3908" height="18.3908" fill="#EBEBEB"/>
<rect x="36.7812" y="235.781" width="18.3908" height="18.3908" fill="#EBEBEB"/>
<rect x="36.7812" y="309.345" width="18.3908" height="18.3908" fill="#EBEBEB"/>
<rect x="331.034" y="199" width="18.3908" height="18.3908" fill="#EBEBEB"/>
<rect x="331.034" y="272.563" width="18.3908" height="18.3908" fill="#EBEBEB"/>
<rect x="331.034" y="235.781" width="18.3908" height="18.3908" fill="#EBEBEB"/>
<rect x="331.034" y="309.345" width="18.3908" height="18.3908" fill="#EBEBEB"/>
<rect x="183.908" y="199" width="18.3908" height="18.3908" fill="#EBEBEB"/>
<rect x="183.908" y="272.563" width="18.3908" height="18.3908" fill="#EBEBEB"/>
<rect x="183.908" y="235.781" width="18.3908" height="18.3908" fill="#EBEBEB"/>
<rect x="183.908" y="309.345" width="18.3908" height="18.3908" fill="#EBEBEB"/>
<rect x="478.16" y="199" width="18.3908" height="18.3908" fill="#EBEBEB"/>
<rect x="478.16" y="272.563" width="18.3908" height="18.3908" fill="#EBEBEB"/>
<rect x="478.16" y="235.781" width="18.3908" height="18.3908" fill="#EBEBEB"/>
<rect x="478.16" y="309.345" width="18.3908" height="18.3908" fill="#EBEBEB"/>
<rect x="662.068" y="199" width="18.3908" height="18.3908" fill="#EBEBEB"/>
<rect x="1324" y="199" width="18.3908" height="18.3908" fill="#EBEBEB"/>
<rect x="662.068" y="272.563" width="18.3908" height="18.3908" fill="#EBEBEB"/>
<rect x="1324" y="272.563" width="18.3908" height="18.3908" fill="#EBEBEB"/>
<rect x="662.068" y="235.781" width="18.3908" height="18.3908" fill="#EBEBEB"/>
<rect x="1324" y="235.781" width="18.3908" height="18.3908" fill="#EBEBEB"/>
<rect x="662.068" y="309.345" width="18.3908" height="18.3908" fill="#EBEBEB"/>
<rect x="1324" y="309.345" width="18.3908" height="18.3908" fill="#EBEBEB"/>
<rect x="845.977" y="199" width="18.3908" height="18.3908" fill="#EBEBEB"/>
<rect x="1507.91" y="199" width="18.3908" height="18.3908" fill="#EBEBEB"/>
<rect x="845.977" y="272.563" width="18.3908" height="18.3908" fill="#EBEBEB"/>
<rect x="1507.91" y="272.563" width="18.3908" height="18.3908" fill="#EBEBEB"/>
<rect x="845.977" y="235.781" width="18.3908" height="18.3908" fill="#EBEBEB"/>
<rect x="1507.91" y="235.781" width="18.3908" height="18.3908" fill="#EBEBEB"/>
<rect x="845.977" y="309.345" width="18.3908" height="18.3908" fill="#EBEBEB"/>
<rect x="1507.91" y="309.345" width="18.3908" height="18.3908" fill="#EBEBEB"/>
<rect x="1029.88" y="199" width="18.3908" height="18.3908" fill="#EBEBEB"/>
<rect x="1691.82" y="199" width="18.3908" height="18.3908" fill="#EBEBEB"/>
<rect x="1029.88" y="272.563" width="18.3908" height="18.3908" fill="#EBEBEB"/>
<rect x="1691.82" y="272.563" width="18.3908" height="18.3908" fill="#EBEBEB"/>
<rect x="1029.88" y="235.781" width="18.3908" height="18.3908" fill="#EBEBEB"/>
<rect x="1691.82" y="235.781" width="18.3908" height="18.3908" fill="#EBEBEB"/>
<rect x="1029.88" y="309.345" width="18.3908" height="18.3908" fill="#EBEBEB"/>
<rect x="1691.82" y="309.345" width="18.3908" height="18.3908" fill="#EBEBEB"/>
<rect x="1213.79" y="199" width="18.3908" height="18.3908" fill="#EBEBEB"/>
<rect x="1875.72" y="199" width="18.3908" height="18.3908" fill="#EBEBEB"/>
<rect x="1213.79" y="272.563" width="18.3908" height="18.3908" fill="#EBEBEB"/>
<rect x="1875.72" y="272.563" width="18.3908" height="18.3908" fill="#EBEBEB"/>
<rect x="1213.79" y="235.781" width="18.3908" height="18.3908" fill="#EBEBEB"/>
<rect x="1875.72" y="235.781" width="18.3908" height="18.3908" fill="#EBEBEB"/>
<rect x="1213.79" y="309.345" width="18.3908" height="18.3908" fill="#EBEBEB"/>
<rect x="1875.72" y="309.345" width="18.3908" height="18.3908" fill="#EBEBEB"/>
<rect x="110.345" y="199" width="18.3908" height="18.3908" fill="#EBEBEB"/>
<rect x="110.345" y="272.563" width="18.3908" height="18.3908" fill="#EBEBEB"/>
<rect x="110.345" y="235.781" width="18.3908" height="18.3908" fill="#EBEBEB"/>
<rect x="110.345" y="309.345" width="18.3908" height="18.3908" fill="#EBEBEB"/>
<rect x="404.598" y="199" width="18.3908" height="18.3908" fill="#EBEBEB"/>
<rect x="404.598" y="272.563" width="18.3908" height="18.3908" fill="#EBEBEB"/>
<rect x="404.598" y="235.781" width="18.3908" height="18.3908" fill="#EBEBEB"/>
<rect x="404.598" y="309.345" width="18.3908" height="18.3908" fill="#EBEBEB"/>
<rect x="588.505" y="199" width="18.3908" height="18.3908" fill="#EBEBEB"/>
<rect x="588.505" y="272.563" width="18.3908" height="18.3908" fill="#EBEBEB"/>
<rect x="588.505" y="235.781" width="18.3908" height="18.3908" fill="#EBEBEB"/>
<rect x="588.505" y="309.345" width="18.3908" height="18.3908" fill="#EBEBEB"/>
<rect x="772.413" y="199" width="18.3908" height="18.3908" fill="#EBEBEB"/>
<rect x="1434.34" y="199" width="18.3908" height="18.3908" fill="#EBEBEB"/>
<rect x="772.413" y="272.563" width="18.3908" height="18.3908" fill="#EBEBEB"/>
<rect x="1434.34" y="272.563" width="18.3908" height="18.3908" fill="#EBEBEB"/>
<rect x="772.413" y="235.781" width="18.3908" height="18.3908" fill="#EBEBEB"/>
<rect x="1434.34" y="235.781" width="18.3908" height="18.3908" fill="#EBEBEB"/>
<rect x="772.413" y="309.345" width="18.3908" height="18.3908" fill="#EBEBEB"/>
<rect x="1434.34" y="309.345" width="18.3908" height="18.3908" fill="#EBEBEB"/>
<rect x="956.321" y="199" width="18.3908" height="18.3908" fill="#EBEBEB"/>
<rect x="1618.25" y="199" width="18.3908" height="18.3908" fill="#EBEBEB"/>
<rect x="956.321" y="272.563" width="18.3908" height="18.3908" fill="#EBEBEB"/>
<rect x="1618.25" y="272.563" width="18.3908" height="18.3908" fill="#EBEBEB"/>
<rect x="956.321" y="235.781" width="18.3908" height="18.3908" fill="#EBEBEB"/>
<rect x="1618.25" y="235.781" width="18.3908" height="18.3908" fill="#EBEBEB"/>
<rect x="956.321" y="309.345" width="18.3908" height="18.3908" fill="#EBEBEB"/>
<rect x="1618.25" y="309.345" width="18.3908" height="18.3908" fill="#EBEBEB"/>
<rect x="1140.23" y="199" width="18.3908" height="18.3908" fill="#EBEBEB"/>
<rect x="1802.16" y="199" width="18.3908" height="18.3908" fill="#EBEBEB"/>
<rect x="1140.23" y="272.563" width="18.3908" height="18.3908" fill="#EBEBEB"/>
<rect x="1802.16" y="272.563" width="18.3908" height="18.3908" fill="#EBEBEB"/>
<rect x="1140.23" y="235.781" width="18.3908" height="18.3908" fill="#EBEBEB"/>
<rect x="1802.16" y="235.781" width="18.3908" height="18.3908" fill="#EBEBEB"/>
<rect x="1140.23" y="309.345" width="18.3908" height="18.3908" fill="#EBEBEB"/>
<rect x="1802.16" y="309.345" width="18.3908" height="18.3908" fill="#EBEBEB"/>
<rect x="257.471" y="199" width="18.3908" height="18.3908" fill="#EBEBEB"/>
<rect x="257.471" y="272.563" width="18.3908" height="18.3908" fill="#EBEBEB"/>
<rect x="257.471" y="235.781" width="18.3908" height="18.3908" fill="#EBEBEB"/>
<rect x="257.471" y="309.345" width="18.3908" height="18.3908" fill="#EBEBEB"/>
<rect x="551.724" y="199" width="18.3908" height="18.3908" fill="#EBEBEB"/>
<rect x="551.724" y="272.563" width="18.3908" height="18.3908" fill="#EBEBEB"/>
<rect x="551.724" y="235.781" width="18.3908" height="18.3908" fill="#EBEBEB"/>
<rect x="551.724" y="309.345" width="18.3908" height="18.3908" fill="#EBEBEB"/>
<rect x="735.632" y="199" width="18.3908" height="18.3908" fill="#EBEBEB"/>
<rect x="1397.56" y="199" width="18.3908" height="18.3908" fill="#EBEBEB"/>
<rect x="735.632" y="272.563" width="18.3908" height="18.3908" fill="#EBEBEB"/>
<rect x="1397.56" y="272.563" width="18.3908" height="18.3908" fill="#EBEBEB"/>
<rect x="735.632" y="235.781" width="18.3908" height="18.3908" fill="#EBEBEB"/>
<rect x="1397.56" y="235.781" width="18.3908" height="18.3908" fill="#EBEBEB"/>
<rect x="735.632" y="309.345" width="18.3908" height="18.3908" fill="#EBEBEB"/>
<rect x="1397.56" y="309.345" width="18.3908" height="18.3908" fill="#EBEBEB"/>
<rect x="919.539" y="199" width="18.3908" height="18.3908" fill="#EBEBEB"/>
<rect x="1581.47" y="199" width="18.3908" height="18.3908" fill="#EBEBEB"/>
<rect x="919.539" y="272.563" width="18.3908" height="18.3908" fill="#EBEBEB"/>
<rect x="1581.47" y="272.563" width="18.3908" height="18.3908" fill="#EBEBEB"/>
<rect x="919.539" y="235.781" width="18.3908" height="18.3908" fill="#EBEBEB"/>
<rect x="1581.47" y="235.781" width="18.3908" height="18.3908" fill="#EBEBEB"/>
<rect x="919.539" y="309.345" width="18.3908" height="18.3908" fill="#EBEBEB"/>
<rect x="1581.47" y="309.345" width="18.3908" height="18.3908" fill="#EBEBEB"/>
<rect x="1103.45" y="199" width="18.3908" height="18.3908" fill="#EBEBEB"/>
<rect x="1765.38" y="199" width="18.3908" height="18.3908" fill="#EBEBEB"/>
<rect x="1103.45" y="272.563" width="18.3908" height="18.3908" fill="#EBEBEB"/>
<rect x="1765.38" y="272.563" width="18.3908" height="18.3908" fill="#EBEBEB"/>
<rect x="1103.45" y="235.781" width="18.3908" height="18.3908" fill="#EBEBEB"/>
<rect x="1765.38" y="235.781" width="18.3908" height="18.3908" fill="#EBEBEB"/>
<rect x="1103.45" y="309.345" width="18.3908" height="18.3908" fill="#EBEBEB"/>
<rect x="1765.38" y="309.345" width="18.3908" height="18.3908" fill="#EBEBEB"/>
<rect x="1287.36" y="199" width="18.3908" height="18.3908" fill="#EBEBEB"/>
<rect x="1949.29" y="199" width="18.3908" height="18.3908" fill="#EBEBEB"/>
<rect x="1287.36" y="272.563" width="18.3908" height="18.3908" fill="#EBEBEB"/>
<rect x="1949.29" y="272.563" width="18.3908" height="18.3908" fill="#EBEBEB"/>
<rect x="1287.36" y="235.781" width="18.3908" height="18.3908" fill="#EBEBEB"/>
<rect x="1949.29" y="235.781" width="18.3908" height="18.3908" fill="#EBEBEB"/>
<rect x="1287.36" y="309.345" width="18.3908" height="18.3908" fill="#EBEBEB"/>
<rect x="1949.29" y="309.345" width="18.3908" height="18.3908" fill="#EBEBEB"/>
<rect width="18.3908" height="18.3908" transform="matrix(1 0 0 -1 18.3916 235.781)" fill="#EBEBEB"/>
<rect width="18.3908" height="18.3908" transform="matrix(1 0 0 -1 18.3916 309.345)" fill="#EBEBEB"/>
<rect width="18.3908" height="18.3908" transform="matrix(1 0 0 -1 18.3916 272.563)" fill="#EBEBEB"/>
<rect width="18.3908" height="18.3908" transform="matrix(1 0 0 -1 312.643 235.781)" fill="#EBEBEB"/>
<rect width="18.3908" height="18.3908" transform="matrix(1 0 0 -1 312.643 309.345)" fill="#EBEBEB"/>
<rect width="18.3908" height="18.3908" transform="matrix(1 0 0 -1 312.643 272.563)" fill="#EBEBEB"/>
<rect width="18.3908" height="18.3908" transform="matrix(1 0 0 -1 165.518 235.781)" fill="#EBEBEB"/>
<rect width="18.3908" height="18.3908" transform="matrix(1 0 0 -1 165.518 309.345)" fill="#EBEBEB"/>
<rect width="18.3908" height="18.3908" transform="matrix(1 0 0 -1 165.518 272.563)" fill="#EBEBEB"/>
<rect width="18.3908" height="18.3908" transform="matrix(1 0 0 -1 459.77 235.781)" fill="#EBEBEB"/>
<rect width="18.3908" height="18.3908" transform="matrix(1 0 0 -1 459.77 309.345)" fill="#EBEBEB"/>
<rect width="18.3908" height="18.3908" transform="matrix(1 0 0 -1 459.77 272.563)" fill="#EBEBEB"/>
<rect width="18.3908" height="18.3908" transform="matrix(1 0 0 -1 643.678 235.781)" fill="#EBEBEB"/>
<rect width="18.3908" height="18.3908" transform="matrix(1 0 0 -1 643.678 309.345)" fill="#EBEBEB"/>
<rect width="18.3908" height="18.3908" transform="matrix(1 0 0 -1 643.678 272.563)" fill="#EBEBEB"/>
<rect width="18.3908" height="18.3908" transform="matrix(1 0 0 -1 827.586 235.781)" fill="#EBEBEB"/>
<rect width="18.3908" height="18.3908" transform="matrix(1 0 0 -1 1489.52 235.781)" fill="#EBEBEB"/>
<rect width="18.3908" height="18.3908" transform="matrix(1 0 0 -1 827.586 309.345)" fill="#EBEBEB"/>
<rect width="18.3908" height="18.3908" transform="matrix(1 0 0 -1 1489.52 309.345)" fill="#EBEBEB"/>
<rect width="18.3908" height="18.3908" transform="matrix(1 0 0 -1 827.586 272.563)" fill="#EBEBEB"/>
<rect width="18.3908" height="18.3908" transform="matrix(1 0 0 -1 1489.52 272.563)" fill="#EBEBEB"/>
<rect width="18.3908" height="18.3908" transform="matrix(1 0 0 -1 1011.49 235.781)" fill="#EBEBEB"/>
<rect width="18.3908" height="18.3908" transform="matrix(1 0 0 -1 1673.43 235.781)" fill="#EBEBEB"/>
<rect width="18.3908" height="18.3908" transform="matrix(1 0 0 -1 1011.49 309.345)" fill="#EBEBEB"/>
<rect width="18.3908" height="18.3908" transform="matrix(1 0 0 -1 1673.43 309.345)" fill="#EBEBEB"/>
<rect width="18.3908" height="18.3908" transform="matrix(1 0 0 -1 1011.49 272.563)" fill="#EBEBEB"/>
<rect width="18.3908" height="18.3908" transform="matrix(1 0 0 -1 1673.43 272.563)" fill="#EBEBEB"/>
<rect width="18.3908" height="18.3908" transform="matrix(1 0 0 -1 1195.4 235.781)" fill="#EBEBEB"/>
<rect width="18.3908" height="18.3908" transform="matrix(1 0 0 -1 1857.33 235.781)" fill="#EBEBEB"/>
<rect width="18.3908" height="18.3908" transform="matrix(1 0 0 -1 1195.4 309.345)" fill="#EBEBEB"/>
<rect width="18.3908" height="18.3908" transform="matrix(1 0 0 -1 1857.33 309.345)" fill="#EBEBEB"/>
<rect width="18.3908" height="18.3908" transform="matrix(1 0 0 -1 1195.4 272.563)" fill="#EBEBEB"/>
<rect width="18.3908" height="18.3908" transform="matrix(1 0 0 -1 1857.33 272.563)" fill="#EBEBEB"/>
<rect width="18.3908" height="18.3908" transform="matrix(1 0 0 -1 91.9531 235.781)" fill="#EBEBEB"/>
<rect width="18.3908" height="18.3908" transform="matrix(1 0 0 -1 91.9531 309.345)" fill="#EBEBEB"/>
<rect width="18.3908" height="18.3908" transform="matrix(1 0 0 -1 91.9531 272.563)" fill="#EBEBEB"/>
<rect width="18.3908" height="18.3908" transform="matrix(1 0 0 -1 386.207 235.781)" fill="#EBEBEB"/>
<rect width="18.3908" height="18.3908" transform="matrix(1 0 0 -1 386.207 309.345)" fill="#EBEBEB"/>
<rect width="18.3908" height="18.3908" transform="matrix(1 0 0 -1 386.207 272.563)" fill="#EBEBEB"/>
<rect width="18.3908" height="18.3908" transform="matrix(1 0 0 -1 239.08 235.781)" fill="#EBEBEB"/>
<rect width="18.3908" height="18.3908" transform="matrix(1 0 0 -1 239.08 309.345)" fill="#EBEBEB"/>
<rect width="18.3908" height="18.3908" transform="matrix(1 0 0 -1 239.08 272.563)" fill="#EBEBEB"/>
<rect width="18.3908" height="18.3908" transform="matrix(1 0 0 -1 533.332 235.781)" fill="#EBEBEB"/>
<rect width="18.3908" height="18.3908" transform="matrix(1 0 0 -1 533.332 309.345)" fill="#EBEBEB"/>
<rect width="18.3908" height="18.3908" transform="matrix(1 0 0 -1 533.332 272.563)" fill="#EBEBEB"/>
<rect width="18.3908" height="18.3908" transform="matrix(1 0 0 -1 717.24 235.781)" fill="#EBEBEB"/>
<rect width="18.3908" height="18.3908" transform="matrix(1 0 0 -1 1379.17 235.781)" fill="#EBEBEB"/>
<rect width="18.3908" height="18.3908" transform="matrix(1 0 0 -1 717.24 309.345)" fill="#EBEBEB"/>
<rect width="18.3908" height="18.3908" transform="matrix(1 0 0 -1 1379.17 309.345)" fill="#EBEBEB"/>
<rect width="18.3908" height="18.3908" transform="matrix(1 0 0 -1 717.24 272.563)" fill="#EBEBEB"/>
<rect width="18.3908" height="18.3908" transform="matrix(1 0 0 -1 1379.17 272.563)" fill="#EBEBEB"/>
<rect width="18.3908" height="18.3908" transform="matrix(1 0 0 -1 901.148 235.781)" fill="#EBEBEB"/>
<rect width="18.3908" height="18.3908" transform="matrix(1 0 0 -1 1563.08 235.781)" fill="#EBEBEB"/>
<rect width="18.3908" height="18.3908" transform="matrix(1 0 0 -1 901.148 309.345)" fill="#EBEBEB"/>
<rect width="18.3908" height="18.3908" transform="matrix(1 0 0 -1 1563.08 309.345)" fill="#EBEBEB"/>
<rect width="18.3908" height="18.3908" transform="matrix(1 0 0 -1 901.148 272.563)" fill="#EBEBEB"/>
<rect width="18.3908" height="18.3908" transform="matrix(1 0 0 -1 1563.08 272.563)" fill="#EBEBEB"/>
<rect width="18.3908" height="18.3908" transform="matrix(1 0 0 -1 1085.06 235.781)" fill="#EBEBEB"/>
<rect width="18.3908" height="18.3908" transform="matrix(1 0 0 -1 1746.99 235.781)" fill="#EBEBEB"/>
<rect width="18.3908" height="18.3908" transform="matrix(1 0 0 -1 1085.06 309.345)" fill="#EBEBEB"/>
<rect width="18.3908" height="18.3908" transform="matrix(1 0 0 -1 1746.99 309.345)" fill="#EBEBEB"/>
<rect width="18.3908" height="18.3908" transform="matrix(1 0 0 -1 1085.06 272.563)" fill="#EBEBEB"/>
<rect width="18.3908" height="18.3908" transform="matrix(1 0 0 -1 1746.99 272.563)" fill="#EBEBEB"/>
<rect width="18.3908" height="18.3908" transform="matrix(1 0 0 -1 1268.96 235.781)" fill="#EBEBEB"/>
<rect width="18.3908" height="18.3908" transform="matrix(1 0 0 -1 1930.9 235.781)" fill="#EBEBEB"/>
<rect width="18.3908" height="18.3908" transform="matrix(1 0 0 -1 1268.96 309.345)" fill="#EBEBEB"/>
<rect width="18.3908" height="18.3908" transform="matrix(1 0 0 -1 1930.9 309.345)" fill="#EBEBEB"/>
<rect width="18.3908" height="18.3908" transform="matrix(1 0 0 -1 1268.96 272.563)" fill="#EBEBEB"/>
<rect width="18.3908" height="18.3908" transform="matrix(1 0 0 -1 1930.9 272.563)" fill="#EBEBEB"/>
<rect width="18.3908" height="18.3908" transform="matrix(1 0 0 -1 55.1719 235.781)" fill="#EBEBEB"/>
<rect width="18.3908" height="18.3908" transform="matrix(1 0 0 -1 55.1719 309.345)" fill="#EBEBEB"/>
<rect width="18.3908" height="18.3908" transform="matrix(1 0 0 -1 55.1719 272.563)" fill="#EBEBEB"/>
<rect width="18.3908" height="18.3908" transform="matrix(1 0 0 -1 349.426 235.781)" fill="#EBEBEB"/>
<rect width="18.3908" height="18.3908" transform="matrix(1 0 0 -1 349.426 309.345)" fill="#EBEBEB"/>
<rect width="18.3908" height="18.3908" transform="matrix(1 0 0 -1 349.426 272.563)" fill="#EBEBEB"/>
<rect width="18.3908" height="18.3908" transform="matrix(1 0 0 -1 202.299 235.781)" fill="#EBEBEB"/>
<rect width="18.3908" height="18.3908" transform="matrix(1 0 0 -1 202.299 309.345)" fill="#EBEBEB"/>
<rect width="18.3908" height="18.3908" transform="matrix(1 0 0 -1 202.299 272.563)" fill="#EBEBEB"/>
<rect width="18.3908" height="18.3908" transform="matrix(1 0 0 -1 496.551 235.781)" fill="#EBEBEB"/>
<rect width="18.3908" height="18.3908" transform="matrix(1 0 0 -1 496.551 309.345)" fill="#EBEBEB"/>
<rect width="18.3908" height="18.3908" transform="matrix(1 0 0 -1 496.551 272.563)" fill="#EBEBEB"/>
<rect width="18.3908" height="18.3908" transform="matrix(1 0 0 -1 680.459 235.781)" fill="#EBEBEB"/>
<rect width="18.3908" height="18.3908" transform="matrix(1 0 0 -1 1342.39 235.781)" fill="#EBEBEB"/>
<rect width="18.3908" height="18.3908" transform="matrix(1 0 0 -1 680.459 309.345)" fill="#EBEBEB"/>
<rect width="18.3908" height="18.3908" transform="matrix(1 0 0 -1 1342.39 309.345)" fill="#EBEBEB"/>
<rect width="18.3908" height="18.3908" transform="matrix(1 0 0 -1 680.459 272.563)" fill="#EBEBEB"/>
<rect width="18.3908" height="18.3908" transform="matrix(1 0 0 -1 1342.39 272.563)" fill="#EBEBEB"/>
<rect width="18.3908" height="18.3908" transform="matrix(1 0 0 -1 864.367 235.781)" fill="#EBEBEB"/>
<rect width="18.3908" height="18.3908" transform="matrix(1 0 0 -1 1526.3 235.781)" fill="#EBEBEB"/>
<rect width="18.3908" height="18.3908" transform="matrix(1 0 0 -1 864.367 309.345)" fill="#EBEBEB"/>
<rect width="18.3908" height="18.3908" transform="matrix(1 0 0 -1 1526.3 309.345)" fill="#EBEBEB"/>
<rect width="18.3908" height="18.3908" transform="matrix(1 0 0 -1 864.367 272.563)" fill="#EBEBEB"/>
<rect width="18.3908" height="18.3908" transform="matrix(1 0 0 -1 1526.3 272.563)" fill="#EBEBEB"/>
<rect width="18.3908" height="18.3908" transform="matrix(1 0 0 -1 1048.28 235.781)" fill="#EBEBEB"/>
<rect width="18.3908" height="18.3908" transform="matrix(1 0 0 -1 1710.21 235.781)" fill="#EBEBEB"/>
<rect width="18.3908" height="18.3908" transform="matrix(1 0 0 -1 1048.28 309.345)" fill="#EBEBEB"/>
<rect width="18.3908" height="18.3908" transform="matrix(1 0 0 -1 1710.21 309.345)" fill="#EBEBEB"/>
<rect width="18.3908" height="18.3908" transform="matrix(1 0 0 -1 1048.28 272.563)" fill="#EBEBEB"/>
<rect width="18.3908" height="18.3908" transform="matrix(1 0 0 -1 1710.21 272.563)" fill="#EBEBEB"/>
<rect width="18.3908" height="18.3908" transform="matrix(1 0 0 -1 1232.18 235.781)" fill="#EBEBEB"/>
<rect width="18.3908" height="18.3908" transform="matrix(1 0 0 -1 1894.12 235.781)" fill="#EBEBEB"/>
<rect width="18.3908" height="18.3908" transform="matrix(1 0 0 -1 1232.18 309.345)" fill="#EBEBEB"/>
<rect width="18.3908" height="18.3908" transform="matrix(1 0 0 -1 1894.12 309.345)" fill="#EBEBEB"/>
<rect width="18.3908" height="18.3908" transform="matrix(1 0 0 -1 1232.18 272.563)" fill="#EBEBEB"/>
<rect width="18.3908" height="18.3908" transform="matrix(1 0 0 -1 1894.12 272.563)" fill="#EBEBEB"/>
<rect width="18.3908" height="18.3908" transform="matrix(1 0 0 -1 128.736 235.781)" fill="#EBEBEB"/>
<rect width="18.3908" height="18.3908" transform="matrix(1 0 0 -1 128.736 309.345)" fill="#EBEBEB"/>
<rect width="18.3908" height="18.3908" transform="matrix(1 0 0 -1 128.736 272.563)" fill="#EBEBEB"/>
<rect width="18.3908" height="18.3908" transform="matrix(1 0 0 -1 422.988 235.781)" fill="#EBEBEB"/>
<rect width="18.3908" height="18.3908" transform="matrix(1 0 0 -1 422.988 309.345)" fill="#EBEBEB"/>
<rect width="18.3908" height="18.3908" transform="matrix(1 0 0 -1 422.988 272.563)" fill="#EBEBEB"/>
<rect width="18.3908" height="18.3908" transform="matrix(1 0 0 -1 606.896 235.781)" fill="#EBEBEB"/>
<rect width="18.3908" height="18.3908" transform="matrix(1 0 0 -1 606.896 309.345)" fill="#EBEBEB"/>
<rect width="18.3908" height="18.3908" transform="matrix(1 0 0 -1 606.896 272.563)" fill="#EBEBEB"/>
<rect width="18.3908" height="18.3908" transform="matrix(1 0 0 -1 790.805 235.781)" fill="#EBEBEB"/>
<rect width="18.3908" height="18.3908" transform="matrix(1 0 0 -1 1452.74 235.781)" fill="#EBEBEB"/>
<rect width="18.3908" height="18.3908" transform="matrix(1 0 0 -1 790.805 309.345)" fill="#EBEBEB"/>
<rect width="18.3908" height="18.3908" transform="matrix(1 0 0 -1 1452.74 309.345)" fill="#EBEBEB"/>
<rect width="18.3908" height="18.3908" transform="matrix(1 0 0 -1 790.805 272.563)" fill="#EBEBEB"/>
<rect width="18.3908" height="18.3908" transform="matrix(1 0 0 -1 1452.74 272.563)" fill="#EBEBEB"/>
<rect width="18.3908" height="18.3908" transform="matrix(1 0 0 -1 974.711 235.781)" fill="#EBEBEB"/>
<rect width="18.3908" height="18.3908" transform="matrix(1 0 0 -1 1636.64 235.781)" fill="#EBEBEB"/>
<rect width="18.3908" height="18.3908" transform="matrix(1 0 0 -1 974.711 309.345)" fill="#EBEBEB"/>
<rect width="18.3908" height="18.3908" transform="matrix(1 0 0 -1 1636.64 309.345)" fill="#EBEBEB"/>
<rect width="18.3908" height="18.3908" transform="matrix(1 0 0 -1 974.711 272.563)" fill="#EBEBEB"/>
<rect width="18.3908" height="18.3908" transform="matrix(1 0 0 -1 1636.64 272.563)" fill="#EBEBEB"/>
<rect width="18.3908" height="18.3908" transform="matrix(1 0 0 -1 1158.62 235.781)" fill="#EBEBEB"/>
<rect width="18.3908" height="18.3908" transform="matrix(1 0 0 -1 1820.55 235.781)" fill="#EBEBEB"/>
<rect width="18.3908" height="18.3908" transform="matrix(1 0 0 -1 1158.62 309.345)" fill="#EBEBEB"/>
<rect width="18.3908" height="18.3908" transform="matrix(1 0 0 -1 1820.55 309.345)" fill="#EBEBEB"/>
<rect width="18.3908" height="18.3908" transform="matrix(1 0 0 -1 1158.62 272.563)" fill="#EBEBEB"/>
<rect width="18.3908" height="18.3908" transform="matrix(1 0 0 -1 1820.55 272.563)" fill="#EBEBEB"/>
<rect width="18.3908" height="18.3908" transform="matrix(1 0 0 -1 275.861 235.781)" fill="#EBEBEB"/>
<rect width="18.3908" height="18.3908" transform="matrix(1 0 0 -1 275.861 309.345)" fill="#EBEBEB"/>
<rect width="18.3908" height="18.3908" transform="matrix(1 0 0 -1 275.861 272.563)" fill="#EBEBEB"/>
<rect width="18.3908" height="18.3908" transform="matrix(1 0 0 -1 570.115 235.781)" fill="#EBEBEB"/>
<rect width="18.3908" height="18.3908" transform="matrix(1 0 0 -1 570.115 309.345)" fill="#EBEBEB"/>
<rect width="18.3908" height="18.3908" transform="matrix(1 0 0 -1 570.115 272.563)" fill="#EBEBEB"/>
<rect width="18.3908" height="18.3908" transform="matrix(1 0 0 -1 754.021 235.781)" fill="#EBEBEB"/>
<rect width="18.3908" height="18.3908" transform="matrix(1 0 0 -1 1415.95 235.781)" fill="#EBEBEB"/>
<rect width="18.3908" height="18.3908" transform="matrix(1 0 0 -1 754.021 309.345)" fill="#EBEBEB"/>
<rect width="18.3908" height="18.3908" transform="matrix(1 0 0 -1 1415.95 309.345)" fill="#EBEBEB"/>
<rect width="18.3908" height="18.3908" transform="matrix(1 0 0 -1 754.021 272.563)" fill="#EBEBEB"/>
<rect width="18.3908" height="18.3908" transform="matrix(1 0 0 -1 1415.95 272.563)" fill="#EBEBEB"/>
<rect width="18.3908" height="18.3908" transform="matrix(1 0 0 -1 937.93 235.781)" fill="#EBEBEB"/>
<rect width="18.3908" height="18.3908" transform="matrix(1 0 0 -1 1599.86 235.781)" fill="#EBEBEB"/>
<rect width="18.3908" height="18.3908" transform="matrix(1 0 0 -1 937.93 309.345)" fill="#EBEBEB"/>
<rect width="18.3908" height="18.3908" transform="matrix(1 0 0 -1 1599.86 309.345)" fill="#EBEBEB"/>
<rect width="18.3908" height="18.3908" transform="matrix(1 0 0 -1 937.93 272.563)" fill="#EBEBEB"/>
<rect width="18.3908" height="18.3908" transform="matrix(1 0 0 -1 1599.86 272.563)" fill="#EBEBEB"/>
<rect width="18.3908" height="18.3908" transform="matrix(1 0 0 -1 1121.84 235.781)" fill="#EBEBEB"/>
<rect width="18.3908" height="18.3908" transform="matrix(1 0 0 -1 1783.77 235.781)" fill="#EBEBEB"/>
<rect width="18.3908" height="18.3908" transform="matrix(1 0 0 -1 1121.84 309.345)" fill="#EBEBEB"/>
<rect width="18.3908" height="18.3908" transform="matrix(1 0 0 -1 1783.77 309.345)" fill="#EBEBEB"/>
<rect width="18.3908" height="18.3908" transform="matrix(1 0 0 -1 1121.84 272.563)" fill="#EBEBEB"/>
<rect width="18.3908" height="18.3908" transform="matrix(1 0 0 -1 1783.77 272.563)" fill="#EBEBEB"/>
<rect width="18.3908" height="18.3908" transform="matrix(1 0 0 -1 1305.75 235.781)" fill="#EBEBEB"/>
<rect width="18.3908" height="18.3908" transform="matrix(1 0 0 -1 1305.75 309.345)" fill="#EBEBEB"/>
<rect width="18.3908" height="18.3908" transform="matrix(1 0 0 -1 1305.75 272.563)" fill="#EBEBEB"/>
<rect y="217.392" width="18.3908" height="18.3908" fill="#9E9E9E"/>
<rect y="290.953" width="18.3908" height="18.3908" fill="#9E9E9E"/>
<rect y="254.172" width="18.3908" height="18.3908" fill="#9E9E9E"/>
<rect x="294.253" y="217.392" width="18.3908" height="18.3908" fill="#9E9E9E"/>
<rect x="294.253" y="290.953" width="18.3908" height="18.3908" fill="#9E9E9E"/>
<rect x="294.253" y="254.172" width="18.3908" height="18.3908" fill="#9E9E9E"/>
<rect x="147.126" y="217.392" width="18.3908" height="18.3908" fill="#9E9E9E"/>
<rect x="147.126" y="290.953" width="18.3908" height="18.3908" fill="#9E9E9E"/>
<rect x="147.126" y="254.172" width="18.3908" height="18.3908" fill="#9E9E9E"/>
<rect x="441.379" y="217.392" width="18.3908" height="18.3908" fill="#9E9E9E"/>
<rect x="441.379" y="290.953" width="18.3908" height="18.3908" fill="#9E9E9E"/>
<rect x="441.379" y="254.172" width="18.3908" height="18.3908" fill="#9E9E9E"/>
<rect x="625.287" y="217.392" width="18.3908" height="18.3908" fill="#9E9E9E"/>
<rect x="625.287" y="290.953" width="18.3908" height="18.3908" fill="#9E9E9E"/>
<rect x="625.287" y="254.172" width="18.3908" height="18.3908" fill="#9E9E9E"/>
<rect x="809.194" y="217.392" width="18.3908" height="18.3908" fill="#9E9E9E"/>
<rect x="1471.13" y="217.392" width="18.3908" height="18.3908" fill="#9E9E9E"/>
<rect x="809.194" y="290.953" width="18.3908" height="18.3908" fill="#9E9E9E"/>
<rect x="1471.13" y="290.953" width="18.3908" height="18.3908" fill="#9E9E9E"/>
<rect x="809.194" y="254.172" width="18.3908" height="18.3908" fill="#9E9E9E"/>
<rect x="1471.13" y="254.172" width="18.3908" height="18.3908" fill="#9E9E9E"/>
<rect x="993.103" y="217.392" width="18.3908" height="18.3908" fill="#9E9E9E"/>
<rect x="1655.03" y="217.392" width="18.3908" height="18.3908" fill="#9E9E9E"/>
<rect x="993.103" y="290.953" width="18.3908" height="18.3908" fill="#9E9E9E"/>
<rect x="1655.03" y="290.953" width="18.3908" height="18.3908" fill="#9E9E9E"/>
<rect x="993.103" y="254.172" width="18.3908" height="18.3908" fill="#9E9E9E"/>
<rect x="1655.03" y="254.172" width="18.3908" height="18.3908" fill="#9E9E9E"/>
<rect x="1177.01" y="217.392" width="18.3908" height="18.3908" fill="#9E9E9E"/>
<rect x="1838.94" y="217.392" width="18.3908" height="18.3908" fill="#9E9E9E"/>
<rect x="1177.01" y="290.953" width="18.3908" height="18.3908" fill="#9E9E9E"/>
<rect x="1838.94" y="290.953" width="18.3908" height="18.3908" fill="#9E9E9E"/>
<rect x="1177.01" y="254.172" width="18.3908" height="18.3908" fill="#9E9E9E"/>
<rect x="1838.94" y="254.172" width="18.3908" height="18.3908" fill="#9E9E9E"/>
<rect x="73.5635" y="217.392" width="18.3908" height="18.3908" fill="#9E9E9E"/>
<rect x="73.5635" y="290.953" width="18.3908" height="18.3908" fill="#9E9E9E"/>
<rect x="73.5635" y="254.172" width="18.3908" height="18.3908" fill="#9E9E9E"/>
<rect x="367.815" y="217.392" width="18.3908" height="18.3908" fill="#9E9E9E"/>
<rect x="367.815" y="290.953" width="18.3908" height="18.3908" fill="#9E9E9E"/>
<rect x="367.815" y="254.172" width="18.3908" height="18.3908" fill="#9E9E9E"/>
<rect x="220.689" y="217.392" width="18.3908" height="18.3908" fill="#9E9E9E"/>
<rect x="220.689" y="290.953" width="18.3908" height="18.3908" fill="#9E9E9E"/>
<rect x="220.689" y="254.172" width="18.3908" height="18.3908" fill="#9E9E9E"/>
<rect x="514.942" y="217.392" width="18.3908" height="18.3908" fill="#9E9E9E"/>
<rect x="514.942" y="290.953" width="18.3908" height="18.3908" fill="#9E9E9E"/>
<rect x="514.942" y="254.172" width="18.3908" height="18.3908" fill="#9E9E9E"/>
<rect x="698.85" y="217.392" width="18.3908" height="18.3908" fill="#9E9E9E"/>
<rect x="1360.78" y="217.392" width="18.3908" height="18.3908" fill="#9E9E9E"/>
<rect x="698.85" y="290.953" width="18.3908" height="18.3908" fill="#9E9E9E"/>
<rect x="1360.78" y="290.953" width="18.3908" height="18.3908" fill="#9E9E9E"/>
<rect x="698.85" y="254.172" width="18.3908" height="18.3908" fill="#9E9E9E"/>
<rect x="1360.78" y="254.172" width="18.3908" height="18.3908" fill="#9E9E9E"/>
<rect x="882.758" y="217.392" width="18.3908" height="18.3908" fill="#9E9E9E"/>
<rect x="1544.69" y="217.392" width="18.3908" height="18.3908" fill="#9E9E9E"/>
<rect x="882.758" y="290.953" width="18.3908" height="18.3908" fill="#9E9E9E"/>
<rect x="1544.69" y="290.953" width="18.3908" height="18.3908" fill="#9E9E9E"/>
<rect x="882.758" y="254.172" width="18.3908" height="18.3908" fill="#9E9E9E"/>
<rect x="1544.69" y="254.172" width="18.3908" height="18.3908" fill="#9E9E9E"/>
<rect x="1066.67" y="217.392" width="18.3908" height="18.3908" fill="#9E9E9E"/>
<rect x="1728.6" y="217.392" width="18.3908" height="18.3908" fill="#9E9E9E"/>
<rect x="1066.67" y="290.953" width="18.3908" height="18.3908" fill="#9E9E9E"/>
<rect x="1728.6" y="290.953" width="18.3908" height="18.3908" fill="#9E9E9E"/>
<rect x="1066.67" y="254.172" width="18.3908" height="18.3908" fill="#9E9E9E"/>
<rect x="1728.6" y="254.172" width="18.3908" height="18.3908" fill="#9E9E9E"/>
<rect x="1250.57" y="217.392" width="18.3908" height="18.3908" fill="#9E9E9E"/>
<rect x="1912.5" y="217.392" width="18.3908" height="18.3908" fill="#9E9E9E"/>
<rect x="1250.57" y="290.953" width="18.3908" height="18.3908" fill="#9E9E9E"/>
<rect x="1912.5" y="290.953" width="18.3908" height="18.3908" fill="#9E9E9E"/>
<rect x="1250.57" y="254.172" width="18.3908" height="18.3908" fill="#9E9E9E"/>
<rect x="1912.5" y="254.172" width="18.3908" height="18.3908" fill="#9E9E9E"/>
<rect x="36.7812" y="217.392" width="18.3908" height="18.3908" fill="#9E9E9E"/>
<rect x="36.7812" y="290.953" width="18.3908" height="18.3908" fill="#9E9E9E"/>
<rect x="36.7812" y="254.172" width="18.3908" height="18.3908" fill="#9E9E9E"/>
<rect x="331.034" y="217.392" width="18.3908" height="18.3908" fill="#9E9E9E"/>
<rect x="331.034" y="290.953" width="18.3908" height="18.3908" fill="#9E9E9E"/>
<rect x="331.034" y="254.172" width="18.3908" height="18.3908" fill="#9E9E9E"/>
<rect x="183.908" y="217.392" width="18.3908" height="18.3908" fill="#9E9E9E"/>
<rect x="183.908" y="290.953" width="18.3908" height="18.3908" fill="#9E9E9E"/>
<rect x="183.908" y="254.172" width="18.3908" height="18.3908" fill="#9E9E9E"/>
<rect x="478.16" y="217.392" width="18.3908" height="18.3908" fill="#9E9E9E"/>
<rect x="478.16" y="290.953" width="18.3908" height="18.3908" fill="#9E9E9E"/>
<rect x="478.16" y="254.172" width="18.3908" height="18.3908" fill="#9E9E9E"/>
<rect x="662.068" y="217.392" width="18.3908" height="18.3908" fill="#9E9E9E"/>
<rect x="1324" y="217.392" width="18.3908" height="18.3908" fill="#9E9E9E"/>
<rect x="662.068" y="290.953" width="18.3908" height="18.3908" fill="#9E9E9E"/>
<rect x="1324" y="290.953" width="18.3908" height="18.3908" fill="#9E9E9E"/>
<rect x="662.068" y="254.172" width="18.3908" height="18.3908" fill="#9E9E9E"/>
<rect x="1324" y="254.172" width="18.3908" height="18.3908" fill="#9E9E9E"/>
<rect x="845.977" y="217.392" width="18.3908" height="18.3908" fill="#9E9E9E"/>
<rect x="1507.91" y="217.392" width="18.3908" height="18.3908" fill="#9E9E9E"/>
<rect x="845.977" y="290.953" width="18.3908" height="18.3908" fill="#9E9E9E"/>
<rect x="1507.91" y="290.953" width="18.3908" height="18.3908" fill="#9E9E9E"/>
<rect x="845.977" y="254.172" width="18.3908" height="18.3908" fill="#9E9E9E"/>
<rect x="1507.91" y="254.172" width="18.3908" height="18.3908" fill="#9E9E9E"/>
<rect x="1029.88" y="217.392" width="18.3908" height="18.3908" fill="#9E9E9E"/>
<rect x="1691.82" y="217.392" width="18.3908" height="18.3908" fill="#9E9E9E"/>
<rect x="1029.88" y="290.953" width="18.3908" height="18.3908" fill="#9E9E9E"/>
<rect x="1691.82" y="290.953" width="18.3908" height="18.3908" fill="#9E9E9E"/>
<rect x="1029.88" y="254.172" width="18.3908" height="18.3908" fill="#9E9E9E"/>
<rect x="1691.82" y="254.172" width="18.3908" height="18.3908" fill="#9E9E9E"/>
<rect x="1213.79" y="217.392" width="18.3908" height="18.3908" fill="#9E9E9E"/>
<rect x="1875.72" y="217.392" width="18.3908" height="18.3908" fill="#9E9E9E"/>
<rect x="1213.79" y="290.953" width="18.3908" height="18.3908" fill="#9E9E9E"/>
<rect x="1875.72" y="290.953" width="18.3908" height="18.3908" fill="#9E9E9E"/>
<rect x="1213.79" y="254.172" width="18.3908" height="18.3908" fill="#9E9E9E"/>
<rect x="1875.72" y="254.172" width="18.3908" height="18.3908" fill="#9E9E9E"/>
<rect x="110.345" y="217.392" width="18.3908" height="18.3908" fill="#9E9E9E"/>
<rect x="110.345" y="290.953" width="18.3908" height="18.3908" fill="#9E9E9E"/>
<rect x="110.345" y="254.172" width="18.3908" height="18.3908" fill="#9E9E9E"/>
<rect x="404.598" y="217.392" width="18.3908" height="18.3908" fill="#9E9E9E"/>
<rect x="404.598" y="290.953" width="18.3908" height="18.3908" fill="#9E9E9E"/>
<rect x="404.598" y="254.172" width="18.3908" height="18.3908" fill="#9E9E9E"/>
<rect x="588.505" y="217.392" width="18.3908" height="18.3908" fill="#9E9E9E"/>
<rect x="588.505" y="290.953" width="18.3908" height="18.3908" fill="#9E9E9E"/>
<rect x="588.505" y="254.172" width="18.3908" height="18.3908" fill="#9E9E9E"/>
<rect x="772.413" y="217.392" width="18.3908" height="18.3908" fill="#9E9E9E"/>
<rect x="1434.34" y="217.392" width="18.3908" height="18.3908" fill="#9E9E9E"/>
<rect x="772.413" y="290.953" width="18.3908" height="18.3908" fill="#9E9E9E"/>
<rect x="1434.34" y="290.953" width="18.3908" height="18.3908" fill="#9E9E9E"/>
<rect x="772.413" y="254.172" width="18.3908" height="18.3908" fill="#9E9E9E"/>
<rect x="1434.34" y="254.172" width="18.3908" height="18.3908" fill="#9E9E9E"/>
<rect x="956.321" y="217.392" width="18.3908" height="18.3908" fill="#9E9E9E"/>
<rect x="1618.25" y="217.392" width="18.3908" height="18.3908" fill="#9E9E9E"/>
<rect x="956.321" y="290.953" width="18.3908" height="18.3908" fill="#9E9E9E"/>
<rect x="1618.25" y="290.953" width="18.3908" height="18.3908" fill="#9E9E9E"/>
<rect x="956.321" y="254.172" width="18.3908" height="18.3908" fill="#9E9E9E"/>
<rect x="1618.25" y="254.172" width="18.3908" height="18.3908" fill="#9E9E9E"/>
<rect x="1140.23" y="217.392" width="18.3908" height="18.3908" fill="#9E9E9E"/>
<rect x="1802.16" y="217.392" width="18.3908" height="18.3908" fill="#9E9E9E"/>
<rect x="1140.23" y="290.953" width="18.3908" height="18.3908" fill="#9E9E9E"/>
<rect x="1802.16" y="290.953" width="18.3908" height="18.3908" fill="#9E9E9E"/>
<rect x="1140.23" y="254.172" width="18.3908" height="18.3908" fill="#9E9E9E"/>
<rect x="1802.16" y="254.172" width="18.3908" height="18.3908" fill="#9E9E9E"/>
<rect x="257.471" y="217.392" width="18.3908" height="18.3908" fill="#9E9E9E"/>
<rect x="257.471" y="290.953" width="18.3908" height="18.3908" fill="#9E9E9E"/>
<rect x="257.471" y="254.172" width="18.3908" height="18.3908" fill="#9E9E9E"/>
<rect x="551.724" y="217.392" width="18.3908" height="18.3908" fill="#9E9E9E"/>
<rect x="551.724" y="290.953" width="18.3908" height="18.3908" fill="#9E9E9E"/>
<rect x="551.724" y="254.172" width="18.3908" height="18.3908" fill="#9E9E9E"/>
<rect x="735.632" y="217.392" width="18.3908" height="18.3908" fill="#9E9E9E"/>
<rect x="1397.56" y="217.392" width="18.3908" height="18.3908" fill="#9E9E9E"/>
<rect x="735.632" y="290.953" width="18.3908" height="18.3908" fill="#9E9E9E"/>
<rect x="1397.56" y="290.953" width="18.3908" height="18.3908" fill="#9E9E9E"/>
<rect x="735.632" y="254.172" width="18.3908" height="18.3908" fill="#9E9E9E"/>
<rect x="1397.56" y="254.172" width="18.3908" height="18.3908" fill="#9E9E9E"/>
<rect x="919.539" y="217.392" width="18.3908" height="18.3908" fill="#9E9E9E"/>
<rect x="1581.47" y="217.392" width="18.3908" height="18.3908" fill="#9E9E9E"/>
<rect x="919.539" y="290.953" width="18.3908" height="18.3908" fill="#9E9E9E"/>
<rect x="1581.47" y="290.953" width="18.3908" height="18.3908" fill="#9E9E9E"/>
<rect x="919.539" y="254.172" width="18.3908" height="18.3908" fill="#9E9E9E"/>
<rect x="1581.47" y="254.172" width="18.3908" height="18.3908" fill="#9E9E9E"/>
<rect x="1103.45" y="217.392" width="18.3908" height="18.3908" fill="#9E9E9E"/>
<rect x="1765.38" y="217.392" width="18.3908" height="18.3908" fill="#9E9E9E"/>
<rect x="1103.45" y="290.953" width="18.3908" height="18.3908" fill="#9E9E9E"/>
<rect x="1765.38" y="290.953" width="18.3908" height="18.3908" fill="#9E9E9E"/>
<rect x="1103.45" y="254.172" width="18.3908" height="18.3908" fill="#9E9E9E"/>
<rect x="1765.38" y="254.172" width="18.3908" height="18.3908" fill="#9E9E9E"/>
<rect x="1287.36" y="217.392" width="18.3908" height="18.3908" fill="#9E9E9E"/>
<rect x="1949.29" y="217.392" width="18.3908" height="18.3908" fill="#9E9E9E"/>
<rect x="1287.36" y="290.953" width="18.3908" height="18.3908" fill="#9E9E9E"/>
<rect x="1949.29" y="290.953" width="18.3908" height="18.3908" fill="#9E9E9E"/>
<rect x="1287.36" y="254.172" width="18.3908" height="18.3908" fill="#9E9E9E"/>
<rect x="1949.29" y="254.172" width="18.3908" height="18.3908" fill="#9E9E9E"/>
<rect width="18.3908" height="18.3908" transform="matrix(1 0 0 -1 18.3916 217.392)" fill="#9E9E9E"/>
<rect width="18.3908" height="18.3908" transform="matrix(1 0 0 -1 18.3916 290.953)" fill="#9E9E9E"/>
<rect width="18.3908" height="18.3908" transform="matrix(1 0 0 -1 18.3916 254.172)" fill="#9E9E9E"/>
<rect width="18.3908" height="18.3908" transform="matrix(1 0 0 -1 18.3916 327.736)" fill="#9E9E9E"/>
<rect width="18.3908" height="18.3908" transform="matrix(1 0 0 -1 312.643 217.392)" fill="#9E9E9E"/>
<rect width="18.3908" height="18.3908" transform="matrix(1 0 0 -1 312.643 290.953)" fill="#9E9E9E"/>
<rect width="18.3908" height="18.3908" transform="matrix(1 0 0 -1 312.643 254.172)" fill="#9E9E9E"/>
<rect width="18.3908" height="18.3908" transform="matrix(1 0 0 -1 312.643 327.736)" fill="#9E9E9E"/>
<rect width="18.3908" height="18.3908" transform="matrix(1 0 0 -1 165.518 217.392)" fill="#9E9E9E"/>
<rect width="18.3908" height="18.3908" transform="matrix(1 0 0 -1 165.518 290.953)" fill="#9E9E9E"/>
<rect width="18.3908" height="18.3908" transform="matrix(1 0 0 -1 165.518 254.172)" fill="#9E9E9E"/>
<rect width="18.3908" height="18.3908" transform="matrix(1 0 0 -1 165.518 327.736)" fill="#9E9E9E"/>
<rect width="18.3908" height="18.3908" transform="matrix(1 0 0 -1 459.77 217.392)" fill="#9E9E9E"/>
<rect width="18.3908" height="18.3908" transform="matrix(1 0 0 -1 459.77 290.953)" fill="#9E9E9E"/>
<rect width="18.3908" height="18.3908" transform="matrix(1 0 0 -1 459.77 254.172)" fill="#9E9E9E"/>
<rect width="18.3908" height="18.3908" transform="matrix(1 0 0 -1 459.77 327.736)" fill="#9E9E9E"/>
<rect width="18.3908" height="18.3908" transform="matrix(1 0 0 -1 643.678 217.392)" fill="#9E9E9E"/>
<rect width="18.3908" height="18.3908" transform="matrix(1 0 0 -1 643.678 290.953)" fill="#9E9E9E"/>
<rect width="18.3908" height="18.3908" transform="matrix(1 0 0 -1 643.678 254.172)" fill="#9E9E9E"/>
<rect width="18.3908" height="18.3908" transform="matrix(1 0 0 -1 643.678 327.736)" fill="#9E9E9E"/>
<rect width="18.3908" height="18.3908" transform="matrix(1 0 0 -1 827.586 217.392)" fill="#9E9E9E"/>
<rect width="18.3908" height="18.3908" transform="matrix(1 0 0 -1 1489.52 217.392)" fill="#9E9E9E"/>
<rect width="18.3908" height="18.3908" transform="matrix(1 0 0 -1 827.586 290.953)" fill="#9E9E9E"/>
<rect width="18.3908" height="18.3908" transform="matrix(1 0 0 -1 1489.52 290.953)" fill="#9E9E9E"/>
<rect width="18.3908" height="18.3908" transform="matrix(1 0 0 -1 827.586 254.172)" fill="#9E9E9E"/>
<rect width="18.3908" height="18.3908" transform="matrix(1 0 0 -1 1489.52 254.172)" fill="#9E9E9E"/>
<rect width="18.3908" height="18.3908" transform="matrix(1 0 0 -1 827.586 327.736)" fill="#9E9E9E"/>
<rect width="18.3908" height="18.3908" transform="matrix(1 0 0 -1 1489.52 327.736)" fill="#9E9E9E"/>
<rect width="18.3908" height="18.3908" transform="matrix(1 0 0 -1 1011.49 217.392)" fill="#9E9E9E"/>
<rect width="18.3908" height="18.3908" transform="matrix(1 0 0 -1 1673.43 217.392)" fill="#9E9E9E"/>
<rect width="18.3908" height="18.3908" transform="matrix(1 0 0 -1 1011.49 290.953)" fill="#9E9E9E"/>
<rect width="18.3908" height="18.3908" transform="matrix(1 0 0 -1 1673.43 290.953)" fill="#9E9E9E"/>
<rect width="18.3908" height="18.3908" transform="matrix(1 0 0 -1 1011.49 254.172)" fill="#9E9E9E"/>
<rect width="18.3908" height="18.3908" transform="matrix(1 0 0 -1 1673.43 254.172)" fill="#9E9E9E"/>
<rect width="18.3908" height="18.3908" transform="matrix(1 0 0 -1 1011.49 327.736)" fill="#9E9E9E"/>
<rect width="18.3908" height="18.3908" transform="matrix(1 0 0 -1 1673.43 327.736)" fill="#9E9E9E"/>
<rect width="18.3908" height="18.3908" transform="matrix(1 0 0 -1 1195.4 217.392)" fill="#9E9E9E"/>
<rect width="18.3908" height="18.3908" transform="matrix(1 0 0 -1 1857.33 217.392)" fill="#9E9E9E"/>
<rect width="18.3908" height="18.3908" transform="matrix(1 0 0 -1 1195.4 290.953)" fill="#9E9E9E"/>
<rect width="18.3908" height="18.3908" transform="matrix(1 0 0 -1 1857.33 290.953)" fill="#9E9E9E"/>
<rect width="18.3908" height="18.3908" transform="matrix(1 0 0 -1 1195.4 254.172)" fill="#9E9E9E"/>
<rect width="18.3908" height="18.3908" transform="matrix(1 0 0 -1 1857.33 254.172)" fill="#9E9E9E"/>
<rect width="18.3908" height="18.3908" transform="matrix(1 0 0 -1 1195.4 327.736)" fill="#9E9E9E"/>
<rect width="18.3908" height="18.3908" transform="matrix(1 0 0 -1 1857.33 327.736)" fill="#9E9E9E"/>
<rect width="18.3908" height="18.3908" transform="matrix(1 0 0 -1 91.9531 217.392)" fill="#9E9E9E"/>
<rect width="18.3908" height="18.3908" transform="matrix(1 0 0 -1 91.9531 290.953)" fill="#9E9E9E"/>
<rect width="18.3908" height="18.3908" transform="matrix(1 0 0 -1 91.9531 254.172)" fill="#9E9E9E"/>
<rect width="18.3908" height="18.3908" transform="matrix(1 0 0 -1 91.9531 327.736)" fill="#9E9E9E"/>
<rect width="18.3908" height="18.3908" transform="matrix(1 0 0 -1 386.207 217.392)" fill="#9E9E9E"/>
<rect width="18.3908" height="18.3908" transform="matrix(1 0 0 -1 386.207 290.953)" fill="#9E9E9E"/>
<rect width="18.3908" height="18.3908" transform="matrix(1 0 0 -1 386.207 254.172)" fill="#9E9E9E"/>
<rect width="18.3908" height="18.3908" transform="matrix(1 0 0 -1 386.207 327.736)" fill="#9E9E9E"/>
<rect width="18.3908" height="18.3908" transform="matrix(1 0 0 -1 239.08 217.392)" fill="#9E9E9E"/>
<rect width="18.3908" height="18.3908" transform="matrix(1 0 0 -1 239.08 290.953)" fill="#9E9E9E"/>
<rect width="18.3908" height="18.3908" transform="matrix(1 0 0 -1 239.08 254.172)" fill="#9E9E9E"/>
<rect width="18.3908" height="18.3908" transform="matrix(1 0 0 -1 239.08 327.736)" fill="#9E9E9E"/>
<rect width="18.3908" height="18.3908" transform="matrix(1 0 0 -1 533.332 217.392)" fill="#9E9E9E"/>
<rect width="18.3908" height="18.3908" transform="matrix(1 0 0 -1 533.332 290.953)" fill="#9E9E9E"/>
<rect width="18.3908" height="18.3908" transform="matrix(1 0 0 -1 533.332 254.172)" fill="#9E9E9E"/>
<rect width="18.3908" height="18.3908" transform="matrix(1 0 0 -1 533.332 327.736)" fill="#9E9E9E"/>
<rect width="18.3908" height="18.3908" transform="matrix(1 0 0 -1 717.24 217.392)" fill="#9E9E9E"/>
<rect width="18.3908" height="18.3908" transform="matrix(1 0 0 -1 1379.17 217.392)" fill="#9E9E9E"/>
<rect width="18.3908" height="18.3908" transform="matrix(1 0 0 -1 717.24 290.953)" fill="#9E9E9E"/>
<rect width="18.3908" height="18.3908" transform="matrix(1 0 0 -1 1379.17 290.953)" fill="#9E9E9E"/>
<rect width="18.3908" height="18.3908" transform="matrix(1 0 0 -1 717.24 254.172)" fill="#9E9E9E"/>
<rect width="18.3908" height="18.3908" transform="matrix(1 0 0 -1 1379.17 254.172)" fill="#9E9E9E"/>
<rect width="18.3908" height="18.3908" transform="matrix(1 0 0 -1 717.24 327.736)" fill="#9E9E9E"/>
<rect width="18.3908" height="18.3908" transform="matrix(1 0 0 -1 1379.17 327.736)" fill="#9E9E9E"/>
<rect width="18.3908" height="18.3908" transform="matrix(1 0 0 -1 901.148 217.392)" fill="#9E9E9E"/>
<rect width="18.3908" height="18.3908" transform="matrix(1 0 0 -1 1563.08 217.392)" fill="#9E9E9E"/>
<rect width="18.3908" height="18.3908" transform="matrix(1 0 0 -1 901.148 290.953)" fill="#9E9E9E"/>
<rect width="18.3908" height="18.3908" transform="matrix(1 0 0 -1 1563.08 290.953)" fill="#9E9E9E"/>
<rect width="18.3908" height="18.3908" transform="matrix(1 0 0 -1 901.148 254.172)" fill="#9E9E9E"/>
<rect width="18.3908" height="18.3908" transform="matrix(1 0 0 -1 1563.08 254.172)" fill="#9E9E9E"/>
<rect width="18.3908" height="18.3908" transform="matrix(1 0 0 -1 901.148 327.736)" fill="#9E9E9E"/>
<rect width="18.3908" height="18.3908" transform="matrix(1 0 0 -1 1563.08 327.736)" fill="#9E9E9E"/>
<rect width="18.3908" height="18.3908" transform="matrix(1 0 0 -1 1085.06 217.392)" fill="#9E9E9E"/>
<rect width="18.3908" height="18.3908" transform="matrix(1 0 0 -1 1746.99 217.392)" fill="#9E9E9E"/>
<rect width="18.3908" height="18.3908" transform="matrix(1 0 0 -1 1085.06 290.953)" fill="#9E9E9E"/>
<rect width="18.3908" height="18.3908" transform="matrix(1 0 0 -1 1746.99 290.953)" fill="#9E9E9E"/>
<rect width="18.3908" height="18.3908" transform="matrix(1 0 0 -1 1085.06 254.172)" fill="#9E9E9E"/>
<rect width="18.3908" height="18.3908" transform="matrix(1 0 0 -1 1746.99 254.172)" fill="#9E9E9E"/>
<rect width="18.3908" height="18.3908" transform="matrix(1 0 0 -1 1085.06 327.736)" fill="#9E9E9E"/>
<rect width="18.3908" height="18.3908" transform="matrix(1 0 0 -1 1746.99 327.736)" fill="#9E9E9E"/>
<rect width="18.3908" height="18.3908" transform="matrix(1 0 0 -1 1268.96 217.392)" fill="#9E9E9E"/>
<rect width="18.3908" height="18.3908" transform="matrix(1 0 0 -1 1930.9 217.392)" fill="#9E9E9E"/>
<rect width="18.3908" height="18.3908" transform="matrix(1 0 0 -1 1268.96 290.953)" fill="#9E9E9E"/>
<rect width="18.3908" height="18.3908" transform="matrix(1 0 0 -1 1930.9 290.953)" fill="#9E9E9E"/>
<rect width="18.3908" height="18.3908" transform="matrix(1 0 0 -1 1268.96 254.172)" fill="#9E9E9E"/>
<rect width="18.3908" height="18.3908" transform="matrix(1 0 0 -1 1930.9 254.172)" fill="#9E9E9E"/>
<rect width="18.3908" height="18.3908" transform="matrix(1 0 0 -1 1268.96 327.736)" fill="#9E9E9E"/>
<rect width="18.3908" height="18.3908" transform="matrix(1 0 0 -1 1930.9 327.736)" fill="#9E9E9E"/>
<rect width="18.3908" height="18.3908" transform="matrix(1 0 0 -1 55.1719 217.392)" fill="#9E9E9E"/>
<rect width="18.3908" height="18.3908" transform="matrix(1 0 0 -1 55.1719 290.953)" fill="#9E9E9E"/>
<rect width="18.3908" height="18.3908" transform="matrix(1 0 0 -1 55.1719 254.172)" fill="#9E9E9E"/>
<rect width="18.3908" height="18.3908" transform="matrix(1 0 0 -1 55.1719 327.736)" fill="#9E9E9E"/>
<rect width="18.3908" height="18.3908" transform="matrix(1 0 0 -1 349.426 217.392)" fill="#9E9E9E"/>
<rect width="18.3908" height="18.3908" transform="matrix(1 0 0 -1 349.426 290.953)" fill="#9E9E9E"/>
<rect width="18.3908" height="18.3908" transform="matrix(1 0 0 -1 349.426 254.172)" fill="#9E9E9E"/>
<rect width="18.3908" height="18.3908" transform="matrix(1 0 0 -1 349.426 327.736)" fill="#9E9E9E"/>
<rect width="18.3908" height="18.3908" transform="matrix(1 0 0 -1 202.299 217.392)" fill="#9E9E9E"/>
<rect width="18.3908" height="18.3908" transform="matrix(1 0 0 -1 202.299 290.953)" fill="#9E9E9E"/>
<rect width="18.3908" height="18.3908" transform="matrix(1 0 0 -1 202.299 254.172)" fill="#9E9E9E"/>
<rect width="18.3908" height="18.3908" transform="matrix(1 0 0 -1 202.299 327.736)" fill="#9E9E9E"/>
<rect width="18.3908" height="18.3908" transform="matrix(1 0 0 -1 496.551 217.392)" fill="#9E9E9E"/>
<rect width="18.3908" height="18.3908" transform="matrix(1 0 0 -1 496.551 290.953)" fill="#9E9E9E"/>
<rect width="18.3908" height="18.3908" transform="matrix(1 0 0 -1 496.551 254.172)" fill="#9E9E9E"/>
<rect width="18.3908" height="18.3908" transform="matrix(1 0 0 -1 496.551 327.736)" fill="#9E9E9E"/>
<rect width="18.3908" height="18.3908" transform="matrix(1 0 0 -1 680.459 217.392)" fill="#9E9E9E"/>
<rect width="18.3908" height="18.3908" transform="matrix(1 0 0 -1 1342.39 217.392)" fill="#9E9E9E"/>
<rect width="18.3908" height="18.3908" transform="matrix(1 0 0 -1 680.459 290.953)" fill="#9E9E9E"/>
<rect width="18.3908" height="18.3908" transform="matrix(1 0 0 -1 1342.39 290.953)" fill="#9E9E9E"/>
<rect width="18.3908" height="18.3908" transform="matrix(1 0 0 -1 680.459 254.172)" fill="#9E9E9E"/>
<rect width="18.3908" height="18.3908" transform="matrix(1 0 0 -1 1342.39 254.172)" fill="#9E9E9E"/>
<rect width="18.3908" height="18.3908" transform="matrix(1 0 0 -1 680.459 327.736)" fill="#9E9E9E"/>
<rect width="18.3908" height="18.3908" transform="matrix(1 0 0 -1 1342.39 327.736)" fill="#9E9E9E"/>
<rect width="18.3908" height="18.3908" transform="matrix(1 0 0 -1 864.367 217.392)" fill="#9E9E9E"/>
<rect width="18.3908" height="18.3908" transform="matrix(1 0 0 -1 1526.3 217.392)" fill="#9E9E9E"/>
<rect width="18.3908" height="18.3908" transform="matrix(1 0 0 -1 864.367 290.953)" fill="#9E9E9E"/>
<rect width="18.3908" height="18.3908" transform="matrix(1 0 0 -1 1526.3 290.953)" fill="#9E9E9E"/>
<rect width="18.3908" height="18.3908" transform="matrix(1 0 0 -1 864.367 254.172)" fill="#9E9E9E"/>
<rect width="18.3908" height="18.3908" transform="matrix(1 0 0 -1 1526.3 254.172)" fill="#9E9E9E"/>
<rect width="18.3908" height="18.3908" transform="matrix(1 0 0 -1 864.367 327.736)" fill="#9E9E9E"/>
<rect width="18.3908" height="18.3908" transform="matrix(1 0 0 -1 1526.3 327.736)" fill="#9E9E9E"/>
<rect width="18.3908" height="18.3908" transform="matrix(1 0 0 -1 1048.28 217.392)" fill="#9E9E9E"/>
<rect width="18.3908" height="18.3908" transform="matrix(1 0 0 -1 1710.21 217.392)" fill="#9E9E9E"/>
<rect width="18.3908" height="18.3908" transform="matrix(1 0 0 -1 1048.28 290.953)" fill="#9E9E9E"/>
<rect width="18.3908" height="18.3908" transform="matrix(1 0 0 -1 1710.21 290.953)" fill="#9E9E9E"/>
<rect width="18.3908" height="18.3908" transform="matrix(1 0 0 -1 1048.28 254.172)" fill="#9E9E9E"/>
<rect width="18.3908" height="18.3908" transform="matrix(1 0 0 -1 1710.21 254.172)" fill="#9E9E9E"/>
<rect width="18.3908" height="18.3908" transform="matrix(1 0 0 -1 1048.28 327.736)" fill="#9E9E9E"/>
<rect width="18.3908" height="18.3908" transform="matrix(1 0 0 -1 1710.21 327.736)" fill="#9E9E9E"/>
<rect width="18.3908" height="18.3908" transform="matrix(1 0 0 -1 1232.18 217.392)" fill="#9E9E9E"/>
<rect width="18.3908" height="18.3908" transform="matrix(1 0 0 -1 1894.12 217.392)" fill="#9E9E9E"/>
<rect width="18.3908" height="18.3908" transform="matrix(1 0 0 -1 1232.18 290.953)" fill="#9E9E9E"/>
<rect width="18.3908" height="18.3908" transform="matrix(1 0 0 -1 1894.12 290.953)" fill="#9E9E9E"/>
<rect width="18.3908" height="18.3908" transform="matrix(1 0 0 -1 1232.18 254.172)" fill="#9E9E9E"/>
<rect width="18.3908" height="18.3908" transform="matrix(1 0 0 -1 1894.12 254.172)" fill="#9E9E9E"/>
<rect width="18.3908" height="18.3908" transform="matrix(1 0 0 -1 1232.18 327.736)" fill="#9E9E9E"/>
<rect width="18.3908" height="18.3908" transform="matrix(1 0 0 -1 1894.12 327.736)" fill="#9E9E9E"/>
<rect width="18.3908" height="18.3908" transform="matrix(1 0 0 -1 128.736 217.392)" fill="#9E9E9E"/>
<rect width="18.3908" height="18.3908" transform="matrix(1 0 0 -1 128.736 290.953)" fill="#9E9E9E"/>
<rect width="18.3908" height="18.3908" transform="matrix(1 0 0 -1 128.736 254.172)" fill="#9E9E9E"/>
<rect width="18.3908" height="18.3908" transform="matrix(1 0 0 -1 128.736 327.736)" fill="#9E9E9E"/>
<rect width="18.3908" height="18.3908" transform="matrix(1 0 0 -1 422.988 217.392)" fill="#9E9E9E"/>
<rect width="18.3908" height="18.3908" transform="matrix(1 0 0 -1 422.988 290.953)" fill="#9E9E9E"/>
<rect width="18.3908" height="18.3908" transform="matrix(1 0 0 -1 422.988 254.172)" fill="#9E9E9E"/>
<rect width="18.3908" height="18.3908" transform="matrix(1 0 0 -1 422.988 327.736)" fill="#9E9E9E"/>
<rect width="18.3908" height="18.3908" transform="matrix(1 0 0 -1 606.896 217.392)" fill="#9E9E9E"/>
<rect width="18.3908" height="18.3908" transform="matrix(1 0 0 -1 606.896 290.953)" fill="#9E9E9E"/>
<rect width="18.3908" height="18.3908" transform="matrix(1 0 0 -1 606.896 254.172)" fill="#9E9E9E"/>
<rect width="18.3908" height="18.3908" transform="matrix(1 0 0 -1 606.896 327.736)" fill="#9E9E9E"/>
<rect width="18.3908" height="18.3908" transform="matrix(1 0 0 -1 790.805 217.392)" fill="#9E9E9E"/>
<rect width="18.3908" height="18.3908" transform="matrix(1 0 0 -1 1452.74 217.392)" fill="#9E9E9E"/>
<rect width="18.3908" height="18.3908" transform="matrix(1 0 0 -1 790.805 290.953)" fill="#9E9E9E"/>
<rect width="18.3908" height="18.3908" transform="matrix(1 0 0 -1 1452.74 290.953)" fill="#9E9E9E"/>
<rect width="18.3908" height="18.3908" transform="matrix(1 0 0 -1 790.805 254.172)" fill="#9E9E9E"/>
<rect width="18.3908" height="18.3908" transform="matrix(1 0 0 -1 1452.74 254.172)" fill="#9E9E9E"/>
<rect width="18.3908" height="18.3908" transform="matrix(1 0 0 -1 790.805 327.736)" fill="#9E9E9E"/>
<rect width="18.3908" height="18.3908" transform="matrix(1 0 0 -1 1452.74 327.736)" fill="#9E9E9E"/>
<rect width="18.3908" height="18.3908" transform="matrix(1 0 0 -1 974.711 217.392)" fill="#9E9E9E"/>
<rect width="18.3908" height="18.3908" transform="matrix(1 0 0 -1 1636.64 217.392)" fill="#9E9E9E"/>
<rect width="18.3908" height="18.3908" transform="matrix(1 0 0 -1 974.711 290.953)" fill="#9E9E9E"/>
<rect width="18.3908" height="18.3908" transform="matrix(1 0 0 -1 1636.64 290.953)" fill="#9E9E9E"/>
<rect width="18.3908" height="18.3908" transform="matrix(1 0 0 -1 974.711 254.172)" fill="#9E9E9E"/>
<rect width="18.3908" height="18.3908" transform="matrix(1 0 0 -1 1636.64 254.172)" fill="#9E9E9E"/>
<rect width="18.3908" height="18.3908" transform="matrix(1 0 0 -1 974.711 327.736)" fill="#9E9E9E"/>
<rect width="18.3908" height="18.3908" transform="matrix(1 0 0 -1 1636.64 327.736)" fill="#9E9E9E"/>
<rect width="18.3908" height="18.3908" transform="matrix(1 0 0 -1 1158.62 217.392)" fill="#9E9E9E"/>
<rect width="18.3908" height="18.3908" transform="matrix(1 0 0 -1 1820.55 217.392)" fill="#9E9E9E"/>
<rect width="18.3908" height="18.3908" transform="matrix(1 0 0 -1 1158.62 290.953)" fill="#9E9E9E"/>
<rect width="18.3908" height="18.3908" transform="matrix(1 0 0 -1 1820.55 290.953)" fill="#9E9E9E"/>
<rect width="18.3908" height="18.3908" transform="matrix(1 0 0 -1 1158.62 254.172)" fill="#9E9E9E"/>
<rect width="18.3908" height="18.3908" transform="matrix(1 0 0 -1 1820.55 254.172)" fill="#9E9E9E"/>
<rect width="18.3908" height="18.3908" transform="matrix(1 0 0 -1 1158.62 327.736)" fill="#9E9E9E"/>
<rect width="18.3908" height="18.3908" transform="matrix(1 0 0 -1 1820.55 327.736)" fill="#9E9E9E"/>
<rect width="18.3908" height="18.3908" transform="matrix(1 0 0 -1 275.861 217.392)" fill="#9E9E9E"/>
<rect width="18.3908" height="18.3908" transform="matrix(1 0 0 -1 275.861 290.953)" fill="#9E9E9E"/>
<rect width="18.3908" height="18.3908" transform="matrix(1 0 0 -1 275.861 254.172)" fill="#9E9E9E"/>
<rect width="18.3908" height="18.3908" transform="matrix(1 0 0 -1 275.861 327.736)" fill="#9E9E9E"/>
<rect width="18.3908" height="18.3908" transform="matrix(1 0 0 -1 570.115 217.392)" fill="#9E9E9E"/>
<rect width="18.3908" height="18.3908" transform="matrix(1 0 0 -1 570.115 290.953)" fill="#9E9E9E"/>
<rect width="18.3908" height="18.3908" transform="matrix(1 0 0 -1 570.115 254.172)" fill="#9E9E9E"/>
<rect width="18.3908" height="18.3908" transform="matrix(1 0 0 -1 570.115 327.736)" fill="#9E9E9E"/>
<rect width="18.3908" height="18.3908" transform="matrix(1 0 0 -1 754.021 217.392)" fill="#9E9E9E"/>
<rect width="18.3908" height="18.3908" transform="matrix(1 0 0 -1 1415.95 217.392)" fill="#9E9E9E"/>
<rect width="18.3908" height="18.3908" transform="matrix(1 0 0 -1 754.021 290.953)" fill="#9E9E9E"/>
<rect width="18.3908" height="18.3908" transform="matrix(1 0 0 -1 1415.95 290.953)" fill="#9E9E9E"/>
<rect width="18.3908" height="18.3908" transform="matrix(1 0 0 -1 754.021 254.172)" fill="#9E9E9E"/>
<rect width="18.3908" height="18.3908" transform="matrix(1 0 0 -1 1415.95 254.172)" fill="#9E9E9E"/>
<rect width="18.3908" height="18.3908" transform="matrix(1 0 0 -1 754.021 327.736)" fill="#9E9E9E"/>
<rect width="18.3908" height="18.3908" transform="matrix(1 0 0 -1 1415.95 327.736)" fill="#9E9E9E"/>
<rect width="18.3908" height="18.3908" transform="matrix(1 0 0 -1 937.93 217.392)" fill="#9E9E9E"/>
<rect width="18.3908" height="18.3908" transform="matrix(1 0 0 -1 1599.86 217.392)" fill="#9E9E9E"/>
<rect width="18.3908" height="18.3908" transform="matrix(1 0 0 -1 937.93 290.953)" fill="#9E9E9E"/>
<rect width="18.3908" height="18.3908" transform="matrix(1 0 0 -1 1599.86 290.953)" fill="#9E9E9E"/>
<rect width="18.3908" height="18.3908" transform="matrix(1 0 0 -1 937.93 254.172)" fill="#9E9E9E"/>
<rect width="18.3908" height="18.3908" transform="matrix(1 0 0 -1 1599.86 254.172)" fill="#9E9E9E"/>
<rect width="18.3908" height="18.3908" transform="matrix(1 0 0 -1 937.93 327.736)" fill="#9E9E9E"/>
<rect width="18.3908" height="18.3908" transform="matrix(1 0 0 -1 1599.86 327.736)" fill="#9E9E9E"/>
<rect width="18.3908" height="18.3908" transform="matrix(1 0 0 -1 1121.84 217.392)" fill="#9E9E9E"/>
<rect width="18.3908" height="18.3908" transform="matrix(1 0 0 -1 1783.77 217.392)" fill="#9E9E9E"/>
<rect width="18.3908" height="18.3908" transform="matrix(1 0 0 -1 1121.84 290.953)" fill="#9E9E9E"/>
<rect width="18.3908" height="18.3908" transform="matrix(1 0 0 -1 1783.77 290.953)" fill="#9E9E9E"/>
<rect width="18.3908" height="18.3908" transform="matrix(1 0 0 -1 1121.84 254.172)" fill="#9E9E9E"/>
<rect width="18.3908" height="18.3908" transform="matrix(1 0 0 -1 1783.77 254.172)" fill="#9E9E9E"/>
<rect width="18.3908" height="18.3908" transform="matrix(1 0 0 -1 1121.84 327.736)" fill="#9E9E9E"/>
<rect width="18.3908" height="18.3908" transform="matrix(1 0 0 -1 1783.77 327.736)" fill="#9E9E9E"/>
<rect width="18.3908" height="18.3908" transform="matrix(1 0 0 -1 1305.75 217.392)" fill="#9E9E9E"/>
<rect width="18.3908" height="18.3908" transform="matrix(1 0 0 -1 1305.75 290.953)" fill="#9E9E9E"/>
<rect width="18.3908" height="18.3908" transform="matrix(1 0 0 -1 1305.75 254.172)" fill="#9E9E9E"/>
<rect width="18.3908" height="18.3908" transform="matrix(1 0 0 -1 1305.75 327.736)" fill="#9E9E9E"/>
</g>
<rect width="128" height="64" rx="20" transform="matrix(-1 0 0 1 1920 231)" fill="white" fill-opacity="0.9"/>
<rect width="128" height="64" rx="20" transform="matrix(-1 0 0 1 1760 231)" fill="white" fill-opacity="0.7"/>
<rect width="128" height="64" rx="20" transform="matrix(-1 0 0 1 1600 231)" fill="white" fill-opacity="0.6"/>
<rect width="128" height="64" rx="20" transform="matrix(-1 0 0 1 1440 231)" fill="white" fill-opacity="0.5"/>
<rect width="128" height="64" rx="20" transform="matrix(-1 0 0 1 1280 231)" fill="white" fill-opacity="0.3"/>
<rect width="128" height="64" rx="20" transform="matrix(-1 0 0 1 1120 231)" fill="white" fill-opacity="0.15"/>
<rect width="128" height="64" rx="20" transform="matrix(-1 0 0 1 960 231)" fill="black" fill-opacity="0.15"/>
<rect width="128" height="64" rx="20" transform="matrix(-1 0 0 1 800 231)" fill="black" fill-opacity="0.3"/>
<rect width="128" height="64" rx="20" transform="matrix(-1 0 0 1 640 231)" fill="black" fill-opacity="0.45"/>
<rect width="128" height="64" rx="20" transform="matrix(-1 0 0 1 480 231)" fill="black" fill-opacity="0.6"/>
<rect width="128" height="64" rx="20" transform="matrix(-1 0 0 1 320 231)" fill="black" fill-opacity="0.75"/>
<rect width="128" height="64" rx="20" transform="matrix(-1 0 0 1 160 231)" fill="black" fill-opacity="0.9"/>
</g>
<rect x="0.5" y="0.5" width="1951" height="127" rx="23.5" stroke="#4E4F55"/>
<rect width="128" height="64" rx="16" transform="matrix(-1 0 0 1 1920 32)" fill="#6E7C8E"/>
<rect width="128" height="64" rx="16" transform="matrix(-1 0 0 1 1760 32)" fill="#96A4B6"/>
<rect width="128" height="64" rx="16" transform="matrix(-1 0 0 1 1600 32)" fill="#C7D2E0"/>
<rect width="128" height="64" rx="16" transform="matrix(-1 0 0 1 1440 32)" fill="#E2E8F0"/>
<rect width="128" height="64" rx="16" transform="matrix(-1 0 0 1 1280 32)" fill="#EDF2F7"/>
<rect width="128" height="64" rx="16" transform="matrix(-1 0 0 1 1120 32)" fill="#F7FAFC"/>
<rect x="832" y="32" width="128" height="64" rx="16" fill="#5E697C"/>
<rect x="672" y="32" width="128" height="64" rx="16" fill="#4A5568"/>
<rect x="512" y="32" width="128" height="64" rx="16" fill="#2D3748"/>
<rect x="352" y="32" width="128" height="64" rx="16" fill="#1A202C"/>
<rect x="192" y="32" width="128" height="64" rx="16" fill="#1B1E2D"/>
<rect x="32.5" y="32.5" width="127" height="63" rx="15.5" fill="#0A0A19" stroke="#3C3C3C"/>
<path d="M982.586 182.414C983.367 183.195 984.633 183.195 985.414 182.414L998.142 169.686C998.923 168.905 998.923 167.639 998.142 166.858C997.361 166.077 996.095 166.077 995.314 166.858L984 178.172L972.686 166.858C971.905 166.077 970.639 166.077 969.858 166.858C969.077 167.639 969.077 168.905 969.858 169.686L982.586 182.414ZM982 141L982 181L986 181L986 141L982 141Z" fill="#9E9FA5"/>
<defs>
<clipPath id="clip0_1038_1262">
<rect y="199" width="1952" height="128" rx="24" fill="white"/>
</clipPath>
</defs>
</svg>
