<svg width="2020" height="283" viewBox="0 0 2020 283" fill="none" xmlns="http://www.w3.org/2000/svg">
<rect x="0.5" y="0.5" width="322.172" height="281.22" rx="11.5" fill="black" stroke="#323542"/>
<rect x="339.667" y="0.5" width="322.172" height="281.22" rx="11.5" fill="#121319" stroke="#323542"/>
<rect x="678.833" y="0.5" width="322.172" height="281.22" rx="11.5" fill="#1B1E2D" stroke="#323542"/>
<rect x="1018" y="0.5" width="322.172" height="281.22" rx="11.5" fill="#323542" stroke="#323542"/>
<rect x="1357.17" y="0.5" width="322.172" height="281.22" rx="11.5" fill="#494B57" stroke="#323542"/>
<rect x="1695.83" width="323.172" height="282.22" rx="12" fill="white"/>
<path d="M115.028 72.6094V55.1548H121.13C122.346 55.1548 123.349 55.3651 124.138 55.7855C124.928 56.2003 125.516 56.7599 125.903 57.4645C126.289 58.1634 126.482 58.9389 126.482 59.7912C126.482 60.5412 126.349 61.1605 126.082 61.6491C125.82 62.1378 125.474 62.5241 125.042 62.8082C124.616 63.0923 124.153 63.3026 123.653 63.4389V63.6094C124.187 63.6435 124.724 63.831 125.263 64.1719C125.803 64.5128 126.255 65.0014 126.619 65.6378C126.982 66.2741 127.164 67.0526 127.164 67.973C127.164 68.848 126.965 69.6349 126.567 70.3338C126.17 71.0327 125.542 71.5866 124.684 71.9957C123.826 72.4048 122.71 72.6094 121.335 72.6094H115.028ZM117.141 70.7344H121.335C122.715 70.7344 123.695 70.4673 124.275 69.9332C124.86 69.3935 125.153 68.7401 125.153 67.973C125.153 67.3821 125.002 66.8366 124.701 66.3366C124.4 65.831 123.971 65.4276 123.414 65.1264C122.857 64.8196 122.198 64.6662 121.437 64.6662H117.141V70.7344ZM117.141 62.8253H121.062C121.698 62.8253 122.272 62.7003 122.783 62.4503C123.3 62.2003 123.71 61.848 124.011 61.3935C124.317 60.9389 124.471 60.4048 124.471 59.7912C124.471 59.0241 124.204 58.3736 123.67 57.8395C123.136 57.2997 122.289 57.0298 121.13 57.0298H117.141V62.8253ZM132.376 55.1548V72.6094H130.364V55.1548H132.376ZM139.912 72.9162C139.082 72.9162 138.33 72.7599 137.653 72.4474C136.977 72.1293 136.44 71.6719 136.043 71.0753C135.645 70.473 135.446 69.7457 135.446 68.8935C135.446 68.1435 135.594 67.5355 135.889 67.0696C136.185 66.598 136.58 66.2287 137.074 65.9616C137.568 65.6946 138.114 65.4957 138.71 65.3651C139.313 65.2287 139.918 65.1207 140.526 65.0412C141.321 64.9389 141.966 64.8622 142.46 64.8111C142.96 64.7543 143.324 64.6605 143.551 64.5298C143.784 64.3991 143.901 64.1719 143.901 63.848V63.7798C143.901 62.9389 143.67 62.2855 143.21 61.8196C142.756 61.3537 142.065 61.1207 141.139 61.1207C140.179 61.1207 139.426 61.331 138.881 61.7514C138.335 62.1719 137.952 62.6207 137.73 63.098L135.821 62.4162C136.162 61.6207 136.616 61.0014 137.185 60.5582C137.759 60.1094 138.384 59.7969 139.06 59.6207C139.741 59.4389 140.412 59.348 141.071 59.348C141.491 59.348 141.974 59.3991 142.52 59.5014C143.071 59.598 143.602 59.7997 144.114 60.1065C144.631 60.4134 145.06 60.8764 145.401 61.4957C145.741 62.1151 145.912 62.9446 145.912 63.9844V72.6094H143.901V70.8366H143.798C143.662 71.1207 143.435 71.4247 143.116 71.7486C142.798 72.0724 142.375 72.348 141.847 72.5753C141.318 72.8026 140.673 72.9162 139.912 72.9162ZM140.219 71.1094C141.014 71.1094 141.685 70.9531 142.23 70.6406C142.781 70.3281 143.196 69.9247 143.474 69.4304C143.759 68.9361 143.901 68.4162 143.901 67.8707V66.0298C143.815 66.1321 143.628 66.2259 143.338 66.3111C143.054 66.3906 142.724 66.4616 142.349 66.5241C141.98 66.581 141.619 66.6321 141.267 66.6776C140.92 66.7173 140.639 66.7514 140.423 66.7798C139.901 66.848 139.412 66.9588 138.957 67.1122C138.509 67.2599 138.145 67.4844 137.866 67.7855C137.594 68.081 137.457 68.4844 137.457 68.9957C137.457 69.6946 137.716 70.223 138.233 70.581C138.756 70.9332 139.418 71.1094 140.219 71.1094ZM154.901 72.8821C153.674 72.8821 152.617 72.5923 151.731 72.0128C150.844 71.4332 150.163 70.6349 149.685 69.6179C149.208 68.6009 148.969 67.4389 148.969 66.1321C148.969 64.8026 149.214 63.6293 149.702 62.6122C150.197 61.5895 150.884 60.7912 151.765 60.2173C152.651 59.6378 153.685 59.348 154.867 59.348C155.788 59.348 156.617 59.5185 157.356 59.8594C158.094 60.2003 158.7 60.6776 159.171 61.2912C159.643 61.9048 159.935 62.6207 160.049 63.4389H158.038C157.884 62.8423 157.543 62.3139 157.015 61.8537C156.492 61.3878 155.788 61.1548 154.901 61.1548C154.117 61.1548 153.43 61.3594 152.839 61.7685C152.254 62.1719 151.796 62.7429 151.467 63.4815C151.143 64.2145 150.981 65.0753 150.981 66.0639C150.981 67.0753 151.14 67.956 151.458 68.706C151.782 69.456 152.237 70.0384 152.822 70.4531C153.413 70.8679 154.106 71.0753 154.901 71.0753C155.424 71.0753 155.898 70.9844 156.325 70.8026C156.751 70.6207 157.112 70.3594 157.407 70.0185C157.702 69.6776 157.913 69.2685 158.038 68.7912H160.049C159.935 69.5639 159.654 70.2599 159.205 70.8793C158.762 71.4929 158.174 71.9815 157.441 72.3452C156.714 72.7031 155.867 72.8821 154.901 72.8821ZM164.864 67.8366L164.83 65.348H165.239L170.967 59.5185H173.455L167.353 65.6889H167.183L164.864 67.8366ZM162.989 72.6094V55.1548H165.001V72.6094H162.989ZM171.308 72.6094L166.194 66.1321L167.626 64.7344L173.864 72.6094H171.308ZM188.964 54.3366L183.339 75.2344H181.499L187.124 54.3366H188.964ZM203.758 72.848C202.474 72.848 201.38 72.4986 200.477 71.7997C199.573 71.0952 198.883 70.0753 198.406 68.7401C197.928 67.3991 197.69 65.7798 197.69 63.8821C197.69 61.9957 197.928 60.3849 198.406 59.0497C198.888 57.7088 199.582 56.6861 200.485 55.9815C201.394 55.2713 202.485 54.9162 203.758 54.9162C205.031 54.9162 206.119 55.2713 207.022 55.9815C207.931 56.6861 208.624 57.7088 209.102 59.0497C209.585 60.3849 209.826 61.9957 209.826 63.8821C209.826 65.7798 209.587 67.3991 209.11 68.7401C208.633 70.0753 207.942 71.0952 207.039 71.7997C206.136 72.4986 205.042 72.848 203.758 72.848ZM203.758 70.973C205.031 70.973 206.019 70.3594 206.724 69.1321C207.428 67.9048 207.781 66.1548 207.781 63.8821C207.781 62.3707 207.619 61.0838 207.295 60.0213C206.977 58.9588 206.516 58.1491 205.914 57.5923C205.317 57.0355 204.599 56.7571 203.758 56.7571C202.496 56.7571 201.511 57.3793 200.8 58.6236C200.09 59.8622 199.735 61.6151 199.735 63.8821C199.735 65.3935 199.894 66.6776 200.212 67.7344C200.531 68.7912 200.988 69.5952 201.585 70.1463C202.187 70.6974 202.911 70.973 203.758 70.973Z" fill="white"/>
<path d="M116.868 216.11L119.732 198.656H121.436L118.572 216.11H116.868ZM108.925 211.269L109.197 209.565H122.22L121.947 211.269H108.925ZM110.732 216.11L113.595 198.656H115.3L112.436 216.11H110.732ZM109.947 205.201L110.22 203.496H123.243L122.97 205.201H109.947ZM131.156 216.349C129.872 216.349 128.778 215.999 127.875 215.3C126.972 214.596 126.281 213.576 125.804 212.241C125.327 210.9 125.088 209.281 125.088 207.383C125.088 205.496 125.327 203.886 125.804 202.55C126.287 201.21 126.98 200.187 127.884 199.482C128.793 198.772 129.884 198.417 131.156 198.417C132.429 198.417 133.517 198.772 134.42 199.482C135.33 200.187 136.023 201.21 136.5 202.55C136.983 203.886 137.224 205.496 137.224 207.383C137.224 209.281 136.986 210.9 136.509 212.241C136.031 213.576 135.341 214.596 134.438 215.3C133.534 215.999 132.44 216.349 131.156 216.349ZM131.156 214.474C132.429 214.474 133.418 213.86 134.122 212.633C134.827 211.406 135.179 209.656 135.179 207.383C135.179 205.871 135.017 204.585 134.693 203.522C134.375 202.46 133.915 201.65 133.312 201.093C132.716 200.536 131.997 200.258 131.156 200.258C129.895 200.258 128.909 200.88 128.199 202.124C127.489 203.363 127.134 205.116 127.134 207.383C127.134 208.894 127.293 210.178 127.611 211.235C127.929 212.292 128.386 213.096 128.983 213.647C129.585 214.198 130.31 214.474 131.156 214.474ZM146.156 216.349C144.872 216.349 143.778 215.999 142.875 215.3C141.972 214.596 141.281 213.576 140.804 212.241C140.327 210.9 140.088 209.281 140.088 207.383C140.088 205.496 140.327 203.886 140.804 202.55C141.287 201.21 141.98 200.187 142.884 199.482C143.793 198.772 144.884 198.417 146.156 198.417C147.429 198.417 148.517 198.772 149.42 199.482C150.33 200.187 151.023 201.21 151.5 202.55C151.983 203.886 152.224 205.496 152.224 207.383C152.224 209.281 151.986 210.9 151.509 212.241C151.031 213.576 150.341 214.596 149.438 215.3C148.534 215.999 147.44 216.349 146.156 216.349ZM146.156 214.474C147.429 214.474 148.418 213.86 149.122 212.633C149.827 211.406 150.179 209.656 150.179 207.383C150.179 205.871 150.017 204.585 149.693 203.522C149.375 202.46 148.915 201.65 148.312 201.093C147.716 200.536 146.997 200.258 146.156 200.258C144.895 200.258 143.909 200.88 143.199 202.124C142.489 203.363 142.134 205.116 142.134 207.383C142.134 208.894 142.293 210.178 142.611 211.235C142.929 212.292 143.386 213.096 143.983 213.647C144.585 214.198 145.31 214.474 146.156 214.474ZM161.156 216.349C159.872 216.349 158.778 215.999 157.875 215.3C156.972 214.596 156.281 213.576 155.804 212.241C155.327 210.9 155.088 209.281 155.088 207.383C155.088 205.496 155.327 203.886 155.804 202.55C156.287 201.21 156.98 200.187 157.884 199.482C158.793 198.772 159.884 198.417 161.156 198.417C162.429 198.417 163.517 198.772 164.42 199.482C165.33 200.187 166.023 201.21 166.5 202.55C166.983 203.886 167.224 205.496 167.224 207.383C167.224 209.281 166.986 210.9 166.509 212.241C166.031 213.576 165.341 214.596 164.438 215.3C163.534 215.999 162.44 216.349 161.156 216.349ZM161.156 214.474C162.429 214.474 163.418 213.86 164.122 212.633C164.827 211.406 165.179 209.656 165.179 207.383C165.179 205.871 165.017 204.585 164.693 203.522C164.375 202.46 163.915 201.65 163.312 201.093C162.716 200.536 161.997 200.258 161.156 200.258C159.895 200.258 158.909 200.88 158.199 202.124C157.489 203.363 157.134 205.116 157.134 207.383C157.134 208.894 157.293 210.178 157.611 211.235C157.929 212.292 158.386 213.096 158.983 213.647C159.585 214.198 160.31 214.474 161.156 214.474ZM176.156 216.349C174.872 216.349 173.778 215.999 172.875 215.3C171.972 214.596 171.281 213.576 170.804 212.241C170.327 210.9 170.088 209.281 170.088 207.383C170.088 205.496 170.327 203.886 170.804 202.55C171.287 201.21 171.98 200.187 172.884 199.482C173.793 198.772 174.884 198.417 176.156 198.417C177.429 198.417 178.517 198.772 179.42 199.482C180.33 200.187 181.023 201.21 181.5 202.55C181.983 203.886 182.224 205.496 182.224 207.383C182.224 209.281 181.986 210.9 181.509 212.241C181.031 213.576 180.341 214.596 179.438 215.3C178.534 215.999 177.44 216.349 176.156 216.349ZM176.156 214.474C177.429 214.474 178.418 213.86 179.122 212.633C179.827 211.406 180.179 209.656 180.179 207.383C180.179 205.871 180.017 204.585 179.693 203.522C179.375 202.46 178.915 201.65 178.312 201.093C177.716 200.536 176.997 200.258 176.156 200.258C174.895 200.258 173.909 200.88 173.199 202.124C172.489 203.363 172.134 205.116 172.134 207.383C172.134 208.894 172.293 210.178 172.611 211.235C172.929 212.292 173.386 213.096 173.983 213.647C174.585 214.198 175.31 214.474 176.156 214.474ZM191.156 216.349C189.872 216.349 188.778 215.999 187.875 215.3C186.972 214.596 186.281 213.576 185.804 212.241C185.327 210.9 185.088 209.281 185.088 207.383C185.088 205.496 185.327 203.886 185.804 202.55C186.287 201.21 186.98 200.187 187.884 199.482C188.793 198.772 189.884 198.417 191.156 198.417C192.429 198.417 193.517 198.772 194.42 199.482C195.33 200.187 196.023 201.21 196.5 202.55C196.983 203.886 197.224 205.496 197.224 207.383C197.224 209.281 196.986 210.9 196.509 212.241C196.031 213.576 195.341 214.596 194.438 215.3C193.534 215.999 192.44 216.349 191.156 216.349ZM191.156 214.474C192.429 214.474 193.418 213.86 194.122 212.633C194.827 211.406 195.179 209.656 195.179 207.383C195.179 205.871 195.017 204.585 194.693 203.522C194.375 202.46 193.915 201.65 193.312 201.093C192.716 200.536 191.997 200.258 191.156 200.258C189.895 200.258 188.909 200.88 188.199 202.124C187.489 203.363 187.134 205.116 187.134 207.383C187.134 208.894 187.293 210.178 187.611 211.235C187.929 212.292 188.386 213.096 188.983 213.647C189.585 214.198 190.31 214.474 191.156 214.474ZM206.156 216.349C204.872 216.349 203.778 215.999 202.875 215.3C201.972 214.596 201.281 213.576 200.804 212.241C200.327 210.9 200.088 209.281 200.088 207.383C200.088 205.496 200.327 203.886 200.804 202.55C201.287 201.21 201.98 200.187 202.884 199.482C203.793 198.772 204.884 198.417 206.156 198.417C207.429 198.417 208.517 198.772 209.42 199.482C210.33 200.187 211.023 201.21 211.5 202.55C211.983 203.886 212.224 205.496 212.224 207.383C212.224 209.281 211.986 210.9 211.509 212.241C211.031 213.576 210.341 214.596 209.438 215.3C208.534 215.999 207.44 216.349 206.156 216.349ZM206.156 214.474C207.429 214.474 208.418 213.86 209.122 212.633C209.827 211.406 210.179 209.656 210.179 207.383C210.179 205.871 210.017 204.585 209.693 203.522C209.375 202.46 208.915 201.65 208.312 201.093C207.716 200.536 206.997 200.258 206.156 200.258C204.895 200.258 203.909 200.88 203.199 202.124C202.489 203.363 202.134 205.116 202.134 207.383C202.134 208.894 202.293 210.178 202.611 211.235C202.929 212.292 203.386 213.096 203.983 213.647C204.585 214.198 205.31 214.474 206.156 214.474Z" fill="white"/>
<path d="M461.903 216.11L464.767 198.656H466.471L463.608 216.11H461.903ZM453.96 211.269L454.233 209.565H467.255L466.983 211.269H453.96ZM455.767 216.11L458.63 198.656H460.335L457.471 216.11H455.767ZM454.983 205.201L455.255 203.496H468.278L468.005 205.201H454.983ZM476.635 198.656V216.11H474.521V200.871H474.419L470.157 203.701V201.553L474.521 198.656H476.635ZM481.654 216.11V214.576L487.416 208.269C488.092 207.531 488.649 206.889 489.086 206.343C489.524 205.792 489.848 205.275 490.058 204.792C490.274 204.303 490.382 203.792 490.382 203.258C490.382 202.644 490.234 202.113 489.939 201.664C489.649 201.215 489.251 200.869 488.745 200.624C488.24 200.38 487.672 200.258 487.041 200.258C486.37 200.258 485.785 200.397 485.285 200.675C484.791 200.948 484.407 201.332 484.135 201.826C483.868 202.32 483.734 202.9 483.734 203.565H481.723C481.723 202.542 481.958 201.644 482.43 200.871C482.902 200.099 483.544 199.496 484.356 199.065C485.174 198.633 486.092 198.417 487.109 198.417C488.132 198.417 489.038 198.633 489.828 199.065C490.618 199.496 491.237 200.079 491.686 200.812C492.135 201.545 492.359 202.36 492.359 203.258C492.359 203.9 492.243 204.528 492.01 205.141C491.782 205.749 491.385 206.428 490.816 207.178C490.254 207.923 489.473 208.832 488.473 209.906L484.552 214.099V214.235H492.666V216.11H481.654ZM502.322 198.656V216.11H500.208V200.871H500.106L495.845 203.701V201.553L500.208 198.656H502.322ZM513.24 216.349C512.115 216.349 511.112 216.156 510.231 215.769C509.356 215.383 508.66 214.846 508.143 214.158C507.632 213.465 507.353 212.661 507.308 211.746H509.456C509.501 212.309 509.694 212.795 510.035 213.204C510.376 213.607 510.822 213.92 511.373 214.141C511.924 214.363 512.535 214.474 513.206 214.474C513.956 214.474 514.62 214.343 515.2 214.082C515.779 213.82 516.234 213.457 516.564 212.991C516.893 212.525 517.058 211.985 517.058 211.371C517.058 210.729 516.899 210.164 516.581 209.675C516.262 209.181 515.797 208.795 515.183 208.516C514.569 208.238 513.819 208.099 512.933 208.099H511.535V206.224H512.933C513.626 206.224 514.234 206.099 514.757 205.849C515.285 205.599 515.697 205.246 515.993 204.792C516.294 204.337 516.444 203.803 516.444 203.19C516.444 202.599 516.314 202.085 516.052 201.647C515.791 201.21 515.422 200.869 514.944 200.624C514.473 200.38 513.916 200.258 513.274 200.258C512.672 200.258 512.103 200.369 511.569 200.59C511.041 200.806 510.609 201.121 510.274 201.536C509.939 201.945 509.757 202.44 509.728 203.019H507.683C507.717 202.104 507.993 201.303 508.51 200.616C509.027 199.923 509.703 199.383 510.538 198.996C511.379 198.61 512.302 198.417 513.308 198.417C514.387 198.417 515.314 198.636 516.086 199.073C516.859 199.505 517.453 200.076 517.868 200.786C518.282 201.496 518.49 202.264 518.49 203.087C518.49 204.07 518.231 204.908 517.714 205.602C517.203 206.295 516.507 206.775 515.626 207.042V207.178C516.728 207.36 517.589 207.829 518.208 208.585C518.828 209.335 519.137 210.264 519.137 211.371C519.137 212.32 518.879 213.173 518.362 213.928C517.85 214.678 517.152 215.269 516.265 215.701C515.379 216.133 514.37 216.349 513.24 216.349ZM528.76 198.656V216.11H526.646V200.871H526.544L522.282 203.701V201.553L526.646 198.656H528.76ZM539.336 198.417C540.052 198.423 540.768 198.559 541.484 198.826C542.2 199.093 542.853 199.536 543.444 200.156C544.035 200.769 544.51 201.607 544.868 202.67C545.225 203.732 545.404 205.065 545.404 206.667C545.404 208.218 545.257 209.596 544.961 210.8C544.672 211.999 544.251 213.011 543.7 213.835C543.154 214.658 542.49 215.283 541.706 215.71C540.927 216.136 540.047 216.349 539.064 216.349C538.086 216.349 537.214 216.156 536.447 215.769C535.686 215.377 535.061 214.835 534.572 214.141C534.089 213.442 533.779 212.633 533.643 211.712H535.723C535.91 212.514 536.282 213.175 536.839 213.698C537.402 214.215 538.143 214.474 539.064 214.474C540.41 214.474 541.473 213.886 542.251 212.71C543.035 211.533 543.427 209.871 543.427 207.724H543.291C542.973 208.201 542.595 208.613 542.157 208.96C541.72 209.306 541.234 209.573 540.7 209.761C540.166 209.948 539.598 210.042 538.995 210.042C537.995 210.042 537.078 209.795 536.243 209.3C535.413 208.8 534.748 208.116 534.248 207.246C533.754 206.371 533.507 205.371 533.507 204.246C533.507 203.178 533.745 202.201 534.223 201.315C534.706 200.423 535.382 199.712 536.251 199.184C537.126 198.656 538.154 198.4 539.336 198.417ZM539.336 200.292C538.62 200.292 537.975 200.471 537.402 200.829C536.833 201.181 536.382 201.658 536.047 202.261C535.717 202.857 535.552 203.519 535.552 204.246C535.552 204.974 535.711 205.636 536.029 206.232C536.353 206.823 536.794 207.295 537.35 207.647C537.913 207.994 538.552 208.167 539.268 208.167C539.808 208.167 540.311 208.062 540.777 207.852C541.243 207.636 541.649 207.343 541.995 206.974C542.348 206.599 542.623 206.175 542.822 205.704C543.021 205.227 543.12 204.729 543.12 204.212C543.12 203.531 542.956 202.891 542.626 202.295C542.302 201.698 541.853 201.215 541.279 200.846C540.711 200.477 540.064 200.292 539.336 200.292Z" fill="white"/>
<path d="M798.677 216.11L801.541 198.656H803.246L800.382 216.11H798.677ZM790.734 211.269L791.007 209.565H804.03L803.757 211.269H790.734ZM792.541 216.11L795.405 198.656H797.109L794.246 216.11H792.541ZM791.757 205.201L792.03 203.496H805.052L804.78 205.201H791.757ZM813.409 198.656V216.11H811.295V200.871H811.193L806.932 203.701V201.553L811.295 198.656H813.409ZM818.736 216.11V198.656H824.838C826.054 198.656 827.057 198.866 827.847 199.286C828.636 199.701 829.224 200.261 829.611 200.965C829.997 201.664 830.19 202.44 830.19 203.292C830.19 204.042 830.057 204.661 829.79 205.15C829.528 205.639 829.182 206.025 828.75 206.309C828.324 206.593 827.861 206.803 827.361 206.94V207.11C827.895 207.144 828.432 207.332 828.972 207.673C829.511 208.014 829.963 208.502 830.327 209.139C830.69 209.775 830.872 210.553 830.872 211.474C830.872 212.349 830.673 213.136 830.275 213.835C829.878 214.533 829.25 215.087 828.392 215.496C827.534 215.906 826.418 216.11 825.043 216.11H818.736ZM820.849 214.235H825.043C826.423 214.235 827.403 213.968 827.983 213.434C828.568 212.894 828.861 212.241 828.861 211.474C828.861 210.883 828.71 210.337 828.409 209.837C828.108 209.332 827.679 208.928 827.122 208.627C826.565 208.32 825.906 208.167 825.145 208.167H820.849V214.235ZM820.849 206.326H824.77C825.406 206.326 825.98 206.201 826.491 205.951C827.008 205.701 827.418 205.349 827.719 204.894C828.025 204.44 828.179 203.906 828.179 203.292C828.179 202.525 827.912 201.874 827.378 201.34C826.844 200.8 825.997 200.531 824.838 200.531H820.849V206.326ZM840.175 198.656V216.11H838.061V200.871H837.959L833.697 203.701V201.553L838.061 198.656H840.175ZM845.501 216.11V198.656H856.035V200.531H847.615V206.428H855.49V208.303H847.615V214.235H856.172V216.11H845.501ZM859.538 216.11V214.576L865.3 208.269C865.976 207.531 866.533 206.889 866.97 206.343C867.408 205.792 867.731 205.275 867.942 204.792C868.158 204.303 868.266 203.792 868.266 203.258C868.266 202.644 868.118 202.113 867.822 201.664C867.533 201.215 867.135 200.869 866.629 200.624C866.123 200.38 865.555 200.258 864.925 200.258C864.254 200.258 863.669 200.397 863.169 200.675C862.675 200.948 862.291 201.332 862.018 201.826C861.751 202.32 861.618 202.9 861.618 203.565H859.606C859.606 202.542 859.842 201.644 860.314 200.871C860.785 200.099 861.427 199.496 862.24 199.065C863.058 198.633 863.976 198.417 864.993 198.417C866.016 198.417 866.922 198.633 867.712 199.065C868.501 199.496 869.121 200.079 869.57 200.812C870.018 201.545 870.243 202.36 870.243 203.258C870.243 203.9 870.126 204.528 869.893 205.141C869.666 205.749 869.268 206.428 868.7 207.178C868.138 207.923 867.356 208.832 866.356 209.906L862.436 214.099V214.235H870.55V216.11H859.538ZM879.763 216.11H874.376V198.656H880.001C881.695 198.656 883.143 199.005 884.348 199.704C885.552 200.397 886.476 201.394 887.118 202.695C887.76 203.991 888.081 205.542 888.081 207.349C888.081 209.167 887.757 210.732 887.109 212.045C886.462 213.352 885.518 214.357 884.28 215.062C883.041 215.761 881.535 216.11 879.763 216.11ZM876.49 214.235H879.626C881.07 214.235 882.266 213.957 883.214 213.4C884.163 212.843 884.871 212.05 885.337 211.022C885.802 209.994 886.035 208.769 886.035 207.349C886.035 205.94 885.805 204.727 885.345 203.71C884.885 202.687 884.197 201.903 883.283 201.357C882.368 200.806 881.229 200.531 879.865 200.531H876.49V214.235Z" fill="white"/>
<path d="M1135.06 216.11L1137.92 198.656H1139.62L1136.76 216.11H1135.06ZM1127.11 211.269L1127.38 209.565H1140.41L1140.13 211.269H1127.11ZM1128.92 216.11L1131.78 198.656H1133.49L1130.62 216.11H1128.92ZM1128.13 205.201L1128.41 203.496H1141.43L1141.16 205.201H1128.13ZM1149.55 216.349C1148.42 216.349 1147.42 216.156 1146.54 215.769C1145.66 215.383 1144.97 214.846 1144.45 214.158C1143.94 213.465 1143.66 212.661 1143.62 211.746H1145.76C1145.81 212.309 1146 212.795 1146.34 213.204C1146.68 213.607 1147.13 213.92 1147.68 214.141C1148.23 214.363 1148.84 214.474 1149.51 214.474C1150.26 214.474 1150.93 214.343 1151.51 214.082C1152.09 213.82 1152.54 213.457 1152.87 212.991C1153.2 212.525 1153.37 211.985 1153.37 211.371C1153.37 210.729 1153.21 210.164 1152.89 209.675C1152.57 209.181 1152.11 208.795 1151.49 208.516C1150.88 208.238 1150.13 208.099 1149.24 208.099H1147.84V206.224H1149.24C1149.93 206.224 1150.54 206.099 1151.07 205.849C1151.59 205.599 1152.01 205.246 1152.3 204.792C1152.6 204.337 1152.75 203.803 1152.75 203.19C1152.75 202.599 1152.62 202.085 1152.36 201.647C1152.1 201.21 1151.73 200.869 1151.25 200.624C1150.78 200.38 1150.22 200.258 1149.58 200.258C1148.98 200.258 1148.41 200.369 1147.88 200.59C1147.35 200.806 1146.92 201.121 1146.58 201.536C1146.25 201.945 1146.07 202.44 1146.04 203.019H1143.99C1144.03 202.104 1144.3 201.303 1144.82 200.616C1145.34 199.923 1146.01 199.383 1146.85 198.996C1147.69 198.61 1148.61 198.417 1149.62 198.417C1150.7 198.417 1151.62 198.636 1152.39 199.073C1153.17 199.505 1153.76 200.076 1154.18 200.786C1154.59 201.496 1154.8 202.264 1154.8 203.087C1154.8 204.07 1154.54 204.908 1154.02 205.602C1153.51 206.295 1152.82 206.775 1151.93 207.042V207.178C1153.04 207.36 1153.9 207.829 1154.52 208.585C1155.14 209.335 1155.45 210.264 1155.45 211.371C1155.45 212.32 1155.19 213.173 1154.67 213.928C1154.16 214.678 1153.46 215.269 1152.57 215.701C1151.69 216.133 1150.68 216.349 1149.55 216.349ZM1158.93 216.11V214.576L1164.69 208.269C1165.37 207.531 1165.93 206.889 1166.36 206.343C1166.8 205.792 1167.13 205.275 1167.34 204.792C1167.55 204.303 1167.66 203.792 1167.66 203.258C1167.66 202.644 1167.51 202.113 1167.22 201.664C1166.93 201.215 1166.53 200.869 1166.02 200.624C1165.52 200.38 1164.95 200.258 1164.32 200.258C1163.65 200.258 1163.06 200.397 1162.56 200.675C1162.07 200.948 1161.68 201.332 1161.41 201.826C1161.14 202.32 1161.01 202.9 1161.01 203.565H1159C1159 202.542 1159.24 201.644 1159.71 200.871C1160.18 200.099 1160.82 199.496 1161.63 199.065C1162.45 198.633 1163.37 198.417 1164.39 198.417C1165.41 198.417 1166.32 198.633 1167.11 199.065C1167.89 199.496 1168.51 200.079 1168.96 200.812C1169.41 201.545 1169.64 202.36 1169.64 203.258C1169.64 203.9 1169.52 204.528 1169.29 205.141C1169.06 205.749 1168.66 206.428 1168.09 207.178C1167.53 207.923 1166.75 208.832 1165.75 209.906L1161.83 214.099V214.235H1169.94V216.11H1158.93ZM1179.36 216.349C1178.24 216.349 1177.23 216.156 1176.35 215.769C1175.48 215.383 1174.78 214.846 1174.26 214.158C1173.75 213.465 1173.47 212.661 1173.43 211.746H1175.58C1175.62 212.309 1175.82 212.795 1176.16 213.204C1176.5 213.607 1176.94 213.92 1177.49 214.141C1178.05 214.363 1178.66 214.474 1179.33 214.474C1180.08 214.474 1180.74 214.343 1181.32 214.082C1181.9 213.82 1182.36 213.457 1182.68 212.991C1183.01 212.525 1183.18 211.985 1183.18 211.371C1183.18 210.729 1183.02 210.164 1182.7 209.675C1182.38 209.181 1181.92 208.795 1181.3 208.516C1180.69 208.238 1179.94 208.099 1179.05 208.099H1177.66V206.224H1179.05C1179.75 206.224 1180.36 206.099 1180.88 205.849C1181.41 205.599 1181.82 205.246 1182.11 204.792C1182.41 204.337 1182.57 203.803 1182.57 203.19C1182.57 202.599 1182.43 202.085 1182.17 201.647C1181.91 201.21 1181.54 200.869 1181.07 200.624C1180.59 200.38 1180.04 200.258 1179.39 200.258C1178.79 200.258 1178.22 200.369 1177.69 200.59C1177.16 200.806 1176.73 201.121 1176.39 201.536C1176.06 201.945 1175.88 202.44 1175.85 203.019H1173.8C1173.84 202.104 1174.11 201.303 1174.63 200.616C1175.15 199.923 1175.82 199.383 1176.66 198.996C1177.5 198.61 1178.42 198.417 1179.43 198.417C1180.51 198.417 1181.43 198.636 1182.21 199.073C1182.98 199.505 1183.57 200.076 1183.99 200.786C1184.4 201.496 1184.61 202.264 1184.61 203.087C1184.61 204.07 1184.35 204.908 1183.84 205.602C1183.32 206.295 1182.63 206.775 1181.75 207.042V207.178C1182.85 207.36 1183.71 207.829 1184.33 208.585C1184.95 209.335 1185.26 210.264 1185.26 211.371C1185.26 212.32 1185 213.173 1184.48 213.928C1183.97 214.678 1183.27 215.269 1182.39 215.701C1181.5 216.133 1180.49 216.349 1179.36 216.349ZM1194.2 216.349C1193.2 216.349 1192.3 216.15 1191.5 215.752C1190.7 215.354 1190.05 214.809 1189.57 214.116C1189.09 213.423 1188.82 212.633 1188.78 211.746H1190.82C1190.9 212.536 1191.26 213.19 1191.9 213.707C1192.54 214.218 1193.31 214.474 1194.2 214.474C1194.91 214.474 1195.55 214.306 1196.11 213.971C1196.67 213.636 1197.11 213.175 1197.43 212.59C1197.75 211.999 1197.91 211.332 1197.91 210.587C1197.91 209.826 1197.75 209.147 1197.41 208.55C1197.08 207.948 1196.63 207.474 1196.05 207.127C1195.47 206.781 1194.81 206.604 1194.06 206.599C1193.53 206.593 1192.98 206.675 1192.42 206.846C1191.86 207.011 1191.39 207.224 1191.03 207.485L1189.05 207.246L1190.11 198.656H1199.18V200.531H1191.88L1191.27 205.678H1191.37C1191.73 205.394 1192.18 205.158 1192.72 204.971C1193.26 204.783 1193.82 204.69 1194.4 204.69C1195.47 204.69 1196.42 204.945 1197.26 205.457C1198.1 205.962 1198.76 206.656 1199.24 207.536C1199.72 208.417 1199.96 209.423 1199.96 210.553C1199.96 211.667 1199.71 212.661 1199.21 213.536C1198.72 214.406 1198.03 215.093 1197.16 215.599C1196.3 216.099 1195.31 216.349 1194.2 216.349ZM1202.94 212.531V210.792L1210.61 198.656H1211.87V201.349H1211.02L1205.22 210.519V210.656H1215.55V212.531H1202.94ZM1211.15 216.11V212.002V211.192V198.656H1213.16V216.11H1211.15ZM1218.74 216.11V214.576L1224.51 208.269C1225.18 207.531 1225.74 206.889 1226.18 206.343C1226.61 205.792 1226.94 205.275 1227.15 204.792C1227.36 204.303 1227.47 203.792 1227.47 203.258C1227.47 202.644 1227.32 202.113 1227.03 201.664C1226.74 201.215 1226.34 200.869 1225.84 200.624C1225.33 200.38 1224.76 200.258 1224.13 200.258C1223.46 200.258 1222.88 200.397 1222.38 200.675C1221.88 200.948 1221.5 201.332 1221.22 201.826C1220.96 202.32 1220.82 202.9 1220.82 203.565H1218.81C1218.81 202.542 1219.05 201.644 1219.52 200.871C1219.99 200.099 1220.63 199.496 1221.45 199.065C1222.26 198.633 1223.18 198.417 1224.2 198.417C1225.22 198.417 1226.13 198.633 1226.92 199.065C1227.71 199.496 1228.33 200.079 1228.78 200.812C1229.22 201.545 1229.45 202.36 1229.45 203.258C1229.45 203.9 1229.33 204.528 1229.1 205.141C1228.87 205.749 1228.47 206.428 1227.91 207.178C1227.34 207.923 1226.56 208.832 1225.56 209.906L1221.64 214.099V214.235H1229.76V216.11H1218.74Z" fill="white"/>
<path d="M1474.69 216.11L1477.55 198.656H1479.26L1476.39 216.11H1474.69ZM1466.74 211.269L1467.02 209.565H1480.04L1479.77 211.269H1466.74ZM1468.55 216.11L1471.41 198.656H1473.12L1470.26 216.11H1468.55ZM1467.77 205.201L1468.04 203.496H1481.06L1480.79 205.201H1467.77ZM1482.87 212.531V210.792L1490.54 198.656H1491.81V201.349H1490.95L1485.16 210.519V210.656H1495.49V212.531H1482.87ZM1491.09 216.11V212.002V211.192V198.656H1493.1V216.11H1491.09ZM1504.24 198.417C1504.95 198.423 1505.67 198.559 1506.39 198.826C1507.1 199.093 1507.75 199.536 1508.35 200.156C1508.94 200.769 1509.41 201.607 1509.77 202.67C1510.13 203.732 1510.31 205.065 1510.31 206.667C1510.31 208.218 1510.16 209.596 1509.86 210.8C1509.57 211.999 1509.15 213.011 1508.6 213.835C1508.06 214.658 1507.39 215.283 1506.61 215.71C1505.83 216.136 1504.95 216.349 1503.96 216.349C1502.99 216.349 1502.12 216.156 1501.35 215.769C1500.59 215.377 1499.96 214.835 1499.47 214.141C1498.99 213.442 1498.68 212.633 1498.54 211.712H1500.62C1500.81 212.514 1501.18 213.175 1501.74 213.698C1502.3 214.215 1503.04 214.474 1503.96 214.474C1505.31 214.474 1506.37 213.886 1507.15 212.71C1507.94 211.533 1508.33 209.871 1508.33 207.724H1508.19C1507.87 208.201 1507.5 208.613 1507.06 208.96C1506.62 209.306 1506.14 209.573 1505.6 209.761C1505.07 209.948 1504.5 210.042 1503.9 210.042C1502.9 210.042 1501.98 209.795 1501.14 209.3C1500.31 208.8 1499.65 208.116 1499.15 207.246C1498.66 206.371 1498.41 205.371 1498.41 204.246C1498.41 203.178 1498.65 202.201 1499.12 201.315C1499.61 200.423 1500.28 199.712 1501.15 199.184C1502.03 198.656 1503.06 198.4 1504.24 198.417ZM1504.24 200.292C1503.52 200.292 1502.88 200.471 1502.3 200.829C1501.73 201.181 1501.28 201.658 1500.95 202.261C1500.62 202.857 1500.45 203.519 1500.45 204.246C1500.45 204.974 1500.61 205.636 1500.93 206.232C1501.25 206.823 1501.7 207.295 1502.25 207.647C1502.81 207.994 1503.45 208.167 1504.17 208.167C1504.71 208.167 1505.21 208.062 1505.68 207.852C1506.14 207.636 1506.55 207.343 1506.9 206.974C1507.25 206.599 1507.52 206.175 1507.72 205.704C1507.92 205.227 1508.02 204.729 1508.02 204.212C1508.02 203.531 1507.86 202.891 1507.53 202.295C1507.2 201.698 1506.75 201.215 1506.18 200.846C1505.61 200.477 1504.96 200.292 1504.24 200.292ZM1513.25 212.531V210.792L1520.92 198.656H1522.18V201.349H1521.33L1515.53 210.519V210.656H1525.86V212.531H1513.25ZM1521.46 216.11V212.002V211.192V198.656H1523.48V216.11H1521.46ZM1529.36 216.11V198.656H1535.46C1536.68 198.656 1537.68 198.866 1538.47 199.286C1539.26 199.701 1539.85 200.261 1540.24 200.965C1540.62 201.664 1540.82 202.44 1540.82 203.292C1540.82 204.042 1540.68 204.661 1540.42 205.15C1540.16 205.639 1539.81 206.025 1539.38 206.309C1538.95 206.593 1538.49 206.803 1537.99 206.94V207.11C1538.52 207.144 1539.06 207.332 1539.6 207.673C1540.14 208.014 1540.59 208.502 1540.95 209.139C1541.32 209.775 1541.5 210.553 1541.5 211.474C1541.5 212.349 1541.3 213.136 1540.9 213.835C1540.5 214.533 1539.88 215.087 1539.02 215.496C1538.16 215.906 1537.04 216.11 1535.67 216.11H1529.36ZM1531.48 214.235H1535.67C1537.05 214.235 1538.03 213.968 1538.61 213.434C1539.2 212.894 1539.49 212.241 1539.49 211.474C1539.49 210.883 1539.34 210.337 1539.04 209.837C1538.73 209.332 1538.31 208.928 1537.75 208.627C1537.19 208.32 1536.53 208.167 1535.77 208.167H1531.48V214.235ZM1531.48 206.326H1535.4C1536.03 206.326 1536.61 206.201 1537.12 205.951C1537.64 205.701 1538.04 205.349 1538.35 204.894C1538.65 204.44 1538.81 203.906 1538.81 203.292C1538.81 202.525 1538.54 201.874 1538 201.34C1537.47 200.8 1536.62 200.531 1535.46 200.531H1531.48V206.326ZM1550.12 216.349C1549.12 216.349 1548.22 216.15 1547.42 215.752C1546.62 215.354 1545.97 214.809 1545.49 214.116C1545.01 213.423 1544.74 212.633 1544.7 211.746H1546.74C1546.82 212.536 1547.18 213.19 1547.82 213.707C1548.46 214.218 1549.23 214.474 1550.12 214.474C1550.84 214.474 1551.47 214.306 1552.03 213.971C1552.59 213.636 1553.03 213.175 1553.35 212.59C1553.67 211.999 1553.84 211.332 1553.84 210.587C1553.84 209.826 1553.67 209.147 1553.33 208.55C1553 207.948 1552.55 207.474 1551.97 207.127C1551.39 206.781 1550.73 206.604 1549.98 206.599C1549.45 206.593 1548.9 206.675 1548.34 206.846C1547.78 207.011 1547.31 207.224 1546.95 207.485L1544.97 207.246L1546.03 198.656H1555.1V200.531H1547.8L1547.19 205.678H1547.29C1547.65 205.394 1548.1 205.158 1548.64 204.971C1549.18 204.783 1549.74 204.69 1550.32 204.69C1551.39 204.69 1552.34 204.945 1553.18 205.457C1554.02 205.962 1554.68 206.656 1555.16 207.536C1555.64 208.417 1555.88 209.423 1555.88 210.553C1555.88 211.667 1555.63 212.661 1555.13 213.536C1554.64 214.406 1553.95 215.093 1553.09 215.599C1552.22 216.099 1551.23 216.349 1550.12 216.349ZM1559.81 216.11L1567.62 200.667V200.531H1558.62V198.656H1569.8V200.633L1562.03 216.11H1559.81Z" fill="white"/>
<path d="M1815.94 216.11L1818.81 198.656H1820.51L1817.65 216.11H1815.94ZM1808 211.269L1808.27 209.565H1821.3L1821.02 211.269H1808ZM1809.81 216.11L1812.67 198.656H1814.38L1811.51 216.11H1809.81ZM1809.02 205.201L1809.3 203.496H1822.32L1822.05 205.201H1809.02ZM1824.85 216.11V198.656H1835.31V200.531H1826.96V206.428H1834.53V208.303H1826.96V216.11H1824.85ZM1838.93 216.11V198.656H1849.4V200.531H1841.05V206.428H1848.61V208.303H1841.05V216.11H1838.93ZM1853.02 216.11V198.656H1863.48V200.531H1855.13V206.428H1862.7V208.303H1855.13V216.11H1853.02ZM1867.1 216.11V198.656H1877.57V200.531H1869.22V206.428H1876.79V208.303H1869.22V216.11H1867.1ZM1881.19 216.11V198.656H1891.66V200.531H1883.3V206.428H1890.87V208.303H1883.3V216.11H1881.19ZM1895.28 216.11V198.656H1905.74V200.531H1897.39V206.428H1904.96V208.303H1897.39V216.11H1895.28Z" fill="#494B57"/>
<path d="M456.117 72.6094V55.1548H462.219C463.435 55.1548 464.438 55.3651 465.227 55.7855C466.017 56.2003 466.605 56.7599 466.992 57.4645C467.378 58.1634 467.571 58.9389 467.571 59.7912C467.571 60.5412 467.438 61.1605 467.171 61.6491C466.909 62.1378 466.563 62.5241 466.131 62.8082C465.705 63.0923 465.242 63.3026 464.742 63.4389V63.6094C465.276 63.6435 465.813 63.831 466.352 64.1719C466.892 64.5128 467.344 65.0014 467.707 65.6378C468.071 66.2741 468.253 67.0526 468.253 67.973C468.253 68.848 468.054 69.6349 467.656 70.3338C467.259 71.0327 466.631 71.5866 465.773 71.9957C464.915 72.4048 463.798 72.6094 462.423 72.6094H456.117ZM458.23 70.7344H462.423C463.804 70.7344 464.784 70.4673 465.364 69.9332C465.949 69.3935 466.242 68.7401 466.242 67.973C466.242 67.3821 466.091 66.8366 465.79 66.3366C465.489 65.831 465.06 65.4276 464.503 65.1264C463.946 64.8196 463.287 64.6662 462.526 64.6662H458.23V70.7344ZM458.23 62.8253H462.151C462.787 62.8253 463.361 62.7003 463.872 62.4503C464.389 62.2003 464.798 61.848 465.1 61.3935C465.406 60.9389 465.56 60.4048 465.56 59.7912C465.56 59.0241 465.293 58.3736 464.759 57.8395C464.225 57.2997 463.378 57.0298 462.219 57.0298H458.23V62.8253ZM473.465 55.1548V72.6094H471.453V55.1548H473.465ZM481.001 72.9162C480.171 72.9162 479.418 72.7599 478.742 72.4474C478.066 72.1293 477.529 71.6719 477.131 71.0753C476.734 70.473 476.535 69.7457 476.535 68.8935C476.535 68.1435 476.683 67.5355 476.978 67.0696C477.274 66.598 477.668 66.2287 478.163 65.9616C478.657 65.6946 479.203 65.4957 479.799 65.3651C480.401 65.2287 481.006 65.1207 481.614 65.0412C482.41 64.9389 483.055 64.8622 483.549 64.8111C484.049 64.7543 484.413 64.6605 484.64 64.5298C484.873 64.3991 484.989 64.1719 484.989 63.848V63.7798C484.989 62.9389 484.759 62.2855 484.299 61.8196C483.845 61.3537 483.154 61.1207 482.228 61.1207C481.268 61.1207 480.515 61.331 479.97 61.7514C479.424 62.1719 479.041 62.6207 478.819 63.098L476.91 62.4162C477.251 61.6207 477.705 61.0014 478.274 60.5582C478.847 60.1094 479.472 59.7969 480.149 59.6207C480.83 59.4389 481.501 59.348 482.16 59.348C482.58 59.348 483.063 59.3991 483.609 59.5014C484.16 59.598 484.691 59.7997 485.203 60.1065C485.72 60.4134 486.149 60.8764 486.489 61.4957C486.83 62.1151 487.001 62.9446 487.001 63.9844V72.6094H484.989V70.8366H484.887C484.751 71.1207 484.524 71.4247 484.205 71.7486C483.887 72.0724 483.464 72.348 482.935 72.5753C482.407 72.8026 481.762 72.9162 481.001 72.9162ZM481.308 71.1094C482.103 71.1094 482.774 70.9531 483.319 70.6406C483.87 70.3281 484.285 69.9247 484.563 69.4304C484.847 68.9361 484.989 68.4162 484.989 67.8707V66.0298C484.904 66.1321 484.717 66.2259 484.427 66.3111C484.143 66.3906 483.813 66.4616 483.438 66.5241C483.069 66.581 482.708 66.6321 482.356 66.6776C482.009 66.7173 481.728 66.7514 481.512 66.7798C480.989 66.848 480.501 66.9588 480.046 67.1122C479.597 67.2599 479.234 67.4844 478.955 67.7855C478.683 68.081 478.546 68.4844 478.546 68.9957C478.546 69.6946 478.805 70.223 479.322 70.581C479.845 70.9332 480.506 71.1094 481.308 71.1094ZM495.99 72.8821C494.763 72.8821 493.706 72.5923 492.82 72.0128C491.933 71.4332 491.252 70.6349 490.774 69.6179C490.297 68.6009 490.058 67.4389 490.058 66.1321C490.058 64.8026 490.303 63.6293 490.791 62.6122C491.286 61.5895 491.973 60.7912 492.854 60.2173C493.74 59.6378 494.774 59.348 495.956 59.348C496.877 59.348 497.706 59.5185 498.445 59.8594C499.183 60.2003 499.788 60.6776 500.26 61.2912C500.732 61.9048 501.024 62.6207 501.138 63.4389H499.127C498.973 62.8423 498.632 62.3139 498.104 61.8537C497.581 61.3878 496.877 61.1548 495.99 61.1548C495.206 61.1548 494.519 61.3594 493.928 61.7685C493.342 62.1719 492.885 62.7429 492.555 63.4815C492.232 64.2145 492.07 65.0753 492.07 66.0639C492.07 67.0753 492.229 67.956 492.547 68.706C492.871 69.456 493.325 70.0384 493.911 70.4531C494.502 70.8679 495.195 71.0753 495.99 71.0753C496.513 71.0753 496.987 70.9844 497.413 70.8026C497.84 70.6207 498.2 70.3594 498.496 70.0185C498.791 69.6776 499.002 69.2685 499.127 68.7912H501.138C501.024 69.5639 500.743 70.2599 500.294 70.8793C499.851 71.4929 499.263 71.9815 498.53 72.3452C497.803 72.7031 496.956 72.8821 495.99 72.8821ZM505.953 67.8366L505.919 65.348H506.328L512.055 59.5185H514.544L508.442 65.6889H508.271L505.953 67.8366ZM504.078 72.6094V55.1548H506.09V72.6094H504.078ZM512.396 72.6094L507.283 66.1321L508.715 64.7344L514.953 72.6094H512.396ZM530.053 54.3366L524.428 75.2344H522.587L528.212 54.3366H530.053ZM545.29 55.1548V72.6094H543.176V57.3707H543.074L538.813 60.2003V58.0526L543.176 55.1548H545.29Z" fill="white"/>
<path d="M792.595 72.6094V55.1548H798.697C799.913 55.1548 800.916 55.3651 801.706 55.7855C802.496 56.2003 803.084 56.7599 803.47 57.4645C803.856 58.1634 804.05 58.9389 804.05 59.7912C804.05 60.5412 803.916 61.1605 803.649 61.6491C803.388 62.1378 803.041 62.5241 802.609 62.8082C802.183 63.0923 801.72 63.3026 801.22 63.4389V63.6094C801.754 63.6435 802.291 63.831 802.831 64.1719C803.371 64.5128 803.822 65.0014 804.186 65.6378C804.55 66.2741 804.731 67.0526 804.731 67.973C804.731 68.848 804.533 69.6349 804.135 70.3338C803.737 71.0327 803.109 71.5866 802.251 71.9957C801.393 72.4048 800.277 72.6094 798.902 72.6094H792.595ZM794.709 70.7344H798.902C800.283 70.7344 801.263 70.4673 801.842 69.9332C802.427 69.3935 802.72 68.7401 802.72 67.973C802.72 67.3821 802.57 66.8366 802.268 66.3366C801.967 65.831 801.538 65.4276 800.981 65.1264C800.425 64.8196 799.766 64.6662 799.004 64.6662H794.709V70.7344ZM794.709 62.8253H798.629C799.266 62.8253 799.839 62.7003 800.351 62.4503C800.868 62.2003 801.277 61.848 801.578 61.3935C801.885 60.9389 802.038 60.4048 802.038 59.7912C802.038 59.0241 801.771 58.3736 801.237 57.8395C800.703 57.2997 799.856 57.0298 798.697 57.0298H794.709V62.8253ZM809.943 55.1548V72.6094H807.932V55.1548H809.943ZM817.479 72.9162C816.65 72.9162 815.897 72.7599 815.221 72.4474C814.545 72.1293 814.008 71.6719 813.61 71.0753C813.212 70.473 813.013 69.7457 813.013 68.8935C813.013 68.1435 813.161 67.5355 813.457 67.0696C813.752 66.598 814.147 66.2287 814.641 65.9616C815.136 65.6946 815.681 65.4957 816.278 65.3651C816.88 65.2287 817.485 65.1207 818.093 65.0412C818.888 64.9389 819.533 64.8622 820.028 64.8111C820.528 64.7543 820.891 64.6605 821.119 64.5298C821.351 64.3991 821.468 64.1719 821.468 63.848V63.7798C821.468 62.9389 821.238 62.2855 820.778 61.8196C820.323 61.3537 819.633 61.1207 818.707 61.1207C817.746 61.1207 816.994 61.331 816.448 61.7514C815.903 62.1719 815.519 62.6207 815.297 63.098L813.388 62.4162C813.729 61.6207 814.184 61.0014 814.752 60.5582C815.326 60.1094 815.951 59.7969 816.627 59.6207C817.309 59.4389 817.979 59.348 818.638 59.348C819.059 59.348 819.542 59.3991 820.087 59.5014C820.638 59.598 821.17 59.7997 821.681 60.1065C822.198 60.4134 822.627 60.8764 822.968 61.4957C823.309 62.1151 823.479 62.9446 823.479 63.9844V72.6094H821.468V70.8366H821.366C821.229 71.1207 821.002 71.4247 820.684 71.7486C820.366 72.0724 819.942 72.348 819.414 72.5753C818.886 72.8026 818.241 72.9162 817.479 72.9162ZM817.786 71.1094C818.582 71.1094 819.252 70.9531 819.797 70.6406C820.349 70.3281 820.763 69.9247 821.042 69.4304C821.326 68.9361 821.468 68.4162 821.468 67.8707V66.0298C821.383 66.1321 821.195 66.2259 820.905 66.3111C820.621 66.3906 820.292 66.4616 819.917 66.5241C819.547 66.581 819.187 66.6321 818.834 66.6776C818.488 66.7173 818.207 66.7514 817.991 66.7798C817.468 66.848 816.979 66.9588 816.525 67.1122C816.076 67.2599 815.712 67.4844 815.434 67.7855C815.161 68.081 815.025 68.4844 815.025 68.9957C815.025 69.6946 815.283 70.223 815.8 70.581C816.323 70.9332 816.985 71.1094 817.786 71.1094ZM832.469 72.8821C831.241 72.8821 830.185 72.5923 829.298 72.0128C828.412 71.4332 827.73 70.6349 827.253 69.6179C826.775 68.6009 826.537 67.4389 826.537 66.1321C826.537 64.8026 826.781 63.6293 827.27 62.6122C827.764 61.5895 828.452 60.7912 829.332 60.2173C830.219 59.6378 831.253 59.348 832.435 59.348C833.355 59.348 834.185 59.5185 834.923 59.8594C835.662 60.2003 836.267 60.6776 836.739 61.2912C837.21 61.9048 837.503 62.6207 837.616 63.4389H835.605C835.452 62.8423 835.111 62.3139 834.582 61.8537C834.06 61.3878 833.355 61.1548 832.469 61.1548C831.685 61.1548 830.997 61.3594 830.406 61.7685C829.821 62.1719 829.364 62.7429 829.034 63.4815C828.71 64.2145 828.548 65.0753 828.548 66.0639C828.548 67.0753 828.707 67.956 829.025 68.706C829.349 69.456 829.804 70.0384 830.389 70.4531C830.98 70.8679 831.673 71.0753 832.469 71.0753C832.991 71.0753 833.466 70.9844 833.892 70.8026C834.318 70.6207 834.679 70.3594 834.974 70.0185C835.27 69.6776 835.48 69.2685 835.605 68.7912H837.616C837.503 69.5639 837.222 70.2599 836.773 70.8793C836.329 71.4929 835.741 71.9815 835.008 72.3452C834.281 72.7031 833.435 72.8821 832.469 72.8821ZM842.432 67.8366L842.398 65.348H842.807L848.534 59.5185H851.023L844.92 65.6889H844.75L842.432 67.8366ZM840.557 72.6094V55.1548H842.568V72.6094H840.557ZM848.875 72.6094L843.761 66.1321L845.193 64.7344L851.432 72.6094H848.875ZM866.532 54.3366L860.907 75.2344H859.066L864.691 54.3366H866.532ZM875.632 72.6094V71.0753L881.393 64.7685C882.07 64.0298 882.626 63.3878 883.064 62.8423C883.501 62.2912 883.825 61.7741 884.035 61.2912C884.251 60.8026 884.359 60.2912 884.359 59.7571C884.359 59.1435 884.212 58.6122 883.916 58.1634C883.626 57.7145 883.229 57.3679 882.723 57.1236C882.217 56.8793 881.649 56.7571 881.018 56.7571C880.348 56.7571 879.763 56.8963 879.263 57.1747C878.768 57.4474 878.385 57.831 878.112 58.3253C877.845 58.8196 877.712 59.3991 877.712 60.0639H875.7C875.7 59.0412 875.936 58.1435 876.408 57.3707C876.879 56.598 877.521 55.9957 878.334 55.5639C879.152 55.1321 880.07 54.9162 881.087 54.9162C882.109 54.9162 883.016 55.1321 883.805 55.5639C884.595 55.9957 885.214 56.5781 885.663 57.3111C886.112 58.044 886.337 58.8594 886.337 59.7571C886.337 60.3991 886.22 61.027 885.987 61.6406C885.76 62.2486 885.362 62.9276 884.794 63.6776C884.231 64.4219 883.45 65.331 882.45 66.4048L878.53 70.598V70.7344H886.643V72.6094H875.632Z" fill="white"/>
<path d="M1150.44 60.6094C1150.25 60.0355 1150 59.5213 1149.69 59.0668C1149.39 58.6065 1149.03 58.2145 1148.61 57.8906C1148.2 57.5668 1147.73 57.3196 1147.2 57.1491C1146.67 56.9787 1146.09 56.8935 1145.46 56.8935C1144.42 56.8935 1143.48 57.1605 1142.64 57.6946C1141.79 58.2287 1141.12 59.0156 1140.62 60.0554C1140.12 61.0952 1139.87 62.3707 1139.87 63.8821C1139.87 65.3935 1140.12 66.669 1140.63 67.7088C1141.13 68.7486 1141.82 69.5355 1142.68 70.0696C1143.54 70.6037 1144.52 70.8707 1145.6 70.8707C1146.6 70.8707 1147.48 70.6577 1148.24 70.2315C1149 69.7997 1149.6 69.1918 1150.03 68.4077C1150.46 67.6179 1150.67 66.6889 1150.67 65.6207L1151.32 65.7571H1146.07V63.8821H1152.72V65.7571C1152.72 67.1946 1152.41 68.4446 1151.8 69.5071C1151.19 70.5696 1150.35 71.3935 1149.28 71.9787C1148.21 72.5582 1146.98 72.848 1145.6 72.848C1144.05 72.848 1142.69 72.4844 1141.52 71.7571C1140.36 71.0298 1139.45 69.9957 1138.79 68.6548C1138.15 67.3139 1137.82 65.723 1137.82 63.8821C1137.82 62.5014 1138.01 61.2599 1138.38 60.1577C1138.75 59.0497 1139.28 58.1065 1139.96 57.3281C1140.64 56.5497 1141.45 55.9531 1142.38 55.5384C1143.31 55.1236 1144.34 54.9162 1145.46 54.9162C1146.38 54.9162 1147.24 55.0554 1148.03 55.3338C1148.83 55.6065 1149.55 55.9957 1150.17 56.5014C1150.8 57.0014 1151.33 57.6009 1151.75 58.2997C1152.17 58.9929 1152.46 59.7628 1152.62 60.6094H1150.44ZM1156.07 72.6094V59.5185H1158.01V61.4957H1158.15C1158.39 60.848 1158.82 60.3224 1159.44 59.919C1160.07 59.5156 1160.77 59.3139 1161.56 59.3139C1161.7 59.3139 1161.89 59.3168 1162.11 59.3224C1162.33 59.3281 1162.5 59.3366 1162.61 59.348V61.3935C1162.54 61.3764 1162.39 61.3509 1162.14 61.3168C1161.91 61.277 1161.65 61.2571 1161.39 61.2571C1160.75 61.2571 1160.18 61.3906 1159.68 61.6577C1159.19 61.919 1158.79 62.2827 1158.5 62.7486C1158.22 63.2088 1158.08 63.7344 1158.08 64.3253V72.6094H1156.07ZM1168.85 72.9162C1168.02 72.9162 1167.27 72.7599 1166.59 72.4474C1165.91 72.1293 1165.38 71.6719 1164.98 71.0753C1164.58 70.473 1164.38 69.7457 1164.38 68.8935C1164.38 68.1435 1164.53 67.5355 1164.83 67.0696C1165.12 66.598 1165.52 66.2287 1166.01 65.9616C1166.51 65.6946 1167.05 65.4957 1167.65 65.3651C1168.25 65.2287 1168.86 65.1207 1169.46 65.0412C1170.26 64.9389 1170.9 64.8622 1171.4 64.8111C1171.9 64.7543 1172.26 64.6605 1172.49 64.5298C1172.72 64.3991 1172.84 64.1719 1172.84 63.848V63.7798C1172.84 62.9389 1172.61 62.2855 1172.15 61.8196C1171.69 61.3537 1171 61.1207 1170.08 61.1207C1169.12 61.1207 1168.36 61.331 1167.82 61.7514C1167.27 62.1719 1166.89 62.6207 1166.67 63.098L1164.76 62.4162C1165.1 61.6207 1165.55 61.0014 1166.12 60.5582C1166.7 60.1094 1167.32 59.7969 1168 59.6207C1168.68 59.4389 1169.35 59.348 1170.01 59.348C1170.43 59.348 1170.91 59.3991 1171.46 59.5014C1172.01 59.598 1172.54 59.7997 1173.05 60.1065C1173.57 60.4134 1174 60.8764 1174.34 61.4957C1174.68 62.1151 1174.85 62.9446 1174.85 63.9844V72.6094H1172.84V70.8366H1172.74C1172.6 71.1207 1172.37 71.4247 1172.05 71.7486C1171.74 72.0724 1171.31 72.348 1170.78 72.5753C1170.26 72.8026 1169.61 72.9162 1168.85 72.9162ZM1169.16 71.1094C1169.95 71.1094 1170.62 70.9531 1171.17 70.6406C1171.72 70.3281 1172.13 69.9247 1172.41 69.4304C1172.7 68.9361 1172.84 68.4162 1172.84 67.8707V66.0298C1172.75 66.1321 1172.57 66.2259 1172.28 66.3111C1171.99 66.3906 1171.66 66.4616 1171.29 66.5241C1170.92 66.581 1170.56 66.6321 1170.2 66.6776C1169.86 66.7173 1169.58 66.7514 1169.36 66.7798C1168.84 66.848 1168.35 66.9588 1167.89 67.1122C1167.45 67.2599 1167.08 67.4844 1166.8 67.7855C1166.53 68.081 1166.39 68.4844 1166.39 68.9957C1166.39 69.6946 1166.65 70.223 1167.17 70.581C1167.69 70.9332 1168.36 71.1094 1169.16 71.1094ZM1179.35 77.5185C1179.01 77.5185 1178.7 77.4901 1178.44 77.4332C1178.17 77.3821 1177.98 77.331 1177.88 77.2798L1178.39 75.5071C1178.88 75.6321 1179.31 75.6776 1179.69 75.6435C1180.06 75.6094 1180.4 75.4418 1180.69 75.1406C1180.98 74.8452 1181.25 74.3651 1181.5 73.7003L1181.87 72.6776L1177.03 59.5185H1179.21L1182.82 69.9503H1182.96L1186.57 59.5185H1188.76L1183.2 74.5185C1182.95 75.1946 1182.64 75.7543 1182.27 76.1974C1181.9 76.6463 1181.47 76.9787 1180.98 77.1946C1180.5 77.4105 1179.96 77.5185 1179.35 77.5185ZM1204.33 54.3366L1198.71 75.2344H1196.87L1202.49 54.3366H1204.33ZM1219.57 55.1548V72.6094H1217.45V57.3707H1217.35L1213.09 60.2003V58.0526L1217.45 55.1548H1219.57Z" fill="white"/>
<path d="M1486.92 60.6094C1486.73 60.0355 1486.48 59.5213 1486.17 59.0668C1485.87 58.6065 1485.51 58.2145 1485.09 57.8906C1484.68 57.5668 1484.21 57.3196 1483.68 57.1491C1483.15 56.9787 1482.57 56.8935 1481.94 56.8935C1480.9 56.8935 1479.96 57.1605 1479.12 57.6946C1478.27 58.2287 1477.6 59.0156 1477.1 60.0554C1476.6 61.0952 1476.35 62.3707 1476.35 63.8821C1476.35 65.3935 1476.6 66.669 1477.11 67.7088C1477.61 68.7486 1478.3 69.5355 1479.16 70.0696C1480.02 70.6037 1481 70.8707 1482.07 70.8707C1483.07 70.8707 1483.96 70.6577 1484.72 70.2315C1485.48 69.7997 1486.08 69.1918 1486.51 68.4077C1486.94 67.6179 1487.15 66.6889 1487.15 65.6207L1487.8 65.7571H1482.55V63.8821H1489.2V65.7571C1489.2 67.1946 1488.89 68.4446 1488.28 69.5071C1487.67 70.5696 1486.83 71.3935 1485.76 71.9787C1484.69 72.5582 1483.46 72.848 1482.07 72.848C1480.53 72.848 1479.17 72.4844 1478 71.7571C1476.84 71.0298 1475.93 69.9957 1475.27 68.6548C1474.63 67.3139 1474.3 65.723 1474.3 63.8821C1474.3 62.5014 1474.49 61.2599 1474.86 60.1577C1475.23 59.0497 1475.76 58.1065 1476.44 57.3281C1477.12 56.5497 1477.93 55.9531 1478.86 55.5384C1479.79 55.1236 1480.82 54.9162 1481.94 54.9162C1482.86 54.9162 1483.72 55.0554 1484.51 55.3338C1485.31 55.6065 1486.03 55.9957 1486.65 56.5014C1487.28 57.0014 1487.81 57.6009 1488.23 58.2997C1488.65 58.9929 1488.94 59.7628 1489.1 60.6094H1486.92ZM1492.55 72.6094V59.5185H1494.49V61.4957H1494.63C1494.87 60.848 1495.3 60.3224 1495.92 59.919C1496.55 59.5156 1497.25 59.3139 1498.04 59.3139C1498.18 59.3139 1498.37 59.3168 1498.59 59.3224C1498.81 59.3281 1498.98 59.3366 1499.09 59.348V61.3935C1499.02 61.3764 1498.87 61.3509 1498.62 61.3168C1498.39 61.277 1498.13 61.2571 1497.87 61.2571C1497.23 61.2571 1496.66 61.3906 1496.16 61.6577C1495.67 61.919 1495.27 62.2827 1494.98 62.7486C1494.7 63.2088 1494.56 63.7344 1494.56 64.3253V72.6094H1492.55ZM1505.33 72.9162C1504.5 72.9162 1503.75 72.7599 1503.07 72.4474C1502.39 72.1293 1501.86 71.6719 1501.46 71.0753C1501.06 70.473 1500.86 69.7457 1500.86 68.8935C1500.86 68.1435 1501.01 67.5355 1501.31 67.0696C1501.6 66.598 1502 66.2287 1502.49 65.9616C1502.99 65.6946 1503.53 65.4957 1504.13 65.3651C1504.73 65.2287 1505.33 65.1207 1505.94 65.0412C1506.74 64.9389 1507.38 64.8622 1507.88 64.8111C1508.38 64.7543 1508.74 64.6605 1508.97 64.5298C1509.2 64.3991 1509.32 64.1719 1509.32 63.848V63.7798C1509.32 62.9389 1509.09 62.2855 1508.63 61.8196C1508.17 61.3537 1507.48 61.1207 1506.56 61.1207C1505.6 61.1207 1504.84 61.331 1504.3 61.7514C1503.75 62.1719 1503.37 62.6207 1503.15 63.098L1501.24 62.4162C1501.58 61.6207 1502.03 61.0014 1502.6 60.5582C1503.18 60.1094 1503.8 59.7969 1504.48 59.6207C1505.16 59.4389 1505.83 59.348 1506.49 59.348C1506.91 59.348 1507.39 59.3991 1507.94 59.5014C1508.49 59.598 1509.02 59.7997 1509.53 60.1065C1510.05 60.4134 1510.48 60.8764 1510.82 61.4957C1511.16 62.1151 1511.33 62.9446 1511.33 63.9844V72.6094H1509.32V70.8366H1509.22C1509.08 71.1207 1508.85 71.4247 1508.53 71.7486C1508.22 72.0724 1507.79 72.348 1507.26 72.5753C1506.74 72.8026 1506.09 72.9162 1505.33 72.9162ZM1505.64 71.1094C1506.43 71.1094 1507.1 70.9531 1507.65 70.6406C1508.2 70.3281 1508.61 69.9247 1508.89 69.4304C1509.18 68.9361 1509.32 68.4162 1509.32 67.8707V66.0298C1509.23 66.1321 1509.04 66.2259 1508.76 66.3111C1508.47 66.3906 1508.14 66.4616 1507.77 66.5241C1507.4 66.581 1507.04 66.6321 1506.68 66.6776C1506.34 66.7173 1506.06 66.7514 1505.84 66.7798C1505.32 66.848 1504.83 66.9588 1504.37 67.1122C1503.93 67.2599 1503.56 67.4844 1503.28 67.7855C1503.01 68.081 1502.87 68.4844 1502.87 68.9957C1502.87 69.6946 1503.13 70.223 1503.65 70.581C1504.17 70.9332 1504.83 71.1094 1505.64 71.1094ZM1515.83 77.5185C1515.49 77.5185 1515.18 77.4901 1514.91 77.4332C1514.65 77.3821 1514.46 77.331 1514.36 77.2798L1514.87 75.5071C1515.36 75.6321 1515.79 75.6776 1516.17 75.6435C1516.54 75.6094 1516.88 75.4418 1517.16 75.1406C1517.46 74.8452 1517.73 74.3651 1517.97 73.7003L1518.35 72.6776L1513.51 59.5185H1515.69L1519.3 69.9503H1519.44L1523.05 59.5185H1525.24L1519.68 74.5185C1519.43 75.1946 1519.12 75.7543 1518.75 76.1974C1518.38 76.6463 1517.95 76.9787 1517.46 77.1946C1516.98 77.4105 1516.43 77.5185 1515.83 77.5185ZM1540.81 54.3366L1535.19 75.2344H1533.35L1538.97 54.3366H1540.81ZM1549.91 72.6094V71.0753L1555.67 64.7685C1556.35 64.0298 1556.91 63.3878 1557.34 62.8423C1557.78 62.2912 1558.1 61.7741 1558.31 61.2912C1558.53 60.8026 1558.64 60.2912 1558.64 59.7571C1558.64 59.1435 1558.49 58.6122 1558.2 58.1634C1557.91 57.7145 1557.51 57.3679 1557 57.1236C1556.5 56.8793 1555.93 56.7571 1555.3 56.7571C1554.63 56.7571 1554.04 56.8963 1553.54 57.1747C1553.05 57.4474 1552.66 57.831 1552.39 58.3253C1552.12 58.8196 1551.99 59.3991 1551.99 60.0639H1549.98C1549.98 59.0412 1550.22 58.1435 1550.69 57.3707C1551.16 56.598 1551.8 55.9957 1552.61 55.5639C1553.43 55.1321 1554.35 54.9162 1555.37 54.9162C1556.39 54.9162 1557.29 55.1321 1558.08 55.5639C1558.87 55.9957 1559.49 56.5781 1559.94 57.3111C1560.39 58.044 1560.62 58.8594 1560.62 59.7571C1560.62 60.3991 1560.5 61.027 1560.27 61.6406C1560.04 62.2486 1559.64 62.9276 1559.07 63.6776C1558.51 64.4219 1557.73 65.331 1556.73 66.4048L1552.81 70.598V70.7344H1560.92V72.6094H1549.91Z" fill="white"/>
<path d="M1829.6 72.6094L1824.83 55.1548H1826.98L1830.63 69.3707H1830.8L1834.51 55.1548H1836.9L1840.61 69.3707H1840.78L1844.43 55.1548H1846.58L1841.81 72.6094H1839.63L1835.77 58.7003H1835.64L1831.78 72.6094H1829.6ZM1850.95 64.7344V72.6094H1848.94V55.1548H1850.95V61.5639H1851.12C1851.43 60.8878 1851.89 60.3509 1852.5 59.9531C1853.12 59.5497 1853.95 59.348 1854.97 59.348C1855.87 59.348 1856.65 59.527 1857.32 59.8849C1857.99 60.2372 1858.51 60.7798 1858.88 61.5128C1859.25 62.2401 1859.44 63.1662 1859.44 64.2912V72.6094H1857.43V64.4276C1857.43 63.3878 1857.16 62.5838 1856.62 62.0156C1856.09 61.4418 1855.34 61.1548 1854.4 61.1548C1853.74 61.1548 1853.15 61.294 1852.62 61.5724C1852.11 61.8509 1851.7 62.2571 1851.4 62.7912C1851.1 63.3253 1850.95 63.973 1850.95 64.7344ZM1863.12 72.6094V59.5185H1865.13V72.6094H1863.12ZM1864.14 57.3366C1863.75 57.3366 1863.41 57.2031 1863.13 56.9361C1862.85 56.669 1862.71 56.348 1862.71 55.973C1862.71 55.598 1862.85 55.277 1863.13 55.0099C1863.41 54.7429 1863.75 54.6094 1864.14 54.6094C1864.53 54.6094 1864.87 54.7429 1865.15 55.0099C1865.43 55.277 1865.57 55.598 1865.57 55.973C1865.57 56.348 1865.43 56.669 1865.15 56.9361C1864.87 57.2031 1864.53 57.3366 1864.14 57.3366ZM1874.51 59.5185V61.223H1867.72V59.5185H1874.51ZM1869.7 56.3821H1871.71V68.8594C1871.71 69.4276 1871.8 69.8537 1871.96 70.1378C1872.13 70.4162 1872.35 70.6037 1872.61 70.7003C1872.88 70.7912 1873.16 70.8366 1873.45 70.8366C1873.67 70.8366 1873.86 70.8253 1874 70.8026C1874.14 70.7741 1874.25 70.7514 1874.34 70.7344L1874.75 72.5412C1874.61 72.5923 1874.42 72.6435 1874.18 72.6946C1873.93 72.7514 1873.62 72.7798 1873.25 72.7798C1872.68 72.7798 1872.12 72.6577 1871.58 72.4134C1871.04 72.169 1870.59 71.7969 1870.23 71.2969C1869.88 70.7969 1869.7 70.1662 1869.7 69.4048V56.3821ZM1882.88 72.8821C1881.62 72.8821 1880.53 72.6037 1879.62 72.0469C1878.71 71.4844 1878.01 70.7003 1877.51 69.6946C1877.02 68.6832 1876.78 67.5071 1876.78 66.1662C1876.78 64.8253 1877.02 63.6435 1877.51 62.6207C1878.01 61.5923 1878.69 60.7912 1879.58 60.2173C1880.46 59.6378 1881.5 59.348 1882.68 59.348C1883.36 59.348 1884.03 59.4616 1884.7 59.6889C1885.36 59.9162 1885.97 60.2855 1886.51 60.7969C1887.06 61.3026 1887.49 61.973 1887.82 62.8082C1888.14 63.6435 1888.3 64.6719 1888.3 65.8935V66.7457H1878.21V65.0071H1886.26C1886.26 64.2685 1886.11 63.6094 1885.81 63.0298C1885.52 62.4503 1885.11 61.9929 1884.57 61.6577C1884.04 61.3224 1883.41 61.1548 1882.68 61.1548C1881.88 61.1548 1881.18 61.3537 1880.6 61.7514C1880.02 62.1435 1879.57 62.6548 1879.26 63.2855C1878.95 63.9162 1878.79 64.5923 1878.79 65.3139V66.473C1878.79 67.4616 1878.96 68.2997 1879.3 68.9872C1879.65 69.669 1880.13 70.1889 1880.74 70.5469C1881.36 70.8991 1882.07 71.0753 1882.88 71.0753C1883.41 71.0753 1883.89 71.0014 1884.31 70.8537C1884.75 70.7003 1885.12 70.473 1885.43 70.1719C1885.74 69.8651 1885.98 69.4844 1886.16 69.0298L1888.1 69.5753C1887.89 70.2344 1887.55 70.8139 1887.07 71.3139C1886.58 71.8082 1885.99 72.1946 1885.28 72.473C1884.57 72.7457 1883.77 72.8821 1882.88 72.8821Z" fill="#494B57"/>
</svg>
