<svg width="593" height="304" viewBox="0 0 593 304" fill="none" xmlns="http://www.w3.org/2000/svg">
<rect x="0.445312" width="48" height="48" rx="16" fill="#792133"/>
<rect x="64.4453" width="48" height="48" rx="16" fill="#91283D"/>
<rect x="128.445" width="48" height="48" rx="16" fill="#A92F47"/>
<rect x="192.445" width="48" height="48" rx="16" fill="#C13652"/>
<rect x="256.445" width="80" height="48" rx="16" fill="#D93C5C"/>
<path d="M275.023 31V16.4545H280.108C281.122 16.4545 281.957 16.6297 282.615 16.9801C283.274 17.3258 283.764 17.7921 284.086 18.3793C284.408 18.9616 284.569 19.608 284.569 20.3182C284.569 20.9432 284.457 21.4593 284.235 21.8665C284.017 22.2737 283.728 22.5956 283.368 22.8324C283.013 23.0691 282.627 23.2443 282.211 23.358V23.5C282.656 23.5284 283.103 23.6847 283.553 23.9688C284.003 24.2528 284.379 24.66 284.682 25.1903C284.985 25.7206 285.137 26.3693 285.137 27.1364C285.137 27.8655 284.971 28.5213 284.64 29.1037C284.308 29.6861 283.785 30.1477 283.07 30.4886C282.355 30.8295 281.425 31 280.279 31H275.023ZM276.784 29.4375H280.279C281.429 29.4375 282.246 29.215 282.729 28.7699C283.217 28.3201 283.461 27.7756 283.461 27.1364C283.461 26.6439 283.335 26.1894 283.084 25.7727C282.833 25.3513 282.476 25.0152 282.012 24.7642C281.548 24.5085 280.998 24.3807 280.364 24.3807H276.784V29.4375ZM276.784 22.8466H280.051C280.582 22.8466 281.06 22.7424 281.486 22.5341C281.917 22.3258 282.258 22.0322 282.509 21.6534C282.765 21.2746 282.892 20.8295 282.892 20.3182C282.892 19.679 282.67 19.1368 282.225 18.6918C281.78 18.242 281.074 18.017 280.108 18.017H276.784V22.8466ZM291.014 31.2557C290.323 31.2557 289.695 31.1255 289.132 30.8651C288.568 30.5999 288.121 30.2188 287.789 29.7216C287.458 29.2197 287.292 28.6136 287.292 27.9034C287.292 27.2784 287.415 26.7718 287.662 26.3835C287.908 25.9905 288.237 25.6828 288.649 25.4602C289.061 25.2377 289.515 25.072 290.012 24.9631C290.514 24.8494 291.019 24.7595 291.525 24.6932C292.188 24.608 292.725 24.544 293.137 24.5014C293.554 24.4541 293.857 24.3759 294.047 24.267C294.241 24.1581 294.338 23.9687 294.338 23.6989V23.642C294.338 22.9413 294.146 22.3968 293.762 22.0085C293.384 21.6203 292.808 21.4261 292.037 21.4261C291.236 21.4261 290.609 21.6013 290.154 21.9517C289.7 22.3021 289.38 22.6761 289.196 23.0739L287.605 22.5057C287.889 21.8428 288.268 21.3267 288.741 20.9574C289.219 20.5833 289.74 20.3229 290.304 20.1761C290.872 20.0246 291.431 19.9489 291.98 19.9489C292.33 19.9489 292.733 19.9915 293.187 20.0767C293.646 20.1572 294.089 20.3253 294.515 20.581C294.946 20.8366 295.304 21.2225 295.588 21.7386C295.872 22.2547 296.014 22.946 296.014 23.8125V31H294.338V29.5227H294.252C294.139 29.7595 293.949 30.0128 293.684 30.2827C293.419 30.5526 293.066 30.7822 292.626 30.9716C292.186 31.161 291.648 31.2557 291.014 31.2557ZM291.27 29.75C291.932 29.75 292.491 29.6198 292.946 29.3594C293.405 29.099 293.751 28.7628 293.983 28.3509C294.219 27.9389 294.338 27.5057 294.338 27.0511V25.517C294.267 25.6023 294.11 25.6804 293.869 25.7514C293.632 25.8177 293.358 25.8769 293.045 25.929C292.737 25.9763 292.437 26.0189 292.143 26.0568C291.854 26.09 291.62 26.1184 291.44 26.142C291.004 26.1989 290.597 26.2912 290.218 26.419C289.844 26.5421 289.541 26.7292 289.309 26.9801C289.082 27.2263 288.968 27.5625 288.968 27.9886C288.968 28.571 289.184 29.0114 289.615 29.3097C290.05 29.6032 290.602 29.75 291.27 29.75ZM306.8 22.5341L305.295 22.9602C305.2 22.7093 305.06 22.4654 304.876 22.2287C304.696 21.9872 304.45 21.7884 304.137 21.6321C303.825 21.4759 303.424 21.3977 302.937 21.3977C302.269 21.3977 301.713 21.5516 301.268 21.8594C300.827 22.1624 300.607 22.5483 300.607 23.017C300.607 23.4337 300.759 23.7628 301.062 24.0043C301.365 24.2457 301.838 24.447 302.482 24.608L304.102 25.0057C305.077 25.2424 305.804 25.6046 306.282 26.0923C306.76 26.5753 306.999 27.1979 306.999 27.9602C306.999 28.5852 306.819 29.1439 306.46 29.6364C306.104 30.1288 305.607 30.517 304.968 30.8011C304.329 31.0852 303.585 31.2273 302.738 31.2273C301.625 31.2273 300.704 30.9858 299.975 30.5028C299.246 30.0199 298.784 29.3144 298.59 28.3864L300.181 27.9886C300.333 28.5758 300.619 29.0161 301.04 29.3097C301.467 29.6032 302.023 29.75 302.71 29.75C303.491 29.75 304.111 29.5843 304.57 29.2528C305.034 28.9167 305.266 28.5142 305.266 28.0455C305.266 27.6667 305.134 27.3494 304.869 27.0938C304.603 26.8333 304.196 26.6392 303.647 26.5114L301.829 26.0852C300.83 25.8485 300.096 25.4815 299.627 24.9844C299.163 24.4825 298.931 23.8551 298.931 23.1023C298.931 22.4867 299.104 21.9422 299.45 21.4688C299.8 20.9953 300.276 20.6236 300.877 20.3537C301.483 20.0838 302.17 19.9489 302.937 19.9489C304.016 19.9489 304.864 20.1856 305.479 20.6591C306.1 21.1326 306.54 21.7576 306.8 22.5341ZM314.096 31.2273C313.045 31.2273 312.138 30.9953 311.376 30.5312C310.618 30.0625 310.034 29.4091 309.622 28.571C309.215 27.7282 309.011 26.7481 309.011 25.6307C309.011 24.5133 309.215 23.5284 309.622 22.6761C310.034 21.8191 310.607 21.1515 311.341 20.6733C312.079 20.1903 312.941 19.9489 313.926 19.9489C314.494 19.9489 315.055 20.0436 315.609 20.233C316.163 20.4223 316.667 20.7301 317.122 21.1562C317.576 21.5777 317.939 22.1364 318.208 22.8324C318.478 23.5284 318.613 24.3854 318.613 25.4034V26.1136H310.204V24.6648H316.909C316.909 24.0492 316.786 23.5 316.539 23.017C316.298 22.5341 315.952 22.1529 315.502 21.8736C315.057 21.5942 314.532 21.4545 313.926 21.4545C313.258 21.4545 312.681 21.6203 312.193 21.9517C311.71 22.2784 311.338 22.7045 311.078 23.2301C310.817 23.7557 310.687 24.3191 310.687 24.9205V25.8864C310.687 26.7102 310.829 27.4086 311.113 27.9815C311.402 28.5497 311.802 28.983 312.314 29.2812C312.825 29.5748 313.419 29.7216 314.096 29.7216C314.537 29.7216 314.934 29.66 315.289 29.5369C315.649 29.4091 315.959 29.2197 316.22 28.9688C316.48 28.7131 316.681 28.3958 316.824 28.017L318.443 28.4716C318.272 29.0208 317.986 29.5038 317.583 29.9205C317.181 30.3324 316.684 30.6544 316.092 30.8864C315.5 31.1136 314.835 31.2273 314.096 31.2273Z" fill="#F5EEDD"/>
<rect x="352.445" width="48" height="48" rx="16" fill="#F14366"/>
<rect x="416.445" width="48" height="48" rx="16" fill="#F25575"/>
<rect x="480.445" width="48" height="48" rx="16" fill="#F46985"/>
<rect x="544.445" width="48" height="48" rx="16" fill="#F57B94"/>
<path d="M9.26776 64.4545V79H7.50639V66.3011H7.42116L3.87003 68.6591V66.8693L7.50639 64.4545H9.26776ZM18.5646 64.4545V79H16.8033V66.3011H16.718L13.1669 68.6591V66.8693L16.8033 64.4545H18.5646ZM27.4922 79.1989C26.4221 79.1989 25.5107 78.9077 24.7578 78.3253C24.005 77.7382 23.4297 76.8883 23.032 75.7756C22.6342 74.6581 22.4354 73.3087 22.4354 71.7273C22.4354 70.1553 22.6342 68.813 23.032 67.7003C23.4344 66.5829 24.0121 65.7306 24.7649 65.1435C25.5225 64.5516 26.4316 64.2557 27.4922 64.2557C28.5528 64.2557 29.4595 64.5516 30.2124 65.1435C30.9699 65.7306 31.5476 66.5829 31.9453 67.7003C32.3478 68.813 32.549 70.1553 32.549 71.7273C32.549 73.3087 32.3501 74.6581 31.9524 75.7756C31.5547 76.8883 30.9794 77.7382 30.2266 78.3253C29.4737 78.9077 28.5623 79.1989 27.4922 79.1989ZM27.4922 77.6364C28.5528 77.6364 29.3767 77.125 29.9638 76.1023C30.5509 75.0795 30.8445 73.6212 30.8445 71.7273C30.8445 70.4678 30.7095 69.3954 30.4396 68.5099C30.1745 67.6245 29.791 66.9498 29.2891 66.4858C28.7919 66.0218 28.1929 65.7898 27.4922 65.7898C26.4411 65.7898 25.6196 66.3082 25.0277 67.3452C24.4358 68.3774 24.1399 69.8381 24.1399 71.7273C24.1399 72.9867 24.2725 74.0568 24.5376 74.9375C24.8028 75.8182 25.1839 76.4882 25.6811 76.9474C26.183 77.4067 26.7867 77.6364 27.4922 77.6364ZM39.9922 79.1989C38.9221 79.1989 38.0107 78.9077 37.2578 78.3253C36.505 77.7382 35.9297 76.8883 35.532 75.7756C35.1342 74.6581 34.9354 73.3087 34.9354 71.7273C34.9354 70.1553 35.1342 68.813 35.532 67.7003C35.9344 66.5829 36.5121 65.7306 37.2649 65.1435C38.0225 64.5516 38.9316 64.2557 39.9922 64.2557C41.0528 64.2557 41.9595 64.5516 42.7124 65.1435C43.4699 65.7306 44.0476 66.5829 44.4453 67.7003C44.8478 68.813 45.049 70.1553 45.049 71.7273C45.049 73.3087 44.8501 74.6581 44.4524 75.7756C44.0547 76.8883 43.4794 77.7382 42.7266 78.3253C41.9737 78.9077 41.0623 79.1989 39.9922 79.1989ZM39.9922 77.6364C41.0528 77.6364 41.8767 77.125 42.4638 76.1023C43.0509 75.0795 43.3445 73.6212 43.3445 71.7273C43.3445 70.4678 43.2095 69.3954 42.9396 68.5099C42.6745 67.6245 42.291 66.9498 41.7891 66.4858C41.2919 66.0218 40.6929 65.7898 39.9922 65.7898C38.9411 65.7898 38.1196 66.3082 37.5277 67.3452C36.9358 68.3774 36.6399 69.8381 36.6399 71.7273C36.6399 72.9867 36.7725 74.0568 37.0376 74.9375C37.3028 75.8182 37.6839 76.4882 38.1811 76.9474C38.683 77.4067 39.2867 77.6364 39.9922 77.6364Z" fill="#792133"/>
<path d="M71.6662 64.4545V79H69.9048V66.3011H69.8196L66.2685 68.6591V66.8693L69.9048 64.4545H71.6662ZM80.5938 79.1989C79.5237 79.1989 78.6122 78.9077 77.8594 78.3253C77.1065 77.7382 76.5313 76.8883 76.1335 75.7756C75.7358 74.6581 75.5369 73.3087 75.5369 71.7273C75.5369 70.1553 75.7358 68.813 76.1335 67.7003C76.536 66.5829 77.1136 65.7306 77.8665 65.1435C78.6241 64.5516 79.5331 64.2557 80.5938 64.2557C81.6544 64.2557 82.5611 64.5516 83.3139 65.1435C84.0715 65.7306 84.6491 66.5829 85.0469 67.7003C85.4493 68.813 85.6506 70.1553 85.6506 71.7273C85.6506 73.3087 85.4517 74.6581 85.054 75.7756C84.6562 76.8883 84.081 77.7382 83.3281 78.3253C82.5753 78.9077 81.6638 79.1989 80.5938 79.1989ZM80.5938 77.6364C81.6544 77.6364 82.4782 77.125 83.0653 76.1023C83.6525 75.0795 83.946 73.6212 83.946 71.7273C83.946 70.4678 83.8111 69.3954 83.5412 68.5099C83.276 67.6245 82.8925 66.9498 82.3906 66.4858C81.8935 66.0218 81.2945 65.7898 80.5938 65.7898C79.5426 65.7898 78.7211 66.3082 78.1293 67.3452C77.5374 68.3774 77.2415 69.8381 77.2415 71.7273C77.2415 72.9867 77.3741 74.0568 77.6392 74.9375C77.9044 75.8182 78.2855 76.4882 78.7827 76.9474C79.2846 77.4067 79.8883 77.6364 80.5938 77.6364ZM93.0938 79.1989C92.0237 79.1989 91.1122 78.9077 90.3594 78.3253C89.6065 77.7382 89.0313 76.8883 88.6335 75.7756C88.2358 74.6581 88.0369 73.3087 88.0369 71.7273C88.0369 70.1553 88.2358 68.813 88.6335 67.7003C89.036 66.5829 89.6136 65.7306 90.3665 65.1435C91.1241 64.5516 92.0331 64.2557 93.0938 64.2557C94.1544 64.2557 95.0611 64.5516 95.8139 65.1435C96.5715 65.7306 97.1491 66.5829 97.5469 67.7003C97.9493 68.813 98.1506 70.1553 98.1506 71.7273C98.1506 73.3087 97.9517 74.6581 97.554 75.7756C97.1562 76.8883 96.581 77.7382 95.8281 78.3253C95.0753 78.9077 94.1638 79.1989 93.0938 79.1989ZM93.0938 77.6364C94.1544 77.6364 94.9782 77.125 95.5653 76.1023C96.1525 75.0795 96.446 73.6212 96.446 71.7273C96.446 70.4678 96.3111 69.3954 96.0412 68.5099C95.776 67.6245 95.3925 66.9498 94.8906 66.4858C94.3935 66.0218 93.7945 65.7898 93.0938 65.7898C92.0426 65.7898 91.2211 66.3082 90.6293 67.3452C90.0374 68.3774 89.7415 69.8381 89.7415 71.7273C89.7415 72.9867 89.8741 74.0568 90.1392 74.9375C90.4044 75.8182 90.7855 76.4882 91.2827 76.9474C91.7846 77.4067 92.3883 77.6364 93.0938 77.6364ZM105.594 79.1989C104.524 79.1989 103.612 78.9077 102.859 78.3253C102.107 77.7382 101.531 76.8883 101.134 75.7756C100.736 74.6581 100.537 73.3087 100.537 71.7273C100.537 70.1553 100.736 68.813 101.134 67.7003C101.536 66.5829 102.114 65.7306 102.866 65.1435C103.624 64.5516 104.533 64.2557 105.594 64.2557C106.654 64.2557 107.561 64.5516 108.314 65.1435C109.071 65.7306 109.649 66.5829 110.047 67.7003C110.449 68.813 110.651 70.1553 110.651 71.7273C110.651 73.3087 110.452 74.6581 110.054 75.7756C109.656 76.8883 109.081 77.7382 108.328 78.3253C107.575 78.9077 106.664 79.1989 105.594 79.1989ZM105.594 77.6364C106.654 77.6364 107.478 77.125 108.065 76.1023C108.652 75.0795 108.946 73.6212 108.946 71.7273C108.946 70.4678 108.811 69.3954 108.541 68.5099C108.276 67.6245 107.893 66.9498 107.391 66.4858C106.893 66.0218 106.295 65.7898 105.594 65.7898C104.543 65.7898 103.721 66.3082 103.129 67.3452C102.537 68.3774 102.241 69.8381 102.241 71.7273C102.241 72.9867 102.374 74.0568 102.639 74.9375C102.904 75.8182 103.286 76.4882 103.783 76.9474C104.285 77.4067 104.888 77.6364 105.594 77.6364Z" fill="#91283D"/>
<path d="M139.841 64.2557C140.438 64.2604 141.035 64.3741 141.631 64.5966C142.228 64.8191 142.772 65.1884 143.265 65.7045C143.757 66.2159 144.153 66.9143 144.451 67.7997C144.749 68.6851 144.898 69.7955 144.898 71.1307C144.898 72.4233 144.775 73.5715 144.529 74.5753C144.287 75.5743 143.937 76.4171 143.478 77.1037C143.023 77.7902 142.469 78.3111 141.816 78.6662C141.167 79.0213 140.433 79.1989 139.614 79.1989C138.8 79.1989 138.073 79.0379 137.434 78.7159C136.799 78.3892 136.278 77.937 135.871 77.3594C135.469 76.777 135.211 76.1023 135.097 75.3352H136.83C136.986 76.0028 137.296 76.5545 137.76 76.9901C138.229 77.4209 138.847 77.6364 139.614 77.6364C140.736 77.6364 141.622 77.1463 142.27 76.1662C142.924 75.1861 143.251 73.8011 143.251 72.0114H143.137C142.872 72.4091 142.557 72.7524 142.192 73.0412C141.828 73.33 141.423 73.5526 140.978 73.7088C140.533 73.8651 140.059 73.9432 139.557 73.9432C138.724 73.9432 137.959 73.7372 137.263 73.3253C136.572 72.9086 136.018 72.3381 135.601 71.6136C135.189 70.8845 134.983 70.0511 134.983 69.1136C134.983 68.2235 135.182 67.4091 135.58 66.6705C135.983 65.9271 136.546 65.3352 137.27 64.8949C138 64.4545 138.857 64.2415 139.841 64.2557ZM139.841 65.8182C139.245 65.8182 138.707 65.9673 138.229 66.2656C137.756 66.5592 137.379 66.9569 137.1 67.4588C136.825 67.956 136.688 68.5076 136.688 69.1136C136.688 69.7197 136.821 70.2713 137.086 70.7685C137.356 71.2609 137.723 71.6539 138.187 71.9474C138.655 72.2363 139.188 72.3807 139.785 72.3807C140.234 72.3807 140.653 72.2931 141.042 72.1179C141.43 71.938 141.769 71.6941 142.057 71.3864C142.351 71.0739 142.581 70.7211 142.746 70.3281C142.912 69.9304 142.995 69.5161 142.995 69.0852C142.995 68.517 142.858 67.9844 142.583 67.4872C142.313 66.9901 141.939 66.5876 141.461 66.2798C140.987 65.9721 140.448 65.8182 139.841 65.8182ZM152.436 79.1989C151.365 79.1989 150.454 78.9077 149.701 78.3253C148.948 77.7382 148.373 76.8883 147.975 75.7756C147.578 74.6581 147.379 73.3087 147.379 71.7273C147.379 70.1553 147.578 68.813 147.975 67.7003C148.378 66.5829 148.955 65.7306 149.708 65.1435C150.466 64.5516 151.375 64.2557 152.436 64.2557C153.496 64.2557 154.403 64.5516 155.156 65.1435C155.913 65.7306 156.491 66.5829 156.889 67.7003C157.291 68.813 157.492 70.1553 157.492 71.7273C157.492 73.3087 157.294 74.6581 156.896 75.7756C156.498 76.8883 155.923 77.7382 155.17 78.3253C154.417 78.9077 153.506 79.1989 152.436 79.1989ZM152.436 77.6364C153.496 77.6364 154.32 77.125 154.907 76.1023C155.494 75.0795 155.788 73.6212 155.788 71.7273C155.788 70.4678 155.653 69.3954 155.383 68.5099C155.118 67.6245 154.734 66.9498 154.232 66.4858C153.735 66.0218 153.136 65.7898 152.436 65.7898C151.384 65.7898 150.563 66.3082 149.971 67.3452C149.379 68.3774 149.083 69.8381 149.083 71.7273C149.083 72.9867 149.216 74.0568 149.481 74.9375C149.746 75.8182 150.127 76.4882 150.624 76.9474C151.126 77.4067 151.73 77.6364 152.436 77.6364ZM164.936 79.1989C163.865 79.1989 162.954 78.9077 162.201 78.3253C161.448 77.7382 160.873 76.8883 160.475 75.7756C160.078 74.6581 159.879 73.3087 159.879 71.7273C159.879 70.1553 160.078 68.813 160.475 67.7003C160.878 66.5829 161.455 65.7306 162.208 65.1435C162.966 64.5516 163.875 64.2557 164.936 64.2557C165.996 64.2557 166.903 64.5516 167.656 65.1435C168.413 65.7306 168.991 66.5829 169.389 67.7003C169.791 68.813 169.992 70.1553 169.992 71.7273C169.992 73.3087 169.794 74.6581 169.396 75.7756C168.998 76.8883 168.423 77.7382 167.67 78.3253C166.917 78.9077 166.006 79.1989 164.936 79.1989ZM164.936 77.6364C165.996 77.6364 166.82 77.125 167.407 76.1023C167.994 75.0795 168.288 73.6212 168.288 71.7273C168.288 70.4678 168.153 69.3954 167.883 68.5099C167.618 67.6245 167.234 66.9498 166.732 66.4858C166.235 66.0218 165.636 65.7898 164.936 65.7898C163.884 65.7898 163.063 66.3082 162.471 67.3452C161.879 68.3774 161.583 69.8381 161.583 71.7273C161.583 72.9867 161.716 74.0568 161.981 74.9375C162.246 75.8182 162.627 76.4882 163.124 76.9474C163.626 77.4067 164.23 77.6364 164.936 77.6364Z" fill="#A92F47"/>
<path d="M203.948 79.1989C202.973 79.1989 202.111 79.026 201.363 78.6804C200.619 78.33 200.039 77.8494 199.623 77.2386C199.206 76.6231 199 75.9223 199.005 75.1364C199 74.5208 199.121 73.9527 199.367 73.4318C199.613 72.9062 199.949 72.4683 200.376 72.1179C200.806 71.7628 201.287 71.5379 201.817 71.4432V71.358C201.121 71.178 200.567 70.7874 200.155 70.1861C199.743 69.58 199.54 68.8911 199.545 68.1193C199.54 67.3807 199.727 66.7202 200.106 66.1378C200.484 65.5554 201.005 65.0961 201.668 64.7599C202.336 64.4238 203.096 64.2557 203.948 64.2557C204.791 64.2557 205.544 64.4238 206.206 64.7599C206.869 65.0961 207.39 65.5554 207.769 66.1378C208.153 66.7202 208.347 67.3807 208.351 68.1193C208.347 68.8911 208.136 69.58 207.719 70.1861C207.307 70.7874 206.76 71.178 206.079 71.358V71.4432C206.604 71.5379 207.078 71.7628 207.499 72.1179C207.921 72.4683 208.257 72.9062 208.508 73.4318C208.759 73.9527 208.886 74.5208 208.891 75.1364C208.886 75.9223 208.673 76.6231 208.252 77.2386C207.835 77.8494 207.255 78.33 206.512 78.6804C205.773 79.026 204.919 79.1989 203.948 79.1989ZM203.948 77.6364C204.606 77.6364 205.174 77.5298 205.653 77.3168C206.131 77.1037 206.5 76.803 206.76 76.4148C207.021 76.0265 207.153 75.572 207.158 75.0511C207.153 74.5019 207.011 74.0166 206.732 73.5952C206.453 73.1738 206.072 72.8423 205.589 72.6009C205.11 72.3594 204.564 72.2386 203.948 72.2386C203.328 72.2386 202.774 72.3594 202.286 72.6009C201.803 72.8423 201.422 73.1738 201.143 73.5952C200.868 74.0166 200.733 74.5019 200.738 75.0511C200.733 75.572 200.858 76.0265 201.114 76.4148C201.375 76.803 201.746 77.1037 202.229 77.3168C202.712 77.5298 203.285 77.6364 203.948 77.6364ZM203.948 70.733C204.469 70.733 204.93 70.6288 205.333 70.4205C205.74 70.2121 206.06 69.9209 206.292 69.5469C206.524 69.1728 206.642 68.7348 206.647 68.233C206.642 67.7405 206.526 67.312 206.299 66.9474C206.072 66.5781 205.757 66.294 205.354 66.0952C204.952 65.8916 204.483 65.7898 203.948 65.7898C203.403 65.7898 202.928 65.8916 202.52 66.0952C202.113 66.294 201.798 66.5781 201.576 66.9474C201.353 67.312 201.244 67.7405 201.249 68.233C201.244 68.7348 201.356 69.1728 201.583 69.5469C201.815 69.9209 202.135 70.2121 202.542 70.4205C202.949 70.6288 203.418 70.733 203.948 70.733ZM216.357 79.1989C215.287 79.1989 214.376 78.9077 213.623 78.3253C212.87 77.7382 212.295 76.8883 211.897 75.7756C211.499 74.6581 211.301 73.3087 211.301 71.7273C211.301 70.1553 211.499 68.813 211.897 67.7003C212.3 66.5829 212.877 65.7306 213.63 65.1435C214.388 64.5516 215.297 64.2557 216.357 64.2557C217.418 64.2557 218.325 64.5516 219.078 65.1435C219.835 65.7306 220.413 66.5829 220.811 67.7003C221.213 68.813 221.414 70.1553 221.414 71.7273C221.414 73.3087 221.215 74.6581 220.818 75.7756C220.42 76.8883 219.845 77.7382 219.092 78.3253C218.339 78.9077 217.427 79.1989 216.357 79.1989ZM216.357 77.6364C217.418 77.6364 218.242 77.125 218.829 76.1023C219.416 75.0795 219.71 73.6212 219.71 71.7273C219.71 70.4678 219.575 69.3954 219.305 68.5099C219.04 67.6245 218.656 66.9498 218.154 66.4858C217.657 66.0218 217.058 65.7898 216.357 65.7898C215.306 65.7898 214.485 66.3082 213.893 67.3452C213.301 68.3774 213.005 69.8381 213.005 71.7273C213.005 72.9867 213.138 74.0568 213.403 74.9375C213.668 75.8182 214.049 76.4882 214.546 76.9474C215.048 77.4067 215.652 77.6364 216.357 77.6364ZM228.857 79.1989C227.787 79.1989 226.876 78.9077 226.123 78.3253C225.37 77.7382 224.795 76.8883 224.397 75.7756C223.999 74.6581 223.801 73.3087 223.801 71.7273C223.801 70.1553 223.999 68.813 224.397 67.7003C224.8 66.5829 225.377 65.7306 226.13 65.1435C226.888 64.5516 227.797 64.2557 228.857 64.2557C229.918 64.2557 230.825 64.5516 231.578 65.1435C232.335 65.7306 232.913 66.5829 233.311 67.7003C233.713 68.813 233.914 70.1553 233.914 71.7273C233.914 73.3087 233.715 74.6581 233.318 75.7756C232.92 76.8883 232.345 77.7382 231.592 78.3253C230.839 78.9077 229.927 79.1989 228.857 79.1989ZM228.857 77.6364C229.918 77.6364 230.742 77.125 231.329 76.1023C231.916 75.0795 232.21 73.6212 232.21 71.7273C232.21 70.4678 232.075 69.3954 231.805 68.5099C231.54 67.6245 231.156 66.9498 230.654 66.4858C230.157 66.0218 229.558 65.7898 228.857 65.7898C227.806 65.7898 226.985 66.3082 226.393 67.3452C225.801 68.3774 225.505 69.8381 225.505 71.7273C225.505 72.9867 225.638 74.0568 225.903 74.9375C226.168 75.8182 226.549 76.4882 227.046 76.9474C227.548 77.4067 228.152 77.6364 228.857 77.6364Z" fill="#C13652"/>
<path d="M280.207 79L286.712 66.1307V66.017H279.212V64.4545H288.531V66.1023L282.053 79H280.207ZM295.61 79.1989C294.54 79.1989 293.628 78.9077 292.875 78.3253C292.123 77.7382 291.547 76.8883 291.15 75.7756C290.752 74.6581 290.553 73.3087 290.553 71.7273C290.553 70.1553 290.752 68.813 291.15 67.7003C291.552 66.5829 292.13 65.7306 292.883 65.1435C293.64 64.5516 294.549 64.2557 295.61 64.2557C296.67 64.2557 297.577 64.5516 298.33 65.1435C299.088 65.7306 299.665 66.5829 300.063 67.7003C300.465 68.813 300.667 70.1553 300.667 71.7273C300.667 73.3087 300.468 74.6581 300.07 75.7756C299.672 76.8883 299.097 77.7382 298.344 78.3253C297.591 78.9077 296.68 79.1989 295.61 79.1989ZM295.61 77.6364C296.67 77.6364 297.494 77.125 298.081 76.1023C298.669 75.0795 298.962 73.6212 298.962 71.7273C298.962 70.4678 298.827 69.3954 298.557 68.5099C298.292 67.6245 297.909 66.9498 297.407 66.4858C296.91 66.0218 296.311 65.7898 295.61 65.7898C294.559 65.7898 293.737 66.3082 293.145 67.3452C292.554 68.3774 292.258 69.8381 292.258 71.7273C292.258 72.9867 292.39 74.0568 292.655 74.9375C292.92 75.8182 293.302 76.4882 293.799 76.9474C294.301 77.4067 294.904 77.6364 295.61 77.6364ZM308.11 79.1989C307.04 79.1989 306.128 78.9077 305.375 78.3253C304.623 77.7382 304.047 76.8883 303.65 75.7756C303.252 74.6581 303.053 73.3087 303.053 71.7273C303.053 70.1553 303.252 68.813 303.65 67.7003C304.052 66.5829 304.63 65.7306 305.383 65.1435C306.14 64.5516 307.049 64.2557 308.11 64.2557C309.17 64.2557 310.077 64.5516 310.83 65.1435C311.588 65.7306 312.165 66.5829 312.563 67.7003C312.965 68.813 313.167 70.1553 313.167 71.7273C313.167 73.3087 312.968 74.6581 312.57 75.7756C312.172 76.8883 311.597 77.7382 310.844 78.3253C310.091 78.9077 309.18 79.1989 308.11 79.1989ZM308.11 77.6364C309.17 77.6364 309.994 77.125 310.581 76.1023C311.169 75.0795 311.462 73.6212 311.462 71.7273C311.462 70.4678 311.327 69.3954 311.057 68.5099C310.792 67.6245 310.409 66.9498 309.907 66.4858C309.41 66.0218 308.811 65.7898 308.11 65.7898C307.059 65.7898 306.237 66.3082 305.645 67.3452C305.054 68.3774 304.758 69.8381 304.758 71.7273C304.758 72.9867 304.89 74.0568 305.155 74.9375C305.42 75.8182 305.802 76.4882 306.299 76.9474C306.801 77.4067 307.404 77.6364 308.11 77.6364Z" fill="#D93C5C"/>
<path d="M363.756 79.1989C363.16 79.1894 362.563 79.0758 361.966 78.858C361.37 78.6402 360.825 78.2732 360.333 77.7571C359.84 77.2363 359.445 76.5331 359.147 75.6477C358.848 74.7576 358.699 73.6402 358.699 72.2955C358.699 71.0076 358.82 69.8665 359.062 68.8722C359.303 67.8731 359.653 67.0327 360.113 66.3509C360.572 65.6643 361.126 65.1435 361.775 64.7884C362.428 64.4332 363.164 64.2557 363.983 64.2557C364.798 64.2557 365.522 64.419 366.157 64.7457C366.796 65.0677 367.317 65.5175 367.719 66.0952C368.122 66.6728 368.382 67.3381 368.5 68.0909H366.767C366.607 67.4375 366.294 66.8954 365.83 66.4645C365.366 66.0336 364.75 65.8182 363.983 65.8182C362.857 65.8182 361.969 66.3082 361.32 67.2884C360.676 68.2685 360.352 69.6439 360.347 71.4148H360.461C360.726 71.0123 361.041 70.669 361.405 70.3849C361.775 70.0961 362.182 69.8736 362.627 69.7173C363.072 69.5611 363.543 69.483 364.04 69.483C364.874 69.483 365.636 69.6913 366.327 70.108C367.018 70.5199 367.572 71.0904 367.989 71.8196C368.406 72.544 368.614 73.375 368.614 74.3125C368.614 75.2121 368.413 76.036 368.01 76.7841C367.608 77.5275 367.042 78.1193 366.313 78.5597C365.589 78.9953 364.736 79.2083 363.756 79.1989ZM363.756 77.6364C364.353 77.6364 364.888 77.4872 365.361 77.1889C365.839 76.8906 366.216 76.4905 366.491 75.9886C366.77 75.4867 366.91 74.928 366.91 74.3125C366.91 73.7112 366.775 73.1643 366.505 72.6719C366.24 72.1747 365.873 71.7794 365.404 71.4858C364.94 71.1922 364.41 71.0455 363.813 71.0455C363.363 71.0455 362.944 71.1354 362.556 71.3153C362.168 71.4905 361.827 71.732 361.533 72.0398C361.244 72.3475 361.017 72.7003 360.851 73.098C360.686 73.491 360.603 73.9053 360.603 74.3409C360.603 74.9186 360.738 75.4583 361.008 75.9602C361.282 76.4621 361.656 76.867 362.13 77.1747C362.608 77.4825 363.15 77.6364 363.756 77.6364ZM376.151 79.1989C375.081 79.1989 374.17 78.9077 373.417 78.3253C372.664 77.7382 372.089 76.8883 371.691 75.7756C371.293 74.6581 371.095 73.3087 371.095 71.7273C371.095 70.1553 371.293 68.813 371.691 67.7003C372.094 66.5829 372.671 65.7306 373.424 65.1435C374.182 64.5516 375.091 64.2557 376.151 64.2557C377.212 64.2557 378.119 64.5516 378.872 65.1435C379.629 65.7306 380.207 66.5829 380.604 67.7003C381.007 68.813 381.208 70.1553 381.208 71.7273C381.208 73.3087 381.009 74.6581 380.612 75.7756C380.214 76.8883 379.639 77.7382 378.886 78.3253C378.133 78.9077 377.221 79.1989 376.151 79.1989ZM376.151 77.6364C377.212 77.6364 378.036 77.125 378.623 76.1023C379.21 75.0795 379.504 73.6212 379.504 71.7273C379.504 70.4678 379.369 69.3954 379.099 68.5099C378.834 67.6245 378.45 66.9498 377.948 66.4858C377.451 66.0218 376.852 65.7898 376.151 65.7898C375.1 65.7898 374.279 66.3082 373.687 67.3452C373.095 68.3774 372.799 69.8381 372.799 71.7273C372.799 72.9867 372.932 74.0568 373.197 74.9375C373.462 75.8182 373.843 76.4882 374.34 76.9474C374.842 77.4067 375.446 77.6364 376.151 77.6364ZM388.651 79.1989C387.581 79.1989 386.67 78.9077 385.917 78.3253C385.164 77.7382 384.589 76.8883 384.191 75.7756C383.793 74.6581 383.595 73.3087 383.595 71.7273C383.595 70.1553 383.793 68.813 384.191 67.7003C384.594 66.5829 385.171 65.7306 385.924 65.1435C386.682 64.5516 387.591 64.2557 388.651 64.2557C389.712 64.2557 390.619 64.5516 391.372 65.1435C392.129 65.7306 392.707 66.5829 393.104 67.7003C393.507 68.813 393.708 70.1553 393.708 71.7273C393.708 73.3087 393.509 74.6581 393.112 75.7756C392.714 76.8883 392.139 77.7382 391.386 78.3253C390.633 78.9077 389.721 79.1989 388.651 79.1989ZM388.651 77.6364C389.712 77.6364 390.536 77.125 391.123 76.1023C391.71 75.0795 392.004 73.6212 392.004 71.7273C392.004 70.4678 391.869 69.3954 391.599 68.5099C391.334 67.6245 390.95 66.9498 390.448 66.4858C389.951 66.0218 389.352 65.7898 388.651 65.7898C387.6 65.7898 386.779 66.3082 386.187 67.3452C385.595 68.3774 385.299 69.8381 385.299 71.7273C385.299 72.9867 385.432 74.0568 385.697 74.9375C385.962 75.8182 386.343 76.4882 386.84 76.9474C387.342 77.4067 387.946 77.6364 388.651 77.6364Z" fill="#F14366"/>
<path d="M427.628 79.1989C426.795 79.1989 426.044 79.0331 425.377 78.7017C424.709 78.3703 424.174 77.9157 423.772 77.3381C423.369 76.7604 423.149 76.1023 423.111 75.3636H424.816C424.882 76.0218 425.18 76.5663 425.711 76.9972C426.246 77.4233 426.885 77.6364 427.628 77.6364C428.225 77.6364 428.755 77.4967 429.219 77.2173C429.688 76.938 430.055 76.5545 430.32 76.0668C430.59 75.5743 430.725 75.018 430.725 74.3977C430.725 73.7633 430.585 73.1974 430.306 72.7003C430.031 72.1984 429.652 71.803 429.169 71.5142C428.687 71.2254 428.135 71.0786 427.515 71.0739C427.07 71.0691 426.613 71.1378 426.144 71.2798C425.675 71.4171 425.289 71.5947 424.986 71.8125L423.339 71.6136L424.219 64.4545H431.776V66.017H425.696L425.185 70.3068H425.27C425.569 70.0701 425.943 69.8736 426.392 69.7173C426.842 69.5611 427.311 69.483 427.799 69.483C428.689 69.483 429.482 69.696 430.178 70.1222C430.879 70.5436 431.428 71.1212 431.826 71.8551C432.228 72.589 432.429 73.4271 432.429 74.3693C432.429 75.2973 432.221 76.1259 431.804 76.8551C431.392 77.5795 430.824 78.1525 430.1 78.5739C429.375 78.9905 428.552 79.1989 427.628 79.1989ZM439.995 79.1989C438.925 79.1989 438.014 78.9077 437.261 78.3253C436.508 77.7382 435.933 76.8883 435.535 75.7756C435.137 74.6581 434.938 73.3087 434.938 71.7273C434.938 70.1553 435.137 68.813 435.535 67.7003C435.937 66.5829 436.515 65.7306 437.268 65.1435C438.025 64.5516 438.935 64.2557 439.995 64.2557C441.056 64.2557 441.962 64.5516 442.715 65.1435C443.473 65.7306 444.051 66.5829 444.448 67.7003C444.851 68.813 445.052 70.1553 445.052 71.7273C445.052 73.3087 444.853 74.6581 444.455 75.7756C444.058 76.8883 443.482 77.7382 442.729 78.3253C441.977 78.9077 441.065 79.1989 439.995 79.1989ZM439.995 77.6364C441.056 77.6364 441.88 77.125 442.467 76.1023C443.054 75.0795 443.347 73.6212 443.347 71.7273C443.347 70.4678 443.212 69.3954 442.943 68.5099C442.677 67.6245 442.294 66.9498 441.792 66.4858C441.295 66.0218 440.696 65.7898 439.995 65.7898C438.944 65.7898 438.122 66.3082 437.531 67.3452C436.939 68.3774 436.643 69.8381 436.643 71.7273C436.643 72.9867 436.775 74.0568 437.041 74.9375C437.306 75.8182 437.687 76.4882 438.184 76.9474C438.686 77.4067 439.29 77.6364 439.995 77.6364ZM452.495 79.1989C451.425 79.1989 450.514 78.9077 449.761 78.3253C449.008 77.7382 448.433 76.8883 448.035 75.7756C447.637 74.6581 447.438 73.3087 447.438 71.7273C447.438 70.1553 447.637 68.813 448.035 67.7003C448.437 66.5829 449.015 65.7306 449.768 65.1435C450.525 64.5516 451.435 64.2557 452.495 64.2557C453.556 64.2557 454.462 64.5516 455.215 65.1435C455.973 65.7306 456.551 66.5829 456.948 67.7003C457.351 68.813 457.552 70.1553 457.552 71.7273C457.552 73.3087 457.353 74.6581 456.955 75.7756C456.558 76.8883 455.982 77.7382 455.229 78.3253C454.477 78.9077 453.565 79.1989 452.495 79.1989ZM452.495 77.6364C453.556 77.6364 454.38 77.125 454.967 76.1023C455.554 75.0795 455.847 73.6212 455.847 71.7273C455.847 70.4678 455.712 69.3954 455.443 68.5099C455.177 67.6245 454.794 66.9498 454.292 66.4858C453.795 66.0218 453.196 65.7898 452.495 65.7898C451.444 65.7898 450.622 66.3082 450.031 67.3452C449.439 68.3774 449.143 69.8381 449.143 71.7273C449.143 72.9867 449.275 74.0568 449.541 74.9375C449.806 75.8182 450.187 76.4882 450.684 76.9474C451.186 77.4067 451.79 77.6364 452.495 77.6364Z" fill="#F25575"/>
<path d="M486.41 76.017V74.5682L492.802 64.4545H493.853V66.6989H493.143L488.313 74.3409V74.4545H496.921V76.017H486.41ZM493.256 79V75.5767V74.902V64.4545H494.933V79H493.256ZM504.327 79.1989C503.257 79.1989 502.346 78.9077 501.593 78.3253C500.84 77.7382 500.265 76.8883 499.867 75.7756C499.469 74.6581 499.27 73.3087 499.27 71.7273C499.27 70.1553 499.469 68.813 499.867 67.7003C500.269 66.5829 500.847 65.7306 501.6 65.1435C502.357 64.5516 503.267 64.2557 504.327 64.2557C505.388 64.2557 506.294 64.5516 507.047 65.1435C507.805 65.7306 508.383 66.5829 508.78 67.7003C509.183 68.813 509.384 70.1553 509.384 71.7273C509.384 73.3087 509.185 74.6581 508.787 75.7756C508.39 76.8883 507.814 77.7382 507.062 78.3253C506.309 78.9077 505.397 79.1989 504.327 79.1989ZM504.327 77.6364C505.388 77.6364 506.212 77.125 506.799 76.1023C507.386 75.0795 507.679 73.6212 507.679 71.7273C507.679 70.4678 507.544 69.3954 507.275 68.5099C507.009 67.6245 506.626 66.9498 506.124 66.4858C505.627 66.0218 505.028 65.7898 504.327 65.7898C503.276 65.7898 502.455 66.3082 501.863 67.3452C501.271 68.3774 500.975 69.8381 500.975 71.7273C500.975 72.9867 501.107 74.0568 501.373 74.9375C501.638 75.8182 502.019 76.4882 502.516 76.9474C503.018 77.4067 503.622 77.6364 504.327 77.6364ZM516.827 79.1989C515.757 79.1989 514.846 78.9077 514.093 78.3253C513.34 77.7382 512.765 76.8883 512.367 75.7756C511.969 74.6581 511.77 73.3087 511.77 71.7273C511.77 70.1553 511.969 68.813 512.367 67.7003C512.769 66.5829 513.347 65.7306 514.1 65.1435C514.857 64.5516 515.767 64.2557 516.827 64.2557C517.888 64.2557 518.794 64.5516 519.547 65.1435C520.305 65.7306 520.883 66.5829 521.28 67.7003C521.683 68.813 521.884 70.1553 521.884 71.7273C521.884 73.3087 521.685 74.6581 521.287 75.7756C520.89 76.8883 520.314 77.7382 519.562 78.3253C518.809 78.9077 517.897 79.1989 516.827 79.1989ZM516.827 77.6364C517.888 77.6364 518.712 77.125 519.299 76.1023C519.886 75.0795 520.179 73.6212 520.179 71.7273C520.179 70.4678 520.044 69.3954 519.775 68.5099C519.509 67.6245 519.126 66.9498 518.624 66.4858C518.127 66.0218 517.528 65.7898 516.827 65.7898C515.776 65.7898 514.955 66.3082 514.363 67.3452C513.771 68.3774 513.475 69.8381 513.475 71.7273C513.475 72.9867 513.607 74.0568 513.873 74.9375C514.138 75.8182 514.519 76.4882 515.016 76.9474C515.518 77.4067 516.122 77.6364 516.827 77.6364Z" fill="#F46985"/>
<path d="M555.714 79.1989C554.777 79.1989 553.941 79.0379 553.207 78.7159C552.478 78.3939 551.898 77.9465 551.467 77.3736C551.041 76.7959 550.809 76.1259 550.771 75.3636H552.561C552.599 75.8324 552.76 76.2372 553.044 76.5781C553.328 76.9143 553.7 77.1747 554.159 77.3594C554.618 77.544 555.127 77.6364 555.686 77.6364C556.311 77.6364 556.865 77.5275 557.348 77.3097C557.831 77.0919 558.21 76.7888 558.484 76.4006C558.759 76.0123 558.896 75.5625 558.896 75.0511C558.896 74.5161 558.764 74.045 558.498 73.6378C558.233 73.2259 557.845 72.9039 557.334 72.6719C556.822 72.4399 556.197 72.3239 555.459 72.3239H554.294V70.7614H555.459C556.036 70.7614 556.543 70.6572 556.979 70.4489C557.419 70.2405 557.762 69.947 558.008 69.5682C558.259 69.1894 558.385 68.7443 558.385 68.233C558.385 67.7405 558.276 67.312 558.058 66.9474C557.84 66.5829 557.533 66.2988 557.135 66.0952C556.742 65.8916 556.278 65.7898 555.743 65.7898C555.241 65.7898 554.767 65.8821 554.322 66.0668C553.882 66.2467 553.522 66.5095 553.243 66.8551C552.963 67.196 552.812 67.608 552.788 68.0909H551.084C551.112 67.3286 551.342 66.661 551.773 66.0881C552.204 65.5104 552.767 65.0606 553.463 64.7386C554.164 64.4167 554.933 64.2557 555.771 64.2557C556.671 64.2557 557.443 64.438 558.087 64.8026C558.73 65.1624 559.225 65.6383 559.571 66.2301C559.917 66.822 560.089 67.4612 560.089 68.1477C560.089 68.9669 559.874 69.6652 559.443 70.2429C559.017 70.8205 558.437 71.2206 557.703 71.4432V71.5568C558.622 71.7083 559.339 72.099 559.855 72.7287C560.371 73.3537 560.629 74.1278 560.629 75.0511C560.629 75.8419 560.414 76.5521 559.983 77.1818C559.557 77.8068 558.974 78.2992 558.236 78.6591C557.497 79.0189 556.657 79.1989 555.714 79.1989ZM568.278 79.1989C567.208 79.1989 566.297 78.9077 565.544 78.3253C564.791 77.7382 564.216 76.8883 563.818 75.7756C563.42 74.6581 563.222 73.3087 563.222 71.7273C563.222 70.1553 563.42 68.813 563.818 67.7003C564.221 66.5829 564.798 65.7306 565.551 65.1435C566.309 64.5516 567.218 64.2557 568.278 64.2557C569.339 64.2557 570.246 64.5516 570.998 65.1435C571.756 65.7306 572.334 66.5829 572.731 67.7003C573.134 68.813 573.335 70.1553 573.335 71.7273C573.335 73.3087 573.136 74.6581 572.739 75.7756C572.341 76.8883 571.766 77.7382 571.013 78.3253C570.26 78.9077 569.348 79.1989 568.278 79.1989ZM568.278 77.6364C569.339 77.6364 570.163 77.125 570.75 76.1023C571.337 75.0795 571.631 73.6212 571.631 71.7273C571.631 70.4678 571.496 69.3954 571.226 68.5099C570.961 67.6245 570.577 66.9498 570.075 66.4858C569.578 66.0218 568.979 65.7898 568.278 65.7898C567.227 65.7898 566.406 66.3082 565.814 67.3452C565.222 68.3774 564.926 69.8381 564.926 71.7273C564.926 72.9867 565.059 74.0568 565.324 74.9375C565.589 75.8182 565.97 76.4882 566.467 76.9474C566.969 77.4067 567.573 77.6364 568.278 77.6364ZM580.778 79.1989C579.708 79.1989 578.797 78.9077 578.044 78.3253C577.291 77.7382 576.716 76.8883 576.318 75.7756C575.92 74.6581 575.722 73.3087 575.722 71.7273C575.722 70.1553 575.92 68.813 576.318 67.7003C576.721 66.5829 577.298 65.7306 578.051 65.1435C578.809 64.5516 579.718 64.2557 580.778 64.2557C581.839 64.2557 582.746 64.5516 583.498 65.1435C584.256 65.7306 584.834 66.5829 585.231 67.7003C585.634 68.813 585.835 70.1553 585.835 71.7273C585.835 73.3087 585.636 74.6581 585.239 75.7756C584.841 76.8883 584.266 77.7382 583.513 78.3253C582.76 78.9077 581.848 79.1989 580.778 79.1989ZM580.778 77.6364C581.839 77.6364 582.663 77.125 583.25 76.1023C583.837 75.0795 584.131 73.6212 584.131 71.7273C584.131 70.4678 583.996 69.3954 583.726 68.5099C583.461 67.6245 583.077 66.9498 582.575 66.4858C582.078 66.0218 581.479 65.7898 580.778 65.7898C579.727 65.7898 578.906 66.3082 578.314 67.3452C577.722 68.3774 577.426 69.8381 577.426 71.7273C577.426 72.9867 577.559 74.0568 577.824 74.9375C578.089 75.8182 578.47 76.4882 578.967 76.9474C579.469 77.4067 580.073 77.6364 580.778 77.6364Z" fill="#F57B94"/>
<path d="M295.031 181.414C295.812 182.195 297.078 182.195 297.86 181.414L310.587 168.686C311.368 167.905 311.368 166.639 310.587 165.858C309.806 165.077 308.54 165.077 307.759 165.858L296.445 177.172L285.132 165.858C284.351 165.077 283.084 165.077 282.303 165.858C281.522 166.639 281.522 167.905 282.303 168.686L295.031 181.414ZM294.445 116L294.445 180L298.445 180L298.445 116L294.445 116Z" fill="#9E9FA5"/>
<rect x="0.445312" y="212" width="97" height="56" rx="12" fill="#6C1E2E"/>
<rect x="113.445" y="212" width="97" height="56" rx="12" fill="#91283D"/>
<rect x="226.445" y="212" width="140" height="56" rx="12" fill="#F14366"/>
<path d="M275.023 247V232.455H280.108C281.122 232.455 281.957 232.63 282.615 232.98C283.274 233.326 283.764 233.792 284.086 234.379C284.408 234.962 284.569 235.608 284.569 236.318C284.569 236.943 284.457 237.459 284.235 237.866C284.017 238.274 283.728 238.596 283.368 238.832C283.013 239.069 282.627 239.244 282.211 239.358V239.5C282.656 239.528 283.103 239.685 283.553 239.969C284.003 240.253 284.379 240.66 284.682 241.19C284.985 241.721 285.137 242.369 285.137 243.136C285.137 243.866 284.971 244.521 284.64 245.104C284.308 245.686 283.785 246.148 283.07 246.489C282.355 246.83 281.425 247 280.279 247H275.023ZM276.784 245.438H280.279C281.429 245.438 282.246 245.215 282.729 244.77C283.217 244.32 283.461 243.776 283.461 243.136C283.461 242.644 283.335 242.189 283.084 241.773C282.833 241.351 282.476 241.015 282.012 240.764C281.548 240.509 280.998 240.381 280.364 240.381H276.784V245.438ZM276.784 238.847H280.051C280.582 238.847 281.06 238.742 281.486 238.534C281.917 238.326 282.258 238.032 282.509 237.653C282.765 237.275 282.892 236.83 282.892 236.318C282.892 235.679 282.67 235.137 282.225 234.692C281.78 234.242 281.074 234.017 280.108 234.017H276.784V238.847ZM291.014 247.256C290.323 247.256 289.695 247.125 289.132 246.865C288.568 246.6 288.121 246.219 287.789 245.722C287.458 245.22 287.292 244.614 287.292 243.903C287.292 243.278 287.415 242.772 287.662 242.384C287.908 241.991 288.237 241.683 288.649 241.46C289.061 241.238 289.515 241.072 290.012 240.963C290.514 240.849 291.019 240.759 291.525 240.693C292.188 240.608 292.725 240.544 293.137 240.501C293.554 240.454 293.857 240.376 294.047 240.267C294.241 240.158 294.338 239.969 294.338 239.699V239.642C294.338 238.941 294.146 238.397 293.762 238.009C293.384 237.62 292.808 237.426 292.037 237.426C291.236 237.426 290.609 237.601 290.154 237.952C289.7 238.302 289.38 238.676 289.196 239.074L287.605 238.506C287.889 237.843 288.268 237.327 288.741 236.957C289.219 236.583 289.74 236.323 290.304 236.176C290.872 236.025 291.431 235.949 291.98 235.949C292.33 235.949 292.733 235.991 293.187 236.077C293.646 236.157 294.089 236.325 294.515 236.581C294.946 236.837 295.304 237.223 295.588 237.739C295.872 238.255 296.014 238.946 296.014 239.812V247H294.338V245.523H294.252C294.139 245.759 293.949 246.013 293.684 246.283C293.419 246.553 293.066 246.782 292.626 246.972C292.186 247.161 291.648 247.256 291.014 247.256ZM291.27 245.75C291.932 245.75 292.491 245.62 292.946 245.359C293.405 245.099 293.751 244.763 293.983 244.351C294.219 243.939 294.338 243.506 294.338 243.051V241.517C294.267 241.602 294.11 241.68 293.869 241.751C293.632 241.818 293.358 241.877 293.045 241.929C292.737 241.976 292.437 242.019 292.143 242.057C291.854 242.09 291.62 242.118 291.44 242.142C291.004 242.199 290.597 242.291 290.218 242.419C289.844 242.542 289.541 242.729 289.309 242.98C289.082 243.226 288.968 243.562 288.968 243.989C288.968 244.571 289.184 245.011 289.615 245.31C290.05 245.603 290.602 245.75 291.27 245.75ZM306.8 238.534L305.295 238.96C305.2 238.709 305.06 238.465 304.876 238.229C304.696 237.987 304.45 237.788 304.137 237.632C303.825 237.476 303.424 237.398 302.937 237.398C302.269 237.398 301.713 237.552 301.268 237.859C300.827 238.162 300.607 238.548 300.607 239.017C300.607 239.434 300.759 239.763 301.062 240.004C301.365 240.246 301.838 240.447 302.482 240.608L304.102 241.006C305.077 241.242 305.804 241.605 306.282 242.092C306.76 242.575 306.999 243.198 306.999 243.96C306.999 244.585 306.819 245.144 306.46 245.636C306.104 246.129 305.607 246.517 304.968 246.801C304.329 247.085 303.585 247.227 302.738 247.227C301.625 247.227 300.704 246.986 299.975 246.503C299.246 246.02 298.784 245.314 298.59 244.386L300.181 243.989C300.333 244.576 300.619 245.016 301.04 245.31C301.467 245.603 302.023 245.75 302.71 245.75C303.491 245.75 304.111 245.584 304.57 245.253C305.034 244.917 305.266 244.514 305.266 244.045C305.266 243.667 305.134 243.349 304.869 243.094C304.603 242.833 304.196 242.639 303.647 242.511L301.829 242.085C300.83 241.848 300.096 241.482 299.627 240.984C299.163 240.482 298.931 239.855 298.931 239.102C298.931 238.487 299.104 237.942 299.45 237.469C299.8 236.995 300.276 236.624 300.877 236.354C301.483 236.084 302.17 235.949 302.937 235.949C304.016 235.949 304.864 236.186 305.479 236.659C306.1 237.133 306.54 237.758 306.8 238.534ZM314.096 247.227C313.045 247.227 312.138 246.995 311.376 246.531C310.618 246.062 310.034 245.409 309.622 244.571C309.215 243.728 309.011 242.748 309.011 241.631C309.011 240.513 309.215 239.528 309.622 238.676C310.034 237.819 310.607 237.152 311.341 236.673C312.079 236.19 312.941 235.949 313.926 235.949C314.494 235.949 315.055 236.044 315.609 236.233C316.163 236.422 316.667 236.73 317.122 237.156C317.576 237.578 317.939 238.136 318.208 238.832C318.478 239.528 318.613 240.385 318.613 241.403V242.114H310.204V240.665H316.909C316.909 240.049 316.786 239.5 316.539 239.017C316.298 238.534 315.952 238.153 315.502 237.874C315.057 237.594 314.532 237.455 313.926 237.455C313.258 237.455 312.681 237.62 312.193 237.952C311.71 238.278 311.338 238.705 311.078 239.23C310.817 239.756 310.687 240.319 310.687 240.92V241.886C310.687 242.71 310.829 243.409 311.113 243.982C311.402 244.55 311.802 244.983 312.314 245.281C312.825 245.575 313.419 245.722 314.096 245.722C314.537 245.722 314.934 245.66 315.289 245.537C315.649 245.409 315.959 245.22 316.22 244.969C316.48 244.713 316.681 244.396 316.824 244.017L318.443 244.472C318.272 245.021 317.986 245.504 317.583 245.92C317.181 246.332 316.684 246.654 316.092 246.886C315.5 247.114 314.835 247.227 314.096 247.227Z" fill="#F5EEDD"/>
<rect x="382.445" y="212" width="97" height="56" rx="12" fill="#EB7685"/>
<rect x="495.445" y="212" width="97" height="56" rx="12" fill="#F598A3"/>
<path d="M48.9751 284.455V299H45.8998V287.374H45.8146L42.4836 289.462V286.734L46.0844 284.455H48.9751ZM58.1352 299.32C56.9136 299.315 55.8625 299.014 54.9818 298.418C54.1059 297.821 53.4312 296.957 52.9577 295.825C52.4889 294.694 52.2569 293.332 52.2616 291.741C52.2616 290.155 52.496 288.804 52.9648 287.686C53.4383 286.569 54.113 285.719 54.9889 285.136C55.8696 284.549 56.9184 284.256 58.1352 284.256C59.3521 284.256 60.3985 284.549 61.2744 285.136C62.1551 285.723 62.8322 286.576 63.3057 287.693C63.7792 288.806 64.0135 290.155 64.0088 291.741C64.0088 293.337 63.7721 294.701 63.2986 295.832C62.8298 296.964 62.1575 297.828 61.2815 298.425C60.4056 299.021 59.3568 299.32 58.1352 299.32ZM58.1352 296.77C58.9686 296.77 59.6338 296.351 60.131 295.513C60.6281 294.675 60.8743 293.418 60.8696 291.741C60.8696 290.638 60.756 289.72 60.5287 288.986C60.3062 288.252 59.9889 287.7 59.577 287.331C59.1698 286.962 58.6892 286.777 58.1352 286.777C57.3066 286.777 56.6437 287.191 56.1466 288.02C55.6494 288.848 55.3985 290.089 55.3937 291.741C55.3937 292.859 55.505 293.792 55.7276 294.54C55.9548 295.283 56.2744 295.842 56.6864 296.216C57.0983 296.585 57.5812 296.77 58.1352 296.77Z" fill="#6C1E2E"/>
<path d="M167.924 299.199C166.863 299.199 165.919 299.017 165.09 298.652C164.266 298.283 163.615 297.776 163.137 297.132C162.663 296.483 162.419 295.735 162.405 294.888H165.502C165.521 295.243 165.637 295.555 165.85 295.825C166.068 296.09 166.357 296.296 166.716 296.443C167.076 296.59 167.481 296.663 167.931 296.663C168.4 296.663 168.814 296.58 169.174 296.415C169.534 296.249 169.815 296.019 170.019 295.726C170.223 295.432 170.324 295.094 170.324 294.71C170.324 294.322 170.215 293.979 169.998 293.68C169.785 293.377 169.477 293.141 169.074 292.97C168.677 292.8 168.203 292.714 167.654 292.714H166.297V290.456H167.654C168.118 290.456 168.527 290.375 168.883 290.214C169.242 290.054 169.522 289.831 169.721 289.547C169.919 289.258 170.019 288.922 170.019 288.538C170.019 288.174 169.931 287.854 169.756 287.58C169.586 287.3 169.344 287.082 169.032 286.926C168.724 286.77 168.364 286.692 167.952 286.692C167.535 286.692 167.154 286.768 166.809 286.919C166.463 287.066 166.186 287.277 165.978 287.551C165.769 287.826 165.658 288.148 165.644 288.517H162.696C162.711 287.679 162.95 286.94 163.414 286.301C163.878 285.662 164.503 285.162 165.289 284.803C166.08 284.438 166.972 284.256 167.966 284.256C168.97 284.256 169.848 284.438 170.601 284.803C171.354 285.167 171.939 285.66 172.356 286.28C172.777 286.895 172.985 287.587 172.981 288.354C172.985 289.168 172.732 289.848 172.221 290.392C171.714 290.937 171.053 291.282 170.239 291.429V291.543C171.309 291.68 172.124 292.052 172.682 292.658C173.246 293.259 173.525 294.012 173.52 294.916C173.525 295.745 173.286 296.481 172.803 297.125C172.325 297.769 171.664 298.276 170.821 298.645C169.979 299.014 169.013 299.199 167.924 299.199ZM181.434 299.32C180.212 299.315 179.161 299.014 178.281 298.418C177.405 297.821 176.73 296.957 176.256 295.825C175.788 294.694 175.556 293.332 175.56 291.741C175.56 290.155 175.795 288.804 176.264 287.686C176.737 286.569 177.412 285.719 178.288 285.136C179.168 284.549 180.217 284.256 181.434 284.256C182.651 284.256 183.697 284.549 184.573 285.136C185.454 285.723 186.131 286.576 186.605 287.693C187.078 288.806 187.312 290.155 187.308 291.741C187.308 293.337 187.071 294.701 186.597 295.832C186.129 296.964 185.456 297.828 184.58 298.425C183.704 299.021 182.656 299.32 181.434 299.32ZM181.434 296.77C182.267 296.77 182.933 296.351 183.43 295.513C183.927 294.675 184.173 293.418 184.168 291.741C184.168 290.638 184.055 289.72 183.828 288.986C183.605 288.252 183.288 287.7 182.876 287.331C182.469 286.962 181.988 286.777 181.434 286.777C180.605 286.777 179.943 287.191 179.445 288.02C178.948 288.848 178.697 290.089 178.693 291.741C178.693 292.859 178.804 293.792 179.026 294.54C179.254 295.283 179.573 295.842 179.985 296.216C180.397 296.585 180.88 296.77 181.434 296.77Z" fill="#91283D"/>
<path d="M289.607 299.199C288.603 299.199 287.708 299.014 286.922 298.645C286.141 298.276 285.521 297.767 285.061 297.118C284.602 296.469 284.363 295.726 284.344 294.888H287.327C287.36 295.451 287.597 295.908 288.037 296.259C288.478 296.609 289.001 296.784 289.607 296.784C290.09 296.784 290.516 296.678 290.885 296.464C291.259 296.247 291.551 295.946 291.759 295.562C291.972 295.174 292.078 294.729 292.078 294.227C292.078 293.716 291.97 293.266 291.752 292.878C291.539 292.49 291.243 292.187 290.864 291.969C290.485 291.751 290.052 291.64 289.564 291.635C289.138 291.635 288.724 291.723 288.321 291.898C287.924 292.073 287.614 292.312 287.391 292.615L284.657 292.125L285.346 284.455H294.238V286.969H287.881L287.505 290.612H287.59C287.846 290.252 288.231 289.954 288.748 289.717C289.264 289.481 289.841 289.362 290.48 289.362C291.356 289.362 292.138 289.568 292.824 289.98C293.511 290.392 294.053 290.958 294.451 291.678C294.848 292.393 295.045 293.216 295.04 294.149C295.045 295.129 294.818 296 294.358 296.763C293.904 297.52 293.267 298.117 292.448 298.553C291.633 298.983 290.686 299.199 289.607 299.199ZM302.888 299.32C301.667 299.315 300.615 299.014 299.735 298.418C298.859 297.821 298.184 296.957 297.711 295.825C297.242 294.694 297.01 293.332 297.015 291.741C297.015 290.155 297.249 288.804 297.718 287.686C298.191 286.569 298.866 285.719 299.742 285.136C300.623 284.549 301.671 284.256 302.888 284.256C304.105 284.256 305.151 284.549 306.027 285.136C306.908 285.723 307.585 286.576 308.059 287.693C308.532 288.806 308.766 290.155 308.762 291.741C308.762 293.337 308.525 294.701 308.052 295.832C307.583 296.964 306.91 297.828 306.034 298.425C305.159 299.021 304.11 299.32 302.888 299.32ZM302.888 296.77C303.721 296.77 304.387 296.351 304.884 295.513C305.381 294.675 305.627 293.418 305.623 291.741C305.623 290.638 305.509 289.72 305.282 288.986C305.059 288.252 304.742 287.7 304.33 287.331C303.923 286.962 303.442 286.777 302.888 286.777C302.06 286.777 301.397 287.191 300.9 288.02C300.402 288.848 300.151 290.089 300.147 291.741C300.147 292.859 300.258 293.792 300.48 294.54C300.708 295.283 301.027 295.842 301.439 296.216C301.851 296.585 302.334 296.77 302.888 296.77Z" fill="#F14366"/>
<path d="M407.124 299L413.153 287.068V286.969H406.129V284.455H416.335V287.004L410.298 299H407.124ZM423.833 299.32C422.612 299.315 421.561 299.014 420.68 298.418C419.804 297.821 419.129 296.957 418.656 295.825C418.187 294.694 417.955 293.332 417.96 291.741C417.96 290.155 418.194 288.804 418.663 287.686C419.136 286.569 419.811 285.719 420.687 285.136C421.568 284.549 422.617 284.256 423.833 284.256C425.05 284.256 426.097 284.549 426.973 285.136C427.853 285.723 428.53 286.576 429.004 287.693C429.477 288.806 429.712 290.155 429.707 291.741C429.707 293.337 429.47 294.701 428.997 295.832C428.528 296.964 427.856 297.828 426.98 298.425C426.104 299.021 425.055 299.32 423.833 299.32ZM423.833 296.77C424.667 296.77 425.332 296.351 425.829 295.513C426.326 294.675 426.573 293.418 426.568 291.741C426.568 290.638 426.454 289.72 426.227 288.986C426.004 288.252 425.687 287.7 425.275 287.331C424.868 286.962 424.387 286.777 423.833 286.777C423.005 286.777 422.342 287.191 421.845 288.02C421.348 288.848 421.097 290.089 421.092 291.741C421.092 292.859 421.203 293.792 421.426 294.54C421.653 295.283 421.973 295.842 422.385 296.216C422.797 296.585 423.279 296.77 423.833 296.77Z" fill="#EB7685"/>
<path d="M532.601 284.256C533.349 284.256 534.069 284.381 534.76 284.632C535.456 284.883 536.077 285.283 536.621 285.832C537.17 286.382 537.603 287.111 537.921 288.02C538.243 288.924 538.406 290.035 538.411 291.351C538.411 292.587 538.271 293.69 537.992 294.661C537.717 295.626 537.322 296.448 536.806 297.125C536.29 297.802 535.667 298.318 534.938 298.673C534.209 299.024 533.394 299.199 532.495 299.199C531.524 299.199 530.667 299.012 529.924 298.638C529.18 298.259 528.581 297.745 528.127 297.097C527.677 296.443 527.405 295.709 527.31 294.895H530.343C530.461 295.425 530.71 295.837 531.088 296.131C531.467 296.42 531.936 296.564 532.495 296.564C533.442 296.564 534.161 296.152 534.654 295.328C535.146 294.5 535.395 293.366 535.399 291.926H535.3C535.082 292.352 534.789 292.719 534.419 293.027C534.05 293.33 533.626 293.564 533.148 293.73C532.675 293.896 532.17 293.979 531.635 293.979C530.778 293.979 530.014 293.777 529.341 293.375C528.669 292.973 528.139 292.419 527.75 291.713C527.362 291.008 527.168 290.203 527.168 289.298C527.163 288.323 527.388 287.454 527.843 286.692C528.297 285.929 528.932 285.333 529.746 284.902C530.565 284.466 531.517 284.251 532.601 284.256ZM532.622 286.67C532.144 286.67 531.718 286.784 531.344 287.011C530.975 287.239 530.681 287.544 530.463 287.928C530.25 288.311 530.146 288.74 530.151 289.213C530.151 289.691 530.255 290.122 530.463 290.506C530.676 290.884 530.965 291.187 531.33 291.415C531.699 291.637 532.121 291.749 532.594 291.749C532.949 291.749 533.278 291.682 533.581 291.55C533.884 291.417 534.147 291.235 534.37 291.003C534.597 290.766 534.774 290.494 534.902 290.186C535.03 289.878 535.094 289.552 535.094 289.206C535.089 288.747 534.98 288.325 534.767 287.942C534.554 287.558 534.261 287.25 533.887 287.018C533.513 286.786 533.091 286.67 532.622 286.67ZM546.245 299.32C545.023 299.315 543.972 299.014 543.091 298.418C542.215 297.821 541.541 296.957 541.067 295.825C540.598 294.694 540.366 293.332 540.371 291.741C540.371 290.155 540.605 288.804 541.074 287.686C541.548 286.569 542.222 285.719 543.098 285.136C543.979 284.549 545.028 284.256 546.245 284.256C547.461 284.256 548.508 284.549 549.384 285.136C550.264 285.723 550.942 286.576 551.415 287.693C551.889 288.806 552.123 290.155 552.118 291.741C552.118 293.337 551.881 294.701 551.408 295.832C550.939 296.964 550.267 297.828 549.391 298.425C548.515 299.021 547.466 299.32 546.245 299.32ZM546.245 296.77C547.078 296.77 547.743 296.351 548.24 295.513C548.737 294.675 548.984 293.418 548.979 291.741C548.979 290.638 548.865 289.72 548.638 288.986C548.416 288.252 548.098 287.7 547.686 287.331C547.279 286.962 546.799 286.777 546.245 286.777C545.416 286.777 544.753 287.191 544.256 288.02C543.759 288.848 543.508 290.089 543.503 291.741C543.503 292.859 543.614 293.792 543.837 294.54C544.064 295.283 544.384 295.842 544.796 296.216C545.208 296.585 545.691 296.77 546.245 296.77Z" fill="#F598A3"/>
</svg>
