<svg width="595" height="305" viewBox="0 0 595 305" fill="none" xmlns="http://www.w3.org/2000/svg">
<rect x="1.71387" y="0.322021" width="48" height="48" rx="16" fill="#087A4D"/>
<rect x="65.7139" y="0.322021" width="48" height="48" rx="16" fill="#0A8E5A"/>
<rect x="129.714" y="0.322021" width="48" height="48" rx="16" fill="#0BA267"/>
<rect x="193.714" y="0.322021" width="48" height="48" rx="16" fill="#0DB774"/>
<rect x="257.714" y="0.322021" width="80" height="48" rx="16" fill="#0ECB81"/>
<path d="M276.291 31.322V16.7766H281.376C282.389 16.7766 283.225 16.9518 283.883 17.3021C284.541 17.6478 285.031 18.1142 285.353 18.7013C285.675 19.2837 285.836 19.93 285.836 20.6402C285.836 21.2652 285.725 21.7813 285.502 22.1885C285.285 22.5957 284.996 22.9177 284.636 23.1544C284.281 23.3912 283.895 23.5663 283.478 23.68V23.822C283.923 23.8504 284.371 24.0067 284.82 24.2908C285.27 24.5749 285.647 24.9821 285.95 25.5124C286.253 26.0427 286.404 26.6913 286.404 27.4584C286.404 28.1876 286.239 28.8433 285.907 29.4257C285.576 30.0081 285.052 30.4697 284.338 30.8107C283.623 31.1516 282.692 31.322 281.546 31.322H276.291ZM278.052 29.7595H281.546C282.697 29.7595 283.514 29.537 283.997 29.0919C284.484 28.6421 284.728 28.0976 284.728 27.4584C284.728 26.966 284.603 26.5114 284.352 26.0947C284.101 25.6733 283.743 25.3372 283.279 25.0862C282.815 24.8305 282.266 24.7027 281.632 24.7027H278.052V29.7595ZM278.052 23.1686H281.319C281.849 23.1686 282.328 23.0644 282.754 22.8561C283.185 22.6478 283.526 22.3542 283.776 21.9754C284.032 21.5966 284.16 21.1516 284.16 20.6402C284.16 20.001 283.937 19.4589 283.492 19.0138C283.047 18.564 282.342 18.3391 281.376 18.3391H278.052V23.1686ZM292.281 31.5777C291.59 31.5777 290.963 31.4475 290.399 31.1871C289.836 30.9219 289.388 30.5408 289.057 30.0436C288.726 29.5417 288.56 28.9357 288.56 28.2254C288.56 27.6004 288.683 27.0938 288.929 26.7055C289.175 26.3126 289.504 26.0048 289.916 25.7822C290.328 25.5597 290.783 25.394 291.28 25.2851C291.782 25.1715 292.286 25.0815 292.793 25.0152C293.456 24.93 293.993 24.8661 294.405 24.8234C294.822 24.7761 295.125 24.698 295.314 24.5891C295.508 24.4802 295.605 24.2908 295.605 24.0209V23.9641C295.605 23.2633 295.414 22.7188 295.03 22.3305C294.651 21.9423 294.076 21.7482 293.304 21.7482C292.504 21.7482 291.877 21.9233 291.422 22.2737C290.968 22.6241 290.648 22.9982 290.463 23.3959L288.872 22.8277C289.156 22.1648 289.535 21.6487 290.009 21.2794C290.487 20.9054 291.008 20.6449 291.571 20.4982C292.139 20.3466 292.698 20.2709 293.247 20.2709C293.598 20.2709 294 20.3135 294.455 20.3987C294.914 20.4792 295.357 20.6473 295.783 20.903C296.214 21.1587 296.571 21.5446 296.855 22.0607C297.139 22.5768 297.281 23.268 297.281 24.1345V31.322H295.605V29.8447H295.52C295.406 30.0815 295.217 30.3348 294.952 30.6047C294.687 30.8746 294.334 31.1042 293.894 31.2936C293.453 31.483 292.916 31.5777 292.281 31.5777ZM292.537 30.072C293.2 30.072 293.759 29.9418 294.213 29.6814C294.673 29.421 295.018 29.0848 295.25 28.6729C295.487 28.2609 295.605 27.8277 295.605 27.3732V25.8391C295.534 25.9243 295.378 26.0024 295.137 26.0734C294.9 26.1397 294.625 26.1989 294.313 26.251C294.005 26.2983 293.704 26.341 293.411 26.3788C293.122 26.412 292.887 26.4404 292.708 26.4641C292.272 26.5209 291.865 26.6132 291.486 26.7411C291.112 26.8642 290.809 27.0512 290.577 27.3021C290.35 27.5483 290.236 27.8845 290.236 28.3107C290.236 28.893 290.451 29.3334 290.882 29.6317C291.318 29.9252 291.869 30.072 292.537 30.072ZM308.068 22.8561L306.562 23.2822C306.468 23.0313 306.328 22.7875 306.143 22.5507C305.963 22.3092 305.717 22.1104 305.405 21.9541C305.092 21.7979 304.692 21.7197 304.204 21.7197C303.537 21.7197 302.98 21.8736 302.535 22.1814C302.095 22.4844 301.875 22.8703 301.875 23.3391C301.875 23.7557 302.026 24.0848 302.329 24.3263C302.632 24.5678 303.106 24.769 303.75 24.93L305.369 25.3277C306.345 25.5644 307.071 25.9267 307.55 26.4144C308.028 26.8973 308.267 27.5199 308.267 28.2822C308.267 28.9072 308.087 29.466 307.727 29.9584C307.372 30.4508 306.875 30.8391 306.236 31.1232C305.596 31.4072 304.853 31.5493 304.006 31.5493C302.893 31.5493 301.972 31.3078 301.243 30.8249C300.514 30.3419 300.052 29.6364 299.858 28.7084L301.449 28.3107C301.6 28.8978 301.887 29.3381 302.308 29.6317C302.734 29.9252 303.291 30.072 303.977 30.072C304.758 30.072 305.379 29.9063 305.838 29.5749C306.302 29.2387 306.534 28.8362 306.534 28.3675C306.534 27.9887 306.401 27.6715 306.136 27.4158C305.871 27.1554 305.464 26.9612 304.915 26.8334L303.096 26.4072C302.097 26.1705 301.363 25.8036 300.895 25.3064C300.431 24.8045 300.199 24.1771 300.199 23.4243C300.199 22.8088 300.372 22.2643 300.717 21.7908C301.068 21.3173 301.543 20.9456 302.145 20.6757C302.751 20.4058 303.437 20.2709 304.204 20.2709C305.284 20.2709 306.131 20.5076 306.747 20.9811C307.367 21.4546 307.808 22.0796 308.068 22.8561ZM315.364 31.5493C314.313 31.5493 313.406 31.3173 312.644 30.8533C311.886 30.3845 311.301 29.7311 310.889 28.893C310.482 28.0502 310.279 27.0701 310.279 25.9527C310.279 24.8353 310.482 23.8504 310.889 22.9982C311.301 22.1412 311.874 21.4735 312.608 20.9953C313.347 20.5124 314.209 20.2709 315.193 20.2709C315.762 20.2709 316.323 20.3656 316.877 20.555C317.431 20.7444 317.935 21.0521 318.389 21.4783C318.844 21.8997 319.206 22.4584 319.476 23.1544C319.746 23.8504 319.881 24.7074 319.881 25.7254V26.4357H311.472V24.9868H318.176C318.176 24.3713 318.053 23.822 317.807 23.3391C317.566 22.8561 317.22 22.475 316.77 22.1956C316.325 21.9162 315.799 21.7766 315.193 21.7766C314.526 21.7766 313.948 21.9423 313.46 22.2737C312.977 22.6004 312.606 23.0266 312.345 23.5521C312.085 24.0777 311.955 24.6412 311.955 25.2425V26.2084C311.955 27.0322 312.097 27.7306 312.381 28.3036C312.67 28.8717 313.07 29.305 313.581 29.6033C314.093 29.8968 314.687 30.0436 315.364 30.0436C315.804 30.0436 316.202 29.9821 316.557 29.859C316.917 29.7311 317.227 29.5417 317.487 29.2908C317.748 29.0351 317.949 28.7179 318.091 28.3391L319.71 28.7936C319.54 29.3429 319.253 29.8258 318.851 30.2425C318.449 30.6544 317.951 30.9764 317.36 31.2084C316.768 31.4357 316.102 31.5493 315.364 31.5493Z" fill="#F5EEDD"/>
<rect x="353.714" y="0.322021" width="48" height="48" rx="16" fill="#26D08D"/>
<rect x="417.714" y="0.322021" width="48" height="48" rx="16" fill="#3ED59A"/>
<rect x="481.714" y="0.322021" width="48" height="48" rx="16" fill="#56DBA7"/>
<rect x="545.714" y="0.322021" width="48" height="48" rx="16" fill="#7EFFCF"/>
<path d="M8.93475 60.7766V75.322H7.17338V62.6232H7.08816L3.53702 64.9811V63.1913L7.17338 60.7766H8.93475ZM17.8623 75.5209C16.7922 75.5209 15.8808 75.2297 15.1279 74.6473C14.3751 74.0602 13.7998 73.2103 13.4021 72.0976C13.0044 70.9802 12.8055 69.6307 12.8055 68.0493C12.8055 66.4773 13.0044 65.135 13.4021 64.0223C13.8045 62.9049 14.3822 62.0526 15.135 61.4655C15.8926 60.8736 16.8017 60.5777 17.8623 60.5777C18.9229 60.5777 19.8296 60.8736 20.5825 61.4655C21.3401 62.0526 21.9177 62.9049 22.3154 64.0223C22.7179 65.135 22.9191 66.4773 22.9191 68.0493C22.9191 69.6307 22.7203 70.9802 22.3225 72.0976C21.9248 73.2103 21.3495 74.0602 20.5967 74.6473C19.8438 75.2297 18.9324 75.5209 17.8623 75.5209ZM17.8623 73.9584C18.9229 73.9584 19.7468 73.447 20.3339 72.4243C20.921 71.4016 21.2146 69.9432 21.2146 68.0493C21.2146 66.7898 21.0796 65.7174 20.8097 64.832C20.5446 63.9465 20.1611 63.2718 19.6592 62.8078C19.162 62.3438 18.5631 62.1118 17.8623 62.1118C16.8112 62.1118 15.9897 62.6303 15.3978 63.6672C14.806 64.6994 14.51 66.1601 14.51 68.0493C14.51 69.3088 14.6426 70.3788 14.9078 71.2595C15.1729 72.1402 15.5541 72.8102 16.0512 73.2695C16.5531 73.7287 17.1568 73.9584 17.8623 73.9584ZM30.3623 75.5209C29.2922 75.5209 28.3808 75.2297 27.6279 74.6473C26.8751 74.0602 26.2998 73.2103 25.9021 72.0976C25.5044 70.9802 25.3055 69.6307 25.3055 68.0493C25.3055 66.4773 25.5044 65.135 25.9021 64.0223C26.3045 62.9049 26.8822 62.0526 27.635 61.4655C28.3926 60.8736 29.3017 60.5777 30.3623 60.5777C31.4229 60.5777 32.3296 60.8736 33.0825 61.4655C33.8401 62.0526 34.4177 62.9049 34.8154 64.0223C35.2179 65.135 35.4191 66.4773 35.4191 68.0493C35.4191 69.6307 35.2203 70.9802 34.8225 72.0976C34.4248 73.2103 33.8495 74.0602 33.0967 74.6473C32.3438 75.2297 31.4324 75.5209 30.3623 75.5209ZM30.3623 73.9584C31.4229 73.9584 32.2468 73.447 32.8339 72.4243C33.421 71.4016 33.7146 69.9432 33.7146 68.0493C33.7146 66.7898 33.5796 65.7174 33.3097 64.832C33.0446 63.9465 32.6611 63.2718 32.1592 62.8078C31.662 62.3438 31.0631 62.1118 30.3623 62.1118C29.3112 62.1118 28.4897 62.6303 27.8978 63.6672C27.306 64.6994 27.01 66.1601 27.01 68.0493C27.01 69.3088 27.1426 70.3788 27.4078 71.2595C27.6729 72.1402 28.0541 72.8102 28.5512 73.2695C29.0531 73.7287 29.6568 73.9584 30.3623 73.9584ZM42.8623 75.5209C41.7922 75.5209 40.8808 75.2297 40.1279 74.6473C39.3751 74.0602 38.7998 73.2103 38.4021 72.0976C38.0044 70.9802 37.8055 69.6307 37.8055 68.0493C37.8055 66.4773 38.0044 65.135 38.4021 64.0223C38.8045 62.9049 39.3822 62.0526 40.135 61.4655C40.8926 60.8736 41.8017 60.5777 42.8623 60.5777C43.9229 60.5777 44.8296 60.8736 45.5825 61.4655C46.3401 62.0526 46.9177 62.9049 47.3154 64.0223C47.7179 65.135 47.9191 66.4773 47.9191 68.0493C47.9191 69.6307 47.7203 70.9802 47.3225 72.0976C46.9248 73.2103 46.3495 74.0602 45.5967 74.6473C44.8438 75.2297 43.9324 75.5209 42.8623 75.5209ZM42.8623 73.9584C43.9229 73.9584 44.7468 73.447 45.3339 72.4243C45.921 71.4016 46.2146 69.9432 46.2146 68.0493C46.2146 66.7898 46.0796 65.7174 45.8097 64.832C45.5446 63.9465 45.1611 63.2718 44.6592 62.8078C44.162 62.3438 43.5631 62.1118 42.8623 62.1118C41.8112 62.1118 40.9897 62.6303 40.3978 63.6672C39.806 64.6994 39.51 66.1601 39.51 68.0493C39.51 69.3088 39.6426 70.3788 39.9078 71.2595C40.1729 72.1402 40.5541 72.8102 41.0512 73.2695C41.5531 73.7287 42.1568 73.9584 42.8623 73.9584Z" fill="#087A4D"/>
<path d="M77.11 60.5777C77.7066 60.5824 78.3032 60.6961 78.8998 60.9186C79.4964 61.1411 80.0409 61.5105 80.5333 62.0266C81.0257 62.5379 81.4211 63.2363 81.7194 64.1217C82.0177 65.0072 82.1668 66.1175 82.1668 67.4527C82.1668 68.7453 82.0437 69.8935 81.7975 70.8973C81.556 71.8964 81.2056 72.7392 80.7464 73.4257C80.2918 74.1123 79.7378 74.6331 79.0844 74.9882C78.4358 75.3433 77.7019 75.5209 76.8827 75.5209C76.0683 75.5209 75.3415 75.3599 74.7023 75.0379C74.0679 74.7112 73.547 74.259 73.1398 73.6814C72.7374 73.099 72.4793 72.4243 72.3657 71.6572H74.0986C74.2549 72.3249 74.565 72.8765 75.029 73.3121C75.4978 73.7429 76.1157 73.9584 76.8827 73.9584C78.0049 73.9584 78.8903 73.4683 79.539 72.4882C80.1924 71.5081 80.5191 70.1232 80.5191 68.3334H80.4055C80.1403 68.7311 79.8254 69.0744 79.4608 69.3632C79.0963 69.652 78.6914 69.8746 78.2464 70.0308C77.8013 70.1871 77.3278 70.2652 76.8259 70.2652C75.9926 70.2652 75.2279 70.0592 74.5319 69.6473C73.8406 69.2306 73.2866 68.6601 72.8699 67.9357C72.458 67.2065 72.252 66.3732 72.252 65.4357C72.252 64.5455 72.4509 63.7311 72.8486 62.9925C73.2511 62.2491 73.8145 61.6572 74.539 61.2169C75.2681 60.7766 76.1251 60.5635 77.11 60.5777ZM77.11 62.1402C76.5134 62.1402 75.976 62.2894 75.4978 62.5876C75.0243 62.8812 74.6479 63.2789 74.3685 63.7808C74.0939 64.278 73.9566 64.8296 73.9566 65.4357C73.9566 66.0417 74.0892 66.5933 74.3543 67.0905C74.6242 67.5829 74.9912 67.9759 75.4552 68.2695C75.9239 68.5583 76.4566 68.7027 77.0532 68.7027C77.503 68.7027 77.922 68.6151 78.3103 68.4399C78.6985 68.26 79.0371 68.0162 79.3259 67.7084C79.6195 67.3959 79.8491 67.0431 80.0148 66.6501C80.1805 66.2524 80.2634 65.8381 80.2634 65.4072C80.2634 64.8391 80.1261 64.3064 79.8515 63.8092C79.5816 63.3121 79.2075 62.9096 78.7293 62.6019C78.2558 62.2941 77.7161 62.1402 77.11 62.1402ZM89.7041 75.5209C88.634 75.5209 87.7226 75.2297 86.9697 74.6473C86.2169 74.0602 85.6416 73.2103 85.2439 72.0976C84.8461 70.9802 84.6473 69.6307 84.6473 68.0493C84.6473 66.4773 84.8461 65.135 85.2439 64.0223C85.6463 62.9049 86.224 62.0526 86.9768 61.4655C87.7344 60.8736 88.6435 60.5777 89.7041 60.5777C90.7647 60.5777 91.6714 60.8736 92.4243 61.4655C93.1818 62.0526 93.7595 62.9049 94.1572 64.0223C94.5597 65.135 94.7609 66.4773 94.7609 68.0493C94.7609 69.6307 94.5621 70.9802 94.1643 72.0976C93.7666 73.2103 93.1913 74.0602 92.4385 74.6473C91.6856 75.2297 90.7742 75.5209 89.7041 75.5209ZM89.7041 73.9584C90.7647 73.9584 91.5886 73.447 92.1757 72.4243C92.7628 71.4016 93.0564 69.9432 93.0564 68.0493C93.0564 66.7898 92.9214 65.7174 92.6515 64.832C92.3864 63.9465 92.0029 63.2718 91.501 62.8078C91.0038 62.3438 90.4049 62.1118 89.7041 62.1118C88.653 62.1118 87.8315 62.6303 87.2396 63.6672C86.6478 64.6994 86.3518 66.1601 86.3518 68.0493C86.3518 69.3088 86.4844 70.3788 86.7496 71.2595C87.0147 72.1402 87.3959 72.8102 87.893 73.2695C88.3949 73.7287 88.9986 73.9584 89.7041 73.9584ZM102.204 75.5209C101.134 75.5209 100.223 75.2297 99.4697 74.6473C98.7169 74.0602 98.1416 73.2103 97.7439 72.0976C97.3461 70.9802 97.1473 69.6307 97.1473 68.0493C97.1473 66.4773 97.3461 65.135 97.7439 64.0223C98.1463 62.9049 98.724 62.0526 99.4768 61.4655C100.234 60.8736 101.143 60.5777 102.204 60.5777C103.265 60.5777 104.171 60.8736 104.924 61.4655C105.682 62.0526 106.259 62.9049 106.657 64.0223C107.06 65.135 107.261 66.4773 107.261 68.0493C107.261 69.6307 107.062 70.9802 106.664 72.0976C106.267 73.2103 105.691 74.0602 104.938 74.6473C104.186 75.2297 103.274 75.5209 102.204 75.5209ZM102.204 73.9584C103.265 73.9584 104.089 73.447 104.676 72.4243C105.263 71.4016 105.556 69.9432 105.556 68.0493C105.556 66.7898 105.421 65.7174 105.152 64.832C104.886 63.9465 104.503 63.2718 104.001 62.8078C103.504 62.3438 102.905 62.1118 102.204 62.1118C101.153 62.1118 100.331 62.6303 99.7396 63.6672C99.1478 64.6994 98.8518 66.1601 98.8518 68.0493C98.8518 69.3088 98.9844 70.3788 99.2496 71.2595C99.5147 72.1402 99.8959 72.8102 100.393 73.2695C100.895 73.7287 101.499 73.9584 102.204 73.9584Z" fill="#0A8E5A"/>
<path d="M141.217 75.5209C140.241 75.5209 139.379 75.3481 138.631 75.0024C137.888 74.652 137.308 74.1715 136.891 73.5607C136.475 72.9451 136.269 72.2444 136.273 71.4584C136.269 70.8429 136.389 70.2747 136.636 69.7538C136.882 69.2283 137.218 68.7903 137.644 68.4399C138.075 68.0848 138.556 67.8599 139.086 67.7652V67.68C138.39 67.5001 137.836 67.1094 137.424 66.5081C137.012 65.902 136.808 65.2131 136.813 64.4413C136.808 63.7027 136.995 63.0422 137.374 62.4598C137.753 61.8774 138.274 61.4181 138.937 61.082C139.604 60.7458 140.364 60.5777 141.217 60.5777C142.059 60.5777 142.812 60.7458 143.475 61.082C144.138 61.4181 144.659 61.8774 145.038 62.4598C145.421 63.0422 145.615 63.7027 145.62 64.4413C145.615 65.2131 145.405 65.902 144.988 66.5081C144.576 67.1094 144.029 67.5001 143.347 67.68V67.7652C143.873 67.8599 144.346 68.0848 144.768 68.4399C145.189 68.7903 145.525 69.2283 145.776 69.7538C146.027 70.2747 146.155 70.8429 146.16 71.4584C146.155 72.2444 145.942 72.9451 145.521 73.5607C145.104 74.1715 144.524 74.652 143.78 75.0024C143.042 75.3481 142.187 75.5209 141.217 75.5209ZM141.217 73.9584C141.875 73.9584 142.443 73.8519 142.921 73.6388C143.399 73.4257 143.769 73.1251 144.029 72.7368C144.289 72.3485 144.422 71.894 144.427 71.3732C144.422 70.8239 144.28 70.3386 144.001 69.9172C143.721 69.4958 143.34 69.1644 142.857 68.9229C142.379 68.6814 141.832 68.5607 141.217 68.5607C140.596 68.5607 140.042 68.6814 139.555 68.9229C139.072 69.1644 138.69 69.4958 138.411 69.9172C138.137 70.3386 138.002 70.8239 138.006 71.3732C138.002 71.894 138.127 72.3485 138.383 72.7368C138.643 73.1251 139.015 73.4257 139.498 73.6388C139.981 73.8519 140.554 73.9584 141.217 73.9584ZM141.217 67.055C141.737 67.055 142.199 66.9508 142.601 66.7425C143.009 66.5341 143.328 66.2429 143.56 65.8689C143.792 65.4948 143.911 65.0569 143.915 64.555C143.911 64.0626 143.795 63.634 143.567 63.2695C143.34 62.9001 143.025 62.6161 142.623 62.4172C142.22 62.2136 141.752 62.1118 141.217 62.1118C140.672 62.1118 140.196 62.2136 139.789 62.4172C139.382 62.6161 139.067 62.9001 138.844 63.2695C138.622 63.634 138.513 64.0626 138.518 64.555C138.513 65.0569 138.624 65.4948 138.851 65.8689C139.083 66.2429 139.403 66.5341 139.81 66.7425C140.217 66.9508 140.686 67.055 141.217 67.055ZM153.626 75.5209C152.556 75.5209 151.644 75.2297 150.892 74.6473C150.139 74.0602 149.563 73.2103 149.166 72.0976C148.768 70.9802 148.569 69.6307 148.569 68.0493C148.569 66.4773 148.768 65.135 149.166 64.0223C149.568 62.9049 150.146 62.0526 150.899 61.4655C151.656 60.8736 152.565 60.5777 153.626 60.5777C154.687 60.5777 155.593 60.8736 156.346 61.4655C157.104 62.0526 157.681 62.9049 158.079 64.0223C158.482 65.135 158.683 66.4773 158.683 68.0493C158.683 69.6307 158.484 70.9802 158.086 72.0976C157.688 73.2103 157.113 74.0602 156.36 74.6473C155.608 75.2297 154.696 75.5209 153.626 75.5209ZM153.626 73.9584C154.687 73.9584 155.51 73.447 156.098 72.4243C156.685 71.4016 156.978 69.9432 156.978 68.0493C156.978 66.7898 156.843 65.7174 156.573 64.832C156.308 63.9465 155.925 63.2718 155.423 62.8078C154.926 62.3438 154.327 62.1118 153.626 62.1118C152.575 62.1118 151.753 62.6303 151.161 63.6672C150.57 64.6994 150.274 66.1601 150.274 68.0493C150.274 69.3088 150.406 70.3788 150.671 71.2595C150.937 72.1402 151.318 72.8102 151.815 73.2695C152.317 73.7287 152.92 73.9584 153.626 73.9584ZM166.126 75.5209C165.056 75.5209 164.144 75.2297 163.392 74.6473C162.639 74.0602 162.063 73.2103 161.666 72.0976C161.268 70.9802 161.069 69.6307 161.069 68.0493C161.069 66.4773 161.268 65.135 161.666 64.0223C162.068 62.9049 162.646 62.0526 163.399 61.4655C164.156 60.8736 165.065 60.5777 166.126 60.5777C167.187 60.5777 168.093 60.8736 168.846 61.4655C169.604 62.0526 170.181 62.9049 170.579 64.0223C170.982 65.135 171.183 66.4773 171.183 68.0493C171.183 69.6307 170.984 70.9802 170.586 72.0976C170.188 73.2103 169.613 74.0602 168.86 74.6473C168.108 75.2297 167.196 75.5209 166.126 75.5209ZM166.126 73.9584C167.187 73.9584 168.01 73.447 168.598 72.4243C169.185 71.4016 169.478 69.9432 169.478 68.0493C169.478 66.7898 169.343 65.7174 169.073 64.832C168.808 63.9465 168.425 63.2718 167.923 62.8078C167.426 62.3438 166.827 62.1118 166.126 62.1118C165.075 62.1118 164.253 62.6303 163.661 63.6672C163.07 64.6994 162.774 66.1601 162.774 68.0493C162.774 69.3088 162.906 70.3788 163.171 71.2595C163.437 72.1402 163.818 72.8102 164.315 73.2695C164.817 73.7287 165.42 73.9584 166.126 73.9584Z" fill="#0BA267"/>
<path d="M201.617 75.322L208.123 62.4527V62.3391H200.623V60.7766H209.941V62.4243L203.464 75.322H201.617ZM217.021 75.5209C215.95 75.5209 215.039 75.2297 214.286 74.6473C213.533 74.0602 212.958 73.2103 212.56 72.0976C212.163 70.9802 211.964 69.6307 211.964 68.0493C211.964 66.4773 212.163 65.135 212.56 64.0223C212.963 62.9049 213.54 62.0526 214.293 61.4655C215.051 60.8736 215.96 60.5777 217.021 60.5777C218.081 60.5777 218.988 60.8736 219.741 61.4655C220.498 62.0526 221.076 62.9049 221.474 64.0223C221.876 65.135 222.077 66.4773 222.077 68.0493C222.077 69.6307 221.878 70.9802 221.481 72.0976C221.083 73.2103 220.508 74.0602 219.755 74.6473C219.002 75.2297 218.091 75.5209 217.021 75.5209ZM217.021 73.9584C218.081 73.9584 218.905 73.447 219.492 72.4243C220.079 71.4016 220.373 69.9432 220.373 68.0493C220.373 66.7898 220.238 65.7174 219.968 64.832C219.703 63.9465 219.319 63.2718 218.817 62.8078C218.32 62.3438 217.721 62.1118 217.021 62.1118C215.969 62.1118 215.148 62.6303 214.556 63.6672C213.964 64.6994 213.668 66.1601 213.668 68.0493C213.668 69.3088 213.801 70.3788 214.066 71.2595C214.331 72.1402 214.712 72.8102 215.209 73.2695C215.711 73.7287 216.315 73.9584 217.021 73.9584ZM229.521 75.5209C228.45 75.5209 227.539 75.2297 226.786 74.6473C226.033 74.0602 225.458 73.2103 225.06 72.0976C224.663 70.9802 224.464 69.6307 224.464 68.0493C224.464 66.4773 224.663 65.135 225.06 64.0223C225.463 62.9049 226.04 62.0526 226.793 61.4655C227.551 60.8736 228.46 60.5777 229.521 60.5777C230.581 60.5777 231.488 60.8736 232.241 61.4655C232.998 62.0526 233.576 62.9049 233.974 64.0223C234.376 65.135 234.577 66.4773 234.577 68.0493C234.577 69.6307 234.378 70.9802 233.981 72.0976C233.583 73.2103 233.008 74.0602 232.255 74.6473C231.502 75.2297 230.591 75.5209 229.521 75.5209ZM229.521 73.9584C230.581 73.9584 231.405 73.447 231.992 72.4243C232.579 71.4016 232.873 69.9432 232.873 68.0493C232.873 66.7898 232.738 65.7174 232.468 64.832C232.203 63.9465 231.819 63.2718 231.317 62.8078C230.82 62.3438 230.221 62.1118 229.521 62.1118C228.469 62.1118 227.648 62.6303 227.056 63.6672C226.464 64.6994 226.168 66.1601 226.168 68.0493C226.168 69.3088 226.301 70.3788 226.566 71.2595C226.831 72.1402 227.212 72.8102 227.709 73.2695C228.211 73.7287 228.815 73.9584 229.521 73.9584Z" fill="#0DB774"/>
<path d="M285.309 75.5209C284.712 75.5114 284.116 75.3978 283.519 75.18C282.922 74.9622 282.378 74.5952 281.886 74.0791C281.393 73.5583 280.998 72.8552 280.699 71.9697C280.401 71.0796 280.252 69.9622 280.252 68.6175C280.252 67.3296 280.373 66.1885 280.614 65.1942C280.856 64.1951 281.206 63.3547 281.665 62.6729C282.125 61.9863 282.679 61.4655 283.327 61.1104C283.981 60.7553 284.717 60.5777 285.536 60.5777C286.351 60.5777 287.075 60.7411 287.709 61.0678C288.349 61.3897 288.869 61.8395 289.272 62.4172C289.674 62.9948 289.935 63.6601 290.053 64.4129H288.32C288.159 63.7595 287.847 63.2174 287.383 62.7865C286.919 62.3556 286.303 62.1402 285.536 62.1402C284.409 62.1402 283.521 62.6303 282.873 63.6104C282.229 64.5905 281.905 65.966 281.9 67.7368H282.013C282.279 67.3343 282.593 66.9911 282.958 66.707C283.327 66.4181 283.735 66.1956 284.18 66.0394C284.625 65.8831 285.096 65.805 285.593 65.805C286.426 65.805 287.189 66.0133 287.88 66.43C288.571 66.8419 289.125 67.4125 289.542 68.1416C289.958 68.8661 290.167 69.697 290.167 70.6345C290.167 71.5341 289.966 72.358 289.563 73.1061C289.161 73.8495 288.595 74.4413 287.866 74.8817C287.141 75.3173 286.289 75.5304 285.309 75.5209ZM285.309 73.9584C285.905 73.9584 286.44 73.8092 286.914 73.5109C287.392 73.2126 287.769 72.8126 288.043 72.3107C288.323 71.8088 288.462 71.2501 288.462 70.6345C288.462 70.0332 288.327 69.4863 288.057 68.9939C287.792 68.4967 287.425 68.1014 286.957 67.8078C286.493 67.5143 285.962 67.3675 285.366 67.3675C284.916 67.3675 284.497 67.4574 284.109 67.6374C283.72 67.8126 283.379 68.054 283.086 68.3618C282.797 68.6696 282.57 69.0223 282.404 69.42C282.238 69.813 282.155 70.2273 282.155 70.6629C282.155 71.2406 282.29 71.7804 282.56 72.2822C282.835 72.7841 283.209 73.189 283.682 73.4967C284.161 73.8045 284.703 73.9584 285.309 73.9584ZM297.704 75.5209C296.634 75.5209 295.723 75.2297 294.97 74.6473C294.217 74.0602 293.642 73.2103 293.244 72.0976C292.846 70.9802 292.647 69.6307 292.647 68.0493C292.647 66.4773 292.846 65.135 293.244 64.0223C293.646 62.9049 294.224 62.0526 294.977 61.4655C295.734 60.8736 296.643 60.5777 297.704 60.5777C298.765 60.5777 299.671 60.8736 300.424 61.4655C301.182 62.0526 301.759 62.9049 302.157 64.0223C302.56 65.135 302.761 66.4773 302.761 68.0493C302.761 69.6307 302.562 70.9802 302.164 72.0976C301.767 73.2103 301.191 74.0602 300.438 74.6473C299.686 75.2297 298.774 75.5209 297.704 75.5209ZM297.704 73.9584C298.765 73.9584 299.589 73.447 300.176 72.4243C300.763 71.4016 301.056 69.9432 301.056 68.0493C301.056 66.7898 300.921 65.7174 300.652 64.832C300.386 63.9465 300.003 63.2718 299.501 62.8078C299.004 62.3438 298.405 62.1118 297.704 62.1118C296.653 62.1118 295.831 62.6303 295.24 63.6672C294.648 64.6994 294.352 66.1601 294.352 68.0493C294.352 69.3088 294.484 70.3788 294.75 71.2595C295.015 72.1402 295.396 72.8102 295.893 73.2695C296.395 73.7287 296.999 73.9584 297.704 73.9584ZM310.204 75.5209C309.134 75.5209 308.223 75.2297 307.47 74.6473C306.717 74.0602 306.142 73.2103 305.744 72.0976C305.346 70.9802 305.147 69.6307 305.147 68.0493C305.147 66.4773 305.346 65.135 305.744 64.0223C306.146 62.9049 306.724 62.0526 307.477 61.4655C308.234 60.8736 309.143 60.5777 310.204 60.5777C311.265 60.5777 312.171 60.8736 312.924 61.4655C313.682 62.0526 314.259 62.9049 314.657 64.0223C315.06 65.135 315.261 66.4773 315.261 68.0493C315.261 69.6307 315.062 70.9802 314.664 72.0976C314.267 73.2103 313.691 74.0602 312.938 74.6473C312.186 75.2297 311.274 75.5209 310.204 75.5209ZM310.204 73.9584C311.265 73.9584 312.089 73.447 312.676 72.4243C313.263 71.4016 313.556 69.9432 313.556 68.0493C313.556 66.7898 313.421 65.7174 313.152 64.832C312.886 63.9465 312.503 63.2718 312.001 62.8078C311.504 62.3438 310.905 62.1118 310.204 62.1118C309.153 62.1118 308.331 62.6303 307.74 63.6672C307.148 64.6994 306.852 66.1601 306.852 68.0493C306.852 69.3088 306.984 70.3788 307.25 71.2595C307.515 72.1402 307.896 72.8102 308.393 73.2695C308.895 73.7287 309.499 73.9584 310.204 73.9584Z" fill="#0ECB81"/>
<path d="M365.181 75.5209C364.348 75.5209 363.597 75.3552 362.93 75.0237C362.262 74.6923 361.727 74.2377 361.324 73.6601C360.922 73.0824 360.702 72.4243 360.664 71.6857H362.369C362.435 72.3438 362.733 72.8883 363.263 73.3192C363.798 73.7453 364.438 73.9584 365.181 73.9584C365.778 73.9584 366.308 73.8187 366.772 73.5394C367.241 73.26 367.608 72.8765 367.873 72.3888C368.143 71.8964 368.278 71.34 368.278 70.7197C368.278 70.0853 368.138 69.5195 367.859 69.0223C367.584 68.5204 367.205 68.1251 366.722 67.8362C366.239 67.5474 365.688 67.4006 365.067 67.3959C364.622 67.3912 364.165 67.4598 363.697 67.6019C363.228 67.7392 362.842 67.9167 362.539 68.1345L360.891 67.9357L361.772 60.7766H369.329V62.3391H363.249L362.738 66.6288H362.823C363.121 66.3921 363.495 66.1956 363.945 66.0394C364.395 65.8831 364.864 65.805 365.351 65.805C366.242 65.805 367.035 66.018 367.731 66.4442C368.431 66.8656 368.981 67.4432 369.378 68.1771C369.781 68.911 369.982 69.7491 369.982 70.6913C369.982 71.6194 369.774 72.448 369.357 73.1771C368.945 73.9016 368.377 74.4745 367.653 74.8959C366.928 75.3126 366.104 75.5209 365.181 75.5209ZM377.548 75.5209C376.478 75.5209 375.566 75.2297 374.813 74.6473C374.061 74.0602 373.485 73.2103 373.088 72.0976C372.69 70.9802 372.491 69.6307 372.491 68.0493C372.491 66.4773 372.69 65.135 373.088 64.0223C373.49 62.9049 374.068 62.0526 374.821 61.4655C375.578 60.8736 376.487 60.5777 377.548 60.5777C378.608 60.5777 379.515 60.8736 380.268 61.4655C381.026 62.0526 381.603 62.9049 382.001 64.0223C382.403 65.135 382.605 66.4773 382.605 68.0493C382.605 69.6307 382.406 70.9802 382.008 72.0976C381.61 73.2103 381.035 74.0602 380.282 74.6473C379.529 75.2297 378.618 75.5209 377.548 75.5209ZM377.548 73.9584C378.608 73.9584 379.432 73.447 380.019 72.4243C380.607 71.4016 380.9 69.9432 380.9 68.0493C380.9 66.7898 380.765 65.7174 380.495 64.832C380.23 63.9465 379.847 63.2718 379.345 62.8078C378.848 62.3438 378.249 62.1118 377.548 62.1118C376.497 62.1118 375.675 62.6303 375.083 63.6672C374.492 64.6994 374.196 66.1601 374.196 68.0493C374.196 69.3088 374.328 70.3788 374.593 71.2595C374.858 72.1402 375.24 72.8102 375.737 73.2695C376.239 73.7287 376.842 73.9584 377.548 73.9584ZM390.048 75.5209C388.978 75.5209 388.066 75.2297 387.313 74.6473C386.561 74.0602 385.985 73.2103 385.588 72.0976C385.19 70.9802 384.991 69.6307 384.991 68.0493C384.991 66.4773 385.19 65.135 385.588 64.0223C385.99 62.9049 386.568 62.0526 387.321 61.4655C388.078 60.8736 388.987 60.5777 390.048 60.5777C391.108 60.5777 392.015 60.8736 392.768 61.4655C393.526 62.0526 394.103 62.9049 394.501 64.0223C394.903 65.135 395.105 66.4773 395.105 68.0493C395.105 69.6307 394.906 70.9802 394.508 72.0976C394.11 73.2103 393.535 74.0602 392.782 74.6473C392.029 75.2297 391.118 75.5209 390.048 75.5209ZM390.048 73.9584C391.108 73.9584 391.932 73.447 392.519 72.4243C393.107 71.4016 393.4 69.9432 393.4 68.0493C393.4 66.7898 393.265 65.7174 392.995 64.832C392.73 63.9465 392.347 63.2718 391.845 62.8078C391.348 62.3438 390.749 62.1118 390.048 62.1118C388.997 62.1118 388.175 62.6303 387.583 63.6672C386.992 64.6994 386.696 66.1601 386.696 68.0493C386.696 69.3088 386.828 70.3788 387.093 71.2595C387.358 72.1402 387.74 72.8102 388.237 73.2695C388.739 73.7287 389.342 73.9584 390.048 73.9584Z" fill="#26D08D"/>
<path d="M423.963 72.3391V70.8902L430.355 60.7766H431.406V63.0209H430.696L425.866 70.6629V70.7766H434.474V72.3391H423.963ZM430.809 75.322V71.8987V71.224V60.7766H432.485V75.322H430.809ZM441.88 75.5209C440.81 75.5209 439.898 75.2297 439.146 74.6473C438.393 74.0602 437.817 73.2103 437.42 72.0976C437.022 70.9802 436.823 69.6307 436.823 68.0493C436.823 66.4773 437.022 65.135 437.42 64.0223C437.822 62.9049 438.4 62.0526 439.153 61.4655C439.91 60.8736 440.819 60.5777 441.88 60.5777C442.94 60.5777 443.847 60.8736 444.6 61.4655C445.358 62.0526 445.935 62.9049 446.333 64.0223C446.735 65.135 446.937 66.4773 446.937 68.0493C446.937 69.6307 446.738 70.9802 446.34 72.0976C445.942 73.2103 445.367 74.0602 444.614 74.6473C443.861 75.2297 442.95 75.5209 441.88 75.5209ZM441.88 73.9584C442.94 73.9584 443.764 73.447 444.351 72.4243C444.939 71.4016 445.232 69.9432 445.232 68.0493C445.232 66.7898 445.097 65.7174 444.827 64.832C444.562 63.9465 444.179 63.2718 443.677 62.8078C443.18 62.3438 442.581 62.1118 441.88 62.1118C440.829 62.1118 440.007 62.6303 439.415 63.6672C438.824 64.6994 438.528 66.1601 438.528 68.0493C438.528 69.3088 438.66 70.3788 438.925 71.2595C439.19 72.1402 439.572 72.8102 440.069 73.2695C440.571 73.7287 441.174 73.9584 441.88 73.9584ZM454.38 75.5209C453.31 75.5209 452.398 75.2297 451.646 74.6473C450.893 74.0602 450.317 73.2103 449.92 72.0976C449.522 70.9802 449.323 69.6307 449.323 68.0493C449.323 66.4773 449.522 65.135 449.92 64.0223C450.322 62.9049 450.9 62.0526 451.653 61.4655C452.41 60.8736 453.319 60.5777 454.38 60.5777C455.44 60.5777 456.347 60.8736 457.1 61.4655C457.858 62.0526 458.435 62.9049 458.833 64.0223C459.235 65.135 459.437 66.4773 459.437 68.0493C459.437 69.6307 459.238 70.9802 458.84 72.0976C458.442 73.2103 457.867 74.0602 457.114 74.6473C456.361 75.2297 455.45 75.5209 454.38 75.5209ZM454.38 73.9584C455.44 73.9584 456.264 73.447 456.851 72.4243C457.439 71.4016 457.732 69.9432 457.732 68.0493C457.732 66.7898 457.597 65.7174 457.327 64.832C457.062 63.9465 456.679 63.2718 456.177 62.8078C455.68 62.3438 455.081 62.1118 454.38 62.1118C453.329 62.1118 452.507 62.6303 451.915 63.6672C451.324 64.6994 451.028 66.1601 451.028 68.0493C451.028 69.3088 451.16 70.3788 451.425 71.2595C451.69 72.1402 452.072 72.8102 452.569 73.2695C453.071 73.7287 453.674 73.9584 454.38 73.9584Z" fill="#3ED59A"/>
<path d="M493.267 75.5209C492.33 75.5209 491.494 75.3599 490.76 75.0379C490.031 74.716 489.451 74.2685 489.02 73.6956C488.594 73.1179 488.362 72.448 488.324 71.6857H490.114C490.152 72.1544 490.313 72.5592 490.597 72.9001C490.881 73.2363 491.252 73.4967 491.712 73.6814C492.171 73.8661 492.68 73.9584 493.239 73.9584C493.864 73.9584 494.418 73.8495 494.901 73.6317C495.384 73.4139 495.762 73.1108 496.037 72.7226C496.312 72.3343 496.449 71.8845 496.449 71.3732C496.449 70.8381 496.316 70.367 496.051 69.9598C495.786 69.5479 495.398 69.2259 494.886 68.9939C494.375 68.7619 493.75 68.6459 493.011 68.6459H491.847V67.0834H493.011C493.589 67.0834 494.096 66.9792 494.531 66.7709C494.972 66.5626 495.315 66.269 495.561 65.8902C495.812 65.5114 495.938 65.0663 495.938 64.555C495.938 64.0626 495.829 63.634 495.611 63.2695C495.393 62.9049 495.085 62.6208 494.688 62.4172C494.295 62.2136 493.831 62.1118 493.296 62.1118C492.794 62.1118 492.32 62.2041 491.875 62.3888C491.435 62.5687 491.075 62.8315 490.796 63.1771C490.516 63.518 490.365 63.93 490.341 64.4129H488.636C488.665 63.6506 488.895 62.983 489.325 62.4101C489.756 61.8324 490.32 61.3826 491.016 61.0607C491.716 60.7387 492.486 60.5777 493.324 60.5777C494.224 60.5777 494.995 60.76 495.639 61.1246C496.283 61.4844 496.778 61.9603 497.124 62.5521C497.469 63.144 497.642 63.7832 497.642 64.4697C497.642 65.2889 497.427 65.9873 496.996 66.5649C496.57 67.1426 495.99 67.5427 495.256 67.7652V67.8788C496.174 68.0304 496.892 68.421 497.408 69.0507C497.924 69.6757 498.182 70.4499 498.182 71.3732C498.182 72.1639 497.966 72.8741 497.536 73.5038C497.109 74.1288 496.527 74.6213 495.788 74.9811C495.05 75.341 494.209 75.5209 493.267 75.5209ZM505.831 75.5209C504.761 75.5209 503.85 75.2297 503.097 74.6473C502.344 74.0602 501.769 73.2103 501.371 72.0976C500.973 70.9802 500.774 69.6307 500.774 68.0493C500.774 66.4773 500.973 65.135 501.371 64.0223C501.773 62.9049 502.351 62.0526 503.104 61.4655C503.861 60.8736 504.77 60.5777 505.831 60.5777C506.892 60.5777 507.798 60.8736 508.551 61.4655C509.309 62.0526 509.886 62.9049 510.284 64.0223C510.687 65.135 510.888 66.4773 510.888 68.0493C510.888 69.6307 510.689 70.9802 510.291 72.0976C509.894 73.2103 509.318 74.0602 508.565 74.6473C507.813 75.2297 506.901 75.5209 505.831 75.5209ZM505.831 73.9584C506.892 73.9584 507.716 73.447 508.303 72.4243C508.89 71.4016 509.183 69.9432 509.183 68.0493C509.183 66.7898 509.048 65.7174 508.778 64.832C508.513 63.9465 508.13 63.2718 507.628 62.8078C507.131 62.3438 506.532 62.1118 505.831 62.1118C504.78 62.1118 503.958 62.6303 503.367 63.6672C502.775 64.6994 502.479 66.1601 502.479 68.0493C502.479 69.3088 502.611 70.3788 502.877 71.2595C503.142 72.1402 503.523 72.8102 504.02 73.2695C504.522 73.7287 505.126 73.9584 505.831 73.9584ZM518.331 75.5209C517.261 75.5209 516.35 75.2297 515.597 74.6473C514.844 74.0602 514.269 73.2103 513.871 72.0976C513.473 70.9802 513.274 69.6307 513.274 68.0493C513.274 66.4773 513.473 65.135 513.871 64.0223C514.273 62.9049 514.851 62.0526 515.604 61.4655C516.361 60.8736 517.27 60.5777 518.331 60.5777C519.392 60.5777 520.298 60.8736 521.051 61.4655C521.809 62.0526 522.386 62.9049 522.784 64.0223C523.187 65.135 523.388 66.4773 523.388 68.0493C523.388 69.6307 523.189 70.9802 522.791 72.0976C522.394 73.2103 521.818 74.0602 521.065 74.6473C520.313 75.2297 519.401 75.5209 518.331 75.5209ZM518.331 73.9584C519.392 73.9584 520.216 73.447 520.803 72.4243C521.39 71.4016 521.683 69.9432 521.683 68.0493C521.683 66.7898 521.548 65.7174 521.278 64.832C521.013 63.9465 520.63 63.2718 520.128 62.8078C519.631 62.3438 519.032 62.1118 518.331 62.1118C517.28 62.1118 516.458 62.6303 515.867 63.6672C515.275 64.6994 514.979 66.1601 514.979 68.0493C514.979 69.3088 515.111 70.3788 515.377 71.2595C515.642 72.1402 516.023 72.8102 516.52 73.2695C517.022 73.7287 517.626 73.9584 518.331 73.9584Z" fill="#56DBA7"/>
<path d="M552.665 75.322V74.0436L557.466 68.7879C558.029 68.1724 558.493 67.6374 558.858 67.1828C559.223 66.7235 559.493 66.2927 559.668 65.8902C559.848 65.483 559.938 65.0569 559.938 64.6118C559.938 64.1004 559.814 63.6577 559.568 63.2837C559.327 62.9096 558.995 62.6208 558.574 62.4172C558.153 62.2136 557.679 62.1118 557.153 62.1118C556.595 62.1118 556.107 62.2278 555.69 62.4598C555.278 62.6871 554.959 63.0067 554.732 63.4186C554.509 63.8305 554.398 64.3135 554.398 64.8675H552.722C552.722 64.0152 552.918 63.2671 553.311 62.6232C553.704 61.9792 554.239 61.4773 554.916 61.1175C555.598 60.7576 556.363 60.5777 557.21 60.5777C558.063 60.5777 558.818 60.7576 559.476 61.1175C560.134 61.4773 560.65 61.9626 561.024 62.5734C561.398 63.1842 561.585 63.8637 561.585 64.6118C561.585 65.1468 561.488 65.67 561.294 66.1814C561.105 66.688 560.773 67.2538 560.3 67.8788C559.831 68.4991 559.18 69.2567 558.347 70.1516L555.08 73.6459V73.7595H561.841V75.322H552.665ZM569.519 75.5209C568.448 75.5209 567.537 75.2297 566.784 74.6473C566.031 74.0602 565.456 73.2103 565.058 72.0976C564.661 70.9802 564.462 69.6307 564.462 68.0493C564.462 66.4773 564.661 65.135 565.058 64.0223C565.461 62.9049 566.038 62.0526 566.791 61.4655C567.549 60.8736 568.458 60.5777 569.519 60.5777C570.579 60.5777 571.486 60.8736 572.239 61.4655C572.996 62.0526 573.574 62.9049 573.972 64.0223C574.374 65.135 574.575 66.4773 574.575 68.0493C574.575 69.6307 574.377 70.9802 573.979 72.0976C573.581 73.2103 573.006 74.0602 572.253 74.6473C571.5 75.2297 570.589 75.5209 569.519 75.5209ZM569.519 73.9584C570.579 73.9584 571.403 73.447 571.99 72.4243C572.577 71.4016 572.871 69.9432 572.871 68.0493C572.871 66.7898 572.736 65.7174 572.466 64.832C572.201 63.9465 571.817 63.2718 571.315 62.8078C570.818 62.3438 570.219 62.1118 569.519 62.1118C568.467 62.1118 567.646 62.6303 567.054 63.6672C566.462 64.6994 566.166 66.1601 566.166 68.0493C566.166 69.3088 566.299 70.3788 566.564 71.2595C566.829 72.1402 567.21 72.8102 567.707 73.2695C568.209 73.7287 568.813 73.9584 569.519 73.9584ZM582.019 75.5209C580.948 75.5209 580.037 75.2297 579.284 74.6473C578.531 74.0602 577.956 73.2103 577.558 72.0976C577.161 70.9802 576.962 69.6307 576.962 68.0493C576.962 66.4773 577.161 65.135 577.558 64.0223C577.961 62.9049 578.538 62.0526 579.291 61.4655C580.049 60.8736 580.958 60.5777 582.019 60.5777C583.079 60.5777 583.986 60.8736 584.739 61.4655C585.496 62.0526 586.074 62.9049 586.472 64.0223C586.874 65.135 587.075 66.4773 587.075 68.0493C587.075 69.6307 586.877 70.9802 586.479 72.0976C586.081 73.2103 585.506 74.0602 584.753 74.6473C584 75.2297 583.089 75.5209 582.019 75.5209ZM582.019 73.9584C583.079 73.9584 583.903 73.447 584.49 72.4243C585.077 71.4016 585.371 69.9432 585.371 68.0493C585.371 66.7898 585.236 65.7174 584.966 64.832C584.701 63.9465 584.317 63.2718 583.815 62.8078C583.318 62.3438 582.719 62.1118 582.019 62.1118C580.967 62.1118 580.146 62.6303 579.554 63.6672C578.962 64.6994 578.666 66.1601 578.666 68.0493C578.666 69.3088 578.799 70.3788 579.064 71.2595C579.329 72.1402 579.71 72.8102 580.207 73.2695C580.709 73.7287 581.313 73.9584 582.019 73.9584Z" fill="#56DBA7"/>
<path d="M296.3 177.736C297.081 178.517 298.347 178.517 299.128 177.736L311.856 165.008C312.637 164.227 312.637 162.961 311.856 162.18C311.075 161.399 309.809 161.399 309.028 162.18L297.714 173.494L286.4 162.18C285.619 161.399 284.353 161.399 283.572 162.18C282.791 162.961 282.791 164.227 283.572 165.008L296.3 177.736ZM295.714 112.322L295.714 176.322L299.714 176.322L299.714 112.322L295.714 112.322Z" fill="#9E9FA5"/>
<rect x="0.713867" y="208.322" width="97.5" height="56" rx="12" fill="#183C29"/>
<rect x="114.214" y="208.322" width="97.5" height="56" rx="12" fill="#2C6444"/>
<rect x="227.714" y="208.322" width="140" height="56" rx="12" fill="#49A06C"/>
<path d="M276.578 243.322V228.777H281.663C282.676 228.777 283.512 228.952 284.17 229.302C284.828 229.648 285.318 230.114 285.64 230.701C285.962 231.284 286.123 231.93 286.123 232.64C286.123 233.265 286.012 233.781 285.789 234.188C285.572 234.596 285.283 234.918 284.923 235.154C284.568 235.391 284.182 235.566 283.765 235.68V235.822C284.21 235.85 284.658 236.007 285.108 236.291C285.557 236.575 285.934 236.982 286.237 237.512C286.54 238.043 286.691 238.691 286.691 239.458C286.691 240.188 286.526 240.843 286.194 241.426C285.863 242.008 285.34 242.47 284.625 242.811C283.91 243.152 282.979 243.322 281.833 243.322H276.578ZM278.339 241.76H281.833C282.984 241.76 283.801 241.537 284.284 241.092C284.771 240.642 285.015 240.098 285.015 239.458C285.015 238.966 284.89 238.511 284.639 238.095C284.388 237.673 284.03 237.337 283.566 237.086C283.102 236.831 282.553 236.703 281.919 236.703H278.339V241.76ZM278.339 235.169H281.606C282.136 235.169 282.615 235.064 283.041 234.856C283.472 234.648 283.813 234.354 284.064 233.975C284.319 233.597 284.447 233.152 284.447 232.64C284.447 232.001 284.225 231.459 283.779 231.014C283.334 230.564 282.629 230.339 281.663 230.339H278.339V235.169ZM292.569 243.578C291.877 243.578 291.25 243.447 290.686 243.187C290.123 242.922 289.676 242.541 289.344 242.044C289.013 241.542 288.847 240.936 288.847 240.225C288.847 239.6 288.97 239.094 289.216 238.706C289.462 238.313 289.792 238.005 290.203 237.782C290.615 237.56 291.07 237.394 291.567 237.285C292.069 237.171 292.573 237.081 293.08 237.015C293.743 236.93 294.28 236.866 294.692 236.823C295.109 236.776 295.412 236.698 295.601 236.589C295.795 236.48 295.892 236.291 295.892 236.021V235.964C295.892 235.263 295.701 234.719 295.317 234.331C294.938 233.942 294.363 233.748 293.591 233.748C292.791 233.748 292.164 233.923 291.709 234.274C291.255 234.624 290.935 234.998 290.75 235.396L289.159 234.828C289.444 234.165 289.822 233.649 290.296 233.279C290.774 232.905 291.295 232.645 291.858 232.498C292.426 232.347 292.985 232.271 293.534 232.271C293.885 232.271 294.287 232.313 294.742 232.399C295.201 232.479 295.644 232.647 296.07 232.903C296.501 233.159 296.858 233.545 297.142 234.061C297.426 234.577 297.569 235.268 297.569 236.135V243.322H295.892V241.845H295.807C295.694 242.081 295.504 242.335 295.239 242.605C294.974 242.875 294.621 243.104 294.181 243.294C293.74 243.483 293.203 243.578 292.569 243.578ZM292.824 242.072C293.487 242.072 294.046 241.942 294.5 241.681C294.96 241.421 295.305 241.085 295.537 240.673C295.774 240.261 295.892 239.828 295.892 239.373V237.839C295.821 237.924 295.665 238.002 295.424 238.073C295.187 238.14 294.912 238.199 294.6 238.251C294.292 238.298 293.991 238.341 293.698 238.379C293.409 238.412 293.175 238.44 292.995 238.464C292.559 238.521 292.152 238.613 291.773 238.741C291.399 238.864 291.096 239.051 290.864 239.302C290.637 239.548 290.523 239.885 290.523 240.311C290.523 240.893 290.739 241.333 291.169 241.632C291.605 241.925 292.157 242.072 292.824 242.072ZM308.355 234.856L306.849 235.282C306.755 235.031 306.615 234.787 306.43 234.551C306.25 234.309 306.004 234.11 305.692 233.954C305.379 233.798 304.979 233.72 304.491 233.72C303.824 233.72 303.268 233.874 302.822 234.181C302.382 234.484 302.162 234.87 302.162 235.339C302.162 235.756 302.313 236.085 302.616 236.326C302.92 236.568 303.393 236.769 304.037 236.93L305.656 237.328C306.632 237.564 307.358 237.927 307.837 238.414C308.315 238.897 308.554 239.52 308.554 240.282C308.554 240.907 308.374 241.466 308.014 241.958C307.659 242.451 307.162 242.839 306.523 243.123C305.884 243.407 305.14 243.549 304.293 243.549C303.18 243.549 302.259 243.308 301.53 242.825C300.801 242.342 300.339 241.636 300.145 240.708L301.736 240.311C301.887 240.898 302.174 241.338 302.595 241.632C303.021 241.925 303.578 242.072 304.264 242.072C305.045 242.072 305.666 241.906 306.125 241.575C306.589 241.239 306.821 240.836 306.821 240.367C306.821 239.989 306.688 239.671 306.423 239.416C306.158 239.155 305.751 238.961 305.202 238.833L303.384 238.407C302.384 238.171 301.651 237.804 301.182 237.306C300.718 236.805 300.486 236.177 300.486 235.424C300.486 234.809 300.659 234.264 301.004 233.791C301.355 233.317 301.83 232.946 302.432 232.676C303.038 232.406 303.724 232.271 304.491 232.271C305.571 232.271 306.419 232.508 307.034 232.981C307.654 233.455 308.095 234.08 308.355 234.856ZM315.651 243.549C314.6 243.549 313.693 243.317 312.931 242.853C312.173 242.385 311.588 241.731 311.176 240.893C310.769 240.05 310.566 239.07 310.566 237.953C310.566 236.835 310.769 235.85 311.176 234.998C311.588 234.141 312.161 233.474 312.895 232.995C313.634 232.512 314.496 232.271 315.48 232.271C316.049 232.271 316.61 232.366 317.164 232.555C317.718 232.744 318.222 233.052 318.676 233.478C319.131 233.9 319.493 234.458 319.763 235.154C320.033 235.85 320.168 236.707 320.168 237.725V238.436H311.759V236.987H318.463C318.463 236.371 318.34 235.822 318.094 235.339C317.853 234.856 317.507 234.475 317.057 234.196C316.612 233.916 316.087 233.777 315.48 233.777C314.813 233.777 314.235 233.942 313.748 234.274C313.265 234.6 312.893 235.027 312.632 235.552C312.372 236.078 312.242 236.641 312.242 237.242V238.208C312.242 239.032 312.384 239.731 312.668 240.304C312.957 240.872 313.357 241.305 313.868 241.603C314.38 241.897 314.974 242.044 315.651 242.044C316.091 242.044 316.489 241.982 316.844 241.859C317.204 241.731 317.514 241.542 317.775 241.291C318.035 241.035 318.236 240.718 318.378 240.339L319.998 240.794C319.827 241.343 319.541 241.826 319.138 242.242C318.736 242.654 318.239 242.976 317.647 243.208C317.055 243.436 316.39 243.549 315.651 243.549Z" fill="#F5EEDD"/>
<rect x="383.714" y="208.322" width="97.5" height="56" rx="12" fill="#0ECB81"/>
<rect x="497.214" y="208.322" width="97.5" height="56" rx="12" fill="#6FD29E"/>
<path d="M49.4436 284.777V299.322H46.3683V287.696H46.2831L42.9521 289.784V287.056L46.553 284.777H49.4436ZM58.6038 299.642C57.3822 299.637 56.3311 299.336 55.4504 298.74C54.5744 298.143 53.8997 297.279 53.4262 296.147C52.9575 295.016 52.7255 293.654 52.7302 292.063C52.7302 290.477 52.9646 289.126 53.4333 288.008C53.9068 286.891 54.5815 286.041 55.4575 285.458C56.3382 284.871 57.3869 284.578 58.6038 284.578C59.8206 284.578 60.867 284.871 61.743 285.458C62.6237 286.046 63.3008 286.898 63.7742 288.015C64.2477 289.128 64.4821 290.477 64.4774 292.063C64.4774 293.659 64.2406 295.023 63.7671 296.154C63.2984 297.286 62.626 298.15 61.7501 298.747C60.8741 299.343 59.8254 299.642 58.6038 299.642ZM58.6038 297.092C59.4371 297.092 60.1024 296.673 60.5995 295.835C61.0967 294.997 61.3429 293.74 61.3382 292.063C61.3382 290.96 61.2245 290.042 60.9972 289.308C60.7747 288.574 60.4575 288.022 60.0455 287.653C59.6383 287.284 59.1578 287.099 58.6038 287.099C57.7752 287.099 57.1123 287.513 56.6151 288.342C56.118 289.171 55.867 290.411 55.8623 292.063C55.8623 293.181 55.9736 294.114 56.1961 294.862C56.4234 295.605 56.743 296.164 57.1549 296.538C57.5669 296.907 58.0498 297.092 58.6038 297.092Z" fill="#183C29"/>
<path d="M168.793 299.521C167.732 299.521 166.787 299.339 165.959 298.974C165.135 298.605 164.484 298.098 164.006 297.454C163.532 296.805 163.288 296.057 163.274 295.21H166.371C166.39 295.565 166.506 295.877 166.719 296.147C166.937 296.412 167.225 296.618 167.585 296.765C167.945 296.912 168.35 296.985 168.8 296.985C169.269 296.985 169.683 296.903 170.043 296.737C170.403 296.571 170.684 296.341 170.888 296.048C171.091 295.754 171.193 295.416 171.193 295.032C171.193 294.644 171.084 294.301 170.867 294.002C170.653 293.699 170.346 293.463 169.943 293.292C169.546 293.122 169.072 293.037 168.523 293.037H167.166V290.778H168.523C168.987 290.778 169.396 290.697 169.752 290.537C170.111 290.376 170.391 290.153 170.59 289.869C170.788 289.58 170.888 289.244 170.888 288.86C170.888 288.496 170.8 288.176 170.625 287.902C170.455 287.622 170.213 287.404 169.901 287.248C169.593 287.092 169.233 287.014 168.821 287.014C168.404 287.014 168.023 287.09 167.678 287.241C167.332 287.388 167.055 287.599 166.847 287.873C166.638 288.148 166.527 288.47 166.513 288.839H163.565C163.58 288.001 163.819 287.262 164.283 286.623C164.747 285.984 165.372 285.484 166.158 285.125C166.948 284.76 167.841 284.578 168.835 284.578C169.839 284.578 170.717 284.76 171.47 285.125C172.223 285.489 172.808 285.982 173.225 286.602C173.646 287.217 173.854 287.909 173.85 288.676C173.854 289.49 173.601 290.17 173.09 290.714C172.583 291.259 171.922 291.604 171.108 291.751V291.865C172.178 292.002 172.993 292.374 173.551 292.98C174.115 293.581 174.394 294.334 174.389 295.238C174.394 296.067 174.155 296.803 173.672 297.447C173.194 298.091 172.533 298.598 171.69 298.967C170.848 299.336 169.882 299.521 168.793 299.521ZM182.303 299.642C181.081 299.637 180.03 299.336 179.15 298.74C178.274 298.143 177.599 297.279 177.125 296.147C176.657 295.016 176.425 293.654 176.429 292.063C176.429 290.477 176.664 289.126 177.133 288.008C177.606 286.891 178.281 286.041 179.157 285.458C180.037 284.871 181.086 284.578 182.303 284.578C183.52 284.578 184.566 284.871 185.442 285.458C186.323 286.046 187 286.898 187.473 288.015C187.947 289.128 188.181 290.477 188.177 292.063C188.177 293.659 187.94 295.023 187.466 296.154C186.998 297.286 186.325 298.15 185.449 298.747C184.573 299.343 183.525 299.642 182.303 299.642ZM182.303 297.092C183.136 297.092 183.802 296.673 184.299 295.835C184.796 294.997 185.042 293.74 185.037 292.063C185.037 290.96 184.924 290.042 184.696 289.308C184.474 288.574 184.157 288.022 183.745 287.653C183.338 287.284 182.857 287.099 182.303 287.099C181.474 287.099 180.812 287.513 180.314 288.342C179.817 289.171 179.566 290.411 179.562 292.063C179.562 293.181 179.673 294.114 179.895 294.862C180.123 295.605 180.442 296.164 180.854 296.538C181.266 296.907 181.749 297.092 182.303 297.092Z" fill="#2C6444"/>
<path d="M290.875 299.521C289.871 299.521 288.977 299.336 288.191 298.967C287.409 298.598 286.789 298.089 286.33 297.44C285.871 296.791 285.631 296.048 285.612 295.21H288.595C288.629 295.773 288.865 296.23 289.306 296.581C289.746 296.931 290.269 297.106 290.875 297.106C291.358 297.106 291.784 297 292.154 296.787C292.528 296.569 292.819 296.268 293.027 295.885C293.24 295.496 293.347 295.051 293.347 294.549C293.347 294.038 293.238 293.588 293.02 293.2C292.807 292.812 292.511 292.509 292.132 292.291C291.754 292.073 291.32 291.962 290.833 291.957C290.407 291.957 289.992 292.045 289.59 292.22C289.192 292.395 288.882 292.634 288.659 292.937L285.925 292.447L286.614 284.777H295.506V287.291H289.149L288.773 290.934H288.858C289.114 290.574 289.5 290.276 290.016 290.039C290.532 289.803 291.11 289.684 291.749 289.684C292.625 289.684 293.406 289.89 294.093 290.302C294.779 290.714 295.321 291.28 295.719 292C296.117 292.715 296.313 293.538 296.309 294.471C296.313 295.451 296.086 296.322 295.627 297.085C295.172 297.842 294.535 298.439 293.716 298.875C292.902 299.305 291.955 299.521 290.875 299.521ZM304.157 299.642C302.935 299.637 301.884 299.336 301.003 298.74C300.127 298.143 299.452 297.279 298.979 296.147C298.51 295.016 298.278 293.654 298.283 292.063C298.283 290.477 298.517 289.126 298.986 288.008C299.46 286.891 300.134 286.041 301.01 285.458C301.891 284.871 302.94 284.578 304.157 284.578C305.373 284.578 306.42 284.871 307.296 285.458C308.176 286.046 308.853 286.898 309.327 288.015C309.8 289.128 310.035 290.477 310.03 292.063C310.03 293.659 309.793 295.023 309.32 296.154C308.851 297.286 308.179 298.15 307.303 298.747C306.427 299.343 305.378 299.642 304.157 299.642ZM304.157 297.092C304.99 297.092 305.655 296.673 306.152 295.835C306.649 294.997 306.896 293.74 306.891 292.063C306.891 290.96 306.777 290.042 306.55 289.308C306.327 288.574 306.01 288.022 305.598 287.653C305.191 287.284 304.71 287.099 304.157 287.099C303.328 287.099 302.665 287.513 302.168 288.342C301.671 289.171 301.42 290.411 301.415 292.063C301.415 293.181 301.526 294.114 301.749 294.862C301.976 295.605 302.296 296.164 302.708 296.538C303.12 296.907 303.603 297.092 304.157 297.092Z" fill="#49A06C"/>
<path d="M408.792 299.322L414.822 287.39V287.291H407.798V284.777H418.004V287.326L411.967 299.322H408.792ZM425.502 299.642C424.281 299.637 423.229 299.336 422.349 298.74C421.473 298.143 420.798 297.279 420.325 296.147C419.856 295.016 419.624 293.654 419.629 292.063C419.629 290.477 419.863 289.126 420.332 288.008C420.805 286.891 421.48 286.041 422.356 285.458C423.237 284.871 424.285 284.578 425.502 284.578C426.719 284.578 427.765 284.871 428.641 285.458C429.522 286.046 430.199 286.898 430.673 288.015C431.146 289.128 431.381 290.477 431.376 292.063C431.376 293.659 431.139 295.023 430.666 296.154C430.197 297.286 429.524 298.15 428.649 298.747C427.773 299.343 426.724 299.642 425.502 299.642ZM425.502 297.092C426.336 297.092 427.001 296.673 427.498 295.835C427.995 294.997 428.241 293.74 428.237 292.063C428.237 290.96 428.123 290.042 427.896 289.308C427.673 288.574 427.356 288.022 426.944 287.653C426.537 287.284 426.056 287.099 425.502 287.099C424.674 287.099 424.011 287.513 423.514 288.342C423.016 289.171 422.765 290.411 422.761 292.063C422.761 293.181 422.872 294.114 423.095 294.862C423.322 295.605 423.641 296.164 424.053 296.538C424.465 296.907 424.948 297.092 425.502 297.092Z" fill="#0ECB81"/>
<path d="M534.669 284.578C535.417 284.578 536.137 284.703 536.828 284.954C537.524 285.205 538.145 285.605 538.689 286.154C539.238 286.704 539.672 287.433 539.989 288.342C540.311 289.246 540.474 290.357 540.479 291.673C540.479 292.909 540.339 294.012 540.06 294.983C539.785 295.948 539.39 296.77 538.874 297.447C538.358 298.124 537.735 298.64 537.006 298.995C536.277 299.346 535.462 299.521 534.563 299.521C533.592 299.521 532.735 299.334 531.992 298.96C531.248 298.581 530.649 298.067 530.195 297.419C529.745 296.765 529.473 296.031 529.378 295.217H532.411C532.529 295.747 532.778 296.159 533.157 296.453C533.535 296.742 534.004 296.886 534.563 296.886C535.51 296.886 536.229 296.474 536.722 295.65C537.214 294.822 537.463 293.688 537.468 292.248H537.368C537.15 292.674 536.857 293.041 536.487 293.349C536.118 293.652 535.694 293.886 535.216 294.052C534.743 294.218 534.238 294.301 533.703 294.301C532.846 294.301 532.082 294.099 531.409 293.697C530.737 293.295 530.207 292.741 529.818 292.035C529.43 291.33 529.236 290.525 529.236 289.62C529.231 288.645 529.456 287.776 529.911 287.014C530.365 286.251 531 285.655 531.814 285.224C532.633 284.788 533.585 284.573 534.669 284.578ZM534.691 286.992C534.212 286.992 533.786 287.106 533.412 287.333C533.043 287.561 532.749 287.866 532.532 288.25C532.318 288.633 532.214 289.062 532.219 289.535C532.219 290.013 532.323 290.444 532.532 290.828C532.745 291.206 533.033 291.51 533.398 291.737C533.767 291.959 534.189 292.071 534.662 292.071C535.017 292.071 535.346 292.004 535.649 291.872C535.952 291.739 536.215 291.557 536.438 291.325C536.665 291.088 536.843 290.816 536.97 290.508C537.098 290.2 537.162 289.874 537.162 289.528C537.157 289.069 537.049 288.647 536.835 288.264C536.622 287.88 536.329 287.572 535.955 287.34C535.581 287.108 535.159 286.992 534.691 286.992ZM548.313 299.642C547.091 299.637 546.04 299.336 545.159 298.74C544.283 298.143 543.609 297.279 543.135 296.147C542.666 295.016 542.434 293.654 542.439 292.063C542.439 290.477 542.674 289.126 543.142 288.008C543.616 286.891 544.291 286.041 545.166 285.458C546.047 284.871 547.096 284.578 548.313 284.578C549.53 284.578 550.576 284.871 551.452 285.458C552.333 286.046 553.01 286.898 553.483 288.015C553.957 289.128 554.191 290.477 554.186 292.063C554.186 293.659 553.95 295.023 553.476 296.154C553.007 297.286 552.335 298.15 551.459 298.747C550.583 299.343 549.534 299.642 548.313 299.642ZM548.313 297.092C549.146 297.092 549.811 296.673 550.309 295.835C550.806 294.997 551.052 293.74 551.047 292.063C551.047 290.96 550.934 290.042 550.706 289.308C550.484 288.574 550.166 288.022 549.755 287.653C549.347 287.284 548.867 287.099 548.313 287.099C547.484 287.099 546.821 287.513 546.324 288.342C545.827 289.171 545.576 290.411 545.571 292.063C545.571 293.181 545.683 294.114 545.905 294.862C546.132 295.605 546.452 296.164 546.864 296.538C547.276 296.907 547.759 297.092 548.313 297.092Z" fill="#6FD29E"/>
</svg>
