<svg width="592" height="305" viewBox="0 0 592 305" fill="none" xmlns="http://www.w3.org/2000/svg">
<rect y="0.322021" width="48" height="48" rx="16" fill="#524422"/>
<rect x="64" y="0.322021" width="48" height="48" rx="16" fill="#7B6532"/>
<rect x="128" y="0.322021" width="48" height="48" rx="16" fill="#90763B"/>
<rect x="192" y="0.322021" width="48" height="48" rx="16" fill="#A48743"/>
<rect x="256" y="0.322021" width="80" height="48" rx="16" fill="#B8984C"/>
<path d="M274.578 31.322V16.7766H279.663C280.676 16.7766 281.512 16.9518 282.17 17.3021C282.828 17.6478 283.318 18.1142 283.64 18.7013C283.962 19.2837 284.123 19.93 284.123 20.6402C284.123 21.2652 284.012 21.7813 283.789 22.1885C283.572 22.5957 283.283 22.9177 282.923 23.1544C282.568 23.3912 282.182 23.5663 281.765 23.68V23.822C282.21 23.8504 282.658 24.0067 283.108 24.2908C283.557 24.5749 283.934 24.9821 284.237 25.5124C284.54 26.0427 284.691 26.6913 284.691 27.4584C284.691 28.1876 284.526 28.8433 284.194 29.4257C283.863 30.0081 283.34 30.4697 282.625 30.8107C281.91 31.1516 280.979 31.322 279.833 31.322H274.578ZM276.339 29.7595H279.833C280.984 29.7595 281.801 29.537 282.284 29.0919C282.771 28.6421 283.015 28.0976 283.015 27.4584C283.015 26.966 282.89 26.5114 282.639 26.0947C282.388 25.6733 282.03 25.3372 281.566 25.0862C281.102 24.8305 280.553 24.7027 279.919 24.7027H276.339V29.7595ZM276.339 23.1686H279.606C280.136 23.1686 280.615 23.0644 281.041 22.8561C281.472 22.6478 281.813 22.3542 282.064 21.9754C282.319 21.5966 282.447 21.1516 282.447 20.6402C282.447 20.001 282.225 19.4589 281.779 19.0138C281.334 18.564 280.629 18.3391 279.663 18.3391H276.339V23.1686ZM290.569 31.5777C289.877 31.5777 289.25 31.4475 288.686 31.1871C288.123 30.9219 287.676 30.5408 287.344 30.0436C287.013 29.5417 286.847 28.9357 286.847 28.2254C286.847 27.6004 286.97 27.0938 287.216 26.7055C287.462 26.3126 287.792 26.0048 288.203 25.7822C288.615 25.5597 289.07 25.394 289.567 25.2851C290.069 25.1715 290.573 25.0815 291.08 25.0152C291.743 24.93 292.28 24.8661 292.692 24.8234C293.109 24.7761 293.412 24.698 293.601 24.5891C293.795 24.4802 293.892 24.2908 293.892 24.0209V23.9641C293.892 23.2633 293.701 22.7188 293.317 22.3305C292.938 21.9423 292.363 21.7482 291.591 21.7482C290.791 21.7482 290.164 21.9233 289.709 22.2737C289.255 22.6241 288.935 22.9982 288.75 23.3959L287.159 22.8277C287.444 22.1648 287.822 21.6487 288.296 21.2794C288.774 20.9054 289.295 20.6449 289.858 20.4982C290.426 20.3466 290.985 20.2709 291.534 20.2709C291.885 20.2709 292.287 20.3135 292.742 20.3987C293.201 20.4792 293.644 20.6473 294.07 20.903C294.501 21.1587 294.858 21.5446 295.142 22.0607C295.426 22.5768 295.569 23.268 295.569 24.1345V31.322H293.892V29.8447H293.807C293.694 30.0815 293.504 30.3348 293.239 30.6047C292.974 30.8746 292.621 31.1042 292.181 31.2936C291.74 31.483 291.203 31.5777 290.569 31.5777ZM290.824 30.072C291.487 30.072 292.046 29.9418 292.5 29.6814C292.96 29.421 293.305 29.0848 293.537 28.6729C293.774 28.2609 293.892 27.8277 293.892 27.3732V25.8391C293.821 25.9243 293.665 26.0024 293.424 26.0734C293.187 26.1397 292.912 26.1989 292.6 26.251C292.292 26.2983 291.991 26.341 291.698 26.3788C291.409 26.412 291.175 26.4404 290.995 26.4641C290.559 26.5209 290.152 26.6132 289.773 26.7411C289.399 26.8642 289.096 27.0512 288.864 27.3021C288.637 27.5483 288.523 27.8845 288.523 28.3107C288.523 28.893 288.739 29.3334 289.169 29.6317C289.605 29.9252 290.157 30.072 290.824 30.072ZM306.355 22.8561L304.849 23.2822C304.755 23.0313 304.615 22.7875 304.43 22.5507C304.25 22.3092 304.004 22.1104 303.692 21.9541C303.379 21.7979 302.979 21.7197 302.491 21.7197C301.824 21.7197 301.268 21.8736 300.822 22.1814C300.382 22.4844 300.162 22.8703 300.162 23.3391C300.162 23.7557 300.313 24.0848 300.616 24.3263C300.92 24.5678 301.393 24.769 302.037 24.93L303.656 25.3277C304.632 25.5644 305.358 25.9267 305.837 26.4144C306.315 26.8973 306.554 27.5199 306.554 28.2822C306.554 28.9072 306.374 29.466 306.014 29.9584C305.659 30.4508 305.162 30.8391 304.523 31.1232C303.884 31.4072 303.14 31.5493 302.293 31.5493C301.18 31.5493 300.259 31.3078 299.53 30.8249C298.801 30.3419 298.339 29.6364 298.145 28.7084L299.736 28.3107C299.887 28.8978 300.174 29.3381 300.595 29.6317C301.021 29.9252 301.578 30.072 302.264 30.072C303.045 30.072 303.666 29.9063 304.125 29.5749C304.589 29.2387 304.821 28.8362 304.821 28.3675C304.821 27.9887 304.688 27.6715 304.423 27.4158C304.158 27.1554 303.751 26.9612 303.202 26.8334L301.384 26.4072C300.384 26.1705 299.651 25.8036 299.182 25.3064C298.718 24.8045 298.486 24.1771 298.486 23.4243C298.486 22.8088 298.659 22.2643 299.004 21.7908C299.355 21.3173 299.83 20.9456 300.432 20.6757C301.038 20.4058 301.724 20.2709 302.491 20.2709C303.571 20.2709 304.419 20.5076 305.034 20.9811C305.654 21.4546 306.095 22.0796 306.355 22.8561ZM313.651 31.5493C312.6 31.5493 311.693 31.3173 310.931 30.8533C310.173 30.3845 309.588 29.7311 309.176 28.893C308.769 28.0502 308.566 27.0701 308.566 25.9527C308.566 24.8353 308.769 23.8504 309.176 22.9982C309.588 22.1412 310.161 21.4735 310.895 20.9953C311.634 20.5124 312.496 20.2709 313.48 20.2709C314.049 20.2709 314.61 20.3656 315.164 20.555C315.718 20.7444 316.222 21.0521 316.676 21.4783C317.131 21.8997 317.493 22.4584 317.763 23.1544C318.033 23.8504 318.168 24.7074 318.168 25.7254V26.4357H309.759V24.9868H316.463C316.463 24.3713 316.34 23.822 316.094 23.3391C315.853 22.8561 315.507 22.475 315.057 22.1956C314.612 21.9162 314.087 21.7766 313.48 21.7766C312.813 21.7766 312.235 21.9423 311.748 22.2737C311.265 22.6004 310.893 23.0266 310.632 23.5521C310.372 24.0777 310.242 24.6412 310.242 25.2425V26.2084C310.242 27.0322 310.384 27.7306 310.668 28.3036C310.957 28.8717 311.357 29.305 311.868 29.6033C312.38 29.8968 312.974 30.0436 313.651 30.0436C314.091 30.0436 314.489 29.9821 314.844 29.859C315.204 29.7311 315.514 29.5417 315.775 29.2908C316.035 29.0351 316.236 28.7179 316.378 28.3391L317.998 28.7936C317.827 29.3429 317.541 29.8258 317.138 30.2425C316.736 30.6544 316.239 30.9764 315.647 31.2084C315.055 31.4357 314.39 31.5493 313.651 31.5493Z" fill="#F5EEDD"/>
<rect x="352" y="0.322021" width="48" height="48" rx="16" fill="#CDA954"/>
<rect x="416" y="0.322021" width="48" height="48" rx="16" fill="#D2B265"/>
<rect x="480" y="0.322021" width="48" height="48" rx="16" fill="#D7BA76"/>
<rect x="544" y="0.322021" width="48" height="48" rx="16" fill="#DCC387"/>
<path d="M8.82244 60.7766V75.322H7.06108V62.6232H6.97585L3.42472 64.9811V63.1913L7.06108 60.7766H8.82244ZM18.1193 60.7766V75.322H16.358V62.6232H16.2727L12.7216 64.9811V63.1913L16.358 60.7766H18.1193ZM27.0469 75.5209C25.9768 75.5209 25.0653 75.2297 24.3125 74.6473C23.5597 74.0602 22.9844 73.2103 22.5866 72.0976C22.1889 70.9802 21.9901 69.6307 21.9901 68.0493C21.9901 66.4773 22.1889 65.135 22.5866 64.0223C22.9891 62.9049 23.5668 62.0526 24.3196 61.4655C25.0772 60.8736 25.9863 60.5777 27.0469 60.5777C28.1075 60.5777 29.0142 60.8736 29.767 61.4655C30.5246 62.0526 31.1023 62.9049 31.5 64.0223C31.9025 65.135 32.1037 66.4773 32.1037 68.0493C32.1037 69.6307 31.9048 70.9802 31.5071 72.0976C31.1094 73.2103 30.5341 74.0602 29.7812 74.6473C29.0284 75.2297 28.117 75.5209 27.0469 75.5209ZM27.0469 73.9584C28.1075 73.9584 28.9313 73.447 29.5185 72.4243C30.1056 71.4016 30.3991 69.9432 30.3991 68.0493C30.3991 66.7898 30.2642 65.7174 29.9943 64.832C29.7292 63.9465 29.3456 63.2718 28.8438 62.8078C28.3466 62.3438 27.7476 62.1118 27.0469 62.1118C25.9957 62.1118 25.1742 62.6303 24.5824 63.6672C23.9905 64.6994 23.6946 66.1601 23.6946 68.0493C23.6946 69.3088 23.8272 70.3788 24.0923 71.2595C24.3575 72.1402 24.7386 72.8102 25.2358 73.2695C25.7377 73.7287 26.3414 73.9584 27.0469 73.9584ZM39.5469 75.5209C38.4768 75.5209 37.5653 75.2297 36.8125 74.6473C36.0597 74.0602 35.4844 73.2103 35.0866 72.0976C34.6889 70.9802 34.4901 69.6307 34.4901 68.0493C34.4901 66.4773 34.6889 65.135 35.0866 64.0223C35.4891 62.9049 36.0668 62.0526 36.8196 61.4655C37.5772 60.8736 38.4863 60.5777 39.5469 60.5777C40.6075 60.5777 41.5142 60.8736 42.267 61.4655C43.0246 62.0526 43.6023 62.9049 44 64.0223C44.4025 65.135 44.6037 66.4773 44.6037 68.0493C44.6037 69.6307 44.4048 70.9802 44.0071 72.0976C43.6094 73.2103 43.0341 74.0602 42.2812 74.6473C41.5284 75.2297 40.617 75.5209 39.5469 75.5209ZM39.5469 73.9584C40.6075 73.9584 41.4313 73.447 42.0185 72.4243C42.6056 71.4016 42.8991 69.9432 42.8991 68.0493C42.8991 66.7898 42.7642 65.7174 42.4943 64.832C42.2292 63.9465 41.8456 63.2718 41.3438 62.8078C40.8466 62.3438 40.2476 62.1118 39.5469 62.1118C38.4957 62.1118 37.6742 62.6303 37.0824 63.6672C36.4905 64.6994 36.1946 66.1601 36.1946 68.0493C36.1946 69.3088 36.3272 70.3788 36.5923 71.2595C36.8575 72.1402 37.2386 72.8102 37.7358 73.2695C38.2377 73.7287 38.8414 73.9584 39.5469 73.9584Z" fill="#524422"/>
<path d="M71.2209 60.7766V75.322H69.4595V62.6232H69.3743L65.8232 64.9811V63.1913L69.4595 60.7766H71.2209ZM80.1484 75.5209C79.0784 75.5209 78.1669 75.2297 77.4141 74.6473C76.6612 74.0602 76.0859 73.2103 75.6882 72.0976C75.2905 70.9802 75.0916 69.6307 75.0916 68.0493C75.0916 66.4773 75.2905 65.135 75.6882 64.0223C76.0907 62.9049 76.6683 62.0526 77.4212 61.4655C78.1787 60.8736 79.0878 60.5777 80.1484 60.5777C81.209 60.5777 82.1158 60.8736 82.8686 61.4655C83.6262 62.0526 84.2038 62.9049 84.6016 64.0223C85.004 65.135 85.2053 66.4773 85.2053 68.0493C85.2053 69.6307 85.0064 70.9802 84.6087 72.0976C84.2109 73.2103 83.6357 74.0602 82.8828 74.6473C82.13 75.2297 81.2185 75.5209 80.1484 75.5209ZM80.1484 73.9584C81.209 73.9584 82.0329 73.447 82.62 72.4243C83.2071 71.4016 83.5007 69.9432 83.5007 68.0493C83.5007 66.7898 83.3658 65.7174 83.0959 64.832C82.8307 63.9465 82.4472 63.2718 81.9453 62.8078C81.4482 62.3438 80.8492 62.1118 80.1484 62.1118C79.0973 62.1118 78.2758 62.6303 77.6839 63.6672C77.0921 64.6994 76.7962 66.1601 76.7962 68.0493C76.7962 69.3088 76.9287 70.3788 77.1939 71.2595C77.459 72.1402 77.8402 72.8102 78.3374 73.2695C78.8393 73.7287 79.4429 73.9584 80.1484 73.9584ZM92.6484 75.5209C91.5784 75.5209 90.6669 75.2297 89.9141 74.6473C89.1612 74.0602 88.5859 73.2103 88.1882 72.0976C87.7905 70.9802 87.5916 69.6307 87.5916 68.0493C87.5916 66.4773 87.7905 65.135 88.1882 64.0223C88.5907 62.9049 89.1683 62.0526 89.9212 61.4655C90.6787 60.8736 91.5878 60.5777 92.6484 60.5777C93.709 60.5777 94.6158 60.8736 95.3686 61.4655C96.1262 62.0526 96.7038 62.9049 97.1016 64.0223C97.504 65.135 97.7053 66.4773 97.7053 68.0493C97.7053 69.6307 97.5064 70.9802 97.1087 72.0976C96.7109 73.2103 96.1357 74.0602 95.3828 74.6473C94.63 75.2297 93.7185 75.5209 92.6484 75.5209ZM92.6484 73.9584C93.709 73.9584 94.5329 73.447 95.12 72.4243C95.7071 71.4016 96.0007 69.9432 96.0007 68.0493C96.0007 66.7898 95.8658 65.7174 95.5959 64.832C95.3307 63.9465 94.9472 63.2718 94.4453 62.8078C93.9482 62.3438 93.3492 62.1118 92.6484 62.1118C91.5973 62.1118 90.7758 62.6303 90.1839 63.6672C89.5921 64.6994 89.2962 66.1601 89.2962 68.0493C89.2962 69.3088 89.4287 70.3788 89.6939 71.2595C89.959 72.1402 90.3402 72.8102 90.8374 73.2695C91.3393 73.7287 91.9429 73.9584 92.6484 73.9584ZM105.148 75.5209C104.078 75.5209 103.167 75.2297 102.414 74.6473C101.661 74.0602 101.086 73.2103 100.688 72.0976C100.29 70.9802 100.092 69.6307 100.092 68.0493C100.092 66.4773 100.29 65.135 100.688 64.0223C101.091 62.9049 101.668 62.0526 102.421 61.4655C103.179 60.8736 104.088 60.5777 105.148 60.5777C106.209 60.5777 107.116 60.8736 107.869 61.4655C108.626 62.0526 109.204 62.9049 109.602 64.0223C110.004 65.135 110.205 66.4773 110.205 68.0493C110.205 69.6307 110.006 70.9802 109.609 72.0976C109.211 73.2103 108.636 74.0602 107.883 74.6473C107.13 75.2297 106.219 75.5209 105.148 75.5209ZM105.148 73.9584C106.209 73.9584 107.033 73.447 107.62 72.4243C108.207 71.4016 108.501 69.9432 108.501 68.0493C108.501 66.7898 108.366 65.7174 108.096 64.832C107.831 63.9465 107.447 63.2718 106.945 62.8078C106.448 62.3438 105.849 62.1118 105.148 62.1118C104.097 62.1118 103.276 62.6303 102.684 63.6672C102.092 64.6994 101.796 66.1601 101.796 68.0493C101.796 69.3088 101.929 70.3788 102.194 71.2595C102.459 72.1402 102.84 72.8102 103.337 73.2695C103.839 73.7287 104.443 73.9584 105.148 73.9584Z" fill="#7B6532"/>
<path d="M139.396 60.5777C139.993 60.5824 140.589 60.6961 141.186 60.9186C141.782 61.1411 142.327 61.5105 142.819 62.0266C143.312 62.5379 143.707 63.2363 144.006 64.1217C144.304 65.0072 144.453 66.1175 144.453 67.4527C144.453 68.7453 144.33 69.8935 144.084 70.8973C143.842 71.8964 143.492 72.7392 143.032 73.4257C142.578 74.1123 142.024 74.6331 141.371 74.9882C140.722 75.3433 139.988 75.5209 139.169 75.5209C138.354 75.5209 137.628 75.3599 136.988 75.0379C136.354 74.7112 135.833 74.259 135.426 73.6814C135.023 73.099 134.765 72.4243 134.652 71.6572H136.385C136.541 72.3249 136.851 72.8765 137.315 73.3121C137.784 73.7429 138.402 73.9584 139.169 73.9584C140.291 73.9584 141.176 73.4683 141.825 72.4882C142.479 71.5081 142.805 70.1232 142.805 68.3334H142.692C142.426 68.7311 142.112 69.0744 141.747 69.3632C141.382 69.652 140.978 69.8746 140.532 70.0308C140.087 70.1871 139.614 70.2652 139.112 70.2652C138.279 70.2652 137.514 70.0592 136.818 69.6473C136.127 69.2306 135.573 68.6601 135.156 67.9357C134.744 67.2065 134.538 66.3732 134.538 65.4357C134.538 64.5455 134.737 63.7311 135.135 62.9925C135.537 62.2491 136.101 61.6572 136.825 61.2169C137.554 60.7766 138.411 60.5635 139.396 60.5777ZM139.396 62.1402C138.8 62.1402 138.262 62.2894 137.784 62.5876C137.31 62.8812 136.934 63.2789 136.655 63.7808C136.38 64.278 136.243 64.8296 136.243 65.4357C136.243 66.0417 136.375 66.5933 136.64 67.0905C136.91 67.5829 137.277 67.9759 137.741 68.2695C138.21 68.5583 138.743 68.7027 139.339 68.7027C139.789 68.7027 140.208 68.6151 140.596 68.4399C140.985 68.26 141.323 68.0162 141.612 67.7084C141.906 67.3959 142.135 67.0431 142.301 66.6501C142.467 66.2524 142.55 65.8381 142.55 65.4072C142.55 64.8391 142.412 64.3064 142.138 63.8092C141.868 63.3121 141.494 62.9096 141.015 62.6019C140.542 62.2941 140.002 62.1402 139.396 62.1402ZM151.99 75.5209C150.92 75.5209 150.009 75.2297 149.256 74.6473C148.503 74.0602 147.928 73.2103 147.53 72.0976C147.132 70.9802 146.933 69.6307 146.933 68.0493C146.933 66.4773 147.132 65.135 147.53 64.0223C147.932 62.9049 148.51 62.0526 149.263 61.4655C150.021 60.8736 150.93 60.5777 151.99 60.5777C153.051 60.5777 153.958 60.8736 154.71 61.4655C155.468 62.0526 156.046 62.9049 156.443 64.0223C156.846 65.135 157.047 66.4773 157.047 68.0493C157.047 69.6307 156.848 70.9802 156.45 72.0976C156.053 73.2103 155.477 74.0602 154.725 74.6473C153.972 75.2297 153.06 75.5209 151.99 75.5209ZM151.99 73.9584C153.051 73.9584 153.875 73.447 154.462 72.4243C155.049 71.4016 155.343 69.9432 155.343 68.0493C155.343 66.7898 155.208 65.7174 154.938 64.832C154.673 63.9465 154.289 63.2718 153.787 62.8078C153.29 62.3438 152.691 62.1118 151.99 62.1118C150.939 62.1118 150.118 62.6303 149.526 63.6672C148.934 64.6994 148.638 66.1601 148.638 68.0493C148.638 69.3088 148.771 70.3788 149.036 71.2595C149.301 72.1402 149.682 72.8102 150.179 73.2695C150.681 73.7287 151.285 73.9584 151.99 73.9584ZM164.49 75.5209C163.42 75.5209 162.509 75.2297 161.756 74.6473C161.003 74.0602 160.428 73.2103 160.03 72.0976C159.632 70.9802 159.433 69.6307 159.433 68.0493C159.433 66.4773 159.632 65.135 160.03 64.0223C160.432 62.9049 161.01 62.0526 161.763 61.4655C162.521 60.8736 163.43 60.5777 164.49 60.5777C165.551 60.5777 166.458 60.8736 167.21 61.4655C167.968 62.0526 168.546 62.9049 168.943 64.0223C169.346 65.135 169.547 66.4773 169.547 68.0493C169.547 69.6307 169.348 70.9802 168.95 72.0976C168.553 73.2103 167.977 74.0602 167.225 74.6473C166.472 75.2297 165.56 75.5209 164.49 75.5209ZM164.49 73.9584C165.551 73.9584 166.375 73.447 166.962 72.4243C167.549 71.4016 167.843 69.9432 167.843 68.0493C167.843 66.7898 167.708 65.7174 167.438 64.832C167.173 63.9465 166.789 63.2718 166.287 62.8078C165.79 62.3438 165.191 62.1118 164.49 62.1118C163.439 62.1118 162.618 62.6303 162.026 63.6672C161.434 64.6994 161.138 66.1601 161.138 68.0493C161.138 69.3088 161.271 70.3788 161.536 71.2595C161.801 72.1402 162.182 72.8102 162.679 73.2695C163.181 73.7287 163.785 73.9584 164.49 73.9584Z" fill="#90763B"/>
<path d="M203.503 75.5209C202.527 75.5209 201.666 75.3481 200.917 75.0024C200.174 74.652 199.594 74.1715 199.177 73.5607C198.761 72.9451 198.555 72.2444 198.559 71.4584C198.555 70.8429 198.675 70.2747 198.922 69.7538C199.168 69.2283 199.504 68.7903 199.93 68.4399C200.361 68.0848 200.842 67.8599 201.372 67.7652V67.68C200.676 67.5001 200.122 67.1094 199.71 66.5081C199.298 65.902 199.095 65.2131 199.099 64.4413C199.095 63.7027 199.282 63.0422 199.66 62.4598C200.039 61.8774 200.56 61.4181 201.223 61.082C201.89 60.7458 202.65 60.5777 203.503 60.5777C204.345 60.5777 205.098 60.7458 205.761 61.082C206.424 61.4181 206.945 61.8774 207.324 62.4598C207.707 63.0422 207.901 63.7027 207.906 64.4413C207.901 65.2131 207.691 65.902 207.274 66.5081C206.862 67.1094 206.315 67.5001 205.633 67.68V67.7652C206.159 67.8599 206.632 68.0848 207.054 68.4399C207.475 68.7903 207.811 69.2283 208.062 69.7538C208.313 70.2747 208.441 70.8429 208.446 71.4584C208.441 72.2444 208.228 72.9451 207.807 73.5607C207.39 74.1715 206.81 74.652 206.067 75.0024C205.328 75.3481 204.473 75.5209 203.503 75.5209ZM203.503 73.9584C204.161 73.9584 204.729 73.8519 205.207 73.6388C205.685 73.4257 206.055 73.1251 206.315 72.7368C206.576 72.3485 206.708 71.894 206.713 71.3732C206.708 70.8239 206.566 70.3386 206.287 69.9172C206.007 69.4958 205.626 69.1644 205.143 68.9229C204.665 68.6814 204.118 68.5607 203.503 68.5607C202.882 68.5607 202.328 68.6814 201.841 68.9229C201.358 69.1644 200.977 69.4958 200.697 69.9172C200.423 70.3386 200.288 70.8239 200.292 71.3732C200.288 71.894 200.413 72.3485 200.669 72.7368C200.929 73.1251 201.301 73.4257 201.784 73.6388C202.267 73.8519 202.84 73.9584 203.503 73.9584ZM203.503 67.055C204.023 67.055 204.485 66.9508 204.888 66.7425C205.295 66.5341 205.614 66.2429 205.846 65.8689C206.078 65.4948 206.197 65.0569 206.202 64.555C206.197 64.0626 206.081 63.634 205.854 63.2695C205.626 62.9001 205.311 62.6161 204.909 62.4172C204.506 62.2136 204.038 62.1118 203.503 62.1118C202.958 62.1118 202.482 62.2136 202.075 62.4172C201.668 62.6161 201.353 62.9001 201.131 63.2695C200.908 63.634 200.799 64.0626 200.804 64.555C200.799 65.0569 200.91 65.4948 201.138 65.8689C201.37 66.2429 201.689 66.5341 202.096 66.7425C202.504 66.9508 202.972 67.055 203.503 67.055ZM215.912 75.5209C214.842 75.5209 213.931 75.2297 213.178 74.6473C212.425 74.0602 211.85 73.2103 211.452 72.0976C211.054 70.9802 210.855 69.6307 210.855 68.0493C210.855 66.4773 211.054 65.135 211.452 64.0223C211.854 62.9049 212.432 62.0526 213.185 61.4655C213.942 60.8736 214.852 60.5777 215.912 60.5777C216.973 60.5777 217.879 60.8736 218.632 61.4655C219.39 62.0526 219.968 62.9049 220.365 64.0223C220.768 65.135 220.969 66.4773 220.969 68.0493C220.969 69.6307 220.77 70.9802 220.372 72.0976C219.975 73.2103 219.399 74.0602 218.646 74.6473C217.894 75.2297 216.982 75.5209 215.912 75.5209ZM215.912 73.9584C216.973 73.9584 217.797 73.447 218.384 72.4243C218.971 71.4016 219.264 69.9432 219.264 68.0493C219.264 66.7898 219.129 65.7174 218.86 64.832C218.594 63.9465 218.211 63.2718 217.709 62.8078C217.212 62.3438 216.613 62.1118 215.912 62.1118C214.861 62.1118 214.039 62.6303 213.448 63.6672C212.856 64.6994 212.56 66.1601 212.56 68.0493C212.56 69.3088 212.692 70.3788 212.958 71.2595C213.223 72.1402 213.604 72.8102 214.101 73.2695C214.603 73.7287 215.207 73.9584 215.912 73.9584ZM228.412 75.5209C227.342 75.5209 226.431 75.2297 225.678 74.6473C224.925 74.0602 224.35 73.2103 223.952 72.0976C223.554 70.9802 223.355 69.6307 223.355 68.0493C223.355 66.4773 223.554 65.135 223.952 64.0223C224.354 62.9049 224.932 62.0526 225.685 61.4655C226.442 60.8736 227.352 60.5777 228.412 60.5777C229.473 60.5777 230.379 60.8736 231.132 61.4655C231.89 62.0526 232.468 62.9049 232.865 64.0223C233.268 65.135 233.469 66.4773 233.469 68.0493C233.469 69.6307 233.27 70.9802 232.872 72.0976C232.475 73.2103 231.899 74.0602 231.146 74.6473C230.394 75.2297 229.482 75.5209 228.412 75.5209ZM228.412 73.9584C229.473 73.9584 230.297 73.447 230.884 72.4243C231.471 71.4016 231.764 69.9432 231.764 68.0493C231.764 66.7898 231.629 65.7174 231.36 64.832C231.094 63.9465 230.711 63.2718 230.209 62.8078C229.712 62.3438 229.113 62.1118 228.412 62.1118C227.361 62.1118 226.539 62.6303 225.948 63.6672C225.356 64.6994 225.06 66.1601 225.06 68.0493C225.06 69.3088 225.192 70.3788 225.458 71.2595C225.723 72.1402 226.104 72.8102 226.601 73.2695C227.103 73.7287 227.707 73.9584 228.412 73.9584Z" fill="#A48743"/>
<path d="M279.761 75.322L286.267 62.4527V62.3391H278.767V60.7766H288.085V62.4243L281.608 75.322H279.761ZM295.165 75.5209C294.094 75.5209 293.183 75.2297 292.43 74.6473C291.677 74.0602 291.102 73.2103 290.704 72.0976C290.307 70.9802 290.108 69.6307 290.108 68.0493C290.108 66.4773 290.307 65.135 290.704 64.0223C291.107 62.9049 291.684 62.0526 292.437 61.4655C293.195 60.8736 294.104 60.5777 295.165 60.5777C296.225 60.5777 297.132 60.8736 297.885 61.4655C298.642 62.0526 299.22 62.9049 299.618 64.0223C300.02 65.135 300.221 66.4773 300.221 68.0493C300.221 69.6307 300.023 70.9802 299.625 72.0976C299.227 73.2103 298.652 74.0602 297.899 74.6473C297.146 75.2297 296.235 75.5209 295.165 75.5209ZM295.165 73.9584C296.225 73.9584 297.049 73.447 297.636 72.4243C298.223 71.4016 298.517 69.9432 298.517 68.0493C298.517 66.7898 298.382 65.7174 298.112 64.832C297.847 63.9465 297.463 63.2718 296.961 62.8078C296.464 62.3438 295.865 62.1118 295.165 62.1118C294.113 62.1118 293.292 62.6303 292.7 63.6672C292.108 64.6994 291.812 66.1601 291.812 68.0493C291.812 69.3088 291.945 70.3788 292.21 71.2595C292.475 72.1402 292.856 72.8102 293.353 73.2695C293.855 73.7287 294.459 73.9584 295.165 73.9584ZM307.665 75.5209C306.594 75.5209 305.683 75.2297 304.93 74.6473C304.177 74.0602 303.602 73.2103 303.204 72.0976C302.807 70.9802 302.608 69.6307 302.608 68.0493C302.608 66.4773 302.807 65.135 303.204 64.0223C303.607 62.9049 304.184 62.0526 304.937 61.4655C305.695 60.8736 306.604 60.5777 307.665 60.5777C308.725 60.5777 309.632 60.8736 310.385 61.4655C311.142 62.0526 311.72 62.9049 312.118 64.0223C312.52 65.135 312.721 66.4773 312.721 68.0493C312.721 69.6307 312.523 70.9802 312.125 72.0976C311.727 73.2103 311.152 74.0602 310.399 74.6473C309.646 75.2297 308.735 75.5209 307.665 75.5209ZM307.665 73.9584C308.725 73.9584 309.549 73.447 310.136 72.4243C310.723 71.4016 311.017 69.9432 311.017 68.0493C311.017 66.7898 310.882 65.7174 310.612 64.832C310.347 63.9465 309.963 63.2718 309.461 62.8078C308.964 62.3438 308.365 62.1118 307.665 62.1118C306.613 62.1118 305.792 62.6303 305.2 63.6672C304.608 64.6994 304.312 66.1601 304.312 68.0493C304.312 69.3088 304.445 70.3788 304.71 71.2595C304.975 72.1402 305.356 72.8102 305.853 73.2695C306.355 73.7287 306.959 73.9584 307.665 73.9584Z" fill="#B8984C"/>
<path d="M363.311 75.5209C362.714 75.5114 362.118 75.3978 361.521 75.18C360.924 74.9622 360.38 74.5952 359.888 74.0791C359.395 73.5583 359 72.8552 358.701 71.9697C358.403 71.0796 358.254 69.9622 358.254 68.6175C358.254 67.3296 358.375 66.1885 358.616 65.1942C358.858 64.1951 359.208 63.3547 359.667 62.6729C360.127 61.9863 360.681 61.4655 361.329 61.1104C361.983 60.7553 362.719 60.5777 363.538 60.5777C364.352 60.5777 365.077 60.7411 365.711 61.0678C366.351 61.3897 366.871 61.8395 367.274 62.4172C367.676 62.9948 367.937 63.6601 368.055 64.4129H366.322C366.161 63.7595 365.849 63.2174 365.385 62.7865C364.921 62.3556 364.305 62.1402 363.538 62.1402C362.411 62.1402 361.523 62.6303 360.875 63.6104C360.231 64.5905 359.906 65.966 359.902 67.7368H360.015C360.281 67.3343 360.595 66.9911 360.96 66.707C361.329 66.4181 361.736 66.1956 362.182 66.0394C362.627 65.8831 363.098 65.805 363.595 65.805C364.428 65.805 365.191 66.0133 365.882 66.43C366.573 66.8419 367.127 67.4125 367.544 68.1416C367.96 68.8661 368.169 69.697 368.169 70.6345C368.169 71.5341 367.968 72.358 367.565 73.1061C367.163 73.8495 366.597 74.4413 365.868 74.8817C365.143 75.3173 364.291 75.5304 363.311 75.5209ZM363.311 73.9584C363.907 73.9584 364.442 73.8092 364.916 73.5109C365.394 73.2126 365.771 72.8126 366.045 72.3107C366.325 71.8088 366.464 71.2501 366.464 70.6345C366.464 70.0332 366.329 69.4863 366.059 68.9939C365.794 68.4967 365.427 68.1014 364.959 67.8078C364.495 67.5143 363.964 67.3675 363.368 67.3675C362.918 67.3675 362.499 67.4574 362.111 67.6374C361.722 67.8126 361.381 68.054 361.088 68.3618C360.799 68.6696 360.572 69.0223 360.406 69.42C360.24 69.813 360.157 70.2273 360.157 70.6629C360.157 71.2406 360.292 71.7804 360.562 72.2822C360.837 72.7841 361.211 73.189 361.684 73.4967C362.163 73.8045 362.705 73.9584 363.311 73.9584ZM375.706 75.5209C374.636 75.5209 373.725 75.2297 372.972 74.6473C372.219 74.0602 371.644 73.2103 371.246 72.0976C370.848 70.9802 370.649 69.6307 370.649 68.0493C370.649 66.4773 370.848 65.135 371.246 64.0223C371.648 62.9049 372.226 62.0526 372.979 61.4655C373.736 60.8736 374.645 60.5777 375.706 60.5777C376.767 60.5777 377.673 60.8736 378.426 61.4655C379.184 62.0526 379.761 62.9049 380.159 64.0223C380.562 65.135 380.763 66.4773 380.763 68.0493C380.763 69.6307 380.564 70.9802 380.166 72.0976C379.769 73.2103 379.193 74.0602 378.44 74.6473C377.688 75.2297 376.776 75.5209 375.706 75.5209ZM375.706 73.9584C376.767 73.9584 377.591 73.447 378.178 72.4243C378.765 71.4016 379.058 69.9432 379.058 68.0493C379.058 66.7898 378.923 65.7174 378.653 64.832C378.388 63.9465 378.005 63.2718 377.503 62.8078C377.006 62.3438 376.407 62.1118 375.706 62.1118C374.655 62.1118 373.833 62.6303 373.242 63.6672C372.65 64.6994 372.354 66.1601 372.354 68.0493C372.354 69.3088 372.486 70.3788 372.752 71.2595C373.017 72.1402 373.398 72.8102 373.895 73.2695C374.397 73.7287 375.001 73.9584 375.706 73.9584ZM388.206 75.5209C387.136 75.5209 386.225 75.2297 385.472 74.6473C384.719 74.0602 384.144 73.2103 383.746 72.0976C383.348 70.9802 383.149 69.6307 383.149 68.0493C383.149 66.4773 383.348 65.135 383.746 64.0223C384.148 62.9049 384.726 62.0526 385.479 61.4655C386.236 60.8736 387.145 60.5777 388.206 60.5777C389.267 60.5777 390.173 60.8736 390.926 61.4655C391.684 62.0526 392.261 62.9049 392.659 64.0223C393.062 65.135 393.263 66.4773 393.263 68.0493C393.263 69.6307 393.064 70.9802 392.666 72.0976C392.269 73.2103 391.693 74.0602 390.94 74.6473C390.188 75.2297 389.276 75.5209 388.206 75.5209ZM388.206 73.9584C389.267 73.9584 390.091 73.447 390.678 72.4243C391.265 71.4016 391.558 69.9432 391.558 68.0493C391.558 66.7898 391.423 65.7174 391.153 64.832C390.888 63.9465 390.505 63.2718 390.003 62.8078C389.506 62.3438 388.907 62.1118 388.206 62.1118C387.155 62.1118 386.333 62.6303 385.742 63.6672C385.15 64.6994 384.854 66.1601 384.854 68.0493C384.854 69.3088 384.986 70.3788 385.252 71.2595C385.517 72.1402 385.898 72.8102 386.395 73.2695C386.897 73.7287 387.501 73.9584 388.206 73.9584Z" fill="#CDA954"/>
<path d="M427.183 75.5209C426.35 75.5209 425.599 75.3552 424.932 75.0237C424.264 74.6923 423.729 74.2377 423.326 73.6601C422.924 73.0824 422.704 72.4243 422.666 71.6857H424.37C424.437 72.3438 424.735 72.8883 425.265 73.3192C425.8 73.7453 426.44 73.9584 427.183 73.9584C427.78 73.9584 428.31 73.8187 428.774 73.5394C429.243 73.26 429.61 72.8765 429.875 72.3888C430.145 71.8964 430.28 71.34 430.28 70.7197C430.28 70.0853 430.14 69.5195 429.861 69.0223C429.586 68.5204 429.207 68.1251 428.724 67.8362C428.241 67.5474 427.69 67.4006 427.069 67.3959C426.624 67.3912 426.167 67.4598 425.699 67.6019C425.23 67.7392 424.844 67.9167 424.541 68.1345L422.893 67.9357L423.774 60.7766H431.331V62.3391H425.251L424.74 66.6288H424.825C425.123 66.3921 425.497 66.1956 425.947 66.0394C426.397 65.8831 426.866 65.805 427.353 65.805C428.244 65.805 429.037 66.018 429.733 66.4442C430.433 66.8656 430.983 67.4432 431.38 68.1771C431.783 68.911 431.984 69.7491 431.984 70.6913C431.984 71.6194 431.776 72.448 431.359 73.1771C430.947 73.9016 430.379 74.4745 429.655 74.8959C428.93 75.3126 428.106 75.5209 427.183 75.5209ZM439.55 75.5209C438.48 75.5209 437.568 75.2297 436.815 74.6473C436.063 74.0602 435.487 73.2103 435.09 72.0976C434.692 70.9802 434.493 69.6307 434.493 68.0493C434.493 66.4773 434.692 65.135 435.09 64.0223C435.492 62.9049 436.07 62.0526 436.823 61.4655C437.58 60.8736 438.489 60.5777 439.55 60.5777C440.61 60.5777 441.517 60.8736 442.27 61.4655C443.028 62.0526 443.605 62.9049 444.003 64.0223C444.405 65.135 444.607 66.4773 444.607 68.0493C444.607 69.6307 444.408 70.9802 444.01 72.0976C443.612 73.2103 443.037 74.0602 442.284 74.6473C441.531 75.2297 440.62 75.5209 439.55 75.5209ZM439.55 73.9584C440.61 73.9584 441.434 73.447 442.021 72.4243C442.609 71.4016 442.902 69.9432 442.902 68.0493C442.902 66.7898 442.767 65.7174 442.497 64.832C442.232 63.9465 441.849 63.2718 441.347 62.8078C440.85 62.3438 440.251 62.1118 439.55 62.1118C438.499 62.1118 437.677 62.6303 437.085 63.6672C436.493 64.6994 436.198 66.1601 436.198 68.0493C436.198 69.3088 436.33 70.3788 436.595 71.2595C436.86 72.1402 437.242 72.8102 437.739 73.2695C438.241 73.7287 438.844 73.9584 439.55 73.9584ZM452.05 75.5209C450.98 75.5209 450.068 75.2297 449.315 74.6473C448.563 74.0602 447.987 73.2103 447.59 72.0976C447.192 70.9802 446.993 69.6307 446.993 68.0493C446.993 66.4773 447.192 65.135 447.59 64.0223C447.992 62.9049 448.57 62.0526 449.323 61.4655C450.08 60.8736 450.989 60.5777 452.05 60.5777C453.11 60.5777 454.017 60.8736 454.77 61.4655C455.528 62.0526 456.105 62.9049 456.503 64.0223C456.905 65.135 457.107 66.4773 457.107 68.0493C457.107 69.6307 456.908 70.9802 456.51 72.0976C456.112 73.2103 455.537 74.0602 454.784 74.6473C454.031 75.2297 453.12 75.5209 452.05 75.5209ZM452.05 73.9584C453.11 73.9584 453.934 73.447 454.521 72.4243C455.109 71.4016 455.402 69.9432 455.402 68.0493C455.402 66.7898 455.267 65.7174 454.997 64.832C454.732 63.9465 454.349 63.2718 453.847 62.8078C453.35 62.3438 452.751 62.1118 452.05 62.1118C450.999 62.1118 450.177 62.6303 449.585 63.6672C448.993 64.6994 448.698 66.1601 448.698 68.0493C448.698 69.3088 448.83 70.3788 449.095 71.2595C449.36 72.1402 449.742 72.8102 450.239 73.2695C450.741 73.7287 451.344 73.9584 452.05 73.9584Z" fill="#D2B265"/>
<path d="M485.965 72.3391V70.8902L492.357 60.7766H493.408V63.0209H492.698L487.868 70.6629V70.7766H496.476V72.3391H485.965ZM492.811 75.322V71.8987V71.224V60.7766H494.487V75.322H492.811ZM503.882 75.5209C502.812 75.5209 501.9 75.2297 501.147 74.6473C500.395 74.0602 499.819 73.2103 499.422 72.0976C499.024 70.9802 498.825 69.6307 498.825 68.0493C498.825 66.4773 499.024 65.135 499.422 64.0223C499.824 62.9049 500.402 62.0526 501.155 61.4655C501.912 60.8736 502.821 60.5777 503.882 60.5777C504.942 60.5777 505.849 60.8736 506.602 61.4655C507.36 62.0526 507.937 62.9049 508.335 64.0223C508.737 65.135 508.939 66.4773 508.939 68.0493C508.939 69.6307 508.74 70.9802 508.342 72.0976C507.944 73.2103 507.369 74.0602 506.616 74.6473C505.863 75.2297 504.952 75.5209 503.882 75.5209ZM503.882 73.9584C504.942 73.9584 505.766 73.447 506.353 72.4243C506.941 71.4016 507.234 69.9432 507.234 68.0493C507.234 66.7898 507.099 65.7174 506.829 64.832C506.564 63.9465 506.181 63.2718 505.679 62.8078C505.182 62.3438 504.583 62.1118 503.882 62.1118C502.831 62.1118 502.009 62.6303 501.417 63.6672C500.825 64.6994 500.53 66.1601 500.53 68.0493C500.53 69.3088 500.662 70.3788 500.927 71.2595C501.192 72.1402 501.574 72.8102 502.071 73.2695C502.573 73.7287 503.176 73.9584 503.882 73.9584ZM516.382 75.5209C515.312 75.5209 514.4 75.2297 513.647 74.6473C512.895 74.0602 512.319 73.2103 511.922 72.0976C511.524 70.9802 511.325 69.6307 511.325 68.0493C511.325 66.4773 511.524 65.135 511.922 64.0223C512.324 62.9049 512.902 62.0526 513.655 61.4655C514.412 60.8736 515.321 60.5777 516.382 60.5777C517.442 60.5777 518.349 60.8736 519.102 61.4655C519.86 62.0526 520.437 62.9049 520.835 64.0223C521.237 65.135 521.439 66.4773 521.439 68.0493C521.439 69.6307 521.24 70.9802 520.842 72.0976C520.444 73.2103 519.869 74.0602 519.116 74.6473C518.363 75.2297 517.452 75.5209 516.382 75.5209ZM516.382 73.9584C517.442 73.9584 518.266 73.447 518.853 72.4243C519.441 71.4016 519.734 69.9432 519.734 68.0493C519.734 66.7898 519.599 65.7174 519.329 64.832C519.064 63.9465 518.681 63.2718 518.179 62.8078C517.682 62.3438 517.083 62.1118 516.382 62.1118C515.331 62.1118 514.509 62.6303 513.917 63.6672C513.325 64.6994 513.03 66.1601 513.03 68.0493C513.03 69.3088 513.162 70.3788 513.427 71.2595C513.692 72.1402 514.074 72.8102 514.571 73.2695C515.073 73.7287 515.676 73.9584 516.382 73.9584Z" fill="#D7BA76"/>
<path d="M555.269 75.5209C554.332 75.5209 553.496 75.3599 552.762 75.0379C552.033 74.716 551.453 74.2685 551.022 73.6956C550.596 73.1179 550.364 72.448 550.326 71.6857H552.116C552.154 72.1544 552.315 72.5592 552.599 72.9001C552.883 73.2363 553.254 73.4967 553.714 73.6814C554.173 73.8661 554.682 73.9584 555.241 73.9584C555.866 73.9584 556.42 73.8495 556.903 73.6317C557.386 73.4139 557.764 73.1108 558.039 72.7226C558.314 72.3343 558.451 71.8845 558.451 71.3732C558.451 70.8381 558.318 70.367 558.053 69.9598C557.788 69.5479 557.4 69.2259 556.888 68.9939C556.377 68.7619 555.752 68.6459 555.013 68.6459H553.849V67.0834H555.013C555.591 67.0834 556.098 66.9792 556.533 66.7709C556.974 66.5626 557.317 66.269 557.563 65.8902C557.814 65.5114 557.94 65.0663 557.94 64.555C557.94 64.0626 557.831 63.634 557.613 63.2695C557.395 62.9049 557.087 62.6208 556.69 62.4172C556.297 62.2136 555.833 62.1118 555.297 62.1118C554.796 62.1118 554.322 62.2041 553.877 62.3888C553.437 62.5687 553.077 62.8315 552.797 63.1771C552.518 63.518 552.367 63.93 552.343 64.4129H550.638C550.667 63.6506 550.896 62.983 551.327 62.4101C551.758 61.8324 552.322 61.3826 553.018 61.0607C553.718 60.7387 554.488 60.5777 555.326 60.5777C556.226 60.5777 556.997 60.76 557.641 61.1246C558.285 61.4844 558.78 61.9603 559.126 62.5521C559.471 63.144 559.644 63.7832 559.644 64.4697C559.644 65.2889 559.429 65.9873 558.998 66.5649C558.572 67.1426 557.992 67.5427 557.258 67.7652V67.8788C558.176 68.0304 558.894 68.421 559.41 69.0507C559.926 69.6757 560.184 70.4499 560.184 71.3732C560.184 72.1639 559.968 72.8741 559.538 73.5038C559.111 74.1288 558.529 74.6213 557.79 74.9811C557.052 75.341 556.211 75.5209 555.269 75.5209ZM567.833 75.5209C566.763 75.5209 565.851 75.2297 565.099 74.6473C564.346 74.0602 563.771 73.2103 563.373 72.0976C562.975 70.9802 562.776 69.6307 562.776 68.0493C562.776 66.4773 562.975 65.135 563.373 64.0223C563.775 62.9049 564.353 62.0526 565.106 61.4655C565.863 60.8736 566.772 60.5777 567.833 60.5777C568.894 60.5777 569.8 60.8736 570.553 61.4655C571.311 62.0526 571.888 62.9049 572.286 64.0223C572.689 65.135 572.89 66.4773 572.89 68.0493C572.89 69.6307 572.691 70.9802 572.293 72.0976C571.896 73.2103 571.32 74.0602 570.567 74.6473C569.815 75.2297 568.903 75.5209 567.833 75.5209ZM567.833 73.9584C568.894 73.9584 569.717 73.447 570.305 72.4243C570.892 71.4016 571.185 69.9432 571.185 68.0493C571.185 66.7898 571.05 65.7174 570.78 64.832C570.515 63.9465 570.132 63.2718 569.63 62.8078C569.133 62.3438 568.534 62.1118 567.833 62.1118C566.782 62.1118 565.96 62.6303 565.369 63.6672C564.777 64.6994 564.481 66.1601 564.481 68.0493C564.481 69.3088 564.613 70.3788 564.878 71.2595C565.144 72.1402 565.525 72.8102 566.022 73.2695C566.524 73.7287 567.128 73.9584 567.833 73.9584ZM580.333 75.5209C579.263 75.5209 578.351 75.2297 577.599 74.6473C576.846 74.0602 576.271 73.2103 575.873 72.0976C575.475 70.9802 575.276 69.6307 575.276 68.0493C575.276 66.4773 575.475 65.135 575.873 64.0223C576.275 62.9049 576.853 62.0526 577.606 61.4655C578.363 60.8736 579.272 60.5777 580.333 60.5777C581.394 60.5777 582.3 60.8736 583.053 61.4655C583.811 62.0526 584.388 62.9049 584.786 64.0223C585.189 65.135 585.39 66.4773 585.39 68.0493C585.39 69.6307 585.191 70.9802 584.793 72.0976C584.396 73.2103 583.82 74.0602 583.067 74.6473C582.315 75.2297 581.403 75.5209 580.333 75.5209ZM580.333 73.9584C581.394 73.9584 582.217 73.447 582.805 72.4243C583.392 71.4016 583.685 69.9432 583.685 68.0493C583.685 66.7898 583.55 65.7174 583.28 64.832C583.015 63.9465 582.632 63.2718 582.13 62.8078C581.633 62.3438 581.034 62.1118 580.333 62.1118C579.282 62.1118 578.46 62.6303 577.869 63.6672C577.277 64.6994 576.981 66.1601 576.981 68.0493C576.981 69.3088 577.113 70.3788 577.378 71.2595C577.644 72.1402 578.025 72.8102 578.522 73.2695C579.024 73.7287 579.628 73.9584 580.333 73.9584Z" fill="#DCC387"/>
<path d="M294.586 177.736C295.367 178.517 296.633 178.517 297.414 177.736L310.142 165.008C310.923 164.227 310.923 162.961 310.142 162.18C309.361 161.399 308.095 161.399 307.314 162.18L296 173.494L284.686 162.18C283.905 161.399 282.639 161.399 281.858 162.18C281.077 162.961 281.077 164.227 281.858 165.008L294.586 177.736ZM294 112.322L294 176.322L298 176.322L298 112.322L294 112.322Z" fill="#9E9FA5"/>
<rect y="208.322" width="97" height="56" rx="12" fill="#292211"/>
<rect x="113" y="208.322" width="97" height="56" rx="12" fill="#7B6532"/>
<rect x="226" y="208.322" width="140" height="56" rx="12" fill="#CDA954"/>
<path d="M274.578 243.322V228.777H279.663C280.676 228.777 281.512 228.952 282.17 229.302C282.828 229.648 283.318 230.114 283.64 230.701C283.962 231.284 284.123 231.93 284.123 232.64C284.123 233.265 284.012 233.781 283.789 234.188C283.572 234.596 283.283 234.918 282.923 235.154C282.568 235.391 282.182 235.566 281.765 235.68V235.822C282.21 235.85 282.658 236.007 283.108 236.291C283.557 236.575 283.934 236.982 284.237 237.512C284.54 238.043 284.691 238.691 284.691 239.458C284.691 240.188 284.526 240.843 284.194 241.426C283.863 242.008 283.34 242.47 282.625 242.811C281.91 243.152 280.979 243.322 279.833 243.322H274.578ZM276.339 241.76H279.833C280.984 241.76 281.801 241.537 282.284 241.092C282.771 240.642 283.015 240.098 283.015 239.458C283.015 238.966 282.89 238.511 282.639 238.095C282.388 237.673 282.03 237.337 281.566 237.086C281.102 236.831 280.553 236.703 279.919 236.703H276.339V241.76ZM276.339 235.169H279.606C280.136 235.169 280.615 235.064 281.041 234.856C281.472 234.648 281.813 234.354 282.064 233.975C282.319 233.597 282.447 233.152 282.447 232.64C282.447 232.001 282.225 231.459 281.779 231.014C281.334 230.564 280.629 230.339 279.663 230.339H276.339V235.169ZM290.569 243.578C289.877 243.578 289.25 243.447 288.686 243.187C288.123 242.922 287.676 242.541 287.344 242.044C287.013 241.542 286.847 240.936 286.847 240.225C286.847 239.6 286.97 239.094 287.216 238.706C287.462 238.313 287.792 238.005 288.203 237.782C288.615 237.56 289.07 237.394 289.567 237.285C290.069 237.171 290.573 237.081 291.08 237.015C291.743 236.93 292.28 236.866 292.692 236.823C293.109 236.776 293.412 236.698 293.601 236.589C293.795 236.48 293.892 236.291 293.892 236.021V235.964C293.892 235.263 293.701 234.719 293.317 234.331C292.938 233.942 292.363 233.748 291.591 233.748C290.791 233.748 290.164 233.923 289.709 234.274C289.255 234.624 288.935 234.998 288.75 235.396L287.159 234.828C287.444 234.165 287.822 233.649 288.296 233.279C288.774 232.905 289.295 232.645 289.858 232.498C290.426 232.347 290.985 232.271 291.534 232.271C291.885 232.271 292.287 232.313 292.742 232.399C293.201 232.479 293.644 232.647 294.07 232.903C294.501 233.159 294.858 233.545 295.142 234.061C295.426 234.577 295.569 235.268 295.569 236.135V243.322H293.892V241.845H293.807C293.694 242.081 293.504 242.335 293.239 242.605C292.974 242.875 292.621 243.104 292.181 243.294C291.74 243.483 291.203 243.578 290.569 243.578ZM290.824 242.072C291.487 242.072 292.046 241.942 292.5 241.681C292.96 241.421 293.305 241.085 293.537 240.673C293.774 240.261 293.892 239.828 293.892 239.373V237.839C293.821 237.924 293.665 238.002 293.424 238.073C293.187 238.14 292.912 238.199 292.6 238.251C292.292 238.298 291.991 238.341 291.698 238.379C291.409 238.412 291.175 238.44 290.995 238.464C290.559 238.521 290.152 238.613 289.773 238.741C289.399 238.864 289.096 239.051 288.864 239.302C288.637 239.548 288.523 239.885 288.523 240.311C288.523 240.893 288.739 241.333 289.169 241.632C289.605 241.925 290.157 242.072 290.824 242.072ZM306.355 234.856L304.849 235.282C304.755 235.031 304.615 234.787 304.43 234.551C304.25 234.309 304.004 234.11 303.692 233.954C303.379 233.798 302.979 233.72 302.491 233.72C301.824 233.72 301.268 233.874 300.822 234.181C300.382 234.484 300.162 234.87 300.162 235.339C300.162 235.756 300.313 236.085 300.616 236.326C300.92 236.568 301.393 236.769 302.037 236.93L303.656 237.328C304.632 237.564 305.358 237.927 305.837 238.414C306.315 238.897 306.554 239.52 306.554 240.282C306.554 240.907 306.374 241.466 306.014 241.958C305.659 242.451 305.162 242.839 304.523 243.123C303.884 243.407 303.14 243.549 302.293 243.549C301.18 243.549 300.259 243.308 299.53 242.825C298.801 242.342 298.339 241.636 298.145 240.708L299.736 240.311C299.887 240.898 300.174 241.338 300.595 241.632C301.021 241.925 301.578 242.072 302.264 242.072C303.045 242.072 303.666 241.906 304.125 241.575C304.589 241.239 304.821 240.836 304.821 240.367C304.821 239.989 304.688 239.671 304.423 239.416C304.158 239.155 303.751 238.961 303.202 238.833L301.384 238.407C300.384 238.171 299.651 237.804 299.182 237.306C298.718 236.805 298.486 236.177 298.486 235.424C298.486 234.809 298.659 234.264 299.004 233.791C299.355 233.317 299.83 232.946 300.432 232.676C301.038 232.406 301.724 232.271 302.491 232.271C303.571 232.271 304.419 232.508 305.034 232.981C305.654 233.455 306.095 234.08 306.355 234.856ZM313.651 243.549C312.6 243.549 311.693 243.317 310.931 242.853C310.173 242.385 309.588 241.731 309.176 240.893C308.769 240.05 308.566 239.07 308.566 237.953C308.566 236.835 308.769 235.85 309.176 234.998C309.588 234.141 310.161 233.474 310.895 232.995C311.634 232.512 312.496 232.271 313.48 232.271C314.049 232.271 314.61 232.366 315.164 232.555C315.718 232.744 316.222 233.052 316.676 233.478C317.131 233.9 317.493 234.458 317.763 235.154C318.033 235.85 318.168 236.707 318.168 237.725V238.436H309.759V236.987H316.463C316.463 236.371 316.34 235.822 316.094 235.339C315.853 234.856 315.507 234.475 315.057 234.196C314.612 233.916 314.087 233.777 313.48 233.777C312.813 233.777 312.235 233.942 311.748 234.274C311.265 234.6 310.893 235.027 310.632 235.552C310.372 236.078 310.242 236.641 310.242 237.242V238.208C310.242 239.032 310.384 239.731 310.668 240.304C310.957 240.872 311.357 241.305 311.868 241.603C312.38 241.897 312.974 242.044 313.651 242.044C314.091 242.044 314.489 241.982 314.844 241.859C315.204 241.731 315.514 241.542 315.775 241.291C316.035 241.035 316.236 240.718 316.378 240.339L317.998 240.794C317.827 241.343 317.541 241.826 317.138 242.242C316.736 242.654 316.239 242.976 315.647 243.208C315.055 243.436 314.39 243.549 313.651 243.549Z" fill="#F5EEDD"/>
<rect x="382" y="208.322" width="97" height="56" rx="12" fill="#E1CB98"/>
<rect x="495" y="208.322" width="97" height="56" rx="12" fill="#F5EEDD"/>
<path d="M48.5298 284.777V299.322H45.4545V287.696H45.3692L42.0383 289.784V287.056L45.6391 284.777H48.5298ZM57.6899 299.642C56.4683 299.637 55.4172 299.336 54.5365 298.74C53.6606 298.143 52.9858 297.279 52.5124 296.147C52.0436 295.016 51.8116 293.654 51.8163 292.063C51.8163 290.477 52.0507 289.126 52.5195 288.008C52.9929 286.891 53.6677 286.041 54.5436 285.458C55.4243 284.871 56.4731 284.578 57.6899 284.578C58.9068 284.578 59.9532 284.871 60.8291 285.458C61.7098 286.046 62.3869 286.898 62.8604 288.015C63.3339 289.128 63.5682 290.477 63.5635 292.063C63.5635 293.659 63.3268 295.023 62.8533 296.154C62.3845 297.286 61.7122 298.15 60.8362 298.747C59.9603 299.343 58.9115 299.642 57.6899 299.642ZM57.6899 297.092C58.5232 297.092 59.1885 296.673 59.6857 295.835C60.1828 294.997 60.429 293.74 60.4243 292.063C60.4243 290.96 60.3107 290.042 60.0834 289.308C59.8608 288.574 59.5436 288.022 59.1317 287.653C58.7245 287.284 58.2439 287.099 57.6899 287.099C56.8613 287.099 56.1984 287.513 55.7013 288.342C55.2041 289.171 54.9532 290.411 54.9484 292.063C54.9484 293.181 55.0597 294.114 55.2822 294.862C55.5095 295.605 55.8291 296.164 56.2411 296.538C56.653 296.907 57.1359 297.092 57.6899 297.092Z" fill="#47402F"/>
<path d="M167.478 299.521C166.418 299.521 165.473 299.339 164.645 298.974C163.821 298.605 163.17 298.098 162.692 297.454C162.218 296.805 161.974 296.057 161.96 295.21H165.057C165.076 295.565 165.192 295.877 165.405 296.147C165.622 296.412 165.911 296.618 166.271 296.765C166.631 296.912 167.036 296.985 167.486 296.985C167.954 296.985 168.369 296.903 168.728 296.737C169.088 296.571 169.37 296.341 169.574 296.048C169.777 295.754 169.879 295.416 169.879 295.032C169.879 294.644 169.77 294.301 169.552 294.002C169.339 293.699 169.031 293.463 168.629 293.292C168.231 293.122 167.758 293.037 167.209 293.037H165.852V290.778H167.209C167.673 290.778 168.082 290.697 168.437 290.537C168.797 290.376 169.076 290.153 169.275 289.869C169.474 289.58 169.574 289.244 169.574 288.86C169.574 288.496 169.486 288.176 169.311 287.902C169.14 287.622 168.899 287.404 168.586 287.248C168.279 287.092 167.919 287.014 167.507 287.014C167.09 287.014 166.709 287.09 166.363 287.241C166.018 287.388 165.741 287.599 165.532 287.873C165.324 288.148 165.213 288.47 165.199 288.839H162.251C162.265 288.001 162.504 287.262 162.969 286.623C163.433 285.984 164.058 285.484 164.844 285.125C165.634 284.76 166.527 284.578 167.521 284.578C168.525 284.578 169.403 284.76 170.156 285.125C170.909 285.489 171.494 285.982 171.91 286.602C172.332 287.217 172.54 287.909 172.535 288.676C172.54 289.49 172.287 290.17 171.775 290.714C171.269 291.259 170.608 291.604 169.794 291.751V291.865C170.864 292.002 171.678 292.374 172.237 292.98C172.8 293.581 173.08 294.334 173.075 295.238C173.08 296.067 172.841 296.803 172.358 297.447C171.879 298.091 171.219 298.598 170.376 298.967C169.533 299.336 168.567 299.521 167.478 299.521ZM180.989 299.642C179.767 299.637 178.716 299.336 177.835 298.74C176.959 298.143 176.285 297.279 175.811 296.147C175.342 295.016 175.11 293.654 175.115 292.063C175.115 290.477 175.35 289.126 175.818 288.008C176.292 286.891 176.966 286.041 177.842 285.458C178.723 284.871 179.772 284.578 180.989 284.578C182.206 284.578 183.252 284.871 184.128 285.458C185.009 286.046 185.686 286.898 186.159 288.015C186.633 289.128 186.867 290.477 186.862 292.063C186.862 293.659 186.626 295.023 186.152 296.154C185.683 297.286 185.011 298.15 184.135 298.747C183.259 299.343 182.21 299.642 180.989 299.642ZM180.989 297.092C181.822 297.092 182.487 296.673 182.984 295.835C183.482 294.997 183.728 293.74 183.723 292.063C183.723 290.96 183.609 290.042 183.382 289.308C183.16 288.574 182.842 288.022 182.431 287.653C182.023 287.284 181.543 287.099 180.989 287.099C180.16 287.099 179.497 287.513 179 288.342C178.503 289.171 178.252 290.411 178.247 292.063C178.247 293.181 178.359 294.114 178.581 294.862C178.808 295.605 179.128 296.164 179.54 296.538C179.952 296.907 180.435 297.092 180.989 297.092Z" fill="#7B6532"/>
<path d="M289.162 299.521C288.158 299.521 287.263 299.336 286.477 298.967C285.696 298.598 285.075 298.089 284.616 297.44C284.157 296.791 283.918 296.048 283.899 295.21H286.882C286.915 295.773 287.152 296.23 287.592 296.581C288.032 296.931 288.556 297.106 289.162 297.106C289.645 297.106 290.071 297 290.44 296.787C290.814 296.569 291.105 296.268 291.314 295.885C291.527 295.496 291.633 295.051 291.633 294.549C291.633 294.038 291.524 293.588 291.306 293.2C291.093 292.812 290.797 292.509 290.419 292.291C290.04 292.073 289.607 291.962 289.119 291.957C288.693 291.957 288.279 292.045 287.876 292.22C287.478 292.395 287.168 292.634 286.946 292.937L284.211 292.447L284.9 284.777H293.792V287.291H287.436L287.059 290.934H287.145C287.4 290.574 287.786 290.276 288.302 290.039C288.818 289.803 289.396 289.684 290.035 289.684C290.911 289.684 291.692 289.89 292.379 290.302C293.065 290.714 293.608 291.28 294.005 292C294.403 292.715 294.6 293.538 294.595 294.471C294.6 295.451 294.372 296.322 293.913 297.085C293.458 297.842 292.822 298.439 292.003 298.875C291.188 299.305 290.241 299.521 289.162 299.521ZM302.443 299.642C301.221 299.637 300.17 299.336 299.289 298.74C298.413 298.143 297.739 297.279 297.265 296.147C296.797 295.016 296.565 293.654 296.569 292.063C296.569 290.477 296.804 289.126 297.272 288.008C297.746 286.891 298.421 286.041 299.297 285.458C300.177 284.871 301.226 284.578 302.443 284.578C303.66 284.578 304.706 284.871 305.582 285.458C306.463 286.046 307.14 286.898 307.613 288.015C308.087 289.128 308.321 290.477 308.316 292.063C308.316 293.659 308.08 295.023 307.606 296.154C307.137 297.286 306.465 298.15 305.589 298.747C304.713 299.343 303.664 299.642 302.443 299.642ZM302.443 297.092C303.276 297.092 303.941 296.673 304.439 295.835C304.936 294.997 305.182 293.74 305.177 292.063C305.177 290.96 305.064 290.042 304.836 289.308C304.614 288.574 304.297 288.022 303.885 287.653C303.477 287.284 302.997 287.099 302.443 287.099C301.614 287.099 300.951 287.513 300.454 288.342C299.957 289.171 299.706 290.411 299.701 292.063C299.701 293.181 299.813 294.114 300.035 294.862C300.262 295.605 300.582 296.164 300.994 296.538C301.406 296.907 301.889 297.092 302.443 297.092Z" fill="#CDA954"/>
<path d="M406.678 299.322L412.708 287.39V287.291H405.684V284.777H415.89V287.326L409.853 299.322H406.678ZM423.388 299.642C422.167 299.637 421.115 299.336 420.235 298.74C419.359 298.143 418.684 297.279 418.211 296.147C417.742 295.016 417.51 293.654 417.515 292.063C417.515 290.477 417.749 289.126 418.218 288.008C418.691 286.891 419.366 286.041 420.242 285.458C421.123 284.871 422.171 284.578 423.388 284.578C424.605 284.578 425.651 284.871 426.527 285.458C427.408 286.046 428.085 286.898 428.559 288.015C429.032 289.128 429.266 290.477 429.262 292.063C429.262 293.659 429.025 295.023 428.552 296.154C428.083 297.286 427.41 298.15 426.534 298.747C425.659 299.343 424.61 299.642 423.388 299.642ZM423.388 297.092C424.221 297.092 424.887 296.673 425.384 295.835C425.881 294.997 426.127 293.74 426.123 292.063C426.123 290.96 426.009 290.042 425.782 289.308C425.559 288.574 425.242 288.022 424.83 287.653C424.423 287.284 423.942 287.099 423.388 287.099C422.56 287.099 421.897 287.513 421.4 288.342C420.902 289.171 420.651 290.411 420.647 292.063C420.647 293.181 420.758 294.114 420.98 294.862C421.208 295.605 421.527 296.164 421.939 296.538C422.351 296.907 422.834 297.092 423.388 297.092Z" fill="#E1CB98"/>
<path d="M532.156 284.578C532.904 284.578 533.624 284.703 534.315 284.954C535.011 285.205 535.631 285.605 536.176 286.154C536.725 286.704 537.158 287.433 537.475 288.342C537.797 289.246 537.961 290.357 537.965 291.673C537.965 292.909 537.826 294.012 537.546 294.983C537.272 295.948 536.876 296.77 536.36 297.447C535.844 298.124 535.222 298.64 534.492 298.995C533.763 299.346 532.949 299.521 532.049 299.521C531.079 299.521 530.222 299.334 529.478 298.96C528.735 298.581 528.136 298.067 527.681 297.419C527.232 296.765 526.959 296.031 526.865 295.217H529.897C530.016 295.747 530.264 296.159 530.643 296.453C531.022 296.742 531.491 296.886 532.049 296.886C532.996 296.886 533.716 296.474 534.208 295.65C534.701 294.822 534.949 293.688 534.954 292.248H534.855C534.637 292.674 534.343 293.041 533.974 293.349C533.605 293.652 533.181 293.886 532.703 294.052C532.229 294.218 531.725 294.301 531.19 294.301C530.333 294.301 529.568 294.099 528.896 293.697C528.224 293.295 527.693 292.741 527.305 292.035C526.917 291.33 526.723 290.525 526.723 289.62C526.718 288.645 526.943 287.776 527.397 287.014C527.852 286.251 528.486 285.655 529.301 285.224C530.12 284.788 531.072 284.573 532.156 284.578ZM532.177 286.992C531.699 286.992 531.273 287.106 530.899 287.333C530.529 287.561 530.236 287.866 530.018 288.25C529.805 288.633 529.701 289.062 529.706 289.535C529.706 290.013 529.81 290.444 530.018 290.828C530.231 291.206 530.52 291.51 530.885 291.737C531.254 291.959 531.675 292.071 532.149 292.071C532.504 292.071 532.833 292.004 533.136 291.872C533.439 291.739 533.702 291.557 533.924 291.325C534.152 291.088 534.329 290.816 534.457 290.508C534.585 290.2 534.649 289.874 534.649 289.528C534.644 289.069 534.535 288.647 534.322 288.264C534.109 287.88 533.815 287.572 533.441 287.34C533.067 287.108 532.646 286.992 532.177 286.992ZM545.799 299.642C544.578 299.637 543.527 299.336 542.646 298.74C541.77 298.143 541.095 297.279 540.622 296.147C540.153 295.016 539.921 293.654 539.926 292.063C539.926 290.477 540.16 289.126 540.629 288.008C541.102 286.891 541.777 286.041 542.653 285.458C543.534 284.871 544.582 284.578 545.799 284.578C547.016 284.578 548.063 284.871 548.938 285.458C549.819 286.046 550.496 286.898 550.97 288.015C551.443 289.128 551.678 290.477 551.673 292.063C551.673 293.659 551.436 295.023 550.963 296.154C550.494 297.286 549.822 298.15 548.946 298.747C548.07 299.343 547.021 299.642 545.799 299.642ZM545.799 297.092C546.633 297.092 547.298 296.673 547.795 295.835C548.292 294.997 548.538 293.74 548.534 292.063C548.534 290.96 548.42 290.042 548.193 289.308C547.97 288.574 547.653 288.022 547.241 287.653C546.834 287.284 546.353 287.099 545.799 287.099C544.971 287.099 544.308 287.513 543.811 288.342C543.313 289.171 543.063 290.411 543.058 292.063C543.058 293.181 543.169 294.114 543.392 294.862C543.619 295.605 543.938 296.164 544.35 296.538C544.762 296.907 545.245 297.092 545.799 297.092Z" fill="#F5EEDD"/>
</svg>
