<svg width="1952" height="192" viewBox="0 0 1952 192" fill="none" xmlns="http://www.w3.org/2000/svg">
<g clip-path="url(#clip0_1039_1606)">
<g opacity="0.4">
<rect width="24.1374" height="24.1371" fill="#EBEBEB"/>
<rect y="96.5498" width="24.1374" height="24.1371" fill="#EBEBEB"/>
<rect y="48.2744" width="24.1374" height="24.1371" fill="#EBEBEB"/>
<rect y="144.824" width="24.1374" height="24.1371" fill="#EBEBEB"/>
<rect x="386.199" width="24.1374" height="24.1371" fill="#EBEBEB"/>
<rect x="386.199" y="96.5498" width="24.1374" height="24.1371" fill="#EBEBEB"/>
<rect x="386.199" y="48.2744" width="24.1374" height="24.1371" fill="#EBEBEB"/>
<rect x="386.199" y="144.824" width="24.1374" height="24.1371" fill="#EBEBEB"/>
<rect x="193.099" width="24.1374" height="24.1371" fill="#EBEBEB"/>
<rect x="193.099" y="96.5498" width="24.1374" height="24.1371" fill="#EBEBEB"/>
<rect x="193.099" y="48.2744" width="24.1374" height="24.1371" fill="#EBEBEB"/>
<rect x="193.099" y="144.824" width="24.1374" height="24.1371" fill="#EBEBEB"/>
<rect x="579.298" width="24.1374" height="24.1371" fill="#EBEBEB"/>
<rect x="579.298" y="96.5498" width="24.1374" height="24.1371" fill="#EBEBEB"/>
<rect x="579.298" y="48.2744" width="24.1374" height="24.1371" fill="#EBEBEB"/>
<rect x="579.298" y="144.824" width="24.1374" height="24.1371" fill="#EBEBEB"/>
<rect x="820.672" width="24.1374" height="24.1371" fill="#EBEBEB"/>
<rect x="820.672" y="96.5498" width="24.1374" height="24.1371" fill="#EBEBEB"/>
<rect x="820.672" y="48.2744" width="24.1374" height="24.1371" fill="#EBEBEB"/>
<rect x="820.672" y="144.824" width="24.1374" height="24.1371" fill="#EBEBEB"/>
<rect x="1062.04" width="24.1374" height="24.1371" fill="#EBEBEB"/>
<rect x="1930.81" width="24.1374" height="24.1371" fill="#EBEBEB"/>
<rect x="1062.04" y="96.5498" width="24.1374" height="24.1371" fill="#EBEBEB"/>
<rect x="1930.81" y="96.5498" width="24.1374" height="24.1371" fill="#EBEBEB"/>
<rect x="1062.04" y="48.2744" width="24.1374" height="24.1371" fill="#EBEBEB"/>
<rect x="1930.81" y="48.2744" width="24.1374" height="24.1371" fill="#EBEBEB"/>
<rect x="1062.04" y="144.824" width="24.1374" height="24.1371" fill="#EBEBEB"/>
<rect x="1930.81" y="144.824" width="24.1374" height="24.1371" fill="#EBEBEB"/>
<rect x="1303.42" width="24.1374" height="24.1371" fill="#EBEBEB"/>
<rect x="1303.42" y="96.5498" width="24.1374" height="24.1371" fill="#EBEBEB"/>
<rect x="1303.42" y="48.2744" width="24.1374" height="24.1371" fill="#EBEBEB"/>
<rect x="1303.42" y="144.824" width="24.1374" height="24.1371" fill="#EBEBEB"/>
<rect x="1544.79" width="24.1374" height="24.1371" fill="#EBEBEB"/>
<rect x="1544.79" y="96.5498" width="24.1374" height="24.1371" fill="#EBEBEB"/>
<rect x="1544.79" y="48.2744" width="24.1374" height="24.1371" fill="#EBEBEB"/>
<rect x="1544.79" y="144.824" width="24.1374" height="24.1371" fill="#EBEBEB"/>
<rect x="96.5498" width="24.1374" height="24.1371" fill="#EBEBEB"/>
<rect x="96.5498" y="96.5498" width="24.1374" height="24.1371" fill="#EBEBEB"/>
<rect x="96.5498" y="48.2744" width="24.1374" height="24.1371" fill="#EBEBEB"/>
<rect x="96.5498" y="144.824" width="24.1374" height="24.1371" fill="#EBEBEB"/>
<rect x="482.747" width="24.1374" height="24.1371" fill="#EBEBEB"/>
<rect x="482.747" y="96.5498" width="24.1374" height="24.1371" fill="#EBEBEB"/>
<rect x="482.747" y="48.2744" width="24.1374" height="24.1371" fill="#EBEBEB"/>
<rect x="482.747" y="144.824" width="24.1374" height="24.1371" fill="#EBEBEB"/>
<rect x="289.648" width="24.1374" height="24.1371" fill="#EBEBEB"/>
<rect x="289.648" y="96.5498" width="24.1374" height="24.1371" fill="#EBEBEB"/>
<rect x="289.648" y="48.2744" width="24.1374" height="24.1371" fill="#EBEBEB"/>
<rect x="289.648" y="144.824" width="24.1374" height="24.1371" fill="#EBEBEB"/>
<rect x="675.848" width="24.1374" height="24.1371" fill="#EBEBEB"/>
<rect x="675.848" y="96.5498" width="24.1374" height="24.1371" fill="#EBEBEB"/>
<rect x="675.848" y="48.2744" width="24.1374" height="24.1371" fill="#EBEBEB"/>
<rect x="675.848" y="144.824" width="24.1374" height="24.1371" fill="#EBEBEB"/>
<rect x="917.221" width="24.1374" height="24.1371" fill="#EBEBEB"/>
<rect x="1785.98" width="24.1374" height="24.1371" fill="#EBEBEB"/>
<rect x="917.221" y="96.5498" width="24.1374" height="24.1371" fill="#EBEBEB"/>
<rect x="1785.98" y="96.5498" width="24.1374" height="24.1371" fill="#EBEBEB"/>
<rect x="917.221" y="48.2744" width="24.1374" height="24.1371" fill="#EBEBEB"/>
<rect x="1785.98" y="48.2744" width="24.1374" height="24.1371" fill="#EBEBEB"/>
<rect x="917.221" y="144.824" width="24.1374" height="24.1371" fill="#EBEBEB"/>
<rect x="1785.98" y="144.824" width="24.1374" height="24.1371" fill="#EBEBEB"/>
<rect x="1158.59" width="24.1374" height="24.1371" fill="#EBEBEB"/>
<rect x="1158.59" y="96.5498" width="24.1374" height="24.1371" fill="#EBEBEB"/>
<rect x="1158.59" y="48.2744" width="24.1374" height="24.1371" fill="#EBEBEB"/>
<rect x="1158.59" y="144.824" width="24.1374" height="24.1371" fill="#EBEBEB"/>
<rect x="1399.96" width="24.1374" height="24.1371" fill="#EBEBEB"/>
<rect x="1399.97" y="96.5498" width="24.1374" height="24.1371" fill="#EBEBEB"/>
<rect x="1399.97" y="48.2744" width="24.1374" height="24.1371" fill="#EBEBEB"/>
<rect x="1399.97" y="144.824" width="24.1374" height="24.1371" fill="#EBEBEB"/>
<rect x="1641.34" width="24.1374" height="24.1371" fill="#EBEBEB"/>
<rect x="1641.34" y="96.5498" width="24.1374" height="24.1371" fill="#EBEBEB"/>
<rect x="1641.34" y="48.2744" width="24.1374" height="24.1371" fill="#EBEBEB"/>
<rect x="1641.34" y="144.824" width="24.1374" height="24.1371" fill="#EBEBEB"/>
<rect x="48.2744" width="24.1374" height="24.1371" fill="#EBEBEB"/>
<rect x="48.2744" y="96.5498" width="24.1374" height="24.1371" fill="#EBEBEB"/>
<rect x="48.2744" y="48.2744" width="24.1374" height="24.1371" fill="#EBEBEB"/>
<rect x="48.2744" y="144.824" width="24.1374" height="24.1371" fill="#EBEBEB"/>
<rect x="434.473" width="24.1374" height="24.1371" fill="#EBEBEB"/>
<rect x="434.473" y="96.5498" width="24.1374" height="24.1371" fill="#EBEBEB"/>
<rect x="434.473" y="48.2744" width="24.1374" height="24.1371" fill="#EBEBEB"/>
<rect x="434.473" y="144.824" width="24.1374" height="24.1371" fill="#EBEBEB"/>
<rect x="241.374" width="24.1374" height="24.1371" fill="#EBEBEB"/>
<rect x="241.374" y="96.5498" width="24.1374" height="24.1371" fill="#EBEBEB"/>
<rect x="241.374" y="48.2744" width="24.1374" height="24.1371" fill="#EBEBEB"/>
<rect x="241.374" y="144.824" width="24.1374" height="24.1371" fill="#EBEBEB"/>
<rect x="627.571" width="24.1374" height="24.1371" fill="#EBEBEB"/>
<rect x="627.571" y="96.5498" width="24.1374" height="24.1371" fill="#EBEBEB"/>
<rect x="627.571" y="48.2744" width="24.1374" height="24.1371" fill="#EBEBEB"/>
<rect x="627.571" y="144.824" width="24.1374" height="24.1371" fill="#EBEBEB"/>
<rect x="868.946" width="24.1374" height="24.1371" fill="#EBEBEB"/>
<rect x="1737.71" width="24.1374" height="24.1371" fill="#EBEBEB"/>
<rect x="868.946" y="96.5498" width="24.1374" height="24.1371" fill="#EBEBEB"/>
<rect x="1737.71" y="96.5498" width="24.1374" height="24.1371" fill="#EBEBEB"/>
<rect x="868.946" y="48.2744" width="24.1374" height="24.1371" fill="#EBEBEB"/>
<rect x="1737.71" y="48.2744" width="24.1374" height="24.1371" fill="#EBEBEB"/>
<rect x="868.946" y="144.824" width="24.1374" height="24.1371" fill="#EBEBEB"/>
<rect x="1737.71" y="144.824" width="24.1374" height="24.1371" fill="#EBEBEB"/>
<rect x="1110.32" width="24.1374" height="24.1371" fill="#EBEBEB"/>
<rect x="1110.32" y="96.5498" width="24.1374" height="24.1371" fill="#EBEBEB"/>
<rect x="1110.32" y="48.2744" width="24.1374" height="24.1371" fill="#EBEBEB"/>
<rect x="1110.32" y="144.824" width="24.1374" height="24.1371" fill="#EBEBEB"/>
<rect x="1351.69" width="24.1374" height="24.1371" fill="#EBEBEB"/>
<rect x="1351.69" y="96.5498" width="24.1374" height="24.1371" fill="#EBEBEB"/>
<rect x="1351.69" y="48.2744" width="24.1374" height="24.1371" fill="#EBEBEB"/>
<rect x="1351.69" y="144.824" width="24.1374" height="24.1371" fill="#EBEBEB"/>
<rect x="1593.07" width="24.1374" height="24.1371" fill="#EBEBEB"/>
<rect x="1593.07" y="96.5498" width="24.1374" height="24.1371" fill="#EBEBEB"/>
<rect x="1593.07" y="48.2744" width="24.1374" height="24.1371" fill="#EBEBEB"/>
<rect x="1593.07" y="144.824" width="24.1374" height="24.1371" fill="#EBEBEB"/>
<rect x="144.824" width="24.1374" height="24.1371" fill="#EBEBEB"/>
<rect x="144.824" y="96.5498" width="24.1374" height="24.1371" fill="#EBEBEB"/>
<rect x="144.824" y="48.2744" width="24.1374" height="24.1371" fill="#EBEBEB"/>
<rect x="144.824" y="144.824" width="24.1374" height="24.1371" fill="#EBEBEB"/>
<rect x="531.023" width="24.1374" height="24.1371" fill="#EBEBEB"/>
<rect x="531.023" y="96.5498" width="24.1374" height="24.1371" fill="#EBEBEB"/>
<rect x="531.023" y="48.2744" width="24.1374" height="24.1371" fill="#EBEBEB"/>
<rect x="531.023" y="144.824" width="24.1374" height="24.1371" fill="#EBEBEB"/>
<rect x="772.396" width="24.1374" height="24.1371" fill="#EBEBEB"/>
<rect x="772.396" y="96.5498" width="24.1374" height="24.1371" fill="#EBEBEB"/>
<rect x="772.396" y="48.2744" width="24.1374" height="24.1371" fill="#EBEBEB"/>
<rect x="772.396" y="144.824" width="24.1374" height="24.1371" fill="#EBEBEB"/>
<rect x="1013.77" width="24.1374" height="24.1371" fill="#EBEBEB"/>
<rect x="1882.53" width="24.1374" height="24.1371" fill="#EBEBEB"/>
<rect x="1013.77" y="96.5498" width="24.1374" height="24.1371" fill="#EBEBEB"/>
<rect x="1882.53" y="96.5498" width="24.1374" height="24.1371" fill="#EBEBEB"/>
<rect x="1013.77" y="48.2744" width="24.1374" height="24.1371" fill="#EBEBEB"/>
<rect x="1882.53" y="48.2744" width="24.1374" height="24.1371" fill="#EBEBEB"/>
<rect x="1013.77" y="144.824" width="24.1374" height="24.1371" fill="#EBEBEB"/>
<rect x="1882.53" y="144.824" width="24.1374" height="24.1371" fill="#EBEBEB"/>
<rect x="1255.14" width="24.1374" height="24.1371" fill="#EBEBEB"/>
<rect x="1255.14" y="96.5498" width="24.1374" height="24.1371" fill="#EBEBEB"/>
<rect x="1255.14" y="48.2744" width="24.1374" height="24.1371" fill="#EBEBEB"/>
<rect x="1255.14" y="144.824" width="24.1374" height="24.1371" fill="#EBEBEB"/>
<rect x="1496.51" width="24.1374" height="24.1371" fill="#EBEBEB"/>
<rect x="1496.51" y="96.5498" width="24.1374" height="24.1371" fill="#EBEBEB"/>
<rect x="1496.51" y="48.2744" width="24.1374" height="24.1371" fill="#EBEBEB"/>
<rect x="1496.51" y="144.824" width="24.1374" height="24.1371" fill="#EBEBEB"/>
<rect x="337.923" width="24.1374" height="24.1371" fill="#EBEBEB"/>
<rect x="337.923" y="96.5498" width="24.1374" height="24.1371" fill="#EBEBEB"/>
<rect x="337.923" y="48.2744" width="24.1374" height="24.1371" fill="#EBEBEB"/>
<rect x="337.923" y="144.824" width="24.1374" height="24.1371" fill="#EBEBEB"/>
<rect x="724.122" width="24.1374" height="24.1371" fill="#EBEBEB"/>
<rect x="724.122" y="96.5498" width="24.1374" height="24.1371" fill="#EBEBEB"/>
<rect x="724.122" y="48.2744" width="24.1374" height="24.1371" fill="#EBEBEB"/>
<rect x="724.122" y="144.824" width="24.1374" height="24.1371" fill="#EBEBEB"/>
<rect x="965.496" width="24.1374" height="24.1371" fill="#EBEBEB"/>
<rect x="1834.26" width="24.1374" height="24.1371" fill="#EBEBEB"/>
<rect x="965.496" y="96.5498" width="24.1374" height="24.1371" fill="#EBEBEB"/>
<rect x="1834.26" y="96.5498" width="24.1374" height="24.1371" fill="#EBEBEB"/>
<rect x="965.496" y="48.2744" width="24.1374" height="24.1371" fill="#EBEBEB"/>
<rect x="1834.26" y="48.2744" width="24.1374" height="24.1371" fill="#EBEBEB"/>
<rect x="965.496" y="144.824" width="24.1374" height="24.1371" fill="#EBEBEB"/>
<rect x="1834.26" y="144.824" width="24.1374" height="24.1371" fill="#EBEBEB"/>
<rect x="1206.87" width="24.1374" height="24.1371" fill="#EBEBEB"/>
<rect x="1206.87" y="96.5498" width="24.1374" height="24.1371" fill="#EBEBEB"/>
<rect x="1206.87" y="48.2744" width="24.1374" height="24.1371" fill="#EBEBEB"/>
<rect x="1206.87" y="144.824" width="24.1374" height="24.1371" fill="#EBEBEB"/>
<rect x="1448.24" width="24.1374" height="24.1371" fill="#EBEBEB"/>
<rect x="1448.24" y="96.5498" width="24.1374" height="24.1371" fill="#EBEBEB"/>
<rect x="1448.24" y="48.2744" width="24.1374" height="24.1371" fill="#EBEBEB"/>
<rect x="1448.24" y="144.824" width="24.1374" height="24.1371" fill="#EBEBEB"/>
<rect x="1689.62" width="24.1374" height="24.1371" fill="#EBEBEB"/>
<rect x="1689.61" y="96.5498" width="24.1374" height="24.1371" fill="#EBEBEB"/>
<rect x="1689.61" y="48.2744" width="24.1374" height="24.1371" fill="#EBEBEB"/>
<rect x="1689.62" y="144.824" width="24.1374" height="24.1371" fill="#EBEBEB"/>
<rect width="24.1374" height="24.1371" transform="matrix(1 0 0 -1 24.1387 48.2744)" fill="#EBEBEB"/>
<rect width="24.1374" height="24.1371" transform="matrix(1 0 0 -1 24.1387 144.824)" fill="#EBEBEB"/>
<rect width="24.1374" height="24.1371" transform="matrix(1 0 0 -1 24.1387 96.5498)" fill="#EBEBEB"/>
<rect width="24.1374" height="24.1371" transform="matrix(1 0 0 -1 24.1387 193.099)" fill="#EBEBEB"/>
<rect width="24.1374" height="24.1371" transform="matrix(1 0 0 -1 410.335 48.2744)" fill="#EBEBEB"/>
<rect width="24.1374" height="24.1371" transform="matrix(1 0 0 -1 410.335 144.824)" fill="#EBEBEB"/>
<rect width="24.1374" height="24.1371" transform="matrix(1 0 0 -1 410.335 96.5498)" fill="#EBEBEB"/>
<rect width="24.1374" height="24.1371" transform="matrix(1 0 0 -1 410.335 193.099)" fill="#EBEBEB"/>
<rect width="24.1374" height="24.1371" transform="matrix(1 0 0 -1 217.237 48.2744)" fill="#EBEBEB"/>
<rect width="24.1374" height="24.1371" transform="matrix(1 0 0 -1 217.237 144.824)" fill="#EBEBEB"/>
<rect width="24.1374" height="24.1371" transform="matrix(1 0 0 -1 217.237 96.5498)" fill="#EBEBEB"/>
<rect width="24.1374" height="24.1371" transform="matrix(1 0 0 -1 217.237 193.099)" fill="#EBEBEB"/>
<rect width="24.1374" height="24.1371" transform="matrix(1 0 0 -1 603.435 48.2744)" fill="#EBEBEB"/>
<rect width="24.1374" height="24.1371" transform="matrix(1 0 0 -1 603.435 144.824)" fill="#EBEBEB"/>
<rect width="24.1374" height="24.1371" transform="matrix(1 0 0 -1 603.435 96.5498)" fill="#EBEBEB"/>
<rect width="24.1374" height="24.1371" transform="matrix(1 0 0 -1 603.435 193.099)" fill="#EBEBEB"/>
<rect width="24.1374" height="24.1371" transform="matrix(1 0 0 -1 844.809 48.2744)" fill="#EBEBEB"/>
<rect width="24.1374" height="24.1371" transform="matrix(1 0 0 -1 844.809 144.824)" fill="#EBEBEB"/>
<rect width="24.1374" height="24.1371" transform="matrix(1 0 0 -1 844.809 96.5498)" fill="#EBEBEB"/>
<rect width="24.1374" height="24.1371" transform="matrix(1 0 0 -1 844.809 193.099)" fill="#EBEBEB"/>
<rect width="24.1374" height="24.1371" transform="matrix(1 0 0 -1 1086.18 48.2744)" fill="#EBEBEB"/>
<rect width="24.1374" height="24.1371" transform="matrix(1 0 0 -1 1086.18 144.824)" fill="#EBEBEB"/>
<rect width="24.1374" height="24.1371" transform="matrix(1 0 0 -1 1086.18 96.5498)" fill="#EBEBEB"/>
<rect width="24.1374" height="24.1371" transform="matrix(1 0 0 -1 1086.18 193.099)" fill="#EBEBEB"/>
<rect width="24.1374" height="24.1371" transform="matrix(1 0 0 -1 1327.55 48.2744)" fill="#EBEBEB"/>
<rect width="24.1374" height="24.1371" transform="matrix(1 0 0 -1 1327.55 144.824)" fill="#EBEBEB"/>
<rect width="24.1374" height="24.1371" transform="matrix(1 0 0 -1 1327.55 96.5498)" fill="#EBEBEB"/>
<rect width="24.1374" height="24.1371" transform="matrix(1 0 0 -1 1327.55 193.098)" fill="#EBEBEB"/>
<rect width="24.1374" height="24.1371" transform="matrix(1 0 0 -1 1568.92 48.2744)" fill="#EBEBEB"/>
<rect width="24.1374" height="24.1371" transform="matrix(1 0 0 -1 1568.92 144.824)" fill="#EBEBEB"/>
<rect width="24.1374" height="24.1371" transform="matrix(1 0 0 -1 1568.92 96.5498)" fill="#EBEBEB"/>
<rect width="24.1374" height="24.1371" transform="matrix(1 0 0 -1 1568.93 193.098)" fill="#EBEBEB"/>
<rect width="24.1374" height="24.1371" transform="matrix(1 0 0 -1 120.687 48.2744)" fill="#EBEBEB"/>
<rect width="24.1374" height="24.1371" transform="matrix(1 0 0 -1 120.687 144.824)" fill="#EBEBEB"/>
<rect width="24.1374" height="24.1371" transform="matrix(1 0 0 -1 120.687 96.5498)" fill="#EBEBEB"/>
<rect width="24.1374" height="24.1371" transform="matrix(1 0 0 -1 120.687 193.099)" fill="#EBEBEB"/>
<rect width="24.1374" height="24.1371" transform="matrix(1 0 0 -1 506.886 48.2744)" fill="#EBEBEB"/>
<rect width="24.1374" height="24.1371" transform="matrix(1 0 0 -1 506.886 144.824)" fill="#EBEBEB"/>
<rect width="24.1374" height="24.1371" transform="matrix(1 0 0 -1 506.886 96.5498)" fill="#EBEBEB"/>
<rect width="24.1374" height="24.1371" transform="matrix(1 0 0 -1 506.886 193.099)" fill="#EBEBEB"/>
<rect width="24.1374" height="24.1371" transform="matrix(1 0 0 -1 313.786 48.2744)" fill="#EBEBEB"/>
<rect width="24.1374" height="24.1371" transform="matrix(1 0 0 -1 313.786 144.824)" fill="#EBEBEB"/>
<rect width="24.1374" height="24.1371" transform="matrix(1 0 0 -1 313.786 96.5498)" fill="#EBEBEB"/>
<rect width="24.1374" height="24.1371" transform="matrix(1 0 0 -1 313.786 193.099)" fill="#EBEBEB"/>
<rect width="24.1374" height="24.1371" transform="matrix(1 0 0 -1 699.983 48.2744)" fill="#EBEBEB"/>
<rect width="24.1374" height="24.1371" transform="matrix(1 0 0 -1 699.983 144.824)" fill="#EBEBEB"/>
<rect width="24.1374" height="24.1371" transform="matrix(1 0 0 -1 699.983 96.5498)" fill="#EBEBEB"/>
<rect width="24.1374" height="24.1371" transform="matrix(1 0 0 -1 699.983 193.099)" fill="#EBEBEB"/>
<rect width="24.1374" height="24.1371" transform="matrix(1 0 0 -1 941.357 48.2744)" fill="#EBEBEB"/>
<rect width="24.1374" height="24.1371" transform="matrix(1 0 0 -1 1810.12 48.2744)" fill="#EBEBEB"/>
<rect width="24.1374" height="24.1371" transform="matrix(1 0 0 -1 941.357 144.824)" fill="#EBEBEB"/>
<rect width="24.1374" height="24.1371" transform="matrix(1 0 0 -1 1810.12 144.824)" fill="#EBEBEB"/>
<rect width="24.1374" height="24.1371" transform="matrix(1 0 0 -1 941.357 96.5498)" fill="#EBEBEB"/>
<rect width="24.1374" height="24.1371" transform="matrix(1 0 0 -1 1810.12 96.5498)" fill="#EBEBEB"/>
<rect width="24.1374" height="24.1371" transform="matrix(1 0 0 -1 941.357 193.099)" fill="#EBEBEB"/>
<rect width="24.1374" height="24.1371" transform="matrix(1 0 0 -1 1810.12 193.098)" fill="#EBEBEB"/>
<rect width="24.1374" height="24.1371" transform="matrix(1 0 0 -1 1182.73 48.2744)" fill="#EBEBEB"/>
<rect width="24.1374" height="24.1371" transform="matrix(1 0 0 -1 1182.73 144.824)" fill="#EBEBEB"/>
<rect width="24.1374" height="24.1371" transform="matrix(1 0 0 -1 1182.73 96.5498)" fill="#EBEBEB"/>
<rect width="24.1374" height="24.1371" transform="matrix(1 0 0 -1 1182.73 193.099)" fill="#EBEBEB"/>
<rect width="24.1374" height="24.1371" transform="matrix(1 0 0 -1 1424.1 48.2744)" fill="#EBEBEB"/>
<rect width="24.1374" height="24.1371" transform="matrix(1 0 0 -1 1424.1 144.824)" fill="#EBEBEB"/>
<rect width="24.1374" height="24.1371" transform="matrix(1 0 0 -1 1424.1 96.5498)" fill="#EBEBEB"/>
<rect width="24.1374" height="24.1371" transform="matrix(1 0 0 -1 1424.1 193.098)" fill="#EBEBEB"/>
<rect width="24.1374" height="24.1371" transform="matrix(1 0 0 -1 1665.48 48.2744)" fill="#EBEBEB"/>
<rect width="24.1374" height="24.1371" transform="matrix(1 0 0 -1 1665.48 144.824)" fill="#EBEBEB"/>
<rect width="24.1374" height="24.1371" transform="matrix(1 0 0 -1 1665.48 96.5498)" fill="#EBEBEB"/>
<rect width="24.1374" height="24.1371" transform="matrix(1 0 0 -1 1665.48 193.098)" fill="#EBEBEB"/>
<rect width="24.1374" height="24.1371" transform="matrix(1 0 0 -1 72.4121 48.2744)" fill="#EBEBEB"/>
<rect width="24.1374" height="24.1371" transform="matrix(1 0 0 -1 72.4121 144.824)" fill="#EBEBEB"/>
<rect width="24.1374" height="24.1371" transform="matrix(1 0 0 -1 72.4121 96.5498)" fill="#EBEBEB"/>
<rect width="24.1374" height="24.1371" transform="matrix(1 0 0 -1 72.4121 193.099)" fill="#EBEBEB"/>
<rect width="24.1374" height="24.1371" transform="matrix(1 0 0 -1 458.611 48.2744)" fill="#EBEBEB"/>
<rect width="24.1374" height="24.1371" transform="matrix(1 0 0 -1 458.611 144.824)" fill="#EBEBEB"/>
<rect width="24.1374" height="24.1371" transform="matrix(1 0 0 -1 458.611 96.5498)" fill="#EBEBEB"/>
<rect width="24.1374" height="24.1371" transform="matrix(1 0 0 -1 458.611 193.099)" fill="#EBEBEB"/>
<rect width="24.1374" height="24.1371" transform="matrix(1 0 0 -1 265.512 48.2744)" fill="#EBEBEB"/>
<rect width="24.1374" height="24.1371" transform="matrix(1 0 0 -1 265.512 144.824)" fill="#EBEBEB"/>
<rect width="24.1374" height="24.1371" transform="matrix(1 0 0 -1 265.512 96.5498)" fill="#EBEBEB"/>
<rect width="24.1374" height="24.1371" transform="matrix(1 0 0 -1 265.512 193.099)" fill="#EBEBEB"/>
<rect width="24.1374" height="24.1371" transform="matrix(1 0 0 -1 651.709 48.2744)" fill="#EBEBEB"/>
<rect width="24.1374" height="24.1371" transform="matrix(1 0 0 -1 651.709 144.824)" fill="#EBEBEB"/>
<rect width="24.1374" height="24.1371" transform="matrix(1 0 0 -1 651.709 96.5498)" fill="#EBEBEB"/>
<rect width="24.1374" height="24.1371" transform="matrix(1 0 0 -1 651.709 193.099)" fill="#EBEBEB"/>
<rect width="24.1374" height="24.1371" transform="matrix(1 0 0 -1 893.082 48.2744)" fill="#EBEBEB"/>
<rect width="24.1374" height="24.1371" transform="matrix(1 0 0 -1 1761.85 48.2744)" fill="#EBEBEB"/>
<rect width="24.1374" height="24.1371" transform="matrix(1 0 0 -1 893.082 144.824)" fill="#EBEBEB"/>
<rect width="24.1374" height="24.1371" transform="matrix(1 0 0 -1 1761.85 144.824)" fill="#EBEBEB"/>
<rect width="24.1374" height="24.1371" transform="matrix(1 0 0 -1 893.082 96.5498)" fill="#EBEBEB"/>
<rect width="24.1374" height="24.1371" transform="matrix(1 0 0 -1 1761.85 96.5498)" fill="#EBEBEB"/>
<rect width="24.1374" height="24.1371" transform="matrix(1 0 0 -1 893.082 193.099)" fill="#EBEBEB"/>
<rect width="24.1374" height="24.1371" transform="matrix(1 0 0 -1 1761.85 193.099)" fill="#EBEBEB"/>
<rect width="24.1374" height="24.1371" transform="matrix(1 0 0 -1 1134.45 48.2744)" fill="#EBEBEB"/>
<rect width="24.1374" height="24.1371" transform="matrix(1 0 0 -1 1134.45 144.824)" fill="#EBEBEB"/>
<rect width="24.1374" height="24.1371" transform="matrix(1 0 0 -1 1134.45 96.5498)" fill="#EBEBEB"/>
<rect width="24.1374" height="24.1371" transform="matrix(1 0 0 -1 1134.45 193.099)" fill="#EBEBEB"/>
<rect width="24.1374" height="24.1371" transform="matrix(1 0 0 -1 1375.83 48.2744)" fill="#EBEBEB"/>
<rect width="24.1374" height="24.1371" transform="matrix(1 0 0 -1 1375.83 144.824)" fill="#EBEBEB"/>
<rect width="24.1374" height="24.1371" transform="matrix(1 0 0 -1 1375.83 96.5498)" fill="#EBEBEB"/>
<rect width="24.1374" height="24.1371" transform="matrix(1 0 0 -1 1375.83 193.098)" fill="#EBEBEB"/>
<rect width="24.1374" height="24.1371" transform="matrix(1 0 0 -1 1617.2 48.2744)" fill="#EBEBEB"/>
<rect width="24.1374" height="24.1371" transform="matrix(1 0 0 -1 1617.2 144.824)" fill="#EBEBEB"/>
<rect width="24.1374" height="24.1371" transform="matrix(1 0 0 -1 1617.2 96.5498)" fill="#EBEBEB"/>
<rect width="24.1374" height="24.1371" transform="matrix(1 0 0 -1 1617.2 193.098)" fill="#EBEBEB"/>
<rect width="24.1374" height="24.1371" transform="matrix(1 0 0 -1 168.963 48.2744)" fill="#EBEBEB"/>
<rect width="24.1374" height="24.1371" transform="matrix(1 0 0 -1 168.963 144.824)" fill="#EBEBEB"/>
<rect width="24.1374" height="24.1371" transform="matrix(1 0 0 -1 168.963 96.5498)" fill="#EBEBEB"/>
<rect width="24.1374" height="24.1371" transform="matrix(1 0 0 -1 168.963 193.099)" fill="#EBEBEB"/>
<rect width="24.1374" height="24.1371" transform="matrix(1 0 0 -1 555.16 48.2744)" fill="#EBEBEB"/>
<rect width="24.1374" height="24.1371" transform="matrix(1 0 0 -1 555.16 144.824)" fill="#EBEBEB"/>
<rect width="24.1374" height="24.1371" transform="matrix(1 0 0 -1 555.16 96.5498)" fill="#EBEBEB"/>
<rect width="24.1374" height="24.1371" transform="matrix(1 0 0 -1 555.16 193.099)" fill="#EBEBEB"/>
<rect width="24.1374" height="24.1371" transform="matrix(1 0 0 -1 796.534 48.2744)" fill="#EBEBEB"/>
<rect width="24.1374" height="24.1371" transform="matrix(1 0 0 -1 796.534 144.824)" fill="#EBEBEB"/>
<rect width="24.1374" height="24.1371" transform="matrix(1 0 0 -1 796.534 96.5498)" fill="#EBEBEB"/>
<rect width="24.1374" height="24.1371" transform="matrix(1 0 0 -1 796.534 193.099)" fill="#EBEBEB"/>
<rect width="24.1374" height="24.1371" transform="matrix(1 0 0 -1 1037.91 48.2744)" fill="#EBEBEB"/>
<rect width="24.1374" height="24.1371" transform="matrix(1 0 0 -1 1906.67 48.2744)" fill="#EBEBEB"/>
<rect width="24.1374" height="24.1371" transform="matrix(1 0 0 -1 1037.91 144.824)" fill="#EBEBEB"/>
<rect width="24.1374" height="24.1371" transform="matrix(1 0 0 -1 1906.67 144.824)" fill="#EBEBEB"/>
<rect width="24.1374" height="24.1371" transform="matrix(1 0 0 -1 1037.91 96.5498)" fill="#EBEBEB"/>
<rect width="24.1374" height="24.1371" transform="matrix(1 0 0 -1 1906.67 96.5498)" fill="#EBEBEB"/>
<rect width="24.1374" height="24.1371" transform="matrix(1 0 0 -1 1037.91 193.099)" fill="#EBEBEB"/>
<rect width="24.1374" height="24.1371" transform="matrix(1 0 0 -1 1906.67 193.098)" fill="#EBEBEB"/>
<rect width="24.1374" height="24.1371" transform="matrix(1 0 0 -1 1279.28 48.2744)" fill="#EBEBEB"/>
<rect width="24.1374" height="24.1371" transform="matrix(1 0 0 -1 1279.28 144.824)" fill="#EBEBEB"/>
<rect width="24.1374" height="24.1371" transform="matrix(1 0 0 -1 1279.28 96.5498)" fill="#EBEBEB"/>
<rect width="24.1374" height="24.1371" transform="matrix(1 0 0 -1 1279.28 193.098)" fill="#EBEBEB"/>
<rect width="24.1374" height="24.1371" transform="matrix(1 0 0 -1 1520.65 48.2744)" fill="#EBEBEB"/>
<rect width="24.1374" height="24.1371" transform="matrix(1 0 0 -1 1520.65 144.824)" fill="#EBEBEB"/>
<rect width="24.1374" height="24.1371" transform="matrix(1 0 0 -1 1520.65 96.5498)" fill="#EBEBEB"/>
<rect width="24.1374" height="24.1371" transform="matrix(1 0 0 -1 1520.65 193.098)" fill="#EBEBEB"/>
<rect width="24.1374" height="24.1371" transform="matrix(1 0 0 -1 362.061 48.2744)" fill="#EBEBEB"/>
<rect width="24.1374" height="24.1371" transform="matrix(1 0 0 -1 362.061 144.824)" fill="#EBEBEB"/>
<rect width="24.1374" height="24.1371" transform="matrix(1 0 0 -1 362.061 96.5498)" fill="#EBEBEB"/>
<rect width="24.1374" height="24.1371" transform="matrix(1 0 0 -1 362.061 193.099)" fill="#EBEBEB"/>
<rect width="24.1374" height="24.1371" transform="matrix(1 0 0 -1 748.26 48.2744)" fill="#EBEBEB"/>
<rect width="24.1374" height="24.1371" transform="matrix(1 0 0 -1 748.26 144.824)" fill="#EBEBEB"/>
<rect width="24.1374" height="24.1371" transform="matrix(1 0 0 -1 748.26 96.5498)" fill="#EBEBEB"/>
<rect width="24.1374" height="24.1371" transform="matrix(1 0 0 -1 748.26 193.099)" fill="#EBEBEB"/>
<rect width="24.1374" height="24.1371" transform="matrix(1 0 0 -1 989.632 48.2744)" fill="#EBEBEB"/>
<rect width="24.1374" height="24.1371" transform="matrix(1 0 0 -1 1858.4 48.2744)" fill="#EBEBEB"/>
<rect width="24.1374" height="24.1371" transform="matrix(1 0 0 -1 989.632 144.824)" fill="#EBEBEB"/>
<rect width="24.1374" height="24.1371" transform="matrix(1 0 0 -1 1858.4 144.824)" fill="#EBEBEB"/>
<rect width="24.1374" height="24.1371" transform="matrix(1 0 0 -1 989.632 96.5498)" fill="#EBEBEB"/>
<rect width="24.1374" height="24.1371" transform="matrix(1 0 0 -1 1858.4 96.5498)" fill="#EBEBEB"/>
<rect width="24.1374" height="24.1371" transform="matrix(1 0 0 -1 989.632 193.099)" fill="#EBEBEB"/>
<rect width="24.1374" height="24.1371" transform="matrix(1 0 0 -1 1858.4 193.098)" fill="#EBEBEB"/>
<rect width="24.1374" height="24.1371" transform="matrix(1 0 0 -1 1231 48.2744)" fill="#EBEBEB"/>
<rect width="24.1374" height="24.1371" transform="matrix(1 0 0 -1 1231 144.824)" fill="#EBEBEB"/>
<rect width="24.1374" height="24.1371" transform="matrix(1 0 0 -1 1231 96.5498)" fill="#EBEBEB"/>
<rect width="24.1374" height="24.1371" transform="matrix(1 0 0 -1 1231 193.099)" fill="#EBEBEB"/>
<rect width="24.1374" height="24.1371" transform="matrix(1 0 0 -1 1472.38 48.2744)" fill="#EBEBEB"/>
<rect width="24.1374" height="24.1371" transform="matrix(1 0 0 -1 1472.38 144.824)" fill="#EBEBEB"/>
<rect width="24.1374" height="24.1371" transform="matrix(1 0 0 -1 1472.38 96.5498)" fill="#EBEBEB"/>
<rect width="24.1374" height="24.1371" transform="matrix(1 0 0 -1 1472.38 193.098)" fill="#EBEBEB"/>
<rect width="24.1374" height="24.1371" transform="matrix(1 0 0 -1 1713.75 48.2744)" fill="#EBEBEB"/>
<rect width="24.1374" height="24.1371" transform="matrix(1 0 0 -1 1713.75 144.824)" fill="#EBEBEB"/>
<rect width="24.1374" height="24.1371" transform="matrix(1 0 0 -1 1713.75 96.5498)" fill="#EBEBEB"/>
<rect width="24.1374" height="24.1371" transform="matrix(1 0 0 -1 1713.75 193.098)" fill="#EBEBEB"/>
<rect y="24.1387" width="24.1374" height="24.1371" fill="#9E9E9E"/>
<rect y="120.687" width="24.1374" height="24.1371" fill="#9E9E9E"/>
<rect y="72.4121" width="24.1374" height="24.1371" fill="#9E9E9E"/>
<rect y="168.963" width="24.1374" height="24.1371" fill="#9E9E9E"/>
<rect x="386.199" y="24.1387" width="24.1374" height="24.1371" fill="#9E9E9E"/>
<rect x="386.199" y="120.687" width="24.1374" height="24.1371" fill="#9E9E9E"/>
<rect x="386.199" y="72.4121" width="24.1374" height="24.1371" fill="#9E9E9E"/>
<rect x="386.199" y="168.963" width="24.1374" height="24.1371" fill="#9E9E9E"/>
<rect x="193.099" y="24.1387" width="24.1374" height="24.1371" fill="#9E9E9E"/>
<rect x="193.099" y="120.687" width="24.1374" height="24.1371" fill="#9E9E9E"/>
<rect x="193.099" y="72.4121" width="24.1374" height="24.1371" fill="#9E9E9E"/>
<rect x="193.099" y="168.963" width="24.1374" height="24.1371" fill="#9E9E9E"/>
<rect x="579.298" y="24.1387" width="24.1374" height="24.1371" fill="#9E9E9E"/>
<rect x="579.298" y="120.687" width="24.1374" height="24.1371" fill="#9E9E9E"/>
<rect x="579.298" y="72.4121" width="24.1374" height="24.1371" fill="#9E9E9E"/>
<rect x="579.298" y="168.963" width="24.1374" height="24.1371" fill="#9E9E9E"/>
<rect x="820.672" y="24.1387" width="24.1374" height="24.1371" fill="#9E9E9E"/>
<rect x="820.672" y="120.687" width="24.1374" height="24.1371" fill="#9E9E9E"/>
<rect x="820.672" y="72.4121" width="24.1374" height="24.1371" fill="#9E9E9E"/>
<rect x="820.672" y="168.963" width="24.1374" height="24.1371" fill="#9E9E9E"/>
<rect x="1062.04" y="24.1387" width="24.1374" height="24.1371" fill="#9E9E9E"/>
<rect x="1930.81" y="24.1387" width="24.1374" height="24.1371" fill="#9E9E9E"/>
<rect x="1062.04" y="120.687" width="24.1374" height="24.1371" fill="#9E9E9E"/>
<rect x="1930.81" y="120.687" width="24.1374" height="24.1371" fill="#9E9E9E"/>
<rect x="1062.04" y="72.4121" width="24.1374" height="24.1371" fill="#9E9E9E"/>
<rect x="1930.81" y="72.4121" width="24.1374" height="24.1371" fill="#9E9E9E"/>
<rect x="1062.04" y="168.963" width="24.1374" height="24.1371" fill="#9E9E9E"/>
<rect x="1930.81" y="168.963" width="24.1374" height="24.1371" fill="#9E9E9E"/>
<rect x="1303.42" y="24.1387" width="24.1374" height="24.1371" fill="#9E9E9E"/>
<rect x="1303.42" y="120.687" width="24.1374" height="24.1371" fill="#9E9E9E"/>
<rect x="1303.42" y="72.4121" width="24.1374" height="24.1371" fill="#9E9E9E"/>
<rect x="1303.42" y="168.963" width="24.1374" height="24.1371" fill="#9E9E9E"/>
<rect x="1544.79" y="24.1387" width="24.1374" height="24.1371" fill="#9E9E9E"/>
<rect x="1544.79" y="120.687" width="24.1374" height="24.1371" fill="#9E9E9E"/>
<rect x="1544.79" y="72.4121" width="24.1374" height="24.1371" fill="#9E9E9E"/>
<rect x="1544.79" y="168.963" width="24.1374" height="24.1371" fill="#9E9E9E"/>
<rect x="96.5498" y="24.1387" width="24.1374" height="24.1371" fill="#9E9E9E"/>
<rect x="96.5498" y="120.687" width="24.1374" height="24.1371" fill="#9E9E9E"/>
<rect x="96.5498" y="72.4121" width="24.1374" height="24.1371" fill="#9E9E9E"/>
<rect x="96.5498" y="168.963" width="24.1374" height="24.1371" fill="#9E9E9E"/>
<rect x="482.747" y="24.1387" width="24.1374" height="24.1371" fill="#9E9E9E"/>
<rect x="482.747" y="120.687" width="24.1374" height="24.1371" fill="#9E9E9E"/>
<rect x="482.747" y="72.4121" width="24.1374" height="24.1371" fill="#9E9E9E"/>
<rect x="482.747" y="168.963" width="24.1374" height="24.1371" fill="#9E9E9E"/>
<rect x="289.648" y="24.1387" width="24.1374" height="24.1371" fill="#9E9E9E"/>
<rect x="289.648" y="120.687" width="24.1374" height="24.1371" fill="#9E9E9E"/>
<rect x="289.648" y="72.4121" width="24.1374" height="24.1371" fill="#9E9E9E"/>
<rect x="289.648" y="168.963" width="24.1374" height="24.1371" fill="#9E9E9E"/>
<rect x="675.848" y="24.1387" width="24.1374" height="24.1371" fill="#9E9E9E"/>
<rect x="675.848" y="120.687" width="24.1374" height="24.1371" fill="#9E9E9E"/>
<rect x="675.848" y="72.4121" width="24.1374" height="24.1371" fill="#9E9E9E"/>
<rect x="675.848" y="168.963" width="24.1374" height="24.1371" fill="#9E9E9E"/>
<rect x="917.221" y="24.1387" width="24.1374" height="24.1371" fill="#9E9E9E"/>
<rect x="1785.98" y="24.1387" width="24.1374" height="24.1371" fill="#9E9E9E"/>
<rect x="917.221" y="120.687" width="24.1374" height="24.1371" fill="#9E9E9E"/>
<rect x="1785.98" y="120.687" width="24.1374" height="24.1371" fill="#9E9E9E"/>
<rect x="917.221" y="72.4121" width="24.1374" height="24.1371" fill="#9E9E9E"/>
<rect x="1785.98" y="72.4121" width="24.1374" height="24.1371" fill="#9E9E9E"/>
<rect x="917.221" y="168.963" width="24.1374" height="24.1371" fill="#9E9E9E"/>
<rect x="1785.98" y="168.963" width="24.1374" height="24.1371" fill="#9E9E9E"/>
<rect x="1158.59" y="24.1387" width="24.1374" height="24.1371" fill="#9E9E9E"/>
<rect x="1158.59" y="120.687" width="24.1374" height="24.1371" fill="#9E9E9E"/>
<rect x="1158.59" y="72.4121" width="24.1374" height="24.1371" fill="#9E9E9E"/>
<rect x="1158.59" y="168.963" width="24.1374" height="24.1371" fill="#9E9E9E"/>
<rect x="1399.97" y="24.1387" width="24.1374" height="24.1371" fill="#9E9E9E"/>
<rect x="1399.97" y="120.687" width="24.1374" height="24.1371" fill="#9E9E9E"/>
<rect x="1399.97" y="72.4121" width="24.1374" height="24.1371" fill="#9E9E9E"/>
<rect x="1399.97" y="168.963" width="24.1374" height="24.1371" fill="#9E9E9E"/>
<rect x="1641.34" y="24.1387" width="24.1374" height="24.1371" fill="#9E9E9E"/>
<rect x="1641.34" y="120.687" width="24.1374" height="24.1371" fill="#9E9E9E"/>
<rect x="1641.34" y="72.4121" width="24.1374" height="24.1371" fill="#9E9E9E"/>
<rect x="1641.34" y="168.963" width="24.1374" height="24.1371" fill="#9E9E9E"/>
<rect x="48.2744" y="24.1387" width="24.1374" height="24.1371" fill="#9E9E9E"/>
<rect x="48.2744" y="120.687" width="24.1374" height="24.1371" fill="#9E9E9E"/>
<rect x="48.2744" y="72.4121" width="24.1374" height="24.1371" fill="#9E9E9E"/>
<rect x="48.2744" y="168.963" width="24.1374" height="24.1371" fill="#9E9E9E"/>
<rect x="434.473" y="24.1387" width="24.1374" height="24.1371" fill="#9E9E9E"/>
<rect x="434.473" y="120.687" width="24.1374" height="24.1371" fill="#9E9E9E"/>
<rect x="434.473" y="72.4121" width="24.1374" height="24.1371" fill="#9E9E9E"/>
<rect x="434.473" y="168.963" width="24.1374" height="24.1371" fill="#9E9E9E"/>
<rect x="241.374" y="24.1387" width="24.1374" height="24.1371" fill="#9E9E9E"/>
<rect x="241.374" y="120.687" width="24.1374" height="24.1371" fill="#9E9E9E"/>
<rect x="241.374" y="72.4121" width="24.1374" height="24.1371" fill="#9E9E9E"/>
<rect x="241.374" y="168.963" width="24.1374" height="24.1371" fill="#9E9E9E"/>
<rect x="627.571" y="24.1387" width="24.1374" height="24.1371" fill="#9E9E9E"/>
<rect x="627.571" y="120.687" width="24.1374" height="24.1371" fill="#9E9E9E"/>
<rect x="627.571" y="72.4121" width="24.1374" height="24.1371" fill="#9E9E9E"/>
<rect x="627.571" y="168.963" width="24.1374" height="24.1371" fill="#9E9E9E"/>
<rect x="868.946" y="24.1387" width="24.1374" height="24.1371" fill="#9E9E9E"/>
<rect x="1737.71" y="24.1387" width="24.1374" height="24.1371" fill="#9E9E9E"/>
<rect x="868.946" y="120.687" width="24.1374" height="24.1371" fill="#9E9E9E"/>
<rect x="1737.71" y="120.687" width="24.1374" height="24.1371" fill="#9E9E9E"/>
<rect x="868.946" y="72.4121" width="24.1374" height="24.1371" fill="#9E9E9E"/>
<rect x="1737.71" y="72.4121" width="24.1374" height="24.1371" fill="#9E9E9E"/>
<rect x="868.946" y="168.963" width="24.1374" height="24.1371" fill="#9E9E9E"/>
<rect x="1737.71" y="168.963" width="24.1374" height="24.1371" fill="#9E9E9E"/>
<rect x="1110.32" y="24.1387" width="24.1374" height="24.1371" fill="#9E9E9E"/>
<rect x="1110.32" y="120.687" width="24.1374" height="24.1371" fill="#9E9E9E"/>
<rect x="1110.32" y="72.4121" width="24.1374" height="24.1371" fill="#9E9E9E"/>
<rect x="1110.32" y="168.963" width="24.1374" height="24.1371" fill="#9E9E9E"/>
<rect x="1351.69" y="24.1387" width="24.1374" height="24.1371" fill="#9E9E9E"/>
<rect x="1351.69" y="120.687" width="24.1374" height="24.1371" fill="#9E9E9E"/>
<rect x="1351.69" y="72.4121" width="24.1374" height="24.1371" fill="#9E9E9E"/>
<rect x="1351.69" y="168.963" width="24.1374" height="24.1371" fill="#9E9E9E"/>
<rect x="1593.06" y="24.1387" width="24.1374" height="24.1371" fill="#9E9E9E"/>
<rect x="1593.07" y="120.687" width="24.1374" height="24.1371" fill="#9E9E9E"/>
<rect x="1593.07" y="72.4121" width="24.1374" height="24.1371" fill="#9E9E9E"/>
<rect x="1593.07" y="168.963" width="24.1374" height="24.1371" fill="#9E9E9E"/>
<rect x="144.824" y="24.1387" width="24.1374" height="24.1371" fill="#9E9E9E"/>
<rect x="144.824" y="120.687" width="24.1374" height="24.1371" fill="#9E9E9E"/>
<rect x="144.824" y="72.4121" width="24.1374" height="24.1371" fill="#9E9E9E"/>
<rect x="144.824" y="168.963" width="24.1374" height="24.1371" fill="#9E9E9E"/>
<rect x="531.023" y="24.1387" width="24.1374" height="24.1371" fill="#9E9E9E"/>
<rect x="531.023" y="120.687" width="24.1374" height="24.1371" fill="#9E9E9E"/>
<rect x="531.023" y="72.4121" width="24.1374" height="24.1371" fill="#9E9E9E"/>
<rect x="531.023" y="168.963" width="24.1374" height="24.1371" fill="#9E9E9E"/>
<rect x="772.396" y="24.1387" width="24.1374" height="24.1371" fill="#9E9E9E"/>
<rect x="772.396" y="120.687" width="24.1374" height="24.1371" fill="#9E9E9E"/>
<rect x="772.396" y="72.4121" width="24.1374" height="24.1371" fill="#9E9E9E"/>
<rect x="772.396" y="168.963" width="24.1374" height="24.1371" fill="#9E9E9E"/>
<rect x="1013.77" y="24.1387" width="24.1374" height="24.1371" fill="#9E9E9E"/>
<rect x="1882.53" y="24.1387" width="24.1374" height="24.1371" fill="#9E9E9E"/>
<rect x="1013.77" y="120.687" width="24.1374" height="24.1371" fill="#9E9E9E"/>
<rect x="1882.53" y="120.687" width="24.1374" height="24.1371" fill="#9E9E9E"/>
<rect x="1013.77" y="72.4121" width="24.1374" height="24.1371" fill="#9E9E9E"/>
<rect x="1882.53" y="72.4121" width="24.1374" height="24.1371" fill="#9E9E9E"/>
<rect x="1013.77" y="168.963" width="24.1374" height="24.1371" fill="#9E9E9E"/>
<rect x="1882.53" y="168.963" width="24.1374" height="24.1371" fill="#9E9E9E"/>
<rect x="1255.14" y="24.1387" width="24.1374" height="24.1371" fill="#9E9E9E"/>
<rect x="1255.14" y="120.687" width="24.1374" height="24.1371" fill="#9E9E9E"/>
<rect x="1255.14" y="72.4121" width="24.1374" height="24.1371" fill="#9E9E9E"/>
<rect x="1255.14" y="168.963" width="24.1374" height="24.1371" fill="#9E9E9E"/>
<rect x="1496.52" y="24.1387" width="24.1374" height="24.1371" fill="#9E9E9E"/>
<rect x="1496.52" y="120.687" width="24.1374" height="24.1371" fill="#9E9E9E"/>
<rect x="1496.52" y="72.4121" width="24.1374" height="24.1371" fill="#9E9E9E"/>
<rect x="1496.51" y="168.963" width="24.1374" height="24.1371" fill="#9E9E9E"/>
<rect x="337.923" y="24.1387" width="24.1374" height="24.1371" fill="#9E9E9E"/>
<rect x="337.923" y="120.687" width="24.1374" height="24.1371" fill="#9E9E9E"/>
<rect x="337.923" y="72.4121" width="24.1374" height="24.1371" fill="#9E9E9E"/>
<rect x="337.923" y="168.963" width="24.1374" height="24.1371" fill="#9E9E9E"/>
<rect x="724.122" y="24.1387" width="24.1374" height="24.1371" fill="#9E9E9E"/>
<rect x="724.122" y="120.687" width="24.1374" height="24.1371" fill="#9E9E9E"/>
<rect x="724.122" y="72.4121" width="24.1374" height="24.1371" fill="#9E9E9E"/>
<rect x="724.122" y="168.963" width="24.1374" height="24.1371" fill="#9E9E9E"/>
<rect x="965.496" y="24.1387" width="24.1374" height="24.1371" fill="#9E9E9E"/>
<rect x="1834.26" y="24.1387" width="24.1374" height="24.1371" fill="#9E9E9E"/>
<rect x="965.496" y="120.687" width="24.1374" height="24.1371" fill="#9E9E9E"/>
<rect x="1834.26" y="120.687" width="24.1374" height="24.1371" fill="#9E9E9E"/>
<rect x="965.496" y="72.4121" width="24.1374" height="24.1371" fill="#9E9E9E"/>
<rect x="1834.26" y="72.4121" width="24.1374" height="24.1371" fill="#9E9E9E"/>
<rect x="965.496" y="168.963" width="24.1374" height="24.1371" fill="#9E9E9E"/>
<rect x="1834.26" y="168.963" width="24.1374" height="24.1371" fill="#9E9E9E"/>
<rect x="1206.87" y="24.1387" width="24.1374" height="24.1371" fill="#9E9E9E"/>
<rect x="1206.87" y="120.687" width="24.1374" height="24.1371" fill="#9E9E9E"/>
<rect x="1206.87" y="72.4121" width="24.1374" height="24.1371" fill="#9E9E9E"/>
<rect x="1206.87" y="168.963" width="24.1374" height="24.1371" fill="#9E9E9E"/>
<rect x="1448.24" y="24.1387" width="24.1374" height="24.1371" fill="#9E9E9E"/>
<rect x="1448.24" y="120.687" width="24.1374" height="24.1371" fill="#9E9E9E"/>
<rect x="1448.24" y="72.4121" width="24.1374" height="24.1371" fill="#9E9E9E"/>
<rect x="1448.24" y="168.963" width="24.1374" height="24.1371" fill="#9E9E9E"/>
<rect x="1689.62" y="24.1387" width="24.1374" height="24.1371" fill="#9E9E9E"/>
<rect x="1689.62" y="120.687" width="24.1374" height="24.1371" fill="#9E9E9E"/>
<rect x="1689.62" y="72.4121" width="24.1374" height="24.1371" fill="#9E9E9E"/>
<rect x="1689.62" y="168.963" width="24.1374" height="24.1371" fill="#9E9E9E"/>
<rect width="24.1374" height="24.1371" transform="matrix(1 0 0 -1 24.1387 24.1387)" fill="#9E9E9E"/>
<rect width="24.1374" height="24.1371" transform="matrix(1 0 0 -1 24.1387 120.687)" fill="#9E9E9E"/>
<rect width="24.1374" height="24.1371" transform="matrix(1 0 0 -1 24.1387 72.4121)" fill="#9E9E9E"/>
<rect width="24.1374" height="24.1371" transform="matrix(1 0 0 -1 24.1387 168.963)" fill="#9E9E9E"/>
<rect width="24.1374" height="24.1371" transform="matrix(1 0 0 -1 410.335 24.1387)" fill="#9E9E9E"/>
<rect width="24.1374" height="24.1371" transform="matrix(1 0 0 -1 410.335 120.687)" fill="#9E9E9E"/>
<rect width="24.1374" height="24.1371" transform="matrix(1 0 0 -1 410.335 72.4121)" fill="#9E9E9E"/>
<rect width="24.1374" height="24.1371" transform="matrix(1 0 0 -1 410.335 168.963)" fill="#9E9E9E"/>
<rect width="24.1374" height="24.1371" transform="matrix(1 0 0 -1 217.237 24.1387)" fill="#9E9E9E"/>
<rect width="24.1374" height="24.1371" transform="matrix(1 0 0 -1 217.237 120.687)" fill="#9E9E9E"/>
<rect width="24.1374" height="24.1371" transform="matrix(1 0 0 -1 217.237 72.4121)" fill="#9E9E9E"/>
<rect width="24.1374" height="24.1371" transform="matrix(1 0 0 -1 217.237 168.963)" fill="#9E9E9E"/>
<rect width="24.1374" height="24.1371" transform="matrix(1 0 0 -1 603.435 24.1387)" fill="#9E9E9E"/>
<rect width="24.1374" height="24.1371" transform="matrix(1 0 0 -1 603.435 120.687)" fill="#9E9E9E"/>
<rect width="24.1374" height="24.1371" transform="matrix(1 0 0 -1 603.435 72.4121)" fill="#9E9E9E"/>
<rect width="24.1374" height="24.1371" transform="matrix(1 0 0 -1 603.435 168.963)" fill="#9E9E9E"/>
<rect width="24.1374" height="24.1371" transform="matrix(1 0 0 -1 844.809 24.1387)" fill="#9E9E9E"/>
<rect width="24.1374" height="24.1371" transform="matrix(1 0 0 -1 844.809 120.687)" fill="#9E9E9E"/>
<rect width="24.1374" height="24.1371" transform="matrix(1 0 0 -1 844.809 72.4121)" fill="#9E9E9E"/>
<rect width="24.1374" height="24.1371" transform="matrix(1 0 0 -1 844.809 168.963)" fill="#9E9E9E"/>
<rect width="24.1374" height="24.1371" transform="matrix(1 0 0 -1 1086.18 24.1387)" fill="#9E9E9E"/>
<rect width="24.1374" height="24.1371" transform="matrix(1 0 0 -1 1086.18 120.687)" fill="#9E9E9E"/>
<rect width="24.1374" height="24.1371" transform="matrix(1 0 0 -1 1086.18 72.4121)" fill="#9E9E9E"/>
<rect width="24.1374" height="24.1371" transform="matrix(1 0 0 -1 1086.18 168.963)" fill="#9E9E9E"/>
<rect width="24.1374" height="24.1371" transform="matrix(1 0 0 -1 1327.56 24.1387)" fill="#9E9E9E"/>
<rect width="24.1374" height="24.1371" transform="matrix(1 0 0 -1 1327.56 120.687)" fill="#9E9E9E"/>
<rect width="24.1374" height="24.1371" transform="matrix(1 0 0 -1 1327.55 72.4121)" fill="#9E9E9E"/>
<rect width="24.1374" height="24.1371" transform="matrix(1 0 0 -1 1327.56 168.963)" fill="#9E9E9E"/>
<rect width="24.1374" height="24.1371" transform="matrix(1 0 0 -1 1568.93 24.1387)" fill="#9E9E9E"/>
<rect width="24.1374" height="24.1371" transform="matrix(1 0 0 -1 1568.92 120.687)" fill="#9E9E9E"/>
<rect width="24.1374" height="24.1371" transform="matrix(1 0 0 -1 1568.92 72.4121)" fill="#9E9E9E"/>
<rect width="24.1374" height="24.1371" transform="matrix(1 0 0 -1 1568.93 168.963)" fill="#9E9E9E"/>
<rect width="24.1374" height="24.1371" transform="matrix(1 0 0 -1 120.687 24.1387)" fill="#9E9E9E"/>
<rect width="24.1374" height="24.1371" transform="matrix(1 0 0 -1 120.687 120.687)" fill="#9E9E9E"/>
<rect width="24.1374" height="24.1371" transform="matrix(1 0 0 -1 120.687 72.4121)" fill="#9E9E9E"/>
<rect width="24.1374" height="24.1371" transform="matrix(1 0 0 -1 120.687 168.963)" fill="#9E9E9E"/>
<rect width="24.1374" height="24.1371" transform="matrix(1 0 0 -1 506.886 24.1387)" fill="#9E9E9E"/>
<rect width="24.1374" height="24.1371" transform="matrix(1 0 0 -1 506.886 120.687)" fill="#9E9E9E"/>
<rect width="24.1374" height="24.1371" transform="matrix(1 0 0 -1 506.886 72.4121)" fill="#9E9E9E"/>
<rect width="24.1374" height="24.1371" transform="matrix(1 0 0 -1 506.886 168.963)" fill="#9E9E9E"/>
<rect width="24.1374" height="24.1371" transform="matrix(1 0 0 -1 313.786 24.1387)" fill="#9E9E9E"/>
<rect width="24.1374" height="24.1371" transform="matrix(1 0 0 -1 313.786 120.687)" fill="#9E9E9E"/>
<rect width="24.1374" height="24.1371" transform="matrix(1 0 0 -1 313.786 72.4121)" fill="#9E9E9E"/>
<rect width="24.1374" height="24.1371" transform="matrix(1 0 0 -1 313.786 168.963)" fill="#9E9E9E"/>
<rect width="24.1374" height="24.1371" transform="matrix(1 0 0 -1 699.983 24.1387)" fill="#9E9E9E"/>
<rect width="24.1374" height="24.1371" transform="matrix(1 0 0 -1 699.983 120.687)" fill="#9E9E9E"/>
<rect width="24.1374" height="24.1371" transform="matrix(1 0 0 -1 699.983 72.4121)" fill="#9E9E9E"/>
<rect width="24.1374" height="24.1371" transform="matrix(1 0 0 -1 699.983 168.963)" fill="#9E9E9E"/>
<rect width="24.1374" height="24.1371" transform="matrix(1 0 0 -1 941.355 24.1387)" fill="#9E9E9E"/>
<rect width="24.1374" height="24.1371" transform="matrix(1 0 0 -1 1810.12 24.1387)" fill="#9E9E9E"/>
<rect width="24.1374" height="24.1371" transform="matrix(1 0 0 -1 941.357 120.687)" fill="#9E9E9E"/>
<rect width="24.1374" height="24.1371" transform="matrix(1 0 0 -1 1810.12 120.687)" fill="#9E9E9E"/>
<rect width="24.1374" height="24.1371" transform="matrix(1 0 0 -1 941.357 72.4121)" fill="#9E9E9E"/>
<rect width="24.1374" height="24.1371" transform="matrix(1 0 0 -1 1810.12 72.4121)" fill="#9E9E9E"/>
<rect width="24.1374" height="24.1371" transform="matrix(1 0 0 -1 941.357 168.963)" fill="#9E9E9E"/>
<rect width="24.1374" height="24.1371" transform="matrix(1 0 0 -1 1810.12 168.963)" fill="#9E9E9E"/>
<rect width="24.1374" height="24.1371" transform="matrix(1 0 0 -1 1182.73 24.1387)" fill="#9E9E9E"/>
<rect width="24.1374" height="24.1371" transform="matrix(1 0 0 -1 1182.73 120.687)" fill="#9E9E9E"/>
<rect width="24.1374" height="24.1371" transform="matrix(1 0 0 -1 1182.73 72.4121)" fill="#9E9E9E"/>
<rect width="24.1374" height="24.1371" transform="matrix(1 0 0 -1 1182.73 168.963)" fill="#9E9E9E"/>
<rect width="24.1374" height="24.1371" transform="matrix(1 0 0 -1 1424.11 24.1387)" fill="#9E9E9E"/>
<rect width="24.1374" height="24.1371" transform="matrix(1 0 0 -1 1424.1 120.687)" fill="#9E9E9E"/>
<rect width="24.1374" height="24.1371" transform="matrix(1 0 0 -1 1424.1 72.4121)" fill="#9E9E9E"/>
<rect width="24.1374" height="24.1371" transform="matrix(1 0 0 -1 1424.1 168.963)" fill="#9E9E9E"/>
<rect width="24.1374" height="24.1371" transform="matrix(1 0 0 -1 1665.48 24.1387)" fill="#9E9E9E"/>
<rect width="24.1374" height="24.1371" transform="matrix(1 0 0 -1 1665.48 120.687)" fill="#9E9E9E"/>
<rect width="24.1374" height="24.1371" transform="matrix(1 0 0 -1 1665.48 72.4121)" fill="#9E9E9E"/>
<rect width="24.1374" height="24.1371" transform="matrix(1 0 0 -1 1665.48 168.963)" fill="#9E9E9E"/>
<rect width="24.1374" height="24.1371" transform="matrix(1 0 0 -1 72.4121 24.1387)" fill="#9E9E9E"/>
<rect width="24.1374" height="24.1371" transform="matrix(1 0 0 -1 72.4121 120.687)" fill="#9E9E9E"/>
<rect width="24.1374" height="24.1371" transform="matrix(1 0 0 -1 72.4121 72.4121)" fill="#9E9E9E"/>
<rect width="24.1374" height="24.1371" transform="matrix(1 0 0 -1 72.4121 168.963)" fill="#9E9E9E"/>
<rect width="24.1374" height="24.1371" transform="matrix(1 0 0 -1 458.611 24.1387)" fill="#9E9E9E"/>
<rect width="24.1374" height="24.1371" transform="matrix(1 0 0 -1 458.611 120.687)" fill="#9E9E9E"/>
<rect width="24.1374" height="24.1371" transform="matrix(1 0 0 -1 458.611 72.4121)" fill="#9E9E9E"/>
<rect width="24.1374" height="24.1371" transform="matrix(1 0 0 -1 458.611 168.963)" fill="#9E9E9E"/>
<rect width="24.1374" height="24.1371" transform="matrix(1 0 0 -1 265.512 24.1387)" fill="#9E9E9E"/>
<rect width="24.1374" height="24.1371" transform="matrix(1 0 0 -1 265.512 120.687)" fill="#9E9E9E"/>
<rect width="24.1374" height="24.1371" transform="matrix(1 0 0 -1 265.512 72.4121)" fill="#9E9E9E"/>
<rect width="24.1374" height="24.1371" transform="matrix(1 0 0 -1 265.512 168.963)" fill="#9E9E9E"/>
<rect width="24.1374" height="24.1371" transform="matrix(1 0 0 -1 651.709 24.1387)" fill="#9E9E9E"/>
<rect width="24.1374" height="24.1371" transform="matrix(1 0 0 -1 651.709 120.687)" fill="#9E9E9E"/>
<rect width="24.1374" height="24.1371" transform="matrix(1 0 0 -1 651.709 72.4121)" fill="#9E9E9E"/>
<rect width="24.1374" height="24.1371" transform="matrix(1 0 0 -1 651.709 168.963)" fill="#9E9E9E"/>
<rect width="24.1374" height="24.1371" transform="matrix(1 0 0 -1 893.082 24.1387)" fill="#9E9E9E"/>
<rect width="24.1374" height="24.1371" transform="matrix(1 0 0 -1 1761.85 24.1387)" fill="#9E9E9E"/>
<rect width="24.1374" height="24.1371" transform="matrix(1 0 0 -1 893.082 120.687)" fill="#9E9E9E"/>
<rect width="24.1374" height="24.1371" transform="matrix(1 0 0 -1 1761.85 120.687)" fill="#9E9E9E"/>
<rect width="24.1374" height="24.1371" transform="matrix(1 0 0 -1 893.082 72.4121)" fill="#9E9E9E"/>
<rect width="24.1374" height="24.1371" transform="matrix(1 0 0 -1 1761.85 72.4121)" fill="#9E9E9E"/>
<rect width="24.1374" height="24.1371" transform="matrix(1 0 0 -1 893.082 168.963)" fill="#9E9E9E"/>
<rect width="24.1374" height="24.1371" transform="matrix(1 0 0 -1 1761.85 168.963)" fill="#9E9E9E"/>
<rect width="24.1374" height="24.1371" transform="matrix(1 0 0 -1 1134.45 24.1387)" fill="#9E9E9E"/>
<rect width="24.1374" height="24.1371" transform="matrix(1 0 0 -1 1134.45 120.687)" fill="#9E9E9E"/>
<rect width="24.1374" height="24.1371" transform="matrix(1 0 0 -1 1134.45 72.4121)" fill="#9E9E9E"/>
<rect width="24.1374" height="24.1371" transform="matrix(1 0 0 -1 1134.45 168.963)" fill="#9E9E9E"/>
<rect width="24.1374" height="24.1371" transform="matrix(1 0 0 -1 1375.83 24.1387)" fill="#9E9E9E"/>
<rect width="24.1374" height="24.1371" transform="matrix(1 0 0 -1 1375.83 120.687)" fill="#9E9E9E"/>
<rect width="24.1374" height="24.1371" transform="matrix(1 0 0 -1 1375.83 72.4121)" fill="#9E9E9E"/>
<rect width="24.1374" height="24.1371" transform="matrix(1 0 0 -1 1375.83 168.963)" fill="#9E9E9E"/>
<rect width="24.1374" height="24.1371" transform="matrix(1 0 0 -1 1617.2 24.1387)" fill="#9E9E9E"/>
<rect width="24.1374" height="24.1371" transform="matrix(1 0 0 -1 1617.2 120.687)" fill="#9E9E9E"/>
<rect width="24.1374" height="24.1371" transform="matrix(1 0 0 -1 1617.2 72.4121)" fill="#9E9E9E"/>
<rect width="24.1374" height="24.1371" transform="matrix(1 0 0 -1 1617.2 168.963)" fill="#9E9E9E"/>
<rect width="24.1374" height="24.1371" transform="matrix(1 0 0 -1 168.963 24.1387)" fill="#9E9E9E"/>
<rect width="24.1374" height="24.1371" transform="matrix(1 0 0 -1 168.963 120.687)" fill="#9E9E9E"/>
<rect width="24.1374" height="24.1371" transform="matrix(1 0 0 -1 168.963 72.4121)" fill="#9E9E9E"/>
<rect width="24.1374" height="24.1371" transform="matrix(1 0 0 -1 168.963 168.963)" fill="#9E9E9E"/>
<rect width="24.1374" height="24.1371" transform="matrix(1 0 0 -1 555.16 24.1387)" fill="#9E9E9E"/>
<rect width="24.1374" height="24.1371" transform="matrix(1 0 0 -1 555.16 120.687)" fill="#9E9E9E"/>
<rect width="24.1374" height="24.1371" transform="matrix(1 0 0 -1 555.16 72.4121)" fill="#9E9E9E"/>
<rect width="24.1374" height="24.1371" transform="matrix(1 0 0 -1 555.16 168.963)" fill="#9E9E9E"/>
<rect width="24.1374" height="24.1371" transform="matrix(1 0 0 -1 796.534 24.1387)" fill="#9E9E9E"/>
<rect width="24.1374" height="24.1371" transform="matrix(1 0 0 -1 796.534 120.687)" fill="#9E9E9E"/>
<rect width="24.1374" height="24.1371" transform="matrix(1 0 0 -1 796.534 72.4121)" fill="#9E9E9E"/>
<rect width="24.1374" height="24.1371" transform="matrix(1 0 0 -1 796.534 168.963)" fill="#9E9E9E"/>
<rect width="24.1374" height="24.1371" transform="matrix(1 0 0 -1 1037.91 24.1387)" fill="#9E9E9E"/>
<rect width="24.1374" height="24.1371" transform="matrix(1 0 0 -1 1906.67 24.1387)" fill="#9E9E9E"/>
<rect width="24.1374" height="24.1371" transform="matrix(1 0 0 -1 1037.91 120.687)" fill="#9E9E9E"/>
<rect width="24.1374" height="24.1371" transform="matrix(1 0 0 -1 1906.67 120.687)" fill="#9E9E9E"/>
<rect width="24.1374" height="24.1371" transform="matrix(1 0 0 -1 1037.91 72.4121)" fill="#9E9E9E"/>
<rect width="24.1374" height="24.1371" transform="matrix(1 0 0 -1 1906.67 72.4121)" fill="#9E9E9E"/>
<rect width="24.1374" height="24.1371" transform="matrix(1 0 0 -1 1037.91 168.963)" fill="#9E9E9E"/>
<rect width="24.1374" height="24.1371" transform="matrix(1 0 0 -1 1906.67 168.963)" fill="#9E9E9E"/>
<rect width="24.1374" height="24.1371" transform="matrix(1 0 0 -1 1279.28 24.1387)" fill="#9E9E9E"/>
<rect width="24.1374" height="24.1371" transform="matrix(1 0 0 -1 1279.28 120.687)" fill="#9E9E9E"/>
<rect width="24.1374" height="24.1371" transform="matrix(1 0 0 -1 1279.28 72.4121)" fill="#9E9E9E"/>
<rect width="24.1374" height="24.1371" transform="matrix(1 0 0 -1 1279.28 168.963)" fill="#9E9E9E"/>
<rect width="24.1374" height="24.1371" transform="matrix(1 0 0 -1 1520.65 24.1387)" fill="#9E9E9E"/>
<rect width="24.1374" height="24.1371" transform="matrix(1 0 0 -1 1520.65 120.687)" fill="#9E9E9E"/>
<rect width="24.1374" height="24.1371" transform="matrix(1 0 0 -1 1520.65 72.4121)" fill="#9E9E9E"/>
<rect width="24.1374" height="24.1371" transform="matrix(1 0 0 -1 1520.65 168.963)" fill="#9E9E9E"/>
<rect width="24.1374" height="24.1371" transform="matrix(1 0 0 -1 362.061 24.1387)" fill="#9E9E9E"/>
<rect width="24.1374" height="24.1371" transform="matrix(1 0 0 -1 362.061 120.687)" fill="#9E9E9E"/>
<rect width="24.1374" height="24.1371" transform="matrix(1 0 0 -1 362.061 72.4121)" fill="#9E9E9E"/>
<rect width="24.1374" height="24.1371" transform="matrix(1 0 0 -1 362.061 168.963)" fill="#9E9E9E"/>
<rect width="24.1374" height="24.1371" transform="matrix(1 0 0 -1 748.26 24.1387)" fill="#9E9E9E"/>
<rect width="24.1374" height="24.1371" transform="matrix(1 0 0 -1 748.26 120.687)" fill="#9E9E9E"/>
<rect width="24.1374" height="24.1371" transform="matrix(1 0 0 -1 748.26 72.4121)" fill="#9E9E9E"/>
<rect width="24.1374" height="24.1371" transform="matrix(1 0 0 -1 748.26 168.963)" fill="#9E9E9E"/>
<rect width="24.1374" height="24.1371" transform="matrix(1 0 0 -1 989.63 24.1387)" fill="#9E9E9E"/>
<rect width="24.1374" height="24.1371" transform="matrix(1 0 0 -1 1858.4 24.1387)" fill="#9E9E9E"/>
<rect width="24.1374" height="24.1371" transform="matrix(1 0 0 -1 989.632 120.687)" fill="#9E9E9E"/>
<rect width="24.1374" height="24.1371" transform="matrix(1 0 0 -1 1858.4 120.687)" fill="#9E9E9E"/>
<rect width="24.1374" height="24.1371" transform="matrix(1 0 0 -1 989.632 72.4121)" fill="#9E9E9E"/>
<rect width="24.1374" height="24.1371" transform="matrix(1 0 0 -1 1858.4 72.4121)" fill="#9E9E9E"/>
<rect width="24.1374" height="24.1371" transform="matrix(1 0 0 -1 989.632 168.963)" fill="#9E9E9E"/>
<rect width="24.1374" height="24.1371" transform="matrix(1 0 0 -1 1858.4 168.963)" fill="#9E9E9E"/>
<rect width="24.1374" height="24.1371" transform="matrix(1 0 0 -1 1231 24.1387)" fill="#9E9E9E"/>
<rect width="24.1374" height="24.1371" transform="matrix(1 0 0 -1 1231 120.687)" fill="#9E9E9E"/>
<rect width="24.1374" height="24.1371" transform="matrix(1 0 0 -1 1231 72.4121)" fill="#9E9E9E"/>
<rect width="24.1374" height="24.1371" transform="matrix(1 0 0 -1 1231 168.963)" fill="#9E9E9E"/>
<rect width="24.1374" height="24.1371" transform="matrix(1 0 0 -1 1472.38 24.1387)" fill="#9E9E9E"/>
<rect width="24.1374" height="24.1371" transform="matrix(1 0 0 -1 1472.38 120.687)" fill="#9E9E9E"/>
<rect width="24.1374" height="24.1371" transform="matrix(1 0 0 -1 1472.38 72.4121)" fill="#9E9E9E"/>
<rect width="24.1374" height="24.1371" transform="matrix(1 0 0 -1 1472.38 168.963)" fill="#9E9E9E"/>
<rect width="24.1374" height="24.1371" transform="matrix(1 0 0 -1 1713.75 24.1387)" fill="#9E9E9E"/>
<rect width="24.1374" height="24.1371" transform="matrix(1 0 0 -1 1713.75 120.687)" fill="#9E9E9E"/>
<rect width="24.1374" height="24.1371" transform="matrix(1 0 0 -1 1713.75 72.4121)" fill="#9E9E9E"/>
<rect width="24.1374" height="24.1371" transform="matrix(1 0 0 -1 1713.75 168.963)" fill="#9E9E9E"/>
</g>
<rect width="128" height="128" rx="40" transform="matrix(-1 0 0 1 1920 32)" fill="white" fill-opacity="0.9"/>
<rect width="128" height="128" rx="40" transform="matrix(-1 0 0 1 1760 32)" fill="white" fill-opacity="0.7"/>
<rect width="128" height="128" rx="40" transform="matrix(-1 0 0 1 1600 32)" fill="white" fill-opacity="0.6"/>
<rect width="128" height="128" rx="40" transform="matrix(-1 0 0 1 1440 32)" fill="white" fill-opacity="0.5"/>
<rect width="128" height="128" rx="40" transform="matrix(-1 0 0 1 1280 32)" fill="white" fill-opacity="0.3"/>
<rect width="128" height="128" rx="40" transform="matrix(-1 0 0 1 1120 32)" fill="white" fill-opacity="0.15"/>
<rect width="128" height="128" rx="40" transform="matrix(-1 0 0 1 960 32)" fill="black" fill-opacity="0.15"/>
<rect width="128" height="128" rx="40" transform="matrix(-1 0 0 1 800 32)" fill="black" fill-opacity="0.3"/>
<rect width="128" height="128" rx="40" transform="matrix(-1 0 0 1 640 32)" fill="black" fill-opacity="0.45"/>
<rect width="128" height="128" rx="40" transform="matrix(-1 0 0 1 480 32)" fill="black" fill-opacity="0.6"/>
<rect width="128" height="128" rx="40" transform="matrix(-1 0 0 1 320 32)" fill="black" fill-opacity="0.75"/>
<rect width="128" height="128" rx="40" transform="matrix(-1 0 0 1 160 32)" fill="black" fill-opacity="0.9"/>
</g>
<defs>
<clipPath id="clip0_1039_1606">
<rect width="1952" height="192" rx="24" fill="white"/>
</clipPath>
</defs>
</svg>
