<svg width="976" height="320" viewBox="0 0 976 320" fill="none" xmlns="http://www.w3.org/2000/svg">
<rect width="128" height="128" rx="40" transform="matrix(-1 0 0 1 960 32)" fill="black" fill-opacity="0.15"/>
<rect width="128" height="128" rx="40" transform="matrix(-1 0 0 1 800 32)" fill="black" fill-opacity="0.3"/>
<rect width="128" height="128" rx="40" transform="matrix(-1 0 0 1 640 32)" fill="black" fill-opacity="0.45"/>
<rect width="128" height="128" rx="40" transform="matrix(-1 0 0 1 480 32)" fill="black" fill-opacity="0.6"/>
<rect width="128" height="128" rx="40" transform="matrix(-1 0 0 1 320 32)" fill="black" fill-opacity="0.75"/>
<rect width="128" height="128" rx="40" transform="matrix(-1 0 0 1 160 32)" fill="black" fill-opacity="0.9"/>
<path d="M963.428 248.49V221.728H970.384V267H963.428V259.337H962.956C961.895 261.636 960.245 263.591 958.004 265.202C955.764 266.794 952.935 267.59 949.516 267.59C946.686 267.59 944.171 266.971 941.97 265.733C939.77 264.475 938.04 262.589 936.783 260.074C935.525 257.539 934.896 254.346 934.896 250.495V221.728H941.852V250.023C941.852 253.324 942.776 255.957 944.623 257.922C946.49 259.887 948.867 260.87 951.756 260.87C953.485 260.87 955.244 260.427 957.032 259.543C958.84 258.659 960.353 257.303 961.571 255.476C962.809 253.648 963.428 251.32 963.428 248.49Z" fill="black" fill-opacity="0.15"/>
<path d="M912.711 221.727H919.667V270.301C919.667 273.091 919.185 275.508 918.222 277.552C917.279 279.595 915.845 281.177 913.919 282.297C912.013 283.417 909.606 283.977 906.698 283.977C906.462 283.977 906.226 283.977 905.991 283.977C905.755 283.977 905.519 283.977 905.283 283.977V277.493C905.519 277.493 905.735 277.493 905.932 277.493C906.128 277.493 906.344 277.493 906.58 277.493C908.702 277.493 910.255 276.864 911.237 275.607C912.22 274.369 912.711 272.6 912.711 270.301V221.727ZM916.13 214.182C914.774 214.182 913.605 213.72 912.622 212.797C911.66 211.873 911.178 210.763 911.178 209.466C911.178 208.169 911.66 207.059 912.622 206.135C913.605 205.212 914.774 204.75 916.13 204.75C917.486 204.75 918.645 205.212 919.608 206.135C920.59 207.059 921.082 208.169 921.082 209.466C921.082 210.763 920.59 211.873 919.608 212.797C918.645 213.72 917.486 214.182 916.13 214.182Z" fill="black" fill-opacity="0.15"/>
<path d="M844.751 221.728L855.598 240.237L866.445 221.728H874.462L859.842 244.364L874.462 267H866.445L855.598 249.434L844.751 267H836.734L851.118 244.364L836.734 221.728H844.751Z" fill="black" fill-opacity="0.15"/>
<path d="M807.805 267.943C803.718 267.943 800.132 266.97 797.047 265.025C793.982 263.08 791.584 260.358 789.855 256.861C788.146 253.363 787.291 249.276 787.291 244.599C787.291 239.883 788.146 235.767 789.855 232.25C791.584 228.732 793.982 226.001 797.047 224.056C800.132 222.11 803.718 221.138 807.805 221.138C811.892 221.138 815.469 222.11 818.534 224.056C821.619 226.001 824.016 228.732 825.726 232.25C827.455 235.767 828.319 239.883 828.319 244.599C828.319 249.276 827.455 253.363 825.726 256.861C824.016 260.358 821.619 263.08 818.534 265.025C815.469 266.97 811.892 267.943 807.805 267.943ZM807.805 261.695C810.91 261.695 813.464 260.899 815.469 259.307C817.473 257.715 818.956 255.623 819.919 253.029C820.882 250.435 821.363 247.625 821.363 244.599C821.363 241.573 820.882 238.754 819.919 236.14C818.956 233.527 817.473 231.414 815.469 229.803C813.464 228.192 810.91 227.386 807.805 227.386C804.701 227.386 802.146 228.192 800.142 229.803C798.138 231.414 796.654 233.527 795.691 236.14C794.728 238.754 794.247 241.573 794.247 244.599C794.247 247.625 794.728 250.435 795.691 253.029C796.654 255.623 798.138 257.715 800.142 259.307C802.146 260.899 804.701 261.695 807.805 261.695Z" fill="black" fill-opacity="0.3"/>
<path d="M779.04 221.727V227.622H754.635V221.727H779.04ZM761.944 267V215.479C761.944 212.885 762.554 210.723 763.772 208.994C764.99 207.265 766.572 205.968 768.517 205.104C770.463 204.239 772.516 203.807 774.677 203.807C776.387 203.807 777.782 203.944 778.863 204.219C779.944 204.494 780.749 204.75 781.28 204.986L779.275 210.998C778.922 210.881 778.43 210.733 777.802 210.556C777.193 210.379 776.387 210.291 775.385 210.291C773.086 210.291 771.425 210.871 770.404 212.03C769.401 213.189 768.9 214.889 768.9 217.129V267H761.944Z" fill="black" fill-opacity="0.3"/>
<path d="M688.959 239.766V267H682.003V221.727H688.723V228.801H689.313C690.374 226.502 691.985 224.655 694.146 223.26C696.308 221.845 699.098 221.138 702.517 221.138C705.582 221.138 708.265 221.766 710.564 223.024C712.863 224.262 714.651 226.148 715.928 228.683C717.205 231.198 717.844 234.382 717.844 238.233V267H710.888V238.704C710.888 235.148 709.964 232.377 708.117 230.393C706.27 228.388 703.735 227.386 700.513 227.386C698.292 227.386 696.308 227.868 694.559 228.831C692.83 229.793 691.464 231.198 690.462 233.045C689.46 234.892 688.959 237.132 688.959 239.766Z" fill="black" fill-opacity="0.3"/>
<path d="M622.333 267L608.539 221.728H615.849L625.634 256.389H626.106L635.773 221.728H643.201L652.751 256.272H653.222L663.008 221.728H670.318L656.523 267H649.685L639.782 232.22H639.075L629.171 267H622.333Z" fill="black" fill-opacity="0.45"/>
<path d="M579.994 267.943C575.907 267.943 572.321 266.97 569.236 265.025C566.17 263.08 563.773 260.358 562.044 256.861C560.334 253.363 559.479 249.276 559.479 244.599C559.479 239.883 560.334 235.767 562.044 232.25C563.773 228.732 566.17 226.001 569.236 224.056C572.321 222.11 575.907 221.138 579.994 221.138C584.081 221.138 587.657 222.11 590.722 224.056C593.807 226.001 596.205 228.732 597.914 232.25C599.643 235.767 600.508 239.883 600.508 244.599C600.508 249.276 599.643 253.363 597.914 256.861C596.205 260.358 593.807 263.08 590.722 265.025C587.657 266.97 584.081 267.943 579.994 267.943ZM579.994 261.695C583.098 261.695 585.653 260.899 587.657 259.307C589.661 257.715 591.145 255.623 592.108 253.029C593.07 250.435 593.552 247.625 593.552 244.599C593.552 241.573 593.07 238.754 592.108 236.14C591.145 233.527 589.661 231.414 587.657 229.803C585.653 228.192 583.098 227.386 579.994 227.386C576.889 227.386 574.335 228.192 572.33 229.803C570.326 231.414 568.843 233.527 567.88 236.14C566.917 238.754 566.435 241.573 566.435 244.599C566.435 247.625 566.917 250.435 567.88 253.029C568.843 255.623 570.326 257.715 572.33 259.307C574.335 260.899 576.889 261.695 579.994 261.695Z" fill="black" fill-opacity="0.45"/>
<path d="M529.607 267V221.727H536.328V228.565H536.799C537.624 226.325 539.118 224.507 541.279 223.112C543.441 221.717 545.877 221.02 548.589 221.02C549.1 221.02 549.738 221.029 550.505 221.049C551.271 221.069 551.851 221.098 552.244 221.137V228.211C552.008 228.152 551.468 228.064 550.623 227.946C549.797 227.808 548.923 227.74 547.999 227.74C545.799 227.74 543.834 228.201 542.105 229.125C540.395 230.029 539.039 231.286 538.037 232.898C537.055 234.489 536.563 236.307 536.563 238.351V267H529.607Z" fill="black" fill-opacity="0.45"/>
<path d="M476.51 266.999V206.636H483.466V228.918H484.055C484.566 228.132 485.273 227.13 486.177 225.912C487.101 224.674 488.417 223.574 490.127 222.611C491.856 221.628 494.194 221.137 497.142 221.137C500.954 221.137 504.314 222.09 507.222 223.996C510.13 225.902 512.4 228.604 514.031 232.102C515.662 235.599 516.477 239.726 516.477 244.481C516.477 249.275 515.662 253.431 514.031 256.949C512.4 260.446 510.14 263.158 507.252 265.084C504.363 266.99 501.032 267.943 497.26 267.943C494.352 267.943 492.023 267.461 490.274 266.498C488.526 265.516 487.18 264.406 486.236 263.168C485.293 261.91 484.566 260.869 484.055 260.043H483.23V266.999H476.51ZM483.348 244.363C483.348 247.782 483.849 250.798 484.851 253.412C485.853 256.005 487.317 258.039 489.243 259.513C491.168 260.967 493.526 261.694 496.317 261.694C499.225 261.694 501.651 260.928 503.597 259.395C505.562 257.843 507.035 255.76 508.018 253.146C509.02 250.513 509.521 247.586 509.521 244.363C509.521 241.18 509.03 238.311 508.047 235.756C507.085 233.182 505.621 231.149 503.656 229.655C501.71 228.142 499.264 227.386 496.317 227.386C493.487 227.386 491.109 228.103 489.184 229.537C487.258 230.952 485.804 232.937 484.822 235.491C483.839 238.026 483.348 240.983 483.348 244.363Z" fill="black" fill-opacity="0.6"/>
<path d="M408.58 250.494L408.462 241.887H409.877L429.684 221.727H438.29L417.187 243.066H416.597L408.58 250.494ZM402.096 266.999V206.636H409.052V266.999H402.096ZM430.863 266.999L413.178 244.599L418.13 239.765L439.705 266.999H430.863Z" fill="black" fill-opacity="0.6"/>
<path d="M371.634 267.943C367.39 267.943 363.735 266.941 360.67 264.937C357.604 262.932 355.247 260.172 353.596 256.654C351.945 253.137 351.12 249.119 351.12 244.599C351.12 240.001 351.965 235.944 353.655 232.426C355.364 228.889 357.742 226.129 360.788 224.144C363.853 222.14 367.429 221.138 371.516 221.138C374.7 221.138 377.569 221.727 380.123 222.906C382.677 224.085 384.77 225.736 386.401 227.858C388.032 229.98 389.044 232.456 389.437 235.285H382.481C381.95 233.222 380.771 231.395 378.944 229.803C377.136 228.192 374.7 227.386 371.634 227.386C368.923 227.386 366.545 228.094 364.501 229.508C362.478 230.904 360.896 232.878 359.756 235.433C358.636 237.968 358.076 240.945 358.076 244.364C358.076 247.861 358.626 250.907 359.727 253.501C360.847 256.094 362.419 258.108 364.443 259.543C366.486 260.977 368.883 261.695 371.634 261.695C373.442 261.695 375.083 261.38 376.557 260.751C378.03 260.123 379.278 259.219 380.3 258.04C381.322 256.861 382.049 255.446 382.481 253.795H389.437C389.044 256.468 388.071 258.875 386.519 261.017C384.986 263.139 382.952 264.829 380.418 266.086C377.903 267.324 374.975 267.943 371.634 267.943Z" fill="black" fill-opacity="0.6"/>
<path d="M331.055 267V221.727H338.011V267H331.055ZM334.592 214.182C333.237 214.182 332.067 213.72 331.085 212.797C330.122 211.873 329.641 210.763 329.641 209.466C329.641 208.169 330.122 207.059 331.085 206.135C332.067 205.212 333.237 204.75 334.592 204.75C335.948 204.75 337.107 205.212 338.07 206.135C339.053 207.059 339.544 208.169 339.544 209.466C339.544 210.763 339.053 211.873 338.07 212.797C337.107 213.72 335.948 214.182 334.592 214.182Z" fill="black" fill-opacity="0.75"/>
<path d="M308.869 248.49V221.728H315.825V267H308.869V259.337H308.398C307.336 261.636 305.686 263.591 303.446 265.202C301.206 266.794 298.376 267.59 294.957 267.59C292.128 267.59 289.613 266.971 287.412 265.733C285.211 264.475 283.482 262.589 282.224 260.074C280.967 257.539 280.338 254.346 280.338 250.495V221.728H287.294V250.023C287.294 253.324 288.217 255.957 290.064 257.922C291.931 259.887 294.309 260.87 297.197 260.87C298.926 260.87 300.685 260.427 302.473 259.543C304.281 258.659 305.794 257.303 307.012 255.476C308.25 253.648 308.869 251.32 308.869 248.49Z" fill="black" fill-opacity="0.75"/>
<path d="M258.16 283.977V260.044H257.57C257.059 260.869 256.332 261.911 255.389 263.168C254.446 264.406 253.1 265.516 251.351 266.499C249.602 267.462 247.274 267.943 244.366 267.943C240.593 267.943 237.262 266.99 234.374 265.084C231.485 263.158 229.226 260.447 227.595 256.949C225.964 253.432 225.148 249.276 225.148 244.481C225.148 239.726 225.964 235.6 227.595 232.102C229.226 228.605 231.495 225.903 234.403 223.997C237.312 222.091 240.672 221.138 244.484 221.138C247.431 221.138 249.76 221.629 251.469 222.611C253.198 223.574 254.515 224.675 255.419 225.913C256.342 227.131 257.059 228.133 257.57 228.919H258.396V221.727H265.116V283.977H258.16ZM245.309 261.695C248.099 261.695 250.457 260.967 252.383 259.513C254.308 258.04 255.772 256.006 256.775 253.412C257.777 250.799 258.278 247.783 258.278 244.364C258.278 240.984 257.786 238.027 256.804 235.492C255.821 232.937 254.367 230.953 252.442 229.538C250.516 228.103 248.138 227.386 245.309 227.386C242.362 227.386 239.905 228.143 237.94 229.656C235.995 231.149 234.531 233.183 233.549 235.757C232.586 238.311 232.104 241.18 232.104 244.364C232.104 247.586 232.596 250.514 233.578 253.147C234.58 255.76 236.054 257.843 237.999 259.396C239.964 260.928 242.401 261.695 245.309 261.695Z" fill="black" fill-opacity="0.75"/>
<path d="M169.619 267.943C165.257 267.943 161.494 266.98 158.331 265.055C155.187 263.109 152.76 260.398 151.05 256.92C149.361 253.422 148.516 249.355 148.516 244.717C148.516 240.08 149.361 235.993 151.05 232.456C152.76 228.899 155.138 226.129 158.183 224.144C161.249 222.14 164.825 221.138 168.912 221.138C171.27 221.138 173.598 221.531 175.897 222.317C178.196 223.103 180.289 224.38 182.175 226.148C184.062 227.897 185.565 230.216 186.685 233.104C187.805 235.993 188.365 239.549 188.365 243.774V246.722H153.467V240.709H181.291C181.291 238.154 180.78 235.875 179.759 233.871C178.756 231.866 177.322 230.285 175.455 229.125C173.608 227.966 171.427 227.386 168.912 227.386C166.141 227.386 163.744 228.074 161.72 229.449C159.716 230.805 158.173 232.574 157.093 234.755C156.012 236.936 155.472 239.274 155.472 241.77V245.778C155.472 249.197 156.061 252.096 157.24 254.473C158.439 256.831 160.099 258.629 162.221 259.867C164.343 261.085 166.809 261.695 169.619 261.695C171.447 261.695 173.097 261.439 174.571 260.928C176.064 260.398 177.351 259.612 178.432 258.57C179.513 257.509 180.348 256.193 180.938 254.621L187.658 256.507C186.95 258.786 185.761 260.791 184.091 262.52C182.421 264.229 180.358 265.565 177.902 266.528C175.445 267.472 172.685 267.943 169.619 267.943Z" fill="black" fill-opacity="0.9"/>
<path d="M106.065 239.765V266.999H99.1094V206.636H106.065V228.801H106.655C107.716 226.462 109.308 224.605 111.43 223.23C113.571 221.835 116.421 221.137 119.977 221.137C123.062 221.137 125.764 221.756 128.083 222.994C130.401 224.212 132.199 226.089 133.477 228.624C134.773 231.139 135.422 234.342 135.422 238.232V266.999H128.466V238.704C128.466 235.108 127.533 232.328 125.666 230.363C123.819 228.378 121.254 227.386 117.973 227.386C115.694 227.386 113.65 227.867 111.842 228.83C110.054 229.793 108.639 231.198 107.598 233.045C106.576 234.892 106.065 237.132 106.065 239.765Z" fill="black" fill-opacity="0.9"/>
<path d="M41.0088 213.12V206.636H86.2815V213.12H67.3V266.999H59.9903V213.12H41.0088Z" fill="black" fill-opacity="0.9"/>
</svg>
