<svg width="976" height="320" viewBox="0 0 976 320" fill="none" xmlns="http://www.w3.org/2000/svg">
<rect width="128" height="128" rx="40" transform="matrix(-1 0 0 1 944 32)" fill="white" fill-opacity="0.9"/>
<rect width="128" height="128" rx="40" transform="matrix(-1 0 0 1 784 32)" fill="white" fill-opacity="0.7"/>
<rect width="128" height="128" rx="40" transform="matrix(-1 0 0 1 624 32)" fill="white" fill-opacity="0.6"/>
<rect width="128" height="128" rx="40" transform="matrix(-1 0 0 1 464 32)" fill="white" fill-opacity="0.5"/>
<rect width="128" height="128" rx="40" transform="matrix(-1 0 0 1 304 32)" fill="white" fill-opacity="0.3"/>
<rect width="128" height="128" rx="40" transform="matrix(-1 0 0 1 144 32)" fill="white" fill-opacity="0.15"/>
<path d="M895.935 284.92C892.575 284.92 889.687 284.488 887.27 283.623C884.853 282.779 882.839 281.659 881.228 280.263C879.636 278.888 878.369 277.414 877.426 275.842L882.967 271.952C883.595 272.777 884.391 273.72 885.354 274.781C886.317 275.862 887.633 276.795 889.304 277.581C890.994 278.387 893.204 278.79 895.935 278.79C899.59 278.79 902.607 277.905 904.984 276.137C907.362 274.369 908.551 271.598 908.551 267.825V258.629H907.961C907.45 259.454 906.723 260.476 905.78 261.695C904.856 262.893 903.52 263.964 901.771 264.907C900.042 265.831 897.704 266.293 894.756 266.293C891.102 266.293 887.82 265.428 884.912 263.699C882.023 261.97 879.734 259.454 878.044 256.153C876.374 252.852 875.539 248.844 875.539 244.128C875.539 239.49 876.355 235.452 877.985 232.014C879.616 228.555 881.886 225.883 884.794 223.997C887.702 222.091 891.062 221.138 894.874 221.138C897.822 221.138 900.16 221.629 901.889 222.611C903.638 223.574 904.974 224.675 905.898 225.913C906.841 227.131 907.568 228.133 908.079 228.919H908.786V221.727H915.506V268.297C915.506 272.187 914.622 275.351 912.854 277.788C911.105 280.244 908.747 282.042 905.78 283.181C902.832 284.341 899.551 284.92 895.935 284.92ZM895.7 260.044C898.49 260.044 900.848 259.405 902.773 258.128C904.699 256.851 906.163 255.014 907.165 252.616C908.167 250.219 908.668 247.35 908.668 244.01C908.668 240.748 908.177 237.869 907.195 235.374C906.212 232.878 904.758 230.923 902.832 229.508C900.907 228.094 898.529 227.386 895.7 227.386C892.752 227.386 890.296 228.133 888.331 229.626C886.386 231.12 884.922 233.124 883.939 235.639C882.976 238.154 882.495 240.945 882.495 244.01C882.495 247.154 882.986 249.934 883.969 252.351C884.971 254.748 886.445 256.635 888.39 258.01C890.355 259.366 892.791 260.044 895.7 260.044Z" fill="white" fill-opacity="0.9"/>
<path d="M844.039 267.943C839.952 267.943 836.366 266.97 833.281 265.025C830.215 263.08 827.818 260.358 826.089 256.861C824.379 253.363 823.524 249.276 823.524 244.599C823.524 239.883 824.379 235.767 826.089 232.25C827.818 228.732 830.215 226.001 833.281 224.056C836.366 222.11 839.952 221.138 844.039 221.138C848.126 221.138 851.702 222.11 854.767 224.056C857.852 226.001 860.25 228.732 861.959 232.25C863.688 235.767 864.553 239.883 864.553 244.599C864.553 249.276 863.688 253.363 861.959 256.861C860.25 260.358 857.852 263.08 854.767 265.025C851.702 266.97 848.126 267.943 844.039 267.943ZM844.039 261.695C847.143 261.695 849.698 260.899 851.702 259.307C853.706 257.715 855.19 255.623 856.153 253.029C857.116 250.435 857.597 247.625 857.597 244.599C857.597 241.573 857.116 238.754 856.153 236.14C855.19 233.527 853.706 231.414 851.702 229.803C849.698 228.192 847.143 227.386 844.039 227.386C840.934 227.386 838.38 228.192 836.375 229.803C834.371 231.414 832.888 233.527 831.925 236.14C830.962 238.754 830.48 241.573 830.48 244.599C830.48 247.625 830.962 250.435 831.925 253.029C832.888 255.623 834.371 257.715 836.375 259.307C838.38 260.899 840.934 261.695 844.039 261.695Z" fill="white" fill-opacity="0.9"/>
<path d="M788.702 267.944C784.929 267.944 781.598 266.991 778.71 265.085C775.821 263.159 773.562 260.447 771.931 256.95C770.3 253.432 769.484 249.276 769.484 244.482C769.484 239.727 770.3 235.6 771.931 232.103C773.562 228.605 775.831 225.903 778.739 223.997C781.648 222.091 785.008 221.138 788.82 221.138C791.767 221.138 794.096 221.629 795.805 222.612C797.534 223.575 798.851 224.675 799.755 225.913C800.678 227.131 801.395 228.133 801.906 228.919H802.496V206.637H809.452V267H802.732V260.044H801.906C801.395 260.87 800.668 261.911 799.725 263.169C798.782 264.407 797.436 265.517 795.687 266.499C793.938 267.462 791.61 267.944 788.702 267.944ZM789.645 261.695C792.435 261.695 794.793 260.968 796.719 259.514C798.644 258.04 800.108 256.006 801.11 253.413C802.113 250.799 802.614 247.783 802.614 244.364C802.614 240.984 802.122 238.027 801.14 235.492C800.158 232.938 798.703 230.953 796.778 229.538C794.852 228.104 792.474 227.387 789.645 227.387C786.697 227.387 784.241 228.143 782.276 229.656C780.331 231.15 778.867 233.183 777.885 235.757C776.922 238.312 776.44 241.181 776.44 244.364C776.44 247.587 776.932 250.514 777.914 253.147C778.916 255.761 780.39 257.844 782.335 259.396C784.3 260.929 786.737 261.695 789.645 261.695Z" fill="white" fill-opacity="0.9"/>
<path d="M701.561 283.978C700.382 283.978 699.331 283.879 698.407 283.683C697.484 283.506 696.845 283.329 696.491 283.152L698.26 277.022C699.95 277.454 701.443 277.611 702.74 277.493C704.037 277.375 705.186 276.796 706.188 275.754C707.21 274.732 708.144 273.072 708.989 270.773L710.285 267.236L693.544 221.728H701.089L713.587 257.804H714.058L726.555 221.728H734.101L714.883 273.603C714.019 275.941 712.948 277.876 711.671 279.409C710.393 280.961 708.91 282.111 707.22 282.858C705.55 283.604 703.663 283.978 701.561 283.978Z" fill="white" fill-opacity="0.7"/>
<path d="M648.39 267V261.695L674.091 228.684V228.212H649.215V221.728H683.052V227.269L658.057 260.044V260.516H683.877V267H648.39Z" fill="white" fill-opacity="0.7"/>
<path d="M613.751 268.061C610.882 268.061 608.279 267.521 605.941 266.44C603.602 265.34 601.745 263.758 600.37 261.695C598.994 259.612 598.307 257.097 598.307 254.149C598.307 251.555 598.818 249.453 599.839 247.842C600.861 246.211 602.227 244.933 603.936 244.01C605.646 243.086 607.532 242.399 609.595 241.947C611.678 241.475 613.771 241.102 615.873 240.827C618.624 240.473 620.855 240.208 622.564 240.031C624.293 239.834 625.551 239.51 626.337 239.058C627.143 238.606 627.545 237.82 627.545 236.7V236.464C627.545 233.556 626.75 231.297 625.158 229.685C623.586 228.074 621.198 227.268 617.996 227.268C614.675 227.268 612.071 227.995 610.185 229.449C608.299 230.904 606.972 232.456 606.206 234.106L599.604 231.748C600.782 228.998 602.354 226.856 604.319 225.323C606.304 223.771 608.466 222.69 610.804 222.081C613.162 221.452 615.48 221.138 617.76 221.138C619.214 221.138 620.884 221.315 622.771 221.668C624.677 222.002 626.514 222.7 628.282 223.761C630.07 224.822 631.554 226.423 632.733 228.565C633.912 230.707 634.501 233.576 634.501 237.172V267H627.545V260.869H627.192C626.72 261.852 625.934 262.903 624.834 264.023C623.733 265.143 622.269 266.096 620.442 266.882C618.615 267.668 616.384 268.061 613.751 268.061ZM614.812 261.812C617.563 261.812 619.882 261.272 621.768 260.191C623.674 259.111 625.109 257.715 626.072 256.006C627.054 254.296 627.545 252.498 627.545 250.612V244.246C627.251 244.599 626.602 244.924 625.6 245.218C624.617 245.493 623.478 245.739 622.181 245.955C620.904 246.152 619.656 246.329 618.438 246.486C617.239 246.623 616.266 246.741 615.52 246.839C613.712 247.075 612.022 247.458 610.45 247.989C608.898 248.5 607.64 249.276 606.677 250.317C605.734 251.339 605.263 252.734 605.263 254.503C605.263 256.92 606.157 258.747 607.945 259.985C609.753 261.203 612.042 261.812 614.812 261.812Z" fill="white" fill-opacity="0.6"/>
<path d="M585.198 206.637V267H578.242V206.637H585.198Z" fill="white" fill-opacity="0.6"/>
<path d="M520.591 267.943C516.229 267.943 512.466 266.98 509.302 265.055C506.158 263.109 503.732 260.398 502.022 256.92C500.332 253.422 499.487 249.355 499.487 244.717C499.487 240.08 500.332 235.993 502.022 232.456C503.732 228.899 506.109 226.129 509.155 224.144C512.22 222.14 515.797 221.138 519.884 221.138C522.242 221.138 524.57 221.531 526.869 222.317C529.168 223.103 531.261 224.38 533.147 226.148C535.034 227.897 536.537 230.216 537.657 233.104C538.777 235.993 539.337 239.549 539.337 243.774V246.722H504.439V240.709H532.263C532.263 238.154 531.752 235.875 530.73 233.871C529.728 231.866 528.294 230.285 526.427 229.125C524.58 227.966 522.399 227.386 519.884 227.386C517.113 227.386 514.716 228.074 512.692 229.449C510.688 230.805 509.145 232.574 508.064 234.755C506.984 236.936 506.443 239.274 506.443 241.77V245.778C506.443 249.197 507.033 252.096 508.212 254.473C509.41 256.831 511.071 258.629 513.193 259.867C515.315 261.085 517.781 261.695 520.591 261.695C522.418 261.695 524.069 261.439 525.543 260.928C527.036 260.398 528.323 259.612 529.404 258.57C530.485 257.509 531.32 256.193 531.909 254.621L538.629 256.507C537.922 258.786 536.733 260.791 535.063 262.52C533.393 264.229 531.33 265.565 528.873 266.528C526.417 267.472 523.656 267.943 520.591 267.943Z" fill="white" fill-opacity="0.6"/>
<path d="M457.038 239.766V267H450.082V206.637H457.038V228.801H457.628C458.689 226.463 460.28 224.606 462.402 223.231C464.544 221.836 467.393 221.138 470.95 221.138C474.035 221.138 476.737 221.757 479.055 222.995C481.374 224.213 483.172 226.09 484.449 228.625C485.746 231.14 486.395 234.343 486.395 238.233V267H479.439V238.705C479.439 235.109 478.505 232.329 476.639 230.364C474.791 228.379 472.227 227.387 468.946 227.387C466.666 227.387 464.623 227.868 462.815 228.831C461.027 229.794 459.612 231.199 458.571 233.046C457.549 234.893 457.038 237.133 457.038 239.766Z" fill="white" fill-opacity="0.5"/>
<path d="M436.155 221.727V227.622H412.693V221.727H436.155ZM419.531 210.881H426.487V254.031C426.487 255.996 426.772 257.47 427.342 258.453C427.932 259.415 428.678 260.064 429.582 260.398C430.506 260.712 431.478 260.869 432.5 260.869C433.266 260.869 433.895 260.83 434.387 260.752C434.878 260.653 435.271 260.575 435.566 260.516L436.98 266.764C436.509 266.941 435.85 267.118 435.005 267.295C434.161 267.491 433.09 267.59 431.793 267.59C429.828 267.59 427.902 267.167 426.016 266.322C424.149 265.477 422.597 264.19 421.359 262.461C420.141 260.732 419.531 258.551 419.531 255.918V210.881Z" fill="white" fill-opacity="0.5"/>
<path d="M357.261 267.001V221.728H363.981V228.566H364.453C365.278 226.326 366.771 224.508 368.933 223.113C371.094 221.718 373.531 221.021 376.242 221.021C376.753 221.021 377.392 221.03 378.158 221.05C378.924 221.07 379.504 221.099 379.897 221.138V228.212C379.661 228.153 379.121 228.065 378.276 227.947C377.451 227.809 376.576 227.741 375.653 227.741C373.452 227.741 371.487 228.202 369.758 229.126C368.048 230.03 366.693 231.287 365.69 232.899C364.708 234.49 364.217 236.308 364.217 238.351V267.001H357.261Z" fill="white" fill-opacity="0.5"/>
<path d="M325.444 267.943C321.081 267.943 317.318 266.98 314.155 265.055C311.011 263.109 308.584 260.398 306.875 256.92C305.185 253.422 304.34 249.355 304.34 244.717C304.34 240.08 305.185 235.993 306.875 232.456C308.584 228.899 310.962 226.129 314.008 224.144C317.073 222.14 320.649 221.138 324.736 221.138C327.094 221.138 329.423 221.531 331.722 222.317C334.021 223.103 336.113 224.38 338 226.148C339.886 227.897 341.389 230.216 342.509 233.104C343.629 235.993 344.189 239.549 344.189 243.774V246.722H309.292V240.709H337.115C337.115 238.154 336.605 235.875 335.583 233.871C334.581 231.866 333.146 230.285 331.28 229.125C329.432 227.966 327.251 227.386 324.736 227.386C321.966 227.386 319.568 228.074 317.544 229.449C315.54 230.805 313.998 232.574 312.917 234.755C311.836 236.936 311.296 239.274 311.296 241.77V245.778C311.296 249.197 311.885 252.096 313.064 254.473C314.263 256.831 315.923 258.629 318.046 259.867C320.168 261.085 322.634 261.695 325.444 261.695C327.271 261.695 328.922 261.439 330.395 260.928C331.889 260.398 333.176 259.612 334.256 258.57C335.337 257.509 336.172 256.193 336.762 254.621L343.482 256.507C342.775 258.786 341.586 260.791 339.916 262.52C338.245 264.229 336.182 265.565 333.726 266.528C331.27 267.472 328.509 267.943 325.444 267.943Z" fill="white" fill-opacity="0.3"/>
<path d="M296.412 221.728L279.671 267H272.597L255.855 221.728H263.401L275.898 257.804H276.37L288.867 221.728H296.412Z" fill="white" fill-opacity="0.3"/>
<path d="M227.391 267.943C223.304 267.943 219.718 266.97 216.633 265.025C213.568 263.08 211.17 260.358 209.441 256.861C207.732 253.363 206.877 249.276 206.877 244.599C206.877 239.883 207.732 235.767 209.441 232.25C211.17 228.732 213.568 226.001 216.633 224.056C219.718 222.11 223.304 221.138 227.391 221.138C231.478 221.138 235.055 222.11 238.12 224.056C241.205 226.001 243.602 228.732 245.312 232.25C247.041 235.767 247.905 239.883 247.905 244.599C247.905 249.276 247.041 253.363 245.312 256.861C243.602 260.358 241.205 263.08 238.12 265.025C235.055 266.97 231.478 267.943 227.391 267.943ZM227.391 261.695C230.496 261.695 233.05 260.899 235.055 259.307C237.059 257.715 238.542 255.623 239.505 253.029C240.468 250.435 240.949 247.625 240.949 244.599C240.949 241.573 240.468 238.754 239.505 236.14C238.542 233.527 237.059 231.414 235.055 229.803C233.05 228.192 230.496 227.386 227.391 227.386C224.287 227.386 221.732 228.192 219.728 229.803C217.724 231.414 216.24 233.527 215.277 236.14C214.314 238.754 213.833 241.573 213.833 244.599C213.833 247.625 214.314 250.435 215.277 253.029C216.24 255.623 217.724 257.715 219.728 259.307C221.732 260.899 224.287 261.695 227.391 261.695Z" fill="white" fill-opacity="0.3"/>
<path d="M169.379 231.866L163.13 233.635C162.738 232.593 162.158 231.581 161.392 230.599C160.645 229.597 159.623 228.772 158.326 228.123C157.029 227.475 155.369 227.15 153.345 227.15C150.574 227.15 148.266 227.789 146.419 229.066C144.591 230.324 143.677 231.925 143.677 233.871C143.677 235.6 144.306 236.965 145.564 237.968C146.821 238.97 148.786 239.805 151.459 240.473L158.179 242.123C162.227 243.106 165.243 244.609 167.228 246.633C169.212 248.637 170.204 251.221 170.204 254.385C170.204 256.979 169.458 259.297 167.964 261.341C166.491 263.384 164.427 264.996 161.775 266.175C159.122 267.354 156.037 267.943 152.52 267.943C147.902 267.943 144.08 266.941 141.054 264.937C138.028 262.932 136.112 260.005 135.307 256.153L141.909 254.503C142.538 256.939 143.727 258.767 145.475 259.985C147.244 261.203 149.553 261.812 152.402 261.812C155.644 261.812 158.218 261.125 160.124 259.749C162.05 258.354 163.013 256.684 163.013 254.739C163.013 253.167 162.462 251.85 161.362 250.789C160.262 249.708 158.572 248.903 156.292 248.372L148.747 246.604C144.601 245.621 141.555 244.098 139.61 242.035C137.684 239.952 136.721 237.349 136.721 234.224C136.721 231.67 137.439 229.41 138.873 227.445C140.327 225.48 142.302 223.938 144.797 222.818C147.313 221.698 150.162 221.138 153.345 221.138C157.825 221.138 161.342 222.12 163.897 224.085C166.471 226.05 168.298 228.644 169.379 231.866Z" fill="white" fill-opacity="0.15"/>
<path d="M84.2432 283.977V221.727H90.9634V228.919H91.7887C92.2996 228.133 93.0069 227.131 93.9108 225.913C94.8343 224.675 96.1508 223.574 97.8604 222.611C99.5895 221.629 101.928 221.138 104.875 221.138C108.687 221.138 112.047 222.091 114.956 223.997C117.864 225.903 120.133 228.605 121.764 232.102C123.395 235.6 124.211 239.726 124.211 244.481C124.211 249.276 123.395 253.432 121.764 256.949C120.133 260.447 117.873 263.158 114.985 265.084C112.096 266.99 108.766 267.943 104.993 267.943C102.085 267.943 99.7565 267.462 98.0077 266.499C96.2589 265.516 94.9129 264.406 93.9697 263.168C93.0265 261.911 92.2996 260.869 91.7887 260.044H91.1991V283.977H84.2432ZM91.0813 244.364C91.0813 247.783 91.5823 250.799 92.5845 253.412C93.5866 256.006 95.0505 258.04 96.9762 259.513C98.9019 260.967 101.26 261.695 104.05 261.695C106.958 261.695 109.385 260.928 111.33 259.396C113.295 257.843 114.769 255.76 115.751 253.147C116.753 250.514 117.255 247.586 117.255 244.364C117.255 241.18 116.763 238.311 115.781 235.757C114.818 233.183 113.354 231.149 111.389 229.656C109.444 228.143 106.997 227.386 104.05 227.386C101.221 227.386 98.8429 228.103 96.9172 229.538C94.9916 230.953 93.5374 232.937 92.5549 235.492C91.5725 238.027 91.0813 240.984 91.0813 244.364Z" fill="white" fill-opacity="0.15"/>
<path d="M9.61426 267V221.727H16.3345V228.801H16.924C17.8671 226.384 19.39 224.508 21.4925 223.171C23.595 221.816 26.1199 221.138 29.0674 221.138C32.0541 221.138 34.5398 221.816 36.5244 223.171C38.5287 224.508 40.0908 226.384 41.2109 228.801H41.6824C42.8418 226.463 44.5808 224.606 46.8994 223.23C49.2181 221.835 51.9985 221.138 55.2407 221.138C59.2885 221.138 62.5995 222.405 65.1736 224.94C67.7477 227.455 69.0347 231.375 69.0347 236.7V267H62.0788V236.7C62.0788 233.36 61.1651 230.972 59.3376 229.538C57.5102 228.103 55.3586 227.386 52.8828 227.386C49.6995 227.386 47.2335 228.349 45.4847 230.275C43.7359 232.181 42.8615 234.598 42.8615 237.525V267H35.7876V235.993C35.7876 233.419 34.9524 231.346 33.2822 229.774C31.612 228.182 29.4604 227.386 26.8273 227.386C25.0196 227.386 23.3297 227.868 21.7578 228.831C20.2054 229.793 18.9479 231.13 17.985 232.839C17.0419 234.529 16.5703 236.484 16.5703 238.704V267H9.61426Z" fill="white" fill-opacity="0.15"/>
</svg>
