<svg width="976" height="320" viewBox="0 0 976 320" fill="none" xmlns="http://www.w3.org/2000/svg">
<path d="M944 96C944 73.5979 944 62.3968 939.64 53.8404C935.805 46.3139 929.686 40.1947 922.16 36.3597C913.603 32 902.402 32 880 32V32C857.598 32 846.397 32 837.84 36.3597C830.314 40.1947 824.195 46.3139 820.36 53.8404C816 62.3968 816 73.5979 816 96V96C816 118.402 816 129.603 820.36 138.16C824.195 145.686 830.314 151.805 837.84 155.64C846.397 160 857.598 160 880 160V160C902.402 160 913.603 160 922.16 155.64C929.686 151.805 935.805 145.686 939.64 138.16C944 129.603 944 118.402 944 96V96Z" fill="#F7FAFC"/>
<path d="M784 96C784 73.5979 784 62.3968 779.64 53.8404C775.805 46.3139 769.686 40.1947 762.16 36.3597C753.603 32 742.402 32 720 32V32C697.598 32 686.397 32 677.84 36.3597C670.314 40.1947 664.195 46.3139 660.36 53.8404C656 62.3968 656 73.5979 656 96V96C656 118.402 656 129.603 660.36 138.16C664.195 145.686 670.314 151.805 677.84 155.64C686.397 160 697.598 160 720 160V160C742.402 160 753.603 160 762.16 155.64C769.686 151.805 775.805 145.686 779.64 138.16C784 129.603 784 118.402 784 96V96Z" fill="#EDF2F7"/>
<path d="M624 96C624 73.5979 624 62.3968 619.64 53.8404C615.805 46.3139 609.686 40.1947 602.16 36.3597C593.603 32 582.402 32 560 32V32C537.598 32 526.397 32 517.84 36.3597C510.314 40.1947 504.195 46.3139 500.36 53.8404C496 62.3968 496 73.5979 496 96V96C496 118.402 496 129.603 500.36 138.16C504.195 145.686 510.314 151.805 517.84 155.64C526.397 160 537.598 160 560 160V160C582.402 160 593.603 160 602.16 155.64C609.686 151.805 615.805 145.686 619.64 138.16C624 129.603 624 118.402 624 96V96Z" fill="#E2E8F0"/>
<path d="M464 96C464 73.5979 464 62.3968 459.64 53.8404C455.805 46.3139 449.686 40.1947 442.16 36.3597C433.603 32 422.402 32 400 32V32C377.598 32 366.397 32 357.84 36.3597C350.314 40.1947 344.195 46.3139 340.36 53.8404C336 62.3968 336 73.5979 336 96V96C336 118.402 336 129.603 340.36 138.16C344.195 145.686 350.314 151.805 357.84 155.64C366.397 160 377.598 160 400 160V160C422.402 160 433.603 160 442.16 155.64C449.686 151.805 455.805 145.686 459.64 138.16C464 129.603 464 118.402 464 96V96Z" fill="#C7D2E0"/>
<path d="M304 96C304 73.5979 304 62.3968 299.64 53.8404C295.805 46.3139 289.686 40.1947 282.16 36.3597C273.603 32 262.402 32 240 32V32C217.598 32 206.397 32 197.84 36.3597C190.314 40.1947 184.195 46.3139 180.36 53.8404C176 62.3968 176 73.5979 176 96V96C176 118.402 176 129.603 180.36 138.16C184.195 145.686 190.314 151.805 197.84 155.64C206.397 160 217.598 160 240 160V160C262.402 160 273.603 160 282.16 155.64C289.686 151.805 295.805 145.686 299.64 138.16C304 129.603 304 118.402 304 96V96Z" fill="#96A4B6"/>
<path d="M144 96C144 73.5979 144 62.3968 139.64 53.8404C135.805 46.3139 129.686 40.1947 122.16 36.3597C113.603 32 102.402 32 80 32V32C57.5979 32 46.3968 32 37.8404 36.3597C30.3139 40.1947 24.1947 46.3139 20.3597 53.8404C16 62.3968 16 73.5979 16 96V96C16 118.402 16 129.603 20.3597 138.16C24.1947 145.686 30.3139 151.805 37.8404 155.64C46.3968 160 57.5979 160 80 160V160C102.402 160 113.603 160 122.16 155.64C129.686 151.805 135.805 145.686 139.64 138.16C144 129.603 144 118.402 144 96V96Z" fill="#6E7C8E"/>
<path d="M895.935 289.92C892.575 289.92 889.687 289.488 887.27 288.623C884.853 287.779 882.839 286.659 881.228 285.263C879.636 283.888 878.369 282.414 877.426 280.842L882.967 276.952C883.595 277.777 884.391 278.72 885.354 279.781C886.317 280.862 887.633 281.795 889.304 282.581C890.994 283.387 893.204 283.79 895.935 283.79C899.59 283.79 902.607 282.905 904.984 281.137C907.362 279.369 908.551 276.598 908.551 272.825V263.629H907.961C907.45 264.454 906.723 265.476 905.78 266.695C904.856 267.893 903.52 268.964 901.771 269.907C900.042 270.831 897.704 271.293 894.756 271.293C891.102 271.293 887.82 270.428 884.912 268.699C882.023 266.97 879.734 264.454 878.044 261.153C876.374 257.852 875.539 253.844 875.539 249.128C875.539 244.49 876.355 240.452 877.985 237.014C879.616 233.555 881.886 230.883 884.794 228.997C887.702 227.091 891.062 226.138 894.874 226.138C897.822 226.138 900.16 226.629 901.889 227.611C903.638 228.574 904.974 229.675 905.898 230.913C906.841 232.131 907.568 233.133 908.079 233.919H908.786V226.727H915.506V273.297C915.506 277.187 914.622 280.351 912.854 282.788C911.105 285.244 908.747 287.042 905.78 288.181C902.832 289.341 899.551 289.92 895.935 289.92ZM895.7 265.044C898.49 265.044 900.848 264.405 902.773 263.128C904.699 261.851 906.163 260.014 907.165 257.616C908.167 255.219 908.668 252.35 908.668 249.01C908.668 245.748 908.177 242.869 907.195 240.374C906.212 237.878 904.758 235.923 902.832 234.508C900.907 233.094 898.529 232.386 895.7 232.386C892.752 232.386 890.296 233.133 888.331 234.626C886.386 236.12 884.922 238.124 883.939 240.639C882.976 243.154 882.495 245.945 882.495 249.01C882.495 252.154 882.986 254.934 883.969 257.351C884.971 259.748 886.445 261.635 888.39 263.01C890.355 264.366 892.791 265.044 895.7 265.044Z" fill="#F7FAFC"/>
<path d="M844.039 272.943C839.952 272.943 836.366 271.97 833.281 270.025C830.215 268.08 827.818 265.358 826.089 261.861C824.379 258.363 823.524 254.276 823.524 249.599C823.524 244.883 824.379 240.767 826.089 237.25C827.818 233.732 830.215 231.001 833.281 229.056C836.366 227.11 839.952 226.138 844.039 226.138C848.126 226.138 851.702 227.11 854.767 229.056C857.852 231.001 860.25 233.732 861.959 237.25C863.688 240.767 864.553 244.883 864.553 249.599C864.553 254.276 863.688 258.363 861.959 261.861C860.25 265.358 857.852 268.08 854.767 270.025C851.702 271.97 848.126 272.943 844.039 272.943ZM844.039 266.695C847.143 266.695 849.698 265.899 851.702 264.307C853.706 262.715 855.19 260.623 856.153 258.029C857.116 255.435 857.597 252.625 857.597 249.599C857.597 246.573 857.116 243.754 856.153 241.14C855.19 238.527 853.706 236.414 851.702 234.803C849.698 233.192 847.143 232.386 844.039 232.386C840.934 232.386 838.38 233.192 836.375 234.803C834.371 236.414 832.888 238.527 831.925 241.14C830.962 243.754 830.48 246.573 830.48 249.599C830.48 252.625 830.962 255.435 831.925 258.029C832.888 260.623 834.371 262.715 836.375 264.307C838.38 265.899 840.934 266.695 844.039 266.695Z" fill="#F7FAFC"/>
<path d="M788.702 272.944C784.929 272.944 781.598 271.991 778.71 270.085C775.821 268.159 773.562 265.447 771.931 261.95C770.3 258.432 769.484 254.276 769.484 249.482C769.484 244.727 770.3 240.6 771.931 237.103C773.562 233.605 775.831 230.903 778.739 228.997C781.648 227.091 785.008 226.138 788.82 226.138C791.767 226.138 794.096 226.629 795.805 227.612C797.534 228.575 798.851 229.675 799.755 230.913C800.678 232.131 801.395 233.133 801.906 233.919H802.496V211.637H809.452V272H802.732V265.044H801.906C801.395 265.87 800.668 266.911 799.725 268.169C798.782 269.407 797.436 270.517 795.687 271.499C793.938 272.462 791.61 272.944 788.702 272.944ZM789.645 266.695C792.435 266.695 794.793 265.968 796.719 264.514C798.644 263.04 800.108 261.006 801.11 258.413C802.113 255.799 802.614 252.783 802.614 249.364C802.614 245.984 802.122 243.027 801.14 240.492C800.158 237.938 798.703 235.953 796.778 234.538C794.852 233.104 792.474 232.387 789.645 232.387C786.697 232.387 784.241 233.143 782.276 234.656C780.331 236.15 778.867 238.183 777.885 240.757C776.922 243.312 776.44 246.181 776.44 249.364C776.44 252.587 776.932 255.514 777.914 258.147C778.916 260.761 780.39 262.844 782.335 264.396C784.3 265.929 786.737 266.695 789.645 266.695Z" fill="#EDF2F7"/>
<path d="M701.561 288.978C700.382 288.978 699.331 288.879 698.407 288.683C697.484 288.506 696.845 288.329 696.491 288.152L698.26 282.022C699.95 282.454 701.443 282.611 702.74 282.493C704.037 282.375 705.186 281.796 706.188 280.754C707.21 279.732 708.144 278.072 708.989 275.773L710.285 272.236L693.544 226.728H701.089L713.587 262.804H714.058L726.555 226.728H734.101L714.883 278.603C714.019 280.941 712.948 282.876 711.671 284.409C710.393 285.961 708.91 287.111 707.22 287.858C705.55 288.604 703.663 288.978 701.561 288.978Z" fill="#EDF2F7"/>
<path d="M648.39 272V266.695L674.091 233.684V233.212H649.215V226.728H683.052V232.269L658.057 265.044V265.516H683.877V272H648.39Z" fill="#EDF2F7"/>
<path d="M613.751 273.061C610.882 273.061 608.279 272.521 605.941 271.44C603.602 270.34 601.745 268.758 600.37 266.695C598.994 264.612 598.307 262.097 598.307 259.149C598.307 256.555 598.818 254.453 599.839 252.842C600.861 251.211 602.227 249.933 603.936 249.01C605.646 248.086 607.532 247.399 609.595 246.947C611.678 246.475 613.771 246.102 615.873 245.827C618.624 245.473 620.855 245.208 622.564 245.031C624.293 244.834 625.551 244.51 626.337 244.058C627.143 243.606 627.545 242.82 627.545 241.7V241.464C627.545 238.556 626.75 236.297 625.158 234.685C623.586 233.074 621.198 232.268 617.996 232.268C614.675 232.268 612.071 232.995 610.185 234.449C608.299 235.904 606.972 237.456 606.206 239.106L599.604 236.748C600.782 233.998 602.354 231.856 604.319 230.323C606.304 228.771 608.466 227.69 610.804 227.081C613.162 226.452 615.48 226.138 617.76 226.138C619.214 226.138 620.884 226.315 622.771 226.668C624.677 227.002 626.514 227.7 628.282 228.761C630.07 229.822 631.554 231.423 632.733 233.565C633.912 235.707 634.501 238.576 634.501 242.172V272H627.545V265.869H627.192C626.72 266.852 625.934 267.903 624.834 269.023C623.733 270.143 622.269 271.096 620.442 271.882C618.615 272.668 616.384 273.061 613.751 273.061ZM614.812 266.812C617.563 266.812 619.882 266.272 621.768 265.191C623.674 264.111 625.109 262.715 626.072 261.006C627.054 259.296 627.545 257.498 627.545 255.612V249.246C627.251 249.599 626.602 249.924 625.6 250.218C624.617 250.493 623.478 250.739 622.181 250.955C620.904 251.152 619.656 251.329 618.438 251.486C617.239 251.623 616.266 251.741 615.52 251.839C613.712 252.075 612.022 252.458 610.45 252.989C608.898 253.5 607.64 254.276 606.677 255.317C605.734 256.339 605.263 257.734 605.263 259.503C605.263 261.92 606.157 263.747 607.945 264.985C609.753 266.203 612.042 266.812 614.812 266.812Z" fill="#E2E8F0"/>
<path d="M585.198 211.637V272H578.242V211.637H585.198Z" fill="#E2E8F0"/>
<path d="M520.591 272.943C516.229 272.943 512.466 271.98 509.302 270.055C506.158 268.109 503.732 265.398 502.022 261.92C500.332 258.422 499.487 254.355 499.487 249.717C499.487 245.08 500.332 240.993 502.022 237.456C503.732 233.899 506.109 231.129 509.155 229.144C512.22 227.14 515.797 226.138 519.884 226.138C522.242 226.138 524.57 226.531 526.869 227.317C529.168 228.103 531.261 229.38 533.147 231.148C535.034 232.897 536.537 235.216 537.657 238.104C538.777 240.993 539.337 244.549 539.337 248.774V251.722H504.439V245.709H532.263C532.263 243.154 531.752 240.875 530.73 238.871C529.728 236.866 528.294 235.285 526.427 234.125C524.58 232.966 522.399 232.386 519.884 232.386C517.113 232.386 514.716 233.074 512.692 234.449C510.688 235.805 509.145 237.574 508.064 239.755C506.984 241.936 506.443 244.274 506.443 246.77V250.778C506.443 254.197 507.033 257.096 508.212 259.473C509.41 261.831 511.071 263.629 513.193 264.867C515.315 266.085 517.781 266.695 520.591 266.695C522.418 266.695 524.069 266.439 525.543 265.928C527.036 265.398 528.323 264.612 529.404 263.57C530.485 262.509 531.32 261.193 531.909 259.621L538.629 261.507C537.922 263.786 536.733 265.791 535.063 267.52C533.393 269.229 531.33 270.565 528.873 271.528C526.417 272.472 523.656 272.943 520.591 272.943Z" fill="#E2E8F0"/>
<path d="M457.038 244.766V272H450.082V211.637H457.038V233.801H457.628C458.689 231.463 460.28 229.606 462.402 228.231C464.544 226.836 467.393 226.138 470.95 226.138C474.035 226.138 476.737 226.757 479.055 227.995C481.374 229.213 483.172 231.09 484.449 233.625C485.746 236.14 486.395 239.343 486.395 243.233V272H479.439V243.705C479.439 240.109 478.505 237.329 476.639 235.364C474.791 233.379 472.227 232.387 468.946 232.387C466.666 232.387 464.623 232.868 462.815 233.831C461.027 234.794 459.612 236.199 458.571 238.046C457.549 239.893 457.038 242.133 457.038 244.766Z" fill="#C7D2E0"/>
<path d="M436.155 226.727V232.622H412.693V226.727H436.155ZM419.531 215.881H426.487V259.031C426.487 260.996 426.772 262.47 427.342 263.453C427.932 264.415 428.678 265.064 429.582 265.398C430.506 265.712 431.478 265.869 432.5 265.869C433.266 265.869 433.895 265.83 434.387 265.752C434.878 265.653 435.271 265.575 435.566 265.516L436.98 271.764C436.509 271.941 435.85 272.118 435.005 272.295C434.161 272.491 433.09 272.59 431.793 272.59C429.828 272.59 427.902 272.167 426.016 271.322C424.149 270.477 422.597 269.19 421.359 267.461C420.141 265.732 419.531 263.551 419.531 260.918V215.881Z" fill="#C7D2E0"/>
<path d="M357.261 272.001V226.728H363.981V233.566H364.453C365.278 231.326 366.771 229.508 368.933 228.113C371.094 226.718 373.531 226.021 376.242 226.021C376.753 226.021 377.392 226.03 378.158 226.05C378.924 226.07 379.504 226.099 379.897 226.138V233.212C379.661 233.153 379.121 233.065 378.276 232.947C377.451 232.809 376.576 232.741 375.653 232.741C373.452 232.741 371.487 233.202 369.758 234.126C368.048 235.03 366.693 236.287 365.69 237.899C364.708 239.49 364.217 241.308 364.217 243.351V272.001H357.261Z" fill="#C7D2E0"/>
<path d="M325.444 272.943C321.081 272.943 317.318 271.98 314.155 270.055C311.011 268.109 308.584 265.398 306.875 261.92C305.185 258.422 304.34 254.355 304.34 249.717C304.34 245.08 305.185 240.993 306.875 237.456C308.584 233.899 310.962 231.129 314.008 229.144C317.073 227.14 320.649 226.138 324.736 226.138C327.094 226.138 329.423 226.531 331.722 227.317C334.021 228.103 336.113 229.38 338 231.148C339.886 232.897 341.389 235.216 342.509 238.104C343.629 240.993 344.189 244.549 344.189 248.774V251.722H309.292V245.709H337.115C337.115 243.154 336.605 240.875 335.583 238.871C334.581 236.866 333.146 235.285 331.28 234.125C329.432 232.966 327.251 232.386 324.736 232.386C321.966 232.386 319.568 233.074 317.544 234.449C315.54 235.805 313.998 237.574 312.917 239.755C311.836 241.936 311.296 244.274 311.296 246.77V250.778C311.296 254.197 311.885 257.096 313.064 259.473C314.263 261.831 315.923 263.629 318.046 264.867C320.168 266.085 322.634 266.695 325.444 266.695C327.271 266.695 328.922 266.439 330.395 265.928C331.889 265.398 333.176 264.612 334.256 263.57C335.337 262.509 336.172 261.193 336.762 259.621L343.482 261.507C342.775 263.786 341.586 265.791 339.916 267.52C338.245 269.229 336.182 270.565 333.726 271.528C331.27 272.472 328.509 272.943 325.444 272.943Z" fill="#C7D2E0"/>
<path d="M296.412 226.728L279.671 272H272.597L255.855 226.728H263.401L275.898 262.804H276.37L288.867 226.728H296.412Z" fill="#96A4B6"/>
<path d="M227.391 272.943C223.304 272.943 219.718 271.97 216.633 270.025C213.568 268.08 211.17 265.358 209.441 261.861C207.732 258.363 206.877 254.276 206.877 249.599C206.877 244.883 207.732 240.767 209.441 237.25C211.17 233.732 213.568 231.001 216.633 229.056C219.718 227.11 223.304 226.138 227.391 226.138C231.478 226.138 235.055 227.11 238.12 229.056C241.205 231.001 243.602 233.732 245.312 237.25C247.041 240.767 247.905 244.883 247.905 249.599C247.905 254.276 247.041 258.363 245.312 261.861C243.602 265.358 241.205 268.08 238.12 270.025C235.055 271.97 231.478 272.943 227.391 272.943ZM227.391 266.695C230.496 266.695 233.05 265.899 235.055 264.307C237.059 262.715 238.542 260.623 239.505 258.029C240.468 255.435 240.949 252.625 240.949 249.599C240.949 246.573 240.468 243.754 239.505 241.14C238.542 238.527 237.059 236.414 235.055 234.803C233.05 233.192 230.496 232.386 227.391 232.386C224.287 232.386 221.732 233.192 219.728 234.803C217.724 236.414 216.24 238.527 215.277 241.14C214.314 243.754 213.833 246.573 213.833 249.599C213.833 252.625 214.314 255.435 215.277 258.029C216.24 260.623 217.724 262.715 219.728 264.307C221.732 265.899 224.287 266.695 227.391 266.695Z" fill="#96A4B6"/>
<path d="M169.379 236.866L163.13 238.635C162.738 237.593 162.158 236.581 161.392 235.599C160.645 234.597 159.623 233.772 158.326 233.123C157.029 232.475 155.369 232.15 153.345 232.15C150.574 232.15 148.266 232.789 146.419 234.066C144.591 235.324 143.677 236.925 143.677 238.871C143.677 240.6 144.306 241.965 145.564 242.968C146.821 243.97 148.786 244.805 151.459 245.473L158.179 247.123C162.227 248.106 165.243 249.609 167.228 251.633C169.212 253.637 170.204 256.221 170.204 259.385C170.204 261.979 169.458 264.297 167.964 266.341C166.491 268.384 164.427 269.996 161.775 271.175C159.122 272.354 156.037 272.943 152.52 272.943C147.902 272.943 144.08 271.941 141.054 269.937C138.028 267.932 136.112 265.005 135.307 261.153L141.909 259.503C142.538 261.939 143.727 263.767 145.475 264.985C147.244 266.203 149.553 266.812 152.402 266.812C155.644 266.812 158.218 266.125 160.124 264.749C162.05 263.354 163.013 261.684 163.013 259.739C163.013 258.167 162.462 256.85 161.362 255.789C160.262 254.708 158.572 253.903 156.292 253.372L148.747 251.604C144.601 250.621 141.555 249.098 139.61 247.035C137.684 244.952 136.721 242.349 136.721 239.224C136.721 236.67 137.439 234.41 138.873 232.445C140.327 230.48 142.302 228.938 144.797 227.818C147.313 226.698 150.162 226.138 153.345 226.138C157.825 226.138 161.342 227.12 163.897 229.085C166.471 231.05 168.298 233.644 169.379 236.866Z" fill="#6E7C8E"/>
<path d="M84.2432 288.977V226.727H90.9634V233.919H91.7887C92.2996 233.133 93.0069 232.131 93.9108 230.913C94.8343 229.675 96.1508 228.574 97.8604 227.611C99.5895 226.629 101.928 226.138 104.875 226.138C108.687 226.138 112.047 227.091 114.956 228.997C117.864 230.903 120.133 233.605 121.764 237.102C123.395 240.6 124.211 244.726 124.211 249.481C124.211 254.276 123.395 258.432 121.764 261.949C120.133 265.447 117.873 268.158 114.985 270.084C112.096 271.99 108.766 272.943 104.993 272.943C102.085 272.943 99.7565 272.462 98.0077 271.499C96.2589 270.516 94.9129 269.406 93.9697 268.168C93.0265 266.911 92.2996 265.869 91.7887 265.044H91.1991V288.977H84.2432ZM91.0813 249.364C91.0813 252.783 91.5823 255.799 92.5845 258.412C93.5866 261.006 95.0505 263.04 96.9762 264.513C98.9019 265.967 101.26 266.695 104.05 266.695C106.958 266.695 109.385 265.928 111.33 264.396C113.295 262.843 114.769 260.76 115.751 258.147C116.753 255.514 117.255 252.586 117.255 249.364C117.255 246.18 116.763 243.311 115.781 240.757C114.818 238.183 113.354 236.149 111.389 234.656C109.444 233.143 106.997 232.386 104.05 232.386C101.221 232.386 98.8429 233.103 96.9172 234.538C94.9916 235.953 93.5374 237.937 92.5549 240.492C91.5725 243.027 91.0813 245.984 91.0813 249.364Z" fill="#6E7C8E"/>
<path d="M9.61426 272V226.727H16.3345V233.801H16.924C17.8671 231.384 19.39 229.508 21.4925 228.171C23.595 226.816 26.1199 226.138 29.0674 226.138C32.0541 226.138 34.5398 226.816 36.5244 228.171C38.5287 229.508 40.0908 231.384 41.2109 233.801H41.6824C42.8418 231.463 44.5808 229.606 46.8994 228.23C49.2181 226.835 51.9985 226.138 55.2407 226.138C59.2885 226.138 62.5995 227.405 65.1736 229.94C67.7477 232.455 69.0347 236.375 69.0347 241.7V272H62.0788V241.7C62.0788 238.36 61.1651 235.972 59.3376 234.538C57.5102 233.103 55.3586 232.386 52.8828 232.386C49.6995 232.386 47.2335 233.349 45.4847 235.275C43.7359 237.181 42.8615 239.598 42.8615 242.525V272H35.7876V240.993C35.7876 238.419 34.9524 236.346 33.2822 234.774C31.612 233.182 29.4604 232.386 26.8273 232.386C25.0196 232.386 23.3297 232.868 21.7578 233.831C20.2054 234.793 18.9479 236.13 17.985 237.839C17.0419 239.529 16.5703 241.484 16.5703 243.704V272H9.61426Z" fill="#6E7C8E"/>
</svg>
