<svg width="976" height="320" viewBox="0 0 976 320" fill="none" xmlns="http://www.w3.org/2000/svg">
<rect x="832" y="32" width="128" height="128" rx="40" fill="#5E697C"/>
<rect x="672" y="32" width="128" height="128" rx="40" fill="#4A5568"/>
<rect x="512" y="32" width="128" height="128" rx="40" fill="#2D3748"/>
<rect x="352" y="32" width="128" height="128" rx="40" fill="#1A202C"/>
<rect x="192" y="32" width="128" height="128" rx="40" fill="#1B1E2D"/>
<rect x="32.5" y="32.5" width="127" height="127" rx="39.5" fill="#0A0A19" stroke="#3C3C3C"/>
<path d="M963.428 253.49V226.728H970.384V272H963.428V264.337H962.956C961.895 266.636 960.245 268.591 958.004 270.202C955.764 271.794 952.935 272.59 949.516 272.59C946.686 272.59 944.171 271.971 941.97 270.733C939.77 269.475 938.04 267.589 936.783 265.074C935.525 262.539 934.896 259.346 934.896 255.495V226.728H941.852V255.023C941.852 258.324 942.776 260.957 944.623 262.922C946.49 264.887 948.867 265.87 951.756 265.87C953.485 265.87 955.244 265.427 957.032 264.543C958.84 263.659 960.353 262.303 961.571 260.476C962.809 258.648 963.428 256.32 963.428 253.49Z" fill="#5E697C"/>
<path d="M912.711 226.727H919.667V275.301C919.667 278.091 919.185 280.508 918.222 282.552C917.279 284.595 915.845 286.177 913.919 287.297C912.013 288.417 909.606 288.977 906.698 288.977C906.462 288.977 906.226 288.977 905.991 288.977C905.755 288.977 905.519 288.977 905.283 288.977V282.493C905.519 282.493 905.735 282.493 905.932 282.493C906.128 282.493 906.344 282.493 906.58 282.493C908.702 282.493 910.255 281.864 911.237 280.607C912.22 279.369 912.711 277.6 912.711 275.301V226.727ZM916.13 219.182C914.774 219.182 913.605 218.72 912.622 217.797C911.66 216.873 911.178 215.763 911.178 214.466C911.178 213.169 911.66 212.059 912.622 211.135C913.605 210.212 914.774 209.75 916.13 209.75C917.486 209.75 918.645 210.212 919.608 211.135C920.59 212.059 921.082 213.169 921.082 214.466C921.082 215.763 920.59 216.873 919.608 217.797C918.645 218.72 917.486 219.182 916.13 219.182Z" fill="#5E697C"/>
<path d="M844.751 226.728L855.598 245.237L866.445 226.728H874.462L859.842 249.364L874.462 272H866.445L855.598 254.434L844.751 272H836.734L851.118 249.364L836.734 226.728H844.751Z" fill="#5E697C"/>
<path d="M807.805 272.943C803.718 272.943 800.132 271.97 797.047 270.025C793.982 268.08 791.584 265.358 789.855 261.861C788.146 258.363 787.291 254.276 787.291 249.599C787.291 244.883 788.146 240.767 789.855 237.25C791.584 233.732 793.982 231.001 797.047 229.056C800.132 227.11 803.718 226.138 807.805 226.138C811.892 226.138 815.469 227.11 818.534 229.056C821.619 231.001 824.016 233.732 825.726 237.25C827.455 240.767 828.319 244.883 828.319 249.599C828.319 254.276 827.455 258.363 825.726 261.861C824.016 265.358 821.619 268.08 818.534 270.025C815.469 271.97 811.892 272.943 807.805 272.943ZM807.805 266.695C810.91 266.695 813.464 265.899 815.469 264.307C817.473 262.715 818.956 260.623 819.919 258.029C820.882 255.435 821.363 252.625 821.363 249.599C821.363 246.573 820.882 243.754 819.919 241.14C818.956 238.527 817.473 236.414 815.469 234.803C813.464 233.192 810.91 232.386 807.805 232.386C804.701 232.386 802.146 233.192 800.142 234.803C798.138 236.414 796.654 238.527 795.691 241.14C794.728 243.754 794.247 246.573 794.247 249.599C794.247 252.625 794.728 255.435 795.691 258.029C796.654 260.623 798.138 262.715 800.142 264.307C802.146 265.899 804.701 266.695 807.805 266.695Z" fill="#4A5568"/>
<path d="M779.04 226.727V232.622H754.635V226.727H779.04ZM761.944 272V220.479C761.944 217.885 762.554 215.723 763.772 213.994C764.99 212.265 766.572 210.968 768.517 210.104C770.463 209.239 772.516 208.807 774.677 208.807C776.387 208.807 777.782 208.944 778.863 209.219C779.944 209.494 780.749 209.75 781.28 209.986L779.275 215.998C778.922 215.881 778.43 215.733 777.802 215.556C777.193 215.379 776.387 215.291 775.385 215.291C773.086 215.291 771.425 215.871 770.404 217.03C769.401 218.189 768.9 219.889 768.9 222.129V272H761.944Z" fill="#4A5568"/>
<path d="M688.959 244.766V272H682.003V226.727H688.723V233.801H689.313C690.374 231.502 691.985 229.655 694.146 228.26C696.308 226.845 699.098 226.138 702.517 226.138C705.582 226.138 708.265 226.766 710.564 228.024C712.863 229.262 714.651 231.148 715.928 233.683C717.205 236.198 717.844 239.382 717.844 243.233V272H710.888V243.704C710.888 240.148 709.964 237.377 708.117 235.393C706.27 233.388 703.735 232.386 700.513 232.386C698.292 232.386 696.308 232.868 694.559 233.831C692.83 234.793 691.464 236.198 690.462 238.045C689.46 239.892 688.959 242.132 688.959 244.766Z" fill="#4A5568"/>
<path d="M622.333 272L608.539 226.728H615.849L625.634 261.389H626.106L635.773 226.728H643.201L652.751 261.272H653.222L663.008 226.728H670.318L656.523 272H649.685L639.782 237.22H639.075L629.171 272H622.333Z" fill="#2D3748"/>
<path d="M579.994 272.943C575.907 272.943 572.321 271.97 569.236 270.025C566.17 268.08 563.773 265.358 562.044 261.861C560.334 258.363 559.479 254.276 559.479 249.599C559.479 244.883 560.334 240.767 562.044 237.25C563.773 233.732 566.17 231.001 569.236 229.056C572.321 227.11 575.907 226.138 579.994 226.138C584.081 226.138 587.657 227.11 590.722 229.056C593.807 231.001 596.205 233.732 597.914 237.25C599.643 240.767 600.508 244.883 600.508 249.599C600.508 254.276 599.643 258.363 597.914 261.861C596.205 265.358 593.807 268.08 590.722 270.025C587.657 271.97 584.081 272.943 579.994 272.943ZM579.994 266.695C583.098 266.695 585.653 265.899 587.657 264.307C589.661 262.715 591.145 260.623 592.108 258.029C593.07 255.435 593.552 252.625 593.552 249.599C593.552 246.573 593.07 243.754 592.108 241.14C591.145 238.527 589.661 236.414 587.657 234.803C585.653 233.192 583.098 232.386 579.994 232.386C576.889 232.386 574.335 233.192 572.33 234.803C570.326 236.414 568.843 238.527 567.88 241.14C566.917 243.754 566.435 246.573 566.435 249.599C566.435 252.625 566.917 255.435 567.88 258.029C568.843 260.623 570.326 262.715 572.33 264.307C574.335 265.899 576.889 266.695 579.994 266.695Z" fill="#2D3748"/>
<path d="M529.607 272V226.727H536.328V233.565H536.799C537.624 231.325 539.118 229.507 541.279 228.112C543.441 226.717 545.877 226.02 548.589 226.02C549.1 226.02 549.738 226.029 550.505 226.049C551.271 226.069 551.851 226.098 552.244 226.137V233.211C552.008 233.152 551.468 233.064 550.623 232.946C549.797 232.808 548.923 232.74 547.999 232.74C545.799 232.74 543.834 233.201 542.105 234.125C540.395 235.029 539.039 236.286 538.037 237.898C537.055 239.489 536.563 241.307 536.563 243.351V272H529.607Z" fill="#2D3748"/>
<path d="M476.51 271.999V211.636H483.466V233.918H484.055C484.566 233.132 485.273 232.13 486.177 230.912C487.101 229.674 488.417 228.574 490.127 227.611C491.856 226.628 494.194 226.137 497.142 226.137C500.954 226.137 504.314 227.09 507.222 228.996C510.13 230.902 512.4 233.604 514.031 237.102C515.662 240.599 516.477 244.726 516.477 249.481C516.477 254.275 515.662 258.431 514.031 261.949C512.4 265.446 510.14 268.158 507.252 270.084C504.363 271.99 501.032 272.943 497.26 272.943C494.352 272.943 492.023 272.461 490.274 271.498C488.526 270.516 487.18 269.406 486.236 268.168C485.293 266.91 484.566 265.869 484.055 265.043H483.23V271.999H476.51ZM483.348 249.363C483.348 252.782 483.849 255.798 484.851 258.412C485.853 261.005 487.317 263.039 489.243 264.513C491.168 265.967 493.526 266.694 496.317 266.694C499.225 266.694 501.651 265.928 503.597 264.395C505.562 262.843 507.035 260.76 508.018 258.146C509.02 255.513 509.521 252.586 509.521 249.363C509.521 246.18 509.03 243.311 508.047 240.756C507.085 238.182 505.621 236.149 503.656 234.655C501.71 233.142 499.264 232.386 496.317 232.386C493.487 232.386 491.109 233.103 489.184 234.537C487.258 235.952 485.804 237.937 484.822 240.491C483.839 243.026 483.348 245.983 483.348 249.363Z" fill="#1A202C"/>
<path d="M408.58 255.494L408.462 246.887H409.877L429.684 226.727H438.29L417.187 248.066H416.597L408.58 255.494ZM402.096 271.999V211.636H409.052V271.999H402.096ZM430.863 271.999L413.178 249.599L418.13 244.765L439.705 271.999H430.863Z" fill="#1A202C"/>
<path d="M371.634 272.943C367.39 272.943 363.735 271.941 360.67 269.937C357.604 267.932 355.247 265.172 353.596 261.654C351.945 258.137 351.12 254.119 351.12 249.599C351.12 245.001 351.965 240.944 353.655 237.426C355.364 233.889 357.742 231.129 360.788 229.144C363.853 227.14 367.429 226.138 371.516 226.138C374.7 226.138 377.569 226.727 380.123 227.906C382.677 229.085 384.77 230.736 386.401 232.858C388.032 234.98 389.044 237.456 389.437 240.285H382.481C381.95 238.222 380.771 236.395 378.944 234.803C377.136 233.192 374.7 232.386 371.634 232.386C368.923 232.386 366.545 233.094 364.501 234.508C362.478 235.904 360.896 237.878 359.756 240.433C358.636 242.968 358.076 245.945 358.076 249.364C358.076 252.861 358.626 255.907 359.727 258.501C360.847 261.094 362.419 263.108 364.443 264.543C366.486 265.977 368.883 266.695 371.634 266.695C373.442 266.695 375.083 266.38 376.557 265.751C378.03 265.123 379.278 264.219 380.3 263.04C381.322 261.861 382.049 260.446 382.481 258.795H389.437C389.044 261.468 388.071 263.875 386.519 266.017C384.986 268.139 382.952 269.829 380.418 271.086C377.903 272.324 374.975 272.943 371.634 272.943Z" fill="#1A202C"/>
<path d="M331.055 272V226.727H338.011V272H331.055ZM334.592 219.182C333.237 219.182 332.067 218.72 331.085 217.797C330.122 216.873 329.641 215.763 329.641 214.466C329.641 213.169 330.122 212.059 331.085 211.135C332.067 210.212 333.237 209.75 334.592 209.75C335.948 209.75 337.107 210.212 338.07 211.135C339.053 212.059 339.544 213.169 339.544 214.466C339.544 215.763 339.053 216.873 338.07 217.797C337.107 218.72 335.948 219.182 334.592 219.182Z" fill="#1B1E2D"/>
<path d="M308.869 253.49V226.728H315.825V272H308.869V264.337H308.398C307.336 266.636 305.686 268.591 303.446 270.202C301.206 271.794 298.376 272.59 294.957 272.59C292.128 272.59 289.613 271.971 287.412 270.733C285.211 269.475 283.482 267.589 282.224 265.074C280.967 262.539 280.338 259.346 280.338 255.495V226.728H287.294V255.023C287.294 258.324 288.217 260.957 290.064 262.922C291.931 264.887 294.309 265.87 297.197 265.87C298.926 265.87 300.685 265.427 302.473 264.543C304.281 263.659 305.794 262.303 307.012 260.476C308.25 258.648 308.869 256.32 308.869 253.49Z" fill="#1B1E2D"/>
<path d="M258.16 288.977V265.044H257.57C257.059 265.869 256.332 266.911 255.389 268.168C254.446 269.406 253.1 270.516 251.351 271.499C249.602 272.462 247.274 272.943 244.366 272.943C240.593 272.943 237.262 271.99 234.374 270.084C231.485 268.158 229.226 265.447 227.595 261.949C225.964 258.432 225.148 254.276 225.148 249.481C225.148 244.726 225.964 240.6 227.595 237.102C229.226 233.605 231.495 230.903 234.403 228.997C237.312 227.091 240.672 226.138 244.484 226.138C247.431 226.138 249.76 226.629 251.469 227.611C253.198 228.574 254.515 229.675 255.419 230.913C256.342 232.131 257.059 233.133 257.57 233.919H258.396V226.727H265.116V288.977H258.16ZM245.309 266.695C248.099 266.695 250.457 265.967 252.383 264.513C254.308 263.04 255.772 261.006 256.775 258.412C257.777 255.799 258.278 252.783 258.278 249.364C258.278 245.984 257.786 243.027 256.804 240.492C255.821 237.937 254.367 235.953 252.442 234.538C250.516 233.103 248.138 232.386 245.309 232.386C242.362 232.386 239.905 233.143 237.94 234.656C235.995 236.149 234.531 238.183 233.549 240.757C232.586 243.311 232.104 246.18 232.104 249.364C232.104 252.586 232.596 255.514 233.578 258.147C234.58 260.76 236.054 262.843 237.999 264.396C239.964 265.928 242.401 266.695 245.309 266.695Z" fill="#1B1E2D"/>
<path d="M169.619 272.943C165.257 272.943 161.494 271.98 158.331 270.055C155.187 268.109 152.76 265.398 151.05 261.92C149.361 258.422 148.516 254.355 148.516 249.717C148.516 245.08 149.361 240.993 151.05 237.456C152.76 233.899 155.138 231.129 158.183 229.144C161.249 227.14 164.825 226.138 168.912 226.138C171.27 226.138 173.598 226.531 175.897 227.317C178.196 228.103 180.289 229.38 182.175 231.148C184.062 232.897 185.565 235.216 186.685 238.104C187.805 240.993 188.365 244.549 188.365 248.774V251.722H153.467V245.709H181.291C181.291 243.154 180.78 240.875 179.759 238.871C178.756 236.866 177.322 235.285 175.455 234.125C173.608 232.966 171.427 232.386 168.912 232.386C166.141 232.386 163.744 233.074 161.72 234.449C159.716 235.805 158.173 237.574 157.093 239.755C156.012 241.936 155.472 244.274 155.472 246.77V250.778C155.472 254.197 156.061 257.096 157.24 259.473C158.439 261.831 160.099 263.629 162.221 264.867C164.343 266.085 166.809 266.695 169.619 266.695C171.447 266.695 173.097 266.439 174.571 265.928C176.064 265.398 177.351 264.612 178.432 263.57C179.513 262.509 180.348 261.193 180.938 259.621L187.658 261.507C186.95 263.786 185.761 265.791 184.091 267.52C182.421 269.229 180.358 270.565 177.902 271.528C175.445 272.472 172.685 272.943 169.619 272.943Z" fill="#0A0A19"/>
<path d="M106.065 244.765V271.999H99.1094V211.636H106.065V233.801H106.655C107.716 231.462 109.308 229.605 111.43 228.23C113.571 226.835 116.421 226.137 119.977 226.137C123.062 226.137 125.764 226.756 128.083 227.994C130.401 229.212 132.199 231.089 133.477 233.624C134.773 236.139 135.422 239.342 135.422 243.232V271.999H128.466V243.704C128.466 240.108 127.533 237.328 125.666 235.363C123.819 233.378 121.254 232.386 117.973 232.386C115.694 232.386 113.65 232.867 111.842 233.83C110.054 234.793 108.639 236.198 107.598 238.045C106.576 239.892 106.065 242.132 106.065 244.765Z" fill="#0A0A19"/>
<path d="M41.0088 218.12V211.636H86.2815V218.12H67.3V271.999H59.9903V218.12H41.0088Z" fill="#0A0A19"/>
</svg>
