<svg width="1324" height="113" viewBox="0 0 1324 113" fill="none" xmlns="http://www.w3.org/2000/svg">
<rect y="20" width="558" height="93" fill="#EDF2F7"/>
<rect x="18" y="113" width="93" height="16" transform="rotate(-90 18 113)" fill="#524422"/>
<rect x="38" y="113" width="93" height="16" transform="rotate(-90 38 113)" fill="#524422"/>
<rect x="62" y="113" width="93" height="16" transform="rotate(-90 62 113)" fill="#524422"/>
<rect x="90" y="113" width="93" height="16" transform="rotate(-90 90 113)" fill="#524422"/>
<rect x="122" y="113" width="93" height="16" transform="rotate(-90 122 113)" fill="#524422"/>
<rect x="158" y="113" width="93" height="16" transform="rotate(-90 158 113)" fill="#524422"/>
<rect x="198" y="113" width="93" height="16" transform="rotate(-90 198 113)" fill="#524422"/>
<rect x="246" y="113" width="93" height="16" transform="rotate(-90 246 113)" fill="#524422"/>
<rect x="302" y="113" width="93" height="16" transform="rotate(-90 302 113)" fill="#524422"/>
<rect x="366" y="113" width="93" height="16" transform="rotate(-90 366 113)" fill="#524422"/>
<rect x="446" y="113" width="93" height="16" transform="rotate(-90 446 113)" fill="#524422"/>
<rect x="542" y="113" width="93" height="16" transform="rotate(-90 542 113)" fill="#524422"/>
<rect y="113" width="93" height="16" transform="rotate(-90 0 113)" fill="#524422"/>
<path d="M20.3687 10.5V12L12.7437 12V10.7109L16.4468 6.67188C16.853 6.21354 17.1733 5.81771 17.4077 5.48438C17.6421 5.15104 17.8062 4.85156 17.8999 4.58594C17.9989 4.3151 18.0483 4.05208 18.0483 3.79688C18.0483 3.4375 17.9806 3.1224 17.8452 2.85156C17.715 2.57552 17.5223 2.35938 17.2671 2.20313C17.0119 2.04167 16.702 1.96094 16.3374 1.96094C15.9155 1.96094 15.5614 2.05208 15.2749 2.23438C14.9884 2.41667 14.7723 2.66927 14.6265 2.99219C14.4806 3.3099 14.4077 3.67448 14.4077 4.08594H12.5249C12.5249 3.42448 12.6759 2.82031 12.978 2.27344C13.2801 1.72135 13.7176 1.28385 14.2905 0.960938C14.8634 0.632813 15.5535 0.46875 16.3608 0.46875C17.1213 0.46875 17.7671 0.596354 18.2983 0.851563C18.8296 1.10677 19.2332 1.46875 19.5093 1.9375C19.7905 2.40625 19.9312 2.96094 19.9312 3.60156C19.9312 3.95573 19.8739 4.30729 19.7593 4.65625C19.6447 5.00521 19.4806 5.35417 19.2671 5.70313C19.0588 6.04688 18.8114 6.39323 18.5249 6.74219C18.2384 7.08594 17.9233 7.4349 17.5796 7.78906L15.1187 10.5L20.3687 10.5Z" fill="#EDF2F7"/>
<path d="M39.8633 7.94531V9.44531L31.6602 9.44531L31.5977 8.3125L36.5039 0.625L38.0117 0.625L36.3789 3.42188L33.5586 7.94531L39.8633 7.94531ZM38.4414 0.625V12L36.5586 12V0.625L38.4414 0.625Z" fill="#EDF2F7"/>
<path d="M61.1392 8.89844C61.1392 9.60677 60.9751 10.2031 60.647 10.6875C60.3188 11.1719 59.8709 11.5391 59.3032 11.7891C58.7407 12.0339 58.1053 12.1562 57.397 12.1562C56.6886 12.1562 56.0506 12.0339 55.4829 11.7891C54.9152 11.5391 54.4673 11.1719 54.1392 10.6875C53.811 10.2031 53.647 9.60677 53.647 8.89844C53.647 8.42969 53.7381 8.00521 53.9204 7.625C54.1027 7.23958 54.3605 6.90885 54.6938 6.63281C55.0324 6.35156 55.4282 6.13542 55.8813 5.98438C56.3397 5.83333 56.8397 5.75781 57.3813 5.75781C58.1001 5.75781 58.7433 5.89063 59.311 6.15625C59.8787 6.42188 60.3241 6.78906 60.647 7.25781C60.9751 7.72656 61.1392 8.27344 61.1392 8.89844ZM59.2485 8.80469C59.2485 8.42448 59.1704 8.09115 59.0142 7.80469C58.8579 7.51823 58.6392 7.29688 58.3579 7.14063C58.0767 6.98438 57.7511 6.90625 57.3813 6.90625C57.0063 6.90625 56.6808 6.98438 56.4048 7.14063C56.1287 7.29688 55.9126 7.51823 55.7563 7.80469C55.6053 8.09115 55.5298 8.42448 55.5298 8.80469C55.5298 9.1901 55.6053 9.52344 55.7563 9.80469C55.9074 10.0807 56.1235 10.2917 56.4048 10.4375C56.686 10.5833 57.0168 10.6562 57.397 10.6562C57.7772 10.6562 58.1053 10.5833 58.3813 10.4375C58.6574 10.2917 58.8709 10.0807 59.022 9.80469C59.173 9.52344 59.2485 9.1901 59.2485 8.80469ZM60.8813 3.61719C60.8813 4.1849 60.7303 4.6901 60.4282 5.13281C60.1313 5.57552 59.7199 5.92448 59.1938 6.17969C58.6678 6.42969 58.0688 6.55469 57.397 6.55469C56.7199 6.55469 56.1157 6.42969 55.5845 6.17969C55.0584 5.92448 54.6444 5.57552 54.3423 5.13281C54.0454 4.6901 53.897 4.1849 53.897 3.61719C53.897 2.9401 54.0454 2.36979 54.3423 1.90625C54.6444 1.4375 55.0584 1.08073 55.5845 0.835938C56.1105 0.591146 56.7121 0.46875 57.3892 0.46875C58.0662 0.46875 58.6678 0.591146 59.1938 0.835938C59.7199 1.08073 60.1313 1.4375 60.4282 1.90625C60.7303 2.36979 60.8813 2.9401 60.8813 3.61719ZM58.9985 3.67969C58.9985 3.34115 58.9308 3.04427 58.7954 2.78906C58.6652 2.52865 58.4803 2.32552 58.2407 2.17969C58.0011 2.03385 57.7173 1.96094 57.3892 1.96094C57.061 1.96094 56.7772 2.03125 56.5376 2.17188C56.298 2.3125 56.1131 2.51042 55.9829 2.76563C55.8527 3.02083 55.7876 3.32552 55.7876 3.67969C55.7876 4.02865 55.8527 4.33333 55.9829 4.59375C56.1131 4.84896 56.298 5.04948 56.5376 5.19531C56.7824 5.34115 57.0688 5.41406 57.397 5.41406C57.7251 5.41406 58.009 5.34115 58.2485 5.19531C58.4881 5.04948 58.673 4.84896 58.8032 4.59375C58.9334 4.33333 58.9985 4.02865 58.9985 3.67969Z" fill="#EDF2F7"/>
<path d="M80.9998 0.585938V12L79.1169 12V2.82031L76.3279 3.76562V2.21094L80.7732 0.585938H80.9998ZM92.5779 10.5V12L84.9529 12V10.7109L88.656 6.67188C89.0623 6.21354 89.3826 5.81771 89.6169 5.48438C89.8513 5.15104 90.0154 4.85156 90.1091 4.58594C90.2081 4.3151 90.2576 4.05208 90.2576 3.79688C90.2576 3.4375 90.1899 3.1224 90.0544 2.85156C89.9242 2.57552 89.7315 2.35938 89.4763 2.20313C89.2211 2.04167 88.9112 1.96094 88.5466 1.96094C88.1248 1.96094 87.7706 2.05208 87.4841 2.23438C87.1977 2.41667 86.9815 2.66927 86.8357 2.99219C86.6899 3.3099 86.6169 3.67448 86.6169 4.08594H84.7341C84.7341 3.42448 84.8852 2.82031 85.1873 2.27344C85.4893 1.72135 85.9268 1.28385 86.4998 0.960938C87.0727 0.632813 87.7628 0.46875 88.5701 0.46875C89.3305 0.46875 89.9763 0.596354 90.5076 0.851563C91.0388 1.10677 91.4425 1.46875 91.7185 1.9375C91.9998 2.40625 92.1404 2.96094 92.1404 3.60156C92.1404 3.95573 92.0831 4.30729 91.9685 4.65625C91.8539 5.00521 91.6899 5.35417 91.4763 5.70313C91.268 6.04688 91.0206 6.39323 90.7341 6.74219C90.4477 7.08594 90.1326 7.4349 89.7888 7.78906L87.3279 10.5L92.5779 10.5Z" fill="#EDF2F7"/>
<path d="M110.164 0.585938V12L108.281 12V2.82031L105.492 3.76562V2.21094L109.938 0.585938H110.164ZM119.805 0.554688L120.039 0.554688V2.09375H119.906C119.235 2.09375 118.654 2.19792 118.164 2.40625C117.68 2.61458 117.281 2.90104 116.969 3.26563C116.656 3.63021 116.422 4.05729 116.266 4.54688C116.115 5.03125 116.039 5.54688 116.039 6.09375V7.88281C116.039 8.33594 116.089 8.73698 116.188 9.08594C116.287 9.42969 116.425 9.71875 116.602 9.95313C116.784 10.1823 116.992 10.3568 117.227 10.4766C117.461 10.5964 117.714 10.6563 117.985 10.6563C118.266 10.6563 118.521 10.599 118.75 10.4844C118.979 10.3646 119.175 10.2005 119.336 9.99219C119.498 9.78385 119.62 9.53646 119.703 9.25C119.787 8.96354 119.828 8.65104 119.828 8.3125C119.828 7.98958 119.787 7.6875 119.703 7.40625C119.625 7.11979 119.508 6.86979 119.352 6.65625C119.196 6.4375 119 6.26823 118.766 6.14844C118.537 6.02344 118.271 5.96094 117.969 5.96094C117.594 5.96094 117.253 6.04948 116.946 6.22656C116.643 6.40365 116.399 6.63542 116.211 6.92188C116.029 7.20313 115.93 7.5026 115.914 7.82031L115.196 7.58594C115.237 7.10156 115.344 6.66667 115.516 6.28125C115.693 5.89583 115.925 5.56771 116.211 5.29688C116.498 5.02604 116.828 4.82031 117.203 4.67969C117.584 4.53385 118 4.46094 118.453 4.46094C119.005 4.46094 119.485 4.5651 119.891 4.77344C120.297 4.98177 120.633 5.26563 120.899 5.625C121.17 5.97917 121.37 6.38542 121.5 6.84375C121.636 7.29688 121.703 7.77083 121.703 8.26563C121.703 8.8125 121.62 9.32292 121.453 9.79688C121.287 10.2656 121.042 10.6771 120.719 11.0313C120.401 11.3854 120.013 11.6615 119.555 11.8594C119.102 12.0573 118.586 12.1563 118.008 12.1563C117.399 12.1563 116.854 12.0391 116.375 11.8047C115.901 11.5703 115.498 11.2474 115.164 10.8359C114.836 10.4245 114.586 9.95052 114.414 9.41406C114.242 8.8776 114.156 8.3099 114.156 7.71094V6.92969C114.156 6.0651 114.266 5.25 114.485 4.48438C114.703 3.71354 115.039 3.03385 115.492 2.44531C115.951 1.85677 116.537 1.39583 117.25 1.0625C117.964 0.723958 118.815 0.554688 119.805 0.554688Z" fill="#EDF2F7"/>
<path d="M146.754 10.5V12L139.129 12V10.7109L142.832 6.67188C143.238 6.21354 143.559 5.81771 143.793 5.48438C144.027 5.15104 144.191 4.85156 144.285 4.58594C144.384 4.3151 144.434 4.05208 144.434 3.79688C144.434 3.4375 144.366 3.1224 144.23 2.85156C144.1 2.57552 143.908 2.35938 143.652 2.20313C143.397 2.04167 143.087 1.96094 142.723 1.96094C142.301 1.96094 141.947 2.05208 141.66 2.23438C141.374 2.41667 141.158 2.66927 141.012 2.99219C140.866 3.3099 140.793 3.67448 140.793 4.08594H138.91C138.91 3.42448 139.061 2.82031 139.363 2.27344C139.665 1.72135 140.103 1.28385 140.676 0.960938C141.249 0.632813 141.939 0.46875 142.746 0.46875C143.507 0.46875 144.152 0.596354 144.684 0.851563C145.215 1.10677 145.618 1.46875 145.895 1.9375C146.176 2.40625 146.316 2.96094 146.316 3.60156C146.316 3.95573 146.259 4.30729 146.145 4.65625C146.03 5.00521 145.866 5.35417 145.652 5.70313C145.444 6.04688 145.197 6.39323 144.91 6.74219C144.624 7.08594 144.309 7.4349 143.965 7.78906L141.504 10.5L146.754 10.5ZM155.637 5.35938V7.21875C155.637 8.10938 155.548 8.86979 155.371 9.5C155.199 10.125 154.949 10.6328 154.621 11.0234C154.293 11.4141 153.9 11.7005 153.441 11.8828C152.988 12.0651 152.48 12.1563 151.918 12.1563C151.47 12.1563 151.053 12.099 150.668 11.9844C150.288 11.8698 149.944 11.6901 149.637 11.4453C149.329 11.2005 149.066 10.8854 148.848 10.5C148.634 10.1094 148.467 9.64323 148.348 9.10156C148.233 8.5599 148.176 7.93229 148.176 7.21875V5.35938C148.176 4.46354 148.264 3.70833 148.441 3.09375C148.618 2.47396 148.871 1.97135 149.199 1.58594C149.527 1.19531 149.918 0.911458 150.371 0.734375C150.829 0.557292 151.34 0.46875 151.902 0.46875C152.355 0.46875 152.772 0.526042 153.152 0.640625C153.538 0.75 153.882 0.924479 154.184 1.16406C154.491 1.40365 154.751 1.71615 154.965 2.10156C155.184 2.48177 155.35 2.94271 155.465 3.48438C155.579 4.02083 155.637 4.64583 155.637 5.35938ZM153.754 7.48438V5.07813C153.754 4.625 153.728 4.22656 153.676 3.88281C153.624 3.53385 153.546 3.23958 153.441 3C153.342 2.75521 153.217 2.55729 153.066 2.40625C152.915 2.25 152.743 2.13802 152.551 2.07031C152.358 1.9974 152.142 1.96094 151.902 1.96094C151.611 1.96094 151.35 2.01823 151.121 2.13281C150.892 2.24219 150.699 2.41927 150.543 2.66406C150.387 2.90885 150.267 3.23177 150.184 3.63281C150.105 4.02865 150.066 4.51042 150.066 5.07813V7.48438C150.066 7.94271 150.092 8.34635 150.145 8.69531C150.197 9.04427 150.275 9.34375 150.379 9.59375C150.483 9.83854 150.608 10.0417 150.754 10.2031C150.905 10.3594 151.077 10.474 151.27 10.5469C151.467 10.6198 151.684 10.6563 151.918 10.6563C152.215 10.6563 152.478 10.599 152.707 10.4844C152.936 10.3698 153.129 10.1875 153.285 9.9375C153.441 9.68229 153.559 9.35156 153.637 8.94531C153.715 8.53906 153.754 8.05208 153.754 7.48438Z" fill="#EDF2F7"/>
<path d="M183.887 10.5V12L176.262 12V10.7109L179.965 6.67188C180.371 6.21354 180.691 5.81771 180.926 5.48438C181.16 5.15104 181.324 4.85156 181.418 4.58594C181.517 4.3151 181.566 4.05208 181.566 3.79688C181.566 3.4375 181.499 3.1224 181.363 2.85156C181.233 2.57552 181.04 2.35938 180.785 2.20313C180.53 2.04167 180.22 1.96094 179.855 1.96094C179.434 1.96094 179.079 2.05208 178.793 2.23438C178.507 2.41667 178.29 2.66927 178.145 2.99219C177.999 3.3099 177.926 3.67448 177.926 4.08594H176.043C176.043 3.42448 176.194 2.82031 176.496 2.27344C176.798 1.72135 177.236 1.28385 177.809 0.960938C178.382 0.632813 179.072 0.46875 179.879 0.46875C180.639 0.46875 181.285 0.596354 181.816 0.851563C182.348 1.10677 182.751 1.46875 183.027 1.9375C183.309 2.40625 183.449 2.96094 183.449 3.60156C183.449 3.95573 183.392 4.30729 183.277 4.65625C183.163 5.00521 182.999 5.35417 182.785 5.70313C182.577 6.04688 182.329 6.39323 182.043 6.74219C181.757 7.08594 181.441 7.4349 181.098 7.78906L178.637 10.5L183.887 10.5ZM193.191 7.94531V9.44531L184.988 9.44531L184.926 8.3125L189.832 0.625L191.34 0.625L189.707 3.42188L186.887 7.94531L193.191 7.94531ZM191.77 0.625V12H189.887V0.625L191.77 0.625Z" fill="#EDF2F7"/>
<path d="M222.937 5.46094H224.062C224.5 5.46094 224.861 5.38542 225.148 5.23438C225.44 5.08333 225.656 4.875 225.796 4.60938C225.937 4.34375 226.007 4.03906 226.007 3.69531C226.007 3.33594 225.942 3.02865 225.812 2.77344C225.687 2.51302 225.494 2.3125 225.234 2.17188C224.979 2.03125 224.653 1.96094 224.257 1.96094C223.924 1.96094 223.622 2.02865 223.351 2.16406C223.085 2.29427 222.875 2.48177 222.718 2.72656C222.562 2.96615 222.484 3.2526 222.484 3.58594L220.593 3.58594C220.593 2.98177 220.752 2.44531 221.07 1.97656C221.388 1.50781 221.82 1.14063 222.367 0.875C222.919 0.604167 223.539 0.46875 224.226 0.46875C224.96 0.46875 225.601 0.591146 226.148 0.835938C226.7 1.07552 227.13 1.4349 227.437 1.91406C227.744 2.39323 227.898 2.98698 227.898 3.69531C227.898 4.01823 227.822 4.34635 227.671 4.67969C227.52 5.01302 227.296 5.31771 227 5.59375C226.703 5.86458 226.333 6.08594 225.89 6.25781C225.447 6.42448 224.934 6.50781 224.351 6.50781H222.937V5.46094ZM222.937 6.92969V5.89844H224.351C225.018 5.89844 225.585 5.97656 226.054 6.13281C226.528 6.28906 226.914 6.50521 227.21 6.78125C227.507 7.05208 227.723 7.36198 227.859 7.71094C228 8.0599 228.07 8.42969 228.07 8.82031C228.07 9.35156 227.973 9.82552 227.781 10.2422C227.593 10.6536 227.325 11.0026 226.976 11.2891C226.627 11.5755 226.218 11.7917 225.75 11.9375C225.286 12.0833 224.781 12.1562 224.234 12.1562C223.744 12.1562 223.276 12.0885 222.828 11.9531C222.38 11.8177 221.979 11.6172 221.625 11.3516C221.27 11.0807 220.989 10.7448 220.781 10.3438C220.578 9.9375 220.476 9.46875 220.476 8.9375H222.359C222.359 9.27604 222.437 9.57552 222.593 9.83594C222.755 10.0911 222.979 10.2917 223.265 10.4375C223.557 10.5833 223.89 10.6562 224.265 10.6562C224.661 10.6562 225.002 10.5859 225.289 10.4453C225.575 10.3047 225.794 10.0964 225.945 9.82031C226.101 9.54427 226.179 9.21094 226.179 8.82031C226.179 8.3776 226.093 8.01823 225.921 7.74219C225.75 7.46615 225.505 7.26302 225.187 7.13281C224.869 6.9974 224.494 6.92969 224.062 6.92969H222.937ZM237.445 10.5V12L229.82 12V10.7109L233.523 6.67188C233.929 6.21354 234.25 5.81771 234.484 5.48438C234.718 5.15104 234.882 4.85156 234.976 4.58594C235.075 4.3151 235.125 4.05208 235.125 3.79688C235.125 3.4375 235.057 3.1224 234.921 2.85156C234.791 2.57552 234.598 2.35938 234.343 2.20313C234.088 2.04167 233.778 1.96094 233.414 1.96094C232.992 1.96094 232.638 2.05208 232.351 2.23438C232.065 2.41667 231.848 2.66927 231.703 2.99219C231.557 3.3099 231.484 3.67448 231.484 4.08594H229.601C229.601 3.42448 229.752 2.82031 230.054 2.27344C230.356 1.72135 230.794 1.28385 231.367 0.960938C231.94 0.632813 232.63 0.46875 233.437 0.46875C234.197 0.46875 234.843 0.596354 235.375 0.851563C235.906 1.10677 236.309 1.46875 236.585 1.9375C236.867 2.40625 237.007 2.96094 237.007 3.60156C237.007 3.95573 236.95 4.30729 236.835 4.65625C236.721 5.00521 236.557 5.35417 236.343 5.70313C236.135 6.04688 235.888 6.39323 235.601 6.74219C235.315 7.08594 235 7.4349 234.656 7.78906L232.195 10.5L237.445 10.5Z" fill="#EDF2F7"/>
<path d="M280.738 7.94531V9.44531L272.535 9.44531L272.473 8.3125L277.379 0.625L278.887 0.625L277.254 3.42188L274.434 7.94531L280.738 7.94531ZM279.316 0.625V12L277.434 12V0.625L279.316 0.625ZM289.41 5.35938V7.21875C289.41 8.10938 289.322 8.86979 289.145 9.5C288.973 10.125 288.723 10.6328 288.395 11.0234C288.066 11.4141 287.673 11.7005 287.215 11.8828C286.762 12.0651 286.254 12.1563 285.691 12.1563C285.243 12.1563 284.827 12.099 284.441 11.9844C284.061 11.8698 283.717 11.6901 283.41 11.4453C283.103 11.2005 282.84 10.8854 282.621 10.5C282.408 10.1094 282.241 9.64323 282.121 9.10156C282.007 8.5599 281.949 7.93229 281.949 7.21875V5.35938C281.949 4.46354 282.038 3.70833 282.215 3.09375C282.392 2.47396 282.645 1.97135 282.973 1.58594C283.301 1.19531 283.691 0.911458 284.145 0.734375C284.603 0.557292 285.113 0.46875 285.676 0.46875C286.129 0.46875 286.546 0.526042 286.926 0.640625C287.311 0.75 287.655 0.924479 287.957 1.16406C288.264 1.40365 288.525 1.71615 288.738 2.10156C288.957 2.48177 289.124 2.94271 289.238 3.48438C289.353 4.02083 289.41 4.64583 289.41 5.35938ZM287.527 7.48438V5.07813C287.527 4.625 287.501 4.22656 287.449 3.88281C287.397 3.53385 287.319 3.23958 287.215 3C287.116 2.75521 286.991 2.55729 286.84 2.40625C286.689 2.25 286.517 2.13802 286.324 2.07031C286.132 1.9974 285.915 1.96094 285.676 1.96094C285.384 1.96094 285.124 2.01823 284.895 2.13281C284.665 2.24219 284.473 2.41927 284.316 2.66406C284.16 2.90885 284.04 3.23177 283.957 3.63281C283.879 4.02865 283.84 4.51042 283.84 5.07813V7.48438C283.84 7.94271 283.866 8.34635 283.918 8.69531C283.97 9.04427 284.048 9.34375 284.152 9.59375C284.257 9.83854 284.382 10.0417 284.527 10.2031C284.678 10.3594 284.85 10.474 285.043 10.5469C285.241 10.6198 285.457 10.6563 285.691 10.6563C285.988 10.6563 286.251 10.599 286.48 10.4844C286.71 10.3698 286.902 10.1875 287.059 9.9375C287.215 9.68229 287.332 9.35156 287.41 8.94531C287.488 8.53906 287.527 8.05208 287.527 7.48438Z" fill="#EDF2F7"/>
<path d="M340.489 7.94531V9.44531L332.286 9.44531L332.223 8.3125L337.129 0.625L338.637 0.625L337.004 3.42188L334.184 7.94531L340.489 7.94531ZM339.067 0.625V12L337.184 12V0.625L339.067 0.625ZM349.184 8.89844C349.184 9.60677 349.02 10.2031 348.692 10.6875C348.364 11.1719 347.916 11.5391 347.348 11.7891C346.786 12.0339 346.15 12.1563 345.442 12.1563C344.734 12.1563 344.096 12.0339 343.528 11.7891C342.96 11.5391 342.512 11.1719 342.184 10.6875C341.856 10.2031 341.692 9.60677 341.692 8.89844C341.692 8.42969 341.783 8.00521 341.965 7.625C342.148 7.23958 342.405 6.90885 342.739 6.63281C343.077 6.35156 343.473 6.13542 343.926 5.98438C344.385 5.83333 344.885 5.75781 345.426 5.75781C346.145 5.75781 346.788 5.89063 347.356 6.15625C347.924 6.42188 348.369 6.78906 348.692 7.25781C349.02 7.72656 349.184 8.27344 349.184 8.89844ZM347.293 8.80469C347.293 8.42448 347.215 8.09115 347.059 7.80469C346.903 7.51823 346.684 7.29688 346.403 7.14063C346.122 6.98438 345.796 6.90625 345.426 6.90625C345.051 6.90625 344.726 6.98438 344.45 7.14063C344.174 7.29688 343.958 7.51823 343.801 7.80469C343.65 8.09115 343.575 8.42448 343.575 8.80469C343.575 9.1901 343.65 9.52344 343.801 9.80469C343.952 10.0807 344.168 10.2917 344.45 10.4375C344.731 10.5833 345.062 10.6563 345.442 10.6563C345.822 10.6563 346.15 10.5833 346.426 10.4375C346.702 10.2917 346.916 10.0807 347.067 9.80469C347.218 9.52344 347.293 9.1901 347.293 8.80469ZM348.926 3.61719C348.926 4.1849 348.775 4.6901 348.473 5.13281C348.176 5.57552 347.765 5.92448 347.239 6.17969C346.713 6.42969 346.114 6.55469 345.442 6.55469C344.765 6.55469 344.161 6.42969 343.629 6.17969C343.103 5.92448 342.689 5.57552 342.387 5.13281C342.09 4.6901 341.942 4.1849 341.942 3.61719C341.942 2.9401 342.09 2.36979 342.387 1.90625C342.689 1.4375 343.103 1.08073 343.629 0.835938C344.155 0.591146 344.757 0.46875 345.434 0.46875C346.111 0.46875 346.713 0.591146 347.239 0.835938C347.765 1.08073 348.176 1.4375 348.473 1.90625C348.775 2.36979 348.926 2.9401 348.926 3.61719ZM347.043 3.67969C347.043 3.34115 346.976 3.04427 346.84 2.78906C346.71 2.52865 346.525 2.32552 346.286 2.17969C346.046 2.03385 345.762 1.96094 345.434 1.96094C345.106 1.96094 344.822 2.03125 344.583 2.17188C344.343 2.3125 344.158 2.51042 344.028 2.76563C343.898 3.02083 343.833 3.32552 343.833 3.67969C343.833 4.02865 343.898 4.33333 344.028 4.59375C344.158 4.84896 344.343 5.04948 344.583 5.19531C344.827 5.34115 345.114 5.41406 345.442 5.41406C345.77 5.41406 346.054 5.34115 346.293 5.19531C346.533 5.04948 346.718 4.84896 346.848 4.59375C346.978 4.33333 347.043 4.02865 347.043 3.67969Z" fill="#EDF2F7"/>
<path d="M406.506 0.554688H406.741V2.09375H406.608C405.936 2.09375 405.355 2.19792 404.866 2.40625C404.381 2.61458 403.983 2.90104 403.67 3.26563C403.358 3.63021 403.124 4.05729 402.967 4.54688C402.816 5.03125 402.741 5.54688 402.741 6.09375V7.88281C402.741 8.33594 402.79 8.73698 402.889 9.08594C402.988 9.42969 403.126 9.71875 403.303 9.95312C403.486 10.1823 403.694 10.3568 403.928 10.4766C404.163 10.5964 404.415 10.6562 404.686 10.6562C404.967 10.6562 405.222 10.599 405.452 10.4844C405.681 10.3646 405.876 10.2005 406.038 9.99219C406.199 9.78385 406.321 9.53646 406.405 9.25C406.488 8.96354 406.53 8.65104 406.53 8.3125C406.53 7.98958 406.488 7.6875 406.405 7.40625C406.327 7.11979 406.209 6.86979 406.053 6.65625C405.897 6.4375 405.702 6.26823 405.467 6.14844C405.238 6.02344 404.972 5.96094 404.67 5.96094C404.295 5.96094 403.954 6.04948 403.647 6.22656C403.345 6.40365 403.1 6.63542 402.913 6.92188C402.73 7.20313 402.631 7.5026 402.616 7.82031L401.897 7.58594C401.939 7.10156 402.045 6.66667 402.217 6.28125C402.394 5.89583 402.626 5.56771 402.913 5.29688C403.199 5.02604 403.53 4.82031 403.905 4.67969C404.285 4.53385 404.702 4.46094 405.155 4.46094C405.707 4.46094 406.186 4.5651 406.592 4.77344C406.999 4.98177 407.334 5.26563 407.6 5.625C407.871 5.97917 408.071 6.38542 408.202 6.84375C408.337 7.29688 408.405 7.77083 408.405 8.26563C408.405 8.8125 408.321 9.32292 408.155 9.79688C407.988 10.2656 407.743 10.6771 407.42 11.0313C407.103 11.3854 406.715 11.6615 406.256 11.8594C405.803 12.0573 405.288 12.1562 404.709 12.1562C404.1 12.1562 403.556 12.0391 403.077 11.8047C402.603 11.5703 402.199 11.2474 401.866 10.8359C401.538 10.4245 401.288 9.95052 401.116 9.41406C400.944 8.8776 400.858 8.3099 400.858 7.71094V6.92969C400.858 6.0651 400.967 5.25 401.186 4.48438C401.405 3.71354 401.741 3.03385 402.194 2.44531C402.652 1.85677 403.238 1.39583 403.952 1.0625C404.665 0.723958 405.517 0.554688 406.506 0.554688ZM417.749 7.94531V9.44531L409.545 9.44531L409.483 8.3125L414.389 0.625L415.897 0.625L414.264 3.42188L411.444 7.94531L417.749 7.94531ZM416.327 0.625V12H414.444V0.625L416.327 0.625Z" fill="#EDF2F7"/>
<path d="M498.302 8.89844C498.302 9.60677 498.138 10.2031 497.81 10.6875C497.482 11.1719 497.034 11.5391 496.466 11.7891C495.904 12.0339 495.268 12.1562 494.56 12.1562C493.852 12.1562 493.214 12.0339 492.646 11.7891C492.078 11.5391 491.63 11.1719 491.302 10.6875C490.974 10.2031 490.81 9.60677 490.81 8.89844C490.81 8.42969 490.901 8.00521 491.083 7.625C491.266 7.23958 491.524 6.90885 491.857 6.63281C492.195 6.35156 492.591 6.13542 493.044 5.98438C493.503 5.83333 494.003 5.75781 494.544 5.75781C495.263 5.75781 495.906 5.89063 496.474 6.15625C497.042 6.42188 497.487 6.78906 497.81 7.25781C498.138 7.72656 498.302 8.27344 498.302 8.89844ZM496.412 8.80469C496.412 8.42448 496.333 8.09115 496.177 7.80469C496.021 7.51823 495.802 7.29688 495.521 7.14063C495.24 6.98438 494.914 6.90625 494.544 6.90625C494.169 6.90625 493.844 6.98438 493.568 7.14063C493.292 7.29688 493.076 7.51823 492.919 7.80469C492.768 8.09115 492.693 8.42448 492.693 8.80469C492.693 9.1901 492.768 9.52344 492.919 9.80469C493.07 10.0807 493.287 10.2917 493.568 10.4375C493.849 10.5833 494.18 10.6562 494.56 10.6562C494.94 10.6562 495.268 10.5833 495.544 10.4375C495.82 10.2917 496.034 10.0807 496.185 9.80469C496.336 9.52344 496.412 9.1901 496.412 8.80469ZM498.044 3.61719C498.044 4.1849 497.893 4.6901 497.591 5.13281C497.294 5.57552 496.883 5.92448 496.357 6.17969C495.831 6.42969 495.232 6.55469 494.56 6.55469C493.883 6.55469 493.279 6.42969 492.748 6.17969C492.222 5.92448 491.807 5.57552 491.505 5.13281C491.208 4.6901 491.06 4.1849 491.06 3.61719C491.06 2.9401 491.208 2.36979 491.505 1.90625C491.807 1.4375 492.222 1.08073 492.748 0.835938C493.274 0.591146 493.875 0.46875 494.552 0.46875C495.229 0.46875 495.831 0.591146 496.357 0.835938C496.883 1.08073 497.294 1.4375 497.591 1.90625C497.893 2.36979 498.044 2.9401 498.044 3.61719ZM496.162 3.67969C496.162 3.34115 496.094 3.04427 495.958 2.78906C495.828 2.52865 495.643 2.32552 495.404 2.17969C495.164 2.03385 494.88 1.96094 494.552 1.96094C494.224 1.96094 493.94 2.03125 493.701 2.17188C493.461 2.3125 493.276 2.51042 493.146 2.76563C493.016 3.02083 492.951 3.32552 492.951 3.67969C492.951 4.02865 493.016 4.33333 493.146 4.59375C493.276 4.84896 493.461 5.04948 493.701 5.19531C493.945 5.34115 494.232 5.41406 494.56 5.41406C494.888 5.41406 495.172 5.34115 495.412 5.19531C495.651 5.04948 495.836 4.84896 495.966 4.59375C496.097 4.33333 496.162 4.02865 496.162 3.67969ZM507.373 5.35938V7.21875C507.373 8.10938 507.284 8.86979 507.107 9.5C506.935 10.125 506.685 10.6328 506.357 11.0234C506.029 11.4141 505.636 11.7005 505.177 11.8828C504.724 12.0651 504.216 12.1563 503.654 12.1563C503.206 12.1563 502.789 12.099 502.404 11.9844C502.024 11.8698 501.68 11.6901 501.373 11.4453C501.065 11.2005 500.802 10.8854 500.583 10.5C500.37 10.1094 500.203 9.64323 500.083 9.10156C499.969 8.5599 499.912 7.93229 499.912 7.21875V5.35938C499.912 4.46354 500 3.70833 500.177 3.09375C500.354 2.47396 500.607 1.97135 500.935 1.58594C501.263 1.19531 501.654 0.911458 502.107 0.734375C502.565 0.557292 503.076 0.46875 503.638 0.46875C504.091 0.46875 504.508 0.526042 504.888 0.640625C505.274 0.75 505.617 0.924479 505.919 1.16406C506.227 1.40365 506.487 1.71615 506.701 2.10156C506.919 2.48177 507.086 2.94271 507.201 3.48438C507.315 4.02083 507.373 4.64583 507.373 5.35938ZM505.49 7.48438V5.07813C505.49 4.625 505.464 4.22656 505.412 3.88281C505.36 3.53385 505.281 3.23958 505.177 3C505.078 2.75521 504.953 2.55729 504.802 2.40625C504.651 2.25 504.479 2.13802 504.287 2.07031C504.094 1.9974 503.878 1.96094 503.638 1.96094C503.347 1.96094 503.086 2.01823 502.857 2.13281C502.628 2.24219 502.435 2.41927 502.279 2.66406C502.123 2.90885 502.003 3.23177 501.919 3.63281C501.841 4.02865 501.802 4.51042 501.802 5.07813V7.48438C501.802 7.94271 501.828 8.34635 501.88 8.69531C501.932 9.04427 502.011 9.34375 502.115 9.59375C502.219 9.83854 502.344 10.0417 502.49 10.2031C502.641 10.3594 502.813 10.474 503.005 10.5469C503.203 10.6198 503.419 10.6563 503.654 10.6563C503.951 10.6563 504.214 10.599 504.443 10.4844C504.672 10.3698 504.865 10.1875 505.021 9.9375C505.177 9.68229 505.294 9.35156 505.373 8.94531C505.451 8.53906 505.49 8.05208 505.49 7.48438Z" fill="#EDF2F7"/>
<rect x="681" y="34.4004" width="72" height="72" rx="4" fill="url(#paint0_radial_1045_3856)"/>
<path d="M681 34.4004H749C751.209 34.4004 753 36.1913 753 38.4004V106.4" stroke="url(#paint1_radial_1045_3856)" stroke-width="2"/>
<rect x="777" y="34.4004" width="72" height="72" rx="4" fill="url(#paint2_radial_1045_3856)"/>
<path d="M777 34.4004H841C845.418 34.4004 849 37.9821 849 42.4004V106.4" stroke="url(#paint3_radial_1045_3856)" stroke-width="2"/>
<rect x="872" y="34.4004" width="72" height="72" rx="10" fill="url(#paint4_radial_1045_3856)"/>
<path d="M872 34.4004H932C938.627 34.4004 944 39.773 944 46.4004V106.4" stroke="url(#paint5_radial_1045_3856)" stroke-width="2"/>
<rect x="963" y="34.4004" width="72" height="72" rx="12" fill="url(#paint6_radial_1045_3856)"/>
<path d="M963 34.4004H1019C1027.84 34.4004 1035 41.5638 1035 50.4004V106.4" stroke="url(#paint7_radial_1045_3856)" stroke-width="2"/>
<rect x="1054" y="34.4004" width="72" height="72" rx="20" fill="url(#paint8_radial_1045_3856)"/>
<path d="M1054 34.4004H1106C1117.05 34.4004 1126 43.3547 1126 54.4004V106.4" stroke="url(#paint9_radial_1045_3856)" stroke-width="2"/>
<rect x="1152" y="34.3608" width="72" height="72" rx="20" fill="url(#paint10_radial_1045_3856)"/>
<path d="M1152 34.3608H1200C1213.25 34.3608 1224 45.106 1224 58.3608V106.361" stroke="url(#paint11_radial_1045_3856)" stroke-width="2"/>
<rect x="1251" y="34.3608" width="72" height="72" rx="28" fill="url(#paint12_radial_1045_3856)"/>
<path d="M1251 34.3608H1291C1308.67 34.3608 1323 48.6877 1323 66.3608V106.361" stroke="url(#paint13_radial_1045_3856)" stroke-width="2"/>
<path d="M752.602 7.94531V9.44531H744.398L744.336 8.3125L749.242 0.625H750.75L749.117 3.42188L746.297 7.94531H752.602ZM751.18 0.625V12H749.297V0.625H751.18Z" fill="white"/>
<path d="M848.203 8.89844C848.203 9.60677 848.039 10.2031 847.711 10.6875C847.383 11.1719 846.935 11.5391 846.367 11.7891C845.805 12.0339 845.169 12.1562 844.461 12.1562C843.753 12.1562 843.115 12.0339 842.547 11.7891C841.979 11.5391 841.531 11.1719 841.203 10.6875C840.875 10.2031 840.711 9.60677 840.711 8.89844C840.711 8.42969 840.802 8.00521 840.984 7.625C841.167 7.23958 841.424 6.90885 841.758 6.63281C842.096 6.35156 842.492 6.13542 842.945 5.98438C843.404 5.83333 843.904 5.75781 844.445 5.75781C845.164 5.75781 845.807 5.89062 846.375 6.15625C846.943 6.42188 847.388 6.78906 847.711 7.25781C848.039 7.72656 848.203 8.27344 848.203 8.89844ZM846.312 8.80469C846.312 8.42448 846.234 8.09115 846.078 7.80469C845.922 7.51823 845.703 7.29688 845.422 7.14062C845.141 6.98438 844.815 6.90625 844.445 6.90625C844.07 6.90625 843.745 6.98438 843.469 7.14062C843.193 7.29688 842.977 7.51823 842.82 7.80469C842.669 8.09115 842.594 8.42448 842.594 8.80469C842.594 9.1901 842.669 9.52344 842.82 9.80469C842.971 10.0807 843.188 10.2917 843.469 10.4375C843.75 10.5833 844.081 10.6562 844.461 10.6562C844.841 10.6562 845.169 10.5833 845.445 10.4375C845.721 10.2917 845.935 10.0807 846.086 9.80469C846.237 9.52344 846.312 9.1901 846.312 8.80469ZM847.945 3.61719C847.945 4.1849 847.794 4.6901 847.492 5.13281C847.195 5.57552 846.784 5.92448 846.258 6.17969C845.732 6.42969 845.133 6.55469 844.461 6.55469C843.784 6.55469 843.18 6.42969 842.648 6.17969C842.122 5.92448 841.708 5.57552 841.406 5.13281C841.109 4.6901 840.961 4.1849 840.961 3.61719C840.961 2.9401 841.109 2.36979 841.406 1.90625C841.708 1.4375 842.122 1.08073 842.648 0.835938C843.174 0.591146 843.776 0.46875 844.453 0.46875C845.13 0.46875 845.732 0.591146 846.258 0.835938C846.784 1.08073 847.195 1.4375 847.492 1.90625C847.794 2.36979 847.945 2.9401 847.945 3.61719ZM846.062 3.67969C846.062 3.34115 845.995 3.04427 845.859 2.78906C845.729 2.52865 845.544 2.32552 845.305 2.17969C845.065 2.03385 844.781 1.96094 844.453 1.96094C844.125 1.96094 843.841 2.03125 843.602 2.17188C843.362 2.3125 843.177 2.51042 843.047 2.76562C842.917 3.02083 842.852 3.32552 842.852 3.67969C842.852 4.02865 842.917 4.33333 843.047 4.59375C843.177 4.84896 843.362 5.04948 843.602 5.19531C843.846 5.34115 844.133 5.41406 844.461 5.41406C844.789 5.41406 845.073 5.34115 845.312 5.19531C845.552 5.04948 845.737 4.84896 845.867 4.59375C845.997 4.33333 846.062 4.02865 846.062 3.67969Z" fill="white"/>
<path d="M931.812 0.585938V12H929.93V2.82031L927.141 3.76562V2.21094L931.586 0.585938H931.812ZM943.391 10.5V12H935.766V10.7109L939.469 6.67188C939.875 6.21354 940.195 5.81771 940.43 5.48438C940.664 5.15104 940.828 4.85156 940.922 4.58594C941.021 4.3151 941.07 4.05208 941.07 3.79688C941.07 3.4375 941.003 3.1224 940.867 2.85156C940.737 2.57552 940.544 2.35938 940.289 2.20312C940.034 2.04167 939.724 1.96094 939.359 1.96094C938.938 1.96094 938.583 2.05208 938.297 2.23438C938.01 2.41667 937.794 2.66927 937.648 2.99219C937.503 3.3099 937.43 3.67448 937.43 4.08594H935.547C935.547 3.42448 935.698 2.82031 936 2.27344C936.302 1.72135 936.74 1.28385 937.312 0.960938C937.885 0.632812 938.576 0.46875 939.383 0.46875C940.143 0.46875 940.789 0.596354 941.32 0.851562C941.852 1.10677 942.255 1.46875 942.531 1.9375C942.812 2.40625 942.953 2.96094 942.953 3.60156C942.953 3.95573 942.896 4.30729 942.781 4.65625C942.667 5.00521 942.503 5.35417 942.289 5.70312C942.081 6.04688 941.833 6.39323 941.547 6.74219C941.26 7.08594 940.945 7.4349 940.602 7.78906L938.141 10.5H943.391Z" fill="white"/>
<path d="M1022.81 0.585938V12H1020.93V2.82031L1018.14 3.76562V2.21094L1022.59 0.585938H1022.81ZM1032.45 0.554688H1032.69V2.09375H1032.55C1031.88 2.09375 1031.3 2.19792 1030.81 2.40625C1030.33 2.61458 1029.93 2.90104 1029.62 3.26562C1029.3 3.63021 1029.07 4.05729 1028.91 4.54688C1028.76 5.03125 1028.69 5.54688 1028.69 6.09375V7.88281C1028.69 8.33594 1028.74 8.73698 1028.84 9.08594C1028.93 9.42969 1029.07 9.71875 1029.25 9.95312C1029.43 10.1823 1029.64 10.3568 1029.88 10.4766C1030.11 10.5964 1030.36 10.6562 1030.63 10.6562C1030.91 10.6562 1031.17 10.599 1031.4 10.4844C1031.63 10.3646 1031.82 10.2005 1031.98 9.99219C1032.15 9.78385 1032.27 9.53646 1032.35 9.25C1032.43 8.96354 1032.48 8.65104 1032.48 8.3125C1032.48 7.98958 1032.43 7.6875 1032.35 7.40625C1032.27 7.11979 1032.16 6.86979 1032 6.65625C1031.84 6.4375 1031.65 6.26823 1031.41 6.14844C1031.18 6.02344 1030.92 5.96094 1030.62 5.96094C1030.24 5.96094 1029.9 6.04948 1029.59 6.22656C1029.29 6.40365 1029.05 6.63542 1028.86 6.92188C1028.68 7.20312 1028.58 7.5026 1028.56 7.82031L1027.84 7.58594C1027.89 7.10156 1027.99 6.66667 1028.16 6.28125C1028.34 5.89583 1028.57 5.56771 1028.86 5.29688C1029.15 5.02604 1029.48 4.82031 1029.85 4.67969C1030.23 4.53385 1030.65 4.46094 1031.1 4.46094C1031.65 4.46094 1032.13 4.5651 1032.54 4.77344C1032.95 4.98177 1033.28 5.26562 1033.55 5.625C1033.82 5.97917 1034.02 6.38542 1034.15 6.84375C1034.28 7.29688 1034.35 7.77083 1034.35 8.26562C1034.35 8.8125 1034.27 9.32292 1034.1 9.79688C1033.93 10.2656 1033.69 10.6771 1033.37 11.0312C1033.05 11.3854 1032.66 11.6615 1032.2 11.8594C1031.75 12.0573 1031.23 12.1562 1030.66 12.1562C1030.05 12.1562 1029.5 12.0391 1029.02 11.8047C1028.55 11.5703 1028.15 11.2474 1027.81 10.8359C1027.48 10.4245 1027.23 9.95052 1027.06 9.41406C1026.89 8.8776 1026.8 8.3099 1026.8 7.71094V6.92969C1026.8 6.0651 1026.91 5.25 1027.13 4.48438C1027.35 3.71354 1027.69 3.03385 1028.14 2.44531C1028.6 1.85677 1029.18 1.39583 1029.9 1.0625C1030.61 0.723958 1031.46 0.554688 1032.45 0.554688Z" fill="white"/>
<path d="M1116.3 10.5V12H1108.67V10.7109L1112.38 6.67188C1112.78 6.21354 1113.1 5.81771 1113.34 5.48438C1113.57 5.15104 1113.73 4.85156 1113.83 4.58594C1113.93 4.3151 1113.98 4.05208 1113.98 3.79688C1113.98 3.4375 1113.91 3.1224 1113.77 2.85156C1113.64 2.57552 1113.45 2.35938 1113.2 2.20312C1112.94 2.04167 1112.63 1.96094 1112.27 1.96094C1111.84 1.96094 1111.49 2.05208 1111.2 2.23438C1110.92 2.41667 1110.7 2.66927 1110.55 2.99219C1110.41 3.3099 1110.34 3.67448 1110.34 4.08594H1108.45C1108.45 3.42448 1108.6 2.82031 1108.91 2.27344C1109.21 1.72135 1109.65 1.28385 1110.22 0.960938C1110.79 0.632812 1111.48 0.46875 1112.29 0.46875C1113.05 0.46875 1113.7 0.596354 1114.23 0.851562C1114.76 1.10677 1115.16 1.46875 1115.44 1.9375C1115.72 2.40625 1115.86 2.96094 1115.86 3.60156C1115.86 3.95573 1115.8 4.30729 1115.69 4.65625C1115.57 5.00521 1115.41 5.35417 1115.2 5.70312C1114.99 6.04688 1114.74 6.39323 1114.45 6.74219C1114.17 7.08594 1113.85 7.4349 1113.51 7.78906L1111.05 10.5H1116.3ZM1125.18 5.35938V7.21875C1125.18 8.10938 1125.09 8.86979 1124.91 9.5C1124.74 10.125 1124.49 10.6328 1124.16 11.0234C1123.84 11.4141 1123.44 11.7005 1122.98 11.8828C1122.53 12.0651 1122.02 12.1562 1121.46 12.1562C1121.01 12.1562 1120.6 12.099 1120.21 11.9844C1119.83 11.8698 1119.49 11.6901 1119.18 11.4453C1118.87 11.2005 1118.61 10.8854 1118.39 10.5C1118.18 10.1094 1118.01 9.64323 1117.89 9.10156C1117.78 8.5599 1117.72 7.93229 1117.72 7.21875V5.35938C1117.72 4.46354 1117.81 3.70833 1117.98 3.09375C1118.16 2.47396 1118.41 1.97135 1118.74 1.58594C1119.07 1.19531 1119.46 0.911458 1119.91 0.734375C1120.37 0.557292 1120.88 0.46875 1121.45 0.46875C1121.9 0.46875 1122.32 0.526042 1122.7 0.640625C1123.08 0.75 1123.42 0.924479 1123.73 1.16406C1124.03 1.40365 1124.29 1.71615 1124.51 2.10156C1124.73 2.48177 1124.89 2.94271 1125.01 3.48438C1125.12 4.02083 1125.18 4.64583 1125.18 5.35938ZM1123.3 7.48438V5.07812C1123.3 4.625 1123.27 4.22656 1123.22 3.88281C1123.17 3.53385 1123.09 3.23958 1122.98 3C1122.89 2.75521 1122.76 2.55729 1122.61 2.40625C1122.46 2.25 1122.29 2.13802 1122.09 2.07031C1121.9 1.9974 1121.68 1.96094 1121.45 1.96094C1121.15 1.96094 1120.89 2.01823 1120.66 2.13281C1120.43 2.24219 1120.24 2.41927 1120.09 2.66406C1119.93 2.90885 1119.81 3.23177 1119.73 3.63281C1119.65 4.02865 1119.61 4.51042 1119.61 5.07812V7.48438C1119.61 7.94271 1119.64 8.34635 1119.69 8.69531C1119.74 9.04427 1119.82 9.34375 1119.92 9.59375C1120.03 9.83854 1120.15 10.0417 1120.3 10.2031C1120.45 10.3594 1120.62 10.474 1120.81 10.5469C1121.01 10.6198 1121.23 10.6562 1121.46 10.6562C1121.76 10.6562 1122.02 10.599 1122.25 10.4844C1122.48 10.3698 1122.67 10.1875 1122.83 9.9375C1122.98 9.68229 1123.1 9.35156 1123.18 8.94531C1123.26 8.53906 1123.3 8.05208 1123.3 7.48438Z" fill="white"/>
<path d="M1214.3 10.5V12H1206.67V10.7109L1210.38 6.67188C1210.78 6.21354 1211.1 5.81771 1211.34 5.48438C1211.57 5.15104 1211.73 4.85156 1211.83 4.58594C1211.93 4.3151 1211.98 4.05208 1211.98 3.79688C1211.98 3.4375 1211.91 3.1224 1211.77 2.85156C1211.64 2.57552 1211.45 2.35938 1211.2 2.20312C1210.94 2.04167 1210.63 1.96094 1210.27 1.96094C1209.84 1.96094 1209.49 2.05208 1209.2 2.23438C1208.92 2.41667 1208.7 2.66927 1208.55 2.99219C1208.41 3.3099 1208.34 3.67448 1208.34 4.08594H1206.45C1206.45 3.42448 1206.6 2.82031 1206.91 2.27344C1207.21 1.72135 1207.65 1.28385 1208.22 0.960938C1208.79 0.632812 1209.48 0.46875 1210.29 0.46875C1211.05 0.46875 1211.7 0.596354 1212.23 0.851562C1212.76 1.10677 1213.16 1.46875 1213.44 1.9375C1213.72 2.40625 1213.86 2.96094 1213.86 3.60156C1213.86 3.95573 1213.8 4.30729 1213.69 4.65625C1213.57 5.00521 1213.41 5.35417 1213.2 5.70312C1212.99 6.04688 1212.74 6.39323 1212.45 6.74219C1212.17 7.08594 1211.85 7.4349 1211.51 7.78906L1209.05 10.5H1214.3ZM1223.6 7.94531V9.44531H1215.4L1215.34 8.3125L1220.24 0.625H1221.75L1220.12 3.42188L1217.3 7.94531H1223.6ZM1222.18 0.625V12H1220.3V0.625H1222.18Z" fill="white"/>
<path d="M1307.88 5.46094H1309.01C1309.45 5.46094 1309.81 5.38542 1310.09 5.23438C1310.39 5.08333 1310.6 4.875 1310.74 4.60938C1310.88 4.34375 1310.95 4.03906 1310.95 3.69531C1310.95 3.33594 1310.89 3.02865 1310.76 2.77344C1310.63 2.51302 1310.44 2.3125 1310.18 2.17188C1309.92 2.03125 1309.6 1.96094 1309.2 1.96094C1308.87 1.96094 1308.57 2.02865 1308.3 2.16406C1308.03 2.29427 1307.82 2.48177 1307.66 2.72656C1307.51 2.96615 1307.43 3.2526 1307.43 3.58594H1305.54C1305.54 2.98177 1305.7 2.44531 1306.02 1.97656C1306.33 1.50781 1306.77 1.14062 1307.31 0.875C1307.86 0.604167 1308.48 0.46875 1309.17 0.46875C1309.91 0.46875 1310.55 0.591146 1311.09 0.835938C1311.65 1.07552 1312.08 1.4349 1312.38 1.91406C1312.69 2.39323 1312.84 2.98698 1312.84 3.69531C1312.84 4.01823 1312.77 4.34635 1312.62 4.67969C1312.47 5.01302 1312.24 5.31771 1311.95 5.59375C1311.65 5.86458 1311.28 6.08594 1310.84 6.25781C1310.39 6.42448 1309.88 6.50781 1309.3 6.50781H1307.88V5.46094ZM1307.88 6.92969V5.89844H1309.3C1309.96 5.89844 1310.53 5.97656 1311 6.13281C1311.47 6.28906 1311.86 6.50521 1312.16 6.78125C1312.45 7.05208 1312.67 7.36198 1312.8 7.71094C1312.95 8.0599 1313.02 8.42969 1313.02 8.82031C1313.02 9.35156 1312.92 9.82552 1312.73 10.2422C1312.54 10.6536 1312.27 11.0026 1311.92 11.2891C1311.57 11.5755 1311.16 11.7917 1310.7 11.9375C1310.23 12.0833 1309.73 12.1562 1309.18 12.1562C1308.69 12.1562 1308.22 12.0885 1307.77 11.9531C1307.33 11.8177 1306.92 11.6172 1306.57 11.3516C1306.22 11.0807 1305.93 10.7448 1305.73 10.3438C1305.52 9.9375 1305.42 9.46875 1305.42 8.9375H1307.3C1307.3 9.27604 1307.38 9.57552 1307.54 9.83594C1307.7 10.0911 1307.92 10.2917 1308.21 10.4375C1308.5 10.5833 1308.84 10.6562 1309.21 10.6562C1309.61 10.6562 1309.95 10.5859 1310.23 10.4453C1310.52 10.3047 1310.74 10.0964 1310.89 9.82031C1311.05 9.54427 1311.12 9.21094 1311.12 8.82031C1311.12 8.3776 1311.04 8.01823 1310.87 7.74219C1310.7 7.46615 1310.45 7.26302 1310.13 7.13281C1309.82 6.9974 1309.44 6.92969 1309.01 6.92969H1307.88ZM1322.39 10.5V12H1314.77V10.7109L1318.47 6.67188C1318.88 6.21354 1319.2 5.81771 1319.43 5.48438C1319.66 5.15104 1319.83 4.85156 1319.92 4.58594C1320.02 4.3151 1320.07 4.05208 1320.07 3.79688C1320.07 3.4375 1320 3.1224 1319.87 2.85156C1319.74 2.57552 1319.54 2.35938 1319.29 2.20312C1319.03 2.04167 1318.72 1.96094 1318.36 1.96094C1317.94 1.96094 1317.58 2.05208 1317.3 2.23438C1317.01 2.41667 1316.79 2.66927 1316.65 2.99219C1316.5 3.3099 1316.43 3.67448 1316.43 4.08594H1314.55C1314.55 3.42448 1314.7 2.82031 1315 2.27344C1315.3 1.72135 1315.74 1.28385 1316.31 0.960938C1316.89 0.632812 1317.58 0.46875 1318.38 0.46875C1319.14 0.46875 1319.79 0.596354 1320.32 0.851562C1320.85 1.10677 1321.26 1.46875 1321.53 1.9375C1321.81 2.40625 1321.95 2.96094 1321.95 3.60156C1321.95 3.95573 1321.9 4.30729 1321.78 4.65625C1321.67 5.00521 1321.5 5.35417 1321.29 5.70312C1321.08 6.04688 1320.83 6.39323 1320.55 6.74219C1320.26 7.08594 1319.95 7.4349 1319.6 7.78906L1317.14 10.5H1322.39Z" fill="white"/>
<defs>
<radialGradient id="paint0_radial_1045_3856" cx="0" cy="0" r="1" gradientUnits="userSpaceOnUse" gradientTransform="translate(753 34) rotate(135) scale(72.1249)">
<stop stop-color="#49330A"/>
<stop offset="1" stop-color="#49330A" stop-opacity="0"/>
</radialGradient>
<radialGradient id="paint1_radial_1045_3856" cx="0" cy="0" r="1" gradientUnits="userSpaceOnUse" gradientTransform="translate(754 40.5) rotate(135) scale(63.6396)">
<stop stop-color="white"/>
<stop offset="1" stop-color="white" stop-opacity="0"/>
</radialGradient>
<radialGradient id="paint2_radial_1045_3856" cx="0" cy="0" r="1" gradientUnits="userSpaceOnUse" gradientTransform="translate(849 34) rotate(135) scale(72.1249)">
<stop stop-color="#49330A"/>
<stop offset="1" stop-color="#49330A" stop-opacity="0"/>
</radialGradient>
<radialGradient id="paint3_radial_1045_3856" cx="0" cy="0" r="1" gradientUnits="userSpaceOnUse" gradientTransform="translate(850 40.5) rotate(135) scale(63.6396)">
<stop stop-color="white"/>
<stop offset="1" stop-color="white" stop-opacity="0"/>
</radialGradient>
<radialGradient id="paint4_radial_1045_3856" cx="0" cy="0" r="1" gradientUnits="userSpaceOnUse" gradientTransform="translate(944 34) rotate(135) scale(72.1249)">
<stop stop-color="#49330A"/>
<stop offset="1" stop-color="#49330A" stop-opacity="0"/>
</radialGradient>
<radialGradient id="paint5_radial_1045_3856" cx="0" cy="0" r="1" gradientUnits="userSpaceOnUse" gradientTransform="translate(945 40.5) rotate(135) scale(63.6396)">
<stop stop-color="white"/>
<stop offset="1" stop-color="white" stop-opacity="0"/>
</radialGradient>
<radialGradient id="paint6_radial_1045_3856" cx="0" cy="0" r="1" gradientUnits="userSpaceOnUse" gradientTransform="translate(1035 34) rotate(135) scale(72.1249)">
<stop stop-color="#49330A"/>
<stop offset="1" stop-color="#49330A" stop-opacity="0"/>
</radialGradient>
<radialGradient id="paint7_radial_1045_3856" cx="0" cy="0" r="1" gradientUnits="userSpaceOnUse" gradientTransform="translate(1036 40.5) rotate(135) scale(63.6396)">
<stop stop-color="white"/>
<stop offset="1" stop-color="white" stop-opacity="0"/>
</radialGradient>
<radialGradient id="paint8_radial_1045_3856" cx="0" cy="0" r="1" gradientUnits="userSpaceOnUse" gradientTransform="translate(1126 34) rotate(135) scale(72.1249)">
<stop stop-color="#49330A"/>
<stop offset="1" stop-color="#49330A" stop-opacity="0"/>
</radialGradient>
<radialGradient id="paint9_radial_1045_3856" cx="0" cy="0" r="1" gradientUnits="userSpaceOnUse" gradientTransform="translate(1127 40.5) rotate(135) scale(63.6396)">
<stop stop-color="white"/>
<stop offset="1" stop-color="white" stop-opacity="0"/>
</radialGradient>
<radialGradient id="paint10_radial_1045_3856" cx="0" cy="0" r="1" gradientUnits="userSpaceOnUse" gradientTransform="translate(1224 33.9605) rotate(135) scale(72.1249)">
<stop stop-color="#49330A"/>
<stop offset="1" stop-color="#49330A" stop-opacity="0"/>
</radialGradient>
<radialGradient id="paint11_radial_1045_3856" cx="0" cy="0" r="1" gradientUnits="userSpaceOnUse" gradientTransform="translate(1225 40.4605) rotate(135) scale(63.6396)">
<stop stop-color="white"/>
<stop offset="1" stop-color="white" stop-opacity="0"/>
</radialGradient>
<radialGradient id="paint12_radial_1045_3856" cx="0" cy="0" r="1" gradientUnits="userSpaceOnUse" gradientTransform="translate(1323 33.9605) rotate(135) scale(72.1249)">
<stop stop-color="#49330A"/>
<stop offset="1" stop-color="#49330A" stop-opacity="0"/>
</radialGradient>
<radialGradient id="paint13_radial_1045_3856" cx="0" cy="0" r="1" gradientUnits="userSpaceOnUse" gradientTransform="translate(1324 40.4605) rotate(135) scale(63.6396)">
<stop stop-color="white"/>
<stop offset="1" stop-color="white" stop-opacity="0"/>
</radialGradient>
</defs>
</svg>
