<svg width="60" height="36" viewBox="0 0 60 36" fill="none" xmlns="http://www.w3.org/2000/svg">
<path fill-rule="evenodd" clip-rule="evenodd" d="M51.6579 6.82635H8.34277C7.79049 6.82635 7.34277 7.27407 7.34277 7.82635V28.1737C7.34277 28.726 7.79049 29.1737 8.34277 29.1737H51.6579C52.2102 29.1737 52.6579 28.726 52.6579 28.1737V7.82635C52.6579 7.27407 52.2102 6.82635 51.6579 6.82635ZM8.34277 5.82635C7.2382 5.82635 6.34277 6.72178 6.34277 7.82635V28.1737C6.34277 29.2783 7.2382 30.1737 8.34277 30.1737H51.6579C52.7625 30.1737 53.6579 29.2783 53.6579 28.1737V7.82635C53.6579 6.72179 52.7625 5.82635 51.6579 5.82635H8.34277Z" fill="url(#paint0_linear_205_13131)"/>
<path d="M41.6816 9.00287C41.6816 8.45058 42.1294 8.00287 42.6816 8.00287H50.5977C51.15 8.00287 51.5977 8.45058 51.5977 9.00287V16.6606C51.5977 17.2129 51.15 17.6606 50.5977 17.6606H42.6816C42.1294 17.6606 41.6816 17.2129 41.6816 16.6606V9.00287Z" fill="url(#paint1_linear_205_13131)"/>
<path fill-rule="evenodd" clip-rule="evenodd" d="M46.6397 13.5492C47.5867 13.5492 48.3546 12.7813 48.3546 11.8342C48.3546 10.8873 47.5868 10.1193 46.6397 10.1193C45.6927 10.1193 44.9248 10.8872 44.9248 11.8342C44.9248 12.7812 45.6927 13.5492 46.6397 13.5492ZM43.8921 16.7254C43.8921 15.2082 45.1228 13.9775 46.64 13.9775C48.1576 13.9775 49.3878 15.2082 49.3873 16.7254V17.6607H43.8921V16.7254Z" fill="url(#paint2_linear_205_13131)"/>
<path d="M41.6816 19.5756C41.6816 19.0233 42.1294 18.5756 42.6816 18.5756H50.5977C51.15 18.5756 51.5977 19.0233 51.5977 19.5756V27.2334C51.5977 27.7857 51.15 28.2334 50.5977 28.2334H42.6816C42.1294 28.2334 41.6816 27.7857 41.6816 27.2334V19.5756Z" fill="url(#paint3_linear_205_13131)"/>
<path fill-rule="evenodd" clip-rule="evenodd" d="M46.6397 24.1219C47.5867 24.1219 48.3546 23.354 48.3546 22.407C48.3546 21.46 47.5868 20.6921 46.6397 20.6921C45.6927 20.6921 44.9248 21.46 44.9248 22.407C44.9248 23.354 45.6927 24.1219 46.6397 24.1219ZM43.8921 27.2982C43.8921 25.7809 45.1228 24.5503 46.64 24.5503C48.1576 24.5503 49.3878 25.781 49.3873 27.2982V28.2334H43.8921V27.2982Z" fill="url(#paint4_linear_205_13131)"/>
<mask id="mask0_205_13131" style="mask-type:alpha" maskUnits="userSpaceOnUse" x="8" y="7" width="34" height="22">
<path d="M8.41016 8.88477C8.41016 8.33248 8.85787 7.88477 9.41016 7.88477H40.6816C41.2339 7.88477 41.6816 8.33248 41.6816 8.88477V27.1153C41.6816 27.6676 41.2339 28.1153 40.6816 28.1153H9.41016C8.85787 28.1153 8.41016 27.6676 8.41016 27.1153V8.88477Z" fill="#D9D9D9"/>
</mask>
<g mask="url(#mask0_205_13131)">
<path d="M18.8432 22.9216C19.9647 21.9839 21.5084 21.8733 22.8316 22.4988C23.1626 22.6459 23.5115 22.7378 23.8792 22.7378C25.4602 22.7378 26.7834 21.2308 27.1698 19.1902H35.2197L35.7525 19.5391C35.8817 19.631 36.0648 19.6676 36.23 19.6863L36.23 20.0913L36.0648 20.2564C36.0461 20.2751 36.0461 20.2751 36.0469 20.3117L36.0469 20.642C36.0469 20.6793 36.0835 20.7159 36.1201 20.7152L36.7089 20.7152C36.7462 20.7152 36.7828 20.6786 36.7821 20.642L36.7821 20.3117C36.7821 20.2743 36.7821 20.2743 36.7642 20.2564L36.599 20.0913L36.6536 19.705H37.3156L37.3156 20.1099L37.1504 20.2751C37.1318 20.2937 37.1318 20.2937 37.1325 20.3304V20.6606C37.1325 20.698 37.1691 20.7346 37.2057 20.7339L37.7945 20.7339C37.8318 20.7339 37.8684 20.6973 37.8677 20.6606L37.8677 20.3304C37.8677 20.293 37.8677 20.293 37.8498 20.2751L37.6846 20.1099L37.7564 19.705H38.4184L38.4184 20.1099L38.2533 20.2751C38.2346 20.2938 38.2346 20.2938 38.2353 20.3304V20.6606C38.2353 20.698 38.272 20.7346 38.3086 20.7339L38.8973 20.7339C38.9347 20.7339 38.9713 20.6973 38.9706 20.6606L38.9706 20.3304C38.9706 20.293 38.9706 20.293 38.9526 20.2751L38.7875 20.1099L38.7875 19.705L38.934 19.705C39.191 19.705 39.3935 19.5025 39.3935 19.2455L39.3935 16.7095C39.3935 16.4525 39.191 16.25 38.934 16.25L38.7875 16.25L38.7875 15.8451L38.9526 15.6799C38.9713 15.6613 38.9713 15.6613 38.9706 15.6246L38.9706 15.2944C38.9706 15.257 38.934 15.2204 38.8973 15.2211L38.3086 15.2211C38.2712 15.2211 38.2346 15.2577 38.2353 15.2944L38.2353 15.6246C38.2353 15.662 38.2353 15.662 38.2533 15.6799L38.4184 15.8451L38.4184 16.25H37.7564L37.7564 15.8451L37.9216 15.6799C37.9402 15.6613 37.9402 15.6613 37.9395 15.6246L37.9395 15.2944C37.9395 15.257 37.9029 15.2204 37.8663 15.2211L37.2775 15.2211C37.2402 15.2211 37.2036 15.2577 37.2043 15.2944L37.2043 15.6246C37.2043 15.662 37.2043 15.662 37.2222 15.6799L37.3874 15.8451L37.3874 16.25L36.6536 16.25L36.6723 15.8637L36.8374 15.6986C36.8561 15.6799 36.8561 15.6799 36.8554 15.6433L36.8554 15.313C36.8554 15.2757 36.8187 15.2391 36.7821 15.2398L36.1933 15.2398C36.156 15.2398 36.1194 15.2764 36.1201 15.313L36.1201 15.6433C36.1201 15.6806 36.1201 15.6806 36.1381 15.6986L36.3032 15.8637L36.3032 16.2687C36.1381 16.2874 35.9722 16.3427 35.8257 16.4159L35.293 16.7648L27.1695 16.7648C26.7832 14.7243 25.4599 13.2172 23.8789 13.2171C23.5113 13.2171 23.1623 13.309 22.8313 13.4562C21.5081 14.0816 19.9644 13.971 18.8429 13.0333C17.6295 12.0037 16.1777 11.3978 14.9643 11.3978C12.3178 11.3978 10.1666 14.3574 10.1667 17.9961C10.1667 21.6349 12.317 24.5953 14.9643 24.5944C16.159 24.5758 17.6295 23.9511 18.843 22.9214L18.8432 22.9216ZM23.0894 17.9776C23.0894 19.0804 22.189 19.9808 21.0863 19.9807C19.9835 19.9806 19.0831 19.0803 19.0831 17.9776C19.0832 16.8748 19.9835 15.9744 21.0863 15.9745C22.1884 15.9737 23.0894 16.8748 23.0894 17.9776V17.9776ZM14.4319 20.4216L14.4319 15.5335C14.4319 15.2391 14.6524 15.0187 14.9467 15.0187C15.2411 15.0187 15.4615 15.2391 15.4615 15.5335L15.4615 20.4231C15.4615 20.7175 15.2411 20.9379 14.9467 20.9379C14.6524 20.9365 14.4319 20.716 14.4319 20.4217L14.4319 20.4216Z" fill="url(#paint5_linear_205_13131)"/>
</g>
<defs>
<linearGradient id="paint0_linear_205_13131" x1="6.34143" y1="18.001" x2="53.6592" y2="18.001" gradientUnits="userSpaceOnUse">
<stop stop-color="#6C4A81"/>
<stop offset="1" stop-color="#2B3E75"/>
</linearGradient>
<linearGradient id="paint1_linear_205_13131" x1="41.6814" y1="12.8321" x2="51.598" y2="12.8321" gradientUnits="userSpaceOnUse">
<stop stop-color="#6C4A81"/>
<stop offset="1" stop-color="#2B3E75"/>
</linearGradient>
<linearGradient id="paint2_linear_205_13131" x1="49.3873" y1="13.9586" x2="43.8921" y2="13.9586" gradientUnits="userSpaceOnUse">
<stop stop-color="#FF9675"/>
<stop offset="1" stop-color="#F888B5"/>
</linearGradient>
<linearGradient id="paint3_linear_205_13131" x1="41.6814" y1="23.4049" x2="51.598" y2="23.4049" gradientUnits="userSpaceOnUse">
<stop stop-color="#6C4A81"/>
<stop offset="1" stop-color="#2B3E75"/>
</linearGradient>
<linearGradient id="paint4_linear_205_13131" x1="49.3873" y1="24.5313" x2="43.8921" y2="24.5313" gradientUnits="userSpaceOnUse">
<stop stop-color="#FF9675"/>
<stop offset="1" stop-color="#F888B5"/>
</linearGradient>
<linearGradient id="paint5_linear_205_13131" x1="32.8" y1="26.8593" x2="15.3726" y2="9.43192" gradientUnits="userSpaceOnUse">
<stop stop-color="#FF9675"/>
<stop offset="1" stop-color="#F888B5"/>
</linearGradient>
</defs>
</svg>
