<svg width="60" height="36" viewBox="0 0 60 36" fill="none" xmlns="http://www.w3.org/2000/svg">
<path fill-rule="evenodd" clip-rule="evenodd" d="M36.9759 7.76038H10.5625L10.5625 26.484H36.9759L36.9759 7.76038ZM10.5625 6.76038C10.0102 6.76038 9.5625 7.20809 9.5625 7.76038V26.484C9.5625 27.0363 10.0102 27.484 10.5625 27.484H36.9759C37.5282 27.484 37.9759 27.0363 37.9759 26.484V7.76038C37.9759 7.20809 37.5282 6.76038 36.9759 6.76038H10.5625Z" fill="url(#paint0_linear_205_13135)"/>
<path fill-rule="evenodd" clip-rule="evenodd" d="M51.2374 11.9944L43.3647 11.9944V29.1618H51.2374V11.9944ZM43.3647 10.9944C42.8125 10.9944 42.3647 11.4421 42.3647 11.9944V29.1618C42.3647 29.7141 42.8125 30.1618 43.3647 30.1618H51.2374C51.7897 30.1618 52.2374 29.7141 52.2374 29.1618V11.9944C52.2374 11.4421 51.7897 10.9944 51.2374 10.9944H43.3647Z" fill="url(#paint1_linear_205_13135)"/>
<path d="M6.57715 29.114C6.57715 28.5353 7.04629 28.0662 7.625 28.0662H40.1192C40.6979 28.0662 41.167 28.5353 41.167 29.114V29.114C41.167 29.6927 40.6979 30.1619 40.1192 30.1619H7.625C7.04629 30.1619 6.57715 29.6927 6.57715 29.114V29.114Z" fill="url(#paint2_linear_205_13135)"/>
<path fill-rule="evenodd" clip-rule="evenodd" d="M45.6203 16.2916L48.8023 19.4736C48.9975 19.6688 48.9975 19.9854 48.8023 20.1807L45.6203 23.3627C45.425 23.5579 45.1085 23.5579 44.9132 23.3627C44.7179 23.1674 44.7179 22.8508 44.9132 22.6555L47.2416 20.3271H35.0762V19.3271H47.2416L44.9132 16.9987C44.7179 16.8034 44.7179 16.4869 44.9132 16.2916C45.1085 16.0963 45.425 16.0963 45.6203 16.2916Z" fill="url(#paint3_linear_205_13135)"/>
<path fill-rule="evenodd" clip-rule="evenodd" d="M29.9046 16.2916L26.7226 19.4736C26.5274 19.6688 26.5274 19.9854 26.7226 20.1807L29.9046 23.3627C30.0999 23.5579 30.4164 23.5579 30.6117 23.3627C30.807 23.1674 30.807 22.8508 30.6117 22.6555L28.2833 20.3271H40.4487V19.3271H28.2833L30.6117 16.9987C30.807 16.8034 30.807 16.4869 30.6117 16.2916C30.4164 16.0963 30.0999 16.0963 29.9046 16.2916Z" fill="url(#paint4_linear_205_13135)"/>
<defs>
<linearGradient id="paint0_linear_205_13135" x1="9.56169" y1="17.123" x2="37.9767" y2="17.123" gradientUnits="userSpaceOnUse">
<stop stop-color="#6C4A81"/>
<stop offset="1" stop-color="#2B3E75"/>
</linearGradient>
<linearGradient id="paint1_linear_205_13135" x1="42.3645" y1="20.5789" x2="52.2377" y2="20.5789" gradientUnits="userSpaceOnUse">
<stop stop-color="#6C4A81"/>
<stop offset="1" stop-color="#2B3E75"/>
</linearGradient>
<linearGradient id="paint2_linear_205_13135" x1="6.57617" y1="29.1141" x2="41.168" y2="29.1141" gradientUnits="userSpaceOnUse">
<stop stop-color="#6C4A81"/>
<stop offset="1" stop-color="#2B3E75"/>
</linearGradient>
<linearGradient id="paint3_linear_205_13135" x1="48.9487" y1="19.8941" x2="35.0762" y2="19.8941" gradientUnits="userSpaceOnUse">
<stop stop-color="#FF9675"/>
<stop offset="1" stop-color="#F888B5"/>
</linearGradient>
<linearGradient id="paint4_linear_205_13135" x1="26.5762" y1="19.8941" x2="40.4487" y2="19.8941" gradientUnits="userSpaceOnUse">
<stop stop-color="#FF9675"/>
<stop offset="1" stop-color="#F888B5"/>
</linearGradient>
</defs>
</svg>
