<svg width="60" height="36" viewBox="0 0 60 36" fill="none" xmlns="http://www.w3.org/2000/svg">
<path fill-rule="evenodd" clip-rule="evenodd" d="M39.8028 7.29926H13.1162L13.1162 26.0229H39.8028V7.29926ZM13.1162 6.29926C12.5639 6.29926 12.1162 6.74697 12.1162 7.29925V26.0229C12.1162 26.5752 12.5639 27.0229 13.1162 27.0229H39.8028C40.3551 27.0229 40.8028 26.5752 40.8028 26.0229V7.29926C40.8028 6.74697 40.3551 6.29926 39.8028 6.29926H13.1162Z" fill="url(#paint0_linear_205_13143)"/>
<path fill-rule="evenodd" clip-rule="evenodd" d="M54.0944 11.5333L46.2217 11.5333V28.7007H54.0944V11.5333ZM46.2217 10.5333C45.6694 10.5333 45.2217 10.981 45.2217 11.5333V28.7007C45.2217 29.253 45.6694 29.7007 46.2217 29.7007H54.0944C54.6466 29.7007 55.0944 29.253 55.0944 28.7007V11.5333C55.0944 10.981 54.6466 10.5333 54.0944 10.5333H46.2217Z" fill="url(#paint1_linear_205_13143)"/>
<path d="M9.10156 28.6529C9.10156 28.0742 9.5707 27.605 10.1494 27.605H42.9761C43.5548 27.605 44.024 28.0742 44.024 28.6529V28.6529C44.024 29.2316 43.5548 29.7007 42.9761 29.7007H10.1494C9.5707 29.7007 9.10156 29.2316 9.10156 28.6529V28.6529Z" fill="url(#paint2_linear_205_13143)"/>
<path d="M48.4023 16.7441C48.4023 16.7446 48.4018 16.7451 48.4018 16.7456C48.4018 16.7888 48.383 16.8086 48.3037 16.7969V16.7979C48.0194 16.7487 47.6898 16.7883 47.3729 16.9335C46.7001 17.2407 46.3416 17.8973 46.5716 18.4C46.8011 18.9028 47.5324 19.0612 48.2046 18.7545C48.7287 18.5153 49.0608 18.0639 49.074 17.6378H49.0755V17.5921V17.5804V13.0549C49.0755 12.9924 49.0522 12.9899 49.0151 12.9975C48.8653 13.0274 48.486 13.1031 48.4621 13.1092C48.4327 13.1173 48.4022 13.1229 48.4022 13.1813V16.7441L48.4023 16.7441Z" fill="url(#paint3_linear_205_13143)"/>
<path d="M40.6212 20.8391C40.6212 20.8396 40.6207 20.8401 40.6207 20.8406C40.6207 20.8833 40.6019 20.9036 40.5227 20.8914V20.8929C40.2383 20.8431 39.9082 20.8838 39.5919 21.028C38.9195 21.3352 38.5605 21.9918 38.79 22.4945C39.0196 22.9973 39.7513 23.1562 40.4236 22.849C40.9477 22.6093 41.2798 22.1579 41.293 21.7323H41.2945V21.6871V21.6754V17.1494C41.2945 17.0869 41.2712 17.0844 41.2341 17.092C41.0843 17.1219 40.7049 17.1976 40.6811 17.2042C40.6516 17.2118 40.6217 17.2174 40.6217 17.2763C40.6212 17.3357 40.6212 20.8391 40.6212 20.8391L40.6212 20.8391Z" fill="url(#paint4_linear_205_13143)"/>
<path d="M34.8371 19.2456V19.1978V19.1897C34.8371 19.1897 34.8366 14.2944 34.8366 14.2355C34.8366 14.1771 34.7808 14.1909 34.7808 14.1909L30.5532 15.0628C30.5532 15.0628 30.4938 15.0724 30.4938 15.1349C30.4938 15.1973 30.4953 19.0202 30.4953 19.0202C30.4953 19.0207 30.4948 19.0212 30.4948 19.0217C30.4948 19.0644 30.476 19.0847 30.3968 19.073V19.074C30.1124 19.0248 29.7828 19.0649 29.4659 19.2096C28.7931 19.5168 28.4346 20.1734 28.6641 20.6767C28.8941 21.1794 29.6254 21.3383 30.2977 21.0311C30.8217 20.7914 31.1539 20.34 31.1666 19.9144H31.1681V19.8667V19.8586V16.2699C31.1681 16.2257 31.2067 16.2146 31.2067 16.2146L34.1184 15.6204C34.1184 15.6204 34.1641 15.6047 34.1641 15.66V18.3815C34.1641 18.3825 34.1631 18.383 34.1631 18.384C34.1631 18.4114 34.1413 18.4206 34.1077 18.415C34.1077 18.415 34.1088 18.4165 34.1088 18.417C33.8147 18.3551 33.4679 18.3906 33.1343 18.5429C32.4619 18.8502 32.1029 19.5068 32.3324 20.0095C32.562 20.5122 33.2937 20.6712 33.966 20.3639C34.4896 20.1248 34.8222 19.6733 34.8349 19.2473L34.8369 19.2462L34.8371 19.2456Z" fill="url(#paint5_linear_205_13143)"/>
<defs>
<linearGradient id="paint0_linear_205_13143" x1="12.1154" y1="16.6619" x2="40.8036" y2="16.6619" gradientUnits="userSpaceOnUse">
<stop stop-color="#6C4A81"/>
<stop offset="1" stop-color="#2B3E75"/>
</linearGradient>
<linearGradient id="paint1_linear_205_13143" x1="45.2214" y1="20.1178" x2="55.0946" y2="20.1178" gradientUnits="userSpaceOnUse">
<stop stop-color="#6C4A81"/>
<stop offset="1" stop-color="#2B3E75"/>
</linearGradient>
<linearGradient id="paint2_linear_205_13143" x1="9.10057" y1="28.653" x2="44.025" y2="28.653" gradientUnits="userSpaceOnUse">
<stop stop-color="#6C4A81"/>
<stop offset="1" stop-color="#2B3E75"/>
</linearGradient>
<linearGradient id="paint3_linear_205_13143" x1="49.0755" y1="16.0064" x2="46.502" y2="16.0064" gradientUnits="userSpaceOnUse">
<stop stop-color="#FF9675"/>
<stop offset="1" stop-color="#F888B5"/>
</linearGradient>
<linearGradient id="paint4_linear_205_13143" x1="41.2945" y1="20.101" x2="38.7207" y2="20.101" gradientUnits="userSpaceOnUse">
<stop stop-color="#FF9675"/>
<stop offset="1" stop-color="#F888B5"/>
</linearGradient>
<linearGradient id="paint5_linear_205_13143" x1="34.8371" y1="17.7522" x2="28.5947" y2="17.7522" gradientUnits="userSpaceOnUse">
<stop stop-color="#FF9675"/>
<stop offset="1" stop-color="#F888B5"/>
</linearGradient>
</defs>
</svg>
