<svg width="60" height="36" viewBox="0 0 60 36" fill="none" xmlns="http://www.w3.org/2000/svg">
<mask id="mask0_205_13147" style="mask-type:alpha" maskUnits="userSpaceOnUse" x="13" y="8" width="31" height="24">
<path d="M13.4434 8.51196H43.96V31.3071H13.4434V8.51196Z" fill="#D9D9D9"/>
</mask>
<g mask="url(#mask0_205_13147)">
<path d="M38.5388 16.2292C37.9847 16.0807 37.4219 16.4363 37.3183 17.0004L35.0534 23.8675C35.0234 24.0859 34.8175 24.2356 34.6004 24.1969C34.4169 24.1632 34.2834 24.0035 34.2821 23.8163L35.164 14.2204C35.1764 13.645 34.7471 13.1546 34.1743 13.0909C33.5515 13.0223 32.9949 13.4791 32.9425 14.1031L31.2931 23.1137C31.2757 23.3246 31.071 23.4694 30.8638 23.4107C30.7128 23.3683 30.6155 23.2198 30.618 23.0625L30.2209 11.7947C30.2308 11.0709 29.6518 10.4769 28.9279 10.4681C28.2166 10.4594 27.6275 11.021 27.6038 11.7323L27.8299 22.9527C27.8262 23.0912 27.7413 23.221 27.6103 23.2659C27.4069 23.3346 27.2022 23.1998 27.176 22.9976L24.6832 14.4378C24.5958 13.8013 23.9868 13.3732 23.3591 13.5068C22.8274 13.6191 22.4568 14.1021 22.4855 14.6437L24.311 28.6184L20.7655 25.602C19.9867 24.9393 18.8598 24.8819 18.0186 25.4634L17.945 25.5146C17.7565 25.6444 17.6979 25.8965 17.8089 26.0962L22.5209 34.5966C22.6694 34.8624 22.8716 35.0958 23.115 35.2805L25.8893 37.3871C25.9916 37.4645 26.0528 37.5868 26.0528 37.7154L26.064 41.1711H34.9011L34.669 37.9013C34.6628 37.8052 34.694 37.7091 34.7589 37.6367L35.9807 36.2514C36.873 35.2393 37.3872 33.9476 37.4321 32.5985L39.2627 17.2376C39.2901 16.772 38.7243 16.3035 38.2738 16.1825L38.5388 16.2292Z" fill="url(#paint0_linear_205_13147)"/>
</g>
<path d="M23.1225 9.85483C23.1225 10.8131 22.3457 11.5899 21.3874 11.5899C20.4292 11.5899 19.6523 10.8131 19.6523 9.85483C19.6523 8.89657 20.4292 8.11975 21.3874 8.11975C22.3457 8.11975 23.1225 8.89657 23.1225 9.85483Z" fill="url(#paint1_linear_205_13147)"/>
<path d="M30.1872 7.06733C30.1872 7.99463 29.4354 8.74636 28.5081 8.74636C27.5808 8.74636 26.8291 7.99463 26.8291 7.06733C26.8291 6.14003 27.5808 5.38831 28.5081 5.38831C29.4354 5.38831 30.1872 6.14003 30.1872 7.06733Z" fill="url(#paint2_linear_205_13147)"/>
<path d="M36.8894 8.6328C36.8894 9.56309 36.1352 10.3172 35.2049 10.3172C34.2747 10.3172 33.5205 9.56309 33.5205 8.6328C33.5205 7.70251 34.2747 6.94836 35.2049 6.94836C36.1352 6.94836 36.8894 7.70251 36.8894 8.6328Z" fill="url(#paint3_linear_205_13147)"/>
<path d="M42.3228 13.1197C42.3228 13.9646 41.6378 14.6495 40.793 14.6495C39.9481 14.6495 39.2632 13.9646 39.2632 13.1197C39.2632 12.2748 39.9481 11.5899 40.793 11.5899C41.6378 11.5899 42.3228 12.2748 42.3228 13.1197Z" fill="url(#paint4_linear_205_13147)"/>
<defs>
<linearGradient id="paint0_linear_205_13147" x1="17.7523" y1="25.8208" x2="39.2642" y2="25.8208" gradientUnits="userSpaceOnUse">
<stop stop-color="#6C4A81"/>
<stop offset="1" stop-color="#2B3E75"/>
</linearGradient>
<linearGradient id="paint1_linear_205_13147" x1="23.1225" y1="9.88638" x2="19.6523" y2="9.88638" gradientUnits="userSpaceOnUse">
<stop stop-color="#FF9675"/>
<stop offset="1" stop-color="#F888B5"/>
</linearGradient>
<linearGradient id="paint2_linear_205_13147" x1="30.1872" y1="7.09786" x2="26.8291" y2="7.09786" gradientUnits="userSpaceOnUse">
<stop stop-color="#FF9675"/>
<stop offset="1" stop-color="#F888B5"/>
</linearGradient>
<linearGradient id="paint3_linear_205_13147" x1="36.8894" y1="8.66343" x2="33.5205" y2="8.66343" gradientUnits="userSpaceOnUse">
<stop stop-color="#FF9675"/>
<stop offset="1" stop-color="#F888B5"/>
</linearGradient>
<linearGradient id="paint4_linear_205_13147" x1="42.3228" y1="13.1475" x2="39.2632" y2="13.1475" gradientUnits="userSpaceOnUse">
<stop stop-color="#FF9675"/>
<stop offset="1" stop-color="#F888B5"/>
</linearGradient>
</defs>
</svg>
