<svg width="29" height="29" viewBox="0 0 29 29" fill="none" xmlns="http://www.w3.org/2000/svg">
<path d="M14.4756 0.585938C22.2667 0.586201 28.583 6.90221 28.583 14.6934C28.583 22.4845 22.2667 28.8005 14.4756 28.8008C6.68427 28.8008 0.367188 22.4847 0.367188 14.6934C0.367188 6.90205 6.68427 0.585938 14.4756 0.585938ZM12.6191 8.74316C12.1966 8.38758 11.5665 8.44174 11.2109 8.86426C10.8554 9.28681 10.9095 9.91687 11.332 10.2725L16.5869 14.6953L11.332 19.1182C10.9095 19.4738 10.8553 20.1048 11.2109 20.5273C11.5445 20.9229 12.1195 20.9955 12.5381 20.71L12.6191 20.6484L18.3291 15.8428C19.0412 15.2435 19.0409 14.1473 18.3291 13.5479L12.6191 8.74316Z" fill="url(#paint0_linear_12947_304010)"/>
<defs>
<linearGradient id="paint0_linear_12947_304010" x1="25.6456" y1="4.74176" x2="9.55664" y2="27.651" gradientUnits="userSpaceOnUse">
<stop stop-color="#6A6AA2" stop-opacity="0.5"/>
<stop offset="1" stop-color="#6A6AA2" stop-opacity="0.3"/>
</linearGradient>
</defs>
</svg>
