<svg width="134" height="134" viewBox="0 0 134 134" fill="none" xmlns="http://www.w3.org/2000/svg">
<path d="M108.333 15.8333H102.917V8.33325H92.0833V15.8333H41.2499V8.33325H30.4166V15.8333H24.9999C17.9166 15.8333 12.0833 21.6666 12.0833 28.7499V112.083C12.0833 119.167 17.9166 125 24.9999 125H108.333C115.417 125 121.25 119.167 121.25 112.083V28.7499C121.25 21.6666 115.417 15.8333 108.333 15.8333ZM110.417 112.084C110.417 113.334 109.583 114.167 108.333 114.167H24.9999C23.7499 114.167 22.9166 113.334 22.9166 112.084V48.7506H110.417V112.084Z" fill="black"/>
<path d="M39.5839 86.6665H55.8346C58.7513 86.6665 61.2513 84.1665 61.2513 81.2499V64.9992C61.2513 62.0825 58.7513 59.5825 55.8346 59.5825H39.5839C36.6673 59.5825 34.1673 62.0825 34.1673 64.9992V81.2499C33.7506 84.1665 36.2506 86.6665 39.5839 86.6665V86.6665Z" fill="black"/>
</svg>
