<svg width="120" height="28" viewBox="0 0 120 28" fill="none" xmlns="http://www.w3.org/2000/svg">
<g clip-path="url(#clip0_114_717)">
<path d="M10.4309 26.0126H9.16336C-1.30746 25.6662 -2.02266 9.28659 8.38375 7.99771C11.4596 7.61677 14.8875 8.5095 16.7891 11.0837C17.2537 11.7127 18.2094 13.1766 17.3105 13.7721C17.0077 13.9729 15.3866 14.6861 15.0645 14.7185C14.1611 14.8093 13.9166 13.9405 13.4236 13.3815C11.3891 11.0751 7.07407 11.3383 5.63708 14.1652C4.76565 15.8796 4.85239 18.606 5.90693 20.2281C7.49102 22.6659 11.5413 22.7004 13.4211 20.5695C14.1003 19.7995 14.19 18.9215 15.4637 19.3425C15.8558 19.4718 17.2999 20.1033 17.5307 20.3666C17.8929 20.7805 17.6945 21.1645 17.5023 21.6068C16.3372 24.2875 13.2288 25.8391 10.4309 26.0126Z" fill="black"/>
<path d="M119.795 25.2535C119.633 25.5325 119.44 25.6309 119.113 25.6603C118.429 25.7222 117.218 25.708 116.525 25.6578C115.982 25.6182 115.426 25.4747 115.088 25.0166L111.755 19.8398L111.606 19.7348L108.277 24.9157C107.989 25.3012 107.58 25.5589 107.093 25.6071C106.434 25.6725 104.797 25.6857 104.152 25.6086C103.663 25.5503 103.554 25.0582 103.771 24.6697L109.043 16.8745L103.802 9.25183C103.515 8.81916 103.652 8.30686 104.203 8.24396C104.799 8.17599 107.088 8.17954 107.603 8.34236C107.945 8.4504 108.242 8.68474 108.427 8.98756L111.758 14.1669C111.855 14.1892 111.823 14.136 111.848 14.103C113.048 12.5078 113.997 10.5108 115.189 8.88561C115.419 8.60054 115.64 8.42808 116.002 8.33019C116.555 8.18055 118.6 8.17447 119.211 8.24396C119.534 8.28099 119.688 8.46207 119.794 8.75018V8.90184L114.379 17.0186L119.794 24.9492V25.253L119.795 25.2535Z" fill="black"/>
<path d="M56.4168 23.5829C54.5547 25.3917 51.842 26.2682 49.2567 25.8974C46.8468 25.5525 44.9726 23.8863 44.8042 21.3825C44.3892 15.209 51.6401 14.5445 56.0622 16.0399V13.9389C56.0622 13.7852 55.8644 13.2643 55.7848 13.102C54.8352 11.1623 51.8309 11.4276 50.0911 11.9257C49.5377 12.0839 48.442 12.6419 47.9723 12.649C47.703 12.6531 47.3997 12.477 47.2485 12.2594C47.0649 11.9957 46.3984 10.6256 46.3761 10.3467C46.302 9.40676 47.3596 9.04714 48.089 8.76258C50.79 7.71007 54.9367 7.43616 57.4571 9.05271C59.2355 10.193 59.9583 11.9759 60.0668 14.0408C60.2509 17.5539 59.941 21.2299 60.0541 24.7592C59.973 25.1543 59.8097 25.4526 59.4079 25.5819C59.0062 25.7113 57.5017 25.7103 57.1157 25.5936C56.8084 25.5008 56.4173 25.166 56.4173 24.8231V23.5829H56.4168ZM56.0115 18.7733C54.645 18.572 53.2658 18.3873 51.8765 18.4675C50.6774 18.5365 49.0558 19.0092 48.9133 20.4193C48.6794 22.7389 51.4109 22.7688 53.0213 22.4452C54.0622 22.2362 55.1644 21.7204 55.9851 21.0508L56.0115 18.7733Z" fill="black"/>
<path d="M98.0942 23.5826C96.2383 25.3935 93.517 26.2674 90.9341 25.8971C88.4908 25.5472 86.6404 23.8616 86.4811 21.332C86.0936 15.1732 93.3957 14.5666 97.7899 16.0396C97.7635 14.9434 97.9274 13.7357 97.2735 12.7841C96.2043 11.2264 93.4916 11.4521 91.8872 11.8929C91.2583 12.0659 90.6628 12.3971 90.0734 12.5625C89.6463 12.6822 89.2329 12.6817 88.9458 12.2906C88.7693 12.0502 88.0921 10.6538 88.0612 10.39C87.9993 9.86096 88.1971 9.56828 88.6288 9.29742C89.6863 8.63294 91.6605 8.13028 92.9037 7.99738C97.4267 7.51399 101.484 8.93475 101.747 14.0385C101.926 17.5278 101.606 21.1682 101.747 24.6732C101.695 25.0906 101.506 25.4462 101.085 25.5816C100.693 25.7079 99.1417 25.711 98.7552 25.5806C98.4716 25.4853 98.0947 25.1332 98.0947 24.8228V23.5826H98.0942ZM97.689 18.773C96.3225 18.5717 94.9433 18.387 93.554 18.4672C92.3579 18.5362 90.7323 19.0099 90.5907 20.419C90.3579 22.7386 93.0878 22.768 94.6988 22.4449C95.7823 22.2278 96.7785 21.712 97.6778 21.0916L97.6885 18.773H97.689Z" fill="black"/>
<path d="M30.7121 18.1153C30.737 19.2434 31.1493 20.4872 32.0035 21.2551C33.754 22.8285 37.3295 22.5186 39.4081 21.8115C40.0046 21.6086 40.9024 21.0223 41.4857 21.4565C41.7901 21.6832 42.5225 23.2257 42.5291 23.6077C42.5418 24.3193 41.7881 24.6617 41.2413 24.9072C37.8321 26.4375 32.351 26.5349 29.4435 23.912C26.4184 21.1826 26.1429 15.4716 28.0664 12.0569C31.1935 6.50679 40.1324 6.3323 42.7016 12.4967C43.1637 13.605 43.7029 16.1214 43.2235 17.218C43.0318 17.6558 42.4241 18.1153 41.9417 18.1153H30.7111H30.7121ZM30.7121 15.4833H39.5091C39.5993 15.4082 39.5415 15.185 39.5273 15.0603C39.2083 12.3354 37.1981 11.2256 34.5919 11.536C32.319 11.8064 30.918 13.1901 30.7126 15.4838L30.7121 15.4833Z" fill="black"/>
<path d="M79.7409 8.244H84.1265C84.3953 8.244 84.7904 8.66551 84.864 8.92471C84.9512 9.23311 84.9578 10.7518 84.8898 11.0815C84.8366 11.3407 84.446 11.8378 84.1772 11.8378H79.817L79.7409 11.9138V20.3172C79.7409 20.5541 79.9565 21.0724 80.1046 21.2703C80.9791 22.4394 82.8655 21.9038 84.0717 22.0681C84.4851 22.1244 84.8523 22.4927 84.9081 22.9036C84.9543 23.2419 84.9522 24.7367 84.8513 25.0147C84.7285 25.3515 84.4318 25.5681 84.0762 25.6076C83.0065 25.7278 81.151 25.6162 80.0955 25.3804C77.2205 24.7372 75.7875 22.9502 75.6323 20.0159L75.6465 3.82701C75.7353 3.45369 75.9159 3.17775 76.2938 3.05602C76.7011 2.92515 78.4231 2.93073 78.8817 3.00225C79.1895 3.05044 79.7409 3.37507 79.7409 3.71339V8.244Z" fill="black"/>
<path d="M20.9126 0.612238C21.3347 0.54579 23.0009 0.545283 23.4123 0.62289C23.9403 0.722815 24.1747 1.13418 24.2203 1.63837L24.2228 24.5714C24.1889 25.0021 24.0296 25.4058 23.5984 25.5681C23.1998 25.7178 21.7841 25.6934 21.3037 25.6604C20.5408 25.6077 20.1386 25.3804 20.0645 24.5694L20.062 1.68707C20.093 1.15244 20.3486 0.701511 20.9126 0.612745V0.612238Z" fill="black"/>
<path d="M67.47 11.1299C68.628 9.54528 70.3415 8.34872 72.3633 8.24474C73.1516 8.20416 73.6938 8.35582 73.7592 9.22928C73.7983 9.7497 73.8206 10.9092 73.7526 11.4038C73.6045 12.4766 72.1122 12.1479 71.3494 12.1935C70.0032 12.2737 68.6509 12.6927 67.6481 13.6113L67.5999 24.9023C67.5365 25.2 67.2255 25.5358 66.9263 25.5967C66.5124 25.6804 64.873 25.6525 64.4008 25.6104C63.8803 25.5642 63.5851 25.2264 63.5151 24.7227L63.5288 9.09334C63.6303 8.52321 63.9975 8.28379 64.5529 8.24271C65.013 8.20872 66.4378 8.1859 66.8223 8.30966C67.1048 8.40046 67.4705 8.77632 67.4705 9.08015V11.1304L67.47 11.1299Z" fill="black"/>
</g>
<defs>
<clipPath id="clip0_114_717">
<rect width="119" height="28" fill="white" transform="translate(0.966797)"/>
</clipPath>
</defs>
</svg>
