<svg width="193" height="36" viewBox="0 0 193 36" fill="none" xmlns="http://www.w3.org/2000/svg">
<path d="M13.6499 19.7215V6.60718C6.40707 6.60718 0.535645 12.4786 0.535645 19.7215C0.535645 26.9643 6.40707 32.8357 13.6499 32.8357V19.7215Z" fill="#1B1E2D"/>
<path d="M15.4873 6.60718C15.4873 13.3947 20.9891 18.8911 27.7766 18.8965V6.60718H15.4873Z" fill="#6B91FC"/>
<path d="M28.9283 26.7929C28.9283 23.1212 25.9518 20.1447 22.2801 20.1447C18.6083 20.1447 15.6318 23.1212 15.6318 26.7929C15.6318 30.4646 18.6083 33.4411 22.2801 33.4411C25.9518 33.4411 28.9283 30.4646 28.9283 26.7929Z" fill="#514ED8"/>
<path d="M39 20.6707C39 15.7803 42.4196 12.4258 47.4847 12.4258C49.8056 12.4258 51.8079 13.2267 53.52 14.8569L51.3275 17.189C50.3573 16.2279 48.9733 15.6861 47.5513 15.6861C44.6453 15.6861 42.6145 17.7308 42.6145 20.6707C42.6145 23.6107 44.6168 25.6554 47.5513 25.6554C49.1017 25.6554 50.519 25.0806 51.4892 24.0253L53.715 26.4234C51.941 28.1195 49.972 28.9157 47.518 28.9157C42.3577 28.9204 39 25.6601 39 20.6707Z" fill="#1B1E2D"/>
<path d="M72.644 8.23792C72.644 6.92815 73.6143 6 74.9364 6C76.2586 6 77.2906 6.92815 77.2906 8.23792C77.2906 9.54769 76.3204 10.4099 74.9364 10.4099C73.5524 10.4099 72.644 9.48173 72.644 8.23792M73.1292 12.775H76.7437V28.5676H73.1292V12.775V12.775Z" fill="#1B1E2D"/>
<path d="M95.9384 19.8426V28.5681H92.3238V20.064C92.3238 17.2843 90.8733 15.6871 88.4525 15.6871C85.8081 15.6871 83.9676 17.6046 83.9676 20.2572V28.5681H80.353V12.7755H83.5776L83.6109 14.8532C84.9663 13.256 86.8687 12.4551 89.1278 12.4551C93.2275 12.4551 95.9384 15.3337 95.9384 19.8379" fill="#1B1E2D"/>
<path d="M98.1025 26.6163L99.7814 24.025C101.199 25.1417 103.301 25.7824 105.398 25.7824C107.496 25.7824 108.594 25.1417 108.594 23.9921C108.594 22.8425 107.562 22.3289 105.108 22.0745C100.947 21.6929 98.5877 19.9638 98.5877 17.2171C98.5877 14.4703 101.36 12.3926 105.493 12.3926C107.914 12.3926 110.045 13.0004 111.819 14.2159L110.24 16.7742C108.818 15.879 107.305 15.4314 105.66 15.4314C103.367 15.4314 102.14 16.0722 102.14 17.2218C102.14 18.2441 103.077 18.786 105.398 19.0451C110.111 19.5586 112.175 21.0569 112.175 24.0298C112.175 27.0027 109.431 28.9532 105.303 28.9532C102.625 28.9532 100.238 28.1852 98.1073 26.621" fill="#514ED8"/>
<path d="M139.175 12.7754L133.882 28.568H130.044L128.527 24.0592L126.234 17.7318L123.947 24.0592L122.43 28.568H118.558L113.231 12.7754H117.07L118.877 18.594L120.589 24.4785L124.689 12.7754H127.751L131.818 24.5398L133.592 18.594L135.337 12.7754H139.175Z" fill="#514ED8"/>
<path d="M140.498 8.23792C140.498 6.92815 141.468 6 142.79 6C144.112 6 145.144 6.92815 145.144 8.23792C145.144 9.54769 144.174 10.4099 142.79 10.4099C141.406 10.4099 140.498 9.48173 140.498 8.23792M140.983 12.775H144.597V28.5676H140.983V12.775V12.775Z" fill="#514ED8"/>
<path d="M158.76 28.0261C157.533 28.5679 156.501 28.794 155.179 28.794C151.888 28.794 149.952 26.9095 149.952 23.1356V15.8141H146.951V12.78H149.952V8.61978L153.533 8.23816V12.7752H158.113V15.8094H153.533V23.1309C153.533 24.7281 154.275 25.6233 155.759 25.6233C156.406 25.6233 157.148 25.4301 157.762 25.1427L158.76 28.0214V28.0261Z" fill="#514ED8"/>
<path d="M159.602 20.6707C159.602 15.7803 163.022 12.4258 168.087 12.4258C170.408 12.4258 172.41 13.2267 174.122 14.8569L171.93 17.189C170.959 16.2279 169.575 15.6861 168.153 15.6861C165.247 15.6861 163.217 17.7308 163.217 20.6707C163.217 23.6107 165.219 25.6554 168.153 25.6554C169.704 25.6554 171.121 25.0806 172.091 24.0253L174.317 26.4234C172.543 28.1195 170.574 28.9157 168.12 28.9157C162.96 28.9157 159.602 25.6554 159.602 20.6707" fill="#514ED8"/>
<path d="M191.995 19.8423V28.5678H188.38V20.0637C188.38 17.284 186.93 15.6868 184.509 15.6868C181.865 15.6868 180.024 17.6044 180.024 20.2569V28.5678H176.41V6.19336H180.024V14.6315C181.313 13.1945 183.059 12.4595 185.189 12.4595C189.351 12.4595 192 15.3665 192 19.8423" fill="#514ED8"/>
<path d="M54.3428 20.8499C54.3428 16.2186 57.5959 12.7793 62.68 12.7793C67.7642 12.7793 70.984 16.2186 70.984 20.8499C70.984 25.4813 67.7309 28.9206 62.68 28.9206C57.6292 28.9206 54.3428 25.4813 54.3428 20.8499ZM62.68 25.731C65.5859 25.731 67.4503 23.5402 67.4503 20.8499C67.4503 18.1597 65.5859 15.9689 62.68 15.9689C59.7741 15.9689 57.8812 18.1597 57.8812 20.8499C57.8812 23.5402 59.7456 25.731 62.68 25.731V25.731Z" fill="#1B1E2D"/>
</svg>
