<svg width="161" height="28" viewBox="0 0 161 28" fill="none" xmlns="http://www.w3.org/2000/svg">
<path d="M10.963 13.7819V2.81885C4.90828 2.81885 0 7.72713 0 13.7819C0 19.8366 4.90828 24.7449 10.963 24.7449V13.7819Z" fill="#1B1E2D"/>
<path d="M12.499 2.81885C12.499 8.49295 17.0983 13.0877 22.7724 13.0922V2.81885H12.499Z" fill="#6B91FC"/>
<path d="M23.7347 19.6929C23.7347 16.6235 21.2465 14.1353 18.1771 14.1353C15.1076 14.1353 12.6194 16.6235 12.6194 19.6929C12.6194 22.7623 15.1076 25.2505 18.1771 25.2505C21.2465 25.2505 23.7347 22.7623 23.7347 19.6929Z" fill="#514ED8"/>
<path d="M32.1548 14.575C32.1548 10.4868 35.0134 7.68262 39.2477 7.68262C41.1878 7.68262 42.8617 8.35214 44.2929 9.71492L42.4601 11.6645C41.649 10.861 40.4921 10.4081 39.3033 10.4081C36.874 10.4081 35.1764 12.1174 35.1764 14.575C35.1764 17.0328 36.8502 18.742 39.3033 18.742C40.5994 18.742 41.7842 18.2615 42.5953 17.3793L44.456 19.3841C42.973 20.8019 41.327 21.4675 39.2755 21.4675C34.9617 21.4715 32.1548 18.746 32.1548 14.575Z" fill="#1B1E2D"/>
<path d="M60.28 4.18136C60.28 3.08644 61.0912 2.31055 62.1964 2.31055C63.3017 2.31055 64.1644 3.08644 64.1644 4.18136C64.1644 5.27628 63.3534 5.99705 62.1964 5.99705C61.0394 5.99705 60.28 5.22114 60.28 4.18136ZM60.6856 7.97418H63.7072V21.1762H60.6856V7.97418Z" fill="#1B1E2D"/>
<path d="M79.7527 13.8827V21.1769H76.731V14.0678C76.731 11.7441 75.5184 10.4089 73.4947 10.4089C71.2841 10.4089 69.7455 12.0118 69.7455 14.2293V21.1769H66.7239V7.97487H69.4195L69.4474 9.71175C70.5804 8.37655 72.1708 7.70703 74.0593 7.70703C77.4865 7.70703 79.7527 10.1134 79.7527 13.8788" fill="#1B1E2D"/>
<path d="M81.562 19.5457L82.9655 17.3795C84.1506 18.313 85.9078 18.8486 87.6608 18.8486C89.4146 18.8486 90.3325 18.313 90.3325 17.352C90.3325 16.391 89.4698 15.9616 87.4183 15.749C83.9399 15.43 81.9676 13.9845 81.9676 11.6884C81.9676 9.39215 84.2852 7.65527 87.7402 7.65527C89.764 7.65527 91.5455 8.16337 93.0285 9.17948L91.7085 11.3181C90.5197 10.5698 89.2549 10.1956 87.8798 10.1956C85.9629 10.1956 84.9372 10.7313 84.9372 11.6923C84.9372 12.5469 85.7205 12.9999 87.6608 13.2165C91.6007 13.6458 93.3261 14.8983 93.3261 17.3835C93.3261 19.8687 91.0322 21.4993 87.5813 21.4993C85.3426 21.4993 83.3472 20.8573 81.566 19.5497" fill="#514ED8"/>
<path d="M115.897 7.97461L111.472 21.1766H108.264L106.996 17.4074L105.079 12.118L103.167 17.4074L101.899 21.1766H98.6621L94.209 7.97461H97.4182L98.9288 12.8387L100.36 17.7579L103.787 7.97461H106.347L109.747 17.8092L111.23 12.8387L112.689 7.97461H115.897Z" fill="#514ED8"/>
<path d="M117.003 4.18136C117.003 3.08644 117.814 2.31055 118.919 2.31055C120.024 2.31055 120.887 3.08644 120.887 4.18136C120.887 5.27628 120.076 5.99705 118.919 5.99705C117.762 5.99705 117.003 5.22114 117.003 4.18136ZM117.408 7.97418H120.43V21.1762H117.408V7.97418Z" fill="#514ED8"/>
<path d="M132.27 20.7241C131.244 21.177 130.381 21.366 129.276 21.366C126.525 21.366 124.907 19.7906 124.907 16.6358V10.5153H122.398V7.97893H124.907V4.50115L127.9 4.18213V7.97492H131.729V10.5114H127.9V16.6319C127.9 17.9671 128.521 18.7154 129.761 18.7154C130.302 18.7154 130.922 18.5539 131.436 18.3137L132.27 20.7201V20.7241Z" fill="#514ED8"/>
<path d="M132.973 14.575C132.973 10.4868 135.832 7.68262 140.066 7.68262C142.007 7.68262 143.68 8.35214 145.111 9.71492L143.279 11.6645C142.467 10.861 141.31 10.4081 140.121 10.4081C137.692 10.4081 135.995 12.1174 135.995 14.575C135.995 17.0328 137.669 18.742 140.121 18.742C141.418 18.742 142.603 18.2615 143.413 17.3793L145.274 19.3841C143.791 20.8019 142.145 21.4675 140.094 21.4675C135.78 21.4675 132.973 18.742 132.973 14.575Z" fill="#514ED8"/>
<path d="M160.052 13.8826V21.1768H157.03V14.0677C157.03 11.744 155.818 10.4088 153.794 10.4088C151.584 10.4088 150.045 12.0118 150.045 14.2292V21.1768H147.024V2.47266H150.045V9.52661C151.123 8.32534 152.582 7.7109 154.363 7.7109C157.842 7.7109 160.057 10.141 160.057 13.8826" fill="#514ED8"/>
<path d="M44.9802 14.7247C44.9802 10.8531 47.6997 7.97803 51.9498 7.97803C56.2 7.97803 58.8916 10.8531 58.8916 14.7247C58.8916 18.5964 56.1722 21.4715 51.9498 21.4715C47.7275 21.4715 44.9802 18.5964 44.9802 14.7247ZM51.9498 18.8051C54.379 18.8051 55.9376 16.9737 55.9376 14.7247C55.9376 12.4758 54.379 10.6444 51.9498 10.6444C49.5206 10.6444 47.9382 12.4758 47.9382 14.7247C47.9382 16.9737 49.4968 18.8051 51.9498 18.8051Z" fill="#1B1E2D"/>
</svg>
