<svg width="104" height="27" viewBox="0 0 104 27" fill="none" xmlns="http://www.w3.org/2000/svg">
<path d="M0 8C0 3.58172 3.58172 0 8 0H88.4075C90.6926 0 92.8686 0.977182 94.3867 2.68509L101.638 10.8425C102.985 12.3581 102.985 14.6419 101.638 16.1575L94.3867 24.3149C92.8686 26.0228 90.6926 27 88.4075 27H8C3.58172 27 0 23.4183 0 19V8Z" fill="url(#paint0_linear_58_1531)" fill-opacity="0.6"/>
<path d="M15.424 19.16C14.4427 19.16 13.6267 18.9787 12.976 18.616C12.336 18.2533 11.8507 17.7467 11.52 17.096C11.1893 16.4453 11.008 15.688 10.976 14.824C10.9653 14.3867 10.96 13.9173 10.96 13.416C10.96 12.9147 10.9653 12.4347 10.976 11.976C11.008 11.112 11.1893 10.3547 11.52 9.704C11.8507 9.05333 12.336 8.54667 12.976 8.184C13.6267 7.82133 14.4427 7.64 15.424 7.64C16.16 7.64 16.8053 7.74133 17.36 7.944C17.9147 8.14667 18.3733 8.41867 18.736 8.76C19.1093 9.10133 19.392 9.48533 19.584 9.912C19.776 10.328 19.8827 10.76 19.904 11.208C19.9147 11.304 19.8827 11.384 19.808 11.448C19.744 11.512 19.664 11.544 19.568 11.544H18.688C18.592 11.544 18.5067 11.5173 18.432 11.464C18.368 11.4107 18.32 11.3147 18.288 11.176C18.1067 10.344 17.7653 9.77333 17.264 9.464C16.7733 9.15467 16.1547 9 15.408 9C14.5547 9 13.8773 9.24533 13.376 9.736C12.8747 10.216 12.6027 10.9893 12.56 12.056C12.528 12.9307 12.528 13.8267 12.56 14.744C12.6027 15.8107 12.8747 16.5893 13.376 17.08C13.8773 17.56 14.5547 17.8 15.408 17.8C16.1547 17.8 16.7733 17.6453 17.264 17.336C17.7653 17.0267 18.1067 16.456 18.288 15.624C18.32 15.4853 18.368 15.3893 18.432 15.336C18.5067 15.2827 18.592 15.256 18.688 15.256H19.568C19.664 15.256 19.744 15.288 19.808 15.352C19.8827 15.416 19.9147 15.496 19.904 15.592C19.8827 16.04 19.776 16.4773 19.584 16.904C19.392 17.32 19.1093 17.6987 18.736 18.04C18.3733 18.3813 17.9147 18.6533 17.36 18.856C16.8053 19.0587 16.16 19.16 15.424 19.16ZM24.9443 19.16C24.2616 19.16 23.6803 19.0107 23.2003 18.712C22.7309 18.4027 22.3736 17.976 22.1283 17.432C21.8829 16.888 21.7603 16.264 21.7603 15.56V11.048C21.7603 10.9413 21.7923 10.856 21.8563 10.792C21.9309 10.7173 22.0216 10.68 22.1283 10.68H22.9283C23.0349 10.68 23.1203 10.7173 23.1843 10.792C23.2589 10.856 23.2963 10.9413 23.2963 11.048V15.48C23.2963 17.0693 23.9896 17.864 25.3763 17.864C26.0376 17.864 26.5656 17.656 26.9603 17.24C27.3656 16.8133 27.5683 16.2267 27.5683 15.48V11.048C27.5683 10.9413 27.6003 10.856 27.6643 10.792C27.7389 10.7173 27.8296 10.68 27.9363 10.68H28.7203C28.8376 10.68 28.9283 10.7173 28.9923 10.792C29.0563 10.856 29.0883 10.9413 29.0883 11.048V18.632C29.0883 18.7387 29.0563 18.8293 28.9923 18.904C28.9283 18.968 28.8376 19 28.7203 19H27.9843C27.8776 19 27.7869 18.968 27.7123 18.904C27.6483 18.8293 27.6163 18.7387 27.6163 18.632V17.928C27.3283 18.3013 26.9763 18.6 26.5603 18.824C26.1549 19.048 25.6163 19.16 24.9443 19.16ZM31.8333 19C31.7266 19 31.6359 18.968 31.5613 18.904C31.4973 18.8293 31.4653 18.7387 31.4653 18.632V11.064C31.4653 10.9573 31.4973 10.8667 31.5613 10.792C31.6359 10.7173 31.7266 10.68 31.8333 10.68H32.5693C32.6759 10.68 32.7666 10.7173 32.8413 10.792C32.9159 10.8667 32.9533 10.9573 32.9533 11.064V11.768C33.1666 11.4053 33.4599 11.1333 33.8333 10.952C34.2066 10.7707 34.6546 10.68 35.1773 10.68H35.8173C35.9239 10.68 36.0093 10.7173 36.0733 10.792C36.1373 10.856 36.1693 10.9413 36.1693 11.048V11.704C36.1693 11.8107 36.1373 11.896 36.0733 11.96C36.0093 12.024 35.9239 12.056 35.8173 12.056H34.8573C34.2813 12.056 33.8279 12.2267 33.4973 12.568C33.1666 12.8987 33.0013 13.352 33.0013 13.928V18.632C33.0013 18.7387 32.9639 18.8293 32.8893 18.904C32.8146 18.968 32.7239 19 32.6173 19H31.8333ZM37.9114 19C37.8047 19 37.714 18.968 37.6394 18.904C37.5754 18.8293 37.5434 18.7387 37.5434 18.632V11.064C37.5434 10.9573 37.5754 10.8667 37.6394 10.792C37.714 10.7173 37.8047 10.68 37.9114 10.68H38.6474C38.754 10.68 38.8447 10.7173 38.9194 10.792C38.994 10.8667 39.0314 10.9573 39.0314 11.064V11.768C39.2447 11.4053 39.538 11.1333 39.9114 10.952C40.2847 10.7707 40.7327 10.68 41.2554 10.68H41.8954C42.002 10.68 42.0874 10.7173 42.1514 10.792C42.2154 10.856 42.2474 10.9413 42.2474 11.048V11.704C42.2474 11.8107 42.2154 11.896 42.1514 11.96C42.0874 12.024 42.002 12.056 41.8954 12.056H40.9354C40.3594 12.056 39.906 12.2267 39.5754 12.568C39.2447 12.8987 39.0794 13.352 39.0794 13.928V18.632C39.0794 18.7387 39.042 18.8293 38.9674 18.904C38.8927 18.968 38.802 19 38.6954 19H37.9114ZM46.7773 19.16C45.6786 19.16 44.8039 18.824 44.1533 18.152C43.5026 17.4693 43.1453 16.5413 43.0813 15.368C43.0706 15.2293 43.0653 15.0533 43.0653 14.84C43.0653 14.616 43.0706 14.4347 43.0813 14.296C43.1239 13.5387 43.2999 12.8773 43.6093 12.312C43.9186 11.736 44.3399 11.2933 44.8733 10.984C45.4173 10.6747 46.0519 10.52 46.7773 10.52C47.5879 10.52 48.2653 10.6907 48.8093 11.032C49.3639 11.3733 49.7853 11.8587 50.0733 12.488C50.3613 13.1173 50.5052 13.8533 50.5052 14.696V14.968C50.5052 15.0853 50.4679 15.176 50.3933 15.24C50.3293 15.304 50.2439 15.336 50.1373 15.336H44.6013C44.6013 15.3467 44.6013 15.368 44.6013 15.4C44.6013 15.432 44.6013 15.4587 44.6013 15.48C44.6226 15.9173 44.7186 16.328 44.8893 16.712C45.0599 17.0853 45.3053 17.3893 45.6253 17.624C45.9453 17.8587 46.3293 17.976 46.7773 17.976C47.1613 17.976 47.4813 17.9173 47.7373 17.8C47.9933 17.6827 48.2013 17.5547 48.3613 17.416C48.5213 17.2667 48.6279 17.1547 48.6813 17.08C48.7773 16.9413 48.8519 16.8613 48.9053 16.84C48.9586 16.808 49.0439 16.792 49.1613 16.792H49.9293C50.0359 16.792 50.1213 16.824 50.1853 16.888C50.2599 16.9413 50.2919 17.0213 50.2812 17.128C50.2706 17.288 50.1853 17.4853 50.0253 17.72C49.8653 17.944 49.6359 18.168 49.3373 18.392C49.0386 18.616 48.6759 18.8027 48.2493 18.952C47.8226 19.0907 47.3319 19.16 46.7773 19.16ZM44.6013 14.232H48.9853V14.184C48.9853 13.704 48.8946 13.2773 48.7133 12.904C48.5426 12.5307 48.2919 12.2373 47.9613 12.024C47.6306 11.8 47.2359 11.688 46.7773 11.688C46.3186 11.688 45.9239 11.8 45.5933 12.024C45.2733 12.2373 45.0279 12.5307 44.8573 12.904C44.6866 13.2773 44.6013 13.704 44.6013 14.184V14.232ZM52.7864 19C52.6797 19 52.589 18.968 52.5144 18.904C52.4504 18.8293 52.4184 18.7387 52.4184 18.632V11.048C52.4184 10.9413 52.4504 10.856 52.5144 10.792C52.589 10.7173 52.6797 10.68 52.7864 10.68H53.5384C53.645 10.68 53.7304 10.7173 53.7944 10.792C53.869 10.856 53.9064 10.9413 53.9064 11.048V11.752C54.1837 11.3893 54.5304 11.096 54.9464 10.872C55.373 10.6373 55.917 10.52 56.5784 10.52C57.2717 10.52 57.8584 10.6747 58.3384 10.984C58.829 11.2827 59.197 11.704 59.4424 12.248C59.6877 12.7813 59.8104 13.4053 59.8104 14.12V18.632C59.8104 18.7387 59.7784 18.8293 59.7144 18.904C59.6504 18.968 59.565 19 59.4584 19H58.6584C58.5517 19 58.461 18.968 58.3864 18.904C58.3224 18.8293 58.2904 18.7387 58.2904 18.632V14.2C58.2904 13.4533 58.109 12.872 57.7464 12.456C57.3837 12.0293 56.8504 11.816 56.1464 11.816C55.485 11.816 54.9517 12.0293 54.5464 12.456C54.1517 12.872 53.9544 13.4533 53.9544 14.2V18.632C53.9544 18.7387 53.917 18.8293 53.8424 18.904C53.7784 18.968 53.693 19 53.5864 19H52.7864ZM65.2601 19C64.6628 19 64.1775 18.888 63.8041 18.664C63.4308 18.4293 63.1588 18.104 62.9881 17.688C62.8175 17.2613 62.7321 16.76 62.7321 16.184V11.96H61.4841C61.3775 11.96 61.2868 11.928 61.2121 11.864C61.1481 11.7893 61.1161 11.6987 61.1161 11.592V11.048C61.1161 10.9413 61.1481 10.856 61.2121 10.792C61.2868 10.7173 61.3775 10.68 61.4841 10.68H62.7321V8.008C62.7321 7.90133 62.7641 7.816 62.8281 7.752C62.9028 7.67733 62.9935 7.64 63.1001 7.64H63.8521C63.9588 7.64 64.0441 7.67733 64.1081 7.752C64.1828 7.816 64.2201 7.90133 64.2201 8.008V10.68H66.2041C66.3108 10.68 66.3961 10.7173 66.4601 10.792C66.5348 10.856 66.5721 10.9413 66.5721 11.048V11.592C66.5721 11.6987 66.5348 11.7893 66.4601 11.864C66.3961 11.928 66.3108 11.96 66.2041 11.96H64.2201V16.072C64.2201 16.5733 64.3055 16.968 64.4761 17.256C64.6468 17.544 64.9508 17.688 65.3881 17.688H66.3641C66.4708 17.688 66.5561 17.7253 66.6201 17.8C66.6948 17.864 66.7321 17.9493 66.7321 18.056V18.632C66.7321 18.7387 66.6948 18.8293 66.6201 18.904C66.5561 18.968 66.4708 19 66.3641 19H65.2601ZM68.6461 19C68.5395 19 68.4488 18.968 68.3741 18.904C68.3101 18.8293 68.2781 18.7387 68.2781 18.632V8.008C68.2781 7.90133 68.3101 7.816 68.3741 7.752C68.4488 7.67733 68.5395 7.64 68.6461 7.64H69.3981C69.5155 7.64 69.6061 7.67733 69.6701 7.752C69.7341 7.816 69.7661 7.90133 69.7661 8.008V18.632C69.7661 18.7387 69.7341 18.8293 69.6701 18.904C69.6061 18.968 69.5155 19 69.3981 19H68.6461ZM73.6088 22.04C73.5234 22.04 73.4488 22.008 73.3848 21.944C73.3208 21.88 73.2888 21.8053 73.2888 21.72C73.2888 21.6773 73.2941 21.6347 73.3048 21.592C73.3154 21.5493 73.3368 21.496 73.3688 21.432L74.6008 18.504L71.5448 11.288C71.4914 11.16 71.4648 11.0693 71.4648 11.016C71.4648 10.92 71.4968 10.84 71.5608 10.776C71.6248 10.712 71.7048 10.68 71.8008 10.68H72.5848C72.6914 10.68 72.7768 10.7067 72.8408 10.76C72.9048 10.8133 72.9474 10.8773 72.9688 10.952L75.4008 16.776L77.8968 10.952C77.9288 10.8773 77.9714 10.8133 78.0248 10.76C78.0888 10.7067 78.1794 10.68 78.2968 10.68H79.0487C79.1447 10.68 79.2248 10.712 79.2888 10.776C79.3528 10.84 79.3848 10.9147 79.3848 11C79.3848 11.0533 79.3581 11.1493 79.3048 11.288L74.7608 21.768C74.7288 21.8427 74.6808 21.9067 74.6168 21.96C74.5634 22.0133 74.4781 22.04 74.3608 22.04H73.6088Z" fill="white"/>
<defs>
<linearGradient id="paint0_linear_58_1531" x1="0" y1="13.5" x2="120" y2="13.5" gradientUnits="userSpaceOnUse">
<stop stop-color="#019F33"/>
<stop offset="1" stop-color="#008EED"/>
</linearGradient>
</defs>
</svg>
