<svg width="69" height="86" viewBox="0 0 69 86" fill="none" xmlns="http://www.w3.org/2000/svg">
<path d="M32.2605 85.3789C25.0275 85.3789 18.5267 83.5664 12.7581 79.9414C6.98942 76.2786 3.68354 70.9544 2.84043 63.9688H21.7438C22.1876 66.3854 23.3857 68.349 25.3381 69.8594C27.2906 71.3698 29.8865 72.125 33.1258 72.125C39.3826 72.125 43.7756 69.1797 46.3049 63.2891C47.6805 60.0417 48.5458 55.3027 48.9008 49.0723C47.1702 50.9225 45.3287 52.3385 43.3762 53.3203C39.8263 55.1328 35.4554 56.0391 30.2637 56.0391C22.5869 56.0391 15.7755 53.7923 9.82937 49.2988C3.88323 44.7676 0.910156 38.2539 0.910156 29.7578C0.910156 20.9596 3.88323 13.8418 9.82937 8.4043C15.8199 2.92904 23.5854 0.191406 33.1258 0.191406C47.8137 0.191406 57.8866 5.72331 63.3446 16.7871C66.4508 23.0553 68.0039 31.306 68.0039 41.5391C68.0039 51.4701 66.5174 59.7585 63.5443 66.4043C57.8644 79.054 47.4365 85.3789 32.2605 85.3789ZM25.6044 15.9941C21.9657 18.4108 20.1464 22.5078 20.1464 28.2852C20.1464 33.1562 21.3001 36.819 23.6075 39.2734C25.9594 41.6901 29.5537 42.8984 34.3905 42.8984C37.0085 42.8984 39.4713 42.2565 41.7788 40.9727C46.0831 38.6315 48.2352 34.5723 48.2352 28.7949C48.2352 24.1504 46.9484 20.4688 44.3747 17.75C41.8453 15.0312 38.362 13.6719 33.9245 13.6719C30.6852 13.6719 27.9118 14.446 25.6044 15.9941Z" fill="url(#paint0_linear_95_600)"/>
<defs>
<linearGradient id="paint0_linear_95_600" x1="-0.277858" y1="18.1214" x2="-6.51653" y2="65.1046" gradientUnits="userSpaceOnUse">
<stop stop-color="#E47FBF"/>
<stop offset="1" stop-color="#FFBCC4"/>
</linearGradient>
</defs>
</svg>
