<svg width="69" height="86" viewBox="0 0 69 86" fill="none" xmlns="http://www.w3.org/2000/svg">
<path d="M11.7178 83.6705L11.3818 81.9905C28.4058 75.2705 38.8217 61.9425 42.6297 45.7025C39.4937 48.1665 34.5658 50.8545 27.5098 50.8545C16.7578 50.8545 3.09375 45.1425 3.09375 27.8945C3.09375 10.4225 17.6538 2.02246 34.9018 2.02246C56.6298 2.02246 66.0378 14.9025 66.0378 32.4865C66.0378 61.3825 39.6058 81.8785 11.7178 83.6705ZM37.1418 43.1265C39.9418 43.1265 42.0697 42.0065 43.6377 40.5505C44.0857 37.5265 44.3098 34.3905 44.3098 31.1425C44.3098 14.5665 40.8378 5.38246 34.1178 5.38246C28.4058 5.38246 25.0458 13.1105 25.0458 23.6385C25.0458 33.1585 28.9657 43.1265 37.1418 43.1265Z" fill="url(#paint0_linear_182_811)"/>
<defs>
<linearGradient id="paint0_linear_182_811" x1="1.97921" y1="19.2075" x2="-4.125" y2="64.2044" gradientUnits="userSpaceOnUse">
<stop stop-color="#E47FBF"/>
<stop offset="1" stop-color="#FFBCC4"/>
</linearGradient>
</defs>
</svg>
