<svg width="125" height="86" viewBox="0 0 125 86" fill="none" xmlns="http://www.w3.org/2000/svg">
<path d="M60.4746 82.5109V81.8709C64.5546 79.5509 67.3546 76.9909 70.3146 73.2309L76.5546 65.4709L65.5146 49.3909C63.8346 46.9109 62.5546 45.4709 60.8746 44.3509V43.7109H85.2746V44.3509C82.9546 45.3109 81.9146 46.1909 81.9146 47.5509C81.9146 48.7509 82.5546 49.9509 83.7546 51.7909L87.9146 58.1109L91.7546 52.8309C92.8746 51.3109 93.3546 50.1909 93.3546 49.1509C93.3546 47.7109 92.3946 46.2709 90.1546 44.3509V43.7109H104.315V44.3509C100.475 46.5909 98.3146 48.4309 94.2346 53.7909L89.3546 60.2709L100.795 76.8309C102.235 78.9109 103.115 79.7109 105.275 81.8709V82.5109H80.8746V81.8709C83.4346 80.5109 84.3946 79.6309 84.3946 78.5909C84.3946 78.1109 84.1546 77.3909 83.6746 76.6709L77.9946 67.6309L73.5146 73.5509C72.4746 74.9109 71.9946 76.1909 71.9946 77.3909C71.9946 79.2309 73.1946 80.8309 75.5146 81.8709V82.5109H60.4746Z" fill="url(#paint0_linear_182_826)"/>
<path d="M25.0346 85.1111C12.6026 85.1111 0.394594 80.5191 0.0585938 80.4071L8.57059 57.4471L9.69059 57.6711C9.80259 58.0071 15.0666 81.0791 25.2586 81.0791C31.5306 81.0791 35.2266 72.4551 35.2266 62.9351C35.2266 52.5191 30.8586 44.9031 21.6746 44.9031C18.9866 44.9031 15.8506 45.5751 12.2666 47.0311L11.5946 44.3431C25.4826 37.6231 31.4186 31.7991 31.4186 25.0791C31.4186 19.4791 27.4986 14.8871 20.6666 14.8871C16.0746 14.8871 8.34659 16.7911 2.18659 24.2951L0.730594 22.9511C7.78659 11.1911 17.9786 3.91113 30.7466 3.91113C42.9546 3.91113 50.7946 11.1911 50.7946 19.3671C50.7946 29.6711 39.1466 35.9431 28.3946 38.9671V39.0791C30.1866 38.7431 32.0906 38.5191 33.9946 38.5191C45.3066 38.5191 55.9466 45.1271 55.9466 59.6871C55.9466 76.0391 42.5066 85.1111 25.0346 85.1111Z" fill="url(#paint1_linear_182_826)"/>
<defs>
<linearGradient id="paint0_linear_182_826" x1="61.9175" y1="51.8077" x2="60.9237" y2="73.6995" gradientUnits="userSpaceOnUse">
<stop stop-color="#E47FBF"/>
<stop offset="1" stop-color="#FFBCC4"/>
</linearGradient>
<linearGradient id="paint1_linear_182_826" x1="1.85855" y1="20.8559" x2="-1.61746" y2="66.5005" gradientUnits="userSpaceOnUse">
<stop stop-color="#E47FBF"/>
<stop offset="1" stop-color="#FFBCC4"/>
</linearGradient>
</defs>
</svg>
