<svg width="246" height="85" viewBox="0 0 246 85" fill="none" xmlns="http://www.w3.org/2000/svg">
<g clip-path="url(#clip0_182_852)">
<path d="M230.186 60.6961H245.306V69.2561H230.186V84.2961H221.626V69.2561H206.506V60.6961H221.626V45.4961H230.186V60.6961Z" fill="url(#paint0_linear_182_852)"/>
<path d="M160.791 84.2964C145.335 84.2964 126.967 71.9764 126.967 43.4164C126.967 16.0884 144.999 2.64844 160.791 2.64844C176.359 2.64844 194.615 15.7524 194.615 43.4164C194.615 71.9764 176.135 84.2964 160.791 84.2964ZM160.679 80.3764C166.391 80.3764 170.087 71.3044 170.087 43.4164C170.087 16.4244 166.279 6.45643 160.791 6.45643C155.079 6.45643 151.607 16.4244 151.607 43.4164C151.607 71.3044 155.191 80.3764 160.679 80.3764Z" fill="url(#paint1_linear_182_852)"/>
<path d="M87.4168 84.2964C80.6968 84.2964 70.3928 82.3924 62.2168 79.5924L68.2648 52.2644H69.1608C73.5288 69.0644 80.6968 80.7124 86.8568 80.7124C92.4568 80.7124 96.7128 72.9844 96.7128 62.7924C96.7128 51.0324 90.7768 44.3124 80.1368 44.3124C75.2088 44.3124 69.2728 45.8804 65.9128 48.3444L77.3368 4.21639H105.897C112.505 4.21639 114.857 3.43239 119.897 -0.599609L120.569 -0.37561L112.393 22.5844H76.7768L73.4168 35.9124C76.6648 34.6804 82.9368 33.8964 88.7608 33.8964C107.465 33.8964 118.553 43.3044 118.553 58.7604C118.553 73.8804 105.897 84.2964 87.4168 84.2964Z" fill="url(#paint2_linear_182_852)"/>
<path d="M0.25 84.2968V81.1608C23.098 57.5288 31.498 44.4248 31.498 32.6648C31.498 23.7048 26.57 17.7688 18.954 17.7688C13.914 17.7688 8.762 20.5688 3.386 26.0568L1.706 24.7128C11.002 10.8248 20.522 4.2168 31.162 4.2168C43.482 4.2168 52.33 13.2888 52.33 25.8328C52.33 38.6008 43.258 49.5768 19.514 65.5928H41.466C47.85 65.5928 50.426 64.4728 56.362 58.7608L57.258 58.9848L49.418 84.2968H0.25Z" fill="url(#paint3_linear_182_852)"/>
</g>
<defs>
<linearGradient id="paint0_linear_182_852" x1="207.755" y1="53.5928" x2="206.609" y2="75.4697" gradientUnits="userSpaceOnUse">
<stop stop-color="#E47FBF"/>
<stop offset="1" stop-color="#FFBCC4"/>
</linearGradient>
<linearGradient id="paint1_linear_182_852" x1="129.146" y1="19.6867" x2="126.237" y2="65.6653" gradientUnits="userSpaceOnUse">
<stop stop-color="#E47FBF"/>
<stop offset="1" stop-color="#FFBCC4"/>
</linearGradient>
<linearGradient id="paint2_linear_182_852" x1="64.0961" y1="17.1164" x2="60.457" y2="64.8379" gradientUnits="userSpaceOnUse">
<stop stop-color="#E47FBF"/>
<stop offset="1" stop-color="#FFBCC4"/>
</linearGradient>
<linearGradient id="paint3_linear_182_852" x1="2.08603" y1="20.9278" x2="-1.22958" y2="65.9598" gradientUnits="userSpaceOnUse">
<stop stop-color="#E47FBF"/>
<stop offset="1" stop-color="#FFBCC4"/>
</linearGradient>
<clipPath id="clip0_182_852">
<rect width="245" height="85" fill="white" transform="translate(0.625)"/>
</clipPath>
</defs>
</svg>
