<svg width="125" height="86" viewBox="0 0 125 86" fill="none" xmlns="http://www.w3.org/2000/svg">
<path d="M119.999 83H103.532L94.8119 69.4752L86.0452 83H69.9961L87.2512 60.1691L70.7382 38H86.9265L95.3685 51.0699L103.625 38H119.349L102.744 59.9623L119.999 83Z" fill="url(#paint0_linear_95_602)"/>
<path d="M21.3315 17.2402C19.3175 19.6569 18.3524 22.8854 18.4363 26.9258H1.69497C1.8628 22.8477 2.63903 18.9772 4.02365 15.3145C5.4922 12.1048 7.7999 9.14062 10.9468 6.42188C13.2964 4.49609 16.0867 3.02344 19.3175 2.00391C22.5482 0.984375 26.5133 0.474609 31.2126 0.474609C39.94 0.474609 46.968 2.51367 52.2967 6.5918C57.6674 10.6322 60.3527 16.0697 60.3527 22.9043C60.3527 27.7376 58.7583 31.8158 55.5694 35.1387C53.5554 37.2155 51.4575 38.6315 49.2757 39.3867C50.9121 39.3867 53.2617 40.6517 56.3247 43.1816C60.8981 46.9954 63.1849 52.2064 63.1849 58.8145C63.1849 65.7624 60.4995 71.8796 55.1289 77.166C49.8002 82.4147 41.891 85.0391 31.4015 85.0391C18.4783 85.0391 9.49921 81.2441 4.46422 73.6543C1.82084 69.6139 0.352302 64.3275 0.0585938 57.7949H17.6811C17.6811 61.0801 18.2685 63.7988 19.4433 65.9512C21.6252 69.916 25.5902 71.8984 31.3385 71.8984C34.863 71.8984 37.926 70.8223 40.5274 68.6699C43.1708 66.4798 44.4924 63.3457 44.4924 59.2676C44.4924 53.8678 42.0589 50.2617 37.1917 48.4492C34.4225 47.4297 30.0588 46.9199 24.1007 46.9199V35.3652C29.9329 35.2897 34.0029 34.7799 36.3106 33.8359C40.2966 32.25 42.2896 29.0404 42.2896 24.207C42.2896 21.0729 41.2617 18.5241 39.2057 16.5605C37.1917 14.597 34.3385 13.6152 30.6462 13.6152C26.4084 13.6152 23.3035 14.8236 21.3315 17.2402Z" fill="url(#paint1_linear_95_602)"/>
<defs>
<linearGradient id="paint0_linear_95_602" x1="19.9147" y1="35.6242" x2="17.4975" y2="70.3691" gradientUnits="userSpaceOnUse">
<stop stop-color="#E47FBF"/>
<stop offset="1" stop-color="#FFBCC4"/>
</linearGradient>
<linearGradient id="paint1_linear_95_602" x1="2.09167" y1="18.1214" x2="-1.24896" y2="65.6984" gradientUnits="userSpaceOnUse">
<stop stop-color="#E47FBF"/>
<stop offset="1" stop-color="#FFBCC4"/>
</linearGradient>
</defs>
</svg>
