<svg width="69" height="86" viewBox="0 0 69 86" fill="none" xmlns="http://www.w3.org/2000/svg">
<path d="M64.6569 31.3273C66.1649 64.5033 50.9689 83.1793 31.4809 84.3393C20.2289 85.0353 10.2529 79.9313 7.12088 74.1313C5.38088 70.9993 4.80088 67.2873 6.07688 64.2713C7.81688 59.9793 13.9649 58.8193 17.6769 61.9513C19.6489 63.6913 20.5769 66.8233 20.2289 72.1593C19.9969 76.6833 24.5209 81.0913 32.5249 80.0473C41.5729 78.7713 47.2569 69.1433 49.2289 44.4353C46.0969 49.8873 38.6729 53.8313 31.0169 53.8313C15.5889 53.8313 2.82888 43.3913 3.17688 27.2673C3.64088 11.2593 16.7489 0.819336 33.3369 0.819336C50.6209 0.819336 63.8449 12.0713 64.6569 31.3273ZM34.0329 48.7273C43.1969 48.7273 48.8809 39.0993 48.8809 27.2673C48.8809 13.6953 42.7329 4.99534 34.0329 4.99534C25.3329 4.99534 19.6489 13.6953 19.6489 27.2673C19.6489 39.0993 24.8689 48.7273 34.0329 48.7273Z" fill="url(#paint0_linear_219_800)"/>
<defs>
<linearGradient id="paint0_linear_219_800" x1="2.07936" y1="18.4118" x2="-4.4472" y2="64.397" gradientUnits="userSpaceOnUse">
<stop stop-color="#E47FBF"/>
<stop offset="1" stop-color="#FFBCC4"/>
</linearGradient>
</defs>
</svg>
