<svg width="125" height="86" viewBox="0 0 125 86" fill="none" xmlns="http://www.w3.org/2000/svg">
<path d="M32.2485 1.28711C45.7045 1.28711 58.1167 7.43587 58.1167 19.9639C58.1165 28.7797 51.9682 36.2036 41.2964 39.6836C55.6804 42.1196 63.8003 49.3118 63.8003 61.2598C63.8001 75.5276 49.996 84.8076 32.5962 84.8076C19.8365 84.8075 9.62871 80.5155 6.03269 74.5996C4.06069 71.2356 3.71308 67.6391 4.64108 65.2031C6.26532 60.4475 12.7603 58.592 17.0522 62.3037C20.5322 65.3197 18.7929 69.6119 19.605 72.6279C21.229 78.8913 25.9846 80.5155 32.5962 80.5156C41.1801 80.5156 46.4007 73.4396 46.4008 61.8398C46.4008 49.8919 41.0647 42.4679 26.5649 42.4678V38.1758C37.2366 36.8997 41.5287 31.5635 41.5288 19.9639C41.5288 12.0759 39.0926 5.81111 31.7846 5.5791C26.6807 5.34712 23.2011 8.36357 23.4331 13.3516C23.6651 18.4553 23.3169 21.7036 20.7651 23.5596C15.8932 27.3875 9.62921 24.1395 8.353 20.8916C7.309 17.9916 8.12081 14.2791 9.86081 11.4951C13.5729 5.57931 21.1128 1.28715 32.2485 1.28711ZM90.7924 42.0996C87.6904 42.3816 87.8782 44.8255 90.1342 48.0215L95.4917 55.3535L101.79 46.4238C103.576 43.886 102.918 42.1938 100.663 42.0996V39.0918H113.728V42.0996C110.626 42.2876 108.464 43.3212 106.114 46.7051L98.0298 58.8311L109.686 74.7178C112.318 78.1957 113.54 80.3576 116.642 80.6396V83.6475H94.3637V80.6396C97.5597 80.3576 97.3717 77.8198 95.1157 74.7178L88.5366 65.6934L81.1098 76.3154C79.23 78.8532 79.9821 80.5455 82.2378 80.6396V83.6475H69.1723V80.6396C72.1802 80.4516 74.4359 79.3233 76.6919 75.9395L85.9038 62.1211L75.5639 47.9277C73.1199 44.5437 71.4277 42.1936 68.3257 42.0996V39.0918H90.7924V42.0996Z" fill="url(#paint0_linear_219_804)"/>
<defs>
<linearGradient id="paint0_linear_219_804" x1="2.15853" y1="18.8663" x2="-1.45947" y2="65.4613" gradientUnits="userSpaceOnUse">
<stop stop-color="#E47FBF"/>
<stop offset="1" stop-color="#FFBCC4"/>
</linearGradient>
</defs>
</svg>
