<svg width="262" height="85" viewBox="0 0 262 85" fill="none" xmlns="http://www.w3.org/2000/svg">
<g clip-path="url(#clip0_95_595)">
<path d="M244.751 65.8809C243.647 65.8809 242.751 66.7763 242.751 67.8809V81C242.751 82.1046 241.856 83 240.751 83H232.636C231.532 83 230.636 82.1046 230.636 81V67.8809C230.636 66.7763 229.741 65.8809 228.636 65.8809H213.75C212.645 65.8809 211.75 64.9855 211.75 63.8809V57.036C211.75 55.9314 212.645 55.036 213.75 55.036H228.636C229.741 55.036 230.636 54.1406 230.636 53.036V40C230.636 38.8954 231.532 38 232.636 38H240.751C241.856 38 242.751 38.8954 242.751 40V53.036C242.751 54.1406 243.647 55.036 244.751 55.036H259.638C260.742 55.036 261.638 55.9314 261.638 57.036V63.8809C261.638 64.9855 260.742 65.8809 259.638 65.8809H244.751Z" fill="url(#paint0_linear_95_595)"/>
<path d="M170.803 85.0391C159.207 85.0391 151.065 81.3763 146.376 74.0508C141.73 66.7253 139.406 56.2845 139.406 42.7285C139.406 29.1725 141.73 18.7129 146.376 11.3496C151.065 3.98633 159.207 0.304688 170.803 0.304688C182.398 0.304688 190.54 3.98633 195.229 11.3496C199.875 18.7129 202.199 29.1725 202.199 42.7285C202.199 56.2845 199.855 66.7253 195.166 74.0508C190.519 81.3763 182.398 85.0391 170.803 85.0391ZM181.289 64.3652C182.921 59.3809 183.738 52.1686 183.738 42.7285C183.738 32.8353 182.901 25.5098 181.226 20.752C179.593 15.9941 176.119 13.6152 170.803 13.6152C165.486 13.6152 161.97 15.9941 160.253 20.752C158.537 25.5098 157.679 32.8353 157.679 42.7285C157.679 52.1686 158.537 59.3997 160.253 64.4219C161.97 69.4062 165.486 71.8984 170.803 71.8984C176.119 71.8984 179.614 69.3874 181.289 64.3652Z" fill="url(#paint1_linear_95_595)"/>
<path d="M100.105 42.2188C97.9281 42.2188 96.0443 42.4642 94.4536 42.9551C91.6488 43.8613 89.5348 45.5417 88.1115 47.9961L72.0366 47.3164L78.4414 1.94727H128.613V15.6543H91.3767L88.1115 33.6094C90.8744 31.9857 93.0303 30.9095 94.5791 30.3809C97.1746 29.5124 100.335 29.0781 104.061 29.0781C111.596 29.0781 118.168 31.3626 123.778 35.9316C129.387 40.5007 132.192 47.1465 132.192 55.8691C132.192 63.459 129.492 70.237 124.092 76.2031C118.691 82.1693 110.612 85.1523 99.8537 85.1523C91.1883 85.1523 84.0718 83.0566 78.5042 78.8652C72.9366 74.6738 69.8389 68.7266 69.2109 61.0234H87.044C87.7557 64.5352 89.1162 67.2539 91.1255 69.1797C93.1349 71.0677 96.0652 72.0117 99.9165 72.0117C104.354 72.0117 107.724 70.6146 110.026 67.8203C112.37 64.9883 113.542 61.4388 113.542 57.1719C113.542 52.9805 112.454 49.4499 110.277 46.5801C108.1 43.6725 104.71 42.2188 100.105 42.2188Z" fill="url(#paint2_linear_95_595)"/>
<path d="M40.9396 17.5801C38.8046 15.2767 35.7487 14.125 31.7719 14.125C26.3298 14.125 22.6251 15.9564 20.6576 19.6191C19.5273 21.7337 18.8575 25.0944 18.6482 29.7012H1.25468C1.54771 22.7155 2.95008 17.0703 5.46178 12.7656C10.234 4.57161 18.711 0.474609 30.8928 0.474609C40.521 0.474609 48.1817 2.89128 53.8749 7.72461C59.5681 12.5202 62.4146 18.8828 62.4146 26.8125C62.4146 32.8919 60.4053 38.2917 56.3866 43.0117C53.7493 46.1458 49.4166 49.6387 43.3885 53.4902L36.2301 58.0781C31.7509 60.9479 28.6741 63.0247 26.9996 64.3086C25.367 65.5924 23.9856 67.084 22.8553 68.7832H62.603V83H0.25C0.417447 77.1094 1.81981 71.7285 4.4571 66.8574C7.01067 61.3822 13.0388 55.5859 22.5414 49.4688C30.7881 44.1445 36.1255 40.3307 38.5535 38.0273C42.2792 34.4401 44.142 30.513 44.142 26.2461C44.142 22.7721 43.0745 19.8835 40.9396 17.5801Z" fill="url(#paint3_linear_95_595)"/>
</g>
<defs>
<linearGradient id="paint0_linear_95_595" x1="58.8596" y1="35.4054" x2="57.6363" y2="70.437" gradientUnits="userSpaceOnUse">
<stop stop-color="#E47FBF"/>
<stop offset="1" stop-color="#FFBCC4"/>
</linearGradient>
<linearGradient id="paint1_linear_95_595" x1="3.14223" y1="18.1214" x2="1.47468" y2="65.8748" gradientUnits="userSpaceOnUse">
<stop stop-color="#E47FBF"/>
<stop offset="1" stop-color="#FFBCC4"/>
</linearGradient>
<linearGradient id="paint2_linear_95_595" x1="5.15837" y1="18.1214" x2="3.49082" y2="65.8748" gradientUnits="userSpaceOnUse">
<stop stop-color="#E47FBF"/>
<stop offset="1" stop-color="#FFBCC4"/>
</linearGradient>
<linearGradient id="paint3_linear_95_595" x1="7.15304" y1="18.1214" x2="5.48549" y2="65.8748" gradientUnits="userSpaceOnUse">
<stop stop-color="#E47FBF"/>
<stop offset="1" stop-color="#FFBCC4"/>
</linearGradient>
<clipPath id="clip0_95_595">
<rect width="261" height="85" fill="white" transform="translate(0.625)"/>
</clipPath>
</defs>
</svg>
