<svg width="262" height="85" viewBox="0 0 262 85" fill="none" xmlns="http://www.w3.org/2000/svg">
<path d="M124.607 13.8486H84.0078L82.2676 36.0049C86.2116 33.5689 91.6639 31.5967 98.5078 31.5967C116.14 31.5967 128.552 41.341 128.552 57.001C128.552 72.8928 115.792 84.2607 97.4639 84.2607C86.676 84.2607 76.0043 81.0125 71.3643 74.0527C70.0883 72.0807 68.4635 68.6003 69.8555 64.6562C71.2476 60.7123 77.2797 57.581 82.2676 61.7568C85.7476 64.5408 84.0083 68.9491 84.8203 72.0811C86.3284 77.5326 90.62 79.9687 96.7676 79.9688C105.816 79.9688 111.036 70.1084 111.268 58.2764C111.384 47.3725 107.208 37.7446 96.7676 36.9326C89.1119 36.3527 84.1242 39.4845 80.9922 42.7324L76.3516 41.3408L79.5996 1.90039H124.607V13.8486ZM169.697 0.740234C188.489 0.740234 202.642 17.329 202.642 42.501C202.641 67.6728 188.489 84.2607 169.697 84.2607C150.905 84.2606 136.869 67.6727 136.869 42.501C136.869 17.3291 150.905 0.740351 169.697 0.740234ZM30.8105 0.740234C45.3105 0.740234 59.5791 7.93254 59.1152 23.9404C58.5352 42.3844 38.9306 57.5803 21.1826 71.1523H43.6875C53.315 71.1523 57.0268 68.4845 58.8828 62.8008H61.7832L59.5791 83.1006H5.05859V77.8809C24.7786 58.7409 39.859 42.6164 41.251 23.9404C42.0629 13.2685 39.0465 5.72822 30.8105 5.03223C24.5468 4.45244 20.7194 7.58483 21.0674 12.8047C21.2994 17.9084 20.6032 21.1564 18.3994 22.8965C14.1075 26.2604 7.37947 24.2886 5.9873 20.3447C4.9433 17.0967 5.87112 13.6162 7.49512 10.9482C11.6711 4.22053 20.1389 0.740338 30.8105 0.740234ZM169.697 5.03223C158.909 5.0324 153.689 19.0691 153.689 42.501C153.69 65.9326 158.909 79.9686 169.697 79.9688C180.485 79.9688 185.821 65.9327 185.821 42.501C185.821 19.069 180.485 5.03223 169.697 5.03223ZM239.855 50.5566H258.3V59.0244H239.855V77.3525H231.504V59.0244H213.06V50.5566H231.504V32.2285H239.855V50.5566Z" fill="url(#paint0_linear_219_808)"/>
<defs>
<linearGradient id="paint0_linear_219_808" x1="0.574508" y1="18.3194" x2="-1.0404" y2="65.1396" gradientUnits="userSpaceOnUse">
<stop stop-color="#E47FBF"/>
<stop offset="1" stop-color="#FFBCC4"/>
</linearGradient>
</defs>
</svg>
