<svg width="162" height="28" viewBox="0 0 162 28" fill="none" xmlns="http://www.w3.org/2000/svg">
<path d="M14.269 0C22.0011 0 28.2689 6.268 28.269 14C28.269 21.7321 22.0011 28 14.269 28C6.53704 27.9999 0.269043 21.732 0.269043 14C0.269146 6.26806 6.5371 0.000103079 14.269 0ZM8.43701 8.16602V8.16699H8.43506V19.833H11.9351V11.666H20.104V8.16602H8.43701ZM15.0483 18.665H18.937V14.7764H15.0483V18.665Z" fill="black"/>
<path d="M40.6294 21.0699V15.2271H46.8982V12.2855H40.6294V9.851H47.73V6.92963H37.4443V21.0699H40.6294Z" fill="black"/>
<path d="M58.8844 15.0648C60.4668 14.4359 61.3391 13.1173 61.3391 11.1088C61.3391 8.59319 60.0002 6.92963 56.4296 6.92963H51.4592V21.0699H54.624V15.4503H54.9284H55.5978L58.9047 21.0699H62.6781L58.8844 15.0648ZM56.105 9.851C57.0991 9.851 58.154 9.851 58.154 11.1494C58.154 12.4681 57.1194 12.5289 56.105 12.5289H54.624V9.851H56.105Z" fill="black"/>
<path d="M71.7541 21.435C75.8522 21.435 78.6924 18.4731 78.6924 14.0099C78.6924 9.5264 75.8927 6.56445 71.7541 6.56445C67.6561 6.56445 64.8362 9.54669 64.8362 14.0099C64.8362 18.4528 67.6561 21.435 71.7541 21.435ZM71.7541 18.392C69.482 18.392 68.0213 16.7487 68.0213 14.0099C68.0213 11.2508 69.482 9.60755 71.7541 9.60755C74.0466 9.60755 75.487 11.2914 75.487 14.0099C75.487 16.7081 74.0466 18.392 71.7541 18.392Z" fill="black"/>
<path d="M91.1612 15.5517L85.8256 6.92963H82.5796V21.0699H85.7647V12.4072L91.08 21.0699H94.3463V6.92963H91.1612V15.5517Z" fill="black"/>
<path d="M105.072 21.0699V9.851H109.19V6.92963H97.7075V9.851H101.846V21.0699H105.072Z" fill="black"/>
<path d="M119.976 15.0648C121.559 14.4359 122.431 13.1173 122.431 11.1088C122.431 8.59319 121.092 6.92963 117.521 6.92963H112.551V21.0699H115.716V15.4503H116.02H116.69L119.996 21.0699H123.77L119.976 15.0648ZM117.197 9.851C118.191 9.851 119.246 9.851 119.246 11.1494C119.246 12.4681 118.211 12.5289 117.197 12.5289H115.716V9.851H117.197Z" fill="black"/>
<path d="M132.846 21.435C136.944 21.435 139.784 18.4731 139.784 14.0099C139.784 9.5264 136.984 6.56445 132.846 6.56445C128.748 6.56445 125.928 9.54669 125.928 14.0099C125.928 18.4528 128.748 21.435 132.846 21.435ZM132.846 18.392C130.574 18.392 129.113 16.7487 129.113 14.0099C129.113 11.2508 130.574 9.60755 132.846 9.60755C135.138 9.60755 136.579 11.2914 136.579 14.0099C136.579 16.7081 135.138 18.392 132.846 18.392Z" fill="black"/>
<path d="M148.998 21.0699L151.757 12.8332L154.496 21.0699H157.58L161.921 6.92963H158.574L155.875 16.1603L153.096 7.78169H150.398L147.659 16.1603L144.941 6.92963H141.613L145.935 21.0699H148.998Z" fill="black"/>
</svg>
