<svg width="469" height="234" viewBox="0 0 469 234" fill="none" xmlns="http://www.w3.org/2000/svg">
<g clip-path="url(#clip0_12353_9036)">
<path d="M469.434 117.014C469.434 177.834 420.13 227.138 359.31 227.138C298.49 227.138 249.186 177.834 249.186 117.014C249.186 56.1947 298.49 6.89062 359.31 6.89062C420.13 6.89062 469.434 56.1947 469.434 117.014Z" fill="url(#paint0_radial_12353_9036)" fill-opacity="0.6"/>
<path d="M170.401 22.2768C192.645 0.0325767 228.711 0.0325362 250.955 22.2768L305.461 76.7831C327.705 99.0274 327.705 135.092 305.461 157.337L250.955 211.843C228.711 234.087 192.645 234.087 170.401 211.843L115.895 157.337C93.6506 135.093 93.6506 99.0274 115.895 76.7832L170.401 22.2768Z" fill="url(#paint1_linear_12353_9036)" fill-opacity="0.16" style="mix-blend-mode:darken"/>
<path d="M170.401 22.2768C192.645 0.0325767 228.711 0.0325362 250.955 22.2768L305.461 76.7831C327.705 99.0274 327.705 135.092 305.461 157.337L250.955 211.843C228.711 234.087 192.645 234.087 170.401 211.843L115.895 157.337C93.6506 135.093 93.6506 99.0274 115.895 76.7832L170.401 22.2768Z" fill="url(#paint2_radial_12353_9036)" fill-opacity="0.4"/>
<path d="M179.739 89.3787C199.057 100.757 199.057 128.699 179.739 140.078L44.351 219.822C24.7388 231.374 -3.97719e-05 217.234 -3.8777e-05 194.472L-3.18055e-05 34.9842C-3.08106e-05 12.2228 24.7388 -1.91705 44.351 9.63465L179.739 89.3787Z" fill="url(#paint3_radial_12353_9036)" fill-opacity="0.6" style="mix-blend-mode:multiply"/>
<g clip-path="url(#paint4_diamond_12353_9036_clip_path)" data-figma-skip-parse="true"><g transform="matrix(-0.20681 0 0 -0.20681 206.81 114.538)"><rect x="0" y="0" width="1013.71" height="542.694" fill="url(#paint4_diamond_12353_9036)" opacity="0.1" shape-rendering="crispEdges"/><rect x="0" y="0" width="1013.71" height="542.694" transform="scale(1 -1)" fill="url(#paint4_diamond_12353_9036)" opacity="0.1" shape-rendering="crispEdges"/><rect x="0" y="0" width="1013.71" height="542.694" transform="scale(-1 1)" fill="url(#paint4_diamond_12353_9036)" opacity="0.1" shape-rendering="crispEdges"/><rect x="0" y="0" width="1013.71" height="542.694" transform="scale(-1)" fill="url(#paint4_diamond_12353_9036)" opacity="0.1" shape-rendering="crispEdges"/></g></g><path d="M179.739 89.3787C199.057 100.757 199.057 128.699 179.739 140.078L44.351 219.822C24.7388 231.374 -3.97719e-05 217.234 -3.8777e-05 194.472L-3.18055e-05 34.9842C-3.08106e-05 12.2228 24.7388 -1.91705 44.351 9.63465L179.739 89.3787Z" data-figma-gradient-fill="{&#34;type&#34;:&#34;GRADIENT_DIAMOND&#34;,&#34;stops&#34;:[{&#34;color&#34;:{&#34;r&#34;:0.11372549086809158,&#34;g&#34;:0.74509805440902710,&#34;b&#34;:0.62745100259780884,&#34;a&#34;:0.0},&#34;position&#34;:0.0},{&#34;color&#34;:{&#34;r&#34;:0.11372549086809158,&#34;g&#34;:0.74509805440902710,&#34;b&#34;:0.62745100259780884,&#34;a&#34;:0.50},&#34;position&#34;:0.80000001192092896},{&#34;color&#34;:{&#34;r&#34;:0.11372549086809158,&#34;g&#34;:0.74509805440902710,&#34;b&#34;:0.62745100259780884,&#34;a&#34;:1.0},&#34;position&#34;:1.0}],&#34;stopsVar&#34;:[{&#34;color&#34;:{&#34;r&#34;:0.11372549086809158,&#34;g&#34;:0.74509805440902710,&#34;b&#34;:0.62745100259780884,&#34;a&#34;:0.0},&#34;position&#34;:0.0},{&#34;color&#34;:{&#34;r&#34;:0.11372549086809158,&#34;g&#34;:0.74509805440902710,&#34;b&#34;:0.62745100259780884,&#34;a&#34;:0.50},&#34;position&#34;:0.80000001192092896},{&#34;color&#34;:{&#34;r&#34;:0.11372549086809158,&#34;g&#34;:0.74509805440902710,&#34;b&#34;:0.62745100259780884,&#34;a&#34;:1.0},&#34;position&#34;:1.0}],&#34;transform&#34;:{&#34;m00&#34;:-413.6203613281250,&#34;m01&#34;:1.7628372719902252e-11,&#34;m02&#34;:413.61972045898438,&#34;m10&#34;:-2.7377937156930487e-12,&#34;m11&#34;:-413.62033081054688,&#34;m12&#34;:321.34848022460938},&#34;opacity&#34;:0.10000000149011612,&#34;blendMode&#34;:&#34;MULTIPLY&#34;,&#34;visible&#34;:true}" style="mix-blend-mode:multiply"/>
</g>
<defs>
<clipPath id="paint4_diamond_12353_9036_clip_path"><path d="M179.739 89.3787C199.057 100.757 199.057 128.699 179.739 140.078L44.351 219.822C24.7388 231.374 -3.97719e-05 217.234 -3.8777e-05 194.472L-3.18055e-05 34.9842C-3.08106e-05 12.2228 24.7388 -1.91705 44.351 9.63465L179.739 89.3787Z" style="mix-blend-mode:multiply"/></clipPath><radialGradient id="paint0_radial_12353_9036" cx="0" cy="0" r="1" gradientUnits="userSpaceOnUse" gradientTransform="translate(277.057 44.6024) rotate(46.7453) scale(222.429)">
<stop offset="0.355769" stop-color="#FAEAAD"/>
<stop offset="0.6875" stop-color="#F5AEA9"/>
<stop offset="1" stop-color="#F173A5"/>
</radialGradient>
<linearGradient id="paint1_linear_12353_9036" x1="143.148" y1="184.59" x2="278.208" y2="49.53" gradientUnits="userSpaceOnUse">
<stop stop-color="#5CFAF7"/>
<stop offset="1" stop-color="#537AFB"/>
</linearGradient>
<radialGradient id="paint2_radial_12353_9036" cx="0" cy="0" r="1" gradientUnits="userSpaceOnUse" gradientTransform="translate(346.149 111.858) rotate(180) scale(204.366 173.484)">
<stop offset="0.591346" stop-color="#537AFB" stop-opacity="0"/>
<stop offset="1" stop-color="#537AFB"/>
</radialGradient>
<radialGradient id="paint3_radial_12353_9036" cx="0" cy="0" r="1" gradientUnits="userSpaceOnUse" gradientTransform="translate(204.212 154.093) rotate(-143.271) scale(214.088 226.998)">
<stop stop-color="#99FE71"/>
<stop offset="1" stop-color="#4FF0D2"/>
</radialGradient>
<linearGradient id="paint4_diamond_12353_9036" x1="0" y1="0" x2="500" y2="500" gradientUnits="userSpaceOnUse">
<stop stop-color="#1DBEA0" stop-opacity="0"/>
<stop offset="0.8" stop-color="#1DBEA0" stop-opacity="0.5"/>
<stop offset="1" stop-color="#1DBEA0"/>
</linearGradient>
<clipPath id="clip0_12353_9036">
<rect width="469" height="234" fill="white"/>
</clipPath>
</defs>
</svg>
