<svg width="76" height="76" viewBox="0 0 76 76" fill="none" xmlns="http://www.w3.org/2000/svg">
<path fill-rule="evenodd" clip-rule="evenodd" d="M19 30C20.1046 30 21 30.8954 21 32V56C21 57.1046 21.8954 58 23 58H27.5C28.6046 58 29.5 57.1046 29.5 56V43.25C29.5 39.9363 32.1863 37.25 35.5 37.25H40.5C43.8137 37.25 46.5 39.9363 46.5 43.25V56C46.5 57.1046 47.3954 58 48.5 58H53C54.1046 58 55 57.1046 55 56V32C55 30.8954 55.8954 30 57 30C58.1046 30 59 30.8954 59 32V56C59 59.3137 56.3137 62 53 62H48.5C45.1863 62 42.5 59.3137 42.5 56V43.25C42.5 42.1454 41.6046 41.25 40.5 41.25H35.5C34.3954 41.25 33.5 42.1454 33.5 43.25V56C33.5 59.3137 30.8137 62 27.5 62H23C19.6863 62 17 59.3137 17 56V32C17 30.8954 17.8954 30 19 30Z" fill="black"/>
<path fill-rule="evenodd" clip-rule="evenodd" d="M33.8697 13.4143C36.2128 11.0711 40.0118 11.0711 42.3549 13.4143L67.5827 38.642C68.3637 39.423 68.3637 40.6894 67.5827 41.4704C66.8016 42.2515 65.5353 42.2515 64.7542 41.4704L39.5265 16.2427C38.7455 15.4617 37.4791 15.4617 36.6981 16.2427L11.4704 41.4704C10.6893 42.2515 9.42299 42.2515 8.64194 41.4704C7.86089 40.6894 7.86089 39.423 8.64194 38.642L33.8697 13.4143Z" fill="black"/>
</svg>
