<svg width="76" height="76" viewBox="0 0 76 76" fill="none" xmlns="http://www.w3.org/2000/svg">
<path fill-rule="evenodd" clip-rule="evenodd" d="M13.6095 41.0376C11.8318 39.4475 11.8318 36.6648 13.6095 35.0747L36.0615 14.9931C37.2965 13.8885 39.193 13.9942 40.2976 15.2292C41.4022 16.4641 41.2965 18.3607 40.0615 19.4652L19.2762 38.0562L40.0615 56.6471C41.2965 57.7516 41.4022 59.6482 40.2976 60.8831C39.193 62.1181 37.2965 62.2238 36.0615 61.1192L13.6095 41.0376Z" fill="black"/>
<path fill-rule="evenodd" clip-rule="evenodd" d="M15.8477 38.4402C15.8477 36.7833 17.1908 35.4402 18.8477 35.4402H61.8916C63.5485 35.4402 64.8916 36.7833 64.8916 38.4402C64.8916 40.097 63.5485 41.4402 61.8916 41.4402H18.8477C17.1908 41.4402 15.8477 40.097 15.8477 38.4402Z" fill="black"/>
</svg>
