<svg width="24" height="24" viewBox="0 0 24 24" fill="none" xmlns="http://www.w3.org/2000/svg">
<path fill-rule="evenodd" clip-rule="evenodd" d="M1.9375 5.75C1.9375 5.05964 2.49714 4.5 3.1875 4.5H20.4375C21.1279 4.5 21.6875 5.05964 21.6875 5.75C21.6875 6.44036 21.1279 7 20.4375 7H3.1875C2.49714 7 1.9375 6.44036 1.9375 5.75Z" fill="black"/>
<path fill-rule="evenodd" clip-rule="evenodd" d="M5.6875 12.125C5.6875 11.4346 6.24714 10.875 6.9375 10.875H16.6875C17.3779 10.875 17.9375 11.4346 17.9375 12.125C17.9375 12.8154 17.3779 13.375 16.6875 13.375H6.9375C6.24714 13.375 5.6875 12.8154 5.6875 12.125Z" fill="black"/>
<path fill-rule="evenodd" clip-rule="evenodd" d="M9.4375 18.375C9.4375 17.6846 9.99714 17.125 10.6875 17.125H12.9375C13.6279 17.125 14.1875 17.6846 14.1875 18.375C14.1875 19.0654 13.6279 19.625 12.9375 19.625H10.6875C9.99714 19.625 9.4375 19.0654 9.4375 18.375Z" fill="black"/>
</svg>
