<svg width="24" height="24" viewBox="0 0 24 24" fill="none" xmlns="http://www.w3.org/2000/svg">
<path fill-rule="evenodd" clip-rule="evenodd" d="M3.64645 10.6464C3.84171 10.4512 4.15829 10.4512 4.35355 10.6464L12 18.2929L19.6464 10.6464C19.8417 10.4512 20.1583 10.4512 20.3536 10.6464C20.5488 10.8417 20.5488 11.1583 20.3536 11.3536L12.3536 19.3536C12.1583 19.5488 11.8417 19.5488 11.6464 19.3536L3.64645 11.3536C3.45118 11.1583 3.45118 10.8417 3.64645 10.6464Z" fill="black"/>
<path opacity="0.5" fill-rule="evenodd" clip-rule="evenodd" d="M6.64645 6.64645C6.84171 6.45118 7.15829 6.45118 7.35355 6.64645L12 11.2929L16.6464 6.64645C16.8417 6.45118 17.1583 6.45118 17.3536 6.64645C17.5488 6.84171 17.5488 7.15829 17.3536 7.35355L12.3536 12.3536C12.1583 12.5488 11.8417 12.5488 11.6464 12.3536L6.64645 7.35355C6.45118 7.15829 6.45118 6.84171 6.64645 6.64645Z" fill="black"/>
</svg>
