<svg width="25" height="25" viewBox="0 0 25 25" fill="none" xmlns="http://www.w3.org/2000/svg">
<g clip-path="url(#clip0_8285_29342)">
<path d="M20.4231 10.457H19.6731V7.70703C19.6731 5.91682 18.962 4.19993 17.6961 2.93406C16.4302 1.66819 14.7133 0.957031 12.9231 0.957031C11.1329 0.957031 9.41603 1.66819 8.15016 2.93406C6.88428 4.19993 6.17313 5.91682 6.17313 7.70703V10.457H5.42313C4.89269 10.457 4.38399 10.6677 4.00891 11.0428C3.63384 11.4179 3.42313 11.9266 3.42313 12.457V22.957C3.42313 23.4875 3.63384 23.9962 4.00891 24.3712C4.38399 24.7463 4.89269 24.957 5.42313 24.957H20.4231C20.9536 24.957 21.4623 24.7463 21.8373 24.3712C22.2124 23.9962 22.4231 23.4875 22.4231 22.957V12.457C22.4231 11.9266 22.2124 11.4179 21.8373 11.0428C21.4623 10.6677 20.9536 10.457 20.4231 10.457ZM12.9231 19.457C12.5276 19.457 12.1409 19.3397 11.812 19.12C11.4831 18.9002 11.2267 18.5879 11.0754 18.2224C10.924 17.8569 10.8844 17.4548 10.9616 17.0669C11.0387 16.6789 11.2292 16.3225 11.5089 16.0428C11.7886 15.7631 12.145 15.5726 12.5329 15.4955C12.9209 15.4183 13.323 15.4579 13.6885 15.6093C14.0539 15.7606 14.3663 16.017 14.5861 16.3459C14.8058 16.6748 14.9231 17.0615 14.9231 17.457C14.9231 17.9875 14.7124 18.4962 14.3373 18.8712C13.9623 19.2463 13.4536 19.457 12.9231 19.457ZM17.1731 9.95703C17.1731 10.0896 17.1204 10.2168 17.0267 10.3106C16.9329 10.4044 16.8057 10.457 16.6731 10.457H9.17313C9.04052 10.457 8.91334 10.4044 8.81957 10.3106C8.7258 10.2168 8.67313 10.0896 8.67313 9.95703V7.70703C8.67313 6.57986 9.12089 5.49886 9.91792 4.70183C10.715 3.9048 11.796 3.45703 12.9231 3.45703C14.0503 3.45703 15.1313 3.9048 15.9283 4.70183C16.7254 5.49886 17.1731 6.57986 17.1731 7.70703V9.95703Z" fill="black"/>
</g>
<defs>
<clipPath id="clip0_8285_29342">
<rect width="24" height="24" fill="white" transform="translate(0.923126 0.957031)"/>
</clipPath>
</defs>
</svg>
