<svg width="167" height="28" viewBox="0 0 167 28" fill="none" xmlns="http://www.w3.org/2000/svg">
<path d="M8.42081 5.3333C21.7303 4.47339 21.2659 24.3407 7.85689 22.853C-2.92134 21.6589 -2.38039 6.03245 8.42081 5.3333ZM8.40295 9.41596C2.14881 10.4009 3.61092 19.074 9.32665 18.7831C16.0733 18.4412 14.925 8.39019 8.40295 9.41596Z" fill="black"/>
<path d="M27.8604 22.8812L38.192 5.52734L48.2737 22.8812H43.5531L37.8144 13.6952L32.7085 22.8812H27.8604Z" fill="black"/>
<path d="M136.945 5.2747C140.065 5.6651 142.074 7.75236 141.642 10.9955C141.349 13.1925 139.997 13.8738 138.348 14.9685C139.348 15.0195 139.864 15.9534 140.272 16.747C141.173 18.5 141.719 20.993 142.431 22.8786C141.831 22.7995 140.673 23.1262 140.259 22.6286C139.604 21.8401 138.703 17.5763 138.062 16.4051C137.894 15.9738 136.501 15.2262 136.179 15.2262H130.693V22.8812H128.652V5.2747C131.265 5.50945 134.398 4.95574 136.945 5.2747ZM130.693 13.44H137.2C137.356 13.44 138.489 12.8098 138.693 12.6363C140.009 11.5365 140.076 8.93634 138.731 7.82381C138.371 7.52527 136.797 6.8057 136.432 6.8057H130.691V13.44H130.693Z" fill="black"/>
<path d="M23.2668 5.2755V18.7993H28.6253L26.2012 22.882H19.5669C19.5672 20.1724 19.5669 5.27295 19.5669 5.27295H23.2668V5.2755Z" fill="black"/>
<path d="M65.1126 5.2749V7.06107H55.9266V13.1851H64.6022V14.7161H56.3093L55.9266 15.0988V21.3504H65.1126V22.8814H53.8853V5.65765L54.268 5.2749H65.1126Z" fill="black"/>
<path d="M93.4361 5.2749V7.06107H84.2501V13.1851H92.9257V14.7161H84.2501V21.3504H93.4361V22.8814H82.2087V5.2749H93.4361Z" fill="black"/>
<path d="M109.766 8.84833C103.94 4.39056 97.7832 7.30967 98.2782 14.855C98.7247 21.7036 104.81 23.0968 109.766 19.3102C111.406 21.5123 107.867 22.7294 106.081 22.8927C98.9442 23.5434 95.6296 19.55 96.2496 12.5508C96.7701 6.69982 102.192 3.7552 107.615 5.51585C109.276 6.05425 111.001 7.01113 109.766 8.84577V8.84833Z" fill="black"/>
<path d="M155.787 8.17076C153.557 10.2555 153.299 15.6471 154.631 18.2065C156.157 21.1383 159.03 21.96 162.133 21.0235C163.332 20.6612 164.268 19.8013 165.391 19.3088L165.777 20.8474C163.697 23.2919 158.384 23.542 155.774 22.1641C151.788 20.0615 150.985 13.514 152.59 9.69411C154.769 4.50657 161.717 3.60328 165.789 7.06079L165.246 8.58413C164.853 8.70151 163.661 7.70126 163.09 7.44609C160.926 6.48156 157.604 6.46625 155.782 8.16821L155.787 8.17076Z" fill="black"/>
<path d="M126.097 5.2749L126.353 7.06107H119.973V22.8814H117.932V7.06107H111.808V5.2749H126.097Z" fill="black"/>
<path d="M70.7274 5.2749V21.3504H79.6582V22.8814H68.686V5.2749H70.7274Z" fill="black"/>
<path d="M148.042 5.2749H146.001V22.8814H148.042V5.2749Z" fill="black"/>
</svg>
