<svg width="104" height="27" viewBox="0 0 104 27" fill="none" xmlns="http://www.w3.org/2000/svg">
<path d="M0 8C0 3.58172 3.58172 0 8 0H88.4075C90.6926 0 92.8686 0.977182 94.3867 2.68509L101.638 10.8425C102.985 12.3581 102.985 14.6419 101.638 16.1575L94.3867 24.3149C92.8686 26.0228 90.6926 27 88.4075 27H8C3.58172 27 0 23.4183 0 19V8Z" fill="#759BD0" fill-opacity="0.15"/>
<path d="M11.76 19C11.6427 19 11.552 18.968 11.488 18.904C11.424 18.8293 11.392 18.7387 11.392 18.632V8.184C11.392 8.06667 11.424 7.976 11.488 7.912C11.552 7.83733 11.6427 7.8 11.76 7.8H15.824C16.6133 7.8 17.296 7.928 17.872 8.184C18.4587 8.44 18.912 8.824 19.232 9.336C19.552 9.83733 19.712 10.4667 19.712 11.224C19.712 11.9813 19.552 12.6107 19.232 13.112C18.912 13.6133 18.4587 13.992 17.872 14.248C17.296 14.504 16.6133 14.632 15.824 14.632H12.992V18.632C12.992 18.7387 12.9547 18.8293 12.88 18.904C12.816 18.968 12.7253 19 12.608 19H11.76ZM12.976 13.288H15.744C16.5333 13.288 17.1253 13.112 17.52 12.76C17.9147 12.408 18.112 11.896 18.112 11.224C18.112 10.5627 17.92 10.0507 17.536 9.688C17.152 9.32533 16.5547 9.144 15.744 9.144H12.976V13.288ZM21.8176 19C21.711 19 21.6203 18.968 21.5456 18.904C21.4816 18.8293 21.4496 18.7387 21.4496 18.632V11.064C21.4496 10.9573 21.4816 10.8667 21.5456 10.792C21.6203 10.7173 21.711 10.68 21.8176 10.68H22.5536C22.6603 10.68 22.751 10.7173 22.8256 10.792C22.9003 10.8667 22.9376 10.9573 22.9376 11.064V11.768C23.151 11.4053 23.4443 11.1333 23.8176 10.952C24.191 10.7707 24.639 10.68 25.1616 10.68H25.8016C25.9083 10.68 25.9936 10.7173 26.0576 10.792C26.1216 10.856 26.1536 10.9413 26.1536 11.048V11.704C26.1536 11.8107 26.1216 11.896 26.0576 11.96C25.9936 12.024 25.9083 12.056 25.8016 12.056H24.8416C24.2656 12.056 23.8123 12.2267 23.4816 12.568C23.151 12.8987 22.9856 13.352 22.9856 13.928V18.632C22.9856 18.7387 22.9483 18.8293 22.8736 18.904C22.799 18.968 22.7083 19 22.6016 19H21.8176ZM30.6835 19.16C29.5848 19.16 28.7102 18.824 28.0595 18.152C27.4088 17.4693 27.0515 16.5413 26.9875 15.368C26.9768 15.2293 26.9715 15.0533 26.9715 14.84C26.9715 14.616 26.9768 14.4347 26.9875 14.296C27.0302 13.5387 27.2062 12.8773 27.5155 12.312C27.8248 11.736 28.2462 11.2933 28.7795 10.984C29.3235 10.6747 29.9582 10.52 30.6835 10.52C31.4942 10.52 32.1715 10.6907 32.7155 11.032C33.2702 11.3733 33.6915 11.8587 33.9795 12.488C34.2675 13.1173 34.4115 13.8533 34.4115 14.696V14.968C34.4115 15.0853 34.3742 15.176 34.2995 15.24C34.2355 15.304 34.1502 15.336 34.0435 15.336H28.5075C28.5075 15.3467 28.5075 15.368 28.5075 15.4C28.5075 15.432 28.5075 15.4587 28.5075 15.48C28.5288 15.9173 28.6248 16.328 28.7955 16.712C28.9662 17.0853 29.2115 17.3893 29.5315 17.624C29.8515 17.8587 30.2355 17.976 30.6835 17.976C31.0675 17.976 31.3875 17.9173 31.6435 17.8C31.8995 17.6827 32.1075 17.5547 32.2675 17.416C32.4275 17.2667 32.5342 17.1547 32.5875 17.08C32.6835 16.9413 32.7582 16.8613 32.8115 16.84C32.8648 16.808 32.9502 16.792 33.0675 16.792H33.8355C33.9422 16.792 34.0275 16.824 34.0915 16.888C34.1662 16.9413 34.1982 17.0213 34.1875 17.128C34.1768 17.288 34.0915 17.4853 33.9315 17.72C33.7715 17.944 33.5422 18.168 33.2435 18.392C32.9448 18.616 32.5822 18.8027 32.1555 18.952C31.7288 19.0907 31.2382 19.16 30.6835 19.16ZM28.5075 14.232H32.8915V14.184C32.8915 13.704 32.8008 13.2773 32.6195 12.904C32.4488 12.5307 32.1982 12.2373 31.8675 12.024C31.5368 11.8 31.1422 11.688 30.6835 11.688C30.2248 11.688 29.8302 11.8 29.4995 12.024C29.1795 12.2373 28.9342 12.5307 28.7635 12.904C28.5928 13.2773 28.5075 13.704 28.5075 14.184V14.232ZM38.9394 19C38.7794 19 38.6514 18.9627 38.5554 18.888C38.47 18.8133 38.4007 18.7173 38.3474 18.6L35.3874 11.176C35.366 11.1227 35.3554 11.0693 35.3554 11.016C35.3554 10.92 35.3874 10.84 35.4514 10.776C35.5154 10.712 35.5954 10.68 35.6914 10.68H36.4594C36.5767 10.68 36.6674 10.712 36.7314 10.776C36.7954 10.84 36.8327 10.8987 36.8434 10.952L39.2914 17.256L41.7234 10.952C41.7447 10.8987 41.782 10.84 41.8354 10.776C41.8994 10.712 41.99 10.68 42.1074 10.68H42.8914C42.9767 10.68 43.0514 10.712 43.1154 10.776C43.19 10.84 43.2274 10.92 43.2274 11.016C43.2274 11.0693 43.2167 11.1227 43.1954 11.176L40.2194 18.6C40.1767 18.7173 40.1074 18.8133 40.0114 18.888C39.926 18.9627 39.798 19 39.6274 19H38.9394ZM45.2708 19C45.1641 19 45.0734 18.968 44.9988 18.904C44.9348 18.8293 44.9028 18.7387 44.9028 18.632V11.048C44.9028 10.9413 44.9348 10.856 44.9988 10.792C45.0734 10.7173 45.1641 10.68 45.2708 10.68H46.0388C46.1454 10.68 46.2308 10.7173 46.2948 10.792C46.3588 10.856 46.3908 10.9413 46.3908 11.048V18.632C46.3908 18.7387 46.3588 18.8293 46.2948 18.904C46.2308 18.968 46.1454 19 46.0388 19H45.2708ZM45.1428 9.128C45.0361 9.128 44.9454 9.096 44.8708 9.032C44.8068 8.95733 44.7747 8.86667 44.7747 8.76V7.896C44.7747 7.78933 44.8068 7.704 44.8708 7.64C44.9454 7.56533 45.0361 7.528 45.1428 7.528H46.1508C46.2574 7.528 46.3428 7.56533 46.4068 7.64C46.4814 7.704 46.5188 7.78933 46.5188 7.896V8.76C46.5188 8.86667 46.4814 8.95733 46.4068 9.032C46.3428 9.096 46.2574 9.128 46.1508 9.128H45.1428ZM52.1858 19.16C51.3751 19.16 50.6978 19.0053 50.1538 18.696C49.6098 18.3867 49.1938 17.96 48.9058 17.416C48.6178 16.8613 48.4578 16.232 48.4258 15.528C48.4151 15.3467 48.4098 15.1173 48.4098 14.84C48.4098 14.552 48.4151 14.3227 48.4258 14.152C48.4578 13.4373 48.6178 12.808 48.9058 12.264C49.2044 11.72 49.6258 11.2933 50.1698 10.984C50.7138 10.6747 51.3858 10.52 52.1858 10.52C52.9858 10.52 53.6578 10.6747 54.2018 10.984C54.7458 11.2933 55.1618 11.72 55.4498 12.264C55.7484 12.808 55.9138 13.4373 55.9458 14.152C55.9564 14.3227 55.9618 14.552 55.9618 14.84C55.9618 15.1173 55.9564 15.3467 55.9458 15.528C55.9138 16.232 55.7538 16.8613 55.4658 17.416C55.1778 17.96 54.7618 18.3867 54.2178 18.696C53.6738 19.0053 52.9964 19.16 52.1858 19.16ZM52.1858 17.928C52.8471 17.928 53.3751 17.72 53.7698 17.304C54.1644 16.8773 54.3778 16.2587 54.4098 15.448C54.4204 15.288 54.4258 15.0853 54.4258 14.84C54.4258 14.5947 54.4204 14.392 54.4098 14.232C54.3778 13.4213 54.1644 12.808 53.7698 12.392C53.3751 11.9653 52.8471 11.752 52.1858 11.752C51.5244 11.752 50.9911 11.9653 50.5858 12.392C50.1911 12.808 49.9831 13.4213 49.9618 14.232C49.9511 14.392 49.9457 14.5947 49.9457 14.84C49.9457 15.0853 49.9511 15.288 49.9618 15.448C49.9831 16.2587 50.1911 16.8773 50.5858 17.304C50.9911 17.72 51.5244 17.928 52.1858 17.928ZM61.0693 19.16C60.3866 19.16 59.8053 19.0107 59.3253 18.712C58.8559 18.4027 58.4986 17.976 58.2533 17.432C58.0079 16.888 57.8853 16.264 57.8853 15.56V11.048C57.8853 10.9413 57.9173 10.856 57.9813 10.792C58.0559 10.7173 58.1466 10.68 58.2533 10.68H59.0533C59.1599 10.68 59.2453 10.7173 59.3093 10.792C59.3839 10.856 59.4213 10.9413 59.4213 11.048V15.48C59.4213 17.0693 60.1146 17.864 61.5013 17.864C62.1626 17.864 62.6906 17.656 63.0853 17.24C63.4906 16.8133 63.6933 16.2267 63.6933 15.48V11.048C63.6933 10.9413 63.7253 10.856 63.7893 10.792C63.8639 10.7173 63.9546 10.68 64.0613 10.68H64.8453C64.9626 10.68 65.0533 10.7173 65.1173 10.792C65.1813 10.856 65.2133 10.9413 65.2133 11.048V18.632C65.2133 18.7387 65.1813 18.8293 65.1173 18.904C65.0533 18.968 64.9626 19 64.8453 19H64.1093C64.0026 19 63.9119 18.968 63.8373 18.904C63.7733 18.8293 63.7413 18.7387 63.7413 18.632V17.928C63.4533 18.3013 63.1013 18.6 62.6853 18.824C62.2799 19.048 61.7413 19.16 61.0693 19.16ZM70.4703 19.16C69.8729 19.16 69.3609 19.0853 68.9343 18.936C68.5076 18.7867 68.1609 18.6053 67.8943 18.392C67.6276 18.1787 67.4249 17.9653 67.2863 17.752C67.1583 17.5387 67.0889 17.368 67.0783 17.24C67.0676 17.1227 67.1049 17.032 67.1903 16.968C67.2756 16.904 67.3609 16.872 67.4463 16.872H68.1503C68.2143 16.872 68.2623 16.8827 68.2943 16.904C68.3369 16.9147 68.3903 16.9573 68.4543 17.032C68.5929 17.1813 68.7476 17.3307 68.9183 17.48C69.0889 17.6293 69.2969 17.752 69.5423 17.848C69.7983 17.944 70.1129 17.992 70.4863 17.992C71.0303 17.992 71.4783 17.8907 71.8303 17.688C72.1823 17.4747 72.3583 17.1653 72.3583 16.76C72.3583 16.4933 72.2836 16.28 72.1343 16.12C71.9956 15.96 71.7396 15.816 71.3663 15.688C71.0036 15.56 70.5023 15.4267 69.8623 15.288C69.2223 15.1387 68.7156 14.9573 68.3423 14.744C67.9689 14.52 67.7023 14.2587 67.5423 13.96C67.3823 13.6507 67.3023 13.304 67.3023 12.92C67.3023 12.5253 67.4196 12.1467 67.6543 11.784C67.8889 11.4107 68.2303 11.1067 68.6783 10.872C69.1369 10.6373 69.7076 10.52 70.3903 10.52C70.9449 10.52 71.4196 10.5893 71.8143 10.728C72.2089 10.8667 72.5343 11.0427 72.7903 11.256C73.0463 11.4587 73.2383 11.6613 73.3663 11.864C73.4943 12.0667 73.5636 12.2373 73.5743 12.376C73.5849 12.4827 73.5529 12.5733 73.4783 12.648C73.4036 12.712 73.3183 12.744 73.2223 12.744H72.5503C72.4756 12.744 72.4116 12.728 72.3583 12.696C72.3156 12.664 72.2729 12.6267 72.2303 12.584C72.1236 12.4453 71.9956 12.3067 71.8463 12.168C71.7076 12.0293 71.5209 11.9173 71.2863 11.832C71.0623 11.736 70.7636 11.688 70.3903 11.688C69.8569 11.688 69.4569 11.8 69.1903 12.024C68.9236 12.248 68.7903 12.5307 68.7903 12.872C68.7903 13.0747 68.8489 13.256 68.9663 13.416C69.0836 13.576 69.3076 13.72 69.6383 13.848C69.9689 13.976 70.4596 14.1147 71.1102 14.264C71.8143 14.4027 72.3689 14.5893 72.7743 14.824C73.1796 15.0587 73.4676 15.3307 73.6383 15.64C73.8089 15.9493 73.8943 16.3067 73.8943 16.712C73.8943 17.16 73.7609 17.5707 73.4943 17.944C73.2383 18.3173 72.8543 18.616 72.3423 18.84C71.8409 19.0533 71.2169 19.16 70.4703 19.16ZM76.1305 19C76.0238 19 75.9332 18.968 75.8585 18.904C75.7945 18.8293 75.7625 18.7387 75.7625 18.632V8.008C75.7625 7.90133 75.7945 7.816 75.8585 7.752C75.9332 7.67733 76.0238 7.64 76.1305 7.64H76.8825C76.9998 7.64 77.0905 7.67733 77.1545 7.752C77.2185 7.816 77.2505 7.90133 77.2505 8.008V18.632C77.2505 18.7387 77.2185 18.8293 77.1545 18.904C77.0905 18.968 76.9998 19 76.8825 19H76.1305ZM81.0931 22.04C81.0078 22.04 80.9331 22.008 80.8691 21.944C80.8051 21.88 80.7731 21.8053 80.7731 21.72C80.7731 21.6773 80.7785 21.6347 80.7891 21.592C80.7998 21.5493 80.8211 21.496 80.8531 21.432L82.0851 18.504L79.0291 11.288C78.9758 11.16 78.9491 11.0693 78.9491 11.016C78.9491 10.92 78.9811 10.84 79.0451 10.776C79.1091 10.712 79.1891 10.68 79.2851 10.68H80.0691C80.1758 10.68 80.2611 10.7067 80.3251 10.76C80.3891 10.8133 80.4318 10.8773 80.4531 10.952L82.8851 16.776L85.3811 10.952C85.4131 10.8773 85.4558 10.8133 85.5091 10.76C85.5731 10.7067 85.6638 10.68 85.7811 10.68H86.5331C86.6291 10.68 86.7091 10.712 86.7731 10.776C86.8371 10.84 86.8691 10.9147 86.8691 11C86.8691 11.0533 86.8425 11.1493 86.7891 11.288L82.2451 21.768C82.2131 21.8427 82.1651 21.9067 82.1011 21.96C82.0478 22.0133 81.9625 22.04 81.8451 22.04H81.0931Z" fill="#424D78"/>
</svg>
