<svg width="434" height="37" viewBox="0 0 434 37" fill="none" xmlns="http://www.w3.org/2000/svg">
<path d="M9.59951 8.8999C14.9013 8.8999 19.1998 13.1977 19.2 18.4994C19.2 23.8013 14.9014 28.0999 9.59951 28.0999C4.29781 28.0997 0 23.8012 0 18.4994C0.000227797 13.1979 4.29795 8.90013 9.59951 8.8999ZM5.59955 14.4995V22.5004H7.99894V16.8998H13.5995V14.4995H5.59955ZM10.1337 21.6986H12.8007V19.0316H10.1337V21.6986Z" fill="#424D78"/>
<path d="M30.5883 23.3478V19.3414H34.8869V17.3243H30.5883V15.655H35.4573V13.6518H28.4043V23.3478H30.5883Z" fill="#424D78"/>
<path d="M43.1059 19.2301C44.191 18.7989 44.7891 17.8947 44.7891 16.5175C44.7891 14.7925 43.871 13.6518 41.4226 13.6518H38.0144V23.3478H40.1845V19.4945H40.3932H40.8523L43.1198 23.3478H45.7073L43.1059 19.2301ZM41.2001 15.655C41.8817 15.655 42.6051 15.655 42.6051 16.5453C42.6051 17.4495 41.8956 17.4912 41.2001 17.4912H40.1845V15.655H41.2001Z" fill="#424D78"/>
<path d="M51.9308 23.5982C54.7408 23.5982 56.6884 21.5672 56.6884 18.5068C56.6884 15.4324 54.7686 13.4014 51.9308 13.4014C49.1207 13.4014 47.1871 15.4463 47.1871 18.5068C47.1871 21.5533 49.1207 23.5982 51.9308 23.5982ZM51.9308 21.5116C50.3727 21.5116 49.3711 20.3848 49.3711 18.5068C49.3711 16.6148 50.3727 15.488 51.9308 15.488C53.5027 15.488 54.4904 16.6427 54.4904 18.5068C54.4904 20.3569 53.5027 21.5116 51.9308 21.5116Z" fill="#424D78"/>
<path d="M65.2383 19.564L61.5797 13.6518H59.3539V23.3478H61.5379V17.4078L65.1827 23.3478H67.4224V13.6518H65.2383V19.564Z" fill="#424D78"/>
<path d="M74.7769 23.3478V15.655H77.6009V13.6518H69.7272V15.655H72.565V23.3478H74.7769Z" fill="#424D78"/>
<path d="M84.9969 19.2301C86.082 18.7989 86.6802 17.8947 86.6802 16.5175C86.6802 14.7925 85.762 13.6518 83.3137 13.6518H79.9054V23.3478H82.0756V19.4945H82.2843H82.7433L85.0108 23.3478H87.5983L84.9969 19.2301ZM83.0911 15.655C83.7727 15.655 84.4961 15.655 84.4961 16.5453C84.4961 17.4495 83.7867 17.4912 83.0911 17.4912H82.0756V15.655H83.0911Z" fill="#424D78"/>
<path d="M93.8218 23.5982C96.6319 23.5982 98.5794 21.5672 98.5794 18.5068C98.5794 15.4324 96.6597 13.4014 93.8218 13.4014C91.0118 13.4014 89.0781 15.4463 89.0781 18.5068C89.0781 21.5533 91.0118 23.5982 93.8218 23.5982ZM93.8218 21.5116C92.2638 21.5116 91.2622 20.3848 91.2622 18.5068C91.2622 16.6148 92.2638 15.488 93.8218 15.488C95.3938 15.488 96.3815 16.6427 96.3815 18.5068C96.3815 20.3569 95.3938 21.5116 93.8218 21.5116Z" fill="#424D78"/>
<path d="M104.897 23.3478L106.789 17.6999L108.667 23.3478H110.782L113.759 13.6518H111.464L109.613 19.9813L107.708 14.236H105.857L103.979 19.9813L102.115 13.6518H99.8338L102.797 23.3478H104.897Z" fill="#424D78"/>
<path d="M134.974 13.1072C143.255 12.5722 142.966 24.934 134.623 24.0084C127.916 23.2654 128.253 13.5423 134.974 13.1072ZM134.963 15.6475C131.071 16.2604 131.981 21.657 135.537 21.476C139.735 21.2633 139.021 15.0093 134.963 15.6475Z" fill="#424D78"/>
<path d="M147.068 24.026L153.497 13.228L159.77 24.026H156.833L153.262 18.3103L150.085 24.026H147.068Z" fill="#424D78"/>
<path d="M214.943 13.0707C216.885 13.3136 218.135 14.6124 217.866 16.6303C217.684 17.9973 216.842 18.4213 215.816 19.1024C216.439 19.1341 216.76 19.7152 217.014 20.209C217.574 21.2998 217.914 22.851 218.357 24.0243C217.984 23.975 217.263 24.1783 217.006 23.8687C216.598 23.3781 216.037 20.725 215.639 19.9963C215.534 19.7279 214.667 19.2627 214.467 19.2627H211.053V24.0259H209.783V13.0707C211.409 13.2168 213.359 12.8722 214.943 13.0707ZM211.053 18.1513H215.102C215.199 18.1513 215.904 17.7592 216.031 17.6512C216.85 16.9669 216.891 15.349 216.055 14.6568C215.831 14.471 214.851 14.0233 214.624 14.0233H211.052V18.1513H211.053Z" fill="#424D78"/>
<path d="M144.21 13.0709V21.4858H147.545L146.036 24.0261H141.908C141.908 22.3401 141.908 13.0693 141.908 13.0693H144.21V13.0709Z" fill="#424D78"/>
<path d="M170.25 13.0708V14.1822H164.534V17.9927H169.932V18.9453H164.772L164.534 19.1835V23.0733H170.25V24.026H163.264V13.309L163.502 13.0708H170.25Z" fill="#424D78"/>
<path d="M187.873 13.0708V14.1822H182.157V17.9927H187.555V18.9453H182.157V23.0733H187.873V24.026H180.887V13.0708H187.873Z" fill="#424D78"/>
<path d="M198.032 15.294C194.407 12.5203 190.576 14.3366 190.884 19.0315C191.162 23.2929 194.949 24.1598 198.032 21.8036C199.053 23.1738 196.851 23.9311 195.739 24.0327C191.298 24.4376 189.236 21.9528 189.622 17.5978C189.946 13.9572 193.32 12.125 196.693 13.2205C197.727 13.5555 198.8 14.1509 198.032 15.2924V15.294Z" fill="#424D78"/>
<path d="M226.669 14.8728C225.282 16.17 225.121 19.5248 225.95 21.1173C226.899 22.9415 228.687 23.4528 230.618 22.8701C231.364 22.6446 231.947 22.1096 232.645 21.8031L232.885 22.7605C231.591 24.2816 228.286 24.4371 226.661 23.5798C224.181 22.2715 223.681 18.1975 224.68 15.8207C226.036 12.5929 230.359 12.0308 232.893 14.1822L232.555 15.13C232.31 15.2031 231.569 14.5807 231.213 14.4219C229.867 13.8218 227.8 13.8122 226.666 14.8712L226.669 14.8728Z" fill="#424D78"/>
<path d="M208.194 13.0708L208.353 14.1822H204.383V24.026H203.113V14.1822H199.303V13.0708H208.194Z" fill="#424D78"/>
<path d="M173.743 13.0708V23.0733H179.3V24.026H172.473V13.0708H173.743Z" fill="#424D78"/>
<path d="M221.85 13.0708H220.58V24.026H221.85V13.0708Z" fill="#424D78"/>
<path d="M258.493 28.0999C263.795 28.0999 268.093 23.8018 268.093 18.4999C268.093 13.198 263.795 8.8999 258.493 8.8999C253.191 8.8999 248.893 13.198 248.893 18.4999C248.893 23.8018 253.191 28.0999 258.493 28.0999Z" fill="#424D78"/>
<path d="M276.638 13.8512C274.025 14.2579 272.161 16.9685 272.474 19.5449C272.925 23.2682 277.372 25.3728 280.451 23.1563C284.862 19.98 282.096 13.0032 276.638 13.8512ZM276.089 21.2164C272.665 19.1117 276.764 14.1908 279.469 16.9217C281.669 19.1422 278.999 23.0058 276.089 21.2164Z" fill="#424D78"/>
<path d="M288.893 23.9701L294.792 13.8027L300.89 23.968C300.209 23.8481 298.556 24.1877 298.041 23.8725C297.561 23.5776 295.209 18.6831 294.891 18.6871L291.739 23.9701H288.893Z" fill="#424D78"/>
<path d="M286.046 13.8027V21.7333H289.096C288.836 22.0606 287.835 23.9701 287.571 23.9701H283.605V13.8027H286.046Z" fill="#424D78"/>
<path d="M327.1 13.8271H325.314L321.021 23.9681C322.943 24.692 322.717 21.6601 323.596 21.3591C323.972 21.231 327.86 21.2432 328.456 21.3144C329.969 21.4974 329.222 24.5984 331.392 23.9681L327.1 13.8271ZM323.868 20.3098L326.207 14.8174L328.545 20.3098H323.868Z" fill="#424D78"/>
<path d="M311.436 15.5576C311.091 14.85 309.873 13.8027 309.124 13.8027H304.346V23.9701H305.566V20.9199C308.978 21.4506 313.482 19.7303 311.436 15.5576ZM308.921 19.6998H305.566V14.8195H308.514C308.724 14.8195 309.712 15.2485 309.942 15.4254C311.408 16.5418 310.517 19.6998 308.921 19.6998Z" fill="#424D78"/>
<path d="M334.036 20.4115L330.378 14.1037C330.174 13.5953 331.311 13.8068 331.563 13.8353L334.847 19.2911C335.146 18.4146 337.493 14.0101 338.042 13.8414C338.32 13.756 338.63 13.8027 338.916 13.8027C339.246 14.0895 335.256 19.9336 335.256 20.4095V23.968H334.036V20.4095V20.4115Z" fill="#424D78"/>
<path d="M314.921 13.8027V22.9533H320.208V23.9701H313.904V13.8027H314.921Z" fill="#424D78"/>
<path d="M255.543 17.8696C255.586 16.19 255.62 14.9706 255.643 14.2114L262.864 18.681L255.844 22.7479C255.431 22.8008 255.543 22.7337 255.543 22.449C255.543 21.6987 255.543 20.0881 255.543 19.2931L255.94 18.988C257.298 18.8193 258.664 18.6729 260.035 18.5529C260.035 18.5529 256.942 18.2987 255.541 17.8696H255.543Z" fill="#FEFEFE"/>
<path d="M262.863 18.681L255.543 19.293C255.553 19.2381 255.907 18.7115 255.95 18.683L255.913 18.3902C257.221 18.2417 260.017 18.2763 262.863 18.681Z" fill="#424D78"/>
<path d="M262.863 18.6789L255.95 18.683L255.543 17.8696C255.543 17.8696 261.389 18.4898 262.863 18.6789Z" fill="#424D78"/>
<path d="M361.51 24.6002H360.713C354.129 24.3824 353.68 14.0844 360.222 13.2741C362.156 13.0346 364.311 13.5959 365.507 15.2143C365.799 15.6097 366.4 16.5301 365.835 16.9045C365.644 17.0308 364.625 17.4791 364.423 17.4996C363.855 17.5566 363.701 17.0104 363.391 16.6589C362.112 15.2089 359.399 15.3744 358.496 17.1516C357.948 18.2295 358.002 19.9436 358.665 20.9635C359.661 22.4961 362.208 22.5178 363.389 21.1781C363.816 20.694 363.873 20.142 364.674 20.4067C364.92 20.488 365.828 20.885 365.973 21.0505C366.201 21.3108 366.076 21.5522 365.955 21.8303C365.223 23.5157 363.269 24.4912 361.51 24.6002Z" fill="#424D78"/>
<path d="M430.268 24.1228C430.166 24.2982 430.045 24.3601 429.839 24.3786C429.409 24.4175 428.648 24.4086 428.212 24.377C427.871 24.3521 427.521 24.2619 427.309 23.9739L425.213 20.7192L425.12 20.6532L423.026 23.9105C422.845 24.1528 422.588 24.3148 422.282 24.3451C421.868 24.3863 420.839 24.3946 420.433 24.3461C420.125 24.3094 420.057 24.0001 420.194 23.7558L423.508 18.8549L420.213 14.0624C420.033 13.7904 420.118 13.4683 420.465 13.4288C420.84 13.386 422.279 13.3883 422.603 13.4906C422.818 13.5585 423.004 13.7059 423.121 13.8963L425.215 17.1526C425.276 17.1666 425.256 17.1331 425.272 17.1124C426.026 16.1095 426.622 14.8539 427.372 13.8322C427.517 13.6529 427.656 13.5445 427.883 13.483C428.231 13.3889 429.517 13.3851 429.901 13.4288C430.104 13.452 430.201 13.5659 430.268 13.747V13.8424L426.863 18.9455L430.268 23.9315V24.1225L430.268 24.1228Z" fill="#424D78"/>
<path d="M390.423 23.0726C389.252 24.2098 387.547 24.7609 385.921 24.5277C384.406 24.3109 383.228 23.2633 383.122 21.6892C382.861 17.8078 387.42 17.39 390.2 18.3302V17.0093C390.2 16.9126 390.076 16.5851 390.026 16.4831C389.429 15.2636 387.54 15.4304 386.446 15.7436C386.098 15.843 385.409 16.1938 385.114 16.1983C384.945 16.2009 384.754 16.0902 384.659 15.9534C384.543 15.7876 384.124 14.9262 384.11 14.7508C384.064 14.1599 384.729 13.9338 385.187 13.7549C386.885 13.0931 389.492 12.9209 391.077 13.9373C392.195 14.6542 392.65 15.7751 392.718 17.0734C392.834 19.2821 392.639 21.5932 392.71 23.8121C392.659 24.0605 392.556 24.2481 392.304 24.3294C392.051 24.4107 391.105 24.4101 390.862 24.3367C390.669 24.2784 390.423 24.0679 390.423 23.8523V23.0726H390.423ZM390.168 20.0487C389.309 19.9221 388.442 19.8061 387.569 19.8564C386.815 19.8998 385.795 20.197 385.705 21.0836C385.558 22.5419 387.276 22.5607 388.288 22.3573C388.943 22.2259 389.636 21.9016 390.152 21.4806L390.168 20.0487Z" fill="#424D78"/>
<path d="M416.625 23.0726C415.458 24.2111 413.747 24.7606 412.123 24.5278C410.587 24.3077 409.424 23.248 409.324 21.6577C409.08 17.7855 413.671 17.4041 416.434 18.3302C416.417 17.6411 416.52 16.8818 416.109 16.2835C415.437 15.3042 413.731 15.4461 412.723 15.7232C412.327 15.8319 411.953 16.0402 411.582 16.1441C411.314 16.2194 411.054 16.2191 410.873 15.9732C410.762 15.8221 410.337 14.9441 410.317 14.7783C410.278 14.4457 410.403 14.2617 410.674 14.0914C411.339 13.6736 412.58 13.3576 413.362 13.274C416.205 12.9701 418.756 13.8634 418.921 17.0722C419.034 19.2659 418.833 21.5547 418.921 23.7583C418.889 24.0207 418.77 24.2443 418.506 24.3294C418.259 24.4088 417.284 24.4107 417.041 24.3288C416.862 24.2688 416.625 24.0475 416.625 23.8524V23.0726H416.625ZM416.37 20.0488C415.511 19.9222 414.644 19.8061 413.771 19.8565C413.019 19.8999 411.996 20.1977 411.908 21.0836C411.761 22.542 413.477 22.5605 414.49 22.3573C415.171 22.2208 415.798 21.8965 416.363 21.5065L416.37 20.0488H416.37Z" fill="#424D78"/>
<path d="M374.26 19.6351C374.276 20.3444 374.535 21.1263 375.072 21.6091C376.172 22.5984 378.42 22.4035 379.727 21.959C380.102 21.8314 380.667 21.4628 381.034 21.7357C381.225 21.8783 381.685 22.8481 381.689 23.0882C381.697 23.5356 381.224 23.7509 380.88 23.9052C378.736 24.8674 375.29 24.9286 373.462 23.2796C371.56 21.5635 371.387 17.973 372.597 15.8262C374.563 12.3367 380.183 12.227 381.798 16.1026C382.088 16.7994 382.427 18.3815 382.126 19.071C382.006 19.3462 381.623 19.6351 381.32 19.6351H374.259H374.26ZM374.26 17.9803H379.791C379.848 17.9331 379.811 17.7928 379.802 17.7144C379.602 16.0012 378.338 15.3035 376.699 15.4986C375.27 15.6686 374.389 16.5386 374.26 17.9807L374.26 17.9803Z" fill="#424D78"/>
<path d="M405.085 13.4291H407.842C408.011 13.4291 408.26 13.6941 408.306 13.8571C408.361 14.051 408.365 15.0058 408.322 15.213C408.289 15.376 408.043 15.6885 407.874 15.6885H405.133L405.085 15.7364V21.0196C405.085 21.1686 405.221 21.4945 405.314 21.6188C405.864 22.3539 407.05 22.0172 407.808 22.1205C408.068 22.1559 408.299 22.3874 408.334 22.6457C408.363 22.8584 408.361 23.7982 408.298 23.973C408.221 24.1847 408.034 24.3209 407.811 24.3458C407.138 24.4214 405.972 24.3512 405.308 24.2029C403.5 23.7985 402.6 22.675 402.502 20.8302L402.511 10.6521C402.567 10.4174 402.68 10.2439 402.918 10.1674C403.174 10.0851 404.257 10.0886 404.545 10.1336C404.738 10.1638 405.085 10.3679 405.085 10.5807V13.4291Z" fill="#424D78"/>
<path d="M368.099 8.63075C368.365 8.58898 369.412 8.58866 369.671 8.63745C370.003 8.70028 370.15 8.95891 370.179 9.2759L370.18 23.6941C370.159 23.9649 370.059 24.2187 369.788 24.3208C369.537 24.4149 368.647 24.3996 368.345 24.3788C367.865 24.3457 367.613 24.2028 367.566 23.6929L367.564 9.30651C367.584 8.97039 367.745 8.68688 368.099 8.63107V8.63075Z" fill="#424D78"/>
<path d="M397.371 15.2432C398.099 14.247 399.177 13.4947 400.448 13.4293C400.943 13.4038 401.284 13.4992 401.325 14.0483C401.35 14.3755 401.364 15.1045 401.321 15.4154C401.228 16.0899 400.29 15.8833 399.81 15.912C398.964 15.9624 398.114 16.2258 397.483 16.8033L397.453 23.9021C397.413 24.0893 397.218 24.3004 397.029 24.3387C396.769 24.3913 395.738 24.3737 395.442 24.3473C395.114 24.3183 394.929 24.1059 394.885 23.7892L394.893 13.9628C394.957 13.6044 395.188 13.4539 395.537 13.428C395.826 13.4067 396.722 13.3923 396.964 13.4701C397.142 13.5272 397.372 13.7635 397.372 13.9545V15.2436L397.371 15.2432Z" fill="#424D78"/>
</svg>
