<svg width="164" height="29" viewBox="0 0 164 29" fill="none" xmlns="http://www.w3.org/2000/svg">
<path d="M14.8086 28.2588C22.5406 28.2588 28.8086 21.9908 28.8086 14.2588C28.8086 6.5268 22.5406 0.258789 14.8086 0.258789C7.07661 0.258789 0.808594 6.5268 0.808594 14.2588C0.808594 21.9908 7.07661 28.2588 14.8086 28.2588Z" fill="#DE5E5E"/>
<path d="M46.9139 5.49633C42.0817 6.24843 38.6333 11.2612 39.2124 16.0257C40.0472 22.9112 48.2714 26.8033 53.9648 22.7043C62.1213 16.8304 57.007 3.92821 46.9139 5.49633ZM45.8985 19.1168C39.5659 15.2247 47.147 6.12433 52.1485 11.1747C56.2173 15.2811 51.2798 22.4261 45.8985 19.1168Z" fill="black"/>
<path d="M69.5742 24.2092L80.4834 5.40674L91.7611 24.2054C90.5013 23.9836 87.4441 24.6116 86.4927 24.0287C85.6052 23.4834 81.2543 14.4319 80.6677 14.4394L74.8389 24.2092H69.5742Z" fill="black"/>
<path d="M64.3109 5.40674V20.0726H69.9517C69.4703 20.6781 67.6202 24.2092 67.1313 24.2092H59.7983V5.40674H64.3109Z" fill="black"/>
<path d="M140.231 5.45166H136.929L128.991 24.2052C132.544 25.544 132.127 19.9371 133.752 19.3805C134.447 19.1436 141.637 19.1662 142.739 19.2978C145.537 19.6362 144.157 25.371 148.169 24.2052L140.231 5.45166ZM134.255 17.4401L138.58 7.28302L142.905 17.4401H134.255Z" fill="black"/>
<path d="M111.266 8.65204C110.627 7.34339 108.374 5.40674 106.99 5.40674H98.1533V24.2092H100.41V18.5684C106.72 19.5499 115.049 16.3686 111.266 8.65204ZM106.614 16.3122H100.41V7.28698H105.862C106.25 7.28698 108.077 8.08045 108.502 8.40761C111.214 10.4721 109.566 16.3122 106.614 16.3122Z" fill="black"/>
<path d="M153.058 17.6284L146.293 5.96336C145.917 5.02324 148.019 5.41433 148.485 5.46697L154.558 15.5564C155.111 13.9356 159.451 5.79037 160.466 5.47825C160.981 5.32031 161.553 5.40681 162.083 5.40681C162.692 5.93703 155.314 16.7447 155.314 17.6246V24.2055H153.058V17.6246V17.6284Z" fill="black"/>
<path d="M117.708 5.40674V22.3289H127.486V24.2092H115.828V5.40674H117.708Z" fill="black"/>
<path d="M10.5089 13.3398C10.5722 10.8903 10.6206 9.11199 10.6542 8.00488L21.1846 14.523L10.9478 20.4539C10.3458 20.531 10.5089 20.4332 10.5089 20.018C10.5089 18.9238 10.5089 16.5751 10.5089 15.4156L11.0872 14.9708C13.0681 14.7246 15.0609 14.5111 17.0596 14.3362C17.0596 14.3362 12.5492 13.9655 10.5059 13.3398H10.5089Z" fill="#FEFEFE"/>
<path d="M21.1835 14.5226L10.5078 15.4152C10.5226 15.3351 11.0386 14.5671 11.1009 14.5255L11.0475 14.0985C12.9543 13.882 17.0319 13.9324 21.1835 14.5226Z" fill="#DE5E5E"/>
<path d="M21.1835 14.5196L11.1009 14.5255L10.5078 13.3394C10.5078 13.3394 19.0335 14.2438 21.1835 14.5196Z" fill="#DE5E5E"/>
</svg>
