<svg width="34" height="26" viewBox="0 0 34 26" fill="none" xmlns="http://www.w3.org/2000/svg">
<path d="M33.76 1.99957C33.76 0.895002 32.8646 -0.000429153 31.76 -0.000429153H21.12C20.0154 -0.000429153 19.12 0.895001 19.12 1.99957V7.91957C19.12 11.7596 19.96 15.2396 21.64 18.3596C23.1324 21.2022 25.256 23.4135 28.011 24.9936C28.6561 25.3636 29.4554 25.2836 30.0545 24.843L31.2843 23.9388C32.271 23.2133 32.3816 21.777 31.4848 20.9428C31.2432 20.7181 31.0016 20.497 30.76 20.2796C30.04 19.5596 29.28 18.8396 28.48 18.1196C27.0609 16.4977 26.2411 14.7902 26.0208 12.9971C25.9534 12.449 26.4077 11.9996 26.96 11.9996H31.76C32.8646 11.9996 33.76 11.1041 33.76 9.99957V1.99957ZM14.64 1.99957C14.64 0.895002 13.7446 -0.000429153 12.64 -0.000429153H2C0.895429 -0.000429153 0 0.895001 0 1.99957V7.91957C0 11.7596 0.84 15.2396 2.52 18.3596C4.01238 21.2022 6.13605 23.4135 8.89101 24.9936C9.53611 25.3636 10.3354 25.2836 10.9345 24.843L12.2611 23.8676C13.2138 23.1671 13.3574 21.7927 12.5052 20.9729C12.2607 20.7378 12.0124 20.5067 11.76 20.2796C10.96 19.5596 10.16 18.8396 9.36 18.1196C7.95817 16.384 7.1412 14.6762 6.90909 12.9963C6.8335 12.4492 7.28772 11.9996 7.84 11.9996H12.64C13.7446 11.9996 14.64 11.1041 14.64 9.99957V1.99957Z" fill="black"/>
</svg>
