<svg width="48" height="48" viewBox="0 0 48 48" fill="none" xmlns="http://www.w3.org/2000/svg">
<path d="M20.0638 10.5C19.2203 7.5 20.3647 4 24 4C27.6352 4 28.7797 7.5 27.9362 10.5C27.3133 12.7154 25.6172 17.93 24.7726 20.5062C24.676 20.8008 24.8668 21.1103 25.153 21.2296C25.4392 21.3488 25.784 21.2601 25.924 20.9835C27.1483 18.5647 29.6365 13.6778 30.7626 11.6707C32.2875 8.953 35.5716 7.28735 38.1421 9.85784C40.7126 12.4283 39.047 15.7125 36.3292 17.2374C34.3222 18.3635 29.4352 20.8516 27.0165 22.0759C26.7399 22.216 26.6512 22.5608 26.7704 22.847C26.8897 23.1332 27.1992 23.324 27.4938 23.2274C30.07 22.3828 35.2846 20.6867 37.5 20.0638C40.5 19.2203 44 20.3647 44 24C44 27.6352 40.5 28.7797 37.5 27.9362C35.2846 27.3133 30.07 25.6172 27.4938 24.7726C27.1992 24.676 26.8897 24.8668 26.7704 25.153C26.6512 25.4392 26.7399 25.784 27.0165 25.924C29.4353 27.1484 34.3222 29.6365 36.3292 30.7626C39.047 32.2875 40.7126 35.5716 38.1421 38.1421C35.5716 40.7126 32.2875 39.047 30.7626 36.3292C29.6365 34.3222 27.1484 29.4352 25.924 27.0165C25.784 26.7399 25.4392 26.6512 25.153 26.7704C24.8668 26.8897 24.676 27.1992 24.7726 27.4938C25.6172 30.07 27.3133 35.2846 27.9362 37.5C28.7797 40.5 27.6352 44 24 44C20.3648 44 19.2203 40.5 20.0638 37.5C20.6867 35.2846 22.3828 30.07 23.2274 27.4938C23.324 27.1992 23.1332 26.8897 22.847 26.7704C22.5608 26.6512 22.216 26.7399 22.076 27.0165C20.8517 29.4353 18.3635 34.3222 17.2374 36.3293C15.7125 39.047 12.4284 40.7126 9.85791 38.1422C7.28742 35.5717 8.953 32.2875 11.6708 30.7626C13.6778 29.6365 18.5648 27.1484 20.9835 25.924C21.2601 25.784 21.3488 25.4392 21.2296 25.153C21.1103 24.8668 20.8008 24.676 20.5062 24.7726C17.93 25.6172 12.7154 27.3133 10.5 27.9362C7.5 28.7797 4 27.6352 4 24C4 20.3648 7.5 19.2203 10.5 20.0638C12.7154 20.6867 17.93 22.3828 20.5062 23.2274C20.8008 23.324 21.1103 23.1332 21.2296 22.847C21.3488 22.5608 21.2601 22.216 20.9835 22.076C18.5647 20.8516 13.6778 18.3635 11.6708 17.2374C8.95302 15.7125 7.28738 12.4284 9.85786 9.85788C12.4284 7.28739 15.7125 8.95298 17.2374 11.6707C18.3635 13.6778 20.8516 18.5648 22.076 20.9835C22.216 21.2601 22.5608 21.3488 22.847 21.2296C23.1332 21.1103 23.324 20.8008 23.2274 20.5062C22.3828 17.93 20.6867 12.7154 20.0638 10.5Z" fill="url(#paint0_radial_60_1836)"/>
<defs>
<radialGradient id="paint0_radial_60_1836" cx="0" cy="0" r="1" gradientUnits="userSpaceOnUse" gradientTransform="translate(24 24) scale(20)">
<stop stop-color="#800080"/>
<stop offset="1" stop-color="#FFC0CB"/>
</radialGradient>
</defs>
</svg>
