<svg width="48" height="48" viewBox="0 0 48 48" fill="none" xmlns="http://www.w3.org/2000/svg">
<g clip-path="url(#clip0_60_1851)">
<path d="M43.6003 15.7764C44.4664 13.7312 43.5679 11.3825 41.5922 10.427L41.3981 10.339L29.2099 5.18753L28.9378 5.07878C23.2356 2.94249 18.0958 9.56453 21.7457 14.5849L26.8225 21.5667L15.5228 17.3353C10.1697 15.3305 5.16654 21.0009 7.82326 26.0615L16.6522 42.8777C17.7171 44.9058 20.2254 45.6852 22.2547 44.6184C24.2839 43.5514 25.0659 41.0423 24.0011 39.0142L17.7027 27.0164L30.3747 31.7629C36.154 33.9273 41.2271 27.2613 37.5989 22.2703L32.8514 15.7397L38.1606 17.9841L38.359 18.0621C40.4212 18.8132 42.7341 17.8216 43.6003 15.7764Z" fill="url(#paint0_linear_60_1851)"/>
</g>
<defs>
<linearGradient id="paint0_linear_60_1851" x1="13.9115" y1="34.5307" x2="35.5622" y2="12.88" gradientUnits="userSpaceOnUse">
<stop stop-color="#3A1C71"/>
<stop offset="0.5" stop-color="#D76D77"/>
<stop offset="1" stop-color="#FFAF7B"/>
</linearGradient>
<clipPath id="clip0_60_1851">
<rect width="48" height="48" fill="white"/>
</clipPath>
</defs>
</svg>
