<svg width="48" height="48" viewBox="0 0 48 48" fill="none" xmlns="http://www.w3.org/2000/svg">
<path d="M10.667 33.667C12.968 33.6672 14.8329 35.532 14.833 37.833C14.833 40.1341 12.968 41.9998 10.667 42H8.16699C5.86581 42 4 40.1342 4 37.833C4.00009 35.5319 5.86586 33.667 8.16699 33.667H10.667ZM25.667 33.667C27.968 33.6672 29.8329 35.532 29.833 37.833C29.833 40.1341 27.968 41.9998 25.667 42H22.333C20.032 41.9998 18.167 40.1341 18.167 37.833C18.1671 35.532 20.032 33.6672 22.333 33.667H25.667ZM39.833 33.667C42.1341 33.667 43.9999 35.5319 44 37.833C44 40.1342 42.1342 42 39.833 42H37.333C35.032 41.9998 33.167 40.1341 33.167 37.833C33.1671 35.532 35.032 33.6672 37.333 33.667H39.833ZM20.333 20.333C21.4375 20.333 22.3329 21.2285 22.333 22.333V26.666C22.333 27.7706 21.4376 28.667 20.333 28.667H6C4.89543 28.667 4 27.7706 4 26.666V22.333C4.00009 21.2285 4.89548 20.333 6 20.333H20.333ZM42 20.333C43.1045 20.333 43.9999 21.2285 44 22.333V26.666C44 27.7706 43.1046 28.667 42 28.667H27.667C26.5624 28.667 25.667 27.7706 25.667 26.666V22.333C25.6671 21.2285 26.5625 20.333 27.667 20.333H42ZM42 7C43.1046 7 44 7.89543 44 9V13.333C44 14.4376 43.1046 15.333 42 15.333H6C4.89543 15.333 4 14.4376 4 13.333V9C4 7.89543 4.89543 7 6 7H42Z" fill="url(#paint0_linear_60_1841)"/>
<defs>
<linearGradient id="paint0_linear_60_1841" x1="28.5" y1="7" x2="28.5" y2="42" gradientUnits="userSpaceOnUse">
<stop stop-color="#0398C1"/>
<stop offset="1" stop-color="#38EF7D"/>
</linearGradient>
</defs>
</svg>
