<svg width="48" height="48" viewBox="0 0 48 48" fill="none" xmlns="http://www.w3.org/2000/svg">
<path d="M39.2193 27.6543C40.6708 27.6543 41.8682 28.8373 41.651 30.2725C40.3884 38.6099 33.1914 45 24.5016 45C15.8117 45 8.61468 38.6099 7.35215 30.2725C7.13488 28.8373 8.3323 27.6543 9.78379 27.6543C11.2352 27.6544 12.3822 28.8451 12.6939 30.2627C13.8867 35.6857 18.7203 39.7432 24.5016 39.7432C30.2828 39.7432 35.1164 35.6857 36.3092 30.2627C36.6209 28.8451 37.7679 27.6544 39.2193 27.6543ZM24.5016 18.1924C29.1464 18.1924 32.9117 21.9577 32.9117 26.6025C32.9117 31.2474 29.1464 35.0127 24.5016 35.0127C19.8567 35.0127 16.0914 31.2474 16.0914 26.6025C16.0914 21.9577 19.8567 18.1924 24.5016 18.1924ZM24.5016 4C36.4544 4 46.2407 13.2782 47.0504 25.0254C47.1102 25.8942 46.3978 26.6025 45.527 26.6025C44.6563 26.6024 43.9571 25.8942 43.8873 25.0264C43.0848 15.0225 34.712 7.1543 24.5016 7.1543C14.2911 7.1543 5.91836 15.0225 5.11582 25.0264C5.04599 25.8942 4.34682 26.6024 3.47617 26.6025C2.60528 26.6025 1.89288 25.8942 1.95273 25.0254C2.76244 13.2782 12.5487 4 24.5016 4Z" fill="url(#paint0_linear_60_1825)"/>
<defs>
<linearGradient id="paint0_linear_60_1825" x1="25.026" y1="45" x2="25.026" y2="4" gradientUnits="userSpaceOnUse">
<stop stop-color="#6E45E2"/>
<stop offset="1" stop-color="#88D3CE"/>
</linearGradient>
</defs>
</svg>
