<svg width="48" height="48" viewBox="0 0 48 48" fill="none" xmlns="http://www.w3.org/2000/svg">
<path d="M7.10701 41.6562C15.2378 35.5225 19.3032 32.4556 24.0001 32.4556C28.697 32.4556 32.7624 35.5225 40.8931 41.6562L43.9999 43.9999L41.6562 40.8931C35.5225 32.7623 32.4556 28.697 32.4556 24.0001C32.4556 19.3032 35.5224 15.2378 41.6562 7.10702L44 4.00009L40.8931 6.34389C32.7623 12.4776 28.697 15.5445 24.0001 15.5445C19.3032 15.5445 15.2378 12.4776 7.10702 6.34389L4 4L6.34389 7.10701C12.4776 15.2378 15.5445 19.3032 15.5445 24.0001C15.5445 28.697 12.4776 32.7623 6.3439 40.8931L4.00008 44L7.10701 41.6562Z" fill="url(#paint0_radial_60_1856)"/>
<defs>
<radialGradient id="paint0_radial_60_1856" cx="0" cy="0" r="1" gradientUnits="userSpaceOnUse" gradientTransform="translate(24 24) scale(20 20)">
<stop stop-color="#544A7D"/>
<stop offset="1" stop-color="#FFD452"/>
</radialGradient>
</defs>
</svg>
