<svg width="48" height="48" viewBox="0 0 48 48" fill="none" xmlns="http://www.w3.org/2000/svg">
<path d="M8.07692 10.0513V37.9487C7.49572 37.321 6.94872 36.6564 6.4359 35.9549C5.92308 35.2533 5.44444 34.5333 5 33.7949V14.2051C5.44444 13.4667 5.92308 12.7467 6.4359 12.0451C6.94872 11.3436 7.49572 10.679 8.07692 10.0513ZM15.2564 5.33333V42.6667C14.5385 42.3795 13.8376 42.0615 13.1538 41.7128C12.4701 41.3641 11.8034 40.9641 11.1538 40.5128V7.48718C11.8034 7.0359 12.4701 6.6359 13.1538 6.28718C13.8376 5.93846 14.5385 5.62051 15.2564 5.33333ZM27.5641 43.3333V4.66667C31.8718 5.79487 35.4274 8.12821 38.2308 11.6667C41.0342 15.2051 42.4359 19.3162 42.4359 24C42.4359 28.6838 41.0342 32.7949 38.2308 36.3333C35.4274 39.8718 31.8718 42.2051 27.5641 43.3333ZM22.4359 44C21.7521 44 21.0684 43.9658 20.3846 43.8974C19.7008 43.829 19.0171 43.7265 18.3333 43.5897V4.41026C19.0171 4.27351 19.7008 4.17094 20.3846 4.10256C21.0684 4.03418 21.7521 4 22.4359 4C22.812 4 23.1653 4.00854 23.4959 4.02564C23.8262 4.04274 24.1566 4.06838 24.4872 4.10256V43.8974C24.1566 43.9316 23.8262 43.9572 23.4959 43.9744C23.1653 43.9915 22.812 44 22.4359 44Z" fill="url(#paint0_linear_60_1831)"/>
<defs>
<linearGradient id="paint0_linear_60_1831" x1="42.4359" y1="24" x2="5" y2="24" gradientUnits="userSpaceOnUse">
<stop stop-color="#A770EF"/>
<stop offset="0.5" stop-color="#CF8BF3"/>
<stop offset="1" stop-color="#FDB99B"/>
</linearGradient>
</defs>
</svg>
