<svg width="48" height="48" viewBox="0 0 48 48" fill="none" xmlns="http://www.w3.org/2000/svg">
<g clip-path="url(#clip0_60_1846)">
<path d="M43.7255 22.7613C44.8252 23.56 44.8252 25.1994 43.7255 25.998L19.9161 43.2872C18.594 44.2473 16.7409 43.3028 16.7409 41.6689L16.7409 7.09045C16.7409 5.45655 18.594 4.51207 19.9161 5.47212L43.7255 22.7613Z" fill="url(#paint0_linear_60_1846)"/>
<path d="M15.3267 22.9655C16.1077 23.7465 16.1077 25.0128 15.3267 25.7939L9.54851 31.5721C8.28858 32.832 6.1343 31.9397 6.1343 30.1578L6.1343 18.6015C6.1343 16.8197 8.28858 15.9274 9.54851 17.1873L15.3267 22.9655Z" fill="url(#paint1_linear_60_1846)"/>
</g>
<defs>
<linearGradient id="paint0_linear_60_1846" x1="10.3102" y1="12.6898" x2="33.6898" y2="36.0695" gradientUnits="userSpaceOnUse">
<stop stop-color="#AF3FFC"/>
<stop offset="0.45" stop-color="#EC38BC"/>
<stop offset="1" stop-color="#DFD1DB"/>
</linearGradient>
<linearGradient id="paint1_linear_60_1846" x1="10.3102" y1="12.6898" x2="33.6898" y2="36.0695" gradientUnits="userSpaceOnUse">
<stop stop-color="#AF3FFC"/>
<stop offset="0.45" stop-color="#EC38BC"/>
<stop offset="1" stop-color="#DFD1DB"/>
</linearGradient>
<clipPath id="clip0_60_1846">
<rect width="48" height="48" fill="white"/>
</clipPath>
</defs>
</svg>
