<svg width="398" height="86" viewBox="0 0 398 86" fill="none" xmlns="http://www.w3.org/2000/svg">
<path d="M102.24 73.8416C99.3594 73.6596 96.5513 73.0772 93.8161 72.0943C91.0809 71.1114 88.6812 69.7717 86.6243 68.0826C84.5601 66.3862 83.0211 64.3985 82 62.1051L91.6862 57.9551C92.1604 58.938 92.9919 59.9063 94.1735 60.8528C95.3551 61.7993 96.7555 62.5711 98.3601 63.1754C99.9648 63.7797 101.642 64.0782 103.393 64.0782C105.143 64.0782 106.704 63.8306 108.178 63.3428C109.651 62.855 110.869 62.0978 111.817 61.0785C112.766 60.0592 113.24 58.8361 113.24 57.4163C113.24 55.8145 112.7 54.5695 111.628 53.674C110.548 52.7858 109.213 52.1014 107.609 51.6281C106.004 51.1549 104.399 50.6962 102.795 50.2593C99.2208 49.4585 95.9459 48.3591 92.9773 46.9539C90.0014 45.556 87.6455 43.7504 85.8949 41.5516C84.1444 39.3528 83.2691 36.6444 83.2691 33.4409C83.2691 29.9461 84.2173 26.9173 86.1137 24.3472C88.0101 21.7771 90.4974 19.804 93.5827 18.4207C96.6607 17.0374 99.9575 16.3457 103.459 16.3457C107.835 16.3457 111.847 17.2704 115.493 19.1342C119.14 20.9908 121.927 23.5391 123.859 26.779L114.83 32.1303C114.283 31.0382 113.458 30.0553 112.364 29.1816C111.27 28.3079 110.03 27.609 108.644 27.0775C107.259 26.5533 105.814 26.2475 104.319 26.1747C102.459 26.1019 100.738 26.313 99.1479 26.8008C97.5578 27.2886 96.296 28.0677 95.3478 29.1234C94.3996 30.1791 93.9255 31.526 93.9255 33.1642C93.9255 34.8024 94.4944 35.96 95.6249 36.739C96.7555 37.5181 98.1851 38.1515 99.921 38.6247C101.65 39.098 103.429 39.6295 105.253 40.2047C108.499 41.224 111.54 42.469 114.392 43.947C117.237 45.4249 119.534 47.2306 121.285 49.3784C123.035 51.5262 123.874 54.1473 123.801 57.2416C123.801 60.6635 122.773 63.6705 120.709 66.2551C118.644 68.8398 115.975 70.8056 112.693 72.1525C109.41 73.4994 105.924 74.0601 102.24 73.8489V73.8416Z" fill="#FEFFF8"/>
<path d="M162.028 31.0085H150.54L150.489 74.256H139.111L139.169 31.0085H130.475V19.6505H139.169L139.111 0.706055H150.489L150.54 19.6505H162.028V31.0085V31.0085Z" fill="#FEFFF8"/>
<path d="M171.109 19.6504H182.488V74.2559H171.109V19.6504V19.6504Z" fill="#FEFFF8"/>
<path d="M206.287 86.0004H194.908V17.9256H206.287V25.9562C208.11 23.1532 210.444 20.8743 213.289 19.1269C216.133 17.3795 219.489 16.5059 223.354 16.5059C227.22 16.5059 231.057 17.2558 234.543 18.7483C238.022 20.2409 241.078 22.3086 243.704 24.9442C246.33 27.5871 248.387 30.6305 249.882 34.0888C251.377 37.5472 252.129 41.2603 252.129 45.2283C252.129 49.1963 251.377 52.9314 249.882 56.4261C248.387 59.9209 246.323 62.986 243.704 65.629C241.078 68.2719 238.022 70.3323 234.543 71.8249C231.057 73.3174 227.329 74.06 223.354 74.06C219.379 74.06 216.133 73.1791 213.289 71.4099C210.444 69.6479 208.11 67.3763 206.287 64.6097V86.0004V86.0004ZM223.245 27.0265C220.072 27.0265 217.286 27.8274 214.879 29.4292C212.472 31.0309 210.59 33.1715 209.248 35.8435C207.899 38.5155 207.22 41.4933 207.22 44.7697C207.22 48.046 207.891 51.0311 209.248 53.725C210.597 56.4188 212.472 58.5666 214.879 60.1684C217.286 61.7702 220.072 62.571 223.245 62.571C226.418 62.571 229.262 61.7774 231.888 60.1975C234.514 58.6176 236.607 56.4771 238.175 53.7832C239.744 51.0893 240.524 48.0897 240.524 44.7697C240.524 41.4496 239.751 38.5665 238.197 35.8726C236.644 33.1787 234.558 31.0309 231.932 29.4292C229.306 27.8274 226.403 27.0265 223.23 27.0265H223.245V27.0265Z" fill="#FEFFF8"/>
<path d="M270.181 86.0004H258.803V17.9256H270.181V25.9562C272.005 23.1532 274.339 20.8743 277.183 19.1269C280.028 17.3795 283.383 16.5059 287.249 16.5059C291.115 16.5059 294.951 17.2558 298.438 18.7483C301.917 20.2409 304.973 22.3086 307.599 24.9442C310.225 27.5871 312.281 30.6305 313.777 34.0888C315.272 37.5472 316.023 41.2603 316.023 45.2283C316.023 49.1963 315.272 52.9314 313.777 56.4261C312.281 59.9209 310.217 62.986 307.599 65.629C304.973 68.2719 301.917 70.3323 298.438 71.8249C294.951 73.3174 291.224 74.06 287.249 74.06C283.274 74.06 280.028 73.1791 277.183 71.4099C274.339 69.6479 272.005 67.3763 270.181 64.6097V86.0004V86.0004ZM287.139 27.0265C283.967 27.0265 281.18 27.8274 278.773 29.4292C276.366 31.0309 274.485 33.1715 273.142 35.8435C271.793 38.5155 271.115 41.4933 271.115 44.7697C271.115 48.046 271.786 51.0311 273.142 53.725C274.492 56.4188 276.366 58.5666 278.773 60.1684C281.18 61.7702 283.967 62.571 287.139 62.571C290.312 62.571 293.157 61.7774 295.783 60.1975C298.408 58.6176 300.502 56.4771 302.07 53.7832C303.638 51.0893 304.419 48.0897 304.419 44.7697C304.419 41.4496 303.645 38.5665 302.092 35.8726C300.538 33.1787 298.452 31.0309 295.826 29.4292C293.201 27.8274 290.298 27.0265 287.125 27.0265H287.139V27.0265Z" fill="#FEFFF8"/>
<path d="M324.178 74.256V0.706055H335.556V74.256H324.178Z" fill="#FEFFF8"/>
<path d="M396.569 36.7751C395.402 32.8217 393.578 29.327 391.098 26.2909C388.618 23.2475 385.628 20.8667 382.127 19.1339C378.626 17.4084 374.774 16.542 370.581 16.542C366.824 16.542 363.287 17.2846 359.968 18.7772C356.649 20.2697 353.746 22.3375 351.244 24.9804C348.75 27.616 346.788 30.6739 345.366 34.1541C343.943 37.627 343.229 41.3693 343.229 45.3737C343.229 50.6522 344.461 55.4648 346.927 59.8187C349.385 64.1653 352.689 67.6309 356.824 70.2155C360.967 72.8002 365.548 74.0962 370.581 74.0962C376.051 74.0962 380.996 72.5599 385.409 69.4802C388.451 67.3615 390.967 64.8205 392.944 61.8573L383.768 54.926C382.309 57.3651 380.442 59.2799 378.159 60.6632C375.883 62.0466 373.352 62.7382 370.581 62.7382C367.955 62.7018 365.577 62.0975 363.447 60.9326C361.31 59.7677 359.559 58.1805 358.196 56.1564C356.824 54.1397 355.905 51.8681 355.431 49.3562H397.604C398.078 44.915 397.736 40.7213 396.569 36.7751V36.7751ZM355.045 40.0806C355.519 37.4231 356.481 35.0278 357.918 32.9018C359.363 30.7685 361.186 29.0867 363.389 27.849C365.599 26.6112 367.991 25.9924 370.581 25.9924C373.17 25.9924 375.628 26.6185 377.831 27.8708C380.041 29.1304 381.879 30.8268 383.359 32.9528C384.833 35.086 385.752 37.4595 386.116 40.0806H355.045V40.0806Z" fill="#FEFFF8"/>
<path d="M176.797 12.7704C180.33 12.7704 183.194 9.91165 183.194 6.3852C183.194 2.85875 180.33 0 176.797 0C173.264 0 170.4 2.85875 170.4 6.3852C170.4 9.91165 173.264 12.7704 176.797 12.7704Z" fill="#FEFFF8"/>
<path d="M28.9593 28.7975C33.3217 28.7975 36.8581 25.2611 36.8581 20.8988C36.8581 16.5364 33.3217 13 28.9593 13C24.5969 13 21.0605 16.5364 21.0605 20.8988C21.0605 25.2611 24.5969 28.7975 28.9593 28.7975Z" fill="#1FB861"/>
<path d="M7.9808 28.7975C12.3432 28.7975 15.8796 25.2611 15.8796 20.8988C15.8796 16.5364 12.3432 13 7.9808 13C3.61843 13 0.0820312 16.5364 0.0820312 20.8988C0.0820312 25.2611 3.61843 28.7975 7.9808 28.7975Z" fill="#FF4768"/>
<path d="M28.9593 51.3981C33.3217 51.3981 36.8581 47.8617 36.8581 43.4994C36.8581 39.137 33.3217 35.6006 28.9593 35.6006C24.5969 35.6006 21.0605 39.137 21.0605 43.4994C21.0605 47.8617 24.5969 51.3981 28.9593 51.3981Z" fill="#FF4768"/>
<path d="M50.9925 51.3981C55.3549 51.3981 58.8913 47.8617 58.8913 43.4994C58.8913 39.137 55.3549 35.6006 50.9925 35.6006C46.6302 35.6006 43.0938 39.137 43.0938 43.4994C43.0938 47.8617 46.6302 51.3981 50.9925 51.3981Z" fill="#1FB861"/>
<path d="M7.9808 51.3981C12.3432 51.3981 15.8796 47.8617 15.8796 43.4994C15.8796 39.137 12.3432 35.6006 7.9808 35.6006C3.61843 35.6006 0.0820312 39.137 0.0820312 43.4994C0.0820312 47.8617 3.61843 51.3981 7.9808 51.3981Z" fill="#4984FC"/>
<path d="M28.9593 73.9987C33.3217 73.9987 36.8581 70.4623 36.8581 66.0999C36.8581 61.7376 33.3217 58.2012 28.9593 58.2012C24.5969 58.2012 21.0605 61.7376 21.0605 66.0999C21.0605 70.4623 24.5969 73.9987 28.9593 73.9987Z" fill="#4984FC"/>
<path d="M50.9925 73.9987C55.3549 73.9987 58.8913 70.4623 58.8913 66.0999C58.8913 61.7376 55.3549 58.2012 50.9925 58.2012C46.6302 58.2012 43.0938 61.7376 43.0938 66.0999C43.0938 70.4623 46.6302 73.9987 50.9925 73.9987Z" fill="#FF4768"/>
</svg>
