<svg width="433" height="121" viewBox="0 0 433 121" fill="none" xmlns="http://www.w3.org/2000/svg">
<g clip-path="url(#clip0_40_142)">
<path d="M27.75 103.65C23.8 103.4 19.95 102.6 16.2 101.25C12.45 99.8999 9.16 98.0599 6.34 95.7399C3.51 93.4099 1.4 90.6799 0 87.5299L13.28 81.8299C13.93 83.1799 15.07 84.5099 16.69 85.8099C18.31 87.1099 20.23 88.1699 22.43 88.9999C24.63 89.8299 26.93 90.2399 29.33 90.2399C31.73 90.2399 33.87 89.8999 35.89 89.2299C37.91 88.5599 39.58 87.5199 40.88 86.1199C42.18 84.7199 42.83 83.0399 42.83 81.0899C42.83 78.8899 42.09 77.1799 40.62 75.9499C39.14 74.7299 37.31 73.7899 35.11 73.1399C32.91 72.4899 30.71 71.8599 28.51 71.2599C23.61 70.1599 19.12 68.6499 15.05 66.7199C10.97 64.7999 7.74 62.3199 5.34 59.2999C2.94 56.2799 1.74 52.5599 1.74 48.1599C1.74 43.3599 3.04 39.1999 5.64 35.6699C8.24 32.1399 11.65 29.4299 15.88 27.5299C20.1 25.6299 24.62 24.6799 29.42 24.6799C35.42 24.6799 40.92 25.9499 45.92 28.5099C50.92 31.0599 54.74 34.5599 57.39 39.0099L45.01 46.3599C44.26 44.8599 43.13 43.5099 41.63 42.3099C40.13 41.1099 38.43 40.1499 36.53 39.4199C34.63 38.6999 32.65 38.2799 30.6 38.1799C28.05 38.0799 25.69 38.3699 23.51 39.0399C21.33 39.7099 19.6 40.7799 18.3 42.2299C17 43.6799 16.35 45.5299 16.35 47.7799C16.35 50.0299 17.13 51.6199 18.68 52.6899C20.23 53.7599 22.19 54.6299 24.57 55.2799C26.94 55.9299 29.38 56.6599 31.88 57.4499C36.33 58.8499 40.5 60.5599 44.41 62.5899C48.31 64.6199 51.46 67.0999 53.86 70.0499C56.26 72.9999 57.41 76.5999 57.31 80.8499C57.31 85.5499 55.9 89.6799 53.07 93.2299C50.24 96.7799 46.58 99.4799 42.08 101.33C37.58 103.18 32.8 103.95 27.75 103.66V103.65Z" fill="#263143"/>
<path d="M109.72 44.82H93.97L93.9 104.22H78.3L78.38 44.82H66.46V29.2199H78.38L78.3 3.19995H93.9L93.97 29.2199H109.72V44.82Z" fill="#263143"/>
<path d="M122.17 29.22H137.77V104.22H122.17V29.22V29.22Z" fill="#263143"/>
<path d="M170.4 120.35H154.8V26.8499H170.4V37.8799C172.9 34.0299 176.1 30.8999 180 28.4999C183.9 26.0999 188.5 24.8999 193.8 24.8999C199.1 24.8999 204.36 25.9299 209.14 27.9799C213.91 30.0299 218.1 32.8699 221.7 36.4899C225.3 40.1199 228.12 44.2999 230.17 49.0499C232.22 53.7999 233.25 58.8999 233.25 64.3499C233.25 69.7999 232.22 74.9299 230.17 79.7299C228.12 84.5299 225.29 88.7399 221.7 92.3699C218.1 95.9999 213.91 98.8299 209.14 100.88C204.36 102.93 199.25 103.95 193.8 103.95C188.35 103.95 183.9 102.74 180 100.31C176.1 97.8899 172.9 94.7699 170.4 90.9699V120.35V120.35ZM193.65 39.3499C189.3 39.3499 185.48 40.4499 182.18 42.6499C178.88 44.8499 176.3 47.7899 174.46 51.4599C172.61 55.1299 171.68 59.2199 171.68 63.7199C171.68 68.2199 172.6 72.3199 174.46 76.0199C176.31 79.7199 178.88 82.6699 182.18 84.8699C185.48 87.0699 189.3 88.1699 193.65 88.1699C198 88.1699 201.9 87.0799 205.5 84.9099C209.1 82.7399 211.97 79.7999 214.12 76.0999C216.27 72.3999 217.34 68.2799 217.34 63.7199C217.34 59.1599 216.28 55.1999 214.15 51.4999C212.02 47.7999 209.16 44.8499 205.56 42.6499C201.96 40.4499 197.98 39.3499 193.63 39.3499H193.65Z" fill="#263143"/>
<path d="M258 120.35H242.4V26.8499H258V37.8799C260.5 34.0299 263.7 30.8999 267.6 28.4999C271.5 26.0999 276.1 24.8999 281.4 24.8999C286.7 24.8999 291.96 25.9299 296.74 27.9799C301.51 30.0299 305.7 32.8699 309.3 36.4899C312.9 40.1199 315.72 44.2999 317.77 49.0499C319.82 53.7999 320.85 58.8999 320.85 64.3499C320.85 69.7999 319.82 74.9299 317.77 79.7299C315.72 84.5299 312.89 88.7399 309.3 92.3699C305.7 95.9999 301.51 98.8299 296.74 100.88C291.96 102.93 286.85 103.95 281.4 103.95C275.95 103.95 271.5 102.74 267.6 100.31C263.7 97.8899 260.5 94.7699 258 90.9699V120.35V120.35ZM281.25 39.3499C276.9 39.3499 273.08 40.4499 269.78 42.6499C266.48 44.8499 263.9 47.7899 262.06 51.4599C260.21 55.1299 259.28 59.2199 259.28 63.7199C259.28 68.2199 260.2 72.3199 262.06 76.0199C263.91 79.7199 266.48 82.6699 269.78 84.8699C273.08 87.0699 276.9 88.1699 281.25 88.1699C285.6 88.1699 289.5 87.0799 293.1 84.9099C296.7 82.7399 299.57 79.7999 301.72 76.0999C303.87 72.3999 304.94 68.2799 304.94 63.7199C304.94 59.1599 303.88 55.1999 301.75 51.4999C299.62 47.7999 296.76 44.8499 293.16 42.6499C289.56 40.4499 285.58 39.3499 281.23 39.3499H281.25Z" fill="#263143"/>
<path d="M332.03 104.22V3.19995H347.63V104.22H332.03Z" fill="#263143"/>
<path d="M431.28 52.74C429.68 47.31 427.18 42.51 423.78 38.34C420.38 34.16 416.28 30.89 411.48 28.51C406.68 26.14 401.4 24.95 395.65 24.95C390.5 24.95 385.65 25.97 381.1 28.02C376.55 30.07 372.57 32.91 369.14 36.54C365.72 40.16 363.03 44.3599 361.08 49.1399C359.13 53.9099 358.15 59.05 358.15 64.55C358.15 71.8 359.84 78.4099 363.22 84.3899C366.59 90.3599 371.12 95.12 376.79 98.67C382.47 102.22 388.75 104 395.65 104C403.15 104 409.93 101.89 415.98 97.66C420.15 94.75 423.6 91.26 426.31 87.19L413.73 77.6699C411.73 81.0199 409.17 83.65 406.04 85.55C402.92 87.45 399.45 88.4 395.65 88.4C392.05 88.35 388.79 87.5199 385.87 85.9199C382.94 84.3199 380.54 82.14 378.67 79.36C376.79 76.59 375.53 73.4699 374.88 70.0199H432.7C433.35 63.9199 432.88 58.16 431.28 52.74V52.74ZM374.35 57.2799C375 53.6299 376.32 50.3399 378.29 47.4199C380.27 44.4899 382.77 42.1799 385.79 40.4799C388.82 38.7799 392.1 37.93 395.65 37.93C399.2 37.93 402.57 38.7899 405.59 40.5099C408.62 42.2399 411.14 44.57 413.17 47.49C415.19 50.42 416.45 53.6799 416.95 57.2799H374.35V57.2799Z" fill="#263143"/>
<path d="M130.12 16.35C127.72 16.35 125.72 15.58 124.12 14.02C122.52 12.47 121.72 10.52 121.72 8.17C121.72 5.82 122.52 3.93 124.12 2.36C125.72 0.78 127.69 0 130.04 0C132.39 0 134.29 0.79 135.89 2.36C137.49 3.94 138.29 5.87 138.29 8.17C138.29 10.47 137.5 12.47 135.93 14.02C134.35 15.57 132.42 16.35 130.12 16.35V16.35Z" fill="#EF1D59"/>
<path d="M163.12 16.35C160.72 16.35 158.72 15.58 157.12 14.02C155.52 12.47 154.72 10.52 154.72 8.17C154.72 5.82 155.52 3.93 157.12 2.36C158.72 0.78 160.69 0 163.04 0C165.39 0 167.29 0.79 168.89 2.36C170.49 3.94 171.29 5.87 171.29 8.17C171.29 10.47 170.5 12.47 168.93 14.02C167.35 15.57 165.42 16.35 163.12 16.35V16.35Z" fill="#00BA50"/>
<path d="M194.96 16.35C192.56 16.35 190.56 15.58 188.96 14.02C187.36 12.47 186.56 10.52 186.56 8.17C186.56 5.82 187.36 3.93 188.96 2.36C190.56 0.78 192.53 0 194.88 0C197.23 0 199.13 0.79 200.73 2.36C202.33 3.94 203.13 5.87 203.13 8.17C203.13 10.47 202.34 12.47 200.77 14.02C199.19 15.57 197.26 16.35 194.96 16.35V16.35Z" fill="#4984FC"/>
</g>
<defs>
<clipPath id="clip0_40_142">
<rect width="432.98" height="120.35" fill="white"/>
</clipPath>
</defs>
</svg>
