<svg width="83" height="17" viewBox="0 0 83 17" fill="none" xmlns="http://www.w3.org/2000/svg">
<path d="M9.11972 16.35C6.71972 16.35 4.71973 15.58 3.11973 14.02C1.51973 12.47 0.719727 10.52 0.719727 8.17C0.719727 5.82 1.51973 3.93 3.11973 2.36C4.71973 0.78 6.68972 0 9.03972 0C11.3897 0 13.2897 0.79 14.8897 2.36C16.4897 3.94 17.2897 5.87 17.2897 8.17C17.2897 10.47 16.4997 12.47 14.9297 14.02C13.3497 15.57 11.4197 16.35 9.11972 16.35V16.35Z" fill="#EF1D59"/>
<path d="M42.1197 16.35C39.7197 16.35 37.7197 15.58 36.1197 14.02C34.5197 12.47 33.7197 10.52 33.7197 8.17C33.7197 5.82 34.5197 3.93 36.1197 2.36C37.7197 0.78 39.6897 0 42.0397 0C44.3897 0 46.2897 0.79 47.8897 2.36C49.4897 3.94 50.2897 5.87 50.2897 8.17C50.2897 10.47 49.4997 12.47 47.9297 14.02C46.3497 15.57 44.4197 16.35 42.1197 16.35V16.35Z" fill="#00BA50"/>
<path d="M73.9596 16.35C71.5596 16.35 69.5596 15.58 67.9596 14.02C66.3596 12.47 65.5596 10.52 65.5596 8.17C65.5596 5.82 66.3596 3.93 67.9596 2.36C69.5596 0.78 71.5296 0 73.8796 0C76.2296 0 78.1296 0.79 79.7296 2.36C81.3296 3.94 82.1296 5.87 82.1296 8.17C82.1296 10.47 81.3396 12.47 79.7696 14.02C78.1896 15.57 76.2596 16.35 73.9596 16.35V16.35Z" fill="#4984FC"/>
</svg>
