<svg width="433" height="121" viewBox="0 0 433 121" fill="none" xmlns="http://www.w3.org/2000/svg">
<g clip-path="url(#clip0_90_586)">
<path d="M27.75 103.65C23.8 103.4 19.95 102.6 16.2 101.25C12.45 99.9002 9.16 98.0602 6.34 95.7402C3.51 93.4102 1.4 90.6802 0 87.5302L13.28 81.8302C13.93 83.1802 15.07 84.5102 16.69 85.8102C18.31 87.1102 20.23 88.1702 22.43 89.0002C24.63 89.8302 26.93 90.2402 29.33 90.2402C31.73 90.2402 33.87 89.9002 35.89 89.2302C37.91 88.5602 39.58 87.5202 40.88 86.1202C42.18 84.7202 42.83 83.0402 42.83 81.0902C42.83 78.8902 42.09 77.1802 40.62 75.9502C39.14 74.7302 37.31 73.7902 35.11 73.1402C32.91 72.4902 30.71 71.8602 28.51 71.2602C23.61 70.1602 19.12 68.6502 15.05 66.7202C10.97 64.8002 7.74 62.3202 5.34 59.3002C2.94 56.2802 1.74 52.5602 1.74 48.1602C1.74 43.3602 3.04 39.2002 5.64 35.6702C8.24 32.1402 11.65 29.4302 15.88 27.5302C20.1 25.6302 24.62 24.6802 29.42 24.6802C35.42 24.6802 40.92 25.9502 45.92 28.5102C50.92 31.0602 54.74 34.5602 57.39 39.0102L45.01 46.3602C44.26 44.8602 43.13 43.5102 41.63 42.3102C40.13 41.1102 38.43 40.1502 36.53 39.4202C34.63 38.7002 32.65 38.2802 30.6 38.1802C28.05 38.0802 25.69 38.3702 23.51 39.0402C21.33 39.7102 19.6 40.7802 18.3 42.2302C17 43.6802 16.35 45.5302 16.35 47.7802C16.35 50.0302 17.13 51.6202 18.68 52.6902C20.23 53.7602 22.19 54.6302 24.57 55.2802C26.94 55.9302 29.38 56.6602 31.88 57.4502C36.33 58.8502 40.5 60.5602 44.41 62.5902C48.31 64.6202 51.46 67.1002 53.86 70.0502C56.26 73.0002 57.41 76.6002 57.31 80.8502C57.31 85.5502 55.9 89.6802 53.07 93.2302C50.24 96.7802 46.58 99.4802 42.08 101.33C37.58 103.18 32.8 103.95 27.75 103.66V103.65Z" fill="#E1E1E1"/>
<path d="M109.72 44.8202H93.97L93.9 104.22H78.3L78.38 44.8202H66.46V29.2202H78.38L78.3 3.2002H93.9L93.97 29.2202H109.72V44.8202Z" fill="#E1E1E1"/>
<path d="M122.17 29.2202H137.77V104.22H122.17V29.2202V29.2202Z" fill="#E1E1E1"/>
<path d="M170.4 120.35H154.8V26.8499H170.4V37.8799C172.9 34.0299 176.1 30.8999 180 28.4999C183.9 26.0999 188.5 24.8999 193.8 24.8999C199.1 24.8999 204.36 25.9299 209.14 27.9799C213.91 30.0299 218.1 32.8699 221.7 36.4899C225.3 40.1199 228.12 44.2999 230.17 49.0499C232.22 53.7999 233.25 58.8999 233.25 64.3499C233.25 69.7999 232.22 74.9299 230.17 79.7299C228.12 84.5299 225.29 88.7399 221.7 92.3699C218.1 95.9999 213.91 98.8299 209.14 100.88C204.36 102.93 199.25 103.95 193.8 103.95C188.35 103.95 183.9 102.74 180 100.31C176.1 97.8899 172.9 94.7699 170.4 90.9699V120.35V120.35ZM193.65 39.3499C189.3 39.3499 185.48 40.4499 182.18 42.6499C178.88 44.8499 176.3 47.7899 174.46 51.4599C172.61 55.1299 171.68 59.2199 171.68 63.7199C171.68 68.2199 172.6 72.3199 174.46 76.0199C176.31 79.7199 178.88 82.6699 182.18 84.8699C185.48 87.0699 189.3 88.1699 193.65 88.1699C198 88.1699 201.9 87.0799 205.5 84.9099C209.1 82.7399 211.97 79.7999 214.12 76.0999C216.27 72.3999 217.34 68.2799 217.34 63.7199C217.34 59.1599 216.28 55.1999 214.15 51.4999C212.02 47.7999 209.16 44.8499 205.56 42.6499C201.96 40.4499 197.98 39.3499 193.63 39.3499H193.65Z" fill="#E1E1E1"/>
<path d="M258 120.35H242.4V26.8499H258V37.8799C260.5 34.0299 263.7 30.8999 267.6 28.4999C271.5 26.0999 276.1 24.8999 281.4 24.8999C286.7 24.8999 291.96 25.9299 296.74 27.9799C301.51 30.0299 305.7 32.8699 309.3 36.4899C312.9 40.1199 315.72 44.2999 317.77 49.0499C319.82 53.7999 320.85 58.8999 320.85 64.3499C320.85 69.7999 319.82 74.9299 317.77 79.7299C315.72 84.5299 312.89 88.7399 309.3 92.3699C305.7 95.9999 301.51 98.8299 296.74 100.88C291.96 102.93 286.85 103.95 281.4 103.95C275.95 103.95 271.5 102.74 267.6 100.31C263.7 97.8899 260.5 94.7699 258 90.9699V120.35V120.35ZM281.25 39.3499C276.9 39.3499 273.08 40.4499 269.78 42.6499C266.48 44.8499 263.9 47.7899 262.06 51.4599C260.21 55.1299 259.28 59.2199 259.28 63.7199C259.28 68.2199 260.2 72.3199 262.06 76.0199C263.91 79.7199 266.48 82.6699 269.78 84.8699C273.08 87.0699 276.9 88.1699 281.25 88.1699C285.6 88.1699 289.5 87.0799 293.1 84.9099C296.7 82.7399 299.57 79.7999 301.72 76.0999C303.87 72.3999 304.94 68.2799 304.94 63.7199C304.94 59.1599 303.88 55.1999 301.75 51.4999C299.62 47.7999 296.76 44.8499 293.16 42.6499C289.56 40.4499 285.58 39.3499 281.23 39.3499H281.25Z" fill="#E1E1E1"/>
<path d="M332.03 104.22V3.2002H347.63V104.22H332.03Z" fill="#E1E1E1"/>
<path d="M431.28 52.7402C429.68 47.3102 427.18 42.5102 423.78 38.3402C420.38 34.1602 416.28 30.8902 411.48 28.5102C406.68 26.1402 401.4 24.9502 395.65 24.9502C390.5 24.9502 385.65 25.9702 381.1 28.0202C376.55 30.0702 372.57 32.9102 369.14 36.5402C365.72 40.1602 363.03 44.3602 361.08 49.1402C359.13 53.9102 358.15 59.0502 358.15 64.5502C358.15 71.8002 359.84 78.4102 363.22 84.3902C366.59 90.3602 371.12 95.1202 376.79 98.6702C382.47 102.22 388.75 104 395.65 104C403.15 104 409.93 101.89 415.98 97.6602C420.15 94.7502 423.6 91.2602 426.31 87.1902L413.73 77.6702C411.73 81.0202 409.17 83.6502 406.04 85.5502C402.92 87.4502 399.45 88.4002 395.65 88.4002C392.05 88.3502 388.79 87.5202 385.87 85.9202C382.94 84.3202 380.54 82.1402 378.67 79.3602C376.79 76.5902 375.53 73.4702 374.88 70.0202H432.7C433.35 63.9202 432.88 58.1602 431.28 52.7402V52.7402ZM374.35 57.2802C375 53.6302 376.32 50.3402 378.29 47.4202C380.27 44.4902 382.77 42.1802 385.79 40.4802C388.82 38.7802 392.1 37.9302 395.65 37.9302C399.2 37.9302 402.57 38.7902 405.59 40.5102C408.62 42.2402 411.14 44.5702 413.17 47.4902C415.19 50.4202 416.45 53.6802 416.95 57.2802H374.35V57.2802Z" fill="#E1E1E1"/>
<path d="M130.12 16.35C127.72 16.35 125.72 15.58 124.12 14.02C122.52 12.47 121.72 10.52 121.72 8.17C121.72 5.82 122.52 3.93 124.12 2.36C125.72 0.78 127.69 0 130.04 0C132.39 0 134.29 0.79 135.89 2.36C137.49 3.94 138.29 5.87 138.29 8.17C138.29 10.47 137.5 12.47 135.93 14.02C134.35 15.57 132.42 16.35 130.12 16.35V16.35Z" fill="#EF1D59"/>
<path d="M163.12 16.35C160.72 16.35 158.72 15.58 157.12 14.02C155.52 12.47 154.72 10.52 154.72 8.17C154.72 5.82 155.52 3.93 157.12 2.36C158.72 0.78 160.69 0 163.04 0C165.39 0 167.29 0.79 168.89 2.36C170.49 3.94 171.29 5.87 171.29 8.17C171.29 10.47 170.5 12.47 168.93 14.02C167.35 15.57 165.42 16.35 163.12 16.35V16.35Z" fill="#00BA50"/>
<path d="M194.96 16.35C192.56 16.35 190.56 15.58 188.96 14.02C187.36 12.47 186.56 10.52 186.56 8.17C186.56 5.82 187.36 3.93 188.96 2.36C190.56 0.78 192.53 0 194.88 0C197.23 0 199.13 0.79 200.73 2.36C202.33 3.94 203.13 5.87 203.13 8.17C203.13 10.47 202.34 12.47 200.77 14.02C199.19 15.57 197.26 16.35 194.96 16.35V16.35Z" fill="#4984FC"/>
</g>
<defs>
<clipPath id="clip0_90_586">
<rect width="432.98" height="120.35" fill="white"/>
</clipPath>
</defs>
</svg>
