<?xml version="1.0" encoding="UTF-8"?>
<svg id="Layer_2" data-name="Layer 2" xmlns="http://www.w3.org/2000/svg" viewBox="0 0 553.89 123.35">
  <defs>
    <style>
      .cls-1 {
        fill: none;
      }

      .cls-2 {
        fill: #00ba50;
      }

      .cls-3 {
        fill: #ef1d59;
      }

      .cls-4 {
        fill: #4984fc;
      }

      .cls-5 {
        fill: #263143;
      }
    </style>
  </defs>
  <g id="Layer_1-2" data-name="Layer 1">
    <g>
      <rect class="cls-1" x="120.9" width="432.98" height="123.35"/>
      <path class="cls-5" d="M148.65,106.65c-3.95-.25-7.8-1.05-11.55-2.4-3.75-1.35-7.04-3.19-9.86-5.51-2.83-2.33-4.94-5.06-6.34-8.21l13.28-5.7c.65,1.35,1.79,2.68,3.41,3.98,1.62,1.3,3.54,2.36,5.74,3.19,2.2,.83,4.5,1.24,6.9,1.24s4.54-.34,6.56-1.01c2.02-.67,3.69-1.71,4.99-3.11,1.3-1.4,1.95-3.08,1.95-5.03,0-2.2-.74-3.91-2.21-5.14-1.48-1.22-3.31-2.16-5.51-2.81s-4.4-1.28-6.6-1.88c-4.9-1.1-9.39-2.61-13.46-4.54-4.08-1.92-7.31-4.4-9.71-7.42-2.4-3.02-3.6-6.74-3.6-11.14,0-4.8,1.3-8.96,3.9-12.49,2.6-3.53,6.01-6.24,10.24-8.14,4.22-1.9,8.74-2.85,13.54-2.85,6,0,11.5,1.27,16.5,3.83,5,2.55,8.82,6.05,11.47,10.5l-12.38,7.35c-.75-1.5-1.88-2.85-3.38-4.05-1.5-1.2-3.2-2.16-5.1-2.89-1.9-.72-3.88-1.14-5.93-1.24-2.55-.1-4.91,.19-7.09,.86-2.18,.67-3.91,1.74-5.21,3.19-1.3,1.45-1.95,3.3-1.95,5.55s.78,3.84,2.33,4.91c1.55,1.07,3.51,1.94,5.89,2.59,2.37,.65,4.81,1.38,7.31,2.17,4.45,1.4,8.62,3.11,12.53,5.14,3.9,2.03,7.05,4.51,9.45,7.46,2.4,2.95,3.55,6.55,3.45,10.8,0,4.7-1.41,8.83-4.24,12.38-2.83,3.55-6.49,6.25-10.99,8.1-4.5,1.85-9.28,2.62-14.33,2.33h0Z"/>
      <path class="cls-5" d="M230.62,47.82h-15.75l-.07,59.4h-15.6l.08-59.4h-11.92v-15.6h11.92l-.08-26.02h15.6l.07,26.02h15.75v15.6Z"/>
      <path class="cls-5" d="M243.07,32.22h15.6V107.22h-15.6V32.22h0Z"/>
      <path class="cls-5" d="M291.3,123.35h-15.6V29.85h15.6v11.03c2.5-3.85,5.7-6.98,9.6-9.38,3.9-2.4,8.5-3.6,13.8-3.6s10.56,1.03,15.34,3.08c4.77,2.05,8.96,4.89,12.56,8.51,3.6,3.63,6.42,7.81,8.47,12.56s3.08,9.85,3.08,15.3-1.03,10.58-3.08,15.38c-2.05,4.8-4.88,9.01-8.47,12.64-3.6,3.63-7.79,6.46-12.56,8.51-4.78,2.05-9.89,3.07-15.34,3.07s-9.9-1.21-13.8-3.64c-3.9-2.42-7.1-5.54-9.6-9.34v29.38h0Zm23.25-81c-4.35,0-8.17,1.1-11.47,3.3-3.3,2.2-5.88,5.14-7.72,8.81-1.85,3.67-2.78,7.76-2.78,12.26s.92,8.6,2.78,12.3c1.85,3.7,4.42,6.65,7.72,8.85,3.3,2.2,7.12,3.3,11.47,3.3s8.25-1.09,11.85-3.26c3.6-2.17,6.47-5.11,8.62-8.81,2.15-3.7,3.22-7.82,3.22-12.38s-1.06-8.52-3.19-12.22c-2.13-3.7-4.99-6.65-8.59-8.85-3.6-2.2-7.58-3.3-11.93-3.3h.02Z"/>
      <path class="cls-5" d="M378.9,123.35h-15.6V29.85h15.6v11.03c2.5-3.85,5.7-6.98,9.6-9.38,3.9-2.4,8.5-3.6,13.8-3.6s10.56,1.03,15.34,3.08c4.77,2.05,8.96,4.89,12.56,8.51,3.6,3.63,6.42,7.81,8.47,12.56,2.05,4.75,3.08,9.85,3.08,15.3s-1.03,10.58-3.08,15.38c-2.05,4.8-4.88,9.01-8.47,12.64-3.6,3.63-7.79,6.46-12.56,8.51-4.78,2.05-9.89,3.07-15.34,3.07s-9.9-1.21-13.8-3.64c-3.9-2.42-7.1-5.54-9.6-9.34v29.38h0Zm23.25-81c-4.35,0-8.17,1.1-11.47,3.3-3.3,2.2-5.88,5.14-7.72,8.81-1.85,3.67-2.78,7.76-2.78,12.26s.92,8.6,2.78,12.3c1.85,3.7,4.42,6.65,7.72,8.85,3.3,2.2,7.12,3.3,11.47,3.3s8.25-1.09,11.85-3.26c3.6-2.17,6.47-5.11,8.62-8.81s3.22-7.82,3.22-12.38-1.06-8.52-3.19-12.22-4.99-6.65-8.59-8.85c-3.6-2.2-7.58-3.3-11.93-3.3h.02Z"/>
      <path class="cls-5" d="M452.93,107.22V6.2h15.6V107.22h-15.6Z"/>
      <path class="cls-5" d="M552.18,55.74c-1.6-5.43-4.1-10.23-7.5-14.4-3.4-4.18-7.5-7.45-12.3-9.83-4.8-2.37-10.08-3.56-15.83-3.56-5.15,0-10,1.02-14.55,3.07-4.55,2.05-8.53,4.89-11.96,8.52-3.42,3.62-6.11,7.82-8.06,12.6-1.95,4.77-2.93,9.91-2.93,15.41,0,7.25,1.69,13.86,5.07,19.84,3.37,5.97,7.9,10.73,13.57,14.28,5.68,3.55,11.96,5.33,18.86,5.33,7.5,0,14.28-2.11,20.33-6.34,4.17-2.91,7.62-6.4,10.33-10.47l-12.58-9.52c-2,3.35-4.56,5.98-7.69,7.88-3.12,1.9-6.59,2.85-10.39,2.85-3.6-.05-6.86-.88-9.78-2.48-2.93-1.6-5.33-3.78-7.2-6.56-1.88-2.77-3.14-5.89-3.79-9.34h57.82c.65-6.1,.18-11.86-1.42-17.28h0Zm-56.93,4.54c.65-3.65,1.97-6.94,3.94-9.86,1.98-2.93,4.48-5.24,7.5-6.94,3.03-1.7,6.31-2.55,9.86-2.55s6.92,.86,9.94,2.58c3.03,1.73,5.55,4.06,7.58,6.98,2.02,2.93,3.28,6.19,3.78,9.79h-42.6Z"/>
      <g>
        <path class="cls-3" d="M19.76,27.89c5.41,0,9.95,.93,13.67,2.77,3.69,1.84,5.55,4.22,5.55,6.95s-1.88,5.03-5.64,6.9c-3.76,1.87-8.23,2.8-13.76,2.8s-10.16-.93-13.92-2.8c-3.76-1.87-5.64-4.11-5.64-6.9s1.88-5.11,5.64-6.95c3.76-1.85,8.47-2.77,14.11-2.77h0Z"/>
        <path class="cls-2" d="M45.73,57.32c5.41,0,9.95,.93,13.67,2.77,3.69,1.84,5.55,4.22,5.55,6.95s-1.88,5.03-5.64,6.9c-3.76,1.87-8.23,2.8-13.76,2.8s-10.16-.93-13.92-2.8c-3.76-1.87-5.64-4.11-5.64-6.9s1.88-5.11,5.64-6.95c3.76-1.85,8.47-2.77,14.11-2.77h0Z"/>
        <path class="cls-4" d="M72.94,86.74c5.41,0,9.95,.93,13.67,2.77,3.69,1.84,5.55,4.22,5.55,6.95s-1.88,5.03-5.64,6.9c-3.76,1.87-8.23,2.8-13.76,2.8s-10.16-.93-13.92-2.8c-3.76-1.87-5.64-4.11-5.64-6.9s1.88-5.11,5.64-6.95c3.76-1.85,8.47-2.77,14.11-2.77h0Z"/>
        <path class="cls-2" d="M45.73,76.74c-5.64,0-10.35-.91-14.11-2.77-3.76-1.84-5.64-4.16-5.64-6.95s1.88-5.04,5.64-6.9c3.76-1.88,8.4-2.8,13.92-2.8s10,.94,13.76,2.8c3.76,1.88,5.64,4.17,5.64,6.9s-1.86,5.11-5.55,6.95c-3.72,1.84-8.26,2.77-13.67,2.77h0Z"/>
      </g>
      <circle class="cls-5" cx="250.87" cy="14" r="8.77"/>
    </g>
  </g>
</svg>