<svg width="98" height="17" viewBox="0 0 98 17" fill="none" xmlns="http://www.w3.org/2000/svg">
<path d="M16.4 16.35C14 16.35 12 15.58 10.4 14.02C8.8 12.47 8 10.52 8 8.17C8 5.82 8.8 3.93 10.4 2.36C12 0.78 13.97 0 16.32 0C18.67 0 20.57 0.79 22.17 2.36C23.77 3.94 24.57 5.87 24.57 8.17C24.57 10.47 23.78 12.47 22.21 14.02C20.63 15.57 18.7 16.35 16.4 16.35V16.35Z" fill="#EF1D59"/>
<path d="M48.9703 16.35C46.5703 16.35 44.5703 15.58 42.9703 14.02C41.3703 12.47 40.5703 10.52 40.5703 8.17C40.5703 5.82 41.3703 3.93 42.9703 2.36C44.5703 0.78 46.5403 0 48.8903 0C51.2403 0 53.1403 0.79 54.7403 2.36C56.3403 3.94 57.1403 5.87 57.1403 8.17C57.1403 10.47 56.3503 12.47 54.7803 14.02C53.2003 15.57 51.2703 16.35 48.9703 16.35V16.35Z" fill="#00BA50"/>
<path d="M81.5406 16.35C79.1406 16.35 77.1406 15.58 75.5406 14.02C73.9406 12.47 73.1406 10.52 73.1406 8.17C73.1406 5.82 73.9406 3.93 75.5406 2.36C77.1406 0.78 79.1106 0 81.4606 0C83.8106 0 85.7106 0.79 87.3106 2.36C88.9106 3.94 89.7106 5.87 89.7106 8.17C89.7106 10.47 88.9206 12.47 87.3506 14.02C85.7706 15.57 83.8406 16.35 81.5406 16.35V16.35Z" fill="#4984FC"/>
</svg>
